{
  "header": {
    "keySignatures": [],
    "meta": [],
    "name": "Electric Piano",
    "ppq": 384,
    "tempos": [
      {
        "bpm": 140.00014000014,
        "ticks": 0
      }
    ],
    "timeSignatures": [
      {
        "ticks": 0,
        "timeSignature": [
          4,
          4
        ],
        "measures": 0
      }
    ]
  },
  "tracks": [
    {
      "channel": 0,
      "controlChanges": {},
      "pitchBends": [],
      "instrument": {
        "family": "piano",
        "number": 0,
        "name": "acoustic grand piano"
      },
      "name": "Electric Piano",
      "notes": [
        {
          "duration": 0.32142825,
          "durationTicks": 288,
          "midi": 51,
          "name": "D#3",
          "ticks": 0,
          "time": 0,
          "velocity": 0.3937007874015748
        },
        {
          "duration": 0.32142825,
          "durationTicks": 288,
          "midi": 39,
          "name": "D#2",
          "ticks": 0,
          "time": 0,
          "velocity": 0.3937007874015748
        },
        {
          "duration": 0.32142824999999997,
          "durationTicks": 288,
          "midi": 51,
          "name": "D#3",
          "ticks": 192,
          "time": 0.21428550000000002,
          "velocity": 0.3937007874015748
        },
        {
          "duration": 0.32142824999999997,
          "durationTicks": 288,
          "midi": 39,
          "name": "D#2",
          "ticks": 192,
          "time": 0.21428550000000002,
          "velocity": 0.3937007874015748
        },
        {
          "duration": 0.32142825,
          "durationTicks": 288,
          "midi": 63,
          "name": "D#4",
          "ticks": 288,
          "time": 0.32142825,
          "velocity": 0.3937007874015748
        },
        {
          "duration": 0.3214282500000001,
          "durationTicks": 288,
          "midi": 39,
          "name": "D#2",
          "ticks": 384,
          "time": 0.42857100000000004,
          "velocity": 0.3937007874015748
        },
        {
          "duration": 0.3214282500000001,
          "durationTicks": 288,
          "midi": 63,
          "name": "D#4",
          "ticks": 480,
          "time": 0.53571375,
          "velocity": 0.3937007874015748
        },
        {
          "duration": 0.32142824999999997,
          "durationTicks": 288,
          "midi": 61,
          "name": "C#4",
          "ticks": 576,
          "time": 0.6428565,
          "velocity": 0.3937007874015748
        },
        {
          "duration": 0.32142824999999997,
          "durationTicks": 288,
          "midi": 39,
          "name": "D#2",
          "ticks": 576,
          "time": 0.6428565,
          "velocity": 0.3937007874015748
        },
        {
          "duration": 0.32142824999999986,
          "durationTicks": 288,
          "midi": 63,
          "name": "D#4",
          "ticks": 672,
          "time": 0.7499992500000001,
          "velocity": 0.3937007874015748
        },
        {
          "duration": 0.3214282500000001,
          "durationTicks": 288,
          "midi": 51,
          "name": "D#3",
          "ticks": 768,
          "time": 0.8571420000000001,
          "velocity": 0.3937007874015748
        },
        {
          "duration": 0.3214282500000001,
          "durationTicks": 288,
          "midi": 39,
          "name": "D#2",
          "ticks": 768,
          "time": 0.8571420000000001,
          "velocity": 0.3937007874015748
        },
        {
          "duration": 0.3214282500000001,
          "durationTicks": 288,
          "midi": 51,
          "name": "D#3",
          "ticks": 960,
          "time": 1.0714275,
          "velocity": 0.3937007874015748
        },
        {
          "duration": 0.3214282500000001,
          "durationTicks": 288,
          "midi": 39,
          "name": "D#2",
          "ticks": 960,
          "time": 1.0714275,
          "velocity": 0.3937007874015748
        },
        {
          "duration": 0.3214282500000001,
          "durationTicks": 288,
          "midi": 63,
          "name": "D#4",
          "ticks": 1056,
          "time": 1.1785702500000002,
          "velocity": 0.3937007874015748
        },
        {
          "duration": 0.3214282500000001,
          "durationTicks": 288,
          "midi": 39,
          "name": "D#2",
          "ticks": 1152,
          "time": 1.285713,
          "velocity": 0.3937007874015748
        },
        {
          "duration": 0.3214282500000001,
          "durationTicks": 288,
          "midi": 63,
          "name": "D#4",
          "ticks": 1248,
          "time": 1.39285575,
          "velocity": 0.3937007874015748
        },
        {
          "duration": 0.32142824999999986,
          "durationTicks": 288,
          "midi": 61,
          "name": "C#4",
          "ticks": 1344,
          "time": 1.4999985000000002,
          "velocity": 0.3937007874015748
        },
        {
          "duration": 0.32142824999999986,
          "durationTicks": 288,
          "midi": 39,
          "name": "D#2",
          "ticks": 1344,
          "time": 1.4999985000000002,
          "velocity": 0.3937007874015748
        },
        {
          "duration": 0.32142824999999986,
          "durationTicks": 288,
          "midi": 63,
          "name": "D#4",
          "ticks": 1440,
          "time": 1.6071412500000002,
          "velocity": 0.3937007874015748
        },
        {
          "duration": 0.32142824999999986,
          "durationTicks": 288,
          "midi": 51,
          "name": "D#3",
          "ticks": 1536,
          "time": 1.7142840000000001,
          "velocity": 0.3937007874015748
        },
        {
          "duration": 0.32142824999999986,
          "durationTicks": 288,
          "midi": 39,
          "name": "D#2",
          "ticks": 1536,
          "time": 1.7142840000000001,
          "velocity": 0.3937007874015748
        },
        {
          "duration": 0.3214282500000003,
          "durationTicks": 288,
          "midi": 51,
          "name": "D#3",
          "ticks": 1728,
          "time": 1.9285695,
          "velocity": 0.3937007874015748
        },
        {
          "duration": 0.3214282500000003,
          "durationTicks": 288,
          "midi": 39,
          "name": "D#2",
          "ticks": 1728,
          "time": 1.9285695,
          "velocity": 0.3937007874015748
        },
        {
          "duration": 0.3214282500000003,
          "durationTicks": 288,
          "midi": 63,
          "name": "D#4",
          "ticks": 1824,
          "time": 2.03571225,
          "velocity": 0.3937007874015748
        },
        {
          "duration": 0.3214282500000003,
          "durationTicks": 288,
          "midi": 39,
          "name": "D#2",
          "ticks": 1920,
          "time": 2.142855,
          "velocity": 0.3937007874015748
        },
        {
          "duration": 0.32142824999999986,
          "durationTicks": 288,
          "midi": 63,
          "name": "D#4",
          "ticks": 2016,
          "time": 2.2499977500000004,
          "velocity": 0.3937007874015748
        },
        {
          "duration": 0.32142824999999986,
          "durationTicks": 288,
          "midi": 61,
          "name": "C#4",
          "ticks": 2112,
          "time": 2.3571405000000003,
          "velocity": 0.3937007874015748
        },
        {
          "duration": 0.32142824999999986,
          "durationTicks": 288,
          "midi": 39,
          "name": "D#2",
          "ticks": 2112,
          "time": 2.3571405000000003,
          "velocity": 0.3937007874015748
        },
        {
          "duration": 0.32142824999999986,
          "durationTicks": 288,
          "midi": 63,
          "name": "D#4",
          "ticks": 2208,
          "time": 2.4642832500000003,
          "velocity": 0.3937007874015748
        },
        {
          "duration": 0.32142824999999986,
          "durationTicks": 288,
          "midi": 51,
          "name": "D#3",
          "ticks": 2304,
          "time": 2.571426,
          "velocity": 0.3937007874015748
        },
        {
          "duration": 0.32142824999999986,
          "durationTicks": 288,
          "midi": 42,
          "name": "F#2",
          "ticks": 2304,
          "time": 2.571426,
          "velocity": 0.3937007874015748
        },
        {
          "duration": 0.3214282500000003,
          "durationTicks": 288,
          "midi": 51,
          "name": "D#3",
          "ticks": 2496,
          "time": 2.7857115,
          "velocity": 0.3937007874015748
        },
        {
          "duration": 0.3214282500000003,
          "durationTicks": 288,
          "midi": 42,
          "name": "F#2",
          "ticks": 2496,
          "time": 2.7857115,
          "velocity": 0.3937007874015748
        },
        {
          "duration": 0.3214282500000003,
          "durationTicks": 288,
          "midi": 54,
          "name": "F#3",
          "ticks": 2592,
          "time": 2.89285425,
          "velocity": 0.3937007874015748
        },
        {
          "duration": 0.32142824999999986,
          "durationTicks": 288,
          "midi": 56,
          "name": "G#3",
          "ticks": 2688,
          "time": 2.9999970000000005,
          "velocity": 0.3937007874015748
        },
        {
          "duration": 0.32142824999999986,
          "durationTicks": 288,
          "midi": 44,
          "name": "G#2",
          "ticks": 2688,
          "time": 2.9999970000000005,
          "velocity": 0.3937007874015748
        },
        {
          "duration": 0.32142824999999986,
          "durationTicks": 288,
          "midi": 54,
          "name": "F#3",
          "ticks": 2880,
          "time": 3.2142825000000004,
          "velocity": 0.3937007874015748
        },
        {
          "duration": 0.32142824999999986,
          "durationTicks": 288,
          "midi": 44,
          "name": "G#2",
          "ticks": 2880,
          "time": 3.2142825000000004,
          "velocity": 0.3937007874015748
        },
        {
          "duration": 0.32142824999999986,
          "durationTicks": 288,
          "midi": 56,
          "name": "G#3",
          "ticks": 2976,
          "time": 3.3214252500000003,
          "velocity": 0.3937007874015748
        },
        {
          "duration": 0.32142824999999986,
          "durationTicks": 288,
          "midi": 51,
          "name": "D#3",
          "ticks": 3072,
          "time": 3.4285680000000003,
          "velocity": 0.3937007874015748
        },
        {
          "duration": 0.32142824999999986,
          "durationTicks": 288,
          "midi": 39,
          "name": "D#2",
          "ticks": 3072,
          "time": 3.4285680000000003,
          "velocity": 0.3937007874015748
        },
        {
          "duration": 0.3214282500000003,
          "durationTicks": 288,
          "midi": 51,
          "name": "D#3",
          "ticks": 3264,
          "time": 3.6428535,
          "velocity": 0.3937007874015748
        },
        {
          "duration": 0.3214282500000003,
          "durationTicks": 288,
          "midi": 39,
          "name": "D#2",
          "ticks": 3264,
          "time": 3.6428535,
          "velocity": 0.3937007874015748
        },
        {
          "duration": 0.32142824999999986,
          "durationTicks": 288,
          "midi": 63,
          "name": "D#4",
          "ticks": 3360,
          "time": 3.74999625,
          "velocity": 0.3937007874015748
        },
        {
          "duration": 0.3214282500000003,
          "durationTicks": 288,
          "midi": 39,
          "name": "D#2",
          "ticks": 3456,
          "time": 3.857139,
          "velocity": 0.3937007874015748
        },
        {
          "duration": 0.3214282499999994,
          "durationTicks": 288,
          "midi": 63,
          "name": "D#4",
          "ticks": 3552,
          "time": 3.9642817500000005,
          "velocity": 0.3937007874015748
        },
        {
          "duration": 0.3214282500000003,
          "durationTicks": 288,
          "midi": 61,
          "name": "C#4",
          "ticks": 3648,
          "time": 4.0714245,
          "velocity": 0.3937007874015748
        },
        {
          "duration": 0.3214282500000003,
          "durationTicks": 288,
          "midi": 39,
          "name": "D#2",
          "ticks": 3648,
          "time": 4.0714245,
          "velocity": 0.3937007874015748
        },
        {
          "duration": 0.3214282500000003,
          "durationTicks": 288,
          "midi": 63,
          "name": "D#4",
          "ticks": 3744,
          "time": 4.17856725,
          "velocity": 0.3937007874015748
        },
        {
          "duration": 0.3214282500000003,
          "durationTicks": 288,
          "midi": 51,
          "name": "D#3",
          "ticks": 3840,
          "time": 4.28571,
          "velocity": 0.3937007874015748
        },
        {
          "duration": 0.3214282500000003,
          "durationTicks": 288,
          "midi": 39,
          "name": "D#2",
          "ticks": 3840,
          "time": 4.28571,
          "velocity": 0.3937007874015748
        },
        {
          "duration": 0.3214282499999994,
          "durationTicks": 288,
          "midi": 51,
          "name": "D#3",
          "ticks": 4032,
          "time": 4.499995500000001,
          "velocity": 0.3937007874015748
        },
        {
          "duration": 0.3214282499999994,
          "durationTicks": 288,
          "midi": 39,
          "name": "D#2",
          "ticks": 4032,
          "time": 4.499995500000001,
          "velocity": 0.3937007874015748
        },
        {
          "duration": 0.3214282500000003,
          "durationTicks": 288,
          "midi": 63,
          "name": "D#4",
          "ticks": 4128,
          "time": 4.60713825,
          "velocity": 0.3937007874015748
        },
        {
          "duration": 0.3214282499999994,
          "durationTicks": 288,
          "midi": 39,
          "name": "D#2",
          "ticks": 4224,
          "time": 4.714281000000001,
          "velocity": 0.3937007874015748
        },
        {
          "duration": 0.3214282500000003,
          "durationTicks": 288,
          "midi": 63,
          "name": "D#4",
          "ticks": 4320,
          "time": 4.82142375,
          "velocity": 0.3937007874015748
        },
        {
          "duration": 0.3214282500000003,
          "durationTicks": 288,
          "midi": 61,
          "name": "C#4",
          "ticks": 4416,
          "time": 4.9285665000000005,
          "velocity": 0.3937007874015748
        },
        {
          "duration": 0.3214282500000003,
          "durationTicks": 288,
          "midi": 39,
          "name": "D#2",
          "ticks": 4416,
          "time": 4.9285665000000005,
          "velocity": 0.3937007874015748
        },
        {
          "duration": 0.3214282500000003,
          "durationTicks": 288,
          "midi": 63,
          "name": "D#4",
          "ticks": 4512,
          "time": 5.03570925,
          "velocity": 0.3937007874015748
        },
        {
          "duration": 0.3214282500000003,
          "durationTicks": 288,
          "midi": 51,
          "name": "D#3",
          "ticks": 4608,
          "time": 5.142852,
          "velocity": 0.3937007874015748
        },
        {
          "duration": 0.3214282500000003,
          "durationTicks": 288,
          "midi": 39,
          "name": "D#2",
          "ticks": 4608,
          "time": 5.142852,
          "velocity": 0.3937007874015748
        },
        {
          "duration": 0.3214282500000003,
          "durationTicks": 288,
          "midi": 51,
          "name": "D#3",
          "ticks": 4800,
          "time": 5.3571375,
          "velocity": 0.3937007874015748
        },
        {
          "duration": 0.3214282500000003,
          "durationTicks": 288,
          "midi": 39,
          "name": "D#2",
          "ticks": 4800,
          "time": 5.3571375,
          "velocity": 0.3937007874015748
        },
        {
          "duration": 0.3214282499999994,
          "durationTicks": 288,
          "midi": 63,
          "name": "D#4",
          "ticks": 4896,
          "time": 5.464280250000001,
          "velocity": 0.3937007874015748
        },
        {
          "duration": 0.3214282500000003,
          "durationTicks": 288,
          "midi": 39,
          "name": "D#2",
          "ticks": 4992,
          "time": 5.571423,
          "velocity": 0.3937007874015748
        },
        {
          "duration": 0.3214282500000003,
          "durationTicks": 288,
          "midi": 63,
          "name": "D#4",
          "ticks": 5088,
          "time": 5.678565750000001,
          "velocity": 0.3937007874015748
        },
        {
          "duration": 0.3214282500000003,
          "durationTicks": 288,
          "midi": 61,
          "name": "C#4",
          "ticks": 5184,
          "time": 5.7857085,
          "velocity": 0.3937007874015748
        },
        {
          "duration": 0.3214282500000003,
          "durationTicks": 288,
          "midi": 39,
          "name": "D#2",
          "ticks": 5184,
          "time": 5.7857085,
          "velocity": 0.3937007874015748
        },
        {
          "duration": 0.3214282500000003,
          "durationTicks": 288,
          "midi": 63,
          "name": "D#4",
          "ticks": 5280,
          "time": 5.8928512500000005,
          "velocity": 0.3937007874015748
        },
        {
          "duration": 0.3214282499999994,
          "durationTicks": 288,
          "midi": 56,
          "name": "G#3",
          "ticks": 5376,
          "time": 5.999994000000001,
          "velocity": 0.3937007874015748
        },
        {
          "duration": 0.3214282499999994,
          "durationTicks": 288,
          "midi": 44,
          "name": "G#2",
          "ticks": 5376,
          "time": 5.999994000000001,
          "velocity": 0.3937007874015748
        },
        {
          "duration": 0.3214282499999994,
          "durationTicks": 288,
          "midi": 54,
          "name": "F#3",
          "ticks": 5568,
          "time": 6.214279500000001,
          "velocity": 0.3937007874015748
        },
        {
          "duration": 0.3214282499999994,
          "durationTicks": 288,
          "midi": 44,
          "name": "G#2",
          "ticks": 5568,
          "time": 6.214279500000001,
          "velocity": 0.3937007874015748
        },
        {
          "duration": 0.3214282500000003,
          "durationTicks": 288,
          "midi": 56,
          "name": "G#3",
          "ticks": 5664,
          "time": 6.32142225,
          "velocity": 0.3937007874015748
        },
        {
          "duration": 0.3214282499999994,
          "durationTicks": 288,
          "midi": 54,
          "name": "F#3",
          "ticks": 5760,
          "time": 6.428565000000001,
          "velocity": 0.3937007874015748
        },
        {
          "duration": 0.3214282499999994,
          "durationTicks": 288,
          "midi": 42,
          "name": "F#2",
          "ticks": 5760,
          "time": 6.428565000000001,
          "velocity": 0.3937007874015748
        },
        {
          "duration": 0.3214282500000003,
          "durationTicks": 288,
          "midi": 54,
          "name": "F#3",
          "ticks": 5952,
          "time": 6.642850500000001,
          "velocity": 0.3937007874015748
        },
        {
          "duration": 0.3214282500000003,
          "durationTicks": 288,
          "midi": 42,
          "name": "F#2",
          "ticks": 5952,
          "time": 6.642850500000001,
          "velocity": 0.3937007874015748
        },
        {
          "duration": 0.3214282500000003,
          "durationTicks": 288,
          "midi": 56,
          "name": "G#3",
          "ticks": 6048,
          "time": 6.74999325,
          "velocity": 0.3937007874015748
        },
        {
          "duration": 0.3214282500000003,
          "durationTicks": 288,
          "midi": 51,
          "name": "D#3",
          "ticks": 6144,
          "time": 6.857136000000001,
          "velocity": 0.3937007874015748
        },
        {
          "duration": 0.3214282500000003,
          "durationTicks": 288,
          "midi": 39,
          "name": "D#2",
          "ticks": 6144,
          "time": 6.857136000000001,
          "velocity": 0.3937007874015748
        },
        {
          "duration": 0.3214282500000003,
          "durationTicks": 288,
          "midi": 51,
          "name": "D#3",
          "ticks": 6336,
          "time": 7.0714215000000005,
          "velocity": 0.3937007874015748
        },
        {
          "duration": 0.3214282500000003,
          "durationTicks": 288,
          "midi": 39,
          "name": "D#2",
          "ticks": 6336,
          "time": 7.0714215000000005,
          "velocity": 0.3937007874015748
        },
        {
          "duration": 0.3214282499999994,
          "durationTicks": 288,
          "midi": 63,
          "name": "D#4",
          "ticks": 6432,
          "time": 7.178564250000001,
          "velocity": 0.3937007874015748
        },
        {
          "duration": 0.3214282500000003,
          "durationTicks": 288,
          "midi": 39,
          "name": "D#2",
          "ticks": 6528,
          "time": 7.285707,
          "velocity": 0.3937007874015748
        },
        {
          "duration": 0.3214282499999994,
          "durationTicks": 288,
          "midi": 63,
          "name": "D#4",
          "ticks": 6624,
          "time": 7.392849750000001,
          "velocity": 0.3937007874015748
        },
        {
          "duration": 0.3214282500000003,
          "durationTicks": 288,
          "midi": 61,
          "name": "C#4",
          "ticks": 6720,
          "time": 7.4999925,
          "velocity": 0.3937007874015748
        },
        {
          "duration": 0.3214282500000003,
          "durationTicks": 288,
          "midi": 39,
          "name": "D#2",
          "ticks": 6720,
          "time": 7.4999925,
          "velocity": 0.3937007874015748
        },
        {
          "duration": 0.3214282500000003,
          "durationTicks": 288,
          "midi": 63,
          "name": "D#4",
          "ticks": 6816,
          "time": 7.607135250000001,
          "velocity": 0.3937007874015748
        },
        {
          "duration": 0.3214282500000003,
          "durationTicks": 288,
          "midi": 51,
          "name": "D#3",
          "ticks": 6912,
          "time": 7.714278,
          "velocity": 0.3937007874015748
        },
        {
          "duration": 0.3214282500000003,
          "durationTicks": 288,
          "midi": 39,
          "name": "D#2",
          "ticks": 6912,
          "time": 7.714278,
          "velocity": 0.3937007874015748
        },
        {
          "duration": 0.3214282500000003,
          "durationTicks": 288,
          "midi": 51,
          "name": "D#3",
          "ticks": 7104,
          "time": 7.928563500000001,
          "velocity": 0.3937007874015748
        },
        {
          "duration": 0.3214282500000003,
          "durationTicks": 288,
          "midi": 39,
          "name": "D#2",
          "ticks": 7104,
          "time": 7.928563500000001,
          "velocity": 0.3937007874015748
        },
        {
          "duration": 0.3214282500000003,
          "durationTicks": 288,
          "midi": 63,
          "name": "D#4",
          "ticks": 7200,
          "time": 8.03570625,
          "velocity": 0.3937007874015748
        },
        {
          "duration": 0.3214282500000003,
          "durationTicks": 288,
          "midi": 39,
          "name": "D#2",
          "ticks": 7296,
          "time": 8.142849,
          "velocity": 0.3937007874015748
        },
        {
          "duration": 0.3214282499999985,
          "durationTicks": 288,
          "midi": 63,
          "name": "D#4",
          "ticks": 7392,
          "time": 8.249991750000001,
          "velocity": 0.3937007874015748
        },
        {
          "duration": 0.3214282500000003,
          "durationTicks": 288,
          "midi": 61,
          "name": "C#4",
          "ticks": 7488,
          "time": 8.3571345,
          "velocity": 0.3937007874015748
        },
        {
          "duration": 0.3214282500000003,
          "durationTicks": 288,
          "midi": 39,
          "name": "D#2",
          "ticks": 7488,
          "time": 8.3571345,
          "velocity": 0.3937007874015748
        },
        {
          "duration": 0.3214282500000003,
          "durationTicks": 288,
          "midi": 63,
          "name": "D#4",
          "ticks": 7584,
          "time": 8.46427725,
          "velocity": 0.3937007874015748
        },
        {
          "duration": 0.3214282500000003,
          "durationTicks": 288,
          "midi": 51,
          "name": "D#3",
          "ticks": 7680,
          "time": 8.57142,
          "velocity": 0.3937007874015748
        },
        {
          "duration": 0.3214282500000003,
          "durationTicks": 288,
          "midi": 39,
          "name": "D#2",
          "ticks": 7680,
          "time": 8.57142,
          "velocity": 0.3937007874015748
        },
        {
          "duration": 0.3214282500000003,
          "durationTicks": 288,
          "midi": 51,
          "name": "D#3",
          "ticks": 7872,
          "time": 8.7857055,
          "velocity": 0.3937007874015748
        },
        {
          "duration": 0.3214282500000003,
          "durationTicks": 288,
          "midi": 39,
          "name": "D#2",
          "ticks": 7872,
          "time": 8.7857055,
          "velocity": 0.3937007874015748
        },
        {
          "duration": 0.3214282500000003,
          "durationTicks": 288,
          "midi": 63,
          "name": "D#4",
          "ticks": 7968,
          "time": 8.89284825,
          "velocity": 0.3937007874015748
        },
        {
          "duration": 0.3214282499999985,
          "durationTicks": 288,
          "midi": 39,
          "name": "D#2",
          "ticks": 8064,
          "time": 8.999991000000001,
          "velocity": 0.3937007874015748
        },
        {
          "duration": 0.3214282500000003,
          "durationTicks": 288,
          "midi": 63,
          "name": "D#4",
          "ticks": 8160,
          "time": 9.107133750000001,
          "velocity": 0.3937007874015748
        },
        {
          "duration": 0.3214282500000003,
          "durationTicks": 288,
          "midi": 61,
          "name": "C#4",
          "ticks": 8256,
          "time": 9.2142765,
          "velocity": 0.3937007874015748
        },
        {
          "duration": 0.3214282500000003,
          "durationTicks": 288,
          "midi": 39,
          "name": "D#2",
          "ticks": 8256,
          "time": 9.2142765,
          "velocity": 0.3937007874015748
        },
        {
          "duration": 0.3214282500000003,
          "durationTicks": 288,
          "midi": 63,
          "name": "D#4",
          "ticks": 8352,
          "time": 9.32141925,
          "velocity": 0.3937007874015748
        },
        {
          "duration": 0.3214282500000003,
          "durationTicks": 288,
          "midi": 51,
          "name": "D#3",
          "ticks": 8448,
          "time": 9.428562000000001,
          "velocity": 0.3937007874015748
        },
        {
          "duration": 0.3214282500000003,
          "durationTicks": 288,
          "midi": 42,
          "name": "F#2",
          "ticks": 8448,
          "time": 9.428562000000001,
          "velocity": 0.3937007874015748
        },
        {
          "duration": 0.3214282500000003,
          "durationTicks": 288,
          "midi": 51,
          "name": "D#3",
          "ticks": 8640,
          "time": 9.6428475,
          "velocity": 0.3937007874015748
        },
        {
          "duration": 0.3214282500000003,
          "durationTicks": 288,
          "midi": 42,
          "name": "F#2",
          "ticks": 8640,
          "time": 9.6428475,
          "velocity": 0.3937007874015748
        },
        {
          "duration": 0.3214282499999985,
          "durationTicks": 288,
          "midi": 54,
          "name": "F#3",
          "ticks": 8736,
          "time": 9.749990250000002,
          "velocity": 0.3937007874015748
        },
        {
          "duration": 0.3214282500000003,
          "durationTicks": 288,
          "midi": 56,
          "name": "G#3",
          "ticks": 8832,
          "time": 9.857133000000001,
          "velocity": 0.3937007874015748
        },
        {
          "duration": 0.3214282500000003,
          "durationTicks": 288,
          "midi": 44,
          "name": "G#2",
          "ticks": 8832,
          "time": 9.857133000000001,
          "velocity": 0.3937007874015748
        },
        {
          "duration": 0.3214282500000003,
          "durationTicks": 288,
          "midi": 54,
          "name": "F#3",
          "ticks": 9024,
          "time": 10.0714185,
          "velocity": 0.3937007874015748
        },
        {
          "duration": 0.3214282500000003,
          "durationTicks": 288,
          "midi": 44,
          "name": "G#2",
          "ticks": 9024,
          "time": 10.0714185,
          "velocity": 0.3937007874015748
        },
        {
          "duration": 0.3214282500000003,
          "durationTicks": 288,
          "midi": 56,
          "name": "G#3",
          "ticks": 9120,
          "time": 10.178561250000001,
          "velocity": 0.3937007874015748
        },
        {
          "duration": 0.3214282500000003,
          "durationTicks": 288,
          "midi": 51,
          "name": "D#3",
          "ticks": 9216,
          "time": 10.285704,
          "velocity": 0.3937007874015748
        },
        {
          "duration": 0.3214282500000003,
          "durationTicks": 288,
          "midi": 39,
          "name": "D#2",
          "ticks": 9216,
          "time": 10.285704,
          "velocity": 0.3937007874015748
        },
        {
          "duration": 0.3214282499999985,
          "durationTicks": 288,
          "midi": 51,
          "name": "D#3",
          "ticks": 9408,
          "time": 10.499989500000002,
          "velocity": 0.3937007874015748
        },
        {
          "duration": 0.3214282499999985,
          "durationTicks": 288,
          "midi": 39,
          "name": "D#2",
          "ticks": 9408,
          "time": 10.499989500000002,
          "velocity": 0.3937007874015748
        },
        {
          "duration": 0.3214282500000003,
          "durationTicks": 288,
          "midi": 63,
          "name": "D#4",
          "ticks": 9504,
          "time": 10.607132250000001,
          "velocity": 0.3937007874015748
        },
        {
          "duration": 0.3214282500000003,
          "durationTicks": 288,
          "midi": 39,
          "name": "D#2",
          "ticks": 9600,
          "time": 10.714275,
          "velocity": 0.3937007874015748
        },
        {
          "duration": 0.3214282500000003,
          "durationTicks": 288,
          "midi": 63,
          "name": "D#4",
          "ticks": 9696,
          "time": 10.82141775,
          "velocity": 0.3937007874015748
        },
        {
          "duration": 0.3214282500000003,
          "durationTicks": 288,
          "midi": 61,
          "name": "C#4",
          "ticks": 9792,
          "time": 10.928560500000001,
          "velocity": 0.3937007874015748
        },
        {
          "duration": 0.3214282500000003,
          "durationTicks": 288,
          "midi": 39,
          "name": "D#2",
          "ticks": 9792,
          "time": 10.928560500000001,
          "velocity": 0.3937007874015748
        },
        {
          "duration": 0.3214282500000003,
          "durationTicks": 288,
          "midi": 63,
          "name": "D#4",
          "ticks": 9888,
          "time": 11.035703250000001,
          "velocity": 0.3937007874015748
        },
        {
          "duration": 0.3214282500000003,
          "durationTicks": 288,
          "midi": 51,
          "name": "D#3",
          "ticks": 9984,
          "time": 11.142846,
          "velocity": 0.3937007874015748
        },
        {
          "duration": 0.3214282500000003,
          "durationTicks": 288,
          "midi": 39,
          "name": "D#2",
          "ticks": 9984,
          "time": 11.142846,
          "velocity": 0.3937007874015748
        },
        {
          "duration": 0.3214282500000003,
          "durationTicks": 288,
          "midi": 51,
          "name": "D#3",
          "ticks": 10176,
          "time": 11.357131500000001,
          "velocity": 0.3937007874015748
        },
        {
          "duration": 0.3214282500000003,
          "durationTicks": 288,
          "midi": 39,
          "name": "D#2",
          "ticks": 10176,
          "time": 11.357131500000001,
          "velocity": 0.3937007874015748
        },
        {
          "duration": 0.3214282500000003,
          "durationTicks": 288,
          "midi": 63,
          "name": "D#4",
          "ticks": 10272,
          "time": 11.46427425,
          "velocity": 0.3937007874015748
        },
        {
          "duration": 0.3214282500000003,
          "durationTicks": 288,
          "midi": 39,
          "name": "D#2",
          "ticks": 10368,
          "time": 11.571417,
          "velocity": 0.3937007874015748
        },
        {
          "duration": 0.3214282500000003,
          "durationTicks": 288,
          "midi": 63,
          "name": "D#4",
          "ticks": 10464,
          "time": 11.678559750000002,
          "velocity": 0.3937007874015748
        },
        {
          "duration": 0.3214282500000003,
          "durationTicks": 288,
          "midi": 61,
          "name": "C#4",
          "ticks": 10560,
          "time": 11.785702500000001,
          "velocity": 0.3937007874015748
        },
        {
          "duration": 0.3214282500000003,
          "durationTicks": 288,
          "midi": 39,
          "name": "D#2",
          "ticks": 10560,
          "time": 11.785702500000001,
          "velocity": 0.3937007874015748
        },
        {
          "duration": 0.3214282500000003,
          "durationTicks": 288,
          "midi": 63,
          "name": "D#4",
          "ticks": 10656,
          "time": 11.89284525,
          "velocity": 0.3937007874015748
        },
        {
          "duration": 0.3214282499999985,
          "durationTicks": 288,
          "midi": 51,
          "name": "D#3",
          "ticks": 10752,
          "time": 11.999988000000002,
          "velocity": 0.3937007874015748
        },
        {
          "duration": 0.3214282499999985,
          "durationTicks": 288,
          "midi": 39,
          "name": "D#2",
          "ticks": 10752,
          "time": 11.999988000000002,
          "velocity": 0.3937007874015748
        },
        {
          "duration": 0.3214282500000003,
          "durationTicks": 288,
          "midi": 51,
          "name": "D#3",
          "ticks": 10944,
          "time": 12.214273500000001,
          "velocity": 0.3937007874015748
        },
        {
          "duration": 0.3214282500000003,
          "durationTicks": 288,
          "midi": 39,
          "name": "D#2",
          "ticks": 10944,
          "time": 12.214273500000001,
          "velocity": 0.3937007874015748
        },
        {
          "duration": 0.3214282500000003,
          "durationTicks": 288,
          "midi": 63,
          "name": "D#4",
          "ticks": 11040,
          "time": 12.32141625,
          "velocity": 0.3937007874015748
        },
        {
          "duration": 0.3214282499999985,
          "durationTicks": 288,
          "midi": 39,
          "name": "D#2",
          "ticks": 11136,
          "time": 12.428559000000002,
          "velocity": 0.3937007874015748
        },
        {
          "duration": 0.3214282500000003,
          "durationTicks": 288,
          "midi": 63,
          "name": "D#4",
          "ticks": 11232,
          "time": 12.535701750000001,
          "velocity": 0.3937007874015748
        },
        {
          "duration": 0.3214282500000003,
          "durationTicks": 288,
          "midi": 61,
          "name": "C#4",
          "ticks": 11328,
          "time": 12.6428445,
          "velocity": 0.3937007874015748
        },
        {
          "duration": 0.3214282500000003,
          "durationTicks": 288,
          "midi": 39,
          "name": "D#2",
          "ticks": 11328,
          "time": 12.6428445,
          "velocity": 0.3937007874015748
        },
        {
          "duration": 0.3214282500000003,
          "durationTicks": 288,
          "midi": 63,
          "name": "D#4",
          "ticks": 11424,
          "time": 12.74998725,
          "velocity": 0.3937007874015748
        },
        {
          "duration": 0.3214282500000003,
          "durationTicks": 288,
          "midi": 56,
          "name": "G#3",
          "ticks": 11520,
          "time": 12.857130000000002,
          "velocity": 0.3937007874015748
        },
        {
          "duration": 0.3214282500000003,
          "durationTicks": 288,
          "midi": 44,
          "name": "G#2",
          "ticks": 11520,
          "time": 12.857130000000002,
          "velocity": 0.3937007874015748
        },
        {
          "duration": 0.3214282500000003,
          "durationTicks": 288,
          "midi": 54,
          "name": "F#3",
          "ticks": 11664,
          "time": 13.017844125000002,
          "velocity": 0.3937007874015748
        },
        {
          "duration": 0.3214282500000003,
          "durationTicks": 288,
          "midi": 42,
          "name": "F#2",
          "ticks": 11664,
          "time": 13.017844125000002,
          "velocity": 0.3937007874015748
        },
        {
          "duration": 0.3214282499999985,
          "durationTicks": 288,
          "midi": 56,
          "name": "G#3",
          "ticks": 11808,
          "time": 13.178558250000002,
          "velocity": 0.3937007874015748
        },
        {
          "duration": 0.3214282499999985,
          "durationTicks": 288,
          "midi": 44,
          "name": "G#2",
          "ticks": 11808,
          "time": 13.178558250000002,
          "velocity": 0.3937007874015748
        },
        {
          "duration": 0.3214282500000003,
          "durationTicks": 288,
          "midi": 54,
          "name": "F#3",
          "ticks": 11904,
          "time": 13.285701000000001,
          "velocity": 0.3937007874015748
        },
        {
          "duration": 0.3214282500000003,
          "durationTicks": 288,
          "midi": 42,
          "name": "F#2",
          "ticks": 11904,
          "time": 13.285701000000001,
          "velocity": 0.3937007874015748
        },
        {
          "duration": 0.3214282500000003,
          "durationTicks": 288,
          "midi": 51,
          "name": "D#3",
          "ticks": 12048,
          "time": 13.446415125000001,
          "velocity": 0.3937007874015748
        },
        {
          "duration": 0.3214282500000003,
          "durationTicks": 288,
          "midi": 39,
          "name": "D#2",
          "ticks": 12048,
          "time": 13.446415125000001,
          "velocity": 0.3937007874015748
        },
        {
          "duration": 0.3214282500000003,
          "durationTicks": 288,
          "midi": 54,
          "name": "F#3",
          "ticks": 12192,
          "time": 13.607129250000002,
          "velocity": 0.3937007874015748
        },
        {
          "duration": 0.3214282500000003,
          "durationTicks": 288,
          "midi": 42,
          "name": "F#2",
          "ticks": 12192,
          "time": 13.607129250000002,
          "velocity": 0.3937007874015748
        },
        {
          "duration": 0.3214282500000003,
          "durationTicks": 288,
          "midi": 39,
          "name": "D#2",
          "ticks": 12288,
          "time": 13.714272000000001,
          "velocity": 0.3937007874015748
        },
        {
          "duration": 0.3214282500000003,
          "durationTicks": 288,
          "midi": 63,
          "name": "D#4",
          "ticks": 12288,
          "time": 13.714272000000001,
          "velocity": 0.3937007874015748
        },
        {
          "duration": 0.3214282499999985,
          "durationTicks": 288,
          "midi": 39,
          "name": "D#2",
          "ticks": 12480,
          "time": 13.928557500000002,
          "velocity": 0.3937007874015748
        },
        {
          "duration": 0.3214282499999985,
          "durationTicks": 288,
          "midi": 65,
          "name": "F4",
          "ticks": 12480,
          "time": 13.928557500000002,
          "velocity": 0.3937007874015748
        },
        {
          "duration": 0.3214282500000003,
          "durationTicks": 288,
          "midi": 51,
          "name": "D#3",
          "ticks": 12576,
          "time": 14.035700250000001,
          "velocity": 0.3937007874015748
        },
        {
          "duration": 0.3214282500000003,
          "durationTicks": 288,
          "midi": 39,
          "name": "D#2",
          "ticks": 12672,
          "time": 14.142843000000001,
          "velocity": 0.3937007874015748
        },
        {
          "duration": 0.3214282500000003,
          "durationTicks": 288,
          "midi": 66,
          "name": "F#4",
          "ticks": 12672,
          "time": 14.142843000000001,
          "velocity": 0.3937007874015748
        },
        {
          "duration": 0.3214282500000003,
          "durationTicks": 288,
          "midi": 51,
          "name": "D#3",
          "ticks": 12768,
          "time": 14.24998575,
          "velocity": 0.3937007874015748
        },
        {
          "duration": 0.3214282500000003,
          "durationTicks": 288,
          "midi": 49,
          "name": "C#3",
          "ticks": 12864,
          "time": 14.357128500000002,
          "velocity": 0.3937007874015748
        },
        {
          "duration": 0.3214282500000003,
          "durationTicks": 288,
          "midi": 39,
          "name": "D#2",
          "ticks": 12864,
          "time": 14.357128500000002,
          "velocity": 0.3937007874015748
        },
        {
          "duration": 0.3214282500000003,
          "durationTicks": 288,
          "midi": 68,
          "name": "G#4",
          "ticks": 12864,
          "time": 14.357128500000002,
          "velocity": 0.3937007874015748
        },
        {
          "duration": 0.3214282500000003,
          "durationTicks": 288,
          "midi": 51,
          "name": "D#3",
          "ticks": 12960,
          "time": 14.464271250000001,
          "velocity": 0.3937007874015748
        },
        {
          "duration": 0.3214282500000003,
          "durationTicks": 288,
          "midi": 39,
          "name": "D#2",
          "ticks": 13056,
          "time": 14.571414,
          "velocity": 0.3937007874015748
        },
        {
          "duration": 0.3214282500000003,
          "durationTicks": 288,
          "midi": 70,
          "name": "A#4",
          "ticks": 13056,
          "time": 14.571414,
          "velocity": 0.3937007874015748
        },
        {
          "duration": 0.3214282500000003,
          "durationTicks": 288,
          "midi": 39,
          "name": "D#2",
          "ticks": 13248,
          "time": 14.785699500000002,
          "velocity": 0.3937007874015748
        },
        {
          "duration": 0.3214282500000003,
          "durationTicks": 288,
          "midi": 51,
          "name": "D#3",
          "ticks": 13344,
          "time": 14.892842250000001,
          "velocity": 0.3937007874015748
        },
        {
          "duration": 0.3214282500000003,
          "durationTicks": 288,
          "midi": 39,
          "name": "D#2",
          "ticks": 13440,
          "time": 14.999985,
          "velocity": 0.3937007874015748
        },
        {
          "duration": 0.3214282500000003,
          "durationTicks": 288,
          "midi": 75,
          "name": "D#5",
          "ticks": 13440,
          "time": 14.999985,
          "velocity": 0.3937007874015748
        },
        {
          "duration": 0.3214282499999985,
          "durationTicks": 288,
          "midi": 51,
          "name": "D#3",
          "ticks": 13536,
          "time": 15.107127750000002,
          "velocity": 0.3937007874015748
        },
        {
          "duration": 0.3214282500000003,
          "durationTicks": 288,
          "midi": 49,
          "name": "C#3",
          "ticks": 13632,
          "time": 15.214270500000001,
          "velocity": 0.3937007874015748
        },
        {
          "duration": 0.3214282500000003,
          "durationTicks": 288,
          "midi": 39,
          "name": "D#2",
          "ticks": 13632,
          "time": 15.214270500000001,
          "velocity": 0.3937007874015748
        },
        {
          "duration": 0.3214282500000003,
          "durationTicks": 288,
          "midi": 73,
          "name": "C#5",
          "ticks": 13632,
          "time": 15.214270500000001,
          "velocity": 0.3937007874015748
        },
        {
          "duration": 0.3214282500000003,
          "durationTicks": 288,
          "midi": 51,
          "name": "D#3",
          "ticks": 13728,
          "time": 15.32141325,
          "velocity": 0.3937007874015748
        },
        {
          "duration": 0.3214282500000003,
          "durationTicks": 288,
          "midi": 39,
          "name": "D#2",
          "ticks": 13824,
          "time": 15.428556,
          "velocity": 0.3937007874015748
        },
        {
          "duration": 0.3214282500000003,
          "durationTicks": 288,
          "midi": 70,
          "name": "A#4",
          "ticks": 13824,
          "time": 15.428556,
          "velocity": 0.3937007874015748
        },
        {
          "duration": 0.3214282500000003,
          "durationTicks": 288,
          "midi": 39,
          "name": "D#2",
          "ticks": 14016,
          "time": 15.642841500000001,
          "velocity": 0.3937007874015748
        },
        {
          "duration": 0.3214282500000003,
          "durationTicks": 288,
          "midi": 51,
          "name": "D#3",
          "ticks": 14112,
          "time": 15.74998425,
          "velocity": 0.3937007874015748
        },
        {
          "duration": 0.3214282500000003,
          "durationTicks": 288,
          "midi": 39,
          "name": "D#2",
          "ticks": 14208,
          "time": 15.857127000000002,
          "velocity": 0.3937007874015748
        },
        {
          "duration": 0.3214282500000003,
          "durationTicks": 288,
          "midi": 63,
          "name": "D#4",
          "ticks": 14208,
          "time": 15.857127000000002,
          "velocity": 0.3937007874015748
        },
        {
          "duration": 0.3214282499999985,
          "durationTicks": 288,
          "midi": 51,
          "name": "D#3",
          "ticks": 14304,
          "time": 15.964269750000001,
          "velocity": 0.3937007874015748
        },
        {
          "duration": 0.3214282500000003,
          "durationTicks": 288,
          "midi": 49,
          "name": "C#3",
          "ticks": 14400,
          "time": 16.0714125,
          "velocity": 0.3937007874015748
        },
        {
          "duration": 0.3214282500000003,
          "durationTicks": 288,
          "midi": 39,
          "name": "D#2",
          "ticks": 14400,
          "time": 16.0714125,
          "velocity": 0.3937007874015748
        },
        {
          "duration": 0.3214282500000003,
          "durationTicks": 288,
          "midi": 51,
          "name": "D#3",
          "ticks": 14496,
          "time": 16.178555250000002,
          "velocity": 0.3937007874015748
        },
        {
          "duration": 0.3214282500000003,
          "durationTicks": 288,
          "midi": 39,
          "name": "D#2",
          "ticks": 14592,
          "time": 16.285698,
          "velocity": 0.3937007874015748
        },
        {
          "duration": 0.3214282500000003,
          "durationTicks": 288,
          "midi": 70,
          "name": "A#4",
          "ticks": 14592,
          "time": 16.285698,
          "velocity": 0.3937007874015748
        },
        {
          "duration": 0.3214282500000003,
          "durationTicks": 288,
          "midi": 39,
          "name": "D#2",
          "ticks": 14784,
          "time": 16.499983500000003,
          "velocity": 0.3937007874015748
        },
        {
          "duration": 0.3214282500000003,
          "durationTicks": 288,
          "midi": 68,
          "name": "G#4",
          "ticks": 14784,
          "time": 16.499983500000003,
          "velocity": 0.3937007874015748
        },
        {
          "duration": 0.3214282500000003,
          "durationTicks": 288,
          "midi": 51,
          "name": "D#3",
          "ticks": 14880,
          "time": 16.60712625,
          "velocity": 0.3937007874015748
        },
        {
          "duration": 0.3214282500000003,
          "durationTicks": 288,
          "midi": 39,
          "name": "D#2",
          "ticks": 14976,
          "time": 16.714269,
          "velocity": 0.3937007874015748
        },
        {
          "duration": 0.3214282500000003,
          "durationTicks": 288,
          "midi": 66,
          "name": "F#4",
          "ticks": 14976,
          "time": 16.714269,
          "velocity": 0.3937007874015748
        },
        {
          "duration": 0.32142824999999675,
          "durationTicks": 288,
          "midi": 51,
          "name": "D#3",
          "ticks": 15072,
          "time": 16.821411750000003,
          "velocity": 0.3937007874015748
        },
        {
          "duration": 0.3214282500000003,
          "durationTicks": 288,
          "midi": 49,
          "name": "C#3",
          "ticks": 15168,
          "time": 16.9285545,
          "velocity": 0.3937007874015748
        },
        {
          "duration": 0.3214282500000003,
          "durationTicks": 288,
          "midi": 39,
          "name": "D#2",
          "ticks": 15168,
          "time": 16.9285545,
          "velocity": 0.3937007874015748
        },
        {
          "duration": 0.3214282500000003,
          "durationTicks": 288,
          "midi": 65,
          "name": "F4",
          "ticks": 15168,
          "time": 16.9285545,
          "velocity": 0.3937007874015748
        },
        {
          "duration": 0.3214282500000003,
          "durationTicks": 288,
          "midi": 51,
          "name": "D#3",
          "ticks": 15264,
          "time": 17.035697250000002,
          "velocity": 0.3937007874015748
        },
        {
          "duration": 0.3214282500000003,
          "durationTicks": 288,
          "midi": 35,
          "name": "B1",
          "ticks": 15360,
          "time": 17.14284,
          "velocity": 0.3937007874015748
        },
        {
          "duration": 0.3214282500000003,
          "durationTicks": 288,
          "midi": 63,
          "name": "D#4",
          "ticks": 15360,
          "time": 17.14284,
          "velocity": 0.3937007874015748
        },
        {
          "duration": 0.3214282500000003,
          "durationTicks": 288,
          "midi": 35,
          "name": "B1",
          "ticks": 15552,
          "time": 17.357125500000002,
          "velocity": 0.3937007874015748
        },
        {
          "duration": 0.3214282500000003,
          "durationTicks": 288,
          "midi": 65,
          "name": "F4",
          "ticks": 15552,
          "time": 17.357125500000002,
          "velocity": 0.3937007874015748
        },
        {
          "duration": 0.3214282500000003,
          "durationTicks": 288,
          "midi": 51,
          "name": "D#3",
          "ticks": 15648,
          "time": 17.46426825,
          "velocity": 0.3937007874015748
        },
        {
          "duration": 0.3214282500000003,
          "durationTicks": 288,
          "midi": 35,
          "name": "B1",
          "ticks": 15744,
          "time": 17.571411,
          "velocity": 0.3937007874015748
        },
        {
          "duration": 0.3214282500000003,
          "durationTicks": 288,
          "midi": 66,
          "name": "F#4",
          "ticks": 15744,
          "time": 17.571411,
          "velocity": 0.3937007874015748
        },
        {
          "duration": 0.3214282500000003,
          "durationTicks": 288,
          "midi": 51,
          "name": "D#3",
          "ticks": 15840,
          "time": 17.678553750000003,
          "velocity": 0.3937007874015748
        },
        {
          "duration": 0.3214282500000003,
          "durationTicks": 288,
          "midi": 49,
          "name": "C#3",
          "ticks": 15936,
          "time": 17.7856965,
          "velocity": 0.3937007874015748
        },
        {
          "duration": 0.3214282500000003,
          "durationTicks": 288,
          "midi": 35,
          "name": "B1",
          "ticks": 15936,
          "time": 17.7856965,
          "velocity": 0.3937007874015748
        },
        {
          "duration": 0.3214282500000003,
          "durationTicks": 288,
          "midi": 68,
          "name": "G#4",
          "ticks": 15936,
          "time": 17.7856965,
          "velocity": 0.3937007874015748
        },
        {
          "duration": 0.3214282500000003,
          "durationTicks": 288,
          "midi": 51,
          "name": "D#3",
          "ticks": 16032,
          "time": 17.89283925,
          "velocity": 0.3937007874015748
        },
        {
          "duration": 0.3214282500000003,
          "durationTicks": 288,
          "midi": 35,
          "name": "B1",
          "ticks": 16128,
          "time": 17.999982000000003,
          "velocity": 0.3937007874015748
        },
        {
          "duration": 0.3214282500000003,
          "durationTicks": 288,
          "midi": 70,
          "name": "A#4",
          "ticks": 16128,
          "time": 17.999982000000003,
          "velocity": 0.3937007874015748
        },
        {
          "duration": 0.3214282500000003,
          "durationTicks": 288,
          "midi": 35,
          "name": "B1",
          "ticks": 16320,
          "time": 18.214267500000002,
          "velocity": 0.3937007874015748
        },
        {
          "duration": 0.32142824999999675,
          "durationTicks": 288,
          "midi": 51,
          "name": "D#3",
          "ticks": 16416,
          "time": 18.321410250000003,
          "velocity": 0.3937007874015748
        },
        {
          "duration": 0.3214282500000003,
          "durationTicks": 288,
          "midi": 35,
          "name": "B1",
          "ticks": 16512,
          "time": 18.428553,
          "velocity": 0.3937007874015748
        },
        {
          "duration": 0.3214282500000003,
          "durationTicks": 288,
          "midi": 68,
          "name": "G#4",
          "ticks": 16512,
          "time": 18.428553,
          "velocity": 0.3937007874015748
        },
        {
          "duration": 0.3214282500000003,
          "durationTicks": 288,
          "midi": 51,
          "name": "D#3",
          "ticks": 16608,
          "time": 18.535695750000002,
          "velocity": 0.3937007874015748
        },
        {
          "duration": 0.3214282500000003,
          "durationTicks": 288,
          "midi": 49,
          "name": "C#3",
          "ticks": 16704,
          "time": 18.6428385,
          "velocity": 0.3937007874015748
        },
        {
          "duration": 0.3214282500000003,
          "durationTicks": 288,
          "midi": 35,
          "name": "B1",
          "ticks": 16704,
          "time": 18.6428385,
          "velocity": 0.3937007874015748
        },
        {
          "duration": 0.3214282500000003,
          "durationTicks": 288,
          "midi": 66,
          "name": "F#4",
          "ticks": 16704,
          "time": 18.6428385,
          "velocity": 0.3937007874015748
        },
        {
          "duration": 0.3214282500000003,
          "durationTicks": 288,
          "midi": 51,
          "name": "D#3",
          "ticks": 16800,
          "time": 18.74998125,
          "velocity": 0.3937007874015748
        },
        {
          "duration": 0.3214282500000003,
          "durationTicks": 288,
          "midi": 35,
          "name": "B1",
          "ticks": 16896,
          "time": 18.857124000000002,
          "velocity": 0.3937007874015748
        },
        {
          "duration": 0.3214282500000003,
          "durationTicks": 288,
          "midi": 65,
          "name": "F4",
          "ticks": 16896,
          "time": 18.857124000000002,
          "velocity": 0.3937007874015748
        },
        {
          "duration": 0.3214282500000003,
          "durationTicks": 288,
          "midi": 35,
          "name": "B1",
          "ticks": 17088,
          "time": 19.0714095,
          "velocity": 0.3937007874015748
        },
        {
          "duration": 0.3214282500000003,
          "durationTicks": 288,
          "midi": 63,
          "name": "D#4",
          "ticks": 17088,
          "time": 19.0714095,
          "velocity": 0.3937007874015748
        },
        {
          "duration": 0.3214282500000003,
          "durationTicks": 288,
          "midi": 51,
          "name": "D#3",
          "ticks": 17184,
          "time": 19.178552250000003,
          "velocity": 0.3937007874015748
        },
        {
          "duration": 0.3214282500000003,
          "durationTicks": 288,
          "midi": 35,
          "name": "B1",
          "ticks": 17280,
          "time": 19.285695,
          "velocity": 0.3937007874015748
        },
        {
          "duration": 0.3214282500000003,
          "durationTicks": 288,
          "midi": 65,
          "name": "F4",
          "ticks": 17280,
          "time": 19.285695,
          "velocity": 0.3937007874015748
        },
        {
          "duration": 0.3214282500000003,
          "durationTicks": 288,
          "midi": 51,
          "name": "D#3",
          "ticks": 17376,
          "time": 19.39283775,
          "velocity": 0.3937007874015748
        },
        {
          "duration": 0.3214282500000003,
          "durationTicks": 288,
          "midi": 49,
          "name": "C#3",
          "ticks": 17472,
          "time": 19.499980500000003,
          "velocity": 0.3937007874015748
        },
        {
          "duration": 0.3214282500000003,
          "durationTicks": 288,
          "midi": 35,
          "name": "B1",
          "ticks": 17472,
          "time": 19.499980500000003,
          "velocity": 0.3937007874015748
        },
        {
          "duration": 0.3214282500000003,
          "durationTicks": 288,
          "midi": 66,
          "name": "F#4",
          "ticks": 17472,
          "time": 19.499980500000003,
          "velocity": 0.3937007874015748
        },
        {
          "duration": 0.3214282500000003,
          "durationTicks": 288,
          "midi": 51,
          "name": "D#3",
          "ticks": 17568,
          "time": 19.60712325,
          "velocity": 0.3937007874015748
        },
        {
          "duration": 0.3214282500000003,
          "durationTicks": 288,
          "midi": 37,
          "name": "C#2",
          "ticks": 17664,
          "time": 19.714266000000002,
          "velocity": 0.3937007874015748
        },
        {
          "duration": 0.3214282500000003,
          "durationTicks": 288,
          "midi": 65,
          "name": "F4",
          "ticks": 17664,
          "time": 19.714266000000002,
          "velocity": 0.3937007874015748
        },
        {
          "duration": 0.3214282500000003,
          "durationTicks": 288,
          "midi": 37,
          "name": "C#2",
          "ticks": 17856,
          "time": 19.9285515,
          "velocity": 0.3937007874015748
        },
        {
          "duration": 0.3214282500000003,
          "durationTicks": 288,
          "midi": 63,
          "name": "D#4",
          "ticks": 17856,
          "time": 19.9285515,
          "velocity": 0.3937007874015748
        },
        {
          "duration": 0.3214282500000003,
          "durationTicks": 288,
          "midi": 51,
          "name": "D#3",
          "ticks": 17952,
          "time": 20.035694250000002,
          "velocity": 0.3937007874015748
        },
        {
          "duration": 0.3214282500000003,
          "durationTicks": 288,
          "midi": 37,
          "name": "C#2",
          "ticks": 18048,
          "time": 20.142837,
          "velocity": 0.3937007874015748
        },
        {
          "duration": 0.3214282500000003,
          "durationTicks": 288,
          "midi": 62,
          "name": "D4",
          "ticks": 18048,
          "time": 20.142837,
          "velocity": 0.3937007874015748
        },
        {
          "duration": 0.3214282500000003,
          "durationTicks": 288,
          "midi": 51,
          "name": "D#3",
          "ticks": 18144,
          "time": 20.24997975,
          "velocity": 0.3937007874015748
        },
        {
          "duration": 0.3214282500000003,
          "durationTicks": 288,
          "midi": 49,
          "name": "C#3",
          "ticks": 18240,
          "time": 20.357122500000003,
          "velocity": 0.3937007874015748
        },
        {
          "duration": 0.3214282500000003,
          "durationTicks": 288,
          "midi": 37,
          "name": "C#2",
          "ticks": 18240,
          "time": 20.357122500000003,
          "velocity": 0.3937007874015748
        },
        {
          "duration": 0.3214282500000003,
          "durationTicks": 288,
          "midi": 65,
          "name": "F4",
          "ticks": 18240,
          "time": 20.357122500000003,
          "velocity": 0.3937007874015748
        },
        {
          "duration": 0.3214282500000003,
          "durationTicks": 288,
          "midi": 51,
          "name": "D#3",
          "ticks": 18336,
          "time": 20.46426525,
          "velocity": 0.3937007874015748
        },
        {
          "duration": 0.3214282500000003,
          "durationTicks": 288,
          "midi": 39,
          "name": "D#2",
          "ticks": 18432,
          "time": 20.571408,
          "velocity": 0.3937007874015748
        },
        {
          "duration": 0.3214282500000003,
          "durationTicks": 288,
          "midi": 63,
          "name": "D#4",
          "ticks": 18432,
          "time": 20.571408,
          "velocity": 0.3937007874015748
        },
        {
          "duration": 0.3214282500000003,
          "durationTicks": 288,
          "midi": 39,
          "name": "D#2",
          "ticks": 18624,
          "time": 20.7856935,
          "velocity": 0.3937007874015748
        },
        {
          "duration": 0.3214282500000003,
          "durationTicks": 288,
          "midi": 65,
          "name": "F4",
          "ticks": 18624,
          "time": 20.7856935,
          "velocity": 0.3937007874015748
        },
        {
          "duration": 0.3214282500000003,
          "durationTicks": 288,
          "midi": 51,
          "name": "D#3",
          "ticks": 18720,
          "time": 20.892836250000002,
          "velocity": 0.3937007874015748
        },
        {
          "duration": 0.32142824999999675,
          "durationTicks": 288,
          "midi": 39,
          "name": "D#2",
          "ticks": 18816,
          "time": 20.999979000000003,
          "velocity": 0.3937007874015748
        },
        {
          "duration": 0.32142824999999675,
          "durationTicks": 288,
          "midi": 66,
          "name": "F#4",
          "ticks": 18816,
          "time": 20.999979000000003,
          "velocity": 0.3937007874015748
        },
        {
          "duration": 0.3214282500000003,
          "durationTicks": 288,
          "midi": 51,
          "name": "D#3",
          "ticks": 18912,
          "time": 21.10712175,
          "velocity": 0.3937007874015748
        },
        {
          "duration": 0.3214282500000003,
          "durationTicks": 288,
          "midi": 49,
          "name": "C#3",
          "ticks": 19008,
          "time": 21.214264500000002,
          "velocity": 0.3937007874015748
        },
        {
          "duration": 0.3214282500000003,
          "durationTicks": 288,
          "midi": 39,
          "name": "D#2",
          "ticks": 19008,
          "time": 21.214264500000002,
          "velocity": 0.3937007874015748
        },
        {
          "duration": 0.3214282500000003,
          "durationTicks": 288,
          "midi": 68,
          "name": "G#4",
          "ticks": 19008,
          "time": 21.214264500000002,
          "velocity": 0.3937007874015748
        },
        {
          "duration": 0.3214282500000003,
          "durationTicks": 288,
          "midi": 51,
          "name": "D#3",
          "ticks": 19104,
          "time": 21.32140725,
          "velocity": 0.3937007874015748
        },
        {
          "duration": 0.3214282500000003,
          "durationTicks": 288,
          "midi": 39,
          "name": "D#2",
          "ticks": 19200,
          "time": 21.42855,
          "velocity": 0.3937007874015748
        },
        {
          "duration": 0.3214282500000003,
          "durationTicks": 288,
          "midi": 70,
          "name": "A#4",
          "ticks": 19200,
          "time": 21.42855,
          "velocity": 0.3937007874015748
        },
        {
          "duration": 0.3214282500000003,
          "durationTicks": 288,
          "midi": 39,
          "name": "D#2",
          "ticks": 19392,
          "time": 21.6428355,
          "velocity": 0.3937007874015748
        },
        {
          "duration": 0.3214282500000003,
          "durationTicks": 288,
          "midi": 51,
          "name": "D#3",
          "ticks": 19488,
          "time": 21.74997825,
          "velocity": 0.3937007874015748
        },
        {
          "duration": 0.3214282500000003,
          "durationTicks": 288,
          "midi": 39,
          "name": "D#2",
          "ticks": 19584,
          "time": 21.857121000000003,
          "velocity": 0.3937007874015748
        },
        {
          "duration": 0.3214282500000003,
          "durationTicks": 288,
          "midi": 75,
          "name": "D#5",
          "ticks": 19584,
          "time": 21.857121000000003,
          "velocity": 0.3937007874015748
        },
        {
          "duration": 0.3214282500000003,
          "durationTicks": 288,
          "midi": 51,
          "name": "D#3",
          "ticks": 19680,
          "time": 21.96426375,
          "velocity": 0.3937007874015748
        },
        {
          "duration": 0.3214282500000003,
          "durationTicks": 288,
          "midi": 49,
          "name": "C#3",
          "ticks": 19776,
          "time": 22.071406500000002,
          "velocity": 0.3937007874015748
        },
        {
          "duration": 0.3214282500000003,
          "durationTicks": 288,
          "midi": 39,
          "name": "D#2",
          "ticks": 19776,
          "time": 22.071406500000002,
          "velocity": 0.3937007874015748
        },
        {
          "duration": 0.3214282500000003,
          "durationTicks": 288,
          "midi": 73,
          "name": "C#5",
          "ticks": 19776,
          "time": 22.071406500000002,
          "velocity": 0.3937007874015748
        },
        {
          "duration": 0.3214282500000003,
          "durationTicks": 288,
          "midi": 51,
          "name": "D#3",
          "ticks": 19872,
          "time": 22.178549250000003,
          "velocity": 0.3937007874015748
        },
        {
          "duration": 0.3214282500000003,
          "durationTicks": 288,
          "midi": 39,
          "name": "D#2",
          "ticks": 19968,
          "time": 22.285692,
          "velocity": 0.3937007874015748
        },
        {
          "duration": 0.3214282500000003,
          "durationTicks": 288,
          "midi": 70,
          "name": "A#4",
          "ticks": 19968,
          "time": 22.285692,
          "velocity": 0.3937007874015748
        },
        {
          "duration": 0.32142824999999675,
          "durationTicks": 288,
          "midi": 39,
          "name": "D#2",
          "ticks": 20160,
          "time": 22.499977500000004,
          "velocity": 0.3937007874015748
        },
        {
          "duration": 0.3214282500000003,
          "durationTicks": 288,
          "midi": 51,
          "name": "D#3",
          "ticks": 20256,
          "time": 22.60712025,
          "velocity": 0.3937007874015748
        },
        {
          "duration": 0.3214282500000003,
          "durationTicks": 288,
          "midi": 39,
          "name": "D#2",
          "ticks": 20352,
          "time": 22.714263000000003,
          "velocity": 0.3937007874015748
        },
        {
          "duration": 0.3214282500000003,
          "durationTicks": 288,
          "midi": 63,
          "name": "D#4",
          "ticks": 20352,
          "time": 22.714263000000003,
          "velocity": 0.3937007874015748
        },
        {
          "duration": 0.3214282500000003,
          "durationTicks": 288,
          "midi": 51,
          "name": "D#3",
          "ticks": 20448,
          "time": 22.82140575,
          "velocity": 0.3937007874015748
        },
        {
          "duration": 0.3214282500000003,
          "durationTicks": 288,
          "midi": 49,
          "name": "C#3",
          "ticks": 20544,
          "time": 22.9285485,
          "velocity": 0.3937007874015748
        },
        {
          "duration": 0.3214282500000003,
          "durationTicks": 288,
          "midi": 39,
          "name": "D#2",
          "ticks": 20544,
          "time": 22.9285485,
          "velocity": 0.3937007874015748
        },
        {
          "duration": 0.3214282500000003,
          "durationTicks": 288,
          "midi": 51,
          "name": "D#3",
          "ticks": 20640,
          "time": 23.035691250000003,
          "velocity": 0.3937007874015748
        },
        {
          "duration": 0.3214282500000003,
          "durationTicks": 288,
          "midi": 39,
          "name": "D#2",
          "ticks": 20736,
          "time": 23.142834,
          "velocity": 0.3937007874015748
        },
        {
          "duration": 0.3214282500000003,
          "durationTicks": 288,
          "midi": 70,
          "name": "A#4",
          "ticks": 20736,
          "time": 23.142834,
          "velocity": 0.3937007874015748
        },
        {
          "duration": 0.3214282500000003,
          "durationTicks": 288,
          "midi": 39,
          "name": "D#2",
          "ticks": 20928,
          "time": 23.357119500000003,
          "velocity": 0.3937007874015748
        },
        {
          "duration": 0.3214282500000003,
          "durationTicks": 288,
          "midi": 68,
          "name": "G#4",
          "ticks": 20928,
          "time": 23.357119500000003,
          "velocity": 0.3937007874015748
        },
        {
          "duration": 0.3214282500000003,
          "durationTicks": 288,
          "midi": 51,
          "name": "D#3",
          "ticks": 21024,
          "time": 23.46426225,
          "velocity": 0.3937007874015748
        },
        {
          "duration": 0.3214282500000003,
          "durationTicks": 288,
          "midi": 39,
          "name": "D#2",
          "ticks": 21120,
          "time": 23.571405000000002,
          "velocity": 0.3937007874015748
        },
        {
          "duration": 0.3214282500000003,
          "durationTicks": 288,
          "midi": 66,
          "name": "F#4",
          "ticks": 21120,
          "time": 23.571405000000002,
          "velocity": 0.3937007874015748
        },
        {
          "duration": 0.3214282500000003,
          "durationTicks": 288,
          "midi": 51,
          "name": "D#3",
          "ticks": 21216,
          "time": 23.678547750000003,
          "velocity": 0.3937007874015748
        },
        {
          "duration": 0.3214282500000003,
          "durationTicks": 288,
          "midi": 49,
          "name": "C#3",
          "ticks": 21312,
          "time": 23.7856905,
          "velocity": 0.3937007874015748
        },
        {
          "duration": 0.3214282500000003,
          "durationTicks": 288,
          "midi": 39,
          "name": "D#2",
          "ticks": 21312,
          "time": 23.7856905,
          "velocity": 0.3937007874015748
        },
        {
          "duration": 0.3214282500000003,
          "durationTicks": 288,
          "midi": 65,
          "name": "F4",
          "ticks": 21312,
          "time": 23.7856905,
          "velocity": 0.3937007874015748
        },
        {
          "duration": 0.3214282500000003,
          "durationTicks": 288,
          "midi": 51,
          "name": "D#3",
          "ticks": 21408,
          "time": 23.892833250000002,
          "velocity": 0.3937007874015748
        },
        {
          "duration": 0.32142824999999675,
          "durationTicks": 288,
          "midi": 35,
          "name": "B1",
          "ticks": 21504,
          "time": 23.999976000000004,
          "velocity": 0.3937007874015748
        },
        {
          "duration": 0.32142824999999675,
          "durationTicks": 288,
          "midi": 63,
          "name": "D#4",
          "ticks": 21504,
          "time": 23.999976000000004,
          "velocity": 0.3937007874015748
        },
        {
          "duration": 0.3214282500000003,
          "durationTicks": 288,
          "midi": 35,
          "name": "B1",
          "ticks": 21696,
          "time": 24.214261500000003,
          "velocity": 0.3937007874015748
        },
        {
          "duration": 0.3214282500000003,
          "durationTicks": 288,
          "midi": 65,
          "name": "F4",
          "ticks": 21696,
          "time": 24.214261500000003,
          "velocity": 0.3937007874015748
        },
        {
          "duration": 0.3214282500000003,
          "durationTicks": 288,
          "midi": 51,
          "name": "D#3",
          "ticks": 21792,
          "time": 24.32140425,
          "velocity": 0.3937007874015748
        },
        {
          "duration": 0.3214282500000003,
          "durationTicks": 288,
          "midi": 35,
          "name": "B1",
          "ticks": 21888,
          "time": 24.428547000000002,
          "velocity": 0.3937007874015748
        },
        {
          "duration": 0.3214282500000003,
          "durationTicks": 288,
          "midi": 66,
          "name": "F#4",
          "ticks": 21888,
          "time": 24.428547000000002,
          "velocity": 0.3937007874015748
        },
        {
          "duration": 0.3214282500000003,
          "durationTicks": 288,
          "midi": 51,
          "name": "D#3",
          "ticks": 21984,
          "time": 24.535689750000003,
          "velocity": 0.3937007874015748
        },
        {
          "duration": 0.3214282500000003,
          "durationTicks": 288,
          "midi": 49,
          "name": "C#3",
          "ticks": 22080,
          "time": 24.6428325,
          "velocity": 0.3937007874015748
        },
        {
          "duration": 0.3214282500000003,
          "durationTicks": 288,
          "midi": 35,
          "name": "B1",
          "ticks": 22080,
          "time": 24.6428325,
          "velocity": 0.3937007874015748
        },
        {
          "duration": 0.3214282500000003,
          "durationTicks": 288,
          "midi": 68,
          "name": "G#4",
          "ticks": 22080,
          "time": 24.6428325,
          "velocity": 0.3937007874015748
        },
        {
          "duration": 0.3214282500000003,
          "durationTicks": 288,
          "midi": 51,
          "name": "D#3",
          "ticks": 22176,
          "time": 24.749975250000002,
          "velocity": 0.3937007874015748
        },
        {
          "duration": 0.3214282500000003,
          "durationTicks": 288,
          "midi": 35,
          "name": "B1",
          "ticks": 22272,
          "time": 24.857118000000003,
          "velocity": 0.3937007874015748
        },
        {
          "duration": 0.3214282500000003,
          "durationTicks": 288,
          "midi": 70,
          "name": "A#4",
          "ticks": 22272,
          "time": 24.857118000000003,
          "velocity": 0.3937007874015748
        },
        {
          "duration": 0.3214282500000003,
          "durationTicks": 288,
          "midi": 35,
          "name": "B1",
          "ticks": 22464,
          "time": 25.071403500000002,
          "velocity": 0.3937007874015748
        },
        {
          "duration": 0.32142824999999675,
          "durationTicks": 288,
          "midi": 51,
          "name": "D#3",
          "ticks": 22560,
          "time": 25.178546250000004,
          "velocity": 0.3937007874015748
        },
        {
          "duration": 0.3214282500000003,
          "durationTicks": 288,
          "midi": 35,
          "name": "B1",
          "ticks": 22656,
          "time": 25.285689,
          "velocity": 0.3937007874015748
        },
        {
          "duration": 0.3214282500000003,
          "durationTicks": 288,
          "midi": 68,
          "name": "G#4",
          "ticks": 22656,
          "time": 25.285689,
          "velocity": 0.3937007874015748
        },
        {
          "duration": 0.3214282500000003,
          "durationTicks": 288,
          "midi": 51,
          "name": "D#3",
          "ticks": 22752,
          "time": 25.392831750000003,
          "velocity": 0.3937007874015748
        },
        {
          "duration": 0.3214282500000003,
          "durationTicks": 288,
          "midi": 49,
          "name": "C#3",
          "ticks": 22848,
          "time": 25.4999745,
          "velocity": 0.3937007874015748
        },
        {
          "duration": 0.3214282500000003,
          "durationTicks": 288,
          "midi": 35,
          "name": "B1",
          "ticks": 22848,
          "time": 25.4999745,
          "velocity": 0.3937007874015748
        },
        {
          "duration": 0.3214282500000003,
          "durationTicks": 288,
          "midi": 66,
          "name": "F#4",
          "ticks": 22848,
          "time": 25.4999745,
          "velocity": 0.3937007874015748
        },
        {
          "duration": 0.3214282500000003,
          "durationTicks": 288,
          "midi": 51,
          "name": "D#3",
          "ticks": 22944,
          "time": 25.60711725,
          "velocity": 0.3937007874015748
        },
        {
          "duration": 0.3214282500000003,
          "durationTicks": 288,
          "midi": 35,
          "name": "B1",
          "ticks": 23040,
          "time": 25.714260000000003,
          "velocity": 0.3937007874015748
        },
        {
          "duration": 0.3214282500000003,
          "durationTicks": 288,
          "midi": 65,
          "name": "F4",
          "ticks": 23040,
          "time": 25.714260000000003,
          "velocity": 0.3937007874015748
        },
        {
          "duration": 0.3214282500000003,
          "durationTicks": 288,
          "midi": 53,
          "name": "F3",
          "ticks": 23040,
          "time": 25.714260000000003,
          "velocity": 0.3937007874015748
        },
        {
          "duration": 0.3214282500000003,
          "durationTicks": 288,
          "midi": 35,
          "name": "B1",
          "ticks": 23232,
          "time": 25.928545500000002,
          "velocity": 0.3937007874015748
        },
        {
          "duration": 0.3214282500000003,
          "durationTicks": 288,
          "midi": 35,
          "name": "B1",
          "ticks": 23424,
          "time": 26.142831,
          "velocity": 0.3937007874015748
        },
        {
          "duration": 0.3214282500000003,
          "durationTicks": 288,
          "midi": 66,
          "name": "F#4",
          "ticks": 23424,
          "time": 26.142831,
          "velocity": 0.3937007874015748
        },
        {
          "duration": 0.3214282500000003,
          "durationTicks": 288,
          "midi": 54,
          "name": "F#3",
          "ticks": 23424,
          "time": 26.142831,
          "velocity": 0.3937007874015748
        },
        {
          "duration": 0.3214282500000003,
          "durationTicks": 288,
          "midi": 35,
          "name": "B1",
          "ticks": 23616,
          "time": 26.357116500000004,
          "velocity": 0.3937007874015748
        },
        {
          "duration": 0.3214282500000003,
          "durationTicks": 288,
          "midi": 37,
          "name": "C#2",
          "ticks": 23808,
          "time": 26.571402000000003,
          "velocity": 0.3937007874015748
        },
        {
          "duration": 0.3214282500000003,
          "durationTicks": 288,
          "midi": 68,
          "name": "G#4",
          "ticks": 23808,
          "time": 26.571402000000003,
          "velocity": 0.3937007874015748
        },
        {
          "duration": 0.3214282500000003,
          "durationTicks": 288,
          "midi": 56,
          "name": "G#3",
          "ticks": 23808,
          "time": 26.571402000000003,
          "velocity": 0.3937007874015748
        },
        {
          "duration": 0.3214282500000003,
          "durationTicks": 288,
          "midi": 37,
          "name": "C#2",
          "ticks": 24000,
          "time": 26.7856875,
          "velocity": 0.3937007874015748
        },
        {
          "duration": 0.3214282500000003,
          "durationTicks": 288,
          "midi": 37,
          "name": "C#2",
          "ticks": 24192,
          "time": 26.999973,
          "velocity": 0.3937007874015748
        },
        {
          "duration": 0.3214282500000003,
          "durationTicks": 288,
          "midi": 70,
          "name": "A#4",
          "ticks": 24192,
          "time": 26.999973,
          "velocity": 0.3937007874015748
        },
        {
          "duration": 0.3214282500000003,
          "durationTicks": 288,
          "midi": 58,
          "name": "A#3",
          "ticks": 24192,
          "time": 26.999973,
          "velocity": 0.3937007874015748
        },
        {
          "duration": 0.3214282500000003,
          "durationTicks": 288,
          "midi": 37,
          "name": "C#2",
          "ticks": 24384,
          "time": 27.214258500000003,
          "velocity": 0.3937007874015748
        },
        {
          "duration": 0.3214282500000003,
          "durationTicks": 288,
          "midi": 39,
          "name": "D#2",
          "ticks": 24576,
          "time": 27.428544000000002,
          "velocity": 0.3937007874015748
        },
        {
          "duration": 0.3214282500000003,
          "durationTicks": 288,
          "midi": 63,
          "name": "D#4",
          "ticks": 24576,
          "time": 27.428544000000002,
          "velocity": 0.3937007874015748
        },
        {
          "duration": 0.3214282500000003,
          "durationTicks": 288,
          "midi": 75,
          "name": "D#5",
          "ticks": 24576,
          "time": 27.428544000000002,
          "velocity": 0.3937007874015748
        },
        {
          "duration": 0.3214282500000003,
          "durationTicks": 288,
          "midi": 39,
          "name": "D#2",
          "ticks": 24768,
          "time": 27.6428295,
          "velocity": 0.3937007874015748
        },
        {
          "duration": 0.3214282500000003,
          "durationTicks": 288,
          "midi": 65,
          "name": "F4",
          "ticks": 24768,
          "time": 27.6428295,
          "velocity": 0.3937007874015748
        },
        {
          "duration": 0.3214282500000003,
          "durationTicks": 288,
          "midi": 77,
          "name": "F5",
          "ticks": 24768,
          "time": 27.6428295,
          "velocity": 0.3937007874015748
        },
        {
          "duration": 0.3214282500000003,
          "durationTicks": 288,
          "midi": 51,
          "name": "D#3",
          "ticks": 24864,
          "time": 27.749972250000003,
          "velocity": 0.3937007874015748
        },
        {
          "duration": 0.32142824999999675,
          "durationTicks": 288,
          "midi": 39,
          "name": "D#2",
          "ticks": 24960,
          "time": 27.857115000000004,
          "velocity": 0.3937007874015748
        },
        {
          "duration": 0.32142824999999675,
          "durationTicks": 288,
          "midi": 66,
          "name": "F#4",
          "ticks": 24960,
          "time": 27.857115000000004,
          "velocity": 0.3937007874015748
        },
        {
          "duration": 0.32142824999999675,
          "durationTicks": 288,
          "midi": 78,
          "name": "F#5",
          "ticks": 24960,
          "time": 27.857115000000004,
          "velocity": 0.3937007874015748
        },
        {
          "duration": 0.3214282500000003,
          "durationTicks": 288,
          "midi": 51,
          "name": "D#3",
          "ticks": 25056,
          "time": 27.96425775,
          "velocity": 0.3937007874015748
        },
        {
          "duration": 0.3214282500000003,
          "durationTicks": 288,
          "midi": 49,
          "name": "C#3",
          "ticks": 25152,
          "time": 28.071400500000003,
          "velocity": 0.3937007874015748
        },
        {
          "duration": 0.3214282500000003,
          "durationTicks": 288,
          "midi": 39,
          "name": "D#2",
          "ticks": 25152,
          "time": 28.071400500000003,
          "velocity": 0.3937007874015748
        },
        {
          "duration": 0.3214282500000003,
          "durationTicks": 288,
          "midi": 68,
          "name": "G#4",
          "ticks": 25152,
          "time": 28.071400500000003,
          "velocity": 0.3937007874015748
        },
        {
          "duration": 0.3214282500000003,
          "durationTicks": 288,
          "midi": 80,
          "name": "G#5",
          "ticks": 25152,
          "time": 28.071400500000003,
          "velocity": 0.3937007874015748
        },
        {
          "duration": 0.3214282500000003,
          "durationTicks": 288,
          "midi": 51,
          "name": "D#3",
          "ticks": 25248,
          "time": 28.17854325,
          "velocity": 0.3937007874015748
        },
        {
          "duration": 0.3214282500000003,
          "durationTicks": 288,
          "midi": 39,
          "name": "D#2",
          "ticks": 25344,
          "time": 28.285686000000002,
          "velocity": 0.3937007874015748
        },
        {
          "duration": 0.3214282500000003,
          "durationTicks": 288,
          "midi": 70,
          "name": "A#4",
          "ticks": 25344,
          "time": 28.285686000000002,
          "velocity": 0.3937007874015748
        },
        {
          "duration": 0.3214282500000003,
          "durationTicks": 288,
          "midi": 82,
          "name": "A#5",
          "ticks": 25344,
          "time": 28.285686000000002,
          "velocity": 0.3937007874015748
        },
        {
          "duration": 0.3214282500000003,
          "durationTicks": 288,
          "midi": 39,
          "name": "D#2",
          "ticks": 25536,
          "time": 28.4999715,
          "velocity": 0.3937007874015748
        },
        {
          "duration": 0.3214282500000003,
          "durationTicks": 288,
          "midi": 51,
          "name": "D#3",
          "ticks": 25632,
          "time": 28.607114250000002,
          "velocity": 0.3937007874015748
        },
        {
          "duration": 0.3214282500000003,
          "durationTicks": 288,
          "midi": 39,
          "name": "D#2",
          "ticks": 25728,
          "time": 28.714257000000003,
          "velocity": 0.3937007874015748
        },
        {
          "duration": 0.3214282500000003,
          "durationTicks": 288,
          "midi": 75,
          "name": "D#5",
          "ticks": 25728,
          "time": 28.714257000000003,
          "velocity": 0.3937007874015748
        },
        {
          "duration": 0.3214282500000003,
          "durationTicks": 288,
          "midi": 87,
          "name": "D#6",
          "ticks": 25728,
          "time": 28.714257000000003,
          "velocity": 0.3937007874015748
        },
        {
          "duration": 0.3214282500000003,
          "durationTicks": 288,
          "midi": 51,
          "name": "D#3",
          "ticks": 25824,
          "time": 28.82139975,
          "velocity": 0.3937007874015748
        },
        {
          "duration": 0.3214282500000003,
          "durationTicks": 288,
          "midi": 49,
          "name": "C#3",
          "ticks": 25920,
          "time": 28.928542500000002,
          "velocity": 0.3937007874015748
        },
        {
          "duration": 0.3214282500000003,
          "durationTicks": 288,
          "midi": 39,
          "name": "D#2",
          "ticks": 25920,
          "time": 28.928542500000002,
          "velocity": 0.3937007874015748
        },
        {
          "duration": 0.3214282500000003,
          "durationTicks": 288,
          "midi": 73,
          "name": "C#5",
          "ticks": 25920,
          "time": 28.928542500000002,
          "velocity": 0.3937007874015748
        },
        {
          "duration": 0.3214282500000003,
          "durationTicks": 288,
          "midi": 85,
          "name": "C#6",
          "ticks": 25920,
          "time": 28.928542500000002,
          "velocity": 0.3937007874015748
        },
        {
          "duration": 0.3214282500000003,
          "durationTicks": 288,
          "midi": 51,
          "name": "D#3",
          "ticks": 26016,
          "time": 29.035685250000004,
          "velocity": 0.3937007874015748
        },
        {
          "duration": 0.3214282500000003,
          "durationTicks": 288,
          "midi": 39,
          "name": "D#2",
          "ticks": 26112,
          "time": 29.142828,
          "velocity": 0.3937007874015748
        },
        {
          "duration": 0.3214282500000003,
          "durationTicks": 288,
          "midi": 70,
          "name": "A#4",
          "ticks": 26112,
          "time": 29.142828,
          "velocity": 0.3937007874015748
        },
        {
          "duration": 0.3214282500000003,
          "durationTicks": 288,
          "midi": 82,
          "name": "A#5",
          "ticks": 26112,
          "time": 29.142828,
          "velocity": 0.3937007874015748
        },
        {
          "duration": 0.32142824999999675,
          "durationTicks": 288,
          "midi": 39,
          "name": "D#2",
          "ticks": 26304,
          "time": 29.357113500000004,
          "velocity": 0.3937007874015748
        },
        {
          "duration": 0.3214282500000003,
          "durationTicks": 288,
          "midi": 51,
          "name": "D#3",
          "ticks": 26400,
          "time": 29.464256250000002,
          "velocity": 0.3937007874015748
        },
        {
          "duration": 0.3214282500000003,
          "durationTicks": 288,
          "midi": 39,
          "name": "D#2",
          "ticks": 26496,
          "time": 29.571399000000003,
          "velocity": 0.3937007874015748
        },
        {
          "duration": 0.3214282500000003,
          "durationTicks": 288,
          "midi": 63,
          "name": "D#4",
          "ticks": 26496,
          "time": 29.571399000000003,
          "velocity": 0.3937007874015748
        },
        {
          "duration": 0.3214282500000003,
          "durationTicks": 288,
          "midi": 75,
          "name": "D#5",
          "ticks": 26496,
          "time": 29.571399000000003,
          "velocity": 0.3937007874015748
        },
        {
          "duration": 0.3214282500000003,
          "durationTicks": 288,
          "midi": 51,
          "name": "D#3",
          "ticks": 26592,
          "time": 29.67854175,
          "velocity": 0.3937007874015748
        },
        {
          "duration": 0.3214282500000003,
          "durationTicks": 288,
          "midi": 49,
          "name": "C#3",
          "ticks": 26688,
          "time": 29.785684500000002,
          "velocity": 0.3937007874015748
        },
        {
          "duration": 0.3214282500000003,
          "durationTicks": 288,
          "midi": 39,
          "name": "D#2",
          "ticks": 26688,
          "time": 29.785684500000002,
          "velocity": 0.3937007874015748
        },
        {
          "duration": 0.3214282500000003,
          "durationTicks": 288,
          "midi": 51,
          "name": "D#3",
          "ticks": 26784,
          "time": 29.892827250000003,
          "velocity": 0.3937007874015748
        },
        {
          "duration": 0.3214282500000003,
          "durationTicks": 288,
          "midi": 39,
          "name": "D#2",
          "ticks": 26880,
          "time": 29.99997,
          "velocity": 0.3937007874015748
        },
        {
          "duration": 0.3214282500000003,
          "durationTicks": 288,
          "midi": 70,
          "name": "A#4",
          "ticks": 26880,
          "time": 29.99997,
          "velocity": 0.3937007874015748
        },
        {
          "duration": 0.3214282500000003,
          "durationTicks": 288,
          "midi": 82,
          "name": "A#5",
          "ticks": 26880,
          "time": 29.99997,
          "velocity": 0.3937007874015748
        },
        {
          "duration": 0.3214282500000003,
          "durationTicks": 288,
          "midi": 39,
          "name": "D#2",
          "ticks": 27072,
          "time": 30.214255500000004,
          "velocity": 0.3937007874015748
        },
        {
          "duration": 0.3214282500000003,
          "durationTicks": 288,
          "midi": 68,
          "name": "G#4",
          "ticks": 27072,
          "time": 30.214255500000004,
          "velocity": 0.3937007874015748
        },
        {
          "duration": 0.3214282500000003,
          "durationTicks": 288,
          "midi": 80,
          "name": "G#5",
          "ticks": 27072,
          "time": 30.214255500000004,
          "velocity": 0.3937007874015748
        },
        {
          "duration": 0.3214282500000003,
          "durationTicks": 288,
          "midi": 51,
          "name": "D#3",
          "ticks": 27168,
          "time": 30.32139825,
          "velocity": 0.3937007874015748
        },
        {
          "duration": 0.3214282500000003,
          "durationTicks": 288,
          "midi": 39,
          "name": "D#2",
          "ticks": 27264,
          "time": 30.428541000000003,
          "velocity": 0.3937007874015748
        },
        {
          "duration": 0.3214282500000003,
          "durationTicks": 288,
          "midi": 66,
          "name": "F#4",
          "ticks": 27264,
          "time": 30.428541000000003,
          "velocity": 0.3937007874015748
        },
        {
          "duration": 0.3214282500000003,
          "durationTicks": 288,
          "midi": 78,
          "name": "F#5",
          "ticks": 27264,
          "time": 30.428541000000003,
          "velocity": 0.3937007874015748
        },
        {
          "duration": 0.32142824999999675,
          "durationTicks": 288,
          "midi": 51,
          "name": "D#3",
          "ticks": 27360,
          "time": 30.535683750000004,
          "velocity": 0.3937007874015748
        },
        {
          "duration": 0.3214282500000003,
          "durationTicks": 288,
          "midi": 49,
          "name": "C#3",
          "ticks": 27456,
          "time": 30.6428265,
          "velocity": 0.3937007874015748
        },
        {
          "duration": 0.3214282500000003,
          "durationTicks": 288,
          "midi": 39,
          "name": "D#2",
          "ticks": 27456,
          "time": 30.6428265,
          "velocity": 0.3937007874015748
        },
        {
          "duration": 0.3214282500000003,
          "durationTicks": 288,
          "midi": 65,
          "name": "F4",
          "ticks": 27456,
          "time": 30.6428265,
          "velocity": 0.3937007874015748
        },
        {
          "duration": 0.3214282500000003,
          "durationTicks": 288,
          "midi": 77,
          "name": "F5",
          "ticks": 27456,
          "time": 30.6428265,
          "velocity": 0.3937007874015748
        },
        {
          "duration": 0.3214282500000003,
          "durationTicks": 288,
          "midi": 51,
          "name": "D#3",
          "ticks": 27552,
          "time": 30.749969250000003,
          "velocity": 0.3937007874015748
        },
        {
          "duration": 0.3214282500000003,
          "durationTicks": 288,
          "midi": 35,
          "name": "B1",
          "ticks": 27648,
          "time": 30.857112,
          "velocity": 0.3937007874015748
        },
        {
          "duration": 0.3214282500000003,
          "durationTicks": 288,
          "midi": 63,
          "name": "D#4",
          "ticks": 27648,
          "time": 30.857112,
          "velocity": 0.3937007874015748
        },
        {
          "duration": 0.3214282500000003,
          "durationTicks": 288,
          "midi": 75,
          "name": "D#5",
          "ticks": 27648,
          "time": 30.857112,
          "velocity": 0.3937007874015748
        },
        {
          "duration": 0.3214282500000003,
          "durationTicks": 288,
          "midi": 35,
          "name": "B1",
          "ticks": 27840,
          "time": 31.071397500000003,
          "velocity": 0.3937007874015748
        },
        {
          "duration": 0.3214282500000003,
          "durationTicks": 288,
          "midi": 65,
          "name": "F4",
          "ticks": 27840,
          "time": 31.071397500000003,
          "velocity": 0.3937007874015748
        },
        {
          "duration": 0.3214282500000003,
          "durationTicks": 288,
          "midi": 77,
          "name": "F5",
          "ticks": 27840,
          "time": 31.071397500000003,
          "velocity": 0.3937007874015748
        },
        {
          "duration": 0.3214282500000003,
          "durationTicks": 288,
          "midi": 51,
          "name": "D#3",
          "ticks": 27936,
          "time": 31.17854025,
          "velocity": 0.3937007874015748
        },
        {
          "duration": 0.3214282500000003,
          "durationTicks": 288,
          "midi": 35,
          "name": "B1",
          "ticks": 28032,
          "time": 31.285683000000002,
          "velocity": 0.3937007874015748
        },
        {
          "duration": 0.3214282500000003,
          "durationTicks": 288,
          "midi": 66,
          "name": "F#4",
          "ticks": 28032,
          "time": 31.285683000000002,
          "velocity": 0.3937007874015748
        },
        {
          "duration": 0.3214282500000003,
          "durationTicks": 288,
          "midi": 78,
          "name": "F#5",
          "ticks": 28032,
          "time": 31.285683000000002,
          "velocity": 0.3937007874015748
        },
        {
          "duration": 0.3214282500000003,
          "durationTicks": 288,
          "midi": 51,
          "name": "D#3",
          "ticks": 28128,
          "time": 31.392825750000004,
          "velocity": 0.3937007874015748
        },
        {
          "duration": 0.3214282500000003,
          "durationTicks": 288,
          "midi": 49,
          "name": "C#3",
          "ticks": 28224,
          "time": 31.4999685,
          "velocity": 0.3937007874015748
        },
        {
          "duration": 0.3214282500000003,
          "durationTicks": 288,
          "midi": 35,
          "name": "B1",
          "ticks": 28224,
          "time": 31.4999685,
          "velocity": 0.3937007874015748
        },
        {
          "duration": 0.3214282500000003,
          "durationTicks": 288,
          "midi": 68,
          "name": "G#4",
          "ticks": 28224,
          "time": 31.4999685,
          "velocity": 0.3937007874015748
        },
        {
          "duration": 0.3214282500000003,
          "durationTicks": 288,
          "midi": 80,
          "name": "G#5",
          "ticks": 28224,
          "time": 31.4999685,
          "velocity": 0.3937007874015748
        },
        {
          "duration": 0.3214282500000003,
          "durationTicks": 288,
          "midi": 51,
          "name": "D#3",
          "ticks": 28320,
          "time": 31.607111250000003,
          "velocity": 0.3937007874015748
        },
        {
          "duration": 0.32142824999999675,
          "durationTicks": 288,
          "midi": 35,
          "name": "B1",
          "ticks": 28416,
          "time": 31.714254000000004,
          "velocity": 0.3937007874015748
        },
        {
          "duration": 0.32142824999999675,
          "durationTicks": 288,
          "midi": 70,
          "name": "A#4",
          "ticks": 28416,
          "time": 31.714254000000004,
          "velocity": 0.3937007874015748
        },
        {
          "duration": 0.32142824999999675,
          "durationTicks": 288,
          "midi": 82,
          "name": "A#5",
          "ticks": 28416,
          "time": 31.714254000000004,
          "velocity": 0.3937007874015748
        },
        {
          "duration": 0.3214282500000003,
          "durationTicks": 288,
          "midi": 35,
          "name": "B1",
          "ticks": 28608,
          "time": 31.928539500000003,
          "velocity": 0.3937007874015748
        },
        {
          "duration": 0.32142825000000386,
          "durationTicks": 288,
          "midi": 51,
          "name": "D#3",
          "ticks": 28704,
          "time": 32.03568225,
          "velocity": 0.3937007874015748
        },
        {
          "duration": 0.32142825000000386,
          "durationTicks": 288,
          "midi": 35,
          "name": "B1",
          "ticks": 28800,
          "time": 32.142825,
          "velocity": 0.3937007874015748
        },
        {
          "duration": 0.32142825000000386,
          "durationTicks": 288,
          "midi": 68,
          "name": "G#4",
          "ticks": 28800,
          "time": 32.142825,
          "velocity": 0.3937007874015748
        },
        {
          "duration": 0.32142825000000386,
          "durationTicks": 288,
          "midi": 80,
          "name": "G#5",
          "ticks": 28800,
          "time": 32.142825,
          "velocity": 0.3937007874015748
        },
        {
          "duration": 0.32142824999999675,
          "durationTicks": 288,
          "midi": 51,
          "name": "D#3",
          "ticks": 28896,
          "time": 32.24996775,
          "velocity": 0.3937007874015748
        },
        {
          "duration": 0.32142824999999675,
          "durationTicks": 288,
          "midi": 49,
          "name": "C#3",
          "ticks": 28992,
          "time": 32.357110500000005,
          "velocity": 0.3937007874015748
        },
        {
          "duration": 0.32142824999999675,
          "durationTicks": 288,
          "midi": 35,
          "name": "B1",
          "ticks": 28992,
          "time": 32.357110500000005,
          "velocity": 0.3937007874015748
        },
        {
          "duration": 0.32142824999999675,
          "durationTicks": 288,
          "midi": 66,
          "name": "F#4",
          "ticks": 28992,
          "time": 32.357110500000005,
          "velocity": 0.3937007874015748
        },
        {
          "duration": 0.32142824999999675,
          "durationTicks": 288,
          "midi": 78,
          "name": "F#5",
          "ticks": 28992,
          "time": 32.357110500000005,
          "velocity": 0.3937007874015748
        },
        {
          "duration": 0.32142824999999675,
          "durationTicks": 288,
          "midi": 51,
          "name": "D#3",
          "ticks": 29088,
          "time": 32.464253250000006,
          "velocity": 0.3937007874015748
        },
        {
          "duration": 0.32142825000000386,
          "durationTicks": 288,
          "midi": 35,
          "name": "B1",
          "ticks": 29184,
          "time": 32.571396,
          "velocity": 0.3937007874015748
        },
        {
          "duration": 0.32142825000000386,
          "durationTicks": 288,
          "midi": 65,
          "name": "F4",
          "ticks": 29184,
          "time": 32.571396,
          "velocity": 0.3937007874015748
        },
        {
          "duration": 0.32142825000000386,
          "durationTicks": 288,
          "midi": 77,
          "name": "F5",
          "ticks": 29184,
          "time": 32.571396,
          "velocity": 0.3937007874015748
        },
        {
          "duration": 0.32142824999999675,
          "durationTicks": 288,
          "midi": 35,
          "name": "B1",
          "ticks": 29376,
          "time": 32.7856815,
          "velocity": 0.3937007874015748
        },
        {
          "duration": 0.32142824999999675,
          "durationTicks": 288,
          "midi": 63,
          "name": "D#4",
          "ticks": 29376,
          "time": 32.7856815,
          "velocity": 0.3937007874015748
        },
        {
          "duration": 0.32142824999999675,
          "durationTicks": 288,
          "midi": 75,
          "name": "D#5",
          "ticks": 29376,
          "time": 32.7856815,
          "velocity": 0.3937007874015748
        },
        {
          "duration": 0.32142824999999675,
          "durationTicks": 288,
          "midi": 51,
          "name": "D#3",
          "ticks": 29472,
          "time": 32.892824250000004,
          "velocity": 0.3937007874015748
        },
        {
          "duration": 0.32142824999999675,
          "durationTicks": 288,
          "midi": 35,
          "name": "B1",
          "ticks": 29568,
          "time": 32.999967000000005,
          "velocity": 0.3937007874015748
        },
        {
          "duration": 0.32142824999999675,
          "durationTicks": 288,
          "midi": 65,
          "name": "F4",
          "ticks": 29568,
          "time": 32.999967000000005,
          "velocity": 0.3937007874015748
        },
        {
          "duration": 0.32142824999999675,
          "durationTicks": 288,
          "midi": 77,
          "name": "F5",
          "ticks": 29568,
          "time": 32.999967000000005,
          "velocity": 0.3937007874015748
        },
        {
          "duration": 0.32142825000000386,
          "durationTicks": 288,
          "midi": 51,
          "name": "D#3",
          "ticks": 29664,
          "time": 33.10710975,
          "velocity": 0.3937007874015748
        },
        {
          "duration": 0.32142825000000386,
          "durationTicks": 288,
          "midi": 49,
          "name": "C#3",
          "ticks": 29760,
          "time": 33.2142525,
          "velocity": 0.3937007874015748
        },
        {
          "duration": 0.32142825000000386,
          "durationTicks": 288,
          "midi": 35,
          "name": "B1",
          "ticks": 29760,
          "time": 33.2142525,
          "velocity": 0.3937007874015748
        },
        {
          "duration": 0.32142825000000386,
          "durationTicks": 288,
          "midi": 66,
          "name": "F#4",
          "ticks": 29760,
          "time": 33.2142525,
          "velocity": 0.3937007874015748
        },
        {
          "duration": 0.32142825000000386,
          "durationTicks": 288,
          "midi": 78,
          "name": "F#5",
          "ticks": 29760,
          "time": 33.2142525,
          "velocity": 0.3937007874015748
        },
        {
          "duration": 0.32142825000000386,
          "durationTicks": 288,
          "midi": 51,
          "name": "D#3",
          "ticks": 29856,
          "time": 33.32139525,
          "velocity": 0.3937007874015748
        },
        {
          "duration": 0.32142824999999675,
          "durationTicks": 288,
          "midi": 37,
          "name": "C#2",
          "ticks": 29952,
          "time": 33.428538,
          "velocity": 0.3937007874015748
        },
        {
          "duration": 0.32142824999999675,
          "durationTicks": 288,
          "midi": 65,
          "name": "F4",
          "ticks": 29952,
          "time": 33.428538,
          "velocity": 0.3937007874015748
        },
        {
          "duration": 0.32142824999999675,
          "durationTicks": 288,
          "midi": 77,
          "name": "F5",
          "ticks": 29952,
          "time": 33.428538,
          "velocity": 0.3937007874015748
        },
        {
          "duration": 0.32142824999999675,
          "durationTicks": 288,
          "midi": 37,
          "name": "C#2",
          "ticks": 30144,
          "time": 33.642823500000006,
          "velocity": 0.3937007874015748
        },
        {
          "duration": 0.32142824999999675,
          "durationTicks": 288,
          "midi": 63,
          "name": "D#4",
          "ticks": 30144,
          "time": 33.642823500000006,
          "velocity": 0.3937007874015748
        },
        {
          "duration": 0.32142824999999675,
          "durationTicks": 288,
          "midi": 75,
          "name": "D#5",
          "ticks": 30144,
          "time": 33.642823500000006,
          "velocity": 0.3937007874015748
        },
        {
          "duration": 0.32142825000000386,
          "durationTicks": 288,
          "midi": 51,
          "name": "D#3",
          "ticks": 30240,
          "time": 33.74996625,
          "velocity": 0.3937007874015748
        },
        {
          "duration": 0.32142825000000386,
          "durationTicks": 288,
          "midi": 37,
          "name": "C#2",
          "ticks": 30336,
          "time": 33.857109,
          "velocity": 0.3937007874015748
        },
        {
          "duration": 0.32142825000000386,
          "durationTicks": 288,
          "midi": 62,
          "name": "D4",
          "ticks": 30336,
          "time": 33.857109,
          "velocity": 0.3937007874015748
        },
        {
          "duration": 0.32142825000000386,
          "durationTicks": 288,
          "midi": 74,
          "name": "D5",
          "ticks": 30336,
          "time": 33.857109,
          "velocity": 0.3937007874015748
        },
        {
          "duration": 0.32142824999999675,
          "durationTicks": 288,
          "midi": 51,
          "name": "D#3",
          "ticks": 30432,
          "time": 33.96425175,
          "velocity": 0.3937007874015748
        },
        {
          "duration": 0.32142824999999675,
          "durationTicks": 288,
          "midi": 49,
          "name": "C#3",
          "ticks": 30528,
          "time": 34.071394500000004,
          "velocity": 0.3937007874015748
        },
        {
          "duration": 0.32142824999999675,
          "durationTicks": 288,
          "midi": 37,
          "name": "C#2",
          "ticks": 30528,
          "time": 34.071394500000004,
          "velocity": 0.3937007874015748
        },
        {
          "duration": 0.32142824999999675,
          "durationTicks": 288,
          "midi": 65,
          "name": "F4",
          "ticks": 30528,
          "time": 34.071394500000004,
          "velocity": 0.3937007874015748
        },
        {
          "duration": 0.32142824999999675,
          "durationTicks": 288,
          "midi": 77,
          "name": "F5",
          "ticks": 30528,
          "time": 34.071394500000004,
          "velocity": 0.3937007874015748
        },
        {
          "duration": 0.32142824999999675,
          "durationTicks": 288,
          "midi": 51,
          "name": "D#3",
          "ticks": 30624,
          "time": 34.178537250000005,
          "velocity": 0.3937007874015748
        },
        {
          "duration": 0.32142825000000386,
          "durationTicks": 288,
          "midi": 39,
          "name": "D#2",
          "ticks": 30720,
          "time": 34.28568,
          "velocity": 0.3937007874015748
        },
        {
          "duration": 0.32142825000000386,
          "durationTicks": 288,
          "midi": 63,
          "name": "D#4",
          "ticks": 30720,
          "time": 34.28568,
          "velocity": 0.3937007874015748
        },
        {
          "duration": 0.32142825000000386,
          "durationTicks": 288,
          "midi": 75,
          "name": "D#5",
          "ticks": 30720,
          "time": 34.28568,
          "velocity": 0.3937007874015748
        },
        {
          "duration": 0.32142825000000386,
          "durationTicks": 288,
          "midi": 39,
          "name": "D#2",
          "ticks": 30912,
          "time": 34.4999655,
          "velocity": 0.3937007874015748
        },
        {
          "duration": 0.32142825000000386,
          "durationTicks": 288,
          "midi": 65,
          "name": "F4",
          "ticks": 30912,
          "time": 34.4999655,
          "velocity": 0.3937007874015748
        },
        {
          "duration": 0.32142825000000386,
          "durationTicks": 288,
          "midi": 77,
          "name": "F5",
          "ticks": 30912,
          "time": 34.4999655,
          "velocity": 0.3937007874015748
        },
        {
          "duration": 0.32142824999999675,
          "durationTicks": 288,
          "midi": 51,
          "name": "D#3",
          "ticks": 31008,
          "time": 34.60710825,
          "velocity": 0.3937007874015748
        },
        {
          "duration": 0.32142824999999675,
          "durationTicks": 288,
          "midi": 39,
          "name": "D#2",
          "ticks": 31104,
          "time": 34.714251000000004,
          "velocity": 0.3937007874015748
        },
        {
          "duration": 0.32142824999999675,
          "durationTicks": 288,
          "midi": 66,
          "name": "F#4",
          "ticks": 31104,
          "time": 34.714251000000004,
          "velocity": 0.3937007874015748
        },
        {
          "duration": 0.32142824999999675,
          "durationTicks": 288,
          "midi": 78,
          "name": "F#5",
          "ticks": 31104,
          "time": 34.714251000000004,
          "velocity": 0.3937007874015748
        },
        {
          "duration": 0.32142824999999675,
          "durationTicks": 288,
          "midi": 51,
          "name": "D#3",
          "ticks": 31200,
          "time": 34.821393750000006,
          "velocity": 0.3937007874015748
        },
        {
          "duration": 0.32142825000000386,
          "durationTicks": 288,
          "midi": 49,
          "name": "C#3",
          "ticks": 31296,
          "time": 34.9285365,
          "velocity": 0.3937007874015748
        },
        {
          "duration": 0.32142825000000386,
          "durationTicks": 288,
          "midi": 39,
          "name": "D#2",
          "ticks": 31296,
          "time": 34.9285365,
          "velocity": 0.3937007874015748
        },
        {
          "duration": 0.32142825000000386,
          "durationTicks": 288,
          "midi": 68,
          "name": "G#4",
          "ticks": 31296,
          "time": 34.9285365,
          "velocity": 0.3937007874015748
        },
        {
          "duration": 0.32142825000000386,
          "durationTicks": 288,
          "midi": 80,
          "name": "G#5",
          "ticks": 31296,
          "time": 34.9285365,
          "velocity": 0.3937007874015748
        },
        {
          "duration": 0.32142825000000386,
          "durationTicks": 288,
          "midi": 51,
          "name": "D#3",
          "ticks": 31392,
          "time": 35.03567925,
          "velocity": 0.3937007874015748
        },
        {
          "duration": 0.32142825000000386,
          "durationTicks": 288,
          "midi": 39,
          "name": "D#2",
          "ticks": 31488,
          "time": 35.142822,
          "velocity": 0.3937007874015748
        },
        {
          "duration": 0.32142825000000386,
          "durationTicks": 288,
          "midi": 70,
          "name": "A#4",
          "ticks": 31488,
          "time": 35.142822,
          "velocity": 0.3937007874015748
        },
        {
          "duration": 0.32142825000000386,
          "durationTicks": 288,
          "midi": 82,
          "name": "A#5",
          "ticks": 31488,
          "time": 35.142822,
          "velocity": 0.3937007874015748
        },
        {
          "duration": 0.32142824999999675,
          "durationTicks": 288,
          "midi": 39,
          "name": "D#2",
          "ticks": 31680,
          "time": 35.357107500000005,
          "velocity": 0.3937007874015748
        },
        {
          "duration": 0.32142824999999675,
          "durationTicks": 288,
          "midi": 51,
          "name": "D#3",
          "ticks": 31776,
          "time": 35.464250250000006,
          "velocity": 0.3937007874015748
        },
        {
          "duration": 0.32142825000000386,
          "durationTicks": 288,
          "midi": 39,
          "name": "D#2",
          "ticks": 31872,
          "time": 35.571393,
          "velocity": 0.3937007874015748
        },
        {
          "duration": 0.32142825000000386,
          "durationTicks": 288,
          "midi": 75,
          "name": "D#5",
          "ticks": 31872,
          "time": 35.571393,
          "velocity": 0.3937007874015748
        },
        {
          "duration": 0.32142825000000386,
          "durationTicks": 288,
          "midi": 87,
          "name": "D#6",
          "ticks": 31872,
          "time": 35.571393,
          "velocity": 0.3937007874015748
        },
        {
          "duration": 0.32142825000000386,
          "durationTicks": 288,
          "midi": 51,
          "name": "D#3",
          "ticks": 31968,
          "time": 35.67853575,
          "velocity": 0.3937007874015748
        },
        {
          "duration": 0.32142824999999675,
          "durationTicks": 288,
          "midi": 49,
          "name": "C#3",
          "ticks": 32064,
          "time": 35.7856785,
          "velocity": 0.3937007874015748
        },
        {
          "duration": 0.32142824999999675,
          "durationTicks": 288,
          "midi": 39,
          "name": "D#2",
          "ticks": 32064,
          "time": 35.7856785,
          "velocity": 0.3937007874015748
        },
        {
          "duration": 0.32142824999999675,
          "durationTicks": 288,
          "midi": 73,
          "name": "C#5",
          "ticks": 32064,
          "time": 35.7856785,
          "velocity": 0.3937007874015748
        },
        {
          "duration": 0.32142824999999675,
          "durationTicks": 288,
          "midi": 85,
          "name": "C#6",
          "ticks": 32064,
          "time": 35.7856785,
          "velocity": 0.3937007874015748
        },
        {
          "duration": 0.32142824999999675,
          "durationTicks": 288,
          "midi": 51,
          "name": "D#3",
          "ticks": 32160,
          "time": 35.892821250000004,
          "velocity": 0.3937007874015748
        },
        {
          "duration": 0.32142824999999675,
          "durationTicks": 288,
          "midi": 39,
          "name": "D#2",
          "ticks": 32256,
          "time": 35.999964000000006,
          "velocity": 0.3937007874015748
        },
        {
          "duration": 0.32142824999999675,
          "durationTicks": 288,
          "midi": 70,
          "name": "A#4",
          "ticks": 32256,
          "time": 35.999964000000006,
          "velocity": 0.3937007874015748
        },
        {
          "duration": 0.32142824999999675,
          "durationTicks": 288,
          "midi": 82,
          "name": "A#5",
          "ticks": 32256,
          "time": 35.999964000000006,
          "velocity": 0.3937007874015748
        },
        {
          "duration": 0.32142825000000386,
          "durationTicks": 288,
          "midi": 39,
          "name": "D#2",
          "ticks": 32448,
          "time": 36.2142495,
          "velocity": 0.3937007874015748
        },
        {
          "duration": 0.32142825000000386,
          "durationTicks": 288,
          "midi": 51,
          "name": "D#3",
          "ticks": 32544,
          "time": 36.32139225,
          "velocity": 0.3937007874015748
        },
        {
          "duration": 0.32142824999999675,
          "durationTicks": 288,
          "midi": 39,
          "name": "D#2",
          "ticks": 32640,
          "time": 36.428535000000004,
          "velocity": 0.3937007874015748
        },
        {
          "duration": 0.32142824999999675,
          "durationTicks": 288,
          "midi": 63,
          "name": "D#4",
          "ticks": 32640,
          "time": 36.428535000000004,
          "velocity": 0.3937007874015748
        },
        {
          "duration": 0.32142824999999675,
          "durationTicks": 288,
          "midi": 75,
          "name": "D#5",
          "ticks": 32640,
          "time": 36.428535000000004,
          "velocity": 0.3937007874015748
        },
        {
          "duration": 0.32142824999999675,
          "durationTicks": 288,
          "midi": 51,
          "name": "D#3",
          "ticks": 32736,
          "time": 36.535677750000005,
          "velocity": 0.3937007874015748
        },
        {
          "duration": 0.32142824999999675,
          "durationTicks": 288,
          "midi": 49,
          "name": "C#3",
          "ticks": 32832,
          "time": 36.642820500000006,
          "velocity": 0.3937007874015748
        },
        {
          "duration": 0.32142824999999675,
          "durationTicks": 288,
          "midi": 39,
          "name": "D#2",
          "ticks": 32832,
          "time": 36.642820500000006,
          "velocity": 0.3937007874015748
        },
        {
          "duration": 0.32142825000000386,
          "durationTicks": 288,
          "midi": 51,
          "name": "D#3",
          "ticks": 32928,
          "time": 36.74996325,
          "velocity": 0.3937007874015748
        },
        {
          "duration": 0.32142825000000386,
          "durationTicks": 288,
          "midi": 39,
          "name": "D#2",
          "ticks": 33024,
          "time": 36.857106,
          "velocity": 0.3937007874015748
        },
        {
          "duration": 0.32142825000000386,
          "durationTicks": 288,
          "midi": 70,
          "name": "A#4",
          "ticks": 33024,
          "time": 36.857106,
          "velocity": 0.3937007874015748
        },
        {
          "duration": 0.32142825000000386,
          "durationTicks": 288,
          "midi": 82,
          "name": "A#5",
          "ticks": 33024,
          "time": 36.857106,
          "velocity": 0.3937007874015748
        },
        {
          "duration": 0.32142824999999675,
          "durationTicks": 288,
          "midi": 39,
          "name": "D#2",
          "ticks": 33216,
          "time": 37.071391500000004,
          "velocity": 0.3937007874015748
        },
        {
          "duration": 0.32142824999999675,
          "durationTicks": 288,
          "midi": 68,
          "name": "G#4",
          "ticks": 33216,
          "time": 37.071391500000004,
          "velocity": 0.3937007874015748
        },
        {
          "duration": 0.32142824999999675,
          "durationTicks": 288,
          "midi": 80,
          "name": "G#5",
          "ticks": 33216,
          "time": 37.071391500000004,
          "velocity": 0.3937007874015748
        },
        {
          "duration": 0.32142824999999675,
          "durationTicks": 288,
          "midi": 51,
          "name": "D#3",
          "ticks": 33312,
          "time": 37.178534250000006,
          "velocity": 0.3937007874015748
        },
        {
          "duration": 0.32142825000000386,
          "durationTicks": 288,
          "midi": 39,
          "name": "D#2",
          "ticks": 33408,
          "time": 37.285677,
          "velocity": 0.3937007874015748
        },
        {
          "duration": 0.32142825000000386,
          "durationTicks": 288,
          "midi": 66,
          "name": "F#4",
          "ticks": 33408,
          "time": 37.285677,
          "velocity": 0.3937007874015748
        },
        {
          "duration": 0.32142825000000386,
          "durationTicks": 288,
          "midi": 78,
          "name": "F#5",
          "ticks": 33408,
          "time": 37.285677,
          "velocity": 0.3937007874015748
        },
        {
          "duration": 0.32142825000000386,
          "durationTicks": 288,
          "midi": 51,
          "name": "D#3",
          "ticks": 33504,
          "time": 37.39281975,
          "velocity": 0.3937007874015748
        },
        {
          "duration": 0.32142825000000386,
          "durationTicks": 288,
          "midi": 49,
          "name": "C#3",
          "ticks": 33600,
          "time": 37.4999625,
          "velocity": 0.3937007874015748
        },
        {
          "duration": 0.32142825000000386,
          "durationTicks": 288,
          "midi": 39,
          "name": "D#2",
          "ticks": 33600,
          "time": 37.4999625,
          "velocity": 0.3937007874015748
        },
        {
          "duration": 0.32142825000000386,
          "durationTicks": 288,
          "midi": 65,
          "name": "F4",
          "ticks": 33600,
          "time": 37.4999625,
          "velocity": 0.3937007874015748
        },
        {
          "duration": 0.32142825000000386,
          "durationTicks": 288,
          "midi": 77,
          "name": "F5",
          "ticks": 33600,
          "time": 37.4999625,
          "velocity": 0.3937007874015748
        },
        {
          "duration": 0.32142824999999675,
          "durationTicks": 288,
          "midi": 51,
          "name": "D#3",
          "ticks": 33696,
          "time": 37.607105250000004,
          "velocity": 0.3937007874015748
        },
        {
          "duration": 0.32142824999999675,
          "durationTicks": 288,
          "midi": 35,
          "name": "B1",
          "ticks": 33792,
          "time": 37.714248000000005,
          "velocity": 0.3937007874015748
        },
        {
          "duration": 0.32142824999999675,
          "durationTicks": 288,
          "midi": 63,
          "name": "D#4",
          "ticks": 33792,
          "time": 37.714248000000005,
          "velocity": 0.3937007874015748
        },
        {
          "duration": 0.32142824999999675,
          "durationTicks": 288,
          "midi": 75,
          "name": "D#5",
          "ticks": 33792,
          "time": 37.714248000000005,
          "velocity": 0.3937007874015748
        },
        {
          "duration": 0.32142825000000386,
          "durationTicks": 288,
          "midi": 35,
          "name": "B1",
          "ticks": 33984,
          "time": 37.9285335,
          "velocity": 0.3937007874015748
        },
        {
          "duration": 0.32142825000000386,
          "durationTicks": 288,
          "midi": 65,
          "name": "F4",
          "ticks": 33984,
          "time": 37.9285335,
          "velocity": 0.3937007874015748
        },
        {
          "duration": 0.32142825000000386,
          "durationTicks": 288,
          "midi": 77,
          "name": "F5",
          "ticks": 33984,
          "time": 37.9285335,
          "velocity": 0.3937007874015748
        },
        {
          "duration": 0.32142825000000386,
          "durationTicks": 288,
          "midi": 51,
          "name": "D#3",
          "ticks": 34080,
          "time": 38.03567625,
          "velocity": 0.3937007874015748
        },
        {
          "duration": 0.32142824999999675,
          "durationTicks": 288,
          "midi": 35,
          "name": "B1",
          "ticks": 34176,
          "time": 38.142819,
          "velocity": 0.3937007874015748
        },
        {
          "duration": 0.32142824999999675,
          "durationTicks": 288,
          "midi": 66,
          "name": "F#4",
          "ticks": 34176,
          "time": 38.142819,
          "velocity": 0.3937007874015748
        },
        {
          "duration": 0.32142824999999675,
          "durationTicks": 288,
          "midi": 78,
          "name": "F#5",
          "ticks": 34176,
          "time": 38.142819,
          "velocity": 0.3937007874015748
        },
        {
          "duration": 0.32142824999999675,
          "durationTicks": 288,
          "midi": 51,
          "name": "D#3",
          "ticks": 34272,
          "time": 38.249961750000004,
          "velocity": 0.3937007874015748
        },
        {
          "duration": 0.32142824999999675,
          "durationTicks": 288,
          "midi": 49,
          "name": "C#3",
          "ticks": 34368,
          "time": 38.357104500000005,
          "velocity": 0.3937007874015748
        },
        {
          "duration": 0.32142824999999675,
          "durationTicks": 288,
          "midi": 35,
          "name": "B1",
          "ticks": 34368,
          "time": 38.357104500000005,
          "velocity": 0.3937007874015748
        },
        {
          "duration": 0.32142824999999675,
          "durationTicks": 288,
          "midi": 68,
          "name": "G#4",
          "ticks": 34368,
          "time": 38.357104500000005,
          "velocity": 0.3937007874015748
        },
        {
          "duration": 0.32142824999999675,
          "durationTicks": 288,
          "midi": 80,
          "name": "G#5",
          "ticks": 34368,
          "time": 38.357104500000005,
          "velocity": 0.3937007874015748
        },
        {
          "duration": 0.32142825000000386,
          "durationTicks": 288,
          "midi": 51,
          "name": "D#3",
          "ticks": 34464,
          "time": 38.46424725,
          "velocity": 0.3937007874015748
        },
        {
          "duration": 0.32142825000000386,
          "durationTicks": 288,
          "midi": 35,
          "name": "B1",
          "ticks": 34560,
          "time": 38.57139,
          "velocity": 0.3937007874015748
        },
        {
          "duration": 0.32142825000000386,
          "durationTicks": 288,
          "midi": 70,
          "name": "A#4",
          "ticks": 34560,
          "time": 38.57139,
          "velocity": 0.3937007874015748
        },
        {
          "duration": 0.32142825000000386,
          "durationTicks": 288,
          "midi": 82,
          "name": "A#5",
          "ticks": 34560,
          "time": 38.57139,
          "velocity": 0.3937007874015748
        },
        {
          "duration": 0.32142824999999675,
          "durationTicks": 288,
          "midi": 35,
          "name": "B1",
          "ticks": 34752,
          "time": 38.7856755,
          "velocity": 0.3937007874015748
        },
        {
          "duration": 0.32142824999999675,
          "durationTicks": 288,
          "midi": 51,
          "name": "D#3",
          "ticks": 34848,
          "time": 38.892818250000005,
          "velocity": 0.3937007874015748
        },
        {
          "duration": 0.32142824999999675,
          "durationTicks": 288,
          "midi": 35,
          "name": "B1",
          "ticks": 34944,
          "time": 38.999961000000006,
          "velocity": 0.3937007874015748
        },
        {
          "duration": 0.32142824999999675,
          "durationTicks": 288,
          "midi": 68,
          "name": "G#4",
          "ticks": 34944,
          "time": 38.999961000000006,
          "velocity": 0.3937007874015748
        },
        {
          "duration": 0.32142824999999675,
          "durationTicks": 288,
          "midi": 80,
          "name": "G#5",
          "ticks": 34944,
          "time": 38.999961000000006,
          "velocity": 0.3937007874015748
        },
        {
          "duration": 0.32142825000000386,
          "durationTicks": 288,
          "midi": 51,
          "name": "D#3",
          "ticks": 35040,
          "time": 39.10710375,
          "velocity": 0.3937007874015748
        },
        {
          "duration": 0.32142825000000386,
          "durationTicks": 288,
          "midi": 49,
          "name": "C#3",
          "ticks": 35136,
          "time": 39.2142465,
          "velocity": 0.3937007874015748
        },
        {
          "duration": 0.32142825000000386,
          "durationTicks": 288,
          "midi": 35,
          "name": "B1",
          "ticks": 35136,
          "time": 39.2142465,
          "velocity": 0.3937007874015748
        },
        {
          "duration": 0.32142825000000386,
          "durationTicks": 288,
          "midi": 66,
          "name": "F#4",
          "ticks": 35136,
          "time": 39.2142465,
          "velocity": 0.3937007874015748
        },
        {
          "duration": 0.32142825000000386,
          "durationTicks": 288,
          "midi": 78,
          "name": "F#5",
          "ticks": 35136,
          "time": 39.2142465,
          "velocity": 0.3937007874015748
        },
        {
          "duration": 0.32142825000000386,
          "durationTicks": 288,
          "midi": 51,
          "name": "D#3",
          "ticks": 35232,
          "time": 39.32138925,
          "velocity": 0.3937007874015748
        },
        {
          "duration": 0.32142824999999675,
          "durationTicks": 288,
          "midi": 35,
          "name": "B1",
          "ticks": 35328,
          "time": 39.428532000000004,
          "velocity": 0.3937007874015748
        },
        {
          "duration": 0.32142824999999675,
          "durationTicks": 288,
          "midi": 65,
          "name": "F4",
          "ticks": 35328,
          "time": 39.428532000000004,
          "velocity": 0.3937007874015748
        },
        {
          "duration": 0.32142824999999675,
          "durationTicks": 288,
          "midi": 53,
          "name": "F3",
          "ticks": 35328,
          "time": 39.428532000000004,
          "velocity": 0.3937007874015748
        },
        {
          "duration": 0.32142824999999675,
          "durationTicks": 288,
          "midi": 77,
          "name": "F5",
          "ticks": 35328,
          "time": 39.428532000000004,
          "velocity": 0.3937007874015748
        },
        {
          "duration": 0.32142824999999675,
          "durationTicks": 288,
          "midi": 35,
          "name": "B1",
          "ticks": 35520,
          "time": 39.64281750000001,
          "velocity": 0.3937007874015748
        },
        {
          "duration": 0.32142825000000386,
          "durationTicks": 288,
          "midi": 35,
          "name": "B1",
          "ticks": 35712,
          "time": 39.857103,
          "velocity": 0.3937007874015748
        },
        {
          "duration": 0.32142825000000386,
          "durationTicks": 288,
          "midi": 66,
          "name": "F#4",
          "ticks": 35712,
          "time": 39.857103,
          "velocity": 0.3937007874015748
        },
        {
          "duration": 0.32142825000000386,
          "durationTicks": 288,
          "midi": 54,
          "name": "F#3",
          "ticks": 35712,
          "time": 39.857103,
          "velocity": 0.3937007874015748
        },
        {
          "duration": 0.32142825000000386,
          "durationTicks": 288,
          "midi": 78,
          "name": "F#5",
          "ticks": 35712,
          "time": 39.857103,
          "velocity": 0.3937007874015748
        },
        {
          "duration": 0.32142824999999675,
          "durationTicks": 288,
          "midi": 35,
          "name": "B1",
          "ticks": 35904,
          "time": 40.071388500000005,
          "velocity": 0.3937007874015748
        },
        {
          "duration": 0.32142825000000386,
          "durationTicks": 288,
          "midi": 37,
          "name": "C#2",
          "ticks": 36096,
          "time": 40.285674,
          "velocity": 0.3937007874015748
        },
        {
          "duration": 0.32142825000000386,
          "durationTicks": 288,
          "midi": 68,
          "name": "G#4",
          "ticks": 36096,
          "time": 40.285674,
          "velocity": 0.3937007874015748
        },
        {
          "duration": 0.32142825000000386,
          "durationTicks": 288,
          "midi": 56,
          "name": "G#3",
          "ticks": 36096,
          "time": 40.285674,
          "velocity": 0.3937007874015748
        },
        {
          "duration": 0.32142825000000386,
          "durationTicks": 288,
          "midi": 80,
          "name": "G#5",
          "ticks": 36096,
          "time": 40.285674,
          "velocity": 0.3937007874015748
        },
        {
          "duration": 0.32142825000000386,
          "durationTicks": 288,
          "midi": 37,
          "name": "C#2",
          "ticks": 36288,
          "time": 40.4999595,
          "velocity": 0.3937007874015748
        },
        {
          "duration": 0.32142824999999675,
          "durationTicks": 288,
          "midi": 37,
          "name": "C#2",
          "ticks": 36480,
          "time": 40.714245000000005,
          "velocity": 0.3937007874015748
        },
        {
          "duration": 0.32142824999999675,
          "durationTicks": 288,
          "midi": 70,
          "name": "A#4",
          "ticks": 36480,
          "time": 40.714245000000005,
          "velocity": 0.3937007874015748
        },
        {
          "duration": 0.32142824999999675,
          "durationTicks": 288,
          "midi": 58,
          "name": "A#3",
          "ticks": 36480,
          "time": 40.714245000000005,
          "velocity": 0.3937007874015748
        },
        {
          "duration": 0.32142824999999675,
          "durationTicks": 288,
          "midi": 82,
          "name": "A#5",
          "ticks": 36480,
          "time": 40.714245000000005,
          "velocity": 0.3937007874015748
        },
        {
          "duration": 0.32142824999999675,
          "durationTicks": 288,
          "midi": 70,
          "name": "A#4",
          "ticks": 36480,
          "time": 40.714245000000005,
          "velocity": 0.3937007874015748
        },
        {
          "duration": 0.32142824999999675,
          "durationTicks": 288,
          "midi": 35,
          "name": "B1",
          "ticks": 36864,
          "time": 41.142816,
          "velocity": 0.3937007874015748
        },
        {
          "duration": 0.32142824999999675,
          "durationTicks": 288,
          "midi": 73,
          "name": "C#5",
          "ticks": 36864,
          "time": 41.142816,
          "velocity": 0.3937007874015748
        },
        {
          "duration": 0.32142824999999675,
          "durationTicks": 288,
          "midi": 75,
          "name": "D#5",
          "ticks": 37056,
          "time": 41.357101500000006,
          "velocity": 0.3937007874015748
        },
        {
          "duration": 0.32142825000000386,
          "durationTicks": 288,
          "midi": 35,
          "name": "B1",
          "ticks": 37152,
          "time": 41.46424425,
          "velocity": 0.3937007874015748
        },
        {
          "duration": 0.32142825000000386,
          "durationTicks": 288,
          "midi": 35,
          "name": "B1",
          "ticks": 37248,
          "time": 41.571387,
          "velocity": 0.3937007874015748
        },
        {
          "duration": 0.32142825000000386,
          "durationTicks": 288,
          "midi": 70,
          "name": "A#4",
          "ticks": 37248,
          "time": 41.571387,
          "velocity": 0.3937007874015748
        },
        {
          "duration": 0.32142824999999675,
          "durationTicks": 288,
          "midi": 35,
          "name": "B1",
          "ticks": 37440,
          "time": 41.785672500000004,
          "velocity": 0.3937007874015748
        },
        {
          "duration": 0.32142824999999675,
          "durationTicks": 288,
          "midi": 68,
          "name": "G#4",
          "ticks": 37440,
          "time": 41.785672500000004,
          "velocity": 0.3937007874015748
        },
        {
          "duration": 0.32142824999999675,
          "durationTicks": 288,
          "midi": 35,
          "name": "B1",
          "ticks": 37632,
          "time": 41.99995800000001,
          "velocity": 0.3937007874015748
        },
        {
          "duration": 0.32142824999999675,
          "durationTicks": 288,
          "midi": 70,
          "name": "A#4",
          "ticks": 37632,
          "time": 41.99995800000001,
          "velocity": 0.3937007874015748
        },
        {
          "duration": 0.32142824999999675,
          "durationTicks": 288,
          "midi": 35,
          "name": "B1",
          "ticks": 37920,
          "time": 42.32138625,
          "velocity": 0.3937007874015748
        },
        {
          "duration": 0.32142824999999675,
          "durationTicks": 288,
          "midi": 35,
          "name": "B1",
          "ticks": 38016,
          "time": 42.428529000000005,
          "velocity": 0.3937007874015748
        },
        {
          "duration": 0.32142824999999675,
          "durationTicks": 288,
          "midi": 68,
          "name": "G#4",
          "ticks": 38016,
          "time": 42.428529000000005,
          "velocity": 0.3937007874015748
        },
        {
          "duration": 0.32142825000000386,
          "durationTicks": 288,
          "midi": 35,
          "name": "B1",
          "ticks": 38208,
          "time": 42.6428145,
          "velocity": 0.3937007874015748
        },
        {
          "duration": 0.32142825000000386,
          "durationTicks": 288,
          "midi": 70,
          "name": "A#4",
          "ticks": 38208,
          "time": 42.6428145,
          "velocity": 0.3937007874015748
        },
        {
          "duration": 0.32142825000000386,
          "durationTicks": 288,
          "midi": 37,
          "name": "C#2",
          "ticks": 38400,
          "time": 42.8571,
          "velocity": 0.3937007874015748
        },
        {
          "duration": 0.32142825000000386,
          "durationTicks": 288,
          "midi": 73,
          "name": "C#5",
          "ticks": 38400,
          "time": 42.8571,
          "velocity": 0.3937007874015748
        },
        {
          "duration": 0.32142824999999675,
          "durationTicks": 288,
          "midi": 75,
          "name": "D#5",
          "ticks": 38592,
          "time": 43.071385500000005,
          "velocity": 0.3937007874015748
        },
        {
          "duration": 0.32142824999999675,
          "durationTicks": 288,
          "midi": 37,
          "name": "C#2",
          "ticks": 38688,
          "time": 43.17852825000001,
          "velocity": 0.3937007874015748
        },
        {
          "duration": 0.32142825000000386,
          "durationTicks": 288,
          "midi": 37,
          "name": "C#2",
          "ticks": 38784,
          "time": 43.285671,
          "velocity": 0.3937007874015748
        },
        {
          "duration": 0.32142825000000386,
          "durationTicks": 288,
          "midi": 70,
          "name": "A#4",
          "ticks": 38784,
          "time": 43.285671,
          "velocity": 0.3937007874015748
        },
        {
          "duration": 0.32142825000000386,
          "durationTicks": 288,
          "midi": 37,
          "name": "C#2",
          "ticks": 38976,
          "time": 43.4999565,
          "velocity": 0.3937007874015748
        },
        {
          "duration": 0.32142825000000386,
          "durationTicks": 288,
          "midi": 68,
          "name": "G#4",
          "ticks": 38976,
          "time": 43.4999565,
          "velocity": 0.3937007874015748
        },
        {
          "duration": 0.32142824999999675,
          "durationTicks": 288,
          "midi": 37,
          "name": "C#2",
          "ticks": 39168,
          "time": 43.714242000000006,
          "velocity": 0.3937007874015748
        },
        {
          "duration": 0.32142824999999675,
          "durationTicks": 288,
          "midi": 70,
          "name": "A#4",
          "ticks": 39168,
          "time": 43.714242000000006,
          "velocity": 0.3937007874015748
        },
        {
          "duration": 0.32142825000000386,
          "durationTicks": 288,
          "midi": 37,
          "name": "C#2",
          "ticks": 39456,
          "time": 44.03567025,
          "velocity": 0.3937007874015748
        },
        {
          "duration": 0.32142824999999675,
          "durationTicks": 288,
          "midi": 37,
          "name": "C#2",
          "ticks": 39552,
          "time": 44.142813000000004,
          "velocity": 0.3937007874015748
        },
        {
          "duration": 0.32142824999999675,
          "durationTicks": 288,
          "midi": 68,
          "name": "G#4",
          "ticks": 39552,
          "time": 44.142813000000004,
          "velocity": 0.3937007874015748
        },
        {
          "duration": 0.32142824999999675,
          "durationTicks": 288,
          "midi": 37,
          "name": "C#2",
          "ticks": 39744,
          "time": 44.357098500000006,
          "velocity": 0.3937007874015748
        },
        {
          "duration": 0.32142824999999675,
          "durationTicks": 288,
          "midi": 70,
          "name": "A#4",
          "ticks": 39744,
          "time": 44.357098500000006,
          "velocity": 0.3937007874015748
        },
        {
          "duration": 0.32142825000000386,
          "durationTicks": 288,
          "midi": 39,
          "name": "D#2",
          "ticks": 39936,
          "time": 44.571384,
          "velocity": 0.3937007874015748
        },
        {
          "duration": 0.32142825000000386,
          "durationTicks": 288,
          "midi": 68,
          "name": "G#4",
          "ticks": 39936,
          "time": 44.571384,
          "velocity": 0.3937007874015748
        },
        {
          "duration": 0.32142824999999675,
          "durationTicks": 288,
          "midi": 66,
          "name": "F#4",
          "ticks": 40128,
          "time": 44.785669500000004,
          "velocity": 0.3937007874015748
        },
        {
          "duration": 0.32142824999999675,
          "durationTicks": 288,
          "midi": 39,
          "name": "D#2",
          "ticks": 40224,
          "time": 44.892812250000006,
          "velocity": 0.3937007874015748
        },
        {
          "duration": 0.32142824999999675,
          "durationTicks": 288,
          "midi": 39,
          "name": "D#2",
          "ticks": 40320,
          "time": 44.99995500000001,
          "velocity": 0.3937007874015748
        },
        {
          "duration": 0.32142824999999675,
          "durationTicks": 288,
          "midi": 65,
          "name": "F4",
          "ticks": 40320,
          "time": 44.99995500000001,
          "velocity": 0.3937007874015748
        },
        {
          "duration": 0.32142825000000386,
          "durationTicks": 288,
          "midi": 39,
          "name": "D#2",
          "ticks": 40512,
          "time": 45.2142405,
          "velocity": 0.3937007874015748
        },
        {
          "duration": 0.32142825000000386,
          "durationTicks": 288,
          "midi": 61,
          "name": "C#4",
          "ticks": 40512,
          "time": 45.2142405,
          "velocity": 0.3937007874015748
        },
        {
          "duration": 0.32142824999999675,
          "durationTicks": 288,
          "midi": 39,
          "name": "D#2",
          "ticks": 40704,
          "time": 45.428526000000005,
          "velocity": 0.3937007874015748
        },
        {
          "duration": 0.32142824999999675,
          "durationTicks": 288,
          "midi": 63,
          "name": "D#4",
          "ticks": 40704,
          "time": 45.428526000000005,
          "velocity": 0.3937007874015748
        },
        {
          "duration": 0.32142825000000386,
          "durationTicks": 288,
          "midi": 39,
          "name": "D#2",
          "ticks": 40992,
          "time": 45.74995425,
          "velocity": 0.3937007874015748
        },
        {
          "duration": 0.32142825000000386,
          "durationTicks": 288,
          "midi": 39,
          "name": "D#2",
          "ticks": 41088,
          "time": 45.857097,
          "velocity": 0.3937007874015748
        },
        {
          "duration": 0.32142825000000386,
          "durationTicks": 288,
          "midi": 61,
          "name": "C#4",
          "ticks": 41088,
          "time": 45.857097,
          "velocity": 0.3937007874015748
        },
        {
          "duration": 0.32142824999999675,
          "durationTicks": 288,
          "midi": 39,
          "name": "D#2",
          "ticks": 41280,
          "time": 46.071382500000006,
          "velocity": 0.3937007874015748
        },
        {
          "duration": 0.32142824999999675,
          "durationTicks": 288,
          "midi": 63,
          "name": "D#4",
          "ticks": 41280,
          "time": 46.071382500000006,
          "velocity": 0.3937007874015748
        },
        {
          "duration": 0.32142825000000386,
          "durationTicks": 288,
          "midi": 39,
          "name": "D#2",
          "ticks": 41472,
          "time": 46.285668,
          "velocity": 0.3937007874015748
        },
        {
          "duration": 0.32142825000000386,
          "durationTicks": 288,
          "midi": 65,
          "name": "F4",
          "ticks": 41472,
          "time": 46.285668,
          "velocity": 0.3937007874015748
        },
        {
          "duration": 0.32142824999999675,
          "durationTicks": 288,
          "midi": 66,
          "name": "F#4",
          "ticks": 41664,
          "time": 46.499953500000004,
          "velocity": 0.3937007874015748
        },
        {
          "duration": 0.32142824999999675,
          "durationTicks": 288,
          "midi": 39,
          "name": "D#2",
          "ticks": 41760,
          "time": 46.607096250000005,
          "velocity": 0.3937007874015748
        },
        {
          "duration": 0.32142824999999675,
          "durationTicks": 288,
          "midi": 39,
          "name": "D#2",
          "ticks": 41856,
          "time": 46.714239000000006,
          "velocity": 0.3937007874015748
        },
        {
          "duration": 0.32142824999999675,
          "durationTicks": 288,
          "midi": 68,
          "name": "G#4",
          "ticks": 41856,
          "time": 46.714239000000006,
          "velocity": 0.3937007874015748
        },
        {
          "duration": 0.32142825000000386,
          "durationTicks": 288,
          "midi": 39,
          "name": "D#2",
          "ticks": 42048,
          "time": 46.9285245,
          "velocity": 0.3937007874015748
        },
        {
          "duration": 0.32142825000000386,
          "durationTicks": 288,
          "midi": 70,
          "name": "A#4",
          "ticks": 42048,
          "time": 46.9285245,
          "velocity": 0.3937007874015748
        },
        {
          "duration": 0.32142824999999675,
          "durationTicks": 288,
          "midi": 39,
          "name": "D#2",
          "ticks": 42240,
          "time": 47.142810000000004,
          "velocity": 0.3937007874015748
        },
        {
          "duration": 0.32142824999999675,
          "durationTicks": 288,
          "midi": 63,
          "name": "D#4",
          "ticks": 42240,
          "time": 47.142810000000004,
          "velocity": 0.3937007874015748
        },
        {
          "duration": 0.32142825000000386,
          "durationTicks": 288,
          "midi": 39,
          "name": "D#2",
          "ticks": 42528,
          "time": 47.46423825,
          "velocity": 0.3937007874015748
        },
        {
          "duration": 0.32142825000000386,
          "durationTicks": 288,
          "midi": 39,
          "name": "D#2",
          "ticks": 42624,
          "time": 47.571381,
          "velocity": 0.3937007874015748
        },
        {
          "duration": 0.32142825000000386,
          "durationTicks": 288,
          "midi": 70,
          "name": "A#4",
          "ticks": 42624,
          "time": 47.571381,
          "velocity": 0.3937007874015748
        },
        {
          "duration": 0.32142824999999675,
          "durationTicks": 288,
          "midi": 39,
          "name": "D#2",
          "ticks": 42816,
          "time": 47.785666500000005,
          "velocity": 0.3937007874015748
        },
        {
          "duration": 0.32142824999999675,
          "durationTicks": 288,
          "midi": 73,
          "name": "C#5",
          "ticks": 42816,
          "time": 47.785666500000005,
          "velocity": 0.3937007874015748
        },
        {
          "duration": 0.32142824999999675,
          "durationTicks": 288,
          "midi": 35,
          "name": "B1",
          "ticks": 43008,
          "time": 47.99995200000001,
          "velocity": 0.3937007874015748
        },
        {
          "duration": 0.32142824999999675,
          "durationTicks": 288,
          "midi": 73,
          "name": "C#5",
          "ticks": 43008,
          "time": 47.99995200000001,
          "velocity": 0.3937007874015748
        },
        {
          "duration": 0.32142825000000386,
          "durationTicks": 288,
          "midi": 75,
          "name": "D#5",
          "ticks": 43200,
          "time": 48.2142375,
          "velocity": 0.3937007874015748
        },
        {
          "duration": 0.32142824999999675,
          "durationTicks": 288,
          "midi": 35,
          "name": "B1",
          "ticks": 43296,
          "time": 48.321380250000004,
          "velocity": 0.3937007874015748
        },
        {
          "duration": 0.32142824999999675,
          "durationTicks": 288,
          "midi": 35,
          "name": "B1",
          "ticks": 43392,
          "time": 48.428523000000006,
          "velocity": 0.3937007874015748
        },
        {
          "duration": 0.32142824999999675,
          "durationTicks": 288,
          "midi": 70,
          "name": "A#4",
          "ticks": 43392,
          "time": 48.428523000000006,
          "velocity": 0.3937007874015748
        },
        {
          "duration": 0.32142825000000386,
          "durationTicks": 288,
          "midi": 35,
          "name": "B1",
          "ticks": 43584,
          "time": 48.6428085,
          "velocity": 0.3937007874015748
        },
        {
          "duration": 0.32142825000000386,
          "durationTicks": 288,
          "midi": 68,
          "name": "G#4",
          "ticks": 43584,
          "time": 48.6428085,
          "velocity": 0.3937007874015748
        },
        {
          "duration": 0.32142825000000386,
          "durationTicks": 288,
          "midi": 35,
          "name": "B1",
          "ticks": 43776,
          "time": 48.857094000000004,
          "velocity": 0.3937007874015748
        },
        {
          "duration": 0.32142825000000386,
          "durationTicks": 288,
          "midi": 70,
          "name": "A#4",
          "ticks": 43776,
          "time": 48.857094000000004,
          "velocity": 0.3937007874015748
        },
        {
          "duration": 0.32142824999999675,
          "durationTicks": 288,
          "midi": 35,
          "name": "B1",
          "ticks": 44064,
          "time": 49.17852225000001,
          "velocity": 0.3937007874015748
        },
        {
          "duration": 0.32142825000000386,
          "durationTicks": 288,
          "midi": 35,
          "name": "B1",
          "ticks": 44160,
          "time": 49.285665,
          "velocity": 0.3937007874015748
        },
        {
          "duration": 0.32142825000000386,
          "durationTicks": 288,
          "midi": 68,
          "name": "G#4",
          "ticks": 44160,
          "time": 49.285665,
          "velocity": 0.3937007874015748
        },
        {
          "duration": 0.32142824999999675,
          "durationTicks": 288,
          "midi": 35,
          "name": "B1",
          "ticks": 44352,
          "time": 49.499950500000004,
          "velocity": 0.3937007874015748
        },
        {
          "duration": 0.32142824999999675,
          "durationTicks": 288,
          "midi": 70,
          "name": "A#4",
          "ticks": 44352,
          "time": 49.499950500000004,
          "velocity": 0.3937007874015748
        },
        {
          "duration": 0.32142824999999675,
          "durationTicks": 288,
          "midi": 37,
          "name": "C#2",
          "ticks": 44544,
          "time": 49.71423600000001,
          "velocity": 0.3937007874015748
        },
        {
          "duration": 0.32142824999999675,
          "durationTicks": 288,
          "midi": 73,
          "name": "C#5",
          "ticks": 44544,
          "time": 49.71423600000001,
          "velocity": 0.3937007874015748
        },
        {
          "duration": 0.32142825000000386,
          "durationTicks": 288,
          "midi": 75,
          "name": "D#5",
          "ticks": 44736,
          "time": 49.9285215,
          "velocity": 0.3937007874015748
        },
        {
          "duration": 0.32142825000000386,
          "durationTicks": 288,
          "midi": 37,
          "name": "C#2",
          "ticks": 44832,
          "time": 50.03566425,
          "velocity": 0.3937007874015748
        },
        {
          "duration": 0.32142824999999675,
          "durationTicks": 288,
          "midi": 37,
          "name": "C#2",
          "ticks": 44928,
          "time": 50.142807000000005,
          "velocity": 0.3937007874015748
        },
        {
          "duration": 0.32142824999999675,
          "durationTicks": 288,
          "midi": 70,
          "name": "A#4",
          "ticks": 44928,
          "time": 50.142807000000005,
          "velocity": 0.3937007874015748
        },
        {
          "duration": 0.32142824999999675,
          "durationTicks": 288,
          "midi": 37,
          "name": "C#2",
          "ticks": 45120,
          "time": 50.35709250000001,
          "velocity": 0.3937007874015748
        },
        {
          "duration": 0.32142824999999675,
          "durationTicks": 288,
          "midi": 68,
          "name": "G#4",
          "ticks": 45120,
          "time": 50.35709250000001,
          "velocity": 0.3937007874015748
        },
        {
          "duration": 0.32142825000000386,
          "durationTicks": 288,
          "midi": 37,
          "name": "C#2",
          "ticks": 45312,
          "time": 50.571378,
          "velocity": 0.3937007874015748
        },
        {
          "duration": 0.32142825000000386,
          "durationTicks": 288,
          "midi": 70,
          "name": "A#4",
          "ticks": 45312,
          "time": 50.571378,
          "velocity": 0.3937007874015748
        },
        {
          "duration": 0.32142824999999675,
          "durationTicks": 288,
          "midi": 37,
          "name": "C#2",
          "ticks": 45600,
          "time": 50.89280625000001,
          "velocity": 0.3937007874015748
        },
        {
          "duration": 0.32142825000000386,
          "durationTicks": 288,
          "midi": 37,
          "name": "C#2",
          "ticks": 45696,
          "time": 50.999949,
          "velocity": 0.3937007874015748
        },
        {
          "duration": 0.32142825000000386,
          "durationTicks": 288,
          "midi": 68,
          "name": "G#4",
          "ticks": 45696,
          "time": 50.999949,
          "velocity": 0.3937007874015748
        },
        {
          "duration": 0.32142825000000386,
          "durationTicks": 288,
          "midi": 37,
          "name": "C#2",
          "ticks": 45888,
          "time": 51.2142345,
          "velocity": 0.3937007874015748
        },
        {
          "duration": 0.32142825000000386,
          "durationTicks": 288,
          "midi": 70,
          "name": "A#4",
          "ticks": 45888,
          "time": 51.2142345,
          "velocity": 0.3937007874015748
        },
        {
          "duration": 0.32142824999999675,
          "durationTicks": 288,
          "midi": 39,
          "name": "D#2",
          "ticks": 46080,
          "time": 51.428520000000006,
          "velocity": 0.3937007874015748
        },
        {
          "duration": 0.32142824999999675,
          "durationTicks": 288,
          "midi": 68,
          "name": "G#4",
          "ticks": 46080,
          "time": 51.428520000000006,
          "velocity": 0.3937007874015748
        },
        {
          "duration": 0.32142825000000386,
          "durationTicks": 288,
          "midi": 66,
          "name": "F#4",
          "ticks": 46272,
          "time": 51.6428055,
          "velocity": 0.3937007874015748
        },
        {
          "duration": 0.32142825000000386,
          "durationTicks": 288,
          "midi": 39,
          "name": "D#2",
          "ticks": 46368,
          "time": 51.74994825,
          "velocity": 0.3937007874015748
        },
        {
          "duration": 0.32142824999999675,
          "durationTicks": 288,
          "midi": 39,
          "name": "D#2",
          "ticks": 46464,
          "time": 51.857091000000004,
          "velocity": 0.3937007874015748
        },
        {
          "duration": 0.32142824999999675,
          "durationTicks": 288,
          "midi": 65,
          "name": "F4",
          "ticks": 46464,
          "time": 51.857091000000004,
          "velocity": 0.3937007874015748
        },
        {
          "duration": 0.32142824999999675,
          "durationTicks": 288,
          "midi": 39,
          "name": "D#2",
          "ticks": 46656,
          "time": 52.07137650000001,
          "velocity": 0.3937007874015748
        },
        {
          "duration": 0.32142824999999675,
          "durationTicks": 288,
          "midi": 61,
          "name": "C#4",
          "ticks": 46656,
          "time": 52.07137650000001,
          "velocity": 0.3937007874015748
        },
        {
          "duration": 0.32142825000000386,
          "durationTicks": 288,
          "midi": 39,
          "name": "D#2",
          "ticks": 46848,
          "time": 52.285662,
          "velocity": 0.3937007874015748
        },
        {
          "duration": 0.32142825000000386,
          "durationTicks": 288,
          "midi": 63,
          "name": "D#4",
          "ticks": 46848,
          "time": 52.285662,
          "velocity": 0.3937007874015748
        },
        {
          "duration": 0.32142824999999675,
          "durationTicks": 288,
          "midi": 39,
          "name": "D#2",
          "ticks": 47136,
          "time": 52.607090250000006,
          "velocity": 0.3937007874015748
        },
        {
          "duration": 0.32142824999999675,
          "durationTicks": 288,
          "midi": 39,
          "name": "D#2",
          "ticks": 47232,
          "time": 52.71423300000001,
          "velocity": 0.3937007874015748
        },
        {
          "duration": 0.32142824999999675,
          "durationTicks": 288,
          "midi": 61,
          "name": "C#4",
          "ticks": 47232,
          "time": 52.71423300000001,
          "velocity": 0.3937007874015748
        },
        {
          "duration": 0.32142825000000386,
          "durationTicks": 288,
          "midi": 39,
          "name": "D#2",
          "ticks": 47424,
          "time": 52.9285185,
          "velocity": 0.3937007874015748
        },
        {
          "duration": 0.32142825000000386,
          "durationTicks": 288,
          "midi": 63,
          "name": "D#4",
          "ticks": 47424,
          "time": 52.9285185,
          "velocity": 0.3937007874015748
        },
        {
          "duration": 0.32142824999999675,
          "durationTicks": 288,
          "midi": 39,
          "name": "D#2",
          "ticks": 47616,
          "time": 53.142804000000005,
          "velocity": 0.3937007874015748
        },
        {
          "duration": 0.32142824999999675,
          "durationTicks": 288,
          "midi": 65,
          "name": "F4",
          "ticks": 47616,
          "time": 53.142804000000005,
          "velocity": 0.3937007874015748
        },
        {
          "duration": 0.32142824999999675,
          "durationTicks": 288,
          "midi": 66,
          "name": "F#4",
          "ticks": 47808,
          "time": 53.35708950000001,
          "velocity": 0.3937007874015748
        },
        {
          "duration": 0.32142825000000386,
          "durationTicks": 288,
          "midi": 39,
          "name": "D#2",
          "ticks": 47904,
          "time": 53.46423225,
          "velocity": 0.3937007874015748
        },
        {
          "duration": 0.32142825000000386,
          "durationTicks": 288,
          "midi": 39,
          "name": "D#2",
          "ticks": 48000,
          "time": 53.571375,
          "velocity": 0.3937007874015748
        },
        {
          "duration": 0.32142825000000386,
          "durationTicks": 288,
          "midi": 68,
          "name": "G#4",
          "ticks": 48000,
          "time": 53.571375,
          "velocity": 0.3937007874015748
        },
        {
          "duration": 0.32142824999999675,
          "durationTicks": 288,
          "midi": 39,
          "name": "D#2",
          "ticks": 48192,
          "time": 53.785660500000006,
          "velocity": 0.3937007874015748
        },
        {
          "duration": 0.32142824999999675,
          "durationTicks": 288,
          "midi": 70,
          "name": "A#4",
          "ticks": 48192,
          "time": 53.785660500000006,
          "velocity": 0.3937007874015748
        },
        {
          "duration": 0.32142825000000386,
          "durationTicks": 288,
          "midi": 39,
          "name": "D#2",
          "ticks": 48384,
          "time": 53.999946,
          "velocity": 0.3937007874015748
        },
        {
          "duration": 0.32142825000000386,
          "durationTicks": 288,
          "midi": 63,
          "name": "D#4",
          "ticks": 48384,
          "time": 53.999946,
          "velocity": 0.3937007874015748
        },
        {
          "duration": 0.32142824999999675,
          "durationTicks": 288,
          "midi": 39,
          "name": "D#2",
          "ticks": 48672,
          "time": 54.321374250000005,
          "velocity": 0.3937007874015748
        },
        {
          "duration": 0.32142824999999675,
          "durationTicks": 288,
          "midi": 39,
          "name": "D#2",
          "ticks": 48768,
          "time": 54.42851700000001,
          "velocity": 0.3937007874015748
        },
        {
          "duration": 0.32142824999999675,
          "durationTicks": 288,
          "midi": 70,
          "name": "A#4",
          "ticks": 48768,
          "time": 54.42851700000001,
          "velocity": 0.3937007874015748
        },
        {
          "duration": 0.32142825000000386,
          "durationTicks": 288,
          "midi": 39,
          "name": "D#2",
          "ticks": 48960,
          "time": 54.6428025,
          "velocity": 0.3937007874015748
        },
        {
          "duration": 0.32142825000000386,
          "durationTicks": 288,
          "midi": 73,
          "name": "C#5",
          "ticks": 48960,
          "time": 54.6428025,
          "velocity": 0.3937007874015748
        },
        {
          "duration": 0.32142824999999675,
          "durationTicks": 288,
          "midi": 35,
          "name": "B1",
          "ticks": 49152,
          "time": 54.857088000000005,
          "velocity": 0.3937007874015748
        },
        {
          "duration": 0.32142824999999675,
          "durationTicks": 288,
          "midi": 73,
          "name": "C#5",
          "ticks": 49152,
          "time": 54.857088000000005,
          "velocity": 0.3937007874015748
        },
        {
          "duration": 0.32142824999999675,
          "durationTicks": 288,
          "midi": 75,
          "name": "D#5",
          "ticks": 49344,
          "time": 55.07137350000001,
          "velocity": 0.3937007874015748
        },
        {
          "duration": 0.32142825000000386,
          "durationTicks": 288,
          "midi": 35,
          "name": "B1",
          "ticks": 49440,
          "time": 55.17851625,
          "velocity": 0.3937007874015748
        },
        {
          "duration": 0.32142825000000386,
          "durationTicks": 288,
          "midi": 51,
          "name": "D#3",
          "ticks": 49440,
          "time": 55.17851625,
          "velocity": 0.3937007874015748
        },
        {
          "duration": 0.32142825000000386,
          "durationTicks": 288,
          "midi": 35,
          "name": "B1",
          "ticks": 49536,
          "time": 55.285659,
          "velocity": 0.3937007874015748
        },
        {
          "duration": 0.32142825000000386,
          "durationTicks": 288,
          "midi": 70,
          "name": "A#4",
          "ticks": 49536,
          "time": 55.285659,
          "velocity": 0.3937007874015748
        },
        {
          "duration": 0.32142825000000386,
          "durationTicks": 288,
          "midi": 51,
          "name": "D#3",
          "ticks": 49632,
          "time": 55.392801750000004,
          "velocity": 0.3937007874015748
        },
        {
          "duration": 0.32142824999999675,
          "durationTicks": 288,
          "midi": 35,
          "name": "B1",
          "ticks": 49728,
          "time": 55.499944500000005,
          "velocity": 0.3937007874015748
        },
        {
          "duration": 0.32142824999999675,
          "durationTicks": 288,
          "midi": 49,
          "name": "C#3",
          "ticks": 49728,
          "time": 55.499944500000005,
          "velocity": 0.3937007874015748
        },
        {
          "duration": 0.32142824999999675,
          "durationTicks": 288,
          "midi": 68,
          "name": "G#4",
          "ticks": 49728,
          "time": 55.499944500000005,
          "velocity": 0.3937007874015748
        },
        {
          "duration": 0.32142824999999675,
          "durationTicks": 288,
          "midi": 51,
          "name": "D#3",
          "ticks": 49824,
          "time": 55.607087250000006,
          "velocity": 0.3937007874015748
        },
        {
          "duration": 0.32142824999999675,
          "durationTicks": 288,
          "midi": 35,
          "name": "B1",
          "ticks": 49920,
          "time": 55.71423000000001,
          "velocity": 0.3937007874015748
        },
        {
          "duration": 0.32142824999999675,
          "durationTicks": 288,
          "midi": 70,
          "name": "A#4",
          "ticks": 49920,
          "time": 55.71423000000001,
          "velocity": 0.3937007874015748
        },
        {
          "duration": 0.32142824999999675,
          "durationTicks": 288,
          "midi": 35,
          "name": "B1",
          "ticks": 50208,
          "time": 56.035658250000004,
          "velocity": 0.3937007874015748
        },
        {
          "duration": 0.32142824999999675,
          "durationTicks": 288,
          "midi": 51,
          "name": "D#3",
          "ticks": 50208,
          "time": 56.035658250000004,
          "velocity": 0.3937007874015748
        },
        {
          "duration": 0.32142824999999675,
          "durationTicks": 288,
          "midi": 35,
          "name": "B1",
          "ticks": 50304,
          "time": 56.142801000000006,
          "velocity": 0.3937007874015748
        },
        {
          "duration": 0.32142824999999675,
          "durationTicks": 288,
          "midi": 68,
          "name": "G#4",
          "ticks": 50304,
          "time": 56.142801000000006,
          "velocity": 0.3937007874015748
        },
        {
          "duration": 0.32142824999999675,
          "durationTicks": 288,
          "midi": 51,
          "name": "D#3",
          "ticks": 50400,
          "time": 56.24994375000001,
          "velocity": 0.3937007874015748
        },
        {
          "duration": 0.32142825000000386,
          "durationTicks": 288,
          "midi": 35,
          "name": "B1",
          "ticks": 50496,
          "time": 56.3570865,
          "velocity": 0.3937007874015748
        },
        {
          "duration": 0.32142825000000386,
          "durationTicks": 288,
          "midi": 49,
          "name": "C#3",
          "ticks": 50496,
          "time": 56.3570865,
          "velocity": 0.3937007874015748
        },
        {
          "duration": 0.32142825000000386,
          "durationTicks": 288,
          "midi": 70,
          "name": "A#4",
          "ticks": 50496,
          "time": 56.3570865,
          "velocity": 0.3937007874015748
        },
        {
          "duration": 0.32142825000000386,
          "durationTicks": 288,
          "midi": 51,
          "name": "D#3",
          "ticks": 50592,
          "time": 56.46422925,
          "velocity": 0.3937007874015748
        },
        {
          "duration": 0.32142825000000386,
          "durationTicks": 288,
          "midi": 37,
          "name": "C#2",
          "ticks": 50688,
          "time": 56.571372000000004,
          "velocity": 0.3937007874015748
        },
        {
          "duration": 0.32142825000000386,
          "durationTicks": 288,
          "midi": 73,
          "name": "C#5",
          "ticks": 50688,
          "time": 56.571372000000004,
          "velocity": 0.3937007874015748
        },
        {
          "duration": 0.32142824999999675,
          "durationTicks": 288,
          "midi": 75,
          "name": "D#5",
          "ticks": 50880,
          "time": 56.785657500000006,
          "velocity": 0.3937007874015748
        },
        {
          "duration": 0.32142824999999675,
          "durationTicks": 288,
          "midi": 37,
          "name": "C#2",
          "ticks": 50976,
          "time": 56.89280025000001,
          "velocity": 0.3937007874015748
        },
        {
          "duration": 0.32142824999999675,
          "durationTicks": 288,
          "midi": 51,
          "name": "D#3",
          "ticks": 50976,
          "time": 56.89280025000001,
          "velocity": 0.3937007874015748
        },
        {
          "duration": 0.32142825000000386,
          "durationTicks": 288,
          "midi": 37,
          "name": "C#2",
          "ticks": 51072,
          "time": 56.999943,
          "velocity": 0.3937007874015748
        },
        {
          "duration": 0.32142825000000386,
          "durationTicks": 288,
          "midi": 70,
          "name": "A#4",
          "ticks": 51072,
          "time": 56.999943,
          "velocity": 0.3937007874015748
        },
        {
          "duration": 0.32142825000000386,
          "durationTicks": 288,
          "midi": 51,
          "name": "D#3",
          "ticks": 51168,
          "time": 57.10708575,
          "velocity": 0.3937007874015748
        },
        {
          "duration": 0.32142825000000386,
          "durationTicks": 288,
          "midi": 37,
          "name": "C#2",
          "ticks": 51264,
          "time": 57.214228500000004,
          "velocity": 0.3937007874015748
        },
        {
          "duration": 0.32142825000000386,
          "durationTicks": 288,
          "midi": 49,
          "name": "C#3",
          "ticks": 51264,
          "time": 57.214228500000004,
          "velocity": 0.3937007874015748
        },
        {
          "duration": 0.32142825000000386,
          "durationTicks": 288,
          "midi": 68,
          "name": "G#4",
          "ticks": 51264,
          "time": 57.214228500000004,
          "velocity": 0.3937007874015748
        },
        {
          "duration": 0.32142824999999675,
          "durationTicks": 288,
          "midi": 51,
          "name": "D#3",
          "ticks": 51360,
          "time": 57.321371250000006,
          "velocity": 0.3937007874015748
        },
        {
          "duration": 0.32142824999999675,
          "durationTicks": 288,
          "midi": 37,
          "name": "C#2",
          "ticks": 51456,
          "time": 57.42851400000001,
          "velocity": 0.3937007874015748
        },
        {
          "duration": 0.32142824999999675,
          "durationTicks": 288,
          "midi": 70,
          "name": "A#4",
          "ticks": 51456,
          "time": 57.42851400000001,
          "velocity": 0.3937007874015748
        },
        {
          "duration": 0.32142825000000386,
          "durationTicks": 288,
          "midi": 37,
          "name": "C#2",
          "ticks": 51744,
          "time": 57.749942250000004,
          "velocity": 0.3937007874015748
        },
        {
          "duration": 0.32142825000000386,
          "durationTicks": 288,
          "midi": 51,
          "name": "D#3",
          "ticks": 51744,
          "time": 57.749942250000004,
          "velocity": 0.3937007874015748
        },
        {
          "duration": 0.32142824999999675,
          "durationTicks": 288,
          "midi": 37,
          "name": "C#2",
          "ticks": 51840,
          "time": 57.857085000000005,
          "velocity": 0.3937007874015748
        },
        {
          "duration": 0.32142824999999675,
          "durationTicks": 288,
          "midi": 68,
          "name": "G#4",
          "ticks": 51840,
          "time": 57.857085000000005,
          "velocity": 0.3937007874015748
        },
        {
          "duration": 0.32142824999999675,
          "durationTicks": 288,
          "midi": 51,
          "name": "D#3",
          "ticks": 51936,
          "time": 57.964227750000006,
          "velocity": 0.3937007874015748
        },
        {
          "duration": 0.32142824999999675,
          "durationTicks": 288,
          "midi": 37,
          "name": "C#2",
          "ticks": 52032,
          "time": 58.07137050000001,
          "velocity": 0.3937007874015748
        },
        {
          "duration": 0.32142824999999675,
          "durationTicks": 288,
          "midi": 49,
          "name": "C#3",
          "ticks": 52032,
          "time": 58.07137050000001,
          "velocity": 0.3937007874015748
        },
        {
          "duration": 0.32142824999999675,
          "durationTicks": 288,
          "midi": 70,
          "name": "A#4",
          "ticks": 52032,
          "time": 58.07137050000001,
          "velocity": 0.3937007874015748
        },
        {
          "duration": 0.32142825000000386,
          "durationTicks": 288,
          "midi": 51,
          "name": "D#3",
          "ticks": 52128,
          "time": 58.17851325,
          "velocity": 0.3937007874015748
        },
        {
          "duration": 0.32142825000000386,
          "durationTicks": 288,
          "midi": 39,
          "name": "D#2",
          "ticks": 52224,
          "time": 58.285656,
          "velocity": 0.3937007874015748
        },
        {
          "duration": 0.32142825000000386,
          "durationTicks": 288,
          "midi": 68,
          "name": "G#4",
          "ticks": 52224,
          "time": 58.285656,
          "velocity": 0.3937007874015748
        },
        {
          "duration": 0.32142824999999675,
          "durationTicks": 288,
          "midi": 66,
          "name": "F#4",
          "ticks": 52416,
          "time": 58.499941500000006,
          "velocity": 0.3937007874015748
        },
        {
          "duration": 0.32142824999999675,
          "durationTicks": 288,
          "midi": 39,
          "name": "D#2",
          "ticks": 52512,
          "time": 58.60708425000001,
          "velocity": 0.3937007874015748
        },
        {
          "duration": 0.32142824999999675,
          "durationTicks": 288,
          "midi": 51,
          "name": "D#3",
          "ticks": 52512,
          "time": 58.60708425000001,
          "velocity": 0.3937007874015748
        },
        {
          "duration": 0.32142824999999675,
          "durationTicks": 288,
          "midi": 39,
          "name": "D#2",
          "ticks": 52608,
          "time": 58.71422700000001,
          "velocity": 0.3937007874015748
        },
        {
          "duration": 0.32142824999999675,
          "durationTicks": 288,
          "midi": 65,
          "name": "F4",
          "ticks": 52608,
          "time": 58.71422700000001,
          "velocity": 0.3937007874015748
        },
        {
          "duration": 0.32142825000000386,
          "durationTicks": 288,
          "midi": 51,
          "name": "D#3",
          "ticks": 52704,
          "time": 58.82136975,
          "velocity": 0.3937007874015748
        },
        {
          "duration": 0.32142825000000386,
          "durationTicks": 288,
          "midi": 39,
          "name": "D#2",
          "ticks": 52800,
          "time": 58.928512500000004,
          "velocity": 0.3937007874015748
        },
        {
          "duration": 0.32142825000000386,
          "durationTicks": 288,
          "midi": 49,
          "name": "C#3",
          "ticks": 52800,
          "time": 58.928512500000004,
          "velocity": 0.3937007874015748
        },
        {
          "duration": 0.32142825000000386,
          "durationTicks": 288,
          "midi": 61,
          "name": "C#4",
          "ticks": 52800,
          "time": 58.928512500000004,
          "velocity": 0.3937007874015748
        },
        {
          "duration": 0.32142824999999675,
          "durationTicks": 288,
          "midi": 51,
          "name": "D#3",
          "ticks": 52896,
          "time": 59.035655250000005,
          "velocity": 0.3937007874015748
        },
        {
          "duration": 0.32142824999999675,
          "durationTicks": 288,
          "midi": 39,
          "name": "D#2",
          "ticks": 52992,
          "time": 59.142798000000006,
          "velocity": 0.3937007874015748
        },
        {
          "duration": 0.32142824999999675,
          "durationTicks": 288,
          "midi": 63,
          "name": "D#4",
          "ticks": 52992,
          "time": 59.142798000000006,
          "velocity": 0.3937007874015748
        },
        {
          "duration": 0.32142825000000386,
          "durationTicks": 288,
          "midi": 39,
          "name": "D#2",
          "ticks": 53280,
          "time": 59.46422625,
          "velocity": 0.3937007874015748
        },
        {
          "duration": 0.32142825000000386,
          "durationTicks": 288,
          "midi": 51,
          "name": "D#3",
          "ticks": 53280,
          "time": 59.46422625,
          "velocity": 0.3937007874015748
        },
        {
          "duration": 0.32142825000000386,
          "durationTicks": 288,
          "midi": 39,
          "name": "D#2",
          "ticks": 53376,
          "time": 59.571369000000004,
          "velocity": 0.3937007874015748
        },
        {
          "duration": 0.32142825000000386,
          "durationTicks": 288,
          "midi": 61,
          "name": "C#4",
          "ticks": 53376,
          "time": 59.571369000000004,
          "velocity": 0.3937007874015748
        },
        {
          "duration": 0.32142824999999675,
          "durationTicks": 288,
          "midi": 51,
          "name": "D#3",
          "ticks": 53472,
          "time": 59.678511750000006,
          "velocity": 0.3937007874015748
        },
        {
          "duration": 0.32142824999999675,
          "durationTicks": 288,
          "midi": 39,
          "name": "D#2",
          "ticks": 53568,
          "time": 59.78565450000001,
          "velocity": 0.3937007874015748
        },
        {
          "duration": 0.32142824999999675,
          "durationTicks": 288,
          "midi": 49,
          "name": "C#3",
          "ticks": 53568,
          "time": 59.78565450000001,
          "velocity": 0.3937007874015748
        },
        {
          "duration": 0.32142824999999675,
          "durationTicks": 288,
          "midi": 63,
          "name": "D#4",
          "ticks": 53568,
          "time": 59.78565450000001,
          "velocity": 0.3937007874015748
        },
        {
          "duration": 0.32142824999999675,
          "durationTicks": 288,
          "midi": 51,
          "name": "D#3",
          "ticks": 53664,
          "time": 59.89279725000001,
          "velocity": 0.3937007874015748
        },
        {
          "duration": 0.32142825000000386,
          "durationTicks": 288,
          "midi": 39,
          "name": "D#2",
          "ticks": 53760,
          "time": 59.99994,
          "velocity": 0.3937007874015748
        },
        {
          "duration": 0.32142825000000386,
          "durationTicks": 288,
          "midi": 65,
          "name": "F4",
          "ticks": 53760,
          "time": 59.99994,
          "velocity": 0.3937007874015748
        },
        {
          "duration": 0.32142824999999675,
          "durationTicks": 288,
          "midi": 66,
          "name": "F#4",
          "ticks": 53952,
          "time": 60.214225500000005,
          "velocity": 0.3937007874015748
        },
        {
          "duration": 0.32142824999999675,
          "durationTicks": 288,
          "midi": 39,
          "name": "D#2",
          "ticks": 54048,
          "time": 60.321368250000006,
          "velocity": 0.3937007874015748
        },
        {
          "duration": 0.32142824999999675,
          "durationTicks": 288,
          "midi": 51,
          "name": "D#3",
          "ticks": 54048,
          "time": 60.321368250000006,
          "velocity": 0.3937007874015748
        },
        {
          "duration": 0.32142824999999675,
          "durationTicks": 288,
          "midi": 39,
          "name": "D#2",
          "ticks": 54144,
          "time": 60.42851100000001,
          "velocity": 0.3937007874015748
        },
        {
          "duration": 0.32142824999999675,
          "durationTicks": 288,
          "midi": 68,
          "name": "G#4",
          "ticks": 54144,
          "time": 60.42851100000001,
          "velocity": 0.3937007874015748
        },
        {
          "duration": 0.32142825000000386,
          "durationTicks": 288,
          "midi": 51,
          "name": "D#3",
          "ticks": 54240,
          "time": 60.53565375,
          "velocity": 0.3937007874015748
        },
        {
          "duration": 0.32142825000000386,
          "durationTicks": 288,
          "midi": 39,
          "name": "D#2",
          "ticks": 54336,
          "time": 60.6427965,
          "velocity": 0.3937007874015748
        },
        {
          "duration": 0.32142825000000386,
          "durationTicks": 288,
          "midi": 49,
          "name": "C#3",
          "ticks": 54336,
          "time": 60.6427965,
          "velocity": 0.3937007874015748
        },
        {
          "duration": 0.32142825000000386,
          "durationTicks": 288,
          "midi": 70,
          "name": "A#4",
          "ticks": 54336,
          "time": 60.6427965,
          "velocity": 0.3937007874015748
        },
        {
          "duration": 0.32142825000000386,
          "durationTicks": 288,
          "midi": 51,
          "name": "D#3",
          "ticks": 54432,
          "time": 60.749939250000004,
          "velocity": 0.3937007874015748
        },
        {
          "duration": 0.32142824999999675,
          "durationTicks": 288,
          "midi": 39,
          "name": "D#2",
          "ticks": 54528,
          "time": 60.857082000000005,
          "velocity": 0.3937007874015748
        },
        {
          "duration": 0.32142824999999675,
          "durationTicks": 288,
          "midi": 56,
          "name": "G#3",
          "ticks": 54528,
          "time": 60.857082000000005,
          "velocity": 0.3937007874015748
        },
        {
          "duration": 0.32142824999999675,
          "durationTicks": 288,
          "midi": 63,
          "name": "D#4",
          "ticks": 54528,
          "time": 60.857082000000005,
          "velocity": 0.3937007874015748
        },
        {
          "duration": 0.32142824999999675,
          "durationTicks": 288,
          "midi": 54,
          "name": "F#3",
          "ticks": 54720,
          "time": 61.07136750000001,
          "velocity": 0.3937007874015748
        },
        {
          "duration": 0.32142825000000386,
          "durationTicks": 288,
          "midi": 39,
          "name": "D#2",
          "ticks": 54816,
          "time": 61.17851025,
          "velocity": 0.3937007874015748
        },
        {
          "duration": 0.32142825000000386,
          "durationTicks": 288,
          "midi": 56,
          "name": "G#3",
          "ticks": 54816,
          "time": 61.17851025,
          "velocity": 0.3937007874015748
        },
        {
          "duration": 0.32142825000000386,
          "durationTicks": 288,
          "midi": 39,
          "name": "D#2",
          "ticks": 54912,
          "time": 61.285653,
          "velocity": 0.3937007874015748
        },
        {
          "duration": 0.32142825000000386,
          "durationTicks": 288,
          "midi": 54,
          "name": "F#3",
          "ticks": 54912,
          "time": 61.285653,
          "velocity": 0.3937007874015748
        },
        {
          "duration": 0.32142825000000386,
          "durationTicks": 288,
          "midi": 70,
          "name": "A#4",
          "ticks": 54912,
          "time": 61.285653,
          "velocity": 0.3937007874015748
        },
        {
          "duration": 0.32142824999999675,
          "durationTicks": 288,
          "midi": 39,
          "name": "D#2",
          "ticks": 55104,
          "time": 61.499938500000006,
          "velocity": 0.3937007874015748
        },
        {
          "duration": 0.32142824999999675,
          "durationTicks": 288,
          "midi": 51,
          "name": "D#3",
          "ticks": 55104,
          "time": 61.499938500000006,
          "velocity": 0.3937007874015748
        },
        {
          "duration": 0.32142824999999675,
          "durationTicks": 288,
          "midi": 73,
          "name": "C#5",
          "ticks": 55104,
          "time": 61.499938500000006,
          "velocity": 0.3937007874015748
        },
        {
          "duration": 0.32142824999999675,
          "durationTicks": 288,
          "midi": 56,
          "name": "G#3",
          "ticks": 55200,
          "time": 61.60708125000001,
          "velocity": 0.3937007874015748
        },
        {
          "duration": 0.32142825000000386,
          "durationTicks": 288,
          "midi": 35,
          "name": "B1",
          "ticks": 55296,
          "time": 61.714224,
          "velocity": 0.3937007874015748
        },
        {
          "duration": 0.32142825000000386,
          "durationTicks": 288,
          "midi": 73,
          "name": "C#5",
          "ticks": 55296,
          "time": 61.714224,
          "velocity": 0.3937007874015748
        },
        {
          "duration": 0.32142825000000386,
          "durationTicks": 288,
          "midi": 75,
          "name": "D#5",
          "ticks": 55488,
          "time": 61.928509500000004,
          "velocity": 0.3937007874015748
        },
        {
          "duration": 0.32142824999999675,
          "durationTicks": 288,
          "midi": 35,
          "name": "B1",
          "ticks": 55584,
          "time": 62.035652250000005,
          "velocity": 0.3937007874015748
        },
        {
          "duration": 0.32142824999999675,
          "durationTicks": 288,
          "midi": 51,
          "name": "D#3",
          "ticks": 55584,
          "time": 62.035652250000005,
          "velocity": 0.3937007874015748
        },
        {
          "duration": 0.32142824999999675,
          "durationTicks": 288,
          "midi": 35,
          "name": "B1",
          "ticks": 55680,
          "time": 62.14279500000001,
          "velocity": 0.3937007874015748
        },
        {
          "duration": 0.32142824999999675,
          "durationTicks": 288,
          "midi": 70,
          "name": "A#4",
          "ticks": 55680,
          "time": 62.14279500000001,
          "velocity": 0.3937007874015748
        },
        {
          "duration": 0.32142824999999675,
          "durationTicks": 288,
          "midi": 51,
          "name": "D#3",
          "ticks": 55776,
          "time": 62.24993775000001,
          "velocity": 0.3937007874015748
        },
        {
          "duration": 0.32142825000000386,
          "durationTicks": 288,
          "midi": 35,
          "name": "B1",
          "ticks": 55872,
          "time": 62.3570805,
          "velocity": 0.3937007874015748
        },
        {
          "duration": 0.32142825000000386,
          "durationTicks": 288,
          "midi": 49,
          "name": "C#3",
          "ticks": 55872,
          "time": 62.3570805,
          "velocity": 0.3937007874015748
        },
        {
          "duration": 0.32142825000000386,
          "durationTicks": 288,
          "midi": 68,
          "name": "G#4",
          "ticks": 55872,
          "time": 62.3570805,
          "velocity": 0.3937007874015748
        },
        {
          "duration": 0.32142825000000386,
          "durationTicks": 288,
          "midi": 51,
          "name": "D#3",
          "ticks": 55968,
          "time": 62.46422325,
          "velocity": 0.3937007874015748
        },
        {
          "duration": 0.32142825000000386,
          "durationTicks": 288,
          "midi": 35,
          "name": "B1",
          "ticks": 56064,
          "time": 62.571366000000005,
          "velocity": 0.3937007874015748
        },
        {
          "duration": 0.32142825000000386,
          "durationTicks": 288,
          "midi": 70,
          "name": "A#4",
          "ticks": 56064,
          "time": 62.571366000000005,
          "velocity": 0.3937007874015748
        },
        {
          "duration": 0.32142824999999675,
          "durationTicks": 288,
          "midi": 35,
          "name": "B1",
          "ticks": 56352,
          "time": 62.89279425000001,
          "velocity": 0.3937007874015748
        },
        {
          "duration": 0.32142824999999675,
          "durationTicks": 288,
          "midi": 51,
          "name": "D#3",
          "ticks": 56352,
          "time": 62.89279425000001,
          "velocity": 0.3937007874015748
        },
        {
          "duration": 0.32142825000000386,
          "durationTicks": 288,
          "midi": 35,
          "name": "B1",
          "ticks": 56448,
          "time": 62.999937,
          "velocity": 0.3937007874015748
        },
        {
          "duration": 0.32142825000000386,
          "durationTicks": 288,
          "midi": 68,
          "name": "G#4",
          "ticks": 56448,
          "time": 62.999937,
          "velocity": 0.3937007874015748
        },
        {
          "duration": 0.32142825000000386,
          "durationTicks": 288,
          "midi": 51,
          "name": "D#3",
          "ticks": 56544,
          "time": 63.107079750000004,
          "velocity": 0.3937007874015748
        },
        {
          "duration": 0.32142824999999675,
          "durationTicks": 288,
          "midi": 35,
          "name": "B1",
          "ticks": 56640,
          "time": 63.214222500000005,
          "velocity": 0.3937007874015748
        },
        {
          "duration": 0.32142824999999675,
          "durationTicks": 288,
          "midi": 49,
          "name": "C#3",
          "ticks": 56640,
          "time": 63.214222500000005,
          "velocity": 0.3937007874015748
        },
        {
          "duration": 0.32142824999999675,
          "durationTicks": 288,
          "midi": 70,
          "name": "A#4",
          "ticks": 56640,
          "time": 63.214222500000005,
          "velocity": 0.3937007874015748
        },
        {
          "duration": 0.32142824999999675,
          "durationTicks": 288,
          "midi": 51,
          "name": "D#3",
          "ticks": 56736,
          "time": 63.32136525000001,
          "velocity": 0.3937007874015748
        },
        {
          "duration": 0.32142824999999675,
          "durationTicks": 288,
          "midi": 37,
          "name": "C#2",
          "ticks": 56832,
          "time": 63.42850800000001,
          "velocity": 0.3937007874015748
        },
        {
          "duration": 0.32142824999999675,
          "durationTicks": 288,
          "midi": 73,
          "name": "C#5",
          "ticks": 56832,
          "time": 63.42850800000001,
          "velocity": 0.3937007874015748
        },
        {
          "duration": 0.32142825000000386,
          "durationTicks": 288,
          "midi": 75,
          "name": "D#5",
          "ticks": 57024,
          "time": 63.6427935,
          "velocity": 0.3937007874015748
        },
        {
          "duration": 0.32142824999999675,
          "durationTicks": 288,
          "midi": 37,
          "name": "C#2",
          "ticks": 57120,
          "time": 63.749936250000005,
          "velocity": 0.3937007874015748
        },
        {
          "duration": 0.32142824999999675,
          "durationTicks": 288,
          "midi": 51,
          "name": "D#3",
          "ticks": 57120,
          "time": 63.749936250000005,
          "velocity": 0.3937007874015748
        },
        {
          "duration": 0.32142825000000386,
          "durationTicks": 288,
          "midi": 37,
          "name": "C#2",
          "ticks": 57216,
          "time": 63.857079000000006,
          "velocity": 0.3937007874015748
        },
        {
          "duration": 0.32142825000000386,
          "durationTicks": 288,
          "midi": 70,
          "name": "A#4",
          "ticks": 57216,
          "time": 63.857079000000006,
          "velocity": 0.3937007874015748
        },
        {
          "duration": 0.32142824999999675,
          "durationTicks": 288,
          "midi": 51,
          "name": "D#3",
          "ticks": 57312,
          "time": 63.96422175000001,
          "velocity": 0.3937007874015748
        },
        {
          "duration": 0.32142825000001096,
          "durationTicks": 288,
          "midi": 37,
          "name": "C#2",
          "ticks": 57408,
          "time": 64.0713645,
          "velocity": 0.3937007874015748
        },
        {
          "duration": 0.32142825000001096,
          "durationTicks": 288,
          "midi": 49,
          "name": "C#3",
          "ticks": 57408,
          "time": 64.0713645,
          "velocity": 0.3937007874015748
        },
        {
          "duration": 0.32142825000001096,
          "durationTicks": 288,
          "midi": 68,
          "name": "G#4",
          "ticks": 57408,
          "time": 64.0713645,
          "velocity": 0.3937007874015748
        },
        {
          "duration": 0.32142824999999675,
          "durationTicks": 288,
          "midi": 51,
          "name": "D#3",
          "ticks": 57504,
          "time": 64.17850725000001,
          "velocity": 0.3937007874015748
        },
        {
          "duration": 0.32142824999999675,
          "durationTicks": 288,
          "midi": 37,
          "name": "C#2",
          "ticks": 57600,
          "time": 64.28565,
          "velocity": 0.3937007874015748
        },
        {
          "duration": 0.32142824999999675,
          "durationTicks": 288,
          "midi": 70,
          "name": "A#4",
          "ticks": 57600,
          "time": 64.28565,
          "velocity": 0.3937007874015748
        },
        {
          "duration": 0.32142825000001096,
          "durationTicks": 288,
          "midi": 37,
          "name": "C#2",
          "ticks": 57888,
          "time": 64.60707825,
          "velocity": 0.3937007874015748
        },
        {
          "duration": 0.32142825000001096,
          "durationTicks": 288,
          "midi": 51,
          "name": "D#3",
          "ticks": 57888,
          "time": 64.60707825,
          "velocity": 0.3937007874015748
        },
        {
          "duration": 0.32142824999999675,
          "durationTicks": 288,
          "midi": 37,
          "name": "C#2",
          "ticks": 57984,
          "time": 64.71422100000001,
          "velocity": 0.3937007874015748
        },
        {
          "duration": 0.32142824999999675,
          "durationTicks": 288,
          "midi": 75,
          "name": "D#5",
          "ticks": 57984,
          "time": 64.71422100000001,
          "velocity": 0.3937007874015748
        },
        {
          "duration": 0.32142824999999675,
          "durationTicks": 288,
          "midi": 87,
          "name": "D#6",
          "ticks": 57984,
          "time": 64.71422100000001,
          "velocity": 0.3937007874015748
        },
        {
          "duration": 0.32142824999999675,
          "durationTicks": 288,
          "midi": 51,
          "name": "D#3",
          "ticks": 58080,
          "time": 64.82136375,
          "velocity": 0.3937007874015748
        },
        {
          "duration": 0.32142824999999675,
          "durationTicks": 288,
          "midi": 37,
          "name": "C#2",
          "ticks": 58176,
          "time": 64.92850650000001,
          "velocity": 0.3937007874015748
        },
        {
          "duration": 0.32142824999999675,
          "durationTicks": 288,
          "midi": 49,
          "name": "C#3",
          "ticks": 58176,
          "time": 64.92850650000001,
          "velocity": 0.3937007874015748
        },
        {
          "duration": 0.32142824999999675,
          "durationTicks": 288,
          "midi": 77,
          "name": "F5",
          "ticks": 58176,
          "time": 64.92850650000001,
          "velocity": 0.3937007874015748
        },
        {
          "duration": 0.32142824999999675,
          "durationTicks": 288,
          "midi": 89,
          "name": "F6",
          "ticks": 58176,
          "time": 64.92850650000001,
          "velocity": 0.3937007874015748
        },
        {
          "duration": 0.32142824999999675,
          "durationTicks": 288,
          "midi": 51,
          "name": "D#3",
          "ticks": 58272,
          "time": 65.03564925,
          "velocity": 0.3937007874015748
        },
        {
          "duration": 0.32142825000001096,
          "durationTicks": 288,
          "midi": 39,
          "name": "D#2",
          "ticks": 58368,
          "time": 65.142792,
          "velocity": 0.3937007874015748
        },
        {
          "duration": 0.32142825000001096,
          "durationTicks": 288,
          "midi": 78,
          "name": "F#5",
          "ticks": 58368,
          "time": 65.142792,
          "velocity": 0.3937007874015748
        },
        {
          "duration": 0.32142825000001096,
          "durationTicks": 288,
          "midi": 90,
          "name": "F#6",
          "ticks": 58368,
          "time": 65.142792,
          "velocity": 0.3937007874015748
        },
        {
          "duration": 0.32142824999999675,
          "durationTicks": 288,
          "midi": 77,
          "name": "F5",
          "ticks": 58560,
          "time": 65.3570775,
          "velocity": 0.3937007874015748
        },
        {
          "duration": 0.32142824999999675,
          "durationTicks": 288,
          "midi": 89,
          "name": "F6",
          "ticks": 58560,
          "time": 65.3570775,
          "velocity": 0.3937007874015748
        },
        {
          "duration": 0.32142824999999675,
          "durationTicks": 288,
          "midi": 39,
          "name": "D#2",
          "ticks": 58656,
          "time": 65.46422025000001,
          "velocity": 0.3937007874015748
        },
        {
          "duration": 0.32142824999999675,
          "durationTicks": 288,
          "midi": 51,
          "name": "D#3",
          "ticks": 58656,
          "time": 65.46422025000001,
          "velocity": 0.3937007874015748
        },
        {
          "duration": 0.32142824999999675,
          "durationTicks": 288,
          "midi": 39,
          "name": "D#2",
          "ticks": 58752,
          "time": 65.571363,
          "velocity": 0.3937007874015748
        },
        {
          "duration": 0.32142824999999675,
          "durationTicks": 288,
          "midi": 75,
          "name": "D#5",
          "ticks": 58752,
          "time": 65.571363,
          "velocity": 0.3937007874015748
        },
        {
          "duration": 0.32142824999999675,
          "durationTicks": 288,
          "midi": 87,
          "name": "D#6",
          "ticks": 58752,
          "time": 65.571363,
          "velocity": 0.3937007874015748
        },
        {
          "duration": 0.32142825000001096,
          "durationTicks": 288,
          "midi": 51,
          "name": "D#3",
          "ticks": 58848,
          "time": 65.67850575,
          "velocity": 0.3937007874015748
        },
        {
          "duration": 0.32142824999999675,
          "durationTicks": 288,
          "midi": 39,
          "name": "D#2",
          "ticks": 58944,
          "time": 65.78564850000001,
          "velocity": 0.3937007874015748
        },
        {
          "duration": 0.32142824999999675,
          "durationTicks": 288,
          "midi": 49,
          "name": "C#3",
          "ticks": 58944,
          "time": 65.78564850000001,
          "velocity": 0.3937007874015748
        },
        {
          "duration": 0.32142824999999675,
          "durationTicks": 288,
          "midi": 73,
          "name": "C#5",
          "ticks": 58944,
          "time": 65.78564850000001,
          "velocity": 0.3937007874015748
        },
        {
          "duration": 0.32142824999999675,
          "durationTicks": 288,
          "midi": 85,
          "name": "C#6",
          "ticks": 58944,
          "time": 65.78564850000001,
          "velocity": 0.3937007874015748
        },
        {
          "duration": 0.32142824999999675,
          "durationTicks": 288,
          "midi": 51,
          "name": "D#3",
          "ticks": 59040,
          "time": 65.89279125,
          "velocity": 0.3937007874015748
        },
        {
          "duration": 0.32142824999999675,
          "durationTicks": 288,
          "midi": 39,
          "name": "D#2",
          "ticks": 59136,
          "time": 65.99993400000001,
          "velocity": 0.3937007874015748
        },
        {
          "duration": 0.32142824999999675,
          "durationTicks": 288,
          "midi": 70,
          "name": "A#4",
          "ticks": 59136,
          "time": 65.99993400000001,
          "velocity": 0.3937007874015748
        },
        {
          "duration": 0.32142824999999675,
          "durationTicks": 288,
          "midi": 82,
          "name": "A#5",
          "ticks": 59136,
          "time": 65.99993400000001,
          "velocity": 0.3937007874015748
        },
        {
          "duration": 0.32142824999999675,
          "durationTicks": 288,
          "midi": 39,
          "name": "D#2",
          "ticks": 59424,
          "time": 66.32136225,
          "velocity": 0.3937007874015748
        },
        {
          "duration": 0.32142824999999675,
          "durationTicks": 288,
          "midi": 51,
          "name": "D#3",
          "ticks": 59424,
          "time": 66.32136225,
          "velocity": 0.3937007874015748
        },
        {
          "duration": 0.32142825000001096,
          "durationTicks": 288,
          "midi": 39,
          "name": "D#2",
          "ticks": 59520,
          "time": 66.428505,
          "velocity": 0.3937007874015748
        },
        {
          "duration": 0.32142825000001096,
          "durationTicks": 288,
          "midi": 68,
          "name": "G#4",
          "ticks": 59520,
          "time": 66.428505,
          "velocity": 0.3937007874015748
        },
        {
          "duration": 0.32142825000001096,
          "durationTicks": 288,
          "midi": 80,
          "name": "G#5",
          "ticks": 59520,
          "time": 66.428505,
          "velocity": 0.3937007874015748
        },
        {
          "duration": 0.32142824999999675,
          "durationTicks": 288,
          "midi": 51,
          "name": "D#3",
          "ticks": 59616,
          "time": 66.53564775000001,
          "velocity": 0.3937007874015748
        },
        {
          "duration": 0.32142824999999675,
          "durationTicks": 288,
          "midi": 39,
          "name": "D#2",
          "ticks": 59712,
          "time": 66.6427905,
          "velocity": 0.3937007874015748
        },
        {
          "duration": 0.32142824999999675,
          "durationTicks": 288,
          "midi": 49,
          "name": "C#3",
          "ticks": 59712,
          "time": 66.6427905,
          "velocity": 0.3937007874015748
        },
        {
          "duration": 0.32142824999999675,
          "durationTicks": 288,
          "midi": 70,
          "name": "A#4",
          "ticks": 59712,
          "time": 66.6427905,
          "velocity": 0.3937007874015748
        },
        {
          "duration": 0.32142824999999675,
          "durationTicks": 288,
          "midi": 82,
          "name": "A#5",
          "ticks": 59712,
          "time": 66.6427905,
          "velocity": 0.3937007874015748
        },
        {
          "duration": 0.32142824999999675,
          "durationTicks": 288,
          "midi": 51,
          "name": "D#3",
          "ticks": 59808,
          "time": 66.74993325000001,
          "velocity": 0.3937007874015748
        },
        {
          "duration": 0.32142824999999675,
          "durationTicks": 288,
          "midi": 39,
          "name": "D#2",
          "ticks": 59904,
          "time": 66.857076,
          "velocity": 0.3937007874015748
        },
        {
          "duration": 0.32142824999999675,
          "durationTicks": 288,
          "midi": 68,
          "name": "G#4",
          "ticks": 59904,
          "time": 66.857076,
          "velocity": 0.3937007874015748
        },
        {
          "duration": 0.32142824999999675,
          "durationTicks": 288,
          "midi": 80,
          "name": "G#5",
          "ticks": 59904,
          "time": 66.857076,
          "velocity": 0.3937007874015748
        },
        {
          "duration": 0.32142824999999675,
          "durationTicks": 288,
          "midi": 66,
          "name": "F#4",
          "ticks": 60096,
          "time": 67.07136150000001,
          "velocity": 0.3937007874015748
        },
        {
          "duration": 0.32142824999999675,
          "durationTicks": 288,
          "midi": 78,
          "name": "F#5",
          "ticks": 60096,
          "time": 67.07136150000001,
          "velocity": 0.3937007874015748
        },
        {
          "duration": 0.32142824999999675,
          "durationTicks": 288,
          "midi": 39,
          "name": "D#2",
          "ticks": 60192,
          "time": 67.17850425,
          "velocity": 0.3937007874015748
        },
        {
          "duration": 0.32142824999999675,
          "durationTicks": 288,
          "midi": 51,
          "name": "D#3",
          "ticks": 60192,
          "time": 67.17850425,
          "velocity": 0.3937007874015748
        },
        {
          "duration": 0.32142824999999675,
          "durationTicks": 288,
          "midi": 39,
          "name": "D#2",
          "ticks": 60288,
          "time": 67.28564700000001,
          "velocity": 0.3937007874015748
        },
        {
          "duration": 0.32142824999999675,
          "durationTicks": 288,
          "midi": 65,
          "name": "F4",
          "ticks": 60288,
          "time": 67.28564700000001,
          "velocity": 0.3937007874015748
        },
        {
          "duration": 0.32142824999999675,
          "durationTicks": 288,
          "midi": 77,
          "name": "F5",
          "ticks": 60288,
          "time": 67.28564700000001,
          "velocity": 0.3937007874015748
        },
        {
          "duration": 0.32142824999999675,
          "durationTicks": 288,
          "midi": 51,
          "name": "D#3",
          "ticks": 60384,
          "time": 67.39278975,
          "velocity": 0.3937007874015748
        },
        {
          "duration": 0.32142825000001096,
          "durationTicks": 288,
          "midi": 39,
          "name": "D#2",
          "ticks": 60480,
          "time": 67.4999325,
          "velocity": 0.3937007874015748
        },
        {
          "duration": 0.32142825000001096,
          "durationTicks": 288,
          "midi": 49,
          "name": "C#3",
          "ticks": 60480,
          "time": 67.4999325,
          "velocity": 0.3937007874015748
        },
        {
          "duration": 0.32142825000001096,
          "durationTicks": 288,
          "midi": 61,
          "name": "C#4",
          "ticks": 60480,
          "time": 67.4999325,
          "velocity": 0.3937007874015748
        },
        {
          "duration": 0.32142825000001096,
          "durationTicks": 288,
          "midi": 73,
          "name": "C#5",
          "ticks": 60480,
          "time": 67.4999325,
          "velocity": 0.3937007874015748
        },
        {
          "duration": 0.32142824999999675,
          "durationTicks": 288,
          "midi": 51,
          "name": "D#3",
          "ticks": 60576,
          "time": 67.60707525000001,
          "velocity": 0.3937007874015748
        },
        {
          "duration": 0.32142824999999675,
          "durationTicks": 288,
          "midi": 39,
          "name": "D#2",
          "ticks": 60672,
          "time": 67.714218,
          "velocity": 0.3937007874015748
        },
        {
          "duration": 0.32142824999999675,
          "durationTicks": 288,
          "midi": 56,
          "name": "G#3",
          "ticks": 60672,
          "time": 67.714218,
          "velocity": 0.3937007874015748
        },
        {
          "duration": 0.32142824999999675,
          "durationTicks": 288,
          "midi": 63,
          "name": "D#4",
          "ticks": 60672,
          "time": 67.714218,
          "velocity": 0.3937007874015748
        },
        {
          "duration": 0.32142824999999675,
          "durationTicks": 288,
          "midi": 75,
          "name": "D#5",
          "ticks": 60672,
          "time": 67.714218,
          "velocity": 0.3937007874015748
        },
        {
          "duration": 0.32142824999999675,
          "durationTicks": 288,
          "midi": 54,
          "name": "F#3",
          "ticks": 60864,
          "time": 67.9285035,
          "velocity": 0.3937007874015748
        },
        {
          "duration": 0.32142825000001096,
          "durationTicks": 288,
          "midi": 39,
          "name": "D#2",
          "ticks": 60960,
          "time": 68.03564625,
          "velocity": 0.3937007874015748
        },
        {
          "duration": 0.32142825000001096,
          "durationTicks": 288,
          "midi": 56,
          "name": "G#3",
          "ticks": 60960,
          "time": 68.03564625,
          "velocity": 0.3937007874015748
        },
        {
          "duration": 0.32142824999999675,
          "durationTicks": 288,
          "midi": 39,
          "name": "D#2",
          "ticks": 61056,
          "time": 68.14278900000001,
          "velocity": 0.3937007874015748
        },
        {
          "duration": 0.32142824999999675,
          "durationTicks": 288,
          "midi": 54,
          "name": "F#3",
          "ticks": 61056,
          "time": 68.14278900000001,
          "velocity": 0.3937007874015748
        },
        {
          "duration": 0.32142824999999675,
          "durationTicks": 288,
          "midi": 70,
          "name": "A#4",
          "ticks": 61056,
          "time": 68.14278900000001,
          "velocity": 0.3937007874015748
        },
        {
          "duration": 0.32142824999999675,
          "durationTicks": 288,
          "midi": 39,
          "name": "D#2",
          "ticks": 61248,
          "time": 68.35707450000001,
          "velocity": 0.3937007874015748
        },
        {
          "duration": 0.32142824999999675,
          "durationTicks": 288,
          "midi": 51,
          "name": "D#3",
          "ticks": 61248,
          "time": 68.35707450000001,
          "velocity": 0.3937007874015748
        },
        {
          "duration": 0.32142824999999675,
          "durationTicks": 288,
          "midi": 73,
          "name": "C#5",
          "ticks": 61248,
          "time": 68.35707450000001,
          "velocity": 0.3937007874015748
        },
        {
          "duration": 0.32142824999999675,
          "durationTicks": 288,
          "midi": 56,
          "name": "G#3",
          "ticks": 61344,
          "time": 68.46421725,
          "velocity": 0.3937007874015748
        },
        {
          "duration": 0.32142825000001096,
          "durationTicks": 288,
          "midi": 35,
          "name": "B1",
          "ticks": 61440,
          "time": 68.57136,
          "velocity": 0.3937007874015748
        },
        {
          "duration": 0.32142825000001096,
          "durationTicks": 288,
          "midi": 73,
          "name": "C#5",
          "ticks": 61440,
          "time": 68.57136,
          "velocity": 0.3937007874015748
        },
        {
          "duration": 0.32142825000001096,
          "durationTicks": 288,
          "midi": 75,
          "name": "D#5",
          "ticks": 61632,
          "time": 68.7856455,
          "velocity": 0.3937007874015748
        },
        {
          "duration": 0.32142824999999675,
          "durationTicks": 288,
          "midi": 35,
          "name": "B1",
          "ticks": 61824,
          "time": 68.999931,
          "velocity": 0.3937007874015748
        },
        {
          "duration": 0.32142824999999675,
          "durationTicks": 288,
          "midi": 70,
          "name": "A#4",
          "ticks": 61824,
          "time": 68.999931,
          "velocity": 0.3937007874015748
        },
        {
          "duration": 0.32142824999999675,
          "durationTicks": 288,
          "midi": 35,
          "name": "B1",
          "ticks": 61920,
          "time": 69.10707375000001,
          "velocity": 0.3937007874015748
        },
        {
          "duration": 0.32142824999999675,
          "durationTicks": 288,
          "midi": 35,
          "name": "B1",
          "ticks": 62016,
          "time": 69.2142165,
          "velocity": 0.3937007874015748
        },
        {
          "duration": 0.32142824999999675,
          "durationTicks": 288,
          "midi": 68,
          "name": "G#4",
          "ticks": 62016,
          "time": 69.2142165,
          "velocity": 0.3937007874015748
        },
        {
          "duration": 0.32142824999999675,
          "durationTicks": 288,
          "midi": 35,
          "name": "B1",
          "ticks": 62208,
          "time": 69.42850200000001,
          "velocity": 0.3937007874015748
        },
        {
          "duration": 0.32142824999999675,
          "durationTicks": 288,
          "midi": 70,
          "name": "A#4",
          "ticks": 62208,
          "time": 69.42850200000001,
          "velocity": 0.3937007874015748
        },
        {
          "duration": 0.32142824999999675,
          "durationTicks": 288,
          "midi": 82,
          "name": "A#5",
          "ticks": 62208,
          "time": 69.42850200000001,
          "velocity": 0.3937007874015748
        },
        {
          "duration": 0.32142825000001096,
          "durationTicks": 288,
          "midi": 35,
          "name": "B1",
          "ticks": 62592,
          "time": 69.857073,
          "velocity": 0.3937007874015748
        },
        {
          "duration": 0.32142825000001096,
          "durationTicks": 288,
          "midi": 68,
          "name": "G#4",
          "ticks": 62592,
          "time": 69.857073,
          "velocity": 0.3937007874015748
        },
        {
          "duration": 0.32142824999999675,
          "durationTicks": 288,
          "midi": 35,
          "name": "B1",
          "ticks": 62688,
          "time": 69.96421575000001,
          "velocity": 0.3937007874015748
        },
        {
          "duration": 0.32142824999999675,
          "durationTicks": 288,
          "midi": 35,
          "name": "B1",
          "ticks": 62784,
          "time": 70.0713585,
          "velocity": 0.3937007874015748
        },
        {
          "duration": 0.32142824999999675,
          "durationTicks": 288,
          "midi": 70,
          "name": "A#4",
          "ticks": 62784,
          "time": 70.0713585,
          "velocity": 0.3937007874015748
        },
        {
          "duration": 0.32142824999999675,
          "durationTicks": 288,
          "midi": 37,
          "name": "C#2",
          "ticks": 62976,
          "time": 70.285644,
          "velocity": 0.3937007874015748
        },
        {
          "duration": 0.32142824999999675,
          "durationTicks": 288,
          "midi": 73,
          "name": "C#5",
          "ticks": 62976,
          "time": 70.285644,
          "velocity": 0.3937007874015748
        },
        {
          "duration": 0.32142824999999675,
          "durationTicks": 288,
          "midi": 75,
          "name": "D#5",
          "ticks": 63168,
          "time": 70.49992950000001,
          "velocity": 0.3937007874015748
        },
        {
          "duration": 0.32142824999999675,
          "durationTicks": 288,
          "midi": 37,
          "name": "C#2",
          "ticks": 63360,
          "time": 70.71421500000001,
          "velocity": 0.3937007874015748
        },
        {
          "duration": 0.32142824999999675,
          "durationTicks": 288,
          "midi": 70,
          "name": "A#4",
          "ticks": 63360,
          "time": 70.71421500000001,
          "velocity": 0.3937007874015748
        },
        {
          "duration": 0.32142824999999675,
          "durationTicks": 288,
          "midi": 37,
          "name": "C#2",
          "ticks": 63456,
          "time": 70.82135775,
          "velocity": 0.3937007874015748
        },
        {
          "duration": 0.32142824999999675,
          "durationTicks": 288,
          "midi": 37,
          "name": "C#2",
          "ticks": 63552,
          "time": 70.92850050000001,
          "velocity": 0.3937007874015748
        },
        {
          "duration": 0.32142824999999675,
          "durationTicks": 288,
          "midi": 68,
          "name": "G#4",
          "ticks": 63552,
          "time": 70.92850050000001,
          "velocity": 0.3937007874015748
        },
        {
          "duration": 0.32142825000001096,
          "durationTicks": 288,
          "midi": 37,
          "name": "C#2",
          "ticks": 63744,
          "time": 71.142786,
          "velocity": 0.3937007874015748
        },
        {
          "duration": 0.32142825000001096,
          "durationTicks": 288,
          "midi": 70,
          "name": "A#4",
          "ticks": 63744,
          "time": 71.142786,
          "velocity": 0.3937007874015748
        },
        {
          "duration": 0.32142825000001096,
          "durationTicks": 288,
          "midi": 82,
          "name": "A#5",
          "ticks": 63744,
          "time": 71.142786,
          "velocity": 0.3937007874015748
        },
        {
          "duration": 0.32142824999999675,
          "durationTicks": 288,
          "midi": 37,
          "name": "C#2",
          "ticks": 64128,
          "time": 71.571357,
          "velocity": 0.3937007874015748
        },
        {
          "duration": 0.32142824999999675,
          "durationTicks": 288,
          "midi": 68,
          "name": "G#4",
          "ticks": 64128,
          "time": 71.571357,
          "velocity": 0.3937007874015748
        },
        {
          "duration": 0.32142825000001096,
          "durationTicks": 288,
          "midi": 37,
          "name": "C#2",
          "ticks": 64224,
          "time": 71.67849975,
          "velocity": 0.3937007874015748
        },
        {
          "duration": 0.32142824999999675,
          "durationTicks": 288,
          "midi": 37,
          "name": "C#2",
          "ticks": 64320,
          "time": 71.78564250000001,
          "velocity": 0.3937007874015748
        },
        {
          "duration": 0.32142824999999675,
          "durationTicks": 288,
          "midi": 70,
          "name": "A#4",
          "ticks": 64320,
          "time": 71.78564250000001,
          "velocity": 0.3937007874015748
        },
        {
          "duration": 0.32142824999999675,
          "durationTicks": 288,
          "midi": 39,
          "name": "D#2",
          "ticks": 64512,
          "time": 71.99992800000001,
          "velocity": 0.3937007874015748
        },
        {
          "duration": 0.32142824999999675,
          "durationTicks": 288,
          "midi": 68,
          "name": "G#4",
          "ticks": 64512,
          "time": 71.99992800000001,
          "velocity": 0.3937007874015748
        },
        {
          "duration": 0.32142825000001096,
          "durationTicks": 288,
          "midi": 66,
          "name": "F#4",
          "ticks": 64704,
          "time": 72.2142135,
          "velocity": 0.3937007874015748
        },
        {
          "duration": 0.32142824999999675,
          "durationTicks": 288,
          "midi": 39,
          "name": "D#2",
          "ticks": 64896,
          "time": 72.428499,
          "velocity": 0.3937007874015748
        },
        {
          "duration": 0.32142824999999675,
          "durationTicks": 288,
          "midi": 65,
          "name": "F4",
          "ticks": 64896,
          "time": 72.428499,
          "velocity": 0.3937007874015748
        },
        {
          "duration": 0.32142824999999675,
          "durationTicks": 288,
          "midi": 39,
          "name": "D#2",
          "ticks": 64992,
          "time": 72.53564175000001,
          "velocity": 0.3937007874015748
        },
        {
          "duration": 0.32142824999999675,
          "durationTicks": 288,
          "midi": 39,
          "name": "D#2",
          "ticks": 65088,
          "time": 72.6427845,
          "velocity": 0.3937007874015748
        },
        {
          "duration": 0.32142824999999675,
          "durationTicks": 288,
          "midi": 61,
          "name": "C#4",
          "ticks": 65088,
          "time": 72.6427845,
          "velocity": 0.3937007874015748
        },
        {
          "duration": 0.32142824999999675,
          "durationTicks": 288,
          "midi": 39,
          "name": "D#2",
          "ticks": 65280,
          "time": 72.85707000000001,
          "velocity": 0.3937007874015748
        },
        {
          "duration": 0.32142824999999675,
          "durationTicks": 288,
          "midi": 63,
          "name": "D#4",
          "ticks": 65280,
          "time": 72.85707000000001,
          "velocity": 0.3937007874015748
        },
        {
          "duration": 0.32142824999999675,
          "durationTicks": 288,
          "midi": 82,
          "name": "A#5",
          "ticks": 65280,
          "time": 72.85707000000001,
          "velocity": 0.3937007874015748
        },
        {
          "duration": 0.32142824999999675,
          "durationTicks": 288,
          "midi": 39,
          "name": "D#2",
          "ticks": 65664,
          "time": 73.28564100000001,
          "velocity": 0.3937007874015748
        },
        {
          "duration": 0.32142824999999675,
          "durationTicks": 288,
          "midi": 61,
          "name": "C#4",
          "ticks": 65664,
          "time": 73.28564100000001,
          "velocity": 0.3937007874015748
        },
        {
          "duration": 0.32142824999999675,
          "durationTicks": 288,
          "midi": 39,
          "name": "D#2",
          "ticks": 65760,
          "time": 73.39278375,
          "velocity": 0.3937007874015748
        },
        {
          "duration": 0.32142825000001096,
          "durationTicks": 288,
          "midi": 39,
          "name": "D#2",
          "ticks": 65856,
          "time": 73.4999265,
          "velocity": 0.3937007874015748
        },
        {
          "duration": 0.32142825000001096,
          "durationTicks": 288,
          "midi": 63,
          "name": "D#4",
          "ticks": 65856,
          "time": 73.4999265,
          "velocity": 0.3937007874015748
        },
        {
          "duration": 0.32142824999999675,
          "durationTicks": 288,
          "midi": 39,
          "name": "D#2",
          "ticks": 66048,
          "time": 73.714212,
          "velocity": 0.3937007874015748
        },
        {
          "duration": 0.32142824999999675,
          "durationTicks": 288,
          "midi": 65,
          "name": "F4",
          "ticks": 66048,
          "time": 73.714212,
          "velocity": 0.3937007874015748
        },
        {
          "duration": 0.32142824999999675,
          "durationTicks": 288,
          "midi": 66,
          "name": "F#4",
          "ticks": 66240,
          "time": 73.9284975,
          "velocity": 0.3937007874015748
        },
        {
          "duration": 0.32142824999999675,
          "durationTicks": 288,
          "midi": 39,
          "name": "D#2",
          "ticks": 66432,
          "time": 74.14278300000001,
          "velocity": 0.3937007874015748
        },
        {
          "duration": 0.32142824999999675,
          "durationTicks": 288,
          "midi": 68,
          "name": "G#4",
          "ticks": 66432,
          "time": 74.14278300000001,
          "velocity": 0.3937007874015748
        },
        {
          "duration": 0.32142824999999675,
          "durationTicks": 288,
          "midi": 39,
          "name": "D#2",
          "ticks": 66528,
          "time": 74.24992575,
          "velocity": 0.3937007874015748
        },
        {
          "duration": 0.32142824999999675,
          "durationTicks": 288,
          "midi": 75,
          "name": "D#5",
          "ticks": 66528,
          "time": 74.24992575,
          "velocity": 0.3937007874015748
        },
        {
          "duration": 0.32142824999999675,
          "durationTicks": 288,
          "midi": 39,
          "name": "D#2",
          "ticks": 66624,
          "time": 74.35706850000001,
          "velocity": 0.3937007874015748
        },
        {
          "duration": 0.32142824999999675,
          "durationTicks": 288,
          "midi": 70,
          "name": "A#4",
          "ticks": 66624,
          "time": 74.35706850000001,
          "velocity": 0.3937007874015748
        },
        {
          "duration": 0.32142825000001096,
          "durationTicks": 288,
          "midi": 39,
          "name": "D#2",
          "ticks": 66816,
          "time": 74.571354,
          "velocity": 0.3937007874015748
        },
        {
          "duration": 0.32142825000001096,
          "durationTicks": 288,
          "midi": 63,
          "name": "D#4",
          "ticks": 66816,
          "time": 74.571354,
          "velocity": 0.3937007874015748
        },
        {
          "duration": 0.32142825000001096,
          "durationTicks": 288,
          "midi": 87,
          "name": "D#6",
          "ticks": 66816,
          "time": 74.571354,
          "velocity": 0.3937007874015748
        },
        {
          "duration": 0.32142824999999675,
          "durationTicks": 288,
          "midi": 82,
          "name": "A#5",
          "ticks": 66912,
          "time": 74.67849675000001,
          "velocity": 0.3937007874015748
        },
        {
          "duration": 0.32142824999999675,
          "durationTicks": 288,
          "midi": 39,
          "name": "D#2",
          "ticks": 67200,
          "time": 74.999925,
          "velocity": 0.3937007874015748
        },
        {
          "duration": 0.32142824999999675,
          "durationTicks": 288,
          "midi": 70,
          "name": "A#4",
          "ticks": 67200,
          "time": 74.999925,
          "velocity": 0.3937007874015748
        },
        {
          "duration": 0.32142824999999675,
          "durationTicks": 288,
          "midi": 39,
          "name": "D#2",
          "ticks": 67296,
          "time": 75.10706775000001,
          "velocity": 0.3937007874015748
        },
        {
          "duration": 0.32142824999999675,
          "durationTicks": 288,
          "midi": 39,
          "name": "D#2",
          "ticks": 67392,
          "time": 75.21421050000001,
          "velocity": 0.3937007874015748
        },
        {
          "duration": 0.32142824999999675,
          "durationTicks": 288,
          "midi": 73,
          "name": "C#5",
          "ticks": 67392,
          "time": 75.21421050000001,
          "velocity": 0.3937007874015748
        },
        {
          "duration": 0.32142824999999675,
          "durationTicks": 288,
          "midi": 35,
          "name": "B1",
          "ticks": 67584,
          "time": 75.42849600000001,
          "velocity": 0.3937007874015748
        },
        {
          "duration": 0.32142824999999675,
          "durationTicks": 288,
          "midi": 73,
          "name": "C#5",
          "ticks": 67584,
          "time": 75.42849600000001,
          "velocity": 0.3937007874015748
        },
        {
          "duration": 0.32142824999999675,
          "durationTicks": 288,
          "midi": 75,
          "name": "D#5",
          "ticks": 67776,
          "time": 75.64278150000001,
          "velocity": 0.3937007874015748
        },
        {
          "duration": 0.32142825000001096,
          "durationTicks": 288,
          "midi": 35,
          "name": "B1",
          "ticks": 67968,
          "time": 75.857067,
          "velocity": 0.3937007874015748
        },
        {
          "duration": 0.32142825000001096,
          "durationTicks": 288,
          "midi": 70,
          "name": "A#4",
          "ticks": 67968,
          "time": 75.857067,
          "velocity": 0.3937007874015748
        },
        {
          "duration": 0.32142824999999675,
          "durationTicks": 288,
          "midi": 35,
          "name": "B1",
          "ticks": 68064,
          "time": 75.96420975000001,
          "velocity": 0.3937007874015748
        },
        {
          "duration": 0.32142824999999675,
          "durationTicks": 288,
          "midi": 35,
          "name": "B1",
          "ticks": 68160,
          "time": 76.0713525,
          "velocity": 0.3937007874015748
        },
        {
          "duration": 0.32142824999999675,
          "durationTicks": 288,
          "midi": 68,
          "name": "G#4",
          "ticks": 68160,
          "time": 76.0713525,
          "velocity": 0.3937007874015748
        },
        {
          "duration": 0.32142824999999675,
          "durationTicks": 288,
          "midi": 35,
          "name": "B1",
          "ticks": 68352,
          "time": 76.285638,
          "velocity": 0.3937007874015748
        },
        {
          "duration": 0.32142824999999675,
          "durationTicks": 288,
          "midi": 70,
          "name": "A#4",
          "ticks": 68352,
          "time": 76.285638,
          "velocity": 0.3937007874015748
        },
        {
          "duration": 0.32142824999999675,
          "durationTicks": 288,
          "midi": 82,
          "name": "A#5",
          "ticks": 68352,
          "time": 76.285638,
          "velocity": 0.3937007874015748
        },
        {
          "duration": 0.32142824999999675,
          "durationTicks": 288,
          "midi": 35,
          "name": "B1",
          "ticks": 68736,
          "time": 76.71420900000001,
          "velocity": 0.3937007874015748
        },
        {
          "duration": 0.32142824999999675,
          "durationTicks": 288,
          "midi": 68,
          "name": "G#4",
          "ticks": 68736,
          "time": 76.71420900000001,
          "velocity": 0.3937007874015748
        },
        {
          "duration": 0.32142824999999675,
          "durationTicks": 288,
          "midi": 35,
          "name": "B1",
          "ticks": 68832,
          "time": 76.82135175,
          "velocity": 0.3937007874015748
        },
        {
          "duration": 0.32142825000001096,
          "durationTicks": 288,
          "midi": 35,
          "name": "B1",
          "ticks": 68928,
          "time": 76.9284945,
          "velocity": 0.3937007874015748
        },
        {
          "duration": 0.32142825000001096,
          "durationTicks": 288,
          "midi": 70,
          "name": "A#4",
          "ticks": 68928,
          "time": 76.9284945,
          "velocity": 0.3937007874015748
        },
        {
          "duration": 0.32142825000001096,
          "durationTicks": 288,
          "midi": 37,
          "name": "C#2",
          "ticks": 69120,
          "time": 77.14278,
          "velocity": 0.3937007874015748
        },
        {
          "duration": 0.32142825000001096,
          "durationTicks": 288,
          "midi": 73,
          "name": "C#5",
          "ticks": 69120,
          "time": 77.14278,
          "velocity": 0.3937007874015748
        },
        {
          "duration": 0.32142824999999675,
          "durationTicks": 288,
          "midi": 75,
          "name": "D#5",
          "ticks": 69312,
          "time": 77.3570655,
          "velocity": 0.3937007874015748
        },
        {
          "duration": 0.32142824999999675,
          "durationTicks": 288,
          "midi": 37,
          "name": "C#2",
          "ticks": 69504,
          "time": 77.571351,
          "velocity": 0.3937007874015748
        },
        {
          "duration": 0.32142824999999675,
          "durationTicks": 288,
          "midi": 70,
          "name": "A#4",
          "ticks": 69504,
          "time": 77.571351,
          "velocity": 0.3937007874015748
        },
        {
          "duration": 0.32142825000001096,
          "durationTicks": 288,
          "midi": 37,
          "name": "C#2",
          "ticks": 69600,
          "time": 77.67849375,
          "velocity": 0.3937007874015748
        },
        {
          "duration": 0.32142824999999675,
          "durationTicks": 288,
          "midi": 37,
          "name": "C#2",
          "ticks": 69696,
          "time": 77.78563650000001,
          "velocity": 0.3937007874015748
        },
        {
          "duration": 0.32142824999999675,
          "durationTicks": 288,
          "midi": 68,
          "name": "G#4",
          "ticks": 69696,
          "time": 77.78563650000001,
          "velocity": 0.3937007874015748
        },
        {
          "duration": 0.32142824999999675,
          "durationTicks": 288,
          "midi": 37,
          "name": "C#2",
          "ticks": 69888,
          "time": 77.99992200000001,
          "velocity": 0.3937007874015748
        },
        {
          "duration": 0.32142824999999675,
          "durationTicks": 288,
          "midi": 70,
          "name": "A#4",
          "ticks": 69888,
          "time": 77.99992200000001,
          "velocity": 0.3937007874015748
        },
        {
          "duration": 0.32142824999999675,
          "durationTicks": 288,
          "midi": 82,
          "name": "A#5",
          "ticks": 69888,
          "time": 77.99992200000001,
          "velocity": 0.3937007874015748
        },
        {
          "duration": 0.32142824999999675,
          "durationTicks": 288,
          "midi": 37,
          "name": "C#2",
          "ticks": 70272,
          "time": 78.428493,
          "velocity": 0.3937007874015748
        },
        {
          "duration": 0.32142824999999675,
          "durationTicks": 288,
          "midi": 68,
          "name": "G#4",
          "ticks": 70272,
          "time": 78.428493,
          "velocity": 0.3937007874015748
        },
        {
          "duration": 0.32142824999999675,
          "durationTicks": 288,
          "midi": 37,
          "name": "C#2",
          "ticks": 70368,
          "time": 78.53563575000001,
          "velocity": 0.3937007874015748
        },
        {
          "duration": 0.32142824999999675,
          "durationTicks": 288,
          "midi": 37,
          "name": "C#2",
          "ticks": 70464,
          "time": 78.6427785,
          "velocity": 0.3937007874015748
        },
        {
          "duration": 0.32142824999999675,
          "durationTicks": 288,
          "midi": 70,
          "name": "A#4",
          "ticks": 70464,
          "time": 78.6427785,
          "velocity": 0.3937007874015748
        },
        {
          "duration": 0.32142824999999675,
          "durationTicks": 288,
          "midi": 39,
          "name": "D#2",
          "ticks": 70656,
          "time": 78.85706400000001,
          "velocity": 0.3937007874015748
        },
        {
          "duration": 0.32142824999999675,
          "durationTicks": 288,
          "midi": 68,
          "name": "G#4",
          "ticks": 70656,
          "time": 78.85706400000001,
          "velocity": 0.3937007874015748
        },
        {
          "duration": 0.32142824999999675,
          "durationTicks": 288,
          "midi": 66,
          "name": "F#4",
          "ticks": 70848,
          "time": 79.07134950000001,
          "velocity": 0.3937007874015748
        },
        {
          "duration": 0.32142824999999675,
          "durationTicks": 288,
          "midi": 39,
          "name": "D#2",
          "ticks": 71040,
          "time": 79.28563500000001,
          "velocity": 0.3937007874015748
        },
        {
          "duration": 0.32142824999999675,
          "durationTicks": 288,
          "midi": 65,
          "name": "F4",
          "ticks": 71040,
          "time": 79.28563500000001,
          "velocity": 0.3937007874015748
        },
        {
          "duration": 0.32142824999999675,
          "durationTicks": 288,
          "midi": 39,
          "name": "D#2",
          "ticks": 71136,
          "time": 79.39277775000001,
          "velocity": 0.3937007874015748
        },
        {
          "duration": 0.32142825000001096,
          "durationTicks": 288,
          "midi": 39,
          "name": "D#2",
          "ticks": 71232,
          "time": 79.4999205,
          "velocity": 0.3937007874015748
        },
        {
          "duration": 0.32142825000001096,
          "durationTicks": 288,
          "midi": 61,
          "name": "C#4",
          "ticks": 71232,
          "time": 79.4999205,
          "velocity": 0.3937007874015748
        },
        {
          "duration": 0.32142824999999675,
          "durationTicks": 288,
          "midi": 39,
          "name": "D#2",
          "ticks": 71424,
          "time": 79.714206,
          "velocity": 0.3937007874015748
        },
        {
          "duration": 0.32142824999999675,
          "durationTicks": 288,
          "midi": 63,
          "name": "D#4",
          "ticks": 71424,
          "time": 79.714206,
          "velocity": 0.3937007874015748
        },
        {
          "duration": 0.32142824999999675,
          "durationTicks": 288,
          "midi": 82,
          "name": "A#5",
          "ticks": 71424,
          "time": 79.714206,
          "velocity": 0.3937007874015748
        },
        {
          "duration": 0.32142824999999675,
          "durationTicks": 288,
          "midi": 39,
          "name": "D#2",
          "ticks": 71808,
          "time": 80.14277700000001,
          "velocity": 0.3937007874015748
        },
        {
          "duration": 0.32142824999999675,
          "durationTicks": 288,
          "midi": 61,
          "name": "C#4",
          "ticks": 71808,
          "time": 80.14277700000001,
          "velocity": 0.3937007874015748
        },
        {
          "duration": 0.32142824999999675,
          "durationTicks": 288,
          "midi": 39,
          "name": "D#2",
          "ticks": 71904,
          "time": 80.24991975,
          "velocity": 0.3937007874015748
        },
        {
          "duration": 0.32142824999999675,
          "durationTicks": 288,
          "midi": 39,
          "name": "D#2",
          "ticks": 72000,
          "time": 80.35706250000001,
          "velocity": 0.3937007874015748
        },
        {
          "duration": 0.32142824999999675,
          "durationTicks": 288,
          "midi": 63,
          "name": "D#4",
          "ticks": 72000,
          "time": 80.35706250000001,
          "velocity": 0.3937007874015748
        },
        {
          "duration": 0.32142825000001096,
          "durationTicks": 288,
          "midi": 39,
          "name": "D#2",
          "ticks": 72192,
          "time": 80.571348,
          "velocity": 0.3937007874015748
        },
        {
          "duration": 0.32142825000001096,
          "durationTicks": 288,
          "midi": 65,
          "name": "F4",
          "ticks": 72192,
          "time": 80.571348,
          "velocity": 0.3937007874015748
        },
        {
          "duration": 0.32142824999999675,
          "durationTicks": 288,
          "midi": 66,
          "name": "F#4",
          "ticks": 72384,
          "time": 80.7856335,
          "velocity": 0.3937007874015748
        },
        {
          "duration": 0.32142824999999675,
          "durationTicks": 288,
          "midi": 39,
          "name": "D#2",
          "ticks": 72576,
          "time": 80.999919,
          "velocity": 0.3937007874015748
        },
        {
          "duration": 0.32142824999999675,
          "durationTicks": 288,
          "midi": 68,
          "name": "G#4",
          "ticks": 72576,
          "time": 80.999919,
          "velocity": 0.3937007874015748
        },
        {
          "duration": 0.32142825000001096,
          "durationTicks": 288,
          "midi": 39,
          "name": "D#2",
          "ticks": 72672,
          "time": 81.10706175,
          "velocity": 0.3937007874015748
        },
        {
          "duration": 0.32142825000001096,
          "durationTicks": 288,
          "midi": 75,
          "name": "D#5",
          "ticks": 72672,
          "time": 81.10706175,
          "velocity": 0.3937007874015748
        },
        {
          "duration": 0.32142824999999675,
          "durationTicks": 288,
          "midi": 39,
          "name": "D#2",
          "ticks": 72768,
          "time": 81.21420450000001,
          "velocity": 0.3937007874015748
        },
        {
          "duration": 0.32142824999999675,
          "durationTicks": 288,
          "midi": 70,
          "name": "A#4",
          "ticks": 72768,
          "time": 81.21420450000001,
          "velocity": 0.3937007874015748
        },
        {
          "duration": 0.32142824999999675,
          "durationTicks": 288,
          "midi": 39,
          "name": "D#2",
          "ticks": 72960,
          "time": 81.42849000000001,
          "velocity": 0.3937007874015748
        },
        {
          "duration": 0.32142824999999675,
          "durationTicks": 288,
          "midi": 63,
          "name": "D#4",
          "ticks": 72960,
          "time": 81.42849000000001,
          "velocity": 0.3937007874015748
        },
        {
          "duration": 0.32142824999999675,
          "durationTicks": 288,
          "midi": 87,
          "name": "D#6",
          "ticks": 72960,
          "time": 81.42849000000001,
          "velocity": 0.3937007874015748
        },
        {
          "duration": 0.32142824999999675,
          "durationTicks": 288,
          "midi": 82,
          "name": "A#5",
          "ticks": 73056,
          "time": 81.53563275,
          "velocity": 0.3937007874015748
        },
        {
          "duration": 0.32142825000001096,
          "durationTicks": 288,
          "midi": 39,
          "name": "D#2",
          "ticks": 73344,
          "time": 81.857061,
          "velocity": 0.3937007874015748
        },
        {
          "duration": 0.32142825000001096,
          "durationTicks": 288,
          "midi": 70,
          "name": "A#4",
          "ticks": 73344,
          "time": 81.857061,
          "velocity": 0.3937007874015748
        },
        {
          "duration": 0.32142824999999675,
          "durationTicks": 288,
          "midi": 39,
          "name": "D#2",
          "ticks": 73440,
          "time": 81.96420375000001,
          "velocity": 0.3937007874015748
        },
        {
          "duration": 0.32142824999999675,
          "durationTicks": 288,
          "midi": 39,
          "name": "D#2",
          "ticks": 73536,
          "time": 82.0713465,
          "velocity": 0.3937007874015748
        },
        {
          "duration": 0.32142824999999675,
          "durationTicks": 288,
          "midi": 73,
          "name": "C#5",
          "ticks": 73536,
          "time": 82.0713465,
          "velocity": 0.3937007874015748
        },
        {
          "duration": 0.32142824999999675,
          "durationTicks": 288,
          "midi": 35,
          "name": "B1",
          "ticks": 73728,
          "time": 82.285632,
          "velocity": 0.3937007874015748
        },
        {
          "duration": 0.32142824999999675,
          "durationTicks": 288,
          "midi": 73,
          "name": "C#5",
          "ticks": 73728,
          "time": 82.285632,
          "velocity": 0.3937007874015748
        },
        {
          "duration": 0.32142824999999675,
          "durationTicks": 288,
          "midi": 47,
          "name": "B2",
          "ticks": 73728,
          "time": 82.285632,
          "velocity": 0.3937007874015748
        },
        {
          "duration": 0.32142824999999675,
          "durationTicks": 288,
          "midi": 75,
          "name": "D#5",
          "ticks": 73920,
          "time": 82.49991750000001,
          "velocity": 0.3937007874015748
        },
        {
          "duration": 0.32142824999999675,
          "durationTicks": 288,
          "midi": 35,
          "name": "B1",
          "ticks": 74112,
          "time": 82.71420300000001,
          "velocity": 0.3937007874015748
        },
        {
          "duration": 0.32142824999999675,
          "durationTicks": 288,
          "midi": 70,
          "name": "A#4",
          "ticks": 74112,
          "time": 82.71420300000001,
          "velocity": 0.3937007874015748
        },
        {
          "duration": 0.32142824999999675,
          "durationTicks": 288,
          "midi": 47,
          "name": "B2",
          "ticks": 74112,
          "time": 82.71420300000001,
          "velocity": 0.3937007874015748
        },
        {
          "duration": 0.32142824999999675,
          "durationTicks": 288,
          "midi": 35,
          "name": "B1",
          "ticks": 74208,
          "time": 82.82134575,
          "velocity": 0.3937007874015748
        },
        {
          "duration": 0.32142825000001096,
          "durationTicks": 288,
          "midi": 35,
          "name": "B1",
          "ticks": 74304,
          "time": 82.9284885,
          "velocity": 0.3937007874015748
        },
        {
          "duration": 0.32142825000001096,
          "durationTicks": 288,
          "midi": 68,
          "name": "G#4",
          "ticks": 74304,
          "time": 82.9284885,
          "velocity": 0.3937007874015748
        },
        {
          "duration": 0.32142825000001096,
          "durationTicks": 288,
          "midi": 35,
          "name": "B1",
          "ticks": 74496,
          "time": 83.142774,
          "velocity": 0.3937007874015748
        },
        {
          "duration": 0.32142825000001096,
          "durationTicks": 288,
          "midi": 70,
          "name": "A#4",
          "ticks": 74496,
          "time": 83.142774,
          "velocity": 0.3937007874015748
        },
        {
          "duration": 0.32142825000001096,
          "durationTicks": 288,
          "midi": 47,
          "name": "B2",
          "ticks": 74496,
          "time": 83.142774,
          "velocity": 0.3937007874015748
        },
        {
          "duration": 0.32142825000001096,
          "durationTicks": 288,
          "midi": 82,
          "name": "A#5",
          "ticks": 74496,
          "time": 83.142774,
          "velocity": 0.3937007874015748
        },
        {
          "duration": 0.32142824999999675,
          "durationTicks": 288,
          "midi": 35,
          "name": "B1",
          "ticks": 74880,
          "time": 83.57134500000001,
          "velocity": 0.3937007874015748
        },
        {
          "duration": 0.32142824999999675,
          "durationTicks": 288,
          "midi": 68,
          "name": "G#4",
          "ticks": 74880,
          "time": 83.57134500000001,
          "velocity": 0.3937007874015748
        },
        {
          "duration": 0.32142824999999675,
          "durationTicks": 288,
          "midi": 47,
          "name": "B2",
          "ticks": 74880,
          "time": 83.57134500000001,
          "velocity": 0.3937007874015748
        },
        {
          "duration": 0.32142825000001096,
          "durationTicks": 288,
          "midi": 35,
          "name": "B1",
          "ticks": 74976,
          "time": 83.67848775,
          "velocity": 0.3937007874015748
        },
        {
          "duration": 0.32142824999999675,
          "durationTicks": 288,
          "midi": 35,
          "name": "B1",
          "ticks": 75072,
          "time": 83.78563050000001,
          "velocity": 0.3937007874015748
        },
        {
          "duration": 0.32142824999999675,
          "durationTicks": 288,
          "midi": 70,
          "name": "A#4",
          "ticks": 75072,
          "time": 83.78563050000001,
          "velocity": 0.3937007874015748
        },
        {
          "duration": 0.32142824999999675,
          "durationTicks": 288,
          "midi": 37,
          "name": "C#2",
          "ticks": 75264,
          "time": 83.99991600000001,
          "velocity": 0.3937007874015748
        },
        {
          "duration": 0.32142824999999675,
          "durationTicks": 288,
          "midi": 73,
          "name": "C#5",
          "ticks": 75264,
          "time": 83.99991600000001,
          "velocity": 0.3937007874015748
        },
        {
          "duration": 0.32142824999999675,
          "durationTicks": 288,
          "midi": 49,
          "name": "C#3",
          "ticks": 75264,
          "time": 83.99991600000001,
          "velocity": 0.3937007874015748
        },
        {
          "duration": 0.32142825000001096,
          "durationTicks": 288,
          "midi": 75,
          "name": "D#5",
          "ticks": 75456,
          "time": 84.2142015,
          "velocity": 0.3937007874015748
        },
        {
          "duration": 0.32142824999999675,
          "durationTicks": 288,
          "midi": 37,
          "name": "C#2",
          "ticks": 75648,
          "time": 84.428487,
          "velocity": 0.3937007874015748
        },
        {
          "duration": 0.32142824999999675,
          "durationTicks": 288,
          "midi": 70,
          "name": "A#4",
          "ticks": 75648,
          "time": 84.428487,
          "velocity": 0.3937007874015748
        },
        {
          "duration": 0.32142824999999675,
          "durationTicks": 288,
          "midi": 49,
          "name": "C#3",
          "ticks": 75648,
          "time": 84.428487,
          "velocity": 0.3937007874015748
        },
        {
          "duration": 0.32142824999999675,
          "durationTicks": 288,
          "midi": 37,
          "name": "C#2",
          "ticks": 75744,
          "time": 84.53562975000001,
          "velocity": 0.3937007874015748
        },
        {
          "duration": 0.32142824999999675,
          "durationTicks": 288,
          "midi": 37,
          "name": "C#2",
          "ticks": 75840,
          "time": 84.6427725,
          "velocity": 0.3937007874015748
        },
        {
          "duration": 0.32142824999999675,
          "durationTicks": 288,
          "midi": 68,
          "name": "G#4",
          "ticks": 75840,
          "time": 84.6427725,
          "velocity": 0.3937007874015748
        },
        {
          "duration": 0.32142824999999675,
          "durationTicks": 288,
          "midi": 37,
          "name": "C#2",
          "ticks": 76032,
          "time": 84.85705800000001,
          "velocity": 0.3937007874015748
        },
        {
          "duration": 0.32142824999999675,
          "durationTicks": 288,
          "midi": 70,
          "name": "A#4",
          "ticks": 76032,
          "time": 84.85705800000001,
          "velocity": 0.3937007874015748
        },
        {
          "duration": 0.32142824999999675,
          "durationTicks": 288,
          "midi": 49,
          "name": "C#3",
          "ticks": 76032,
          "time": 84.85705800000001,
          "velocity": 0.3937007874015748
        },
        {
          "duration": 0.32142824999999675,
          "durationTicks": 288,
          "midi": 82,
          "name": "A#5",
          "ticks": 76032,
          "time": 84.85705800000001,
          "velocity": 0.3937007874015748
        },
        {
          "duration": 0.32142825000001096,
          "durationTicks": 288,
          "midi": 37,
          "name": "C#2",
          "ticks": 76416,
          "time": 85.285629,
          "velocity": 0.3937007874015748
        },
        {
          "duration": 0.32142825000001096,
          "durationTicks": 288,
          "midi": 68,
          "name": "G#4",
          "ticks": 76416,
          "time": 85.285629,
          "velocity": 0.3937007874015748
        },
        {
          "duration": 0.32142825000001096,
          "durationTicks": 288,
          "midi": 49,
          "name": "C#3",
          "ticks": 76416,
          "time": 85.285629,
          "velocity": 0.3937007874015748
        },
        {
          "duration": 0.32142824999999675,
          "durationTicks": 288,
          "midi": 37,
          "name": "C#2",
          "ticks": 76512,
          "time": 85.39277175000001,
          "velocity": 0.3937007874015748
        },
        {
          "duration": 0.32142825000001096,
          "durationTicks": 288,
          "midi": 37,
          "name": "C#2",
          "ticks": 76608,
          "time": 85.4999145,
          "velocity": 0.3937007874015748
        },
        {
          "duration": 0.32142825000001096,
          "durationTicks": 288,
          "midi": 70,
          "name": "A#4",
          "ticks": 76608,
          "time": 85.4999145,
          "velocity": 0.3937007874015748
        },
        {
          "duration": 0.32142824999999675,
          "durationTicks": 288,
          "midi": 39,
          "name": "D#2",
          "ticks": 76800,
          "time": 85.7142,
          "velocity": 0.3937007874015748
        },
        {
          "duration": 0.32142824999999675,
          "durationTicks": 288,
          "midi": 68,
          "name": "G#4",
          "ticks": 76800,
          "time": 85.7142,
          "velocity": 0.3937007874015748
        },
        {
          "duration": 0.32142824999999675,
          "durationTicks": 288,
          "midi": 51,
          "name": "D#3",
          "ticks": 76800,
          "time": 85.7142,
          "velocity": 0.3937007874015748
        },
        {
          "duration": 0.32142824999999675,
          "durationTicks": 288,
          "midi": 66,
          "name": "F#4",
          "ticks": 76992,
          "time": 85.92848550000001,
          "velocity": 0.3937007874015748
        },
        {
          "duration": 0.32142824999999675,
          "durationTicks": 288,
          "midi": 39,
          "name": "D#2",
          "ticks": 77184,
          "time": 86.14277100000001,
          "velocity": 0.3937007874015748
        },
        {
          "duration": 0.32142824999999675,
          "durationTicks": 288,
          "midi": 65,
          "name": "F4",
          "ticks": 77184,
          "time": 86.14277100000001,
          "velocity": 0.3937007874015748
        },
        {
          "duration": 0.32142824999999675,
          "durationTicks": 288,
          "midi": 51,
          "name": "D#3",
          "ticks": 77184,
          "time": 86.14277100000001,
          "velocity": 0.3937007874015748
        },
        {
          "duration": 0.32142824999999675,
          "durationTicks": 288,
          "midi": 39,
          "name": "D#2",
          "ticks": 77280,
          "time": 86.24991375,
          "velocity": 0.3937007874015748
        },
        {
          "duration": 0.32142824999999675,
          "durationTicks": 288,
          "midi": 39,
          "name": "D#2",
          "ticks": 77376,
          "time": 86.35705650000001,
          "velocity": 0.3937007874015748
        },
        {
          "duration": 0.32142824999999675,
          "durationTicks": 288,
          "midi": 61,
          "name": "C#4",
          "ticks": 77376,
          "time": 86.35705650000001,
          "velocity": 0.3937007874015748
        },
        {
          "duration": 0.32142825000001096,
          "durationTicks": 288,
          "midi": 39,
          "name": "D#2",
          "ticks": 77568,
          "time": 86.571342,
          "velocity": 0.3937007874015748
        },
        {
          "duration": 0.32142825000001096,
          "durationTicks": 288,
          "midi": 63,
          "name": "D#4",
          "ticks": 77568,
          "time": 86.571342,
          "velocity": 0.3937007874015748
        },
        {
          "duration": 0.32142825000001096,
          "durationTicks": 288,
          "midi": 51,
          "name": "D#3",
          "ticks": 77568,
          "time": 86.571342,
          "velocity": 0.3937007874015748
        },
        {
          "duration": 0.32142825000001096,
          "durationTicks": 288,
          "midi": 82,
          "name": "A#5",
          "ticks": 77568,
          "time": 86.571342,
          "velocity": 0.3937007874015748
        },
        {
          "duration": 0.32142824999999675,
          "durationTicks": 288,
          "midi": 39,
          "name": "D#2",
          "ticks": 77952,
          "time": 86.999913,
          "velocity": 0.3937007874015748
        },
        {
          "duration": 0.32142824999999675,
          "durationTicks": 288,
          "midi": 61,
          "name": "C#4",
          "ticks": 77952,
          "time": 86.999913,
          "velocity": 0.3937007874015748
        },
        {
          "duration": 0.32142824999999675,
          "durationTicks": 288,
          "midi": 51,
          "name": "D#3",
          "ticks": 77952,
          "time": 86.999913,
          "velocity": 0.3937007874015748
        },
        {
          "duration": 0.32142825000001096,
          "durationTicks": 288,
          "midi": 39,
          "name": "D#2",
          "ticks": 78048,
          "time": 87.10705575,
          "velocity": 0.3937007874015748
        },
        {
          "duration": 0.32142824999999675,
          "durationTicks": 288,
          "midi": 39,
          "name": "D#2",
          "ticks": 78144,
          "time": 87.21419850000001,
          "velocity": 0.3937007874015748
        },
        {
          "duration": 0.32142824999999675,
          "durationTicks": 288,
          "midi": 63,
          "name": "D#4",
          "ticks": 78144,
          "time": 87.21419850000001,
          "velocity": 0.3937007874015748
        },
        {
          "duration": 0.32142824999999675,
          "durationTicks": 288,
          "midi": 39,
          "name": "D#2",
          "ticks": 78336,
          "time": 87.42848400000001,
          "velocity": 0.3937007874015748
        },
        {
          "duration": 0.32142824999999675,
          "durationTicks": 288,
          "midi": 65,
          "name": "F4",
          "ticks": 78336,
          "time": 87.42848400000001,
          "velocity": 0.3937007874015748
        },
        {
          "duration": 0.32142824999999675,
          "durationTicks": 288,
          "midi": 51,
          "name": "D#3",
          "ticks": 78336,
          "time": 87.42848400000001,
          "velocity": 0.3937007874015748
        },
        {
          "duration": 0.32142824999999675,
          "durationTicks": 288,
          "midi": 66,
          "name": "F#4",
          "ticks": 78528,
          "time": 87.64276950000001,
          "velocity": 0.3937007874015748
        },
        {
          "duration": 0.32142825000001096,
          "durationTicks": 288,
          "midi": 39,
          "name": "D#2",
          "ticks": 78720,
          "time": 87.857055,
          "velocity": 0.3937007874015748
        },
        {
          "duration": 0.32142825000001096,
          "durationTicks": 288,
          "midi": 68,
          "name": "G#4",
          "ticks": 78720,
          "time": 87.857055,
          "velocity": 0.3937007874015748
        },
        {
          "duration": 0.32142825000001096,
          "durationTicks": 288,
          "midi": 51,
          "name": "D#3",
          "ticks": 78720,
          "time": 87.857055,
          "velocity": 0.3937007874015748
        },
        {
          "duration": 0.32142824999999675,
          "durationTicks": 288,
          "midi": 39,
          "name": "D#2",
          "ticks": 78816,
          "time": 87.96419775000001,
          "velocity": 0.3937007874015748
        },
        {
          "duration": 0.32142824999999675,
          "durationTicks": 288,
          "midi": 75,
          "name": "D#5",
          "ticks": 78816,
          "time": 87.96419775000001,
          "velocity": 0.3937007874015748
        },
        {
          "duration": 0.32142824999999675,
          "durationTicks": 288,
          "midi": 39,
          "name": "D#2",
          "ticks": 78912,
          "time": 88.0713405,
          "velocity": 0.3937007874015748
        },
        {
          "duration": 0.32142824999999675,
          "durationTicks": 288,
          "midi": 70,
          "name": "A#4",
          "ticks": 78912,
          "time": 88.0713405,
          "velocity": 0.3937007874015748
        },
        {
          "duration": 0.32142824999999675,
          "durationTicks": 288,
          "midi": 39,
          "name": "D#2",
          "ticks": 79104,
          "time": 88.28562600000001,
          "velocity": 0.3937007874015748
        },
        {
          "duration": 0.32142824999999675,
          "durationTicks": 288,
          "midi": 63,
          "name": "D#4",
          "ticks": 79104,
          "time": 88.28562600000001,
          "velocity": 0.3937007874015748
        },
        {
          "duration": 0.32142824999999675,
          "durationTicks": 288,
          "midi": 51,
          "name": "D#3",
          "ticks": 79104,
          "time": 88.28562600000001,
          "velocity": 0.3937007874015748
        },
        {
          "duration": 0.32142824999999675,
          "durationTicks": 288,
          "midi": 87,
          "name": "D#6",
          "ticks": 79104,
          "time": 88.28562600000001,
          "velocity": 0.3937007874015748
        },
        {
          "duration": 0.32142825000001096,
          "durationTicks": 288,
          "midi": 82,
          "name": "A#5",
          "ticks": 79200,
          "time": 88.39276875,
          "velocity": 0.3937007874015748
        },
        {
          "duration": 0.32142824999999675,
          "durationTicks": 288,
          "midi": 39,
          "name": "D#2",
          "ticks": 79488,
          "time": 88.71419700000001,
          "velocity": 0.3937007874015748
        },
        {
          "duration": 0.32142824999999675,
          "durationTicks": 288,
          "midi": 70,
          "name": "A#4",
          "ticks": 79488,
          "time": 88.71419700000001,
          "velocity": 0.3937007874015748
        },
        {
          "duration": 0.32142824999999675,
          "durationTicks": 288,
          "midi": 51,
          "name": "D#3",
          "ticks": 79488,
          "time": 88.71419700000001,
          "velocity": 0.3937007874015748
        },
        {
          "duration": 0.32142824999999675,
          "durationTicks": 288,
          "midi": 39,
          "name": "D#2",
          "ticks": 79584,
          "time": 88.82133975,
          "velocity": 0.3937007874015748
        },
        {
          "duration": 0.32142825000001096,
          "durationTicks": 288,
          "midi": 39,
          "name": "D#2",
          "ticks": 79680,
          "time": 88.9284825,
          "velocity": 0.3937007874015748
        },
        {
          "duration": 0.32142825000001096,
          "durationTicks": 288,
          "midi": 73,
          "name": "C#5",
          "ticks": 79680,
          "time": 88.9284825,
          "velocity": 0.3937007874015748
        },
        {
          "duration": 0.32142824999999675,
          "durationTicks": 288,
          "midi": 35,
          "name": "B1",
          "ticks": 79872,
          "time": 89.142768,
          "velocity": 0.3937007874015748
        },
        {
          "duration": 0.32142824999999675,
          "durationTicks": 288,
          "midi": 73,
          "name": "C#5",
          "ticks": 79872,
          "time": 89.142768,
          "velocity": 0.3937007874015748
        },
        {
          "duration": 0.32142824999999675,
          "durationTicks": 288,
          "midi": 47,
          "name": "B2",
          "ticks": 79872,
          "time": 89.142768,
          "velocity": 0.3937007874015748
        },
        {
          "duration": 0.32142824999999675,
          "durationTicks": 288,
          "midi": 75,
          "name": "D#5",
          "ticks": 80064,
          "time": 89.3570535,
          "velocity": 0.3937007874015748
        },
        {
          "duration": 0.32142824999999675,
          "durationTicks": 288,
          "midi": 47,
          "name": "B2",
          "ticks": 80064,
          "time": 89.3570535,
          "velocity": 0.3937007874015748
        },
        {
          "duration": 0.32142824999999675,
          "durationTicks": 288,
          "midi": 35,
          "name": "B1",
          "ticks": 80256,
          "time": 89.57133900000001,
          "velocity": 0.3937007874015748
        },
        {
          "duration": 0.32142824999999675,
          "durationTicks": 288,
          "midi": 70,
          "name": "A#4",
          "ticks": 80256,
          "time": 89.57133900000001,
          "velocity": 0.3937007874015748
        },
        {
          "duration": 0.32142824999999675,
          "durationTicks": 288,
          "midi": 47,
          "name": "B2",
          "ticks": 80256,
          "time": 89.57133900000001,
          "velocity": 0.3937007874015748
        },
        {
          "duration": 0.32142825000001096,
          "durationTicks": 288,
          "midi": 35,
          "name": "B1",
          "ticks": 80352,
          "time": 89.67848175,
          "velocity": 0.3937007874015748
        },
        {
          "duration": 0.32142824999999675,
          "durationTicks": 288,
          "midi": 35,
          "name": "B1",
          "ticks": 80448,
          "time": 89.78562450000001,
          "velocity": 0.3937007874015748
        },
        {
          "duration": 0.32142824999999675,
          "durationTicks": 288,
          "midi": 68,
          "name": "G#4",
          "ticks": 80448,
          "time": 89.78562450000001,
          "velocity": 0.3937007874015748
        },
        {
          "duration": 0.32142824999999675,
          "durationTicks": 288,
          "midi": 47,
          "name": "B2",
          "ticks": 80448,
          "time": 89.78562450000001,
          "velocity": 0.3937007874015748
        },
        {
          "duration": 0.32142824999999675,
          "durationTicks": 288,
          "midi": 35,
          "name": "B1",
          "ticks": 80640,
          "time": 89.99991000000001,
          "velocity": 0.3937007874015748
        },
        {
          "duration": 0.32142824999999675,
          "durationTicks": 288,
          "midi": 70,
          "name": "A#4",
          "ticks": 80640,
          "time": 89.99991000000001,
          "velocity": 0.3937007874015748
        },
        {
          "duration": 0.32142824999999675,
          "durationTicks": 288,
          "midi": 47,
          "name": "B2",
          "ticks": 80640,
          "time": 89.99991000000001,
          "velocity": 0.3937007874015748
        },
        {
          "duration": 0.32142824999999675,
          "durationTicks": 288,
          "midi": 82,
          "name": "A#5",
          "ticks": 80640,
          "time": 89.99991000000001,
          "velocity": 0.3937007874015748
        },
        {
          "duration": 0.32142825000001096,
          "durationTicks": 288,
          "midi": 47,
          "name": "B2",
          "ticks": 80832,
          "time": 90.2141955,
          "velocity": 0.3937007874015748
        },
        {
          "duration": 0.32142824999999675,
          "durationTicks": 288,
          "midi": 35,
          "name": "B1",
          "ticks": 81024,
          "time": 90.428481,
          "velocity": 0.3937007874015748
        },
        {
          "duration": 0.32142824999999675,
          "durationTicks": 288,
          "midi": 68,
          "name": "G#4",
          "ticks": 81024,
          "time": 90.428481,
          "velocity": 0.3937007874015748
        },
        {
          "duration": 0.32142824999999675,
          "durationTicks": 288,
          "midi": 47,
          "name": "B2",
          "ticks": 81024,
          "time": 90.428481,
          "velocity": 0.3937007874015748
        },
        {
          "duration": 0.32142824999999675,
          "durationTicks": 288,
          "midi": 35,
          "name": "B1",
          "ticks": 81120,
          "time": 90.53562375000001,
          "velocity": 0.3937007874015748
        },
        {
          "duration": 0.32142824999999675,
          "durationTicks": 288,
          "midi": 35,
          "name": "B1",
          "ticks": 81216,
          "time": 90.64276650000001,
          "velocity": 0.3937007874015748
        },
        {
          "duration": 0.32142824999999675,
          "durationTicks": 288,
          "midi": 70,
          "name": "A#4",
          "ticks": 81216,
          "time": 90.64276650000001,
          "velocity": 0.3937007874015748
        },
        {
          "duration": 0.32142824999999675,
          "durationTicks": 288,
          "midi": 47,
          "name": "B2",
          "ticks": 81216,
          "time": 90.64276650000001,
          "velocity": 0.3937007874015748
        },
        {
          "duration": 0.32142824999999675,
          "durationTicks": 288,
          "midi": 37,
          "name": "C#2",
          "ticks": 81408,
          "time": 90.85705200000001,
          "velocity": 0.3937007874015748
        },
        {
          "duration": 0.32142824999999675,
          "durationTicks": 288,
          "midi": 73,
          "name": "C#5",
          "ticks": 81408,
          "time": 90.85705200000001,
          "velocity": 0.3937007874015748
        },
        {
          "duration": 0.32142824999999675,
          "durationTicks": 288,
          "midi": 49,
          "name": "C#3",
          "ticks": 81408,
          "time": 90.85705200000001,
          "velocity": 0.3937007874015748
        },
        {
          "duration": 0.32142824999999675,
          "durationTicks": 288,
          "midi": 75,
          "name": "D#5",
          "ticks": 81600,
          "time": 91.07133750000001,
          "velocity": 0.3937007874015748
        },
        {
          "duration": 0.32142824999999675,
          "durationTicks": 288,
          "midi": 49,
          "name": "C#3",
          "ticks": 81600,
          "time": 91.07133750000001,
          "velocity": 0.3937007874015748
        },
        {
          "duration": 0.32142825000001096,
          "durationTicks": 288,
          "midi": 37,
          "name": "C#2",
          "ticks": 81792,
          "time": 91.285623,
          "velocity": 0.3937007874015748
        },
        {
          "duration": 0.32142825000001096,
          "durationTicks": 288,
          "midi": 70,
          "name": "A#4",
          "ticks": 81792,
          "time": 91.285623,
          "velocity": 0.3937007874015748
        },
        {
          "duration": 0.32142825000001096,
          "durationTicks": 288,
          "midi": 49,
          "name": "C#3",
          "ticks": 81792,
          "time": 91.285623,
          "velocity": 0.3937007874015748
        },
        {
          "duration": 0.32142824999999675,
          "durationTicks": 288,
          "midi": 37,
          "name": "C#2",
          "ticks": 81888,
          "time": 91.39276575000001,
          "velocity": 0.3937007874015748
        },
        {
          "duration": 0.32142825000001096,
          "durationTicks": 288,
          "midi": 37,
          "name": "C#2",
          "ticks": 81984,
          "time": 91.4999085,
          "velocity": 0.3937007874015748
        },
        {
          "duration": 0.32142825000001096,
          "durationTicks": 288,
          "midi": 68,
          "name": "G#4",
          "ticks": 81984,
          "time": 91.4999085,
          "velocity": 0.3937007874015748
        },
        {
          "duration": 0.32142825000001096,
          "durationTicks": 288,
          "midi": 49,
          "name": "C#3",
          "ticks": 81984,
          "time": 91.4999085,
          "velocity": 0.3937007874015748
        },
        {
          "duration": 0.32142824999999675,
          "durationTicks": 288,
          "midi": 37,
          "name": "C#2",
          "ticks": 82176,
          "time": 91.714194,
          "velocity": 0.3937007874015748
        },
        {
          "duration": 0.32142824999999675,
          "durationTicks": 288,
          "midi": 70,
          "name": "A#4",
          "ticks": 82176,
          "time": 91.714194,
          "velocity": 0.3937007874015748
        },
        {
          "duration": 0.32142824999999675,
          "durationTicks": 288,
          "midi": 49,
          "name": "C#3",
          "ticks": 82176,
          "time": 91.714194,
          "velocity": 0.3937007874015748
        },
        {
          "duration": 0.32142824999999675,
          "durationTicks": 288,
          "midi": 82,
          "name": "A#5",
          "ticks": 82176,
          "time": 91.714194,
          "velocity": 0.3937007874015748
        },
        {
          "duration": 0.32142824999999675,
          "durationTicks": 288,
          "midi": 49,
          "name": "C#3",
          "ticks": 82368,
          "time": 91.92847950000001,
          "velocity": 0.3937007874015748
        },
        {
          "duration": 0.32142824999999675,
          "durationTicks": 288,
          "midi": 37,
          "name": "C#2",
          "ticks": 82560,
          "time": 92.14276500000001,
          "velocity": 0.3937007874015748
        },
        {
          "duration": 0.32142824999999675,
          "durationTicks": 288,
          "midi": 49,
          "name": "C#3",
          "ticks": 82560,
          "time": 92.14276500000001,
          "velocity": 0.3937007874015748
        },
        {
          "duration": 0.32142824999999675,
          "durationTicks": 288,
          "midi": 75,
          "name": "D#5",
          "ticks": 82560,
          "time": 92.14276500000001,
          "velocity": 0.3937007874015748
        },
        {
          "duration": 0.32142824999999675,
          "durationTicks": 288,
          "midi": 37,
          "name": "C#2",
          "ticks": 82656,
          "time": 92.24990775,
          "velocity": 0.3937007874015748
        },
        {
          "duration": 0.32142824999999675,
          "durationTicks": 288,
          "midi": 37,
          "name": "C#2",
          "ticks": 82752,
          "time": 92.35705050000001,
          "velocity": 0.3937007874015748
        },
        {
          "duration": 0.32142824999999675,
          "durationTicks": 288,
          "midi": 49,
          "name": "C#3",
          "ticks": 82752,
          "time": 92.35705050000001,
          "velocity": 0.3937007874015748
        },
        {
          "duration": 0.32142824999999675,
          "durationTicks": 288,
          "midi": 77,
          "name": "F5",
          "ticks": 82752,
          "time": 92.35705050000001,
          "velocity": 0.3937007874015748
        },
        {
          "duration": 0.32142825000001096,
          "durationTicks": 288,
          "midi": 39,
          "name": "D#2",
          "ticks": 82944,
          "time": 92.571336,
          "velocity": 0.3937007874015748
        },
        {
          "duration": 0.32142825000001096,
          "durationTicks": 288,
          "midi": 51,
          "name": "D#3",
          "ticks": 82944,
          "time": 92.571336,
          "velocity": 0.3937007874015748
        },
        {
          "duration": 0.32142825000001096,
          "durationTicks": 288,
          "midi": 78,
          "name": "F#5",
          "ticks": 82944,
          "time": 92.571336,
          "velocity": 0.3937007874015748
        },
        {
          "duration": 0.32142824999999675,
          "durationTicks": 288,
          "midi": 51,
          "name": "D#3",
          "ticks": 83136,
          "time": 92.7856215,
          "velocity": 0.3937007874015748
        },
        {
          "duration": 0.32142824999999675,
          "durationTicks": 288,
          "midi": 77,
          "name": "F5",
          "ticks": 83136,
          "time": 92.7856215,
          "velocity": 0.3937007874015748
        },
        {
          "duration": 0.32142824999999675,
          "durationTicks": 288,
          "midi": 39,
          "name": "D#2",
          "ticks": 83328,
          "time": 92.99990700000001,
          "velocity": 0.3937007874015748
        },
        {
          "duration": 0.32142824999999675,
          "durationTicks": 288,
          "midi": 51,
          "name": "D#3",
          "ticks": 83328,
          "time": 92.99990700000001,
          "velocity": 0.3937007874015748
        },
        {
          "duration": 0.32142824999999675,
          "durationTicks": 288,
          "midi": 75,
          "name": "D#5",
          "ticks": 83328,
          "time": 92.99990700000001,
          "velocity": 0.3937007874015748
        },
        {
          "duration": 0.32142825000001096,
          "durationTicks": 288,
          "midi": 39,
          "name": "D#2",
          "ticks": 83424,
          "time": 93.10704975,
          "velocity": 0.3937007874015748
        },
        {
          "duration": 0.32142824999999675,
          "durationTicks": 288,
          "midi": 39,
          "name": "D#2",
          "ticks": 83520,
          "time": 93.21419250000001,
          "velocity": 0.3937007874015748
        },
        {
          "duration": 0.32142824999999675,
          "durationTicks": 288,
          "midi": 51,
          "name": "D#3",
          "ticks": 83520,
          "time": 93.21419250000001,
          "velocity": 0.3937007874015748
        },
        {
          "duration": 0.32142824999999675,
          "durationTicks": 288,
          "midi": 73,
          "name": "C#5",
          "ticks": 83520,
          "time": 93.21419250000001,
          "velocity": 0.3937007874015748
        },
        {
          "duration": 0.32142824999999675,
          "durationTicks": 288,
          "midi": 39,
          "name": "D#2",
          "ticks": 83712,
          "time": 93.42847800000001,
          "velocity": 0.3937007874015748
        },
        {
          "duration": 0.32142824999999675,
          "durationTicks": 288,
          "midi": 51,
          "name": "D#3",
          "ticks": 83712,
          "time": 93.42847800000001,
          "velocity": 0.3937007874015748
        },
        {
          "duration": 0.32142824999999675,
          "durationTicks": 288,
          "midi": 70,
          "name": "A#4",
          "ticks": 83712,
          "time": 93.42847800000001,
          "velocity": 0.3937007874015748
        },
        {
          "duration": 0.32142824999999675,
          "durationTicks": 288,
          "midi": 82,
          "name": "A#5",
          "ticks": 83712,
          "time": 93.42847800000001,
          "velocity": 0.3937007874015748
        },
        {
          "duration": 0.32142825000001096,
          "durationTicks": 288,
          "midi": 51,
          "name": "D#3",
          "ticks": 83904,
          "time": 93.6427635,
          "velocity": 0.3937007874015748
        },
        {
          "duration": 0.32142825000001096,
          "durationTicks": 288,
          "midi": 39,
          "name": "D#2",
          "ticks": 84096,
          "time": 93.857049,
          "velocity": 0.3937007874015748
        },
        {
          "duration": 0.32142825000001096,
          "durationTicks": 288,
          "midi": 51,
          "name": "D#3",
          "ticks": 84096,
          "time": 93.857049,
          "velocity": 0.3937007874015748
        },
        {
          "duration": 0.32142825000001096,
          "durationTicks": 288,
          "midi": 68,
          "name": "G#4",
          "ticks": 84096,
          "time": 93.857049,
          "velocity": 0.3937007874015748
        },
        {
          "duration": 0.32142824999999675,
          "durationTicks": 288,
          "midi": 39,
          "name": "D#2",
          "ticks": 84192,
          "time": 93.96419175000001,
          "velocity": 0.3937007874015748
        },
        {
          "duration": 0.32142824999999675,
          "durationTicks": 288,
          "midi": 39,
          "name": "D#2",
          "ticks": 84288,
          "time": 94.0713345,
          "velocity": 0.3937007874015748
        },
        {
          "duration": 0.32142824999999675,
          "durationTicks": 288,
          "midi": 51,
          "name": "D#3",
          "ticks": 84288,
          "time": 94.0713345,
          "velocity": 0.3937007874015748
        },
        {
          "duration": 0.32142824999999675,
          "durationTicks": 288,
          "midi": 70,
          "name": "A#4",
          "ticks": 84288,
          "time": 94.0713345,
          "velocity": 0.3937007874015748
        },
        {
          "duration": 0.32142824999999675,
          "durationTicks": 288,
          "midi": 68,
          "name": "G#4",
          "ticks": 84480,
          "time": 94.28562000000001,
          "velocity": 0.3937007874015748
        },
        {
          "duration": 0.32142824999999675,
          "durationTicks": 288,
          "midi": 66,
          "name": "F#4",
          "ticks": 84672,
          "time": 94.49990550000001,
          "velocity": 0.3937007874015748
        },
        {
          "duration": 0.32142824999999675,
          "durationTicks": 288,
          "midi": 65,
          "name": "F4",
          "ticks": 84864,
          "time": 94.71419100000001,
          "velocity": 0.3937007874015748
        },
        {
          "duration": 0.32142825000001096,
          "durationTicks": 288,
          "midi": 61,
          "name": "C#4",
          "ticks": 85056,
          "time": 94.9284765,
          "velocity": 0.3937007874015748
        },
        {
          "duration": 0.32142824999999675,
          "durationTicks": 288,
          "midi": 63,
          "name": "D#4",
          "ticks": 85248,
          "time": 95.142762,
          "velocity": 0.3937007874015748
        },
        {
          "duration": 0.32142824999999675,
          "durationTicks": 288,
          "midi": 56,
          "name": "G#3",
          "ticks": 85248,
          "time": 95.142762,
          "velocity": 0.3937007874015748
        },
        {
          "duration": 0.32142824999999675,
          "durationTicks": 288,
          "midi": 56,
          "name": "G#3",
          "ticks": 85248,
          "time": 95.142762,
          "velocity": 0.3937007874015748
        },
        {
          "duration": 0.32142824999999675,
          "durationTicks": 288,
          "midi": 51,
          "name": "D#3",
          "ticks": 85248,
          "time": 95.142762,
          "velocity": 0.3937007874015748
        },
        {
          "duration": 0.32142824999999675,
          "durationTicks": 288,
          "midi": 44,
          "name": "G#2",
          "ticks": 85248,
          "time": 95.142762,
          "velocity": 0.3937007874015748
        },
        {
          "duration": 0.32142824999999675,
          "durationTicks": 288,
          "midi": 54,
          "name": "F#3",
          "ticks": 85632,
          "time": 95.57133300000001,
          "velocity": 0.3937007874015748
        },
        {
          "duration": 0.32142824999999675,
          "durationTicks": 288,
          "midi": 54,
          "name": "F#3",
          "ticks": 85632,
          "time": 95.57133300000001,
          "velocity": 0.3937007874015748
        },
        {
          "duration": 0.32142824999999675,
          "durationTicks": 288,
          "midi": 49,
          "name": "C#3",
          "ticks": 85632,
          "time": 95.57133300000001,
          "velocity": 0.3937007874015748
        },
        {
          "duration": 0.32142824999999675,
          "durationTicks": 288,
          "midi": 42,
          "name": "F#2",
          "ticks": 85632,
          "time": 95.57133300000001,
          "velocity": 0.3937007874015748
        },
        {
          "duration": 0.32142824999999675,
          "durationTicks": 288,
          "midi": 51,
          "name": "D#3",
          "ticks": 86016,
          "time": 95.99990400000002,
          "velocity": 0.3937007874015748
        },
        {
          "duration": 0.32142824999999675,
          "durationTicks": 288,
          "midi": 39,
          "name": "D#2",
          "ticks": 86016,
          "time": 95.99990400000002,
          "velocity": 0.3937007874015748
        },
        {
          "duration": 0.32142825000001096,
          "durationTicks": 288,
          "midi": 51,
          "name": "D#3",
          "ticks": 86208,
          "time": 96.2141895,
          "velocity": 0.3937007874015748
        },
        {
          "duration": 0.32142825000001096,
          "durationTicks": 288,
          "midi": 39,
          "name": "D#2",
          "ticks": 86208,
          "time": 96.2141895,
          "velocity": 0.3937007874015748
        },
        {
          "duration": 0.32142824999999675,
          "durationTicks": 288,
          "midi": 63,
          "name": "D#4",
          "ticks": 86304,
          "time": 96.32133225000001,
          "velocity": 0.3937007874015748
        },
        {
          "duration": 0.32142824999999675,
          "durationTicks": 288,
          "midi": 39,
          "name": "D#2",
          "ticks": 86400,
          "time": 96.428475,
          "velocity": 0.3937007874015748
        },
        {
          "duration": 0.32142824999999675,
          "durationTicks": 288,
          "midi": 63,
          "name": "D#4",
          "ticks": 86496,
          "time": 96.53561775000001,
          "velocity": 0.3937007874015748
        },
        {
          "duration": 0.32142824999999675,
          "durationTicks": 288,
          "midi": 61,
          "name": "C#4",
          "ticks": 86592,
          "time": 96.64276050000001,
          "velocity": 0.3937007874015748
        },
        {
          "duration": 0.32142824999999675,
          "durationTicks": 288,
          "midi": 39,
          "name": "D#2",
          "ticks": 86592,
          "time": 96.64276050000001,
          "velocity": 0.3937007874015748
        },
        {
          "duration": 0.32142825000001096,
          "durationTicks": 288,
          "midi": 63,
          "name": "D#4",
          "ticks": 86688,
          "time": 96.74990325,
          "velocity": 0.3937007874015748
        },
        {
          "duration": 0.32142824999999675,
          "durationTicks": 288,
          "midi": 51,
          "name": "D#3",
          "ticks": 86784,
          "time": 96.85704600000001,
          "velocity": 0.3937007874015748
        },
        {
          "duration": 0.32142824999999675,
          "durationTicks": 288,
          "midi": 39,
          "name": "D#2",
          "ticks": 86784,
          "time": 96.85704600000001,
          "velocity": 0.3937007874015748
        },
        {
          "duration": 0.32142824999999675,
          "durationTicks": 288,
          "midi": 51,
          "name": "D#3",
          "ticks": 86976,
          "time": 97.07133150000001,
          "velocity": 0.3937007874015748
        },
        {
          "duration": 0.32142824999999675,
          "durationTicks": 288,
          "midi": 39,
          "name": "D#2",
          "ticks": 86976,
          "time": 97.07133150000001,
          "velocity": 0.3937007874015748
        },
        {
          "duration": 0.32142824999999675,
          "durationTicks": 288,
          "midi": 63,
          "name": "D#4",
          "ticks": 87072,
          "time": 97.17847425000001,
          "velocity": 0.3937007874015748
        },
        {
          "duration": 0.32142825000001096,
          "durationTicks": 288,
          "midi": 39,
          "name": "D#2",
          "ticks": 87168,
          "time": 97.285617,
          "velocity": 0.3937007874015748
        },
        {
          "duration": 0.32142824999999675,
          "durationTicks": 288,
          "midi": 63,
          "name": "D#4",
          "ticks": 87264,
          "time": 97.39275975000001,
          "velocity": 0.3937007874015748
        },
        {
          "duration": 0.32142824999999675,
          "durationTicks": 288,
          "midi": 61,
          "name": "C#4",
          "ticks": 87360,
          "time": 97.4999025,
          "velocity": 0.3937007874015748
        },
        {
          "duration": 0.32142824999999675,
          "durationTicks": 288,
          "midi": 39,
          "name": "D#2",
          "ticks": 87360,
          "time": 97.4999025,
          "velocity": 0.3937007874015748
        },
        {
          "duration": 0.32142824999999675,
          "durationTicks": 288,
          "midi": 63,
          "name": "D#4",
          "ticks": 87456,
          "time": 97.60704525000001,
          "velocity": 0.3937007874015748
        },
        {
          "duration": 0.32142824999999675,
          "durationTicks": 288,
          "midi": 51,
          "name": "D#3",
          "ticks": 87552,
          "time": 97.71418800000001,
          "velocity": 0.3937007874015748
        },
        {
          "duration": 0.32142824999999675,
          "durationTicks": 288,
          "midi": 39,
          "name": "D#2",
          "ticks": 87552,
          "time": 97.71418800000001,
          "velocity": 0.3937007874015748
        },
        {
          "duration": 0.32142824999999675,
          "durationTicks": 288,
          "midi": 51,
          "name": "D#3",
          "ticks": 87744,
          "time": 97.92847350000001,
          "velocity": 0.3937007874015748
        },
        {
          "duration": 0.32142824999999675,
          "durationTicks": 288,
          "midi": 39,
          "name": "D#2",
          "ticks": 87744,
          "time": 97.92847350000001,
          "velocity": 0.3937007874015748
        },
        {
          "duration": 0.32142825000001096,
          "durationTicks": 288,
          "midi": 63,
          "name": "D#4",
          "ticks": 87840,
          "time": 98.03561625,
          "velocity": 0.3937007874015748
        },
        {
          "duration": 0.32142824999999675,
          "durationTicks": 288,
          "midi": 39,
          "name": "D#2",
          "ticks": 87936,
          "time": 98.14275900000001,
          "velocity": 0.3937007874015748
        },
        {
          "duration": 0.32142824999999675,
          "durationTicks": 288,
          "midi": 63,
          "name": "D#4",
          "ticks": 88032,
          "time": 98.24990175,
          "velocity": 0.3937007874015748
        },
        {
          "duration": 0.32142824999999675,
          "durationTicks": 288,
          "midi": 61,
          "name": "C#4",
          "ticks": 88128,
          "time": 98.35704450000001,
          "velocity": 0.3937007874015748
        },
        {
          "duration": 0.32142824999999675,
          "durationTicks": 288,
          "midi": 39,
          "name": "D#2",
          "ticks": 88128,
          "time": 98.35704450000001,
          "velocity": 0.3937007874015748
        },
        {
          "duration": 0.32142824999999675,
          "durationTicks": 288,
          "midi": 63,
          "name": "D#4",
          "ticks": 88224,
          "time": 98.46418725000001,
          "velocity": 0.3937007874015748
        },
        {
          "duration": 0.32142825000001096,
          "durationTicks": 288,
          "midi": 51,
          "name": "D#3",
          "ticks": 88320,
          "time": 98.57133,
          "velocity": 0.3937007874015748
        },
        {
          "duration": 0.32142825000001096,
          "durationTicks": 288,
          "midi": 42,
          "name": "F#2",
          "ticks": 88320,
          "time": 98.57133,
          "velocity": 0.3937007874015748
        },
        {
          "duration": 0.32142824999999675,
          "durationTicks": 288,
          "midi": 51,
          "name": "D#3",
          "ticks": 88512,
          "time": 98.7856155,
          "velocity": 0.3937007874015748
        },
        {
          "duration": 0.32142824999999675,
          "durationTicks": 288,
          "midi": 42,
          "name": "F#2",
          "ticks": 88512,
          "time": 98.7856155,
          "velocity": 0.3937007874015748
        },
        {
          "duration": 0.32142824999999675,
          "durationTicks": 288,
          "midi": 54,
          "name": "F#3",
          "ticks": 88608,
          "time": 98.89275825000001,
          "velocity": 0.3937007874015748
        },
        {
          "duration": 0.32142824999999675,
          "durationTicks": 288,
          "midi": 56,
          "name": "G#3",
          "ticks": 88704,
          "time": 98.99990100000001,
          "velocity": 0.3937007874015748
        },
        {
          "duration": 0.32142824999999675,
          "durationTicks": 288,
          "midi": 44,
          "name": "G#2",
          "ticks": 88704,
          "time": 98.99990100000001,
          "velocity": 0.3937007874015748
        },
        {
          "duration": 0.32142824999999675,
          "durationTicks": 288,
          "midi": 54,
          "name": "F#3",
          "ticks": 88896,
          "time": 99.21418650000001,
          "velocity": 0.3937007874015748
        },
        {
          "duration": 0.32142824999999675,
          "durationTicks": 288,
          "midi": 44,
          "name": "G#2",
          "ticks": 88896,
          "time": 99.21418650000001,
          "velocity": 0.3937007874015748
        },
        {
          "duration": 0.32142824999999675,
          "durationTicks": 288,
          "midi": 56,
          "name": "G#3",
          "ticks": 88992,
          "time": 99.32132925,
          "velocity": 0.3937007874015748
        },
        {
          "duration": 0.32142824999999675,
          "durationTicks": 288,
          "midi": 51,
          "name": "D#3",
          "ticks": 89088,
          "time": 99.42847200000001,
          "velocity": 0.3937007874015748
        },
        {
          "duration": 0.32142824999999675,
          "durationTicks": 288,
          "midi": 39,
          "name": "D#2",
          "ticks": 89088,
          "time": 99.42847200000001,
          "velocity": 0.3937007874015748
        },
        {
          "duration": 0.32142825000001096,
          "durationTicks": 288,
          "midi": 51,
          "name": "D#3",
          "ticks": 89280,
          "time": 99.6427575,
          "velocity": 0.3937007874015748
        },
        {
          "duration": 0.32142825000001096,
          "durationTicks": 288,
          "midi": 39,
          "name": "D#2",
          "ticks": 89280,
          "time": 99.6427575,
          "velocity": 0.3937007874015748
        },
        {
          "duration": 0.32142824999999675,
          "durationTicks": 288,
          "midi": 63,
          "name": "D#4",
          "ticks": 89376,
          "time": 99.74990025000001,
          "velocity": 0.3937007874015748
        },
        {
          "duration": 0.32142824999999675,
          "durationTicks": 288,
          "midi": 39,
          "name": "D#2",
          "ticks": 89472,
          "time": 99.857043,
          "velocity": 0.3937007874015748
        },
        {
          "duration": 0.32142824999999675,
          "durationTicks": 288,
          "midi": 63,
          "name": "D#4",
          "ticks": 89568,
          "time": 99.96418575000001,
          "velocity": 0.3937007874015748
        },
        {
          "duration": 0.32142824999999675,
          "durationTicks": 288,
          "midi": 61,
          "name": "C#4",
          "ticks": 89664,
          "time": 100.0713285,
          "velocity": 0.3937007874015748
        },
        {
          "duration": 0.32142824999999675,
          "durationTicks": 288,
          "midi": 39,
          "name": "D#2",
          "ticks": 89664,
          "time": 100.0713285,
          "velocity": 0.3937007874015748
        },
        {
          "duration": 0.32142825000001096,
          "durationTicks": 288,
          "midi": 63,
          "name": "D#4",
          "ticks": 89760,
          "time": 100.17847125,
          "velocity": 0.3937007874015748
        },
        {
          "duration": 0.32142824999999675,
          "durationTicks": 288,
          "midi": 51,
          "name": "D#3",
          "ticks": 89856,
          "time": 100.28561400000001,
          "velocity": 0.3937007874015748
        },
        {
          "duration": 0.32142824999999675,
          "durationTicks": 288,
          "midi": 39,
          "name": "D#2",
          "ticks": 89856,
          "time": 100.28561400000001,
          "velocity": 0.3937007874015748
        },
        {
          "duration": 0.32142824999999675,
          "durationTicks": 288,
          "midi": 51,
          "name": "D#3",
          "ticks": 90048,
          "time": 100.49989950000001,
          "velocity": 0.3937007874015748
        },
        {
          "duration": 0.32142824999999675,
          "durationTicks": 288,
          "midi": 39,
          "name": "D#2",
          "ticks": 90048,
          "time": 100.49989950000001,
          "velocity": 0.3937007874015748
        },
        {
          "duration": 0.32142824999999675,
          "durationTicks": 288,
          "midi": 63,
          "name": "D#4",
          "ticks": 90144,
          "time": 100.60704225,
          "velocity": 0.3937007874015748
        },
        {
          "duration": 0.32142824999999675,
          "durationTicks": 288,
          "midi": 39,
          "name": "D#2",
          "ticks": 90240,
          "time": 100.71418500000001,
          "velocity": 0.3937007874015748
        },
        {
          "duration": 0.32142824999999675,
          "durationTicks": 288,
          "midi": 63,
          "name": "D#4",
          "ticks": 90336,
          "time": 100.82132775000001,
          "velocity": 0.3937007874015748
        },
        {
          "duration": 0.32142825000001096,
          "durationTicks": 288,
          "midi": 61,
          "name": "C#4",
          "ticks": 90432,
          "time": 100.9284705,
          "velocity": 0.3937007874015748
        },
        {
          "duration": 0.32142825000001096,
          "durationTicks": 288,
          "midi": 39,
          "name": "D#2",
          "ticks": 90432,
          "time": 100.9284705,
          "velocity": 0.3937007874015748
        },
        {
          "duration": 0.32142824999999675,
          "durationTicks": 288,
          "midi": 63,
          "name": "D#4",
          "ticks": 90528,
          "time": 101.03561325000001,
          "velocity": 0.3937007874015748
        },
        {
          "duration": 0.32142824999999675,
          "durationTicks": 288,
          "midi": 51,
          "name": "D#3",
          "ticks": 90624,
          "time": 101.142756,
          "velocity": 0.3937007874015748
        },
        {
          "duration": 0.32142824999999675,
          "durationTicks": 288,
          "midi": 39,
          "name": "D#2",
          "ticks": 90624,
          "time": 101.142756,
          "velocity": 0.3937007874015748
        },
        {
          "duration": 0.32142824999999675,
          "durationTicks": 288,
          "midi": 51,
          "name": "D#3",
          "ticks": 90816,
          "time": 101.35704150000001,
          "velocity": 0.3937007874015748
        },
        {
          "duration": 0.32142824999999675,
          "durationTicks": 288,
          "midi": 39,
          "name": "D#2",
          "ticks": 90816,
          "time": 101.35704150000001,
          "velocity": 0.3937007874015748
        },
        {
          "duration": 0.32142825000001096,
          "durationTicks": 288,
          "midi": 63,
          "name": "D#4",
          "ticks": 90912,
          "time": 101.46418425,
          "velocity": 0.3937007874015748
        },
        {
          "duration": 0.32142824999999675,
          "durationTicks": 288,
          "midi": 39,
          "name": "D#2",
          "ticks": 91008,
          "time": 101.57132700000001,
          "velocity": 0.3937007874015748
        },
        {
          "duration": 0.32142824999999675,
          "durationTicks": 288,
          "midi": 63,
          "name": "D#4",
          "ticks": 91104,
          "time": 101.67846975,
          "velocity": 0.3937007874015748
        },
        {
          "duration": 0.32142824999999675,
          "durationTicks": 288,
          "midi": 61,
          "name": "C#4",
          "ticks": 91200,
          "time": 101.78561250000001,
          "velocity": 0.3937007874015748
        },
        {
          "duration": 0.32142824999999675,
          "durationTicks": 288,
          "midi": 39,
          "name": "D#2",
          "ticks": 91200,
          "time": 101.78561250000001,
          "velocity": 0.3937007874015748
        },
        {
          "duration": 0.32142824999999675,
          "durationTicks": 288,
          "midi": 63,
          "name": "D#4",
          "ticks": 91296,
          "time": 101.89275525000001,
          "velocity": 0.3937007874015748
        },
        {
          "duration": 0.32142825000001096,
          "durationTicks": 288,
          "midi": 56,
          "name": "G#3",
          "ticks": 91392,
          "time": 101.999898,
          "velocity": 0.3937007874015748
        },
        {
          "duration": 0.32142825000001096,
          "durationTicks": 288,
          "midi": 44,
          "name": "G#2",
          "ticks": 91392,
          "time": 101.999898,
          "velocity": 0.3937007874015748
        },
        {
          "duration": 0.32142825000001096,
          "durationTicks": 288,
          "midi": 54,
          "name": "F#3",
          "ticks": 91584,
          "time": 102.2141835,
          "velocity": 0.3937007874015748
        },
        {
          "duration": 0.32142825000001096,
          "durationTicks": 288,
          "midi": 44,
          "name": "G#2",
          "ticks": 91584,
          "time": 102.2141835,
          "velocity": 0.3937007874015748
        },
        {
          "duration": 0.32142824999999675,
          "durationTicks": 288,
          "midi": 56,
          "name": "G#3",
          "ticks": 91680,
          "time": 102.32132625000001,
          "velocity": 0.3937007874015748
        },
        {
          "duration": 0.32142824999999675,
          "durationTicks": 288,
          "midi": 54,
          "name": "F#3",
          "ticks": 91776,
          "time": 102.428469,
          "velocity": 0.3937007874015748
        },
        {
          "duration": 0.32142824999999675,
          "durationTicks": 288,
          "midi": 42,
          "name": "F#2",
          "ticks": 91776,
          "time": 102.428469,
          "velocity": 0.3937007874015748
        },
        {
          "duration": 0.32142824999999675,
          "durationTicks": 288,
          "midi": 54,
          "name": "F#3",
          "ticks": 91968,
          "time": 102.64275450000001,
          "velocity": 0.3937007874015748
        },
        {
          "duration": 0.32142824999999675,
          "durationTicks": 288,
          "midi": 42,
          "name": "F#2",
          "ticks": 91968,
          "time": 102.64275450000001,
          "velocity": 0.3937007874015748
        },
        {
          "duration": 0.32142825000001096,
          "durationTicks": 288,
          "midi": 56,
          "name": "G#3",
          "ticks": 92064,
          "time": 102.74989725,
          "velocity": 0.3937007874015748
        },
        {
          "duration": 0.32142824999999675,
          "durationTicks": 288,
          "midi": 51,
          "name": "D#3",
          "ticks": 92160,
          "time": 102.85704000000001,
          "velocity": 0.3937007874015748
        },
        {
          "duration": 0.32142824999999675,
          "durationTicks": 288,
          "midi": 39,
          "name": "D#2",
          "ticks": 92160,
          "time": 102.85704000000001,
          "velocity": 0.3937007874015748
        },
        {
          "duration": 0.32142824999999675,
          "durationTicks": 288,
          "midi": 51,
          "name": "D#3",
          "ticks": 92352,
          "time": 103.07132550000001,
          "velocity": 0.3937007874015748
        },
        {
          "duration": 0.32142824999999675,
          "durationTicks": 288,
          "midi": 39,
          "name": "D#2",
          "ticks": 92352,
          "time": 103.07132550000001,
          "velocity": 0.3937007874015748
        },
        {
          "duration": 0.32142824999999675,
          "durationTicks": 288,
          "midi": 63,
          "name": "D#4",
          "ticks": 92448,
          "time": 103.17846825000001,
          "velocity": 0.3937007874015748
        },
        {
          "duration": 0.32142825000001096,
          "durationTicks": 288,
          "midi": 39,
          "name": "D#2",
          "ticks": 92544,
          "time": 103.285611,
          "velocity": 0.3937007874015748
        },
        {
          "duration": 0.32142824999999675,
          "durationTicks": 288,
          "midi": 63,
          "name": "D#4",
          "ticks": 92640,
          "time": 103.39275375000001,
          "velocity": 0.3937007874015748
        },
        {
          "duration": 0.32142824999999675,
          "durationTicks": 288,
          "midi": 61,
          "name": "C#4",
          "ticks": 92736,
          "time": 103.4998965,
          "velocity": 0.3937007874015748
        },
        {
          "duration": 0.32142824999999675,
          "durationTicks": 288,
          "midi": 39,
          "name": "D#2",
          "ticks": 92736,
          "time": 103.4998965,
          "velocity": 0.3937007874015748
        },
        {
          "duration": 0.32142824999999675,
          "durationTicks": 288,
          "midi": 63,
          "name": "D#4",
          "ticks": 92832,
          "time": 103.60703925000001,
          "velocity": 0.3937007874015748
        },
        {
          "duration": 0.32142824999999675,
          "durationTicks": 288,
          "midi": 51,
          "name": "D#3",
          "ticks": 92928,
          "time": 103.71418200000001,
          "velocity": 0.3937007874015748
        },
        {
          "duration": 0.32142824999999675,
          "durationTicks": 288,
          "midi": 39,
          "name": "D#2",
          "ticks": 92928,
          "time": 103.71418200000001,
          "velocity": 0.3937007874015748
        },
        {
          "duration": 0.32142824999999675,
          "durationTicks": 288,
          "midi": 51,
          "name": "D#3",
          "ticks": 93120,
          "time": 103.92846750000001,
          "velocity": 0.3937007874015748
        },
        {
          "duration": 0.32142824999999675,
          "durationTicks": 288,
          "midi": 39,
          "name": "D#2",
          "ticks": 93120,
          "time": 103.92846750000001,
          "velocity": 0.3937007874015748
        },
        {
          "duration": 0.32142824999999675,
          "durationTicks": 288,
          "midi": 63,
          "name": "D#4",
          "ticks": 93216,
          "time": 104.03561025,
          "velocity": 0.3937007874015748
        },
        {
          "duration": 0.32142824999999675,
          "durationTicks": 288,
          "midi": 39,
          "name": "D#2",
          "ticks": 93312,
          "time": 104.14275300000001,
          "velocity": 0.3937007874015748
        },
        {
          "duration": 0.32142824999999675,
          "durationTicks": 288,
          "midi": 63,
          "name": "D#4",
          "ticks": 93408,
          "time": 104.24989575000001,
          "velocity": 0.3937007874015748
        },
        {
          "duration": 0.32142825000001096,
          "durationTicks": 288,
          "midi": 61,
          "name": "C#4",
          "ticks": 93504,
          "time": 104.3570385,
          "velocity": 0.3937007874015748
        },
        {
          "duration": 0.32142825000001096,
          "durationTicks": 288,
          "midi": 39,
          "name": "D#2",
          "ticks": 93504,
          "time": 104.3570385,
          "velocity": 0.3937007874015748
        },
        {
          "duration": 0.32142824999999675,
          "durationTicks": 288,
          "midi": 63,
          "name": "D#4",
          "ticks": 93600,
          "time": 104.46418125000001,
          "velocity": 0.3937007874015748
        },
        {
          "duration": 0.32142825000001096,
          "durationTicks": 288,
          "midi": 51,
          "name": "D#3",
          "ticks": 93696,
          "time": 104.571324,
          "velocity": 0.3937007874015748
        },
        {
          "duration": 0.32142825000001096,
          "durationTicks": 288,
          "midi": 39,
          "name": "D#2",
          "ticks": 93696,
          "time": 104.571324,
          "velocity": 0.3937007874015748
        },
        {
          "duration": 0.32142824999999675,
          "durationTicks": 288,
          "midi": 51,
          "name": "D#3",
          "ticks": 93888,
          "time": 104.7856095,
          "velocity": 0.3937007874015748
        },
        {
          "duration": 0.32142824999999675,
          "durationTicks": 288,
          "midi": 39,
          "name": "D#2",
          "ticks": 93888,
          "time": 104.7856095,
          "velocity": 0.3937007874015748
        },
        {
          "duration": 0.32142824999999675,
          "durationTicks": 288,
          "midi": 63,
          "name": "D#4",
          "ticks": 93984,
          "time": 104.89275225000002,
          "velocity": 0.3937007874015748
        },
        {
          "duration": 0.32142824999999675,
          "durationTicks": 288,
          "midi": 39,
          "name": "D#2",
          "ticks": 94080,
          "time": 104.99989500000001,
          "velocity": 0.3937007874015748
        },
        {
          "duration": 0.32142825000001096,
          "durationTicks": 288,
          "midi": 63,
          "name": "D#4",
          "ticks": 94176,
          "time": 105.10703775,
          "velocity": 0.3937007874015748
        },
        {
          "duration": 0.32142824999999675,
          "durationTicks": 288,
          "midi": 61,
          "name": "C#4",
          "ticks": 94272,
          "time": 105.21418050000001,
          "velocity": 0.3937007874015748
        },
        {
          "duration": 0.32142824999999675,
          "durationTicks": 288,
          "midi": 39,
          "name": "D#2",
          "ticks": 94272,
          "time": 105.21418050000001,
          "velocity": 0.3937007874015748
        },
        {
          "duration": 0.32142824999999675,
          "durationTicks": 288,
          "midi": 63,
          "name": "D#4",
          "ticks": 94368,
          "time": 105.32132325,
          "velocity": 0.3937007874015748
        },
        {
          "duration": 0.32142824999999675,
          "durationTicks": 288,
          "midi": 51,
          "name": "D#3",
          "ticks": 94464,
          "time": 105.42846600000001,
          "velocity": 0.3937007874015748
        },
        {
          "duration": 0.32142824999999675,
          "durationTicks": 288,
          "midi": 42,
          "name": "F#2",
          "ticks": 94464,
          "time": 105.42846600000001,
          "velocity": 0.3937007874015748
        },
        {
          "duration": 0.32142825000001096,
          "durationTicks": 288,
          "midi": 51,
          "name": "D#3",
          "ticks": 94656,
          "time": 105.6427515,
          "velocity": 0.3937007874015748
        },
        {
          "duration": 0.32142825000001096,
          "durationTicks": 288,
          "midi": 42,
          "name": "F#2",
          "ticks": 94656,
          "time": 105.6427515,
          "velocity": 0.3937007874015748
        },
        {
          "duration": 0.32142824999999675,
          "durationTicks": 288,
          "midi": 54,
          "name": "F#3",
          "ticks": 94752,
          "time": 105.74989425000001,
          "velocity": 0.3937007874015748
        },
        {
          "duration": 0.32142824999999675,
          "durationTicks": 288,
          "midi": 56,
          "name": "G#3",
          "ticks": 94848,
          "time": 105.857037,
          "velocity": 0.3937007874015748
        },
        {
          "duration": 0.32142824999999675,
          "durationTicks": 288,
          "midi": 44,
          "name": "G#2",
          "ticks": 94848,
          "time": 105.857037,
          "velocity": 0.3937007874015748
        },
        {
          "duration": 0.32142824999999675,
          "durationTicks": 288,
          "midi": 54,
          "name": "F#3",
          "ticks": 95040,
          "time": 106.07132250000001,
          "velocity": 0.3937007874015748
        },
        {
          "duration": 0.32142824999999675,
          "durationTicks": 288,
          "midi": 44,
          "name": "G#2",
          "ticks": 95040,
          "time": 106.07132250000001,
          "velocity": 0.3937007874015748
        },
        {
          "duration": 0.32142825000001096,
          "durationTicks": 288,
          "midi": 56,
          "name": "G#3",
          "ticks": 95136,
          "time": 106.17846525,
          "velocity": 0.3937007874015748
        },
        {
          "duration": 0.32142824999999675,
          "durationTicks": 288,
          "midi": 51,
          "name": "D#3",
          "ticks": 95232,
          "time": 106.28560800000001,
          "velocity": 0.3937007874015748
        },
        {
          "duration": 0.32142824999999675,
          "durationTicks": 288,
          "midi": 39,
          "name": "D#2",
          "ticks": 95232,
          "time": 106.28560800000001,
          "velocity": 0.3937007874015748
        },
        {
          "duration": 0.32142824999999675,
          "durationTicks": 288,
          "midi": 51,
          "name": "D#3",
          "ticks": 95424,
          "time": 106.49989350000001,
          "velocity": 0.3937007874015748
        },
        {
          "duration": 0.32142824999999675,
          "durationTicks": 288,
          "midi": 39,
          "name": "D#2",
          "ticks": 95424,
          "time": 106.49989350000001,
          "velocity": 0.3937007874015748
        },
        {
          "duration": 0.32142824999999675,
          "durationTicks": 288,
          "midi": 63,
          "name": "D#4",
          "ticks": 95520,
          "time": 106.60703625000001,
          "velocity": 0.3937007874015748
        },
        {
          "duration": 0.32142824999999675,
          "durationTicks": 288,
          "midi": 39,
          "name": "D#2",
          "ticks": 95616,
          "time": 106.71417900000002,
          "velocity": 0.3937007874015748
        },
        {
          "duration": 0.32142824999999675,
          "durationTicks": 288,
          "midi": 63,
          "name": "D#4",
          "ticks": 95712,
          "time": 106.82132175000001,
          "velocity": 0.3937007874015748
        },
        {
          "duration": 0.32142825000001096,
          "durationTicks": 288,
          "midi": 61,
          "name": "C#4",
          "ticks": 95808,
          "time": 106.9284645,
          "velocity": 0.3937007874015748
        },
        {
          "duration": 0.32142825000001096,
          "durationTicks": 288,
          "midi": 39,
          "name": "D#2",
          "ticks": 95808,
          "time": 106.9284645,
          "velocity": 0.3937007874015748
        },
        {
          "duration": 0.32142824999999675,
          "durationTicks": 288,
          "midi": 63,
          "name": "D#4",
          "ticks": 95904,
          "time": 107.03560725000001,
          "velocity": 0.3937007874015748
        },
        {
          "duration": 0.32142824999999675,
          "durationTicks": 288,
          "midi": 51,
          "name": "D#3",
          "ticks": 96000,
          "time": 107.14275,
          "velocity": 0.3937007874015748
        },
        {
          "duration": 0.32142824999999675,
          "durationTicks": 288,
          "midi": 39,
          "name": "D#2",
          "ticks": 96000,
          "time": 107.14275,
          "velocity": 0.3937007874015748
        },
        {
          "duration": 0.32142824999999675,
          "durationTicks": 288,
          "midi": 51,
          "name": "D#3",
          "ticks": 96192,
          "time": 107.35703550000001,
          "velocity": 0.3937007874015748
        },
        {
          "duration": 0.32142824999999675,
          "durationTicks": 288,
          "midi": 39,
          "name": "D#2",
          "ticks": 96192,
          "time": 107.35703550000001,
          "velocity": 0.3937007874015748
        },
        {
          "duration": 0.32142825000001096,
          "durationTicks": 288,
          "midi": 63,
          "name": "D#4",
          "ticks": 96288,
          "time": 107.46417825,
          "velocity": 0.3937007874015748
        },
        {
          "duration": 0.32142824999999675,
          "durationTicks": 288,
          "midi": 39,
          "name": "D#2",
          "ticks": 96384,
          "time": 107.57132100000001,
          "velocity": 0.3937007874015748
        },
        {
          "duration": 0.32142824999999675,
          "durationTicks": 288,
          "midi": 63,
          "name": "D#4",
          "ticks": 96480,
          "time": 107.67846375,
          "velocity": 0.3937007874015748
        },
        {
          "duration": 0.32142824999999675,
          "durationTicks": 288,
          "midi": 61,
          "name": "C#4",
          "ticks": 96576,
          "time": 107.78560650000001,
          "velocity": 0.3937007874015748
        },
        {
          "duration": 0.32142824999999675,
          "durationTicks": 288,
          "midi": 39,
          "name": "D#2",
          "ticks": 96576,
          "time": 107.78560650000001,
          "velocity": 0.3937007874015748
        },
        {
          "duration": 0.32142824999999675,
          "durationTicks": 288,
          "midi": 63,
          "name": "D#4",
          "ticks": 96672,
          "time": 107.89274925000001,
          "velocity": 0.3937007874015748
        },
        {
          "duration": 0.32142825000001096,
          "durationTicks": 288,
          "midi": 51,
          "name": "D#3",
          "ticks": 96768,
          "time": 107.999892,
          "velocity": 0.3937007874015748
        },
        {
          "duration": 0.32142825000001096,
          "durationTicks": 288,
          "midi": 39,
          "name": "D#2",
          "ticks": 96768,
          "time": 107.999892,
          "velocity": 0.3937007874015748
        },
        {
          "duration": 0.32142824999999675,
          "durationTicks": 288,
          "midi": 51,
          "name": "D#3",
          "ticks": 96960,
          "time": 108.2141775,
          "velocity": 0.3937007874015748
        },
        {
          "duration": 0.32142824999999675,
          "durationTicks": 288,
          "midi": 39,
          "name": "D#2",
          "ticks": 96960,
          "time": 108.2141775,
          "velocity": 0.3937007874015748
        },
        {
          "duration": 0.32142824999999675,
          "durationTicks": 288,
          "midi": 63,
          "name": "D#4",
          "ticks": 97056,
          "time": 108.32132025000001,
          "velocity": 0.3937007874015748
        },
        {
          "duration": 0.32142824999999675,
          "durationTicks": 288,
          "midi": 39,
          "name": "D#2",
          "ticks": 97152,
          "time": 108.42846300000001,
          "velocity": 0.3937007874015748
        },
        {
          "duration": 0.32142825000001096,
          "durationTicks": 288,
          "midi": 63,
          "name": "D#4",
          "ticks": 97248,
          "time": 108.53560575,
          "velocity": 0.3937007874015748
        },
        {
          "duration": 0.32142824999999675,
          "durationTicks": 288,
          "midi": 61,
          "name": "C#4",
          "ticks": 97344,
          "time": 108.64274850000001,
          "velocity": 0.3937007874015748
        },
        {
          "duration": 0.32142824999999675,
          "durationTicks": 288,
          "midi": 39,
          "name": "D#2",
          "ticks": 97344,
          "time": 108.64274850000001,
          "velocity": 0.3937007874015748
        },
        {
          "duration": 0.32142825000001096,
          "durationTicks": 288,
          "midi": 63,
          "name": "D#4",
          "ticks": 97440,
          "time": 108.74989125,
          "velocity": 0.3937007874015748
        },
        {
          "duration": 0.32142824999999675,
          "durationTicks": 288,
          "midi": 56,
          "name": "G#3",
          "ticks": 97536,
          "time": 108.85703400000001,
          "velocity": 0.3937007874015748
        },
        {
          "duration": 0.32142824999999675,
          "durationTicks": 288,
          "midi": 44,
          "name": "G#2",
          "ticks": 97536,
          "time": 108.85703400000001,
          "velocity": 0.3937007874015748
        },
        {
          "duration": 0.32142824999999675,
          "durationTicks": 288,
          "midi": 54,
          "name": "F#3",
          "ticks": 97680,
          "time": 109.01774812500001,
          "velocity": 0.3937007874015748
        },
        {
          "duration": 0.32142824999999675,
          "durationTicks": 288,
          "midi": 42,
          "name": "F#2",
          "ticks": 97680,
          "time": 109.01774812500001,
          "velocity": 0.3937007874015748
        },
        {
          "duration": 0.32142824999999675,
          "durationTicks": 288,
          "midi": 56,
          "name": "G#3",
          "ticks": 97824,
          "time": 109.17846225000001,
          "velocity": 0.3937007874015748
        },
        {
          "duration": 0.32142824999999675,
          "durationTicks": 288,
          "midi": 44,
          "name": "G#2",
          "ticks": 97824,
          "time": 109.17846225000001,
          "velocity": 0.3937007874015748
        },
        {
          "duration": 0.32142825000001096,
          "durationTicks": 288,
          "midi": 54,
          "name": "F#3",
          "ticks": 97920,
          "time": 109.285605,
          "velocity": 0.3937007874015748
        },
        {
          "duration": 0.32142825000001096,
          "durationTicks": 288,
          "midi": 42,
          "name": "F#2",
          "ticks": 97920,
          "time": 109.285605,
          "velocity": 0.3937007874015748
        },
        {
          "duration": 0.32142825000001096,
          "durationTicks": 288,
          "midi": 51,
          "name": "D#3",
          "ticks": 98064,
          "time": 109.446319125,
          "velocity": 0.3937007874015748
        },
        {
          "duration": 0.32142825000001096,
          "durationTicks": 288,
          "midi": 39,
          "name": "D#2",
          "ticks": 98064,
          "time": 109.446319125,
          "velocity": 0.3937007874015748
        },
        {
          "duration": 0.32142824999999675,
          "durationTicks": 288,
          "midi": 54,
          "name": "F#3",
          "ticks": 98208,
          "time": 109.60703325000001,
          "velocity": 0.3937007874015748
        },
        {
          "duration": 0.32142824999999675,
          "durationTicks": 288,
          "midi": 42,
          "name": "F#2",
          "ticks": 98208,
          "time": 109.60703325000001,
          "velocity": 0.3937007874015748
        },
        {
          "duration": 0.32142824999999675,
          "durationTicks": 288,
          "midi": 39,
          "name": "D#2",
          "ticks": 98304,
          "time": 109.71417600000001,
          "velocity": 0.3937007874015748
        },
        {
          "duration": 0.32142824999999675,
          "durationTicks": 288,
          "midi": 63,
          "name": "D#4",
          "ticks": 98304,
          "time": 109.71417600000001,
          "velocity": 0.3937007874015748
        },
        {
          "duration": 0.32142824999999675,
          "durationTicks": 288,
          "midi": 39,
          "name": "D#2",
          "ticks": 98496,
          "time": 109.92846150000001,
          "velocity": 0.3937007874015748
        },
        {
          "duration": 0.32142824999999675,
          "durationTicks": 288,
          "midi": 65,
          "name": "F4",
          "ticks": 98496,
          "time": 109.92846150000001,
          "velocity": 0.3937007874015748
        },
        {
          "duration": 0.32142824999999675,
          "durationTicks": 288,
          "midi": 51,
          "name": "D#3",
          "ticks": 98592,
          "time": 110.03560425,
          "velocity": 0.3937007874015748
        },
        {
          "duration": 0.32142824999999675,
          "durationTicks": 288,
          "midi": 39,
          "name": "D#2",
          "ticks": 98688,
          "time": 110.14274700000001,
          "velocity": 0.3937007874015748
        },
        {
          "duration": 0.32142824999999675,
          "durationTicks": 288,
          "midi": 66,
          "name": "F#4",
          "ticks": 98688,
          "time": 110.14274700000001,
          "velocity": 0.3937007874015748
        },
        {
          "duration": 0.32142824999999675,
          "durationTicks": 288,
          "midi": 51,
          "name": "D#3",
          "ticks": 98784,
          "time": 110.24988975000001,
          "velocity": 0.3937007874015748
        },
        {
          "duration": 0.32142825000001096,
          "durationTicks": 288,
          "midi": 49,
          "name": "C#3",
          "ticks": 98880,
          "time": 110.3570325,
          "velocity": 0.3937007874015748
        },
        {
          "duration": 0.32142825000001096,
          "durationTicks": 288,
          "midi": 39,
          "name": "D#2",
          "ticks": 98880,
          "time": 110.3570325,
          "velocity": 0.3937007874015748
        },
        {
          "duration": 0.32142825000001096,
          "durationTicks": 288,
          "midi": 68,
          "name": "G#4",
          "ticks": 98880,
          "time": 110.3570325,
          "velocity": 0.3937007874015748
        },
        {
          "duration": 0.32142824999999675,
          "durationTicks": 288,
          "midi": 51,
          "name": "D#3",
          "ticks": 98976,
          "time": 110.46417525000001,
          "velocity": 0.3937007874015748
        },
        {
          "duration": 0.32142825000001096,
          "durationTicks": 288,
          "midi": 39,
          "name": "D#2",
          "ticks": 99072,
          "time": 110.571318,
          "velocity": 0.3937007874015748
        },
        {
          "duration": 0.32142825000001096,
          "durationTicks": 288,
          "midi": 70,
          "name": "A#4",
          "ticks": 99072,
          "time": 110.571318,
          "velocity": 0.3937007874015748
        },
        {
          "duration": 0.32142824999999675,
          "durationTicks": 288,
          "midi": 39,
          "name": "D#2",
          "ticks": 99264,
          "time": 110.78560350000001,
          "velocity": 0.3937007874015748
        },
        {
          "duration": 0.32142824999999675,
          "durationTicks": 288,
          "midi": 51,
          "name": "D#3",
          "ticks": 99360,
          "time": 110.89274625000002,
          "velocity": 0.3937007874015748
        },
        {
          "duration": 0.32142824999999675,
          "durationTicks": 288,
          "midi": 39,
          "name": "D#2",
          "ticks": 99456,
          "time": 110.99988900000001,
          "velocity": 0.3937007874015748
        },
        {
          "duration": 0.32142824999999675,
          "durationTicks": 288,
          "midi": 75,
          "name": "D#5",
          "ticks": 99456,
          "time": 110.99988900000001,
          "velocity": 0.3937007874015748
        },
        {
          "duration": 0.32142825000001096,
          "durationTicks": 288,
          "midi": 51,
          "name": "D#3",
          "ticks": 99552,
          "time": 111.10703175,
          "velocity": 0.3937007874015748
        },
        {
          "duration": 0.32142824999999675,
          "durationTicks": 288,
          "midi": 49,
          "name": "C#3",
          "ticks": 99648,
          "time": 111.21417450000001,
          "velocity": 0.3937007874015748
        },
        {
          "duration": 0.32142824999999675,
          "durationTicks": 288,
          "midi": 39,
          "name": "D#2",
          "ticks": 99648,
          "time": 111.21417450000001,
          "velocity": 0.3937007874015748
        },
        {
          "duration": 0.32142824999999675,
          "durationTicks": 288,
          "midi": 73,
          "name": "C#5",
          "ticks": 99648,
          "time": 111.21417450000001,
          "velocity": 0.3937007874015748
        },
        {
          "duration": 0.32142824999999675,
          "durationTicks": 288,
          "midi": 51,
          "name": "D#3",
          "ticks": 99744,
          "time": 111.32131725,
          "velocity": 0.3937007874015748
        },
        {
          "duration": 0.32142824999999675,
          "durationTicks": 288,
          "midi": 39,
          "name": "D#2",
          "ticks": 99840,
          "time": 111.42846000000002,
          "velocity": 0.3937007874015748
        },
        {
          "duration": 0.32142824999999675,
          "durationTicks": 288,
          "midi": 70,
          "name": "A#4",
          "ticks": 99840,
          "time": 111.42846000000002,
          "velocity": 0.3937007874015748
        },
        {
          "duration": 0.32142825000001096,
          "durationTicks": 288,
          "midi": 39,
          "name": "D#2",
          "ticks": 100032,
          "time": 111.6427455,
          "velocity": 0.3937007874015748
        },
        {
          "duration": 0.32142824999999675,
          "durationTicks": 288,
          "midi": 51,
          "name": "D#3",
          "ticks": 100128,
          "time": 111.74988825000001,
          "velocity": 0.3937007874015748
        },
        {
          "duration": 0.32142824999999675,
          "durationTicks": 288,
          "midi": 39,
          "name": "D#2",
          "ticks": 100224,
          "time": 111.857031,
          "velocity": 0.3937007874015748
        },
        {
          "duration": 0.32142824999999675,
          "durationTicks": 288,
          "midi": 63,
          "name": "D#4",
          "ticks": 100224,
          "time": 111.857031,
          "velocity": 0.3937007874015748
        },
        {
          "duration": 0.32142824999999675,
          "durationTicks": 288,
          "midi": 51,
          "name": "D#3",
          "ticks": 100320,
          "time": 111.96417375000001,
          "velocity": 0.3937007874015748
        },
        {
          "duration": 0.32142824999999675,
          "durationTicks": 288,
          "midi": 49,
          "name": "C#3",
          "ticks": 100416,
          "time": 112.07131650000001,
          "velocity": 0.3937007874015748
        },
        {
          "duration": 0.32142824999999675,
          "durationTicks": 288,
          "midi": 39,
          "name": "D#2",
          "ticks": 100416,
          "time": 112.07131650000001,
          "velocity": 0.3937007874015748
        },
        {
          "duration": 0.32142825000001096,
          "durationTicks": 288,
          "midi": 51,
          "name": "D#3",
          "ticks": 100512,
          "time": 112.17845925,
          "velocity": 0.3937007874015748
        },
        {
          "duration": 0.32142824999999675,
          "durationTicks": 288,
          "midi": 39,
          "name": "D#2",
          "ticks": 100608,
          "time": 112.28560200000001,
          "velocity": 0.3937007874015748
        },
        {
          "duration": 0.32142824999999675,
          "durationTicks": 288,
          "midi": 70,
          "name": "A#4",
          "ticks": 100608,
          "time": 112.28560200000001,
          "velocity": 0.3937007874015748
        },
        {
          "duration": 0.32142824999999675,
          "durationTicks": 288,
          "midi": 39,
          "name": "D#2",
          "ticks": 100800,
          "time": 112.49988750000001,
          "velocity": 0.3937007874015748
        },
        {
          "duration": 0.32142824999999675,
          "durationTicks": 288,
          "midi": 68,
          "name": "G#4",
          "ticks": 100800,
          "time": 112.49988750000001,
          "velocity": 0.3937007874015748
        },
        {
          "duration": 0.32142824999999675,
          "durationTicks": 288,
          "midi": 51,
          "name": "D#3",
          "ticks": 100896,
          "time": 112.60703025000001,
          "velocity": 0.3937007874015748
        },
        {
          "duration": 0.32142825000001096,
          "durationTicks": 288,
          "midi": 39,
          "name": "D#2",
          "ticks": 100992,
          "time": 112.714173,
          "velocity": 0.3937007874015748
        },
        {
          "duration": 0.32142825000001096,
          "durationTicks": 288,
          "midi": 66,
          "name": "F#4",
          "ticks": 100992,
          "time": 112.714173,
          "velocity": 0.3937007874015748
        },
        {
          "duration": 0.32142824999999675,
          "durationTicks": 288,
          "midi": 51,
          "name": "D#3",
          "ticks": 101088,
          "time": 112.82131575000001,
          "velocity": 0.3937007874015748
        },
        {
          "duration": 0.32142825000001096,
          "durationTicks": 288,
          "midi": 49,
          "name": "C#3",
          "ticks": 101184,
          "time": 112.9284585,
          "velocity": 0.3937007874015748
        },
        {
          "duration": 0.32142825000001096,
          "durationTicks": 288,
          "midi": 39,
          "name": "D#2",
          "ticks": 101184,
          "time": 112.9284585,
          "velocity": 0.3937007874015748
        },
        {
          "duration": 0.32142825000001096,
          "durationTicks": 288,
          "midi": 65,
          "name": "F4",
          "ticks": 101184,
          "time": 112.9284585,
          "velocity": 0.3937007874015748
        },
        {
          "duration": 0.32142824999999675,
          "durationTicks": 288,
          "midi": 51,
          "name": "D#3",
          "ticks": 101280,
          "time": 113.03560125000001,
          "velocity": 0.3937007874015748
        },
        {
          "duration": 0.32142824999999675,
          "durationTicks": 288,
          "midi": 35,
          "name": "B1",
          "ticks": 101376,
          "time": 113.14274400000001,
          "velocity": 0.3937007874015748
        },
        {
          "duration": 0.32142824999999675,
          "durationTicks": 288,
          "midi": 63,
          "name": "D#4",
          "ticks": 101376,
          "time": 113.14274400000001,
          "velocity": 0.3937007874015748
        },
        {
          "duration": 0.32142824999999675,
          "durationTicks": 288,
          "midi": 35,
          "name": "B1",
          "ticks": 101568,
          "time": 113.35702950000001,
          "velocity": 0.3937007874015748
        },
        {
          "duration": 0.32142824999999675,
          "durationTicks": 288,
          "midi": 65,
          "name": "F4",
          "ticks": 101568,
          "time": 113.35702950000001,
          "velocity": 0.3937007874015748
        },
        {
          "duration": 0.32142825000001096,
          "durationTicks": 288,
          "midi": 51,
          "name": "D#3",
          "ticks": 101664,
          "time": 113.46417225,
          "velocity": 0.3937007874015748
        },
        {
          "duration": 0.32142824999999675,
          "durationTicks": 288,
          "midi": 35,
          "name": "B1",
          "ticks": 101760,
          "time": 113.57131500000001,
          "velocity": 0.3937007874015748
        },
        {
          "duration": 0.32142824999999675,
          "durationTicks": 288,
          "midi": 66,
          "name": "F#4",
          "ticks": 101760,
          "time": 113.57131500000001,
          "velocity": 0.3937007874015748
        },
        {
          "duration": 0.32142824999999675,
          "durationTicks": 288,
          "midi": 51,
          "name": "D#3",
          "ticks": 101856,
          "time": 113.67845775,
          "velocity": 0.3937007874015748
        },
        {
          "duration": 0.32142824999999675,
          "durationTicks": 288,
          "midi": 49,
          "name": "C#3",
          "ticks": 101952,
          "time": 113.78560050000002,
          "velocity": 0.3937007874015748
        },
        {
          "duration": 0.32142824999999675,
          "durationTicks": 288,
          "midi": 35,
          "name": "B1",
          "ticks": 101952,
          "time": 113.78560050000002,
          "velocity": 0.3937007874015748
        },
        {
          "duration": 0.32142824999999675,
          "durationTicks": 288,
          "midi": 68,
          "name": "G#4",
          "ticks": 101952,
          "time": 113.78560050000002,
          "velocity": 0.3937007874015748
        },
        {
          "duration": 0.32142824999999675,
          "durationTicks": 288,
          "midi": 51,
          "name": "D#3",
          "ticks": 102048,
          "time": 113.89274325000001,
          "velocity": 0.3937007874015748
        },
        {
          "duration": 0.32142825000001096,
          "durationTicks": 288,
          "midi": 35,
          "name": "B1",
          "ticks": 102144,
          "time": 113.999886,
          "velocity": 0.3937007874015748
        },
        {
          "duration": 0.32142825000001096,
          "durationTicks": 288,
          "midi": 70,
          "name": "A#4",
          "ticks": 102144,
          "time": 113.999886,
          "velocity": 0.3937007874015748
        },
        {
          "duration": 0.32142824999999675,
          "durationTicks": 288,
          "midi": 35,
          "name": "B1",
          "ticks": 102336,
          "time": 114.2141715,
          "velocity": 0.3937007874015748
        },
        {
          "duration": 0.32142824999999675,
          "durationTicks": 288,
          "midi": 51,
          "name": "D#3",
          "ticks": 102432,
          "time": 114.32131425000001,
          "velocity": 0.3937007874015748
        },
        {
          "duration": 0.32142824999999675,
          "durationTicks": 288,
          "midi": 35,
          "name": "B1",
          "ticks": 102528,
          "time": 114.42845700000001,
          "velocity": 0.3937007874015748
        },
        {
          "duration": 0.32142824999999675,
          "durationTicks": 288,
          "midi": 68,
          "name": "G#4",
          "ticks": 102528,
          "time": 114.42845700000001,
          "velocity": 0.3937007874015748
        },
        {
          "duration": 0.32142825000001096,
          "durationTicks": 288,
          "midi": 51,
          "name": "D#3",
          "ticks": 102624,
          "time": 114.53559975,
          "velocity": 0.3937007874015748
        },
        {
          "duration": 0.32142824999999675,
          "durationTicks": 288,
          "midi": 49,
          "name": "C#3",
          "ticks": 102720,
          "time": 114.64274250000001,
          "velocity": 0.3937007874015748
        },
        {
          "duration": 0.32142824999999675,
          "durationTicks": 288,
          "midi": 35,
          "name": "B1",
          "ticks": 102720,
          "time": 114.64274250000001,
          "velocity": 0.3937007874015748
        },
        {
          "duration": 0.32142824999999675,
          "durationTicks": 288,
          "midi": 66,
          "name": "F#4",
          "ticks": 102720,
          "time": 114.64274250000001,
          "velocity": 0.3937007874015748
        },
        {
          "duration": 0.32142825000001096,
          "durationTicks": 288,
          "midi": 51,
          "name": "D#3",
          "ticks": 102816,
          "time": 114.74988525,
          "velocity": 0.3937007874015748
        },
        {
          "duration": 0.32142824999999675,
          "durationTicks": 288,
          "midi": 35,
          "name": "B1",
          "ticks": 102912,
          "time": 114.85702800000001,
          "velocity": 0.3937007874015748
        },
        {
          "duration": 0.32142824999999675,
          "durationTicks": 288,
          "midi": 65,
          "name": "F4",
          "ticks": 102912,
          "time": 114.85702800000001,
          "velocity": 0.3937007874015748
        },
        {
          "duration": 0.32142824999999675,
          "durationTicks": 288,
          "midi": 35,
          "name": "B1",
          "ticks": 103104,
          "time": 115.07131350000002,
          "velocity": 0.3937007874015748
        },
        {
          "duration": 0.32142824999999675,
          "durationTicks": 288,
          "midi": 63,
          "name": "D#4",
          "ticks": 103104,
          "time": 115.07131350000002,
          "velocity": 0.3937007874015748
        },
        {
          "duration": 0.32142824999999675,
          "durationTicks": 288,
          "midi": 51,
          "name": "D#3",
          "ticks": 103200,
          "time": 115.17845625000001,
          "velocity": 0.3937007874015748
        },
        {
          "duration": 0.32142825000001096,
          "durationTicks": 288,
          "midi": 35,
          "name": "B1",
          "ticks": 103296,
          "time": 115.285599,
          "velocity": 0.3937007874015748
        },
        {
          "duration": 0.32142825000001096,
          "durationTicks": 288,
          "midi": 65,
          "name": "F4",
          "ticks": 103296,
          "time": 115.285599,
          "velocity": 0.3937007874015748
        },
        {
          "duration": 0.32142824999999675,
          "durationTicks": 288,
          "midi": 51,
          "name": "D#3",
          "ticks": 103392,
          "time": 115.39274175000001,
          "velocity": 0.3937007874015748
        },
        {
          "duration": 0.32142824999999675,
          "durationTicks": 288,
          "midi": 49,
          "name": "C#3",
          "ticks": 103488,
          "time": 115.49988450000001,
          "velocity": 0.3937007874015748
        },
        {
          "duration": 0.32142824999999675,
          "durationTicks": 288,
          "midi": 35,
          "name": "B1",
          "ticks": 103488,
          "time": 115.49988450000001,
          "velocity": 0.3937007874015748
        },
        {
          "duration": 0.32142824999999675,
          "durationTicks": 288,
          "midi": 66,
          "name": "F#4",
          "ticks": 103488,
          "time": 115.49988450000001,
          "velocity": 0.3937007874015748
        },
        {
          "duration": 0.32142824999999675,
          "durationTicks": 288,
          "midi": 51,
          "name": "D#3",
          "ticks": 103584,
          "time": 115.60702725000002,
          "velocity": 0.3937007874015748
        },
        {
          "duration": 0.32142824999999675,
          "durationTicks": 288,
          "midi": 37,
          "name": "C#2",
          "ticks": 103680,
          "time": 115.71417000000001,
          "velocity": 0.3937007874015748
        },
        {
          "duration": 0.32142824999999675,
          "durationTicks": 288,
          "midi": 65,
          "name": "F4",
          "ticks": 103680,
          "time": 115.71417000000001,
          "velocity": 0.3937007874015748
        },
        {
          "duration": 0.32142824999999675,
          "durationTicks": 288,
          "midi": 37,
          "name": "C#2",
          "ticks": 103872,
          "time": 115.92845550000001,
          "velocity": 0.3937007874015748
        },
        {
          "duration": 0.32142824999999675,
          "durationTicks": 288,
          "midi": 63,
          "name": "D#4",
          "ticks": 103872,
          "time": 115.92845550000001,
          "velocity": 0.3937007874015748
        },
        {
          "duration": 0.32142824999999675,
          "durationTicks": 288,
          "midi": 51,
          "name": "D#3",
          "ticks": 103968,
          "time": 116.03559825,
          "velocity": 0.3937007874015748
        },
        {
          "duration": 0.32142824999999675,
          "durationTicks": 288,
          "midi": 37,
          "name": "C#2",
          "ticks": 104064,
          "time": 116.14274100000002,
          "velocity": 0.3937007874015748
        },
        {
          "duration": 0.32142824999999675,
          "durationTicks": 288,
          "midi": 62,
          "name": "D4",
          "ticks": 104064,
          "time": 116.14274100000002,
          "velocity": 0.3937007874015748
        },
        {
          "duration": 0.32142824999999675,
          "durationTicks": 288,
          "midi": 51,
          "name": "D#3",
          "ticks": 104160,
          "time": 116.24988375000001,
          "velocity": 0.3937007874015748
        },
        {
          "duration": 0.32142825000001096,
          "durationTicks": 288,
          "midi": 49,
          "name": "C#3",
          "ticks": 104256,
          "time": 116.3570265,
          "velocity": 0.3937007874015748
        },
        {
          "duration": 0.32142825000001096,
          "durationTicks": 288,
          "midi": 37,
          "name": "C#2",
          "ticks": 104256,
          "time": 116.3570265,
          "velocity": 0.3937007874015748
        },
        {
          "duration": 0.32142825000001096,
          "durationTicks": 288,
          "midi": 65,
          "name": "F4",
          "ticks": 104256,
          "time": 116.3570265,
          "velocity": 0.3937007874015748
        },
        {
          "duration": 0.32142824999999675,
          "durationTicks": 288,
          "midi": 51,
          "name": "D#3",
          "ticks": 104352,
          "time": 116.46416925000001,
          "velocity": 0.3937007874015748
        },
        {
          "duration": 0.32142824999999675,
          "durationTicks": 288,
          "midi": 39,
          "name": "D#2",
          "ticks": 104448,
          "time": 116.571312,
          "velocity": 0.3937007874015748
        },
        {
          "duration": 0.32142824999999675,
          "durationTicks": 288,
          "midi": 63,
          "name": "D#4",
          "ticks": 104448,
          "time": 116.571312,
          "velocity": 0.3937007874015748
        },
        {
          "duration": 0.32142824999999675,
          "durationTicks": 288,
          "midi": 39,
          "name": "D#2",
          "ticks": 104640,
          "time": 116.78559750000001,
          "velocity": 0.3937007874015748
        },
        {
          "duration": 0.32142824999999675,
          "durationTicks": 288,
          "midi": 65,
          "name": "F4",
          "ticks": 104640,
          "time": 116.78559750000001,
          "velocity": 0.3937007874015748
        },
        {
          "duration": 0.32142825000001096,
          "durationTicks": 288,
          "midi": 51,
          "name": "D#3",
          "ticks": 104736,
          "time": 116.89274025,
          "velocity": 0.3937007874015748
        },
        {
          "duration": 0.32142824999999675,
          "durationTicks": 288,
          "midi": 39,
          "name": "D#2",
          "ticks": 104832,
          "time": 116.99988300000001,
          "velocity": 0.3937007874015748
        },
        {
          "duration": 0.32142824999999675,
          "durationTicks": 288,
          "midi": 66,
          "name": "F#4",
          "ticks": 104832,
          "time": 116.99988300000001,
          "velocity": 0.3937007874015748
        },
        {
          "duration": 0.32142825000001096,
          "durationTicks": 288,
          "midi": 51,
          "name": "D#3",
          "ticks": 104928,
          "time": 117.10702575,
          "velocity": 0.3937007874015748
        },
        {
          "duration": 0.32142824999999675,
          "durationTicks": 288,
          "midi": 49,
          "name": "C#3",
          "ticks": 105024,
          "time": 117.21416850000001,
          "velocity": 0.3937007874015748
        },
        {
          "duration": 0.32142824999999675,
          "durationTicks": 288,
          "midi": 39,
          "name": "D#2",
          "ticks": 105024,
          "time": 117.21416850000001,
          "velocity": 0.3937007874015748
        },
        {
          "duration": 0.32142824999999675,
          "durationTicks": 288,
          "midi": 68,
          "name": "G#4",
          "ticks": 105024,
          "time": 117.21416850000001,
          "velocity": 0.3937007874015748
        },
        {
          "duration": 0.32142824999999675,
          "durationTicks": 288,
          "midi": 51,
          "name": "D#3",
          "ticks": 105120,
          "time": 117.32131125000001,
          "velocity": 0.3937007874015748
        },
        {
          "duration": 0.32142824999999675,
          "durationTicks": 288,
          "midi": 39,
          "name": "D#2",
          "ticks": 105216,
          "time": 117.42845400000002,
          "velocity": 0.3937007874015748
        },
        {
          "duration": 0.32142824999999675,
          "durationTicks": 288,
          "midi": 70,
          "name": "A#4",
          "ticks": 105216,
          "time": 117.42845400000002,
          "velocity": 0.3937007874015748
        },
        {
          "duration": 0.32142825000001096,
          "durationTicks": 288,
          "midi": 39,
          "name": "D#2",
          "ticks": 105408,
          "time": 117.6427395,
          "velocity": 0.3937007874015748
        },
        {
          "duration": 0.32142824999999675,
          "durationTicks": 288,
          "midi": 51,
          "name": "D#3",
          "ticks": 105504,
          "time": 117.74988225000001,
          "velocity": 0.3937007874015748
        },
        {
          "duration": 0.32142824999999675,
          "durationTicks": 288,
          "midi": 39,
          "name": "D#2",
          "ticks": 105600,
          "time": 117.85702500000001,
          "velocity": 0.3937007874015748
        },
        {
          "duration": 0.32142824999999675,
          "durationTicks": 288,
          "midi": 75,
          "name": "D#5",
          "ticks": 105600,
          "time": 117.85702500000001,
          "velocity": 0.3937007874015748
        },
        {
          "duration": 0.32142824999999675,
          "durationTicks": 288,
          "midi": 51,
          "name": "D#3",
          "ticks": 105696,
          "time": 117.96416775000002,
          "velocity": 0.3937007874015748
        },
        {
          "duration": 0.32142824999999675,
          "durationTicks": 288,
          "midi": 49,
          "name": "C#3",
          "ticks": 105792,
          "time": 118.07131050000001,
          "velocity": 0.3937007874015748
        },
        {
          "duration": 0.32142824999999675,
          "durationTicks": 288,
          "midi": 39,
          "name": "D#2",
          "ticks": 105792,
          "time": 118.07131050000001,
          "velocity": 0.3937007874015748
        },
        {
          "duration": 0.32142824999999675,
          "durationTicks": 288,
          "midi": 73,
          "name": "C#5",
          "ticks": 105792,
          "time": 118.07131050000001,
          "velocity": 0.3937007874015748
        },
        {
          "duration": 0.32142825000001096,
          "durationTicks": 288,
          "midi": 51,
          "name": "D#3",
          "ticks": 105888,
          "time": 118.17845325,
          "velocity": 0.3937007874015748
        },
        {
          "duration": 0.32142824999999675,
          "durationTicks": 288,
          "midi": 39,
          "name": "D#2",
          "ticks": 105984,
          "time": 118.28559600000001,
          "velocity": 0.3937007874015748
        },
        {
          "duration": 0.32142824999999675,
          "durationTicks": 288,
          "midi": 70,
          "name": "A#4",
          "ticks": 105984,
          "time": 118.28559600000001,
          "velocity": 0.3937007874015748
        },
        {
          "duration": 0.32142824999999675,
          "durationTicks": 288,
          "midi": 39,
          "name": "D#2",
          "ticks": 106176,
          "time": 118.49988150000001,
          "velocity": 0.3937007874015748
        },
        {
          "duration": 0.32142824999999675,
          "durationTicks": 288,
          "midi": 51,
          "name": "D#3",
          "ticks": 106272,
          "time": 118.60702425000001,
          "velocity": 0.3937007874015748
        },
        {
          "duration": 0.32142825000001096,
          "durationTicks": 288,
          "midi": 39,
          "name": "D#2",
          "ticks": 106368,
          "time": 118.714167,
          "velocity": 0.3937007874015748
        },
        {
          "duration": 0.32142825000001096,
          "durationTicks": 288,
          "midi": 63,
          "name": "D#4",
          "ticks": 106368,
          "time": 118.714167,
          "velocity": 0.3937007874015748
        },
        {
          "duration": 0.32142824999999675,
          "durationTicks": 288,
          "midi": 51,
          "name": "D#3",
          "ticks": 106464,
          "time": 118.82130975000001,
          "velocity": 0.3937007874015748
        },
        {
          "duration": 0.32142825000001096,
          "durationTicks": 288,
          "midi": 49,
          "name": "C#3",
          "ticks": 106560,
          "time": 118.9284525,
          "velocity": 0.3937007874015748
        },
        {
          "duration": 0.32142825000001096,
          "durationTicks": 288,
          "midi": 39,
          "name": "D#2",
          "ticks": 106560,
          "time": 118.9284525,
          "velocity": 0.3937007874015748
        },
        {
          "duration": 0.32142824999999675,
          "durationTicks": 288,
          "midi": 51,
          "name": "D#3",
          "ticks": 106656,
          "time": 119.03559525000001,
          "velocity": 0.3937007874015748
        },
        {
          "duration": 0.32142824999999675,
          "durationTicks": 288,
          "midi": 39,
          "name": "D#2",
          "ticks": 106752,
          "time": 119.14273800000001,
          "velocity": 0.3937007874015748
        },
        {
          "duration": 0.32142824999999675,
          "durationTicks": 288,
          "midi": 70,
          "name": "A#4",
          "ticks": 106752,
          "time": 119.14273800000001,
          "velocity": 0.3937007874015748
        },
        {
          "duration": 0.32142824999999675,
          "durationTicks": 288,
          "midi": 39,
          "name": "D#2",
          "ticks": 106944,
          "time": 119.35702350000001,
          "velocity": 0.3937007874015748
        },
        {
          "duration": 0.32142824999999675,
          "durationTicks": 288,
          "midi": 68,
          "name": "G#4",
          "ticks": 106944,
          "time": 119.35702350000001,
          "velocity": 0.3937007874015748
        },
        {
          "duration": 0.32142825000001096,
          "durationTicks": 288,
          "midi": 51,
          "name": "D#3",
          "ticks": 107040,
          "time": 119.46416625,
          "velocity": 0.3937007874015748
        },
        {
          "duration": 0.32142824999999675,
          "durationTicks": 288,
          "midi": 39,
          "name": "D#2",
          "ticks": 107136,
          "time": 119.57130900000001,
          "velocity": 0.3937007874015748
        },
        {
          "duration": 0.32142824999999675,
          "durationTicks": 288,
          "midi": 66,
          "name": "F#4",
          "ticks": 107136,
          "time": 119.57130900000001,
          "velocity": 0.3937007874015748
        },
        {
          "duration": 0.32142824999999675,
          "durationTicks": 288,
          "midi": 51,
          "name": "D#3",
          "ticks": 107232,
          "time": 119.67845175000001,
          "velocity": 0.3937007874015748
        },
        {
          "duration": 0.32142824999999675,
          "durationTicks": 288,
          "midi": 49,
          "name": "C#3",
          "ticks": 107328,
          "time": 119.78559450000002,
          "velocity": 0.3937007874015748
        },
        {
          "duration": 0.32142824999999675,
          "durationTicks": 288,
          "midi": 39,
          "name": "D#2",
          "ticks": 107328,
          "time": 119.78559450000002,
          "velocity": 0.3937007874015748
        },
        {
          "duration": 0.32142824999999675,
          "durationTicks": 288,
          "midi": 65,
          "name": "F4",
          "ticks": 107328,
          "time": 119.78559450000002,
          "velocity": 0.3937007874015748
        },
        {
          "duration": 0.32142824999999675,
          "durationTicks": 288,
          "midi": 51,
          "name": "D#3",
          "ticks": 107424,
          "time": 119.89273725000001,
          "velocity": 0.3937007874015748
        },
        {
          "duration": 0.32142825000001096,
          "durationTicks": 288,
          "midi": 35,
          "name": "B1",
          "ticks": 107520,
          "time": 119.99988,
          "velocity": 0.3937007874015748
        },
        {
          "duration": 0.32142825000001096,
          "durationTicks": 288,
          "midi": 63,
          "name": "D#4",
          "ticks": 107520,
          "time": 119.99988,
          "velocity": 0.3937007874015748
        },
        {
          "duration": 0.32142824999999675,
          "durationTicks": 288,
          "midi": 35,
          "name": "B1",
          "ticks": 107712,
          "time": 120.21416550000001,
          "velocity": 0.3937007874015748
        },
        {
          "duration": 0.32142824999999675,
          "durationTicks": 288,
          "midi": 65,
          "name": "F4",
          "ticks": 107712,
          "time": 120.21416550000001,
          "velocity": 0.3937007874015748
        },
        {
          "duration": 0.32142824999999675,
          "durationTicks": 288,
          "midi": 51,
          "name": "D#3",
          "ticks": 107808,
          "time": 120.32130825000002,
          "velocity": 0.3937007874015748
        },
        {
          "duration": 0.32142824999999675,
          "durationTicks": 288,
          "midi": 35,
          "name": "B1",
          "ticks": 107904,
          "time": 120.42845100000001,
          "velocity": 0.3937007874015748
        },
        {
          "duration": 0.32142824999999675,
          "durationTicks": 288,
          "midi": 66,
          "name": "F#4",
          "ticks": 107904,
          "time": 120.42845100000001,
          "velocity": 0.3937007874015748
        },
        {
          "duration": 0.32142825000001096,
          "durationTicks": 288,
          "midi": 51,
          "name": "D#3",
          "ticks": 108000,
          "time": 120.53559375,
          "velocity": 0.3937007874015748
        },
        {
          "duration": 0.32142824999999675,
          "durationTicks": 288,
          "midi": 49,
          "name": "C#3",
          "ticks": 108096,
          "time": 120.64273650000001,
          "velocity": 0.3937007874015748
        },
        {
          "duration": 0.32142824999999675,
          "durationTicks": 288,
          "midi": 35,
          "name": "B1",
          "ticks": 108096,
          "time": 120.64273650000001,
          "velocity": 0.3937007874015748
        },
        {
          "duration": 0.32142824999999675,
          "durationTicks": 288,
          "midi": 68,
          "name": "G#4",
          "ticks": 108096,
          "time": 120.64273650000001,
          "velocity": 0.3937007874015748
        },
        {
          "duration": 0.32142824999999675,
          "durationTicks": 288,
          "midi": 51,
          "name": "D#3",
          "ticks": 108192,
          "time": 120.74987925,
          "velocity": 0.3937007874015748
        },
        {
          "duration": 0.32142824999999675,
          "durationTicks": 288,
          "midi": 35,
          "name": "B1",
          "ticks": 108288,
          "time": 120.85702200000001,
          "velocity": 0.3937007874015748
        },
        {
          "duration": 0.32142824999999675,
          "durationTicks": 288,
          "midi": 70,
          "name": "A#4",
          "ticks": 108288,
          "time": 120.85702200000001,
          "velocity": 0.3937007874015748
        },
        {
          "duration": 0.32142825000001096,
          "durationTicks": 288,
          "midi": 35,
          "name": "B1",
          "ticks": 108480,
          "time": 121.0713075,
          "velocity": 0.3937007874015748
        },
        {
          "duration": 0.32142824999999675,
          "durationTicks": 288,
          "midi": 51,
          "name": "D#3",
          "ticks": 108576,
          "time": 121.17845025000001,
          "velocity": 0.3937007874015748
        },
        {
          "duration": 0.32142825000001096,
          "durationTicks": 288,
          "midi": 35,
          "name": "B1",
          "ticks": 108672,
          "time": 121.285593,
          "velocity": 0.3937007874015748
        },
        {
          "duration": 0.32142825000001096,
          "durationTicks": 288,
          "midi": 68,
          "name": "G#4",
          "ticks": 108672,
          "time": 121.285593,
          "velocity": 0.3937007874015748
        },
        {
          "duration": 0.32142824999999675,
          "durationTicks": 288,
          "midi": 51,
          "name": "D#3",
          "ticks": 108768,
          "time": 121.39273575000001,
          "velocity": 0.3937007874015748
        },
        {
          "duration": 0.32142824999999675,
          "durationTicks": 288,
          "midi": 49,
          "name": "C#3",
          "ticks": 108864,
          "time": 121.49987850000001,
          "velocity": 0.3937007874015748
        },
        {
          "duration": 0.32142824999999675,
          "durationTicks": 288,
          "midi": 35,
          "name": "B1",
          "ticks": 108864,
          "time": 121.49987850000001,
          "velocity": 0.3937007874015748
        },
        {
          "duration": 0.32142824999999675,
          "durationTicks": 288,
          "midi": 66,
          "name": "F#4",
          "ticks": 108864,
          "time": 121.49987850000001,
          "velocity": 0.3937007874015748
        },
        {
          "duration": 0.32142824999999675,
          "durationTicks": 288,
          "midi": 51,
          "name": "D#3",
          "ticks": 108960,
          "time": 121.60702125000002,
          "velocity": 0.3937007874015748
        },
        {
          "duration": 0.32142824999999675,
          "durationTicks": 288,
          "midi": 35,
          "name": "B1",
          "ticks": 109056,
          "time": 121.71416400000001,
          "velocity": 0.3937007874015748
        },
        {
          "duration": 0.32142824999999675,
          "durationTicks": 288,
          "midi": 65,
          "name": "F4",
          "ticks": 109056,
          "time": 121.71416400000001,
          "velocity": 0.3937007874015748
        },
        {
          "duration": 0.32142824999999675,
          "durationTicks": 288,
          "midi": 53,
          "name": "F3",
          "ticks": 109056,
          "time": 121.71416400000001,
          "velocity": 0.3937007874015748
        },
        {
          "duration": 0.32142824999999675,
          "durationTicks": 288,
          "midi": 35,
          "name": "B1",
          "ticks": 109248,
          "time": 121.92844950000001,
          "velocity": 0.3937007874015748
        },
        {
          "duration": 0.32142824999999675,
          "durationTicks": 288,
          "midi": 65,
          "name": "F4",
          "ticks": 109248,
          "time": 121.92844950000001,
          "velocity": 0.3937007874015748
        },
        {
          "duration": 0.32142824999999675,
          "durationTicks": 288,
          "midi": 35,
          "name": "B1",
          "ticks": 109440,
          "time": 122.14273500000002,
          "velocity": 0.3937007874015748
        },
        {
          "duration": 0.32142824999999675,
          "durationTicks": 288,
          "midi": 66,
          "name": "F#4",
          "ticks": 109440,
          "time": 122.14273500000002,
          "velocity": 0.3937007874015748
        },
        {
          "duration": 0.32142824999999675,
          "durationTicks": 288,
          "midi": 54,
          "name": "F#3",
          "ticks": 109440,
          "time": 122.14273500000002,
          "velocity": 0.3937007874015748
        },
        {
          "duration": 0.32142825000001096,
          "durationTicks": 288,
          "midi": 35,
          "name": "B1",
          "ticks": 109632,
          "time": 122.3570205,
          "velocity": 0.3937007874015748
        },
        {
          "duration": 0.32142825000001096,
          "durationTicks": 288,
          "midi": 66,
          "name": "F#4",
          "ticks": 109632,
          "time": 122.3570205,
          "velocity": 0.3937007874015748
        },
        {
          "duration": 0.32142824999999675,
          "durationTicks": 288,
          "midi": 37,
          "name": "C#2",
          "ticks": 109824,
          "time": 122.571306,
          "velocity": 0.3937007874015748
        },
        {
          "duration": 0.32142824999999675,
          "durationTicks": 288,
          "midi": 68,
          "name": "G#4",
          "ticks": 109824,
          "time": 122.571306,
          "velocity": 0.3937007874015748
        },
        {
          "duration": 0.32142824999999675,
          "durationTicks": 288,
          "midi": 56,
          "name": "G#3",
          "ticks": 109824,
          "time": 122.571306,
          "velocity": 0.3937007874015748
        },
        {
          "duration": 0.32142824999999675,
          "durationTicks": 288,
          "midi": 37,
          "name": "C#2",
          "ticks": 110016,
          "time": 122.78559150000001,
          "velocity": 0.3937007874015748
        },
        {
          "duration": 0.32142824999999675,
          "durationTicks": 288,
          "midi": 68,
          "name": "G#4",
          "ticks": 110016,
          "time": 122.78559150000001,
          "velocity": 0.3937007874015748
        },
        {
          "duration": 0.32142824999999675,
          "durationTicks": 288,
          "midi": 37,
          "name": "C#2",
          "ticks": 110208,
          "time": 122.99987700000001,
          "velocity": 0.3937007874015748
        },
        {
          "duration": 0.32142824999999675,
          "durationTicks": 288,
          "midi": 70,
          "name": "A#4",
          "ticks": 110208,
          "time": 122.99987700000001,
          "velocity": 0.3937007874015748
        },
        {
          "duration": 0.32142824999999675,
          "durationTicks": 288,
          "midi": 58,
          "name": "A#3",
          "ticks": 110208,
          "time": 122.99987700000001,
          "velocity": 0.3937007874015748
        },
        {
          "duration": 0.32142824999999675,
          "durationTicks": 288,
          "midi": 37,
          "name": "C#2",
          "ticks": 110400,
          "time": 123.21416250000001,
          "velocity": 0.3937007874015748
        },
        {
          "duration": 0.32142824999999675,
          "durationTicks": 288,
          "midi": 70,
          "name": "A#4",
          "ticks": 110400,
          "time": 123.21416250000001,
          "velocity": 0.3937007874015748
        },
        {
          "duration": 0.32142825000001096,
          "durationTicks": 288,
          "midi": 39,
          "name": "D#2",
          "ticks": 110592,
          "time": 123.428448,
          "velocity": 0.3937007874015748
        },
        {
          "duration": 0.32142825000001096,
          "durationTicks": 288,
          "midi": 63,
          "name": "D#4",
          "ticks": 110592,
          "time": 123.428448,
          "velocity": 0.3937007874015748
        },
        {
          "duration": 0.32142825000001096,
          "durationTicks": 288,
          "midi": 75,
          "name": "D#5",
          "ticks": 110592,
          "time": 123.428448,
          "velocity": 0.3937007874015748
        },
        {
          "duration": 0.32142825000001096,
          "durationTicks": 288,
          "midi": 39,
          "name": "D#2",
          "ticks": 110784,
          "time": 123.6427335,
          "velocity": 0.3937007874015748
        },
        {
          "duration": 0.32142825000001096,
          "durationTicks": 288,
          "midi": 65,
          "name": "F4",
          "ticks": 110784,
          "time": 123.6427335,
          "velocity": 0.3937007874015748
        },
        {
          "duration": 0.32142825000001096,
          "durationTicks": 288,
          "midi": 77,
          "name": "F5",
          "ticks": 110784,
          "time": 123.6427335,
          "velocity": 0.3937007874015748
        },
        {
          "duration": 0.32142824999999675,
          "durationTicks": 288,
          "midi": 51,
          "name": "D#3",
          "ticks": 110880,
          "time": 123.74987625000001,
          "velocity": 0.3937007874015748
        },
        {
          "duration": 0.32142824999999675,
          "durationTicks": 288,
          "midi": 39,
          "name": "D#2",
          "ticks": 110976,
          "time": 123.85701900000001,
          "velocity": 0.3937007874015748
        },
        {
          "duration": 0.32142824999999675,
          "durationTicks": 288,
          "midi": 66,
          "name": "F#4",
          "ticks": 110976,
          "time": 123.85701900000001,
          "velocity": 0.3937007874015748
        },
        {
          "duration": 0.32142824999999675,
          "durationTicks": 288,
          "midi": 78,
          "name": "F#5",
          "ticks": 110976,
          "time": 123.85701900000001,
          "velocity": 0.3937007874015748
        },
        {
          "duration": 0.32142824999999675,
          "durationTicks": 288,
          "midi": 51,
          "name": "D#3",
          "ticks": 111072,
          "time": 123.96416175000002,
          "velocity": 0.3937007874015748
        },
        {
          "duration": 0.32142824999999675,
          "durationTicks": 288,
          "midi": 49,
          "name": "C#3",
          "ticks": 111168,
          "time": 124.07130450000001,
          "velocity": 0.3937007874015748
        },
        {
          "duration": 0.32142824999999675,
          "durationTicks": 288,
          "midi": 39,
          "name": "D#2",
          "ticks": 111168,
          "time": 124.07130450000001,
          "velocity": 0.3937007874015748
        },
        {
          "duration": 0.32142824999999675,
          "durationTicks": 288,
          "midi": 68,
          "name": "G#4",
          "ticks": 111168,
          "time": 124.07130450000001,
          "velocity": 0.3937007874015748
        },
        {
          "duration": 0.32142824999999675,
          "durationTicks": 288,
          "midi": 80,
          "name": "G#5",
          "ticks": 111168,
          "time": 124.07130450000001,
          "velocity": 0.3937007874015748
        },
        {
          "duration": 0.32142825000001096,
          "durationTicks": 288,
          "midi": 51,
          "name": "D#3",
          "ticks": 111264,
          "time": 124.17844725,
          "velocity": 0.3937007874015748
        },
        {
          "duration": 0.32142824999999675,
          "durationTicks": 288,
          "midi": 39,
          "name": "D#2",
          "ticks": 111360,
          "time": 124.28559000000001,
          "velocity": 0.3937007874015748
        },
        {
          "duration": 0.32142824999999675,
          "durationTicks": 288,
          "midi": 70,
          "name": "A#4",
          "ticks": 111360,
          "time": 124.28559000000001,
          "velocity": 0.3937007874015748
        },
        {
          "duration": 0.32142824999999675,
          "durationTicks": 288,
          "midi": 82,
          "name": "A#5",
          "ticks": 111360,
          "time": 124.28559000000001,
          "velocity": 0.3937007874015748
        },
        {
          "duration": 0.32142824999999675,
          "durationTicks": 288,
          "midi": 39,
          "name": "D#2",
          "ticks": 111552,
          "time": 124.49987550000002,
          "velocity": 0.3937007874015748
        },
        {
          "duration": 0.32142824999999675,
          "durationTicks": 288,
          "midi": 51,
          "name": "D#3",
          "ticks": 111648,
          "time": 124.60701825000001,
          "velocity": 0.3937007874015748
        },
        {
          "duration": 0.32142825000001096,
          "durationTicks": 288,
          "midi": 39,
          "name": "D#2",
          "ticks": 111744,
          "time": 124.714161,
          "velocity": 0.3937007874015748
        },
        {
          "duration": 0.32142825000001096,
          "durationTicks": 288,
          "midi": 75,
          "name": "D#5",
          "ticks": 111744,
          "time": 124.714161,
          "velocity": 0.3937007874015748
        },
        {
          "duration": 0.32142825000001096,
          "durationTicks": 288,
          "midi": 87,
          "name": "D#6",
          "ticks": 111744,
          "time": 124.714161,
          "velocity": 0.3937007874015748
        },
        {
          "duration": 0.32142824999999675,
          "durationTicks": 288,
          "midi": 51,
          "name": "D#3",
          "ticks": 111840,
          "time": 124.82130375000001,
          "velocity": 0.3937007874015748
        },
        {
          "duration": 0.32142824999999675,
          "durationTicks": 288,
          "midi": 49,
          "name": "C#3",
          "ticks": 111936,
          "time": 124.9284465,
          "velocity": 0.3937007874015748
        },
        {
          "duration": 0.32142824999999675,
          "durationTicks": 288,
          "midi": 39,
          "name": "D#2",
          "ticks": 111936,
          "time": 124.9284465,
          "velocity": 0.3937007874015748
        },
        {
          "duration": 0.32142824999999675,
          "durationTicks": 288,
          "midi": 73,
          "name": "C#5",
          "ticks": 111936,
          "time": 124.9284465,
          "velocity": 0.3937007874015748
        },
        {
          "duration": 0.32142824999999675,
          "durationTicks": 288,
          "midi": 85,
          "name": "C#6",
          "ticks": 111936,
          "time": 124.9284465,
          "velocity": 0.3937007874015748
        },
        {
          "duration": 0.32142824999999675,
          "durationTicks": 288,
          "midi": 51,
          "name": "D#3",
          "ticks": 112032,
          "time": 125.03558925000002,
          "velocity": 0.3937007874015748
        },
        {
          "duration": 0.32142824999999675,
          "durationTicks": 288,
          "midi": 39,
          "name": "D#2",
          "ticks": 112128,
          "time": 125.14273200000001,
          "velocity": 0.3937007874015748
        },
        {
          "duration": 0.32142824999999675,
          "durationTicks": 288,
          "midi": 70,
          "name": "A#4",
          "ticks": 112128,
          "time": 125.14273200000001,
          "velocity": 0.3937007874015748
        },
        {
          "duration": 0.32142824999999675,
          "durationTicks": 288,
          "midi": 82,
          "name": "A#5",
          "ticks": 112128,
          "time": 125.14273200000001,
          "velocity": 0.3937007874015748
        },
        {
          "duration": 0.32142824999999675,
          "durationTicks": 288,
          "midi": 39,
          "name": "D#2",
          "ticks": 112320,
          "time": 125.35701750000001,
          "velocity": 0.3937007874015748
        },
        {
          "duration": 0.32142825000001096,
          "durationTicks": 288,
          "midi": 51,
          "name": "D#3",
          "ticks": 112416,
          "time": 125.46416025,
          "velocity": 0.3937007874015748
        },
        {
          "duration": 0.32142824999999675,
          "durationTicks": 288,
          "midi": 39,
          "name": "D#2",
          "ticks": 112512,
          "time": 125.57130300000001,
          "velocity": 0.3937007874015748
        },
        {
          "duration": 0.32142824999999675,
          "durationTicks": 288,
          "midi": 63,
          "name": "D#4",
          "ticks": 112512,
          "time": 125.57130300000001,
          "velocity": 0.3937007874015748
        },
        {
          "duration": 0.32142824999999675,
          "durationTicks": 288,
          "midi": 75,
          "name": "D#5",
          "ticks": 112512,
          "time": 125.57130300000001,
          "velocity": 0.3937007874015748
        },
        {
          "duration": 0.32142824999999675,
          "durationTicks": 288,
          "midi": 51,
          "name": "D#3",
          "ticks": 112608,
          "time": 125.67844575000001,
          "velocity": 0.3937007874015748
        },
        {
          "duration": 0.32142824999999675,
          "durationTicks": 288,
          "midi": 49,
          "name": "C#3",
          "ticks": 112704,
          "time": 125.78558850000002,
          "velocity": 0.3937007874015748
        },
        {
          "duration": 0.32142824999999675,
          "durationTicks": 288,
          "midi": 39,
          "name": "D#2",
          "ticks": 112704,
          "time": 125.78558850000002,
          "velocity": 0.3937007874015748
        },
        {
          "duration": 0.32142824999999675,
          "durationTicks": 288,
          "midi": 51,
          "name": "D#3",
          "ticks": 112800,
          "time": 125.89273125000001,
          "velocity": 0.3937007874015748
        },
        {
          "duration": 0.32142825000001096,
          "durationTicks": 288,
          "midi": 39,
          "name": "D#2",
          "ticks": 112896,
          "time": 125.999874,
          "velocity": 0.3937007874015748
        },
        {
          "duration": 0.32142825000001096,
          "durationTicks": 288,
          "midi": 70,
          "name": "A#4",
          "ticks": 112896,
          "time": 125.999874,
          "velocity": 0.3937007874015748
        },
        {
          "duration": 0.32142825000001096,
          "durationTicks": 288,
          "midi": 82,
          "name": "A#5",
          "ticks": 112896,
          "time": 125.999874,
          "velocity": 0.3937007874015748
        },
        {
          "duration": 0.32142824999999675,
          "durationTicks": 288,
          "midi": 39,
          "name": "D#2",
          "ticks": 113088,
          "time": 126.21415950000001,
          "velocity": 0.3937007874015748
        },
        {
          "duration": 0.32142824999999675,
          "durationTicks": 288,
          "midi": 68,
          "name": "G#4",
          "ticks": 113088,
          "time": 126.21415950000001,
          "velocity": 0.3937007874015748
        },
        {
          "duration": 0.32142824999999675,
          "durationTicks": 288,
          "midi": 80,
          "name": "G#5",
          "ticks": 113088,
          "time": 126.21415950000001,
          "velocity": 0.3937007874015748
        },
        {
          "duration": 0.32142824999999675,
          "durationTicks": 288,
          "midi": 51,
          "name": "D#3",
          "ticks": 113184,
          "time": 126.32130225000002,
          "velocity": 0.3937007874015748
        },
        {
          "duration": 0.32142824999999675,
          "durationTicks": 288,
          "midi": 39,
          "name": "D#2",
          "ticks": 113280,
          "time": 126.42844500000001,
          "velocity": 0.3937007874015748
        },
        {
          "duration": 0.32142824999999675,
          "durationTicks": 288,
          "midi": 66,
          "name": "F#4",
          "ticks": 113280,
          "time": 126.42844500000001,
          "velocity": 0.3937007874015748
        },
        {
          "duration": 0.32142824999999675,
          "durationTicks": 288,
          "midi": 78,
          "name": "F#5",
          "ticks": 113280,
          "time": 126.42844500000001,
          "velocity": 0.3937007874015748
        },
        {
          "duration": 0.32142825000001096,
          "durationTicks": 288,
          "midi": 51,
          "name": "D#3",
          "ticks": 113376,
          "time": 126.53558775,
          "velocity": 0.3937007874015748
        },
        {
          "duration": 0.32142824999999675,
          "durationTicks": 288,
          "midi": 49,
          "name": "C#3",
          "ticks": 113472,
          "time": 126.64273050000001,
          "velocity": 0.3937007874015748
        },
        {
          "duration": 0.32142824999999675,
          "durationTicks": 288,
          "midi": 39,
          "name": "D#2",
          "ticks": 113472,
          "time": 126.64273050000001,
          "velocity": 0.3937007874015748
        },
        {
          "duration": 0.32142824999999675,
          "durationTicks": 288,
          "midi": 65,
          "name": "F4",
          "ticks": 113472,
          "time": 126.64273050000001,
          "velocity": 0.3937007874015748
        },
        {
          "duration": 0.32142824999999675,
          "durationTicks": 288,
          "midi": 77,
          "name": "F5",
          "ticks": 113472,
          "time": 126.64273050000001,
          "velocity": 0.3937007874015748
        },
        {
          "duration": 0.32142824999999675,
          "durationTicks": 288,
          "midi": 51,
          "name": "D#3",
          "ticks": 113568,
          "time": 126.74987325000001,
          "velocity": 0.3937007874015748
        },
        {
          "duration": 0.32142824999999675,
          "durationTicks": 288,
          "midi": 35,
          "name": "B1",
          "ticks": 113664,
          "time": 126.85701600000002,
          "velocity": 0.3937007874015748
        },
        {
          "duration": 0.32142824999999675,
          "durationTicks": 288,
          "midi": 63,
          "name": "D#4",
          "ticks": 113664,
          "time": 126.85701600000002,
          "velocity": 0.3937007874015748
        },
        {
          "duration": 0.32142824999999675,
          "durationTicks": 288,
          "midi": 75,
          "name": "D#5",
          "ticks": 113664,
          "time": 126.85701600000002,
          "velocity": 0.3937007874015748
        },
        {
          "duration": 0.32142825000001096,
          "durationTicks": 288,
          "midi": 35,
          "name": "B1",
          "ticks": 113856,
          "time": 127.0713015,
          "velocity": 0.3937007874015748
        },
        {
          "duration": 0.32142825000001096,
          "durationTicks": 288,
          "midi": 65,
          "name": "F4",
          "ticks": 113856,
          "time": 127.0713015,
          "velocity": 0.3937007874015748
        },
        {
          "duration": 0.32142825000001096,
          "durationTicks": 288,
          "midi": 77,
          "name": "F5",
          "ticks": 113856,
          "time": 127.0713015,
          "velocity": 0.3937007874015748
        },
        {
          "duration": 0.32142824999999675,
          "durationTicks": 288,
          "midi": 51,
          "name": "D#3",
          "ticks": 113952,
          "time": 127.17844425000001,
          "velocity": 0.3937007874015748
        },
        {
          "duration": 0.32142824999999675,
          "durationTicks": 288,
          "midi": 35,
          "name": "B1",
          "ticks": 114048,
          "time": 127.285587,
          "velocity": 0.3937007874015748
        },
        {
          "duration": 0.32142824999999675,
          "durationTicks": 288,
          "midi": 66,
          "name": "F#4",
          "ticks": 114048,
          "time": 127.285587,
          "velocity": 0.3937007874015748
        },
        {
          "duration": 0.32142824999999675,
          "durationTicks": 288,
          "midi": 78,
          "name": "F#5",
          "ticks": 114048,
          "time": 127.285587,
          "velocity": 0.3937007874015748
        },
        {
          "duration": 0.32142824999999675,
          "durationTicks": 288,
          "midi": 51,
          "name": "D#3",
          "ticks": 114144,
          "time": 127.39272975000002,
          "velocity": 0.3937007874015748
        },
        {
          "duration": 0.32142824999999675,
          "durationTicks": 288,
          "midi": 49,
          "name": "C#3",
          "ticks": 114240,
          "time": 127.49987250000001,
          "velocity": 0.3937007874015748
        },
        {
          "duration": 0.32142824999999675,
          "durationTicks": 288,
          "midi": 35,
          "name": "B1",
          "ticks": 114240,
          "time": 127.49987250000001,
          "velocity": 0.3937007874015748
        },
        {
          "duration": 0.32142824999999675,
          "durationTicks": 288,
          "midi": 68,
          "name": "G#4",
          "ticks": 114240,
          "time": 127.49987250000001,
          "velocity": 0.3937007874015748
        },
        {
          "duration": 0.32142824999999675,
          "durationTicks": 288,
          "midi": 80,
          "name": "G#5",
          "ticks": 114240,
          "time": 127.49987250000001,
          "velocity": 0.3937007874015748
        },
        {
          "duration": 0.32142825000001096,
          "durationTicks": 288,
          "midi": 51,
          "name": "D#3",
          "ticks": 114336,
          "time": 127.60701525,
          "velocity": 0.3937007874015748
        },
        {
          "duration": 0.32142825000001096,
          "durationTicks": 288,
          "midi": 35,
          "name": "B1",
          "ticks": 114432,
          "time": 127.71415800000001,
          "velocity": 0.3937007874015748
        },
        {
          "duration": 0.32142825000001096,
          "durationTicks": 288,
          "midi": 70,
          "name": "A#4",
          "ticks": 114432,
          "time": 127.71415800000001,
          "velocity": 0.3937007874015748
        },
        {
          "duration": 0.32142825000001096,
          "durationTicks": 288,
          "midi": 82,
          "name": "A#5",
          "ticks": 114432,
          "time": 127.71415800000001,
          "velocity": 0.3937007874015748
        },
        {
          "duration": 0.32142824999999675,
          "durationTicks": 288,
          "midi": 35,
          "name": "B1",
          "ticks": 114624,
          "time": 127.92844350000001,
          "velocity": 0.3937007874015748
        },
        {
          "duration": 0.32142824999999675,
          "durationTicks": 288,
          "midi": 51,
          "name": "D#3",
          "ticks": 114720,
          "time": 128.03558625000002,
          "velocity": 0.3937007874015748
        },
        {
          "duration": 0.32142824999999675,
          "durationTicks": 288,
          "midi": 35,
          "name": "B1",
          "ticks": 114816,
          "time": 128.142729,
          "velocity": 0.3937007874015748
        },
        {
          "duration": 0.32142824999999675,
          "durationTicks": 288,
          "midi": 68,
          "name": "G#4",
          "ticks": 114816,
          "time": 128.142729,
          "velocity": 0.3937007874015748
        },
        {
          "duration": 0.32142824999999675,
          "durationTicks": 288,
          "midi": 80,
          "name": "G#5",
          "ticks": 114816,
          "time": 128.142729,
          "velocity": 0.3937007874015748
        },
        {
          "duration": 0.32142824999999675,
          "durationTicks": 288,
          "midi": 51,
          "name": "D#3",
          "ticks": 114912,
          "time": 128.24987175,
          "velocity": 0.3937007874015748
        },
        {
          "duration": 0.32142824999999675,
          "durationTicks": 288,
          "midi": 49,
          "name": "C#3",
          "ticks": 115008,
          "time": 128.35701450000002,
          "velocity": 0.3937007874015748
        },
        {
          "duration": 0.32142824999999675,
          "durationTicks": 288,
          "midi": 35,
          "name": "B1",
          "ticks": 115008,
          "time": 128.35701450000002,
          "velocity": 0.3937007874015748
        },
        {
          "duration": 0.32142824999999675,
          "durationTicks": 288,
          "midi": 66,
          "name": "F#4",
          "ticks": 115008,
          "time": 128.35701450000002,
          "velocity": 0.3937007874015748
        },
        {
          "duration": 0.32142824999999675,
          "durationTicks": 288,
          "midi": 78,
          "name": "F#5",
          "ticks": 115008,
          "time": 128.35701450000002,
          "velocity": 0.3937007874015748
        },
        {
          "duration": 0.3214282500000252,
          "durationTicks": 288,
          "midi": 51,
          "name": "D#3",
          "ticks": 115104,
          "time": 128.46415725,
          "velocity": 0.3937007874015748
        },
        {
          "duration": 0.32142824999999675,
          "durationTicks": 288,
          "midi": 35,
          "name": "B1",
          "ticks": 115200,
          "time": 128.5713,
          "velocity": 0.3937007874015748
        },
        {
          "duration": 0.32142824999999675,
          "durationTicks": 288,
          "midi": 65,
          "name": "F4",
          "ticks": 115200,
          "time": 128.5713,
          "velocity": 0.3937007874015748
        },
        {
          "duration": 0.32142824999999675,
          "durationTicks": 288,
          "midi": 77,
          "name": "F5",
          "ticks": 115200,
          "time": 128.5713,
          "velocity": 0.3937007874015748
        },
        {
          "duration": 0.32142824999999675,
          "durationTicks": 288,
          "midi": 35,
          "name": "B1",
          "ticks": 115392,
          "time": 128.78558550000002,
          "velocity": 0.3937007874015748
        },
        {
          "duration": 0.32142824999999675,
          "durationTicks": 288,
          "midi": 63,
          "name": "D#4",
          "ticks": 115392,
          "time": 128.78558550000002,
          "velocity": 0.3937007874015748
        },
        {
          "duration": 0.32142824999999675,
          "durationTicks": 288,
          "midi": 75,
          "name": "D#5",
          "ticks": 115392,
          "time": 128.78558550000002,
          "velocity": 0.3937007874015748
        },
        {
          "duration": 0.32142824999999675,
          "durationTicks": 288,
          "midi": 51,
          "name": "D#3",
          "ticks": 115488,
          "time": 128.89272825,
          "velocity": 0.3937007874015748
        },
        {
          "duration": 0.32142824999999675,
          "durationTicks": 288,
          "midi": 35,
          "name": "B1",
          "ticks": 115584,
          "time": 128.999871,
          "velocity": 0.3937007874015748
        },
        {
          "duration": 0.32142824999999675,
          "durationTicks": 288,
          "midi": 65,
          "name": "F4",
          "ticks": 115584,
          "time": 128.999871,
          "velocity": 0.3937007874015748
        },
        {
          "duration": 0.32142824999999675,
          "durationTicks": 288,
          "midi": 77,
          "name": "F5",
          "ticks": 115584,
          "time": 128.999871,
          "velocity": 0.3937007874015748
        },
        {
          "duration": 0.32142824999999675,
          "durationTicks": 288,
          "midi": 51,
          "name": "D#3",
          "ticks": 115680,
          "time": 129.10701375000002,
          "velocity": 0.3937007874015748
        },
        {
          "duration": 0.32142824999999675,
          "durationTicks": 288,
          "midi": 49,
          "name": "C#3",
          "ticks": 115776,
          "time": 129.2141565,
          "velocity": 0.3937007874015748
        },
        {
          "duration": 0.32142824999999675,
          "durationTicks": 288,
          "midi": 35,
          "name": "B1",
          "ticks": 115776,
          "time": 129.2141565,
          "velocity": 0.3937007874015748
        },
        {
          "duration": 0.32142824999999675,
          "durationTicks": 288,
          "midi": 66,
          "name": "F#4",
          "ticks": 115776,
          "time": 129.2141565,
          "velocity": 0.3937007874015748
        },
        {
          "duration": 0.32142824999999675,
          "durationTicks": 288,
          "midi": 78,
          "name": "F#5",
          "ticks": 115776,
          "time": 129.2141565,
          "velocity": 0.3937007874015748
        },
        {
          "duration": 0.32142824999999675,
          "durationTicks": 288,
          "midi": 51,
          "name": "D#3",
          "ticks": 115872,
          "time": 129.32129925,
          "velocity": 0.3937007874015748
        },
        {
          "duration": 0.32142824999999675,
          "durationTicks": 288,
          "midi": 37,
          "name": "C#2",
          "ticks": 115968,
          "time": 129.42844200000002,
          "velocity": 0.3937007874015748
        },
        {
          "duration": 0.32142824999999675,
          "durationTicks": 288,
          "midi": 65,
          "name": "F4",
          "ticks": 115968,
          "time": 129.42844200000002,
          "velocity": 0.3937007874015748
        },
        {
          "duration": 0.32142824999999675,
          "durationTicks": 288,
          "midi": 77,
          "name": "F5",
          "ticks": 115968,
          "time": 129.42844200000002,
          "velocity": 0.3937007874015748
        },
        {
          "duration": 0.32142824999999675,
          "durationTicks": 288,
          "midi": 37,
          "name": "C#2",
          "ticks": 116160,
          "time": 129.6427275,
          "velocity": 0.3937007874015748
        },
        {
          "duration": 0.32142824999999675,
          "durationTicks": 288,
          "midi": 63,
          "name": "D#4",
          "ticks": 116160,
          "time": 129.6427275,
          "velocity": 0.3937007874015748
        },
        {
          "duration": 0.32142824999999675,
          "durationTicks": 288,
          "midi": 75,
          "name": "D#5",
          "ticks": 116160,
          "time": 129.6427275,
          "velocity": 0.3937007874015748
        },
        {
          "duration": 0.32142824999999675,
          "durationTicks": 288,
          "midi": 51,
          "name": "D#3",
          "ticks": 116256,
          "time": 129.74987025000001,
          "velocity": 0.3937007874015748
        },
        {
          "duration": 0.32142824999999675,
          "durationTicks": 288,
          "midi": 37,
          "name": "C#2",
          "ticks": 116352,
          "time": 129.85701300000002,
          "velocity": 0.3937007874015748
        },
        {
          "duration": 0.32142824999999675,
          "durationTicks": 288,
          "midi": 62,
          "name": "D4",
          "ticks": 116352,
          "time": 129.85701300000002,
          "velocity": 0.3937007874015748
        },
        {
          "duration": 0.32142824999999675,
          "durationTicks": 288,
          "midi": 74,
          "name": "D5",
          "ticks": 116352,
          "time": 129.85701300000002,
          "velocity": 0.3937007874015748
        },
        {
          "duration": 0.32142824999999675,
          "durationTicks": 288,
          "midi": 51,
          "name": "D#3",
          "ticks": 116448,
          "time": 129.96415575,
          "velocity": 0.3937007874015748
        },
        {
          "duration": 0.32142824999999675,
          "durationTicks": 288,
          "midi": 49,
          "name": "C#3",
          "ticks": 116544,
          "time": 130.0712985,
          "velocity": 0.3937007874015748
        },
        {
          "duration": 0.32142824999999675,
          "durationTicks": 288,
          "midi": 37,
          "name": "C#2",
          "ticks": 116544,
          "time": 130.0712985,
          "velocity": 0.3937007874015748
        },
        {
          "duration": 0.32142824999999675,
          "durationTicks": 288,
          "midi": 65,
          "name": "F4",
          "ticks": 116544,
          "time": 130.0712985,
          "velocity": 0.3937007874015748
        },
        {
          "duration": 0.32142824999999675,
          "durationTicks": 288,
          "midi": 77,
          "name": "F5",
          "ticks": 116544,
          "time": 130.0712985,
          "velocity": 0.3937007874015748
        },
        {
          "duration": 0.32142824999999675,
          "durationTicks": 288,
          "midi": 51,
          "name": "D#3",
          "ticks": 116640,
          "time": 130.17844125000002,
          "velocity": 0.3937007874015748
        },
        {
          "duration": 0.32142824999999675,
          "durationTicks": 288,
          "midi": 39,
          "name": "D#2",
          "ticks": 116736,
          "time": 130.285584,
          "velocity": 0.3937007874015748
        },
        {
          "duration": 0.32142824999999675,
          "durationTicks": 288,
          "midi": 63,
          "name": "D#4",
          "ticks": 116736,
          "time": 130.285584,
          "velocity": 0.3937007874015748
        },
        {
          "duration": 0.32142824999999675,
          "durationTicks": 288,
          "midi": 75,
          "name": "D#5",
          "ticks": 116736,
          "time": 130.285584,
          "velocity": 0.3937007874015748
        },
        {
          "duration": 0.32142824999999675,
          "durationTicks": 288,
          "midi": 39,
          "name": "D#2",
          "ticks": 116928,
          "time": 130.49986950000002,
          "velocity": 0.3937007874015748
        },
        {
          "duration": 0.32142824999999675,
          "durationTicks": 288,
          "midi": 65,
          "name": "F4",
          "ticks": 116928,
          "time": 130.49986950000002,
          "velocity": 0.3937007874015748
        },
        {
          "duration": 0.32142824999999675,
          "durationTicks": 288,
          "midi": 77,
          "name": "F5",
          "ticks": 116928,
          "time": 130.49986950000002,
          "velocity": 0.3937007874015748
        },
        {
          "duration": 0.3214282500000252,
          "durationTicks": 288,
          "midi": 51,
          "name": "D#3",
          "ticks": 117024,
          "time": 130.60701225,
          "velocity": 0.3937007874015748
        },
        {
          "duration": 0.32142824999999675,
          "durationTicks": 288,
          "midi": 39,
          "name": "D#2",
          "ticks": 117120,
          "time": 130.714155,
          "velocity": 0.3937007874015748
        },
        {
          "duration": 0.32142824999999675,
          "durationTicks": 288,
          "midi": 66,
          "name": "F#4",
          "ticks": 117120,
          "time": 130.714155,
          "velocity": 0.3937007874015748
        },
        {
          "duration": 0.32142824999999675,
          "durationTicks": 288,
          "midi": 78,
          "name": "F#5",
          "ticks": 117120,
          "time": 130.714155,
          "velocity": 0.3937007874015748
        },
        {
          "duration": 0.32142824999999675,
          "durationTicks": 288,
          "midi": 51,
          "name": "D#3",
          "ticks": 117216,
          "time": 130.82129775,
          "velocity": 0.3937007874015748
        },
        {
          "duration": 0.32142824999999675,
          "durationTicks": 288,
          "midi": 49,
          "name": "C#3",
          "ticks": 117312,
          "time": 130.92844050000002,
          "velocity": 0.3937007874015748
        },
        {
          "duration": 0.32142824999999675,
          "durationTicks": 288,
          "midi": 39,
          "name": "D#2",
          "ticks": 117312,
          "time": 130.92844050000002,
          "velocity": 0.3937007874015748
        },
        {
          "duration": 0.32142824999999675,
          "durationTicks": 288,
          "midi": 68,
          "name": "G#4",
          "ticks": 117312,
          "time": 130.92844050000002,
          "velocity": 0.3937007874015748
        },
        {
          "duration": 0.32142824999999675,
          "durationTicks": 288,
          "midi": 80,
          "name": "G#5",
          "ticks": 117312,
          "time": 130.92844050000002,
          "velocity": 0.3937007874015748
        },
        {
          "duration": 0.32142824999999675,
          "durationTicks": 288,
          "midi": 51,
          "name": "D#3",
          "ticks": 117408,
          "time": 131.03558325,
          "velocity": 0.3937007874015748
        },
        {
          "duration": 0.32142824999999675,
          "durationTicks": 288,
          "midi": 39,
          "name": "D#2",
          "ticks": 117504,
          "time": 131.142726,
          "velocity": 0.3937007874015748
        },
        {
          "duration": 0.32142824999999675,
          "durationTicks": 288,
          "midi": 70,
          "name": "A#4",
          "ticks": 117504,
          "time": 131.142726,
          "velocity": 0.3937007874015748
        },
        {
          "duration": 0.32142824999999675,
          "durationTicks": 288,
          "midi": 82,
          "name": "A#5",
          "ticks": 117504,
          "time": 131.142726,
          "velocity": 0.3937007874015748
        },
        {
          "duration": 0.3214282500000252,
          "durationTicks": 288,
          "midi": 39,
          "name": "D#2",
          "ticks": 117696,
          "time": 131.3570115,
          "velocity": 0.3937007874015748
        },
        {
          "duration": 0.32142824999999675,
          "durationTicks": 288,
          "midi": 51,
          "name": "D#3",
          "ticks": 117792,
          "time": 131.46415425,
          "velocity": 0.3937007874015748
        },
        {
          "duration": 0.32142824999999675,
          "durationTicks": 288,
          "midi": 39,
          "name": "D#2",
          "ticks": 117888,
          "time": 131.57129700000002,
          "velocity": 0.3937007874015748
        },
        {
          "duration": 0.32142824999999675,
          "durationTicks": 288,
          "midi": 75,
          "name": "D#5",
          "ticks": 117888,
          "time": 131.57129700000002,
          "velocity": 0.3937007874015748
        },
        {
          "duration": 0.32142824999999675,
          "durationTicks": 288,
          "midi": 87,
          "name": "D#6",
          "ticks": 117888,
          "time": 131.57129700000002,
          "velocity": 0.3937007874015748
        },
        {
          "duration": 0.32142824999999675,
          "durationTicks": 288,
          "midi": 51,
          "name": "D#3",
          "ticks": 117984,
          "time": 131.67843975000002,
          "velocity": 0.3937007874015748
        },
        {
          "duration": 0.32142824999999675,
          "durationTicks": 288,
          "midi": 49,
          "name": "C#3",
          "ticks": 118080,
          "time": 131.7855825,
          "velocity": 0.3937007874015748
        },
        {
          "duration": 0.32142824999999675,
          "durationTicks": 288,
          "midi": 39,
          "name": "D#2",
          "ticks": 118080,
          "time": 131.7855825,
          "velocity": 0.3937007874015748
        },
        {
          "duration": 0.32142824999999675,
          "durationTicks": 288,
          "midi": 73,
          "name": "C#5",
          "ticks": 118080,
          "time": 131.7855825,
          "velocity": 0.3937007874015748
        },
        {
          "duration": 0.32142824999999675,
          "durationTicks": 288,
          "midi": 85,
          "name": "C#6",
          "ticks": 118080,
          "time": 131.7855825,
          "velocity": 0.3937007874015748
        },
        {
          "duration": 0.32142824999999675,
          "durationTicks": 288,
          "midi": 51,
          "name": "D#3",
          "ticks": 118176,
          "time": 131.89272525,
          "velocity": 0.3937007874015748
        },
        {
          "duration": 0.32142824999999675,
          "durationTicks": 288,
          "midi": 39,
          "name": "D#2",
          "ticks": 118272,
          "time": 131.99986800000002,
          "velocity": 0.3937007874015748
        },
        {
          "duration": 0.32142824999999675,
          "durationTicks": 288,
          "midi": 70,
          "name": "A#4",
          "ticks": 118272,
          "time": 131.99986800000002,
          "velocity": 0.3937007874015748
        },
        {
          "duration": 0.32142824999999675,
          "durationTicks": 288,
          "midi": 82,
          "name": "A#5",
          "ticks": 118272,
          "time": 131.99986800000002,
          "velocity": 0.3937007874015748
        },
        {
          "duration": 0.32142824999999675,
          "durationTicks": 288,
          "midi": 39,
          "name": "D#2",
          "ticks": 118464,
          "time": 132.2141535,
          "velocity": 0.3937007874015748
        },
        {
          "duration": 0.32142824999999675,
          "durationTicks": 288,
          "midi": 51,
          "name": "D#3",
          "ticks": 118560,
          "time": 132.32129625000002,
          "velocity": 0.3937007874015748
        },
        {
          "duration": 0.3214282500000252,
          "durationTicks": 288,
          "midi": 39,
          "name": "D#2",
          "ticks": 118656,
          "time": 132.428439,
          "velocity": 0.3937007874015748
        },
        {
          "duration": 0.3214282500000252,
          "durationTicks": 288,
          "midi": 63,
          "name": "D#4",
          "ticks": 118656,
          "time": 132.428439,
          "velocity": 0.3937007874015748
        },
        {
          "duration": 0.3214282500000252,
          "durationTicks": 288,
          "midi": 75,
          "name": "D#5",
          "ticks": 118656,
          "time": 132.428439,
          "velocity": 0.3937007874015748
        },
        {
          "duration": 0.32142824999999675,
          "durationTicks": 288,
          "midi": 51,
          "name": "D#3",
          "ticks": 118752,
          "time": 132.53558175,
          "velocity": 0.3937007874015748
        },
        {
          "duration": 0.32142824999999675,
          "durationTicks": 288,
          "midi": 49,
          "name": "C#3",
          "ticks": 118848,
          "time": 132.6427245,
          "velocity": 0.3937007874015748
        },
        {
          "duration": 0.32142824999999675,
          "durationTicks": 288,
          "midi": 39,
          "name": "D#2",
          "ticks": 118848,
          "time": 132.6427245,
          "velocity": 0.3937007874015748
        },
        {
          "duration": 0.32142824999999675,
          "durationTicks": 288,
          "midi": 51,
          "name": "D#3",
          "ticks": 118944,
          "time": 132.74986725000002,
          "velocity": 0.3937007874015748
        },
        {
          "duration": 0.32142824999999675,
          "durationTicks": 288,
          "midi": 39,
          "name": "D#2",
          "ticks": 119040,
          "time": 132.85701,
          "velocity": 0.3937007874015748
        },
        {
          "duration": 0.32142824999999675,
          "durationTicks": 288,
          "midi": 70,
          "name": "A#4",
          "ticks": 119040,
          "time": 132.85701,
          "velocity": 0.3937007874015748
        },
        {
          "duration": 0.32142824999999675,
          "durationTicks": 288,
          "midi": 82,
          "name": "A#5",
          "ticks": 119040,
          "time": 132.85701,
          "velocity": 0.3937007874015748
        },
        {
          "duration": 0.32142824999999675,
          "durationTicks": 288,
          "midi": 39,
          "name": "D#2",
          "ticks": 119232,
          "time": 133.07129550000002,
          "velocity": 0.3937007874015748
        },
        {
          "duration": 0.32142824999999675,
          "durationTicks": 288,
          "midi": 68,
          "name": "G#4",
          "ticks": 119232,
          "time": 133.07129550000002,
          "velocity": 0.3937007874015748
        },
        {
          "duration": 0.32142824999999675,
          "durationTicks": 288,
          "midi": 80,
          "name": "G#5",
          "ticks": 119232,
          "time": 133.07129550000002,
          "velocity": 0.3937007874015748
        },
        {
          "duration": 0.3214282500000252,
          "durationTicks": 288,
          "midi": 51,
          "name": "D#3",
          "ticks": 119328,
          "time": 133.17843825,
          "velocity": 0.3937007874015748
        },
        {
          "duration": 0.32142824999999675,
          "durationTicks": 288,
          "midi": 39,
          "name": "D#2",
          "ticks": 119424,
          "time": 133.285581,
          "velocity": 0.3937007874015748
        },
        {
          "duration": 0.32142824999999675,
          "durationTicks": 288,
          "midi": 66,
          "name": "F#4",
          "ticks": 119424,
          "time": 133.285581,
          "velocity": 0.3937007874015748
        },
        {
          "duration": 0.32142824999999675,
          "durationTicks": 288,
          "midi": 78,
          "name": "F#5",
          "ticks": 119424,
          "time": 133.285581,
          "velocity": 0.3937007874015748
        },
        {
          "duration": 0.32142824999999675,
          "durationTicks": 288,
          "midi": 51,
          "name": "D#3",
          "ticks": 119520,
          "time": 133.39272375000002,
          "velocity": 0.3937007874015748
        },
        {
          "duration": 0.32142824999999675,
          "durationTicks": 288,
          "midi": 49,
          "name": "C#3",
          "ticks": 119616,
          "time": 133.49986650000002,
          "velocity": 0.3937007874015748
        },
        {
          "duration": 0.32142824999999675,
          "durationTicks": 288,
          "midi": 39,
          "name": "D#2",
          "ticks": 119616,
          "time": 133.49986650000002,
          "velocity": 0.3937007874015748
        },
        {
          "duration": 0.32142824999999675,
          "durationTicks": 288,
          "midi": 65,
          "name": "F4",
          "ticks": 119616,
          "time": 133.49986650000002,
          "velocity": 0.3937007874015748
        },
        {
          "duration": 0.32142824999999675,
          "durationTicks": 288,
          "midi": 77,
          "name": "F5",
          "ticks": 119616,
          "time": 133.49986650000002,
          "velocity": 0.3937007874015748
        },
        {
          "duration": 0.32142824999999675,
          "durationTicks": 288,
          "midi": 51,
          "name": "D#3",
          "ticks": 119712,
          "time": 133.60700925,
          "velocity": 0.3937007874015748
        },
        {
          "duration": 0.32142824999999675,
          "durationTicks": 288,
          "midi": 35,
          "name": "B1",
          "ticks": 119808,
          "time": 133.714152,
          "velocity": 0.3937007874015748
        },
        {
          "duration": 0.32142824999999675,
          "durationTicks": 288,
          "midi": 63,
          "name": "D#4",
          "ticks": 119808,
          "time": 133.714152,
          "velocity": 0.3937007874015748
        },
        {
          "duration": 0.32142824999999675,
          "durationTicks": 288,
          "midi": 75,
          "name": "D#5",
          "ticks": 119808,
          "time": 133.714152,
          "velocity": 0.3937007874015748
        },
        {
          "duration": 0.32142824999999675,
          "durationTicks": 288,
          "midi": 35,
          "name": "B1",
          "ticks": 120000,
          "time": 133.9284375,
          "velocity": 0.3937007874015748
        },
        {
          "duration": 0.32142824999999675,
          "durationTicks": 288,
          "midi": 65,
          "name": "F4",
          "ticks": 120000,
          "time": 133.9284375,
          "velocity": 0.3937007874015748
        },
        {
          "duration": 0.32142824999999675,
          "durationTicks": 288,
          "midi": 77,
          "name": "F5",
          "ticks": 120000,
          "time": 133.9284375,
          "velocity": 0.3937007874015748
        },
        {
          "duration": 0.32142824999999675,
          "durationTicks": 288,
          "midi": 51,
          "name": "D#3",
          "ticks": 120096,
          "time": 134.03558025,
          "velocity": 0.3937007874015748
        },
        {
          "duration": 0.32142824999999675,
          "durationTicks": 288,
          "midi": 35,
          "name": "B1",
          "ticks": 120192,
          "time": 134.14272300000002,
          "velocity": 0.3937007874015748
        },
        {
          "duration": 0.32142824999999675,
          "durationTicks": 288,
          "midi": 66,
          "name": "F#4",
          "ticks": 120192,
          "time": 134.14272300000002,
          "velocity": 0.3937007874015748
        },
        {
          "duration": 0.32142824999999675,
          "durationTicks": 288,
          "midi": 78,
          "name": "F#5",
          "ticks": 120192,
          "time": 134.14272300000002,
          "velocity": 0.3937007874015748
        },
        {
          "duration": 0.3214282500000252,
          "durationTicks": 288,
          "midi": 51,
          "name": "D#3",
          "ticks": 120288,
          "time": 134.24986575,
          "velocity": 0.3937007874015748
        },
        {
          "duration": 0.32142824999999675,
          "durationTicks": 288,
          "midi": 49,
          "name": "C#3",
          "ticks": 120384,
          "time": 134.3570085,
          "velocity": 0.3937007874015748
        },
        {
          "duration": 0.32142824999999675,
          "durationTicks": 288,
          "midi": 35,
          "name": "B1",
          "ticks": 120384,
          "time": 134.3570085,
          "velocity": 0.3937007874015748
        },
        {
          "duration": 0.32142824999999675,
          "durationTicks": 288,
          "midi": 68,
          "name": "G#4",
          "ticks": 120384,
          "time": 134.3570085,
          "velocity": 0.3937007874015748
        },
        {
          "duration": 0.32142824999999675,
          "durationTicks": 288,
          "midi": 80,
          "name": "G#5",
          "ticks": 120384,
          "time": 134.3570085,
          "velocity": 0.3937007874015748
        },
        {
          "duration": 0.32142824999999675,
          "durationTicks": 288,
          "midi": 51,
          "name": "D#3",
          "ticks": 120480,
          "time": 134.46415125000001,
          "velocity": 0.3937007874015748
        },
        {
          "duration": 0.32142824999999675,
          "durationTicks": 288,
          "midi": 35,
          "name": "B1",
          "ticks": 120576,
          "time": 134.57129400000002,
          "velocity": 0.3937007874015748
        },
        {
          "duration": 0.32142824999999675,
          "durationTicks": 288,
          "midi": 70,
          "name": "A#4",
          "ticks": 120576,
          "time": 134.57129400000002,
          "velocity": 0.3937007874015748
        },
        {
          "duration": 0.32142824999999675,
          "durationTicks": 288,
          "midi": 82,
          "name": "A#5",
          "ticks": 120576,
          "time": 134.57129400000002,
          "velocity": 0.3937007874015748
        },
        {
          "duration": 0.32142824999999675,
          "durationTicks": 288,
          "midi": 35,
          "name": "B1",
          "ticks": 120768,
          "time": 134.7855795,
          "velocity": 0.3937007874015748
        },
        {
          "duration": 0.32142824999999675,
          "durationTicks": 288,
          "midi": 51,
          "name": "D#3",
          "ticks": 120864,
          "time": 134.89272225000002,
          "velocity": 0.3937007874015748
        },
        {
          "duration": 0.3214282500000252,
          "durationTicks": 288,
          "midi": 35,
          "name": "B1",
          "ticks": 120960,
          "time": 134.999865,
          "velocity": 0.3937007874015748
        },
        {
          "duration": 0.3214282500000252,
          "durationTicks": 288,
          "midi": 68,
          "name": "G#4",
          "ticks": 120960,
          "time": 134.999865,
          "velocity": 0.3937007874015748
        },
        {
          "duration": 0.3214282500000252,
          "durationTicks": 288,
          "midi": 80,
          "name": "G#5",
          "ticks": 120960,
          "time": 134.999865,
          "velocity": 0.3937007874015748
        },
        {
          "duration": 0.32142824999999675,
          "durationTicks": 288,
          "midi": 51,
          "name": "D#3",
          "ticks": 121056,
          "time": 135.10700775,
          "velocity": 0.3937007874015748
        },
        {
          "duration": 0.32142824999999675,
          "durationTicks": 288,
          "midi": 49,
          "name": "C#3",
          "ticks": 121152,
          "time": 135.21415050000002,
          "velocity": 0.3937007874015748
        },
        {
          "duration": 0.32142824999999675,
          "durationTicks": 288,
          "midi": 35,
          "name": "B1",
          "ticks": 121152,
          "time": 135.21415050000002,
          "velocity": 0.3937007874015748
        },
        {
          "duration": 0.32142824999999675,
          "durationTicks": 288,
          "midi": 66,
          "name": "F#4",
          "ticks": 121152,
          "time": 135.21415050000002,
          "velocity": 0.3937007874015748
        },
        {
          "duration": 0.32142824999999675,
          "durationTicks": 288,
          "midi": 78,
          "name": "F#5",
          "ticks": 121152,
          "time": 135.21415050000002,
          "velocity": 0.3937007874015748
        },
        {
          "duration": 0.32142824999999675,
          "durationTicks": 288,
          "midi": 51,
          "name": "D#3",
          "ticks": 121248,
          "time": 135.32129325000002,
          "velocity": 0.3937007874015748
        },
        {
          "duration": 0.32142824999999675,
          "durationTicks": 288,
          "midi": 35,
          "name": "B1",
          "ticks": 121344,
          "time": 135.428436,
          "velocity": 0.3937007874015748
        },
        {
          "duration": 0.32142824999999675,
          "durationTicks": 288,
          "midi": 65,
          "name": "F4",
          "ticks": 121344,
          "time": 135.428436,
          "velocity": 0.3937007874015748
        },
        {
          "duration": 0.32142824999999675,
          "durationTicks": 288,
          "midi": 53,
          "name": "F3",
          "ticks": 121344,
          "time": 135.428436,
          "velocity": 0.3937007874015748
        },
        {
          "duration": 0.32142824999999675,
          "durationTicks": 288,
          "midi": 77,
          "name": "F5",
          "ticks": 121344,
          "time": 135.428436,
          "velocity": 0.3937007874015748
        },
        {
          "duration": 0.32142824999999675,
          "durationTicks": 288,
          "midi": 35,
          "name": "B1",
          "ticks": 121536,
          "time": 135.64272150000002,
          "velocity": 0.3937007874015748
        },
        {
          "duration": 0.32142824999999675,
          "durationTicks": 288,
          "midi": 35,
          "name": "B1",
          "ticks": 121728,
          "time": 135.857007,
          "velocity": 0.3937007874015748
        },
        {
          "duration": 0.32142824999999675,
          "durationTicks": 288,
          "midi": 66,
          "name": "F#4",
          "ticks": 121728,
          "time": 135.857007,
          "velocity": 0.3937007874015748
        },
        {
          "duration": 0.32142824999999675,
          "durationTicks": 288,
          "midi": 54,
          "name": "F#3",
          "ticks": 121728,
          "time": 135.857007,
          "velocity": 0.3937007874015748
        },
        {
          "duration": 0.32142824999999675,
          "durationTicks": 288,
          "midi": 78,
          "name": "F#5",
          "ticks": 121728,
          "time": 135.857007,
          "velocity": 0.3937007874015748
        },
        {
          "duration": 0.3214282500000252,
          "durationTicks": 288,
          "midi": 35,
          "name": "B1",
          "ticks": 121920,
          "time": 136.0712925,
          "velocity": 0.3937007874015748
        },
        {
          "duration": 0.32142824999999675,
          "durationTicks": 288,
          "midi": 37,
          "name": "C#2",
          "ticks": 122112,
          "time": 136.28557800000002,
          "velocity": 0.3937007874015748
        },
        {
          "duration": 0.32142824999999675,
          "durationTicks": 288,
          "midi": 68,
          "name": "G#4",
          "ticks": 122112,
          "time": 136.28557800000002,
          "velocity": 0.3937007874015748
        },
        {
          "duration": 0.32142824999999675,
          "durationTicks": 288,
          "midi": 56,
          "name": "G#3",
          "ticks": 122112,
          "time": 136.28557800000002,
          "velocity": 0.3937007874015748
        },
        {
          "duration": 0.32142824999999675,
          "durationTicks": 288,
          "midi": 80,
          "name": "G#5",
          "ticks": 122112,
          "time": 136.28557800000002,
          "velocity": 0.3937007874015748
        },
        {
          "duration": 0.32142824999999675,
          "durationTicks": 288,
          "midi": 37,
          "name": "C#2",
          "ticks": 122304,
          "time": 136.4998635,
          "velocity": 0.3937007874015748
        },
        {
          "duration": 0.32142824999999675,
          "durationTicks": 288,
          "midi": 37,
          "name": "C#2",
          "ticks": 122496,
          "time": 136.71414900000002,
          "velocity": 0.3937007874015748
        },
        {
          "duration": 0.32142824999999675,
          "durationTicks": 288,
          "midi": 70,
          "name": "A#4",
          "ticks": 122496,
          "time": 136.71414900000002,
          "velocity": 0.3937007874015748
        },
        {
          "duration": 0.32142824999999675,
          "durationTicks": 288,
          "midi": 58,
          "name": "A#3",
          "ticks": 122496,
          "time": 136.71414900000002,
          "velocity": 0.3937007874015748
        },
        {
          "duration": 0.32142824999999675,
          "durationTicks": 288,
          "midi": 82,
          "name": "A#5",
          "ticks": 122496,
          "time": 136.71414900000002,
          "velocity": 0.3937007874015748
        },
        {
          "duration": 0.32142824999999675,
          "durationTicks": 288,
          "midi": 70,
          "name": "A#4",
          "ticks": 122496,
          "time": 136.71414900000002,
          "velocity": 0.3937007874015748
        },
        {
          "duration": 0.32142824999999675,
          "durationTicks": 288,
          "midi": 87,
          "name": "D#6",
          "ticks": 122496,
          "time": 136.71414900000002,
          "velocity": 0.3937007874015748
        },
        {
          "duration": 0.3214282500000252,
          "durationTicks": 288,
          "midi": 35,
          "name": "B1",
          "ticks": 122880,
          "time": 137.14272,
          "velocity": 0.3937007874015748
        },
        {
          "duration": 0.3214282500000252,
          "durationTicks": 288,
          "midi": 73,
          "name": "C#5",
          "ticks": 122880,
          "time": 137.14272,
          "velocity": 0.3937007874015748
        },
        {
          "duration": 0.32142824999999675,
          "durationTicks": 288,
          "midi": 75,
          "name": "D#5",
          "ticks": 123072,
          "time": 137.3570055,
          "velocity": 0.3937007874015748
        },
        {
          "duration": 0.32142824999999675,
          "durationTicks": 288,
          "midi": 35,
          "name": "B1",
          "ticks": 123168,
          "time": 137.46414825000002,
          "velocity": 0.3937007874015748
        },
        {
          "duration": 0.32142824999999675,
          "durationTicks": 288,
          "midi": 35,
          "name": "B1",
          "ticks": 123264,
          "time": 137.571291,
          "velocity": 0.3937007874015748
        },
        {
          "duration": 0.32142824999999675,
          "durationTicks": 288,
          "midi": 70,
          "name": "A#4",
          "ticks": 123264,
          "time": 137.571291,
          "velocity": 0.3937007874015748
        },
        {
          "duration": 0.32142824999999675,
          "durationTicks": 288,
          "midi": 35,
          "name": "B1",
          "ticks": 123456,
          "time": 137.78557650000002,
          "velocity": 0.3937007874015748
        },
        {
          "duration": 0.32142824999999675,
          "durationTicks": 288,
          "midi": 68,
          "name": "G#4",
          "ticks": 123456,
          "time": 137.78557650000002,
          "velocity": 0.3937007874015748
        },
        {
          "duration": 0.32142824999999675,
          "durationTicks": 288,
          "midi": 35,
          "name": "B1",
          "ticks": 123648,
          "time": 137.999862,
          "velocity": 0.3937007874015748
        },
        {
          "duration": 0.32142824999999675,
          "durationTicks": 288,
          "midi": 70,
          "name": "A#4",
          "ticks": 123648,
          "time": 137.999862,
          "velocity": 0.3937007874015748
        },
        {
          "duration": 0.32142824999999675,
          "durationTicks": 288,
          "midi": 35,
          "name": "B1",
          "ticks": 123936,
          "time": 138.32129025,
          "velocity": 0.3937007874015748
        },
        {
          "duration": 0.32142824999999675,
          "durationTicks": 288,
          "midi": 35,
          "name": "B1",
          "ticks": 124032,
          "time": 138.428433,
          "velocity": 0.3937007874015748
        },
        {
          "duration": 0.32142824999999675,
          "durationTicks": 288,
          "midi": 68,
          "name": "G#4",
          "ticks": 124032,
          "time": 138.428433,
          "velocity": 0.3937007874015748
        },
        {
          "duration": 0.32142824999999675,
          "durationTicks": 288,
          "midi": 35,
          "name": "B1",
          "ticks": 124224,
          "time": 138.6427185,
          "velocity": 0.3937007874015748
        },
        {
          "duration": 0.32142824999999675,
          "durationTicks": 288,
          "midi": 70,
          "name": "A#4",
          "ticks": 124224,
          "time": 138.6427185,
          "velocity": 0.3937007874015748
        },
        {
          "duration": 0.32142824999999675,
          "durationTicks": 288,
          "midi": 37,
          "name": "C#2",
          "ticks": 124416,
          "time": 138.85700400000002,
          "velocity": 0.3937007874015748
        },
        {
          "duration": 0.32142824999999675,
          "durationTicks": 288,
          "midi": 73,
          "name": "C#5",
          "ticks": 124416,
          "time": 138.85700400000002,
          "velocity": 0.3937007874015748
        },
        {
          "duration": 0.32142824999999675,
          "durationTicks": 288,
          "midi": 75,
          "name": "D#5",
          "ticks": 124608,
          "time": 139.0712895,
          "velocity": 0.3937007874015748
        },
        {
          "duration": 0.32142824999999675,
          "durationTicks": 288,
          "midi": 37,
          "name": "C#2",
          "ticks": 124704,
          "time": 139.17843225000001,
          "velocity": 0.3937007874015748
        },
        {
          "duration": 0.32142824999999675,
          "durationTicks": 288,
          "midi": 37,
          "name": "C#2",
          "ticks": 124800,
          "time": 139.28557500000002,
          "velocity": 0.3937007874015748
        },
        {
          "duration": 0.32142824999999675,
          "durationTicks": 288,
          "midi": 70,
          "name": "A#4",
          "ticks": 124800,
          "time": 139.28557500000002,
          "velocity": 0.3937007874015748
        },
        {
          "duration": 0.32142824999999675,
          "durationTicks": 288,
          "midi": 37,
          "name": "C#2",
          "ticks": 124992,
          "time": 139.4998605,
          "velocity": 0.3937007874015748
        },
        {
          "duration": 0.32142824999999675,
          "durationTicks": 288,
          "midi": 68,
          "name": "G#4",
          "ticks": 124992,
          "time": 139.4998605,
          "velocity": 0.3937007874015748
        },
        {
          "duration": 0.3214282500000252,
          "durationTicks": 288,
          "midi": 37,
          "name": "C#2",
          "ticks": 125184,
          "time": 139.714146,
          "velocity": 0.3937007874015748
        },
        {
          "duration": 0.3214282500000252,
          "durationTicks": 288,
          "midi": 70,
          "name": "A#4",
          "ticks": 125184,
          "time": 139.714146,
          "velocity": 0.3937007874015748
        },
        {
          "duration": 0.32142824999999675,
          "durationTicks": 288,
          "midi": 37,
          "name": "C#2",
          "ticks": 125472,
          "time": 140.03557425000002,
          "velocity": 0.3937007874015748
        },
        {
          "duration": 0.32142824999999675,
          "durationTicks": 288,
          "midi": 37,
          "name": "C#2",
          "ticks": 125568,
          "time": 140.142717,
          "velocity": 0.3937007874015748
        },
        {
          "duration": 0.32142824999999675,
          "durationTicks": 288,
          "midi": 68,
          "name": "G#4",
          "ticks": 125568,
          "time": 140.142717,
          "velocity": 0.3937007874015748
        },
        {
          "duration": 0.32142824999999675,
          "durationTicks": 288,
          "midi": 37,
          "name": "C#2",
          "ticks": 125760,
          "time": 140.35700250000002,
          "velocity": 0.3937007874015748
        },
        {
          "duration": 0.32142824999999675,
          "durationTicks": 288,
          "midi": 70,
          "name": "A#4",
          "ticks": 125760,
          "time": 140.35700250000002,
          "velocity": 0.3937007874015748
        },
        {
          "duration": 0.32142824999999675,
          "durationTicks": 288,
          "midi": 39,
          "name": "D#2",
          "ticks": 125952,
          "time": 140.571288,
          "velocity": 0.3937007874015748
        },
        {
          "duration": 0.32142824999999675,
          "durationTicks": 288,
          "midi": 68,
          "name": "G#4",
          "ticks": 125952,
          "time": 140.571288,
          "velocity": 0.3937007874015748
        },
        {
          "duration": 0.3214282500000252,
          "durationTicks": 288,
          "midi": 66,
          "name": "F#4",
          "ticks": 126144,
          "time": 140.7855735,
          "velocity": 0.3937007874015748
        },
        {
          "duration": 0.32142824999999675,
          "durationTicks": 288,
          "midi": 39,
          "name": "D#2",
          "ticks": 126240,
          "time": 140.89271625,
          "velocity": 0.3937007874015748
        },
        {
          "duration": 0.32142824999999675,
          "durationTicks": 288,
          "midi": 39,
          "name": "D#2",
          "ticks": 126336,
          "time": 140.99985900000001,
          "velocity": 0.3937007874015748
        },
        {
          "duration": 0.32142824999999675,
          "durationTicks": 288,
          "midi": 65,
          "name": "F4",
          "ticks": 126336,
          "time": 140.99985900000001,
          "velocity": 0.3937007874015748
        },
        {
          "duration": 0.32142824999999675,
          "durationTicks": 288,
          "midi": 39,
          "name": "D#2",
          "ticks": 126528,
          "time": 141.2141445,
          "velocity": 0.3937007874015748
        },
        {
          "duration": 0.32142824999999675,
          "durationTicks": 288,
          "midi": 61,
          "name": "C#4",
          "ticks": 126528,
          "time": 141.2141445,
          "velocity": 0.3937007874015748
        },
        {
          "duration": 0.32142824999999675,
          "durationTicks": 288,
          "midi": 39,
          "name": "D#2",
          "ticks": 126720,
          "time": 141.42843000000002,
          "velocity": 0.3937007874015748
        },
        {
          "duration": 0.32142824999999675,
          "durationTicks": 288,
          "midi": 63,
          "name": "D#4",
          "ticks": 126720,
          "time": 141.42843000000002,
          "velocity": 0.3937007874015748
        },
        {
          "duration": 0.32142824999999675,
          "durationTicks": 288,
          "midi": 39,
          "name": "D#2",
          "ticks": 127008,
          "time": 141.74985825000002,
          "velocity": 0.3937007874015748
        },
        {
          "duration": 0.32142824999999675,
          "durationTicks": 288,
          "midi": 39,
          "name": "D#2",
          "ticks": 127104,
          "time": 141.85700100000003,
          "velocity": 0.3937007874015748
        },
        {
          "duration": 0.32142824999999675,
          "durationTicks": 288,
          "midi": 61,
          "name": "C#4",
          "ticks": 127104,
          "time": 141.85700100000003,
          "velocity": 0.3937007874015748
        },
        {
          "duration": 0.32142824999999675,
          "durationTicks": 288,
          "midi": 39,
          "name": "D#2",
          "ticks": 127296,
          "time": 142.0712865,
          "velocity": 0.3937007874015748
        },
        {
          "duration": 0.32142824999999675,
          "durationTicks": 288,
          "midi": 63,
          "name": "D#4",
          "ticks": 127296,
          "time": 142.0712865,
          "velocity": 0.3937007874015748
        },
        {
          "duration": 0.32142824999999675,
          "durationTicks": 288,
          "midi": 39,
          "name": "D#2",
          "ticks": 127488,
          "time": 142.285572,
          "velocity": 0.3937007874015748
        },
        {
          "duration": 0.32142824999999675,
          "durationTicks": 288,
          "midi": 65,
          "name": "F4",
          "ticks": 127488,
          "time": 142.285572,
          "velocity": 0.3937007874015748
        },
        {
          "duration": 0.32142824999999675,
          "durationTicks": 288,
          "midi": 66,
          "name": "F#4",
          "ticks": 127680,
          "time": 142.49985750000002,
          "velocity": 0.3937007874015748
        },
        {
          "duration": 0.3214282500000252,
          "durationTicks": 288,
          "midi": 39,
          "name": "D#2",
          "ticks": 127776,
          "time": 142.60700025,
          "velocity": 0.3937007874015748
        },
        {
          "duration": 0.32142824999999675,
          "durationTicks": 288,
          "midi": 39,
          "name": "D#2",
          "ticks": 127872,
          "time": 142.714143,
          "velocity": 0.3937007874015748
        },
        {
          "duration": 0.32142824999999675,
          "durationTicks": 288,
          "midi": 68,
          "name": "G#4",
          "ticks": 127872,
          "time": 142.714143,
          "velocity": 0.3937007874015748
        },
        {
          "duration": 0.32142824999999675,
          "durationTicks": 288,
          "midi": 39,
          "name": "D#2",
          "ticks": 128064,
          "time": 142.92842850000002,
          "velocity": 0.3937007874015748
        },
        {
          "duration": 0.32142824999999675,
          "durationTicks": 288,
          "midi": 70,
          "name": "A#4",
          "ticks": 128064,
          "time": 142.92842850000002,
          "velocity": 0.3937007874015748
        },
        {
          "duration": 0.32142824999999675,
          "durationTicks": 288,
          "midi": 39,
          "name": "D#2",
          "ticks": 128256,
          "time": 143.142714,
          "velocity": 0.3937007874015748
        },
        {
          "duration": 0.32142824999999675,
          "durationTicks": 288,
          "midi": 63,
          "name": "D#4",
          "ticks": 128256,
          "time": 143.142714,
          "velocity": 0.3937007874015748
        },
        {
          "duration": 0.32142824999999675,
          "durationTicks": 288,
          "midi": 39,
          "name": "D#2",
          "ticks": 128544,
          "time": 143.46414225,
          "velocity": 0.3937007874015748
        },
        {
          "duration": 0.32142824999999675,
          "durationTicks": 288,
          "midi": 39,
          "name": "D#2",
          "ticks": 128640,
          "time": 143.57128500000002,
          "velocity": 0.3937007874015748
        },
        {
          "duration": 0.32142824999999675,
          "durationTicks": 288,
          "midi": 70,
          "name": "A#4",
          "ticks": 128640,
          "time": 143.57128500000002,
          "velocity": 0.3937007874015748
        },
        {
          "duration": 0.32142824999999675,
          "durationTicks": 288,
          "midi": 39,
          "name": "D#2",
          "ticks": 128832,
          "time": 143.7855705,
          "velocity": 0.3937007874015748
        },
        {
          "duration": 0.32142824999999675,
          "durationTicks": 288,
          "midi": 73,
          "name": "C#5",
          "ticks": 128832,
          "time": 143.7855705,
          "velocity": 0.3937007874015748
        },
        {
          "duration": 0.32142824999999675,
          "durationTicks": 288,
          "midi": 35,
          "name": "B1",
          "ticks": 129024,
          "time": 143.99985600000002,
          "velocity": 0.3937007874015748
        },
        {
          "duration": 0.32142824999999675,
          "durationTicks": 288,
          "midi": 73,
          "name": "C#5",
          "ticks": 129024,
          "time": 143.99985600000002,
          "velocity": 0.3937007874015748
        },
        {
          "duration": 0.32142824999999675,
          "durationTicks": 288,
          "midi": 75,
          "name": "D#5",
          "ticks": 129216,
          "time": 144.2141415,
          "velocity": 0.3937007874015748
        },
        {
          "duration": 0.32142824999999675,
          "durationTicks": 288,
          "midi": 35,
          "name": "B1",
          "ticks": 129312,
          "time": 144.32128425000002,
          "velocity": 0.3937007874015748
        },
        {
          "duration": 0.3214282500000252,
          "durationTicks": 288,
          "midi": 35,
          "name": "B1",
          "ticks": 129408,
          "time": 144.428427,
          "velocity": 0.3937007874015748
        },
        {
          "duration": 0.3214282500000252,
          "durationTicks": 288,
          "midi": 70,
          "name": "A#4",
          "ticks": 129408,
          "time": 144.428427,
          "velocity": 0.3937007874015748
        },
        {
          "duration": 0.32142824999999675,
          "durationTicks": 288,
          "midi": 35,
          "name": "B1",
          "ticks": 129600,
          "time": 144.64271250000002,
          "velocity": 0.3937007874015748
        },
        {
          "duration": 0.32142824999999675,
          "durationTicks": 288,
          "midi": 68,
          "name": "G#4",
          "ticks": 129600,
          "time": 144.64271250000002,
          "velocity": 0.3937007874015748
        },
        {
          "duration": 0.32142824999999675,
          "durationTicks": 288,
          "midi": 35,
          "name": "B1",
          "ticks": 129792,
          "time": 144.856998,
          "velocity": 0.3937007874015748
        },
        {
          "duration": 0.32142824999999675,
          "durationTicks": 288,
          "midi": 70,
          "name": "A#4",
          "ticks": 129792,
          "time": 144.856998,
          "velocity": 0.3937007874015748
        },
        {
          "duration": 0.32142824999999675,
          "durationTicks": 288,
          "midi": 35,
          "name": "B1",
          "ticks": 130080,
          "time": 145.17842625,
          "velocity": 0.3937007874015748
        },
        {
          "duration": 0.32142824999999675,
          "durationTicks": 288,
          "midi": 35,
          "name": "B1",
          "ticks": 130176,
          "time": 145.285569,
          "velocity": 0.3937007874015748
        },
        {
          "duration": 0.32142824999999675,
          "durationTicks": 288,
          "midi": 68,
          "name": "G#4",
          "ticks": 130176,
          "time": 145.285569,
          "velocity": 0.3937007874015748
        },
        {
          "duration": 0.3214282500000252,
          "durationTicks": 288,
          "midi": 35,
          "name": "B1",
          "ticks": 130368,
          "time": 145.4998545,
          "velocity": 0.3937007874015748
        },
        {
          "duration": 0.3214282500000252,
          "durationTicks": 288,
          "midi": 70,
          "name": "A#4",
          "ticks": 130368,
          "time": 145.4998545,
          "velocity": 0.3937007874015748
        },
        {
          "duration": 0.32142824999999675,
          "durationTicks": 288,
          "midi": 37,
          "name": "C#2",
          "ticks": 130560,
          "time": 145.71414000000001,
          "velocity": 0.3937007874015748
        },
        {
          "duration": 0.32142824999999675,
          "durationTicks": 288,
          "midi": 73,
          "name": "C#5",
          "ticks": 130560,
          "time": 145.71414000000001,
          "velocity": 0.3937007874015748
        },
        {
          "duration": 0.32142824999999675,
          "durationTicks": 288,
          "midi": 75,
          "name": "D#5",
          "ticks": 130752,
          "time": 145.9284255,
          "velocity": 0.3937007874015748
        },
        {
          "duration": 0.32142824999999675,
          "durationTicks": 288,
          "midi": 37,
          "name": "C#2",
          "ticks": 130848,
          "time": 146.03556825,
          "velocity": 0.3937007874015748
        },
        {
          "duration": 0.32142824999999675,
          "durationTicks": 288,
          "midi": 37,
          "name": "C#2",
          "ticks": 130944,
          "time": 146.14271100000002,
          "velocity": 0.3937007874015748
        },
        {
          "duration": 0.32142824999999675,
          "durationTicks": 288,
          "midi": 70,
          "name": "A#4",
          "ticks": 130944,
          "time": 146.14271100000002,
          "velocity": 0.3937007874015748
        },
        {
          "duration": 0.32142824999999675,
          "durationTicks": 288,
          "midi": 37,
          "name": "C#2",
          "ticks": 131136,
          "time": 146.3569965,
          "velocity": 0.3937007874015748
        },
        {
          "duration": 0.32142824999999675,
          "durationTicks": 288,
          "midi": 68,
          "name": "G#4",
          "ticks": 131136,
          "time": 146.3569965,
          "velocity": 0.3937007874015748
        },
        {
          "duration": 0.32142824999999675,
          "durationTicks": 288,
          "midi": 37,
          "name": "C#2",
          "ticks": 131328,
          "time": 146.57128200000002,
          "velocity": 0.3937007874015748
        },
        {
          "duration": 0.32142824999999675,
          "durationTicks": 288,
          "midi": 70,
          "name": "A#4",
          "ticks": 131328,
          "time": 146.57128200000002,
          "velocity": 0.3937007874015748
        },
        {
          "duration": 0.32142824999999675,
          "durationTicks": 288,
          "midi": 37,
          "name": "C#2",
          "ticks": 131616,
          "time": 146.89271025000002,
          "velocity": 0.3937007874015748
        },
        {
          "duration": 0.32142824999999675,
          "durationTicks": 288,
          "midi": 37,
          "name": "C#2",
          "ticks": 131712,
          "time": 146.999853,
          "velocity": 0.3937007874015748
        },
        {
          "duration": 0.32142824999999675,
          "durationTicks": 288,
          "midi": 68,
          "name": "G#4",
          "ticks": 131712,
          "time": 146.999853,
          "velocity": 0.3937007874015748
        },
        {
          "duration": 0.32142824999999675,
          "durationTicks": 288,
          "midi": 37,
          "name": "C#2",
          "ticks": 131904,
          "time": 147.21413850000002,
          "velocity": 0.3937007874015748
        },
        {
          "duration": 0.32142824999999675,
          "durationTicks": 288,
          "midi": 70,
          "name": "A#4",
          "ticks": 131904,
          "time": 147.21413850000002,
          "velocity": 0.3937007874015748
        },
        {
          "duration": 0.32142824999999675,
          "durationTicks": 288,
          "midi": 39,
          "name": "D#2",
          "ticks": 132096,
          "time": 147.428424,
          "velocity": 0.3937007874015748
        },
        {
          "duration": 0.32142824999999675,
          "durationTicks": 288,
          "midi": 68,
          "name": "G#4",
          "ticks": 132096,
          "time": 147.428424,
          "velocity": 0.3937007874015748
        },
        {
          "duration": 0.32142824999999675,
          "durationTicks": 288,
          "midi": 66,
          "name": "F#4",
          "ticks": 132288,
          "time": 147.64270950000002,
          "velocity": 0.3937007874015748
        },
        {
          "duration": 0.32142824999999675,
          "durationTicks": 288,
          "midi": 39,
          "name": "D#2",
          "ticks": 132384,
          "time": 147.74985225,
          "velocity": 0.3937007874015748
        },
        {
          "duration": 0.32142824999999675,
          "durationTicks": 288,
          "midi": 39,
          "name": "D#2",
          "ticks": 132480,
          "time": 147.856995,
          "velocity": 0.3937007874015748
        },
        {
          "duration": 0.32142824999999675,
          "durationTicks": 288,
          "midi": 65,
          "name": "F4",
          "ticks": 132480,
          "time": 147.856995,
          "velocity": 0.3937007874015748
        },
        {
          "duration": 0.3214282500000252,
          "durationTicks": 288,
          "midi": 39,
          "name": "D#2",
          "ticks": 132672,
          "time": 148.0712805,
          "velocity": 0.3937007874015748
        },
        {
          "duration": 0.3214282500000252,
          "durationTicks": 288,
          "midi": 61,
          "name": "C#4",
          "ticks": 132672,
          "time": 148.0712805,
          "velocity": 0.3937007874015748
        },
        {
          "duration": 0.32142824999999675,
          "durationTicks": 288,
          "midi": 39,
          "name": "D#2",
          "ticks": 132864,
          "time": 148.28556600000002,
          "velocity": 0.3937007874015748
        },
        {
          "duration": 0.32142824999999675,
          "durationTicks": 288,
          "midi": 63,
          "name": "D#4",
          "ticks": 132864,
          "time": 148.28556600000002,
          "velocity": 0.3937007874015748
        },
        {
          "duration": 0.32142824999999675,
          "durationTicks": 288,
          "midi": 39,
          "name": "D#2",
          "ticks": 133152,
          "time": 148.60699425,
          "velocity": 0.3937007874015748
        },
        {
          "duration": 0.32142824999999675,
          "durationTicks": 288,
          "midi": 39,
          "name": "D#2",
          "ticks": 133248,
          "time": 148.71413700000002,
          "velocity": 0.3937007874015748
        },
        {
          "duration": 0.32142824999999675,
          "durationTicks": 288,
          "midi": 61,
          "name": "C#4",
          "ticks": 133248,
          "time": 148.71413700000002,
          "velocity": 0.3937007874015748
        },
        {
          "duration": 0.32142824999999675,
          "durationTicks": 288,
          "midi": 39,
          "name": "D#2",
          "ticks": 133440,
          "time": 148.9284225,
          "velocity": 0.3937007874015748
        },
        {
          "duration": 0.32142824999999675,
          "durationTicks": 288,
          "midi": 63,
          "name": "D#4",
          "ticks": 133440,
          "time": 148.9284225,
          "velocity": 0.3937007874015748
        },
        {
          "duration": 0.3214282500000252,
          "durationTicks": 288,
          "midi": 39,
          "name": "D#2",
          "ticks": 133632,
          "time": 149.142708,
          "velocity": 0.3937007874015748
        },
        {
          "duration": 0.3214282500000252,
          "durationTicks": 288,
          "midi": 65,
          "name": "F4",
          "ticks": 133632,
          "time": 149.142708,
          "velocity": 0.3937007874015748
        },
        {
          "duration": 0.32142824999999675,
          "durationTicks": 288,
          "midi": 66,
          "name": "F#4",
          "ticks": 133824,
          "time": 149.35699350000002,
          "velocity": 0.3937007874015748
        },
        {
          "duration": 0.32142824999999675,
          "durationTicks": 288,
          "midi": 39,
          "name": "D#2",
          "ticks": 133920,
          "time": 149.46413625000002,
          "velocity": 0.3937007874015748
        },
        {
          "duration": 0.32142824999999675,
          "durationTicks": 288,
          "midi": 39,
          "name": "D#2",
          "ticks": 134016,
          "time": 149.571279,
          "velocity": 0.3937007874015748
        },
        {
          "duration": 0.32142824999999675,
          "durationTicks": 288,
          "midi": 68,
          "name": "G#4",
          "ticks": 134016,
          "time": 149.571279,
          "velocity": 0.3937007874015748
        },
        {
          "duration": 0.32142824999999675,
          "durationTicks": 288,
          "midi": 39,
          "name": "D#2",
          "ticks": 134208,
          "time": 149.78556450000002,
          "velocity": 0.3937007874015748
        },
        {
          "duration": 0.32142824999999675,
          "durationTicks": 288,
          "midi": 70,
          "name": "A#4",
          "ticks": 134208,
          "time": 149.78556450000002,
          "velocity": 0.3937007874015748
        },
        {
          "duration": 0.32142824999999675,
          "durationTicks": 288,
          "midi": 39,
          "name": "D#2",
          "ticks": 134400,
          "time": 149.99985,
          "velocity": 0.3937007874015748
        },
        {
          "duration": 0.32142824999999675,
          "durationTicks": 288,
          "midi": 63,
          "name": "D#4",
          "ticks": 134400,
          "time": 149.99985,
          "velocity": 0.3937007874015748
        },
        {
          "duration": 0.32142824999999675,
          "durationTicks": 288,
          "midi": 39,
          "name": "D#2",
          "ticks": 134688,
          "time": 150.32127825,
          "velocity": 0.3937007874015748
        },
        {
          "duration": 0.32142824999999675,
          "durationTicks": 288,
          "midi": 39,
          "name": "D#2",
          "ticks": 134784,
          "time": 150.42842100000001,
          "velocity": 0.3937007874015748
        },
        {
          "duration": 0.32142824999999675,
          "durationTicks": 288,
          "midi": 70,
          "name": "A#4",
          "ticks": 134784,
          "time": 150.42842100000001,
          "velocity": 0.3937007874015748
        },
        {
          "duration": 0.32142824999999675,
          "durationTicks": 288,
          "midi": 39,
          "name": "D#2",
          "ticks": 134976,
          "time": 150.6427065,
          "velocity": 0.3937007874015748
        },
        {
          "duration": 0.32142824999999675,
          "durationTicks": 288,
          "midi": 73,
          "name": "C#5",
          "ticks": 134976,
          "time": 150.6427065,
          "velocity": 0.3937007874015748
        },
        {
          "duration": 0.32142824999999675,
          "durationTicks": 288,
          "midi": 35,
          "name": "B1",
          "ticks": 135168,
          "time": 150.85699200000002,
          "velocity": 0.3937007874015748
        },
        {
          "duration": 0.32142824999999675,
          "durationTicks": 288,
          "midi": 73,
          "name": "C#5",
          "ticks": 135168,
          "time": 150.85699200000002,
          "velocity": 0.3937007874015748
        },
        {
          "duration": 0.32142824999999675,
          "durationTicks": 288,
          "midi": 75,
          "name": "D#5",
          "ticks": 135360,
          "time": 151.0712775,
          "velocity": 0.3937007874015748
        },
        {
          "duration": 0.32142824999999675,
          "durationTicks": 288,
          "midi": 35,
          "name": "B1",
          "ticks": 135456,
          "time": 151.17842025000002,
          "velocity": 0.3937007874015748
        },
        {
          "duration": 0.32142824999999675,
          "durationTicks": 288,
          "midi": 51,
          "name": "D#3",
          "ticks": 135456,
          "time": 151.17842025000002,
          "velocity": 0.3937007874015748
        },
        {
          "duration": 0.32142824999999675,
          "durationTicks": 288,
          "midi": 35,
          "name": "B1",
          "ticks": 135552,
          "time": 151.28556300000002,
          "velocity": 0.3937007874015748
        },
        {
          "duration": 0.32142824999999675,
          "durationTicks": 288,
          "midi": 70,
          "name": "A#4",
          "ticks": 135552,
          "time": 151.28556300000002,
          "velocity": 0.3937007874015748
        },
        {
          "duration": 0.32142824999999675,
          "durationTicks": 288,
          "midi": 51,
          "name": "D#3",
          "ticks": 135648,
          "time": 151.39270575,
          "velocity": 0.3937007874015748
        },
        {
          "duration": 0.32142824999999675,
          "durationTicks": 288,
          "midi": 35,
          "name": "B1",
          "ticks": 135744,
          "time": 151.4998485,
          "velocity": 0.3937007874015748
        },
        {
          "duration": 0.32142824999999675,
          "durationTicks": 288,
          "midi": 49,
          "name": "C#3",
          "ticks": 135744,
          "time": 151.4998485,
          "velocity": 0.3937007874015748
        },
        {
          "duration": 0.32142824999999675,
          "durationTicks": 288,
          "midi": 68,
          "name": "G#4",
          "ticks": 135744,
          "time": 151.4998485,
          "velocity": 0.3937007874015748
        },
        {
          "duration": 0.32142824999999675,
          "durationTicks": 288,
          "midi": 51,
          "name": "D#3",
          "ticks": 135840,
          "time": 151.60699125000002,
          "velocity": 0.3937007874015748
        },
        {
          "duration": 0.3214282500000252,
          "durationTicks": 288,
          "midi": 35,
          "name": "B1",
          "ticks": 135936,
          "time": 151.714134,
          "velocity": 0.3937007874015748
        },
        {
          "duration": 0.3214282500000252,
          "durationTicks": 288,
          "midi": 70,
          "name": "A#4",
          "ticks": 135936,
          "time": 151.714134,
          "velocity": 0.3937007874015748
        },
        {
          "duration": 0.32142824999999675,
          "durationTicks": 288,
          "midi": 35,
          "name": "B1",
          "ticks": 136224,
          "time": 152.03556225000003,
          "velocity": 0.3937007874015748
        },
        {
          "duration": 0.32142824999999675,
          "durationTicks": 288,
          "midi": 51,
          "name": "D#3",
          "ticks": 136224,
          "time": 152.03556225000003,
          "velocity": 0.3937007874015748
        },
        {
          "duration": 0.32142824999999675,
          "durationTicks": 288,
          "midi": 35,
          "name": "B1",
          "ticks": 136320,
          "time": 152.142705,
          "velocity": 0.3937007874015748
        },
        {
          "duration": 0.32142824999999675,
          "durationTicks": 288,
          "midi": 68,
          "name": "G#4",
          "ticks": 136320,
          "time": 152.142705,
          "velocity": 0.3937007874015748
        },
        {
          "duration": 0.32142824999999675,
          "durationTicks": 288,
          "midi": 51,
          "name": "D#3",
          "ticks": 136416,
          "time": 152.24984775000001,
          "velocity": 0.3937007874015748
        },
        {
          "duration": 0.32142824999999675,
          "durationTicks": 288,
          "midi": 35,
          "name": "B1",
          "ticks": 136512,
          "time": 152.35699050000002,
          "velocity": 0.3937007874015748
        },
        {
          "duration": 0.32142824999999675,
          "durationTicks": 288,
          "midi": 49,
          "name": "C#3",
          "ticks": 136512,
          "time": 152.35699050000002,
          "velocity": 0.3937007874015748
        },
        {
          "duration": 0.32142824999999675,
          "durationTicks": 288,
          "midi": 70,
          "name": "A#4",
          "ticks": 136512,
          "time": 152.35699050000002,
          "velocity": 0.3937007874015748
        },
        {
          "duration": 0.32142824999999675,
          "durationTicks": 288,
          "midi": 51,
          "name": "D#3",
          "ticks": 136608,
          "time": 152.46413325,
          "velocity": 0.3937007874015748
        },
        {
          "duration": 0.32142824999999675,
          "durationTicks": 288,
          "midi": 37,
          "name": "C#2",
          "ticks": 136704,
          "time": 152.571276,
          "velocity": 0.3937007874015748
        },
        {
          "duration": 0.32142824999999675,
          "durationTicks": 288,
          "midi": 73,
          "name": "C#5",
          "ticks": 136704,
          "time": 152.571276,
          "velocity": 0.3937007874015748
        },
        {
          "duration": 0.3214282500000252,
          "durationTicks": 288,
          "midi": 75,
          "name": "D#5",
          "ticks": 136896,
          "time": 152.7855615,
          "velocity": 0.3937007874015748
        },
        {
          "duration": 0.32142824999999675,
          "durationTicks": 288,
          "midi": 37,
          "name": "C#2",
          "ticks": 136992,
          "time": 152.89270425,
          "velocity": 0.3937007874015748
        },
        {
          "duration": 0.32142824999999675,
          "durationTicks": 288,
          "midi": 51,
          "name": "D#3",
          "ticks": 136992,
          "time": 152.89270425,
          "velocity": 0.3937007874015748
        },
        {
          "duration": 0.32142824999999675,
          "durationTicks": 288,
          "midi": 37,
          "name": "C#2",
          "ticks": 137088,
          "time": 152.99984700000002,
          "velocity": 0.3937007874015748
        },
        {
          "duration": 0.32142824999999675,
          "durationTicks": 288,
          "midi": 70,
          "name": "A#4",
          "ticks": 137088,
          "time": 152.99984700000002,
          "velocity": 0.3937007874015748
        },
        {
          "duration": 0.32142824999999675,
          "durationTicks": 288,
          "midi": 51,
          "name": "D#3",
          "ticks": 137184,
          "time": 153.10698975000003,
          "velocity": 0.3937007874015748
        },
        {
          "duration": 0.32142824999999675,
          "durationTicks": 288,
          "midi": 37,
          "name": "C#2",
          "ticks": 137280,
          "time": 153.2141325,
          "velocity": 0.3937007874015748
        },
        {
          "duration": 0.32142824999999675,
          "durationTicks": 288,
          "midi": 49,
          "name": "C#3",
          "ticks": 137280,
          "time": 153.2141325,
          "velocity": 0.3937007874015748
        },
        {
          "duration": 0.32142824999999675,
          "durationTicks": 288,
          "midi": 68,
          "name": "G#4",
          "ticks": 137280,
          "time": 153.2141325,
          "velocity": 0.3937007874015748
        },
        {
          "duration": 0.32142824999999675,
          "durationTicks": 288,
          "midi": 51,
          "name": "D#3",
          "ticks": 137376,
          "time": 153.32127525,
          "velocity": 0.3937007874015748
        },
        {
          "duration": 0.32142824999999675,
          "durationTicks": 288,
          "midi": 37,
          "name": "C#2",
          "ticks": 137472,
          "time": 153.42841800000002,
          "velocity": 0.3937007874015748
        },
        {
          "duration": 0.32142824999999675,
          "durationTicks": 288,
          "midi": 70,
          "name": "A#4",
          "ticks": 137472,
          "time": 153.42841800000002,
          "velocity": 0.3937007874015748
        },
        {
          "duration": 0.32142824999999675,
          "durationTicks": 288,
          "midi": 37,
          "name": "C#2",
          "ticks": 137760,
          "time": 153.74984625000002,
          "velocity": 0.3937007874015748
        },
        {
          "duration": 0.32142824999999675,
          "durationTicks": 288,
          "midi": 51,
          "name": "D#3",
          "ticks": 137760,
          "time": 153.74984625000002,
          "velocity": 0.3937007874015748
        },
        {
          "duration": 0.3214282500000252,
          "durationTicks": 288,
          "midi": 37,
          "name": "C#2",
          "ticks": 137856,
          "time": 153.856989,
          "velocity": 0.3937007874015748
        },
        {
          "duration": 0.3214282500000252,
          "durationTicks": 288,
          "midi": 68,
          "name": "G#4",
          "ticks": 137856,
          "time": 153.856989,
          "velocity": 0.3937007874015748
        },
        {
          "duration": 0.32142824999999675,
          "durationTicks": 288,
          "midi": 51,
          "name": "D#3",
          "ticks": 137952,
          "time": 153.96413175,
          "velocity": 0.3937007874015748
        },
        {
          "duration": 0.32142824999999675,
          "durationTicks": 288,
          "midi": 37,
          "name": "C#2",
          "ticks": 138048,
          "time": 154.07127450000002,
          "velocity": 0.3937007874015748
        },
        {
          "duration": 0.32142824999999675,
          "durationTicks": 288,
          "midi": 49,
          "name": "C#3",
          "ticks": 138048,
          "time": 154.07127450000002,
          "velocity": 0.3937007874015748
        },
        {
          "duration": 0.32142824999999675,
          "durationTicks": 288,
          "midi": 70,
          "name": "A#4",
          "ticks": 138048,
          "time": 154.07127450000002,
          "velocity": 0.3937007874015748
        },
        {
          "duration": 0.32142824999999675,
          "durationTicks": 288,
          "midi": 51,
          "name": "D#3",
          "ticks": 138144,
          "time": 154.17841725000002,
          "velocity": 0.3937007874015748
        },
        {
          "duration": 0.32142824999999675,
          "durationTicks": 288,
          "midi": 39,
          "name": "D#2",
          "ticks": 138240,
          "time": 154.28556,
          "velocity": 0.3937007874015748
        },
        {
          "duration": 0.32142824999999675,
          "durationTicks": 288,
          "midi": 68,
          "name": "G#4",
          "ticks": 138240,
          "time": 154.28556,
          "velocity": 0.3937007874015748
        },
        {
          "duration": 0.32142824999999675,
          "durationTicks": 288,
          "midi": 66,
          "name": "F#4",
          "ticks": 138432,
          "time": 154.49984550000002,
          "velocity": 0.3937007874015748
        },
        {
          "duration": 0.3214282500000252,
          "durationTicks": 288,
          "midi": 39,
          "name": "D#2",
          "ticks": 138528,
          "time": 154.60698825,
          "velocity": 0.3937007874015748
        },
        {
          "duration": 0.3214282500000252,
          "durationTicks": 288,
          "midi": 51,
          "name": "D#3",
          "ticks": 138528,
          "time": 154.60698825,
          "velocity": 0.3937007874015748
        },
        {
          "duration": 0.32142824999999675,
          "durationTicks": 288,
          "midi": 39,
          "name": "D#2",
          "ticks": 138624,
          "time": 154.714131,
          "velocity": 0.3937007874015748
        },
        {
          "duration": 0.32142824999999675,
          "durationTicks": 288,
          "midi": 65,
          "name": "F4",
          "ticks": 138624,
          "time": 154.714131,
          "velocity": 0.3937007874015748
        },
        {
          "duration": 0.32142824999999675,
          "durationTicks": 288,
          "midi": 51,
          "name": "D#3",
          "ticks": 138720,
          "time": 154.82127375000002,
          "velocity": 0.3937007874015748
        },
        {
          "duration": 0.32142824999999675,
          "durationTicks": 288,
          "midi": 39,
          "name": "D#2",
          "ticks": 138816,
          "time": 154.92841650000003,
          "velocity": 0.3937007874015748
        },
        {
          "duration": 0.32142824999999675,
          "durationTicks": 288,
          "midi": 49,
          "name": "C#3",
          "ticks": 138816,
          "time": 154.92841650000003,
          "velocity": 0.3937007874015748
        },
        {
          "duration": 0.32142824999999675,
          "durationTicks": 288,
          "midi": 61,
          "name": "C#4",
          "ticks": 138816,
          "time": 154.92841650000003,
          "velocity": 0.3937007874015748
        },
        {
          "duration": 0.32142824999999675,
          "durationTicks": 288,
          "midi": 51,
          "name": "D#3",
          "ticks": 138912,
          "time": 155.03555925,
          "velocity": 0.3937007874015748
        },
        {
          "duration": 0.32142824999999675,
          "durationTicks": 288,
          "midi": 39,
          "name": "D#2",
          "ticks": 139008,
          "time": 155.142702,
          "velocity": 0.3937007874015748
        },
        {
          "duration": 0.32142824999999675,
          "durationTicks": 288,
          "midi": 63,
          "name": "D#4",
          "ticks": 139008,
          "time": 155.142702,
          "velocity": 0.3937007874015748
        },
        {
          "duration": 0.32142824999999675,
          "durationTicks": 288,
          "midi": 39,
          "name": "D#2",
          "ticks": 139296,
          "time": 155.46413025,
          "velocity": 0.3937007874015748
        },
        {
          "duration": 0.32142824999999675,
          "durationTicks": 288,
          "midi": 51,
          "name": "D#3",
          "ticks": 139296,
          "time": 155.46413025,
          "velocity": 0.3937007874015748
        },
        {
          "duration": 0.32142824999999675,
          "durationTicks": 288,
          "midi": 39,
          "name": "D#2",
          "ticks": 139392,
          "time": 155.57127300000002,
          "velocity": 0.3937007874015748
        },
        {
          "duration": 0.32142824999999675,
          "durationTicks": 288,
          "midi": 61,
          "name": "C#4",
          "ticks": 139392,
          "time": 155.57127300000002,
          "velocity": 0.3937007874015748
        },
        {
          "duration": 0.3214282500000252,
          "durationTicks": 288,
          "midi": 51,
          "name": "D#3",
          "ticks": 139488,
          "time": 155.67841575,
          "velocity": 0.3937007874015748
        },
        {
          "duration": 0.32142824999999675,
          "durationTicks": 288,
          "midi": 39,
          "name": "D#2",
          "ticks": 139584,
          "time": 155.7855585,
          "velocity": 0.3937007874015748
        },
        {
          "duration": 0.32142824999999675,
          "durationTicks": 288,
          "midi": 49,
          "name": "C#3",
          "ticks": 139584,
          "time": 155.7855585,
          "velocity": 0.3937007874015748
        },
        {
          "duration": 0.32142824999999675,
          "durationTicks": 288,
          "midi": 63,
          "name": "D#4",
          "ticks": 139584,
          "time": 155.7855585,
          "velocity": 0.3937007874015748
        },
        {
          "duration": 0.32142824999999675,
          "durationTicks": 288,
          "midi": 51,
          "name": "D#3",
          "ticks": 139680,
          "time": 155.89270125000002,
          "velocity": 0.3937007874015748
        },
        {
          "duration": 0.32142824999999675,
          "durationTicks": 288,
          "midi": 39,
          "name": "D#2",
          "ticks": 139776,
          "time": 155.99984400000002,
          "velocity": 0.3937007874015748
        },
        {
          "duration": 0.32142824999999675,
          "durationTicks": 288,
          "midi": 65,
          "name": "F4",
          "ticks": 139776,
          "time": 155.99984400000002,
          "velocity": 0.3937007874015748
        },
        {
          "duration": 0.32142824999999675,
          "durationTicks": 288,
          "midi": 66,
          "name": "F#4",
          "ticks": 139968,
          "time": 156.2141295,
          "velocity": 0.3937007874015748
        },
        {
          "duration": 0.32142824999999675,
          "durationTicks": 288,
          "midi": 39,
          "name": "D#2",
          "ticks": 140064,
          "time": 156.32127225000002,
          "velocity": 0.3937007874015748
        },
        {
          "duration": 0.32142824999999675,
          "durationTicks": 288,
          "midi": 51,
          "name": "D#3",
          "ticks": 140064,
          "time": 156.32127225000002,
          "velocity": 0.3937007874015748
        },
        {
          "duration": 0.3214282500000252,
          "durationTicks": 288,
          "midi": 39,
          "name": "D#2",
          "ticks": 140160,
          "time": 156.428415,
          "velocity": 0.3937007874015748
        },
        {
          "duration": 0.3214282500000252,
          "durationTicks": 288,
          "midi": 68,
          "name": "G#4",
          "ticks": 140160,
          "time": 156.428415,
          "velocity": 0.3937007874015748
        },
        {
          "duration": 0.32142824999999675,
          "durationTicks": 288,
          "midi": 51,
          "name": "D#3",
          "ticks": 140256,
          "time": 156.53555775,
          "velocity": 0.3937007874015748
        },
        {
          "duration": 0.32142824999999675,
          "durationTicks": 288,
          "midi": 39,
          "name": "D#2",
          "ticks": 140352,
          "time": 156.64270050000002,
          "velocity": 0.3937007874015748
        },
        {
          "duration": 0.32142824999999675,
          "durationTicks": 288,
          "midi": 49,
          "name": "C#3",
          "ticks": 140352,
          "time": 156.64270050000002,
          "velocity": 0.3937007874015748
        },
        {
          "duration": 0.32142824999999675,
          "durationTicks": 288,
          "midi": 70,
          "name": "A#4",
          "ticks": 140352,
          "time": 156.64270050000002,
          "velocity": 0.3937007874015748
        },
        {
          "duration": 0.32142824999999675,
          "durationTicks": 288,
          "midi": 51,
          "name": "D#3",
          "ticks": 140448,
          "time": 156.74984325000003,
          "velocity": 0.3937007874015748
        },
        {
          "duration": 0.32142824999999675,
          "durationTicks": 288,
          "midi": 39,
          "name": "D#2",
          "ticks": 140544,
          "time": 156.856986,
          "velocity": 0.3937007874015748
        },
        {
          "duration": 0.32142824999999675,
          "durationTicks": 288,
          "midi": 56,
          "name": "G#3",
          "ticks": 140544,
          "time": 156.856986,
          "velocity": 0.3937007874015748
        },
        {
          "duration": 0.32142824999999675,
          "durationTicks": 288,
          "midi": 63,
          "name": "D#4",
          "ticks": 140544,
          "time": 156.856986,
          "velocity": 0.3937007874015748
        },
        {
          "duration": 0.32142824999999675,
          "durationTicks": 288,
          "midi": 54,
          "name": "F#3",
          "ticks": 140736,
          "time": 157.07127150000002,
          "velocity": 0.3937007874015748
        },
        {
          "duration": 0.32142824999999675,
          "durationTicks": 288,
          "midi": 39,
          "name": "D#2",
          "ticks": 140832,
          "time": 157.17841425,
          "velocity": 0.3937007874015748
        },
        {
          "duration": 0.32142824999999675,
          "durationTicks": 288,
          "midi": 56,
          "name": "G#3",
          "ticks": 140832,
          "time": 157.17841425,
          "velocity": 0.3937007874015748
        },
        {
          "duration": 0.32142824999999675,
          "durationTicks": 288,
          "midi": 39,
          "name": "D#2",
          "ticks": 140928,
          "time": 157.285557,
          "velocity": 0.3937007874015748
        },
        {
          "duration": 0.32142824999999675,
          "durationTicks": 288,
          "midi": 54,
          "name": "F#3",
          "ticks": 140928,
          "time": 157.285557,
          "velocity": 0.3937007874015748
        },
        {
          "duration": 0.32142824999999675,
          "durationTicks": 288,
          "midi": 70,
          "name": "A#4",
          "ticks": 140928,
          "time": 157.285557,
          "velocity": 0.3937007874015748
        },
        {
          "duration": 0.3214282500000252,
          "durationTicks": 288,
          "midi": 39,
          "name": "D#2",
          "ticks": 141120,
          "time": 157.4998425,
          "velocity": 0.3937007874015748
        },
        {
          "duration": 0.3214282500000252,
          "durationTicks": 288,
          "midi": 51,
          "name": "D#3",
          "ticks": 141120,
          "time": 157.4998425,
          "velocity": 0.3937007874015748
        },
        {
          "duration": 0.3214282500000252,
          "durationTicks": 288,
          "midi": 73,
          "name": "C#5",
          "ticks": 141120,
          "time": 157.4998425,
          "velocity": 0.3937007874015748
        },
        {
          "duration": 0.32142824999999675,
          "durationTicks": 288,
          "midi": 56,
          "name": "G#3",
          "ticks": 141216,
          "time": 157.60698525,
          "velocity": 0.3937007874015748
        },
        {
          "duration": 0.32142824999999675,
          "durationTicks": 288,
          "midi": 35,
          "name": "B1",
          "ticks": 141312,
          "time": 157.71412800000002,
          "velocity": 0.3937007874015748
        },
        {
          "duration": 0.32142824999999675,
          "durationTicks": 288,
          "midi": 73,
          "name": "C#5",
          "ticks": 141312,
          "time": 157.71412800000002,
          "velocity": 0.3937007874015748
        },
        {
          "duration": 0.32142824999999675,
          "durationTicks": 288,
          "midi": 75,
          "name": "D#5",
          "ticks": 141504,
          "time": 157.9284135,
          "velocity": 0.3937007874015748
        },
        {
          "duration": 0.32142824999999675,
          "durationTicks": 288,
          "midi": 35,
          "name": "B1",
          "ticks": 141600,
          "time": 158.03555625,
          "velocity": 0.3937007874015748
        },
        {
          "duration": 0.32142824999999675,
          "durationTicks": 288,
          "midi": 51,
          "name": "D#3",
          "ticks": 141600,
          "time": 158.03555625,
          "velocity": 0.3937007874015748
        },
        {
          "duration": 0.32142824999999675,
          "durationTicks": 288,
          "midi": 35,
          "name": "B1",
          "ticks": 141696,
          "time": 158.14269900000002,
          "velocity": 0.3937007874015748
        },
        {
          "duration": 0.32142824999999675,
          "durationTicks": 288,
          "midi": 70,
          "name": "A#4",
          "ticks": 141696,
          "time": 158.14269900000002,
          "velocity": 0.3937007874015748
        },
        {
          "duration": 0.3214282500000252,
          "durationTicks": 288,
          "midi": 51,
          "name": "D#3",
          "ticks": 141792,
          "time": 158.24984175,
          "velocity": 0.3937007874015748
        },
        {
          "duration": 0.32142824999999675,
          "durationTicks": 288,
          "midi": 35,
          "name": "B1",
          "ticks": 141888,
          "time": 158.3569845,
          "velocity": 0.3937007874015748
        },
        {
          "duration": 0.32142824999999675,
          "durationTicks": 288,
          "midi": 49,
          "name": "C#3",
          "ticks": 141888,
          "time": 158.3569845,
          "velocity": 0.3937007874015748
        },
        {
          "duration": 0.32142824999999675,
          "durationTicks": 288,
          "midi": 68,
          "name": "G#4",
          "ticks": 141888,
          "time": 158.3569845,
          "velocity": 0.3937007874015748
        },
        {
          "duration": 0.32142824999999675,
          "durationTicks": 288,
          "midi": 51,
          "name": "D#3",
          "ticks": 141984,
          "time": 158.46412725000002,
          "velocity": 0.3937007874015748
        },
        {
          "duration": 0.32142824999999675,
          "durationTicks": 288,
          "midi": 35,
          "name": "B1",
          "ticks": 142080,
          "time": 158.57127000000003,
          "velocity": 0.3937007874015748
        },
        {
          "duration": 0.32142824999999675,
          "durationTicks": 288,
          "midi": 70,
          "name": "A#4",
          "ticks": 142080,
          "time": 158.57127000000003,
          "velocity": 0.3937007874015748
        },
        {
          "duration": 0.32142824999999675,
          "durationTicks": 288,
          "midi": 35,
          "name": "B1",
          "ticks": 142368,
          "time": 158.89269825000002,
          "velocity": 0.3937007874015748
        },
        {
          "duration": 0.32142824999999675,
          "durationTicks": 288,
          "midi": 51,
          "name": "D#3",
          "ticks": 142368,
          "time": 158.89269825000002,
          "velocity": 0.3937007874015748
        },
        {
          "duration": 0.32142824999999675,
          "durationTicks": 288,
          "midi": 35,
          "name": "B1",
          "ticks": 142464,
          "time": 158.999841,
          "velocity": 0.3937007874015748
        },
        {
          "duration": 0.32142824999999675,
          "durationTicks": 288,
          "midi": 68,
          "name": "G#4",
          "ticks": 142464,
          "time": 158.999841,
          "velocity": 0.3937007874015748
        },
        {
          "duration": 0.32142824999999675,
          "durationTicks": 288,
          "midi": 51,
          "name": "D#3",
          "ticks": 142560,
          "time": 159.10698375,
          "velocity": 0.3937007874015748
        },
        {
          "duration": 0.32142824999999675,
          "durationTicks": 288,
          "midi": 35,
          "name": "B1",
          "ticks": 142656,
          "time": 159.21412650000002,
          "velocity": 0.3937007874015748
        },
        {
          "duration": 0.32142824999999675,
          "durationTicks": 288,
          "midi": 49,
          "name": "C#3",
          "ticks": 142656,
          "time": 159.21412650000002,
          "velocity": 0.3937007874015748
        },
        {
          "duration": 0.32142824999999675,
          "durationTicks": 288,
          "midi": 70,
          "name": "A#4",
          "ticks": 142656,
          "time": 159.21412650000002,
          "velocity": 0.3937007874015748
        },
        {
          "duration": 0.3214282500000252,
          "durationTicks": 288,
          "midi": 51,
          "name": "D#3",
          "ticks": 142752,
          "time": 159.32126925,
          "velocity": 0.3937007874015748
        },
        {
          "duration": 0.32142824999999675,
          "durationTicks": 288,
          "midi": 37,
          "name": "C#2",
          "ticks": 142848,
          "time": 159.428412,
          "velocity": 0.3937007874015748
        },
        {
          "duration": 0.32142824999999675,
          "durationTicks": 288,
          "midi": 73,
          "name": "C#5",
          "ticks": 142848,
          "time": 159.428412,
          "velocity": 0.3937007874015748
        },
        {
          "duration": 0.32142824999999675,
          "durationTicks": 288,
          "midi": 75,
          "name": "D#5",
          "ticks": 143040,
          "time": 159.64269750000003,
          "velocity": 0.3937007874015748
        },
        {
          "duration": 0.32142824999999675,
          "durationTicks": 288,
          "midi": 37,
          "name": "C#2",
          "ticks": 143136,
          "time": 159.74984025,
          "velocity": 0.3937007874015748
        },
        {
          "duration": 0.32142824999999675,
          "durationTicks": 288,
          "midi": 51,
          "name": "D#3",
          "ticks": 143136,
          "time": 159.74984025,
          "velocity": 0.3937007874015748
        },
        {
          "duration": 0.32142824999999675,
          "durationTicks": 288,
          "midi": 37,
          "name": "C#2",
          "ticks": 143232,
          "time": 159.856983,
          "velocity": 0.3937007874015748
        },
        {
          "duration": 0.32142824999999675,
          "durationTicks": 288,
          "midi": 70,
          "name": "A#4",
          "ticks": 143232,
          "time": 159.856983,
          "velocity": 0.3937007874015748
        },
        {
          "duration": 0.32142824999999675,
          "durationTicks": 288,
          "midi": 51,
          "name": "D#3",
          "ticks": 143328,
          "time": 159.96412575000002,
          "velocity": 0.3937007874015748
        },
        {
          "duration": 0.3214282500000252,
          "durationTicks": 288,
          "midi": 37,
          "name": "C#2",
          "ticks": 143424,
          "time": 160.0712685,
          "velocity": 0.3937007874015748
        },
        {
          "duration": 0.3214282500000252,
          "durationTicks": 288,
          "midi": 49,
          "name": "C#3",
          "ticks": 143424,
          "time": 160.0712685,
          "velocity": 0.3937007874015748
        },
        {
          "duration": 0.3214282500000252,
          "durationTicks": 288,
          "midi": 68,
          "name": "G#4",
          "ticks": 143424,
          "time": 160.0712685,
          "velocity": 0.3937007874015748
        },
        {
          "duration": 0.32142824999999675,
          "durationTicks": 288,
          "midi": 51,
          "name": "D#3",
          "ticks": 143520,
          "time": 160.17841125,
          "velocity": 0.3937007874015748
        },
        {
          "duration": 0.32142824999999675,
          "durationTicks": 288,
          "midi": 37,
          "name": "C#2",
          "ticks": 143616,
          "time": 160.28555400000002,
          "velocity": 0.3937007874015748
        },
        {
          "duration": 0.32142824999999675,
          "durationTicks": 288,
          "midi": 70,
          "name": "A#4",
          "ticks": 143616,
          "time": 160.28555400000002,
          "velocity": 0.3937007874015748
        },
        {
          "duration": 0.32142824999999675,
          "durationTicks": 288,
          "midi": 37,
          "name": "C#2",
          "ticks": 143904,
          "time": 160.60698225000002,
          "velocity": 0.3937007874015748
        },
        {
          "duration": 0.32142824999999675,
          "durationTicks": 288,
          "midi": 51,
          "name": "D#3",
          "ticks": 143904,
          "time": 160.60698225000002,
          "velocity": 0.3937007874015748
        },
        {
          "duration": 0.32142824999999675,
          "durationTicks": 288,
          "midi": 37,
          "name": "C#2",
          "ticks": 144000,
          "time": 160.71412500000002,
          "velocity": 0.3937007874015748
        },
        {
          "duration": 0.32142824999999675,
          "durationTicks": 288,
          "midi": 75,
          "name": "D#5",
          "ticks": 144000,
          "time": 160.71412500000002,
          "velocity": 0.3937007874015748
        },
        {
          "duration": 0.32142824999999675,
          "durationTicks": 288,
          "midi": 87,
          "name": "D#6",
          "ticks": 144000,
          "time": 160.71412500000002,
          "velocity": 0.3937007874015748
        },
        {
          "duration": 0.32142824999999675,
          "durationTicks": 288,
          "midi": 51,
          "name": "D#3",
          "ticks": 144096,
          "time": 160.82126775,
          "velocity": 0.3937007874015748
        },
        {
          "duration": 0.32142824999999675,
          "durationTicks": 288,
          "midi": 37,
          "name": "C#2",
          "ticks": 144192,
          "time": 160.9284105,
          "velocity": 0.3937007874015748
        },
        {
          "duration": 0.32142824999999675,
          "durationTicks": 288,
          "midi": 49,
          "name": "C#3",
          "ticks": 144192,
          "time": 160.9284105,
          "velocity": 0.3937007874015748
        },
        {
          "duration": 0.32142824999999675,
          "durationTicks": 288,
          "midi": 77,
          "name": "F5",
          "ticks": 144192,
          "time": 160.9284105,
          "velocity": 0.3937007874015748
        },
        {
          "duration": 0.32142824999999675,
          "durationTicks": 288,
          "midi": 89,
          "name": "F6",
          "ticks": 144192,
          "time": 160.9284105,
          "velocity": 0.3937007874015748
        },
        {
          "duration": 0.32142824999999675,
          "durationTicks": 288,
          "midi": 51,
          "name": "D#3",
          "ticks": 144288,
          "time": 161.03555325000002,
          "velocity": 0.3937007874015748
        },
        {
          "duration": 0.3214282500000252,
          "durationTicks": 288,
          "midi": 39,
          "name": "D#2",
          "ticks": 144384,
          "time": 161.142696,
          "velocity": 0.3937007874015748
        },
        {
          "duration": 0.3214282500000252,
          "durationTicks": 288,
          "midi": 78,
          "name": "F#5",
          "ticks": 144384,
          "time": 161.142696,
          "velocity": 0.3937007874015748
        },
        {
          "duration": 0.3214282500000252,
          "durationTicks": 288,
          "midi": 90,
          "name": "F#6",
          "ticks": 144384,
          "time": 161.142696,
          "velocity": 0.3937007874015748
        },
        {
          "duration": 0.32142824999999675,
          "durationTicks": 288,
          "midi": 77,
          "name": "F5",
          "ticks": 144576,
          "time": 161.35698150000002,
          "velocity": 0.3937007874015748
        },
        {
          "duration": 0.32142824999999675,
          "durationTicks": 288,
          "midi": 89,
          "name": "F6",
          "ticks": 144576,
          "time": 161.35698150000002,
          "velocity": 0.3937007874015748
        },
        {
          "duration": 0.32142824999999675,
          "durationTicks": 288,
          "midi": 39,
          "name": "D#2",
          "ticks": 144672,
          "time": 161.46412425000003,
          "velocity": 0.3937007874015748
        },
        {
          "duration": 0.32142824999999675,
          "durationTicks": 288,
          "midi": 51,
          "name": "D#3",
          "ticks": 144672,
          "time": 161.46412425000003,
          "velocity": 0.3937007874015748
        },
        {
          "duration": 0.32142824999999675,
          "durationTicks": 288,
          "midi": 39,
          "name": "D#2",
          "ticks": 144768,
          "time": 161.571267,
          "velocity": 0.3937007874015748
        },
        {
          "duration": 0.32142824999999675,
          "durationTicks": 288,
          "midi": 75,
          "name": "D#5",
          "ticks": 144768,
          "time": 161.571267,
          "velocity": 0.3937007874015748
        },
        {
          "duration": 0.32142824999999675,
          "durationTicks": 288,
          "midi": 87,
          "name": "D#6",
          "ticks": 144768,
          "time": 161.571267,
          "velocity": 0.3937007874015748
        },
        {
          "duration": 0.32142824999999675,
          "durationTicks": 288,
          "midi": 51,
          "name": "D#3",
          "ticks": 144864,
          "time": 161.67840975000001,
          "velocity": 0.3937007874015748
        },
        {
          "duration": 0.32142824999999675,
          "durationTicks": 288,
          "midi": 39,
          "name": "D#2",
          "ticks": 144960,
          "time": 161.78555250000002,
          "velocity": 0.3937007874015748
        },
        {
          "duration": 0.32142824999999675,
          "durationTicks": 288,
          "midi": 49,
          "name": "C#3",
          "ticks": 144960,
          "time": 161.78555250000002,
          "velocity": 0.3937007874015748
        },
        {
          "duration": 0.32142824999999675,
          "durationTicks": 288,
          "midi": 73,
          "name": "C#5",
          "ticks": 144960,
          "time": 161.78555250000002,
          "velocity": 0.3937007874015748
        },
        {
          "duration": 0.32142824999999675,
          "durationTicks": 288,
          "midi": 85,
          "name": "C#6",
          "ticks": 144960,
          "time": 161.78555250000002,
          "velocity": 0.3937007874015748
        },
        {
          "duration": 0.32142824999999675,
          "durationTicks": 288,
          "midi": 51,
          "name": "D#3",
          "ticks": 145056,
          "time": 161.89269525,
          "velocity": 0.3937007874015748
        },
        {
          "duration": 0.32142824999999675,
          "durationTicks": 288,
          "midi": 39,
          "name": "D#2",
          "ticks": 145152,
          "time": 161.999838,
          "velocity": 0.3937007874015748
        },
        {
          "duration": 0.32142824999999675,
          "durationTicks": 288,
          "midi": 70,
          "name": "A#4",
          "ticks": 145152,
          "time": 161.999838,
          "velocity": 0.3937007874015748
        },
        {
          "duration": 0.32142824999999675,
          "durationTicks": 288,
          "midi": 82,
          "name": "A#5",
          "ticks": 145152,
          "time": 161.999838,
          "velocity": 0.3937007874015748
        },
        {
          "duration": 0.32142824999999675,
          "durationTicks": 288,
          "midi": 39,
          "name": "D#2",
          "ticks": 145440,
          "time": 162.32126625,
          "velocity": 0.3937007874015748
        },
        {
          "duration": 0.32142824999999675,
          "durationTicks": 288,
          "midi": 51,
          "name": "D#3",
          "ticks": 145440,
          "time": 162.32126625,
          "velocity": 0.3937007874015748
        },
        {
          "duration": 0.32142824999999675,
          "durationTicks": 288,
          "midi": 39,
          "name": "D#2",
          "ticks": 145536,
          "time": 162.42840900000002,
          "velocity": 0.3937007874015748
        },
        {
          "duration": 0.32142824999999675,
          "durationTicks": 288,
          "midi": 68,
          "name": "G#4",
          "ticks": 145536,
          "time": 162.42840900000002,
          "velocity": 0.3937007874015748
        },
        {
          "duration": 0.32142824999999675,
          "durationTicks": 288,
          "midi": 80,
          "name": "G#5",
          "ticks": 145536,
          "time": 162.42840900000002,
          "velocity": 0.3937007874015748
        },
        {
          "duration": 0.32142824999999675,
          "durationTicks": 288,
          "midi": 51,
          "name": "D#3",
          "ticks": 145632,
          "time": 162.53555175000002,
          "velocity": 0.3937007874015748
        },
        {
          "duration": 0.32142824999999675,
          "durationTicks": 288,
          "midi": 39,
          "name": "D#2",
          "ticks": 145728,
          "time": 162.6426945,
          "velocity": 0.3937007874015748
        },
        {
          "duration": 0.32142824999999675,
          "durationTicks": 288,
          "midi": 49,
          "name": "C#3",
          "ticks": 145728,
          "time": 162.6426945,
          "velocity": 0.3937007874015748
        },
        {
          "duration": 0.32142824999999675,
          "durationTicks": 288,
          "midi": 70,
          "name": "A#4",
          "ticks": 145728,
          "time": 162.6426945,
          "velocity": 0.3937007874015748
        },
        {
          "duration": 0.32142824999999675,
          "durationTicks": 288,
          "midi": 82,
          "name": "A#5",
          "ticks": 145728,
          "time": 162.6426945,
          "velocity": 0.3937007874015748
        },
        {
          "duration": 0.32142824999999675,
          "durationTicks": 288,
          "midi": 51,
          "name": "D#3",
          "ticks": 145824,
          "time": 162.74983725,
          "velocity": 0.3937007874015748
        },
        {
          "duration": 0.32142824999999675,
          "durationTicks": 288,
          "midi": 39,
          "name": "D#2",
          "ticks": 145920,
          "time": 162.85698000000002,
          "velocity": 0.3937007874015748
        },
        {
          "duration": 0.32142824999999675,
          "durationTicks": 288,
          "midi": 68,
          "name": "G#4",
          "ticks": 145920,
          "time": 162.85698000000002,
          "velocity": 0.3937007874015748
        },
        {
          "duration": 0.32142824999999675,
          "durationTicks": 288,
          "midi": 80,
          "name": "G#5",
          "ticks": 145920,
          "time": 162.85698000000002,
          "velocity": 0.3937007874015748
        },
        {
          "duration": 0.32142824999999675,
          "durationTicks": 288,
          "midi": 66,
          "name": "F#4",
          "ticks": 146112,
          "time": 163.0712655,
          "velocity": 0.3937007874015748
        },
        {
          "duration": 0.32142824999999675,
          "durationTicks": 288,
          "midi": 78,
          "name": "F#5",
          "ticks": 146112,
          "time": 163.0712655,
          "velocity": 0.3937007874015748
        },
        {
          "duration": 0.32142824999999675,
          "durationTicks": 288,
          "midi": 39,
          "name": "D#2",
          "ticks": 146208,
          "time": 163.17840825000002,
          "velocity": 0.3937007874015748
        },
        {
          "duration": 0.32142824999999675,
          "durationTicks": 288,
          "midi": 51,
          "name": "D#3",
          "ticks": 146208,
          "time": 163.17840825000002,
          "velocity": 0.3937007874015748
        },
        {
          "duration": 0.32142824999999675,
          "durationTicks": 288,
          "midi": 39,
          "name": "D#2",
          "ticks": 146304,
          "time": 163.28555100000003,
          "velocity": 0.3937007874015748
        },
        {
          "duration": 0.32142824999999675,
          "durationTicks": 288,
          "midi": 65,
          "name": "F4",
          "ticks": 146304,
          "time": 163.28555100000003,
          "velocity": 0.3937007874015748
        },
        {
          "duration": 0.32142824999999675,
          "durationTicks": 288,
          "midi": 77,
          "name": "F5",
          "ticks": 146304,
          "time": 163.28555100000003,
          "velocity": 0.3937007874015748
        },
        {
          "duration": 0.32142824999999675,
          "durationTicks": 288,
          "midi": 51,
          "name": "D#3",
          "ticks": 146400,
          "time": 163.39269375,
          "velocity": 0.3937007874015748
        },
        {
          "duration": 0.32142824999999675,
          "durationTicks": 288,
          "midi": 39,
          "name": "D#2",
          "ticks": 146496,
          "time": 163.49983650000001,
          "velocity": 0.3937007874015748
        },
        {
          "duration": 0.32142824999999675,
          "durationTicks": 288,
          "midi": 49,
          "name": "C#3",
          "ticks": 146496,
          "time": 163.49983650000001,
          "velocity": 0.3937007874015748
        },
        {
          "duration": 0.32142824999999675,
          "durationTicks": 288,
          "midi": 61,
          "name": "C#4",
          "ticks": 146496,
          "time": 163.49983650000001,
          "velocity": 0.3937007874015748
        },
        {
          "duration": 0.32142824999999675,
          "durationTicks": 288,
          "midi": 73,
          "name": "C#5",
          "ticks": 146496,
          "time": 163.49983650000001,
          "velocity": 0.3937007874015748
        },
        {
          "duration": 0.32142824999999675,
          "durationTicks": 288,
          "midi": 51,
          "name": "D#3",
          "ticks": 146592,
          "time": 163.60697925000002,
          "velocity": 0.3937007874015748
        },
        {
          "duration": 0.32142824999999675,
          "durationTicks": 288,
          "midi": 39,
          "name": "D#2",
          "ticks": 146688,
          "time": 163.714122,
          "velocity": 0.3937007874015748
        },
        {
          "duration": 0.32142824999999675,
          "durationTicks": 288,
          "midi": 56,
          "name": "G#3",
          "ticks": 146688,
          "time": 163.714122,
          "velocity": 0.3937007874015748
        },
        {
          "duration": 0.32142824999999675,
          "durationTicks": 288,
          "midi": 63,
          "name": "D#4",
          "ticks": 146688,
          "time": 163.714122,
          "velocity": 0.3937007874015748
        },
        {
          "duration": 0.32142824999999675,
          "durationTicks": 288,
          "midi": 75,
          "name": "D#5",
          "ticks": 146688,
          "time": 163.714122,
          "velocity": 0.3937007874015748
        },
        {
          "duration": 0.32142824999999675,
          "durationTicks": 288,
          "midi": 54,
          "name": "F#3",
          "ticks": 146880,
          "time": 163.92840750000002,
          "velocity": 0.3937007874015748
        },
        {
          "duration": 0.3214282500000252,
          "durationTicks": 288,
          "midi": 39,
          "name": "D#2",
          "ticks": 146976,
          "time": 164.03555025,
          "velocity": 0.3937007874015748
        },
        {
          "duration": 0.3214282500000252,
          "durationTicks": 288,
          "midi": 56,
          "name": "G#3",
          "ticks": 146976,
          "time": 164.03555025,
          "velocity": 0.3937007874015748
        },
        {
          "duration": 0.32142824999999675,
          "durationTicks": 288,
          "midi": 39,
          "name": "D#2",
          "ticks": 147072,
          "time": 164.142693,
          "velocity": 0.3937007874015748
        },
        {
          "duration": 0.32142824999999675,
          "durationTicks": 288,
          "midi": 54,
          "name": "F#3",
          "ticks": 147072,
          "time": 164.142693,
          "velocity": 0.3937007874015748
        },
        {
          "duration": 0.32142824999999675,
          "durationTicks": 288,
          "midi": 71,
          "name": "B4",
          "ticks": 147072,
          "time": 164.142693,
          "velocity": 0.3937007874015748
        },
        {
          "duration": 0.32142824999999675,
          "durationTicks": 288,
          "midi": 39,
          "name": "D#2",
          "ticks": 147264,
          "time": 164.35697850000003,
          "velocity": 0.3937007874015748
        },
        {
          "duration": 0.32142824999999675,
          "durationTicks": 288,
          "midi": 51,
          "name": "D#3",
          "ticks": 147264,
          "time": 164.35697850000003,
          "velocity": 0.3937007874015748
        },
        {
          "duration": 0.32142824999999675,
          "durationTicks": 288,
          "midi": 74,
          "name": "D5",
          "ticks": 147264,
          "time": 164.35697850000003,
          "velocity": 0.3937007874015748
        },
        {
          "duration": 0.32142824999999675,
          "durationTicks": 288,
          "midi": 36,
          "name": "C2",
          "ticks": 147456,
          "time": 164.571264,
          "velocity": 0.3937007874015748
        },
        {
          "duration": 0.32142824999999675,
          "durationTicks": 288,
          "midi": 74,
          "name": "D5",
          "ticks": 147456,
          "time": 164.571264,
          "velocity": 0.3937007874015748
        },
        {
          "duration": 0.3214282500000252,
          "durationTicks": 288,
          "midi": 76,
          "name": "E5",
          "ticks": 147648,
          "time": 164.7855495,
          "velocity": 0.3937007874015748
        },
        {
          "duration": 0.32142824999999675,
          "durationTicks": 288,
          "midi": 36,
          "name": "C2",
          "ticks": 147744,
          "time": 164.89269225,
          "velocity": 0.3937007874015748
        },
        {
          "duration": 0.32142824999999675,
          "durationTicks": 288,
          "midi": 36,
          "name": "C2",
          "ticks": 147840,
          "time": 164.99983500000002,
          "velocity": 0.3937007874015748
        },
        {
          "duration": 0.32142824999999675,
          "durationTicks": 288,
          "midi": 71,
          "name": "B4",
          "ticks": 147840,
          "time": 164.99983500000002,
          "velocity": 0.3937007874015748
        },
        {
          "duration": 0.32142824999999675,
          "durationTicks": 288,
          "midi": 36,
          "name": "C2",
          "ticks": 148032,
          "time": 165.2141205,
          "velocity": 0.3937007874015748
        },
        {
          "duration": 0.32142824999999675,
          "durationTicks": 288,
          "midi": 69,
          "name": "A4",
          "ticks": 148032,
          "time": 165.2141205,
          "velocity": 0.3937007874015748
        },
        {
          "duration": 0.32142824999999675,
          "durationTicks": 288,
          "midi": 36,
          "name": "C2",
          "ticks": 148224,
          "time": 165.42840600000002,
          "velocity": 0.3937007874015748
        },
        {
          "duration": 0.32142824999999675,
          "durationTicks": 288,
          "midi": 71,
          "name": "B4",
          "ticks": 148224,
          "time": 165.42840600000002,
          "velocity": 0.3937007874015748
        },
        {
          "duration": 0.32142824999999675,
          "durationTicks": 288,
          "midi": 36,
          "name": "C2",
          "ticks": 148512,
          "time": 165.74983425000002,
          "velocity": 0.3937007874015748
        },
        {
          "duration": 0.3214282500000252,
          "durationTicks": 288,
          "midi": 36,
          "name": "C2",
          "ticks": 148608,
          "time": 165.856977,
          "velocity": 0.3937007874015748
        },
        {
          "duration": 0.3214282500000252,
          "durationTicks": 288,
          "midi": 69,
          "name": "A4",
          "ticks": 148608,
          "time": 165.856977,
          "velocity": 0.3937007874015748
        },
        {
          "duration": 0.32142824999999675,
          "durationTicks": 288,
          "midi": 36,
          "name": "C2",
          "ticks": 148800,
          "time": 166.07126250000002,
          "velocity": 0.3937007874015748
        },
        {
          "duration": 0.32142824999999675,
          "durationTicks": 288,
          "midi": 71,
          "name": "B4",
          "ticks": 148800,
          "time": 166.07126250000002,
          "velocity": 0.3937007874015748
        },
        {
          "duration": 0.32142824999999675,
          "durationTicks": 288,
          "midi": 38,
          "name": "D2",
          "ticks": 148992,
          "time": 166.285548,
          "velocity": 0.3937007874015748
        },
        {
          "duration": 0.32142824999999675,
          "durationTicks": 288,
          "midi": 74,
          "name": "D5",
          "ticks": 148992,
          "time": 166.285548,
          "velocity": 0.3937007874015748
        },
        {
          "duration": 0.32142824999999675,
          "durationTicks": 288,
          "midi": 76,
          "name": "E5",
          "ticks": 149184,
          "time": 166.49983350000002,
          "velocity": 0.3937007874015748
        },
        {
          "duration": 0.3214282500000252,
          "durationTicks": 288,
          "midi": 38,
          "name": "D2",
          "ticks": 149280,
          "time": 166.60697625,
          "velocity": 0.3937007874015748
        },
        {
          "duration": 0.32142824999999675,
          "durationTicks": 288,
          "midi": 38,
          "name": "D2",
          "ticks": 149376,
          "time": 166.714119,
          "velocity": 0.3937007874015748
        },
        {
          "duration": 0.32142824999999675,
          "durationTicks": 288,
          "midi": 71,
          "name": "B4",
          "ticks": 149376,
          "time": 166.714119,
          "velocity": 0.3937007874015748
        },
        {
          "duration": 0.32142824999999675,
          "durationTicks": 288,
          "midi": 38,
          "name": "D2",
          "ticks": 149568,
          "time": 166.92840450000003,
          "velocity": 0.3937007874015748
        },
        {
          "duration": 0.32142824999999675,
          "durationTicks": 288,
          "midi": 69,
          "name": "A4",
          "ticks": 149568,
          "time": 166.92840450000003,
          "velocity": 0.3937007874015748
        },
        {
          "duration": 0.32142824999999675,
          "durationTicks": 288,
          "midi": 38,
          "name": "D2",
          "ticks": 149760,
          "time": 167.14269000000002,
          "velocity": 0.3937007874015748
        },
        {
          "duration": 0.32142824999999675,
          "durationTicks": 288,
          "midi": 71,
          "name": "B4",
          "ticks": 149760,
          "time": 167.14269000000002,
          "velocity": 0.3937007874015748
        },
        {
          "duration": 0.32142824999999675,
          "durationTicks": 288,
          "midi": 38,
          "name": "D2",
          "ticks": 150048,
          "time": 167.46411825,
          "velocity": 0.3937007874015748
        },
        {
          "duration": 0.32142824999999675,
          "durationTicks": 288,
          "midi": 38,
          "name": "D2",
          "ticks": 150144,
          "time": 167.57126100000002,
          "velocity": 0.3937007874015748
        },
        {
          "duration": 0.32142824999999675,
          "durationTicks": 288,
          "midi": 69,
          "name": "A4",
          "ticks": 150144,
          "time": 167.57126100000002,
          "velocity": 0.3937007874015748
        },
        {
          "duration": 0.32142824999999675,
          "durationTicks": 288,
          "midi": 38,
          "name": "D2",
          "ticks": 150336,
          "time": 167.7855465,
          "velocity": 0.3937007874015748
        },
        {
          "duration": 0.32142824999999675,
          "durationTicks": 288,
          "midi": 71,
          "name": "B4",
          "ticks": 150336,
          "time": 167.7855465,
          "velocity": 0.3937007874015748
        },
        {
          "duration": 0.32142824999999675,
          "durationTicks": 288,
          "midi": 40,
          "name": "E2",
          "ticks": 150528,
          "time": 167.99983200000003,
          "velocity": 0.3937007874015748
        },
        {
          "duration": 0.32142824999999675,
          "durationTicks": 288,
          "midi": 69,
          "name": "A4",
          "ticks": 150528,
          "time": 167.99983200000003,
          "velocity": 0.3937007874015748
        },
        {
          "duration": 0.32142824999999675,
          "durationTicks": 288,
          "midi": 67,
          "name": "G4",
          "ticks": 150720,
          "time": 168.21411750000001,
          "velocity": 0.3937007874015748
        },
        {
          "duration": 0.32142824999999675,
          "durationTicks": 288,
          "midi": 40,
          "name": "E2",
          "ticks": 150816,
          "time": 168.32126025000002,
          "velocity": 0.3937007874015748
        },
        {
          "duration": 0.32142824999999675,
          "durationTicks": 288,
          "midi": 40,
          "name": "E2",
          "ticks": 150912,
          "time": 168.428403,
          "velocity": 0.3937007874015748
        },
        {
          "duration": 0.32142824999999675,
          "durationTicks": 288,
          "midi": 66,
          "name": "F#4",
          "ticks": 150912,
          "time": 168.428403,
          "velocity": 0.3937007874015748
        },
        {
          "duration": 0.32142824999999675,
          "durationTicks": 288,
          "midi": 40,
          "name": "E2",
          "ticks": 151104,
          "time": 168.64268850000002,
          "velocity": 0.3937007874015748
        },
        {
          "duration": 0.32142824999999675,
          "durationTicks": 288,
          "midi": 62,
          "name": "D4",
          "ticks": 151104,
          "time": 168.64268850000002,
          "velocity": 0.3937007874015748
        },
        {
          "duration": 0.32142824999999675,
          "durationTicks": 288,
          "midi": 40,
          "name": "E2",
          "ticks": 151296,
          "time": 168.856974,
          "velocity": 0.3937007874015748
        },
        {
          "duration": 0.32142824999999675,
          "durationTicks": 288,
          "midi": 64,
          "name": "E4",
          "ticks": 151296,
          "time": 168.856974,
          "velocity": 0.3937007874015748
        },
        {
          "duration": 0.32142824999999675,
          "durationTicks": 288,
          "midi": 40,
          "name": "E2",
          "ticks": 151584,
          "time": 169.17840225,
          "velocity": 0.3937007874015748
        },
        {
          "duration": 0.32142824999999675,
          "durationTicks": 288,
          "midi": 40,
          "name": "E2",
          "ticks": 151680,
          "time": 169.285545,
          "velocity": 0.3937007874015748
        },
        {
          "duration": 0.32142824999999675,
          "durationTicks": 288,
          "midi": 62,
          "name": "D4",
          "ticks": 151680,
          "time": 169.285545,
          "velocity": 0.3937007874015748
        },
        {
          "duration": 0.3214282500000252,
          "durationTicks": 288,
          "midi": 40,
          "name": "E2",
          "ticks": 151872,
          "time": 169.4998305,
          "velocity": 0.3937007874015748
        },
        {
          "duration": 0.3214282500000252,
          "durationTicks": 288,
          "midi": 64,
          "name": "E4",
          "ticks": 151872,
          "time": 169.4998305,
          "velocity": 0.3937007874015748
        },
        {
          "duration": 0.32142824999999675,
          "durationTicks": 288,
          "midi": 40,
          "name": "E2",
          "ticks": 152064,
          "time": 169.71411600000002,
          "velocity": 0.3937007874015748
        },
        {
          "duration": 0.32142824999999675,
          "durationTicks": 288,
          "midi": 66,
          "name": "F#4",
          "ticks": 152064,
          "time": 169.71411600000002,
          "velocity": 0.3937007874015748
        },
        {
          "duration": 0.32142824999999675,
          "durationTicks": 288,
          "midi": 67,
          "name": "G4",
          "ticks": 152256,
          "time": 169.9284015,
          "velocity": 0.3937007874015748
        },
        {
          "duration": 0.32142824999999675,
          "durationTicks": 288,
          "midi": 40,
          "name": "E2",
          "ticks": 152352,
          "time": 170.03554425000002,
          "velocity": 0.3937007874015748
        },
        {
          "duration": 0.32142824999999675,
          "durationTicks": 288,
          "midi": 40,
          "name": "E2",
          "ticks": 152448,
          "time": 170.14268700000002,
          "velocity": 0.3937007874015748
        },
        {
          "duration": 0.32142824999999675,
          "durationTicks": 288,
          "midi": 69,
          "name": "A4",
          "ticks": 152448,
          "time": 170.14268700000002,
          "velocity": 0.3937007874015748
        },
        {
          "duration": 0.32142824999999675,
          "durationTicks": 288,
          "midi": 40,
          "name": "E2",
          "ticks": 152640,
          "time": 170.3569725,
          "velocity": 0.3937007874015748
        },
        {
          "duration": 0.32142824999999675,
          "durationTicks": 288,
          "midi": 71,
          "name": "B4",
          "ticks": 152640,
          "time": 170.3569725,
          "velocity": 0.3937007874015748
        },
        {
          "duration": 0.3214282500000252,
          "durationTicks": 288,
          "midi": 40,
          "name": "E2",
          "ticks": 152832,
          "time": 170.571258,
          "velocity": 0.3937007874015748
        },
        {
          "duration": 0.3214282500000252,
          "durationTicks": 288,
          "midi": 64,
          "name": "E4",
          "ticks": 152832,
          "time": 170.571258,
          "velocity": 0.3937007874015748
        },
        {
          "duration": 0.32142824999999675,
          "durationTicks": 288,
          "midi": 40,
          "name": "E2",
          "ticks": 153120,
          "time": 170.89268625000003,
          "velocity": 0.3937007874015748
        },
        {
          "duration": 0.32142824999999675,
          "durationTicks": 288,
          "midi": 40,
          "name": "E2",
          "ticks": 153216,
          "time": 170.999829,
          "velocity": 0.3937007874015748
        },
        {
          "duration": 0.32142824999999675,
          "durationTicks": 288,
          "midi": 71,
          "name": "B4",
          "ticks": 153216,
          "time": 170.999829,
          "velocity": 0.3937007874015748
        },
        {
          "duration": 0.32142824999999675,
          "durationTicks": 288,
          "midi": 40,
          "name": "E2",
          "ticks": 153408,
          "time": 171.21411450000002,
          "velocity": 0.3937007874015748
        },
        {
          "duration": 0.32142824999999675,
          "durationTicks": 288,
          "midi": 74,
          "name": "D5",
          "ticks": 153408,
          "time": 171.21411450000002,
          "velocity": 0.3937007874015748
        },
        {
          "duration": 0.32142824999999675,
          "durationTicks": 288,
          "midi": 36,
          "name": "C2",
          "ticks": 153600,
          "time": 171.4284,
          "velocity": 0.3937007874015748
        },
        {
          "duration": 0.32142824999999675,
          "durationTicks": 288,
          "midi": 74,
          "name": "D5",
          "ticks": 153600,
          "time": 171.4284,
          "velocity": 0.3937007874015748
        },
        {
          "duration": 0.32142824999999675,
          "durationTicks": 288,
          "midi": 76,
          "name": "E5",
          "ticks": 153792,
          "time": 171.64268550000003,
          "velocity": 0.3937007874015748
        },
        {
          "duration": 0.32142824999999675,
          "durationTicks": 288,
          "midi": 36,
          "name": "C2",
          "ticks": 153888,
          "time": 171.74982825,
          "velocity": 0.3937007874015748
        },
        {
          "duration": 0.32142824999999675,
          "durationTicks": 288,
          "midi": 36,
          "name": "C2",
          "ticks": 153984,
          "time": 171.85697100000002,
          "velocity": 0.3937007874015748
        },
        {
          "duration": 0.32142824999999675,
          "durationTicks": 288,
          "midi": 71,
          "name": "B4",
          "ticks": 153984,
          "time": 171.85697100000002,
          "velocity": 0.3937007874015748
        },
        {
          "duration": 0.32142824999999675,
          "durationTicks": 288,
          "midi": 36,
          "name": "C2",
          "ticks": 154176,
          "time": 172.0712565,
          "velocity": 0.3937007874015748
        },
        {
          "duration": 0.32142824999999675,
          "durationTicks": 288,
          "midi": 69,
          "name": "A4",
          "ticks": 154176,
          "time": 172.0712565,
          "velocity": 0.3937007874015748
        },
        {
          "duration": 0.32142824999999675,
          "durationTicks": 288,
          "midi": 36,
          "name": "C2",
          "ticks": 154368,
          "time": 172.28554200000002,
          "velocity": 0.3937007874015748
        },
        {
          "duration": 0.32142824999999675,
          "durationTicks": 288,
          "midi": 71,
          "name": "B4",
          "ticks": 154368,
          "time": 172.28554200000002,
          "velocity": 0.3937007874015748
        },
        {
          "duration": 0.32142824999999675,
          "durationTicks": 288,
          "midi": 36,
          "name": "C2",
          "ticks": 154656,
          "time": 172.60697025000002,
          "velocity": 0.3937007874015748
        },
        {
          "duration": 0.32142824999999675,
          "durationTicks": 288,
          "midi": 36,
          "name": "C2",
          "ticks": 154752,
          "time": 172.71411300000003,
          "velocity": 0.3937007874015748
        },
        {
          "duration": 0.32142824999999675,
          "durationTicks": 288,
          "midi": 69,
          "name": "A4",
          "ticks": 154752,
          "time": 172.71411300000003,
          "velocity": 0.3937007874015748
        },
        {
          "duration": 0.32142824999999675,
          "durationTicks": 288,
          "midi": 36,
          "name": "C2",
          "ticks": 154944,
          "time": 172.92839850000001,
          "velocity": 0.3937007874015748
        },
        {
          "duration": 0.32142824999999675,
          "durationTicks": 288,
          "midi": 71,
          "name": "B4",
          "ticks": 154944,
          "time": 172.92839850000001,
          "velocity": 0.3937007874015748
        },
        {
          "duration": 0.3214282500000252,
          "durationTicks": 288,
          "midi": 38,
          "name": "D2",
          "ticks": 155136,
          "time": 173.142684,
          "velocity": 0.3937007874015748
        },
        {
          "duration": 0.3214282500000252,
          "durationTicks": 288,
          "midi": 74,
          "name": "D5",
          "ticks": 155136,
          "time": 173.142684,
          "velocity": 0.3937007874015748
        },
        {
          "duration": 0.32142824999999675,
          "durationTicks": 288,
          "midi": 76,
          "name": "E5",
          "ticks": 155328,
          "time": 173.35696950000002,
          "velocity": 0.3937007874015748
        },
        {
          "duration": 0.32142824999999675,
          "durationTicks": 288,
          "midi": 38,
          "name": "D2",
          "ticks": 155424,
          "time": 173.46411225000003,
          "velocity": 0.3937007874015748
        },
        {
          "duration": 0.32142824999999675,
          "durationTicks": 288,
          "midi": 38,
          "name": "D2",
          "ticks": 155520,
          "time": 173.571255,
          "velocity": 0.3937007874015748
        },
        {
          "duration": 0.32142824999999675,
          "durationTicks": 288,
          "midi": 71,
          "name": "B4",
          "ticks": 155520,
          "time": 173.571255,
          "velocity": 0.3937007874015748
        },
        {
          "duration": 0.32142824999999675,
          "durationTicks": 288,
          "midi": 38,
          "name": "D2",
          "ticks": 155712,
          "time": 173.78554050000002,
          "velocity": 0.3937007874015748
        },
        {
          "duration": 0.32142824999999675,
          "durationTicks": 288,
          "midi": 69,
          "name": "A4",
          "ticks": 155712,
          "time": 173.78554050000002,
          "velocity": 0.3937007874015748
        },
        {
          "duration": 0.32142824999999675,
          "durationTicks": 288,
          "midi": 38,
          "name": "D2",
          "ticks": 155904,
          "time": 173.999826,
          "velocity": 0.3937007874015748
        },
        {
          "duration": 0.32142824999999675,
          "durationTicks": 288,
          "midi": 71,
          "name": "B4",
          "ticks": 155904,
          "time": 173.999826,
          "velocity": 0.3937007874015748
        },
        {
          "duration": 0.32142824999999675,
          "durationTicks": 288,
          "midi": 38,
          "name": "D2",
          "ticks": 156192,
          "time": 174.32125425,
          "velocity": 0.3937007874015748
        },
        {
          "duration": 0.32142824999999675,
          "durationTicks": 288,
          "midi": 38,
          "name": "D2",
          "ticks": 156288,
          "time": 174.42839700000002,
          "velocity": 0.3937007874015748
        },
        {
          "duration": 0.32142824999999675,
          "durationTicks": 288,
          "midi": 69,
          "name": "A4",
          "ticks": 156288,
          "time": 174.42839700000002,
          "velocity": 0.3937007874015748
        },
        {
          "duration": 0.32142824999999675,
          "durationTicks": 288,
          "midi": 38,
          "name": "D2",
          "ticks": 156480,
          "time": 174.6426825,
          "velocity": 0.3937007874015748
        },
        {
          "duration": 0.32142824999999675,
          "durationTicks": 288,
          "midi": 71,
          "name": "B4",
          "ticks": 156480,
          "time": 174.6426825,
          "velocity": 0.3937007874015748
        },
        {
          "duration": 0.32142824999999675,
          "durationTicks": 288,
          "midi": 40,
          "name": "E2",
          "ticks": 156672,
          "time": 174.85696800000002,
          "velocity": 0.3937007874015748
        },
        {
          "duration": 0.32142824999999675,
          "durationTicks": 288,
          "midi": 69,
          "name": "A4",
          "ticks": 156672,
          "time": 174.85696800000002,
          "velocity": 0.3937007874015748
        },
        {
          "duration": 0.32142824999999675,
          "durationTicks": 288,
          "midi": 67,
          "name": "G4",
          "ticks": 156864,
          "time": 175.0712535,
          "velocity": 0.3937007874015748
        },
        {
          "duration": 0.32142824999999675,
          "durationTicks": 288,
          "midi": 40,
          "name": "E2",
          "ticks": 156960,
          "time": 175.17839625000002,
          "velocity": 0.3937007874015748
        },
        {
          "duration": 0.32142824999999675,
          "durationTicks": 288,
          "midi": 40,
          "name": "E2",
          "ticks": 157056,
          "time": 175.28553900000003,
          "velocity": 0.3937007874015748
        },
        {
          "duration": 0.32142824999999675,
          "durationTicks": 288,
          "midi": 66,
          "name": "F#4",
          "ticks": 157056,
          "time": 175.28553900000003,
          "velocity": 0.3937007874015748
        },
        {
          "duration": 0.32142824999999675,
          "durationTicks": 288,
          "midi": 40,
          "name": "E2",
          "ticks": 157248,
          "time": 175.49982450000002,
          "velocity": 0.3937007874015748
        },
        {
          "duration": 0.32142824999999675,
          "durationTicks": 288,
          "midi": 62,
          "name": "D4",
          "ticks": 157248,
          "time": 175.49982450000002,
          "velocity": 0.3937007874015748
        },
        {
          "duration": 0.32142824999999675,
          "durationTicks": 288,
          "midi": 40,
          "name": "E2",
          "ticks": 157440,
          "time": 175.71411,
          "velocity": 0.3937007874015748
        },
        {
          "duration": 0.32142824999999675,
          "durationTicks": 288,
          "midi": 64,
          "name": "E4",
          "ticks": 157440,
          "time": 175.71411,
          "velocity": 0.3937007874015748
        },
        {
          "duration": 0.3214282500000252,
          "durationTicks": 288,
          "midi": 40,
          "name": "E2",
          "ticks": 157728,
          "time": 176.03553825,
          "velocity": 0.3937007874015748
        },
        {
          "duration": 0.32142824999999675,
          "durationTicks": 288,
          "midi": 40,
          "name": "E2",
          "ticks": 157824,
          "time": 176.142681,
          "velocity": 0.3937007874015748
        },
        {
          "duration": 0.32142824999999675,
          "durationTicks": 288,
          "midi": 62,
          "name": "D4",
          "ticks": 157824,
          "time": 176.142681,
          "velocity": 0.3937007874015748
        },
        {
          "duration": 0.32142824999999675,
          "durationTicks": 288,
          "midi": 40,
          "name": "E2",
          "ticks": 158016,
          "time": 176.35696650000003,
          "velocity": 0.3937007874015748
        },
        {
          "duration": 0.32142824999999675,
          "durationTicks": 288,
          "midi": 64,
          "name": "E4",
          "ticks": 158016,
          "time": 176.35696650000003,
          "velocity": 0.3937007874015748
        },
        {
          "duration": 0.32142824999999675,
          "durationTicks": 288,
          "midi": 40,
          "name": "E2",
          "ticks": 158208,
          "time": 176.57125200000002,
          "velocity": 0.3937007874015748
        },
        {
          "duration": 0.32142824999999675,
          "durationTicks": 288,
          "midi": 66,
          "name": "F#4",
          "ticks": 158208,
          "time": 176.57125200000002,
          "velocity": 0.3937007874015748
        },
        {
          "duration": 0.32142824999999675,
          "durationTicks": 288,
          "midi": 67,
          "name": "G4",
          "ticks": 158400,
          "time": 176.7855375,
          "velocity": 0.3937007874015748
        },
        {
          "duration": 0.32142824999999675,
          "durationTicks": 288,
          "midi": 40,
          "name": "E2",
          "ticks": 158496,
          "time": 176.89268025,
          "velocity": 0.3937007874015748
        },
        {
          "duration": 0.32142824999999675,
          "durationTicks": 288,
          "midi": 40,
          "name": "E2",
          "ticks": 158592,
          "time": 176.99982300000002,
          "velocity": 0.3937007874015748
        },
        {
          "duration": 0.32142824999999675,
          "durationTicks": 288,
          "midi": 69,
          "name": "A4",
          "ticks": 158592,
          "time": 176.99982300000002,
          "velocity": 0.3937007874015748
        },
        {
          "duration": 0.32142824999999675,
          "durationTicks": 288,
          "midi": 40,
          "name": "E2",
          "ticks": 158784,
          "time": 177.2141085,
          "velocity": 0.3937007874015748
        },
        {
          "duration": 0.32142824999999675,
          "durationTicks": 288,
          "midi": 71,
          "name": "B4",
          "ticks": 158784,
          "time": 177.2141085,
          "velocity": 0.3937007874015748
        },
        {
          "duration": 0.32142824999999675,
          "durationTicks": 288,
          "midi": 40,
          "name": "E2",
          "ticks": 158976,
          "time": 177.42839400000003,
          "velocity": 0.3937007874015748
        },
        {
          "duration": 0.32142824999999675,
          "durationTicks": 288,
          "midi": 64,
          "name": "E4",
          "ticks": 158976,
          "time": 177.42839400000003,
          "velocity": 0.3937007874015748
        },
        {
          "duration": 0.32142824999999675,
          "durationTicks": 288,
          "midi": 40,
          "name": "E2",
          "ticks": 159264,
          "time": 177.74982225000002,
          "velocity": 0.3937007874015748
        },
        {
          "duration": 0.3214282500000252,
          "durationTicks": 288,
          "midi": 40,
          "name": "E2",
          "ticks": 159360,
          "time": 177.856965,
          "velocity": 0.3937007874015748
        },
        {
          "duration": 0.3214282500000252,
          "durationTicks": 288,
          "midi": 71,
          "name": "B4",
          "ticks": 159360,
          "time": 177.856965,
          "velocity": 0.3937007874015748
        },
        {
          "duration": 0.32142824999999675,
          "durationTicks": 288,
          "midi": 40,
          "name": "E2",
          "ticks": 159552,
          "time": 178.07125050000002,
          "velocity": 0.3937007874015748
        },
        {
          "duration": 0.32142824999999675,
          "durationTicks": 288,
          "midi": 74,
          "name": "D5",
          "ticks": 159552,
          "time": 178.07125050000002,
          "velocity": 0.3937007874015748
        },
        {
          "duration": 0.32142824999999675,
          "durationTicks": 288,
          "midi": 36,
          "name": "C2",
          "ticks": 159744,
          "time": 178.285536,
          "velocity": 0.3937007874015748
        },
        {
          "duration": 0.32142824999999675,
          "durationTicks": 288,
          "midi": 74,
          "name": "D5",
          "ticks": 159744,
          "time": 178.285536,
          "velocity": 0.3937007874015748
        },
        {
          "duration": 0.32142824999999675,
          "durationTicks": 288,
          "midi": 76,
          "name": "E5",
          "ticks": 159936,
          "time": 178.49982150000002,
          "velocity": 0.3937007874015748
        },
        {
          "duration": 0.32142824999999675,
          "durationTicks": 288,
          "midi": 36,
          "name": "C2",
          "ticks": 160032,
          "time": 178.60696425,
          "velocity": 0.3937007874015748
        },
        {
          "duration": 0.32142824999999675,
          "durationTicks": 288,
          "midi": 52,
          "name": "E3",
          "ticks": 160032,
          "time": 178.60696425,
          "velocity": 0.3937007874015748
        },
        {
          "duration": 0.32142824999999675,
          "durationTicks": 288,
          "midi": 36,
          "name": "C2",
          "ticks": 160128,
          "time": 178.714107,
          "velocity": 0.3937007874015748
        },
        {
          "duration": 0.32142824999999675,
          "durationTicks": 288,
          "midi": 71,
          "name": "B4",
          "ticks": 160128,
          "time": 178.714107,
          "velocity": 0.3937007874015748
        },
        {
          "duration": 0.32142824999999675,
          "durationTicks": 288,
          "midi": 52,
          "name": "E3",
          "ticks": 160224,
          "time": 178.82124975000002,
          "velocity": 0.3937007874015748
        },
        {
          "duration": 0.3214282500000252,
          "durationTicks": 288,
          "midi": 36,
          "name": "C2",
          "ticks": 160320,
          "time": 178.9283925,
          "velocity": 0.3937007874015748
        },
        {
          "duration": 0.3214282500000252,
          "durationTicks": 288,
          "midi": 50,
          "name": "D3",
          "ticks": 160320,
          "time": 178.9283925,
          "velocity": 0.3937007874015748
        },
        {
          "duration": 0.3214282500000252,
          "durationTicks": 288,
          "midi": 69,
          "name": "A4",
          "ticks": 160320,
          "time": 178.9283925,
          "velocity": 0.3937007874015748
        },
        {
          "duration": 0.32142824999999675,
          "durationTicks": 288,
          "midi": 52,
          "name": "E3",
          "ticks": 160416,
          "time": 179.03553525,
          "velocity": 0.3937007874015748
        },
        {
          "duration": 0.32142824999999675,
          "durationTicks": 288,
          "midi": 36,
          "name": "C2",
          "ticks": 160512,
          "time": 179.14267800000002,
          "velocity": 0.3937007874015748
        },
        {
          "duration": 0.32142824999999675,
          "durationTicks": 288,
          "midi": 71,
          "name": "B4",
          "ticks": 160512,
          "time": 179.14267800000002,
          "velocity": 0.3937007874015748
        },
        {
          "duration": 0.32142824999999675,
          "durationTicks": 288,
          "midi": 36,
          "name": "C2",
          "ticks": 160800,
          "time": 179.46410625000001,
          "velocity": 0.3937007874015748
        },
        {
          "duration": 0.32142824999999675,
          "durationTicks": 288,
          "midi": 52,
          "name": "E3",
          "ticks": 160800,
          "time": 179.46410625000001,
          "velocity": 0.3937007874015748
        },
        {
          "duration": 0.32142824999999675,
          "durationTicks": 288,
          "midi": 36,
          "name": "C2",
          "ticks": 160896,
          "time": 179.57124900000002,
          "velocity": 0.3937007874015748
        },
        {
          "duration": 0.32142824999999675,
          "durationTicks": 288,
          "midi": 69,
          "name": "A4",
          "ticks": 160896,
          "time": 179.57124900000002,
          "velocity": 0.3937007874015748
        },
        {
          "duration": 0.3214282500000252,
          "durationTicks": 288,
          "midi": 52,
          "name": "E3",
          "ticks": 160992,
          "time": 179.67839175,
          "velocity": 0.3937007874015748
        },
        {
          "duration": 0.32142824999999675,
          "durationTicks": 288,
          "midi": 36,
          "name": "C2",
          "ticks": 161088,
          "time": 179.7855345,
          "velocity": 0.3937007874015748
        },
        {
          "duration": 0.32142824999999675,
          "durationTicks": 288,
          "midi": 50,
          "name": "D3",
          "ticks": 161088,
          "time": 179.7855345,
          "velocity": 0.3937007874015748
        },
        {
          "duration": 0.32142824999999675,
          "durationTicks": 288,
          "midi": 71,
          "name": "B4",
          "ticks": 161088,
          "time": 179.7855345,
          "velocity": 0.3937007874015748
        },
        {
          "duration": 0.32142824999999675,
          "durationTicks": 288,
          "midi": 52,
          "name": "E3",
          "ticks": 161184,
          "time": 179.89267725000002,
          "velocity": 0.3937007874015748
        },
        {
          "duration": 0.32142824999999675,
          "durationTicks": 288,
          "midi": 38,
          "name": "D2",
          "ticks": 161280,
          "time": 179.99982000000003,
          "velocity": 0.3937007874015748
        },
        {
          "duration": 0.32142824999999675,
          "durationTicks": 288,
          "midi": 74,
          "name": "D5",
          "ticks": 161280,
          "time": 179.99982000000003,
          "velocity": 0.3937007874015748
        },
        {
          "duration": 0.32142824999999675,
          "durationTicks": 288,
          "midi": 76,
          "name": "E5",
          "ticks": 161472,
          "time": 180.21410550000002,
          "velocity": 0.3937007874015748
        },
        {
          "duration": 0.32142824999999675,
          "durationTicks": 288,
          "midi": 38,
          "name": "D2",
          "ticks": 161568,
          "time": 180.32124825000002,
          "velocity": 0.3937007874015748
        },
        {
          "duration": 0.32142824999999675,
          "durationTicks": 288,
          "midi": 52,
          "name": "E3",
          "ticks": 161568,
          "time": 180.32124825000002,
          "velocity": 0.3937007874015748
        },
        {
          "duration": 0.32142824999999675,
          "durationTicks": 288,
          "midi": 38,
          "name": "D2",
          "ticks": 161664,
          "time": 180.428391,
          "velocity": 0.3937007874015748
        },
        {
          "duration": 0.32142824999999675,
          "durationTicks": 288,
          "midi": 71,
          "name": "B4",
          "ticks": 161664,
          "time": 180.428391,
          "velocity": 0.3937007874015748
        },
        {
          "duration": 0.32142824999999675,
          "durationTicks": 288,
          "midi": 52,
          "name": "E3",
          "ticks": 161760,
          "time": 180.53553375,
          "velocity": 0.3937007874015748
        },
        {
          "duration": 0.32142824999999675,
          "durationTicks": 288,
          "midi": 38,
          "name": "D2",
          "ticks": 161856,
          "time": 180.64267650000002,
          "velocity": 0.3937007874015748
        },
        {
          "duration": 0.32142824999999675,
          "durationTicks": 288,
          "midi": 50,
          "name": "D3",
          "ticks": 161856,
          "time": 180.64267650000002,
          "velocity": 0.3937007874015748
        },
        {
          "duration": 0.32142824999999675,
          "durationTicks": 288,
          "midi": 69,
          "name": "A4",
          "ticks": 161856,
          "time": 180.64267650000002,
          "velocity": 0.3937007874015748
        },
        {
          "duration": 0.3214282500000252,
          "durationTicks": 288,
          "midi": 52,
          "name": "E3",
          "ticks": 161952,
          "time": 180.74981925,
          "velocity": 0.3937007874015748
        },
        {
          "duration": 0.32142824999999675,
          "durationTicks": 288,
          "midi": 38,
          "name": "D2",
          "ticks": 162048,
          "time": 180.856962,
          "velocity": 0.3937007874015748
        },
        {
          "duration": 0.32142824999999675,
          "durationTicks": 288,
          "midi": 71,
          "name": "B4",
          "ticks": 162048,
          "time": 180.856962,
          "velocity": 0.3937007874015748
        },
        {
          "duration": 0.32142824999999675,
          "durationTicks": 288,
          "midi": 38,
          "name": "D2",
          "ticks": 162336,
          "time": 181.17839025,
          "velocity": 0.3937007874015748
        },
        {
          "duration": 0.32142824999999675,
          "durationTicks": 288,
          "midi": 52,
          "name": "E3",
          "ticks": 162336,
          "time": 181.17839025,
          "velocity": 0.3937007874015748
        },
        {
          "duration": 0.32142824999999675,
          "durationTicks": 288,
          "midi": 38,
          "name": "D2",
          "ticks": 162432,
          "time": 181.28553300000002,
          "velocity": 0.3937007874015748
        },
        {
          "duration": 0.32142824999999675,
          "durationTicks": 288,
          "midi": 69,
          "name": "A4",
          "ticks": 162432,
          "time": 181.28553300000002,
          "velocity": 0.3937007874015748
        },
        {
          "duration": 0.32142824999999675,
          "durationTicks": 288,
          "midi": 52,
          "name": "E3",
          "ticks": 162528,
          "time": 181.39267575000002,
          "velocity": 0.3937007874015748
        },
        {
          "duration": 0.3214282500000252,
          "durationTicks": 288,
          "midi": 38,
          "name": "D2",
          "ticks": 162624,
          "time": 181.4998185,
          "velocity": 0.3937007874015748
        },
        {
          "duration": 0.3214282500000252,
          "durationTicks": 288,
          "midi": 50,
          "name": "D3",
          "ticks": 162624,
          "time": 181.4998185,
          "velocity": 0.3937007874015748
        },
        {
          "duration": 0.3214282500000252,
          "durationTicks": 288,
          "midi": 71,
          "name": "B4",
          "ticks": 162624,
          "time": 181.4998185,
          "velocity": 0.3937007874015748
        },
        {
          "duration": 0.32142824999999675,
          "durationTicks": 288,
          "midi": 52,
          "name": "E3",
          "ticks": 162720,
          "time": 181.60696125,
          "velocity": 0.3937007874015748
        },
        {
          "duration": 0.32142824999999675,
          "durationTicks": 288,
          "midi": 40,
          "name": "E2",
          "ticks": 162816,
          "time": 181.71410400000002,
          "velocity": 0.3937007874015748
        },
        {
          "duration": 0.32142824999999675,
          "durationTicks": 288,
          "midi": 69,
          "name": "A4",
          "ticks": 162816,
          "time": 181.71410400000002,
          "velocity": 0.3937007874015748
        },
        {
          "duration": 0.32142824999999675,
          "durationTicks": 288,
          "midi": 67,
          "name": "G4",
          "ticks": 163008,
          "time": 181.9283895,
          "velocity": 0.3937007874015748
        },
        {
          "duration": 0.32142824999999675,
          "durationTicks": 288,
          "midi": 40,
          "name": "E2",
          "ticks": 163104,
          "time": 182.03553225000002,
          "velocity": 0.3937007874015748
        },
        {
          "duration": 0.32142824999999675,
          "durationTicks": 288,
          "midi": 52,
          "name": "E3",
          "ticks": 163104,
          "time": 182.03553225000002,
          "velocity": 0.3937007874015748
        },
        {
          "duration": 0.32142824999999675,
          "durationTicks": 288,
          "midi": 40,
          "name": "E2",
          "ticks": 163200,
          "time": 182.14267500000003,
          "velocity": 0.3937007874015748
        },
        {
          "duration": 0.32142824999999675,
          "durationTicks": 288,
          "midi": 66,
          "name": "F#4",
          "ticks": 163200,
          "time": 182.14267500000003,
          "velocity": 0.3937007874015748
        },
        {
          "duration": 0.32142824999999675,
          "durationTicks": 288,
          "midi": 52,
          "name": "E3",
          "ticks": 163296,
          "time": 182.24981775,
          "velocity": 0.3937007874015748
        },
        {
          "duration": 0.32142824999999675,
          "durationTicks": 288,
          "midi": 40,
          "name": "E2",
          "ticks": 163392,
          "time": 182.3569605,
          "velocity": 0.3937007874015748
        },
        {
          "duration": 0.32142824999999675,
          "durationTicks": 288,
          "midi": 50,
          "name": "D3",
          "ticks": 163392,
          "time": 182.3569605,
          "velocity": 0.3937007874015748
        },
        {
          "duration": 0.32142824999999675,
          "durationTicks": 288,
          "midi": 62,
          "name": "D4",
          "ticks": 163392,
          "time": 182.3569605,
          "velocity": 0.3937007874015748
        },
        {
          "duration": 0.32142824999999675,
          "durationTicks": 288,
          "midi": 52,
          "name": "E3",
          "ticks": 163488,
          "time": 182.46410325000002,
          "velocity": 0.3937007874015748
        },
        {
          "duration": 0.3214282500000252,
          "durationTicks": 288,
          "midi": 40,
          "name": "E2",
          "ticks": 163584,
          "time": 182.571246,
          "velocity": 0.3937007874015748
        },
        {
          "duration": 0.3214282500000252,
          "durationTicks": 288,
          "midi": 64,
          "name": "E4",
          "ticks": 163584,
          "time": 182.571246,
          "velocity": 0.3937007874015748
        },
        {
          "duration": 0.32142824999999675,
          "durationTicks": 288,
          "midi": 40,
          "name": "E2",
          "ticks": 163872,
          "time": 182.89267425000003,
          "velocity": 0.3937007874015748
        },
        {
          "duration": 0.32142824999999675,
          "durationTicks": 288,
          "midi": 52,
          "name": "E3",
          "ticks": 163872,
          "time": 182.89267425000003,
          "velocity": 0.3937007874015748
        },
        {
          "duration": 0.32142824999999675,
          "durationTicks": 288,
          "midi": 40,
          "name": "E2",
          "ticks": 163968,
          "time": 182.999817,
          "velocity": 0.3937007874015748
        },
        {
          "duration": 0.32142824999999675,
          "durationTicks": 288,
          "midi": 62,
          "name": "D4",
          "ticks": 163968,
          "time": 182.999817,
          "velocity": 0.3937007874015748
        },
        {
          "duration": 0.32142824999999675,
          "durationTicks": 288,
          "midi": 52,
          "name": "E3",
          "ticks": 164064,
          "time": 183.10695975000002,
          "velocity": 0.3937007874015748
        },
        {
          "duration": 0.32142824999999675,
          "durationTicks": 288,
          "midi": 40,
          "name": "E2",
          "ticks": 164160,
          "time": 183.21410250000002,
          "velocity": 0.3937007874015748
        },
        {
          "duration": 0.32142824999999675,
          "durationTicks": 288,
          "midi": 50,
          "name": "D3",
          "ticks": 164160,
          "time": 183.21410250000002,
          "velocity": 0.3937007874015748
        },
        {
          "duration": 0.32142824999999675,
          "durationTicks": 288,
          "midi": 64,
          "name": "E4",
          "ticks": 164160,
          "time": 183.21410250000002,
          "velocity": 0.3937007874015748
        },
        {
          "duration": 0.3214282500000252,
          "durationTicks": 288,
          "midi": 52,
          "name": "E3",
          "ticks": 164256,
          "time": 183.32124525,
          "velocity": 0.3937007874015748
        },
        {
          "duration": 0.32142824999999675,
          "durationTicks": 288,
          "midi": 40,
          "name": "E2",
          "ticks": 164352,
          "time": 183.428388,
          "velocity": 0.3937007874015748
        },
        {
          "duration": 0.32142824999999675,
          "durationTicks": 288,
          "midi": 66,
          "name": "F#4",
          "ticks": 164352,
          "time": 183.428388,
          "velocity": 0.3937007874015748
        },
        {
          "duration": 0.32142824999999675,
          "durationTicks": 288,
          "midi": 67,
          "name": "G4",
          "ticks": 164544,
          "time": 183.64267350000003,
          "velocity": 0.3937007874015748
        },
        {
          "duration": 0.32142824999999675,
          "durationTicks": 288,
          "midi": 40,
          "name": "E2",
          "ticks": 164640,
          "time": 183.74981625,
          "velocity": 0.3937007874015748
        },
        {
          "duration": 0.32142824999999675,
          "durationTicks": 288,
          "midi": 52,
          "name": "E3",
          "ticks": 164640,
          "time": 183.74981625,
          "velocity": 0.3937007874015748
        },
        {
          "duration": 0.32142824999999675,
          "durationTicks": 288,
          "midi": 40,
          "name": "E2",
          "ticks": 164736,
          "time": 183.85695900000002,
          "velocity": 0.3937007874015748
        },
        {
          "duration": 0.32142824999999675,
          "durationTicks": 288,
          "midi": 69,
          "name": "A4",
          "ticks": 164736,
          "time": 183.85695900000002,
          "velocity": 0.3937007874015748
        },
        {
          "duration": 0.32142824999999675,
          "durationTicks": 288,
          "midi": 52,
          "name": "E3",
          "ticks": 164832,
          "time": 183.96410175000003,
          "velocity": 0.3937007874015748
        },
        {
          "duration": 0.32142824999999675,
          "durationTicks": 288,
          "midi": 40,
          "name": "E2",
          "ticks": 164928,
          "time": 184.0712445,
          "velocity": 0.3937007874015748
        },
        {
          "duration": 0.32142824999999675,
          "durationTicks": 288,
          "midi": 50,
          "name": "D3",
          "ticks": 164928,
          "time": 184.0712445,
          "velocity": 0.3937007874015748
        },
        {
          "duration": 0.32142824999999675,
          "durationTicks": 288,
          "midi": 71,
          "name": "B4",
          "ticks": 164928,
          "time": 184.0712445,
          "velocity": 0.3937007874015748
        },
        {
          "duration": 0.32142824999999675,
          "durationTicks": 288,
          "midi": 52,
          "name": "E3",
          "ticks": 165024,
          "time": 184.17838725000001,
          "velocity": 0.3937007874015748
        },
        {
          "duration": 0.32142824999999675,
          "durationTicks": 288,
          "midi": 40,
          "name": "E2",
          "ticks": 165120,
          "time": 184.28553000000002,
          "velocity": 0.3937007874015748
        },
        {
          "duration": 0.32142824999999675,
          "durationTicks": 288,
          "midi": 57,
          "name": "A3",
          "ticks": 165120,
          "time": 184.28553000000002,
          "velocity": 0.3937007874015748
        },
        {
          "duration": 0.32142824999999675,
          "durationTicks": 288,
          "midi": 64,
          "name": "E4",
          "ticks": 165120,
          "time": 184.28553000000002,
          "velocity": 0.3937007874015748
        },
        {
          "duration": 0.32142824999999675,
          "durationTicks": 288,
          "midi": 55,
          "name": "G3",
          "ticks": 165312,
          "time": 184.4998155,
          "velocity": 0.3937007874015748
        },
        {
          "duration": 0.32142824999999675,
          "durationTicks": 288,
          "midi": 40,
          "name": "E2",
          "ticks": 165408,
          "time": 184.60695825000002,
          "velocity": 0.3937007874015748
        },
        {
          "duration": 0.32142824999999675,
          "durationTicks": 288,
          "midi": 57,
          "name": "A3",
          "ticks": 165408,
          "time": 184.60695825000002,
          "velocity": 0.3937007874015748
        },
        {
          "duration": 0.32142824999999675,
          "durationTicks": 288,
          "midi": 40,
          "name": "E2",
          "ticks": 165504,
          "time": 184.71410100000003,
          "velocity": 0.3937007874015748
        },
        {
          "duration": 0.32142824999999675,
          "durationTicks": 288,
          "midi": 55,
          "name": "G3",
          "ticks": 165504,
          "time": 184.71410100000003,
          "velocity": 0.3937007874015748
        },
        {
          "duration": 0.32142824999999675,
          "durationTicks": 288,
          "midi": 71,
          "name": "B4",
          "ticks": 165504,
          "time": 184.71410100000003,
          "velocity": 0.3937007874015748
        },
        {
          "duration": 0.32142824999999675,
          "durationTicks": 288,
          "midi": 40,
          "name": "E2",
          "ticks": 165696,
          "time": 184.92838650000002,
          "velocity": 0.3937007874015748
        },
        {
          "duration": 0.32142824999999675,
          "durationTicks": 288,
          "midi": 52,
          "name": "E3",
          "ticks": 165696,
          "time": 184.92838650000002,
          "velocity": 0.3937007874015748
        },
        {
          "duration": 0.32142824999999675,
          "durationTicks": 288,
          "midi": 74,
          "name": "D5",
          "ticks": 165696,
          "time": 184.92838650000002,
          "velocity": 0.3937007874015748
        },
        {
          "duration": 0.32142824999999675,
          "durationTicks": 288,
          "midi": 57,
          "name": "A3",
          "ticks": 165792,
          "time": 185.03552925000002,
          "velocity": 0.3937007874015748
        },
        {
          "duration": 0.32142824999999675,
          "durationTicks": 288,
          "midi": 36,
          "name": "C2",
          "ticks": 165888,
          "time": 185.142672,
          "velocity": 0.3937007874015748
        },
        {
          "duration": 0.32142824999999675,
          "durationTicks": 288,
          "midi": 74,
          "name": "D5",
          "ticks": 165888,
          "time": 185.142672,
          "velocity": 0.3937007874015748
        },
        {
          "duration": 0.32142824999999675,
          "durationTicks": 288,
          "midi": 76,
          "name": "E5",
          "ticks": 166080,
          "time": 185.35695750000002,
          "velocity": 0.3937007874015748
        },
        {
          "duration": 0.3214282500000252,
          "durationTicks": 288,
          "midi": 36,
          "name": "C2",
          "ticks": 166176,
          "time": 185.46410025,
          "velocity": 0.3937007874015748
        },
        {
          "duration": 0.3214282500000252,
          "durationTicks": 288,
          "midi": 52,
          "name": "E3",
          "ticks": 166176,
          "time": 185.46410025,
          "velocity": 0.3937007874015748
        },
        {
          "duration": 0.32142824999999675,
          "durationTicks": 288,
          "midi": 36,
          "name": "C2",
          "ticks": 166272,
          "time": 185.571243,
          "velocity": 0.3937007874015748
        },
        {
          "duration": 0.32142824999999675,
          "durationTicks": 288,
          "midi": 71,
          "name": "B4",
          "ticks": 166272,
          "time": 185.571243,
          "velocity": 0.3937007874015748
        },
        {
          "duration": 0.32142824999999675,
          "durationTicks": 288,
          "midi": 52,
          "name": "E3",
          "ticks": 166368,
          "time": 185.67838575000002,
          "velocity": 0.3937007874015748
        },
        {
          "duration": 0.32142824999999675,
          "durationTicks": 288,
          "midi": 36,
          "name": "C2",
          "ticks": 166464,
          "time": 185.78552850000003,
          "velocity": 0.3937007874015748
        },
        {
          "duration": 0.32142824999999675,
          "durationTicks": 288,
          "midi": 50,
          "name": "D3",
          "ticks": 166464,
          "time": 185.78552850000003,
          "velocity": 0.3937007874015748
        },
        {
          "duration": 0.32142824999999675,
          "durationTicks": 288,
          "midi": 69,
          "name": "A4",
          "ticks": 166464,
          "time": 185.78552850000003,
          "velocity": 0.3937007874015748
        },
        {
          "duration": 0.32142824999999675,
          "durationTicks": 288,
          "midi": 52,
          "name": "E3",
          "ticks": 166560,
          "time": 185.89267125,
          "velocity": 0.3937007874015748
        },
        {
          "duration": 0.32142824999999675,
          "durationTicks": 288,
          "midi": 36,
          "name": "C2",
          "ticks": 166656,
          "time": 185.99981400000001,
          "velocity": 0.3937007874015748
        },
        {
          "duration": 0.32142824999999675,
          "durationTicks": 288,
          "midi": 71,
          "name": "B4",
          "ticks": 166656,
          "time": 185.99981400000001,
          "velocity": 0.3937007874015748
        },
        {
          "duration": 0.32142824999999675,
          "durationTicks": 288,
          "midi": 36,
          "name": "C2",
          "ticks": 166944,
          "time": 186.32124225,
          "velocity": 0.3937007874015748
        },
        {
          "duration": 0.32142824999999675,
          "durationTicks": 288,
          "midi": 52,
          "name": "E3",
          "ticks": 166944,
          "time": 186.32124225,
          "velocity": 0.3937007874015748
        },
        {
          "duration": 0.32142824999999675,
          "durationTicks": 288,
          "midi": 36,
          "name": "C2",
          "ticks": 167040,
          "time": 186.42838500000002,
          "velocity": 0.3937007874015748
        },
        {
          "duration": 0.32142824999999675,
          "durationTicks": 288,
          "midi": 69,
          "name": "A4",
          "ticks": 167040,
          "time": 186.42838500000002,
          "velocity": 0.3937007874015748
        },
        {
          "duration": 0.32142824999999675,
          "durationTicks": 288,
          "midi": 52,
          "name": "E3",
          "ticks": 167136,
          "time": 186.53552775000003,
          "velocity": 0.3937007874015748
        },
        {
          "duration": 0.32142824999999675,
          "durationTicks": 288,
          "midi": 36,
          "name": "C2",
          "ticks": 167232,
          "time": 186.6426705,
          "velocity": 0.3937007874015748
        },
        {
          "duration": 0.32142824999999675,
          "durationTicks": 288,
          "midi": 50,
          "name": "D3",
          "ticks": 167232,
          "time": 186.6426705,
          "velocity": 0.3937007874015748
        },
        {
          "duration": 0.32142824999999675,
          "durationTicks": 288,
          "midi": 71,
          "name": "B4",
          "ticks": 167232,
          "time": 186.6426705,
          "velocity": 0.3937007874015748
        },
        {
          "duration": 0.32142824999999675,
          "durationTicks": 288,
          "midi": 52,
          "name": "E3",
          "ticks": 167328,
          "time": 186.74981325000002,
          "velocity": 0.3937007874015748
        },
        {
          "duration": 0.32142824999999675,
          "durationTicks": 288,
          "midi": 38,
          "name": "D2",
          "ticks": 167424,
          "time": 186.85695600000003,
          "velocity": 0.3937007874015748
        },
        {
          "duration": 0.32142824999999675,
          "durationTicks": 288,
          "midi": 74,
          "name": "D5",
          "ticks": 167424,
          "time": 186.85695600000003,
          "velocity": 0.3937007874015748
        },
        {
          "duration": 0.32142824999999675,
          "durationTicks": 288,
          "midi": 76,
          "name": "E5",
          "ticks": 167616,
          "time": 187.0712415,
          "velocity": 0.3937007874015748
        },
        {
          "duration": 0.32142824999999675,
          "durationTicks": 288,
          "midi": 38,
          "name": "D2",
          "ticks": 167712,
          "time": 187.17838425000002,
          "velocity": 0.3937007874015748
        },
        {
          "duration": 0.32142824999999675,
          "durationTicks": 288,
          "midi": 52,
          "name": "E3",
          "ticks": 167712,
          "time": 187.17838425000002,
          "velocity": 0.3937007874015748
        },
        {
          "duration": 0.3214282500000252,
          "durationTicks": 288,
          "midi": 38,
          "name": "D2",
          "ticks": 167808,
          "time": 187.285527,
          "velocity": 0.3937007874015748
        },
        {
          "duration": 0.3214282500000252,
          "durationTicks": 288,
          "midi": 71,
          "name": "B4",
          "ticks": 167808,
          "time": 187.285527,
          "velocity": 0.3937007874015748
        },
        {
          "duration": 0.32142824999999675,
          "durationTicks": 288,
          "midi": 52,
          "name": "E3",
          "ticks": 167904,
          "time": 187.39266975,
          "velocity": 0.3937007874015748
        },
        {
          "duration": 0.32142824999999675,
          "durationTicks": 288,
          "midi": 38,
          "name": "D2",
          "ticks": 168000,
          "time": 187.49981250000002,
          "velocity": 0.3937007874015748
        },
        {
          "duration": 0.32142824999999675,
          "durationTicks": 288,
          "midi": 50,
          "name": "D3",
          "ticks": 168000,
          "time": 187.49981250000002,
          "velocity": 0.3937007874015748
        },
        {
          "duration": 0.32142824999999675,
          "durationTicks": 288,
          "midi": 69,
          "name": "A4",
          "ticks": 168000,
          "time": 187.49981250000002,
          "velocity": 0.3937007874015748
        },
        {
          "duration": 0.32142824999999675,
          "durationTicks": 288,
          "midi": 52,
          "name": "E3",
          "ticks": 168096,
          "time": 187.60695525000003,
          "velocity": 0.3937007874015748
        },
        {
          "duration": 0.32142824999999675,
          "durationTicks": 288,
          "midi": 38,
          "name": "D2",
          "ticks": 168192,
          "time": 187.714098,
          "velocity": 0.3937007874015748
        },
        {
          "duration": 0.32142824999999675,
          "durationTicks": 288,
          "midi": 71,
          "name": "B4",
          "ticks": 168192,
          "time": 187.714098,
          "velocity": 0.3937007874015748
        },
        {
          "duration": 0.3214282500000252,
          "durationTicks": 288,
          "midi": 38,
          "name": "D2",
          "ticks": 168480,
          "time": 188.03552625,
          "velocity": 0.3937007874015748
        },
        {
          "duration": 0.3214282500000252,
          "durationTicks": 288,
          "midi": 52,
          "name": "E3",
          "ticks": 168480,
          "time": 188.03552625,
          "velocity": 0.3937007874015748
        },
        {
          "duration": 0.32142824999999675,
          "durationTicks": 288,
          "midi": 38,
          "name": "D2",
          "ticks": 168576,
          "time": 188.142669,
          "velocity": 0.3937007874015748
        },
        {
          "duration": 0.32142824999999675,
          "durationTicks": 288,
          "midi": 76,
          "name": "E5",
          "ticks": 168576,
          "time": 188.142669,
          "velocity": 0.3937007874015748
        },
        {
          "duration": 0.32142824999999675,
          "durationTicks": 288,
          "midi": 88,
          "name": "E6",
          "ticks": 168576,
          "time": 188.142669,
          "velocity": 0.3937007874015748
        },
        {
          "duration": 0.32142824999999675,
          "durationTicks": 288,
          "midi": 52,
          "name": "E3",
          "ticks": 168672,
          "time": 188.24981175000002,
          "velocity": 0.3937007874015748
        },
        {
          "duration": 0.32142824999999675,
          "durationTicks": 288,
          "midi": 38,
          "name": "D2",
          "ticks": 168768,
          "time": 188.35695450000003,
          "velocity": 0.3937007874015748
        },
        {
          "duration": 0.32142824999999675,
          "durationTicks": 288,
          "midi": 50,
          "name": "D3",
          "ticks": 168768,
          "time": 188.35695450000003,
          "velocity": 0.3937007874015748
        },
        {
          "duration": 0.32142824999999675,
          "durationTicks": 288,
          "midi": 78,
          "name": "F#5",
          "ticks": 168768,
          "time": 188.35695450000003,
          "velocity": 0.3937007874015748
        },
        {
          "duration": 0.32142824999999675,
          "durationTicks": 288,
          "midi": 90,
          "name": "F#6",
          "ticks": 168768,
          "time": 188.35695450000003,
          "velocity": 0.3937007874015748
        },
        {
          "duration": 0.32142824999999675,
          "durationTicks": 288,
          "midi": 52,
          "name": "E3",
          "ticks": 168864,
          "time": 188.46409725,
          "velocity": 0.3937007874015748
        },
        {
          "duration": 0.32142824999999675,
          "durationTicks": 288,
          "midi": 40,
          "name": "E2",
          "ticks": 168960,
          "time": 188.57124000000002,
          "velocity": 0.3937007874015748
        },
        {
          "duration": 0.32142824999999675,
          "durationTicks": 288,
          "midi": 79,
          "name": "G5",
          "ticks": 168960,
          "time": 188.57124000000002,
          "velocity": 0.3937007874015748
        },
        {
          "duration": 0.32142824999999675,
          "durationTicks": 288,
          "midi": 78,
          "name": "F#5",
          "ticks": 169152,
          "time": 188.7855255,
          "velocity": 0.3937007874015748
        },
        {
          "duration": 0.32142824999999675,
          "durationTicks": 288,
          "midi": 90,
          "name": "F#6",
          "ticks": 169152,
          "time": 188.7855255,
          "velocity": 0.3937007874015748
        },
        {
          "duration": 0.32142824999999675,
          "durationTicks": 288,
          "midi": 40,
          "name": "E2",
          "ticks": 169248,
          "time": 188.89266825,
          "velocity": 0.3937007874015748
        },
        {
          "duration": 0.32142824999999675,
          "durationTicks": 288,
          "midi": 52,
          "name": "E3",
          "ticks": 169248,
          "time": 188.89266825,
          "velocity": 0.3937007874015748
        },
        {
          "duration": 0.32142824999999675,
          "durationTicks": 288,
          "midi": 40,
          "name": "E2",
          "ticks": 169344,
          "time": 188.99981100000002,
          "velocity": 0.3937007874015748
        },
        {
          "duration": 0.32142824999999675,
          "durationTicks": 288,
          "midi": 76,
          "name": "E5",
          "ticks": 169344,
          "time": 188.99981100000002,
          "velocity": 0.3937007874015748
        },
        {
          "duration": 0.32142824999999675,
          "durationTicks": 288,
          "midi": 88,
          "name": "E6",
          "ticks": 169344,
          "time": 188.99981100000002,
          "velocity": 0.3937007874015748
        },
        {
          "duration": 0.3214282500000252,
          "durationTicks": 288,
          "midi": 52,
          "name": "E3",
          "ticks": 169440,
          "time": 189.10695375,
          "velocity": 0.3937007874015748
        },
        {
          "duration": 0.32142824999999675,
          "durationTicks": 288,
          "midi": 40,
          "name": "E2",
          "ticks": 169536,
          "time": 189.2140965,
          "velocity": 0.3937007874015748
        },
        {
          "duration": 0.32142824999999675,
          "durationTicks": 288,
          "midi": 50,
          "name": "D3",
          "ticks": 169536,
          "time": 189.2140965,
          "velocity": 0.3937007874015748
        },
        {
          "duration": 0.32142824999999675,
          "durationTicks": 288,
          "midi": 74,
          "name": "D5",
          "ticks": 169536,
          "time": 189.2140965,
          "velocity": 0.3937007874015748
        },
        {
          "duration": 0.32142824999999675,
          "durationTicks": 288,
          "midi": 86,
          "name": "D6",
          "ticks": 169536,
          "time": 189.2140965,
          "velocity": 0.3937007874015748
        },
        {
          "duration": 0.32142824999999675,
          "durationTicks": 288,
          "midi": 52,
          "name": "E3",
          "ticks": 169632,
          "time": 189.32123925000002,
          "velocity": 0.3937007874015748
        },
        {
          "duration": 0.32142824999999675,
          "durationTicks": 288,
          "midi": 40,
          "name": "E2",
          "ticks": 169728,
          "time": 189.42838200000003,
          "velocity": 0.3937007874015748
        },
        {
          "duration": 0.32142824999999675,
          "durationTicks": 288,
          "midi": 71,
          "name": "B4",
          "ticks": 169728,
          "time": 189.42838200000003,
          "velocity": 0.3937007874015748
        },
        {
          "duration": 0.32142824999999675,
          "durationTicks": 288,
          "midi": 83,
          "name": "B5",
          "ticks": 169728,
          "time": 189.42838200000003,
          "velocity": 0.3937007874015748
        },
        {
          "duration": 0.32142824999999675,
          "durationTicks": 288,
          "midi": 40,
          "name": "E2",
          "ticks": 170016,
          "time": 189.74981025000002,
          "velocity": 0.3937007874015748
        },
        {
          "duration": 0.32142824999999675,
          "durationTicks": 288,
          "midi": 52,
          "name": "E3",
          "ticks": 170016,
          "time": 189.74981025000002,
          "velocity": 0.3937007874015748
        },
        {
          "duration": 0.3214282500000252,
          "durationTicks": 288,
          "midi": 40,
          "name": "E2",
          "ticks": 170112,
          "time": 189.856953,
          "velocity": 0.3937007874015748
        },
        {
          "duration": 0.3214282500000252,
          "durationTicks": 288,
          "midi": 69,
          "name": "A4",
          "ticks": 170112,
          "time": 189.856953,
          "velocity": 0.3937007874015748
        },
        {
          "duration": 0.3214282500000252,
          "durationTicks": 288,
          "midi": 81,
          "name": "A5",
          "ticks": 170112,
          "time": 189.856953,
          "velocity": 0.3937007874015748
        },
        {
          "duration": 0.32142824999999675,
          "durationTicks": 288,
          "midi": 52,
          "name": "E3",
          "ticks": 170208,
          "time": 189.96409575,
          "velocity": 0.3937007874015748
        },
        {
          "duration": 0.32142824999999675,
          "durationTicks": 288,
          "midi": 40,
          "name": "E2",
          "ticks": 170304,
          "time": 190.07123850000002,
          "velocity": 0.3937007874015748
        },
        {
          "duration": 0.32142824999999675,
          "durationTicks": 288,
          "midi": 50,
          "name": "D3",
          "ticks": 170304,
          "time": 190.07123850000002,
          "velocity": 0.3937007874015748
        },
        {
          "duration": 0.32142824999999675,
          "durationTicks": 288,
          "midi": 71,
          "name": "B4",
          "ticks": 170304,
          "time": 190.07123850000002,
          "velocity": 0.3937007874015748
        },
        {
          "duration": 0.32142824999999675,
          "durationTicks": 288,
          "midi": 83,
          "name": "B5",
          "ticks": 170304,
          "time": 190.07123850000002,
          "velocity": 0.3937007874015748
        },
        {
          "duration": 0.32142824999999675,
          "durationTicks": 288,
          "midi": 69,
          "name": "A4",
          "ticks": 170496,
          "time": 190.285524,
          "velocity": 0.3937007874015748
        },
        {
          "duration": 0.32142824999999675,
          "durationTicks": 288,
          "midi": 40,
          "name": "E2",
          "ticks": 170496,
          "time": 190.285524,
          "velocity": 0.3937007874015748
        },
        {
          "duration": 0.32142824999999675,
          "durationTicks": 288,
          "midi": 67,
          "name": "G4",
          "ticks": 170688,
          "time": 190.49980950000003,
          "velocity": 0.3937007874015748
        },
        {
          "duration": 0.32142824999999675,
          "durationTicks": 288,
          "midi": 40,
          "name": "E2",
          "ticks": 170784,
          "time": 190.60695225,
          "velocity": 0.3937007874015748
        },
        {
          "duration": 0.32142824999999675,
          "durationTicks": 288,
          "midi": 52,
          "name": "E3",
          "ticks": 170784,
          "time": 190.60695225,
          "velocity": 0.3937007874015748
        },
        {
          "duration": 0.32142824999999675,
          "durationTicks": 288,
          "midi": 66,
          "name": "F#4",
          "ticks": 170880,
          "time": 190.71409500000001,
          "velocity": 0.3937007874015748
        },
        {
          "duration": 0.32142824999999675,
          "durationTicks": 288,
          "midi": 40,
          "name": "E2",
          "ticks": 170880,
          "time": 190.71409500000001,
          "velocity": 0.3937007874015748
        },
        {
          "duration": 0.32142824999999675,
          "durationTicks": 288,
          "midi": 52,
          "name": "E3",
          "ticks": 170976,
          "time": 190.82123775000002,
          "velocity": 0.3937007874015748
        },
        {
          "duration": 0.3214282500000252,
          "durationTicks": 288,
          "midi": 62,
          "name": "D4",
          "ticks": 171072,
          "time": 190.9283805,
          "velocity": 0.3937007874015748
        },
        {
          "duration": 0.3214282500000252,
          "durationTicks": 288,
          "midi": 40,
          "name": "E2",
          "ticks": 171072,
          "time": 190.9283805,
          "velocity": 0.3937007874015748
        },
        {
          "duration": 0.3214282500000252,
          "durationTicks": 288,
          "midi": 50,
          "name": "D3",
          "ticks": 171072,
          "time": 190.9283805,
          "velocity": 0.3937007874015748
        },
        {
          "duration": 0.32142824999999675,
          "durationTicks": 288,
          "midi": 52,
          "name": "E3",
          "ticks": 171168,
          "time": 191.03552325,
          "velocity": 0.3937007874015748
        },
        {
          "duration": 1.4999985000000038,
          "durationTicks": 1344,
          "midi": 64,
          "name": "E4",
          "ticks": 171264,
          "time": 191.14266600000002,
          "velocity": 0.3937007874015748
        },
        {
          "duration": 0.32142824999999675,
          "durationTicks": 288,
          "midi": 40,
          "name": "E2",
          "ticks": 171264,
          "time": 191.14266600000002,
          "velocity": 0.3937007874015748
        },
        {
          "duration": 0.32142824999999675,
          "durationTicks": 288,
          "midi": 40,
          "name": "E2",
          "ticks": 171552,
          "time": 191.46409425000002,
          "velocity": 0.3937007874015748
        },
        {
          "duration": 0.32142824999999675,
          "durationTicks": 288,
          "midi": 52,
          "name": "E3",
          "ticks": 171552,
          "time": 191.46409425000002,
          "velocity": 0.3937007874015748
        },
        {
          "duration": 0.32142824999999675,
          "durationTicks": 288,
          "midi": 40,
          "name": "E2",
          "ticks": 171648,
          "time": 191.57123700000002,
          "velocity": 0.3937007874015748
        },
        {
          "duration": 0.3214282500000252,
          "durationTicks": 288,
          "midi": 52,
          "name": "E3",
          "ticks": 171744,
          "time": 191.67837975,
          "velocity": 0.3937007874015748
        },
        {
          "duration": 0.32142824999999675,
          "durationTicks": 288,
          "midi": 40,
          "name": "E2",
          "ticks": 171840,
          "time": 191.7855225,
          "velocity": 0.3937007874015748
        },
        {
          "duration": 0.32142824999999675,
          "durationTicks": 288,
          "midi": 50,
          "name": "D3",
          "ticks": 171840,
          "time": 191.7855225,
          "velocity": 0.3937007874015748
        },
        {
          "duration": 0.7499992500000019,
          "durationTicks": 672,
          "midi": 52,
          "name": "E3",
          "ticks": 171936,
          "time": 191.89266525000002,
          "velocity": 0.3937007874015748
        },
        {
          "duration": 0.7499992500000019,
          "durationTicks": 672,
          "midi": 40,
          "name": "E2",
          "ticks": 171936,
          "time": 191.89266525000002,
          "velocity": 0.3937007874015748
        }
      ],
      "endOfTrackTicks": 172608
    }
  ]
}
