{
  "header": {
    "keySignatures": [],
    "meta": [],
    "name": "8-Bit Square",
    "ppq": 384,
    "tempos": [
      {
        "bpm": 120,
        "ticks": 0
      }
    ],
    "timeSignatures": [
      {
        "ticks": 0,
        "timeSignature": [
          4,
          4
        ],
        "measures": 0
      }
    ]
  },
  "tracks": [
    {
      "channel": 0,
      "controlChanges": {},
      "pitchBends": [],
      "instrument": {
        "family": "synth lead",
        "number": 80,
        "name": "lead 1 (square)"
      },
      "name": "8-Bit Square",
      "notes": [
        {
          "duration": 0.125,
          "durationTicks": 96,
          "midi": 58,
          "name": "A#3",
          "ticks": 0,
          "time": 0,
          "velocity": 0.14960629921259844
        },
        {
          "duration": 0.12499999999999999,
          "durationTicks": 96,
          "midi": 61,
          "name": "C#4",
          "ticks": 62,
          "time": 0.08072916666666667,
          "velocity": 0.14960629921259844
        },
        {
          "duration": 0.12500000000000003,
          "durationTicks": 96,
          "midi": 65,
          "name": "F4",
          "ticks": 134,
          "time": 0.17447916666666666,
          "velocity": 0.13385826771653545
        },
        {
          "duration": 0.12630208333333337,
          "durationTicks": 97,
          "midi": 68,
          "name": "G#4",
          "ticks": 196,
          "time": 0.2552083333333333,
          "velocity": 0.13385826771653545
        },
        {
          "duration": 2.4140625,
          "durationTicks": 1854,
          "midi": 72,
          "name": "C5",
          "ticks": 259,
          "time": 0.3372395833333333,
          "velocity": 0.14173228346456693
        },
        {
          "duration": 0.12630208333333348,
          "durationTicks": 97,
          "midi": 58,
          "name": "A#3",
          "ticks": 2055,
          "time": 2.67578125,
          "velocity": 0.14960629921259844
        },
        {
          "duration": 0.125,
          "durationTicks": 96,
          "midi": 61,
          "name": "C#4",
          "ticks": 2118,
          "time": 2.7578125,
          "velocity": 0.14960629921259844
        },
        {
          "duration": 1.125,
          "durationTicks": 864,
          "midi": 72,
          "name": "C5",
          "ticks": 2171,
          "time": 2.8268229166666665,
          "velocity": 0.1732283464566929
        },
        {
          "duration": 0.125,
          "durationTicks": 96,
          "midi": 63,
          "name": "D#4",
          "ticks": 2198,
          "time": 2.8619791666666665,
          "velocity": 0.14173228346456693
        },
        {
          "duration": 0.125,
          "durationTicks": 96,
          "midi": 67,
          "name": "G4",
          "ticks": 2243,
          "time": 2.9205729166666665,
          "velocity": 0.13385826771653545
        },
        {
          "duration": 0,
          "durationTicks": 0,
          "midi": 73,
          "name": "C#5",
          "ticks": 3038,
          "time": 3.9557291666666665,
          "velocity": 0.06299212598425197
        },
        {
          "duration": 0.125,
          "durationTicks": 96,
          "midi": 74,
          "name": "D5",
          "ticks": 3074,
          "time": 4.002604166666667,
          "velocity": 0.07086614173228346
        },
        {
          "duration": 1.419270833333334,
          "durationTicks": 1090,
          "midi": 75,
          "name": "D#5",
          "ticks": 3136,
          "time": 4.083333333333333,
          "velocity": 0.07086614173228346
        },
        {
          "duration": 0.125,
          "durationTicks": 96,
          "midi": 56,
          "name": "G#3",
          "ticks": 4110,
          "time": 5.3515625,
          "velocity": 0.14173228346456693
        },
        {
          "duration": 0.12630208333333304,
          "durationTicks": 97,
          "midi": 60,
          "name": "C4",
          "ticks": 4172,
          "time": 5.432291666666667,
          "velocity": 0.14173228346456693
        },
        {
          "duration": 0.12630208333333304,
          "durationTicks": 97,
          "midi": 63,
          "name": "D#4",
          "ticks": 4235,
          "time": 5.514322916666667,
          "velocity": 0.14173228346456693
        },
        {
          "duration": 0.12630208333333304,
          "durationTicks": 97,
          "midi": 67,
          "name": "G4",
          "ticks": 4298,
          "time": 5.596354166666667,
          "velocity": 0.14173228346456693
        },
        {
          "duration": 0.125,
          "durationTicks": 96,
          "midi": 70,
          "name": "A#4",
          "ticks": 4362,
          "time": 5.6796875,
          "velocity": 0.14960629921259844
        },
        {
          "duration": 1.229166666666667,
          "durationTicks": 944,
          "midi": 67,
          "name": "G4",
          "ticks": 4531,
          "time": 5.899739583333333,
          "velocity": 0.06299212598425197
        },
        {
          "duration": 0,
          "durationTicks": 0,
          "midi": 70,
          "name": "A#4",
          "ticks": 4960,
          "time": 6.458333333333333,
          "velocity": 0.05511811023622047
        },
        {
          "duration": 0,
          "durationTicks": 0,
          "midi": 70,
          "name": "A#4",
          "ticks": 5228,
          "time": 6.807291666666667,
          "velocity": 0.05511811023622047
        },
        {
          "duration": 0.75,
          "durationTicks": 576,
          "midi": 67,
          "name": "G4",
          "ticks": 5460,
          "time": 7.109375,
          "velocity": 0.05511811023622047
        },
        {
          "duration": 0.125,
          "durationTicks": 96,
          "midi": 70,
          "name": "A#4",
          "ticks": 5923,
          "time": 7.712239583333333,
          "velocity": 0.05511811023622047
        },
        {
          "duration": 0.12630208333333393,
          "durationTicks": 97,
          "midi": 69,
          "name": "A4",
          "ticks": 6031,
          "time": 7.852864583333333,
          "velocity": 0.06299212598425197
        },
        {
          "duration": 0.12630208333333393,
          "durationTicks": 97,
          "midi": 66,
          "name": "F#4",
          "ticks": 6040,
          "time": 7.864583333333333,
          "velocity": 0.08661417322834646
        },
        {
          "duration": 0,
          "durationTicks": 0,
          "midi": 68,
          "name": "G#4",
          "ticks": 6121,
          "time": 7.970052083333333,
          "velocity": 0.05511811023622047
        },
        {
          "duration": 0.12630208333333304,
          "durationTicks": 97,
          "midi": 65,
          "name": "F4",
          "ticks": 6121,
          "time": 7.970052083333333,
          "velocity": 0.07874015748031496
        },
        {
          "duration": 0.12630208333333215,
          "durationTicks": 97,
          "midi": 53,
          "name": "F3",
          "ticks": 6157,
          "time": 8.016927083333334,
          "velocity": 0.14960629921259844
        },
        {
          "duration": 0.12630208333333215,
          "durationTicks": 97,
          "midi": 63,
          "name": "D#4",
          "ticks": 6184,
          "time": 8.052083333333334,
          "velocity": 0.07874015748031496
        },
        {
          "duration": 0.3776041666666661,
          "durationTicks": 290,
          "midi": 67,
          "name": "G4",
          "ticks": 6184,
          "time": 8.052083333333334,
          "velocity": 0.13385826771653545
        },
        {
          "duration": 0.12630208333333215,
          "durationTicks": 97,
          "midi": 56,
          "name": "G#3",
          "ticks": 6220,
          "time": 8.098958333333334,
          "velocity": 0.14960629921259844
        },
        {
          "duration": 0.125,
          "durationTicks": 96,
          "midi": 60,
          "name": "C4",
          "ticks": 6293,
          "time": 8.194010416666666,
          "velocity": 0.14173228346456693
        },
        {
          "duration": 0.125,
          "durationTicks": 96,
          "midi": 63,
          "name": "D#4",
          "ticks": 6302,
          "time": 8.205729166666666,
          "velocity": 0.11811023622047244
        },
        {
          "duration": 0.3776041666666661,
          "durationTicks": 290,
          "midi": 63,
          "name": "D#4",
          "ticks": 6364,
          "time": 8.286458333333334,
          "velocity": 0.1732283464566929
        },
        {
          "duration": 0.125,
          "durationTicks": 96,
          "midi": 68,
          "name": "G#4",
          "ticks": 6427,
          "time": 8.368489583333334,
          "velocity": 0.1889763779527559
        },
        {
          "duration": 0.125,
          "durationTicks": 96,
          "midi": 67,
          "name": "G4",
          "ticks": 6535,
          "time": 8.509114583333334,
          "velocity": 0.08661417322834646
        },
        {
          "duration": 0,
          "durationTicks": 0,
          "midi": 68,
          "name": "G#4",
          "ticks": 6643,
          "time": 8.649739583333334,
          "velocity": 0.11811023622047244
        },
        {
          "duration": 0.125,
          "durationTicks": 96,
          "midi": 63,
          "name": "D#4",
          "ticks": 6670,
          "time": 8.684895833333334,
          "velocity": 0.08661417322834646
        },
        {
          "duration": 0.125,
          "durationTicks": 96,
          "midi": 63,
          "name": "D#4",
          "ticks": 6812,
          "time": 8.869791666666666,
          "velocity": 0.07086614173228346
        },
        {
          "duration": 0.125,
          "durationTicks": 96,
          "midi": 67,
          "name": "G4",
          "ticks": 6857,
          "time": 8.928385416666666,
          "velocity": 0.07086614173228346
        },
        {
          "duration": 0.375,
          "durationTicks": 288,
          "midi": 63,
          "name": "D#4",
          "ticks": 6928,
          "time": 9.020833333333334,
          "velocity": 0.07874015748031496
        },
        {
          "duration": 0.125,
          "durationTicks": 96,
          "midi": 67,
          "name": "G4",
          "ticks": 6982,
          "time": 9.091145833333334,
          "velocity": 0.07086614173228346
        },
        {
          "duration": 1.3658854166666679,
          "durationTicks": 1049,
          "midi": 63,
          "name": "D#4",
          "ticks": 7214,
          "time": 9.393229166666666,
          "velocity": 0.06299212598425197
        },
        {
          "duration": 0.125,
          "durationTicks": 96,
          "midi": 58,
          "name": "A#3",
          "ticks": 8214,
          "time": 10.6953125,
          "velocity": 0.14960629921259844
        },
        {
          "duration": 0.12630208333333393,
          "durationTicks": 97,
          "midi": 61,
          "name": "C#4",
          "ticks": 8276,
          "time": 10.776041666666666,
          "velocity": 0.15748031496062992
        },
        {
          "duration": 0.12630208333333393,
          "durationTicks": 97,
          "midi": 65,
          "name": "F4",
          "ticks": 8339,
          "time": 10.858072916666666,
          "velocity": 0.15748031496062992
        },
        {
          "duration": 0.125,
          "durationTicks": 96,
          "midi": 68,
          "name": "G#4",
          "ticks": 8402,
          "time": 10.940104166666666,
          "velocity": 0.14173228346456693
        },
        {
          "duration": 0.125,
          "durationTicks": 96,
          "midi": 72,
          "name": "C5",
          "ticks": 8474,
          "time": 11.033854166666666,
          "velocity": 0.14173228346456693
        },
        {
          "duration": 0,
          "durationTicks": 0,
          "midi": 61,
          "name": "C#4",
          "ticks": 8518,
          "time": 11.091145833333334,
          "velocity": 0.07874015748031496
        },
        {
          "duration": 0.6015625,
          "durationTicks": 462,
          "midi": 65,
          "name": "F4",
          "ticks": 8545,
          "time": 11.126302083333334,
          "velocity": 0.08661417322834646
        },
        {
          "duration": 0,
          "durationTicks": 0,
          "midi": 61,
          "name": "C#4",
          "ticks": 8563,
          "time": 11.149739583333334,
          "velocity": 0.05511811023622047
        },
        {
          "duration": 0.48567708333333215,
          "durationTicks": 373,
          "midi": 65,
          "name": "F4",
          "ticks": 8911,
          "time": 11.602864583333334,
          "velocity": 0.05511811023622047
        },
        {
          "duration": 0.42057291666666785,
          "durationTicks": 323,
          "midi": 65,
          "name": "F4",
          "ticks": 9188,
          "time": 11.963541666666666,
          "velocity": 0.05511811023622047
        },
        {
          "duration": 1.125,
          "durationTicks": 864,
          "midi": 65,
          "name": "F4",
          "ticks": 9491,
          "time": 12.358072916666666,
          "velocity": 0.05511811023622047
        },
        {
          "duration": 0.25,
          "durationTicks": 192,
          "midi": 60,
          "name": "C4",
          "ticks": 10045,
          "time": 13.079427083333334,
          "velocity": 0.10236220472440945
        },
        {
          "duration": 0,
          "durationTicks": 0,
          "midi": 58,
          "name": "A#3",
          "ticks": 10268,
          "time": 13.369791666666666,
          "velocity": 0.16535433070866143
        },
        {
          "duration": 0,
          "durationTicks": 0,
          "midi": 61,
          "name": "C#4",
          "ticks": 10330,
          "time": 13.450520833333334,
          "velocity": 0.18110236220472442
        },
        {
          "duration": 0.12630208333333215,
          "durationTicks": 97,
          "midi": 68,
          "name": "G#4",
          "ticks": 10330,
          "time": 13.450520833333334,
          "velocity": 0.06299212598425197
        },
        {
          "duration": 0.12630208333333393,
          "durationTicks": 97,
          "midi": 65,
          "name": "F4",
          "ticks": 10340,
          "time": 13.463541666666666,
          "velocity": 0.12598425196850394
        },
        {
          "duration": 0,
          "durationTicks": 0,
          "midi": 61,
          "name": "C#4",
          "ticks": 10367,
          "time": 13.498697916666666,
          "velocity": 0.16535433070866143
        },
        {
          "duration": 0.125,
          "durationTicks": 96,
          "midi": 63,
          "name": "D#4",
          "ticks": 10403,
          "time": 13.545572916666666,
          "velocity": 0.14173228346456693
        },
        {
          "duration": 0.12630208333333215,
          "durationTicks": 97,
          "midi": 67,
          "name": "G4",
          "ticks": 10474,
          "time": 13.638020833333334,
          "velocity": 0.14173228346456693
        },
        {
          "duration": 1.5,
          "durationTicks": 1152,
          "midi": 61,
          "name": "C#4",
          "ticks": 10484,
          "time": 13.651041666666666,
          "velocity": 0.14960629921259844
        },
        {
          "duration": 1,
          "durationTicks": 768,
          "midi": 70,
          "name": "A#4",
          "ticks": 10511,
          "time": 13.686197916666666,
          "velocity": 0.08661417322834646
        },
        {
          "duration": 0.125,
          "durationTicks": 96,
          "midi": 72,
          "name": "C5",
          "ticks": 10520,
          "time": 13.697916666666666,
          "velocity": 0.14173228346456693
        },
        {
          "duration": 0.875,
          "durationTicks": 672,
          "midi": 65,
          "name": "F4",
          "ticks": 10537,
          "time": 13.720052083333334,
          "velocity": 0.07874015748031496
        },
        {
          "duration": 1.0585937500000018,
          "durationTicks": 813,
          "midi": 51,
          "name": "D#3",
          "ticks": 11483,
          "time": 14.951822916666666,
          "velocity": 0.05511811023622047
        },
        {
          "duration": 0.125,
          "durationTicks": 96,
          "midi": 56,
          "name": "G#3",
          "ticks": 12314,
          "time": 16.033854166666668,
          "velocity": 0.14960629921259844
        },
        {
          "duration": 0.125,
          "durationTicks": 96,
          "midi": 60,
          "name": "C4",
          "ticks": 12376,
          "time": 16.114583333333332,
          "velocity": 0.1732283464566929
        },
        {
          "duration": 0.125,
          "durationTicks": 96,
          "midi": 63,
          "name": "D#4",
          "ticks": 12447,
          "time": 16.20703125,
          "velocity": 0.14173228346456693
        },
        {
          "duration": 0.12630208333333215,
          "durationTicks": 97,
          "midi": 67,
          "name": "G4",
          "ticks": 12509,
          "time": 16.287760416666668,
          "velocity": 0.12598425196850394
        },
        {
          "duration": 0.12630208333333215,
          "durationTicks": 97,
          "midi": 70,
          "name": "A#4",
          "ticks": 12572,
          "time": 16.369791666666668,
          "velocity": 0.15748031496062992
        },
        {
          "duration": 0.10416666666666785,
          "durationTicks": 80,
          "midi": 60,
          "name": "C4",
          "ticks": 12609,
          "time": 16.41796875,
          "velocity": 0.10236220472440945
        },
        {
          "duration": 0.02083333333333215,
          "durationTicks": 16,
          "midi": 60,
          "name": "C4",
          "ticks": 12689,
          "time": 16.522135416666668,
          "velocity": 0.07086614173228346
        },
        {
          "duration": 0.125,
          "durationTicks": 96,
          "midi": 60,
          "name": "C4",
          "ticks": 12894,
          "time": 16.7890625,
          "velocity": 0.08661417322834646
        },
        {
          "duration": 0,
          "durationTicks": 0,
          "midi": 60,
          "name": "C4",
          "ticks": 13269,
          "time": 17.27734375,
          "velocity": 0.09448818897637795
        },
        {
          "duration": 0.125,
          "durationTicks": 96,
          "midi": 67,
          "name": "G4",
          "ticks": 13340,
          "time": 17.369791666666668,
          "velocity": 0.07086614173228346
        },
        {
          "duration": 0.625,
          "durationTicks": 480,
          "midi": 51,
          "name": "D#3",
          "ticks": 13537,
          "time": 17.626302083333332,
          "velocity": 0.08661417322834646
        },
        {
          "duration": 0.125,
          "durationTicks": 96,
          "midi": 67,
          "name": "G4",
          "ticks": 13626,
          "time": 17.7421875,
          "velocity": 0.05511811023622047
        },
        {
          "duration": 0,
          "durationTicks": 0,
          "midi": 60,
          "name": "C4",
          "ticks": 13885,
          "time": 18.079427083333332,
          "velocity": 0.09448818897637795
        },
        {
          "duration": 0.33854166666666785,
          "durationTicks": 260,
          "midi": 60,
          "name": "C4",
          "ticks": 13939,
          "time": 18.149739583333332,
          "velocity": 0.11023622047244094
        },
        {
          "duration": 0,
          "durationTicks": 0,
          "midi": 48,
          "name": "C3",
          "ticks": 14046,
          "time": 18.2890625,
          "velocity": 0.08661417322834646
        },
        {
          "duration": 1.3776041666666679,
          "durationTicks": 1058,
          "midi": 67,
          "name": "G4",
          "ticks": 14056,
          "time": 18.302083333333332,
          "velocity": 0.07086614173228346
        },
        {
          "duration": 0,
          "durationTicks": 0,
          "midi": 46,
          "name": "A#2",
          "ticks": 14092,
          "time": 18.348958333333332,
          "velocity": 0.08661417322834646
        },
        {
          "duration": 0,
          "durationTicks": 0,
          "midi": 43,
          "name": "G2",
          "ticks": 14163,
          "time": 18.44140625,
          "velocity": 0.08661417322834646
        },
        {
          "duration": 0.0390625,
          "durationTicks": 30,
          "midi": 60,
          "name": "C4",
          "ticks": 14199,
          "time": 18.48828125,
          "velocity": 0.11023622047244094
        },
        {
          "duration": 0,
          "durationTicks": 0,
          "midi": 40,
          "name": "E2",
          "ticks": 14226,
          "time": 18.5234375,
          "velocity": 0.11023622047244094
        },
        {
          "duration": 0,
          "durationTicks": 0,
          "midi": 38,
          "name": "D2",
          "ticks": 14280,
          "time": 18.59375,
          "velocity": 0.10236220472440945
        },
        {
          "duration": 0,
          "durationTicks": 0,
          "midi": 60,
          "name": "C4",
          "ticks": 14280,
          "time": 18.59375,
          "velocity": 0.10236220472440945
        },
        {
          "duration": 0,
          "durationTicks": 0,
          "midi": 41,
          "name": "F2",
          "ticks": 14316,
          "time": 18.640625,
          "velocity": 0.11023622047244094
        },
        {
          "duration": 0,
          "durationTicks": 0,
          "midi": 58,
          "name": "A#3",
          "ticks": 14361,
          "time": 18.69921875,
          "velocity": 0.09448818897637795
        },
        {
          "duration": 1.625,
          "durationTicks": 1248,
          "midi": 41,
          "name": "F2",
          "ticks": 14370,
          "time": 18.7109375,
          "velocity": 0.11023622047244094
        },
        {
          "duration": 0.125,
          "durationTicks": 96,
          "midi": 53,
          "name": "F3",
          "ticks": 14379,
          "time": 18.72265625,
          "velocity": 0.14960629921259844
        },
        {
          "duration": 0,
          "durationTicks": 0,
          "midi": 55,
          "name": "G3",
          "ticks": 14451,
          "time": 18.81640625,
          "velocity": 0.14173228346456693
        },
        {
          "duration": 0,
          "durationTicks": 0,
          "midi": 60,
          "name": "C4",
          "ticks": 14567,
          "time": 18.967447916666668,
          "velocity": 0.15748031496062992
        },
        {
          "duration": 0,
          "durationTicks": 0,
          "midi": 60,
          "name": "C4",
          "ticks": 14611,
          "time": 19.024739583333332,
          "velocity": 0.12598425196850394
        },
        {
          "duration": 1.375,
          "durationTicks": 1056,
          "midi": 63,
          "name": "D#4",
          "ticks": 14621,
          "time": 19.037760416666668,
          "velocity": 0.18110236220472442
        },
        {
          "duration": 0,
          "durationTicks": 0,
          "midi": 56,
          "name": "G#3",
          "ticks": 15067,
          "time": 19.618489583333332,
          "velocity": 0.08661417322834646
        },
        {
          "duration": 0.125,
          "durationTicks": 96,
          "midi": 55,
          "name": "G3",
          "ticks": 15147,
          "time": 19.72265625,
          "velocity": 0.08661417322834646
        },
        {
          "duration": 0.125,
          "durationTicks": 96,
          "midi": 55,
          "name": "G3",
          "ticks": 15406,
          "time": 20.059895833333332,
          "velocity": 0.05511811023622047
        },
        {
          "duration": 0.125,
          "durationTicks": 96,
          "midi": 65,
          "name": "F4",
          "ticks": 16425,
          "time": 21.38671875,
          "velocity": 0.14173228346456693
        },
        {
          "duration": 0.125,
          "durationTicks": 96,
          "midi": 66,
          "name": "F#4",
          "ticks": 16496,
          "time": 21.479166666666668,
          "velocity": 0.18110236220472442
        },
        {
          "duration": 0.125,
          "durationTicks": 96,
          "midi": 70,
          "name": "A#4",
          "ticks": 16550,
          "time": 21.549479166666668,
          "velocity": 0.14960629921259844
        },
        {
          "duration": 0.1263020833333357,
          "durationTicks": 97,
          "midi": 73,
          "name": "C#5",
          "ticks": 16612,
          "time": 21.630208333333332,
          "velocity": 0.12598425196850394
        },
        {
          "duration": 0.125,
          "durationTicks": 96,
          "midi": 77,
          "name": "F5",
          "ticks": 16675,
          "time": 21.712239583333332,
          "velocity": 0.12598425196850394
        },
        {
          "duration": 0,
          "durationTicks": 0,
          "midi": 66,
          "name": "F#4",
          "ticks": 16711,
          "time": 21.759114583333332,
          "velocity": 0.08661417322834646
        },
        {
          "duration": 0.125,
          "durationTicks": 96,
          "midi": 70,
          "name": "A#4",
          "ticks": 16800,
          "time": 21.875,
          "velocity": 0.05511811023622047
        },
        {
          "duration": 0.125,
          "durationTicks": 96,
          "midi": 77,
          "name": "F5",
          "ticks": 16872,
          "time": 21.96875,
          "velocity": 0.12598425196850394
        },
        {
          "duration": 1.8736979166666679,
          "durationTicks": 1439,
          "midi": 54,
          "name": "F#3",
          "ticks": 16881,
          "time": 21.98046875,
          "velocity": 0.14173228346456693
        },
        {
          "duration": 0.875,
          "durationTicks": 672,
          "midi": 77,
          "name": "F5",
          "ticks": 16997,
          "time": 22.131510416666668,
          "velocity": 0.13385826771653545
        },
        {
          "duration": 0.25,
          "durationTicks": 192,
          "midi": 73,
          "name": "C#5",
          "ticks": 17568,
          "time": 22.875,
          "velocity": 0.08661417322834646
        },
        {
          "duration": 0.9986979166666679,
          "durationTicks": 767,
          "midi": 70,
          "name": "A#4",
          "ticks": 17578,
          "time": 22.888020833333332,
          "velocity": 0.14173228346456693
        },
        {
          "duration": 0.37369791666666785,
          "durationTicks": 287,
          "midi": 77,
          "name": "F5",
          "ticks": 17721,
          "time": 23.07421875,
          "velocity": 0.14173228346456693
        },
        {
          "duration": 0.875,
          "durationTicks": 672,
          "midi": 73,
          "name": "C#5",
          "ticks": 17872,
          "time": 23.270833333333332,
          "velocity": 0.11811023622047244
        },
        {
          "duration": 1.25,
          "durationTicks": 960,
          "midi": 77,
          "name": "F5",
          "ticks": 17988,
          "time": 23.421875,
          "velocity": 0.1968503937007874
        },
        {
          "duration": 0.375,
          "durationTicks": 288,
          "midi": 70,
          "name": "A#4",
          "ticks": 18327,
          "time": 23.86328125,
          "velocity": 0.2125984251968504
        },
        {
          "duration": 0,
          "durationTicks": 0,
          "midi": 51,
          "name": "D#3",
          "ticks": 18345,
          "time": 23.88671875,
          "velocity": 0.07874015748031496
        },
        {
          "duration": 0,
          "durationTicks": 0,
          "midi": 49,
          "name": "C#3",
          "ticks": 18389,
          "time": 23.944010416666668,
          "velocity": 0.07086614173228346
        },
        {
          "duration": 0,
          "durationTicks": 0,
          "midi": 46,
          "name": "A#2",
          "ticks": 18461,
          "time": 24.037760416666668,
          "velocity": 0.06299212598425197
        },
        {
          "duration": 0.125,
          "durationTicks": 96,
          "midi": 68,
          "name": "G#4",
          "ticks": 18470,
          "time": 24.049479166666668,
          "velocity": 0.13385826771653545
        },
        {
          "duration": 0,
          "durationTicks": 0,
          "midi": 44,
          "name": "G#2",
          "ticks": 18506,
          "time": 24.096354166666668,
          "velocity": 0.05511811023622047
        },
        {
          "duration": 2.5,
          "durationTicks": 1920,
          "midi": 44,
          "name": "G#2",
          "ticks": 18559,
          "time": 24.165364583333332,
          "velocity": 0.1968503937007874
        },
        {
          "duration": 0.125,
          "durationTicks": 96,
          "midi": 69,
          "name": "A4",
          "ticks": 18586,
          "time": 24.200520833333332,
          "velocity": 0.15748031496062992
        },
        {
          "duration": 0.125,
          "durationTicks": 96,
          "midi": 73,
          "name": "C#5",
          "ticks": 18603,
          "time": 24.22265625,
          "velocity": 0.16535433070866143
        },
        {
          "duration": 1.75,
          "durationTicks": 1344,
          "midi": 68,
          "name": "G#4",
          "ticks": 18640,
          "time": 24.270833333333332,
          "velocity": 0.14960629921259844
        },
        {
          "duration": 0.25,
          "durationTicks": 192,
          "midi": 72,
          "name": "C5",
          "ticks": 18702,
          "time": 24.3515625,
          "velocity": 0.09448818897637795
        },
        {
          "duration": 0.125,
          "durationTicks": 96,
          "midi": 85,
          "name": "C#6",
          "ticks": 18711,
          "time": 24.36328125,
          "velocity": 0.09448818897637795
        },
        {
          "duration": 0.125,
          "durationTicks": 96,
          "midi": 80,
          "name": "G#5",
          "ticks": 18729,
          "time": 24.38671875,
          "velocity": 0.16535433070866143
        },
        {
          "duration": 0.125,
          "durationTicks": 96,
          "midi": 70,
          "name": "A#4",
          "ticks": 18773,
          "time": 24.444010416666668,
          "velocity": 0.08661417322834646
        },
        {
          "duration": 0.375,
          "durationTicks": 288,
          "midi": 72,
          "name": "C5",
          "ticks": 18898,
          "time": 24.606770833333332,
          "velocity": 0.08661417322834646
        },
        {
          "duration": 0.5013020833333357,
          "durationTicks": 385,
          "midi": 77,
          "name": "F5",
          "ticks": 18961,
          "time": 24.688802083333332,
          "velocity": 0.15748031496062992
        },
        {
          "duration": 0.125,
          "durationTicks": 96,
          "midi": 85,
          "name": "C#6",
          "ticks": 18997,
          "time": 24.735677083333332,
          "velocity": 0.10236220472440945
        },
        {
          "duration": 0.7513020833333321,
          "durationTicks": 577,
          "midi": 72,
          "name": "C5",
          "ticks": 19211,
          "time": 25.014322916666668,
          "velocity": 0.11023622047244094
        },
        {
          "duration": 0.12630208333333215,
          "durationTicks": 97,
          "midi": 85,
          "name": "C#6",
          "ticks": 19265,
          "time": 25.084635416666668,
          "velocity": 0.12598425196850394
        },
        {
          "duration": 0.125,
          "durationTicks": 96,
          "midi": 70,
          "name": "A#4",
          "ticks": 19355,
          "time": 25.201822916666668,
          "velocity": 0.11811023622047244
        },
        {
          "duration": 0.25,
          "durationTicks": 192,
          "midi": 77,
          "name": "F5",
          "ticks": 19355,
          "time": 25.201822916666668,
          "velocity": 0.11811023622047244
        },
        {
          "duration": 0.125,
          "durationTicks": 96,
          "midi": 61,
          "name": "C#4",
          "ticks": 19382,
          "time": 25.236979166666668,
          "velocity": 0.05511811023622047
        },
        {
          "duration": 0.125,
          "durationTicks": 96,
          "midi": 78,
          "name": "F#5",
          "ticks": 19525,
          "time": 25.423177083333332,
          "velocity": 0.11023622047244094
        },
        {
          "duration": 0,
          "durationTicks": 0,
          "midi": 85,
          "name": "C#6",
          "ticks": 19551,
          "time": 25.45703125,
          "velocity": 0.07086614173228346
        },
        {
          "duration": 0.10546875,
          "durationTicks": 81,
          "midi": 66,
          "name": "F#4",
          "ticks": 19569,
          "time": 25.48046875,
          "velocity": 0.08661417322834646
        },
        {
          "duration": 0.125,
          "durationTicks": 96,
          "midi": 79,
          "name": "G5",
          "ticks": 19587,
          "time": 25.50390625,
          "velocity": 0.11023622047244094
        },
        {
          "duration": 0.01953125,
          "durationTicks": 15,
          "midi": 66,
          "name": "F#4",
          "ticks": 19650,
          "time": 25.5859375,
          "velocity": 0.06299212598425197
        },
        {
          "duration": 0,
          "durationTicks": 0,
          "midi": 85,
          "name": "C#6",
          "ticks": 19828,
          "time": 25.817708333333332,
          "velocity": 0.08661417322834646
        },
        {
          "duration": 0.125,
          "durationTicks": 96,
          "midi": 72,
          "name": "C5",
          "ticks": 19828,
          "time": 25.817708333333332,
          "velocity": 0.06299212598425197
        },
        {
          "duration": 0.12369791666666785,
          "durationTicks": 95,
          "midi": 61,
          "name": "C#4",
          "ticks": 19909,
          "time": 25.923177083333332,
          "velocity": 0.05511811023622047
        },
        {
          "duration": 0.125,
          "durationTicks": 96,
          "midi": 85,
          "name": "C#6",
          "ticks": 20095,
          "time": 26.165364583333332,
          "velocity": 0.05511811023622047
        },
        {
          "duration": 0.125,
          "durationTicks": 96,
          "midi": 61,
          "name": "C#4",
          "ticks": 20533,
          "time": 26.735677083333332,
          "velocity": 0.14173228346456693
        },
        {
          "duration": 2.3828125,
          "durationTicks": 1830,
          "midi": 37,
          "name": "C#2",
          "ticks": 20533,
          "time": 26.735677083333332,
          "velocity": 0.1968503937007874
        },
        {
          "duration": 0.37630208333333215,
          "durationTicks": 289,
          "midi": 75,
          "name": "D#5",
          "ticks": 20595,
          "time": 26.81640625,
          "velocity": 0.1732283464566929
        },
        {
          "duration": 0.125,
          "durationTicks": 96,
          "midi": 65,
          "name": "F4",
          "ticks": 20604,
          "time": 26.828125,
          "velocity": 0.09448818897637795
        },
        {
          "duration": 0.12630208333333215,
          "durationTicks": 97,
          "midi": 68,
          "name": "G#4",
          "ticks": 20649,
          "time": 26.88671875,
          "velocity": 0.16535433070866143
        },
        {
          "duration": 0.125,
          "durationTicks": 96,
          "midi": 72,
          "name": "C5",
          "ticks": 20712,
          "time": 26.96875,
          "velocity": 0.14960629921259844
        },
        {
          "duration": 0.125,
          "durationTicks": 96,
          "midi": 61,
          "name": "C#4",
          "ticks": 20766,
          "time": 27.0390625,
          "velocity": 0.06299212598425197
        },
        {
          "duration": 0.37630208333333215,
          "durationTicks": 289,
          "midi": 68,
          "name": "G#4",
          "ticks": 20828,
          "time": 27.119791666666668,
          "velocity": 0.11023622047244094
        },
        {
          "duration": 0,
          "durationTicks": 0,
          "midi": 76,
          "name": "E5",
          "ticks": 20864,
          "time": 27.166666666666668,
          "velocity": 0.07874015748031496
        },
        {
          "duration": 0.125,
          "durationTicks": 96,
          "midi": 77,
          "name": "F5",
          "ticks": 20891,
          "time": 27.201822916666668,
          "velocity": 0.10236220472440945
        },
        {
          "duration": 0.125,
          "durationTicks": 96,
          "midi": 63,
          "name": "D#4",
          "ticks": 20918,
          "time": 27.236979166666668,
          "velocity": 0.07874015748031496
        },
        {
          "duration": 0.125,
          "durationTicks": 96,
          "midi": 72,
          "name": "C5",
          "ticks": 20935,
          "time": 27.259114583333332,
          "velocity": 0.08661417322834646
        },
        {
          "duration": 0.25260416666666785,
          "durationTicks": 194,
          "midi": 63,
          "name": "D#4",
          "ticks": 21061,
          "time": 27.423177083333332,
          "velocity": 0.11023622047244094
        },
        {
          "duration": 0.1263020833333357,
          "durationTicks": 97,
          "midi": 84,
          "name": "C6",
          "ticks": 21124,
          "time": 27.505208333333332,
          "velocity": 0.05511811023622047
        },
        {
          "duration": 1.12890625,
          "durationTicks": 867,
          "midi": 68,
          "name": "G#4",
          "ticks": 21160,
          "time": 27.552083333333332,
          "velocity": 0.1968503937007874
        },
        {
          "duration": 0.1263020833333357,
          "durationTicks": 97,
          "midi": 77,
          "name": "F5",
          "ticks": 21187,
          "time": 27.587239583333332,
          "velocity": 0.12598425196850394
        },
        {
          "duration": 0.2513020833333357,
          "durationTicks": 193,
          "midi": 72,
          "name": "C5",
          "ticks": 21187,
          "time": 27.587239583333332,
          "velocity": 0.11023622047244094
        },
        {
          "duration": 0.2513020833333357,
          "durationTicks": 193,
          "midi": 65,
          "name": "F4",
          "ticks": 21223,
          "time": 27.634114583333332,
          "velocity": 0.11023622047244094
        },
        {
          "duration": 0.12630208333333215,
          "durationTicks": 97,
          "midi": 75,
          "name": "D#5",
          "ticks": 21321,
          "time": 27.76171875,
          "velocity": 0.11811023622047244
        },
        {
          "duration": 0.12630208333333215,
          "durationTicks": 97,
          "midi": 65,
          "name": "F4",
          "ticks": 21384,
          "time": 27.84375,
          "velocity": 0.09448818897637795
        },
        {
          "duration": 0.125,
          "durationTicks": 96,
          "midi": 77,
          "name": "F5",
          "ticks": 21438,
          "time": 27.9140625,
          "velocity": 0.14173228346456693
        },
        {
          "duration": 0.25130208333333215,
          "durationTicks": 193,
          "midi": 63,
          "name": "D#4",
          "ticks": 21438,
          "time": 27.9140625,
          "velocity": 0.1732283464566929
        },
        {
          "duration": 0,
          "durationTicks": 0,
          "midi": 84,
          "name": "C6",
          "ticks": 21474,
          "time": 27.9609375,
          "velocity": 0.11023622047244094
        },
        {
          "duration": 0.125,
          "durationTicks": 96,
          "midi": 84,
          "name": "C6",
          "ticks": 21519,
          "time": 28.01953125,
          "velocity": 0.14173228346456693
        },
        {
          "duration": 0,
          "durationTicks": 0,
          "midi": 65,
          "name": "F4",
          "ticks": 21627,
          "time": 28.16015625,
          "velocity": 0.12598425196850394
        },
        {
          "duration": 0,
          "durationTicks": 0,
          "midi": 91,
          "name": "G6",
          "ticks": 21636,
          "time": 28.171875,
          "velocity": 0.07086614173228346
        },
        {
          "duration": 0.125,
          "durationTicks": 96,
          "midi": 77,
          "name": "F5",
          "ticks": 21636,
          "time": 28.171875,
          "velocity": 0.14960629921259844
        },
        {
          "duration": 0,
          "durationTicks": 0,
          "midi": 84,
          "name": "C6",
          "ticks": 21645,
          "time": 28.18359375,
          "velocity": 0.07086614173228346
        },
        {
          "duration": 0,
          "durationTicks": 0,
          "midi": 65,
          "name": "F4",
          "ticks": 21663,
          "time": 28.20703125,
          "velocity": 0.11811023622047244
        },
        {
          "duration": 0.125,
          "durationTicks": 96,
          "midi": 75,
          "name": "D#5",
          "ticks": 21707,
          "time": 28.264322916666668,
          "velocity": 0.18110236220472442
        },
        {
          "duration": 0.25,
          "durationTicks": 192,
          "midi": 63,
          "name": "D#4",
          "ticks": 21717,
          "time": 28.27734375,
          "velocity": 0.2047244094488189
        },
        {
          "duration": 0.25,
          "durationTicks": 192,
          "midi": 72,
          "name": "C5",
          "ticks": 21744,
          "time": 28.3125,
          "velocity": 0.1732283464566929
        },
        {
          "duration": 0.125,
          "durationTicks": 96,
          "midi": 77,
          "name": "F5",
          "ticks": 21761,
          "time": 28.334635416666668,
          "velocity": 0.15748031496062992
        },
        {
          "duration": 0,
          "durationTicks": 0,
          "midi": 84,
          "name": "C6",
          "ticks": 21788,
          "time": 28.369791666666668,
          "velocity": 0.06299212598425197
        },
        {
          "duration": 0,
          "durationTicks": 0,
          "midi": 82,
          "name": "A#5",
          "ticks": 21913,
          "time": 28.532552083333332,
          "velocity": 0.05511811023622047
        },
        {
          "duration": 0,
          "durationTicks": 0,
          "midi": 73,
          "name": "C#5",
          "ticks": 21913,
          "time": 28.532552083333332,
          "velocity": 0.18110236220472442
        },
        {
          "duration": 0.125,
          "durationTicks": 96,
          "midi": 87,
          "name": "D#6",
          "ticks": 21913,
          "time": 28.532552083333332,
          "velocity": 0.10236220472440945
        },
        {
          "duration": 0,
          "durationTicks": 0,
          "midi": 65,
          "name": "F4",
          "ticks": 21923,
          "time": 28.545572916666668,
          "velocity": 0.11023622047244094
        },
        {
          "duration": 0.125,
          "durationTicks": 96,
          "midi": 91,
          "name": "G6",
          "ticks": 21949,
          "time": 28.579427083333332,
          "velocity": 0.05511811023622047
        },
        {
          "duration": 0.125,
          "durationTicks": 96,
          "midi": 72,
          "name": "C5",
          "ticks": 21958,
          "time": 28.591145833333332,
          "velocity": 0.15748031496062992
        },
        {
          "duration": 0.12630208333333215,
          "durationTicks": 97,
          "midi": 63,
          "name": "D#4",
          "ticks": 21975,
          "time": 28.61328125,
          "velocity": 0.14173228346456693
        },
        {
          "duration": 0.25,
          "durationTicks": 192,
          "midi": 68,
          "name": "G#4",
          "ticks": 22012,
          "time": 28.661458333333332,
          "velocity": 0.1968503937007874
        },
        {
          "duration": 0.125,
          "durationTicks": 96,
          "midi": 84,
          "name": "C6",
          "ticks": 22065,
          "time": 28.73046875,
          "velocity": 0.1732283464566929
        },
        {
          "duration": 0,
          "durationTicks": 0,
          "midi": 65,
          "name": "F4",
          "ticks": 22110,
          "time": 28.7890625,
          "velocity": 0.05511811023622047
        },
        {
          "duration": 0,
          "durationTicks": 0,
          "midi": 91,
          "name": "G6",
          "ticks": 22154,
          "time": 28.846354166666668,
          "velocity": 0.06299212598425197
        },
        {
          "duration": 0.125,
          "durationTicks": 96,
          "midi": 72,
          "name": "C5",
          "ticks": 22154,
          "time": 28.846354166666668,
          "velocity": 0.08661417322834646
        },
        {
          "duration": 0.125,
          "durationTicks": 96,
          "midi": 63,
          "name": "D#4",
          "ticks": 22164,
          "time": 28.859375,
          "velocity": 0.1889763779527559
        },
        {
          "duration": 0,
          "durationTicks": 0,
          "midi": 82,
          "name": "A#5",
          "ticks": 22191,
          "time": 28.89453125,
          "velocity": 0.05511811023622047
        },
        {
          "duration": 0.12630208333333215,
          "durationTicks": 97,
          "midi": 65,
          "name": "F4",
          "ticks": 22217,
          "time": 28.928385416666668,
          "velocity": 0.15748031496062992
        },
        {
          "duration": 0,
          "durationTicks": 0,
          "midi": 75,
          "name": "D#5",
          "ticks": 22226,
          "time": 28.940104166666668,
          "velocity": 0.05511811023622047
        },
        {
          "duration": 0.25130208333333215,
          "durationTicks": 193,
          "midi": 68,
          "name": "G#4",
          "ticks": 22271,
          "time": 28.998697916666668,
          "velocity": 0.18110236220472442
        },
        {
          "duration": 0.25130208333333215,
          "durationTicks": 193,
          "midi": 63,
          "name": "D#4",
          "ticks": 22289,
          "time": 29.022135416666668,
          "velocity": 0.14960629921259844
        },
        {
          "duration": 0,
          "durationTicks": 0,
          "midi": 84,
          "name": "C6",
          "ticks": 22307,
          "time": 29.045572916666668,
          "velocity": 0.08661417322834646
        },
        {
          "duration": 0.12630208333333215,
          "durationTicks": 97,
          "midi": 72,
          "name": "C5",
          "ticks": 22334,
          "time": 29.080729166666668,
          "velocity": 0.1889763779527559
        },
        {
          "duration": 0,
          "durationTicks": 0,
          "midi": 82,
          "name": "A#5",
          "ticks": 22397,
          "time": 29.162760416666668,
          "velocity": 0.05511811023622047
        },
        {
          "duration": 0,
          "durationTicks": 0,
          "midi": 73,
          "name": "C#5",
          "ticks": 22406,
          "time": 29.174479166666668,
          "velocity": 0.14173228346456693
        },
        {
          "duration": 0.125,
          "durationTicks": 96,
          "midi": 72,
          "name": "C5",
          "ticks": 22433,
          "time": 29.209635416666668,
          "velocity": 0.1732283464566929
        },
        {
          "duration": 0,
          "durationTicks": 0,
          "midi": 40,
          "name": "E2",
          "ticks": 22442,
          "time": 29.221354166666668,
          "velocity": 0.14960629921259844
        },
        {
          "duration": 0,
          "durationTicks": 0,
          "midi": 41,
          "name": "F2",
          "ticks": 22469,
          "time": 29.256510416666668,
          "velocity": 0.14960629921259844
        },
        {
          "duration": 0.125,
          "durationTicks": 96,
          "midi": 75,
          "name": "D#5",
          "ticks": 22469,
          "time": 29.256510416666668,
          "velocity": 0.12598425196850394
        },
        {
          "duration": 0,
          "durationTicks": 0,
          "midi": 43,
          "name": "G2",
          "ticks": 22504,
          "time": 29.302083333333332,
          "velocity": 0.13385826771653545
        },
        {
          "duration": 0.1263020833333357,
          "durationTicks": 97,
          "midi": 77,
          "name": "F5",
          "ticks": 22531,
          "time": 29.337239583333332,
          "velocity": 0.12598425196850394
        },
        {
          "duration": 0,
          "durationTicks": 0,
          "midi": 72,
          "name": "C5",
          "ticks": 22567,
          "time": 29.384114583333332,
          "velocity": 0.05511811023622047
        },
        {
          "duration": 2.130208333333332,
          "durationTicks": 1636,
          "midi": 46,
          "name": "A#2",
          "ticks": 22577,
          "time": 29.397135416666668,
          "velocity": 0.14173228346456693
        },
        {
          "duration": 0,
          "durationTicks": 0,
          "midi": 60,
          "name": "C4",
          "ticks": 22586,
          "time": 29.408854166666668,
          "velocity": 0.14173228346456693
        },
        {
          "duration": 0.375,
          "durationTicks": 288,
          "midi": 80,
          "name": "G#5",
          "ticks": 22604,
          "time": 29.432291666666668,
          "velocity": 0.14960629921259844
        },
        {
          "duration": 0.12369791666666785,
          "durationTicks": 95,
          "midi": 61,
          "name": "C#4",
          "ticks": 22648,
          "time": 29.489583333333332,
          "velocity": 0.2125984251968504
        },
        {
          "duration": 0.125,
          "durationTicks": 96,
          "midi": 84,
          "name": "C6",
          "ticks": 22666,
          "time": 29.513020833333332,
          "velocity": 0.12598425196850394
        },
        {
          "duration": 0.37630208333333215,
          "durationTicks": 289,
          "midi": 65,
          "name": "F4",
          "ticks": 22683,
          "time": 29.53515625,
          "velocity": 0.18110236220472442
        },
        {
          "duration": 0.25130208333333215,
          "durationTicks": 193,
          "midi": 61,
          "name": "C#4",
          "ticks": 22755,
          "time": 29.62890625,
          "velocity": 0.11811023622047244
        },
        {
          "duration": 0.25130208333333215,
          "durationTicks": 193,
          "midi": 68,
          "name": "G#4",
          "ticks": 22791,
          "time": 29.67578125,
          "velocity": 0.10236220472440945
        },
        {
          "duration": 0.25130208333333215,
          "durationTicks": 193,
          "midi": 72,
          "name": "C5",
          "ticks": 22835,
          "time": 29.733072916666668,
          "velocity": 0.14960629921259844
        },
        {
          "duration": 0.12630208333333215,
          "durationTicks": 97,
          "midi": 79,
          "name": "G5",
          "ticks": 22880,
          "time": 29.791666666666668,
          "velocity": 0.10236220472440945
        },
        {
          "duration": 0,
          "durationTicks": 0,
          "midi": 78,
          "name": "F#5",
          "ticks": 22943,
          "time": 29.873697916666668,
          "velocity": 0.11023622047244094
        },
        {
          "duration": 0,
          "durationTicks": 0,
          "midi": 61,
          "name": "C#4",
          "ticks": 22997,
          "time": 29.944010416666668,
          "velocity": 0.14173228346456693
        },
        {
          "duration": 0,
          "durationTicks": 0,
          "midi": 61,
          "name": "C#4",
          "ticks": 23041,
          "time": 30.001302083333332,
          "velocity": 0.11811023622047244
        },
        {
          "duration": 1.00390625,
          "durationTicks": 771,
          "midi": 65,
          "name": "F4",
          "ticks": 23051,
          "time": 30.014322916666668,
          "velocity": 0.16535433070866143
        },
        {
          "duration": 0.12630208333333215,
          "durationTicks": 97,
          "midi": 68,
          "name": "G#4",
          "ticks": 23078,
          "time": 30.049479166666668,
          "velocity": 0.07086614173228346
        },
        {
          "duration": 0,
          "durationTicks": 0,
          "midi": 61,
          "name": "C#4",
          "ticks": 23095,
          "time": 30.071614583333332,
          "velocity": 0.11811023622047244
        },
        {
          "duration": 0.12630208333333215,
          "durationTicks": 97,
          "midi": 72,
          "name": "C5",
          "ticks": 23105,
          "time": 30.084635416666668,
          "velocity": 0.07086614173228346
        },
        {
          "duration": 0.12630208333333215,
          "durationTicks": 97,
          "midi": 84,
          "name": "C6",
          "ticks": 23105,
          "time": 30.084635416666668,
          "velocity": 0.11023622047244094
        },
        {
          "duration": 0.12630208333333215,
          "durationTicks": 97,
          "midi": 61,
          "name": "C#4",
          "ticks": 23141,
          "time": 30.131510416666668,
          "velocity": 0.14173228346456693
        },
        {
          "duration": 0,
          "durationTicks": 0,
          "midi": 61,
          "name": "C#4",
          "ticks": 23240,
          "time": 30.260416666666668,
          "velocity": 0.15748031496062992
        },
        {
          "duration": 0,
          "durationTicks": 0,
          "midi": 61,
          "name": "C#4",
          "ticks": 23294,
          "time": 30.330729166666668,
          "velocity": 0.15748031496062992
        },
        {
          "duration": 0.125,
          "durationTicks": 96,
          "midi": 84,
          "name": "C6",
          "ticks": 23294,
          "time": 30.330729166666668,
          "velocity": 0.10236220472440945
        },
        {
          "duration": 0,
          "durationTicks": 0,
          "midi": 61,
          "name": "C#4",
          "ticks": 23338,
          "time": 30.388020833333332,
          "velocity": 0.15748031496062992
        },
        {
          "duration": 0,
          "durationTicks": 0,
          "midi": 61,
          "name": "C#4",
          "ticks": 23383,
          "time": 30.446614583333332,
          "velocity": 0.14960629921259844
        },
        {
          "duration": 0,
          "durationTicks": 0,
          "midi": 84,
          "name": "C6",
          "ticks": 23410,
          "time": 30.481770833333332,
          "velocity": 0.07086614173228346
        },
        {
          "duration": 0,
          "durationTicks": 0,
          "midi": 61,
          "name": "C#4",
          "ticks": 23437,
          "time": 30.516927083333332,
          "velocity": 0.14960629921259844
        },
        {
          "duration": 0,
          "durationTicks": 0,
          "midi": 61,
          "name": "C#4",
          "ticks": 23481,
          "time": 30.57421875,
          "velocity": 0.1732283464566929
        },
        {
          "duration": 0,
          "durationTicks": 0,
          "midi": 61,
          "name": "C#4",
          "ticks": 23535,
          "time": 30.64453125,
          "velocity": 0.1732283464566929
        },
        {
          "duration": 0,
          "durationTicks": 0,
          "midi": 61,
          "name": "C#4",
          "ticks": 23580,
          "time": 30.703125,
          "velocity": 0.18110236220472442
        },
        {
          "duration": 0,
          "durationTicks": 0,
          "midi": 61,
          "name": "C#4",
          "ticks": 23633,
          "time": 30.772135416666668,
          "velocity": 0.1732283464566929
        },
        {
          "duration": 0.12630208333333215,
          "durationTicks": 97,
          "midi": 72,
          "name": "C5",
          "ticks": 23643,
          "time": 30.78515625,
          "velocity": 0.07086614173228346
        },
        {
          "duration": 0,
          "durationTicks": 0,
          "midi": 61,
          "name": "C#4",
          "ticks": 23679,
          "time": 30.83203125,
          "velocity": 0.15748031496062992
        },
        {
          "duration": 0,
          "durationTicks": 0,
          "midi": 61,
          "name": "C#4",
          "ticks": 23733,
          "time": 30.90234375,
          "velocity": 0.14173228346456693
        },
        {
          "duration": 0.125,
          "durationTicks": 96,
          "midi": 68,
          "name": "G#4",
          "ticks": 23742,
          "time": 30.9140625,
          "velocity": 0.05511811023622047
        },
        {
          "duration": 0,
          "durationTicks": 0,
          "midi": 84,
          "name": "C6",
          "ticks": 23760,
          "time": 30.9375,
          "velocity": 0.06299212598425197
        },
        {
          "duration": 0,
          "durationTicks": 0,
          "midi": 61,
          "name": "C#4",
          "ticks": 23777,
          "time": 30.959635416666668,
          "velocity": 0.14960629921259844
        },
        {
          "duration": 0.375,
          "durationTicks": 288,
          "midi": 77,
          "name": "F5",
          "ticks": 23795,
          "time": 30.983072916666668,
          "velocity": 0.09448818897637795
        },
        {
          "duration": 0,
          "durationTicks": 0,
          "midi": 61,
          "name": "C#4",
          "ticks": 23831,
          "time": 31.029947916666668,
          "velocity": 0.15748031496062992
        },
        {
          "duration": 0.1041666666666643,
          "durationTicks": 80,
          "midi": 84,
          "name": "C6",
          "ticks": 23840,
          "time": 31.041666666666668,
          "velocity": 0.05511811023622047
        },
        {
          "duration": 0.5,
          "durationTicks": 384,
          "midi": 65,
          "name": "F4",
          "ticks": 23840,
          "time": 31.041666666666668,
          "velocity": 0.11023622047244094
        },
        {
          "duration": 0,
          "durationTicks": 0,
          "midi": 61,
          "name": "C#4",
          "ticks": 23876,
          "time": 31.088541666666668,
          "velocity": 0.14960629921259844
        },
        {
          "duration": 0.01953125,
          "durationTicks": 15,
          "midi": 84,
          "name": "C6",
          "ticks": 23920,
          "time": 31.145833333333332,
          "velocity": 0.05511811023622047
        },
        {
          "duration": 0,
          "durationTicks": 0,
          "midi": 61,
          "name": "C#4",
          "ticks": 23920,
          "time": 31.145833333333332,
          "velocity": 0.14173228346456693
        },
        {
          "duration": 0,
          "durationTicks": 0,
          "midi": 61,
          "name": "C#4",
          "ticks": 23973,
          "time": 31.21484375,
          "velocity": 0.14173228346456693
        },
        {
          "duration": 0,
          "durationTicks": 0,
          "midi": 61,
          "name": "C#4",
          "ticks": 24017,
          "time": 31.272135416666668,
          "velocity": 0.11811023622047244
        },
        {
          "duration": 0,
          "durationTicks": 0,
          "midi": 61,
          "name": "C#4",
          "ticks": 24071,
          "time": 31.342447916666668,
          "velocity": 0.12598425196850394
        },
        {
          "duration": 0,
          "durationTicks": 0,
          "midi": 61,
          "name": "C#4",
          "ticks": 24117,
          "time": 31.40234375,
          "velocity": 0.11023622047244094
        },
        {
          "duration": 0,
          "durationTicks": 0,
          "midi": 61,
          "name": "C#4",
          "ticks": 24170,
          "time": 31.471354166666668,
          "velocity": 0.11023622047244094
        },
        {
          "duration": 0,
          "durationTicks": 0,
          "midi": 61,
          "name": "C#4",
          "ticks": 24215,
          "time": 31.529947916666668,
          "velocity": 0.09448818897637795
        },
        {
          "duration": 0,
          "durationTicks": 0,
          "midi": 61,
          "name": "C#4",
          "ticks": 24269,
          "time": 31.600260416666668,
          "velocity": 0.09448818897637795
        },
        {
          "duration": 0,
          "durationTicks": 0,
          "midi": 61,
          "name": "C#4",
          "ticks": 24313,
          "time": 31.657552083333332,
          "velocity": 0.07874015748031496
        },
        {
          "duration": 0,
          "durationTicks": 0,
          "midi": 61,
          "name": "C#4",
          "ticks": 24367,
          "time": 31.727864583333332,
          "velocity": 0.07874015748031496
        },
        {
          "duration": 0.125,
          "durationTicks": 96,
          "midi": 77,
          "name": "F5",
          "ticks": 24456,
          "time": 31.84375,
          "velocity": 0.07874015748031496
        },
        {
          "duration": 0.125,
          "durationTicks": 96,
          "midi": 58,
          "name": "A#3",
          "ticks": 24644,
          "time": 32.088541666666664,
          "velocity": 0.14960629921259844
        },
        {
          "duration": 0.125,
          "durationTicks": 96,
          "midi": 59,
          "name": "B3",
          "ticks": 24724,
          "time": 32.192708333333336,
          "velocity": 0.14960629921259844
        },
        {
          "duration": 0,
          "durationTicks": 0,
          "midi": 66,
          "name": "F#4",
          "ticks": 24769,
          "time": 32.251302083333336,
          "velocity": 0.07874015748031496
        },
        {
          "duration": 0.125,
          "durationTicks": 96,
          "midi": 63,
          "name": "D#4",
          "ticks": 24778,
          "time": 32.263020833333336,
          "velocity": 0.13385826771653545
        },
        {
          "duration": 0.125,
          "durationTicks": 96,
          "midi": 66,
          "name": "F#4",
          "ticks": 24840,
          "time": 32.34375,
          "velocity": 0.16535433070866143
        },
        {
          "duration": 0.2513020833333357,
          "durationTicks": 193,
          "midi": 70,
          "name": "A#4",
          "ticks": 24894,
          "time": 32.4140625,
          "velocity": 0.11811023622047244
        },
        {
          "duration": 0,
          "durationTicks": 0,
          "midi": 59,
          "name": "B3",
          "ticks": 24948,
          "time": 32.484375,
          "velocity": 0.08661417322834646
        },
        {
          "duration": 0.2513020833333357,
          "durationTicks": 193,
          "midi": 66,
          "name": "F#4",
          "ticks": 24957,
          "time": 32.49609375,
          "velocity": 0.14960629921259844
        },
        {
          "duration": 1.87890625,
          "durationTicks": 1443,
          "midi": 47,
          "name": "B2",
          "ticks": 25029,
          "time": 32.58984375,
          "velocity": 0.18110236220472442
        },
        {
          "duration": 2.1315104166666643,
          "durationTicks": 1637,
          "midi": 75,
          "name": "D#5",
          "ticks": 25092,
          "time": 32.671875,
          "velocity": 0.18110236220472442
        },
        {
          "duration": 0.125,
          "durationTicks": 96,
          "midi": 70,
          "name": "A#4",
          "ticks": 25101,
          "time": 32.68359375,
          "velocity": 0.11811023622047244
        },
        {
          "duration": 0.2513020833333357,
          "durationTicks": 193,
          "midi": 70,
          "name": "A#4",
          "ticks": 25253,
          "time": 32.881510416666664,
          "velocity": 0.08661417322834646
        },
        {
          "duration": 0,
          "durationTicks": 0,
          "midi": 66,
          "name": "F#4",
          "ticks": 25361,
          "time": 33.022135416666664,
          "velocity": 0.11023622047244094
        },
        {
          "duration": 0.125,
          "durationTicks": 96,
          "midi": 66,
          "name": "F#4",
          "ticks": 25397,
          "time": 33.069010416666664,
          "velocity": 0.1889763779527559
        },
        {
          "duration": 0.125,
          "durationTicks": 96,
          "midi": 70,
          "name": "A#4",
          "ticks": 25451,
          "time": 33.139322916666664,
          "velocity": 0.11023622047244094
        },
        {
          "duration": 0,
          "durationTicks": 0,
          "midi": 66,
          "name": "F#4",
          "ticks": 25513,
          "time": 33.220052083333336,
          "velocity": 0.1732283464566929
        },
        {
          "duration": 0.125,
          "durationTicks": 96,
          "midi": 66,
          "name": "F#4",
          "ticks": 25549,
          "time": 33.266927083333336,
          "velocity": 0.16535433070866143
        },
        {
          "duration": 0.125,
          "durationTicks": 96,
          "midi": 70,
          "name": "A#4",
          "ticks": 25594,
          "time": 33.325520833333336,
          "velocity": 0.13385826771653545
        },
        {
          "duration": 0.09375,
          "durationTicks": 72,
          "midi": 66,
          "name": "F#4",
          "ticks": 25620,
          "time": 33.359375,
          "velocity": 0.18110236220472442
        },
        {
          "duration": 0.03125,
          "durationTicks": 24,
          "midi": 66,
          "name": "F#4",
          "ticks": 25692,
          "time": 33.453125,
          "velocity": 0.1968503937007874
        },
        {
          "duration": 0.3763020833333357,
          "durationTicks": 289,
          "midi": 70,
          "name": "A#4",
          "ticks": 25719,
          "time": 33.48828125,
          "velocity": 0.13385826771653545
        },
        {
          "duration": 0.125,
          "durationTicks": 96,
          "midi": 66,
          "name": "F#4",
          "ticks": 25728,
          "time": 33.5,
          "velocity": 0.1968503937007874
        },
        {
          "duration": 0.1263020833333357,
          "durationTicks": 97,
          "midi": 85,
          "name": "C#6",
          "ticks": 25800,
          "time": 33.59375,
          "velocity": 0.08661417322834646
        },
        {
          "duration": 0,
          "durationTicks": 0,
          "midi": 65,
          "name": "F4",
          "ticks": 25853,
          "time": 33.662760416666664,
          "velocity": 0.14173228346456693
        },
        {
          "duration": 0,
          "durationTicks": 0,
          "midi": 66,
          "name": "F#4",
          "ticks": 25880,
          "time": 33.697916666666664,
          "velocity": 0.1732283464566929
        },
        {
          "duration": 0,
          "durationTicks": 0,
          "midi": 63,
          "name": "D#4",
          "ticks": 25890,
          "time": 33.7109375,
          "velocity": 0.09448818897637795
        },
        {
          "duration": 0,
          "durationTicks": 0,
          "midi": 66,
          "name": "F#4",
          "ticks": 25916,
          "time": 33.744791666666664,
          "velocity": 0.1968503937007874
        },
        {
          "duration": 0,
          "durationTicks": 0,
          "midi": 66,
          "name": "F#4",
          "ticks": 25952,
          "time": 33.791666666666664,
          "velocity": 0.16535433070866143
        },
        {
          "duration": 0,
          "durationTicks": 0,
          "midi": 66,
          "name": "F#4",
          "ticks": 25988,
          "time": 33.838541666666664,
          "velocity": 0.1889763779527559
        },
        {
          "duration": 0.1236979166666714,
          "durationTicks": 95,
          "midi": 70,
          "name": "A#4",
          "ticks": 25988,
          "time": 33.838541666666664,
          "velocity": 0.1732283464566929
        },
        {
          "duration": 0.25,
          "durationTicks": 192,
          "midi": 66,
          "name": "F#4",
          "ticks": 26023,
          "time": 33.884114583333336,
          "velocity": 0.2125984251968504
        },
        {
          "duration": 0,
          "durationTicks": 0,
          "midi": 85,
          "name": "C#6",
          "ticks": 26094,
          "time": 33.9765625,
          "velocity": 0.07086614173228346
        },
        {
          "duration": 0.125,
          "durationTicks": 96,
          "midi": 70,
          "name": "A#4",
          "ticks": 26148,
          "time": 34.046875,
          "velocity": 0.14960629921259844
        },
        {
          "duration": 0,
          "durationTicks": 0,
          "midi": 66,
          "name": "F#4",
          "ticks": 26247,
          "time": 34.17578125,
          "velocity": 0.1968503937007874
        },
        {
          "duration": 0.125,
          "durationTicks": 96,
          "midi": 70,
          "name": "A#4",
          "ticks": 26291,
          "time": 34.233072916666664,
          "velocity": 0.15748031496062992
        },
        {
          "duration": 0,
          "durationTicks": 0,
          "midi": 66,
          "name": "F#4",
          "ticks": 26318,
          "time": 34.268229166666664,
          "velocity": 0.1732283464566929
        },
        {
          "duration": 0,
          "durationTicks": 0,
          "midi": 66,
          "name": "F#4",
          "ticks": 26354,
          "time": 34.315104166666664,
          "velocity": 0.1889763779527559
        },
        {
          "duration": 0,
          "durationTicks": 0,
          "midi": 85,
          "name": "C#6",
          "ticks": 26372,
          "time": 34.338541666666664,
          "velocity": 0.08661417322834646
        },
        {
          "duration": 0,
          "durationTicks": 0,
          "midi": 66,
          "name": "F#4",
          "ticks": 26389,
          "time": 34.360677083333336,
          "velocity": 0.2047244094488189
        },
        {
          "duration": 0.125,
          "durationTicks": 96,
          "midi": 70,
          "name": "A#4",
          "ticks": 26407,
          "time": 34.384114583333336,
          "velocity": 0.16535433070866143
        },
        {
          "duration": 0.125,
          "durationTicks": 96,
          "midi": 66,
          "name": "F#4",
          "ticks": 26425,
          "time": 34.407552083333336,
          "velocity": 0.25196850393700787
        },
        {
          "duration": 0,
          "durationTicks": 0,
          "midi": 94,
          "name": "A#6",
          "ticks": 26478,
          "time": 34.4765625,
          "velocity": 0.05511811023622047
        },
        {
          "duration": 0,
          "durationTicks": 0,
          "midi": 43,
          "name": "G2",
          "ticks": 26488,
          "time": 34.489583333333336,
          "velocity": 0.1732283464566929
        },
        {
          "duration": 0,
          "durationTicks": 0,
          "midi": 40,
          "name": "E2",
          "ticks": 26532,
          "time": 34.546875,
          "velocity": 0.1889763779527559
        },
        {
          "duration": 0,
          "durationTicks": 0,
          "midi": 66,
          "name": "F#4",
          "ticks": 26542,
          "time": 34.559895833333336,
          "velocity": 0.2283464566929134
        },
        {
          "duration": 0.125,
          "durationTicks": 96,
          "midi": 70,
          "name": "A#4",
          "ticks": 26542,
          "time": 34.559895833333336,
          "velocity": 0.18110236220472442
        },
        {
          "duration": 0,
          "durationTicks": 0,
          "midi": 38,
          "name": "D2",
          "ticks": 26559,
          "time": 34.58203125,
          "velocity": 0.1889763779527559
        },
        {
          "duration": 0.09375,
          "durationTicks": 72,
          "midi": 66,
          "name": "F#4",
          "ticks": 26613,
          "time": 34.65234375,
          "velocity": 0.2283464566929134
        },
        {
          "duration": 0,
          "durationTicks": 0,
          "midi": 33,
          "name": "A1",
          "ticks": 26622,
          "time": 34.6640625,
          "velocity": 0.18110236220472442
        },
        {
          "duration": 0.1276041666666643,
          "durationTicks": 98,
          "midi": 85,
          "name": "C#6",
          "ticks": 26649,
          "time": 34.69921875,
          "velocity": 0.11023622047244094
        },
        {
          "duration": 0,
          "durationTicks": 0,
          "midi": 31,
          "name": "G1",
          "ticks": 26659,
          "time": 34.712239583333336,
          "velocity": 0.1968503937007874
        },
        {
          "duration": 0.0338541666666643,
          "durationTicks": 26,
          "midi": 66,
          "name": "F#4",
          "ticks": 26685,
          "time": 34.74609375,
          "velocity": 0.2283464566929134
        },
        {
          "duration": 0.1276041666666643,
          "durationTicks": 98,
          "midi": 59,
          "name": "B3",
          "ticks": 26695,
          "time": 34.759114583333336,
          "velocity": 0.14173228346456693
        },
        {
          "duration": 0.25390625,
          "durationTicks": 195,
          "midi": 70,
          "name": "A#4",
          "ticks": 26695,
          "time": 34.759114583333336,
          "velocity": 0.2283464566929134
        },
        {
          "duration": 0,
          "durationTicks": 0,
          "midi": 65,
          "name": "F4",
          "ticks": 26704,
          "time": 34.770833333333336,
          "velocity": 0.2440944881889764
        },
        {
          "duration": 2.6302083333333286,
          "durationTicks": 2020,
          "midi": 37,
          "name": "C#2",
          "ticks": 26713,
          "time": 34.782552083333336,
          "velocity": 0.1968503937007874
        },
        {
          "duration": 0.1276041666666643,
          "durationTicks": 98,
          "midi": 74,
          "name": "D5",
          "ticks": 26740,
          "time": 34.817708333333336,
          "velocity": 0.15748031496062992
        },
        {
          "duration": 0,
          "durationTicks": 0,
          "midi": 65,
          "name": "F4",
          "ticks": 26759,
          "time": 34.842447916666664,
          "velocity": 0.2440944881889764
        },
        {
          "duration": 0,
          "durationTicks": 0,
          "midi": 64,
          "name": "E4",
          "ticks": 26786,
          "time": 34.877604166666664,
          "velocity": 0.18110236220472442
        },
        {
          "duration": 1.2513020833333357,
          "durationTicks": 961,
          "midi": 73,
          "name": "C#5",
          "ticks": 26795,
          "time": 34.889322916666664,
          "velocity": 0.14960629921259844
        },
        {
          "duration": 0.1263020833333357,
          "durationTicks": 97,
          "midi": 65,
          "name": "F4",
          "ticks": 26804,
          "time": 34.901041666666664,
          "velocity": 0.1889763779527559
        },
        {
          "duration": 0.5013020833333357,
          "durationTicks": 385,
          "midi": 65,
          "name": "F4",
          "ticks": 26885,
          "time": 35.006510416666664,
          "velocity": 0.2047244094488189
        },
        {
          "duration": 0.1263020833333357,
          "durationTicks": 97,
          "midi": 70,
          "name": "A#4",
          "ticks": 26894,
          "time": 35.018229166666664,
          "velocity": 0.1889763779527559
        },
        {
          "duration": 0,
          "durationTicks": 0,
          "midi": 84,
          "name": "C6",
          "ticks": 26931,
          "time": 35.06640625,
          "velocity": 0.05511811023622047
        },
        {
          "duration": 0.125,
          "durationTicks": 96,
          "midi": 70,
          "name": "A#4",
          "ticks": 26967,
          "time": 35.11328125,
          "velocity": 0.1968503937007874
        },
        {
          "duration": 0.1236979166666643,
          "durationTicks": 95,
          "midi": 89,
          "name": "F6",
          "ticks": 27021,
          "time": 35.18359375,
          "velocity": 0.06299212598425197
        },
        {
          "duration": 0.125,
          "durationTicks": 96,
          "midi": 70,
          "name": "A#4",
          "ticks": 27100,
          "time": 35.286458333333336,
          "velocity": 0.11811023622047244
        },
        {
          "duration": 0,
          "durationTicks": 0,
          "midi": 84,
          "name": "C6",
          "ticks": 27162,
          "time": 35.3671875,
          "velocity": 0.06299212598425197
        },
        {
          "duration": 0.125,
          "durationTicks": 96,
          "midi": 89,
          "name": "F6",
          "ticks": 27216,
          "time": 35.4375,
          "velocity": 0.05511811023622047
        },
        {
          "duration": 0.25,
          "durationTicks": 192,
          "midi": 70,
          "name": "A#4",
          "ticks": 27234,
          "time": 35.4609375,
          "velocity": 0.1732283464566929
        },
        {
          "duration": 0.125,
          "durationTicks": 96,
          "midi": 65,
          "name": "F4",
          "ticks": 27243,
          "time": 35.47265625,
          "velocity": 0.14173228346456693
        },
        {
          "duration": 0,
          "durationTicks": 0,
          "midi": 63,
          "name": "D#4",
          "ticks": 27297,
          "time": 35.54296875,
          "velocity": 0.08661417322834646
        },
        {
          "duration": 0.375,
          "durationTicks": 288,
          "midi": 65,
          "name": "F4",
          "ticks": 27315,
          "time": 35.56640625,
          "velocity": 0.1732283464566929
        },
        {
          "duration": 0.125,
          "durationTicks": 96,
          "midi": 70,
          "name": "A#4",
          "ticks": 27475,
          "time": 35.774739583333336,
          "velocity": 0.2047244094488189
        },
        {
          "duration": 0.125,
          "durationTicks": 96,
          "midi": 63,
          "name": "D#4",
          "ticks": 27573,
          "time": 35.90234375,
          "velocity": 0.14173228346456693
        },
        {
          "duration": 0.375,
          "durationTicks": 288,
          "midi": 70,
          "name": "A#4",
          "ticks": 27618,
          "time": 35.9609375,
          "velocity": 0.1889763779527559
        },
        {
          "duration": 0.25,
          "durationTicks": 192,
          "midi": 65,
          "name": "F4",
          "ticks": 27662,
          "time": 36.018229166666664,
          "velocity": 0.1968503937007874
        },
        {
          "duration": 0,
          "durationTicks": 0,
          "midi": 72,
          "name": "C5",
          "ticks": 27788,
          "time": 36.182291666666664,
          "velocity": 0.08661417322834646
        },
        {
          "duration": 0.125,
          "durationTicks": 96,
          "midi": 63,
          "name": "D#4",
          "ticks": 27832,
          "time": 36.239583333333336,
          "velocity": 0.14960629921259844
        },
        {
          "duration": 0,
          "durationTicks": 0,
          "midi": 70,
          "name": "A#4",
          "ticks": 27948,
          "time": 36.390625,
          "velocity": 0.14173228346456693
        },
        {
          "duration": 0.25,
          "durationTicks": 192,
          "midi": 65,
          "name": "F4",
          "ticks": 27948,
          "time": 36.390625,
          "velocity": 0.13385826771653545
        },
        {
          "duration": 0.125,
          "durationTicks": 96,
          "midi": 69,
          "name": "A4",
          "ticks": 27957,
          "time": 36.40234375,
          "velocity": 0.11023622047244094
        },
        {
          "duration": 0,
          "durationTicks": 0,
          "midi": 68,
          "name": "G#4",
          "ticks": 28019,
          "time": 36.483072916666664,
          "velocity": 0.05511811023622047
        },
        {
          "duration": 0.125,
          "durationTicks": 96,
          "midi": 70,
          "name": "A#4",
          "ticks": 28029,
          "time": 36.49609375,
          "velocity": 0.14173228346456693
        },
        {
          "duration": 0,
          "durationTicks": 0,
          "midi": 68,
          "name": "G#4",
          "ticks": 28073,
          "time": 36.553385416666664,
          "velocity": 0.05511811023622047
        },
        {
          "duration": 0.25,
          "durationTicks": 192,
          "midi": 65,
          "name": "F4",
          "ticks": 28162,
          "time": 36.669270833333336,
          "velocity": 0.11811023622047244
        },
        {
          "duration": 0.125,
          "durationTicks": 96,
          "midi": 70,
          "name": "A#4",
          "ticks": 28189,
          "time": 36.704427083333336,
          "velocity": 0.12598425196850394
        },
        {
          "duration": 0.125,
          "durationTicks": 96,
          "midi": 63,
          "name": "D#4",
          "ticks": 28359,
          "time": 36.92578125,
          "velocity": 0.08661417322834646
        },
        {
          "duration": 0.1263020833333357,
          "durationTicks": 97,
          "midi": 70,
          "name": "A#4",
          "ticks": 28467,
          "time": 37.06640625,
          "velocity": 0.07086614173228346
        },
        {
          "duration": 0,
          "durationTicks": 0,
          "midi": 63,
          "name": "D#4",
          "ticks": 28476,
          "time": 37.078125,
          "velocity": 0.08661417322834646
        },
        {
          "duration": 0.125,
          "durationTicks": 96,
          "midi": 65,
          "name": "F4",
          "ticks": 28512,
          "time": 37.125,
          "velocity": 0.09448818897637795
        },
        {
          "duration": 0,
          "durationTicks": 0,
          "midi": 63,
          "name": "D#4",
          "ticks": 28736,
          "time": 37.416666666666664,
          "velocity": 0.06299212598425197
        },
        {
          "duration": 0.125,
          "durationTicks": 96,
          "midi": 54,
          "name": "F#3",
          "ticks": 28763,
          "time": 37.451822916666664,
          "velocity": 0.14173228346456693
        },
        {
          "duration": 3.1276041666666714,
          "durationTicks": 2402,
          "midi": 73,
          "name": "C#5",
          "ticks": 28763,
          "time": 37.451822916666664,
          "velocity": 0.1889763779527559
        },
        {
          "duration": 2.6276041666666714,
          "durationTicks": 2018,
          "midi": 42,
          "name": "F#2",
          "ticks": 28772,
          "time": 37.463541666666664,
          "velocity": 0.1889763779527559
        },
        {
          "duration": 0.125,
          "durationTicks": 96,
          "midi": 65,
          "name": "F4",
          "ticks": 28816,
          "time": 37.520833333333336,
          "velocity": 0.05511811023622047
        },
        {
          "duration": 0.125,
          "durationTicks": 96,
          "midi": 58,
          "name": "A#3",
          "ticks": 28816,
          "time": 37.520833333333336,
          "velocity": 0.14960629921259844
        },
        {
          "duration": 0.8763020833333286,
          "durationTicks": 673,
          "midi": 61,
          "name": "C#4",
          "ticks": 28879,
          "time": 37.602864583333336,
          "velocity": 0.1968503937007874
        },
        {
          "duration": 0,
          "durationTicks": 0,
          "midi": 70,
          "name": "A#4",
          "ticks": 28888,
          "time": 37.614583333333336,
          "velocity": 0.05511811023622047
        },
        {
          "duration": 0.6263020833333357,
          "durationTicks": 481,
          "midi": 65,
          "name": "F4",
          "ticks": 28932,
          "time": 37.671875,
          "velocity": 0.1732283464566929
        },
        {
          "duration": 0,
          "durationTicks": 0,
          "midi": 80,
          "name": "G#5",
          "ticks": 28959,
          "time": 37.70703125,
          "velocity": 0.05511811023622047
        },
        {
          "duration": 0.125,
          "durationTicks": 96,
          "midi": 68,
          "name": "G#4",
          "ticks": 29013,
          "time": 37.77734375,
          "velocity": 0.13385826771653545
        },
        {
          "duration": 0,
          "durationTicks": 0,
          "midi": 70,
          "name": "A#4",
          "ticks": 29173,
          "time": 37.985677083333336,
          "velocity": 0.05511811023622047
        },
        {
          "duration": 0,
          "durationTicks": 0,
          "midi": 80,
          "name": "G#5",
          "ticks": 29254,
          "time": 38.091145833333336,
          "velocity": 0.05511811023622047
        },
        {
          "duration": 0.125,
          "durationTicks": 96,
          "midi": 70,
          "name": "A#4",
          "ticks": 29406,
          "time": 38.2890625,
          "velocity": 0.09448818897637795
        },
        {
          "duration": 0.25,
          "durationTicks": 192,
          "midi": 65,
          "name": "F4",
          "ticks": 29567,
          "time": 38.498697916666664,
          "velocity": 0.11811023622047244
        },
        {
          "duration": 0.625,
          "durationTicks": 480,
          "midi": 70,
          "name": "A#4",
          "ticks": 29584,
          "time": 38.520833333333336,
          "velocity": 0.14960629921259844
        },
        {
          "duration": 1.8776041666666643,
          "durationTicks": 1442,
          "midi": 61,
          "name": "C#4",
          "ticks": 29710,
          "time": 38.684895833333336,
          "velocity": 0.1968503937007874
        },
        {
          "duration": 1.2513020833333357,
          "durationTicks": 961,
          "midi": 65,
          "name": "F4",
          "ticks": 29817,
          "time": 38.82421875,
          "velocity": 0.1889763779527559
        },
        {
          "duration": 0,
          "durationTicks": 0,
          "midi": 71,
          "name": "B4",
          "ticks": 30049,
          "time": 39.126302083333336,
          "velocity": 0.10236220472440945
        },
        {
          "duration": 0.2513020833333286,
          "durationTicks": 193,
          "midi": 70,
          "name": "A#4",
          "ticks": 30076,
          "time": 39.161458333333336,
          "velocity": 0.16535433070866143
        },
        {
          "duration": 0,
          "durationTicks": 0,
          "midi": 80,
          "name": "G#5",
          "ticks": 30103,
          "time": 39.196614583333336,
          "velocity": 0.06299212598425197
        },
        {
          "duration": 0,
          "durationTicks": 0,
          "midi": 80,
          "name": "G#5",
          "ticks": 30211,
          "time": 39.337239583333336,
          "velocity": 0.05511811023622047
        },
        {
          "duration": 0.125,
          "durationTicks": 96,
          "midi": 70,
          "name": "A#4",
          "ticks": 30247,
          "time": 39.384114583333336,
          "velocity": 0.14960629921259844
        },
        {
          "duration": 0,
          "durationTicks": 0,
          "midi": 80,
          "name": "G#5",
          "ticks": 30291,
          "time": 39.44140625,
          "velocity": 0.09448818897637795
        },
        {
          "duration": 0,
          "durationTicks": 0,
          "midi": 89,
          "name": "F6",
          "ticks": 30363,
          "time": 39.53515625,
          "velocity": 0.06299212598425197
        },
        {
          "duration": 0,
          "durationTicks": 0,
          "midi": 84,
          "name": "C6",
          "ticks": 30407,
          "time": 39.592447916666664,
          "velocity": 0.07874015748031496
        },
        {
          "duration": 0.5013020833333357,
          "durationTicks": 385,
          "midi": 70,
          "name": "A#4",
          "ticks": 30407,
          "time": 39.592447916666664,
          "velocity": 0.1889763779527559
        },
        {
          "duration": 0,
          "durationTicks": 0,
          "midi": 89,
          "name": "F6",
          "ticks": 30577,
          "time": 39.813802083333336,
          "velocity": 0.10236220472440945
        },
        {
          "duration": 0,
          "durationTicks": 0,
          "midi": 80,
          "name": "G#5",
          "ticks": 30621,
          "time": 39.87109375,
          "velocity": 0.10236220472440945
        },
        {
          "duration": 0,
          "durationTicks": 0,
          "midi": 89,
          "name": "F6",
          "ticks": 30631,
          "time": 39.884114583333336,
          "velocity": 0.07086614173228346
        },
        {
          "duration": 0.125,
          "durationTicks": 96,
          "midi": 80,
          "name": "G#5",
          "ticks": 30685,
          "time": 39.954427083333336,
          "velocity": 0.05511811023622047
        },
        {
          "duration": 0,
          "durationTicks": 0,
          "midi": 89,
          "name": "F6",
          "ticks": 30738,
          "time": 40.0234375,
          "velocity": 0.05511811023622047
        },
        {
          "duration": 0,
          "durationTicks": 0,
          "midi": 89,
          "name": "F6",
          "ticks": 30783,
          "time": 40.08203125,
          "velocity": 0.08661417322834646
        },
        {
          "duration": 0.125,
          "durationTicks": 96,
          "midi": 80,
          "name": "G#5",
          "ticks": 30783,
          "time": 40.08203125,
          "velocity": 0.15748031496062992
        },
        {
          "duration": 0,
          "durationTicks": 0,
          "midi": 41,
          "name": "F2",
          "ticks": 30792,
          "time": 40.09375,
          "velocity": 0.1889763779527559
        },
        {
          "duration": 0,
          "durationTicks": 0,
          "midi": 40,
          "name": "E2",
          "ticks": 30810,
          "time": 40.1171875,
          "velocity": 0.18110236220472442
        },
        {
          "duration": 0,
          "durationTicks": 0,
          "midi": 39,
          "name": "D#2",
          "ticks": 30827,
          "time": 40.139322916666664,
          "velocity": 0.18110236220472442
        },
        {
          "duration": 0.125,
          "durationTicks": 96,
          "midi": 70,
          "name": "A#4",
          "ticks": 30837,
          "time": 40.15234375,
          "velocity": 0.2204724409448819
        },
        {
          "duration": 0.375,
          "durationTicks": 288,
          "midi": 65,
          "name": "F4",
          "ticks": 30837,
          "time": 40.15234375,
          "velocity": 0.1732283464566929
        },
        {
          "duration": 0,
          "durationTicks": 0,
          "midi": 39,
          "name": "D#2",
          "ticks": 30854,
          "time": 40.174479166666664,
          "velocity": 0.18110236220472442
        },
        {
          "duration": 0,
          "durationTicks": 0,
          "midi": 38,
          "name": "D2",
          "ticks": 30872,
          "time": 40.197916666666664,
          "velocity": 0.1889763779527559
        },
        {
          "duration": 0,
          "durationTicks": 0,
          "midi": 37,
          "name": "C#2",
          "ticks": 30899,
          "time": 40.233072916666664,
          "velocity": 0.1968503937007874
        },
        {
          "duration": 0,
          "durationTicks": 0,
          "midi": 84,
          "name": "C6",
          "ticks": 30926,
          "time": 40.268229166666664,
          "velocity": 0.05511811023622047
        },
        {
          "duration": 0,
          "durationTicks": 0,
          "midi": 36,
          "name": "C2",
          "ticks": 30935,
          "time": 40.279947916666664,
          "velocity": 0.1968503937007874
        },
        {
          "duration": 0,
          "durationTicks": 0,
          "midi": 35,
          "name": "B1",
          "ticks": 30962,
          "time": 40.315104166666664,
          "velocity": 0.1968503937007874
        },
        {
          "duration": 0,
          "durationTicks": 0,
          "midi": 34,
          "name": "A#1",
          "ticks": 30980,
          "time": 40.338541666666664,
          "velocity": 0.1968503937007874
        },
        {
          "duration": 0.125,
          "durationTicks": 96,
          "midi": 70,
          "name": "A#4",
          "ticks": 30997,
          "time": 40.360677083333336,
          "velocity": 0.2047244094488189
        },
        {
          "duration": 0,
          "durationTicks": 0,
          "midi": 80,
          "name": "G#5",
          "ticks": 31015,
          "time": 40.384114583333336,
          "velocity": 0.05511811023622047
        },
        {
          "duration": 0,
          "durationTicks": 0,
          "midi": 33,
          "name": "A1",
          "ticks": 31024,
          "time": 40.395833333333336,
          "velocity": 0.1889763779527559
        },
        {
          "duration": 0,
          "durationTicks": 0,
          "midi": 32,
          "name": "G#1",
          "ticks": 31051,
          "time": 40.430989583333336,
          "velocity": 0.1968503937007874
        },
        {
          "duration": 0,
          "durationTicks": 0,
          "midi": 84,
          "name": "C6",
          "ticks": 31069,
          "time": 40.454427083333336,
          "velocity": 0.07086614173228346
        },
        {
          "duration": 0,
          "durationTicks": 0,
          "midi": 29,
          "name": "F1",
          "ticks": 31078,
          "time": 40.466145833333336,
          "velocity": 0.1968503937007874
        },
        {
          "duration": 0.125,
          "durationTicks": 96,
          "midi": 52,
          "name": "E3",
          "ticks": 31095,
          "time": 40.48828125,
          "velocity": 0.15748031496062992
        },
        {
          "duration": 0,
          "durationTicks": 0,
          "midi": 66,
          "name": "F#4",
          "ticks": 31105,
          "time": 40.501302083333336,
          "velocity": 0.15748031496062992
        },
        {
          "duration": 0,
          "durationTicks": 0,
          "midi": 89,
          "name": "F6",
          "ticks": 31105,
          "time": 40.501302083333336,
          "velocity": 0.05511811023622047
        },
        {
          "duration": 0.125,
          "durationTicks": 96,
          "midi": 70,
          "name": "A#4",
          "ticks": 31105,
          "time": 40.501302083333336,
          "velocity": 0.1732283464566929
        },
        {
          "duration": 5.255208333333329,
          "durationTicks": 4036,
          "midi": 36,
          "name": "C2",
          "ticks": 31105,
          "time": 40.501302083333336,
          "velocity": 0.2047244094488189
        },
        {
          "duration": 0,
          "durationTicks": 0,
          "midi": 62,
          "name": "D4",
          "ticks": 31122,
          "time": 40.5234375,
          "velocity": 0.1732283464566929
        },
        {
          "duration": 2.50390625,
          "durationTicks": 1923,
          "midi": 72,
          "name": "C5",
          "ticks": 31140,
          "time": 40.546875,
          "velocity": 0.1732283464566929
        },
        {
          "duration": 0.125,
          "durationTicks": 96,
          "midi": 67,
          "name": "G4",
          "ticks": 31149,
          "time": 40.55859375,
          "velocity": 0.14960629921259844
        },
        {
          "duration": 0.1263020833333357,
          "durationTicks": 97,
          "midi": 56,
          "name": "G#3",
          "ticks": 31176,
          "time": 40.59375,
          "velocity": 0.14173228346456693
        },
        {
          "duration": 0,
          "durationTicks": 0,
          "midi": 63,
          "name": "D#4",
          "ticks": 31194,
          "time": 40.6171875,
          "velocity": 0.14960629921259844
        },
        {
          "duration": 0,
          "durationTicks": 0,
          "midi": 64,
          "name": "E4",
          "ticks": 31221,
          "time": 40.65234375,
          "velocity": 0.14960629921259844
        },
        {
          "duration": 0.1276041666666643,
          "durationTicks": 98,
          "midi": 64,
          "name": "E4",
          "ticks": 31257,
          "time": 40.69921875,
          "velocity": 0.14960629921259844
        },
        {
          "duration": 0,
          "durationTicks": 0,
          "midi": 61,
          "name": "C#4",
          "ticks": 31266,
          "time": 40.7109375,
          "velocity": 0.2047244094488189
        },
        {
          "duration": 0,
          "durationTicks": 0,
          "midi": 70,
          "name": "A#4",
          "ticks": 31276,
          "time": 40.723958333333336,
          "velocity": 0.14960629921259844
        },
        {
          "duration": 0,
          "durationTicks": 0,
          "midi": 56,
          "name": "G#3",
          "ticks": 31285,
          "time": 40.735677083333336,
          "velocity": 0.05511811023622047
        },
        {
          "duration": 0.3763020833333286,
          "durationTicks": 289,
          "midi": 68,
          "name": "G#4",
          "ticks": 31294,
          "time": 40.747395833333336,
          "velocity": 0.1968503937007874
        },
        {
          "duration": 0,
          "durationTicks": 0,
          "midi": 61,
          "name": "C#4",
          "ticks": 31321,
          "time": 40.782552083333336,
          "velocity": 0.16535433070866143
        },
        {
          "duration": 0,
          "durationTicks": 0,
          "midi": 65,
          "name": "F4",
          "ticks": 31330,
          "time": 40.794270833333336,
          "velocity": 0.14960629921259844
        },
        {
          "duration": 0.125,
          "durationTicks": 96,
          "midi": 70,
          "name": "A#4",
          "ticks": 31348,
          "time": 40.817708333333336,
          "velocity": 0.15748031496062992
        },
        {
          "duration": 0,
          "durationTicks": 0,
          "midi": 61,
          "name": "C#4",
          "ticks": 31375,
          "time": 40.852864583333336,
          "velocity": 0.08661417322834646
        },
        {
          "duration": 0,
          "durationTicks": 0,
          "midi": 65,
          "name": "F4",
          "ticks": 31464,
          "time": 40.96875,
          "velocity": 0.10236220472440945
        },
        {
          "duration": 0,
          "durationTicks": 0,
          "midi": 56,
          "name": "G#3",
          "ticks": 31500,
          "time": 41.015625,
          "velocity": 0.07086614173228346
        },
        {
          "duration": 0,
          "durationTicks": 0,
          "midi": 61,
          "name": "C#4",
          "ticks": 31509,
          "time": 41.02734375,
          "velocity": 0.08661417322834646
        },
        {
          "duration": 0,
          "durationTicks": 0,
          "midi": 65,
          "name": "F4",
          "ticks": 31509,
          "time": 41.02734375,
          "velocity": 0.14173228346456693
        },
        {
          "duration": 0.1263020833333357,
          "durationTicks": 97,
          "midi": 60,
          "name": "C4",
          "ticks": 31572,
          "time": 41.109375,
          "velocity": 0.07874015748031496
        },
        {
          "duration": 0.125,
          "durationTicks": 96,
          "midi": 70,
          "name": "A#4",
          "ticks": 31590,
          "time": 41.1328125,
          "velocity": 0.1968503937007874
        },
        {
          "duration": 0,
          "durationTicks": 0,
          "midi": 65,
          "name": "F4",
          "ticks": 31599,
          "time": 41.14453125,
          "velocity": 0.14173228346456693
        },
        {
          "duration": 0.3723958333333357,
          "durationTicks": 286,
          "midi": 68,
          "name": "G#4",
          "ticks": 31626,
          "time": 41.1796875,
          "velocity": 0.14960629921259844
        },
        {
          "duration": 0,
          "durationTicks": 0,
          "midi": 65,
          "name": "F4",
          "ticks": 31644,
          "time": 41.203125,
          "velocity": 0.14173228346456693
        },
        {
          "duration": 0,
          "durationTicks": 0,
          "midi": 65,
          "name": "F4",
          "ticks": 31688,
          "time": 41.260416666666664,
          "velocity": 0.14173228346456693
        },
        {
          "duration": 0.1236979166666714,
          "durationTicks": 95,
          "midi": 70,
          "name": "A#4",
          "ticks": 31733,
          "time": 41.319010416666664,
          "velocity": 0.10236220472440945
        },
        {
          "duration": 0.1236979166666714,
          "durationTicks": 95,
          "midi": 64,
          "name": "E4",
          "ticks": 31751,
          "time": 41.342447916666664,
          "velocity": 0.13385826771653545
        },
        {
          "duration": 0.2486979166666643,
          "durationTicks": 191,
          "midi": 70,
          "name": "A#4",
          "ticks": 31813,
          "time": 41.423177083333336,
          "velocity": 0.1889763779527559
        },
        {
          "duration": 0.25,
          "durationTicks": 192,
          "midi": 64,
          "name": "E4",
          "ticks": 31848,
          "time": 41.46875,
          "velocity": 0.13385826771653545
        },
        {
          "duration": 0.7513020833333357,
          "durationTicks": 577,
          "midi": 68,
          "name": "G#4",
          "ticks": 31937,
          "time": 41.584635416666664,
          "velocity": 0.16535433070866143
        },
        {
          "duration": 0.125,
          "durationTicks": 96,
          "midi": 70,
          "name": "A#4",
          "ticks": 31991,
          "time": 41.654947916666664,
          "velocity": 0.14173228346456693
        },
        {
          "duration": 0.25,
          "durationTicks": 192,
          "midi": 70,
          "name": "A#4",
          "ticks": 32071,
          "time": 41.759114583333336,
          "velocity": 0.15748031496062992
        },
        {
          "duration": 0.25,
          "durationTicks": 192,
          "midi": 64,
          "name": "E4",
          "ticks": 32116,
          "time": 41.817708333333336,
          "velocity": 0.14173228346456693
        },
        {
          "duration": 0.125,
          "durationTicks": 96,
          "midi": 70,
          "name": "A#4",
          "ticks": 32357,
          "time": 42.131510416666664,
          "velocity": 0.10236220472440945
        },
        {
          "duration": 0.125,
          "durationTicks": 96,
          "midi": 64,
          "name": "E4",
          "ticks": 32384,
          "time": 42.166666666666664,
          "velocity": 0.14173228346456693
        },
        {
          "duration": 0.375,
          "durationTicks": 288,
          "midi": 60,
          "name": "C4",
          "ticks": 32446,
          "time": 42.247395833333336,
          "velocity": 0.14173228346456693
        },
        {
          "duration": 0,
          "durationTicks": 0,
          "midi": 70,
          "name": "A#4",
          "ticks": 32473,
          "time": 42.282552083333336,
          "velocity": 0.14173228346456693
        },
        {
          "duration": 0.125,
          "durationTicks": 96,
          "midi": 70,
          "name": "A#4",
          "ticks": 32536,
          "time": 42.364583333333336,
          "velocity": 0.1968503937007874
        },
        {
          "duration": 0.125,
          "durationTicks": 96,
          "midi": 64,
          "name": "E4",
          "ticks": 32554,
          "time": 42.388020833333336,
          "velocity": 0.11811023622047244
        },
        {
          "duration": 0,
          "durationTicks": 0,
          "midi": 80,
          "name": "G#5",
          "ticks": 32581,
          "time": 42.423177083333336,
          "velocity": 0.05511811023622047
        },
        {
          "duration": 0.2486979166666643,
          "durationTicks": 191,
          "midi": 68,
          "name": "G#4",
          "ticks": 32608,
          "time": 42.458333333333336,
          "velocity": 0.1732283464566929
        },
        {
          "duration": 0,
          "durationTicks": 0,
          "midi": 70,
          "name": "A#4",
          "ticks": 32670,
          "time": 42.5390625,
          "velocity": 0.09448818897637795
        },
        {
          "duration": 0.125,
          "durationTicks": 96,
          "midi": 76,
          "name": "E5",
          "ticks": 32687,
          "time": 42.561197916666664,
          "velocity": 0.05511811023622047
        },
        {
          "duration": 0.125,
          "durationTicks": 96,
          "midi": 70,
          "name": "A#4",
          "ticks": 32714,
          "time": 42.596354166666664,
          "velocity": 0.14960629921259844
        },
        {
          "duration": 0.1263020833333357,
          "durationTicks": 97,
          "midi": 60,
          "name": "C4",
          "ticks": 32786,
          "time": 42.690104166666664,
          "velocity": 0.10236220472440945
        },
        {
          "duration": 0,
          "durationTicks": 0,
          "midi": 89,
          "name": "F6",
          "ticks": 32822,
          "time": 42.736979166666664,
          "velocity": 0.05511811023622047
        },
        {
          "duration": 0.125,
          "durationTicks": 96,
          "midi": 68,
          "name": "G#4",
          "ticks": 32831,
          "time": 42.748697916666664,
          "velocity": 0.14173228346456693
        },
        {
          "duration": 0,
          "durationTicks": 0,
          "midi": 83,
          "name": "B5",
          "ticks": 32849,
          "time": 42.772135416666664,
          "velocity": 0.06299212598425197
        },
        {
          "duration": 0.125,
          "durationTicks": 96,
          "midi": 70,
          "name": "A#4",
          "ticks": 32849,
          "time": 42.772135416666664,
          "velocity": 0.14960629921259844
        },
        {
          "duration": 0.25,
          "durationTicks": 192,
          "midi": 64,
          "name": "E4",
          "ticks": 32920,
          "time": 42.864583333333336,
          "velocity": 0.11023622047244094
        },
        {
          "duration": 0.125,
          "durationTicks": 96,
          "midi": 68,
          "name": "G#4",
          "ticks": 32982,
          "time": 42.9453125,
          "velocity": 0.11023622047244094
        },
        {
          "duration": 0,
          "durationTicks": 0,
          "midi": 89,
          "name": "F6",
          "ticks": 32992,
          "time": 42.958333333333336,
          "velocity": 0.06299212598425197
        },
        {
          "duration": 0.125,
          "durationTicks": 96,
          "midi": 70,
          "name": "A#4",
          "ticks": 32992,
          "time": 42.958333333333336,
          "velocity": 0.09448818897637795
        },
        {
          "duration": 0.125,
          "durationTicks": 96,
          "midi": 79,
          "name": "G5",
          "ticks": 33009,
          "time": 42.98046875,
          "velocity": 0.06299212598425197
        },
        {
          "duration": 0.1263020833333357,
          "durationTicks": 97,
          "midi": 70,
          "name": "A#4",
          "ticks": 33090,
          "time": 43.0859375,
          "velocity": 0.14173228346456693
        },
        {
          "duration": 0,
          "durationTicks": 0,
          "midi": 79,
          "name": "G5",
          "ticks": 33144,
          "time": 43.15625,
          "velocity": 0.05511811023622047
        },
        {
          "duration": 0.7513020833333357,
          "durationTicks": 577,
          "midi": 72,
          "name": "C5",
          "ticks": 33144,
          "time": 43.15625,
          "velocity": 0.14173228346456693
        },
        {
          "duration": 0,
          "durationTicks": 0,
          "midi": 68,
          "name": "G#4",
          "ticks": 33153,
          "time": 43.16796875,
          "velocity": 0.06299212598425197
        },
        {
          "duration": 0.125,
          "durationTicks": 96,
          "midi": 60,
          "name": "C4",
          "ticks": 33153,
          "time": 43.16796875,
          "velocity": 0.06299212598425197
        },
        {
          "duration": 0.25,
          "durationTicks": 192,
          "midi": 64,
          "name": "E4",
          "ticks": 33162,
          "time": 43.1796875,
          "velocity": 0.14960629921259844
        },
        {
          "duration": 0,
          "durationTicks": 0,
          "midi": 82,
          "name": "A#5",
          "ticks": 33172,
          "time": 43.192708333333336,
          "velocity": 0.07086614173228346
        },
        {
          "duration": 0.125,
          "durationTicks": 96,
          "midi": 70,
          "name": "A#4",
          "ticks": 33216,
          "time": 43.25,
          "velocity": 0.15748031496062992
        },
        {
          "duration": 0,
          "durationTicks": 0,
          "midi": 87,
          "name": "D#6",
          "ticks": 33234,
          "time": 43.2734375,
          "velocity": 0.06299212598425197
        },
        {
          "duration": 0,
          "durationTicks": 0,
          "midi": 68,
          "name": "G#4",
          "ticks": 33269,
          "time": 43.319010416666664,
          "velocity": 0.07086614173228346
        },
        {
          "duration": 0,
          "durationTicks": 0,
          "midi": 79,
          "name": "G5",
          "ticks": 33305,
          "time": 43.365885416666664,
          "velocity": 0.09448818897637795
        },
        {
          "duration": 0.125,
          "durationTicks": 96,
          "midi": 68,
          "name": "G#4",
          "ticks": 33305,
          "time": 43.365885416666664,
          "velocity": 0.07874015748031496
        },
        {
          "duration": 0,
          "durationTicks": 0,
          "midi": 80,
          "name": "G#5",
          "ticks": 33421,
          "time": 43.516927083333336,
          "velocity": 0.07086614173228346
        },
        {
          "duration": 0.25,
          "durationTicks": 192,
          "midi": 68,
          "name": "G#4",
          "ticks": 33439,
          "time": 43.540364583333336,
          "velocity": 0.14960629921259844
        },
        {
          "duration": 0.125,
          "durationTicks": 96,
          "midi": 70,
          "name": "A#4",
          "ticks": 33510,
          "time": 43.6328125,
          "velocity": 0.10236220472440945
        },
        {
          "duration": 0.5013020833333357,
          "durationTicks": 385,
          "midi": 60,
          "name": "C4",
          "ticks": 33564,
          "time": 43.703125,
          "velocity": 0.10236220472440945
        },
        {
          "duration": 0.375,
          "durationTicks": 288,
          "midi": 64,
          "name": "E4",
          "ticks": 33608,
          "time": 43.760416666666664,
          "velocity": 0.10236220472440945
        },
        {
          "duration": 0.1263020833333357,
          "durationTicks": 97,
          "midi": 68,
          "name": "G#4",
          "ticks": 33653,
          "time": 43.819010416666664,
          "velocity": 0.09448818897637795
        },
        {
          "duration": 0,
          "durationTicks": 0,
          "midi": 70,
          "name": "A#4",
          "ticks": 33662,
          "time": 43.830729166666664,
          "velocity": 0.10236220472440945
        },
        {
          "duration": 0.125,
          "durationTicks": 96,
          "midi": 70,
          "name": "A#4",
          "ticks": 33841,
          "time": 44.063802083333336,
          "velocity": 0.11023622047244094
        },
        {
          "duration": 0.1263020833333286,
          "durationTicks": 97,
          "midi": 68,
          "name": "G#4",
          "ticks": 33877,
          "time": 44.110677083333336,
          "velocity": 0.05511811023622047
        },
        {
          "duration": 0.5013020833333357,
          "durationTicks": 385,
          "midi": 72,
          "name": "C5",
          "ticks": 33930,
          "time": 44.1796875,
          "velocity": 0.06299212598425197
        },
        {
          "duration": 0.125,
          "durationTicks": 96,
          "midi": 68,
          "name": "G#4",
          "ticks": 33958,
          "time": 44.216145833333336,
          "velocity": 0.07086614173228346
        },
        {
          "duration": 0.125,
          "durationTicks": 96,
          "midi": 70,
          "name": "A#4",
          "ticks": 33985,
          "time": 44.251302083333336,
          "velocity": 0.08661417322834646
        },
        {
          "duration": 0.25,
          "durationTicks": 192,
          "midi": 64,
          "name": "E4",
          "ticks": 34003,
          "time": 44.274739583333336,
          "velocity": 0.10236220472440945
        },
        {
          "duration": 0.125,
          "durationTicks": 96,
          "midi": 68,
          "name": "G#4",
          "ticks": 34128,
          "time": 44.4375,
          "velocity": 0.08661417322834646
        },
        {
          "duration": 0,
          "durationTicks": 0,
          "midi": 64,
          "name": "E4",
          "ticks": 34325,
          "time": 44.694010416666664,
          "velocity": 0.06299212598425197
        },
        {
          "duration": 0.25,
          "durationTicks": 192,
          "midi": 72,
          "name": "C5",
          "ticks": 34342,
          "time": 44.716145833333336,
          "velocity": 0.07874015748031496
        },
        {
          "duration": 0.25,
          "durationTicks": 192,
          "midi": 70,
          "name": "A#4",
          "ticks": 34503,
          "time": 44.92578125,
          "velocity": 0.08661417322834646
        },
        {
          "duration": 0.125,
          "durationTicks": 96,
          "midi": 72,
          "name": "C5",
          "ticks": 34806,
          "time": 45.3203125,
          "velocity": 0.05511811023622047
        },
        {
          "duration": 0.125,
          "durationTicks": 96,
          "midi": 68,
          "name": "G#4",
          "ticks": 34993,
          "time": 45.563802083333336,
          "velocity": 0.05511811023622047
        },
        {
          "duration": 0,
          "durationTicks": 0,
          "midi": 74,
          "name": "D5",
          "ticks": 36137,
          "time": 47.053385416666664,
          "velocity": 0.2047244094488189
        },
        {
          "duration": 0,
          "durationTicks": 0,
          "midi": 56,
          "name": "G#3",
          "ticks": 36146,
          "time": 47.065104166666664,
          "velocity": 0.29133858267716534
        },
        {
          "duration": 0,
          "durationTicks": 0,
          "midi": 66,
          "name": "F#4",
          "ticks": 36146,
          "time": 47.065104166666664,
          "velocity": 0.1889763779527559
        },
        {
          "duration": 0,
          "durationTicks": 0,
          "midi": 70,
          "name": "A#4",
          "ticks": 36146,
          "time": 47.065104166666664,
          "velocity": 0.2125984251968504
        },
        {
          "duration": 0,
          "durationTicks": 0,
          "midi": 56,
          "name": "G#3",
          "ticks": 36173,
          "time": 47.100260416666664,
          "velocity": 0.1968503937007874
        },
        {
          "duration": 0,
          "durationTicks": 0,
          "midi": 65,
          "name": "F4",
          "ticks": 36183,
          "time": 47.11328125,
          "velocity": 0.2283464566929134
        },
        {
          "duration": 0,
          "durationTicks": 0,
          "midi": 57,
          "name": "A3",
          "ticks": 36209,
          "time": 47.147135416666664,
          "velocity": 0.25196850393700787
        },
        {
          "duration": 0,
          "durationTicks": 0,
          "midi": 51,
          "name": "D#3",
          "ticks": 36236,
          "time": 47.182291666666664,
          "velocity": 0.2440944881889764
        },
        {
          "duration": 0,
          "durationTicks": 0,
          "midi": 29,
          "name": "F1",
          "ticks": 36325,
          "time": 47.298177083333336,
          "velocity": 0.25196850393700787
        },
        {
          "duration": 0,
          "durationTicks": 0,
          "midi": 56,
          "name": "G#3",
          "ticks": 36325,
          "time": 47.298177083333336,
          "velocity": 0.29133858267716534
        },
        {
          "duration": 0,
          "durationTicks": 0,
          "midi": 67,
          "name": "G4",
          "ticks": 36343,
          "time": 47.321614583333336,
          "velocity": 0.2204724409448819
        },
        {
          "duration": 0,
          "durationTicks": 0,
          "midi": 63,
          "name": "D#4",
          "ticks": 36361,
          "time": 47.345052083333336,
          "velocity": 0.23622047244094488
        },
        {
          "duration": 0,
          "durationTicks": 0,
          "midi": 50,
          "name": "D3",
          "ticks": 36530,
          "time": 47.565104166666664,
          "velocity": 0.4094488188976378
        },
        {
          "duration": 0,
          "durationTicks": 0,
          "midi": 63,
          "name": "D#4",
          "ticks": 36530,
          "time": 47.565104166666664,
          "velocity": 0.2283464566929134
        },
        {
          "duration": 0,
          "durationTicks": 0,
          "midi": 49,
          "name": "C#3",
          "ticks": 36557,
          "time": 47.600260416666664,
          "velocity": 0.3937007874015748
        },
        {
          "duration": 0,
          "durationTicks": 0,
          "midi": 48,
          "name": "C3",
          "ticks": 36584,
          "time": 47.635416666666664,
          "velocity": 0.3858267716535433
        },
        {
          "duration": 0,
          "durationTicks": 0,
          "midi": 63,
          "name": "D#4",
          "ticks": 36611,
          "time": 47.670572916666664,
          "velocity": 0.2283464566929134
        },
        {
          "duration": 0,
          "durationTicks": 0,
          "midi": 67,
          "name": "G4",
          "ticks": 36620,
          "time": 47.682291666666664,
          "velocity": 0.18110236220472442
        },
        {
          "duration": 0,
          "durationTicks": 0,
          "midi": 84,
          "name": "C6",
          "ticks": 36620,
          "time": 47.682291666666664,
          "velocity": 0.06299212598425197
        },
        {
          "duration": 0,
          "durationTicks": 0,
          "midi": 50,
          "name": "D3",
          "ticks": 36630,
          "time": 47.6953125,
          "velocity": 0.4094488188976378
        },
        {
          "duration": 0,
          "durationTicks": 0,
          "midi": 59,
          "name": "B3",
          "ticks": 36639,
          "time": 47.70703125,
          "velocity": 0.2125984251968504
        },
        {
          "duration": 0,
          "durationTicks": 0,
          "midi": 49,
          "name": "C#3",
          "ticks": 36657,
          "time": 47.73046875,
          "velocity": 0.3858267716535433
        },
        {
          "duration": 0,
          "durationTicks": 0,
          "midi": 48,
          "name": "C3",
          "ticks": 36674,
          "time": 47.752604166666664,
          "velocity": 0.3779527559055118
        },
        {
          "duration": 0,
          "durationTicks": 0,
          "midi": 60,
          "name": "C4",
          "ticks": 36719,
          "time": 47.811197916666664,
          "velocity": 0.2283464566929134
        },
        {
          "duration": 0,
          "durationTicks": 0,
          "midi": 78,
          "name": "F#5",
          "ticks": 36719,
          "time": 47.811197916666664,
          "velocity": 0.10236220472440945
        },
        {
          "duration": 0,
          "durationTicks": 0,
          "midi": 44,
          "name": "G#2",
          "ticks": 36728,
          "time": 47.822916666666664,
          "velocity": 0.4094488188976378
        },
        {
          "duration": 0,
          "durationTicks": 0,
          "midi": 63,
          "name": "D#4",
          "ticks": 36737,
          "time": 47.834635416666664,
          "velocity": 0.11023622047244094
        },
        {
          "duration": 0,
          "durationTicks": 0,
          "midi": 72,
          "name": "C5",
          "ticks": 36737,
          "time": 47.834635416666664,
          "velocity": 0.06299212598425197
        },
        {
          "duration": 0,
          "durationTicks": 0,
          "midi": 42,
          "name": "F#2",
          "ticks": 36791,
          "time": 47.904947916666664,
          "velocity": 0.3464566929133858
        },
        {
          "duration": 0,
          "durationTicks": 0,
          "midi": 43,
          "name": "G2",
          "ticks": 36818,
          "time": 47.940104166666664,
          "velocity": 0.3464566929133858
        },
        {
          "duration": 0,
          "durationTicks": 0,
          "midi": 41,
          "name": "F2",
          "ticks": 36836,
          "time": 47.963541666666664,
          "velocity": 0.3858267716535433
        },
        {
          "duration": 0,
          "durationTicks": 0,
          "midi": 42,
          "name": "F#2",
          "ticks": 36853,
          "time": 47.985677083333336,
          "velocity": 0.3700787401574803
        },
        {
          "duration": 0,
          "durationTicks": 0,
          "midi": 34,
          "name": "A#1",
          "ticks": 36889,
          "time": 48.032552083333336,
          "velocity": 0.2992125984251969
        },
        {
          "duration": 0,
          "durationTicks": 0,
          "midi": 72,
          "name": "C5",
          "ticks": 36907,
          "time": 48.055989583333336,
          "velocity": 0.14960629921259844
        },
        {
          "duration": 0,
          "durationTicks": 0,
          "midi": 29,
          "name": "F1",
          "ticks": 36916,
          "time": 48.067708333333336,
          "velocity": 0.4094488188976378
        },
        {
          "duration": 0,
          "durationTicks": 0,
          "midi": 66,
          "name": "F#4",
          "ticks": 36916,
          "time": 48.067708333333336,
          "velocity": 0.09448818897637795
        },
        {
          "duration": 0,
          "durationTicks": 0,
          "midi": 30,
          "name": "F#1",
          "ticks": 36926,
          "time": 48.080729166666664,
          "velocity": 0.4251968503937008
        },
        {
          "duration": 0.1263020833333357,
          "durationTicks": 97,
          "midi": 48,
          "name": "C3",
          "ticks": 36926,
          "time": 48.080729166666664,
          "velocity": 0.12598425196850394
        },
        {
          "duration": 0.1263020833333357,
          "durationTicks": 97,
          "midi": 29,
          "name": "F1",
          "ticks": 36962,
          "time": 48.127604166666664,
          "velocity": 0.3779527559055118
        },
        {
          "duration": 0.1263020833333357,
          "durationTicks": 97,
          "midi": 48,
          "name": "C3",
          "ticks": 36998,
          "time": 48.174479166666664,
          "velocity": 0.08661417322834646
        },
        {
          "duration": 0,
          "durationTicks": 0,
          "midi": 62,
          "name": "D4",
          "ticks": 37285,
          "time": 48.548177083333336,
          "velocity": 0.06299212598425197
        },
        {
          "duration": 0,
          "durationTicks": 0,
          "midi": 86,
          "name": "D6",
          "ticks": 37285,
          "time": 48.548177083333336,
          "velocity": 0.05511811023622047
        },
        {
          "duration": 0,
          "durationTicks": 0,
          "midi": 56,
          "name": "G#3",
          "ticks": 37285,
          "time": 48.548177083333336,
          "velocity": 0.29133858267716534
        },
        {
          "duration": 0,
          "durationTicks": 0,
          "midi": 80,
          "name": "G#5",
          "ticks": 37285,
          "time": 48.548177083333336,
          "velocity": 0.13385826771653545
        },
        {
          "duration": 0,
          "durationTicks": 0,
          "midi": 90,
          "name": "F#6",
          "ticks": 37285,
          "time": 48.548177083333336,
          "velocity": 0.05511811023622047
        },
        {
          "duration": 0,
          "durationTicks": 0,
          "midi": 57,
          "name": "A3",
          "ticks": 37356,
          "time": 48.640625,
          "velocity": 0.09448818897637795
        },
        {
          "duration": 0.125,
          "durationTicks": 96,
          "midi": 27,
          "name": "D#1",
          "ticks": 37472,
          "time": 48.791666666666664,
          "velocity": 0.36220472440944884
        },
        {
          "duration": 0.125,
          "durationTicks": 96,
          "midi": 46,
          "name": "A#2",
          "ticks": 37490,
          "time": 48.815104166666664,
          "velocity": 0.06299212598425197
        },
        {
          "duration": 0,
          "durationTicks": 0,
          "midi": 45,
          "name": "A2",
          "ticks": 37659,
          "time": 49.03515625,
          "velocity": 0.25984251968503935
        },
        {
          "duration": 0,
          "durationTicks": 0,
          "midi": 30,
          "name": "F#1",
          "ticks": 37677,
          "time": 49.05859375,
          "velocity": 0.4251968503937008
        },
        {
          "duration": 0,
          "durationTicks": 0,
          "midi": 48,
          "name": "C3",
          "ticks": 37713,
          "time": 49.10546875,
          "velocity": 0.13385826771653545
        },
        {
          "duration": 0.125,
          "durationTicks": 96,
          "midi": 29,
          "name": "F1",
          "ticks": 37723,
          "time": 49.118489583333336,
          "velocity": 0.3779527559055118
        },
        {
          "duration": 0.125,
          "durationTicks": 96,
          "midi": 48,
          "name": "C3",
          "ticks": 37759,
          "time": 49.165364583333336,
          "velocity": 0.08661417322834646
        },
        {
          "duration": 0,
          "durationTicks": 0,
          "midi": 44,
          "name": "G#2",
          "ticks": 38035,
          "time": 49.524739583333336,
          "velocity": 0.3464566929133858
        },
        {
          "duration": 0,
          "durationTicks": 0,
          "midi": 66,
          "name": "F#4",
          "ticks": 38035,
          "time": 49.524739583333336,
          "velocity": 0.08661417322834646
        },
        {
          "duration": 0,
          "durationTicks": 0,
          "midi": 72,
          "name": "C5",
          "ticks": 38035,
          "time": 49.524739583333336,
          "velocity": 0.11023622047244094
        },
        {
          "duration": 0,
          "durationTicks": 0,
          "midi": 86,
          "name": "D6",
          "ticks": 38044,
          "time": 49.536458333333336,
          "velocity": 0.06299212598425197
        },
        {
          "duration": 0,
          "durationTicks": 0,
          "midi": 80,
          "name": "G#5",
          "ticks": 38044,
          "time": 49.536458333333336,
          "velocity": 0.11023622047244094
        },
        {
          "duration": 0.125,
          "durationTicks": 96,
          "midi": 43,
          "name": "G2",
          "ticks": 38054,
          "time": 49.549479166666664,
          "velocity": 0.3543307086614173
        },
        {
          "duration": 0,
          "durationTicks": 0,
          "midi": 87,
          "name": "D#6",
          "ticks": 38063,
          "time": 49.561197916666664,
          "velocity": 0.05511811023622047
        },
        {
          "duration": 0.125,
          "durationTicks": 96,
          "midi": 62,
          "name": "D4",
          "ticks": 38081,
          "time": 49.584635416666664,
          "velocity": 0.11023622047244094
        },
        {
          "duration": 0.125,
          "durationTicks": 96,
          "midi": 31,
          "name": "G1",
          "ticks": 38152,
          "time": 49.677083333333336,
          "velocity": 0.3543307086614173
        },
        {
          "duration": 0.125,
          "durationTicks": 96,
          "midi": 50,
          "name": "D3",
          "ticks": 38161,
          "time": 49.688802083333336,
          "velocity": 0.08661417322834646
        },
        {
          "duration": 0,
          "durationTicks": 0,
          "midi": 44,
          "name": "G#2",
          "ticks": 38322,
          "time": 49.8984375,
          "velocity": 0.3858267716535433
        },
        {
          "duration": 0.1236979166666643,
          "durationTicks": 95,
          "midi": 63,
          "name": "D#4",
          "ticks": 38322,
          "time": 49.8984375,
          "velocity": 0.13385826771653545
        },
        {
          "duration": 0,
          "durationTicks": 0,
          "midi": 45,
          "name": "A2",
          "ticks": 38339,
          "time": 49.920572916666664,
          "velocity": 0.3779527559055118
        },
        {
          "duration": 0,
          "durationTicks": 0,
          "midi": 31,
          "name": "G1",
          "ticks": 38339,
          "time": 49.920572916666664,
          "velocity": 0.29133858267716534
        },
        {
          "duration": 0.125,
          "durationTicks": 96,
          "midi": 44,
          "name": "G#2",
          "ticks": 38357,
          "time": 49.944010416666664,
          "velocity": 0.36220472440944884
        },
        {
          "duration": 0.125,
          "durationTicks": 96,
          "midi": 44,
          "name": "G#2",
          "ticks": 38509,
          "time": 50.141927083333336,
          "velocity": 0.36220472440944884
        },
        {
          "duration": 0.125,
          "durationTicks": 96,
          "midi": 63,
          "name": "D#4",
          "ticks": 38518,
          "time": 50.153645833333336,
          "velocity": 0.07874015748031496
        },
        {
          "duration": 0,
          "durationTicks": 0,
          "midi": 30,
          "name": "F#1",
          "ticks": 38607,
          "time": 50.26953125,
          "velocity": 0.3543307086614173
        },
        {
          "duration": 0,
          "durationTicks": 0,
          "midi": 32,
          "name": "G#1",
          "ticks": 38634,
          "time": 50.3046875,
          "velocity": 0.33858267716535434
        },
        {
          "duration": 0,
          "durationTicks": 0,
          "midi": 33,
          "name": "A1",
          "ticks": 38652,
          "time": 50.328125,
          "velocity": 0.3228346456692913
        },
        {
          "duration": 0,
          "durationTicks": 0,
          "midi": 66,
          "name": "F#4",
          "ticks": 38795,
          "time": 50.514322916666664,
          "velocity": 0.07874015748031496
        },
        {
          "duration": 0,
          "durationTicks": 0,
          "midi": 80,
          "name": "G#5",
          "ticks": 38795,
          "time": 50.514322916666664,
          "velocity": 0.11811023622047244
        },
        {
          "duration": 0,
          "durationTicks": 0,
          "midi": 84,
          "name": "C6",
          "ticks": 38795,
          "time": 50.514322916666664,
          "velocity": 0.07874015748031496
        },
        {
          "duration": 0,
          "durationTicks": 0,
          "midi": 56,
          "name": "G#3",
          "ticks": 38804,
          "time": 50.526041666666664,
          "velocity": 0.29133858267716534
        },
        {
          "duration": 0,
          "durationTicks": 0,
          "midi": 86,
          "name": "D6",
          "ticks": 38804,
          "time": 50.526041666666664,
          "velocity": 0.07874015748031496
        },
        {
          "duration": 0.25,
          "durationTicks": 192,
          "midi": 32,
          "name": "G#1",
          "ticks": 38813,
          "time": 50.537760416666664,
          "velocity": 0.3464566929133858
        },
        {
          "duration": 0.125,
          "durationTicks": 96,
          "midi": 51,
          "name": "D#3",
          "ticks": 38840,
          "time": 50.572916666666664,
          "velocity": 0.08661417322834646
        },
        {
          "duration": 0,
          "durationTicks": 0,
          "midi": 57,
          "name": "A3",
          "ticks": 38876,
          "time": 50.619791666666664,
          "velocity": 0.08661417322834646
        },
        {
          "duration": 0,
          "durationTicks": 0,
          "midi": 36,
          "name": "C2",
          "ticks": 39170,
          "time": 51.002604166666664,
          "velocity": 0.29133858267716534
        },
        {
          "duration": 0,
          "durationTicks": 0,
          "midi": 35,
          "name": "B1",
          "ticks": 39206,
          "time": 51.049479166666664,
          "velocity": 0.4015748031496063
        },
        {
          "duration": 0.125,
          "durationTicks": 96,
          "midi": 55,
          "name": "G3",
          "ticks": 39215,
          "time": 51.061197916666664,
          "velocity": 0.08661417322834646
        },
        {
          "duration": 0.125,
          "durationTicks": 96,
          "midi": 36,
          "name": "C2",
          "ticks": 39251,
          "time": 51.108072916666664,
          "velocity": 0.3779527559055118
        },
        {
          "duration": 0.2513020833333286,
          "durationTicks": 193,
          "midi": 67,
          "name": "G4",
          "ticks": 39367,
          "time": 51.259114583333336,
          "velocity": 0.07874015748031496
        },
        {
          "duration": 0.2513020833333286,
          "durationTicks": 193,
          "midi": 48,
          "name": "C3",
          "ticks": 39367,
          "time": 51.259114583333336,
          "velocity": 0.36220472440944884
        },
        {
          "duration": 0,
          "durationTicks": 0,
          "midi": 31,
          "name": "G1",
          "ticks": 39403,
          "time": 51.305989583333336,
          "velocity": 0.2677165354330709
        },
        {
          "duration": 0,
          "durationTicks": 0,
          "midi": 29,
          "name": "F1",
          "ticks": 39430,
          "time": 51.341145833333336,
          "velocity": 0.1732283464566929
        },
        {
          "duration": 0,
          "durationTicks": 0,
          "midi": 72,
          "name": "C5",
          "ticks": 39546,
          "time": 51.4921875,
          "velocity": 0.12598425196850394
        },
        {
          "duration": 0,
          "durationTicks": 0,
          "midi": 35,
          "name": "B1",
          "ticks": 39555,
          "time": 51.50390625,
          "velocity": 0.3543307086614173
        },
        {
          "duration": 0,
          "durationTicks": 0,
          "midi": 62,
          "name": "D4",
          "ticks": 39555,
          "time": 51.50390625,
          "velocity": 0.09448818897637795
        },
        {
          "duration": 0,
          "durationTicks": 0,
          "midi": 86,
          "name": "D6",
          "ticks": 39555,
          "time": 51.50390625,
          "velocity": 0.06299212598425197
        },
        {
          "duration": 0,
          "durationTicks": 0,
          "midi": 80,
          "name": "G#5",
          "ticks": 39555,
          "time": 51.50390625,
          "velocity": 0.11023622047244094
        },
        {
          "duration": 0,
          "durationTicks": 0,
          "midi": 87,
          "name": "D#6",
          "ticks": 39573,
          "time": 51.52734375,
          "velocity": 0.06299212598425197
        },
        {
          "duration": 0.125,
          "durationTicks": 96,
          "midi": 34,
          "name": "A#1",
          "ticks": 39573,
          "time": 51.52734375,
          "velocity": 0.3700787401574803
        },
        {
          "duration": 0,
          "durationTicks": 0,
          "midi": 56,
          "name": "G#3",
          "ticks": 39582,
          "time": 51.5390625,
          "velocity": 0.1968503937007874
        },
        {
          "duration": 0,
          "durationTicks": 0,
          "midi": 53,
          "name": "F3",
          "ticks": 39600,
          "time": 51.5625,
          "velocity": 0.08661417322834646
        },
        {
          "duration": 0,
          "durationTicks": 0,
          "midi": 33,
          "name": "A1",
          "ticks": 39671,
          "time": 51.654947916666664,
          "velocity": 0.4015748031496063
        },
        {
          "duration": 0,
          "durationTicks": 0,
          "midi": 34,
          "name": "A#1",
          "ticks": 39689,
          "time": 51.678385416666664,
          "velocity": 0.4015748031496063
        },
        {
          "duration": 0,
          "durationTicks": 0,
          "midi": 53,
          "name": "F3",
          "ticks": 39698,
          "time": 51.690104166666664,
          "velocity": 0.08661417322834646
        },
        {
          "duration": 0,
          "durationTicks": 0,
          "midi": 35,
          "name": "B1",
          "ticks": 39716,
          "time": 51.713541666666664,
          "velocity": 0.33858267716535434
        },
        {
          "duration": 0,
          "durationTicks": 0,
          "midi": 34,
          "name": "A#1",
          "ticks": 39734,
          "time": 51.736979166666664,
          "velocity": 0.30708661417322836
        },
        {
          "duration": 0.1263020833333286,
          "durationTicks": 97,
          "midi": 65,
          "name": "F4",
          "ticks": 39751,
          "time": 51.759114583333336,
          "velocity": 0.07874015748031496
        },
        {
          "duration": 0.2513020833333286,
          "durationTicks": 193,
          "midi": 46,
          "name": "A#2",
          "ticks": 39751,
          "time": 51.759114583333336,
          "velocity": 0.3464566929133858
        },
        {
          "duration": 0,
          "durationTicks": 0,
          "midi": 62,
          "name": "D4",
          "ticks": 39832,
          "time": 51.864583333333336,
          "velocity": 0.07086614173228346
        },
        {
          "duration": 0,
          "durationTicks": 0,
          "midi": 56,
          "name": "G#3",
          "ticks": 39841,
          "time": 51.876302083333336,
          "velocity": 0.29133858267716534
        },
        {
          "duration": 0,
          "durationTicks": 0,
          "midi": 66,
          "name": "F#4",
          "ticks": 39850,
          "time": 51.888020833333336,
          "velocity": 0.11023622047244094
        },
        {
          "duration": 0.125,
          "durationTicks": 96,
          "midi": 65,
          "name": "F4",
          "ticks": 39877,
          "time": 51.923177083333336,
          "velocity": 0.11023622047244094
        },
        {
          "duration": 0,
          "durationTicks": 0,
          "midi": 28,
          "name": "E1",
          "ticks": 39931,
          "time": 51.993489583333336,
          "velocity": 0.3858267716535433
        },
        {
          "duration": 0,
          "durationTicks": 0,
          "midi": 29,
          "name": "F1",
          "ticks": 39949,
          "time": 52.016927083333336,
          "velocity": 0.41732283464566927
        },
        {
          "duration": 0,
          "durationTicks": 0,
          "midi": 48,
          "name": "C3",
          "ticks": 39949,
          "time": 52.016927083333336,
          "velocity": 0.1732283464566929
        },
        {
          "duration": 0,
          "durationTicks": 0,
          "midi": 30,
          "name": "F#1",
          "ticks": 39958,
          "time": 52.028645833333336,
          "velocity": 0.4251968503937008
        },
        {
          "duration": 0,
          "durationTicks": 0,
          "midi": 48,
          "name": "C3",
          "ticks": 39985,
          "time": 52.063802083333336,
          "velocity": 0.13385826771653545
        },
        {
          "duration": 0,
          "durationTicks": 0,
          "midi": 29,
          "name": "F1",
          "ticks": 39994,
          "time": 52.075520833333336,
          "velocity": 0.3779527559055118
        },
        {
          "duration": 0.125,
          "durationTicks": 96,
          "midi": 29,
          "name": "F1",
          "ticks": 40128,
          "time": 52.25,
          "velocity": 0.36220472440944884
        },
        {
          "duration": 0.125,
          "durationTicks": 96,
          "midi": 48,
          "name": "C3",
          "ticks": 40137,
          "time": 52.26171875,
          "velocity": 0.08661417322834646
        },
        {
          "duration": 0.25,
          "durationTicks": 192,
          "midi": 41,
          "name": "F2",
          "ticks": 40307,
          "time": 52.483072916666664,
          "velocity": 0.36220472440944884
        },
        {
          "duration": 0,
          "durationTicks": 0,
          "midi": 86,
          "name": "D6",
          "ticks": 40316,
          "time": 52.494791666666664,
          "velocity": 0.07874015748031496
        },
        {
          "duration": 0,
          "durationTicks": 0,
          "midi": 80,
          "name": "G#5",
          "ticks": 40316,
          "time": 52.494791666666664,
          "velocity": 0.11023622047244094
        },
        {
          "duration": 0,
          "durationTicks": 0,
          "midi": 56,
          "name": "G#3",
          "ticks": 40316,
          "time": 52.494791666666664,
          "velocity": 0.29133858267716534
        },
        {
          "duration": 0.125,
          "durationTicks": 96,
          "midi": 60,
          "name": "C4",
          "ticks": 40361,
          "time": 52.553385416666664,
          "velocity": 0.08661417322834646
        },
        {
          "duration": 0,
          "durationTicks": 0,
          "midi": 57,
          "name": "A3",
          "ticks": 40388,
          "time": 52.588541666666664,
          "velocity": 0.10236220472440945
        },
        {
          "duration": 0.125,
          "durationTicks": 96,
          "midi": 27,
          "name": "D#1",
          "ticks": 40521,
          "time": 52.76171875,
          "velocity": 0.36220472440944884
        },
        {
          "duration": 0.125,
          "durationTicks": 96,
          "midi": 46,
          "name": "A#2",
          "ticks": 40521,
          "time": 52.76171875,
          "velocity": 0.08661417322834646
        },
        {
          "duration": 0,
          "durationTicks": 0,
          "midi": 29,
          "name": "F1",
          "ticks": 40700,
          "time": 52.994791666666664,
          "velocity": 0.4015748031496063
        },
        {
          "duration": 0,
          "durationTicks": 0,
          "midi": 30,
          "name": "F#1",
          "ticks": 40709,
          "time": 53.006510416666664,
          "velocity": 0.4251968503937008
        },
        {
          "duration": 0.125,
          "durationTicks": 96,
          "midi": 48,
          "name": "C3",
          "ticks": 40709,
          "time": 53.006510416666664,
          "velocity": 0.13385826771653545
        },
        {
          "duration": 0.125,
          "durationTicks": 96,
          "midi": 29,
          "name": "F1",
          "ticks": 40745,
          "time": 53.053385416666664,
          "velocity": 0.3779527559055118
        },
        {
          "duration": 0.125,
          "durationTicks": 96,
          "midi": 48,
          "name": "C3",
          "ticks": 40781,
          "time": 53.100260416666664,
          "velocity": 0.08661417322834646
        },
        {
          "duration": 0,
          "durationTicks": 0,
          "midi": 44,
          "name": "G#2",
          "ticks": 41067,
          "time": 53.47265625,
          "velocity": 0.3543307086614173
        },
        {
          "duration": 0,
          "durationTicks": 0,
          "midi": 80,
          "name": "G#5",
          "ticks": 41067,
          "time": 53.47265625,
          "velocity": 0.12598425196850394
        },
        {
          "duration": 0.125,
          "durationTicks": 96,
          "midi": 43,
          "name": "G2",
          "ticks": 41084,
          "time": 53.494791666666664,
          "velocity": 0.3464566929133858
        },
        {
          "duration": 0,
          "durationTicks": 0,
          "midi": 62,
          "name": "D4",
          "ticks": 41129,
          "time": 53.553385416666664,
          "velocity": 0.07874015748031496
        },
        {
          "duration": 0,
          "durationTicks": 0,
          "midi": 44,
          "name": "G#2",
          "ticks": 41156,
          "time": 53.588541666666664,
          "velocity": 0.29133858267716534
        },
        {
          "duration": 0,
          "durationTicks": 0,
          "midi": 50,
          "name": "D3",
          "ticks": 41183,
          "time": 53.623697916666664,
          "velocity": 0.08661417322834646
        },
        {
          "duration": 0.125,
          "durationTicks": 96,
          "midi": 31,
          "name": "G1",
          "ticks": 41183,
          "time": 53.623697916666664,
          "velocity": 0.3543307086614173
        },
        {
          "duration": 0,
          "durationTicks": 0,
          "midi": 50,
          "name": "D3",
          "ticks": 41219,
          "time": 53.670572916666664,
          "velocity": 0.08661417322834646
        },
        {
          "duration": 0.125,
          "durationTicks": 96,
          "midi": 63,
          "name": "D#4",
          "ticks": 41352,
          "time": 53.84375,
          "velocity": 0.12598425196850394
        },
        {
          "duration": 0,
          "durationTicks": 0,
          "midi": 45,
          "name": "A2",
          "ticks": 41362,
          "time": 53.856770833333336,
          "velocity": 0.3858267716535433
        },
        {
          "duration": 0,
          "durationTicks": 0,
          "midi": 31,
          "name": "G1",
          "ticks": 41379,
          "time": 53.87890625,
          "velocity": 0.29133858267716534
        },
        {
          "duration": 0.125,
          "durationTicks": 96,
          "midi": 44,
          "name": "G#2",
          "ticks": 41388,
          "time": 53.890625,
          "velocity": 0.36220472440944884
        },
        {
          "duration": 0.125,
          "durationTicks": 96,
          "midi": 44,
          "name": "G#2",
          "ticks": 41531,
          "time": 54.076822916666664,
          "velocity": 0.36220472440944884
        },
        {
          "duration": 0.125,
          "durationTicks": 96,
          "midi": 63,
          "name": "D#4",
          "ticks": 41549,
          "time": 54.100260416666664,
          "velocity": 0.07874015748031496
        },
        {
          "duration": 0,
          "durationTicks": 0,
          "midi": 31,
          "name": "G1",
          "ticks": 41647,
          "time": 54.227864583333336,
          "velocity": 0.36220472440944884
        },
        {
          "duration": 0,
          "durationTicks": 0,
          "midi": 32,
          "name": "G#1",
          "ticks": 41665,
          "time": 54.251302083333336,
          "velocity": 0.31496062992125984
        },
        {
          "duration": 0,
          "durationTicks": 0,
          "midi": 33,
          "name": "A1",
          "ticks": 41682,
          "time": 54.2734375,
          "velocity": 0.31496062992125984
        },
        {
          "duration": 0,
          "durationTicks": 0,
          "midi": 72,
          "name": "C5",
          "ticks": 41816,
          "time": 54.447916666666664,
          "velocity": 0.14173228346456693
        },
        {
          "duration": 0,
          "durationTicks": 0,
          "midi": 86,
          "name": "D6",
          "ticks": 41825,
          "time": 54.459635416666664,
          "velocity": 0.06299212598425197
        },
        {
          "duration": 0,
          "durationTicks": 0,
          "midi": 66,
          "name": "F#4",
          "ticks": 41825,
          "time": 54.459635416666664,
          "velocity": 0.09448818897637795
        },
        {
          "duration": 0,
          "durationTicks": 0,
          "midi": 56,
          "name": "G#3",
          "ticks": 41825,
          "time": 54.459635416666664,
          "velocity": 0.29133858267716534
        },
        {
          "duration": 0,
          "durationTicks": 0,
          "midi": 80,
          "name": "G#5",
          "ticks": 41825,
          "time": 54.459635416666664,
          "velocity": 0.11023622047244094
        },
        {
          "duration": 0,
          "durationTicks": 0,
          "midi": 51,
          "name": "D#3",
          "ticks": 41835,
          "time": 54.47265625,
          "velocity": 0.12598425196850394
        },
        {
          "duration": 0,
          "durationTicks": 0,
          "midi": 87,
          "name": "D#6",
          "ticks": 41844,
          "time": 54.484375,
          "velocity": 0.05511811023622047
        },
        {
          "duration": 0.25,
          "durationTicks": 192,
          "midi": 32,
          "name": "G#1",
          "ticks": 41844,
          "time": 54.484375,
          "velocity": 0.3464566929133858
        },
        {
          "duration": 0.125,
          "durationTicks": 96,
          "midi": 51,
          "name": "D#3",
          "ticks": 41880,
          "time": 54.53125,
          "velocity": 0.08661417322834646
        },
        {
          "duration": 0,
          "durationTicks": 0,
          "midi": 57,
          "name": "A3",
          "ticks": 41898,
          "time": 54.5546875,
          "velocity": 0.09448818897637795
        },
        {
          "duration": 0,
          "durationTicks": 0,
          "midi": 34,
          "name": "A#1",
          "ticks": 42058,
          "time": 54.763020833333336,
          "velocity": 0.3779527559055118
        },
        {
          "duration": 0.125,
          "durationTicks": 96,
          "midi": 53,
          "name": "F3",
          "ticks": 42058,
          "time": 54.763020833333336,
          "velocity": 0.09448818897637795
        },
        {
          "duration": 0,
          "durationTicks": 0,
          "midi": 34,
          "name": "A#1",
          "ticks": 42085,
          "time": 54.798177083333336,
          "velocity": 0.36220472440944884
        },
        {
          "duration": 0.125,
          "durationTicks": 96,
          "midi": 34,
          "name": "A#1",
          "ticks": 42112,
          "time": 54.833333333333336,
          "velocity": 0.3543307086614173
        },
        {
          "duration": 0,
          "durationTicks": 0,
          "midi": 34,
          "name": "A#1",
          "ticks": 42228,
          "time": 54.984375,
          "velocity": 0.36220472440944884
        },
        {
          "duration": 0.125,
          "durationTicks": 96,
          "midi": 35,
          "name": "B1",
          "ticks": 42245,
          "time": 55.006510416666664,
          "velocity": 0.36220472440944884
        },
        {
          "duration": 0.125,
          "durationTicks": 96,
          "midi": 54,
          "name": "F#3",
          "ticks": 42245,
          "time": 55.006510416666664,
          "velocity": 0.07086614173228346
        },
        {
          "duration": 0.1263020833333357,
          "durationTicks": 97,
          "midi": 36,
          "name": "C2",
          "ticks": 42317,
          "time": 55.100260416666664,
          "velocity": 0.36220472440944884
        },
        {
          "duration": 0.1263020833333357,
          "durationTicks": 97,
          "midi": 55,
          "name": "G3",
          "ticks": 42317,
          "time": 55.100260416666664,
          "velocity": 0.11023622047244094
        },
        {
          "duration": 0.2513020833333357,
          "durationTicks": 193,
          "midi": 67,
          "name": "G4",
          "ticks": 42398,
          "time": 55.205729166666664,
          "velocity": 0.08661417322834646
        },
        {
          "duration": 0.2513020833333357,
          "durationTicks": 193,
          "midi": 48,
          "name": "C3",
          "ticks": 42407,
          "time": 55.217447916666664,
          "velocity": 0.36220472440944884
        },
        {
          "duration": 0,
          "durationTicks": 0,
          "midi": 31,
          "name": "G1",
          "ticks": 42434,
          "time": 55.252604166666664,
          "velocity": 0.25984251968503935
        },
        {
          "duration": 0,
          "durationTicks": 0,
          "midi": 72,
          "name": "C5",
          "ticks": 42577,
          "time": 55.438802083333336,
          "velocity": 0.13385826771653545
        },
        {
          "duration": 0,
          "durationTicks": 0,
          "midi": 62,
          "name": "D4",
          "ticks": 42577,
          "time": 55.438802083333336,
          "velocity": 0.05511811023622047
        },
        {
          "duration": 0,
          "durationTicks": 0,
          "midi": 40,
          "name": "E2",
          "ticks": 42586,
          "time": 55.450520833333336,
          "velocity": 0.3464566929133858
        },
        {
          "duration": 0,
          "durationTicks": 0,
          "midi": 57,
          "name": "A3",
          "ticks": 42586,
          "time": 55.450520833333336,
          "velocity": 0.30708661417322836
        },
        {
          "duration": 0,
          "durationTicks": 0,
          "midi": 86,
          "name": "D6",
          "ticks": 42586,
          "time": 55.450520833333336,
          "velocity": 0.08661417322834646
        },
        {
          "duration": 0,
          "durationTicks": 0,
          "midi": 80,
          "name": "G#5",
          "ticks": 42586,
          "time": 55.450520833333336,
          "velocity": 0.11023622047244094
        },
        {
          "duration": 0,
          "durationTicks": 0,
          "midi": 90,
          "name": "F#6",
          "ticks": 42586,
          "time": 55.450520833333336,
          "velocity": 0.05511811023622047
        },
        {
          "duration": 0.25,
          "durationTicks": 192,
          "midi": 39,
          "name": "D#2",
          "ticks": 42605,
          "time": 55.475260416666664,
          "velocity": 0.3543307086614173
        },
        {
          "duration": 0,
          "durationTicks": 0,
          "midi": 66,
          "name": "F#4",
          "ticks": 42676,
          "time": 55.567708333333336,
          "velocity": 0.07874015748031496
        },
        {
          "duration": 0,
          "durationTicks": 0,
          "midi": 62,
          "name": "D4",
          "ticks": 42676,
          "time": 55.567708333333336,
          "velocity": 0.05511811023622047
        },
        {
          "duration": 0,
          "durationTicks": 0,
          "midi": 56,
          "name": "G#3",
          "ticks": 42703,
          "time": 55.602864583333336,
          "velocity": 0.2047244094488189
        },
        {
          "duration": 0,
          "durationTicks": 0,
          "midi": 58,
          "name": "A#3",
          "ticks": 42747,
          "time": 55.66015625,
          "velocity": 0.15748031496062992
        },
        {
          "duration": 0,
          "durationTicks": 0,
          "midi": 38,
          "name": "D2",
          "ticks": 42765,
          "time": 55.68359375,
          "velocity": 0.31496062992125984
        },
        {
          "duration": 0.25,
          "durationTicks": 192,
          "midi": 51,
          "name": "D#3",
          "ticks": 42774,
          "time": 55.6953125,
          "velocity": 0.36220472440944884
        },
        {
          "duration": 0,
          "durationTicks": 0,
          "midi": 31,
          "name": "G1",
          "ticks": 42792,
          "time": 55.71875,
          "velocity": 0.29133858267716534
        },
        {
          "duration": 0.2513020833333357,
          "durationTicks": 193,
          "midi": 70,
          "name": "A#4",
          "ticks": 42792,
          "time": 55.71875,
          "velocity": 0.09448818897637795
        },
        {
          "duration": 0,
          "durationTicks": 0,
          "midi": 29,
          "name": "F1",
          "ticks": 42971,
          "time": 55.951822916666664,
          "velocity": 0.4015748031496063
        },
        {
          "duration": 0,
          "durationTicks": 0,
          "midi": 30,
          "name": "F#1",
          "ticks": 42980,
          "time": 55.963541666666664,
          "velocity": 0.4251968503937008
        },
        {
          "duration": 0,
          "durationTicks": 0,
          "midi": 48,
          "name": "C3",
          "ticks": 43007,
          "time": 55.998697916666664,
          "velocity": 0.13385826771653545
        },
        {
          "duration": 0.125,
          "durationTicks": 96,
          "midi": 29,
          "name": "F1",
          "ticks": 43016,
          "time": 56.010416666666664,
          "velocity": 0.3779527559055118
        },
        {
          "duration": 0.125,
          "durationTicks": 96,
          "midi": 48,
          "name": "C3",
          "ticks": 43052,
          "time": 56.057291666666664,
          "velocity": 0.08661417322834646
        },
        {
          "duration": 0,
          "durationTicks": 0,
          "midi": 55,
          "name": "G3",
          "ticks": 43328,
          "time": 56.416666666666664,
          "velocity": 0.2440944881889764
        },
        {
          "duration": 0,
          "durationTicks": 0,
          "midi": 72,
          "name": "C5",
          "ticks": 43337,
          "time": 56.428385416666664,
          "velocity": 0.14173228346456693
        },
        {
          "duration": 0.1263020833333357,
          "durationTicks": 97,
          "midi": 68,
          "name": "G#4",
          "ticks": 43337,
          "time": 56.428385416666664,
          "velocity": 0.23622047244094488
        },
        {
          "duration": 0,
          "durationTicks": 0,
          "midi": 86,
          "name": "D6",
          "ticks": 43347,
          "time": 56.44140625,
          "velocity": 0.06299212598425197
        },
        {
          "duration": 0.125,
          "durationTicks": 96,
          "midi": 53,
          "name": "F3",
          "ticks": 43374,
          "time": 56.4765625,
          "velocity": 0.2204724409448819
        },
        {
          "duration": 0.25,
          "durationTicks": 192,
          "midi": 53,
          "name": "F3",
          "ticks": 43516,
          "time": 56.661458333333336,
          "velocity": 0.14173228346456693
        },
        {
          "duration": 0.125,
          "durationTicks": 96,
          "midi": 27,
          "name": "D#1",
          "ticks": 43526,
          "time": 56.674479166666664,
          "velocity": 0.36220472440944884
        },
        {
          "duration": 0.25,
          "durationTicks": 192,
          "midi": 68,
          "name": "G#4",
          "ticks": 43526,
          "time": 56.674479166666664,
          "velocity": 0.12598425196850394
        },
        {
          "duration": 0.125,
          "durationTicks": 96,
          "midi": 46,
          "name": "A#2",
          "ticks": 43543,
          "time": 56.696614583333336,
          "velocity": 0.11023622047244094
        },
        {
          "duration": 0,
          "durationTicks": 0,
          "midi": 28,
          "name": "E1",
          "ticks": 43713,
          "time": 56.91796875,
          "velocity": 0.3543307086614173
        },
        {
          "duration": 0,
          "durationTicks": 0,
          "midi": 29,
          "name": "F1",
          "ticks": 43731,
          "time": 56.94140625,
          "velocity": 0.4094488188976378
        },
        {
          "duration": 0,
          "durationTicks": 0,
          "midi": 30,
          "name": "F#1",
          "ticks": 43740,
          "time": 56.953125,
          "velocity": 0.4251968503937008
        },
        {
          "duration": 0,
          "durationTicks": 0,
          "midi": 48,
          "name": "C3",
          "ticks": 43767,
          "time": 56.98828125,
          "velocity": 0.13385826771653545
        },
        {
          "duration": 0.125,
          "durationTicks": 96,
          "midi": 29,
          "name": "F1",
          "ticks": 43776,
          "time": 57,
          "velocity": 0.3779527559055118
        },
        {
          "duration": 0.125,
          "durationTicks": 96,
          "midi": 48,
          "name": "C3",
          "ticks": 43812,
          "time": 57.046875,
          "velocity": 0.08661417322834646
        },
        {
          "duration": 0,
          "durationTicks": 0,
          "midi": 53,
          "name": "F3",
          "ticks": 43884,
          "time": 57.140625,
          "velocity": 0.11811023622047244
        },
        {
          "duration": 0.125,
          "durationTicks": 96,
          "midi": 68,
          "name": "G#4",
          "ticks": 43884,
          "time": 57.140625,
          "velocity": 0.06299212598425197
        },
        {
          "duration": 0.125,
          "durationTicks": 96,
          "midi": 58,
          "name": "A#3",
          "ticks": 43911,
          "time": 57.17578125,
          "velocity": 0.2440944881889764
        },
        {
          "duration": 0,
          "durationTicks": 0,
          "midi": 53,
          "name": "F3",
          "ticks": 43928,
          "time": 57.197916666666664,
          "velocity": 0.05511811023622047
        },
        {
          "duration": 0.1263020833333357,
          "durationTicks": 97,
          "midi": 60,
          "name": "C4",
          "ticks": 44009,
          "time": 57.303385416666664,
          "velocity": 0.2283464566929134
        },
        {
          "duration": 0,
          "durationTicks": 0,
          "midi": 68,
          "name": "G#4",
          "ticks": 44090,
          "time": 57.408854166666664,
          "velocity": 0.2204724409448819
        },
        {
          "duration": 0,
          "durationTicks": 0,
          "midi": 44,
          "name": "G#2",
          "ticks": 44090,
          "time": 57.408854166666664,
          "velocity": 0.3464566929133858
        },
        {
          "duration": 0,
          "durationTicks": 0,
          "midi": 90,
          "name": "F#6",
          "ticks": 44099,
          "time": 57.420572916666664,
          "velocity": 0.05511811023622047
        },
        {
          "duration": 0,
          "durationTicks": 0,
          "midi": 91,
          "name": "G6",
          "ticks": 44099,
          "time": 57.420572916666664,
          "velocity": 0.10236220472440945
        },
        {
          "duration": 0.1263020833333357,
          "durationTicks": 97,
          "midi": 63,
          "name": "D#4",
          "ticks": 44099,
          "time": 57.420572916666664,
          "velocity": 0.25196850393700787
        },
        {
          "duration": 0,
          "durationTicks": 0,
          "midi": 86,
          "name": "D6",
          "ticks": 44108,
          "time": 57.432291666666664,
          "velocity": 0.05511811023622047
        },
        {
          "duration": 0.1263020833333357,
          "durationTicks": 97,
          "midi": 67,
          "name": "G4",
          "ticks": 44108,
          "time": 57.432291666666664,
          "velocity": 0.25984251968503935
        },
        {
          "duration": 0,
          "durationTicks": 0,
          "midi": 57,
          "name": "A3",
          "ticks": 44118,
          "time": 57.4453125,
          "velocity": 0.29133858267716534
        },
        {
          "duration": 0,
          "durationTicks": 0,
          "midi": 87,
          "name": "D#6",
          "ticks": 44118,
          "time": 57.4453125,
          "velocity": 0.06299212598425197
        },
        {
          "duration": 0.1263020833333357,
          "durationTicks": 97,
          "midi": 43,
          "name": "G2",
          "ticks": 44118,
          "time": 57.4453125,
          "velocity": 0.3464566929133858
        },
        {
          "duration": 0,
          "durationTicks": 0,
          "midi": 58,
          "name": "A#3",
          "ticks": 44180,
          "time": 57.526041666666664,
          "velocity": 0.16535433070866143
        },
        {
          "duration": 0,
          "durationTicks": 0,
          "midi": 30,
          "name": "F#1",
          "ticks": 44189,
          "time": 57.537760416666664,
          "velocity": 0.3543307086614173
        },
        {
          "duration": 0.125,
          "durationTicks": 96,
          "midi": 31,
          "name": "G1",
          "ticks": 44208,
          "time": 57.5625,
          "velocity": 0.3543307086614173
        },
        {
          "duration": 0.125,
          "durationTicks": 96,
          "midi": 60,
          "name": "C4",
          "ticks": 44244,
          "time": 57.609375,
          "velocity": 0.15748031496062992
        },
        {
          "duration": 0.2513020833333357,
          "durationTicks": 193,
          "midi": 63,
          "name": "D#4",
          "ticks": 44271,
          "time": 57.64453125,
          "velocity": 0.2755905511811024
        },
        {
          "duration": 0.125,
          "durationTicks": 96,
          "midi": 67,
          "name": "G4",
          "ticks": 44288,
          "time": 57.666666666666664,
          "velocity": 0.11811023622047244
        },
        {
          "duration": 0.1263020833333357,
          "durationTicks": 97,
          "midi": 46,
          "name": "A#2",
          "ticks": 44306,
          "time": 57.690104166666664,
          "velocity": 0.2283464566929134
        },
        {
          "duration": 0,
          "durationTicks": 0,
          "midi": 68,
          "name": "G#4",
          "ticks": 44377,
          "time": 57.782552083333336,
          "velocity": 0.2047244094488189
        },
        {
          "duration": 0,
          "durationTicks": 0,
          "midi": 45,
          "name": "A2",
          "ticks": 44387,
          "time": 57.795572916666664,
          "velocity": 0.3464566929133858
        },
        {
          "duration": 0.1263020833333357,
          "durationTicks": 97,
          "midi": 82,
          "name": "A#5",
          "ticks": 44396,
          "time": 57.807291666666664,
          "velocity": 0.07086614173228346
        },
        {
          "duration": 0.1263020833333357,
          "durationTicks": 97,
          "midi": 67,
          "name": "G4",
          "ticks": 44396,
          "time": 57.807291666666664,
          "velocity": 0.2283464566929134
        },
        {
          "duration": 0,
          "durationTicks": 0,
          "midi": 60,
          "name": "C4",
          "ticks": 44405,
          "time": 57.819010416666664,
          "velocity": 0.29133858267716534
        },
        {
          "duration": 0,
          "durationTicks": 0,
          "midi": 31,
          "name": "G1",
          "ticks": 44405,
          "time": 57.819010416666664,
          "velocity": 0.29133858267716534
        },
        {
          "duration": 0.125,
          "durationTicks": 96,
          "midi": 44,
          "name": "G#2",
          "ticks": 44415,
          "time": 57.83203125,
          "velocity": 0.3543307086614173
        },
        {
          "duration": 0,
          "durationTicks": 0,
          "midi": 29,
          "name": "F1",
          "ticks": 44451,
          "time": 57.87890625,
          "velocity": 0.1732283464566929
        },
        {
          "duration": 0.25,
          "durationTicks": 192,
          "midi": 63,
          "name": "D#4",
          "ticks": 44557,
          "time": 58.016927083333336,
          "velocity": 0.18110236220472442
        },
        {
          "duration": 0.125,
          "durationTicks": 96,
          "midi": 44,
          "name": "G#2",
          "ticks": 44575,
          "time": 58.040364583333336,
          "velocity": 0.3779527559055118
        },
        {
          "duration": 0.25,
          "durationTicks": 192,
          "midi": 67,
          "name": "G4",
          "ticks": 44575,
          "time": 58.040364583333336,
          "velocity": 0.11811023622047244
        },
        {
          "duration": 0,
          "durationTicks": 0,
          "midi": 60,
          "name": "C4",
          "ticks": 44673,
          "time": 58.16796875,
          "velocity": 0.1732283464566929
        },
        {
          "duration": 0,
          "durationTicks": 0,
          "midi": 32,
          "name": "G#1",
          "ticks": 44691,
          "time": 58.19140625,
          "velocity": 0.3464566929133858
        },
        {
          "duration": 0,
          "durationTicks": 0,
          "midi": 60,
          "name": "C4",
          "ticks": 44700,
          "time": 58.203125,
          "velocity": 0.13385826771653545
        },
        {
          "duration": 0,
          "durationTicks": 0,
          "midi": 33,
          "name": "A1",
          "ticks": 44710,
          "time": 58.216145833333336,
          "velocity": 0.31496062992125984
        },
        {
          "duration": 0,
          "durationTicks": 0,
          "midi": 72,
          "name": "C5",
          "ticks": 44851,
          "time": 58.399739583333336,
          "velocity": 0.12598425196850394
        },
        {
          "duration": 0,
          "durationTicks": 0,
          "midi": 56,
          "name": "G#3",
          "ticks": 44861,
          "time": 58.412760416666664,
          "velocity": 0.2992125984251969
        },
        {
          "duration": 0,
          "durationTicks": 0,
          "midi": 86,
          "name": "D6",
          "ticks": 44861,
          "time": 58.412760416666664,
          "velocity": 0.06299212598425197
        },
        {
          "duration": 0,
          "durationTicks": 0,
          "midi": 80,
          "name": "G#5",
          "ticks": 44861,
          "time": 58.412760416666664,
          "velocity": 0.11023622047244094
        },
        {
          "duration": 0.2513020833333357,
          "durationTicks": 193,
          "midi": 32,
          "name": "G#1",
          "ticks": 44870,
          "time": 58.424479166666664,
          "velocity": 0.3464566929133858
        },
        {
          "duration": 0,
          "durationTicks": 0,
          "midi": 57,
          "name": "A3",
          "ticks": 44879,
          "time": 58.436197916666664,
          "velocity": 0.2677165354330709
        },
        {
          "duration": 0.125,
          "durationTicks": 96,
          "midi": 67,
          "name": "G4",
          "ticks": 44889,
          "time": 58.44921875,
          "velocity": 0.09448818897637795
        },
        {
          "duration": 0.125,
          "durationTicks": 96,
          "midi": 63,
          "name": "D#4",
          "ticks": 44889,
          "time": 58.44921875,
          "velocity": 0.09448818897637795
        },
        {
          "duration": 0.125,
          "durationTicks": 96,
          "midi": 51,
          "name": "D#3",
          "ticks": 44898,
          "time": 58.4609375,
          "velocity": 0.08661417322834646
        },
        {
          "duration": 0,
          "durationTicks": 0,
          "midi": 67,
          "name": "G4",
          "ticks": 45237,
          "time": 58.90234375,
          "velocity": 0.06299212598425197
        },
        {
          "duration": 0,
          "durationTicks": 0,
          "midi": 55,
          "name": "G3",
          "ticks": 45247,
          "time": 58.915364583333336,
          "velocity": 0.08661417322834646
        },
        {
          "duration": 0,
          "durationTicks": 0,
          "midi": 35,
          "name": "B1",
          "ticks": 45264,
          "time": 58.9375,
          "velocity": 0.4015748031496063
        },
        {
          "duration": 0.125,
          "durationTicks": 96,
          "midi": 55,
          "name": "G3",
          "ticks": 45282,
          "time": 58.9609375,
          "velocity": 0.08661417322834646
        },
        {
          "duration": 0,
          "durationTicks": 0,
          "midi": 37,
          "name": "C#2",
          "ticks": 45291,
          "time": 58.97265625,
          "velocity": 0.36220472440944884
        },
        {
          "duration": 0.125,
          "durationTicks": 96,
          "midi": 36,
          "name": "C2",
          "ticks": 45309,
          "time": 58.99609375,
          "velocity": 0.3779527559055118
        },
        {
          "duration": 0.125,
          "durationTicks": 96,
          "midi": 84,
          "name": "C6",
          "ticks": 45326,
          "time": 59.018229166666664,
          "velocity": 0.1968503937007874
        },
        {
          "duration": 0.125,
          "durationTicks": 96,
          "midi": 80,
          "name": "G#5",
          "ticks": 45425,
          "time": 59.147135416666664,
          "velocity": 0.2125984251968504
        },
        {
          "duration": 0.25,
          "durationTicks": 192,
          "midi": 67,
          "name": "G4",
          "ticks": 45425,
          "time": 59.147135416666664,
          "velocity": 0.11023622047244094
        },
        {
          "duration": 0,
          "durationTicks": 0,
          "midi": 31,
          "name": "G1",
          "ticks": 45442,
          "time": 59.169270833333336,
          "velocity": 0.29133858267716534
        },
        {
          "duration": 0.125,
          "durationTicks": 96,
          "midi": 79,
          "name": "G5",
          "ticks": 45514,
          "time": 59.263020833333336,
          "velocity": 0.2047244094488189
        },
        {
          "duration": 0.125,
          "durationTicks": 96,
          "midi": 84,
          "name": "C6",
          "ticks": 45541,
          "time": 59.298177083333336,
          "velocity": 0.08661417322834646
        },
        {
          "duration": 0,
          "durationTicks": 0,
          "midi": 62,
          "name": "D4",
          "ticks": 45612,
          "time": 59.390625,
          "velocity": 0.09448818897637795
        },
        {
          "duration": 0.125,
          "durationTicks": 96,
          "midi": 75,
          "name": "D#5",
          "ticks": 45612,
          "time": 59.390625,
          "velocity": 0.2125984251968504
        },
        {
          "duration": 0.125,
          "durationTicks": 96,
          "midi": 80,
          "name": "G#5",
          "ticks": 45612,
          "time": 59.390625,
          "velocity": 0.18110236220472442
        },
        {
          "duration": 0,
          "durationTicks": 0,
          "midi": 35,
          "name": "B1",
          "ticks": 45621,
          "time": 59.40234375,
          "velocity": 0.3543307086614173
        },
        {
          "duration": 0,
          "durationTicks": 0,
          "midi": 86,
          "name": "D6",
          "ticks": 45621,
          "time": 59.40234375,
          "velocity": 0.05511811023622047
        },
        {
          "duration": 0,
          "durationTicks": 0,
          "midi": 84,
          "name": "C6",
          "ticks": 45639,
          "time": 59.42578125,
          "velocity": 0.10236220472440945
        },
        {
          "duration": 0.125,
          "durationTicks": 96,
          "midi": 34,
          "name": "A#1",
          "ticks": 45639,
          "time": 59.42578125,
          "velocity": 0.36220472440944884
        },
        {
          "duration": 0,
          "durationTicks": 0,
          "midi": 53,
          "name": "F3",
          "ticks": 45657,
          "time": 59.44921875,
          "velocity": 0.08661417322834646
        },
        {
          "duration": 0.1263020833333357,
          "durationTicks": 97,
          "midi": 72,
          "name": "C5",
          "ticks": 45710,
          "time": 59.518229166666664,
          "velocity": 0.1968503937007874
        },
        {
          "duration": 0.1276041666666714,
          "durationTicks": 98,
          "midi": 79,
          "name": "G5",
          "ticks": 45728,
          "time": 59.541666666666664,
          "velocity": 0.09448818897637795
        },
        {
          "duration": 0,
          "durationTicks": 0,
          "midi": 33,
          "name": "A1",
          "ticks": 45737,
          "time": 59.553385416666664,
          "velocity": 0.4015748031496063
        },
        {
          "duration": 0,
          "durationTicks": 0,
          "midi": 34,
          "name": "A#1",
          "ticks": 45747,
          "time": 59.56640625,
          "velocity": 0.4015748031496063
        },
        {
          "duration": 0,
          "durationTicks": 0,
          "midi": 53,
          "name": "F3",
          "ticks": 45764,
          "time": 59.588541666666664,
          "velocity": 0.11023622047244094
        },
        {
          "duration": 0,
          "durationTicks": 0,
          "midi": 35,
          "name": "B1",
          "ticks": 45774,
          "time": 59.6015625,
          "velocity": 0.33858267716535434
        },
        {
          "duration": 0,
          "durationTicks": 0,
          "midi": 34,
          "name": "A#1",
          "ticks": 45791,
          "time": 59.623697916666664,
          "velocity": 0.31496062992125984
        },
        {
          "duration": 0,
          "durationTicks": 0,
          "midi": 47,
          "name": "B2",
          "ticks": 45801,
          "time": 59.63671875,
          "velocity": 0.33070866141732286
        },
        {
          "duration": 0.1263020833333357,
          "durationTicks": 97,
          "midi": 65,
          "name": "F4",
          "ticks": 45801,
          "time": 59.63671875,
          "velocity": 0.08661417322834646
        },
        {
          "duration": 0.1263020833333357,
          "durationTicks": 97,
          "midi": 68,
          "name": "G#4",
          "ticks": 45801,
          "time": 59.63671875,
          "velocity": 0.1968503937007874
        },
        {
          "duration": 0.2513020833333357,
          "durationTicks": 193,
          "midi": 46,
          "name": "A#2",
          "ticks": 45819,
          "time": 59.66015625,
          "velocity": 0.33858267716535434
        },
        {
          "duration": 0.1263020833333357,
          "durationTicks": 97,
          "midi": 75,
          "name": "D#5",
          "ticks": 45828,
          "time": 59.671875,
          "velocity": 0.09448818897637795
        },
        {
          "duration": 0.1263020833333357,
          "durationTicks": 97,
          "midi": 72,
          "name": "C5",
          "ticks": 45891,
          "time": 59.75390625,
          "velocity": 0.15748031496062992
        },
        {
          "duration": 0,
          "durationTicks": 0,
          "midi": 56,
          "name": "G#3",
          "ticks": 45900,
          "time": 59.765625,
          "velocity": 0.29133858267716534
        },
        {
          "duration": 0,
          "durationTicks": 0,
          "midi": 62,
          "name": "D4",
          "ticks": 45900,
          "time": 59.765625,
          "velocity": 0.05511811023622047
        },
        {
          "duration": 0.125,
          "durationTicks": 96,
          "midi": 67,
          "name": "G4",
          "ticks": 45909,
          "time": 59.77734375,
          "velocity": 0.2283464566929134
        },
        {
          "duration": 0,
          "durationTicks": 0,
          "midi": 57,
          "name": "A3",
          "ticks": 45918,
          "time": 59.7890625,
          "velocity": 0.29133858267716534
        },
        {
          "duration": 0,
          "durationTicks": 0,
          "midi": 28,
          "name": "E1",
          "ticks": 45990,
          "time": 59.8828125,
          "velocity": 0.3700787401574803
        },
        {
          "duration": 0,
          "durationTicks": 0,
          "midi": 29,
          "name": "F1",
          "ticks": 46007,
          "time": 59.904947916666664,
          "velocity": 0.4094488188976378
        },
        {
          "duration": 0,
          "durationTicks": 0,
          "midi": 48,
          "name": "C3",
          "ticks": 46007,
          "time": 59.904947916666664,
          "velocity": 0.2047244094488189
        },
        {
          "duration": 0.1263020833333357,
          "durationTicks": 97,
          "midi": 68,
          "name": "G#4",
          "ticks": 46007,
          "time": 59.904947916666664,
          "velocity": 0.11811023622047244
        },
        {
          "duration": 0,
          "durationTicks": 0,
          "midi": 30,
          "name": "F#1",
          "ticks": 46017,
          "time": 59.91796875,
          "velocity": 0.4251968503937008
        },
        {
          "duration": 0,
          "durationTicks": 0,
          "midi": 72,
          "name": "C5",
          "ticks": 46017,
          "time": 59.91796875,
          "velocity": 0.05511811023622047
        },
        {
          "duration": 0,
          "durationTicks": 0,
          "midi": 48,
          "name": "C3",
          "ticks": 46044,
          "time": 59.953125,
          "velocity": 0.13385826771653545
        },
        {
          "duration": 0,
          "durationTicks": 0,
          "midi": 29,
          "name": "F1",
          "ticks": 46053,
          "time": 59.96484375,
          "velocity": 0.3779527559055118
        },
        {
          "duration": 0.125,
          "durationTicks": 96,
          "midi": 63,
          "name": "D#4",
          "ticks": 46089,
          "time": 60.01171875,
          "velocity": 0.1968503937007874
        },
        {
          "duration": 0.1263020833333357,
          "durationTicks": 97,
          "midi": 67,
          "name": "G4",
          "ticks": 46178,
          "time": 60.127604166666664,
          "velocity": 0.07086614173228346
        },
        {
          "duration": 0.1263020833333357,
          "durationTicks": 97,
          "midi": 60,
          "name": "C4",
          "ticks": 46178,
          "time": 60.127604166666664,
          "velocity": 0.1968503937007874
        },
        {
          "duration": 0.1263020833333357,
          "durationTicks": 97,
          "midi": 29,
          "name": "F1",
          "ticks": 46188,
          "time": 60.140625,
          "velocity": 0.36220472440944884
        },
        {
          "duration": 0.1263020833333357,
          "durationTicks": 97,
          "midi": 48,
          "name": "C3",
          "ticks": 46197,
          "time": 60.15234375,
          "velocity": 0.08661417322834646
        },
        {
          "duration": 0.125,
          "durationTicks": 96,
          "midi": 58,
          "name": "A#3",
          "ticks": 46287,
          "time": 60.26953125,
          "velocity": 0.2047244094488189
        },
        {
          "duration": 0.1158854166666643,
          "durationTicks": 89,
          "midi": 63,
          "name": "D#4",
          "ticks": 46314,
          "time": 60.3046875,
          "velocity": 0.08661417322834646
        },
        {
          "duration": 0,
          "durationTicks": 0,
          "midi": 84,
          "name": "C6",
          "ticks": 46376,
          "time": 60.385416666666664,
          "velocity": 0.07874015748031496
        },
        {
          "duration": 0,
          "durationTicks": 0,
          "midi": 86,
          "name": "D6",
          "ticks": 46376,
          "time": 60.385416666666664,
          "velocity": 0.05511811023622047
        },
        {
          "duration": 0,
          "durationTicks": 0,
          "midi": 80,
          "name": "G#5",
          "ticks": 46376,
          "time": 60.385416666666664,
          "velocity": 0.11023622047244094
        },
        {
          "duration": 0.2513020833333357,
          "durationTicks": 193,
          "midi": 41,
          "name": "F2",
          "ticks": 46376,
          "time": 60.385416666666664,
          "velocity": 0.36220472440944884
        },
        {
          "duration": 0.009114583333335702,
          "durationTicks": 7,
          "midi": 63,
          "name": "D#4",
          "ticks": 46403,
          "time": 60.420572916666664,
          "velocity": 0.05511811023622047
        },
        {
          "duration": 0.1263020833333357,
          "durationTicks": 97,
          "midi": 60,
          "name": "C4",
          "ticks": 46403,
          "time": 60.420572916666664,
          "velocity": 0.25196850393700787
        },
        {
          "duration": 0,
          "durationTicks": 0,
          "midi": 67,
          "name": "G4",
          "ticks": 46466,
          "time": 60.502604166666664,
          "velocity": 0.05511811023622047
        },
        {
          "duration": 0,
          "durationTicks": 0,
          "midi": 60,
          "name": "C4",
          "ticks": 46547,
          "time": 60.608072916666664,
          "velocity": 0.2047244094488189
        },
        {
          "duration": 0,
          "durationTicks": 0,
          "midi": 58,
          "name": "A#3",
          "ticks": 46582,
          "time": 60.653645833333336,
          "velocity": 0.08661417322834646
        },
        {
          "duration": 0.125,
          "durationTicks": 96,
          "midi": 46,
          "name": "A#2",
          "ticks": 46582,
          "time": 60.653645833333336,
          "velocity": 0.07086614173228346
        },
        {
          "duration": 0.125,
          "durationTicks": 96,
          "midi": 27,
          "name": "D#1",
          "ticks": 46582,
          "time": 60.653645833333336,
          "velocity": 0.3543307086614173
        },
        {
          "duration": 0.125,
          "durationTicks": 96,
          "midi": 63,
          "name": "D#4",
          "ticks": 46671,
          "time": 60.76953125,
          "velocity": 0.14960629921259844
        },
        {
          "duration": 0.125,
          "durationTicks": 96,
          "midi": 60,
          "name": "C4",
          "ticks": 46680,
          "time": 60.78125,
          "velocity": 0.11023622047244094
        },
        {
          "duration": 0,
          "durationTicks": 0,
          "midi": 45,
          "name": "A2",
          "ticks": 46752,
          "time": 60.875,
          "velocity": 0.25196850393700787
        },
        {
          "duration": 0,
          "durationTicks": 0,
          "midi": 30,
          "name": "F#1",
          "ticks": 46769,
          "time": 60.897135416666664,
          "velocity": 0.4251968503937008
        },
        {
          "duration": 0.1263020833333357,
          "durationTicks": 97,
          "midi": 60,
          "name": "C4",
          "ticks": 46769,
          "time": 60.897135416666664,
          "velocity": 0.07874015748031496
        },
        {
          "duration": 0,
          "durationTicks": 0,
          "midi": 48,
          "name": "C3",
          "ticks": 46805,
          "time": 60.944010416666664,
          "velocity": 0.13385826771653545
        },
        {
          "duration": 0.125,
          "durationTicks": 96,
          "midi": 29,
          "name": "F1",
          "ticks": 46815,
          "time": 60.95703125,
          "velocity": 0.3779527559055118
        },
        {
          "duration": 0,
          "durationTicks": 0,
          "midi": 58,
          "name": "A#3",
          "ticks": 46824,
          "time": 60.96875,
          "velocity": 0.07874015748031496
        },
        {
          "duration": 0.125,
          "durationTicks": 96,
          "midi": 67,
          "name": "G4",
          "ticks": 46842,
          "time": 60.9921875,
          "velocity": 0.1968503937007874
        },
        {
          "duration": 0.25,
          "durationTicks": 192,
          "midi": 63,
          "name": "D#4",
          "ticks": 46842,
          "time": 60.9921875,
          "velocity": 0.07874015748031496
        },
        {
          "duration": 0.125,
          "durationTicks": 96,
          "midi": 48,
          "name": "C3",
          "ticks": 46851,
          "time": 61.00390625,
          "velocity": 0.08661417322834646
        },
        {
          "duration": 0.1263020833333286,
          "durationTicks": 97,
          "midi": 68,
          "name": "G#4",
          "ticks": 47047,
          "time": 61.259114583333336,
          "velocity": 0.2125984251968504
        },
        {
          "duration": 0,
          "durationTicks": 0,
          "midi": 44,
          "name": "G#2",
          "ticks": 47127,
          "time": 61.36328125,
          "velocity": 0.3464566929133858
        },
        {
          "duration": 0,
          "durationTicks": 0,
          "midi": 72,
          "name": "C5",
          "ticks": 47127,
          "time": 61.36328125,
          "velocity": 0.11811023622047244
        },
        {
          "duration": 0,
          "durationTicks": 0,
          "midi": 86,
          "name": "D6",
          "ticks": 47137,
          "time": 61.376302083333336,
          "velocity": 0.06299212598425197
        },
        {
          "duration": 0,
          "durationTicks": 0,
          "midi": 80,
          "name": "G#5",
          "ticks": 47137,
          "time": 61.376302083333336,
          "velocity": 0.11023622047244094
        },
        {
          "duration": 0,
          "durationTicks": 0,
          "midi": 90,
          "name": "F#6",
          "ticks": 47146,
          "time": 61.388020833333336,
          "velocity": 0.05511811023622047
        },
        {
          "duration": 0.125,
          "durationTicks": 96,
          "midi": 43,
          "name": "G2",
          "ticks": 47146,
          "time": 61.388020833333336,
          "velocity": 0.3543307086614173
        },
        {
          "duration": 0,
          "durationTicks": 0,
          "midi": 63,
          "name": "D#4",
          "ticks": 47190,
          "time": 61.4453125,
          "velocity": 0.13385826771653545
        },
        {
          "duration": 0,
          "durationTicks": 0,
          "midi": 57,
          "name": "A3",
          "ticks": 47208,
          "time": 61.46875,
          "velocity": 0.11023622047244094
        },
        {
          "duration": 0.1263020833333357,
          "durationTicks": 97,
          "midi": 67,
          "name": "G4",
          "ticks": 47217,
          "time": 61.48046875,
          "velocity": 0.2125984251968504
        },
        {
          "duration": 0.1263020833333357,
          "durationTicks": 97,
          "midi": 31,
          "name": "G1",
          "ticks": 47244,
          "time": 61.515625,
          "velocity": 0.3543307086614173
        },
        {
          "duration": 0.1263020833333357,
          "durationTicks": 97,
          "midi": 50,
          "name": "D3",
          "ticks": 47253,
          "time": 61.52734375,
          "velocity": 0.08661417322834646
        },
        {
          "duration": 0,
          "durationTicks": 0,
          "midi": 68,
          "name": "G#4",
          "ticks": 47280,
          "time": 61.5625,
          "velocity": 0.18110236220472442
        },
        {
          "duration": 0,
          "durationTicks": 0,
          "midi": 68,
          "name": "G#4",
          "ticks": 47307,
          "time": 61.59765625,
          "velocity": 0.15748031496062992
        },
        {
          "duration": 0.1263020833333286,
          "durationTicks": 97,
          "midi": 63,
          "name": "D#4",
          "ticks": 47317,
          "time": 61.610677083333336,
          "velocity": 0.1968503937007874
        },
        {
          "duration": 0.1276041666666643,
          "durationTicks": 98,
          "midi": 67,
          "name": "G4",
          "ticks": 47407,
          "time": 61.727864583333336,
          "velocity": 0.08661417322834646
        },
        {
          "duration": 0,
          "durationTicks": 0,
          "midi": 44,
          "name": "G#2",
          "ticks": 47416,
          "time": 61.739583333333336,
          "velocity": 0.3858267716535433
        },
        {
          "duration": 0.1263020833333286,
          "durationTicks": 97,
          "midi": 60,
          "name": "C4",
          "ticks": 47425,
          "time": 61.751302083333336,
          "velocity": 0.23622047244094488
        },
        {
          "duration": 0,
          "durationTicks": 0,
          "midi": 45,
          "name": "A2",
          "ticks": 47435,
          "time": 61.764322916666664,
          "velocity": 0.3779527559055118
        },
        {
          "duration": 0,
          "durationTicks": 0,
          "midi": 31,
          "name": "G1",
          "ticks": 47444,
          "time": 61.776041666666664,
          "velocity": 0.29133858267716534
        },
        {
          "duration": 0.125,
          "durationTicks": 96,
          "midi": 44,
          "name": "G#2",
          "ticks": 47453,
          "time": 61.787760416666664,
          "velocity": 0.36220472440944884
        },
        {
          "duration": 0.125,
          "durationTicks": 96,
          "midi": 51,
          "name": "D#3",
          "ticks": 47534,
          "time": 61.893229166666664,
          "velocity": 0.2125984251968504
        },
        {
          "duration": 0,
          "durationTicks": 0,
          "midi": 68,
          "name": "G#4",
          "ticks": 47605,
          "time": 61.985677083333336,
          "velocity": 0.06299212598425197
        },
        {
          "duration": 0.125,
          "durationTicks": 96,
          "midi": 44,
          "name": "G#2",
          "ticks": 47605,
          "time": 61.985677083333336,
          "velocity": 0.36220472440944884
        },
        {
          "duration": 0.125,
          "durationTicks": 96,
          "midi": 52,
          "name": "E3",
          "ticks": 47615,
          "time": 61.998697916666664,
          "velocity": 0.2283464566929134
        },
        {
          "duration": 0.125,
          "durationTicks": 96,
          "midi": 60,
          "name": "C4",
          "ticks": 47615,
          "time": 61.998697916666664,
          "velocity": 0.18110236220472442
        },
        {
          "duration": 0,
          "durationTicks": 0,
          "midi": 73,
          "name": "C#5",
          "ticks": 47694,
          "time": 62.1015625,
          "velocity": 0.1889763779527559
        },
        {
          "duration": 0,
          "durationTicks": 0,
          "midi": 68,
          "name": "G#4",
          "ticks": 47694,
          "time": 62.1015625,
          "velocity": 0.25984251968503935
        },
        {
          "duration": 0,
          "durationTicks": 0,
          "midi": 30,
          "name": "F#1",
          "ticks": 47704,
          "time": 62.114583333333336,
          "velocity": 0.36220472440944884
        },
        {
          "duration": 0,
          "durationTicks": 0,
          "midi": 62,
          "name": "D4",
          "ticks": 47713,
          "time": 62.126302083333336,
          "velocity": 0.4015748031496063
        },
        {
          "duration": 0,
          "durationTicks": 0,
          "midi": 67,
          "name": "G4",
          "ticks": 47713,
          "time": 62.126302083333336,
          "velocity": 0.1968503937007874
        },
        {
          "duration": 0.1263020833333286,
          "durationTicks": 97,
          "midi": 52,
          "name": "E3",
          "ticks": 47713,
          "time": 62.126302083333336,
          "velocity": 0.25196850393700787
        },
        {
          "duration": 0.1263020833333286,
          "durationTicks": 97,
          "midi": 75,
          "name": "D#5",
          "ticks": 47713,
          "time": 62.126302083333336,
          "velocity": 0.18110236220472442
        },
        {
          "duration": 0.1263020833333286,
          "durationTicks": 97,
          "midi": 72,
          "name": "C5",
          "ticks": 47713,
          "time": 62.126302083333336,
          "velocity": 0.2125984251968504
        },
        {
          "duration": 0,
          "durationTicks": 0,
          "midi": 61,
          "name": "C#4",
          "ticks": 47722,
          "time": 62.138020833333336,
          "velocity": 0.3937007874015748
        },
        {
          "duration": 0,
          "durationTicks": 0,
          "midi": 32,
          "name": "G#1",
          "ticks": 47732,
          "time": 62.151041666666664,
          "velocity": 0.33858267716535434
        },
        {
          "duration": 0,
          "durationTicks": 0,
          "midi": 68,
          "name": "G#4",
          "ticks": 47732,
          "time": 62.151041666666664,
          "velocity": 0.25984251968503935
        },
        {
          "duration": 0,
          "durationTicks": 0,
          "midi": 60,
          "name": "C4",
          "ticks": 47741,
          "time": 62.162760416666664,
          "velocity": 0.3700787401574803
        },
        {
          "duration": 0,
          "durationTicks": 0,
          "midi": 33,
          "name": "A1",
          "ticks": 47750,
          "time": 62.174479166666664,
          "velocity": 0.31496062992125984
        },
        {
          "duration": 0,
          "durationTicks": 0,
          "midi": 68,
          "name": "G#4",
          "ticks": 47768,
          "time": 62.197916666666664,
          "velocity": 0.1968503937007874
        },
        {
          "duration": 0.125,
          "durationTicks": 96,
          "midi": 53,
          "name": "F3",
          "ticks": 47768,
          "time": 62.197916666666664,
          "velocity": 0.23622047244094488
        },
        {
          "duration": 0,
          "durationTicks": 0,
          "midi": 59,
          "name": "B3",
          "ticks": 47785,
          "time": 62.220052083333336,
          "velocity": 0.2283464566929134
        },
        {
          "duration": 0.1263020833333286,
          "durationTicks": 97,
          "midi": 54,
          "name": "F#3",
          "ticks": 47839,
          "time": 62.290364583333336,
          "velocity": 0.31496062992125984
        },
        {
          "duration": 0,
          "durationTicks": 0,
          "midi": 68,
          "name": "G#4",
          "ticks": 47857,
          "time": 62.313802083333336,
          "velocity": 0.09448818897637795
        },
        {
          "duration": 0,
          "durationTicks": 0,
          "midi": 58,
          "name": "A#3",
          "ticks": 47893,
          "time": 62.360677083333336,
          "velocity": 0.4251968503937008
        },
        {
          "duration": 0,
          "durationTicks": 0,
          "midi": 86,
          "name": "D6",
          "ticks": 47893,
          "time": 62.360677083333336,
          "velocity": 0.12598425196850394
        },
        {
          "duration": 0.125,
          "durationTicks": 96,
          "midi": 72,
          "name": "C5",
          "ticks": 47893,
          "time": 62.360677083333336,
          "velocity": 0.14173228346456693
        },
        {
          "duration": 0.125,
          "durationTicks": 96,
          "midi": 68,
          "name": "G#4",
          "ticks": 47902,
          "time": 62.372395833333336,
          "velocity": 0.11811023622047244
        },
        {
          "duration": 0.125,
          "durationTicks": 96,
          "midi": 75,
          "name": "D#5",
          "ticks": 47902,
          "time": 62.372395833333336,
          "velocity": 0.14173228346456693
        },
        {
          "duration": 0,
          "durationTicks": 0,
          "midi": 63,
          "name": "D#4",
          "ticks": 47912,
          "time": 62.385416666666664,
          "velocity": 0.11023622047244094
        },
        {
          "duration": 0.25,
          "durationTicks": 192,
          "midi": 32,
          "name": "G#1",
          "ticks": 47912,
          "time": 62.385416666666664,
          "velocity": 0.3464566929133858
        },
        {
          "duration": 0,
          "durationTicks": 0,
          "midi": 57,
          "name": "A3",
          "ticks": 47921,
          "time": 62.397135416666664,
          "velocity": 0.3937007874015748
        },
        {
          "duration": 0,
          "durationTicks": 0,
          "midi": 51,
          "name": "D#3",
          "ticks": 47921,
          "time": 62.397135416666664,
          "velocity": 0.1889763779527559
        },
        {
          "duration": 0,
          "durationTicks": 0,
          "midi": 56,
          "name": "G#3",
          "ticks": 47938,
          "time": 62.419270833333336,
          "velocity": 0.33858267716535434
        },
        {
          "duration": 0,
          "durationTicks": 0,
          "midi": 57,
          "name": "A3",
          "ticks": 47974,
          "time": 62.466145833333336,
          "velocity": 0.31496062992125984
        },
        {
          "duration": 0,
          "durationTicks": 0,
          "midi": 56,
          "name": "G#3",
          "ticks": 47991,
          "time": 62.48828125,
          "velocity": 0.4251968503937008
        },
        {
          "duration": 0,
          "durationTicks": 0,
          "midi": 75,
          "name": "D#5",
          "ticks": 48018,
          "time": 62.5234375,
          "velocity": 0.06299212598425197
        },
        {
          "duration": 0,
          "durationTicks": 0,
          "midi": 68,
          "name": "G#4",
          "ticks": 48027,
          "time": 62.53515625,
          "velocity": 0.11023622047244094
        },
        {
          "duration": 0,
          "durationTicks": 0,
          "midi": 54,
          "name": "F#3",
          "ticks": 48037,
          "time": 62.548177083333336,
          "velocity": 0.3700787401574803
        },
        {
          "duration": 0.1263020833333286,
          "durationTicks": 97,
          "midi": 68,
          "name": "G#4",
          "ticks": 48064,
          "time": 62.583333333333336,
          "velocity": 0.08661417322834646
        },
        {
          "duration": 0,
          "durationTicks": 0,
          "midi": 33,
          "name": "A1",
          "ticks": 48091,
          "time": 62.618489583333336,
          "velocity": 0.2992125984251969
        },
        {
          "duration": 0,
          "durationTicks": 0,
          "midi": 36,
          "name": "C2",
          "ticks": 48108,
          "time": 62.640625,
          "velocity": 0.33858267716535434
        },
        {
          "duration": 0,
          "durationTicks": 0,
          "midi": 59,
          "name": "B3",
          "ticks": 48108,
          "time": 62.640625,
          "velocity": 0.2440944881889764
        },
        {
          "duration": 0.0833333333333286,
          "durationTicks": 64,
          "midi": 53,
          "name": "F3",
          "ticks": 48118,
          "time": 62.653645833333336,
          "velocity": 0.25984251968503935
        },
        {
          "duration": 0,
          "durationTicks": 0,
          "midi": 34,
          "name": "A#1",
          "ticks": 48127,
          "time": 62.665364583333336,
          "velocity": 0.3779527559055118
        },
        {
          "duration": 0,
          "durationTicks": 0,
          "midi": 59,
          "name": "B3",
          "ticks": 48136,
          "time": 62.677083333333336,
          "velocity": 0.2204724409448819
        },
        {
          "duration": 0,
          "durationTicks": 0,
          "midi": 34,
          "name": "A#1",
          "ticks": 48154,
          "time": 62.700520833333336,
          "velocity": 0.36220472440944884
        },
        {
          "duration": 0.1276041666666643,
          "durationTicks": 98,
          "midi": 60,
          "name": "C4",
          "ticks": 48154,
          "time": 62.700520833333336,
          "velocity": 0.2283464566929134
        },
        {
          "duration": 0,
          "durationTicks": 0,
          "midi": 35,
          "name": "B1",
          "ticks": 48172,
          "time": 62.723958333333336,
          "velocity": 0.36220472440944884
        },
        {
          "duration": 0,
          "durationTicks": 0,
          "midi": 72,
          "name": "C5",
          "ticks": 48172,
          "time": 62.723958333333336,
          "velocity": 0.28346456692913385
        },
        {
          "duration": 0,
          "durationTicks": 0,
          "midi": 79,
          "name": "G5",
          "ticks": 48172,
          "time": 62.723958333333336,
          "velocity": 0.09448818897637795
        },
        {
          "duration": 0.3828125,
          "durationTicks": 294,
          "midi": 77,
          "name": "F5",
          "ticks": 48172,
          "time": 62.723958333333336,
          "velocity": 0.1968503937007874
        },
        {
          "duration": 0.0442708333333357,
          "durationTicks": 34,
          "midi": 53,
          "name": "F3",
          "ticks": 48182,
          "time": 62.736979166666664,
          "velocity": 0.4015748031496063
        },
        {
          "duration": 0,
          "durationTicks": 0,
          "midi": 68,
          "name": "G#4",
          "ticks": 48199,
          "time": 62.759114583333336,
          "velocity": 0.13385826771653545
        },
        {
          "duration": 0.1276041666666643,
          "durationTicks": 98,
          "midi": 34,
          "name": "A#1",
          "ticks": 48199,
          "time": 62.759114583333336,
          "velocity": 0.36220472440944884
        },
        {
          "duration": 0,
          "durationTicks": 0,
          "midi": 61,
          "name": "C#4",
          "ticks": 48209,
          "time": 62.772135416666664,
          "velocity": 0.2047244094488189
        },
        {
          "duration": 0.1276041666666714,
          "durationTicks": 98,
          "midi": 73,
          "name": "C#5",
          "ticks": 48209,
          "time": 62.772135416666664,
          "velocity": 0.2047244094488189
        },
        {
          "duration": 0,
          "durationTicks": 0,
          "midi": 52,
          "name": "E3",
          "ticks": 48218,
          "time": 62.783854166666664,
          "velocity": 0.3779527559055118
        },
        {
          "duration": 0.1080729166666643,
          "durationTicks": 83,
          "midi": 51,
          "name": "D#3",
          "ticks": 48235,
          "time": 62.805989583333336,
          "velocity": 0.3937007874015748
        },
        {
          "duration": 0,
          "durationTicks": 0,
          "midi": 62,
          "name": "D4",
          "ticks": 48245,
          "time": 62.819010416666664,
          "velocity": 0.2047244094488189
        },
        {
          "duration": 0,
          "durationTicks": 0,
          "midi": 75,
          "name": "D#5",
          "ticks": 48272,
          "time": 62.854166666666664,
          "velocity": 0.2047244094488189
        },
        {
          "duration": 0.1302083333333357,
          "durationTicks": 100,
          "midi": 70,
          "name": "A#4",
          "ticks": 48281,
          "time": 62.865885416666664,
          "velocity": 0.2440944881889764
        },
        {
          "duration": 0,
          "durationTicks": 0,
          "midi": 52,
          "name": "E3",
          "ticks": 48290,
          "time": 62.877604166666664,
          "velocity": 0.3779527559055118
        },
        {
          "duration": 0,
          "durationTicks": 0,
          "midi": 63,
          "name": "D#4",
          "ticks": 48290,
          "time": 62.877604166666664,
          "velocity": 0.23622047244094488
        },
        {
          "duration": 0,
          "durationTicks": 0,
          "midi": 31,
          "name": "G1",
          "ticks": 48300,
          "time": 62.890625,
          "velocity": 0.29133858267716534
        },
        {
          "duration": 0,
          "durationTicks": 0,
          "midi": 64,
          "name": "E4",
          "ticks": 48318,
          "time": 62.9140625,
          "velocity": 0.25984251968503935
        },
        {
          "duration": 0.020833333333335702,
          "durationTicks": 16,
          "midi": 51,
          "name": "D#3",
          "ticks": 48318,
          "time": 62.9140625,
          "velocity": 0.3937007874015748
        },
        {
          "duration": 0,
          "durationTicks": 0,
          "midi": 80,
          "name": "G#5",
          "ticks": 48327,
          "time": 62.92578125,
          "velocity": 0.05511811023622047
        },
        {
          "duration": 0.1276041666666643,
          "durationTicks": 98,
          "midi": 65,
          "name": "F4",
          "ticks": 48346,
          "time": 62.950520833333336,
          "velocity": 0.2204724409448819
        },
        {
          "duration": 0,
          "durationTicks": 0,
          "midi": 75,
          "name": "D#5",
          "ticks": 48355,
          "time": 62.962239583333336,
          "velocity": 0.2283464566929134
        },
        {
          "duration": 0,
          "durationTicks": 0,
          "midi": 52,
          "name": "E3",
          "ticks": 48365,
          "time": 62.975260416666664,
          "velocity": 0.3937007874015748
        },
        {
          "duration": 0,
          "durationTicks": 0,
          "midi": 73,
          "name": "C#5",
          "ticks": 48365,
          "time": 62.975260416666664,
          "velocity": 0.1732283464566929
        },
        {
          "duration": 0,
          "durationTicks": 0,
          "midi": 71,
          "name": "B4",
          "ticks": 48374,
          "time": 62.986979166666664,
          "velocity": 0.1968503937007874
        },
        {
          "duration": 0,
          "durationTicks": 0,
          "midi": 56,
          "name": "G#3",
          "ticks": 48383,
          "time": 62.998697916666664,
          "velocity": 0.13385826771653545
        },
        {
          "duration": 0,
          "durationTicks": 0,
          "midi": 51,
          "name": "D#3",
          "ticks": 48393,
          "time": 63.01171875,
          "velocity": 0.4645669291338583
        },
        {
          "duration": 0.125,
          "durationTicks": 96,
          "midi": 61,
          "name": "C#4",
          "ticks": 48393,
          "time": 63.01171875,
          "velocity": 0.25196850393700787
        },
        {
          "duration": 0.1263020833333357,
          "durationTicks": 97,
          "midi": 70,
          "name": "A#4",
          "ticks": 48419,
          "time": 63.045572916666664,
          "velocity": 0.13385826771653545
        },
        {
          "duration": 0,
          "durationTicks": 0,
          "midi": 50,
          "name": "D3",
          "ticks": 48429,
          "time": 63.05859375,
          "velocity": 0.4566929133858268
        },
        {
          "duration": 0,
          "durationTicks": 0,
          "midi": 67,
          "name": "G4",
          "ticks": 48429,
          "time": 63.05859375,
          "velocity": 0.2204724409448819
        },
        {
          "duration": 0,
          "durationTicks": 0,
          "midi": 72,
          "name": "C5",
          "ticks": 48446,
          "time": 63.080729166666664,
          "velocity": 0.18110236220472442
        },
        {
          "duration": 0,
          "durationTicks": 0,
          "midi": 50,
          "name": "D3",
          "ticks": 48464,
          "time": 63.104166666666664,
          "velocity": 0.4409448818897638
        },
        {
          "duration": 0,
          "durationTicks": 0,
          "midi": 58,
          "name": "A#3",
          "ticks": 48464,
          "time": 63.104166666666664,
          "velocity": 0.1732283464566929
        },
        {
          "duration": 0,
          "durationTicks": 0,
          "midi": 68,
          "name": "G#4",
          "ticks": 48464,
          "time": 63.104166666666664,
          "velocity": 0.2992125984251969
        },
        {
          "duration": 0,
          "durationTicks": 0,
          "midi": 51,
          "name": "D#3",
          "ticks": 48473,
          "time": 63.115885416666664,
          "velocity": 0.4015748031496063
        },
        {
          "duration": 0,
          "durationTicks": 0,
          "midi": 69,
          "name": "A4",
          "ticks": 48500,
          "time": 63.151041666666664,
          "velocity": 0.2283464566929134
        },
        {
          "duration": 0,
          "durationTicks": 0,
          "midi": 48,
          "name": "C3",
          "ticks": 48510,
          "time": 63.1640625,
          "velocity": 0.3858267716535433
        },
        {
          "duration": 0,
          "durationTicks": 0,
          "midi": 59,
          "name": "B3",
          "ticks": 48510,
          "time": 63.1640625,
          "velocity": 0.25984251968503935
        },
        {
          "duration": 0,
          "durationTicks": 0,
          "midi": 72,
          "name": "C5",
          "ticks": 48510,
          "time": 63.1640625,
          "velocity": 0.07086614173228346
        },
        {
          "duration": 0.12890625,
          "durationTicks": 99,
          "midi": 80,
          "name": "G#5",
          "ticks": 48510,
          "time": 63.1640625,
          "velocity": 0.06299212598425197
        },
        {
          "duration": 0,
          "durationTicks": 0,
          "midi": 70,
          "name": "A#4",
          "ticks": 48528,
          "time": 63.1875,
          "velocity": 0.2204724409448819
        },
        {
          "duration": 0.0963541666666643,
          "durationTicks": 74,
          "midi": 65,
          "name": "F4",
          "ticks": 48528,
          "time": 63.1875,
          "velocity": 0.1889763779527559
        },
        {
          "duration": 0,
          "durationTicks": 0,
          "midi": 45,
          "name": "A2",
          "ticks": 48537,
          "time": 63.19921875,
          "velocity": 0.3700787401574803
        },
        {
          "duration": 0,
          "durationTicks": 0,
          "midi": 68,
          "name": "G#4",
          "ticks": 48547,
          "time": 63.212239583333336,
          "velocity": 0.16535433070866143
        },
        {
          "duration": 0,
          "durationTicks": 0,
          "midi": 71,
          "name": "B4",
          "ticks": 48556,
          "time": 63.223958333333336,
          "velocity": 0.2283464566929134
        },
        {
          "duration": 0,
          "durationTicks": 0,
          "midi": 49,
          "name": "C#3",
          "ticks": 48574,
          "time": 63.247395833333336,
          "velocity": 0.4094488188976378
        },
        {
          "duration": 0,
          "durationTicks": 0,
          "midi": 81,
          "name": "A5",
          "ticks": 48574,
          "time": 63.247395833333336,
          "velocity": 0.10236220472440945
        },
        {
          "duration": 0,
          "durationTicks": 0,
          "midi": 45,
          "name": "A2",
          "ticks": 48583,
          "time": 63.259114583333336,
          "velocity": 0.4645669291338583
        },
        {
          "duration": 0,
          "durationTicks": 0,
          "midi": 66,
          "name": "F#4",
          "ticks": 48583,
          "time": 63.259114583333336,
          "velocity": 0.18110236220472442
        },
        {
          "duration": 0,
          "durationTicks": 0,
          "midi": 47,
          "name": "B2",
          "ticks": 48592,
          "time": 63.270833333333336,
          "velocity": 0.4330708661417323
        },
        {
          "duration": 0,
          "durationTicks": 0,
          "midi": 62,
          "name": "D4",
          "ticks": 48592,
          "time": 63.270833333333336,
          "velocity": 0.1732283464566929
        },
        {
          "duration": 0,
          "durationTicks": 0,
          "midi": 72,
          "name": "C5",
          "ticks": 48592,
          "time": 63.270833333333336,
          "velocity": 0.2283464566929134
        },
        {
          "duration": 0.12890625,
          "durationTicks": 99,
          "midi": 68,
          "name": "G#4",
          "ticks": 48592,
          "time": 63.270833333333336,
          "velocity": 0.2283464566929134
        },
        {
          "duration": 0.0325520833333357,
          "durationTicks": 25,
          "midi": 65,
          "name": "F4",
          "ticks": 48602,
          "time": 63.283854166666664,
          "velocity": 0.08661417322834646
        },
        {
          "duration": 0,
          "durationTicks": 0,
          "midi": 45,
          "name": "A2",
          "ticks": 48611,
          "time": 63.295572916666664,
          "velocity": 0.41732283464566927
        },
        {
          "duration": 0,
          "durationTicks": 0,
          "midi": 61,
          "name": "C#4",
          "ticks": 48611,
          "time": 63.295572916666664,
          "velocity": 0.2125984251968504
        },
        {
          "duration": 0,
          "durationTicks": 0,
          "midi": 39,
          "name": "D#2",
          "ticks": 48620,
          "time": 63.307291666666664,
          "velocity": 0.4015748031496063
        },
        {
          "duration": 0,
          "durationTicks": 0,
          "midi": 46,
          "name": "A#2",
          "ticks": 48620,
          "time": 63.307291666666664,
          "velocity": 0.3937007874015748
        },
        {
          "duration": 0,
          "durationTicks": 0,
          "midi": 73,
          "name": "C#5",
          "ticks": 48620,
          "time": 63.307291666666664,
          "velocity": 0.2204724409448819
        },
        {
          "duration": 0,
          "durationTicks": 0,
          "midi": 57,
          "name": "A3",
          "ticks": 48620,
          "time": 63.307291666666664,
          "velocity": 0.18110236220472442
        },
        {
          "duration": 0,
          "durationTicks": 0,
          "midi": 37,
          "name": "C#2",
          "ticks": 48629,
          "time": 63.319010416666664,
          "velocity": 0.4015748031496063
        },
        {
          "duration": 0,
          "durationTicks": 0,
          "midi": 45,
          "name": "A2",
          "ticks": 48639,
          "time": 63.33203125,
          "velocity": 0.36220472440944884
        },
        {
          "duration": 0,
          "durationTicks": 0,
          "midi": 74,
          "name": "D5",
          "ticks": 48639,
          "time": 63.33203125,
          "velocity": 0.25984251968503935
        },
        {
          "duration": 0,
          "durationTicks": 0,
          "midi": 55,
          "name": "G3",
          "ticks": 48656,
          "time": 63.354166666666664,
          "velocity": 0.2992125984251969
        },
        {
          "duration": 0,
          "durationTicks": 0,
          "midi": 72,
          "name": "C5",
          "ticks": 48666,
          "time": 63.3671875,
          "velocity": 0.2204724409448819
        },
        {
          "duration": 0,
          "durationTicks": 0,
          "midi": 85,
          "name": "C#6",
          "ticks": 48666,
          "time": 63.3671875,
          "velocity": 0.10236220472440945
        },
        {
          "duration": 0,
          "durationTicks": 0,
          "midi": 86,
          "name": "D6",
          "ticks": 48666,
          "time": 63.3671875,
          "velocity": 0.06299212598425197
        },
        {
          "duration": 0,
          "durationTicks": 0,
          "midi": 90,
          "name": "F#6",
          "ticks": 48666,
          "time": 63.3671875,
          "velocity": 0.07874015748031496
        },
        {
          "duration": 0,
          "durationTicks": 0,
          "midi": 45,
          "name": "A2",
          "ticks": 48675,
          "time": 63.37890625,
          "velocity": 0.4015748031496063
        },
        {
          "duration": 0,
          "durationTicks": 0,
          "midi": 75,
          "name": "D#5",
          "ticks": 48675,
          "time": 63.37890625,
          "velocity": 0.2755905511811024
        },
        {
          "duration": 0,
          "durationTicks": 0,
          "midi": 78,
          "name": "F#5",
          "ticks": 48675,
          "time": 63.37890625,
          "velocity": 0.11023622047244094
        },
        {
          "duration": 0,
          "durationTicks": 0,
          "midi": 70,
          "name": "A#4",
          "ticks": 48684,
          "time": 63.390625,
          "velocity": 0.2125984251968504
        },
        {
          "duration": 0,
          "durationTicks": 0,
          "midi": 41,
          "name": "F2",
          "ticks": 48694,
          "time": 63.403645833333336,
          "velocity": 0.4409448818897638
        },
        {
          "duration": 0,
          "durationTicks": 0,
          "midi": 42,
          "name": "F#2",
          "ticks": 48703,
          "time": 63.415364583333336,
          "velocity": 0.4330708661417323
        },
        {
          "duration": 0,
          "durationTicks": 0,
          "midi": 76,
          "name": "E5",
          "ticks": 48703,
          "time": 63.415364583333336,
          "velocity": 0.2047244094488189
        },
        {
          "duration": 0.1276041666666643,
          "durationTicks": 98,
          "midi": 68,
          "name": "G#4",
          "ticks": 48712,
          "time": 63.427083333333336,
          "velocity": 0.25984251968503935
        },
        {
          "duration": 0,
          "durationTicks": 0,
          "midi": 57,
          "name": "A3",
          "ticks": 48721,
          "time": 63.438802083333336,
          "velocity": 0.18110236220472442
        },
        {
          "duration": 0,
          "durationTicks": 0,
          "midi": 77,
          "name": "F5",
          "ticks": 48721,
          "time": 63.438802083333336,
          "velocity": 0.2125984251968504
        },
        {
          "duration": 0,
          "durationTicks": 0,
          "midi": 61,
          "name": "C#4",
          "ticks": 48721,
          "time": 63.438802083333336,
          "velocity": 0.28346456692913385
        },
        {
          "duration": 0,
          "durationTicks": 0,
          "midi": 41,
          "name": "F2",
          "ticks": 48731,
          "time": 63.451822916666664,
          "velocity": 0.4645669291338583
        },
        {
          "duration": 0,
          "durationTicks": 0,
          "midi": 56,
          "name": "G#3",
          "ticks": 48740,
          "time": 63.463541666666664,
          "velocity": 0.1968503937007874
        },
        {
          "duration": 0,
          "durationTicks": 0,
          "midi": 78,
          "name": "F#5",
          "ticks": 48740,
          "time": 63.463541666666664,
          "velocity": 0.2204724409448819
        },
        {
          "duration": 0,
          "durationTicks": 0,
          "midi": 79,
          "name": "G5",
          "ticks": 48776,
          "time": 63.510416666666664,
          "velocity": 0.1968503937007874
        },
        {
          "duration": 0,
          "durationTicks": 0,
          "midi": 41,
          "name": "F2",
          "ticks": 48776,
          "time": 63.510416666666664,
          "velocity": 0.4645669291338583
        },
        {
          "duration": 0,
          "durationTicks": 0,
          "midi": 81,
          "name": "A5",
          "ticks": 48812,
          "time": 63.557291666666664,
          "velocity": 0.1968503937007874
        },
        {
          "duration": 0,
          "durationTicks": 0,
          "midi": 58,
          "name": "A#3",
          "ticks": 48822,
          "time": 63.5703125,
          "velocity": 0.13385826771653545
        },
        {
          "duration": 0,
          "durationTicks": 0,
          "midi": 61,
          "name": "C#4",
          "ticks": 48822,
          "time": 63.5703125,
          "velocity": 0.14960629921259844
        },
        {
          "duration": 0.12890625,
          "durationTicks": 99,
          "midi": 65,
          "name": "F4",
          "ticks": 48822,
          "time": 63.5703125,
          "velocity": 0.16535433070866143
        },
        {
          "duration": 0,
          "durationTicks": 0,
          "midi": 40,
          "name": "E2",
          "ticks": 48839,
          "time": 63.592447916666664,
          "velocity": 0.41732283464566927
        },
        {
          "duration": 0,
          "durationTicks": 0,
          "midi": 82,
          "name": "A#5",
          "ticks": 48839,
          "time": 63.592447916666664,
          "velocity": 0.2283464566929134
        },
        {
          "duration": 0,
          "durationTicks": 0,
          "midi": 41,
          "name": "F2",
          "ticks": 48849,
          "time": 63.60546875,
          "velocity": 0.4094488188976378
        },
        {
          "duration": 0,
          "durationTicks": 0,
          "midi": 69,
          "name": "A4",
          "ticks": 48858,
          "time": 63.6171875,
          "velocity": 0.1968503937007874
        },
        {
          "duration": 0,
          "durationTicks": 0,
          "midi": 57,
          "name": "A3",
          "ticks": 48867,
          "time": 63.62890625,
          "velocity": 0.30708661417322836
        },
        {
          "duration": 0,
          "durationTicks": 0,
          "midi": 74,
          "name": "D5",
          "ticks": 48867,
          "time": 63.62890625,
          "velocity": 0.13385826771653545
        },
        {
          "duration": 0,
          "durationTicks": 0,
          "midi": 42,
          "name": "F#2",
          "ticks": 48877,
          "time": 63.641927083333336,
          "velocity": 0.3779527559055118
        },
        {
          "duration": 0,
          "durationTicks": 0,
          "midi": 83,
          "name": "B5",
          "ticks": 48877,
          "time": 63.641927083333336,
          "velocity": 0.1968503937007874
        },
        {
          "duration": 0.2552083333333286,
          "durationTicks": 196,
          "midi": 68,
          "name": "G#4",
          "ticks": 48877,
          "time": 63.641927083333336,
          "velocity": 0.2125984251968504
        },
        {
          "duration": 0,
          "durationTicks": 0,
          "midi": 62,
          "name": "D4",
          "ticks": 48886,
          "time": 63.653645833333336,
          "velocity": 0.1968503937007874
        },
        {
          "duration": 0,
          "durationTicks": 0,
          "midi": 40,
          "name": "E2",
          "ticks": 48895,
          "time": 63.665364583333336,
          "velocity": 0.4330708661417323
        },
        {
          "duration": 0,
          "durationTicks": 0,
          "midi": 84,
          "name": "C6",
          "ticks": 48895,
          "time": 63.665364583333336,
          "velocity": 0.2047244094488189
        },
        {
          "duration": 0,
          "durationTicks": 0,
          "midi": 39,
          "name": "D#2",
          "ticks": 48905,
          "time": 63.678385416666664,
          "velocity": 0.4330708661417323
        },
        {
          "duration": 0.1276041666666714,
          "durationTicks": 98,
          "midi": 61,
          "name": "C#4",
          "ticks": 48905,
          "time": 63.678385416666664,
          "velocity": 0.2204724409448819
        },
        {
          "duration": 0.1276041666666714,
          "durationTicks": 98,
          "midi": 65,
          "name": "F4",
          "ticks": 48905,
          "time": 63.678385416666664,
          "velocity": 0.2047244094488189
        },
        {
          "duration": 0,
          "durationTicks": 0,
          "midi": 85,
          "name": "C#6",
          "ticks": 48914,
          "time": 63.690104166666664,
          "velocity": 0.1968503937007874
        },
        {
          "duration": 0,
          "durationTicks": 0,
          "midi": 53,
          "name": "F3",
          "ticks": 48914,
          "time": 63.690104166666664,
          "velocity": 0.14960629921259844
        },
        {
          "duration": 0,
          "durationTicks": 0,
          "midi": 36,
          "name": "C2",
          "ticks": 48932,
          "time": 63.713541666666664,
          "velocity": 0.44881889763779526
        },
        {
          "duration": 0,
          "durationTicks": 0,
          "midi": 86,
          "name": "D6",
          "ticks": 48932,
          "time": 63.713541666666664,
          "velocity": 0.2047244094488189
        },
        {
          "duration": 0,
          "durationTicks": 0,
          "midi": 51,
          "name": "D#3",
          "ticks": 48950,
          "time": 63.736979166666664,
          "velocity": 0.1732283464566929
        },
        {
          "duration": 0,
          "durationTicks": 0,
          "midi": 42,
          "name": "F#2",
          "ticks": 48959,
          "time": 63.748697916666664,
          "velocity": 0.4015748031496063
        },
        {
          "duration": 0,
          "durationTicks": 0,
          "midi": 72,
          "name": "C5",
          "ticks": 48959,
          "time": 63.748697916666664,
          "velocity": 0.18110236220472442
        },
        {
          "duration": 0,
          "durationTicks": 0,
          "midi": 87,
          "name": "D#6",
          "ticks": 48959,
          "time": 63.748697916666664,
          "velocity": 0.1968503937007874
        },
        {
          "duration": 0,
          "durationTicks": 0,
          "midi": 36,
          "name": "C2",
          "ticks": 48969,
          "time": 63.76171875,
          "velocity": 0.4330708661417323
        },
        {
          "duration": 0,
          "durationTicks": 0,
          "midi": 72,
          "name": "C5",
          "ticks": 48986,
          "time": 63.783854166666664,
          "velocity": 0.14960629921259844
        },
        {
          "duration": 0,
          "durationTicks": 0,
          "midi": 35,
          "name": "B1",
          "ticks": 48996,
          "time": 63.796875,
          "velocity": 0.4094488188976378
        },
        {
          "duration": 0,
          "durationTicks": 0,
          "midi": 89,
          "name": "F6",
          "ticks": 48996,
          "time": 63.796875,
          "velocity": 0.1889763779527559
        },
        {
          "duration": 0,
          "durationTicks": 0,
          "midi": 25,
          "name": "C#1",
          "ticks": 49014,
          "time": 63.8203125,
          "velocity": 0.4015748031496063
        },
        {
          "duration": 0,
          "durationTicks": 0,
          "midi": 90,
          "name": "F#6",
          "ticks": 49014,
          "time": 63.8203125,
          "velocity": 0.18110236220472442
        },
        {
          "duration": 0,
          "durationTicks": 0,
          "midi": 74,
          "name": "D5",
          "ticks": 49032,
          "time": 63.84375,
          "velocity": 0.14960629921259844
        },
        {
          "duration": 0,
          "durationTicks": 0,
          "midi": 61,
          "name": "C#4",
          "ticks": 49032,
          "time": 63.84375,
          "velocity": 0.1968503937007874
        },
        {
          "duration": 0.1276041666666643,
          "durationTicks": 98,
          "midi": 91,
          "name": "G6",
          "ticks": 49032,
          "time": 63.84375,
          "velocity": 0.2125984251968504
        },
        {
          "duration": 0,
          "durationTicks": 0,
          "midi": 32,
          "name": "G#1",
          "ticks": 49041,
          "time": 63.85546875,
          "velocity": 0.4015748031496063
        },
        {
          "duration": 0,
          "durationTicks": 0,
          "midi": 66,
          "name": "F#4",
          "ticks": 49041,
          "time": 63.85546875,
          "velocity": 0.2125984251968504
        },
        {
          "duration": 0,
          "durationTicks": 0,
          "midi": 25,
          "name": "C#1",
          "ticks": 49059,
          "time": 63.87890625,
          "velocity": 0.4015748031496063
        },
        {
          "duration": 0,
          "durationTicks": 0,
          "midi": 75,
          "name": "D#5",
          "ticks": 49059,
          "time": 63.87890625,
          "velocity": 0.2125984251968504
        },
        {
          "duration": 0,
          "durationTicks": 0,
          "midi": 88,
          "name": "E6",
          "ticks": 49059,
          "time": 63.87890625,
          "velocity": 0.07086614173228346
        },
        {
          "duration": 0.1276041666666714,
          "durationTicks": 98,
          "midi": 72,
          "name": "C5",
          "ticks": 49059,
          "time": 63.87890625,
          "velocity": 0.2204724409448819
        },
        {
          "duration": 0,
          "durationTicks": 0,
          "midi": 29,
          "name": "F1",
          "ticks": 49068,
          "time": 63.890625,
          "velocity": 0.4330708661417323
        },
        {
          "duration": 0.1276041666666714,
          "durationTicks": 98,
          "midi": 68,
          "name": "G#4",
          "ticks": 49068,
          "time": 63.890625,
          "velocity": 0.1968503937007874
        },
        {
          "duration": 0.1276041666666714,
          "durationTicks": 98,
          "midi": 60,
          "name": "C4",
          "ticks": 49068,
          "time": 63.890625,
          "velocity": 0.1732283464566929
        },
        {
          "duration": 0,
          "durationTicks": 0,
          "midi": 30,
          "name": "F#1",
          "ticks": 49077,
          "time": 63.90234375,
          "velocity": 0.4330708661417323
        },
        {
          "duration": 0,
          "durationTicks": 0,
          "midi": 76,
          "name": "E5",
          "ticks": 49077,
          "time": 63.90234375,
          "velocity": 0.2125984251968504
        },
        {
          "duration": 0,
          "durationTicks": 0,
          "midi": 82,
          "name": "A#5",
          "ticks": 49077,
          "time": 63.90234375,
          "velocity": 0.23622047244094488
        },
        {
          "duration": 0,
          "durationTicks": 0,
          "midi": 48,
          "name": "C3",
          "ticks": 49095,
          "time": 63.92578125,
          "velocity": 0.10236220472440945
        },
        {
          "duration": 0,
          "durationTicks": 0,
          "midi": 77,
          "name": "F5",
          "ticks": 49104,
          "time": 63.9375,
          "velocity": 0.14173228346456693
        },
        {
          "duration": 0,
          "durationTicks": 0,
          "midi": 87,
          "name": "D#6",
          "ticks": 49104,
          "time": 63.9375,
          "velocity": 0.25196850393700787
        },
        {
          "duration": 0.12890625,
          "durationTicks": 99,
          "midi": 75,
          "name": "D#5",
          "ticks": 49104,
          "time": 63.9375,
          "velocity": 0.25196850393700787
        },
        {
          "duration": 0.12890625,
          "durationTicks": 99,
          "midi": 29,
          "name": "F1",
          "ticks": 49104,
          "time": 63.9375,
          "velocity": 0.4015748031496063
        },
        {
          "duration": 0,
          "durationTicks": 0,
          "midi": 65,
          "name": "F4",
          "ticks": 49113,
          "time": 63.94921875,
          "velocity": 0.18110236220472442
        },
        {
          "duration": 0,
          "durationTicks": 0,
          "midi": 82,
          "name": "A#5",
          "ticks": 49123,
          "time": 63.962239583333336,
          "velocity": 0.2204724409448819
        },
        {
          "duration": 0,
          "durationTicks": 0,
          "midi": 78,
          "name": "F#5",
          "ticks": 49132,
          "time": 63.973958333333336,
          "velocity": 0.14173228346456693
        },
        {
          "duration": 0,
          "durationTicks": 0,
          "midi": 63,
          "name": "D#4",
          "ticks": 49141,
          "time": 63.985677083333336,
          "velocity": 0.2204724409448819
        },
        {
          "duration": 0.1289062499999929,
          "durationTicks": 99,
          "midi": 48,
          "name": "C3",
          "ticks": 49141,
          "time": 63.985677083333336,
          "velocity": 0.08661417322834646
        },
        {
          "duration": 0,
          "durationTicks": 0,
          "midi": 90,
          "name": "F#6",
          "ticks": 49159,
          "time": 64.00911458333333,
          "velocity": 0.1732283464566929
        },
        {
          "duration": 0.12890625,
          "durationTicks": 99,
          "midi": 68,
          "name": "G#4",
          "ticks": 49178,
          "time": 64.03385416666667,
          "velocity": 0.2677165354330709
        },
        {
          "duration": 0,
          "durationTicks": 0,
          "midi": 66,
          "name": "F#4",
          "ticks": 49187,
          "time": 64.04557291666667,
          "velocity": 0.29133858267716534
        },
        {
          "duration": 0,
          "durationTicks": 0,
          "midi": 63,
          "name": "D#4",
          "ticks": 49196,
          "time": 64.05729166666667,
          "velocity": 0.2677165354330709
        },
        {
          "duration": 0,
          "durationTicks": 0,
          "midi": 86,
          "name": "D6",
          "ticks": 49196,
          "time": 64.05729166666667,
          "velocity": 0.12598425196850394
        },
        {
          "duration": 0,
          "durationTicks": 0,
          "midi": 65,
          "name": "F4",
          "ticks": 49215,
          "time": 64.08203125,
          "velocity": 0.1968503937007874
        },
        {
          "duration": 0.1263020833333286,
          "durationTicks": 97,
          "midi": 82,
          "name": "A#5",
          "ticks": 49224,
          "time": 64.09375,
          "velocity": 0.14960629921259844
        },
        {
          "duration": 0,
          "durationTicks": 0,
          "midi": 53,
          "name": "F3",
          "ticks": 49233,
          "time": 64.10546875,
          "velocity": 0.28346456692913385
        },
        {
          "duration": 0,
          "durationTicks": 0,
          "midi": 83,
          "name": "B5",
          "ticks": 49233,
          "time": 64.10546875,
          "velocity": 0.16535433070866143
        },
        {
          "duration": 0,
          "durationTicks": 0,
          "midi": 87,
          "name": "D#6",
          "ticks": 49243,
          "time": 64.11848958333333,
          "velocity": 0.11811023622047244
        },
        {
          "duration": 0.1263020833333428,
          "durationTicks": 97,
          "midi": 63,
          "name": "D#4",
          "ticks": 49270,
          "time": 64.15364583333333,
          "velocity": 0.1968503937007874
        },
        {
          "duration": 0,
          "durationTicks": 0,
          "midi": 86,
          "name": "D6",
          "ticks": 49314,
          "time": 64.2109375,
          "velocity": 0.11811023622047244
        },
        {
          "duration": 0,
          "durationTicks": 0,
          "midi": 71,
          "name": "B4",
          "ticks": 49333,
          "time": 64.23567708333333,
          "velocity": 0.11811023622047244
        },
        {
          "duration": 0,
          "durationTicks": 0,
          "midi": 87,
          "name": "D#6",
          "ticks": 49342,
          "time": 64.24739583333333,
          "velocity": 0.2125984251968504
        },
        {
          "duration": 0,
          "durationTicks": 0,
          "midi": 74,
          "name": "D5",
          "ticks": 49351,
          "time": 64.25911458333333,
          "velocity": 0.14173228346456693
        },
        {
          "duration": 0,
          "durationTicks": 0,
          "midi": 82,
          "name": "A#5",
          "ticks": 49369,
          "time": 64.28255208333333,
          "velocity": 0.14173228346456693
        },
        {
          "duration": 0.1276041666666714,
          "durationTicks": 98,
          "midi": 75,
          "name": "D#5",
          "ticks": 49387,
          "time": 64.30598958333333,
          "velocity": 0.2283464566929134
        },
        {
          "duration": 0,
          "durationTicks": 0,
          "midi": 90,
          "name": "F#6",
          "ticks": 49396,
          "time": 64.31770833333333,
          "velocity": 0.10236220472440945
        },
        {
          "duration": 0,
          "durationTicks": 0,
          "midi": 82,
          "name": "A#5",
          "ticks": 49413,
          "time": 64.33984375,
          "velocity": 0.14173228346456693
        },
        {
          "duration": 0,
          "durationTicks": 0,
          "midi": 91,
          "name": "G6",
          "ticks": 49423,
          "time": 64.35286458333333,
          "velocity": 0.09448818897637795
        },
        {
          "duration": 0,
          "durationTicks": 0,
          "midi": 72,
          "name": "C5",
          "ticks": 49423,
          "time": 64.35286458333333,
          "velocity": 0.16535433070866143
        },
        {
          "duration": 0,
          "durationTicks": 0,
          "midi": 29,
          "name": "F1",
          "ticks": 49432,
          "time": 64.36458333333333,
          "velocity": 0.18110236220472442
        },
        {
          "duration": 0,
          "durationTicks": 0,
          "midi": 83,
          "name": "B5",
          "ticks": 49432,
          "time": 64.36458333333333,
          "velocity": 0.11023622047244094
        },
        {
          "duration": 0.1276041666666714,
          "durationTicks": 98,
          "midi": 80,
          "name": "G#5",
          "ticks": 49432,
          "time": 64.36458333333333,
          "velocity": 0.14960629921259844
        },
        {
          "duration": 0,
          "durationTicks": 0,
          "midi": 56,
          "name": "G#3",
          "ticks": 49441,
          "time": 64.37630208333333,
          "velocity": 0.2992125984251969
        },
        {
          "duration": 0,
          "durationTicks": 0,
          "midi": 66,
          "name": "F#4",
          "ticks": 49441,
          "time": 64.37630208333333,
          "velocity": 0.2125984251968504
        },
        {
          "duration": 0,
          "durationTicks": 0,
          "midi": 93,
          "name": "A6",
          "ticks": 49441,
          "time": 64.37630208333333,
          "velocity": 0.05511811023622047
        },
        {
          "duration": 0,
          "durationTicks": 0,
          "midi": 86,
          "name": "D6",
          "ticks": 49441,
          "time": 64.37630208333333,
          "velocity": 0.08661417322834646
        },
        {
          "duration": 0,
          "durationTicks": 0,
          "midi": 90,
          "name": "F#6",
          "ticks": 49441,
          "time": 64.37630208333333,
          "velocity": 0.08661417322834646
        },
        {
          "duration": 0.1276041666666714,
          "durationTicks": 98,
          "midi": 77,
          "name": "F5",
          "ticks": 49441,
          "time": 64.37630208333333,
          "velocity": 0.11023622047244094
        },
        {
          "duration": 0.1276041666666714,
          "durationTicks": 98,
          "midi": 91,
          "name": "G6",
          "ticks": 49468,
          "time": 64.41145833333333,
          "velocity": 0.05511811023622047
        },
        {
          "duration": 0.1276041666666572,
          "durationTicks": 98,
          "midi": 65,
          "name": "F4",
          "ticks": 49478,
          "time": 64.42447916666667,
          "velocity": 0.1968503937007874
        },
        {
          "duration": 0.1276041666666572,
          "durationTicks": 98,
          "midi": 72,
          "name": "C5",
          "ticks": 49487,
          "time": 64.43619791666667,
          "velocity": 0.10236220472440945
        },
        {
          "duration": 0,
          "durationTicks": 0,
          "midi": 60,
          "name": "C4",
          "ticks": 49496,
          "time": 64.44791666666667,
          "velocity": 0.2204724409448819
        },
        {
          "duration": 0,
          "durationTicks": 0,
          "midi": 41,
          "name": "F2",
          "ticks": 49523,
          "time": 64.48307291666667,
          "velocity": 0.1889763779527559
        },
        {
          "duration": 0,
          "durationTicks": 0,
          "midi": 78,
          "name": "F#5",
          "ticks": 49523,
          "time": 64.48307291666667,
          "velocity": 0.07874015748031496
        },
        {
          "duration": 0,
          "durationTicks": 0,
          "midi": 63,
          "name": "D#4",
          "ticks": 49532,
          "time": 64.49479166666667,
          "velocity": 0.2047244094488189
        },
        {
          "duration": 0.1263020833333286,
          "durationTicks": 97,
          "midi": 60,
          "name": "C4",
          "ticks": 49532,
          "time": 64.49479166666667,
          "velocity": 0.1889763779527559
        },
        {
          "duration": 0.1263020833333286,
          "durationTicks": 97,
          "midi": 63,
          "name": "D#4",
          "ticks": 49569,
          "time": 64.54296875,
          "velocity": 0.2204724409448819
        },
        {
          "duration": 0.125,
          "durationTicks": 96,
          "midi": 82,
          "name": "A#5",
          "ticks": 49614,
          "time": 64.6015625,
          "velocity": 0.11023622047244094
        },
        {
          "duration": 0,
          "durationTicks": 0,
          "midi": 77,
          "name": "F5",
          "ticks": 49641,
          "time": 64.63671875,
          "velocity": 0.11811023622047244
        },
        {
          "duration": 0.125,
          "durationTicks": 96,
          "midi": 27,
          "name": "D#1",
          "ticks": 49641,
          "time": 64.63671875,
          "velocity": 0.3779527559055118
        },
        {
          "duration": 0.125,
          "durationTicks": 96,
          "midi": 80,
          "name": "G#5",
          "ticks": 49659,
          "time": 64.66015625,
          "velocity": 0.16535433070866143
        },
        {
          "duration": 0.125,
          "durationTicks": 96,
          "midi": 75,
          "name": "D#5",
          "ticks": 49668,
          "time": 64.671875,
          "velocity": 0.13385826771653545
        },
        {
          "duration": 0.1263020833333286,
          "durationTicks": 97,
          "midi": 72,
          "name": "C5",
          "ticks": 49739,
          "time": 64.76432291666667,
          "velocity": 0.11023622047244094
        },
        {
          "duration": 0.1263020833333286,
          "durationTicks": 97,
          "midi": 79,
          "name": "G5",
          "ticks": 49739,
          "time": 64.76432291666667,
          "velocity": 0.1732283464566929
        },
        {
          "duration": 0.1276041666666572,
          "durationTicks": 98,
          "midi": 60,
          "name": "C4",
          "ticks": 49820,
          "time": 64.86979166666667,
          "velocity": 0.18110236220472442
        },
        {
          "duration": 0,
          "durationTicks": 0,
          "midi": 29,
          "name": "F1",
          "ticks": 49829,
          "time": 64.88151041666667,
          "velocity": 0.41732283464566927
        },
        {
          "duration": 0.1276041666666572,
          "durationTicks": 98,
          "midi": 65,
          "name": "F4",
          "ticks": 49829,
          "time": 64.88151041666667,
          "velocity": 0.1889763779527559
        },
        {
          "duration": 0.1276041666666572,
          "durationTicks": 98,
          "midi": 68,
          "name": "G#4",
          "ticks": 49829,
          "time": 64.88151041666667,
          "velocity": 0.1968503937007874
        },
        {
          "duration": 0,
          "durationTicks": 0,
          "midi": 30,
          "name": "F#1",
          "ticks": 49839,
          "time": 64.89453125,
          "velocity": 0.4330708661417323
        },
        {
          "duration": 0.1184895833333286,
          "durationTicks": 91,
          "midi": 75,
          "name": "D#5",
          "ticks": 49839,
          "time": 64.89453125,
          "velocity": 0.14173228346456693
        },
        {
          "duration": 0.1276041666666714,
          "durationTicks": 98,
          "midi": 29,
          "name": "F1",
          "ticks": 49875,
          "time": 64.94140625,
          "velocity": 0.4015748031496063
        },
        {
          "duration": 0,
          "durationTicks": 0,
          "midi": 63,
          "name": "D#4",
          "ticks": 49884,
          "time": 64.953125,
          "velocity": 0.1732283464566929
        },
        {
          "duration": 0.1276041666666714,
          "durationTicks": 98,
          "midi": 48,
          "name": "C3",
          "ticks": 49911,
          "time": 64.98828125,
          "velocity": 0.07874015748031496
        },
        {
          "duration": 0.009114583333342807,
          "durationTicks": 7,
          "midi": 75,
          "name": "D#5",
          "ticks": 49930,
          "time": 65.01302083333333,
          "velocity": 0.12598425196850394
        },
        {
          "duration": 0.1276041666666714,
          "durationTicks": 98,
          "midi": 72,
          "name": "C5",
          "ticks": 49930,
          "time": 65.01302083333333,
          "velocity": 0.15748031496062992
        },
        {
          "duration": 0,
          "durationTicks": 0,
          "midi": 65,
          "name": "F4",
          "ticks": 50011,
          "time": 65.11848958333333,
          "velocity": 0.1732283464566929
        },
        {
          "duration": 0.1263020833333428,
          "durationTicks": 97,
          "midi": 60,
          "name": "C4",
          "ticks": 50011,
          "time": 65.11848958333333,
          "velocity": 0.1732283464566929
        },
        {
          "duration": 0,
          "durationTicks": 0,
          "midi": 87,
          "name": "D#6",
          "ticks": 50021,
          "time": 65.13151041666667,
          "velocity": 0.08661417322834646
        },
        {
          "duration": 0.125,
          "durationTicks": 96,
          "midi": 68,
          "name": "G#4",
          "ticks": 50030,
          "time": 65.14322916666667,
          "velocity": 0.16535433070866143
        },
        {
          "duration": 0.125,
          "durationTicks": 96,
          "midi": 79,
          "name": "G5",
          "ticks": 50030,
          "time": 65.14322916666667,
          "velocity": 0.18110236220472442
        },
        {
          "duration": 0,
          "durationTicks": 0,
          "midi": 63,
          "name": "D#4",
          "ticks": 50039,
          "time": 65.15494791666667,
          "velocity": 0.1889763779527559
        },
        {
          "duration": 0,
          "durationTicks": 0,
          "midi": 65,
          "name": "F4",
          "ticks": 50057,
          "time": 65.17838541666667,
          "velocity": 0.18110236220472442
        },
        {
          "duration": 0.12369791666665719,
          "durationTicks": 95,
          "midi": 75,
          "name": "D#5",
          "ticks": 50093,
          "time": 65.22526041666667,
          "velocity": 0.1732283464566929
        },
        {
          "duration": 0,
          "durationTicks": 0,
          "midi": 44,
          "name": "G#2",
          "ticks": 50200,
          "time": 65.36458333333333,
          "velocity": 0.3779527559055118
        },
        {
          "duration": 0,
          "durationTicks": 0,
          "midi": 90,
          "name": "F#6",
          "ticks": 50200,
          "time": 65.36458333333333,
          "velocity": 0.07874015748031496
        },
        {
          "duration": 0,
          "durationTicks": 0,
          "midi": 86,
          "name": "D6",
          "ticks": 50200,
          "time": 65.36458333333333,
          "velocity": 0.11023622047244094
        },
        {
          "duration": 0.1276041666666714,
          "durationTicks": 98,
          "midi": 80,
          "name": "G#5",
          "ticks": 50200,
          "time": 65.36458333333333,
          "velocity": 0.1732283464566929
        },
        {
          "duration": 0.1276041666666714,
          "durationTicks": 98,
          "midi": 72,
          "name": "C5",
          "ticks": 50200,
          "time": 65.36458333333333,
          "velocity": 0.15748031496062992
        },
        {
          "duration": 0,
          "durationTicks": 0,
          "midi": 95,
          "name": "B6",
          "ticks": 50209,
          "time": 65.37630208333333,
          "velocity": 0.06299212598425197
        },
        {
          "duration": 0.1276041666666714,
          "durationTicks": 98,
          "midi": 77,
          "name": "F5",
          "ticks": 50209,
          "time": 65.37630208333333,
          "velocity": 0.09448818897637795
        },
        {
          "duration": 0,
          "durationTicks": 0,
          "midi": 57,
          "name": "A3",
          "ticks": 50218,
          "time": 65.38802083333333,
          "velocity": 0.29133858267716534
        },
        {
          "duration": 0,
          "durationTicks": 0,
          "midi": 65,
          "name": "F4",
          "ticks": 50218,
          "time": 65.38802083333333,
          "velocity": 0.1889763779527559
        },
        {
          "duration": 0.1276041666666714,
          "durationTicks": 98,
          "midi": 68,
          "name": "G#4",
          "ticks": 50218,
          "time": 65.38802083333333,
          "velocity": 0.16535433070866143
        },
        {
          "duration": 0,
          "durationTicks": 0,
          "midi": 61,
          "name": "C#4",
          "ticks": 50228,
          "time": 65.40104166666667,
          "velocity": 0.1889763779527559
        },
        {
          "duration": 0,
          "durationTicks": 0,
          "midi": 56,
          "name": "G#3",
          "ticks": 50237,
          "time": 65.41276041666667,
          "velocity": 0.1732283464566929
        },
        {
          "duration": 0,
          "durationTicks": 0,
          "midi": 60,
          "name": "C4",
          "ticks": 50246,
          "time": 65.42447916666667,
          "velocity": 0.1732283464566929
        },
        {
          "duration": 0,
          "durationTicks": 0,
          "midi": 43,
          "name": "G2",
          "ticks": 50246,
          "time": 65.42447916666667,
          "velocity": 0.3700787401574803
        },
        {
          "duration": 0,
          "durationTicks": 0,
          "midi": 63,
          "name": "D#4",
          "ticks": 50273,
          "time": 65.45963541666667,
          "velocity": 0.1968503937007874
        },
        {
          "duration": 0,
          "durationTicks": 0,
          "midi": 44,
          "name": "G#2",
          "ticks": 50291,
          "time": 65.48307291666667,
          "velocity": 0.31496062992125984
        },
        {
          "duration": 0.1263020833333286,
          "durationTicks": 97,
          "midi": 31,
          "name": "G1",
          "ticks": 50319,
          "time": 65.51953125,
          "velocity": 0.3779527559055118
        },
        {
          "duration": 0.1263020833333286,
          "durationTicks": 97,
          "midi": 70,
          "name": "A#4",
          "ticks": 50319,
          "time": 65.51953125,
          "velocity": 0.1732283464566929
        },
        {
          "duration": 0,
          "durationTicks": 0,
          "midi": 50,
          "name": "D3",
          "ticks": 50355,
          "time": 65.56640625,
          "velocity": 0.07874015748031496
        },
        {
          "duration": 0,
          "durationTicks": 0,
          "midi": 87,
          "name": "D#6",
          "ticks": 50391,
          "time": 65.61328125,
          "velocity": 0.14173228346456693
        },
        {
          "duration": 0.1263020833333286,
          "durationTicks": 97,
          "midi": 68,
          "name": "G#4",
          "ticks": 50418,
          "time": 65.6484375,
          "velocity": 0.2283464566929134
        },
        {
          "duration": 0,
          "durationTicks": 0,
          "midi": 44,
          "name": "G#2",
          "ticks": 50489,
          "time": 65.74088541666667,
          "velocity": 0.4094488188976378
        },
        {
          "duration": 0,
          "durationTicks": 0,
          "midi": 64,
          "name": "E4",
          "ticks": 50489,
          "time": 65.74088541666667,
          "velocity": 0.1732283464566929
        },
        {
          "duration": 0,
          "durationTicks": 0,
          "midi": 58,
          "name": "A#3",
          "ticks": 50489,
          "time": 65.74088541666667,
          "velocity": 0.2125984251968504
        },
        {
          "duration": 0,
          "durationTicks": 0,
          "midi": 87,
          "name": "D#6",
          "ticks": 50499,
          "time": 65.75390625,
          "velocity": 0.08661417322834646
        },
        {
          "duration": 0.1263020833333286,
          "durationTicks": 97,
          "midi": 79,
          "name": "G5",
          "ticks": 50499,
          "time": 65.75390625,
          "velocity": 0.08661417322834646
        },
        {
          "duration": 0.1263020833333286,
          "durationTicks": 97,
          "midi": 63,
          "name": "D#4",
          "ticks": 50508,
          "time": 65.765625,
          "velocity": 0.2204724409448819
        },
        {
          "duration": 0.2526041666666714,
          "durationTicks": 194,
          "midi": 67,
          "name": "G4",
          "ticks": 50508,
          "time": 65.765625,
          "velocity": 0.25984251968503935
        },
        {
          "duration": 0.1263020833333286,
          "durationTicks": 97,
          "midi": 44,
          "name": "G#2",
          "ticks": 50517,
          "time": 65.77734375,
          "velocity": 0.3858267716535433
        },
        {
          "duration": 0,
          "durationTicks": 0,
          "midi": 31,
          "name": "G1",
          "ticks": 50527,
          "time": 65.79036458333333,
          "velocity": 0.2755905511811024
        },
        {
          "duration": 0,
          "durationTicks": 0,
          "midi": 60,
          "name": "C4",
          "ticks": 50589,
          "time": 65.87109375,
          "velocity": 0.2440944881889764
        },
        {
          "duration": 0,
          "durationTicks": 0,
          "midi": 63,
          "name": "D#4",
          "ticks": 50626,
          "time": 65.91927083333333,
          "velocity": 0.14960629921259844
        },
        {
          "duration": 0.1263020833333428,
          "durationTicks": 97,
          "midi": 60,
          "name": "C4",
          "ticks": 50626,
          "time": 65.91927083333333,
          "velocity": 0.2204724409448819
        },
        {
          "duration": 0,
          "durationTicks": 0,
          "midi": 86,
          "name": "D6",
          "ticks": 50635,
          "time": 65.93098958333333,
          "velocity": 0.05511811023622047
        },
        {
          "duration": 0.1263020833333428,
          "durationTicks": 97,
          "midi": 63,
          "name": "D#4",
          "ticks": 50662,
          "time": 65.96614583333333,
          "velocity": 0.15748031496062992
        },
        {
          "duration": 0.1263020833333428,
          "durationTicks": 97,
          "midi": 44,
          "name": "G#2",
          "ticks": 50680,
          "time": 65.98958333333333,
          "velocity": 0.3779527559055118
        },
        {
          "duration": 0.1276041666666714,
          "durationTicks": 98,
          "midi": 68,
          "name": "G#4",
          "ticks": 50707,
          "time": 66.02473958333333,
          "velocity": 0.18110236220472442
        },
        {
          "duration": 0.1276041666666714,
          "durationTicks": 98,
          "midi": 58,
          "name": "A#3",
          "ticks": 50716,
          "time": 66.03645833333333,
          "velocity": 0.10236220472440945
        },
        {
          "duration": 0,
          "durationTicks": 0,
          "midi": 31,
          "name": "G1",
          "ticks": 50788,
          "time": 66.13020833333333,
          "velocity": 0.3858267716535433
        },
        {
          "duration": 0.1263020833333428,
          "durationTicks": 97,
          "midi": 70,
          "name": "A#4",
          "ticks": 50788,
          "time": 66.13020833333333,
          "velocity": 0.05511811023622047
        },
        {
          "duration": 0,
          "durationTicks": 0,
          "midi": 60,
          "name": "C4",
          "ticks": 50798,
          "time": 66.14322916666667,
          "velocity": 0.31496062992125984
        },
        {
          "duration": 0.1263020833333286,
          "durationTicks": 97,
          "midi": 67,
          "name": "G4",
          "ticks": 50798,
          "time": 66.14322916666667,
          "velocity": 0.2047244094488189
        },
        {
          "duration": 0,
          "durationTicks": 0,
          "midi": 32,
          "name": "G#1",
          "ticks": 50807,
          "time": 66.15494791666667,
          "velocity": 0.3543307086614173
        },
        {
          "duration": 0,
          "durationTicks": 0,
          "midi": 60,
          "name": "C4",
          "ticks": 50826,
          "time": 66.1796875,
          "velocity": 0.31496062992125984
        },
        {
          "duration": 0,
          "durationTicks": 0,
          "midi": 33,
          "name": "A1",
          "ticks": 50826,
          "time": 66.1796875,
          "velocity": 0.3464566929133858
        },
        {
          "duration": 0,
          "durationTicks": 0,
          "midi": 60,
          "name": "C4",
          "ticks": 50853,
          "time": 66.21484375,
          "velocity": 0.30708661417322836
        },
        {
          "duration": 0,
          "durationTicks": 0,
          "midi": 61,
          "name": "C#4",
          "ticks": 50870,
          "time": 66.23697916666667,
          "velocity": 0.2283464566929134
        },
        {
          "duration": 0.125,
          "durationTicks": 96,
          "midi": 75,
          "name": "D#5",
          "ticks": 50870,
          "time": 66.23697916666667,
          "velocity": 0.1732283464566929
        },
        {
          "duration": 0,
          "durationTicks": 0,
          "midi": 53,
          "name": "F3",
          "ticks": 50915,
          "time": 66.29557291666667,
          "velocity": 0.11811023622047244
        },
        {
          "duration": 0,
          "durationTicks": 0,
          "midi": 64,
          "name": "E4",
          "ticks": 50968,
          "time": 66.36458333333333,
          "velocity": 0.2125984251968504
        },
        {
          "duration": 0,
          "durationTicks": 0,
          "midi": 80,
          "name": "G#5",
          "ticks": 50968,
          "time": 66.36458333333333,
          "velocity": 0.13385826771653545
        },
        {
          "duration": 0,
          "durationTicks": 0,
          "midi": 90,
          "name": "F#6",
          "ticks": 50968,
          "time": 66.36458333333333,
          "velocity": 0.05511811023622047
        },
        {
          "duration": 0,
          "durationTicks": 0,
          "midi": 94,
          "name": "A#6",
          "ticks": 50968,
          "time": 66.36458333333333,
          "velocity": 0.08661417322834646
        },
        {
          "duration": 0,
          "durationTicks": 0,
          "midi": 86,
          "name": "D6",
          "ticks": 50968,
          "time": 66.36458333333333,
          "velocity": 0.07874015748031496
        },
        {
          "duration": 0.1276041666666714,
          "durationTicks": 98,
          "midi": 82,
          "name": "A#5",
          "ticks": 50968,
          "time": 66.36458333333333,
          "velocity": 0.05511811023622047
        },
        {
          "duration": 0,
          "durationTicks": 0,
          "midi": 34,
          "name": "A#1",
          "ticks": 50978,
          "time": 66.37760416666667,
          "velocity": 0.4094488188976378
        },
        {
          "duration": 0,
          "durationTicks": 0,
          "midi": 70,
          "name": "A#4",
          "ticks": 50978,
          "time": 66.37760416666667,
          "velocity": 0.08661417322834646
        },
        {
          "duration": 0,
          "durationTicks": 0,
          "midi": 95,
          "name": "B6",
          "ticks": 50978,
          "time": 66.37760416666667,
          "velocity": 0.08661417322834646
        },
        {
          "duration": 0,
          "durationTicks": 0,
          "midi": 56,
          "name": "G#3",
          "ticks": 50987,
          "time": 66.38932291666667,
          "velocity": 0.25196850393700787
        },
        {
          "duration": 0,
          "durationTicks": 0,
          "midi": 60,
          "name": "C4",
          "ticks": 50987,
          "time": 66.38932291666667,
          "velocity": 0.23622047244094488
        },
        {
          "duration": 0,
          "durationTicks": 0,
          "midi": 67,
          "name": "G4",
          "ticks": 50987,
          "time": 66.38932291666667,
          "velocity": 0.1732283464566929
        },
        {
          "duration": 0.1263020833333286,
          "durationTicks": 97,
          "midi": 91,
          "name": "G6",
          "ticks": 50987,
          "time": 66.38932291666667,
          "velocity": 0.10236220472440945
        },
        {
          "duration": 0.3776041666666572,
          "durationTicks": 290,
          "midi": 63,
          "name": "D#4",
          "ticks": 50987,
          "time": 66.38932291666667,
          "velocity": 0.2440944881889764
        },
        {
          "duration": 0,
          "durationTicks": 0,
          "midi": 68,
          "name": "G#4",
          "ticks": 51005,
          "time": 66.41276041666667,
          "velocity": 0.2125984251968504
        },
        {
          "duration": 0,
          "durationTicks": 0,
          "midi": 33,
          "name": "A1",
          "ticks": 51014,
          "time": 66.42447916666667,
          "velocity": 0.3779527559055118
        },
        {
          "duration": 0,
          "durationTicks": 0,
          "midi": 60,
          "name": "C4",
          "ticks": 51014,
          "time": 66.42447916666667,
          "velocity": 0.2283464566929134
        },
        {
          "duration": 0,
          "durationTicks": 0,
          "midi": 67,
          "name": "G4",
          "ticks": 51023,
          "time": 66.43619791666667,
          "velocity": 0.1889763779527559
        },
        {
          "duration": 0.1263020833333286,
          "durationTicks": 97,
          "midi": 32,
          "name": "G#1",
          "ticks": 51033,
          "time": 66.44921875,
          "velocity": 0.3700787401574803
        },
        {
          "duration": 0,
          "durationTicks": 0,
          "midi": 60,
          "name": "C4",
          "ticks": 51042,
          "time": 66.4609375,
          "velocity": 0.2204724409448819
        },
        {
          "duration": 0,
          "durationTicks": 0,
          "midi": 68,
          "name": "G#4",
          "ticks": 51042,
          "time": 66.4609375,
          "velocity": 0.25984251968503935
        },
        {
          "duration": 0.1263020833333286,
          "durationTicks": 97,
          "midi": 51,
          "name": "D#3",
          "ticks": 51059,
          "time": 66.48307291666667,
          "velocity": 0.07086614173228346
        },
        {
          "duration": 0,
          "durationTicks": 0,
          "midi": 70,
          "name": "A#4",
          "ticks": 51069,
          "time": 66.49609375,
          "velocity": 0.11023622047244094
        },
        {
          "duration": 0,
          "durationTicks": 0,
          "midi": 67,
          "name": "G4",
          "ticks": 51086,
          "time": 66.51822916666667,
          "velocity": 0.2755905511811024
        },
        {
          "duration": 0,
          "durationTicks": 0,
          "midi": 58,
          "name": "A#3",
          "ticks": 51113,
          "time": 66.55338541666667,
          "velocity": 0.1732283464566929
        },
        {
          "duration": 0,
          "durationTicks": 0,
          "midi": 67,
          "name": "G4",
          "ticks": 51123,
          "time": 66.56640625,
          "velocity": 0.2283464566929134
        },
        {
          "duration": 0,
          "durationTicks": 0,
          "midi": 58,
          "name": "A#3",
          "ticks": 51141,
          "time": 66.58984375,
          "velocity": 0.1732283464566929
        },
        {
          "duration": 0,
          "durationTicks": 0,
          "midi": 68,
          "name": "G#4",
          "ticks": 51141,
          "time": 66.58984375,
          "velocity": 0.28346456692913385
        },
        {
          "duration": 0.125,
          "durationTicks": 96,
          "midi": 68,
          "name": "G#4",
          "ticks": 51176,
          "time": 66.63541666666667,
          "velocity": 0.14173228346456693
        },
        {
          "duration": 0.125,
          "durationTicks": 96,
          "midi": 80,
          "name": "G#5",
          "ticks": 51186,
          "time": 66.6484375,
          "velocity": 0.1732283464566929
        },
        {
          "duration": 0,
          "durationTicks": 0,
          "midi": 75,
          "name": "D#5",
          "ticks": 51257,
          "time": 66.74088541666667,
          "velocity": 0.11023622047244094
        },
        {
          "duration": 0.125,
          "durationTicks": 96,
          "midi": 53,
          "name": "F3",
          "ticks": 51257,
          "time": 66.74088541666667,
          "velocity": 0.15748031496062992
        },
        {
          "duration": 0.37890625,
          "durationTicks": 291,
          "midi": 79,
          "name": "G5",
          "ticks": 51275,
          "time": 66.76432291666667,
          "velocity": 0.18110236220472442
        },
        {
          "duration": 0,
          "durationTicks": 0,
          "midi": 36,
          "name": "C2",
          "ticks": 51346,
          "time": 66.85677083333333,
          "velocity": 0.31496062992125984
        },
        {
          "duration": 0.10546875,
          "durationTicks": 81,
          "midi": 68,
          "name": "G#4",
          "ticks": 51346,
          "time": 66.85677083333333,
          "velocity": 0.25984251968503935
        },
        {
          "duration": 0.2526041666666714,
          "durationTicks": 194,
          "midi": 75,
          "name": "D#5",
          "ticks": 51355,
          "time": 66.86848958333333,
          "velocity": 0.23622047244094488
        },
        {
          "duration": 0.3802083333333428,
          "durationTicks": 292,
          "midi": 72,
          "name": "C5",
          "ticks": 51355,
          "time": 66.86848958333333,
          "velocity": 0.18110236220472442
        },
        {
          "duration": 0,
          "durationTicks": 0,
          "midi": 36,
          "name": "C2",
          "ticks": 51373,
          "time": 66.89192708333333,
          "velocity": 0.4015748031496063
        },
        {
          "duration": 0,
          "durationTicks": 0,
          "midi": 60,
          "name": "C4",
          "ticks": 51373,
          "time": 66.89192708333333,
          "velocity": 0.2283464566929134
        },
        {
          "duration": 0,
          "durationTicks": 0,
          "midi": 35,
          "name": "B1",
          "ticks": 51382,
          "time": 66.90364583333333,
          "velocity": 0.4251968503937008
        },
        {
          "duration": 0.25390625,
          "durationTicks": 195,
          "midi": 63,
          "name": "D#4",
          "ticks": 51382,
          "time": 66.90364583333333,
          "velocity": 0.18110236220472442
        },
        {
          "duration": 0,
          "durationTicks": 0,
          "midi": 60,
          "name": "C4",
          "ticks": 51400,
          "time": 66.92708333333333,
          "velocity": 0.2283464566929134
        },
        {
          "duration": 0.1276041666666714,
          "durationTicks": 98,
          "midi": 36,
          "name": "C2",
          "ticks": 51418,
          "time": 66.95052083333333,
          "velocity": 0.3937007874015748
        },
        {
          "duration": 0,
          "durationTicks": 0,
          "midi": 60,
          "name": "C4",
          "ticks": 51427,
          "time": 66.96223958333333,
          "velocity": 0.2283464566929134
        },
        {
          "duration": 0.01953125,
          "durationTicks": 15,
          "midi": 68,
          "name": "G#4",
          "ticks": 51427,
          "time": 66.96223958333333,
          "velocity": 0.2677165354330709
        },
        {
          "duration": 0,
          "durationTicks": 0,
          "midi": 60,
          "name": "C4",
          "ticks": 51454,
          "time": 66.99739583333333,
          "velocity": 0.2204724409448819
        },
        {
          "duration": 0.1276041666666714,
          "durationTicks": 98,
          "midi": 70,
          "name": "A#4",
          "ticks": 51463,
          "time": 67.00911458333333,
          "velocity": 0.1889763779527559
        },
        {
          "duration": 0.1276041666666714,
          "durationTicks": 98,
          "midi": 67,
          "name": "G4",
          "ticks": 51472,
          "time": 67.02083333333333,
          "velocity": 0.2283464566929134
        },
        {
          "duration": 0,
          "durationTicks": 0,
          "midi": 60,
          "name": "C4",
          "ticks": 51482,
          "time": 67.03385416666667,
          "velocity": 0.2204724409448819
        },
        {
          "duration": 0,
          "durationTicks": 0,
          "midi": 60,
          "name": "C4",
          "ticks": 51509,
          "time": 67.06901041666667,
          "velocity": 0.2283464566929134
        },
        {
          "duration": 0.1276041666666714,
          "durationTicks": 98,
          "midi": 87,
          "name": "D#6",
          "ticks": 51535,
          "time": 67.10286458333333,
          "velocity": 0.14173228346456693
        },
        {
          "duration": 0.25390625,
          "durationTicks": 195,
          "midi": 48,
          "name": "C3",
          "ticks": 51545,
          "time": 67.11588541666667,
          "velocity": 0.3779527559055118
        },
        {
          "duration": 0.1276041666666572,
          "durationTicks": 98,
          "midi": 68,
          "name": "G#4",
          "ticks": 51554,
          "time": 67.12760416666667,
          "velocity": 0.2677165354330709
        },
        {
          "duration": 0.1263020833333286,
          "durationTicks": 97,
          "midi": 79,
          "name": "G5",
          "ticks": 51573,
          "time": 67.15234375,
          "velocity": 0.06299212598425197
        },
        {
          "duration": 0,
          "durationTicks": 0,
          "midi": 31,
          "name": "G1",
          "ticks": 51582,
          "time": 67.1640625,
          "velocity": 0.25984251968503935
        },
        {
          "duration": 0.1263020833333286,
          "durationTicks": 97,
          "midi": 75,
          "name": "D#5",
          "ticks": 51636,
          "time": 67.234375,
          "velocity": 0.14960629921259844
        },
        {
          "duration": 0,
          "durationTicks": 0,
          "midi": 72,
          "name": "C5",
          "ticks": 51726,
          "time": 67.3515625,
          "velocity": 0.14173228346456693
        },
        {
          "duration": 0.12890625,
          "durationTicks": 99,
          "midi": 80,
          "name": "G#5",
          "ticks": 51726,
          "time": 67.3515625,
          "velocity": 0.2047244094488189
        },
        {
          "duration": 0.3828125,
          "durationTicks": 294,
          "midi": 77,
          "name": "F5",
          "ticks": 51726,
          "time": 67.3515625,
          "velocity": 0.23622047244094488
        },
        {
          "duration": 0,
          "durationTicks": 0,
          "midi": 57,
          "name": "A3",
          "ticks": 51735,
          "time": 67.36328125,
          "velocity": 0.2992125984251969
        },
        {
          "duration": 0,
          "durationTicks": 0,
          "midi": 86,
          "name": "D6",
          "ticks": 51735,
          "time": 67.36328125,
          "velocity": 0.11023622047244094
        },
        {
          "duration": 0,
          "durationTicks": 0,
          "midi": 87,
          "name": "D#6",
          "ticks": 51735,
          "time": 67.36328125,
          "velocity": 0.07086614173228346
        },
        {
          "duration": 0,
          "durationTicks": 0,
          "midi": 65,
          "name": "F4",
          "ticks": 51735,
          "time": 67.36328125,
          "velocity": 0.2283464566929134
        },
        {
          "duration": 0,
          "durationTicks": 0,
          "midi": 35,
          "name": "B1",
          "ticks": 51744,
          "time": 67.375,
          "velocity": 0.4251968503937008
        },
        {
          "duration": 0,
          "durationTicks": 0,
          "midi": 70,
          "name": "A#4",
          "ticks": 51744,
          "time": 67.375,
          "velocity": 0.09448818897637795
        },
        {
          "duration": 0,
          "durationTicks": 0,
          "midi": 74,
          "name": "D5",
          "ticks": 51744,
          "time": 67.375,
          "velocity": 0.09448818897637795
        },
        {
          "duration": 0,
          "durationTicks": 0,
          "midi": 56,
          "name": "G#3",
          "ticks": 51754,
          "time": 67.38802083333333,
          "velocity": 0.2125984251968504
        },
        {
          "duration": 0,
          "durationTicks": 0,
          "midi": 87,
          "name": "D#6",
          "ticks": 51754,
          "time": 67.38802083333333,
          "velocity": 0.08661417322834646
        },
        {
          "duration": 0,
          "durationTicks": 0,
          "midi": 62,
          "name": "D4",
          "ticks": 51763,
          "time": 67.39973958333333,
          "velocity": 0.1968503937007874
        },
        {
          "duration": 0,
          "durationTicks": 0,
          "midi": 34,
          "name": "A#1",
          "ticks": 51772,
          "time": 67.41145833333333,
          "velocity": 0.3779527559055118
        },
        {
          "duration": 0.1276041666666714,
          "durationTicks": 98,
          "midi": 72,
          "name": "C5",
          "ticks": 51772,
          "time": 67.41145833333333,
          "velocity": 0.06299212598425197
        },
        {
          "duration": 0,
          "durationTicks": 0,
          "midi": 63,
          "name": "D#4",
          "ticks": 51782,
          "time": 67.42447916666667,
          "velocity": 0.2440944881889764
        },
        {
          "duration": 0,
          "durationTicks": 0,
          "midi": 58,
          "name": "A#3",
          "ticks": 51791,
          "time": 67.43619791666667,
          "velocity": 0.2125984251968504
        },
        {
          "duration": 0,
          "durationTicks": 0,
          "midi": 62,
          "name": "D4",
          "ticks": 51800,
          "time": 67.44791666666667,
          "velocity": 0.2204724409448819
        },
        {
          "duration": 0.1263020833333286,
          "durationTicks": 97,
          "midi": 68,
          "name": "G#4",
          "ticks": 51800,
          "time": 67.44791666666667,
          "velocity": 0.14173228346456693
        },
        {
          "duration": 0,
          "durationTicks": 0,
          "midi": 35,
          "name": "B1",
          "ticks": 51827,
          "time": 67.48307291666667,
          "velocity": 0.3858267716535433
        },
        {
          "duration": 0,
          "durationTicks": 0,
          "midi": 63,
          "name": "D#4",
          "ticks": 51827,
          "time": 67.48307291666667,
          "velocity": 0.2283464566929134
        },
        {
          "duration": 0.1263020833333286,
          "durationTicks": 97,
          "midi": 70,
          "name": "A#4",
          "ticks": 51827,
          "time": 67.48307291666667,
          "velocity": 0.09448818897637795
        },
        {
          "duration": 0.1276041666666572,
          "durationTicks": 98,
          "midi": 79,
          "name": "G5",
          "ticks": 51845,
          "time": 67.50651041666667,
          "velocity": 0.2125984251968504
        },
        {
          "duration": 0.1276041666666572,
          "durationTicks": 98,
          "midi": 75,
          "name": "D#5",
          "ticks": 51845,
          "time": 67.50651041666667,
          "velocity": 0.2204724409448819
        },
        {
          "duration": 0,
          "durationTicks": 0,
          "midi": 33,
          "name": "A1",
          "ticks": 51854,
          "time": 67.51822916666667,
          "velocity": 0.4015748031496063
        },
        {
          "duration": 0.1276041666666572,
          "durationTicks": 98,
          "midi": 65,
          "name": "F4",
          "ticks": 51854,
          "time": 67.51822916666667,
          "velocity": 0.1732283464566929
        },
        {
          "duration": 0.1276041666666572,
          "durationTicks": 98,
          "midi": 62,
          "name": "D4",
          "ticks": 51854,
          "time": 67.51822916666667,
          "velocity": 0.1732283464566929
        },
        {
          "duration": 0,
          "durationTicks": 0,
          "midi": 34,
          "name": "A#1",
          "ticks": 51863,
          "time": 67.52994791666667,
          "velocity": 0.41732283464566927
        },
        {
          "duration": 0,
          "durationTicks": 0,
          "midi": 35,
          "name": "B1",
          "ticks": 51900,
          "time": 67.578125,
          "velocity": 0.3543307086614173
        },
        {
          "duration": 0,
          "durationTicks": 0,
          "midi": 57,
          "name": "A3",
          "ticks": 51909,
          "time": 67.58984375,
          "velocity": 0.23622047244094488
        },
        {
          "duration": 0,
          "durationTicks": 0,
          "midi": 56,
          "name": "G#3",
          "ticks": 51926,
          "time": 67.61197916666667,
          "velocity": 0.2283464566929134
        },
        {
          "duration": 0.1263020833333286,
          "durationTicks": 97,
          "midi": 46,
          "name": "A#2",
          "ticks": 51936,
          "time": 67.625,
          "velocity": 0.3779527559055118
        },
        {
          "duration": 0.1263020833333286,
          "durationTicks": 97,
          "midi": 80,
          "name": "G#5",
          "ticks": 51936,
          "time": 67.625,
          "velocity": 0.2440944881889764
        },
        {
          "duration": 0.1263020833333286,
          "durationTicks": 97,
          "midi": 72,
          "name": "C5",
          "ticks": 51945,
          "time": 67.63671875,
          "velocity": 0.1732283464566929
        },
        {
          "duration": 0,
          "durationTicks": 0,
          "midi": 67,
          "name": "G4",
          "ticks": 51964,
          "time": 67.66145833333333,
          "velocity": 0.11023622047244094
        },
        {
          "duration": 0,
          "durationTicks": 0,
          "midi": 65,
          "name": "F4",
          "ticks": 51991,
          "time": 67.69661458333333,
          "velocity": 0.11023622047244094
        },
        {
          "duration": 0,
          "durationTicks": 0,
          "midi": 47,
          "name": "B2",
          "ticks": 52018,
          "time": 67.73177083333333,
          "velocity": 0.4015748031496063
        },
        {
          "duration": 0,
          "durationTicks": 0,
          "midi": 57,
          "name": "A3",
          "ticks": 52018,
          "time": 67.73177083333333,
          "velocity": 0.3228346456692913
        },
        {
          "duration": 0,
          "durationTicks": 0,
          "midi": 62,
          "name": "D4",
          "ticks": 52018,
          "time": 67.73177083333333,
          "velocity": 0.14173228346456693
        },
        {
          "duration": 0,
          "durationTicks": 0,
          "midi": 68,
          "name": "G#4",
          "ticks": 52018,
          "time": 67.73177083333333,
          "velocity": 0.07086614173228346
        },
        {
          "duration": 0,
          "durationTicks": 0,
          "midi": 71,
          "name": "B4",
          "ticks": 52018,
          "time": 67.73177083333333,
          "velocity": 0.14173228346456693
        },
        {
          "duration": 0,
          "durationTicks": 0,
          "midi": 46,
          "name": "A#2",
          "ticks": 52035,
          "time": 67.75390625,
          "velocity": 0.3464566929133858
        },
        {
          "duration": 0,
          "durationTicks": 0,
          "midi": 56,
          "name": "G#3",
          "ticks": 52044,
          "time": 67.765625,
          "velocity": 0.29133858267716534
        },
        {
          "duration": 0.1263020833333428,
          "durationTicks": 97,
          "midi": 65,
          "name": "F4",
          "ticks": 52054,
          "time": 67.77864583333333,
          "velocity": 0.13385826771653545
        },
        {
          "duration": 0.1263020833333428,
          "durationTicks": 97,
          "midi": 75,
          "name": "D#5",
          "ticks": 52054,
          "time": 67.77864583333333,
          "velocity": 0.1732283464566929
        },
        {
          "duration": 0.1263020833333428,
          "durationTicks": 97,
          "midi": 46,
          "name": "A#2",
          "ticks": 52063,
          "time": 67.79036458333333,
          "velocity": 0.4094488188976378
        },
        {
          "duration": 0,
          "durationTicks": 0,
          "midi": 48,
          "name": "C3",
          "ticks": 52117,
          "time": 67.86067708333333,
          "velocity": 0.2283464566929134
        },
        {
          "duration": 0,
          "durationTicks": 0,
          "midi": 63,
          "name": "D#4",
          "ticks": 52117,
          "time": 67.86067708333333,
          "velocity": 0.1889763779527559
        },
        {
          "duration": 0.1276041666666714,
          "durationTicks": 98,
          "midi": 77,
          "name": "F5",
          "ticks": 52117,
          "time": 67.86067708333333,
          "velocity": 0.11023622047244094
        },
        {
          "duration": 0.1276041666666714,
          "durationTicks": 98,
          "midi": 80,
          "name": "G#5",
          "ticks": 52117,
          "time": 67.86067708333333,
          "velocity": 0.11811023622047244
        },
        {
          "duration": 0,
          "durationTicks": 0,
          "midi": 29,
          "name": "F1",
          "ticks": 52126,
          "time": 67.87239583333333,
          "velocity": 0.41732283464566927
        },
        {
          "duration": 0.1276041666666714,
          "durationTicks": 98,
          "midi": 72,
          "name": "C5",
          "ticks": 52126,
          "time": 67.87239583333333,
          "velocity": 0.15748031496062992
        },
        {
          "duration": 0,
          "durationTicks": 0,
          "midi": 30,
          "name": "F#1",
          "ticks": 52135,
          "time": 67.88411458333333,
          "velocity": 0.4330708661417323
        },
        {
          "duration": 0,
          "durationTicks": 0,
          "midi": 48,
          "name": "C3",
          "ticks": 52162,
          "time": 67.91927083333333,
          "velocity": 0.10236220472440945
        },
        {
          "duration": 0,
          "durationTicks": 0,
          "midi": 29,
          "name": "F1",
          "ticks": 52172,
          "time": 67.93229166666667,
          "velocity": 0.4015748031496063
        },
        {
          "duration": 0,
          "durationTicks": 0,
          "midi": 75,
          "name": "D#5",
          "ticks": 52208,
          "time": 67.97916666666667,
          "velocity": 0.12598425196850394
        },
        {
          "duration": 0.125,
          "durationTicks": 96,
          "midi": 68,
          "name": "G#4",
          "ticks": 52226,
          "time": 68.00260416666667,
          "velocity": 0.14960629921259844
        },
        {
          "duration": 0.125,
          "durationTicks": 96,
          "midi": 79,
          "name": "G5",
          "ticks": 52236,
          "time": 68.015625,
          "velocity": 0.11023622047244094
        },
        {
          "duration": 0.125,
          "durationTicks": 96,
          "midi": 75,
          "name": "D#5",
          "ticks": 52253,
          "time": 68.03776041666667,
          "velocity": 0.10236220472440945
        },
        {
          "duration": 0,
          "durationTicks": 0,
          "midi": 64,
          "name": "E4",
          "ticks": 52315,
          "time": 68.11848958333333,
          "velocity": 0.1968503937007874
        },
        {
          "duration": 0.1263020833333428,
          "durationTicks": 97,
          "midi": 48,
          "name": "C3",
          "ticks": 52315,
          "time": 68.11848958333333,
          "velocity": 0.06299212598425197
        },
        {
          "duration": 0.1263020833333428,
          "durationTicks": 97,
          "midi": 29,
          "name": "F1",
          "ticks": 52315,
          "time": 68.11848958333333,
          "velocity": 0.3779527559055118
        },
        {
          "duration": 0.1263020833333286,
          "durationTicks": 97,
          "midi": 77,
          "name": "F5",
          "ticks": 52325,
          "time": 68.13151041666667,
          "velocity": 0.10236220472440945
        },
        {
          "duration": 0.1263020833333286,
          "durationTicks": 97,
          "midi": 80,
          "name": "G#5",
          "ticks": 52325,
          "time": 68.13151041666667,
          "velocity": 0.11811023622047244
        },
        {
          "duration": 0.1263020833333286,
          "durationTicks": 97,
          "midi": 63,
          "name": "D#4",
          "ticks": 52334,
          "time": 68.14322916666667,
          "velocity": 0.1732283464566929
        },
        {
          "duration": 0.2473958333333286,
          "durationTicks": 190,
          "midi": 75,
          "name": "D#5",
          "ticks": 52352,
          "time": 68.16666666666667,
          "velocity": 0.1732283464566929
        },
        {
          "duration": 0.1263020833333286,
          "durationTicks": 97,
          "midi": 53,
          "name": "F3",
          "ticks": 52406,
          "time": 68.23697916666667,
          "velocity": 0.11023622047244094
        },
        {
          "duration": 0.2526041666666572,
          "durationTicks": 194,
          "midi": 72,
          "name": "C5",
          "ticks": 52451,
          "time": 68.29557291666667,
          "velocity": 0.1732283464566929
        },
        {
          "duration": 0,
          "durationTicks": 0,
          "midi": 66,
          "name": "F#4",
          "ticks": 52496,
          "time": 68.35416666666667,
          "velocity": 0.2047244094488189
        },
        {
          "duration": 0,
          "durationTicks": 0,
          "midi": 41,
          "name": "F2",
          "ticks": 52496,
          "time": 68.35416666666667,
          "velocity": 0.4015748031496063
        },
        {
          "duration": 0,
          "durationTicks": 0,
          "midi": 56,
          "name": "G#3",
          "ticks": 52496,
          "time": 68.35416666666667,
          "velocity": 0.30708661417322836
        },
        {
          "duration": 0,
          "durationTicks": 0,
          "midi": 80,
          "name": "G#5",
          "ticks": 52496,
          "time": 68.35416666666667,
          "velocity": 0.15748031496062992
        },
        {
          "duration": 0,
          "durationTicks": 0,
          "midi": 77,
          "name": "F5",
          "ticks": 52505,
          "time": 68.36588541666667,
          "velocity": 0.06299212598425197
        },
        {
          "duration": 0,
          "durationTicks": 0,
          "midi": 65,
          "name": "F4",
          "ticks": 52514,
          "time": 68.37760416666667,
          "velocity": 0.2125984251968504
        },
        {
          "duration": 0,
          "durationTicks": 0,
          "midi": 40,
          "name": "E2",
          "ticks": 52523,
          "time": 68.38932291666667,
          "velocity": 0.4094488188976378
        },
        {
          "duration": 0,
          "durationTicks": 0,
          "midi": 82,
          "name": "A#5",
          "ticks": 52523,
          "time": 68.38932291666667,
          "velocity": 0.07086614173228346
        },
        {
          "duration": 0,
          "durationTicks": 0,
          "midi": 41,
          "name": "F2",
          "ticks": 52533,
          "time": 68.40234375,
          "velocity": 0.4015748031496063
        },
        {
          "duration": 0,
          "durationTicks": 0,
          "midi": 79,
          "name": "G5",
          "ticks": 52533,
          "time": 68.40234375,
          "velocity": 0.05511811023622047
        },
        {
          "duration": 0.006510416666671404,
          "durationTicks": 5,
          "midi": 75,
          "name": "D#5",
          "ticks": 52542,
          "time": 68.4140625,
          "velocity": 0.07874015748031496
        },
        {
          "duration": 0.2513020833333286,
          "durationTicks": 193,
          "midi": 60,
          "name": "C4",
          "ticks": 52542,
          "time": 68.4140625,
          "velocity": 0.2047244094488189
        },
        {
          "duration": 0.1263020833333286,
          "durationTicks": 97,
          "midi": 41,
          "name": "F2",
          "ticks": 52560,
          "time": 68.4375,
          "velocity": 0.4015748031496063
        },
        {
          "duration": 0.1263020833333286,
          "durationTicks": 97,
          "midi": 65,
          "name": "F4",
          "ticks": 52569,
          "time": 68.44921875,
          "velocity": 0.2204724409448819
        },
        {
          "duration": 0.1263020833333286,
          "durationTicks": 97,
          "midi": 75,
          "name": "D#5",
          "ticks": 52587,
          "time": 68.47265625,
          "velocity": 0.15748031496062992
        },
        {
          "duration": 0.1263020833333286,
          "durationTicks": 97,
          "midi": 79,
          "name": "G5",
          "ticks": 52613,
          "time": 68.50651041666667,
          "velocity": 0.08661417322834646
        },
        {
          "duration": 0.1263020833333286,
          "durationTicks": 97,
          "midi": 63,
          "name": "D#4",
          "ticks": 52623,
          "time": 68.51953125,
          "velocity": 0.2204724409448819
        },
        {
          "duration": 0,
          "durationTicks": 0,
          "midi": 77,
          "name": "F5",
          "ticks": 52703,
          "time": 68.62369791666667,
          "velocity": 0.14173228346456693
        },
        {
          "duration": 0.125,
          "durationTicks": 96,
          "midi": 27,
          "name": "D#1",
          "ticks": 52713,
          "time": 68.63671875,
          "velocity": 0.3779527559055118
        },
        {
          "duration": 0.125,
          "durationTicks": 96,
          "midi": 80,
          "name": "G#5",
          "ticks": 52713,
          "time": 68.63671875,
          "velocity": 0.1732283464566929
        },
        {
          "duration": 0,
          "durationTicks": 0,
          "midi": 75,
          "name": "D#5",
          "ticks": 52775,
          "time": 68.71744791666667,
          "velocity": 0.18110236220472442
        },
        {
          "duration": 0.1263020833333286,
          "durationTicks": 97,
          "midi": 79,
          "name": "G5",
          "ticks": 52802,
          "time": 68.75260416666667,
          "velocity": 0.16535433070866143
        },
        {
          "duration": 0.1263020833333286,
          "durationTicks": 97,
          "midi": 72,
          "name": "C5",
          "ticks": 52838,
          "time": 68.79947916666667,
          "velocity": 0.06299212598425197
        },
        {
          "duration": 0.1263020833333286,
          "durationTicks": 97,
          "midi": 60,
          "name": "C4",
          "ticks": 52883,
          "time": 68.85807291666667,
          "velocity": 0.18110236220472442
        },
        {
          "duration": 0.1263020833333286,
          "durationTicks": 97,
          "midi": 65,
          "name": "F4",
          "ticks": 52883,
          "time": 68.85807291666667,
          "velocity": 0.1968503937007874
        },
        {
          "duration": 0,
          "durationTicks": 0,
          "midi": 29,
          "name": "F1",
          "ticks": 52892,
          "time": 68.86979166666667,
          "velocity": 0.4251968503937008
        },
        {
          "duration": 0.1263020833333286,
          "durationTicks": 97,
          "midi": 68,
          "name": "G#4",
          "ticks": 52892,
          "time": 68.86979166666667,
          "velocity": 0.1968503937007874
        },
        {
          "duration": 0.1263020833333286,
          "durationTicks": 97,
          "midi": 75,
          "name": "D#5",
          "ticks": 52892,
          "time": 68.86979166666667,
          "velocity": 0.14173228346456693
        },
        {
          "duration": 0,
          "durationTicks": 0,
          "midi": 30,
          "name": "F#1",
          "ticks": 52901,
          "time": 68.88151041666667,
          "velocity": 0.4330708661417323
        },
        {
          "duration": 0.125,
          "durationTicks": 96,
          "midi": 29,
          "name": "F1",
          "ticks": 52937,
          "time": 68.92838541666667,
          "velocity": 0.3937007874015748
        },
        {
          "duration": 0.1263020833333286,
          "durationTicks": 97,
          "midi": 48,
          "name": "C3",
          "ticks": 52973,
          "time": 68.97526041666667,
          "velocity": 0.09448818897637795
        },
        {
          "duration": 0.1263020833333286,
          "durationTicks": 97,
          "midi": 72,
          "name": "C5",
          "ticks": 52991,
          "time": 68.99869791666667,
          "velocity": 0.15748031496062992
        },
        {
          "duration": 0.1263020833333286,
          "durationTicks": 97,
          "midi": 60,
          "name": "C4",
          "ticks": 53063,
          "time": 69.09244791666667,
          "velocity": 0.16535433070866143
        },
        {
          "duration": 0,
          "durationTicks": 0,
          "midi": 87,
          "name": "D#6",
          "ticks": 53072,
          "time": 69.10416666666667,
          "velocity": 0.08661417322834646
        },
        {
          "duration": 0.125,
          "durationTicks": 96,
          "midi": 77,
          "name": "F5",
          "ticks": 53081,
          "time": 69.11588541666667,
          "velocity": 0.06299212598425197
        },
        {
          "duration": 0.125,
          "durationTicks": 96,
          "midi": 68,
          "name": "G#4",
          "ticks": 53081,
          "time": 69.11588541666667,
          "velocity": 0.15748031496062992
        },
        {
          "duration": 0.125,
          "durationTicks": 96,
          "midi": 79,
          "name": "G5",
          "ticks": 53090,
          "time": 69.12760416666667,
          "velocity": 0.18110236220472442
        },
        {
          "duration": 0.1263020833333286,
          "durationTicks": 97,
          "midi": 65,
          "name": "F4",
          "ticks": 53108,
          "time": 69.15104166666667,
          "velocity": 0.18110236220472442
        },
        {
          "duration": 0.1276041666666572,
          "durationTicks": 98,
          "midi": 75,
          "name": "D#5",
          "ticks": 53198,
          "time": 69.26822916666667,
          "velocity": 0.1732283464566929
        },
        {
          "duration": 0,
          "durationTicks": 0,
          "midi": 66,
          "name": "F#4",
          "ticks": 53252,
          "time": 69.33854166666667,
          "velocity": 0.1889763779527559
        },
        {
          "duration": 0.1276041666666572,
          "durationTicks": 98,
          "midi": 72,
          "name": "C5",
          "ticks": 53252,
          "time": 69.33854166666667,
          "velocity": 0.15748031496062992
        },
        {
          "duration": 0,
          "durationTicks": 0,
          "midi": 56,
          "name": "G#3",
          "ticks": 53261,
          "time": 69.35026041666667,
          "velocity": 0.29133858267716534
        },
        {
          "duration": 0,
          "durationTicks": 0,
          "midi": 90,
          "name": "F#6",
          "ticks": 53261,
          "time": 69.35026041666667,
          "velocity": 0.08661417322834646
        },
        {
          "duration": 0,
          "durationTicks": 0,
          "midi": 86,
          "name": "D6",
          "ticks": 53261,
          "time": 69.35026041666667,
          "velocity": 0.10236220472440945
        },
        {
          "duration": 0,
          "durationTicks": 0,
          "midi": 80,
          "name": "G#5",
          "ticks": 53261,
          "time": 69.35026041666667,
          "velocity": 0.1732283464566929
        },
        {
          "duration": 0,
          "durationTicks": 0,
          "midi": 42,
          "name": "F#2",
          "ticks": 53271,
          "time": 69.36328125,
          "velocity": 0.4015748031496063
        },
        {
          "duration": 0.1263020833333286,
          "durationTicks": 97,
          "midi": 65,
          "name": "F4",
          "ticks": 53271,
          "time": 69.36328125,
          "velocity": 0.1889763779527559
        },
        {
          "duration": 0,
          "durationTicks": 0,
          "midi": 57,
          "name": "A3",
          "ticks": 53280,
          "time": 69.375,
          "velocity": 0.29133858267716534
        },
        {
          "duration": 0.1263020833333286,
          "durationTicks": 97,
          "midi": 68,
          "name": "G#4",
          "ticks": 53280,
          "time": 69.375,
          "velocity": 0.15748031496062992
        },
        {
          "duration": 0.1263020833333286,
          "durationTicks": 97,
          "midi": 43,
          "name": "G2",
          "ticks": 53289,
          "time": 69.38671875,
          "velocity": 0.3700787401574803
        },
        {
          "duration": 0,
          "durationTicks": 0,
          "midi": 60,
          "name": "C4",
          "ticks": 53298,
          "time": 69.3984375,
          "velocity": 0.1732283464566929
        },
        {
          "duration": 0,
          "durationTicks": 0,
          "midi": 79,
          "name": "G5",
          "ticks": 53298,
          "time": 69.3984375,
          "velocity": 0.05511811023622047
        },
        {
          "duration": 0,
          "durationTicks": 0,
          "midi": 63,
          "name": "D#4",
          "ticks": 53325,
          "time": 69.43359375,
          "velocity": 0.1968503937007874
        },
        {
          "duration": 0.125,
          "durationTicks": 96,
          "midi": 31,
          "name": "G1",
          "ticks": 53379,
          "time": 69.50390625,
          "velocity": 0.3779527559055118
        },
        {
          "duration": 0.125,
          "durationTicks": 96,
          "midi": 70,
          "name": "A#4",
          "ticks": 53379,
          "time": 69.50390625,
          "velocity": 0.1732283464566929
        },
        {
          "duration": 0.1236979166666714,
          "durationTicks": 95,
          "midi": 79,
          "name": "G5",
          "ticks": 53398,
          "time": 69.52864583333333,
          "velocity": 0.05511811023622047
        },
        {
          "duration": 0,
          "durationTicks": 0,
          "midi": 50,
          "name": "D3",
          "ticks": 53415,
          "time": 69.55078125,
          "velocity": 0.07086614173228346
        },
        {
          "duration": 0,
          "durationTicks": 0,
          "midi": 87,
          "name": "D#6",
          "ticks": 53451,
          "time": 69.59765625,
          "velocity": 0.13385826771653545
        },
        {
          "duration": 0.1263020833333286,
          "durationTicks": 97,
          "midi": 68,
          "name": "G#4",
          "ticks": 53477,
          "time": 69.63151041666667,
          "velocity": 0.2283464566929134
        },
        {
          "duration": 0,
          "durationTicks": 0,
          "midi": 58,
          "name": "A#3",
          "ticks": 53540,
          "time": 69.71354166666667,
          "velocity": 0.2283464566929134
        },
        {
          "duration": 0,
          "durationTicks": 0,
          "midi": 44,
          "name": "G#2",
          "ticks": 53549,
          "time": 69.72526041666667,
          "velocity": 0.4015748031496063
        },
        {
          "duration": 0,
          "durationTicks": 0,
          "midi": 87,
          "name": "D#6",
          "ticks": 53549,
          "time": 69.72526041666667,
          "velocity": 0.09448818897637795
        },
        {
          "duration": 0.1263020833333286,
          "durationTicks": 97,
          "midi": 63,
          "name": "D#4",
          "ticks": 53558,
          "time": 69.73697916666667,
          "velocity": 0.2125984251968504
        },
        {
          "duration": 0.25390625,
          "durationTicks": 195,
          "midi": 79,
          "name": "G5",
          "ticks": 53558,
          "time": 69.73697916666667,
          "velocity": 0.07874015748031496
        },
        {
          "duration": 0,
          "durationTicks": 0,
          "midi": 31,
          "name": "G1",
          "ticks": 53568,
          "time": 69.75,
          "velocity": 0.29133858267716534
        },
        {
          "duration": 0.25390625,
          "durationTicks": 195,
          "midi": 67,
          "name": "G4",
          "ticks": 53568,
          "time": 69.75,
          "velocity": 0.25196850393700787
        },
        {
          "duration": 0.1263020833333286,
          "durationTicks": 97,
          "midi": 44,
          "name": "G#2",
          "ticks": 53577,
          "time": 69.76171875,
          "velocity": 0.3779527559055118
        },
        {
          "duration": 0,
          "durationTicks": 0,
          "midi": 29,
          "name": "F1",
          "ticks": 53613,
          "time": 69.80859375,
          "velocity": 0.1732283464566929
        },
        {
          "duration": 0,
          "durationTicks": 0,
          "midi": 72,
          "name": "C5",
          "ticks": 53613,
          "time": 69.80859375,
          "velocity": 0.06299212598425197
        },
        {
          "duration": 0,
          "durationTicks": 0,
          "midi": 86,
          "name": "D6",
          "ticks": 53613,
          "time": 69.80859375,
          "velocity": 0.06299212598425197
        },
        {
          "duration": 0,
          "durationTicks": 0,
          "midi": 60,
          "name": "C4",
          "ticks": 53667,
          "time": 69.87890625,
          "velocity": 0.2204724409448819
        },
        {
          "duration": 0,
          "durationTicks": 0,
          "midi": 86,
          "name": "D6",
          "ticks": 53685,
          "time": 69.90234375,
          "velocity": 0.05511811023622047
        },
        {
          "duration": 0.1263020833333286,
          "durationTicks": 97,
          "midi": 63,
          "name": "D#4",
          "ticks": 53685,
          "time": 69.90234375,
          "velocity": 0.15748031496062992
        },
        {
          "duration": 0,
          "durationTicks": 0,
          "midi": 70,
          "name": "A#4",
          "ticks": 53721,
          "time": 69.94921875,
          "velocity": 0.05511811023622047
        },
        {
          "duration": 0.1263020833333286,
          "durationTicks": 97,
          "midi": 44,
          "name": "G#2",
          "ticks": 53730,
          "time": 69.9609375,
          "velocity": 0.3779527559055118
        },
        {
          "duration": 0,
          "durationTicks": 0,
          "midi": 75,
          "name": "D#5",
          "ticks": 53739,
          "time": 69.97265625,
          "velocity": 0.13385826771653545
        },
        {
          "duration": 0.125,
          "durationTicks": 96,
          "midi": 63,
          "name": "D#4",
          "ticks": 53749,
          "time": 69.98567708333333,
          "velocity": 0.14173228346456693
        },
        {
          "duration": 0.125,
          "durationTicks": 96,
          "midi": 68,
          "name": "G#4",
          "ticks": 53767,
          "time": 70.00911458333333,
          "velocity": 0.1889763779527559
        },
        {
          "duration": 0,
          "durationTicks": 0,
          "midi": 60,
          "name": "C4",
          "ticks": 53856,
          "time": 70.125,
          "velocity": 0.2677165354330709
        },
        {
          "duration": 0,
          "durationTicks": 0,
          "midi": 32,
          "name": "G#1",
          "ticks": 53856,
          "time": 70.125,
          "velocity": 0.3779527559055118
        },
        {
          "duration": 0.1263020833333286,
          "durationTicks": 97,
          "midi": 67,
          "name": "G4",
          "ticks": 53856,
          "time": 70.125,
          "velocity": 0.2047244094488189
        },
        {
          "duration": 0,
          "durationTicks": 0,
          "midi": 60,
          "name": "C4",
          "ticks": 53883,
          "time": 70.16015625,
          "velocity": 0.2677165354330709
        },
        {
          "duration": 0,
          "durationTicks": 0,
          "midi": 33,
          "name": "A1",
          "ticks": 53883,
          "time": 70.16015625,
          "velocity": 0.33070866141732286
        },
        {
          "duration": 0,
          "durationTicks": 0,
          "midi": 63,
          "name": "D#4",
          "ticks": 53883,
          "time": 70.16015625,
          "velocity": 0.1732283464566929
        },
        {
          "duration": 0,
          "durationTicks": 0,
          "midi": 60,
          "name": "C4",
          "ticks": 53910,
          "time": 70.1953125,
          "velocity": 0.25984251968503935
        },
        {
          "duration": 0.125,
          "durationTicks": 96,
          "midi": 75,
          "name": "D#5",
          "ticks": 53919,
          "time": 70.20703125,
          "velocity": 0.1732283464566929
        },
        {
          "duration": 0,
          "durationTicks": 0,
          "midi": 64,
          "name": "E4",
          "ticks": 54018,
          "time": 70.3359375,
          "velocity": 0.1732283464566929
        },
        {
          "duration": 0,
          "durationTicks": 0,
          "midi": 57,
          "name": "A3",
          "ticks": 54018,
          "time": 70.3359375,
          "velocity": 0.29133858267716534
        },
        {
          "duration": 0,
          "durationTicks": 0,
          "midi": 68,
          "name": "G#4",
          "ticks": 54027,
          "time": 70.34765625,
          "velocity": 0.18110236220472442
        },
        {
          "duration": 0,
          "durationTicks": 0,
          "midi": 86,
          "name": "D6",
          "ticks": 54027,
          "time": 70.34765625,
          "velocity": 0.11023622047244094
        },
        {
          "duration": 0.1276041666666714,
          "durationTicks": 98,
          "midi": 82,
          "name": "A#5",
          "ticks": 54027,
          "time": 70.34765625,
          "velocity": 0.08661417322834646
        },
        {
          "duration": 0,
          "durationTicks": 0,
          "midi": 34,
          "name": "A#1",
          "ticks": 54036,
          "time": 70.359375,
          "velocity": 0.4094488188976378
        },
        {
          "duration": 0,
          "durationTicks": 0,
          "midi": 63,
          "name": "D#4",
          "ticks": 54036,
          "time": 70.359375,
          "velocity": 0.15748031496062992
        },
        {
          "duration": 0,
          "durationTicks": 0,
          "midi": 86,
          "name": "D6",
          "ticks": 54036,
          "time": 70.359375,
          "velocity": 0.07086614173228346
        },
        {
          "duration": 0.1276041666666714,
          "durationTicks": 98,
          "midi": 91,
          "name": "G6",
          "ticks": 54036,
          "time": 70.359375,
          "velocity": 0.10236220472440945
        },
        {
          "duration": 0,
          "durationTicks": 0,
          "midi": 56,
          "name": "G#3",
          "ticks": 54046,
          "time": 70.37239583333333,
          "velocity": 0.23622047244094488
        },
        {
          "duration": 0,
          "durationTicks": 0,
          "midi": 60,
          "name": "C4",
          "ticks": 54046,
          "time": 70.37239583333333,
          "velocity": 0.23622047244094488
        },
        {
          "duration": 0.1276041666666714,
          "durationTicks": 98,
          "midi": 67,
          "name": "G4",
          "ticks": 54046,
          "time": 70.37239583333333,
          "velocity": 0.1968503937007874
        },
        {
          "duration": 0,
          "durationTicks": 0,
          "midi": 32,
          "name": "G#1",
          "ticks": 54055,
          "time": 70.38411458333333,
          "velocity": 0.3700787401574803
        },
        {
          "duration": 0,
          "durationTicks": 0,
          "midi": 33,
          "name": "A1",
          "ticks": 54072,
          "time": 70.40625,
          "velocity": 0.3779527559055118
        },
        {
          "duration": 0.1276041666666714,
          "durationTicks": 98,
          "midi": 70,
          "name": "A#4",
          "ticks": 54090,
          "time": 70.4296875,
          "velocity": 0.11023622047244094
        },
        {
          "duration": 0.1276041666666714,
          "durationTicks": 98,
          "midi": 32,
          "name": "G#1",
          "ticks": 54090,
          "time": 70.4296875,
          "velocity": 0.3700787401574803
        },
        {
          "duration": 0.25390625,
          "durationTicks": 195,
          "midi": 63,
          "name": "D#4",
          "ticks": 54090,
          "time": 70.4296875,
          "velocity": 0.1732283464566929
        },
        {
          "duration": 0,
          "durationTicks": 0,
          "midi": 60,
          "name": "C4",
          "ticks": 54099,
          "time": 70.44140625,
          "velocity": 0.2283464566929134
        },
        {
          "duration": 0.1263020833333428,
          "durationTicks": 97,
          "midi": 75,
          "name": "D#5",
          "ticks": 54109,
          "time": 70.45442708333333,
          "velocity": 0.1968503937007874
        },
        {
          "duration": 0,
          "durationTicks": 0,
          "midi": 51,
          "name": "D#3",
          "ticks": 54118,
          "time": 70.46614583333333,
          "velocity": 0.07874015748031496
        },
        {
          "duration": 0,
          "durationTicks": 0,
          "midi": 68,
          "name": "G#4",
          "ticks": 54137,
          "time": 70.49088541666667,
          "velocity": 0.18110236220472442
        },
        {
          "duration": 0.125,
          "durationTicks": 96,
          "midi": 58,
          "name": "A#3",
          "ticks": 54137,
          "time": 70.49088541666667,
          "velocity": 0.1889763779527559
        },
        {
          "duration": 0.1263020833333428,
          "durationTicks": 97,
          "midi": 68,
          "name": "G#4",
          "ticks": 54163,
          "time": 70.52473958333333,
          "velocity": 0.2283464566929134
        },
        {
          "duration": 0,
          "durationTicks": 0,
          "midi": 51,
          "name": "D#3",
          "ticks": 54181,
          "time": 70.54817708333333,
          "velocity": 0.05511811023622047
        },
        {
          "duration": 0.1263020833333428,
          "durationTicks": 97,
          "midi": 80,
          "name": "G#5",
          "ticks": 54244,
          "time": 70.63020833333333,
          "velocity": 0.1732283464566929
        },
        {
          "duration": 0.2526041666666714,
          "durationTicks": 194,
          "midi": 53,
          "name": "F3",
          "ticks": 54253,
          "time": 70.64192708333333,
          "velocity": 0.07874015748031496
        },
        {
          "duration": 0.125,
          "durationTicks": 96,
          "midi": 34,
          "name": "A#1",
          "ticks": 54263,
          "time": 70.65494791666667,
          "velocity": 0.3937007874015748
        },
        {
          "duration": 0,
          "durationTicks": 0,
          "midi": 75,
          "name": "D#5",
          "ticks": 54317,
          "time": 70.72526041666667,
          "velocity": 0.11023622047244094
        },
        {
          "duration": 0.125,
          "durationTicks": 96,
          "midi": 79,
          "name": "G5",
          "ticks": 54326,
          "time": 70.73697916666667,
          "velocity": 0.16535433070866143
        },
        {
          "duration": 0,
          "durationTicks": 0,
          "midi": 61,
          "name": "C#4",
          "ticks": 54406,
          "time": 70.84114583333333,
          "velocity": 0.1968503937007874
        },
        {
          "duration": 0.1263020833333428,
          "durationTicks": 97,
          "midi": 65,
          "name": "F4",
          "ticks": 54415,
          "time": 70.85286458333333,
          "velocity": 0.1732283464566929
        },
        {
          "duration": 0,
          "durationTicks": 0,
          "midi": 38,
          "name": "D2",
          "ticks": 54424,
          "time": 70.86458333333333,
          "velocity": 0.4015748031496063
        },
        {
          "duration": 0.1263020833333428,
          "durationTicks": 97,
          "midi": 68,
          "name": "G#4",
          "ticks": 54424,
          "time": 70.86458333333333,
          "velocity": 0.13385826771653545
        },
        {
          "duration": 0.1263020833333428,
          "durationTicks": 97,
          "midi": 75,
          "name": "D#5",
          "ticks": 54424,
          "time": 70.86458333333333,
          "velocity": 0.2125984251968504
        },
        {
          "duration": 0,
          "durationTicks": 0,
          "midi": 39,
          "name": "D#2",
          "ticks": 54434,
          "time": 70.87760416666667,
          "velocity": 0.3779527559055118
        },
        {
          "duration": 0,
          "durationTicks": 0,
          "midi": 61,
          "name": "C#4",
          "ticks": 54443,
          "time": 70.88932291666667,
          "velocity": 0.25196850393700787
        },
        {
          "duration": 0,
          "durationTicks": 0,
          "midi": 39,
          "name": "D#2",
          "ticks": 54460,
          "time": 70.91145833333333,
          "velocity": 0.3779527559055118
        },
        {
          "duration": 0,
          "durationTicks": 0,
          "midi": 61,
          "name": "C#4",
          "ticks": 54487,
          "time": 70.94661458333333,
          "velocity": 0.1889763779527559
        },
        {
          "duration": 0,
          "durationTicks": 0,
          "midi": 40,
          "name": "E2",
          "ticks": 54497,
          "time": 70.95963541666667,
          "velocity": 0.30708661417322836
        },
        {
          "duration": 0.1263020833333428,
          "durationTicks": 97,
          "midi": 72,
          "name": "C5",
          "ticks": 54514,
          "time": 70.98177083333333,
          "velocity": 0.14960629921259844
        },
        {
          "duration": 0,
          "durationTicks": 0,
          "midi": 61,
          "name": "C#4",
          "ticks": 54586,
          "time": 71.07552083333333,
          "velocity": 0.1889763779527559
        },
        {
          "duration": 0.1263020833333428,
          "durationTicks": 97,
          "midi": 80,
          "name": "G#5",
          "ticks": 54586,
          "time": 71.07552083333333,
          "velocity": 0.11023622047244094
        },
        {
          "duration": 0,
          "durationTicks": 0,
          "midi": 69,
          "name": "A4",
          "ticks": 54595,
          "time": 71.08723958333333,
          "velocity": 0.1889763779527559
        },
        {
          "duration": 0,
          "durationTicks": 0,
          "midi": 87,
          "name": "D#6",
          "ticks": 54595,
          "time": 71.08723958333333,
          "velocity": 0.11811023622047244
        },
        {
          "duration": 0.1263020833333428,
          "durationTicks": 97,
          "midi": 51,
          "name": "D#3",
          "ticks": 54595,
          "time": 71.08723958333333,
          "velocity": 0.3779527559055118
        },
        {
          "duration": 0.1263020833333428,
          "durationTicks": 97,
          "midi": 65,
          "name": "F4",
          "ticks": 54604,
          "time": 71.09895833333333,
          "velocity": 0.16535433070866143
        },
        {
          "duration": 0,
          "durationTicks": 0,
          "midi": 31,
          "name": "G1",
          "ticks": 54614,
          "time": 71.11197916666667,
          "velocity": 0.29133858267716534
        },
        {
          "duration": 0.1263020833333286,
          "durationTicks": 97,
          "midi": 79,
          "name": "G5",
          "ticks": 54614,
          "time": 71.11197916666667,
          "velocity": 0.10236220472440945
        },
        {
          "duration": 0.1263020833333286,
          "durationTicks": 97,
          "midi": 68,
          "name": "G#4",
          "ticks": 54614,
          "time": 71.11197916666667,
          "velocity": 0.2440944881889764
        },
        {
          "duration": 0,
          "durationTicks": 0,
          "midi": 61,
          "name": "C#4",
          "ticks": 54631,
          "time": 71.13411458333333,
          "velocity": 0.23622047244094488
        },
        {
          "duration": 0,
          "durationTicks": 0,
          "midi": 61,
          "name": "C#4",
          "ticks": 54676,
          "time": 71.19270833333333,
          "velocity": 0.2047244094488189
        },
        {
          "duration": 0.1263020833333428,
          "durationTicks": 97,
          "midi": 75,
          "name": "D#5",
          "ticks": 54685,
          "time": 71.20442708333333,
          "velocity": 0.14173228346456693
        },
        {
          "duration": 0.1263020833333286,
          "durationTicks": 97,
          "midi": 67,
          "name": "G4",
          "ticks": 54713,
          "time": 71.24088541666667,
          "velocity": 0.18110236220472442
        },
        {
          "duration": 0,
          "durationTicks": 0,
          "midi": 65,
          "name": "F4",
          "ticks": 54784,
          "time": 71.33333333333333,
          "velocity": 0.2283464566929134
        },
        {
          "duration": 0,
          "durationTicks": 0,
          "midi": 86,
          "name": "D6",
          "ticks": 54784,
          "time": 71.33333333333333,
          "velocity": 0.09448818897637795
        },
        {
          "duration": 0,
          "durationTicks": 0,
          "midi": 84,
          "name": "C6",
          "ticks": 54784,
          "time": 71.33333333333333,
          "velocity": 0.14173228346456693
        },
        {
          "duration": 0,
          "durationTicks": 0,
          "midi": 90,
          "name": "F#6",
          "ticks": 54784,
          "time": 71.33333333333333,
          "velocity": 0.05511811023622047
        },
        {
          "duration": 0.25390625,
          "durationTicks": 195,
          "midi": 80,
          "name": "G#5",
          "ticks": 54784,
          "time": 71.33333333333333,
          "velocity": 0.1732283464566929
        },
        {
          "duration": 0.1276041666666572,
          "durationTicks": 98,
          "midi": 68,
          "name": "G#4",
          "ticks": 54794,
          "time": 71.34635416666667,
          "velocity": 0.1732283464566929
        },
        {
          "duration": 0,
          "durationTicks": 0,
          "midi": 57,
          "name": "A3",
          "ticks": 54803,
          "time": 71.35807291666667,
          "velocity": 0.31496062992125984
        },
        {
          "duration": 0,
          "durationTicks": 0,
          "midi": 87,
          "name": "D#6",
          "ticks": 54803,
          "time": 71.35807291666667,
          "velocity": 0.07086614173228346
        },
        {
          "duration": 0,
          "durationTicks": 0,
          "midi": 91,
          "name": "G6",
          "ticks": 54803,
          "time": 71.35807291666667,
          "velocity": 0.08661417322834646
        },
        {
          "duration": 0.25390625,
          "durationTicks": 195,
          "midi": 39,
          "name": "D#2",
          "ticks": 54803,
          "time": 71.35807291666667,
          "velocity": 0.3937007874015748
        },
        {
          "duration": 0,
          "durationTicks": 0,
          "midi": 61,
          "name": "C#4",
          "ticks": 54812,
          "time": 71.36979166666667,
          "velocity": 0.25196850393700787
        },
        {
          "duration": 0,
          "durationTicks": 0,
          "midi": 72,
          "name": "C5",
          "ticks": 54822,
          "time": 71.3828125,
          "velocity": 0.10236220472440945
        },
        {
          "duration": 0,
          "durationTicks": 0,
          "midi": 63,
          "name": "D#4",
          "ticks": 54858,
          "time": 71.4296875,
          "velocity": 0.1889763779527559
        },
        {
          "duration": 0,
          "durationTicks": 0,
          "midi": 75,
          "name": "D#5",
          "ticks": 54885,
          "time": 71.46484375,
          "velocity": 0.15748031496062992
        },
        {
          "duration": 0.1263020833333286,
          "durationTicks": 97,
          "midi": 65,
          "name": "F4",
          "ticks": 54894,
          "time": 71.4765625,
          "velocity": 0.1732283464566929
        },
        {
          "duration": 0.1263020833333286,
          "durationTicks": 97,
          "midi": 73,
          "name": "C#5",
          "ticks": 54903,
          "time": 71.48828125,
          "velocity": 0.08661417322834646
        },
        {
          "duration": 0,
          "durationTicks": 0,
          "midi": 61,
          "name": "C#4",
          "ticks": 54921,
          "time": 71.51171875,
          "velocity": 0.23622047244094488
        },
        {
          "duration": 0,
          "durationTicks": 0,
          "midi": 61,
          "name": "C#4",
          "ticks": 54975,
          "time": 71.58203125,
          "velocity": 0.23622047244094488
        },
        {
          "duration": 0,
          "durationTicks": 0,
          "midi": 87,
          "name": "D#6",
          "ticks": 54975,
          "time": 71.58203125,
          "velocity": 0.1732283464566929
        },
        {
          "duration": 0,
          "durationTicks": 0,
          "midi": 60,
          "name": "C4",
          "ticks": 54993,
          "time": 71.60546875,
          "velocity": 0.2047244094488189
        },
        {
          "duration": 0,
          "durationTicks": 0,
          "midi": 55,
          "name": "G3",
          "ticks": 55029,
          "time": 71.65234375,
          "velocity": 0.25196850393700787
        },
        {
          "duration": 0,
          "durationTicks": 0,
          "midi": 32,
          "name": "G#1",
          "ticks": 55056,
          "time": 71.6875,
          "velocity": 0.3700787401574803
        },
        {
          "duration": 0,
          "durationTicks": 0,
          "midi": 58,
          "name": "A#3",
          "ticks": 55056,
          "time": 71.6875,
          "velocity": 0.2047244094488189
        },
        {
          "duration": 0,
          "durationTicks": 0,
          "midi": 31,
          "name": "G1",
          "ticks": 55074,
          "time": 71.7109375,
          "velocity": 0.3700787401574803
        },
        {
          "duration": 0,
          "durationTicks": 0,
          "midi": 57,
          "name": "A3",
          "ticks": 55074,
          "time": 71.7109375,
          "velocity": 0.31496062992125984
        },
        {
          "duration": 0,
          "durationTicks": 0,
          "midi": 65,
          "name": "F4",
          "ticks": 55074,
          "time": 71.7109375,
          "velocity": 0.13385826771653545
        },
        {
          "duration": 0,
          "durationTicks": 0,
          "midi": 71,
          "name": "B4",
          "ticks": 55074,
          "time": 71.7109375,
          "velocity": 0.13385826771653545
        },
        {
          "duration": 0,
          "durationTicks": 0,
          "midi": 30,
          "name": "F#1",
          "ticks": 55092,
          "time": 71.734375,
          "velocity": 0.3779527559055118
        },
        {
          "duration": 0,
          "durationTicks": 0,
          "midi": 56,
          "name": "G#3",
          "ticks": 55092,
          "time": 71.734375,
          "velocity": 0.30708661417322836
        },
        {
          "duration": 0,
          "durationTicks": 0,
          "midi": 62,
          "name": "D4",
          "ticks": 55092,
          "time": 71.734375,
          "velocity": 0.09448818897637795
        },
        {
          "duration": 0.1276041666666714,
          "durationTicks": 98,
          "midi": 75,
          "name": "D#5",
          "ticks": 55101,
          "time": 71.74609375,
          "velocity": 0.15748031496062992
        },
        {
          "duration": 0,
          "durationTicks": 0,
          "midi": 49,
          "name": "C#3",
          "ticks": 55110,
          "time": 71.7578125,
          "velocity": 0.2755905511811024
        },
        {
          "duration": 0,
          "durationTicks": 0,
          "midi": 48,
          "name": "C3",
          "ticks": 55128,
          "time": 71.78125,
          "velocity": 0.2283464566929134
        },
        {
          "duration": 0,
          "durationTicks": 0,
          "midi": 55,
          "name": "G3",
          "ticks": 55128,
          "time": 71.78125,
          "velocity": 0.2125984251968504
        },
        {
          "duration": 0.1276041666666714,
          "durationTicks": 98,
          "midi": 63,
          "name": "D#4",
          "ticks": 55128,
          "time": 71.78125,
          "velocity": 0.16535433070866143
        },
        {
          "duration": 0,
          "durationTicks": 0,
          "midi": 33,
          "name": "A1",
          "ticks": 55164,
          "time": 71.828125,
          "velocity": 0.3779527559055118
        },
        {
          "duration": 0,
          "durationTicks": 0,
          "midi": 48,
          "name": "C3",
          "ticks": 55173,
          "time": 71.83984375,
          "velocity": 0.25984251968503935
        },
        {
          "duration": 0.1276041666666714,
          "durationTicks": 98,
          "midi": 72,
          "name": "C5",
          "ticks": 55173,
          "time": 71.83984375,
          "velocity": 0.15748031496062992
        },
        {
          "duration": 0,
          "durationTicks": 0,
          "midi": 28,
          "name": "E1",
          "ticks": 55183,
          "time": 71.85286458333333,
          "velocity": 0.4330708661417323
        },
        {
          "duration": 0,
          "durationTicks": 0,
          "midi": 30,
          "name": "F#1",
          "ticks": 55192,
          "time": 71.86458333333333,
          "velocity": 0.4409448818897638
        },
        {
          "duration": 0,
          "durationTicks": 0,
          "midi": 48,
          "name": "C3",
          "ticks": 55211,
          "time": 71.88932291666667,
          "velocity": 0.09448818897637795
        },
        {
          "duration": 0.1263020833333428,
          "durationTicks": 97,
          "midi": 29,
          "name": "F1",
          "ticks": 55228,
          "time": 71.91145833333333,
          "velocity": 0.3937007874015748
        },
        {
          "duration": 0,
          "durationTicks": 0,
          "midi": 75,
          "name": "D#5",
          "ticks": 55264,
          "time": 71.95833333333333,
          "velocity": 0.14960629921259844
        },
        {
          "duration": 0.1263020833333428,
          "durationTicks": 97,
          "midi": 48,
          "name": "C3",
          "ticks": 55264,
          "time": 71.95833333333333,
          "velocity": 0.08661417322834646
        },
        {
          "duration": 0.1263020833333428,
          "durationTicks": 97,
          "midi": 68,
          "name": "G#4",
          "ticks": 55291,
          "time": 71.99348958333333,
          "velocity": 0.15748031496062992
        },
        {
          "duration": 0,
          "durationTicks": 0,
          "midi": 87,
          "name": "D#6",
          "ticks": 55364,
          "time": 72.08854166666667,
          "velocity": 0.13385826771653545
        },
        {
          "duration": 0.125,
          "durationTicks": 96,
          "midi": 63,
          "name": "D#4",
          "ticks": 55381,
          "time": 72.11067708333333,
          "velocity": 0.15748031496062992
        },
        {
          "duration": 0,
          "durationTicks": 0,
          "midi": 75,
          "name": "D#5",
          "ticks": 55453,
          "time": 72.20442708333333,
          "velocity": 0.16535433070866143
        },
        {
          "duration": 0.1263020833333286,
          "durationTicks": 97,
          "midi": 75,
          "name": "D#5",
          "ticks": 55497,
          "time": 72.26171875,
          "velocity": 0.16535433070866143
        },
        {
          "duration": 0.1276041666666714,
          "durationTicks": 98,
          "midi": 72,
          "name": "C5",
          "ticks": 55542,
          "time": 72.3203125,
          "velocity": 0.1732283464566929
        },
        {
          "duration": 0,
          "durationTicks": 0,
          "midi": 60,
          "name": "C4",
          "ticks": 55551,
          "time": 72.33203125,
          "velocity": 0.2204724409448819
        },
        {
          "duration": 0,
          "durationTicks": 0,
          "midi": 66,
          "name": "F#4",
          "ticks": 55551,
          "time": 72.33203125,
          "velocity": 0.2047244094488189
        },
        {
          "duration": 0,
          "durationTicks": 0,
          "midi": 56,
          "name": "G#3",
          "ticks": 55551,
          "time": 72.33203125,
          "velocity": 0.2992125984251969
        },
        {
          "duration": 0,
          "durationTicks": 0,
          "midi": 90,
          "name": "F#6",
          "ticks": 55551,
          "time": 72.33203125,
          "velocity": 0.06299212598425197
        },
        {
          "duration": 0,
          "durationTicks": 0,
          "midi": 86,
          "name": "D6",
          "ticks": 55551,
          "time": 72.33203125,
          "velocity": 0.07874015748031496
        },
        {
          "duration": 0,
          "durationTicks": 0,
          "midi": 89,
          "name": "F6",
          "ticks": 55551,
          "time": 72.33203125,
          "velocity": 0.10236220472440945
        },
        {
          "duration": 0.1276041666666714,
          "durationTicks": 98,
          "midi": 82,
          "name": "A#5",
          "ticks": 55551,
          "time": 72.33203125,
          "velocity": 0.07086614173228346
        },
        {
          "duration": 0.1276041666666714,
          "durationTicks": 98,
          "midi": 80,
          "name": "G#5",
          "ticks": 55551,
          "time": 72.33203125,
          "velocity": 0.1732283464566929
        },
        {
          "duration": 0,
          "durationTicks": 0,
          "midi": 77,
          "name": "F5",
          "ticks": 55560,
          "time": 72.34375,
          "velocity": 0.09448818897637795
        },
        {
          "duration": 0.1263020833333428,
          "durationTicks": 97,
          "midi": 65,
          "name": "F4",
          "ticks": 55570,
          "time": 72.35677083333333,
          "velocity": 0.2204724409448819
        },
        {
          "duration": 0.1263020833333428,
          "durationTicks": 97,
          "midi": 60,
          "name": "C4",
          "ticks": 55579,
          "time": 72.36848958333333,
          "velocity": 0.1968503937007874
        },
        {
          "duration": 0,
          "durationTicks": 0,
          "midi": 75,
          "name": "D#5",
          "ticks": 55597,
          "time": 72.39192708333333,
          "velocity": 0.06299212598425197
        },
        {
          "duration": 0,
          "durationTicks": 0,
          "midi": 41,
          "name": "F2",
          "ticks": 55633,
          "time": 72.43880208333333,
          "velocity": 0.2125984251968504
        },
        {
          "duration": 0.125,
          "durationTicks": 96,
          "midi": 63,
          "name": "D#4",
          "ticks": 55642,
          "time": 72.45052083333333,
          "velocity": 0.2283464566929134
        },
        {
          "duration": 0.125,
          "durationTicks": 96,
          "midi": 60,
          "name": "C4",
          "ticks": 55678,
          "time": 72.49739583333333,
          "velocity": 0.16535433070866143
        },
        {
          "duration": 0.1263020833333286,
          "durationTicks": 97,
          "midi": 27,
          "name": "D#1",
          "ticks": 55740,
          "time": 72.578125,
          "velocity": 0.3779527559055118
        },
        {
          "duration": 0.1263020833333286,
          "durationTicks": 97,
          "midi": 80,
          "name": "G#5",
          "ticks": 55767,
          "time": 72.61328125,
          "velocity": 0.1732283464566929
        },
        {
          "duration": 0,
          "durationTicks": 0,
          "midi": 75,
          "name": "D#5",
          "ticks": 55830,
          "time": 72.6953125,
          "velocity": 0.18110236220472442
        },
        {
          "duration": 0.1263020833333286,
          "durationTicks": 97,
          "midi": 79,
          "name": "G5",
          "ticks": 55857,
          "time": 72.73046875,
          "velocity": 0.16535433070866143
        },
        {
          "duration": 0.1263020833333286,
          "durationTicks": 97,
          "midi": 65,
          "name": "F4",
          "ticks": 55929,
          "time": 72.82421875,
          "velocity": 0.18110236220472442
        },
        {
          "duration": 0,
          "durationTicks": 0,
          "midi": 28,
          "name": "E1",
          "ticks": 55938,
          "time": 72.8359375,
          "velocity": 0.4015748031496063
        },
        {
          "duration": 0.1263020833333286,
          "durationTicks": 97,
          "midi": 60,
          "name": "C4",
          "ticks": 55938,
          "time": 72.8359375,
          "velocity": 0.18110236220472442
        },
        {
          "duration": 0.1263020833333286,
          "durationTicks": 97,
          "midi": 68,
          "name": "G#4",
          "ticks": 55938,
          "time": 72.8359375,
          "velocity": 0.1968503937007874
        },
        {
          "duration": 0.1263020833333286,
          "durationTicks": 97,
          "midi": 87,
          "name": "D#6",
          "ticks": 55938,
          "time": 72.8359375,
          "velocity": 0.11023622047244094
        },
        {
          "duration": 0,
          "durationTicks": 0,
          "midi": 30,
          "name": "F#1",
          "ticks": 55947,
          "time": 72.84765625,
          "velocity": 0.4409448818897638
        },
        {
          "duration": 0.1263020833333286,
          "durationTicks": 97,
          "midi": 75,
          "name": "D#5",
          "ticks": 55947,
          "time": 72.84765625,
          "velocity": 0.13385826771653545
        },
        {
          "duration": 0,
          "durationTicks": 0,
          "midi": 48,
          "name": "C3",
          "ticks": 55974,
          "time": 72.8828125,
          "velocity": 0.09448818897637795
        },
        {
          "duration": 0.1263020833333428,
          "durationTicks": 97,
          "midi": 29,
          "name": "F1",
          "ticks": 55984,
          "time": 72.89583333333333,
          "velocity": 0.4015748031496063
        },
        {
          "duration": 0.1263020833333286,
          "durationTicks": 97,
          "midi": 48,
          "name": "C3",
          "ticks": 56028,
          "time": 72.953125,
          "velocity": 0.10236220472440945
        },
        {
          "duration": 0.1263020833333428,
          "durationTicks": 97,
          "midi": 72,
          "name": "C5",
          "ticks": 56047,
          "time": 72.97786458333333,
          "velocity": 0.15748031496062992
        },
        {
          "duration": 0.1263020833333286,
          "durationTicks": 97,
          "midi": 60,
          "name": "C4",
          "ticks": 56118,
          "time": 73.0703125,
          "velocity": 0.16535433070866143
        },
        {
          "duration": 0.1263020833333286,
          "durationTicks": 97,
          "midi": 87,
          "name": "D#6",
          "ticks": 56127,
          "time": 73.08203125,
          "velocity": 0.08661417322834646
        },
        {
          "duration": 0,
          "durationTicks": 0,
          "midi": 65,
          "name": "F4",
          "ticks": 56137,
          "time": 73.09505208333333,
          "velocity": 0.1968503937007874
        },
        {
          "duration": 0.1263020833333428,
          "durationTicks": 97,
          "midi": 68,
          "name": "G#4",
          "ticks": 56137,
          "time": 73.09505208333333,
          "velocity": 0.15748031496062992
        },
        {
          "duration": 0.1263020833333428,
          "durationTicks": 97,
          "midi": 79,
          "name": "G5",
          "ticks": 56137,
          "time": 73.09505208333333,
          "velocity": 0.1732283464566929
        },
        {
          "duration": 0,
          "durationTicks": 0,
          "midi": 65,
          "name": "F4",
          "ticks": 56181,
          "time": 73.15234375,
          "velocity": 0.1889763779527559
        },
        {
          "duration": 0.1263020833333428,
          "durationTicks": 97,
          "midi": 75,
          "name": "D#5",
          "ticks": 56245,
          "time": 73.23567708333333,
          "velocity": 0.1732283464566929
        },
        {
          "duration": 0,
          "durationTicks": 0,
          "midi": 44,
          "name": "G#2",
          "ticks": 56307,
          "time": 73.31640625,
          "velocity": 0.3779527559055118
        },
        {
          "duration": 0.1276041666666714,
          "durationTicks": 98,
          "midi": 72,
          "name": "C5",
          "ticks": 56307,
          "time": 73.31640625,
          "velocity": 0.15748031496062992
        },
        {
          "duration": 0,
          "durationTicks": 0,
          "midi": 90,
          "name": "F#6",
          "ticks": 56317,
          "time": 73.32942708333333,
          "velocity": 0.06299212598425197
        },
        {
          "duration": 0,
          "durationTicks": 0,
          "midi": 86,
          "name": "D6",
          "ticks": 56317,
          "time": 73.32942708333333,
          "velocity": 0.11023622047244094
        },
        {
          "duration": 0.1276041666666714,
          "durationTicks": 98,
          "midi": 80,
          "name": "G#5",
          "ticks": 56317,
          "time": 73.32942708333333,
          "velocity": 0.15748031496062992
        },
        {
          "duration": 0,
          "durationTicks": 0,
          "midi": 42,
          "name": "F#2",
          "ticks": 56326,
          "time": 73.34114583333333,
          "velocity": 0.4094488188976378
        },
        {
          "duration": 0,
          "durationTicks": 0,
          "midi": 65,
          "name": "F4",
          "ticks": 56326,
          "time": 73.34114583333333,
          "velocity": 0.1732283464566929
        },
        {
          "duration": 0,
          "durationTicks": 0,
          "midi": 87,
          "name": "D#6",
          "ticks": 56335,
          "time": 73.35286458333333,
          "velocity": 0.13385826771653545
        },
        {
          "duration": 0.1276041666666714,
          "durationTicks": 98,
          "midi": 43,
          "name": "G2",
          "ticks": 56335,
          "time": 73.35286458333333,
          "velocity": 0.3779527559055118
        },
        {
          "duration": 0,
          "durationTicks": 0,
          "midi": 56,
          "name": "G#3",
          "ticks": 56345,
          "time": 73.36588541666667,
          "velocity": 0.2047244094488189
        },
        {
          "duration": 0,
          "durationTicks": 0,
          "midi": 60,
          "name": "C4",
          "ticks": 56354,
          "time": 73.37760416666667,
          "velocity": 0.1732283464566929
        },
        {
          "duration": 0,
          "durationTicks": 0,
          "midi": 65,
          "name": "F4",
          "ticks": 56372,
          "time": 73.40104166666667,
          "velocity": 0.1732283464566929
        },
        {
          "duration": 0,
          "durationTicks": 0,
          "midi": 63,
          "name": "D#4",
          "ticks": 56381,
          "time": 73.41276041666667,
          "velocity": 0.2047244094488189
        },
        {
          "duration": 0,
          "durationTicks": 0,
          "midi": 44,
          "name": "G#2",
          "ticks": 56398,
          "time": 73.43489583333333,
          "velocity": 0.3464566929133858
        },
        {
          "duration": 0.1263020833333286,
          "durationTicks": 97,
          "midi": 31,
          "name": "G1",
          "ticks": 56426,
          "time": 73.47135416666667,
          "velocity": 0.3779527559055118
        },
        {
          "duration": 0.1263020833333286,
          "durationTicks": 97,
          "midi": 70,
          "name": "A#4",
          "ticks": 56426,
          "time": 73.47135416666667,
          "velocity": 0.1732283464566929
        },
        {
          "duration": 0,
          "durationTicks": 0,
          "midi": 50,
          "name": "D3",
          "ticks": 56436,
          "time": 73.484375,
          "velocity": 0.06299212598425197
        },
        {
          "duration": 0,
          "durationTicks": 0,
          "midi": 50,
          "name": "D3",
          "ticks": 56472,
          "time": 73.53125,
          "velocity": 0.07086614173228346
        },
        {
          "duration": 0,
          "durationTicks": 0,
          "midi": 87,
          "name": "D#6",
          "ticks": 56508,
          "time": 73.578125,
          "velocity": 0.14173228346456693
        },
        {
          "duration": 0.1263020833333286,
          "durationTicks": 97,
          "midi": 75,
          "name": "D#5",
          "ticks": 56535,
          "time": 73.61328125,
          "velocity": 0.05511811023622047
        },
        {
          "duration": 0.1263020833333286,
          "durationTicks": 97,
          "midi": 68,
          "name": "G#4",
          "ticks": 56535,
          "time": 73.61328125,
          "velocity": 0.2283464566929134
        },
        {
          "duration": 0,
          "durationTicks": 0,
          "midi": 44,
          "name": "G#2",
          "ticks": 56597,
          "time": 73.69401041666667,
          "velocity": 0.4015748031496063
        },
        {
          "duration": 0,
          "durationTicks": 0,
          "midi": 58,
          "name": "A#3",
          "ticks": 56597,
          "time": 73.69401041666667,
          "velocity": 0.1968503937007874
        },
        {
          "duration": 0.1276041666666572,
          "durationTicks": 98,
          "midi": 63,
          "name": "D#4",
          "ticks": 56597,
          "time": 73.69401041666667,
          "velocity": 0.2204724409448819
        },
        {
          "duration": 0,
          "durationTicks": 0,
          "midi": 87,
          "name": "D#6",
          "ticks": 56606,
          "time": 73.70572916666667,
          "velocity": 0.10236220472440945
        },
        {
          "duration": 0,
          "durationTicks": 0,
          "midi": 45,
          "name": "A2",
          "ticks": 56616,
          "time": 73.71875,
          "velocity": 0.3937007874015748
        },
        {
          "duration": 0,
          "durationTicks": 0,
          "midi": 31,
          "name": "G1",
          "ticks": 56616,
          "time": 73.71875,
          "velocity": 0.29133858267716534
        },
        {
          "duration": 0.1263020833333286,
          "durationTicks": 97,
          "midi": 79,
          "name": "G5",
          "ticks": 56616,
          "time": 73.71875,
          "velocity": 0.14173228346456693
        },
        {
          "duration": 0.2513020833333286,
          "durationTicks": 193,
          "midi": 67,
          "name": "G4",
          "ticks": 56625,
          "time": 73.73046875,
          "velocity": 0.2440944881889764
        },
        {
          "duration": 0,
          "durationTicks": 0,
          "midi": 58,
          "name": "A#3",
          "ticks": 56634,
          "time": 73.7421875,
          "velocity": 0.1732283464566929
        },
        {
          "duration": 0.125,
          "durationTicks": 96,
          "midi": 44,
          "name": "G#2",
          "ticks": 56634,
          "time": 73.7421875,
          "velocity": 0.3779527559055118
        },
        {
          "duration": 0,
          "durationTicks": 0,
          "midi": 72,
          "name": "C5",
          "ticks": 56661,
          "time": 73.77734375,
          "velocity": 0.05511811023622047
        },
        {
          "duration": 0,
          "durationTicks": 0,
          "midi": 58,
          "name": "A#3",
          "ticks": 56688,
          "time": 73.8125,
          "velocity": 0.1968503937007874
        },
        {
          "duration": 0,
          "durationTicks": 0,
          "midi": 61,
          "name": "C#4",
          "ticks": 56715,
          "time": 73.84765625,
          "velocity": 0.1889763779527559
        },
        {
          "duration": 0,
          "durationTicks": 0,
          "midi": 58,
          "name": "A#3",
          "ticks": 56742,
          "time": 73.8828125,
          "velocity": 0.1889763779527559
        },
        {
          "duration": 0.125,
          "durationTicks": 96,
          "midi": 63,
          "name": "D#4",
          "ticks": 56742,
          "time": 73.8828125,
          "velocity": 0.15748031496062992
        },
        {
          "duration": 0.125,
          "durationTicks": 96,
          "midi": 44,
          "name": "G#2",
          "ticks": 56786,
          "time": 73.94010416666667,
          "velocity": 0.3779527559055118
        },
        {
          "duration": 0.1263020833333286,
          "durationTicks": 97,
          "midi": 68,
          "name": "G#4",
          "ticks": 56813,
          "time": 73.97526041666667,
          "velocity": 0.1968503937007874
        },
        {
          "duration": 0.1263020833333286,
          "durationTicks": 97,
          "midi": 63,
          "name": "D#4",
          "ticks": 56823,
          "time": 73.98828125,
          "velocity": 0.14960629921259844
        },
        {
          "duration": 0.1263020833333286,
          "durationTicks": 97,
          "midi": 60,
          "name": "C4",
          "ticks": 56894,
          "time": 74.08072916666667,
          "velocity": 0.29133858267716534
        },
        {
          "duration": 0.1263020833333286,
          "durationTicks": 97,
          "midi": 70,
          "name": "A#4",
          "ticks": 56894,
          "time": 74.08072916666667,
          "velocity": 0.06299212598425197
        },
        {
          "duration": 0.1263020833333286,
          "durationTicks": 97,
          "midi": 67,
          "name": "G4",
          "ticks": 56903,
          "time": 74.09244791666667,
          "velocity": 0.1968503937007874
        },
        {
          "duration": 0,
          "durationTicks": 0,
          "midi": 32,
          "name": "G#1",
          "ticks": 56913,
          "time": 74.10546875,
          "velocity": 0.3700787401574803
        },
        {
          "duration": 0.125,
          "durationTicks": 96,
          "midi": 63,
          "name": "D#4",
          "ticks": 56922,
          "time": 74.1171875,
          "velocity": 0.1889763779527559
        },
        {
          "duration": 0,
          "durationTicks": 0,
          "midi": 33,
          "name": "A1",
          "ticks": 56931,
          "time": 74.12890625,
          "velocity": 0.3464566929133858
        },
        {
          "duration": 0.125,
          "durationTicks": 96,
          "midi": 75,
          "name": "D#5",
          "ticks": 56976,
          "time": 74.1875,
          "velocity": 0.1732283464566929
        },
        {
          "duration": 0,
          "durationTicks": 0,
          "midi": 68,
          "name": "G#4",
          "ticks": 57065,
          "time": 74.30338541666667,
          "velocity": 0.15748031496062992
        },
        {
          "duration": 0,
          "durationTicks": 0,
          "midi": 57,
          "name": "A3",
          "ticks": 57074,
          "time": 74.31510416666667,
          "velocity": 0.31496062992125984
        },
        {
          "duration": 0,
          "durationTicks": 0,
          "midi": 86,
          "name": "D6",
          "ticks": 57074,
          "time": 74.31510416666667,
          "velocity": 0.12598425196850394
        },
        {
          "duration": 0,
          "durationTicks": 0,
          "midi": 33,
          "name": "A1",
          "ticks": 57083,
          "time": 74.32682291666667,
          "velocity": 0.4015748031496063
        },
        {
          "duration": 0,
          "durationTicks": 0,
          "midi": 63,
          "name": "D#4",
          "ticks": 57083,
          "time": 74.32682291666667,
          "velocity": 0.1968503937007874
        },
        {
          "duration": 0,
          "durationTicks": 0,
          "midi": 77,
          "name": "F5",
          "ticks": 57083,
          "time": 74.32682291666667,
          "velocity": 0.09448818897637795
        },
        {
          "duration": 0,
          "durationTicks": 0,
          "midi": 34,
          "name": "A#1",
          "ticks": 57093,
          "time": 74.33984375,
          "velocity": 0.4015748031496063
        },
        {
          "duration": 0,
          "durationTicks": 0,
          "midi": 56,
          "name": "G#3",
          "ticks": 57093,
          "time": 74.33984375,
          "velocity": 0.28346456692913385
        },
        {
          "duration": 0,
          "durationTicks": 0,
          "midi": 91,
          "name": "G6",
          "ticks": 57093,
          "time": 74.33984375,
          "velocity": 0.14173228346456693
        },
        {
          "duration": 0,
          "durationTicks": 0,
          "midi": 60,
          "name": "C4",
          "ticks": 57102,
          "time": 74.3515625,
          "velocity": 0.2283464566929134
        },
        {
          "duration": 0,
          "durationTicks": 0,
          "midi": 32,
          "name": "G#1",
          "ticks": 57102,
          "time": 74.3515625,
          "velocity": 0.3779527559055118
        },
        {
          "duration": 0,
          "durationTicks": 0,
          "midi": 86,
          "name": "D6",
          "ticks": 57102,
          "time": 74.3515625,
          "velocity": 0.06299212598425197
        },
        {
          "duration": 0.1263020833333286,
          "durationTicks": 97,
          "midi": 82,
          "name": "A#5",
          "ticks": 57102,
          "time": 74.3515625,
          "velocity": 0.11023622047244094
        },
        {
          "duration": 0.1263020833333286,
          "durationTicks": 97,
          "midi": 79,
          "name": "G5",
          "ticks": 57102,
          "time": 74.3515625,
          "velocity": 0.11811023622047244
        },
        {
          "duration": 0.1263020833333286,
          "durationTicks": 97,
          "midi": 67,
          "name": "G4",
          "ticks": 57120,
          "time": 74.375,
          "velocity": 0.1968503937007874
        },
        {
          "duration": 0.1263020833333286,
          "durationTicks": 97,
          "midi": 75,
          "name": "D#5",
          "ticks": 57120,
          "time": 74.375,
          "velocity": 0.1968503937007874
        },
        {
          "duration": 0,
          "durationTicks": 0,
          "midi": 33,
          "name": "A1",
          "ticks": 57129,
          "time": 74.38671875,
          "velocity": 0.3779527559055118
        },
        {
          "duration": 0,
          "durationTicks": 0,
          "midi": 60,
          "name": "C4",
          "ticks": 57129,
          "time": 74.38671875,
          "velocity": 0.2283464566929134
        },
        {
          "duration": 0.2513020833333286,
          "durationTicks": 193,
          "midi": 63,
          "name": "D#4",
          "ticks": 57129,
          "time": 74.38671875,
          "velocity": 0.1968503937007874
        },
        {
          "duration": 0.125,
          "durationTicks": 96,
          "midi": 51,
          "name": "D#3",
          "ticks": 57138,
          "time": 74.3984375,
          "velocity": 0.07086614173228346
        },
        {
          "duration": 0,
          "durationTicks": 0,
          "midi": 70,
          "name": "A#4",
          "ticks": 57148,
          "time": 74.41145833333333,
          "velocity": 0.06299212598425197
        },
        {
          "duration": 0.125,
          "durationTicks": 96,
          "midi": 32,
          "name": "G#1",
          "ticks": 57148,
          "time": 74.41145833333333,
          "velocity": 0.3700787401574803
        },
        {
          "duration": 0,
          "durationTicks": 0,
          "midi": 68,
          "name": "G#4",
          "ticks": 57192,
          "time": 74.46875,
          "velocity": 0.1968503937007874
        },
        {
          "duration": 0,
          "durationTicks": 0,
          "midi": 68,
          "name": "G#4",
          "ticks": 57219,
          "time": 74.50390625,
          "velocity": 0.2283464566929134
        },
        {
          "duration": 0,
          "durationTicks": 0,
          "midi": 67,
          "name": "G4",
          "ticks": 57237,
          "time": 74.52734375,
          "velocity": 0.1968503937007874
        },
        {
          "duration": 0,
          "durationTicks": 0,
          "midi": 58,
          "name": "A#3",
          "ticks": 57246,
          "time": 74.5390625,
          "velocity": 0.18110236220472442
        },
        {
          "duration": 0,
          "durationTicks": 0,
          "midi": 68,
          "name": "G#4",
          "ticks": 57255,
          "time": 74.55078125,
          "velocity": 0.2283464566929134
        },
        {
          "duration": 0.1236979166666714,
          "durationTicks": 95,
          "midi": 80,
          "name": "G#5",
          "ticks": 57300,
          "time": 74.609375,
          "velocity": 0.1732283464566929
        },
        {
          "duration": 0,
          "durationTicks": 0,
          "midi": 75,
          "name": "D#5",
          "ticks": 57362,
          "time": 74.69010416666667,
          "velocity": 0.11811023622047244
        },
        {
          "duration": 0.37890625,
          "durationTicks": 291,
          "midi": 79,
          "name": "G5",
          "ticks": 57379,
          "time": 74.71223958333333,
          "velocity": 0.1732283464566929
        },
        {
          "duration": 0,
          "durationTicks": 0,
          "midi": 35,
          "name": "B1",
          "ticks": 57442,
          "time": 74.79427083333333,
          "velocity": 0.2677165354330709
        },
        {
          "duration": 0,
          "durationTicks": 0,
          "midi": 58,
          "name": "A#3",
          "ticks": 57459,
          "time": 74.81640625,
          "velocity": 0.1889763779527559
        },
        {
          "duration": 0,
          "durationTicks": 0,
          "midi": 36,
          "name": "C2",
          "ticks": 57459,
          "time": 74.81640625,
          "velocity": 0.3779527559055118
        },
        {
          "duration": 0.1263020833333286,
          "durationTicks": 97,
          "midi": 72,
          "name": "C5",
          "ticks": 57459,
          "time": 74.81640625,
          "velocity": 0.06299212598425197
        },
        {
          "duration": 0.1263020833333286,
          "durationTicks": 97,
          "midi": 75,
          "name": "D#5",
          "ticks": 57468,
          "time": 74.828125,
          "velocity": 0.2440944881889764
        },
        {
          "duration": 0.25390625,
          "durationTicks": 195,
          "midi": 67,
          "name": "G4",
          "ticks": 57468,
          "time": 74.828125,
          "velocity": 0.1968503937007874
        },
        {
          "duration": 0,
          "durationTicks": 0,
          "midi": 35,
          "name": "B1",
          "ticks": 57486,
          "time": 74.8515625,
          "velocity": 0.4251968503937008
        },
        {
          "duration": 0,
          "durationTicks": 0,
          "midi": 58,
          "name": "A#3",
          "ticks": 57486,
          "time": 74.8515625,
          "velocity": 0.1732283464566929
        },
        {
          "duration": 0,
          "durationTicks": 0,
          "midi": 63,
          "name": "D#4",
          "ticks": 57486,
          "time": 74.8515625,
          "velocity": 0.15748031496062992
        },
        {
          "duration": 0,
          "durationTicks": 0,
          "midi": 60,
          "name": "C4",
          "ticks": 57495,
          "time": 74.86328125,
          "velocity": 0.23622047244094488
        },
        {
          "duration": 0,
          "durationTicks": 0,
          "midi": 37,
          "name": "C#2",
          "ticks": 57513,
          "time": 74.88671875,
          "velocity": 0.3858267716535433
        },
        {
          "duration": 0.1276041666666714,
          "durationTicks": 98,
          "midi": 63,
          "name": "D#4",
          "ticks": 57522,
          "time": 74.8984375,
          "velocity": 0.18110236220472442
        },
        {
          "duration": 0,
          "durationTicks": 0,
          "midi": 60,
          "name": "C4",
          "ticks": 57532,
          "time": 74.91145833333333,
          "velocity": 0.2283464566929134
        },
        {
          "duration": 0.1276041666666714,
          "durationTicks": 98,
          "midi": 36,
          "name": "C2",
          "ticks": 57532,
          "time": 74.91145833333333,
          "velocity": 0.3937007874015748
        },
        {
          "duration": 0,
          "durationTicks": 0,
          "midi": 60,
          "name": "C4",
          "ticks": 57558,
          "time": 74.9453125,
          "velocity": 0.2283464566929134
        },
        {
          "duration": 0.1276041666666714,
          "durationTicks": 98,
          "midi": 84,
          "name": "C6",
          "ticks": 57568,
          "time": 74.95833333333333,
          "velocity": 0.14173228346456693
        },
        {
          "duration": 0.1276041666666714,
          "durationTicks": 98,
          "midi": 72,
          "name": "C5",
          "ticks": 57577,
          "time": 74.97005208333333,
          "velocity": 0.14173228346456693
        },
        {
          "duration": 0,
          "durationTicks": 0,
          "midi": 60,
          "name": "C4",
          "ticks": 57586,
          "time": 74.98177083333333,
          "velocity": 0.2283464566929134
        },
        {
          "duration": 0,
          "durationTicks": 0,
          "midi": 60,
          "name": "C4",
          "ticks": 57613,
          "time": 75.01692708333333,
          "velocity": 0.2283464566929134
        },
        {
          "duration": 0,
          "durationTicks": 0,
          "midi": 87,
          "name": "D#6",
          "ticks": 57641,
          "time": 75.05338541666667,
          "velocity": 0.13385826771653545
        },
        {
          "duration": 0.2526041666666572,
          "durationTicks": 194,
          "midi": 48,
          "name": "C3",
          "ticks": 57650,
          "time": 75.06510416666667,
          "velocity": 0.3779527559055118
        },
        {
          "duration": 0,
          "durationTicks": 0,
          "midi": 68,
          "name": "G#4",
          "ticks": 57668,
          "time": 75.08854166666667,
          "velocity": 0.1889763779527559
        },
        {
          "duration": 0,
          "durationTicks": 0,
          "midi": 31,
          "name": "G1",
          "ticks": 57668,
          "time": 75.08854166666667,
          "velocity": 0.29133858267716534
        },
        {
          "duration": 0.25390625,
          "durationTicks": 195,
          "midi": 79,
          "name": "G5",
          "ticks": 57677,
          "time": 75.10026041666667,
          "velocity": 0.14960629921259844
        },
        {
          "duration": 0.1263020833333286,
          "durationTicks": 97,
          "midi": 68,
          "name": "G#4",
          "ticks": 57704,
          "time": 75.13541666666667,
          "velocity": 0.2047244094488189
        },
        {
          "duration": 0.1263020833333286,
          "durationTicks": 97,
          "midi": 75,
          "name": "D#5",
          "ticks": 57740,
          "time": 75.18229166666667,
          "velocity": 0.14173228346456693
        },
        {
          "duration": 0.1276041666666572,
          "durationTicks": 98,
          "midi": 67,
          "name": "G4",
          "ticks": 57767,
          "time": 75.21744791666667,
          "velocity": 0.2047244094488189
        },
        {
          "duration": 0,
          "durationTicks": 0,
          "midi": 65,
          "name": "F4",
          "ticks": 57831,
          "time": 75.30078125,
          "velocity": 0.2125984251968504
        },
        {
          "duration": 0,
          "durationTicks": 0,
          "midi": 72,
          "name": "C5",
          "ticks": 57831,
          "time": 75.30078125,
          "velocity": 0.14960629921259844
        },
        {
          "duration": 0,
          "durationTicks": 0,
          "midi": 57,
          "name": "A3",
          "ticks": 57840,
          "time": 75.3125,
          "velocity": 0.29133858267716534
        },
        {
          "duration": 0,
          "durationTicks": 0,
          "midi": 86,
          "name": "D6",
          "ticks": 57840,
          "time": 75.3125,
          "velocity": 0.07874015748031496
        },
        {
          "duration": 0,
          "durationTicks": 0,
          "midi": 90,
          "name": "F#6",
          "ticks": 57840,
          "time": 75.3125,
          "velocity": 0.07874015748031496
        },
        {
          "duration": 0,
          "durationTicks": 0,
          "midi": 80,
          "name": "G#5",
          "ticks": 57840,
          "time": 75.3125,
          "velocity": 0.15748031496062992
        },
        {
          "duration": 0.1276041666666714,
          "durationTicks": 98,
          "midi": 82,
          "name": "A#5",
          "ticks": 57840,
          "time": 75.3125,
          "velocity": 0.11023622047244094
        },
        {
          "duration": 0,
          "durationTicks": 0,
          "midi": 35,
          "name": "B1",
          "ticks": 57849,
          "time": 75.32421875,
          "velocity": 0.4251968503937008
        },
        {
          "duration": 0,
          "durationTicks": 0,
          "midi": 74,
          "name": "D5",
          "ticks": 57849,
          "time": 75.32421875,
          "velocity": 0.14173228346456693
        },
        {
          "duration": 0,
          "durationTicks": 0,
          "midi": 91,
          "name": "G6",
          "ticks": 57849,
          "time": 75.32421875,
          "velocity": 0.10236220472440945
        },
        {
          "duration": 0,
          "durationTicks": 0,
          "midi": 87,
          "name": "D#6",
          "ticks": 57849,
          "time": 75.32421875,
          "velocity": 0.06299212598425197
        },
        {
          "duration": 0.2552083333333286,
          "durationTicks": 196,
          "midi": 77,
          "name": "F5",
          "ticks": 57849,
          "time": 75.32421875,
          "velocity": 0.11023622047244094
        },
        {
          "duration": 0,
          "durationTicks": 0,
          "midi": 56,
          "name": "G#3",
          "ticks": 57858,
          "time": 75.3359375,
          "velocity": 0.2283464566929134
        },
        {
          "duration": 0,
          "durationTicks": 0,
          "midi": 65,
          "name": "F4",
          "ticks": 57858,
          "time": 75.3359375,
          "velocity": 0.2283464566929134
        },
        {
          "duration": 0,
          "durationTicks": 0,
          "midi": 62,
          "name": "D4",
          "ticks": 57877,
          "time": 75.36067708333333,
          "velocity": 0.2125984251968504
        },
        {
          "duration": 0,
          "durationTicks": 0,
          "midi": 34,
          "name": "A#1",
          "ticks": 57877,
          "time": 75.36067708333333,
          "velocity": 0.3779527559055118
        },
        {
          "duration": 0,
          "durationTicks": 0,
          "midi": 75,
          "name": "D#5",
          "ticks": 57886,
          "time": 75.37239583333333,
          "velocity": 0.12598425196850394
        },
        {
          "duration": 0.1263020833333428,
          "durationTicks": 97,
          "midi": 68,
          "name": "G#4",
          "ticks": 57886,
          "time": 75.37239583333333,
          "velocity": 0.05511811023622047
        },
        {
          "duration": 0,
          "durationTicks": 0,
          "midi": 63,
          "name": "D#4",
          "ticks": 57896,
          "time": 75.38541666666667,
          "velocity": 0.25984251968503935
        },
        {
          "duration": 0.08203125,
          "durationTicks": 63,
          "midi": 58,
          "name": "A#3",
          "ticks": 57896,
          "time": 75.38541666666667,
          "velocity": 0.2125984251968504
        },
        {
          "duration": 0,
          "durationTicks": 0,
          "midi": 35,
          "name": "B1",
          "ticks": 57913,
          "time": 75.40755208333333,
          "velocity": 0.3858267716535433
        },
        {
          "duration": 0.1276041666666714,
          "durationTicks": 98,
          "midi": 65,
          "name": "F4",
          "ticks": 57913,
          "time": 75.40755208333333,
          "velocity": 0.1968503937007874
        },
        {
          "duration": 0,
          "durationTicks": 0,
          "midi": 63,
          "name": "D#4",
          "ticks": 57931,
          "time": 75.43098958333333,
          "velocity": 0.2125984251968504
        },
        {
          "duration": 0,
          "durationTicks": 0,
          "midi": 35,
          "name": "B1",
          "ticks": 57940,
          "time": 75.44270833333333,
          "velocity": 0.3779527559055118
        },
        {
          "duration": 0.1276041666666714,
          "durationTicks": 98,
          "midi": 62,
          "name": "D4",
          "ticks": 57949,
          "time": 75.45442708333333,
          "velocity": 0.18110236220472442
        },
        {
          "duration": 0.044270833333328596,
          "durationTicks": 34,
          "midi": 58,
          "name": "A#3",
          "ticks": 57959,
          "time": 75.46744791666667,
          "velocity": 0.23622047244094488
        },
        {
          "duration": 0.1276041666666572,
          "durationTicks": 98,
          "midi": 68,
          "name": "G#4",
          "ticks": 57959,
          "time": 75.46744791666667,
          "velocity": 0.14960629921259844
        },
        {
          "duration": 0,
          "durationTicks": 0,
          "midi": 34,
          "name": "A#1",
          "ticks": 57968,
          "time": 75.47916666666667,
          "velocity": 0.41732283464566927
        },
        {
          "duration": 0,
          "durationTicks": 0,
          "midi": 35,
          "name": "B1",
          "ticks": 58004,
          "time": 75.52604166666667,
          "velocity": 0.36220472440944884
        },
        {
          "duration": 0,
          "durationTicks": 0,
          "midi": 57,
          "name": "A3",
          "ticks": 58014,
          "time": 75.5390625,
          "velocity": 0.23622047244094488
        },
        {
          "duration": 0,
          "durationTicks": 0,
          "midi": 87,
          "name": "D#6",
          "ticks": 58031,
          "time": 75.56119791666667,
          "velocity": 0.14173228346456693
        },
        {
          "duration": 0.0833333333333286,
          "durationTicks": 64,
          "midi": 46,
          "name": "A#2",
          "ticks": 58040,
          "time": 75.57291666666667,
          "velocity": 0.36220472440944884
        },
        {
          "duration": 0.1263020833333286,
          "durationTicks": 97,
          "midi": 72,
          "name": "C5",
          "ticks": 58040,
          "time": 75.57291666666667,
          "velocity": 0.1968503937007874
        },
        {
          "duration": 0.1263020833333286,
          "durationTicks": 97,
          "midi": 67,
          "name": "G4",
          "ticks": 58077,
          "time": 75.62109375,
          "velocity": 0.11811023622047244
        },
        {
          "duration": 0.04296875,
          "durationTicks": 33,
          "midi": 46,
          "name": "A#2",
          "ticks": 58104,
          "time": 75.65625,
          "velocity": 0.36220472440944884
        },
        {
          "duration": 0,
          "durationTicks": 0,
          "midi": 55,
          "name": "G3",
          "ticks": 58104,
          "time": 75.65625,
          "velocity": 0.1889763779527559
        },
        {
          "duration": 0,
          "durationTicks": 0,
          "midi": 47,
          "name": "B2",
          "ticks": 58121,
          "time": 75.67838541666667,
          "velocity": 0.3937007874015748
        },
        {
          "duration": 0.1263020833333286,
          "durationTicks": 97,
          "midi": 75,
          "name": "D#5",
          "ticks": 58121,
          "time": 75.67838541666667,
          "velocity": 0.1968503937007874
        },
        {
          "duration": 0,
          "durationTicks": 0,
          "midi": 62,
          "name": "D4",
          "ticks": 58130,
          "time": 75.69010416666667,
          "velocity": 0.14173228346456693
        },
        {
          "duration": 0,
          "durationTicks": 0,
          "midi": 46,
          "name": "A#2",
          "ticks": 58140,
          "time": 75.703125,
          "velocity": 0.3464566929133858
        },
        {
          "duration": 0,
          "durationTicks": 0,
          "midi": 56,
          "name": "G#3",
          "ticks": 58140,
          "time": 75.703125,
          "velocity": 0.33858267716535434
        },
        {
          "duration": 0,
          "durationTicks": 0,
          "midi": 47,
          "name": "B2",
          "ticks": 58157,
          "time": 75.72526041666667,
          "velocity": 0.3779527559055118
        },
        {
          "duration": 0.125,
          "durationTicks": 96,
          "midi": 65,
          "name": "F4",
          "ticks": 58167,
          "time": 75.73828125,
          "velocity": 0.15748031496062992
        },
        {
          "duration": 0,
          "durationTicks": 0,
          "midi": 46,
          "name": "A#2",
          "ticks": 58176,
          "time": 75.75,
          "velocity": 0.4094488188976378
        },
        {
          "duration": 0,
          "durationTicks": 0,
          "midi": 28,
          "name": "E1",
          "ticks": 58221,
          "time": 75.80859375,
          "velocity": 0.4015748031496063
        },
        {
          "duration": 0,
          "durationTicks": 0,
          "midi": 63,
          "name": "D#4",
          "ticks": 58221,
          "time": 75.80859375,
          "velocity": 0.1732283464566929
        },
        {
          "duration": 0,
          "durationTicks": 0,
          "midi": 29,
          "name": "F1",
          "ticks": 58238,
          "time": 75.83072916666667,
          "velocity": 0.4330708661417323
        },
        {
          "duration": 0.125,
          "durationTicks": 96,
          "midi": 72,
          "name": "C5",
          "ticks": 58238,
          "time": 75.83072916666667,
          "velocity": 0.14173228346456693
        },
        {
          "duration": 0,
          "durationTicks": 0,
          "midi": 30,
          "name": "F#1",
          "ticks": 58247,
          "time": 75.84244791666667,
          "velocity": 0.4330708661417323
        },
        {
          "duration": 0,
          "durationTicks": 0,
          "midi": 29,
          "name": "F1",
          "ticks": 58274,
          "time": 75.87760416666667,
          "velocity": 0.4015748031496063
        },
        {
          "duration": 0,
          "durationTicks": 0,
          "midi": 75,
          "name": "D#5",
          "ticks": 58310,
          "time": 75.92447916666667,
          "velocity": 0.1732283464566929
        },
        {
          "duration": 0.1263020833333428,
          "durationTicks": 97,
          "midi": 68,
          "name": "G#4",
          "ticks": 58327,
          "time": 75.94661458333333,
          "velocity": 0.14960629921259844
        },
        {
          "duration": 0,
          "durationTicks": 0,
          "midi": 28,
          "name": "E1",
          "ticks": 58408,
          "time": 76.05208333333333,
          "velocity": 0.3779527559055118
        },
        {
          "duration": 0.125,
          "durationTicks": 96,
          "midi": 63,
          "name": "D#4",
          "ticks": 58417,
          "time": 76.06380208333333,
          "velocity": 0.2283464566929134
        },
        {
          "duration": 0.125,
          "durationTicks": 96,
          "midi": 29,
          "name": "F1",
          "ticks": 58426,
          "time": 76.07552083333333,
          "velocity": 0.3858267716535433
        },
        {
          "duration": 0.125,
          "durationTicks": 96,
          "midi": 48,
          "name": "C3",
          "ticks": 58444,
          "time": 76.09895833333333,
          "velocity": 0.06299212598425197
        },
        {
          "duration": 0.2552083333333286,
          "durationTicks": 196,
          "midi": 72,
          "name": "C5",
          "ticks": 58587,
          "time": 76.28515625,
          "velocity": 0.16535433070866143
        },
        {
          "duration": 0.1276041666666714,
          "durationTicks": 98,
          "midi": 80,
          "name": "G#5",
          "ticks": 58596,
          "time": 76.296875,
          "velocity": 0.1732283464566929
        },
        {
          "duration": 0,
          "durationTicks": 0,
          "midi": 56,
          "name": "G#3",
          "ticks": 58606,
          "time": 76.30989583333333,
          "velocity": 0.30708661417322836
        },
        {
          "duration": 0,
          "durationTicks": 0,
          "midi": 66,
          "name": "F#4",
          "ticks": 58606,
          "time": 76.30989583333333,
          "velocity": 0.2204724409448819
        },
        {
          "duration": 0,
          "durationTicks": 0,
          "midi": 90,
          "name": "F#6",
          "ticks": 58606,
          "time": 76.30989583333333,
          "velocity": 0.07086614173228346
        },
        {
          "duration": 0,
          "durationTicks": 0,
          "midi": 86,
          "name": "D6",
          "ticks": 58606,
          "time": 76.30989583333333,
          "velocity": 0.10236220472440945
        },
        {
          "duration": 0,
          "durationTicks": 0,
          "midi": 41,
          "name": "F2",
          "ticks": 58606,
          "time": 76.30989583333333,
          "velocity": 0.4094488188976378
        },
        {
          "duration": 0.1276041666666714,
          "durationTicks": 98,
          "midi": 82,
          "name": "A#5",
          "ticks": 58606,
          "time": 76.30989583333333,
          "velocity": 0.09448818897637795
        },
        {
          "duration": 0.1276041666666714,
          "durationTicks": 98,
          "midi": 77,
          "name": "F5",
          "ticks": 58615,
          "time": 76.32161458333333,
          "velocity": 0.08661417322834646
        },
        {
          "duration": 0.10677083333334281,
          "durationTicks": 82,
          "midi": 65,
          "name": "F4",
          "ticks": 58624,
          "time": 76.33333333333333,
          "velocity": 0.2047244094488189
        },
        {
          "duration": 0,
          "durationTicks": 0,
          "midi": 56,
          "name": "G#3",
          "ticks": 58633,
          "time": 76.34505208333333,
          "velocity": 0.18110236220472442
        },
        {
          "duration": 0,
          "durationTicks": 0,
          "midi": 87,
          "name": "D#6",
          "ticks": 58633,
          "time": 76.34505208333333,
          "velocity": 0.05511811023622047
        },
        {
          "duration": 0.25390625,
          "durationTicks": 195,
          "midi": 60,
          "name": "C4",
          "ticks": 58633,
          "time": 76.34505208333333,
          "velocity": 0.2125984251968504
        },
        {
          "duration": 0.25390625,
          "durationTicks": 195,
          "midi": 68,
          "name": "G#4",
          "ticks": 58643,
          "time": 76.35807291666667,
          "velocity": 0.25196850393700787
        },
        {
          "duration": 0,
          "durationTicks": 0,
          "midi": 42,
          "name": "F#2",
          "ticks": 58652,
          "time": 76.36979166666667,
          "velocity": 0.3779527559055118
        },
        {
          "duration": 0.1263020833333286,
          "durationTicks": 97,
          "midi": 75,
          "name": "D#5",
          "ticks": 58652,
          "time": 76.36979166666667,
          "velocity": 0.1889763779527559
        },
        {
          "duration": 0.1263020833333286,
          "durationTicks": 97,
          "midi": 41,
          "name": "F2",
          "ticks": 58670,
          "time": 76.39322916666667,
          "velocity": 0.3937007874015748
        },
        {
          "duration": 0.020833333333328596,
          "durationTicks": 16,
          "midi": 65,
          "name": "F4",
          "ticks": 58706,
          "time": 76.44010416666667,
          "velocity": 0.1889763779527559
        },
        {
          "duration": 0,
          "durationTicks": 0,
          "midi": 63,
          "name": "D#4",
          "ticks": 58724,
          "time": 76.46354166666667,
          "velocity": 0.1889763779527559
        },
        {
          "duration": 0,
          "durationTicks": 0,
          "midi": 77,
          "name": "F5",
          "ticks": 58769,
          "time": 76.52213541666667,
          "velocity": 0.05511811023622047
        },
        {
          "duration": 0.1276041666666572,
          "durationTicks": 98,
          "midi": 75,
          "name": "D#5",
          "ticks": 58769,
          "time": 76.52213541666667,
          "velocity": 0.11023622047244094
        },
        {
          "duration": 0.1276041666666572,
          "durationTicks": 98,
          "midi": 63,
          "name": "D#4",
          "ticks": 58778,
          "time": 76.53385416666667,
          "velocity": 0.2125984251968504
        },
        {
          "duration": 0,
          "durationTicks": 0,
          "midi": 77,
          "name": "F5",
          "ticks": 58805,
          "time": 76.56901041666667,
          "velocity": 0.11811023622047244
        },
        {
          "duration": 0,
          "durationTicks": 0,
          "midi": 47,
          "name": "B2",
          "ticks": 58814,
          "time": 76.58072916666667,
          "velocity": 0.05511811023622047
        },
        {
          "duration": 0.1276041666666572,
          "durationTicks": 98,
          "midi": 27,
          "name": "D#1",
          "ticks": 58814,
          "time": 76.58072916666667,
          "velocity": 0.3779527559055118
        },
        {
          "duration": 0.1276041666666714,
          "durationTicks": 98,
          "midi": 80,
          "name": "G#5",
          "ticks": 58824,
          "time": 76.59375,
          "velocity": 0.1732283464566929
        },
        {
          "duration": 0.1263020833333286,
          "durationTicks": 97,
          "midi": 75,
          "name": "D#5",
          "ticks": 58842,
          "time": 76.6171875,
          "velocity": 0.1732283464566929
        },
        {
          "duration": 0.1263020833333286,
          "durationTicks": 97,
          "midi": 79,
          "name": "G5",
          "ticks": 58905,
          "time": 76.69921875,
          "velocity": 0.1732283464566929
        },
        {
          "duration": 0.1263020833333286,
          "durationTicks": 97,
          "midi": 60,
          "name": "C4",
          "ticks": 58986,
          "time": 76.8046875,
          "velocity": 0.18110236220472442
        },
        {
          "duration": 0,
          "durationTicks": 0,
          "midi": 29,
          "name": "F1",
          "ticks": 58996,
          "time": 76.81770833333333,
          "velocity": 0.41732283464566927
        },
        {
          "duration": 0,
          "durationTicks": 0,
          "midi": 65,
          "name": "F4",
          "ticks": 58996,
          "time": 76.81770833333333,
          "velocity": 0.12598425196850394
        },
        {
          "duration": 0.1263020833333428,
          "durationTicks": 97,
          "midi": 68,
          "name": "G#4",
          "ticks": 58996,
          "time": 76.81770833333333,
          "velocity": 0.1732283464566929
        },
        {
          "duration": 0,
          "durationTicks": 0,
          "midi": 30,
          "name": "F#1",
          "ticks": 59005,
          "time": 76.82942708333333,
          "velocity": 0.4330708661417323
        },
        {
          "duration": 0.1171875,
          "durationTicks": 90,
          "midi": 75,
          "name": "D#5",
          "ticks": 59005,
          "time": 76.82942708333333,
          "velocity": 0.09448818897637795
        },
        {
          "duration": 0.1263020833333428,
          "durationTicks": 97,
          "midi": 87,
          "name": "D#6",
          "ticks": 59005,
          "time": 76.82942708333333,
          "velocity": 0.11811023622047244
        },
        {
          "duration": 0,
          "durationTicks": 0,
          "midi": 48,
          "name": "C3",
          "ticks": 59032,
          "time": 76.86458333333333,
          "velocity": 0.10236220472440945
        },
        {
          "duration": 0,
          "durationTicks": 0,
          "midi": 63,
          "name": "D#4",
          "ticks": 59032,
          "time": 76.86458333333333,
          "velocity": 0.18110236220472442
        },
        {
          "duration": 0.1263020833333428,
          "durationTicks": 97,
          "midi": 29,
          "name": "F1",
          "ticks": 59041,
          "time": 76.87630208333333,
          "velocity": 0.3937007874015748
        },
        {
          "duration": 0,
          "durationTicks": 0,
          "midi": 77,
          "name": "F5",
          "ticks": 59068,
          "time": 76.91145833333333,
          "velocity": 0.05511811023622047
        },
        {
          "duration": 0.1276041666666714,
          "durationTicks": 98,
          "midi": 48,
          "name": "C3",
          "ticks": 59086,
          "time": 76.93489583333333,
          "velocity": 0.07874015748031496
        },
        {
          "duration": 0.009114583333342807,
          "durationTicks": 7,
          "midi": 75,
          "name": "D#5",
          "ticks": 59095,
          "time": 76.94661458333333,
          "velocity": 0.12598425196850394
        },
        {
          "duration": 0.1276041666666714,
          "durationTicks": 98,
          "midi": 72,
          "name": "C5",
          "ticks": 59095,
          "time": 76.94661458333333,
          "velocity": 0.16535433070866143
        },
        {
          "duration": 0,
          "durationTicks": 0,
          "midi": 65,
          "name": "F4",
          "ticks": 59167,
          "time": 77.04036458333333,
          "velocity": 0.18110236220472442
        },
        {
          "duration": 0.1263020833333286,
          "durationTicks": 97,
          "midi": 87,
          "name": "D#6",
          "ticks": 59177,
          "time": 77.05338541666667,
          "velocity": 0.09448818897637795
        },
        {
          "duration": 0.1263020833333286,
          "durationTicks": 97,
          "midi": 60,
          "name": "C4",
          "ticks": 59177,
          "time": 77.05338541666667,
          "velocity": 0.16535433070866143
        },
        {
          "duration": 0.125,
          "durationTicks": 96,
          "midi": 68,
          "name": "G#4",
          "ticks": 59195,
          "time": 77.07682291666667,
          "velocity": 0.15748031496062992
        },
        {
          "duration": 0.125,
          "durationTicks": 96,
          "midi": 79,
          "name": "G5",
          "ticks": 59195,
          "time": 77.07682291666667,
          "velocity": 0.16535433070866143
        },
        {
          "duration": 0.125,
          "durationTicks": 96,
          "midi": 63,
          "name": "D#4",
          "ticks": 59204,
          "time": 77.08854166666667,
          "velocity": 0.1732283464566929
        },
        {
          "duration": 0.2526041666666572,
          "durationTicks": 194,
          "midi": 75,
          "name": "D#5",
          "ticks": 59240,
          "time": 77.13541666666667,
          "velocity": 0.1889763779527559
        },
        {
          "duration": 0.1276041666666714,
          "durationTicks": 98,
          "midi": 80,
          "name": "G#5",
          "ticks": 59365,
          "time": 77.29817708333333,
          "velocity": 0.16535433070866143
        },
        {
          "duration": 0.1276041666666714,
          "durationTicks": 98,
          "midi": 72,
          "name": "C5",
          "ticks": 59365,
          "time": 77.29817708333333,
          "velocity": 0.1732283464566929
        },
        {
          "duration": 0,
          "durationTicks": 0,
          "midi": 42,
          "name": "F#2",
          "ticks": 59374,
          "time": 77.30989583333333,
          "velocity": 0.4015748031496063
        },
        {
          "duration": 0,
          "durationTicks": 0,
          "midi": 66,
          "name": "F#4",
          "ticks": 59374,
          "time": 77.30989583333333,
          "velocity": 0.18110236220472442
        },
        {
          "duration": 0,
          "durationTicks": 0,
          "midi": 94,
          "name": "A#6",
          "ticks": 59374,
          "time": 77.30989583333333,
          "velocity": 0.08661417322834646
        },
        {
          "duration": 0.1276041666666714,
          "durationTicks": 98,
          "midi": 77,
          "name": "F5",
          "ticks": 59374,
          "time": 77.30989583333333,
          "velocity": 0.14173228346456693
        },
        {
          "duration": 0,
          "durationTicks": 0,
          "midi": 57,
          "name": "A3",
          "ticks": 59384,
          "time": 77.32291666666667,
          "velocity": 0.29133858267716534
        },
        {
          "duration": 0,
          "durationTicks": 0,
          "midi": 91,
          "name": "G6",
          "ticks": 59384,
          "time": 77.32291666666667,
          "velocity": 0.08661417322834646
        },
        {
          "duration": 0.1276041666666572,
          "durationTicks": 98,
          "midi": 68,
          "name": "G#4",
          "ticks": 59384,
          "time": 77.32291666666667,
          "velocity": 0.16535433070866143
        },
        {
          "duration": 0,
          "durationTicks": 0,
          "midi": 61,
          "name": "C#4",
          "ticks": 59393,
          "time": 77.33463541666667,
          "velocity": 0.1889763779527559
        },
        {
          "duration": 0,
          "durationTicks": 0,
          "midi": 65,
          "name": "F4",
          "ticks": 59393,
          "time": 77.33463541666667,
          "velocity": 0.14173228346456693
        },
        {
          "duration": 0,
          "durationTicks": 0,
          "midi": 56,
          "name": "G#3",
          "ticks": 59402,
          "time": 77.34635416666667,
          "velocity": 0.1732283464566929
        },
        {
          "duration": 0,
          "durationTicks": 0,
          "midi": 79,
          "name": "G5",
          "ticks": 59402,
          "time": 77.34635416666667,
          "velocity": 0.06299212598425197
        },
        {
          "duration": 0,
          "durationTicks": 0,
          "midi": 60,
          "name": "C4",
          "ticks": 59411,
          "time": 77.35807291666667,
          "velocity": 0.18110236220472442
        },
        {
          "duration": 0,
          "durationTicks": 0,
          "midi": 43,
          "name": "G2",
          "ticks": 59411,
          "time": 77.35807291666667,
          "velocity": 0.3700787401574803
        },
        {
          "duration": 0.1263020833333286,
          "durationTicks": 97,
          "midi": 75,
          "name": "D#5",
          "ticks": 59411,
          "time": 77.35807291666667,
          "velocity": 0.15748031496062992
        },
        {
          "duration": 0,
          "durationTicks": 0,
          "midi": 63,
          "name": "D#4",
          "ticks": 59438,
          "time": 77.39322916666667,
          "velocity": 0.1968503937007874
        },
        {
          "duration": 0,
          "durationTicks": 0,
          "midi": 44,
          "name": "G#2",
          "ticks": 59456,
          "time": 77.41666666666667,
          "velocity": 0.31496062992125984
        },
        {
          "duration": 0,
          "durationTicks": 0,
          "midi": 50,
          "name": "D3",
          "ticks": 59484,
          "time": 77.453125,
          "velocity": 0.05511811023622047
        },
        {
          "duration": 0.1263020833333286,
          "durationTicks": 97,
          "midi": 31,
          "name": "G1",
          "ticks": 59484,
          "time": 77.453125,
          "velocity": 0.3779527559055118
        },
        {
          "duration": 0.1263020833333286,
          "durationTicks": 97,
          "midi": 70,
          "name": "A#4",
          "ticks": 59484,
          "time": 77.453125,
          "velocity": 0.1968503937007874
        },
        {
          "duration": 0,
          "durationTicks": 0,
          "midi": 50,
          "name": "D3",
          "ticks": 59520,
          "time": 77.5,
          "velocity": 0.07086614173228346
        },
        {
          "duration": 0,
          "durationTicks": 0,
          "midi": 87,
          "name": "D#6",
          "ticks": 59556,
          "time": 77.546875,
          "velocity": 0.13385826771653545
        },
        {
          "duration": 0.1263020833333286,
          "durationTicks": 97,
          "midi": 68,
          "name": "G#4",
          "ticks": 59592,
          "time": 77.59375,
          "velocity": 0.2283464566929134
        },
        {
          "duration": 0.1263020833333286,
          "durationTicks": 97,
          "midi": 75,
          "name": "D#5",
          "ticks": 59628,
          "time": 77.640625,
          "velocity": 0.06299212598425197
        },
        {
          "duration": 0,
          "durationTicks": 0,
          "midi": 44,
          "name": "G#2",
          "ticks": 59655,
          "time": 77.67578125,
          "velocity": 0.4015748031496063
        },
        {
          "duration": 0,
          "durationTicks": 0,
          "midi": 87,
          "name": "D#6",
          "ticks": 59655,
          "time": 77.67578125,
          "velocity": 0.10236220472440945
        },
        {
          "duration": 0.1263020833333286,
          "durationTicks": 97,
          "midi": 58,
          "name": "A#3",
          "ticks": 59655,
          "time": 77.67578125,
          "velocity": 0.2125984251968504
        },
        {
          "duration": 0,
          "durationTicks": 0,
          "midi": 77,
          "name": "F5",
          "ticks": 59664,
          "time": 77.6875,
          "velocity": 0.05511811023622047
        },
        {
          "duration": 0.1263020833333286,
          "durationTicks": 97,
          "midi": 82,
          "name": "A#5",
          "ticks": 59664,
          "time": 77.6875,
          "velocity": 0.09448818897637795
        },
        {
          "duration": 0,
          "durationTicks": 0,
          "midi": 31,
          "name": "G1",
          "ticks": 59673,
          "time": 77.69921875,
          "velocity": 0.29133858267716534
        },
        {
          "duration": 0.1263020833333286,
          "durationTicks": 97,
          "midi": 63,
          "name": "D#4",
          "ticks": 59673,
          "time": 77.69921875,
          "velocity": 0.2204724409448819
        },
        {
          "duration": 0.25390625,
          "durationTicks": 195,
          "midi": 67,
          "name": "G4",
          "ticks": 59673,
          "time": 77.69921875,
          "velocity": 0.2440944881889764
        },
        {
          "duration": 0.1263020833333286,
          "durationTicks": 97,
          "midi": 44,
          "name": "G#2",
          "ticks": 59682,
          "time": 77.7109375,
          "velocity": 0.3779527559055118
        },
        {
          "duration": 0,
          "durationTicks": 0,
          "midi": 60,
          "name": "C4",
          "ticks": 59754,
          "time": 77.8046875,
          "velocity": 0.2204724409448819
        },
        {
          "duration": 0,
          "durationTicks": 0,
          "midi": 60,
          "name": "C4",
          "ticks": 59782,
          "time": 77.84114583333333,
          "velocity": 0.2125984251968504
        },
        {
          "duration": 0,
          "durationTicks": 0,
          "midi": 77,
          "name": "F5",
          "ticks": 59782,
          "time": 77.84114583333333,
          "velocity": 0.07874015748031496
        },
        {
          "duration": 0.1263020833333428,
          "durationTicks": 97,
          "midi": 63,
          "name": "D#4",
          "ticks": 59791,
          "time": 77.85286458333333,
          "velocity": 0.1732283464566929
        },
        {
          "duration": 0,
          "durationTicks": 0,
          "midi": 86,
          "name": "D6",
          "ticks": 59800,
          "time": 77.86458333333333,
          "velocity": 0.05511811023622047
        },
        {
          "duration": 0,
          "durationTicks": 0,
          "midi": 58,
          "name": "A#3",
          "ticks": 59827,
          "time": 77.89973958333333,
          "velocity": 0.1968503937007874
        },
        {
          "duration": 0,
          "durationTicks": 0,
          "midi": 75,
          "name": "D#5",
          "ticks": 59837,
          "time": 77.91276041666667,
          "velocity": 0.1889763779527559
        },
        {
          "duration": 0.125,
          "durationTicks": 96,
          "midi": 44,
          "name": "G#2",
          "ticks": 59846,
          "time": 77.92447916666667,
          "velocity": 0.3779527559055118
        },
        {
          "duration": 0.1276041666666714,
          "durationTicks": 98,
          "midi": 63,
          "name": "D#4",
          "ticks": 59881,
          "time": 77.97005208333333,
          "velocity": 0.1889763779527559
        },
        {
          "duration": 0,
          "durationTicks": 0,
          "midi": 68,
          "name": "G#4",
          "ticks": 59935,
          "time": 78.04036458333333,
          "velocity": 0.18110236220472442
        },
        {
          "duration": 0,
          "durationTicks": 0,
          "midi": 70,
          "name": "A#4",
          "ticks": 59935,
          "time": 78.04036458333333,
          "velocity": 0.05511811023622047
        },
        {
          "duration": 0,
          "durationTicks": 0,
          "midi": 31,
          "name": "G1",
          "ticks": 59954,
          "time": 78.06510416666667,
          "velocity": 0.3858267716535433
        },
        {
          "duration": 0,
          "durationTicks": 0,
          "midi": 77,
          "name": "F5",
          "ticks": 59954,
          "time": 78.06510416666667,
          "velocity": 0.05511811023622047
        },
        {
          "duration": 0.0833333333333286,
          "durationTicks": 64,
          "midi": 60,
          "name": "C4",
          "ticks": 59954,
          "time": 78.06510416666667,
          "velocity": 0.29133858267716534
        },
        {
          "duration": 0.25390625,
          "durationTicks": 195,
          "midi": 67,
          "name": "G4",
          "ticks": 59963,
          "time": 78.07682291666667,
          "velocity": 0.1968503937007874
        },
        {
          "duration": 0,
          "durationTicks": 0,
          "midi": 32,
          "name": "G#1",
          "ticks": 59972,
          "time": 78.08854166666667,
          "velocity": 0.3543307086614173
        },
        {
          "duration": 0,
          "durationTicks": 0,
          "midi": 63,
          "name": "D#4",
          "ticks": 59981,
          "time": 78.10026041666667,
          "velocity": 0.1732283464566929
        },
        {
          "duration": 0,
          "durationTicks": 0,
          "midi": 33,
          "name": "A1",
          "ticks": 59991,
          "time": 78.11328125,
          "velocity": 0.3464566929133858
        },
        {
          "duration": 0.25390625,
          "durationTicks": 195,
          "midi": 70,
          "name": "A#4",
          "ticks": 60008,
          "time": 78.13541666666667,
          "velocity": 0.15748031496062992
        },
        {
          "duration": 0.044270833333328596,
          "durationTicks": 34,
          "midi": 60,
          "name": "C4",
          "ticks": 60018,
          "time": 78.1484375,
          "velocity": 0.28346456692913385
        },
        {
          "duration": 0.2526041666666714,
          "durationTicks": 194,
          "midi": 75,
          "name": "D#5",
          "ticks": 60027,
          "time": 78.16015625,
          "velocity": 0.1732283464566929
        },
        {
          "duration": 0,
          "durationTicks": 0,
          "midi": 57,
          "name": "A3",
          "ticks": 60125,
          "time": 78.28776041666667,
          "velocity": 0.30708661417322836
        },
        {
          "duration": 0,
          "durationTicks": 0,
          "midi": 68,
          "name": "G#4",
          "ticks": 60125,
          "time": 78.28776041666667,
          "velocity": 0.11023622047244094
        },
        {
          "duration": 0,
          "durationTicks": 0,
          "midi": 80,
          "name": "G#5",
          "ticks": 60135,
          "time": 78.30078125,
          "velocity": 0.13385826771653545
        },
        {
          "duration": 0,
          "durationTicks": 0,
          "midi": 88,
          "name": "E6",
          "ticks": 60135,
          "time": 78.30078125,
          "velocity": 0.06299212598425197
        },
        {
          "duration": 0,
          "durationTicks": 0,
          "midi": 90,
          "name": "F#6",
          "ticks": 60135,
          "time": 78.30078125,
          "velocity": 0.05511811023622047
        },
        {
          "duration": 0,
          "durationTicks": 0,
          "midi": 86,
          "name": "D6",
          "ticks": 60135,
          "time": 78.30078125,
          "velocity": 0.11023622047244094
        },
        {
          "duration": 0.1276041666666714,
          "durationTicks": 98,
          "midi": 94,
          "name": "A#6",
          "ticks": 60135,
          "time": 78.30078125,
          "velocity": 0.11023622047244094
        },
        {
          "duration": 0,
          "durationTicks": 0,
          "midi": 34,
          "name": "A#1",
          "ticks": 60144,
          "time": 78.3125,
          "velocity": 0.4094488188976378
        },
        {
          "duration": 0,
          "durationTicks": 0,
          "midi": 77,
          "name": "F5",
          "ticks": 60144,
          "time": 78.3125,
          "velocity": 0.06299212598425197
        },
        {
          "duration": 0.25390625,
          "durationTicks": 195,
          "midi": 63,
          "name": "D#4",
          "ticks": 60144,
          "time": 78.3125,
          "velocity": 0.2125984251968504
        },
        {
          "duration": 0,
          "durationTicks": 0,
          "midi": 56,
          "name": "G#3",
          "ticks": 60153,
          "time": 78.32421875,
          "velocity": 0.25984251968503935
        },
        {
          "duration": 0,
          "durationTicks": 0,
          "midi": 60,
          "name": "C4",
          "ticks": 60153,
          "time": 78.32421875,
          "velocity": 0.2283464566929134
        },
        {
          "duration": 0.1263020833333286,
          "durationTicks": 97,
          "midi": 89,
          "name": "F6",
          "ticks": 60153,
          "time": 78.32421875,
          "velocity": 0.08661417322834646
        },
        {
          "duration": 0.1263020833333286,
          "durationTicks": 97,
          "midi": 67,
          "name": "G4",
          "ticks": 60153,
          "time": 78.32421875,
          "velocity": 0.2047244094488189
        },
        {
          "duration": 0.1263020833333286,
          "durationTicks": 97,
          "midi": 84,
          "name": "C6",
          "ticks": 60153,
          "time": 78.32421875,
          "velocity": 0.13385826771653545
        },
        {
          "duration": 0,
          "durationTicks": 0,
          "midi": 32,
          "name": "G#1",
          "ticks": 60163,
          "time": 78.33723958333333,
          "velocity": 0.36220472440944884
        },
        {
          "duration": 0,
          "durationTicks": 0,
          "midi": 33,
          "name": "A1",
          "ticks": 60180,
          "time": 78.359375,
          "velocity": 0.3779527559055118
        },
        {
          "duration": 0.1263020833333286,
          "durationTicks": 97,
          "midi": 51,
          "name": "D#3",
          "ticks": 60189,
          "time": 78.37109375,
          "velocity": 0.07086614173228346
        },
        {
          "duration": 0.1263020833333428,
          "durationTicks": 97,
          "midi": 32,
          "name": "G#1",
          "ticks": 60199,
          "time": 78.38411458333333,
          "velocity": 0.3700787401574803
        },
        {
          "duration": 0,
          "durationTicks": 0,
          "midi": 60,
          "name": "C4",
          "ticks": 60208,
          "time": 78.39583333333333,
          "velocity": 0.2204724409448819
        },
        {
          "duration": 0,
          "durationTicks": 0,
          "midi": 70,
          "name": "A#4",
          "ticks": 60208,
          "time": 78.39583333333333,
          "velocity": 0.07874015748031496
        },
        {
          "duration": 0,
          "durationTicks": 0,
          "midi": 68,
          "name": "G#4",
          "ticks": 60253,
          "time": 78.45442708333333,
          "velocity": 0.2125984251968504
        },
        {
          "duration": 0.1263020833333428,
          "durationTicks": 97,
          "midi": 72,
          "name": "C5",
          "ticks": 60262,
          "time": 78.46614583333333,
          "velocity": 0.07086614173228346
        },
        {
          "duration": 0,
          "durationTicks": 0,
          "midi": 68,
          "name": "G#4",
          "ticks": 60279,
          "time": 78.48828125,
          "velocity": 0.2283464566929134
        },
        {
          "duration": 0,
          "durationTicks": 0,
          "midi": 58,
          "name": "A#3",
          "ticks": 60307,
          "time": 78.52473958333333,
          "velocity": 0.1889763779527559
        },
        {
          "duration": 0,
          "durationTicks": 0,
          "midi": 68,
          "name": "G#4",
          "ticks": 60317,
          "time": 78.53776041666667,
          "velocity": 0.2283464566929134
        },
        {
          "duration": 0,
          "durationTicks": 0,
          "midi": 77,
          "name": "F5",
          "ticks": 60334,
          "time": 78.55989583333333,
          "velocity": 0.13385826771653545
        },
        {
          "duration": 0,
          "durationTicks": 0,
          "midi": 47,
          "name": "B2",
          "ticks": 60344,
          "time": 78.57291666666667,
          "velocity": 0.12598425196850394
        },
        {
          "duration": 0.1263020833333428,
          "durationTicks": 97,
          "midi": 80,
          "name": "G#5",
          "ticks": 60361,
          "time": 78.59505208333333,
          "velocity": 0.16535433070866143
        },
        {
          "duration": 0,
          "durationTicks": 0,
          "midi": 34,
          "name": "A#1",
          "ticks": 60370,
          "time": 78.60677083333333,
          "velocity": 0.3937007874015748
        },
        {
          "duration": 0.1263020833333428,
          "durationTicks": 97,
          "midi": 53,
          "name": "F3",
          "ticks": 60370,
          "time": 78.60677083333333,
          "velocity": 0.07874015748031496
        },
        {
          "duration": 0.1263020833333428,
          "durationTicks": 97,
          "midi": 34,
          "name": "A#1",
          "ticks": 60424,
          "time": 78.67708333333333,
          "velocity": 0.3779527559055118
        },
        {
          "duration": 0.1263020833333286,
          "durationTicks": 97,
          "midi": 91,
          "name": "G6",
          "ticks": 60434,
          "time": 78.69010416666667,
          "velocity": 0.13385826771653545
        },
        {
          "duration": 0,
          "durationTicks": 0,
          "midi": 84,
          "name": "C6",
          "ticks": 60443,
          "time": 78.70182291666667,
          "velocity": 0.06299212598425197
        },
        {
          "duration": 0.1263020833333286,
          "durationTicks": 97,
          "midi": 79,
          "name": "G5",
          "ticks": 60443,
          "time": 78.70182291666667,
          "velocity": 0.1889763779527559
        },
        {
          "duration": 0,
          "durationTicks": 0,
          "midi": 54,
          "name": "F#3",
          "ticks": 60505,
          "time": 78.78255208333333,
          "velocity": 0.1889763779527559
        },
        {
          "duration": 0,
          "durationTicks": 0,
          "midi": 72,
          "name": "C5",
          "ticks": 60505,
          "time": 78.78255208333333,
          "velocity": 0.13385826771653545
        },
        {
          "duration": 0,
          "durationTicks": 0,
          "midi": 41,
          "name": "F2",
          "ticks": 60514,
          "time": 78.79427083333333,
          "velocity": 0.3543307086614173
        },
        {
          "duration": 0,
          "durationTicks": 0,
          "midi": 65,
          "name": "F4",
          "ticks": 60514,
          "time": 78.79427083333333,
          "velocity": 0.11023622047244094
        },
        {
          "duration": 0,
          "durationTicks": 0,
          "midi": 70,
          "name": "A#4",
          "ticks": 60524,
          "time": 78.80729166666667,
          "velocity": 0.08661417322834646
        },
        {
          "duration": 0,
          "durationTicks": 0,
          "midi": 57,
          "name": "A3",
          "ticks": 60533,
          "time": 78.81901041666667,
          "velocity": 0.2992125984251969
        },
        {
          "duration": 0,
          "durationTicks": 0,
          "midi": 63,
          "name": "D#4",
          "ticks": 60533,
          "time": 78.81901041666667,
          "velocity": 0.14173228346456693
        },
        {
          "duration": 0.1263020833333286,
          "durationTicks": 97,
          "midi": 87,
          "name": "D#6",
          "ticks": 60533,
          "time": 78.81901041666667,
          "velocity": 0.12598425196850394
        },
        {
          "duration": 0.1263020833333286,
          "durationTicks": 97,
          "midi": 39,
          "name": "D#2",
          "ticks": 60533,
          "time": 78.81901041666667,
          "velocity": 0.3779527559055118
        },
        {
          "duration": 0.1263020833333286,
          "durationTicks": 97,
          "midi": 75,
          "name": "D#5",
          "ticks": 60542,
          "time": 78.83072916666667,
          "velocity": 0.2283464566929134
        },
        {
          "duration": 0.1263020833333286,
          "durationTicks": 97,
          "midi": 65,
          "name": "F4",
          "ticks": 60552,
          "time": 78.84375,
          "velocity": 0.11023622047244094
        },
        {
          "duration": 0.1276041666666572,
          "durationTicks": 98,
          "midi": 72,
          "name": "C5",
          "ticks": 60614,
          "time": 78.92447916666667,
          "velocity": 0.2283464566929134
        },
        {
          "duration": 0,
          "durationTicks": 0,
          "midi": 57,
          "name": "A3",
          "ticks": 60623,
          "time": 78.93619791666667,
          "velocity": 0.31496062992125984
        },
        {
          "duration": 0,
          "durationTicks": 0,
          "midi": 56,
          "name": "G#3",
          "ticks": 60642,
          "time": 78.9609375,
          "velocity": 0.1889763779527559
        },
        {
          "duration": 0,
          "durationTicks": 0,
          "midi": 40,
          "name": "E2",
          "ticks": 60642,
          "time": 78.9609375,
          "velocity": 0.36220472440944884
        },
        {
          "duration": 0.1276041666666714,
          "durationTicks": 98,
          "midi": 65,
          "name": "F4",
          "ticks": 60642,
          "time": 78.9609375,
          "velocity": 0.15748031496062992
        },
        {
          "duration": 0.25390625,
          "durationTicks": 195,
          "midi": 80,
          "name": "G#5",
          "ticks": 60651,
          "time": 78.97265625,
          "velocity": 0.12598425196850394
        },
        {
          "duration": 0,
          "durationTicks": 0,
          "midi": 70,
          "name": "A#4",
          "ticks": 60660,
          "time": 78.984375,
          "velocity": 0.09448818897637795
        },
        {
          "duration": 0.1276041666666714,
          "durationTicks": 98,
          "midi": 39,
          "name": "D#2",
          "ticks": 60678,
          "time": 79.0078125,
          "velocity": 0.4251968503937008
        },
        {
          "duration": 0,
          "durationTicks": 0,
          "midi": 56,
          "name": "G#3",
          "ticks": 60705,
          "time": 79.04296875,
          "velocity": 0.29133858267716534
        },
        {
          "duration": 0,
          "durationTicks": 0,
          "midi": 61,
          "name": "C#4",
          "ticks": 60705,
          "time": 79.04296875,
          "velocity": 0.14960629921259844
        },
        {
          "duration": 0.1276041666666714,
          "durationTicks": 98,
          "midi": 87,
          "name": "D#6",
          "ticks": 60705,
          "time": 79.04296875,
          "velocity": 0.14173228346456693
        },
        {
          "duration": 0,
          "durationTicks": 0,
          "midi": 66,
          "name": "F#4",
          "ticks": 60714,
          "time": 79.0546875,
          "velocity": 0.14173228346456693
        },
        {
          "duration": 0.1276041666666714,
          "durationTicks": 98,
          "midi": 68,
          "name": "G#4",
          "ticks": 60723,
          "time": 79.06640625,
          "velocity": 0.2047244094488189
        },
        {
          "duration": 0,
          "durationTicks": 0,
          "midi": 56,
          "name": "G#3",
          "ticks": 60733,
          "time": 79.07942708333333,
          "velocity": 0.25196850393700787
        },
        {
          "duration": 0,
          "durationTicks": 0,
          "midi": 79,
          "name": "G5",
          "ticks": 60751,
          "time": 79.10286458333333,
          "velocity": 0.05511811023622047
        },
        {
          "duration": 0.1263020833333428,
          "durationTicks": 97,
          "midi": 65,
          "name": "F4",
          "ticks": 60751,
          "time": 79.10286458333333,
          "velocity": 0.25984251968503935
        },
        {
          "duration": 0,
          "durationTicks": 0,
          "midi": 56,
          "name": "G#3",
          "ticks": 60796,
          "time": 79.16145833333333,
          "velocity": 0.2992125984251969
        },
        {
          "duration": 0,
          "durationTicks": 0,
          "midi": 72,
          "name": "C5",
          "ticks": 60796,
          "time": 79.16145833333333,
          "velocity": 0.1732283464566929
        },
        {
          "duration": 0,
          "durationTicks": 0,
          "midi": 40,
          "name": "E2",
          "ticks": 60805,
          "time": 79.17317708333333,
          "velocity": 0.36220472440944884
        },
        {
          "duration": 0,
          "durationTicks": 0,
          "midi": 74,
          "name": "D5",
          "ticks": 60805,
          "time": 79.17317708333333,
          "velocity": 0.2125984251968504
        },
        {
          "duration": 0,
          "durationTicks": 0,
          "midi": 79,
          "name": "G5",
          "ticks": 60805,
          "time": 79.17317708333333,
          "velocity": 0.08661417322834646
        },
        {
          "duration": 0,
          "durationTicks": 0,
          "midi": 70,
          "name": "A#4",
          "ticks": 60814,
          "time": 79.18489583333333,
          "velocity": 0.2283464566929134
        },
        {
          "duration": 0,
          "durationTicks": 0,
          "midi": 57,
          "name": "A3",
          "ticks": 60824,
          "time": 79.19791666666667,
          "velocity": 0.2755905511811024
        },
        {
          "duration": 0,
          "durationTicks": 0,
          "midi": 75,
          "name": "D#5",
          "ticks": 60824,
          "time": 79.19791666666667,
          "velocity": 0.14960629921259844
        },
        {
          "duration": 0,
          "durationTicks": 0,
          "midi": 61,
          "name": "C#4",
          "ticks": 60850,
          "time": 79.23177083333333,
          "velocity": 0.28346456692913385
        },
        {
          "duration": 0,
          "durationTicks": 0,
          "midi": 34,
          "name": "A#1",
          "ticks": 60860,
          "time": 79.24479166666667,
          "velocity": 0.36220472440944884
        },
        {
          "duration": 0,
          "durationTicks": 0,
          "midi": 68,
          "name": "G#4",
          "ticks": 60869,
          "time": 79.25651041666667,
          "velocity": 0.1889763779527559
        },
        {
          "duration": 0,
          "durationTicks": 0,
          "midi": 79,
          "name": "G5",
          "ticks": 60869,
          "time": 79.25651041666667,
          "velocity": 0.14173228346456693
        },
        {
          "duration": 0,
          "durationTicks": 0,
          "midi": 65,
          "name": "F4",
          "ticks": 60878,
          "time": 79.26822916666667,
          "velocity": 0.1968503937007874
        },
        {
          "duration": 0,
          "durationTicks": 0,
          "midi": 54,
          "name": "F#3",
          "ticks": 60888,
          "time": 79.28125,
          "velocity": 0.2440944881889764
        },
        {
          "duration": 0,
          "durationTicks": 0,
          "midi": 32,
          "name": "G#1",
          "ticks": 60888,
          "time": 79.28125,
          "velocity": 0.3937007874015748
        },
        {
          "duration": 0,
          "durationTicks": 0,
          "midi": 67,
          "name": "G4",
          "ticks": 60888,
          "time": 79.28125,
          "velocity": 0.2283464566929134
        },
        {
          "duration": 0,
          "durationTicks": 0,
          "midi": 71,
          "name": "B4",
          "ticks": 60897,
          "time": 79.29296875,
          "velocity": 0.2047244094488189
        },
        {
          "duration": 0,
          "durationTicks": 0,
          "midi": 86,
          "name": "D6",
          "ticks": 60897,
          "time": 79.29296875,
          "velocity": 0.11023622047244094
        },
        {
          "duration": 0,
          "durationTicks": 0,
          "midi": 90,
          "name": "F#6",
          "ticks": 60897,
          "time": 79.29296875,
          "velocity": 0.07874015748031496
        },
        {
          "duration": 0.1276041666666714,
          "durationTicks": 98,
          "midi": 84,
          "name": "C6",
          "ticks": 60897,
          "time": 79.29296875,
          "velocity": 0.11811023622047244
        },
        {
          "duration": 0,
          "durationTicks": 0,
          "midi": 80,
          "name": "G#5",
          "ticks": 60906,
          "time": 79.3046875,
          "velocity": 0.15748031496062992
        },
        {
          "duration": 0,
          "durationTicks": 0,
          "midi": 87,
          "name": "D#6",
          "ticks": 60906,
          "time": 79.3046875,
          "velocity": 0.07874015748031496
        },
        {
          "duration": 0.1276041666666714,
          "durationTicks": 98,
          "midi": 77,
          "name": "F5",
          "ticks": 60906,
          "time": 79.3046875,
          "velocity": 0.07874015748031496
        },
        {
          "duration": 0.1276041666666714,
          "durationTicks": 98,
          "midi": 63,
          "name": "D#4",
          "ticks": 60916,
          "time": 79.31770833333333,
          "velocity": 0.2992125984251969
        },
        {
          "duration": 0,
          "durationTicks": 0,
          "midi": 57,
          "name": "A3",
          "ticks": 60925,
          "time": 79.32942708333333,
          "velocity": 0.28346456692913385
        },
        {
          "duration": 0.2552083333333428,
          "durationTicks": 196,
          "midi": 68,
          "name": "G#4",
          "ticks": 60934,
          "time": 79.34114583333333,
          "velocity": 0.2125984251968504
        },
        {
          "duration": 0,
          "durationTicks": 0,
          "midi": 26,
          "name": "D1",
          "ticks": 60961,
          "time": 79.37630208333333,
          "velocity": 0.3779527559055118
        },
        {
          "duration": 0.1276041666666714,
          "durationTicks": 98,
          "midi": 72,
          "name": "C5",
          "ticks": 60961,
          "time": 79.37630208333333,
          "velocity": 0.12598425196850394
        },
        {
          "duration": 0,
          "durationTicks": 0,
          "midi": 24,
          "name": "C1",
          "ticks": 60988,
          "time": 79.41145833333333,
          "velocity": 0.36220472440944884
        },
        {
          "duration": 0,
          "durationTicks": 0,
          "midi": 48,
          "name": "C3",
          "ticks": 60997,
          "time": 79.42317708333333,
          "velocity": 0.3228346456692913
        },
        {
          "duration": 0.1276041666666714,
          "durationTicks": 98,
          "midi": 65,
          "name": "F4",
          "ticks": 60997,
          "time": 79.42317708333333,
          "velocity": 0.1889763779527559
        },
        {
          "duration": 0,
          "durationTicks": 0,
          "midi": 61,
          "name": "C#4",
          "ticks": 61007,
          "time": 79.43619791666667,
          "velocity": 0.23622047244094488
        },
        {
          "duration": 0,
          "durationTicks": 0,
          "midi": 75,
          "name": "D#5",
          "ticks": 61007,
          "time": 79.43619791666667,
          "velocity": 0.11023622047244094
        },
        {
          "duration": 0,
          "durationTicks": 0,
          "midi": 41,
          "name": "F2",
          "ticks": 61025,
          "time": 79.45963541666667,
          "velocity": 0.28346456692913385
        },
        {
          "duration": 0,
          "durationTicks": 0,
          "midi": 61,
          "name": "C#4",
          "ticks": 61061,
          "time": 79.50651041666667,
          "velocity": 0.2204724409448819
        },
        {
          "duration": 0.1263020833333286,
          "durationTicks": 97,
          "midi": 87,
          "name": "D#6",
          "ticks": 61088,
          "time": 79.54166666666667,
          "velocity": 0.14173228346456693
        },
        {
          "duration": 0,
          "durationTicks": 0,
          "midi": 52,
          "name": "E3",
          "ticks": 61098,
          "time": 79.5546875,
          "velocity": 0.1889763779527559
        },
        {
          "duration": 0,
          "durationTicks": 0,
          "midi": 66,
          "name": "F#4",
          "ticks": 61107,
          "time": 79.56640625,
          "velocity": 0.1968503937007874
        },
        {
          "duration": 0.125,
          "durationTicks": 96,
          "midi": 72,
          "name": "C5",
          "ticks": 61107,
          "time": 79.56640625,
          "velocity": 0.1968503937007874
        },
        {
          "duration": 0.2526041666666714,
          "durationTicks": 194,
          "midi": 80,
          "name": "G#5",
          "ticks": 61116,
          "time": 79.578125,
          "velocity": 0.10236220472440945
        },
        {
          "duration": 0.1236979166666714,
          "durationTicks": 95,
          "midi": 68,
          "name": "G#4",
          "ticks": 61126,
          "time": 79.59114583333333,
          "velocity": 0.1968503937007874
        },
        {
          "duration": 0.1236979166666714,
          "durationTicks": 95,
          "midi": 65,
          "name": "F4",
          "ticks": 61126,
          "time": 79.59114583333333,
          "velocity": 0.2125984251968504
        },
        {
          "duration": 0,
          "durationTicks": 0,
          "midi": 24,
          "name": "C1",
          "ticks": 61143,
          "time": 79.61328125,
          "velocity": 0.36220472440944884
        },
        {
          "duration": 0,
          "durationTicks": 0,
          "midi": 53,
          "name": "F3",
          "ticks": 61143,
          "time": 79.61328125,
          "velocity": 0.29133858267716534
        },
        {
          "duration": 0,
          "durationTicks": 0,
          "midi": 60,
          "name": "C4",
          "ticks": 61161,
          "time": 79.63671875,
          "velocity": 0.29133858267716534
        },
        {
          "duration": 0,
          "durationTicks": 0,
          "midi": 32,
          "name": "G#1",
          "ticks": 61170,
          "time": 79.6484375,
          "velocity": 0.3228346456692913
        },
        {
          "duration": 0,
          "durationTicks": 0,
          "midi": 44,
          "name": "G#2",
          "ticks": 61188,
          "time": 79.671875,
          "velocity": 0.2283464566929134
        },
        {
          "duration": 0,
          "durationTicks": 0,
          "midi": 62,
          "name": "D4",
          "ticks": 61188,
          "time": 79.671875,
          "velocity": 0.1968503937007874
        },
        {
          "duration": 0.1263020833333286,
          "durationTicks": 97,
          "midi": 75,
          "name": "D#5",
          "ticks": 61188,
          "time": 79.671875,
          "velocity": 0.1968503937007874
        },
        {
          "duration": 0,
          "durationTicks": 0,
          "midi": 61,
          "name": "C#4",
          "ticks": 61205,
          "time": 79.69401041666667,
          "velocity": 0.28346456692913385
        },
        {
          "duration": 0,
          "durationTicks": 0,
          "midi": 28,
          "name": "E1",
          "ticks": 61223,
          "time": 79.71744791666667,
          "velocity": 0.3700787401574803
        },
        {
          "duration": 0.12890625,
          "durationTicks": 99,
          "midi": 68,
          "name": "G#4",
          "ticks": 61232,
          "time": 79.72916666666667,
          "velocity": 0.1732283464566929
        },
        {
          "duration": 0,
          "durationTicks": 0,
          "midi": 55,
          "name": "G3",
          "ticks": 61241,
          "time": 79.74088541666667,
          "velocity": 0.2047244094488189
        },
        {
          "duration": 0,
          "durationTicks": 0,
          "midi": 60,
          "name": "C4",
          "ticks": 61251,
          "time": 79.75390625,
          "velocity": 0.28346456692913385
        },
        {
          "duration": 0,
          "durationTicks": 0,
          "midi": 65,
          "name": "F4",
          "ticks": 61268,
          "time": 79.77604166666667,
          "velocity": 0.1968503937007874
        },
        {
          "duration": 0,
          "durationTicks": 0,
          "midi": 60,
          "name": "C4",
          "ticks": 61278,
          "time": 79.7890625,
          "velocity": 0.28346456692913385
        },
        {
          "duration": 0,
          "durationTicks": 0,
          "midi": 91,
          "name": "G6",
          "ticks": 61278,
          "time": 79.7890625,
          "velocity": 0.2047244094488189
        },
        {
          "duration": 0,
          "durationTicks": 0,
          "midi": 84,
          "name": "C6",
          "ticks": 61296,
          "time": 79.8125,
          "velocity": 0.1889763779527559
        },
        {
          "duration": 0,
          "durationTicks": 0,
          "midi": 30,
          "name": "F#1",
          "ticks": 61296,
          "time": 79.8125,
          "velocity": 0.4251968503937008
        },
        {
          "duration": 0.1276041666666714,
          "durationTicks": 98,
          "midi": 60,
          "name": "C4",
          "ticks": 61306,
          "time": 79.82552083333333,
          "velocity": 0.11811023622047244
        },
        {
          "duration": 0.2552083333333428,
          "durationTicks": 196,
          "midi": 68,
          "name": "G#4",
          "ticks": 61306,
          "time": 79.82552083333333,
          "velocity": 0.2440944881889764
        },
        {
          "duration": 0.1276041666666714,
          "durationTicks": 98,
          "midi": 94,
          "name": "A#6",
          "ticks": 61315,
          "time": 79.83723958333333,
          "velocity": 0.2125984251968504
        },
        {
          "duration": 0,
          "durationTicks": 0,
          "midi": 87,
          "name": "D#6",
          "ticks": 61324,
          "time": 79.84895833333333,
          "velocity": 0.1968503937007874
        },
        {
          "duration": 0,
          "durationTicks": 0,
          "midi": 48,
          "name": "C3",
          "ticks": 61334,
          "time": 79.86197916666667,
          "velocity": 0.14173228346456693
        },
        {
          "duration": 0.1276041666666572,
          "durationTicks": 98,
          "midi": 63,
          "name": "D#4",
          "ticks": 61334,
          "time": 79.86197916666667,
          "velocity": 0.13385826771653545
        },
        {
          "duration": 0.1276041666666572,
          "durationTicks": 98,
          "midi": 29,
          "name": "F1",
          "ticks": 61343,
          "time": 79.87369791666667,
          "velocity": 0.3858267716535433
        },
        {
          "duration": 0.1276041666666714,
          "durationTicks": 98,
          "midi": 91,
          "name": "G6",
          "ticks": 61360,
          "time": 79.89583333333333,
          "velocity": 0.2125984251968504
        },
        {
          "duration": 0.1276041666666572,
          "durationTicks": 98,
          "midi": 60,
          "name": "C4",
          "ticks": 61370,
          "time": 79.90885416666667,
          "velocity": 0.11023622047244094
        },
        {
          "duration": 0,
          "durationTicks": 0,
          "midi": 75,
          "name": "D#5",
          "ticks": 61379,
          "time": 79.92057291666667,
          "velocity": 0.15748031496062992
        },
        {
          "duration": 0.1276041666666572,
          "durationTicks": 98,
          "midi": 48,
          "name": "C3",
          "ticks": 61379,
          "time": 79.92057291666667,
          "velocity": 0.08661417322834646
        },
        {
          "duration": 0.0833333333333286,
          "durationTicks": 64,
          "midi": 87,
          "name": "D#6",
          "ticks": 61415,
          "time": 79.96744791666667,
          "velocity": 0.18110236220472442
        },
        {
          "duration": 0,
          "durationTicks": 0,
          "midi": 82,
          "name": "A#5",
          "ticks": 61425,
          "time": 79.98046875,
          "velocity": 0.1968503937007874
        },
        {
          "duration": 0.1276041666666714,
          "durationTicks": 98,
          "midi": 84,
          "name": "C6",
          "ticks": 61461,
          "time": 80.02734375,
          "velocity": 0.1968503937007874
        },
        {
          "duration": 0,
          "durationTicks": 0,
          "midi": 79,
          "name": "G5",
          "ticks": 61479,
          "time": 80.05078125,
          "velocity": 0.15748031496062992
        },
        {
          "duration": 0.044270833333328596,
          "durationTicks": 34,
          "midi": 87,
          "name": "D#6",
          "ticks": 61479,
          "time": 80.05078125,
          "velocity": 0.11811023622047244
        },
        {
          "duration": 0.1276041666666714,
          "durationTicks": 98,
          "midi": 56,
          "name": "G#3",
          "ticks": 61479,
          "time": 80.05078125,
          "velocity": 0.1889763779527559
        },
        {
          "duration": 0.1276041666666714,
          "durationTicks": 98,
          "midi": 65,
          "name": "F4",
          "ticks": 61479,
          "time": 80.05078125,
          "velocity": 0.25984251968503935
        },
        {
          "duration": 0.1276041666666714,
          "durationTicks": 98,
          "midi": 82,
          "name": "A#5",
          "ticks": 61506,
          "time": 80.0859375,
          "velocity": 0.1968503937007874
        },
        {
          "duration": 0,
          "durationTicks": 0,
          "midi": 57,
          "name": "A3",
          "ticks": 61542,
          "time": 80.1328125,
          "velocity": 0.1889763779527559
        },
        {
          "duration": 0,
          "durationTicks": 0,
          "midi": 66,
          "name": "F#4",
          "ticks": 61542,
          "time": 80.1328125,
          "velocity": 0.25984251968503935
        },
        {
          "duration": 0.1263020833333428,
          "durationTicks": 97,
          "midi": 79,
          "name": "G5",
          "ticks": 61552,
          "time": 80.14583333333333,
          "velocity": 0.1732283464566929
        },
        {
          "duration": 0,
          "durationTicks": 0,
          "midi": 86,
          "name": "D6",
          "ticks": 61561,
          "time": 80.15755208333333,
          "velocity": 0.10236220472440945
        },
        {
          "duration": 0.1263020833333428,
          "durationTicks": 97,
          "midi": 58,
          "name": "A#3",
          "ticks": 61561,
          "time": 80.15755208333333,
          "velocity": 0.1968503937007874
        },
        {
          "duration": 0,
          "durationTicks": 0,
          "midi": 91,
          "name": "G6",
          "ticks": 61570,
          "time": 80.16927083333333,
          "velocity": 0.18110236220472442
        },
        {
          "duration": 0.1263020833333428,
          "durationTicks": 97,
          "midi": 67,
          "name": "G4",
          "ticks": 61570,
          "time": 80.16927083333333,
          "velocity": 0.2283464566929134
        },
        {
          "duration": 0,
          "durationTicks": 0,
          "midi": 64,
          "name": "E4",
          "ticks": 61589,
          "time": 80.19401041666667,
          "velocity": 0.1732283464566929
        },
        {
          "duration": 0.1263020833333286,
          "durationTicks": 97,
          "midi": 63,
          "name": "D#4",
          "ticks": 61607,
          "time": 80.21744791666667,
          "velocity": 0.1889763779527559
        },
        {
          "duration": 0.1276041666666714,
          "durationTicks": 98,
          "midi": 91,
          "name": "G6",
          "ticks": 61651,
          "time": 80.27473958333333,
          "velocity": 0.11023622047244094
        },
        {
          "duration": 0,
          "durationTicks": 0,
          "midi": 68,
          "name": "G#4",
          "ticks": 61660,
          "time": 80.28645833333333,
          "velocity": 0.23622047244094488
        },
        {
          "duration": 0,
          "durationTicks": 0,
          "midi": 55,
          "name": "G3",
          "ticks": 61670,
          "time": 80.29947916666667,
          "velocity": 0.23622047244094488
        },
        {
          "duration": 0,
          "durationTicks": 0,
          "midi": 86,
          "name": "D6",
          "ticks": 61670,
          "time": 80.29947916666667,
          "velocity": 0.14173228346456693
        },
        {
          "duration": 0.1263020833333286,
          "durationTicks": 97,
          "midi": 87,
          "name": "D#6",
          "ticks": 61670,
          "time": 80.29947916666667,
          "velocity": 0.1732283464566929
        },
        {
          "duration": 0,
          "durationTicks": 0,
          "midi": 92,
          "name": "G#6",
          "ticks": 61679,
          "time": 80.31119791666667,
          "velocity": 0.05511811023622047
        },
        {
          "duration": 0.1263020833333286,
          "durationTicks": 97,
          "midi": 67,
          "name": "G4",
          "ticks": 61679,
          "time": 80.31119791666667,
          "velocity": 0.29133858267716534
        },
        {
          "duration": 0,
          "durationTicks": 0,
          "midi": 38,
          "name": "D2",
          "ticks": 61697,
          "time": 80.33463541666667,
          "velocity": 0.2283464566929134
        },
        {
          "duration": 0.1276041666666572,
          "durationTicks": 98,
          "midi": 72,
          "name": "C5",
          "ticks": 61697,
          "time": 80.33463541666667,
          "velocity": 0.2125984251968504
        },
        {
          "duration": 0,
          "durationTicks": 0,
          "midi": 58,
          "name": "A#3",
          "ticks": 61706,
          "time": 80.34635416666667,
          "velocity": 0.2047244094488189
        },
        {
          "duration": 0,
          "durationTicks": 0,
          "midi": 82,
          "name": "A#5",
          "ticks": 61715,
          "time": 80.35807291666667,
          "velocity": 0.09448818897637795
        },
        {
          "duration": 0,
          "durationTicks": 0,
          "midi": 86,
          "name": "D6",
          "ticks": 61725,
          "time": 80.37109375,
          "velocity": 0.10236220472440945
        },
        {
          "duration": 0,
          "durationTicks": 0,
          "midi": 75,
          "name": "D#5",
          "ticks": 61769,
          "time": 80.42838541666667,
          "velocity": 0.15748031496062992
        },
        {
          "duration": 0.1276041666666572,
          "durationTicks": 98,
          "midi": 77,
          "name": "F5",
          "ticks": 61778,
          "time": 80.44010416666667,
          "velocity": 0.06299212598425197
        },
        {
          "duration": 0,
          "durationTicks": 0,
          "midi": 65,
          "name": "F4",
          "ticks": 61788,
          "time": 80.453125,
          "velocity": 0.14960629921259844
        },
        {
          "duration": 0,
          "durationTicks": 0,
          "midi": 67,
          "name": "G4",
          "ticks": 61851,
          "time": 80.53515625,
          "velocity": 0.1968503937007874
        },
        {
          "duration": 0,
          "durationTicks": 0,
          "midi": 60,
          "name": "C4",
          "ticks": 61851,
          "time": 80.53515625,
          "velocity": 0.14173228346456693
        },
        {
          "duration": 0.3815104166666714,
          "durationTicks": 293,
          "midi": 79,
          "name": "G5",
          "ticks": 61851,
          "time": 80.53515625,
          "velocity": 0.1968503937007874
        },
        {
          "duration": 0.1263020833333286,
          "durationTicks": 97,
          "midi": 77,
          "name": "F5",
          "ticks": 61860,
          "time": 80.546875,
          "velocity": 0.14173228346456693
        },
        {
          "duration": 0.1263020833333286,
          "durationTicks": 97,
          "midi": 56,
          "name": "G#3",
          "ticks": 61869,
          "time": 80.55859375,
          "velocity": 0.1968503937007874
        },
        {
          "duration": 0.1263020833333428,
          "durationTicks": 97,
          "midi": 65,
          "name": "F4",
          "ticks": 61879,
          "time": 80.57161458333333,
          "velocity": 0.25196850393700787
        },
        {
          "duration": 0,
          "durationTicks": 0,
          "midi": 60,
          "name": "C4",
          "ticks": 61906,
          "time": 80.60677083333333,
          "velocity": 0.11811023622047244
        },
        {
          "duration": 0,
          "durationTicks": 0,
          "midi": 68,
          "name": "G#4",
          "ticks": 61950,
          "time": 80.6640625,
          "velocity": 0.25984251968503935
        },
        {
          "duration": 0,
          "durationTicks": 0,
          "midi": 75,
          "name": "D#5",
          "ticks": 61959,
          "time": 80.67578125,
          "velocity": 0.14173228346456693
        },
        {
          "duration": 0.1263020833333286,
          "durationTicks": 97,
          "midi": 58,
          "name": "A#3",
          "ticks": 61959,
          "time": 80.67578125,
          "velocity": 0.1968503937007874
        },
        {
          "duration": 0.1263020833333428,
          "durationTicks": 97,
          "midi": 86,
          "name": "D6",
          "ticks": 61969,
          "time": 80.68880208333333,
          "velocity": 0.11023622047244094
        },
        {
          "duration": 0.2552083333333428,
          "durationTicks": 196,
          "midi": 67,
          "name": "G4",
          "ticks": 61969,
          "time": 80.68880208333333,
          "velocity": 0.29133858267716534
        },
        {
          "duration": 0.1263020833333428,
          "durationTicks": 97,
          "midi": 63,
          "name": "D#4",
          "ticks": 61978,
          "time": 80.70052083333333,
          "velocity": 0.14173228346456693
        },
        {
          "duration": 0,
          "durationTicks": 0,
          "midi": 29,
          "name": "F1",
          "ticks": 62068,
          "time": 80.81770833333333,
          "velocity": 0.4015748031496063
        },
        {
          "duration": 0,
          "durationTicks": 0,
          "midi": 30,
          "name": "F#1",
          "ticks": 62077,
          "time": 80.82942708333333,
          "velocity": 0.4251968503937008
        },
        {
          "duration": 0.1276041666666572,
          "durationTicks": 98,
          "midi": 63,
          "name": "D#4",
          "ticks": 62087,
          "time": 80.84244791666667,
          "velocity": 0.12598425196850394
        },
        {
          "duration": 0,
          "durationTicks": 0,
          "midi": 86,
          "name": "D6",
          "ticks": 62096,
          "time": 80.85416666666667,
          "velocity": 0.08661417322834646
        },
        {
          "duration": 0,
          "durationTicks": 0,
          "midi": 48,
          "name": "C3",
          "ticks": 62105,
          "time": 80.86588541666667,
          "velocity": 0.12598425196850394
        },
        {
          "duration": 0.1263020833333286,
          "durationTicks": 97,
          "midi": 58,
          "name": "A#3",
          "ticks": 62105,
          "time": 80.86588541666667,
          "velocity": 0.23622047244094488
        },
        {
          "duration": 0.1263020833333286,
          "durationTicks": 97,
          "midi": 29,
          "name": "F1",
          "ticks": 62115,
          "time": 80.87890625,
          "velocity": 0.3779527559055118
        },
        {
          "duration": 0,
          "durationTicks": 0,
          "midi": 75,
          "name": "D#5",
          "ticks": 62151,
          "time": 80.92578125,
          "velocity": 0.14960629921259844
        },
        {
          "duration": 0.1263020833333286,
          "durationTicks": 97,
          "midi": 48,
          "name": "C3",
          "ticks": 62151,
          "time": 80.92578125,
          "velocity": 0.08661417322834646
        },
        {
          "duration": 0,
          "durationTicks": 0,
          "midi": 86,
          "name": "D6",
          "ticks": 62160,
          "time": 80.9375,
          "velocity": 0.07874015748031496
        },
        {
          "duration": 0,
          "durationTicks": 0,
          "midi": 59,
          "name": "B3",
          "ticks": 62178,
          "time": 80.9609375,
          "velocity": 0.2204724409448819
        },
        {
          "duration": 0,
          "durationTicks": 0,
          "midi": 77,
          "name": "F5",
          "ticks": 62187,
          "time": 80.97265625,
          "velocity": 0.09448818897637795
        },
        {
          "duration": 0.1263020833333286,
          "durationTicks": 97,
          "midi": 68,
          "name": "G#4",
          "ticks": 62187,
          "time": 80.97265625,
          "velocity": 0.2677165354330709
        },
        {
          "duration": 0,
          "durationTicks": 0,
          "midi": 58,
          "name": "A#3",
          "ticks": 62205,
          "time": 80.99609375,
          "velocity": 0.2125984251968504
        },
        {
          "duration": 0,
          "durationTicks": 0,
          "midi": 86,
          "name": "D6",
          "ticks": 62231,
          "time": 81.02994791666667,
          "velocity": 0.09448818897637795
        },
        {
          "duration": 0.1263020833333286,
          "durationTicks": 97,
          "midi": 79,
          "name": "G5",
          "ticks": 62231,
          "time": 81.02994791666667,
          "velocity": 0.15748031496062992
        },
        {
          "duration": 0.1263020833333286,
          "durationTicks": 97,
          "midi": 58,
          "name": "A#3",
          "ticks": 62241,
          "time": 81.04296875,
          "velocity": 0.1968503937007874
        },
        {
          "duration": 0.1263020833333286,
          "durationTicks": 97,
          "midi": 67,
          "name": "G4",
          "ticks": 62241,
          "time": 81.04296875,
          "velocity": 0.25196850393700787
        },
        {
          "duration": 0,
          "durationTicks": 0,
          "midi": 87,
          "name": "D#6",
          "ticks": 62250,
          "time": 81.0546875,
          "velocity": 0.14173228346456693
        },
        {
          "duration": 0,
          "durationTicks": 0,
          "midi": 75,
          "name": "D#5",
          "ticks": 62340,
          "time": 81.171875,
          "velocity": 0.14173228346456693
        },
        {
          "duration": 0,
          "durationTicks": 0,
          "midi": 68,
          "name": "G#4",
          "ticks": 62385,
          "time": 81.23046875,
          "velocity": 0.13385826771653545
        },
        {
          "duration": 0,
          "durationTicks": 0,
          "midi": 67,
          "name": "G4",
          "ticks": 62411,
          "time": 81.26432291666667,
          "velocity": 0.16535433070866143
        },
        {
          "duration": 0,
          "durationTicks": 0,
          "midi": 93,
          "name": "A6",
          "ticks": 62438,
          "time": 81.29947916666667,
          "velocity": 0.05511811023622047
        },
        {
          "duration": 0,
          "durationTicks": 0,
          "midi": 86,
          "name": "D6",
          "ticks": 62438,
          "time": 81.29947916666667,
          "velocity": 0.07874015748031496
        },
        {
          "duration": 0,
          "durationTicks": 0,
          "midi": 90,
          "name": "F#6",
          "ticks": 62438,
          "time": 81.29947916666667,
          "velocity": 0.08661417322834646
        },
        {
          "duration": 0.1276041666666572,
          "durationTicks": 98,
          "midi": 80,
          "name": "G#5",
          "ticks": 62438,
          "time": 81.29947916666667,
          "velocity": 0.15748031496062992
        },
        {
          "duration": 0.25390625,
          "durationTicks": 195,
          "midi": 77,
          "name": "F5",
          "ticks": 62438,
          "time": 81.29947916666667,
          "velocity": 0.1889763779527559
        },
        {
          "duration": 0,
          "durationTicks": 0,
          "midi": 79,
          "name": "G5",
          "ticks": 62448,
          "time": 81.3125,
          "velocity": 0.08661417322834646
        },
        {
          "duration": 0.25390625,
          "durationTicks": 195,
          "midi": 65,
          "name": "F4",
          "ticks": 62448,
          "time": 81.3125,
          "velocity": 0.25984251968503935
        },
        {
          "duration": 0,
          "durationTicks": 0,
          "midi": 57,
          "name": "A3",
          "ticks": 62457,
          "time": 81.32421875,
          "velocity": 0.29133858267716534
        },
        {
          "duration": 0,
          "durationTicks": 0,
          "midi": 87,
          "name": "D#6",
          "ticks": 62457,
          "time": 81.32421875,
          "velocity": 0.08661417322834646
        },
        {
          "duration": 0,
          "durationTicks": 0,
          "midi": 31,
          "name": "G1",
          "ticks": 62466,
          "time": 81.3359375,
          "velocity": 0.3543307086614173
        },
        {
          "duration": 0,
          "durationTicks": 0,
          "midi": 50,
          "name": "D3",
          "ticks": 62476,
          "time": 81.34895833333333,
          "velocity": 0.11023622047244094
        },
        {
          "duration": 0,
          "durationTicks": 0,
          "midi": 60,
          "name": "C4",
          "ticks": 62476,
          "time": 81.34895833333333,
          "velocity": 0.11023622047244094
        },
        {
          "duration": 0,
          "durationTicks": 0,
          "midi": 68,
          "name": "G#4",
          "ticks": 62485,
          "time": 81.36067708333333,
          "velocity": 0.1732283464566929
        },
        {
          "duration": 0.1263020833333428,
          "durationTicks": 97,
          "midi": 57,
          "name": "A3",
          "ticks": 62503,
          "time": 81.38411458333333,
          "velocity": 0.13385826771653545
        },
        {
          "duration": 0.1263020833333428,
          "durationTicks": 97,
          "midi": 31,
          "name": "G1",
          "ticks": 62503,
          "time": 81.38411458333333,
          "velocity": 0.3543307086614173
        },
        {
          "duration": 0,
          "durationTicks": 0,
          "midi": 60,
          "name": "C4",
          "ticks": 62512,
          "time": 81.39583333333333,
          "velocity": 0.14173228346456693
        },
        {
          "duration": 0.08203125,
          "durationTicks": 63,
          "midi": 50,
          "name": "D3",
          "ticks": 62512,
          "time": 81.39583333333333,
          "velocity": 0.08661417322834646
        },
        {
          "duration": 0.1263020833333428,
          "durationTicks": 97,
          "midi": 79,
          "name": "G5",
          "ticks": 62512,
          "time": 81.39583333333333,
          "velocity": 0.09448818897637795
        },
        {
          "duration": 0,
          "durationTicks": 0,
          "midi": 75,
          "name": "D#5",
          "ticks": 62529,
          "time": 81.41796875,
          "velocity": 0.14960629921259844
        },
        {
          "duration": 0.1263020833333428,
          "durationTicks": 97,
          "midi": 60,
          "name": "C4",
          "ticks": 62548,
          "time": 81.44270833333333,
          "velocity": 0.2125984251968504
        },
        {
          "duration": 0.04427083333334281,
          "durationTicks": 34,
          "midi": 50,
          "name": "D3",
          "ticks": 62575,
          "time": 81.47786458333333,
          "velocity": 0.08661417322834646
        },
        {
          "duration": 0,
          "durationTicks": 0,
          "midi": 87,
          "name": "D#6",
          "ticks": 62629,
          "time": 81.54817708333333,
          "velocity": 0.14173228346456693
        },
        {
          "duration": 0.2526041666666714,
          "durationTicks": 194,
          "midi": 67,
          "name": "G4",
          "ticks": 62647,
          "time": 81.57161458333333,
          "velocity": 0.29133858267716534
        },
        {
          "duration": 0.2526041666666572,
          "durationTicks": 194,
          "midi": 63,
          "name": "D#4",
          "ticks": 62657,
          "time": 81.58463541666667,
          "velocity": 0.2440944881889764
        },
        {
          "duration": 0,
          "durationTicks": 0,
          "midi": 44,
          "name": "G#2",
          "ticks": 62719,
          "time": 81.66536458333333,
          "velocity": 0.3779527559055118
        },
        {
          "duration": 0,
          "durationTicks": 0,
          "midi": 87,
          "name": "D#6",
          "ticks": 62728,
          "time": 81.67708333333333,
          "velocity": 0.11811023622047244
        },
        {
          "duration": 0,
          "durationTicks": 0,
          "midi": 45,
          "name": "A2",
          "ticks": 62737,
          "time": 81.68880208333333,
          "velocity": 0.3779527559055118
        },
        {
          "duration": 0,
          "durationTicks": 0,
          "midi": 60,
          "name": "C4",
          "ticks": 62747,
          "time": 81.70182291666667,
          "velocity": 0.11023622047244094
        },
        {
          "duration": 0.1263020833333286,
          "durationTicks": 97,
          "midi": 44,
          "name": "G#2",
          "ticks": 62756,
          "time": 81.71354166666667,
          "velocity": 0.36220472440944884
        },
        {
          "duration": 0,
          "durationTicks": 0,
          "midi": 31,
          "name": "G1",
          "ticks": 62765,
          "time": 81.72526041666667,
          "velocity": 0.2677165354330709
        },
        {
          "duration": 0.1263020833333286,
          "durationTicks": 97,
          "midi": 77,
          "name": "F5",
          "ticks": 62810,
          "time": 81.78385416666667,
          "velocity": 0.05511811023622047
        },
        {
          "duration": 0.1276041666666714,
          "durationTicks": 98,
          "midi": 80,
          "name": "G#5",
          "ticks": 62827,
          "time": 81.80598958333333,
          "velocity": 0.14173228346456693
        },
        {
          "duration": 0,
          "durationTicks": 0,
          "midi": 68,
          "name": "G#4",
          "ticks": 62837,
          "time": 81.81901041666667,
          "velocity": 0.2440944881889764
        },
        {
          "duration": 0,
          "durationTicks": 0,
          "midi": 66,
          "name": "F#4",
          "ticks": 62882,
          "time": 81.87760416666667,
          "velocity": 0.2125984251968504
        },
        {
          "duration": 0,
          "durationTicks": 0,
          "midi": 69,
          "name": "A4",
          "ticks": 62882,
          "time": 81.87760416666667,
          "velocity": 0.25196850393700787
        },
        {
          "duration": 0.1263020833333286,
          "durationTicks": 97,
          "midi": 67,
          "name": "G4",
          "ticks": 62900,
          "time": 81.90104166666667,
          "velocity": 0.25984251968503935
        },
        {
          "duration": 0.25390625,
          "durationTicks": 195,
          "midi": 70,
          "name": "A#4",
          "ticks": 62900,
          "time": 81.90104166666667,
          "velocity": 0.2677165354330709
        },
        {
          "duration": 0.1263020833333286,
          "durationTicks": 97,
          "midi": 44,
          "name": "G#2",
          "ticks": 62909,
          "time": 81.91276041666667,
          "velocity": 0.36220472440944884
        },
        {
          "duration": 0.1263020833333286,
          "durationTicks": 97,
          "midi": 89,
          "name": "F6",
          "ticks": 62909,
          "time": 81.91276041666667,
          "velocity": 0.06299212598425197
        },
        {
          "duration": 0,
          "durationTicks": 0,
          "midi": 75,
          "name": "D#5",
          "ticks": 62918,
          "time": 81.92447916666667,
          "velocity": 0.10236220472440945
        },
        {
          "duration": 0.2526041666666572,
          "durationTicks": 194,
          "midi": 58,
          "name": "A#3",
          "ticks": 62918,
          "time": 81.92447916666667,
          "velocity": 0.16535433070866143
        },
        {
          "duration": 0,
          "durationTicks": 0,
          "midi": 86,
          "name": "D6",
          "ticks": 62928,
          "time": 81.9375,
          "velocity": 0.05511811023622047
        },
        {
          "duration": 0.125,
          "durationTicks": 96,
          "midi": 63,
          "name": "D#4",
          "ticks": 62928,
          "time": 81.9375,
          "velocity": 0.14173228346456693
        },
        {
          "duration": 0,
          "durationTicks": 0,
          "midi": 43,
          "name": "G2",
          "ticks": 63008,
          "time": 82.04166666666667,
          "velocity": 0.3228346456692913
        },
        {
          "duration": 0,
          "durationTicks": 0,
          "midi": 32,
          "name": "G#1",
          "ticks": 63035,
          "time": 82.07682291666667,
          "velocity": 0.3464566929133858
        },
        {
          "duration": 0.1263020833333286,
          "durationTicks": 97,
          "midi": 67,
          "name": "G4",
          "ticks": 63045,
          "time": 82.08984375,
          "velocity": 0.11023622047244094
        },
        {
          "duration": 0.1263020833333286,
          "durationTicks": 97,
          "midi": 63,
          "name": "D#4",
          "ticks": 63054,
          "time": 82.1015625,
          "velocity": 0.11023622047244094
        },
        {
          "duration": 0,
          "durationTicks": 0,
          "midi": 33,
          "name": "A1",
          "ticks": 63063,
          "time": 82.11328125,
          "velocity": 0.31496062992125984
        },
        {
          "duration": 0,
          "durationTicks": 0,
          "midi": 75,
          "name": "D#5",
          "ticks": 63108,
          "time": 82.171875,
          "velocity": 0.14960629921259844
        },
        {
          "duration": 0.1263020833333286,
          "durationTicks": 97,
          "midi": 68,
          "name": "G#4",
          "ticks": 63117,
          "time": 82.18359375,
          "velocity": 0.05511811023622047
        },
        {
          "duration": 0,
          "durationTicks": 0,
          "midi": 64,
          "name": "E4",
          "ticks": 63198,
          "time": 82.2890625,
          "velocity": 0.1968503937007874
        },
        {
          "duration": 0,
          "durationTicks": 0,
          "midi": 87,
          "name": "D#6",
          "ticks": 63198,
          "time": 82.2890625,
          "velocity": 0.1968503937007874
        },
        {
          "duration": 0.1276041666666714,
          "durationTicks": 98,
          "midi": 68,
          "name": "G#4",
          "ticks": 63198,
          "time": 82.2890625,
          "velocity": 0.28346456692913385
        },
        {
          "duration": 0,
          "durationTicks": 0,
          "midi": 85,
          "name": "C#6",
          "ticks": 63207,
          "time": 82.30078125,
          "velocity": 0.08661417322834646
        },
        {
          "duration": 0,
          "durationTicks": 0,
          "midi": 90,
          "name": "F#6",
          "ticks": 63207,
          "time": 82.30078125,
          "velocity": 0.07086614173228346
        },
        {
          "duration": 0,
          "durationTicks": 0,
          "midi": 86,
          "name": "D6",
          "ticks": 63207,
          "time": 82.30078125,
          "velocity": 0.08661417322834646
        },
        {
          "duration": 0,
          "durationTicks": 0,
          "midi": 34,
          "name": "A#1",
          "ticks": 63216,
          "time": 82.3125,
          "velocity": 0.4015748031496063
        },
        {
          "duration": 0,
          "durationTicks": 0,
          "midi": 56,
          "name": "G#3",
          "ticks": 63226,
          "time": 82.32552083333333,
          "velocity": 0.25984251968503935
        },
        {
          "duration": 0.1263020833333428,
          "durationTicks": 97,
          "midi": 65,
          "name": "F4",
          "ticks": 63226,
          "time": 82.32552083333333,
          "velocity": 0.2047244094488189
        },
        {
          "duration": 0,
          "durationTicks": 0,
          "midi": 33,
          "name": "A1",
          "ticks": 63253,
          "time": 82.36067708333333,
          "velocity": 0.36220472440944884
        },
        {
          "duration": 0,
          "durationTicks": 0,
          "midi": 51,
          "name": "D#3",
          "ticks": 63262,
          "time": 82.37239583333333,
          "velocity": 0.07086614173228346
        },
        {
          "duration": 0,
          "durationTicks": 0,
          "midi": 32,
          "name": "G#1",
          "ticks": 63271,
          "time": 82.38411458333333,
          "velocity": 0.3464566929133858
        },
        {
          "duration": 0,
          "durationTicks": 0,
          "midi": 58,
          "name": "A#3",
          "ticks": 63271,
          "time": 82.38411458333333,
          "velocity": 0.14960629921259844
        },
        {
          "duration": 0.125,
          "durationTicks": 96,
          "midi": 82,
          "name": "A#5",
          "ticks": 63271,
          "time": 82.38411458333333,
          "velocity": 0.07874015748031496
        },
        {
          "duration": 0,
          "durationTicks": 0,
          "midi": 75,
          "name": "D#5",
          "ticks": 63298,
          "time": 82.41927083333333,
          "velocity": 0.1732283464566929
        },
        {
          "duration": 0.2513020833333428,
          "durationTicks": 193,
          "midi": 67,
          "name": "G4",
          "ticks": 63298,
          "time": 82.41927083333333,
          "velocity": 0.2440944881889764
        },
        {
          "duration": 0.125,
          "durationTicks": 96,
          "midi": 58,
          "name": "A#3",
          "ticks": 63307,
          "time": 82.43098958333333,
          "velocity": 0.13385826771653545
        },
        {
          "duration": 0.2513020833333428,
          "durationTicks": 193,
          "midi": 63,
          "name": "D#4",
          "ticks": 63307,
          "time": 82.43098958333333,
          "velocity": 0.25984251968503935
        },
        {
          "duration": 0,
          "durationTicks": 0,
          "midi": 82,
          "name": "A#5",
          "ticks": 63406,
          "time": 82.55989583333333,
          "velocity": 0.05511811023622047
        },
        {
          "duration": 0,
          "durationTicks": 0,
          "midi": 66,
          "name": "F#4",
          "ticks": 63486,
          "time": 82.6640625,
          "velocity": 0.2283464566929134
        },
        {
          "duration": 0.3763020833333286,
          "durationTicks": 289,
          "midi": 77,
          "name": "F5",
          "ticks": 63486,
          "time": 82.6640625,
          "velocity": 0.1732283464566929
        },
        {
          "duration": 0,
          "durationTicks": 0,
          "midi": 75,
          "name": "D#5",
          "ticks": 63496,
          "time": 82.67708333333333,
          "velocity": 0.14173228346456693
        },
        {
          "duration": 0.3763020833333428,
          "durationTicks": 289,
          "midi": 61,
          "name": "C#4",
          "ticks": 63496,
          "time": 82.67708333333333,
          "velocity": 0.2204724409448819
        },
        {
          "duration": 0.125,
          "durationTicks": 96,
          "midi": 68,
          "name": "G#4",
          "ticks": 63505,
          "time": 82.68880208333333,
          "velocity": 0.06299212598425197
        },
        {
          "duration": 0.3763020833333428,
          "durationTicks": 289,
          "midi": 65,
          "name": "F4",
          "ticks": 63505,
          "time": 82.68880208333333,
          "velocity": 0.25984251968503935
        },
        {
          "duration": 0,
          "durationTicks": 0,
          "midi": 31,
          "name": "G1",
          "ticks": 63613,
          "time": 82.82942708333333,
          "velocity": 0.29133858267716534
        },
        {
          "duration": 0,
          "durationTicks": 0,
          "midi": 75,
          "name": "D#5",
          "ticks": 63675,
          "time": 82.91015625,
          "velocity": 0.14173228346456693
        },
        {
          "duration": 0,
          "durationTicks": 0,
          "midi": 62,
          "name": "D4",
          "ticks": 63773,
          "time": 83.03776041666667,
          "velocity": 0.2125984251968504
        },
        {
          "duration": 0,
          "durationTicks": 0,
          "midi": 87,
          "name": "D#6",
          "ticks": 63773,
          "time": 83.03776041666667,
          "velocity": 0.14173228346456693
        },
        {
          "duration": 0.3802083333333286,
          "durationTicks": 292,
          "midi": 65,
          "name": "F4",
          "ticks": 63773,
          "time": 83.03776041666667,
          "velocity": 0.2440944881889764
        },
        {
          "duration": 0.1263020833333286,
          "durationTicks": 97,
          "midi": 61,
          "name": "C#4",
          "ticks": 63792,
          "time": 83.0625,
          "velocity": 0.2047244094488189
        },
        {
          "duration": 0,
          "durationTicks": 0,
          "midi": 31,
          "name": "G1",
          "ticks": 63801,
          "time": 83.07421875,
          "velocity": 0.29133858267716534
        },
        {
          "duration": 0.1263020833333286,
          "durationTicks": 97,
          "midi": 84,
          "name": "C6",
          "ticks": 63828,
          "time": 83.109375,
          "velocity": 0.05511811023622047
        },
        {
          "duration": 0,
          "durationTicks": 0,
          "midi": 75,
          "name": "D#5",
          "ticks": 63872,
          "time": 83.16666666666667,
          "velocity": 0.14173228346456693
        },
        {
          "duration": 0.1276041666666714,
          "durationTicks": 98,
          "midi": 32,
          "name": "G#1",
          "ticks": 63882,
          "time": 83.1796875,
          "velocity": 0.3464566929133858
        },
        {
          "duration": 0.1276041666666714,
          "durationTicks": 98,
          "midi": 51,
          "name": "D#3",
          "ticks": 63882,
          "time": 83.1796875,
          "velocity": 0.14173228346456693
        },
        {
          "duration": 0,
          "durationTicks": 0,
          "midi": 61,
          "name": "C#4",
          "ticks": 63937,
          "time": 83.25130208333333,
          "velocity": 0.14173228346456693
        },
        {
          "duration": 0,
          "durationTicks": 0,
          "midi": 57,
          "name": "A3",
          "ticks": 63963,
          "time": 83.28515625,
          "velocity": 0.30708661417322836
        },
        {
          "duration": 0,
          "durationTicks": 0,
          "midi": 86,
          "name": "D6",
          "ticks": 63963,
          "time": 83.28515625,
          "velocity": 0.10236220472440945
        },
        {
          "duration": 0,
          "durationTicks": 0,
          "midi": 80,
          "name": "G#5",
          "ticks": 63963,
          "time": 83.28515625,
          "velocity": 0.16535433070866143
        },
        {
          "duration": 0,
          "durationTicks": 0,
          "midi": 70,
          "name": "A#4",
          "ticks": 63973,
          "time": 83.29817708333333,
          "velocity": 0.11023622047244094
        },
        {
          "duration": 0,
          "durationTicks": 0,
          "midi": 90,
          "name": "F#6",
          "ticks": 63973,
          "time": 83.29817708333333,
          "velocity": 0.06299212598425197
        },
        {
          "duration": 0,
          "durationTicks": 0,
          "midi": 95,
          "name": "B6",
          "ticks": 63973,
          "time": 83.29817708333333,
          "velocity": 0.07874015748031496
        },
        {
          "duration": 0.1263020833333428,
          "durationTicks": 97,
          "midi": 44,
          "name": "G#2",
          "ticks": 63973,
          "time": 83.29817708333333,
          "velocity": 0.3779527559055118
        },
        {
          "duration": 0,
          "durationTicks": 0,
          "midi": 89,
          "name": "F6",
          "ticks": 63982,
          "time": 83.30989583333333,
          "velocity": 0.07874015748031496
        },
        {
          "duration": 0,
          "durationTicks": 0,
          "midi": 87,
          "name": "D#6",
          "ticks": 63982,
          "time": 83.30989583333333,
          "velocity": 0.08661417322834646
        },
        {
          "duration": 0,
          "durationTicks": 0,
          "midi": 82,
          "name": "A#5",
          "ticks": 64000,
          "time": 83.33333333333333,
          "velocity": 0.06299212598425197
        },
        {
          "duration": 0.125,
          "durationTicks": 96,
          "midi": 58,
          "name": "A#3",
          "ticks": 64009,
          "time": 83.34505208333333,
          "velocity": 0.14960629921259844
        },
        {
          "duration": 0.125,
          "durationTicks": 96,
          "midi": 67,
          "name": "G4",
          "ticks": 64009,
          "time": 83.34505208333333,
          "velocity": 0.13385826771653545
        },
        {
          "duration": 0.125,
          "durationTicks": 96,
          "midi": 77,
          "name": "F5",
          "ticks": 64045,
          "time": 83.39192708333333,
          "velocity": 0.08661417322834646
        },
        {
          "duration": 0,
          "durationTicks": 0,
          "midi": 75,
          "name": "D#5",
          "ticks": 64063,
          "time": 83.41536458333333,
          "velocity": 0.14960629921259844
        },
        {
          "duration": 0,
          "durationTicks": 0,
          "midi": 66,
          "name": "F#4",
          "ticks": 64072,
          "time": 83.42708333333333,
          "velocity": 0.09448818897637795
        },
        {
          "duration": 0,
          "durationTicks": 0,
          "midi": 32,
          "name": "G#1",
          "ticks": 64090,
          "time": 83.45052083333333,
          "velocity": 0.3228346456692913
        },
        {
          "duration": 0,
          "durationTicks": 0,
          "midi": 33,
          "name": "A1",
          "ticks": 64107,
          "time": 83.47265625,
          "velocity": 0.3228346456692913
        },
        {
          "duration": 0,
          "durationTicks": 0,
          "midi": 65,
          "name": "F4",
          "ticks": 64117,
          "time": 83.48567708333333,
          "velocity": 0.08661417322834646
        },
        {
          "duration": 0,
          "durationTicks": 0,
          "midi": 32,
          "name": "G#1",
          "ticks": 64144,
          "time": 83.52083333333333,
          "velocity": 0.3543307086614173
        },
        {
          "duration": 0,
          "durationTicks": 0,
          "midi": 87,
          "name": "D#6",
          "ticks": 64153,
          "time": 83.53255208333333,
          "velocity": 0.12598425196850394
        },
        {
          "duration": 0.1263020833333428,
          "durationTicks": 97,
          "midi": 58,
          "name": "A#3",
          "ticks": 64162,
          "time": 83.54427083333333,
          "velocity": 0.14173228346456693
        },
        {
          "duration": 0.1263020833333428,
          "durationTicks": 97,
          "midi": 63,
          "name": "D#4",
          "ticks": 64171,
          "time": 83.55598958333333,
          "velocity": 0.11023622047244094
        },
        {
          "duration": 0.2513020833333428,
          "durationTicks": 193,
          "midi": 67,
          "name": "G4",
          "ticks": 64171,
          "time": 83.55598958333333,
          "velocity": 0.14173228346456693
        },
        {
          "duration": 0,
          "durationTicks": 0,
          "midi": 29,
          "name": "F1",
          "ticks": 64198,
          "time": 83.59114583333333,
          "velocity": 0.36220472440944884
        },
        {
          "duration": 0,
          "durationTicks": 0,
          "midi": 48,
          "name": "C3",
          "ticks": 64198,
          "time": 83.59114583333333,
          "velocity": 0.07874015748031496
        },
        {
          "duration": 0,
          "durationTicks": 0,
          "midi": 26,
          "name": "D1",
          "ticks": 64243,
          "time": 83.64973958333333,
          "velocity": 0.3543307086614173
        },
        {
          "duration": 0.1263020833333428,
          "durationTicks": 97,
          "midi": 75,
          "name": "D#5",
          "ticks": 64243,
          "time": 83.64973958333333,
          "velocity": 0.1732283464566929
        },
        {
          "duration": 0,
          "durationTicks": 0,
          "midi": 57,
          "name": "A3",
          "ticks": 64252,
          "time": 83.66145833333333,
          "velocity": 0.2992125984251969
        },
        {
          "duration": 0.1263020833333428,
          "durationTicks": 97,
          "midi": 63,
          "name": "D#4",
          "ticks": 64252,
          "time": 83.66145833333333,
          "velocity": 0.1732283464566929
        },
        {
          "duration": 0,
          "durationTicks": 0,
          "midi": 56,
          "name": "G#3",
          "ticks": 64271,
          "time": 83.68619791666667,
          "velocity": 0.2677165354330709
        },
        {
          "duration": 0,
          "durationTicks": 0,
          "midi": 35,
          "name": "B1",
          "ticks": 64288,
          "time": 83.70833333333333,
          "velocity": 0.3464566929133858
        },
        {
          "duration": 0.1263020833333286,
          "durationTicks": 97,
          "midi": 58,
          "name": "A#3",
          "ticks": 64298,
          "time": 83.72135416666667,
          "velocity": 0.14173228346456693
        },
        {
          "duration": 0,
          "durationTicks": 0,
          "midi": 36,
          "name": "C2",
          "ticks": 64369,
          "time": 83.81380208333333,
          "velocity": 0.3228346456692913
        },
        {
          "duration": 0.25,
          "durationTicks": 192,
          "midi": 65,
          "name": "F4",
          "ticks": 64378,
          "time": 83.82552083333333,
          "velocity": 0.11811023622047244
        },
        {
          "duration": 0,
          "durationTicks": 0,
          "midi": 34,
          "name": "A#1",
          "ticks": 64388,
          "time": 83.83854166666667,
          "velocity": 0.3779527559055118
        },
        {
          "duration": 0.125,
          "durationTicks": 96,
          "midi": 61,
          "name": "C#4",
          "ticks": 64397,
          "time": 83.85026041666667,
          "velocity": 0.13385826771653545
        },
        {
          "duration": 0,
          "durationTicks": 0,
          "midi": 34,
          "name": "A#1",
          "ticks": 64415,
          "time": 83.87369791666667,
          "velocity": 0.3700787401574803
        },
        {
          "duration": 0,
          "durationTicks": 0,
          "midi": 35,
          "name": "B1",
          "ticks": 64432,
          "time": 83.89583333333333,
          "velocity": 0.3464566929133858
        },
        {
          "duration": 0,
          "durationTicks": 0,
          "midi": 56,
          "name": "G#3",
          "ticks": 64442,
          "time": 83.90885416666667,
          "velocity": 0.14173228346456693
        },
        {
          "duration": 0,
          "durationTicks": 0,
          "midi": 75,
          "name": "D#5",
          "ticks": 64442,
          "time": 83.90885416666667,
          "velocity": 0.14960629921259844
        },
        {
          "duration": 0.12369791666665719,
          "durationTicks": 95,
          "midi": 34,
          "name": "A#1",
          "ticks": 64451,
          "time": 83.92057291666667,
          "velocity": 0.3543307086614173
        },
        {
          "duration": 0.125,
          "durationTicks": 96,
          "midi": 68,
          "name": "G#4",
          "ticks": 64531,
          "time": 84.02473958333333,
          "velocity": 0.25196850393700787
        },
        {
          "duration": 0.125,
          "durationTicks": 96,
          "midi": 60,
          "name": "C4",
          "ticks": 64548,
          "time": 84.046875,
          "velocity": 0.1968503937007874
        },
        {
          "duration": 0,
          "durationTicks": 0,
          "midi": 69,
          "name": "A4",
          "ticks": 64602,
          "time": 84.1171875,
          "velocity": 0.2440944881889764
        },
        {
          "duration": 0.125,
          "durationTicks": 96,
          "midi": 61,
          "name": "C#4",
          "ticks": 64602,
          "time": 84.1171875,
          "velocity": 0.1968503937007874
        },
        {
          "duration": 0.2513020833333286,
          "durationTicks": 193,
          "midi": 70,
          "name": "A#4",
          "ticks": 64620,
          "time": 84.140625,
          "velocity": 0.2755905511811024
        },
        {
          "duration": 0,
          "durationTicks": 0,
          "midi": 75,
          "name": "D#5",
          "ticks": 64629,
          "time": 84.15234375,
          "velocity": 0.14173228346456693
        },
        {
          "duration": 0,
          "durationTicks": 0,
          "midi": 89,
          "name": "F6",
          "ticks": 64629,
          "time": 84.15234375,
          "velocity": 0.07874015748031496
        },
        {
          "duration": 0,
          "durationTicks": 0,
          "midi": 89,
          "name": "F6",
          "ticks": 64691,
          "time": 84.23307291666667,
          "velocity": 0.05511811023622047
        },
        {
          "duration": 0,
          "durationTicks": 0,
          "midi": 66,
          "name": "F#4",
          "ticks": 64718,
          "time": 84.26822916666667,
          "velocity": 0.1968503937007874
        },
        {
          "duration": 0,
          "durationTicks": 0,
          "midi": 56,
          "name": "G#3",
          "ticks": 64727,
          "time": 84.27994791666667,
          "velocity": 0.29133858267716534
        },
        {
          "duration": 0,
          "durationTicks": 0,
          "midi": 87,
          "name": "D#6",
          "ticks": 64727,
          "time": 84.27994791666667,
          "velocity": 0.14173228346456693
        },
        {
          "duration": 0,
          "durationTicks": 0,
          "midi": 80,
          "name": "G#5",
          "ticks": 64727,
          "time": 84.27994791666667,
          "velocity": 0.14173228346456693
        },
        {
          "duration": 0,
          "durationTicks": 0,
          "midi": 86,
          "name": "D6",
          "ticks": 64727,
          "time": 84.27994791666667,
          "velocity": 0.10236220472440945
        },
        {
          "duration": 0,
          "durationTicks": 0,
          "midi": 77,
          "name": "F5",
          "ticks": 64736,
          "time": 84.29166666666667,
          "velocity": 0.05511811023622047
        },
        {
          "duration": 0,
          "durationTicks": 0,
          "midi": 56,
          "name": "G#3",
          "ticks": 64754,
          "time": 84.31510416666667,
          "velocity": 0.1889763779527559
        },
        {
          "duration": 0,
          "durationTicks": 0,
          "midi": 38,
          "name": "D2",
          "ticks": 64754,
          "time": 84.31510416666667,
          "velocity": 0.2125984251968504
        },
        {
          "duration": 0.1263020833333286,
          "durationTicks": 97,
          "midi": 65,
          "name": "F4",
          "ticks": 64754,
          "time": 84.31510416666667,
          "velocity": 0.11811023622047244
        },
        {
          "duration": 0.1263020833333286,
          "durationTicks": 97,
          "midi": 61,
          "name": "C#4",
          "ticks": 64754,
          "time": 84.31510416666667,
          "velocity": 0.11811023622047244
        },
        {
          "duration": 0,
          "durationTicks": 0,
          "midi": 56,
          "name": "G#3",
          "ticks": 64808,
          "time": 84.38541666666667,
          "velocity": 0.08661417322834646
        },
        {
          "duration": 0,
          "durationTicks": 0,
          "midi": 75,
          "name": "D#5",
          "ticks": 64817,
          "time": 84.39713541666667,
          "velocity": 0.14173228346456693
        },
        {
          "duration": 0.1263020833333286,
          "durationTicks": 97,
          "midi": 68,
          "name": "G#4",
          "ticks": 64827,
          "time": 84.41015625,
          "velocity": 0.10236220472440945
        },
        {
          "duration": 0,
          "durationTicks": 0,
          "midi": 57,
          "name": "A3",
          "ticks": 64907,
          "time": 84.51432291666667,
          "velocity": 0.14173228346456693
        },
        {
          "duration": 0.1263020833333286,
          "durationTicks": 97,
          "midi": 44,
          "name": "G#2",
          "ticks": 64907,
          "time": 84.51432291666667,
          "velocity": 0.36220472440944884
        },
        {
          "duration": 0,
          "durationTicks": 0,
          "midi": 63,
          "name": "D#4",
          "ticks": 64917,
          "time": 84.52734375,
          "velocity": 0.2047244094488189
        },
        {
          "duration": 0.1263020833333286,
          "durationTicks": 97,
          "midi": 80,
          "name": "G#5",
          "ticks": 64917,
          "time": 84.52734375,
          "velocity": 0.15748031496062992
        },
        {
          "duration": 0.1263020833333286,
          "durationTicks": 97,
          "midi": 68,
          "name": "G#4",
          "ticks": 64926,
          "time": 84.5390625,
          "velocity": 0.2283464566929134
        },
        {
          "duration": 0,
          "durationTicks": 0,
          "midi": 60,
          "name": "C4",
          "ticks": 64935,
          "time": 84.55078125,
          "velocity": 0.08661417322834646
        },
        {
          "duration": 0,
          "durationTicks": 0,
          "midi": 64,
          "name": "E4",
          "ticks": 64935,
          "time": 84.55078125,
          "velocity": 0.23622047244094488
        },
        {
          "duration": 0,
          "durationTicks": 0,
          "midi": 70,
          "name": "A#4",
          "ticks": 64962,
          "time": 84.5859375,
          "velocity": 0.06299212598425197
        },
        {
          "duration": 0,
          "durationTicks": 0,
          "midi": 64,
          "name": "E4",
          "ticks": 64980,
          "time": 84.609375,
          "velocity": 0.1732283464566929
        },
        {
          "duration": 0.1263020833333286,
          "durationTicks": 97,
          "midi": 67,
          "name": "G4",
          "ticks": 65007,
          "time": 84.64453125,
          "velocity": 0.1968503937007874
        },
        {
          "duration": 0.1263020833333286,
          "durationTicks": 97,
          "midi": 70,
          "name": "A#4",
          "ticks": 65007,
          "time": 84.64453125,
          "velocity": 0.29133858267716534
        },
        {
          "duration": 0,
          "durationTicks": 0,
          "midi": 75,
          "name": "D#5",
          "ticks": 65016,
          "time": 84.65625,
          "velocity": 0.14173228346456693
        },
        {
          "duration": 0.1263020833333286,
          "durationTicks": 97,
          "midi": 89,
          "name": "F6",
          "ticks": 65025,
          "time": 84.66796875,
          "velocity": 0.07086614173228346
        },
        {
          "duration": 0.2526041666666714,
          "durationTicks": 194,
          "midi": 68,
          "name": "G#4",
          "ticks": 65079,
          "time": 84.73828125,
          "velocity": 0.33858267716535434
        },
        {
          "duration": 0.1263020833333286,
          "durationTicks": 97,
          "midi": 72,
          "name": "C5",
          "ticks": 65088,
          "time": 84.75,
          "velocity": 0.25984251968503935
        },
        {
          "duration": 0,
          "durationTicks": 0,
          "midi": 62,
          "name": "D4",
          "ticks": 65106,
          "time": 84.7734375,
          "velocity": 0.1889763779527559
        },
        {
          "duration": 0,
          "durationTicks": 0,
          "midi": 47,
          "name": "B2",
          "ticks": 65115,
          "time": 84.78515625,
          "velocity": 0.33858267716535434
        },
        {
          "duration": 0.1263020833333286,
          "durationTicks": 97,
          "midi": 56,
          "name": "G#3",
          "ticks": 65115,
          "time": 84.78515625,
          "velocity": 0.14173228346456693
        },
        {
          "duration": 0,
          "durationTicks": 0,
          "midi": 31,
          "name": "G1",
          "ticks": 65124,
          "time": 84.796875,
          "velocity": 0.29133858267716534
        },
        {
          "duration": 0.1263020833333286,
          "durationTicks": 97,
          "midi": 61,
          "name": "C#4",
          "ticks": 65124,
          "time": 84.796875,
          "velocity": 0.13385826771653545
        },
        {
          "duration": 0,
          "durationTicks": 0,
          "midi": 46,
          "name": "A#2",
          "ticks": 65134,
          "time": 84.80989583333333,
          "velocity": 0.3464566929133858
        },
        {
          "duration": 0.125,
          "durationTicks": 96,
          "midi": 65,
          "name": "F4",
          "ticks": 65143,
          "time": 84.82161458333333,
          "velocity": 0.14173228346456693
        },
        {
          "duration": 0,
          "durationTicks": 0,
          "midi": 46,
          "name": "A#2",
          "ticks": 65161,
          "time": 84.84505208333333,
          "velocity": 0.33858267716535434
        },
        {
          "duration": 0.1263020833333286,
          "durationTicks": 97,
          "midi": 65,
          "name": "F4",
          "ticks": 65205,
          "time": 84.90234375,
          "velocity": 0.1889763779527559
        },
        {
          "duration": 0.1263020833333286,
          "durationTicks": 97,
          "midi": 87,
          "name": "D#6",
          "ticks": 65205,
          "time": 84.90234375,
          "velocity": 0.14173228346456693
        },
        {
          "duration": 0,
          "durationTicks": 0,
          "midi": 75,
          "name": "D#5",
          "ticks": 65215,
          "time": 84.91536458333333,
          "velocity": 0.14173228346456693
        },
        {
          "duration": 0.1263020833333428,
          "durationTicks": 97,
          "midi": 84,
          "name": "C6",
          "ticks": 65215,
          "time": 84.91536458333333,
          "velocity": 0.07086614173228346
        },
        {
          "duration": 0.1263020833333286,
          "durationTicks": 97,
          "midi": 70,
          "name": "A#4",
          "ticks": 65286,
          "time": 85.0078125,
          "velocity": 0.25196850393700787
        },
        {
          "duration": 0,
          "durationTicks": 0,
          "midi": 68,
          "name": "G#4",
          "ticks": 65295,
          "time": 85.01953125,
          "velocity": 0.28346456692913385
        },
        {
          "duration": 0.1263020833333286,
          "durationTicks": 97,
          "midi": 89,
          "name": "F6",
          "ticks": 65295,
          "time": 85.01953125,
          "velocity": 0.07874015748031496
        },
        {
          "duration": 0.1263020833333428,
          "durationTicks": 97,
          "midi": 67,
          "name": "G4",
          "ticks": 65314,
          "time": 85.04427083333333,
          "velocity": 0.18110236220472442
        },
        {
          "duration": 0.1263020833333428,
          "durationTicks": 97,
          "midi": 72,
          "name": "C5",
          "ticks": 65323,
          "time": 85.05598958333333,
          "velocity": 0.2440944881889764
        },
        {
          "duration": 0,
          "durationTicks": 0,
          "midi": 68,
          "name": "G#4",
          "ticks": 65385,
          "time": 85.13671875,
          "velocity": 0.1968503937007874
        },
        {
          "duration": 0.125,
          "durationTicks": 96,
          "midi": 63,
          "name": "D#4",
          "ticks": 65395,
          "time": 85.14973958333333,
          "velocity": 0.1889763779527559
        },
        {
          "duration": 0.125,
          "durationTicks": 96,
          "midi": 79,
          "name": "G5",
          "ticks": 65395,
          "time": 85.14973958333333,
          "velocity": 0.14173228346456693
        },
        {
          "duration": 0.125,
          "durationTicks": 96,
          "midi": 67,
          "name": "G4",
          "ticks": 65404,
          "time": 85.16145833333333,
          "velocity": 0.2440944881889764
        },
        {
          "duration": 0.125,
          "durationTicks": 96,
          "midi": 73,
          "name": "C#5",
          "ticks": 65413,
          "time": 85.17317708333333,
          "velocity": 0.23622047244094488
        },
        {
          "duration": 0,
          "durationTicks": 0,
          "midi": 64,
          "name": "E4",
          "ticks": 65458,
          "time": 85.23177083333333,
          "velocity": 0.1889763779527559
        },
        {
          "duration": 0.1263020833333428,
          "durationTicks": 97,
          "midi": 68,
          "name": "G#4",
          "ticks": 65458,
          "time": 85.23177083333333,
          "velocity": 0.28346456692913385
        },
        {
          "duration": 0,
          "durationTicks": 0,
          "midi": 65,
          "name": "F4",
          "ticks": 65475,
          "time": 85.25390625,
          "velocity": 0.18110236220472442
        },
        {
          "duration": 0,
          "durationTicks": 0,
          "midi": 56,
          "name": "G#3",
          "ticks": 65493,
          "time": 85.27734375,
          "velocity": 0.29133858267716534
        },
        {
          "duration": 0,
          "durationTicks": 0,
          "midi": 89,
          "name": "F6",
          "ticks": 65493,
          "time": 85.27734375,
          "velocity": 0.07086614173228346
        },
        {
          "duration": 0,
          "durationTicks": 0,
          "midi": 86,
          "name": "D6",
          "ticks": 65493,
          "time": 85.27734375,
          "velocity": 0.07086614173228346
        },
        {
          "duration": 0,
          "durationTicks": 0,
          "midi": 84,
          "name": "C6",
          "ticks": 65493,
          "time": 85.27734375,
          "velocity": 0.06299212598425197
        },
        {
          "duration": 0,
          "durationTicks": 0,
          "midi": 37,
          "name": "C#2",
          "ticks": 65502,
          "time": 85.2890625,
          "velocity": 0.2755905511811024
        },
        {
          "duration": 0.1276041666666714,
          "durationTicks": 98,
          "midi": 87,
          "name": "D#6",
          "ticks": 65502,
          "time": 85.2890625,
          "velocity": 0.11023622047244094
        },
        {
          "duration": 0.1276041666666714,
          "durationTicks": 98,
          "midi": 65,
          "name": "F4",
          "ticks": 65511,
          "time": 85.30078125,
          "velocity": 0.2283464566929134
        },
        {
          "duration": 0,
          "durationTicks": 0,
          "midi": 38,
          "name": "D2",
          "ticks": 65521,
          "time": 85.31380208333333,
          "velocity": 0.18110236220472442
        },
        {
          "duration": 0,
          "durationTicks": 0,
          "midi": 56,
          "name": "G#3",
          "ticks": 65521,
          "time": 85.31380208333333,
          "velocity": 0.16535433070866143
        },
        {
          "duration": 0.1263020833333428,
          "durationTicks": 97,
          "midi": 61,
          "name": "C#4",
          "ticks": 65530,
          "time": 85.32552083333333,
          "velocity": 0.11811023622047244
        },
        {
          "duration": 0.1263020833333428,
          "durationTicks": 97,
          "midi": 56,
          "name": "G#3",
          "ticks": 65575,
          "time": 85.38411458333333,
          "velocity": 0.07086614173228346
        },
        {
          "duration": 0,
          "durationTicks": 0,
          "midi": 75,
          "name": "D#5",
          "ticks": 65584,
          "time": 85.39583333333333,
          "velocity": 0.14960629921259844
        },
        {
          "duration": 0.1263020833333428,
          "durationTicks": 97,
          "midi": 82,
          "name": "A#5",
          "ticks": 65593,
          "time": 85.40755208333333,
          "velocity": 0.14960629921259844
        },
        {
          "duration": 0,
          "durationTicks": 0,
          "midi": 67,
          "name": "G4",
          "ticks": 65603,
          "time": 85.42057291666667,
          "velocity": 0.1968503937007874
        },
        {
          "duration": 0,
          "durationTicks": 0,
          "midi": 70,
          "name": "A#4",
          "ticks": 65603,
          "time": 85.42057291666667,
          "velocity": 0.25984251968503935
        },
        {
          "duration": 0.1263020833333286,
          "durationTicks": 97,
          "midi": 72,
          "name": "C5",
          "ticks": 65612,
          "time": 85.43229166666667,
          "velocity": 0.11023622047244094
        },
        {
          "duration": 0,
          "durationTicks": 0,
          "midi": 68,
          "name": "G#4",
          "ticks": 65656,
          "time": 85.48958333333333,
          "velocity": 0.2440944881889764
        },
        {
          "duration": 0.2513020833333428,
          "durationTicks": 193,
          "midi": 65,
          "name": "F4",
          "ticks": 65656,
          "time": 85.48958333333333,
          "velocity": 0.2440944881889764
        },
        {
          "duration": 0,
          "durationTicks": 0,
          "midi": 87,
          "name": "D#6",
          "ticks": 65674,
          "time": 85.51302083333333,
          "velocity": 0.14173228346456693
        },
        {
          "duration": 0.1263020833333428,
          "durationTicks": 97,
          "midi": 60,
          "name": "C4",
          "ticks": 65683,
          "time": 85.52473958333333,
          "velocity": 0.1968503937007874
        },
        {
          "duration": 0.1263020833333428,
          "durationTicks": 97,
          "midi": 84,
          "name": "C6",
          "ticks": 65683,
          "time": 85.52473958333333,
          "velocity": 0.2440944881889764
        },
        {
          "duration": 0.1263020833333286,
          "durationTicks": 97,
          "midi": 46,
          "name": "A#2",
          "ticks": 65693,
          "time": 85.53776041666667,
          "velocity": 0.07874015748031496
        },
        {
          "duration": 0.1263020833333286,
          "durationTicks": 97,
          "midi": 27,
          "name": "D#1",
          "ticks": 65693,
          "time": 85.53776041666667,
          "velocity": 0.36220472440944884
        },
        {
          "duration": 0.1263020833333286,
          "durationTicks": 97,
          "midi": 73,
          "name": "C#5",
          "ticks": 65702,
          "time": 85.54947916666667,
          "velocity": 0.10236220472440945
        },
        {
          "duration": 0.125,
          "durationTicks": 96,
          "midi": 68,
          "name": "G#4",
          "ticks": 65765,
          "time": 85.63151041666667,
          "velocity": 0.14960629921259844
        },
        {
          "duration": 0.1263020833333286,
          "durationTicks": 97,
          "midi": 61,
          "name": "C#4",
          "ticks": 65783,
          "time": 85.65494791666667,
          "velocity": 0.18110236220472442
        },
        {
          "duration": 0.1263020833333286,
          "durationTicks": 97,
          "midi": 87,
          "name": "D#6",
          "ticks": 65783,
          "time": 85.65494791666667,
          "velocity": 0.2125984251968504
        },
        {
          "duration": 0,
          "durationTicks": 0,
          "midi": 29,
          "name": "F1",
          "ticks": 65792,
          "time": 85.66666666666667,
          "velocity": 0.3858267716535433
        },
        {
          "duration": 0,
          "durationTicks": 0,
          "midi": 28,
          "name": "E1",
          "ticks": 65836,
          "time": 85.72395833333333,
          "velocity": 0.3700787401574803
        },
        {
          "duration": 0.1263020833333428,
          "durationTicks": 97,
          "midi": 70,
          "name": "A#4",
          "ticks": 65863,
          "time": 85.75911458333333,
          "velocity": 0.28346456692913385
        },
        {
          "duration": 0.1263020833333286,
          "durationTicks": 97,
          "midi": 67,
          "name": "G4",
          "ticks": 65873,
          "time": 85.77213541666667,
          "velocity": 0.25984251968503935
        },
        {
          "duration": 0,
          "durationTicks": 0,
          "midi": 63,
          "name": "D#4",
          "ticks": 65882,
          "time": 85.78385416666667,
          "velocity": 0.14173228346456693
        },
        {
          "duration": 0,
          "durationTicks": 0,
          "midi": 83,
          "name": "B5",
          "ticks": 65882,
          "time": 85.78385416666667,
          "velocity": 0.16535433070866143
        },
        {
          "duration": 0.1263020833333286,
          "durationTicks": 97,
          "midi": 89,
          "name": "F6",
          "ticks": 65882,
          "time": 85.78385416666667,
          "velocity": 0.05511811023622047
        },
        {
          "duration": 0.2526041666666572,
          "durationTicks": 194,
          "midi": 27,
          "name": "D#1",
          "ticks": 65882,
          "time": 85.78385416666667,
          "velocity": 0.36220472440944884
        },
        {
          "duration": 0,
          "durationTicks": 0,
          "midi": 78,
          "name": "F#5",
          "ticks": 65899,
          "time": 85.80598958333333,
          "velocity": 0.1968503937007874
        },
        {
          "duration": 0.1263020833333428,
          "durationTicks": 97,
          "midi": 46,
          "name": "A#2",
          "ticks": 65899,
          "time": 85.80598958333333,
          "velocity": 0.08661417322834646
        },
        {
          "duration": 0,
          "durationTicks": 0,
          "midi": 74,
          "name": "D5",
          "ticks": 65926,
          "time": 85.84114583333333,
          "velocity": 0.1732283464566929
        },
        {
          "duration": 0,
          "durationTicks": 0,
          "midi": 63,
          "name": "D#4",
          "ticks": 65926,
          "time": 85.84114583333333,
          "velocity": 0.15748031496062992
        },
        {
          "duration": 0,
          "durationTicks": 0,
          "midi": 68,
          "name": "G#4",
          "ticks": 65936,
          "time": 85.85416666666667,
          "velocity": 0.2283464566929134
        },
        {
          "duration": 0,
          "durationTicks": 0,
          "midi": 71,
          "name": "B4",
          "ticks": 65936,
          "time": 85.85416666666667,
          "velocity": 0.25984251968503935
        },
        {
          "duration": 0,
          "durationTicks": 0,
          "midi": 69,
          "name": "A4",
          "ticks": 65953,
          "time": 85.87630208333333,
          "velocity": 0.23622047244094488
        },
        {
          "duration": 0.1263020833333428,
          "durationTicks": 97,
          "midi": 72,
          "name": "C5",
          "ticks": 65953,
          "time": 85.87630208333333,
          "velocity": 0.25984251968503935
        },
        {
          "duration": 0.1263020833333286,
          "durationTicks": 97,
          "midi": 68,
          "name": "G#4",
          "ticks": 65963,
          "time": 85.88932291666667,
          "velocity": 0.18110236220472442
        },
        {
          "duration": 0.1263020833333286,
          "durationTicks": 97,
          "midi": 77,
          "name": "F5",
          "ticks": 65972,
          "time": 85.90104166666667,
          "velocity": 0.14173228346456693
        },
        {
          "duration": 0.1263020833333286,
          "durationTicks": 97,
          "midi": 91,
          "name": "G6",
          "ticks": 65972,
          "time": 85.90104166666667,
          "velocity": 0.07086614173228346
        },
        {
          "duration": 0,
          "durationTicks": 0,
          "midi": 61,
          "name": "C#4",
          "ticks": 65981,
          "time": 85.91276041666667,
          "velocity": 0.14173228346456693
        },
        {
          "duration": 0,
          "durationTicks": 0,
          "midi": 46,
          "name": "A#2",
          "ticks": 66016,
          "time": 85.95833333333333,
          "velocity": 0.07086614173228346
        },
        {
          "duration": 0,
          "durationTicks": 0,
          "midi": 58,
          "name": "A#3",
          "ticks": 66016,
          "time": 85.95833333333333,
          "velocity": 0.1968503937007874
        },
        {
          "duration": 0,
          "durationTicks": 0,
          "midi": 62,
          "name": "D4",
          "ticks": 66062,
          "time": 86.01822916666667,
          "velocity": 0.1968503937007874
        },
        {
          "duration": 0,
          "durationTicks": 0,
          "midi": 56,
          "name": "G#3",
          "ticks": 66062,
          "time": 86.01822916666667,
          "velocity": 0.1889763779527559
        },
        {
          "duration": 0,
          "durationTicks": 0,
          "midi": 39,
          "name": "D#2",
          "ticks": 66089,
          "time": 86.05338541666667,
          "velocity": 0.3464566929133858
        },
        {
          "duration": 0,
          "durationTicks": 0,
          "midi": 70,
          "name": "A#4",
          "ticks": 66089,
          "time": 86.05338541666667,
          "velocity": 0.2283464566929134
        },
        {
          "duration": 0.1263020833333286,
          "durationTicks": 97,
          "midi": 87,
          "name": "D#6",
          "ticks": 66089,
          "time": 86.05338541666667,
          "velocity": 0.08661417322834646
        },
        {
          "duration": 0,
          "durationTicks": 0,
          "midi": 61,
          "name": "C#4",
          "ticks": 66098,
          "time": 86.06510416666667,
          "velocity": 0.1968503937007874
        },
        {
          "duration": 0.1263020833333286,
          "durationTicks": 97,
          "midi": 65,
          "name": "F4",
          "ticks": 66098,
          "time": 86.06510416666667,
          "velocity": 0.2204724409448819
        },
        {
          "duration": 0.1263020833333286,
          "durationTicks": 97,
          "midi": 39,
          "name": "D#2",
          "ticks": 66116,
          "time": 86.08854166666667,
          "velocity": 0.36220472440944884
        },
        {
          "duration": 0.125,
          "durationTicks": 96,
          "midi": 70,
          "name": "A#4",
          "ticks": 66152,
          "time": 86.13541666666667,
          "velocity": 0.2283464566929134
        },
        {
          "duration": 0,
          "durationTicks": 0,
          "midi": 75,
          "name": "D#5",
          "ticks": 66161,
          "time": 86.14713541666667,
          "velocity": 0.14173228346456693
        },
        {
          "duration": 0.2513020833333286,
          "durationTicks": 193,
          "midi": 80,
          "name": "G#5",
          "ticks": 66161,
          "time": 86.14713541666667,
          "velocity": 0.2204724409448819
        },
        {
          "duration": 0.1263020833333286,
          "durationTicks": 97,
          "midi": 58,
          "name": "A#3",
          "ticks": 66179,
          "time": 86.17057291666667,
          "velocity": 0.08661417322834646
        },
        {
          "duration": 0.125,
          "durationTicks": 96,
          "midi": 78,
          "name": "F#5",
          "ticks": 66197,
          "time": 86.19401041666667,
          "velocity": 0.08661417322834646
        },
        {
          "duration": 0.1263020833333286,
          "durationTicks": 97,
          "midi": 68,
          "name": "G#4",
          "ticks": 66215,
          "time": 86.21744791666667,
          "velocity": 0.2677165354330709
        },
        {
          "duration": 0.1263020833333286,
          "durationTicks": 97,
          "midi": 72,
          "name": "C5",
          "ticks": 66233,
          "time": 86.24088541666667,
          "velocity": 0.11023622047244094
        },
        {
          "duration": 0,
          "durationTicks": 0,
          "midi": 86,
          "name": "D6",
          "ticks": 66250,
          "time": 86.26302083333333,
          "velocity": 0.09448818897637795
        },
        {
          "duration": 0.1263020833333428,
          "durationTicks": 97,
          "midi": 84,
          "name": "C6",
          "ticks": 66250,
          "time": 86.26302083333333,
          "velocity": 0.11023622047244094
        },
        {
          "duration": 0.1263020833333428,
          "durationTicks": 97,
          "midi": 87,
          "name": "D#6",
          "ticks": 66250,
          "time": 86.26302083333333,
          "velocity": 0.2047244094488189
        },
        {
          "duration": 0,
          "durationTicks": 0,
          "midi": 56,
          "name": "G#3",
          "ticks": 66260,
          "time": 86.27604166666667,
          "velocity": 0.2992125984251969
        },
        {
          "duration": 0,
          "durationTicks": 0,
          "midi": 77,
          "name": "F5",
          "ticks": 66260,
          "time": 86.27604166666667,
          "velocity": 0.07874015748031496
        },
        {
          "duration": 0,
          "durationTicks": 0,
          "midi": 63,
          "name": "D#4",
          "ticks": 66269,
          "time": 86.28776041666667,
          "velocity": 0.2204724409448819
        },
        {
          "duration": 0,
          "durationTicks": 0,
          "midi": 91,
          "name": "G6",
          "ticks": 66269,
          "time": 86.28776041666667,
          "velocity": 0.12598425196850394
        },
        {
          "duration": 0,
          "durationTicks": 0,
          "midi": 38,
          "name": "D2",
          "ticks": 66269,
          "time": 86.28776041666667,
          "velocity": 0.2677165354330709
        },
        {
          "duration": 0,
          "durationTicks": 0,
          "midi": 66,
          "name": "F#4",
          "ticks": 66305,
          "time": 86.33463541666667,
          "velocity": 0.1732283464566929
        },
        {
          "duration": 0,
          "durationTicks": 0,
          "midi": 60,
          "name": "C4",
          "ticks": 66305,
          "time": 86.33463541666667,
          "velocity": 0.2440944881889764
        },
        {
          "duration": 0,
          "durationTicks": 0,
          "midi": 69,
          "name": "A4",
          "ticks": 66314,
          "time": 86.34635416666667,
          "velocity": 0.25196850393700787
        },
        {
          "duration": 0.1263020833333286,
          "durationTicks": 97,
          "midi": 67,
          "name": "G4",
          "ticks": 66332,
          "time": 86.36979166666667,
          "velocity": 0.2125984251968504
        },
        {
          "duration": 0.1263020833333286,
          "durationTicks": 97,
          "midi": 70,
          "name": "A#4",
          "ticks": 66332,
          "time": 86.36979166666667,
          "velocity": 0.2755905511811024
        },
        {
          "duration": 0,
          "durationTicks": 0,
          "midi": 57,
          "name": "A3",
          "ticks": 66350,
          "time": 86.39322916666667,
          "velocity": 0.1968503937007874
        },
        {
          "duration": 0,
          "durationTicks": 0,
          "midi": 75,
          "name": "D#5",
          "ticks": 66350,
          "time": 86.39322916666667,
          "velocity": 0.15748031496062992
        },
        {
          "duration": 0.1263020833333286,
          "durationTicks": 97,
          "midi": 89,
          "name": "F6",
          "ticks": 66359,
          "time": 86.40494791666667,
          "velocity": 0.08661417322834646
        },
        {
          "duration": 0,
          "durationTicks": 0,
          "midi": 60,
          "name": "C4",
          "ticks": 66395,
          "time": 86.45182291666667,
          "velocity": 0.1968503937007874
        },
        {
          "duration": 0,
          "durationTicks": 0,
          "midi": 56,
          "name": "G#3",
          "ticks": 66395,
          "time": 86.45182291666667,
          "velocity": 0.1968503937007874
        },
        {
          "duration": 0,
          "durationTicks": 0,
          "midi": 57,
          "name": "A3",
          "ticks": 66422,
          "time": 86.48697916666667,
          "velocity": 0.2283464566929134
        },
        {
          "duration": 0.1263020833333286,
          "durationTicks": 97,
          "midi": 75,
          "name": "D#5",
          "ticks": 66441,
          "time": 86.51171875,
          "velocity": 0.1968503937007874
        },
        {
          "duration": 0,
          "durationTicks": 0,
          "midi": 83,
          "name": "B5",
          "ticks": 66458,
          "time": 86.53385416666667,
          "velocity": 0.08661417322834646
        },
        {
          "duration": 0,
          "durationTicks": 0,
          "midi": 39,
          "name": "D#2",
          "ticks": 66468,
          "time": 86.546875,
          "velocity": 0.3543307086614173
        },
        {
          "duration": 0,
          "durationTicks": 0,
          "midi": 65,
          "name": "F4",
          "ticks": 66468,
          "time": 86.546875,
          "velocity": 0.1968503937007874
        },
        {
          "duration": 0,
          "durationTicks": 0,
          "midi": 67,
          "name": "G4",
          "ticks": 66485,
          "time": 86.56901041666667,
          "velocity": 0.2204724409448819
        },
        {
          "duration": 0.1276041666666572,
          "durationTicks": 98,
          "midi": 72,
          "name": "C5",
          "ticks": 66485,
          "time": 86.56901041666667,
          "velocity": 0.1889763779527559
        },
        {
          "duration": 0.1276041666666572,
          "durationTicks": 98,
          "midi": 39,
          "name": "D#2",
          "ticks": 66494,
          "time": 86.58072916666667,
          "velocity": 0.36220472440944884
        },
        {
          "duration": 0.1276041666666572,
          "durationTicks": 98,
          "midi": 58,
          "name": "A#3",
          "ticks": 66494,
          "time": 86.58072916666667,
          "velocity": 0.09448818897637795
        },
        {
          "duration": 0,
          "durationTicks": 0,
          "midi": 78,
          "name": "F#5",
          "ticks": 66504,
          "time": 86.59375,
          "velocity": 0.08661417322834646
        },
        {
          "duration": 0.1184895833333286,
          "durationTicks": 91,
          "midi": 68,
          "name": "G#4",
          "ticks": 66540,
          "time": 86.640625,
          "velocity": 0.2283464566929134
        },
        {
          "duration": 0,
          "durationTicks": 0,
          "midi": 75,
          "name": "D#5",
          "ticks": 66549,
          "time": 86.65234375,
          "velocity": 0.14173228346456693
        },
        {
          "duration": 0.1276041666666714,
          "durationTicks": 98,
          "midi": 63,
          "name": "D#4",
          "ticks": 66595,
          "time": 86.71223958333333,
          "velocity": 0.29133858267716534
        },
        {
          "duration": 0.12890625,
          "durationTicks": 99,
          "midi": 82,
          "name": "A#5",
          "ticks": 66622,
          "time": 86.74739583333333,
          "velocity": 0.14173228346456693
        },
        {
          "duration": 0,
          "durationTicks": 0,
          "midi": 38,
          "name": "D2",
          "ticks": 66631,
          "time": 86.75911458333333,
          "velocity": 0.3228346456692913
        },
        {
          "duration": 0.009114583333342807,
          "durationTicks": 7,
          "midi": 68,
          "name": "G#4",
          "ticks": 66631,
          "time": 86.75911458333333,
          "velocity": 0.2440944881889764
        },
        {
          "duration": 0,
          "durationTicks": 0,
          "midi": 47,
          "name": "B2",
          "ticks": 66640,
          "time": 86.77083333333333,
          "velocity": 0.33858267716535434
        },
        {
          "duration": 0.12890625,
          "durationTicks": 99,
          "midi": 79,
          "name": "G5",
          "ticks": 66640,
          "time": 86.77083333333333,
          "velocity": 0.14173228346456693
        },
        {
          "duration": 0.12890625,
          "durationTicks": 99,
          "midi": 67,
          "name": "G4",
          "ticks": 66650,
          "time": 86.78385416666667,
          "velocity": 0.25196850393700787
        },
        {
          "duration": 0.12890625,
          "durationTicks": 99,
          "midi": 70,
          "name": "A#4",
          "ticks": 66650,
          "time": 86.78385416666667,
          "velocity": 0.08661417322834646
        },
        {
          "duration": 0,
          "durationTicks": 0,
          "midi": 31,
          "name": "G1",
          "ticks": 66659,
          "time": 86.79557291666667,
          "velocity": 0.29133858267716534
        },
        {
          "duration": 0.12890625,
          "durationTicks": 99,
          "midi": 46,
          "name": "A#2",
          "ticks": 66686,
          "time": 86.83072916666667,
          "velocity": 0.3464566929133858
        },
        {
          "duration": 0,
          "durationTicks": 0,
          "midi": 56,
          "name": "G#3",
          "ticks": 66695,
          "time": 86.84244791666667,
          "velocity": 0.1968503937007874
        },
        {
          "duration": 0.3828125,
          "durationTicks": 294,
          "midi": 80,
          "name": "G#5",
          "ticks": 66695,
          "time": 86.84244791666667,
          "velocity": 0.2283464566929134
        },
        {
          "duration": 0,
          "durationTicks": 0,
          "midi": 60,
          "name": "C4",
          "ticks": 66704,
          "time": 86.85416666666667,
          "velocity": 0.18110236220472442
        },
        {
          "duration": 0.12890625,
          "durationTicks": 99,
          "midi": 87,
          "name": "D#6",
          "ticks": 66704,
          "time": 86.85416666666667,
          "velocity": 0.09448818897637795
        },
        {
          "duration": 0.3828125,
          "durationTicks": 294,
          "midi": 68,
          "name": "G#4",
          "ticks": 66704,
          "time": 86.85416666666667,
          "velocity": 0.2992125984251969
        },
        {
          "duration": 0.2552083333333286,
          "durationTicks": 196,
          "midi": 65,
          "name": "F4",
          "ticks": 66714,
          "time": 86.8671875,
          "velocity": 0.25196850393700787
        },
        {
          "duration": 0,
          "durationTicks": 0,
          "midi": 75,
          "name": "D#5",
          "ticks": 66732,
          "time": 86.890625,
          "velocity": 0.14960629921259844
        },
        {
          "duration": 0,
          "durationTicks": 0,
          "midi": 56,
          "name": "G#3",
          "ticks": 66796,
          "time": 86.97395833333333,
          "velocity": 0.08661417322834646
        },
        {
          "duration": 0.1263020833333286,
          "durationTicks": 97,
          "midi": 73,
          "name": "C#5",
          "ticks": 66833,
          "time": 87.02213541666667,
          "velocity": 0.1968503937007874
        },
        {
          "duration": 0,
          "durationTicks": 0,
          "midi": 70,
          "name": "A#4",
          "ticks": 66842,
          "time": 87.03385416666667,
          "velocity": 0.14173228346456693
        },
        {
          "duration": 0,
          "durationTicks": 0,
          "midi": 75,
          "name": "D#5",
          "ticks": 66842,
          "time": 87.03385416666667,
          "velocity": 0.12598425196850394
        },
        {
          "duration": 0.1263020833333286,
          "durationTicks": 97,
          "midi": 51,
          "name": "D#3",
          "ticks": 66842,
          "time": 87.03385416666667,
          "velocity": 0.3700787401574803
        },
        {
          "duration": 0,
          "durationTicks": 0,
          "midi": 31,
          "name": "G1",
          "ticks": 66869,
          "time": 87.06901041666667,
          "velocity": 0.2677165354330709
        },
        {
          "duration": 0.1263020833333286,
          "durationTicks": 97,
          "midi": 72,
          "name": "C5",
          "ticks": 66878,
          "time": 87.08072916666667,
          "velocity": 0.2440944881889764
        },
        {
          "duration": 0,
          "durationTicks": 0,
          "midi": 70,
          "name": "A#4",
          "ticks": 66887,
          "time": 87.09244791666667,
          "velocity": 0.08661417322834646
        },
        {
          "duration": 0,
          "durationTicks": 0,
          "midi": 75,
          "name": "D#5",
          "ticks": 66932,
          "time": 87.15104166666667,
          "velocity": 0.14173228346456693
        },
        {
          "duration": 0.1276041666666572,
          "durationTicks": 98,
          "midi": 39,
          "name": "D#2",
          "ticks": 66932,
          "time": 87.15104166666667,
          "velocity": 0.3543307086614173
        },
        {
          "duration": 0.1276041666666572,
          "durationTicks": 98,
          "midi": 58,
          "name": "A#3",
          "ticks": 66932,
          "time": 87.15104166666667,
          "velocity": 0.11023622047244094
        },
        {
          "duration": 0,
          "durationTicks": 0,
          "midi": 65,
          "name": "F4",
          "ticks": 66987,
          "time": 87.22265625,
          "velocity": 0.2204724409448819
        },
        {
          "duration": 0,
          "durationTicks": 0,
          "midi": 59,
          "name": "B3",
          "ticks": 67014,
          "time": 87.2578125,
          "velocity": 0.1732283464566929
        },
        {
          "duration": 0,
          "durationTicks": 0,
          "midi": 86,
          "name": "D6",
          "ticks": 67023,
          "time": 87.26953125,
          "velocity": 0.05511811023622047
        },
        {
          "duration": 0,
          "durationTicks": 0,
          "midi": 90,
          "name": "F#6",
          "ticks": 67023,
          "time": 87.26953125,
          "velocity": 0.05511811023622047
        },
        {
          "duration": 0.1263020833333286,
          "durationTicks": 97,
          "midi": 80,
          "name": "G#5",
          "ticks": 67023,
          "time": 87.26953125,
          "velocity": 0.1889763779527559
        },
        {
          "duration": 0,
          "durationTicks": 0,
          "midi": 37,
          "name": "C#2",
          "ticks": 67032,
          "time": 87.28125,
          "velocity": 0.25984251968503935
        },
        {
          "duration": 0,
          "durationTicks": 0,
          "midi": 77,
          "name": "F5",
          "ticks": 67032,
          "time": 87.28125,
          "velocity": 0.05511811023622047
        },
        {
          "duration": 0,
          "durationTicks": 0,
          "midi": 91,
          "name": "G6",
          "ticks": 67032,
          "time": 87.28125,
          "velocity": 0.11023622047244094
        },
        {
          "duration": 0.1263020833333286,
          "durationTicks": 97,
          "midi": 68,
          "name": "G#4",
          "ticks": 67032,
          "time": 87.28125,
          "velocity": 0.25196850393700787
        },
        {
          "duration": 0.1263020833333286,
          "durationTicks": 97,
          "midi": 51,
          "name": "D#3",
          "ticks": 67032,
          "time": 87.28125,
          "velocity": 0.3543307086614173
        },
        {
          "duration": 0,
          "durationTicks": 0,
          "midi": 57,
          "name": "A3",
          "ticks": 67050,
          "time": 87.3046875,
          "velocity": 0.2283464566929134
        },
        {
          "duration": 0,
          "durationTicks": 0,
          "midi": 38,
          "name": "D2",
          "ticks": 67050,
          "time": 87.3046875,
          "velocity": 0.2125984251968504
        },
        {
          "duration": 0,
          "durationTicks": 0,
          "midi": 60,
          "name": "C4",
          "ticks": 67067,
          "time": 87.32682291666667,
          "velocity": 0.14173228346456693
        },
        {
          "duration": 0.1276041666666572,
          "durationTicks": 98,
          "midi": 87,
          "name": "D#6",
          "ticks": 67067,
          "time": 87.32682291666667,
          "velocity": 0.2047244094488189
        },
        {
          "duration": 0,
          "durationTicks": 0,
          "midi": 66,
          "name": "F#4",
          "ticks": 67077,
          "time": 87.33984375,
          "velocity": 0.1889763779527559
        },
        {
          "duration": 0,
          "durationTicks": 0,
          "midi": 69,
          "name": "A4",
          "ticks": 67086,
          "time": 87.3515625,
          "velocity": 0.25984251968503935
        },
        {
          "duration": 0,
          "durationTicks": 0,
          "midi": 67,
          "name": "G4",
          "ticks": 67104,
          "time": 87.375,
          "velocity": 0.1889763779527559
        },
        {
          "duration": 0,
          "durationTicks": 0,
          "midi": 61,
          "name": "C#4",
          "ticks": 67104,
          "time": 87.375,
          "velocity": 0.1889763779527559
        },
        {
          "duration": 0.3567708333333286,
          "durationTicks": 274,
          "midi": 70,
          "name": "A#4",
          "ticks": 67104,
          "time": 87.375,
          "velocity": 0.29133858267716534
        },
        {
          "duration": 0,
          "durationTicks": 0,
          "midi": 49,
          "name": "C#3",
          "ticks": 67113,
          "time": 87.38671875,
          "velocity": 0.33858267716535434
        },
        {
          "duration": 0,
          "durationTicks": 0,
          "midi": 75,
          "name": "D#5",
          "ticks": 67113,
          "time": 87.38671875,
          "velocity": 0.14173228346456693
        },
        {
          "duration": 0.1276041666666714,
          "durationTicks": 98,
          "midi": 84,
          "name": "C6",
          "ticks": 67113,
          "time": 87.38671875,
          "velocity": 0.2283464566929134
        },
        {
          "duration": 0.1276041666666714,
          "durationTicks": 98,
          "midi": 80,
          "name": "G#5",
          "ticks": 67122,
          "time": 87.3984375,
          "velocity": 0.2283464566929134
        },
        {
          "duration": 0.1276041666666714,
          "durationTicks": 98,
          "midi": 51,
          "name": "D#3",
          "ticks": 67132,
          "time": 87.41145833333333,
          "velocity": 0.3464566929133858
        },
        {
          "duration": 0.25390625,
          "durationTicks": 195,
          "midi": 89,
          "name": "F6",
          "ticks": 67132,
          "time": 87.41145833333333,
          "velocity": 0.08661417322834646
        },
        {
          "duration": 0.25390625,
          "durationTicks": 195,
          "midi": 67,
          "name": "G4",
          "ticks": 67141,
          "time": 87.42317708333333,
          "velocity": 0.2440944881889764
        },
        {
          "duration": 0,
          "durationTicks": 0,
          "midi": 61,
          "name": "C#4",
          "ticks": 67159,
          "time": 87.44661458333333,
          "velocity": 0.1889763779527559
        },
        {
          "duration": 0.1276041666666714,
          "durationTicks": 98,
          "midi": 77,
          "name": "F5",
          "ticks": 67168,
          "time": 87.45833333333333,
          "velocity": 0.14173228346456693
        },
        {
          "duration": 0,
          "durationTicks": 0,
          "midi": 52,
          "name": "E3",
          "ticks": 67204,
          "time": 87.50520833333333,
          "velocity": 0.31496062992125984
        },
        {
          "duration": 0,
          "durationTicks": 0,
          "midi": 61,
          "name": "C#4",
          "ticks": 67204,
          "time": 87.50520833333333,
          "velocity": 0.18110236220472442
        },
        {
          "duration": 0,
          "durationTicks": 0,
          "midi": 65,
          "name": "F4",
          "ticks": 67204,
          "time": 87.50520833333333,
          "velocity": 0.14173228346456693
        },
        {
          "duration": 0,
          "durationTicks": 0,
          "midi": 45,
          "name": "A2",
          "ticks": 67213,
          "time": 87.51692708333333,
          "velocity": 0.33858267716535434
        },
        {
          "duration": 0.1263020833333428,
          "durationTicks": 97,
          "midi": 75,
          "name": "D#5",
          "ticks": 67213,
          "time": 87.51692708333333,
          "velocity": 0.2125984251968504
        },
        {
          "duration": 0,
          "durationTicks": 0,
          "midi": 60,
          "name": "C4",
          "ticks": 67232,
          "time": 87.54166666666667,
          "velocity": 0.11811023622047244
        },
        {
          "duration": 0.1263020833333286,
          "durationTicks": 97,
          "midi": 46,
          "name": "A#2",
          "ticks": 67232,
          "time": 87.54166666666667,
          "velocity": 0.3464566929133858
        },
        {
          "duration": 0.1276041666666572,
          "durationTicks": 98,
          "midi": 62,
          "name": "D4",
          "ticks": 67259,
          "time": 87.57682291666667,
          "velocity": 0.18110236220472442
        },
        {
          "duration": 0,
          "durationTicks": 0,
          "midi": 91,
          "name": "G6",
          "ticks": 67268,
          "time": 87.58854166666667,
          "velocity": 0.06299212598425197
        },
        {
          "duration": 0,
          "durationTicks": 0,
          "midi": 72,
          "name": "C5",
          "ticks": 67268,
          "time": 87.58854166666667,
          "velocity": 0.25984251968503935
        },
        {
          "duration": 0.12890625,
          "durationTicks": 99,
          "midi": 68,
          "name": "G#4",
          "ticks": 67313,
          "time": 87.64713541666667,
          "velocity": 0.33070866141732286
        },
        {
          "duration": 0,
          "durationTicks": 0,
          "midi": 75,
          "name": "D#5",
          "ticks": 67322,
          "time": 87.65885416666667,
          "velocity": 0.14173228346456693
        },
        {
          "duration": 0,
          "durationTicks": 0,
          "midi": 58,
          "name": "A#3",
          "ticks": 67331,
          "time": 87.67057291666667,
          "velocity": 0.1968503937007874
        },
        {
          "duration": 0.12890625,
          "durationTicks": 99,
          "midi": 39,
          "name": "D#2",
          "ticks": 67331,
          "time": 87.67057291666667,
          "velocity": 0.3543307086614173
        },
        {
          "duration": 0.12890625,
          "durationTicks": 99,
          "midi": 89,
          "name": "F6",
          "ticks": 67341,
          "time": 87.68359375,
          "velocity": 0.05511811023622047
        },
        {
          "duration": 0,
          "durationTicks": 0,
          "midi": 83,
          "name": "B5",
          "ticks": 67350,
          "time": 87.6953125,
          "velocity": 0.13385826771653545
        },
        {
          "duration": 0.12890625,
          "durationTicks": 99,
          "midi": 63,
          "name": "D#4",
          "ticks": 67350,
          "time": 87.6953125,
          "velocity": 0.2204724409448819
        },
        {
          "duration": 0,
          "durationTicks": 0,
          "midi": 59,
          "name": "B3",
          "ticks": 67359,
          "time": 87.70703125,
          "velocity": 0.1968503937007874
        },
        {
          "duration": 0,
          "durationTicks": 0,
          "midi": 67,
          "name": "G4",
          "ticks": 67368,
          "time": 87.71875,
          "velocity": 0.1968503937007874
        },
        {
          "duration": 0.026041666666671404,
          "durationTicks": 20,
          "midi": 70,
          "name": "A#4",
          "ticks": 67378,
          "time": 87.73177083333333,
          "velocity": 0.25196850393700787
        },
        {
          "duration": 0,
          "durationTicks": 0,
          "midi": 66,
          "name": "F#4",
          "ticks": 67395,
          "time": 87.75390625,
          "velocity": 0.2283464566929134
        },
        {
          "duration": 0.12890625,
          "durationTicks": 99,
          "midi": 77,
          "name": "F5",
          "ticks": 67405,
          "time": 87.76692708333333,
          "velocity": 0.14173228346456693
        },
        {
          "duration": 0.12890625,
          "durationTicks": 99,
          "midi": 84,
          "name": "C6",
          "ticks": 67405,
          "time": 87.76692708333333,
          "velocity": 0.1732283464566929
        },
        {
          "duration": 0,
          "durationTicks": 0,
          "midi": 61,
          "name": "C#4",
          "ticks": 67414,
          "time": 87.77864583333333,
          "velocity": 0.18110236220472442
        },
        {
          "duration": 0.12890625,
          "durationTicks": 99,
          "midi": 30,
          "name": "F#1",
          "ticks": 67414,
          "time": 87.77864583333333,
          "velocity": 0.4251968503937008
        },
        {
          "duration": 0,
          "durationTicks": 0,
          "midi": 65,
          "name": "F4",
          "ticks": 67423,
          "time": 87.79036458333333,
          "velocity": 0.25196850393700787
        },
        {
          "duration": 0.12890625,
          "durationTicks": 99,
          "midi": 68,
          "name": "G#4",
          "ticks": 67423,
          "time": 87.79036458333333,
          "velocity": 0.11023622047244094
        },
        {
          "duration": 0,
          "durationTicks": 0,
          "midi": 48,
          "name": "C3",
          "ticks": 67460,
          "time": 87.83854166666667,
          "velocity": 0.14173228346456693
        },
        {
          "duration": 0,
          "durationTicks": 0,
          "midi": 80,
          "name": "G#5",
          "ticks": 67460,
          "time": 87.83854166666667,
          "velocity": 0.12598425196850394
        },
        {
          "duration": 0.3776041666666572,
          "durationTicks": 290,
          "midi": 63,
          "name": "D#4",
          "ticks": 67460,
          "time": 87.83854166666667,
          "velocity": 0.25984251968503935
        },
        {
          "duration": 0,
          "durationTicks": 0,
          "midi": 66,
          "name": "F#4",
          "ticks": 67470,
          "time": 87.8515625,
          "velocity": 0.25984251968503935
        },
        {
          "duration": 0.1263020833333286,
          "durationTicks": 97,
          "midi": 29,
          "name": "F1",
          "ticks": 67470,
          "time": 87.8515625,
          "velocity": 0.3779527559055118
        },
        {
          "duration": 0.3776041666666572,
          "durationTicks": 290,
          "midi": 67,
          "name": "G4",
          "ticks": 67487,
          "time": 87.87369791666667,
          "velocity": 0.2755905511811024
        },
        {
          "duration": 0.2213541666666714,
          "durationTicks": 170,
          "midi": 70,
          "name": "A#4",
          "ticks": 67497,
          "time": 87.88671875,
          "velocity": 0.11023622047244094
        },
        {
          "duration": 0.1263020833333286,
          "durationTicks": 97,
          "midi": 48,
          "name": "C3",
          "ticks": 67506,
          "time": 87.8984375,
          "velocity": 0.08661417322834646
        },
        {
          "duration": 0,
          "durationTicks": 0,
          "midi": 72,
          "name": "C5",
          "ticks": 67560,
          "time": 87.96875,
          "velocity": 0.07874015748031496
        },
        {
          "duration": 0,
          "durationTicks": 0,
          "midi": 60,
          "name": "C4",
          "ticks": 67569,
          "time": 87.98046875,
          "velocity": 0.11023622047244094
        },
        {
          "duration": 0,
          "durationTicks": 0,
          "midi": 87,
          "name": "D#6",
          "ticks": 67596,
          "time": 88.015625,
          "velocity": 0.15748031496062992
        },
        {
          "duration": 0.029947916666657193,
          "durationTicks": 23,
          "midi": 70,
          "name": "A#4",
          "ticks": 67667,
          "time": 88.10807291666667,
          "velocity": 0.11023622047244094
        },
        {
          "duration": 0,
          "durationTicks": 0,
          "midi": 84,
          "name": "C6",
          "ticks": 67703,
          "time": 88.15494791666667,
          "velocity": 0.05511811023622047
        },
        {
          "duration": 0,
          "durationTicks": 0,
          "midi": 62,
          "name": "D4",
          "ticks": 67739,
          "time": 88.20182291666667,
          "velocity": 0.1968503937007874
        },
        {
          "duration": 0.1276041666666572,
          "durationTicks": 98,
          "midi": 66,
          "name": "F#4",
          "ticks": 67739,
          "time": 88.20182291666667,
          "velocity": 0.25984251968503935
        },
        {
          "duration": 0,
          "durationTicks": 0,
          "midi": 79,
          "name": "G5",
          "ticks": 67784,
          "time": 88.26041666666667,
          "velocity": 0.11811023622047244
        },
        {
          "duration": 0.1263020833333286,
          "durationTicks": 97,
          "midi": 80,
          "name": "G#5",
          "ticks": 67784,
          "time": 88.26041666666667,
          "velocity": 0.14173228346456693
        },
        {
          "duration": 0,
          "durationTicks": 0,
          "midi": 64,
          "name": "E4",
          "ticks": 67794,
          "time": 88.2734375,
          "velocity": 0.25984251968503935
        },
        {
          "duration": 0,
          "durationTicks": 0,
          "midi": 75,
          "name": "D#5",
          "ticks": 67794,
          "time": 88.2734375,
          "velocity": 0.05511811023622047
        },
        {
          "duration": 0,
          "durationTicks": 0,
          "midi": 85,
          "name": "C#6",
          "ticks": 67794,
          "time": 88.2734375,
          "velocity": 0.08661417322834646
        },
        {
          "duration": 0,
          "durationTicks": 0,
          "midi": 86,
          "name": "D6",
          "ticks": 67794,
          "time": 88.2734375,
          "velocity": 0.08661417322834646
        },
        {
          "duration": 0,
          "durationTicks": 0,
          "midi": 37,
          "name": "C#2",
          "ticks": 67803,
          "time": 88.28515625,
          "velocity": 0.2677165354330709
        },
        {
          "duration": 0.125,
          "durationTicks": 96,
          "midi": 67,
          "name": "G4",
          "ticks": 67812,
          "time": 88.296875,
          "velocity": 0.08661417322834646
        },
        {
          "duration": 0.2526041666666714,
          "durationTicks": 194,
          "midi": 63,
          "name": "D#4",
          "ticks": 67812,
          "time": 88.296875,
          "velocity": 0.2755905511811024
        },
        {
          "duration": 0,
          "durationTicks": 0,
          "midi": 38,
          "name": "D2",
          "ticks": 67822,
          "time": 88.30989583333333,
          "velocity": 0.1968503937007874
        },
        {
          "duration": 0.125,
          "durationTicks": 96,
          "midi": 60,
          "name": "C4",
          "ticks": 67822,
          "time": 88.30989583333333,
          "velocity": 0.2047244094488189
        },
        {
          "duration": 0.1263020833333286,
          "durationTicks": 97,
          "midi": 79,
          "name": "G5",
          "ticks": 67874,
          "time": 88.37760416666667,
          "velocity": 0.09448818897637795
        },
        {
          "duration": 0.1276041666666714,
          "durationTicks": 98,
          "midi": 67,
          "name": "G4",
          "ticks": 67911,
          "time": 88.42578125,
          "velocity": 0.07874015748031496
        },
        {
          "duration": 0,
          "durationTicks": 0,
          "midi": 61,
          "name": "C#4",
          "ticks": 67983,
          "time": 88.51953125,
          "velocity": 0.1732283464566929
        },
        {
          "duration": 0,
          "durationTicks": 0,
          "midi": 79,
          "name": "G5",
          "ticks": 67983,
          "time": 88.51953125,
          "velocity": 0.07874015748031496
        },
        {
          "duration": 0.125,
          "durationTicks": 96,
          "midi": 67,
          "name": "G4",
          "ticks": 67992,
          "time": 88.53125,
          "velocity": 0.1732283464566929
        },
        {
          "duration": 0.125,
          "durationTicks": 96,
          "midi": 60,
          "name": "C4",
          "ticks": 68002,
          "time": 88.54427083333333,
          "velocity": 0.11023622047244094
        },
        {
          "duration": 0.125,
          "durationTicks": 96,
          "midi": 63,
          "name": "D#4",
          "ticks": 68029,
          "time": 88.57942708333333,
          "velocity": 0.11023622047244094
        },
        {
          "duration": 0,
          "durationTicks": 0,
          "midi": 75,
          "name": "D#5",
          "ticks": 68073,
          "time": 88.63671875,
          "velocity": 0.11811023622047244
        },
        {
          "duration": 0.1263020833333286,
          "durationTicks": 97,
          "midi": 63,
          "name": "D#4",
          "ticks": 68091,
          "time": 88.66015625,
          "velocity": 0.11811023622047244
        },
        {
          "duration": 0,
          "durationTicks": 0,
          "midi": 60,
          "name": "C4",
          "ticks": 68171,
          "time": 88.76432291666667,
          "velocity": 0.29133858267716534
        },
        {
          "duration": 0.1276041666666714,
          "durationTicks": 98,
          "midi": 68,
          "name": "G#4",
          "ticks": 68181,
          "time": 88.77734375,
          "velocity": 0.09448818897637795
        },
        {
          "duration": 0,
          "durationTicks": 0,
          "midi": 30,
          "name": "F#1",
          "ticks": 68190,
          "time": 88.7890625,
          "velocity": 0.4251968503937008
        },
        {
          "duration": 0.1276041666666714,
          "durationTicks": 98,
          "midi": 48,
          "name": "C3",
          "ticks": 68190,
          "time": 88.7890625,
          "velocity": 0.15748031496062992
        },
        {
          "duration": 0,
          "durationTicks": 0,
          "midi": 60,
          "name": "C4",
          "ticks": 68208,
          "time": 88.8125,
          "velocity": 0.28346456692913385
        },
        {
          "duration": 0.12890625,
          "durationTicks": 99,
          "midi": 29,
          "name": "F1",
          "ticks": 68225,
          "time": 88.83463541666667,
          "velocity": 0.3858267716535433
        },
        {
          "duration": 0.12890625,
          "durationTicks": 99,
          "midi": 60,
          "name": "C4",
          "ticks": 68234,
          "time": 88.84635416666667,
          "velocity": 0.2677165354330709
        },
        {
          "duration": 0,
          "durationTicks": 0,
          "midi": 63,
          "name": "D#4",
          "ticks": 68244,
          "time": 88.859375,
          "velocity": 0.1889763779527559
        },
        {
          "duration": 0.12890625,
          "durationTicks": 99,
          "midi": 56,
          "name": "G#3",
          "ticks": 68253,
          "time": 88.87109375,
          "velocity": 0.2047244094488189
        },
        {
          "duration": 0.12890625,
          "durationTicks": 99,
          "midi": 79,
          "name": "G5",
          "ticks": 68262,
          "time": 88.8828125,
          "velocity": 0.06299212598425197
        },
        {
          "duration": 0,
          "durationTicks": 0,
          "midi": 75,
          "name": "D#5",
          "ticks": 68272,
          "time": 88.89583333333333,
          "velocity": 0.11023622047244094
        },
        {
          "duration": 0.12890625,
          "durationTicks": 99,
          "midi": 48,
          "name": "C3",
          "ticks": 68272,
          "time": 88.89583333333333,
          "velocity": 0.09448818897637795
        },
        {
          "duration": 0,
          "durationTicks": 0,
          "midi": 58,
          "name": "A#3",
          "ticks": 68345,
          "time": 88.99088541666667,
          "velocity": 0.2440944881889764
        },
        {
          "duration": 0,
          "durationTicks": 0,
          "midi": 87,
          "name": "D#6",
          "ticks": 68364,
          "time": 89.015625,
          "velocity": 0.14173228346456693
        },
        {
          "duration": 0,
          "durationTicks": 0,
          "midi": 75,
          "name": "D#5",
          "ticks": 68462,
          "time": 89.14322916666667,
          "velocity": 0.14173228346456693
        },
        {
          "duration": 0.1263020833333286,
          "durationTicks": 97,
          "midi": 60,
          "name": "C4",
          "ticks": 68471,
          "time": 89.15494791666667,
          "velocity": 0.25984251968503935
        },
        {
          "duration": 0,
          "durationTicks": 0,
          "midi": 55,
          "name": "G3",
          "ticks": 68552,
          "time": 89.26041666666667,
          "velocity": 0.23622047244094488
        },
        {
          "duration": 0,
          "durationTicks": 0,
          "midi": 64,
          "name": "E4",
          "ticks": 68552,
          "time": 89.26041666666667,
          "velocity": 0.2677165354330709
        },
        {
          "duration": 0,
          "durationTicks": 0,
          "midi": 82,
          "name": "A#5",
          "ticks": 68552,
          "time": 89.26041666666667,
          "velocity": 0.08661417322834646
        },
        {
          "duration": 0.1276041666666572,
          "durationTicks": 98,
          "midi": 80,
          "name": "G#5",
          "ticks": 68552,
          "time": 89.26041666666667,
          "velocity": 0.14960629921259844
        },
        {
          "duration": 0.1276041666666572,
          "durationTicks": 98,
          "midi": 86,
          "name": "D6",
          "ticks": 68552,
          "time": 89.26041666666667,
          "velocity": 0.07874015748031496
        },
        {
          "duration": 0,
          "durationTicks": 0,
          "midi": 91,
          "name": "G6",
          "ticks": 68561,
          "time": 89.27213541666667,
          "velocity": 0.13385826771653545
        },
        {
          "duration": 0.1276041666666572,
          "durationTicks": 98,
          "midi": 68,
          "name": "G#4",
          "ticks": 68561,
          "time": 89.27213541666667,
          "velocity": 0.11023622047244094
        },
        {
          "duration": 0.1276041666666572,
          "durationTicks": 98,
          "midi": 75,
          "name": "D#5",
          "ticks": 68561,
          "time": 89.27213541666667,
          "velocity": 0.1732283464566929
        },
        {
          "duration": 0.1276041666666714,
          "durationTicks": 98,
          "midi": 63,
          "name": "D#4",
          "ticks": 68571,
          "time": 89.28515625,
          "velocity": 0.2755905511811024
        },
        {
          "duration": 0.2513020833333286,
          "durationTicks": 193,
          "midi": 31,
          "name": "G1",
          "ticks": 68580,
          "time": 89.296875,
          "velocity": 0.36220472440944884
        },
        {
          "duration": 0,
          "durationTicks": 0,
          "midi": 79,
          "name": "G5",
          "ticks": 68589,
          "time": 89.30859375,
          "velocity": 0.07086614173228346
        },
        {
          "duration": 0.1263020833333428,
          "durationTicks": 97,
          "midi": 50,
          "name": "D3",
          "ticks": 68599,
          "time": 89.32161458333333,
          "velocity": 0.09448818897637795
        },
        {
          "duration": 0,
          "durationTicks": 0,
          "midi": 58,
          "name": "A#3",
          "ticks": 68616,
          "time": 89.34375,
          "velocity": 0.25196850393700787
        },
        {
          "duration": 0.125,
          "durationTicks": 96,
          "midi": 60,
          "name": "C4",
          "ticks": 68662,
          "time": 89.40364583333333,
          "velocity": 0.1968503937007874
        },
        {
          "duration": 0.125,
          "durationTicks": 96,
          "midi": 65,
          "name": "F4",
          "ticks": 68662,
          "time": 89.40364583333333,
          "velocity": 0.25196850393700787
        },
        {
          "duration": 0,
          "durationTicks": 0,
          "midi": 87,
          "name": "D#6",
          "ticks": 68742,
          "time": 89.5078125,
          "velocity": 0.14173228346456693
        },
        {
          "duration": 0,
          "durationTicks": 0,
          "midi": 87,
          "name": "D#6",
          "ticks": 68840,
          "time": 89.63541666666667,
          "velocity": 0.10236220472440945
        },
        {
          "duration": 0.1263020833333286,
          "durationTicks": 97,
          "midi": 72,
          "name": "C5",
          "ticks": 68840,
          "time": 89.63541666666667,
          "velocity": 0.15748031496062992
        },
        {
          "duration": 0.1263020833333286,
          "durationTicks": 97,
          "midi": 67,
          "name": "G4",
          "ticks": 68840,
          "time": 89.63541666666667,
          "velocity": 0.09448818897637795
        },
        {
          "duration": 0,
          "durationTicks": 0,
          "midi": 45,
          "name": "A2",
          "ticks": 68849,
          "time": 89.64713541666667,
          "velocity": 0.3858267716535433
        },
        {
          "duration": 0.1263020833333286,
          "durationTicks": 97,
          "midi": 53,
          "name": "F3",
          "ticks": 68849,
          "time": 89.64713541666667,
          "velocity": 0.1889763779527559
        },
        {
          "duration": 0.1263020833333286,
          "durationTicks": 97,
          "midi": 60,
          "name": "C4",
          "ticks": 68849,
          "time": 89.64713541666667,
          "velocity": 0.2283464566929134
        },
        {
          "duration": 0.1263020833333286,
          "durationTicks": 97,
          "midi": 75,
          "name": "D#5",
          "ticks": 68849,
          "time": 89.64713541666667,
          "velocity": 0.08661417322834646
        },
        {
          "duration": 0,
          "durationTicks": 0,
          "midi": 31,
          "name": "G1",
          "ticks": 68867,
          "time": 89.67057291666667,
          "velocity": 0.29133858267716534
        },
        {
          "duration": 0.1263020833333286,
          "durationTicks": 97,
          "midi": 44,
          "name": "G#2",
          "ticks": 68876,
          "time": 89.68229166666667,
          "velocity": 0.36220472440944884
        },
        {
          "duration": 0,
          "durationTicks": 0,
          "midi": 54,
          "name": "F#3",
          "ticks": 68903,
          "time": 89.71744791666667,
          "velocity": 0.18110236220472442
        },
        {
          "duration": 0,
          "durationTicks": 0,
          "midi": 59,
          "name": "B3",
          "ticks": 68912,
          "time": 89.72916666666667,
          "velocity": 0.2677165354330709
        },
        {
          "duration": 0.2526041666666572,
          "durationTicks": 194,
          "midi": 58,
          "name": "A#3",
          "ticks": 68930,
          "time": 89.75260416666667,
          "velocity": 0.2992125984251969
        },
        {
          "duration": 0.1263020833333286,
          "durationTicks": 97,
          "midi": 65,
          "name": "F4",
          "ticks": 68975,
          "time": 89.81119791666667,
          "velocity": 0.07086614173228346
        },
        {
          "duration": 0.1263020833333286,
          "durationTicks": 97,
          "midi": 67,
          "name": "G4",
          "ticks": 69029,
          "time": 89.88151041666667,
          "velocity": 0.08661417322834646
        },
        {
          "duration": 0.1263020833333286,
          "durationTicks": 97,
          "midi": 44,
          "name": "G#2",
          "ticks": 69029,
          "time": 89.88151041666667,
          "velocity": 0.36220472440944884
        },
        {
          "duration": 0,
          "durationTicks": 0,
          "midi": 75,
          "name": "D#5",
          "ticks": 69038,
          "time": 89.89322916666667,
          "velocity": 0.11023622047244094
        },
        {
          "duration": 0.1263020833333286,
          "durationTicks": 97,
          "midi": 63,
          "name": "D#4",
          "ticks": 69038,
          "time": 89.89322916666667,
          "velocity": 0.09448818897637795
        },
        {
          "duration": 0.1263020833333286,
          "durationTicks": 97,
          "midi": 77,
          "name": "F5",
          "ticks": 69048,
          "time": 89.90625,
          "velocity": 0.08661417322834646
        },
        {
          "duration": 0.1276041666666572,
          "durationTicks": 98,
          "midi": 72,
          "name": "C5",
          "ticks": 69119,
          "time": 89.99869791666667,
          "velocity": 0.1889763779527559
        },
        {
          "duration": 0.1276041666666572,
          "durationTicks": 98,
          "midi": 67,
          "name": "G4",
          "ticks": 69128,
          "time": 90.01041666666667,
          "velocity": 0.11023622047244094
        },
        {
          "duration": 0,
          "durationTicks": 0,
          "midi": 31,
          "name": "G1",
          "ticks": 69138,
          "time": 90.0234375,
          "velocity": 0.36220472440944884
        },
        {
          "duration": 0,
          "durationTicks": 0,
          "midi": 60,
          "name": "C4",
          "ticks": 69138,
          "time": 90.0234375,
          "velocity": 0.31496062992125984
        },
        {
          "duration": 0,
          "durationTicks": 0,
          "midi": 32,
          "name": "G#1",
          "ticks": 69156,
          "time": 90.046875,
          "velocity": 0.3228346456692913
        },
        {
          "duration": 0.1263020833333428,
          "durationTicks": 97,
          "midi": 60,
          "name": "C4",
          "ticks": 69166,
          "time": 90.05989583333333,
          "velocity": 0.29133858267716534
        },
        {
          "duration": 0,
          "durationTicks": 0,
          "midi": 33,
          "name": "A1",
          "ticks": 69175,
          "time": 90.07161458333333,
          "velocity": 0.31496062992125984
        },
        {
          "duration": 0,
          "durationTicks": 0,
          "midi": 32,
          "name": "G#1",
          "ticks": 69202,
          "time": 90.10677083333333,
          "velocity": 0.33070866141732286
        },
        {
          "duration": 0,
          "durationTicks": 0,
          "midi": 75,
          "name": "D#5",
          "ticks": 69219,
          "time": 90.12890625,
          "velocity": 0.14173228346456693
        },
        {
          "duration": 0.1263020833333428,
          "durationTicks": 97,
          "midi": 58,
          "name": "A#3",
          "ticks": 69238,
          "time": 90.15364583333333,
          "velocity": 0.14173228346456693
        },
        {
          "duration": 0,
          "durationTicks": 0,
          "midi": 64,
          "name": "E4",
          "ticks": 69319,
          "time": 90.25911458333333,
          "velocity": 0.2047244094488189
        },
        {
          "duration": 0,
          "durationTicks": 0,
          "midi": 90,
          "name": "F#6",
          "ticks": 69319,
          "time": 90.25911458333333,
          "velocity": 0.05511811023622047
        },
        {
          "duration": 0,
          "durationTicks": 0,
          "midi": 86,
          "name": "D6",
          "ticks": 69319,
          "time": 90.25911458333333,
          "velocity": 0.08661417322834646
        },
        {
          "duration": 0,
          "durationTicks": 0,
          "midi": 80,
          "name": "G#5",
          "ticks": 69319,
          "time": 90.25911458333333,
          "velocity": 0.14173228346456693
        },
        {
          "duration": 0.2526041666666714,
          "durationTicks": 194,
          "midi": 75,
          "name": "D#5",
          "ticks": 69319,
          "time": 90.25911458333333,
          "velocity": 0.2440944881889764
        },
        {
          "duration": 0,
          "durationTicks": 0,
          "midi": 34,
          "name": "A#1",
          "ticks": 69328,
          "time": 90.27083333333333,
          "velocity": 0.4015748031496063
        },
        {
          "duration": 0,
          "durationTicks": 0,
          "midi": 56,
          "name": "G#3",
          "ticks": 69328,
          "time": 90.27083333333333,
          "velocity": 0.29133858267716534
        },
        {
          "duration": 0,
          "durationTicks": 0,
          "midi": 51,
          "name": "D#3",
          "ticks": 69328,
          "time": 90.27083333333333,
          "velocity": 0.11811023622047244
        },
        {
          "duration": 0.2526041666666714,
          "durationTicks": 194,
          "midi": 67,
          "name": "G4",
          "ticks": 69328,
          "time": 90.27083333333333,
          "velocity": 0.11811023622047244
        },
        {
          "duration": 0.1263020833333428,
          "durationTicks": 97,
          "midi": 63,
          "name": "D#4",
          "ticks": 69337,
          "time": 90.28255208333333,
          "velocity": 0.25196850393700787
        },
        {
          "duration": 0,
          "durationTicks": 0,
          "midi": 57,
          "name": "A3",
          "ticks": 69347,
          "time": 90.29557291666667,
          "velocity": 0.2440944881889764
        },
        {
          "duration": 0,
          "durationTicks": 0,
          "midi": 33,
          "name": "A1",
          "ticks": 69364,
          "time": 90.31770833333333,
          "velocity": 0.36220472440944884
        },
        {
          "duration": 0,
          "durationTicks": 0,
          "midi": 70,
          "name": "A#4",
          "ticks": 69364,
          "time": 90.31770833333333,
          "velocity": 0.10236220472440945
        },
        {
          "duration": 0,
          "durationTicks": 0,
          "midi": 51,
          "name": "D#3",
          "ticks": 69374,
          "time": 90.33072916666667,
          "velocity": 0.07874015748031496
        },
        {
          "duration": 0,
          "durationTicks": 0,
          "midi": 32,
          "name": "G#1",
          "ticks": 69383,
          "time": 90.34244791666667,
          "velocity": 0.3464566929133858
        },
        {
          "duration": 0,
          "durationTicks": 0,
          "midi": 82,
          "name": "A#5",
          "ticks": 69454,
          "time": 90.43489583333333,
          "velocity": 0.07086614173228346
        },
        {
          "duration": 0,
          "durationTicks": 0,
          "midi": 57,
          "name": "A3",
          "ticks": 69481,
          "time": 90.47005208333333,
          "velocity": 0.2283464566929134
        },
        {
          "duration": 0,
          "durationTicks": 0,
          "midi": 61,
          "name": "C#4",
          "ticks": 69481,
          "time": 90.47005208333333,
          "velocity": 0.2755905511811024
        },
        {
          "duration": 0.1263020833333428,
          "durationTicks": 97,
          "midi": 70,
          "name": "A#4",
          "ticks": 69508,
          "time": 90.50520833333333,
          "velocity": 0.14173228346456693
        },
        {
          "duration": 0,
          "durationTicks": 0,
          "midi": 63,
          "name": "D#4",
          "ticks": 69517,
          "time": 90.51692708333333,
          "velocity": 0.14960629921259844
        },
        {
          "duration": 0,
          "durationTicks": 0,
          "midi": 58,
          "name": "A#3",
          "ticks": 69527,
          "time": 90.52994791666667,
          "velocity": 0.2677165354330709
        },
        {
          "duration": 0,
          "durationTicks": 0,
          "midi": 75,
          "name": "D#5",
          "ticks": 69607,
          "time": 90.63411458333333,
          "velocity": 0.13385826771653545
        },
        {
          "duration": 0.5052083333333428,
          "durationTicks": 388,
          "midi": 60,
          "name": "C4",
          "ticks": 69607,
          "time": 90.63411458333333,
          "velocity": 0.28346456692913385
        },
        {
          "duration": 0.1263020833333286,
          "durationTicks": 97,
          "midi": 56,
          "name": "G#3",
          "ticks": 69617,
          "time": 90.64713541666667,
          "velocity": 0.1968503937007874
        },
        {
          "duration": 0.1263020833333286,
          "durationTicks": 97,
          "midi": 79,
          "name": "G5",
          "ticks": 69653,
          "time": 90.69401041666667,
          "velocity": 0.08661417322834646
        },
        {
          "duration": 0.1276041666666572,
          "durationTicks": 98,
          "midi": 67,
          "name": "G4",
          "ticks": 69707,
          "time": 90.76432291666667,
          "velocity": 0.11023622047244094
        },
        {
          "duration": 0,
          "durationTicks": 0,
          "midi": 31,
          "name": "G1",
          "ticks": 69725,
          "time": 90.78776041666667,
          "velocity": 0.29133858267716534
        },
        {
          "duration": 0,
          "durationTicks": 0,
          "midi": 56,
          "name": "G#3",
          "ticks": 69752,
          "time": 90.82291666666667,
          "velocity": 0.2204724409448819
        },
        {
          "duration": 0,
          "durationTicks": 0,
          "midi": 56,
          "name": "G#3",
          "ticks": 69788,
          "time": 90.86979166666667,
          "velocity": 0.1968503937007874
        },
        {
          "duration": 0,
          "durationTicks": 0,
          "midi": 75,
          "name": "D#5",
          "ticks": 69798,
          "time": 90.8828125,
          "velocity": 0.14173228346456693
        },
        {
          "duration": 0,
          "durationTicks": 0,
          "midi": 56,
          "name": "G#3",
          "ticks": 69861,
          "time": 90.96484375,
          "velocity": 0.13385826771653545
        },
        {
          "duration": 0,
          "durationTicks": 0,
          "midi": 87,
          "name": "D#6",
          "ticks": 69888,
          "time": 91,
          "velocity": 0.14173228346456693
        },
        {
          "duration": 0,
          "durationTicks": 0,
          "midi": 31,
          "name": "G1",
          "ticks": 69932,
          "time": 91.05729166666667,
          "velocity": 0.25984251968503935
        },
        {
          "duration": 0,
          "durationTicks": 0,
          "midi": 31,
          "name": "G1",
          "ticks": 69986,
          "time": 91.12760416666667,
          "velocity": 0.33858267716535434
        },
        {
          "duration": 0,
          "durationTicks": 0,
          "midi": 75,
          "name": "D#5",
          "ticks": 69986,
          "time": 91.12760416666667,
          "velocity": 0.14173228346456693
        },
        {
          "duration": 0.1263020833333286,
          "durationTicks": 97,
          "midi": 51,
          "name": "D#3",
          "ticks": 69995,
          "time": 91.13932291666667,
          "velocity": 0.11023622047244094
        },
        {
          "duration": 0.1263020833333286,
          "durationTicks": 97,
          "midi": 60,
          "name": "C4",
          "ticks": 69995,
          "time": 91.13932291666667,
          "velocity": 0.1889763779527559
        },
        {
          "duration": 0.1263020833333286,
          "durationTicks": 97,
          "midi": 32,
          "name": "G#1",
          "ticks": 70005,
          "time": 91.15234375,
          "velocity": 0.3464566929133858
        },
        {
          "duration": 0,
          "durationTicks": 0,
          "midi": 80,
          "name": "G#5",
          "ticks": 70076,
          "time": 91.24479166666667,
          "velocity": 0.12598425196850394
        },
        {
          "duration": 0,
          "durationTicks": 0,
          "midi": 70,
          "name": "A#4",
          "ticks": 70085,
          "time": 91.25651041666667,
          "velocity": 0.11811023622047244
        },
        {
          "duration": 0,
          "durationTicks": 0,
          "midi": 90,
          "name": "F#6",
          "ticks": 70085,
          "time": 91.25651041666667,
          "velocity": 0.07874015748031496
        },
        {
          "duration": 0,
          "durationTicks": 0,
          "midi": 86,
          "name": "D6",
          "ticks": 70085,
          "time": 91.25651041666667,
          "velocity": 0.08661417322834646
        },
        {
          "duration": 0,
          "durationTicks": 0,
          "midi": 56,
          "name": "G#3",
          "ticks": 70085,
          "time": 91.25651041666667,
          "velocity": 0.3464566929133858
        },
        {
          "duration": 0,
          "durationTicks": 0,
          "midi": 84,
          "name": "C6",
          "ticks": 70085,
          "time": 91.25651041666667,
          "velocity": 0.13385826771653545
        },
        {
          "duration": 0.1276041666666572,
          "durationTicks": 98,
          "midi": 91,
          "name": "G6",
          "ticks": 70085,
          "time": 91.25651041666667,
          "velocity": 0.10236220472440945
        },
        {
          "duration": 0,
          "durationTicks": 0,
          "midi": 44,
          "name": "G#2",
          "ticks": 70095,
          "time": 91.26953125,
          "velocity": 0.3700787401574803
        },
        {
          "duration": 0,
          "durationTicks": 0,
          "midi": 60,
          "name": "C4",
          "ticks": 70095,
          "time": 91.26953125,
          "velocity": 0.28346456692913385
        },
        {
          "duration": 0.1276041666666714,
          "durationTicks": 98,
          "midi": 67,
          "name": "G4",
          "ticks": 70095,
          "time": 91.26953125,
          "velocity": 0.11023622047244094
        },
        {
          "duration": 0,
          "durationTicks": 0,
          "midi": 87,
          "name": "D#6",
          "ticks": 70104,
          "time": 91.28125,
          "velocity": 0.08661417322834646
        },
        {
          "duration": 0,
          "durationTicks": 0,
          "midi": 82,
          "name": "A#5",
          "ticks": 70113,
          "time": 91.29296875,
          "velocity": 0.07086614173228346
        },
        {
          "duration": 0,
          "durationTicks": 0,
          "midi": 57,
          "name": "A3",
          "ticks": 70123,
          "time": 91.30598958333333,
          "velocity": 0.25984251968503935
        },
        {
          "duration": 0.1263020833333428,
          "durationTicks": 97,
          "midi": 44,
          "name": "G#2",
          "ticks": 70123,
          "time": 91.30598958333333,
          "velocity": 0.3700787401574803
        },
        {
          "duration": 0,
          "durationTicks": 0,
          "midi": 63,
          "name": "D#4",
          "ticks": 70140,
          "time": 91.328125,
          "velocity": 0.14173228346456693
        },
        {
          "duration": 0,
          "durationTicks": 0,
          "midi": 60,
          "name": "C4",
          "ticks": 70150,
          "time": 91.34114583333333,
          "velocity": 0.25984251968503935
        },
        {
          "duration": 0.1263020833333428,
          "durationTicks": 97,
          "midi": 63,
          "name": "D#4",
          "ticks": 70186,
          "time": 91.38802083333333,
          "velocity": 0.25196850393700787
        },
        {
          "duration": 0.1263020833333428,
          "durationTicks": 97,
          "midi": 58,
          "name": "A#3",
          "ticks": 70195,
          "time": 91.39973958333333,
          "velocity": 0.1968503937007874
        },
        {
          "duration": 0,
          "durationTicks": 0,
          "midi": 32,
          "name": "G#1",
          "ticks": 70204,
          "time": 91.41145833333333,
          "velocity": 0.3464566929133858
        },
        {
          "duration": 0,
          "durationTicks": 0,
          "midi": 33,
          "name": "A1",
          "ticks": 70222,
          "time": 91.43489583333333,
          "velocity": 0.31496062992125984
        },
        {
          "duration": 0,
          "durationTicks": 0,
          "midi": 32,
          "name": "G#1",
          "ticks": 70258,
          "time": 91.48177083333333,
          "velocity": 0.3543307086614173
        },
        {
          "duration": 0,
          "durationTicks": 0,
          "midi": 51,
          "name": "D#3",
          "ticks": 70258,
          "time": 91.48177083333333,
          "velocity": 0.07874015748031496
        },
        {
          "duration": 0,
          "durationTicks": 0,
          "midi": 60,
          "name": "C4",
          "ticks": 70276,
          "time": 91.50520833333333,
          "velocity": 0.2283464566929134
        },
        {
          "duration": 0,
          "durationTicks": 0,
          "midi": 87,
          "name": "D#6",
          "ticks": 70276,
          "time": 91.50520833333333,
          "velocity": 0.11811023622047244
        },
        {
          "duration": 0,
          "durationTicks": 0,
          "midi": 65,
          "name": "F4",
          "ticks": 70285,
          "time": 91.51692708333333,
          "velocity": 0.25196850393700787
        },
        {
          "duration": 0,
          "durationTicks": 0,
          "midi": 30,
          "name": "F#1",
          "ticks": 70304,
          "time": 91.54166666666667,
          "velocity": 0.36220472440944884
        },
        {
          "duration": 0,
          "durationTicks": 0,
          "midi": 29,
          "name": "F1",
          "ticks": 70321,
          "time": 91.56380208333333,
          "velocity": 0.36220472440944884
        },
        {
          "duration": 0.1171875,
          "durationTicks": 90,
          "midi": 58,
          "name": "A#3",
          "ticks": 70321,
          "time": 91.56380208333333,
          "velocity": 0.18110236220472442
        },
        {
          "duration": 0.1263020833333428,
          "durationTicks": 97,
          "midi": 67,
          "name": "G4",
          "ticks": 70321,
          "time": 91.56380208333333,
          "velocity": 0.1968503937007874
        },
        {
          "duration": 0.1263020833333428,
          "durationTicks": 97,
          "midi": 63,
          "name": "D#4",
          "ticks": 70339,
          "time": 91.58723958333333,
          "velocity": 0.1968503937007874
        },
        {
          "duration": 0,
          "durationTicks": 0,
          "midi": 27,
          "name": "D#1",
          "ticks": 70348,
          "time": 91.59895833333333,
          "velocity": 0.3543307086614173
        },
        {
          "duration": 0,
          "durationTicks": 0,
          "midi": 26,
          "name": "D1",
          "ticks": 70366,
          "time": 91.62239583333333,
          "velocity": 0.3464566929133858
        },
        {
          "duration": 0.1263020833333428,
          "durationTicks": 97,
          "midi": 80,
          "name": "G#5",
          "ticks": 70366,
          "time": 91.62239583333333,
          "velocity": 0.1732283464566929
        },
        {
          "duration": 0,
          "durationTicks": 0,
          "midi": 57,
          "name": "A3",
          "ticks": 70375,
          "time": 91.63411458333333,
          "velocity": 0.28346456692913385
        },
        {
          "duration": 0.1263020833333428,
          "durationTicks": 97,
          "midi": 68,
          "name": "G#4",
          "ticks": 70375,
          "time": 91.63411458333333,
          "velocity": 0.25984251968503935
        },
        {
          "duration": 0,
          "durationTicks": 0,
          "midi": 56,
          "name": "G#3",
          "ticks": 70393,
          "time": 91.65755208333333,
          "velocity": 0.2283464566929134
        },
        {
          "duration": 0,
          "durationTicks": 0,
          "midi": 35,
          "name": "B1",
          "ticks": 70402,
          "time": 91.66927083333333,
          "velocity": 0.3464566929133858
        },
        {
          "duration": 0,
          "durationTicks": 0,
          "midi": 64,
          "name": "E4",
          "ticks": 70411,
          "time": 91.68098958333333,
          "velocity": 0.14173228346456693
        },
        {
          "duration": 0.009114583333342807,
          "durationTicks": 7,
          "midi": 58,
          "name": "A#3",
          "ticks": 70411,
          "time": 91.68098958333333,
          "velocity": 0.1732283464566929
        },
        {
          "duration": 0,
          "durationTicks": 0,
          "midi": 35,
          "name": "B1",
          "ticks": 70438,
          "time": 91.71614583333333,
          "velocity": 0.3464566929133858
        },
        {
          "duration": 0,
          "durationTicks": 0,
          "midi": 67,
          "name": "G4",
          "ticks": 70438,
          "time": 91.71614583333333,
          "velocity": 0.2125984251968504
        },
        {
          "duration": 0.1263020833333428,
          "durationTicks": 97,
          "midi": 63,
          "name": "D#4",
          "ticks": 70438,
          "time": 91.71614583333333,
          "velocity": 0.2283464566929134
        },
        {
          "duration": 0,
          "durationTicks": 0,
          "midi": 57,
          "name": "A3",
          "ticks": 70448,
          "time": 91.72916666666667,
          "velocity": 0.14173228346456693
        },
        {
          "duration": 0,
          "durationTicks": 0,
          "midi": 72,
          "name": "C5",
          "ticks": 70448,
          "time": 91.72916666666667,
          "velocity": 0.08661417322834646
        },
        {
          "duration": 0.1276041666666714,
          "durationTicks": 98,
          "midi": 80,
          "name": "G#5",
          "ticks": 70465,
          "time": 91.75130208333333,
          "velocity": 0.1732283464566929
        },
        {
          "duration": 0.1276041666666714,
          "durationTicks": 98,
          "midi": 68,
          "name": "G#4",
          "ticks": 70474,
          "time": 91.76302083333333,
          "velocity": 0.23622047244094488
        },
        {
          "duration": 0,
          "durationTicks": 0,
          "midi": 69,
          "name": "A4",
          "ticks": 70528,
          "time": 91.83333333333333,
          "velocity": 0.25196850393700787
        },
        {
          "duration": 0,
          "durationTicks": 0,
          "midi": 34,
          "name": "A#1",
          "ticks": 70528,
          "time": 91.83333333333333,
          "velocity": 0.3779527559055118
        },
        {
          "duration": 0,
          "durationTicks": 0,
          "midi": 66,
          "name": "F#4",
          "ticks": 70528,
          "time": 91.83333333333333,
          "velocity": 0.18110236220472442
        },
        {
          "duration": 0.1276041666666714,
          "durationTicks": 98,
          "midi": 61,
          "name": "C#4",
          "ticks": 70528,
          "time": 91.83333333333333,
          "velocity": 0.14173228346456693
        },
        {
          "duration": 0.1263020833333286,
          "durationTicks": 97,
          "midi": 70,
          "name": "A#4",
          "ticks": 70547,
          "time": 91.85807291666667,
          "velocity": 0.25984251968503935
        },
        {
          "duration": 0.1263020833333286,
          "durationTicks": 97,
          "midi": 56,
          "name": "G#3",
          "ticks": 70556,
          "time": 91.86979166666667,
          "velocity": 0.14173228346456693
        },
        {
          "duration": 0.1263020833333286,
          "durationTicks": 97,
          "midi": 67,
          "name": "G4",
          "ticks": 70556,
          "time": 91.86979166666667,
          "velocity": 0.2047244094488189
        },
        {
          "duration": 0.1263020833333286,
          "durationTicks": 97,
          "midi": 77,
          "name": "F5",
          "ticks": 70565,
          "time": 91.88151041666667,
          "velocity": 0.07874015748031496
        },
        {
          "duration": 0.1263020833333286,
          "durationTicks": 97,
          "midi": 34,
          "name": "A#1",
          "ticks": 70565,
          "time": 91.88151041666667,
          "velocity": 0.3543307086614173
        },
        {
          "duration": 0,
          "durationTicks": 0,
          "midi": 65,
          "name": "F4",
          "ticks": 70575,
          "time": 91.89453125,
          "velocity": 0.1732283464566929
        },
        {
          "duration": 0,
          "durationTicks": 0,
          "midi": 89,
          "name": "F6",
          "ticks": 70575,
          "time": 91.89453125,
          "velocity": 0.07874015748031496
        },
        {
          "duration": 0,
          "durationTicks": 0,
          "midi": 35,
          "name": "B1",
          "ticks": 70646,
          "time": 91.98697916666667,
          "velocity": 0.33858267716535434
        },
        {
          "duration": 0,
          "durationTicks": 0,
          "midi": 68,
          "name": "G#4",
          "ticks": 70656,
          "time": 92,
          "velocity": 0.1732283464566929
        },
        {
          "duration": 0,
          "durationTicks": 0,
          "midi": 75,
          "name": "D#5",
          "ticks": 70754,
          "time": 92.12760416666667,
          "velocity": 0.14173228346456693
        },
        {
          "duration": 0.1263020833333286,
          "durationTicks": 97,
          "midi": 68,
          "name": "G#4",
          "ticks": 70763,
          "time": 92.13932291666667,
          "velocity": 0.05511811023622047
        },
        {
          "duration": 0,
          "durationTicks": 0,
          "midi": 84,
          "name": "C6",
          "ticks": 70844,
          "time": 92.24479166666667,
          "velocity": 0.11023622047244094
        },
        {
          "duration": 0,
          "durationTicks": 0,
          "midi": 87,
          "name": "D#6",
          "ticks": 70844,
          "time": 92.24479166666667,
          "velocity": 0.2047244094488189
        },
        {
          "duration": 0.1276041666666572,
          "durationTicks": 98,
          "midi": 68,
          "name": "G#4",
          "ticks": 70844,
          "time": 92.24479166666667,
          "velocity": 0.25984251968503935
        },
        {
          "duration": 0,
          "durationTicks": 0,
          "midi": 86,
          "name": "D6",
          "ticks": 70853,
          "time": 92.25651041666667,
          "velocity": 0.08661417322834646
        },
        {
          "duration": 0,
          "durationTicks": 0,
          "midi": 77,
          "name": "F5",
          "ticks": 70853,
          "time": 92.25651041666667,
          "velocity": 0.07086614173228346
        },
        {
          "duration": 0,
          "durationTicks": 0,
          "midi": 90,
          "name": "F#6",
          "ticks": 70853,
          "time": 92.25651041666667,
          "velocity": 0.05511811023622047
        },
        {
          "duration": 0,
          "durationTicks": 0,
          "midi": 91,
          "name": "G6",
          "ticks": 70862,
          "time": 92.26822916666667,
          "velocity": 0.10236220472440945
        },
        {
          "duration": 0.1263020833333286,
          "durationTicks": 97,
          "midi": 63,
          "name": "D#4",
          "ticks": 70862,
          "time": 92.26822916666667,
          "velocity": 0.23622047244094488
        },
        {
          "duration": 0,
          "durationTicks": 0,
          "midi": 38,
          "name": "D2",
          "ticks": 70872,
          "time": 92.28125,
          "velocity": 0.23622047244094488
        },
        {
          "duration": 0,
          "durationTicks": 0,
          "midi": 56,
          "name": "G#3",
          "ticks": 70872,
          "time": 92.28125,
          "velocity": 0.2283464566929134
        },
        {
          "duration": 0,
          "durationTicks": 0,
          "midi": 37,
          "name": "C#2",
          "ticks": 70899,
          "time": 92.31640625,
          "velocity": 0.14173228346456693
        },
        {
          "duration": 0.125,
          "durationTicks": 96,
          "midi": 56,
          "name": "G#3",
          "ticks": 70935,
          "time": 92.36328125,
          "velocity": 0.06299212598425197
        },
        {
          "duration": 0,
          "durationTicks": 0,
          "midi": 75,
          "name": "D#5",
          "ticks": 70944,
          "time": 92.375,
          "velocity": 0.14960629921259844
        },
        {
          "duration": 0,
          "durationTicks": 0,
          "midi": 66,
          "name": "F#4",
          "ticks": 71033,
          "time": 92.49088541666667,
          "velocity": 0.2283464566929134
        },
        {
          "duration": 0.125,
          "durationTicks": 96,
          "midi": 44,
          "name": "G#2",
          "ticks": 71033,
          "time": 92.49088541666667,
          "velocity": 0.36220472440944884
        },
        {
          "duration": 0.125,
          "durationTicks": 96,
          "midi": 77,
          "name": "F5",
          "ticks": 71033,
          "time": 92.49088541666667,
          "velocity": 0.15748031496062992
        },
        {
          "duration": 0.1263020833333286,
          "durationTicks": 97,
          "midi": 60,
          "name": "C4",
          "ticks": 71051,
          "time": 92.51432291666667,
          "velocity": 0.1732283464566929
        },
        {
          "duration": 0.1263020833333286,
          "durationTicks": 97,
          "midi": 65,
          "name": "F4",
          "ticks": 71051,
          "time": 92.51432291666667,
          "velocity": 0.29133858267716534
        },
        {
          "duration": 0,
          "durationTicks": 0,
          "midi": 75,
          "name": "D#5",
          "ticks": 71132,
          "time": 92.61979166666667,
          "velocity": 0.14960629921259844
        },
        {
          "duration": 0,
          "durationTicks": 0,
          "midi": 66,
          "name": "F#4",
          "ticks": 71141,
          "time": 92.63151041666667,
          "velocity": 0.2204724409448819
        },
        {
          "duration": 0.1263020833333286,
          "durationTicks": 97,
          "midi": 68,
          "name": "G#4",
          "ticks": 71141,
          "time": 92.63151041666667,
          "velocity": 0.25984251968503935
        },
        {
          "duration": 0.1263020833333286,
          "durationTicks": 97,
          "midi": 63,
          "name": "D#4",
          "ticks": 71159,
          "time": 92.65494791666667,
          "velocity": 0.1968503937007874
        },
        {
          "duration": 0,
          "durationTicks": 0,
          "midi": 47,
          "name": "B2",
          "ticks": 71240,
          "time": 92.76041666666667,
          "velocity": 0.3464566929133858
        },
        {
          "duration": 0.1263020833333286,
          "durationTicks": 97,
          "midi": 56,
          "name": "G#3",
          "ticks": 71240,
          "time": 92.76041666666667,
          "velocity": 0.12598425196850394
        },
        {
          "duration": 0.2526041666666572,
          "durationTicks": 194,
          "midi": 61,
          "name": "C#4",
          "ticks": 71249,
          "time": 92.77213541666667,
          "velocity": 0.1968503937007874
        },
        {
          "duration": 0.2526041666666572,
          "durationTicks": 194,
          "midi": 65,
          "name": "F4",
          "ticks": 71249,
          "time": 92.77213541666667,
          "velocity": 0.2755905511811024
        },
        {
          "duration": 0,
          "durationTicks": 0,
          "midi": 31,
          "name": "G1",
          "ticks": 71268,
          "time": 92.796875,
          "velocity": 0.2677165354330709
        },
        {
          "duration": 0,
          "durationTicks": 0,
          "midi": 46,
          "name": "A#2",
          "ticks": 71277,
          "time": 92.80859375,
          "velocity": 0.33858267716535434
        },
        {
          "duration": 0,
          "durationTicks": 0,
          "midi": 47,
          "name": "B2",
          "ticks": 71313,
          "time": 92.85546875,
          "velocity": 0.33070866141732286
        },
        {
          "duration": 0,
          "durationTicks": 0,
          "midi": 75,
          "name": "D#5",
          "ticks": 71330,
          "time": 92.87760416666667,
          "velocity": 0.14173228346456693
        },
        {
          "duration": 0.1263020833333286,
          "durationTicks": 97,
          "midi": 84,
          "name": "C6",
          "ticks": 71330,
          "time": 92.87760416666667,
          "velocity": 0.07086614173228346
        },
        {
          "duration": 0,
          "durationTicks": 0,
          "midi": 87,
          "name": "D#6",
          "ticks": 71420,
          "time": 92.99479166666667,
          "velocity": 0.15748031496062992
        },
        {
          "duration": 0.1263020833333286,
          "durationTicks": 97,
          "midi": 75,
          "name": "D#5",
          "ticks": 71430,
          "time": 93.0078125,
          "velocity": 0.1732283464566929
        },
        {
          "duration": 0.1263020833333286,
          "durationTicks": 97,
          "midi": 68,
          "name": "G#4",
          "ticks": 71439,
          "time": 93.01953125,
          "velocity": 0.07086614173228346
        },
        {
          "duration": 0.1263020833333286,
          "durationTicks": 97,
          "midi": 60,
          "name": "C4",
          "ticks": 71448,
          "time": 93.03125,
          "velocity": 0.1889763779527559
        },
        {
          "duration": 0.1263020833333286,
          "durationTicks": 97,
          "midi": 63,
          "name": "D#4",
          "ticks": 71448,
          "time": 93.03125,
          "velocity": 0.25196850393700787
        },
        {
          "duration": 0,
          "durationTicks": 0,
          "midi": 82,
          "name": "A#5",
          "ticks": 71493,
          "time": 93.08984375,
          "velocity": 0.07874015748031496
        },
        {
          "duration": 0.1263020833333286,
          "durationTicks": 97,
          "midi": 72,
          "name": "C5",
          "ticks": 71529,
          "time": 93.13671875,
          "velocity": 0.2204724409448819
        },
        {
          "duration": 0.1263020833333286,
          "durationTicks": 97,
          "midi": 60,
          "name": "C4",
          "ticks": 71538,
          "time": 93.1484375,
          "velocity": 0.2677165354330709
        },
        {
          "duration": 0.1263020833333286,
          "durationTicks": 97,
          "midi": 56,
          "name": "G#3",
          "ticks": 71547,
          "time": 93.16015625,
          "velocity": 0.1968503937007874
        },
        {
          "duration": 0,
          "durationTicks": 0,
          "midi": 79,
          "name": "G5",
          "ticks": 71565,
          "time": 93.18359375,
          "velocity": 0.10236220472440945
        },
        {
          "duration": 0,
          "durationTicks": 0,
          "midi": 86,
          "name": "D6",
          "ticks": 71610,
          "time": 93.2421875,
          "velocity": 0.11023622047244094
        },
        {
          "duration": 0.1276041666666714,
          "durationTicks": 98,
          "midi": 80,
          "name": "G#5",
          "ticks": 71610,
          "time": 93.2421875,
          "velocity": 0.15748031496062992
        },
        {
          "duration": 0.1276041666666714,
          "durationTicks": 98,
          "midi": 77,
          "name": "F5",
          "ticks": 71610,
          "time": 93.2421875,
          "velocity": 0.1732283464566929
        },
        {
          "duration": 0,
          "durationTicks": 0,
          "midi": 94,
          "name": "A#6",
          "ticks": 71619,
          "time": 93.25390625,
          "velocity": 0.06299212598425197
        },
        {
          "duration": 0,
          "durationTicks": 0,
          "midi": 37,
          "name": "C#2",
          "ticks": 71628,
          "time": 93.265625,
          "velocity": 0.25984251968503935
        },
        {
          "duration": 0,
          "durationTicks": 0,
          "midi": 58,
          "name": "A#3",
          "ticks": 71628,
          "time": 93.265625,
          "velocity": 0.3228346456692913
        },
        {
          "duration": 0,
          "durationTicks": 0,
          "midi": 86,
          "name": "D6",
          "ticks": 71628,
          "time": 93.265625,
          "velocity": 0.05511811023622047
        },
        {
          "duration": 0.125,
          "durationTicks": 96,
          "midi": 60,
          "name": "C4",
          "ticks": 71674,
          "time": 93.32552083333333,
          "velocity": 0.2677165354330709
        },
        {
          "duration": 0.125,
          "durationTicks": 96,
          "midi": 75,
          "name": "D#5",
          "ticks": 71674,
          "time": 93.32552083333333,
          "velocity": 0.14173228346456693
        },
        {
          "duration": 0,
          "durationTicks": 0,
          "midi": 56,
          "name": "G#3",
          "ticks": 71683,
          "time": 93.33723958333333,
          "velocity": 0.2047244094488189
        },
        {
          "duration": 0.125,
          "durationTicks": 96,
          "midi": 63,
          "name": "D#4",
          "ticks": 71727,
          "time": 93.39453125,
          "velocity": 0.2755905511811024
        },
        {
          "duration": 0,
          "durationTicks": 0,
          "midi": 60,
          "name": "C4",
          "ticks": 71772,
          "time": 93.453125,
          "velocity": 0.1889763779527559
        },
        {
          "duration": 0.1263020833333286,
          "durationTicks": 97,
          "midi": 87,
          "name": "D#6",
          "ticks": 71790,
          "time": 93.4765625,
          "velocity": 0.1732283464566929
        },
        {
          "duration": 0.1263020833333286,
          "durationTicks": 97,
          "midi": 27,
          "name": "D#1",
          "ticks": 71799,
          "time": 93.48828125,
          "velocity": 0.3779527559055118
        },
        {
          "duration": 0,
          "durationTicks": 0,
          "midi": 61,
          "name": "C#4",
          "ticks": 71817,
          "time": 93.51171875,
          "velocity": 0.2283464566929134
        },
        {
          "duration": 0,
          "durationTicks": 0,
          "midi": 65,
          "name": "F4",
          "ticks": 71817,
          "time": 93.51171875,
          "velocity": 0.25196850393700787
        },
        {
          "duration": 0.1276041666666714,
          "durationTicks": 98,
          "midi": 46,
          "name": "A#2",
          "ticks": 71817,
          "time": 93.51171875,
          "velocity": 0.07086614173228346
        },
        {
          "duration": 0,
          "durationTicks": 0,
          "midi": 84,
          "name": "C6",
          "ticks": 71826,
          "time": 93.5234375,
          "velocity": 0.07086614173228346
        },
        {
          "duration": 0,
          "durationTicks": 0,
          "midi": 60,
          "name": "C4",
          "ticks": 71862,
          "time": 93.5703125,
          "velocity": 0.11811023622047244
        },
        {
          "duration": 0,
          "durationTicks": 0,
          "midi": 62,
          "name": "D4",
          "ticks": 71889,
          "time": 93.60546875,
          "velocity": 0.1968503937007874
        },
        {
          "duration": 0.1276041666666714,
          "durationTicks": 98,
          "midi": 70,
          "name": "A#4",
          "ticks": 71889,
          "time": 93.60546875,
          "velocity": 0.11811023622047244
        },
        {
          "duration": 0,
          "durationTicks": 0,
          "midi": 87,
          "name": "D#6",
          "ticks": 71898,
          "time": 93.6171875,
          "velocity": 0.14173228346456693
        },
        {
          "duration": 0,
          "durationTicks": 0,
          "midi": 67,
          "name": "G4",
          "ticks": 71898,
          "time": 93.6171875,
          "velocity": 0.2440944881889764
        },
        {
          "duration": 0,
          "durationTicks": 0,
          "midi": 29,
          "name": "F1",
          "ticks": 71908,
          "time": 93.63020833333333,
          "velocity": 0.3858267716535433
        },
        {
          "duration": 0,
          "durationTicks": 0,
          "midi": 63,
          "name": "D#4",
          "ticks": 71908,
          "time": 93.63020833333333,
          "velocity": 0.1968503937007874
        },
        {
          "duration": 0,
          "durationTicks": 0,
          "midi": 47,
          "name": "B2",
          "ticks": 71926,
          "time": 93.65364583333333,
          "velocity": 0.12598425196850394
        },
        {
          "duration": 0,
          "durationTicks": 0,
          "midi": 24,
          "name": "C1",
          "ticks": 71935,
          "time": 93.66536458333333,
          "velocity": 0.31496062992125984
        },
        {
          "duration": 0,
          "durationTicks": 0,
          "midi": 61,
          "name": "C#4",
          "ticks": 71935,
          "time": 93.66536458333333,
          "velocity": 0.1732283464566929
        },
        {
          "duration": 0,
          "durationTicks": 0,
          "midi": 65,
          "name": "F4",
          "ticks": 71945,
          "time": 93.67838541666667,
          "velocity": 0.1968503937007874
        },
        {
          "duration": 0.2526041666666572,
          "durationTicks": 194,
          "midi": 68,
          "name": "G#4",
          "ticks": 71945,
          "time": 93.67838541666667,
          "velocity": 0.25984251968503935
        },
        {
          "duration": 0,
          "durationTicks": 0,
          "midi": 28,
          "name": "E1",
          "ticks": 71962,
          "time": 93.70052083333333,
          "velocity": 0.3779527559055118
        },
        {
          "duration": 0.1263020833333428,
          "durationTicks": 97,
          "midi": 72,
          "name": "C5",
          "ticks": 71962,
          "time": 93.70052083333333,
          "velocity": 0.15748031496062992
        },
        {
          "duration": 0.1263020833333428,
          "durationTicks": 97,
          "midi": 75,
          "name": "D#5",
          "ticks": 71989,
          "time": 93.73567708333333,
          "velocity": 0.11023622047244094
        },
        {
          "duration": 0,
          "durationTicks": 0,
          "midi": 62,
          "name": "D4",
          "ticks": 71999,
          "time": 93.74869791666667,
          "velocity": 0.4015748031496063
        },
        {
          "duration": 0,
          "durationTicks": 0,
          "midi": 82,
          "name": "A#5",
          "ticks": 71999,
          "time": 93.74869791666667,
          "velocity": 0.06299212598425197
        },
        {
          "duration": 0.2526041666666572,
          "durationTicks": 194,
          "midi": 27,
          "name": "D#1",
          "ticks": 71999,
          "time": 93.74869791666667,
          "velocity": 0.3700787401574803
        },
        {
          "duration": 0.10546875,
          "durationTicks": 81,
          "midi": 65,
          "name": "F4",
          "ticks": 72008,
          "time": 93.76041666666667,
          "velocity": 0.2047244094488189
        },
        {
          "duration": 0,
          "durationTicks": 0,
          "midi": 60,
          "name": "C4",
          "ticks": 72025,
          "time": 93.78255208333333,
          "velocity": 0.3700787401574803
        },
        {
          "duration": 0,
          "durationTicks": 0,
          "midi": 59,
          "name": "B3",
          "ticks": 72052,
          "time": 93.81770833333333,
          "velocity": 0.25984251968503935
        },
        {
          "duration": 0,
          "durationTicks": 0,
          "midi": 47,
          "name": "B2",
          "ticks": 72079,
          "time": 93.85286458333333,
          "velocity": 0.09448818897637795
        },
        {
          "duration": 0.020833333333328596,
          "durationTicks": 16,
          "midi": 65,
          "name": "F4",
          "ticks": 72089,
          "time": 93.86588541666667,
          "velocity": 0.18110236220472442
        },
        {
          "duration": 0.1263020833333286,
          "durationTicks": 97,
          "midi": 75,
          "name": "D#5",
          "ticks": 72089,
          "time": 93.86588541666667,
          "velocity": 0.11023622047244094
        },
        {
          "duration": 0,
          "durationTicks": 0,
          "midi": 60,
          "name": "C4",
          "ticks": 72098,
          "time": 93.87760416666667,
          "velocity": 0.2755905511811024
        },
        {
          "duration": 0.125,
          "durationTicks": 96,
          "midi": 46,
          "name": "A#2",
          "ticks": 72116,
          "time": 93.90104166666667,
          "velocity": 0.11811023622047244
        },
        {
          "duration": 0,
          "durationTicks": 0,
          "midi": 62,
          "name": "D4",
          "ticks": 72179,
          "time": 93.98307291666667,
          "velocity": 0.4251968503937008
        },
        {
          "duration": 0.1263020833333286,
          "durationTicks": 97,
          "midi": 67,
          "name": "G4",
          "ticks": 72179,
          "time": 93.98307291666667,
          "velocity": 0.29133858267716534
        },
        {
          "duration": 0.1263020833333286,
          "durationTicks": 97,
          "midi": 86,
          "name": "D6",
          "ticks": 72188,
          "time": 93.99479166666667,
          "velocity": 0.08661417322834646
        },
        {
          "duration": 0,
          "durationTicks": 0,
          "midi": 39,
          "name": "D#2",
          "ticks": 72206,
          "time": 94.01822916666667,
          "velocity": 0.3543307086614173
        },
        {
          "duration": 0,
          "durationTicks": 0,
          "midi": 60,
          "name": "C4",
          "ticks": 72215,
          "time": 94.02994791666667,
          "velocity": 0.3700787401574803
        },
        {
          "duration": 0.1263020833333286,
          "durationTicks": 97,
          "midi": 82,
          "name": "A#5",
          "ticks": 72215,
          "time": 94.02994791666667,
          "velocity": 0.06299212598425197
        },
        {
          "duration": 0.1263020833333428,
          "durationTicks": 97,
          "midi": 39,
          "name": "D#2",
          "ticks": 72232,
          "time": 94.05208333333333,
          "velocity": 0.36220472440944884
        },
        {
          "duration": 0,
          "durationTicks": 0,
          "midi": 59,
          "name": "B3",
          "ticks": 72242,
          "time": 94.06510416666667,
          "velocity": 0.2677165354330709
        },
        {
          "duration": 0,
          "durationTicks": 0,
          "midi": 63,
          "name": "D#4",
          "ticks": 72242,
          "time": 94.06510416666667,
          "velocity": 0.2283464566929134
        },
        {
          "duration": 0,
          "durationTicks": 0,
          "midi": 64,
          "name": "E4",
          "ticks": 72269,
          "time": 94.10026041666667,
          "velocity": 0.15748031496062992
        },
        {
          "duration": 0,
          "durationTicks": 0,
          "midi": 75,
          "name": "D#5",
          "ticks": 72269,
          "time": 94.10026041666667,
          "velocity": 0.1732283464566929
        },
        {
          "duration": 0,
          "durationTicks": 0,
          "midi": 59,
          "name": "B3",
          "ticks": 72278,
          "time": 94.11197916666667,
          "velocity": 0.23622047244094488
        },
        {
          "duration": 0.125,
          "durationTicks": 96,
          "midi": 68,
          "name": "G#4",
          "ticks": 72278,
          "time": 94.11197916666667,
          "velocity": 0.15748031496062992
        },
        {
          "duration": 0.125,
          "durationTicks": 96,
          "midi": 58,
          "name": "A#3",
          "ticks": 72314,
          "time": 94.15885416666667,
          "velocity": 0.4251968503937008
        },
        {
          "duration": 0.1276041666666714,
          "durationTicks": 98,
          "midi": 87,
          "name": "D#6",
          "ticks": 72367,
          "time": 94.22786458333333,
          "velocity": 0.11811023622047244
        },
        {
          "duration": 0.25390625,
          "durationTicks": 195,
          "midi": 65,
          "name": "F4",
          "ticks": 72367,
          "time": 94.22786458333333,
          "velocity": 0.29133858267716534
        },
        {
          "duration": 0,
          "durationTicks": 0,
          "midi": 73,
          "name": "C#5",
          "ticks": 72376,
          "time": 94.23958333333333,
          "velocity": 0.08661417322834646
        },
        {
          "duration": 0,
          "durationTicks": 0,
          "midi": 86,
          "name": "D6",
          "ticks": 72376,
          "time": 94.23958333333333,
          "velocity": 0.10236220472440945
        },
        {
          "duration": 0,
          "durationTicks": 0,
          "midi": 84,
          "name": "C6",
          "ticks": 72376,
          "time": 94.23958333333333,
          "velocity": 0.05511811023622047
        },
        {
          "duration": 0,
          "durationTicks": 0,
          "midi": 86,
          "name": "D6",
          "ticks": 72376,
          "time": 94.23958333333333,
          "velocity": 0.10236220472440945
        },
        {
          "duration": 0,
          "durationTicks": 0,
          "midi": 94,
          "name": "A#6",
          "ticks": 72386,
          "time": 94.25260416666667,
          "velocity": 0.08661417322834646
        },
        {
          "duration": 0,
          "durationTicks": 0,
          "midi": 57,
          "name": "A3",
          "ticks": 72395,
          "time": 94.26432291666667,
          "velocity": 0.3937007874015748
        },
        {
          "duration": 0,
          "durationTicks": 0,
          "midi": 56,
          "name": "G#3",
          "ticks": 72422,
          "time": 94.29947916666667,
          "velocity": 0.3543307086614173
        },
        {
          "duration": 0.2526041666666572,
          "durationTicks": 194,
          "midi": 70,
          "name": "A#4",
          "ticks": 72422,
          "time": 94.29947916666667,
          "velocity": 0.15748031496062992
        },
        {
          "duration": 0,
          "durationTicks": 0,
          "midi": 37,
          "name": "C#2",
          "ticks": 72431,
          "time": 94.31119791666667,
          "velocity": 0.14173228346456693
        },
        {
          "duration": 0,
          "durationTicks": 0,
          "midi": 61,
          "name": "C#4",
          "ticks": 72431,
          "time": 94.31119791666667,
          "velocity": 0.2204724409448819
        },
        {
          "duration": 0,
          "durationTicks": 0,
          "midi": 58,
          "name": "A#3",
          "ticks": 72467,
          "time": 94.35807291666667,
          "velocity": 0.4015748031496063
        },
        {
          "duration": 0,
          "durationTicks": 0,
          "midi": 75,
          "name": "D#5",
          "ticks": 72467,
          "time": 94.35807291666667,
          "velocity": 0.1889763779527559
        },
        {
          "duration": 0,
          "durationTicks": 0,
          "midi": 57,
          "name": "A3",
          "ticks": 72494,
          "time": 94.39322916666667,
          "velocity": 0.4015748031496063
        },
        {
          "duration": 0.1263020833333286,
          "durationTicks": 97,
          "midi": 79,
          "name": "G5",
          "ticks": 72494,
          "time": 94.39322916666667,
          "velocity": 0.11811023622047244
        },
        {
          "duration": 0,
          "durationTicks": 0,
          "midi": 84,
          "name": "C6",
          "ticks": 72512,
          "time": 94.41666666666667,
          "velocity": 0.06299212598425197
        },
        {
          "duration": 0,
          "durationTicks": 0,
          "midi": 56,
          "name": "G#3",
          "ticks": 72512,
          "time": 94.41666666666667,
          "velocity": 0.36220472440944884
        },
        {
          "duration": 0,
          "durationTicks": 0,
          "midi": 80,
          "name": "G#5",
          "ticks": 72539,
          "time": 94.45182291666667,
          "velocity": 0.06299212598425197
        },
        {
          "duration": 0,
          "durationTicks": 0,
          "midi": 55,
          "name": "G3",
          "ticks": 72548,
          "time": 94.46354166666667,
          "velocity": 0.2677165354330709
        },
        {
          "duration": 0.1263020833333286,
          "durationTicks": 97,
          "midi": 75,
          "name": "D#5",
          "ticks": 72557,
          "time": 94.47526041666667,
          "velocity": 0.2047244094488189
        },
        {
          "duration": 0,
          "durationTicks": 0,
          "midi": 64,
          "name": "E4",
          "ticks": 72567,
          "time": 94.48828125,
          "velocity": 0.30708661417322836
        },
        {
          "duration": 0,
          "durationTicks": 0,
          "midi": 58,
          "name": "A#3",
          "ticks": 72584,
          "time": 94.51041666666667,
          "velocity": 0.2283464566929134
        },
        {
          "duration": 0,
          "durationTicks": 0,
          "midi": 63,
          "name": "D#4",
          "ticks": 72584,
          "time": 94.51041666666667,
          "velocity": 0.29133858267716534
        },
        {
          "duration": 0,
          "durationTicks": 0,
          "midi": 39,
          "name": "D#2",
          "ticks": 72594,
          "time": 94.5234375,
          "velocity": 0.3543307086614173
        },
        {
          "duration": 0.1263020833333286,
          "durationTicks": 97,
          "midi": 68,
          "name": "G#4",
          "ticks": 72594,
          "time": 94.5234375,
          "velocity": 0.10236220472440945
        },
        {
          "duration": 0,
          "durationTicks": 0,
          "midi": 55,
          "name": "G3",
          "ticks": 72603,
          "time": 94.53515625,
          "velocity": 0.2125984251968504
        },
        {
          "duration": 0,
          "durationTicks": 0,
          "midi": 59,
          "name": "B3",
          "ticks": 72603,
          "time": 94.53515625,
          "velocity": 0.18110236220472442
        },
        {
          "duration": 0.1263020833333286,
          "durationTicks": 97,
          "midi": 39,
          "name": "D#2",
          "ticks": 72620,
          "time": 94.55729166666667,
          "velocity": 0.3543307086614173
        },
        {
          "duration": 0,
          "durationTicks": 0,
          "midi": 58,
          "name": "A#3",
          "ticks": 72630,
          "time": 94.5703125,
          "velocity": 0.1889763779527559
        },
        {
          "duration": 0.2526041666666714,
          "durationTicks": 194,
          "midi": 77,
          "name": "F5",
          "ticks": 72657,
          "time": 94.60546875,
          "velocity": 0.1968503937007874
        },
        {
          "duration": 0,
          "durationTicks": 0,
          "midi": 60,
          "name": "C4",
          "ticks": 72666,
          "time": 94.6171875,
          "velocity": 0.25984251968503935
        },
        {
          "duration": 0,
          "durationTicks": 0,
          "midi": 55,
          "name": "G3",
          "ticks": 72666,
          "time": 94.6171875,
          "velocity": 0.4015748031496063
        },
        {
          "duration": 0.1263020833333286,
          "durationTicks": 97,
          "midi": 68,
          "name": "G#4",
          "ticks": 72666,
          "time": 94.6171875,
          "velocity": 0.14173228346456693
        },
        {
          "duration": 0.1263020833333286,
          "durationTicks": 97,
          "midi": 65,
          "name": "F4",
          "ticks": 72666,
          "time": 94.6171875,
          "velocity": 0.29133858267716534
        },
        {
          "duration": 0.1263020833333286,
          "durationTicks": 97,
          "midi": 84,
          "name": "C6",
          "ticks": 72675,
          "time": 94.62890625,
          "velocity": 0.08661417322834646
        },
        {
          "duration": 0,
          "durationTicks": 0,
          "midi": 54,
          "name": "F#3",
          "ticks": 72693,
          "time": 94.65234375,
          "velocity": 0.3779527559055118
        },
        {
          "duration": 0,
          "durationTicks": 0,
          "midi": 60,
          "name": "C4",
          "ticks": 72693,
          "time": 94.65234375,
          "velocity": 0.25196850393700787
        },
        {
          "duration": 0,
          "durationTicks": 0,
          "midi": 75,
          "name": "D#5",
          "ticks": 72693,
          "time": 94.65234375,
          "velocity": 0.13385826771653545
        },
        {
          "duration": 0,
          "durationTicks": 0,
          "midi": 53,
          "name": "F3",
          "ticks": 72710,
          "time": 94.67447916666667,
          "velocity": 0.3700787401574803
        },
        {
          "duration": 0,
          "durationTicks": 0,
          "midi": 60,
          "name": "C4",
          "ticks": 72720,
          "time": 94.6875,
          "velocity": 0.2283464566929134
        },
        {
          "duration": 0.1263020833333286,
          "durationTicks": 97,
          "midi": 92,
          "name": "G#6",
          "ticks": 72747,
          "time": 94.72265625,
          "velocity": 0.2283464566929134
        },
        {
          "duration": 0,
          "durationTicks": 0,
          "midi": 74,
          "name": "D5",
          "ticks": 72756,
          "time": 94.734375,
          "velocity": 0.1968503937007874
        },
        {
          "duration": 0,
          "durationTicks": 0,
          "midi": 56,
          "name": "G#3",
          "ticks": 72765,
          "time": 94.74609375,
          "velocity": 0.31496062992125984
        },
        {
          "duration": 0,
          "durationTicks": 0,
          "midi": 70,
          "name": "A#4",
          "ticks": 72775,
          "time": 94.75911458333333,
          "velocity": 0.2283464566929134
        },
        {
          "duration": 0,
          "durationTicks": 0,
          "midi": 94,
          "name": "A#6",
          "ticks": 72775,
          "time": 94.75911458333333,
          "velocity": 0.08661417322834646
        },
        {
          "duration": 0,
          "durationTicks": 0,
          "midi": 75,
          "name": "D#5",
          "ticks": 72775,
          "time": 94.75911458333333,
          "velocity": 0.14173228346456693
        },
        {
          "duration": 0.1263020833333428,
          "durationTicks": 97,
          "midi": 46,
          "name": "A#2",
          "ticks": 72775,
          "time": 94.75911458333333,
          "velocity": 0.3464566929133858
        },
        {
          "duration": 0,
          "durationTicks": 0,
          "midi": 61,
          "name": "C#4",
          "ticks": 72792,
          "time": 94.78125,
          "velocity": 0.18110236220472442
        },
        {
          "duration": 0.1263020833333286,
          "durationTicks": 97,
          "midi": 89,
          "name": "F6",
          "ticks": 72792,
          "time": 94.78125,
          "velocity": 0.1968503937007874
        },
        {
          "duration": 0,
          "durationTicks": 0,
          "midi": 67,
          "name": "G4",
          "ticks": 72801,
          "time": 94.79296875,
          "velocity": 0.2677165354330709
        },
        {
          "duration": 0,
          "durationTicks": 0,
          "midi": 66,
          "name": "F#4",
          "ticks": 72819,
          "time": 94.81640625,
          "velocity": 0.1968503937007874
        },
        {
          "duration": 0.1263020833333286,
          "durationTicks": 97,
          "midi": 68,
          "name": "G#4",
          "ticks": 72819,
          "time": 94.81640625,
          "velocity": 0.16535433070866143
        },
        {
          "duration": 0,
          "durationTicks": 0,
          "midi": 60,
          "name": "C4",
          "ticks": 72837,
          "time": 94.83984375,
          "velocity": 0.31496062992125984
        },
        {
          "duration": 0,
          "durationTicks": 0,
          "midi": 65,
          "name": "F4",
          "ticks": 72837,
          "time": 94.83984375,
          "velocity": 0.18110236220472442
        },
        {
          "duration": 0,
          "durationTicks": 0,
          "midi": 94,
          "name": "A#6",
          "ticks": 72846,
          "time": 94.8515625,
          "velocity": 0.11023622047244094
        },
        {
          "duration": 0.1276041666666714,
          "durationTicks": 98,
          "midi": 85,
          "name": "C#6",
          "ticks": 72846,
          "time": 94.8515625,
          "velocity": 0.2204724409448819
        },
        {
          "duration": 0.1276041666666714,
          "durationTicks": 98,
          "midi": 82,
          "name": "A#5",
          "ticks": 72846,
          "time": 94.8515625,
          "velocity": 0.07874015748031496
        },
        {
          "duration": 0.1067708333333286,
          "durationTicks": 82,
          "midi": 75,
          "name": "D#5",
          "ticks": 72846,
          "time": 94.8515625,
          "velocity": 0.13385826771653545
        },
        {
          "duration": 0.1067708333333286,
          "durationTicks": 82,
          "midi": 70,
          "name": "A#4",
          "ticks": 72855,
          "time": 94.86328125,
          "velocity": 0.14173228346456693
        },
        {
          "duration": 0,
          "durationTicks": 0,
          "midi": 55,
          "name": "G3",
          "ticks": 72865,
          "time": 94.87630208333333,
          "velocity": 0.4251968503937008
        },
        {
          "duration": 0,
          "durationTicks": 0,
          "midi": 46,
          "name": "A#2",
          "ticks": 72891,
          "time": 94.91015625,
          "velocity": 0.3700787401574803
        },
        {
          "duration": 0,
          "durationTicks": 0,
          "midi": 65,
          "name": "F4",
          "ticks": 72891,
          "time": 94.91015625,
          "velocity": 0.14960629921259844
        },
        {
          "duration": 0.2565104166666714,
          "durationTicks": 197,
          "midi": 84,
          "name": "C6",
          "ticks": 72891,
          "time": 94.91015625,
          "velocity": 0.2283464566929134
        },
        {
          "duration": 0,
          "durationTicks": 0,
          "midi": 53,
          "name": "F3",
          "ticks": 72901,
          "time": 94.92317708333333,
          "velocity": 0.3937007874015748
        },
        {
          "duration": 0,
          "durationTicks": 0,
          "midi": 46,
          "name": "A#2",
          "ticks": 72928,
          "time": 94.95833333333333,
          "velocity": 0.28346456692913385
        },
        {
          "duration": 0.020833333333342807,
          "durationTicks": 16,
          "midi": 75,
          "name": "D#5",
          "ticks": 72928,
          "time": 94.95833333333333,
          "velocity": 0.1968503937007874
        },
        {
          "duration": 0.020833333333342807,
          "durationTicks": 16,
          "midi": 70,
          "name": "A#4",
          "ticks": 72937,
          "time": 94.97005208333333,
          "velocity": 0.1732283464566929
        },
        {
          "duration": 0,
          "durationTicks": 0,
          "midi": 72,
          "name": "C5",
          "ticks": 72946,
          "time": 94.98177083333333,
          "velocity": 0.1732283464566929
        },
        {
          "duration": 0.1276041666666714,
          "durationTicks": 98,
          "midi": 80,
          "name": "G#5",
          "ticks": 72946,
          "time": 94.98177083333333,
          "velocity": 0.2283464566929134
        },
        {
          "duration": 0.1276041666666714,
          "durationTicks": 98,
          "midi": 93,
          "name": "A6",
          "ticks": 72946,
          "time": 94.98177083333333,
          "velocity": 0.05511811023622047
        },
        {
          "duration": 0.1276041666666714,
          "durationTicks": 98,
          "midi": 77,
          "name": "F5",
          "ticks": 72946,
          "time": 94.98177083333333,
          "velocity": 0.29133858267716534
        },
        {
          "duration": 0,
          "durationTicks": 0,
          "midi": 74,
          "name": "D5",
          "ticks": 72956,
          "time": 94.99479166666667,
          "velocity": 0.1968503937007874
        },
        {
          "duration": 0,
          "durationTicks": 0,
          "midi": 65,
          "name": "F4",
          "ticks": 72956,
          "time": 94.99479166666667,
          "velocity": 0.2677165354330709
        },
        {
          "duration": 0.1276041666666572,
          "durationTicks": 98,
          "midi": 87,
          "name": "D#6",
          "ticks": 72956,
          "time": 94.99479166666667,
          "velocity": 0.09448818897637795
        },
        {
          "duration": 0.1276041666666572,
          "durationTicks": 98,
          "midi": 51,
          "name": "D#3",
          "ticks": 72965,
          "time": 95.00651041666667,
          "velocity": 0.36220472440944884
        },
        {
          "duration": 0.1276041666666572,
          "durationTicks": 98,
          "midi": 60,
          "name": "C4",
          "ticks": 72974,
          "time": 95.01822916666667,
          "velocity": 0.2047244094488189
        },
        {
          "duration": 0.1276041666666572,
          "durationTicks": 98,
          "midi": 70,
          "name": "A#4",
          "ticks": 72974,
          "time": 95.01822916666667,
          "velocity": 0.2440944881889764
        },
        {
          "duration": 0,
          "durationTicks": 0,
          "midi": 94,
          "name": "A#6",
          "ticks": 72984,
          "time": 95.03125,
          "velocity": 0.05511811023622047
        },
        {
          "duration": 0.1276041666666714,
          "durationTicks": 98,
          "midi": 87,
          "name": "D#6",
          "ticks": 72984,
          "time": 95.03125,
          "velocity": 0.08661417322834646
        },
        {
          "duration": 0.1276041666666714,
          "durationTicks": 98,
          "midi": 65,
          "name": "F4",
          "ticks": 72993,
          "time": 95.04296875,
          "velocity": 0.33858267716535434
        },
        {
          "duration": 0,
          "durationTicks": 0,
          "midi": 79,
          "name": "G5",
          "ticks": 73020,
          "time": 95.078125,
          "velocity": 0.14173228346456693
        },
        {
          "duration": 0,
          "durationTicks": 0,
          "midi": 62,
          "name": "D4",
          "ticks": 73037,
          "time": 95.10026041666667,
          "velocity": 0.11023622047244094
        },
        {
          "duration": 0.12890625,
          "durationTicks": 99,
          "midi": 73,
          "name": "C#5",
          "ticks": 73037,
          "time": 95.10026041666667,
          "velocity": 0.23622047244094488
        },
        {
          "duration": 0,
          "durationTicks": 0,
          "midi": 53,
          "name": "F3",
          "ticks": 73047,
          "time": 95.11328125,
          "velocity": 0.4094488188976378
        },
        {
          "duration": 0,
          "durationTicks": 0,
          "midi": 68,
          "name": "G#4",
          "ticks": 73047,
          "time": 95.11328125,
          "velocity": 0.2204724409448819
        },
        {
          "duration": 0,
          "durationTicks": 0,
          "midi": 71,
          "name": "B4",
          "ticks": 73056,
          "time": 95.125,
          "velocity": 0.2047244094488189
        },
        {
          "duration": 0.12890625,
          "durationTicks": 99,
          "midi": 39,
          "name": "D#2",
          "ticks": 73056,
          "time": 95.125,
          "velocity": 0.3543307086614173
        },
        {
          "duration": 0,
          "durationTicks": 0,
          "midi": 52,
          "name": "E3",
          "ticks": 73065,
          "time": 95.13671875,
          "velocity": 0.4015748031496063
        },
        {
          "duration": 0,
          "durationTicks": 0,
          "midi": 51,
          "name": "D#3",
          "ticks": 73084,
          "time": 95.16145833333333,
          "velocity": 0.3937007874015748
        },
        {
          "duration": 0,
          "durationTicks": 0,
          "midi": 64,
          "name": "E4",
          "ticks": 73084,
          "time": 95.16145833333333,
          "velocity": 0.2677165354330709
        },
        {
          "duration": 0,
          "durationTicks": 0,
          "midi": 70,
          "name": "A#4",
          "ticks": 73093,
          "time": 95.17317708333333,
          "velocity": 0.11811023622047244
        },
        {
          "duration": 0,
          "durationTicks": 0,
          "midi": 68,
          "name": "G#4",
          "ticks": 73093,
          "time": 95.17317708333333,
          "velocity": 0.18110236220472442
        },
        {
          "duration": 0,
          "durationTicks": 0,
          "midi": 75,
          "name": "D#5",
          "ticks": 73093,
          "time": 95.17317708333333,
          "velocity": 0.09448818897637795
        },
        {
          "duration": 0,
          "durationTicks": 0,
          "midi": 87,
          "name": "D#6",
          "ticks": 73102,
          "time": 95.18489583333333,
          "velocity": 0.16535433070866143
        },
        {
          "duration": 0.0963541666666714,
          "durationTicks": 74,
          "midi": 50,
          "name": "D3",
          "ticks": 73102,
          "time": 95.18489583333333,
          "velocity": 0.4015748031496063
        },
        {
          "duration": 0,
          "durationTicks": 0,
          "midi": 82,
          "name": "A#5",
          "ticks": 73129,
          "time": 95.22005208333333,
          "velocity": 0.14173228346456693
        },
        {
          "duration": 0,
          "durationTicks": 0,
          "midi": 85,
          "name": "C#6",
          "ticks": 73139,
          "time": 95.23307291666667,
          "velocity": 0.08661417322834646
        },
        {
          "duration": 0.1302083333333286,
          "durationTicks": 100,
          "midi": 91,
          "name": "G6",
          "ticks": 73139,
          "time": 95.23307291666667,
          "velocity": 0.1732283464566929
        },
        {
          "duration": 0,
          "durationTicks": 0,
          "midi": 37,
          "name": "C#2",
          "ticks": 73148,
          "time": 95.24479166666667,
          "velocity": 0.2677165354330709
        },
        {
          "duration": 0,
          "durationTicks": 0,
          "midi": 75,
          "name": "D#5",
          "ticks": 73148,
          "time": 95.24479166666667,
          "velocity": 0.16535433070866143
        },
        {
          "duration": 0,
          "durationTicks": 0,
          "midi": 78,
          "name": "F#5",
          "ticks": 73148,
          "time": 95.24479166666667,
          "velocity": 0.11023622047244094
        },
        {
          "duration": 0,
          "durationTicks": 0,
          "midi": 84,
          "name": "C6",
          "ticks": 73148,
          "time": 95.24479166666667,
          "velocity": 0.05511811023622047
        },
        {
          "duration": 0.1302083333333286,
          "durationTicks": 100,
          "midi": 79,
          "name": "G5",
          "ticks": 73148,
          "time": 95.24479166666667,
          "velocity": 0.25984251968503935
        },
        {
          "duration": 0.1302083333333286,
          "durationTicks": 100,
          "midi": 70,
          "name": "A#4",
          "ticks": 73148,
          "time": 95.24479166666667,
          "velocity": 0.2283464566929134
        },
        {
          "duration": 0,
          "durationTicks": 0,
          "midi": 73,
          "name": "C#5",
          "ticks": 73157,
          "time": 95.25651041666667,
          "velocity": 0.14173228346456693
        },
        {
          "duration": 0,
          "durationTicks": 0,
          "midi": 65,
          "name": "F4",
          "ticks": 73157,
          "time": 95.25651041666667,
          "velocity": 0.1732283464566929
        },
        {
          "duration": 0.1302083333333286,
          "durationTicks": 100,
          "midi": 86,
          "name": "D6",
          "ticks": 73167,
          "time": 95.26953125,
          "velocity": 0.06299212598425197
        },
        {
          "duration": 0.032552083333328596,
          "durationTicks": 25,
          "midi": 50,
          "name": "D3",
          "ticks": 73176,
          "time": 95.28125,
          "velocity": 0.4881889763779528
        },
        {
          "duration": 0.1302083333333286,
          "durationTicks": 100,
          "midi": 61,
          "name": "C#4",
          "ticks": 73176,
          "time": 95.28125,
          "velocity": 0.2992125984251969
        },
        {
          "duration": 0,
          "durationTicks": 0,
          "midi": 87,
          "name": "D#6",
          "ticks": 73185,
          "time": 95.29296875,
          "velocity": 0.05511811023622047
        },
        {
          "duration": 0.1302083333333286,
          "durationTicks": 100,
          "midi": 75,
          "name": "D#5",
          "ticks": 73194,
          "time": 95.3046875,
          "velocity": 0.2283464566929134
        },
        {
          "duration": 0,
          "durationTicks": 0,
          "midi": 68,
          "name": "G#4",
          "ticks": 73204,
          "time": 95.31770833333333,
          "velocity": 0.14173228346456693
        },
        {
          "duration": 0,
          "durationTicks": 0,
          "midi": 94,
          "name": "A#6",
          "ticks": 73204,
          "time": 95.31770833333333,
          "velocity": 0.11023622047244094
        },
        {
          "duration": 0,
          "durationTicks": 0,
          "midi": 47,
          "name": "B2",
          "ticks": 73213,
          "time": 95.32942708333333,
          "velocity": 0.4251968503937008
        },
        {
          "duration": 0,
          "durationTicks": 0,
          "midi": 50,
          "name": "D3",
          "ticks": 73222,
          "time": 95.34114583333333,
          "velocity": 0.41732283464566927
        },
        {
          "duration": 0,
          "durationTicks": 0,
          "midi": 65,
          "name": "F4",
          "ticks": 73222,
          "time": 95.34114583333333,
          "velocity": 0.2047244094488189
        },
        {
          "duration": 0.1302083333333286,
          "durationTicks": 100,
          "midi": 89,
          "name": "F6",
          "ticks": 73232,
          "time": 95.35416666666667,
          "velocity": 0.08661417322834646
        },
        {
          "duration": 0.1302083333333286,
          "durationTicks": 100,
          "midi": 92,
          "name": "G#6",
          "ticks": 73241,
          "time": 95.36588541666667,
          "velocity": 0.15748031496062992
        },
        {
          "duration": 0,
          "durationTicks": 0,
          "midi": 84,
          "name": "C6",
          "ticks": 73250,
          "time": 95.37760416666667,
          "velocity": 0.08661417322834646
        },
        {
          "duration": 0.1302083333333286,
          "durationTicks": 100,
          "midi": 80,
          "name": "G#5",
          "ticks": 73250,
          "time": 95.37760416666667,
          "velocity": 0.28346456692913385
        },
        {
          "duration": 0.1302083333333286,
          "durationTicks": 100,
          "midi": 65,
          "name": "F4",
          "ticks": 73250,
          "time": 95.37760416666667,
          "velocity": 0.30708661417322836
        },
        {
          "duration": 0,
          "durationTicks": 0,
          "midi": 62,
          "name": "D4",
          "ticks": 73260,
          "time": 95.390625,
          "velocity": 0.25984251968503935
        },
        {
          "duration": 0,
          "durationTicks": 0,
          "midi": 51,
          "name": "D#3",
          "ticks": 73260,
          "time": 95.390625,
          "velocity": 0.4015748031496063
        },
        {
          "duration": 0,
          "durationTicks": 0,
          "midi": 31,
          "name": "G1",
          "ticks": 73260,
          "time": 95.390625,
          "velocity": 0.29133858267716534
        },
        {
          "duration": 0.12890625,
          "durationTicks": 99,
          "midi": 87,
          "name": "D#6",
          "ticks": 73278,
          "time": 95.4140625,
          "velocity": 0.13385826771653545
        },
        {
          "duration": 0,
          "durationTicks": 0,
          "midi": 59,
          "name": "B3",
          "ticks": 73287,
          "time": 95.42578125,
          "velocity": 0.23622047244094488
        },
        {
          "duration": 0.12890625,
          "durationTicks": 99,
          "midi": 68,
          "name": "G#4",
          "ticks": 73287,
          "time": 95.42578125,
          "velocity": 0.2204724409448819
        },
        {
          "duration": 0,
          "durationTicks": 0,
          "midi": 29,
          "name": "F1",
          "ticks": 73306,
          "time": 95.45052083333333,
          "velocity": 0.1732283464566929
        },
        {
          "duration": 0,
          "durationTicks": 0,
          "midi": 52,
          "name": "E3",
          "ticks": 73315,
          "time": 95.46223958333333,
          "velocity": 0.3464566929133858
        },
        {
          "duration": 0,
          "durationTicks": 0,
          "midi": 60,
          "name": "C4",
          "ticks": 73325,
          "time": 95.47526041666667,
          "velocity": 0.18110236220472442
        },
        {
          "duration": 0,
          "durationTicks": 0,
          "midi": 44,
          "name": "G#2",
          "ticks": 73334,
          "time": 95.48697916666667,
          "velocity": 0.3543307086614173
        },
        {
          "duration": 0.1276041666666572,
          "durationTicks": 98,
          "midi": 72,
          "name": "C5",
          "ticks": 73334,
          "time": 95.48697916666667,
          "velocity": 0.2440944881889764
        },
        {
          "duration": 0.2552083333333286,
          "durationTicks": 196,
          "midi": 75,
          "name": "D#5",
          "ticks": 73334,
          "time": 95.48697916666667,
          "velocity": 0.3464566929133858
        },
        {
          "duration": 0,
          "durationTicks": 0,
          "midi": 61,
          "name": "C#4",
          "ticks": 73343,
          "time": 95.49869791666667,
          "velocity": 0.2755905511811024
        },
        {
          "duration": 0.1276041666666572,
          "durationTicks": 98,
          "midi": 94,
          "name": "A#6",
          "ticks": 73343,
          "time": 95.49869791666667,
          "velocity": 0.18110236220472442
        },
        {
          "duration": 0.1276041666666714,
          "durationTicks": 98,
          "midi": 70,
          "name": "A#4",
          "ticks": 73353,
          "time": 95.51171875,
          "velocity": 0.18110236220472442
        },
        {
          "duration": 0,
          "durationTicks": 0,
          "midi": 44,
          "name": "G#2",
          "ticks": 73370,
          "time": 95.53385416666667,
          "velocity": 0.4015748031496063
        },
        {
          "duration": 0,
          "durationTicks": 0,
          "midi": 89,
          "name": "F6",
          "ticks": 73370,
          "time": 95.53385416666667,
          "velocity": 0.05511811023622047
        },
        {
          "duration": 0,
          "durationTicks": 0,
          "midi": 45,
          "name": "A2",
          "ticks": 73389,
          "time": 95.55859375,
          "velocity": 0.47244094488188976
        },
        {
          "duration": 0.2552083333333286,
          "durationTicks": 196,
          "midi": 68,
          "name": "G#4",
          "ticks": 73398,
          "time": 95.5703125,
          "velocity": 0.3228346456692913
        },
        {
          "duration": 0,
          "durationTicks": 0,
          "midi": 65,
          "name": "F4",
          "ticks": 73407,
          "time": 95.58203125,
          "velocity": 0.11023622047244094
        },
        {
          "duration": 0.1276041666666714,
          "durationTicks": 98,
          "midi": 72,
          "name": "C5",
          "ticks": 73434,
          "time": 95.6171875,
          "velocity": 0.2677165354330709
        },
        {
          "duration": 0,
          "durationTicks": 0,
          "midi": 42,
          "name": "F#2",
          "ticks": 73444,
          "time": 95.63020833333333,
          "velocity": 0.4015748031496063
        },
        {
          "duration": 0,
          "durationTicks": 0,
          "midi": 57,
          "name": "A3",
          "ticks": 73444,
          "time": 95.63020833333333,
          "velocity": 0.30708661417322836
        },
        {
          "duration": 0,
          "durationTicks": 0,
          "midi": 70,
          "name": "A#4",
          "ticks": 73453,
          "time": 95.64192708333333,
          "velocity": 0.11023622047244094
        },
        {
          "duration": 0,
          "durationTicks": 0,
          "midi": 42,
          "name": "F#2",
          "ticks": 73471,
          "time": 95.66536458333333,
          "velocity": 0.4409448818897638
        },
        {
          "duration": 0,
          "durationTicks": 0,
          "midi": 89,
          "name": "F6",
          "ticks": 73471,
          "time": 95.66536458333333,
          "velocity": 0.06299212598425197
        },
        {
          "duration": 0,
          "durationTicks": 0,
          "midi": 41,
          "name": "F2",
          "ticks": 73480,
          "time": 95.67708333333333,
          "velocity": 0.47244094488188976
        },
        {
          "duration": 0,
          "durationTicks": 0,
          "midi": 92,
          "name": "G#6",
          "ticks": 73497,
          "time": 95.69921875,
          "velocity": 0.07086614173228346
        },
        {
          "duration": 0,
          "durationTicks": 0,
          "midi": 39,
          "name": "D#2",
          "ticks": 73507,
          "time": 95.71223958333333,
          "velocity": 0.3779527559055118
        },
        {
          "duration": 0,
          "durationTicks": 0,
          "midi": 58,
          "name": "A#3",
          "ticks": 73516,
          "time": 95.72395833333333,
          "velocity": 0.13385826771653545
        },
        {
          "duration": 0,
          "durationTicks": 0,
          "midi": 63,
          "name": "D#4",
          "ticks": 73525,
          "time": 95.73567708333333,
          "velocity": 0.10236220472440945
        },
        {
          "duration": 0.1276041666666714,
          "durationTicks": 98,
          "midi": 91,
          "name": "G6",
          "ticks": 73525,
          "time": 95.73567708333333,
          "velocity": 0.2204724409448819
        },
        {
          "duration": 0.1276041666666714,
          "durationTicks": 98,
          "midi": 82,
          "name": "A#5",
          "ticks": 73525,
          "time": 95.73567708333333,
          "velocity": 0.08661417322834646
        },
        {
          "duration": 0,
          "durationTicks": 0,
          "midi": 30,
          "name": "F#1",
          "ticks": 73544,
          "time": 95.76041666666667,
          "velocity": 0.4251968503937008
        },
        {
          "duration": 0,
          "durationTicks": 0,
          "midi": 67,
          "name": "G4",
          "ticks": 73553,
          "time": 95.77213541666667,
          "velocity": 0.2283464566929134
        },
        {
          "duration": 0.09375,
          "durationTicks": 72,
          "midi": 70,
          "name": "A#4",
          "ticks": 73563,
          "time": 95.78515625,
          "velocity": 0.15748031496062992
        },
        {
          "duration": 0,
          "durationTicks": 0,
          "midi": 48,
          "name": "C3",
          "ticks": 73580,
          "time": 95.80729166666667,
          "velocity": 0.14173228346456693
        },
        {
          "duration": 0,
          "durationTicks": 0,
          "midi": 67,
          "name": "G4",
          "ticks": 73580,
          "time": 95.80729166666667,
          "velocity": 0.2204724409448819
        },
        {
          "duration": 0.1263020833333286,
          "durationTicks": 97,
          "midi": 29,
          "name": "F1",
          "ticks": 73589,
          "time": 95.81901041666667,
          "velocity": 0.3779527559055118
        },
        {
          "duration": 0.2513020833333286,
          "durationTicks": 193,
          "midi": 75,
          "name": "D#5",
          "ticks": 73589,
          "time": 95.81901041666667,
          "velocity": 0.1732283464566929
        },
        {
          "duration": 0,
          "durationTicks": 0,
          "midi": 65,
          "name": "F4",
          "ticks": 73599,
          "time": 95.83203125,
          "velocity": 0.14173228346456693
        },
        {
          "duration": 0.2526041666666572,
          "durationTicks": 194,
          "midi": 72,
          "name": "C5",
          "ticks": 73616,
          "time": 95.85416666666667,
          "velocity": 0.1968503937007874
        },
        {
          "duration": 0.125,
          "durationTicks": 96,
          "midi": 48,
          "name": "C3",
          "ticks": 73626,
          "time": 95.8671875,
          "velocity": 0.09448818897637795
        },
        {
          "duration": 0.2526041666666714,
          "durationTicks": 194,
          "midi": 68,
          "name": "G#4",
          "ticks": 73626,
          "time": 95.8671875,
          "velocity": 0.25984251968503935
        },
        {
          "duration": 0.032552083333328596,
          "durationTicks": 25,
          "midi": 70,
          "name": "A#4",
          "ticks": 73635,
          "time": 95.87890625,
          "velocity": 0.07874015748031496
        },
        {
          "duration": 0,
          "durationTicks": 0,
          "midi": 89,
          "name": "F6",
          "ticks": 73653,
          "time": 95.90234375,
          "velocity": 0.07874015748031496
        },
        {
          "duration": 0.1276041666666572,
          "durationTicks": 98,
          "midi": 77,
          "name": "F5",
          "ticks": 73724,
          "time": 95.99479166666667,
          "velocity": 0.14173228346456693
        },
        {
          "duration": 0.1276041666666572,
          "durationTicks": 98,
          "midi": 65,
          "name": "F4",
          "ticks": 73733,
          "time": 96.00651041666667,
          "velocity": 0.2047244094488189
        },
        {
          "duration": 0,
          "durationTicks": 0,
          "midi": 69,
          "name": "A4",
          "ticks": 73787,
          "time": 96.07682291666667,
          "velocity": 0.25984251968503935
        },
        {
          "duration": 0.25390625,
          "durationTicks": 195,
          "midi": 79,
          "name": "G5",
          "ticks": 73796,
          "time": 96.08854166666667,
          "velocity": 0.1968503937007874
        },
        {
          "duration": 0.1263020833333286,
          "durationTicks": 97,
          "midi": 67,
          "name": "G4",
          "ticks": 73806,
          "time": 96.1015625,
          "velocity": 0.25984251968503935
        },
        {
          "duration": 0.25390625,
          "durationTicks": 195,
          "midi": 70,
          "name": "A#4",
          "ticks": 73806,
          "time": 96.1015625,
          "velocity": 0.2992125984251969
        },
        {
          "duration": 0,
          "durationTicks": 0,
          "midi": 84,
          "name": "C6",
          "ticks": 73824,
          "time": 96.125,
          "velocity": 0.11811023622047244
        },
        {
          "duration": 0.1276041666666714,
          "durationTicks": 98,
          "midi": 89,
          "name": "F6",
          "ticks": 73869,
          "time": 96.18359375,
          "velocity": 0.07086614173228346
        },
        {
          "duration": 0.036458333333328596,
          "durationTicks": 28,
          "midi": 86,
          "name": "D6",
          "ticks": 73896,
          "time": 96.21875,
          "velocity": 0.10236220472440945
        },
        {
          "duration": 0,
          "durationTicks": 0,
          "midi": 68,
          "name": "G#4",
          "ticks": 73914,
          "time": 96.2421875,
          "velocity": 0.23622047244094488
        },
        {
          "duration": 0,
          "durationTicks": 0,
          "midi": 37,
          "name": "C#2",
          "ticks": 73924,
          "time": 96.25520833333333,
          "velocity": 0.25984251968503935
        },
        {
          "duration": 0.09114583333334281,
          "durationTicks": 70,
          "midi": 86,
          "name": "D6",
          "ticks": 73924,
          "time": 96.25520833333333,
          "velocity": 0.06299212598425197
        },
        {
          "duration": 0,
          "durationTicks": 0,
          "midi": 57,
          "name": "A3",
          "ticks": 73933,
          "time": 96.26692708333333,
          "velocity": 0.29133858267716534
        },
        {
          "duration": 0,
          "durationTicks": 0,
          "midi": 75,
          "name": "D#5",
          "ticks": 73933,
          "time": 96.26692708333333,
          "velocity": 0.08661417322834646
        },
        {
          "duration": 0.1263020833333428,
          "durationTicks": 97,
          "midi": 67,
          "name": "G4",
          "ticks": 73933,
          "time": 96.26692708333333,
          "velocity": 0.1889763779527559
        },
        {
          "duration": 0.1263020833333428,
          "durationTicks": 97,
          "midi": 89,
          "name": "F6",
          "ticks": 73933,
          "time": 96.26692708333333,
          "velocity": 0.08661417322834646
        },
        {
          "duration": 0,
          "durationTicks": 0,
          "midi": 38,
          "name": "D2",
          "ticks": 73942,
          "time": 96.27864583333333,
          "velocity": 0.2283464566929134
        },
        {
          "duration": 0,
          "durationTicks": 0,
          "midi": 57,
          "name": "A3",
          "ticks": 73987,
          "time": 96.33723958333333,
          "velocity": 0.10236220472440945
        },
        {
          "duration": 0.1263020833333428,
          "durationTicks": 97,
          "midi": 72,
          "name": "C5",
          "ticks": 73996,
          "time": 96.34895833333333,
          "velocity": 0.13385826771653545
        },
        {
          "duration": 0,
          "durationTicks": 0,
          "midi": 68,
          "name": "G#4",
          "ticks": 74023,
          "time": 96.38411458333333,
          "velocity": 0.15748031496062992
        },
        {
          "duration": 0.125,
          "durationTicks": 96,
          "midi": 68,
          "name": "G#4",
          "ticks": 74086,
          "time": 96.46614583333333,
          "velocity": 0.25984251968503935
        },
        {
          "duration": 0.125,
          "durationTicks": 96,
          "midi": 77,
          "name": "F5",
          "ticks": 74105,
          "time": 96.49088541666667,
          "velocity": 0.14173228346456693
        },
        {
          "duration": 0.6302083333333286,
          "durationTicks": 484,
          "midi": 79,
          "name": "G5",
          "ticks": 74105,
          "time": 96.49088541666667,
          "velocity": 0.2125984251968504
        },
        {
          "duration": 0,
          "durationTicks": 0,
          "midi": 65,
          "name": "F4",
          "ticks": 74122,
          "time": 96.51302083333333,
          "velocity": 0.1968503937007874
        },
        {
          "duration": 0,
          "durationTicks": 0,
          "midi": 68,
          "name": "G#4",
          "ticks": 74194,
          "time": 96.60677083333333,
          "velocity": 0.2283464566929134
        },
        {
          "duration": 0.8828125,
          "durationTicks": 678,
          "midi": 70,
          "name": "A#4",
          "ticks": 74203,
          "time": 96.61848958333333,
          "velocity": 0.2677165354330709
        },
        {
          "duration": 0.25390625,
          "durationTicks": 195,
          "midi": 67,
          "name": "G4",
          "ticks": 74212,
          "time": 96.63020833333333,
          "velocity": 0.2283464566929134
        },
        {
          "duration": 0.1263020833333286,
          "durationTicks": 97,
          "midi": 75,
          "name": "D#5",
          "ticks": 74222,
          "time": 96.64322916666667,
          "velocity": 0.07874015748031496
        },
        {
          "duration": 0.1276041666666714,
          "durationTicks": 98,
          "midi": 86,
          "name": "D6",
          "ticks": 74266,
          "time": 96.70052083333333,
          "velocity": 0.05511811023622047
        },
        {
          "duration": 0,
          "durationTicks": 0,
          "midi": 45,
          "name": "A2",
          "ticks": 74293,
          "time": 96.73567708333333,
          "velocity": 0.25984251968503935
        },
        {
          "duration": 0.1276041666666714,
          "durationTicks": 98,
          "midi": 89,
          "name": "F6",
          "ticks": 74302,
          "time": 96.74739583333333,
          "velocity": 0.06299212598425197
        },
        {
          "duration": 0,
          "durationTicks": 0,
          "midi": 29,
          "name": "F1",
          "ticks": 74312,
          "time": 96.76041666666667,
          "velocity": 0.41732283464566927
        },
        {
          "duration": 0,
          "durationTicks": 0,
          "midi": 30,
          "name": "F#1",
          "ticks": 74321,
          "time": 96.77213541666667,
          "velocity": 0.4251968503937008
        },
        {
          "duration": 0,
          "durationTicks": 0,
          "midi": 48,
          "name": "C3",
          "ticks": 74348,
          "time": 96.80729166666667,
          "velocity": 0.13385826771653545
        },
        {
          "duration": 0.1263020833333286,
          "durationTicks": 97,
          "midi": 29,
          "name": "F1",
          "ticks": 74357,
          "time": 96.81901041666667,
          "velocity": 0.3779527559055118
        },
        {
          "duration": 0.1263020833333286,
          "durationTicks": 97,
          "midi": 48,
          "name": "C3",
          "ticks": 74393,
          "time": 96.86588541666667,
          "velocity": 0.09448818897637795
        },
        {
          "duration": 0.25,
          "durationTicks": 192,
          "midi": 67,
          "name": "G4",
          "ticks": 74430,
          "time": 96.9140625,
          "velocity": 0.1968503937007874
        },
        {
          "duration": 0,
          "durationTicks": 0,
          "midi": 68,
          "name": "G#4",
          "ticks": 74582,
          "time": 97.11197916666667,
          "velocity": 0.10236220472440945
        },
        {
          "duration": 0.125,
          "durationTicks": 96,
          "midi": 79,
          "name": "G5",
          "ticks": 74591,
          "time": 97.12369791666667,
          "velocity": 0.2283464566929134
        },
        {
          "duration": 0.1263020833333286,
          "durationTicks": 97,
          "midi": 67,
          "name": "G4",
          "ticks": 74609,
          "time": 97.14713541666667,
          "velocity": 0.14173228346456693
        },
        {
          "duration": 0,
          "durationTicks": 0,
          "midi": 66,
          "name": "F#4",
          "ticks": 74671,
          "time": 97.22786458333333,
          "velocity": 0.2283464566929134
        },
        {
          "duration": 0,
          "durationTicks": 0,
          "midi": 72,
          "name": "C5",
          "ticks": 74671,
          "time": 97.22786458333333,
          "velocity": 0.11811023622047244
        },
        {
          "duration": 0,
          "durationTicks": 0,
          "midi": 56,
          "name": "G#3",
          "ticks": 74680,
          "time": 97.23958333333333,
          "velocity": 0.2992125984251969
        },
        {
          "duration": 0,
          "durationTicks": 0,
          "midi": 86,
          "name": "D6",
          "ticks": 74680,
          "time": 97.23958333333333,
          "velocity": 0.08661417322834646
        },
        {
          "duration": 0,
          "durationTicks": 0,
          "midi": 80,
          "name": "G#5",
          "ticks": 74680,
          "time": 97.23958333333333,
          "velocity": 0.14960629921259844
        },
        {
          "duration": 0,
          "durationTicks": 0,
          "midi": 84,
          "name": "C6",
          "ticks": 74680,
          "time": 97.23958333333333,
          "velocity": 0.13385826771653545
        },
        {
          "duration": 0.2526041666666714,
          "durationTicks": 194,
          "midi": 77,
          "name": "F5",
          "ticks": 74680,
          "time": 97.23958333333333,
          "velocity": 0.1968503937007874
        },
        {
          "duration": 0.2526041666666714,
          "durationTicks": 194,
          "midi": 65,
          "name": "F4",
          "ticks": 74689,
          "time": 97.25130208333333,
          "velocity": 0.2204724409448819
        },
        {
          "duration": 0,
          "durationTicks": 0,
          "midi": 87,
          "name": "D#6",
          "ticks": 74699,
          "time": 97.26432291666667,
          "velocity": 0.07086614173228346
        },
        {
          "duration": 0.1263020833333286,
          "durationTicks": 97,
          "midi": 31,
          "name": "G1",
          "ticks": 74699,
          "time": 97.26432291666667,
          "velocity": 0.36220472440944884
        },
        {
          "duration": 0,
          "durationTicks": 0,
          "midi": 56,
          "name": "G#3",
          "ticks": 74708,
          "time": 97.27604166666667,
          "velocity": 0.1889763779527559
        },
        {
          "duration": 0.125,
          "durationTicks": 96,
          "midi": 50,
          "name": "D3",
          "ticks": 74744,
          "time": 97.32291666666667,
          "velocity": 0.08661417322834646
        },
        {
          "duration": 0,
          "durationTicks": 0,
          "midi": 57,
          "name": "A3",
          "ticks": 74753,
          "time": 97.33463541666667,
          "velocity": 0.11023622047244094
        },
        {
          "duration": 0.125,
          "durationTicks": 96,
          "midi": 31,
          "name": "G1",
          "ticks": 74771,
          "time": 97.35807291666667,
          "velocity": 0.3543307086614173
        },
        {
          "duration": 0.2526041666666572,
          "durationTicks": 194,
          "midi": 72,
          "name": "C5",
          "ticks": 74888,
          "time": 97.51041666666667,
          "velocity": 0.25984251968503935
        },
        {
          "duration": 0.2526041666666572,
          "durationTicks": 194,
          "midi": 79,
          "name": "G5",
          "ticks": 74888,
          "time": 97.51041666666667,
          "velocity": 0.23622047244094488
        },
        {
          "duration": 0.2526041666666572,
          "durationTicks": 194,
          "midi": 67,
          "name": "G4",
          "ticks": 74888,
          "time": 97.51041666666667,
          "velocity": 0.2204724409448819
        },
        {
          "duration": 0.1263020833333286,
          "durationTicks": 97,
          "midi": 58,
          "name": "A#3",
          "ticks": 74915,
          "time": 97.54557291666667,
          "velocity": 0.25196850393700787
        },
        {
          "duration": 0,
          "durationTicks": 0,
          "midi": 86,
          "name": "D6",
          "ticks": 74933,
          "time": 97.56901041666667,
          "velocity": 0.05511811023622047
        },
        {
          "duration": 0,
          "durationTicks": 0,
          "midi": 44,
          "name": "G#2",
          "ticks": 74959,
          "time": 97.60286458333333,
          "velocity": 0.3858267716535433
        },
        {
          "duration": 0,
          "durationTicks": 0,
          "midi": 60,
          "name": "C4",
          "ticks": 74969,
          "time": 97.61588541666667,
          "velocity": 0.28346456692913385
        },
        {
          "duration": 0,
          "durationTicks": 0,
          "midi": 45,
          "name": "A2",
          "ticks": 74978,
          "time": 97.62760416666667,
          "velocity": 0.3779527559055118
        },
        {
          "duration": 0,
          "durationTicks": 0,
          "midi": 31,
          "name": "G1",
          "ticks": 74987,
          "time": 97.63932291666667,
          "velocity": 0.29133858267716534
        },
        {
          "duration": 0,
          "durationTicks": 0,
          "midi": 64,
          "name": "E4",
          "ticks": 74997,
          "time": 97.65234375,
          "velocity": 0.1889763779527559
        },
        {
          "duration": 0.1263020833333286,
          "durationTicks": 97,
          "midi": 44,
          "name": "G#2",
          "ticks": 74997,
          "time": 97.65234375,
          "velocity": 0.36220472440944884
        },
        {
          "duration": 0,
          "durationTicks": 0,
          "midi": 60,
          "name": "C4",
          "ticks": 75024,
          "time": 97.6875,
          "velocity": 0.18110236220472442
        },
        {
          "duration": 0.1263020833333286,
          "durationTicks": 97,
          "midi": 63,
          "name": "D#4",
          "ticks": 75024,
          "time": 97.6875,
          "velocity": 0.2125984251968504
        },
        {
          "duration": 0.1263020833333286,
          "durationTicks": 97,
          "midi": 73,
          "name": "C#5",
          "ticks": 75050,
          "time": 97.72135416666667,
          "velocity": 0.25984251968503935
        },
        {
          "duration": 0.1263020833333286,
          "durationTicks": 97,
          "midi": 80,
          "name": "G#5",
          "ticks": 75060,
          "time": 97.734375,
          "velocity": 0.14960629921259844
        },
        {
          "duration": 0,
          "durationTicks": 0,
          "midi": 68,
          "name": "G#4",
          "ticks": 75069,
          "time": 97.74609375,
          "velocity": 0.29133858267716534
        },
        {
          "duration": 0,
          "durationTicks": 0,
          "midi": 67,
          "name": "G4",
          "ticks": 75087,
          "time": 97.76953125,
          "velocity": 0.25196850393700787
        },
        {
          "duration": 0.1263020833333286,
          "durationTicks": 97,
          "midi": 77,
          "name": "F5",
          "ticks": 75087,
          "time": 97.76953125,
          "velocity": 0.08661417322834646
        },
        {
          "duration": 0,
          "durationTicks": 0,
          "midi": 68,
          "name": "G#4",
          "ticks": 75105,
          "time": 97.79296875,
          "velocity": 0.2677165354330709
        },
        {
          "duration": 0.125,
          "durationTicks": 96,
          "midi": 58,
          "name": "A#3",
          "ticks": 75105,
          "time": 97.79296875,
          "velocity": 0.16535433070866143
        },
        {
          "duration": 0,
          "durationTicks": 0,
          "midi": 69,
          "name": "A4",
          "ticks": 75123,
          "time": 97.81640625,
          "velocity": 0.1968503937007874
        },
        {
          "duration": 0,
          "durationTicks": 0,
          "midi": 74,
          "name": "D5",
          "ticks": 75123,
          "time": 97.81640625,
          "velocity": 0.23622047244094488
        },
        {
          "duration": 0,
          "durationTicks": 0,
          "midi": 67,
          "name": "G4",
          "ticks": 75140,
          "time": 97.83854166666667,
          "velocity": 0.11811023622047244
        },
        {
          "duration": 0.25390625,
          "durationTicks": 195,
          "midi": 70,
          "name": "A#4",
          "ticks": 75140,
          "time": 97.83854166666667,
          "velocity": 0.2125984251968504
        },
        {
          "duration": 0.25390625,
          "durationTicks": 195,
          "midi": 82,
          "name": "A#5",
          "ticks": 75140,
          "time": 97.83854166666667,
          "velocity": 0.2125984251968504
        },
        {
          "duration": 0.25390625,
          "durationTicks": 195,
          "midi": 75,
          "name": "D#5",
          "ticks": 75140,
          "time": 97.83854166666667,
          "velocity": 0.25984251968503935
        },
        {
          "duration": 0.1263020833333286,
          "durationTicks": 97,
          "midi": 44,
          "name": "G#2",
          "ticks": 75150,
          "time": 97.8515625,
          "velocity": 0.36220472440944884
        },
        {
          "duration": 0.1263020833333286,
          "durationTicks": 97,
          "midi": 63,
          "name": "D#4",
          "ticks": 75159,
          "time": 97.86328125,
          "velocity": 0.15748031496062992
        },
        {
          "duration": 0.1276041666666714,
          "durationTicks": 98,
          "midi": 79,
          "name": "G5",
          "ticks": 75177,
          "time": 97.88671875,
          "velocity": 0.11811023622047244
        },
        {
          "duration": 0,
          "durationTicks": 0,
          "midi": 60,
          "name": "C4",
          "ticks": 75213,
          "time": 97.93359375,
          "velocity": 0.1732283464566929
        },
        {
          "duration": 0.1276041666666714,
          "durationTicks": 98,
          "midi": 67,
          "name": "G4",
          "ticks": 75240,
          "time": 97.96875,
          "velocity": 0.13385826771653545
        },
        {
          "duration": 0,
          "durationTicks": 0,
          "midi": 30,
          "name": "F#1",
          "ticks": 75249,
          "time": 97.98046875,
          "velocity": 0.36220472440944884
        },
        {
          "duration": 0.1263020833333428,
          "durationTicks": 97,
          "midi": 63,
          "name": "D#4",
          "ticks": 75268,
          "time": 98.00520833333333,
          "velocity": 0.12598425196850394
        },
        {
          "duration": 0,
          "durationTicks": 0,
          "midi": 32,
          "name": "G#1",
          "ticks": 75277,
          "time": 98.01692708333333,
          "velocity": 0.33858267716535434
        },
        {
          "duration": 0,
          "durationTicks": 0,
          "midi": 60,
          "name": "C4",
          "ticks": 75295,
          "time": 98.04036458333333,
          "velocity": 0.11023622047244094
        },
        {
          "duration": 0,
          "durationTicks": 0,
          "midi": 33,
          "name": "A1",
          "ticks": 75304,
          "time": 98.05208333333333,
          "velocity": 0.31496062992125984
        },
        {
          "duration": 0.25,
          "durationTicks": 192,
          "midi": 82,
          "name": "A#5",
          "ticks": 75429,
          "time": 98.21484375,
          "velocity": 0.11023622047244094
        },
        {
          "duration": 0.125,
          "durationTicks": 96,
          "midi": 72,
          "name": "C5",
          "ticks": 75438,
          "time": 98.2265625,
          "velocity": 0.2755905511811024
        },
        {
          "duration": 0.125,
          "durationTicks": 96,
          "midi": 80,
          "name": "G#5",
          "ticks": 75438,
          "time": 98.2265625,
          "velocity": 0.1889763779527559
        },
        {
          "duration": 0,
          "durationTicks": 0,
          "midi": 34,
          "name": "A#1",
          "ticks": 75448,
          "time": 98.23958333333333,
          "velocity": 0.4015748031496063
        },
        {
          "duration": 0,
          "durationTicks": 0,
          "midi": 51,
          "name": "D#3",
          "ticks": 75448,
          "time": 98.23958333333333,
          "velocity": 0.14173228346456693
        },
        {
          "duration": 0,
          "durationTicks": 0,
          "midi": 85,
          "name": "C#6",
          "ticks": 75448,
          "time": 98.23958333333333,
          "velocity": 0.08661417322834646
        },
        {
          "duration": 0,
          "durationTicks": 0,
          "midi": 86,
          "name": "D6",
          "ticks": 75448,
          "time": 98.23958333333333,
          "velocity": 0.08661417322834646
        },
        {
          "duration": 0,
          "durationTicks": 0,
          "midi": 56,
          "name": "G#3",
          "ticks": 75448,
          "time": 98.23958333333333,
          "velocity": 0.28346456692913385
        },
        {
          "duration": 0,
          "durationTicks": 0,
          "midi": 64,
          "name": "E4",
          "ticks": 75448,
          "time": 98.23958333333333,
          "velocity": 0.05511811023622047
        },
        {
          "duration": 0,
          "durationTicks": 0,
          "midi": 88,
          "name": "E6",
          "ticks": 75448,
          "time": 98.23958333333333,
          "velocity": 0.07086614173228346
        },
        {
          "duration": 0,
          "durationTicks": 0,
          "midi": 87,
          "name": "D#6",
          "ticks": 75457,
          "time": 98.25130208333333,
          "velocity": 0.11811023622047244
        },
        {
          "duration": 0,
          "durationTicks": 0,
          "midi": 32,
          "name": "G#1",
          "ticks": 75475,
          "time": 98.27473958333333,
          "velocity": 0.3464566929133858
        },
        {
          "duration": 0.1236979166666714,
          "durationTicks": 95,
          "midi": 91,
          "name": "G6",
          "ticks": 75475,
          "time": 98.27473958333333,
          "velocity": 0.08661417322834646
        },
        {
          "duration": 0,
          "durationTicks": 0,
          "midi": 33,
          "name": "A1",
          "ticks": 75492,
          "time": 98.296875,
          "velocity": 0.36220472440944884
        },
        {
          "duration": 0,
          "durationTicks": 0,
          "midi": 51,
          "name": "D#3",
          "ticks": 75492,
          "time": 98.296875,
          "velocity": 0.07086614173228346
        },
        {
          "duration": 0,
          "durationTicks": 0,
          "midi": 32,
          "name": "G#1",
          "ticks": 75510,
          "time": 98.3203125,
          "velocity": 0.3464566929133858
        },
        {
          "duration": 0.125,
          "durationTicks": 96,
          "midi": 63,
          "name": "D#4",
          "ticks": 75554,
          "time": 98.37760416666667,
          "velocity": 0.07874015748031496
        },
        {
          "duration": 0,
          "durationTicks": 0,
          "midi": 67,
          "name": "G4",
          "ticks": 75590,
          "time": 98.42447916666667,
          "velocity": 0.09448818897637795
        },
        {
          "duration": 0,
          "durationTicks": 0,
          "midi": 70,
          "name": "A#4",
          "ticks": 75634,
          "time": 98.48177083333333,
          "velocity": 0.25984251968503935
        },
        {
          "duration": 0,
          "durationTicks": 0,
          "midi": 79,
          "name": "G5",
          "ticks": 75634,
          "time": 98.48177083333333,
          "velocity": 0.14173228346456693
        },
        {
          "duration": 0,
          "durationTicks": 0,
          "midi": 67,
          "name": "G4",
          "ticks": 75643,
          "time": 98.49348958333333,
          "velocity": 0.1732283464566929
        },
        {
          "duration": 0,
          "durationTicks": 0,
          "midi": 89,
          "name": "F6",
          "ticks": 75653,
          "time": 98.50651041666667,
          "velocity": 0.05511811023622047
        },
        {
          "duration": 0.2486979166666714,
          "durationTicks": 191,
          "midi": 65,
          "name": "F4",
          "ticks": 75724,
          "time": 98.59895833333333,
          "velocity": 0.2047244094488189
        },
        {
          "duration": 0.2486979166666714,
          "durationTicks": 191,
          "midi": 72,
          "name": "C5",
          "ticks": 75724,
          "time": 98.59895833333333,
          "velocity": 0.25984251968503935
        },
        {
          "duration": 0,
          "durationTicks": 0,
          "midi": 60,
          "name": "C4",
          "ticks": 75805,
          "time": 98.70442708333333,
          "velocity": 0.08661417322834646
        },
        {
          "duration": 0,
          "durationTicks": 0,
          "midi": 91,
          "name": "G6",
          "ticks": 75822,
          "time": 98.7265625,
          "velocity": 0.06299212598425197
        },
        {
          "duration": 0,
          "durationTicks": 0,
          "midi": 31,
          "name": "G1",
          "ticks": 75858,
          "time": 98.7734375,
          "velocity": 0.25984251968503935
        },
        {
          "duration": 0,
          "durationTicks": 0,
          "midi": 62,
          "name": "D4",
          "ticks": 75902,
          "time": 98.83072916666667,
          "velocity": 0.2047244094488189
        },
        {
          "duration": 0,
          "durationTicks": 0,
          "midi": 69,
          "name": "A4",
          "ticks": 75902,
          "time": 98.83072916666667,
          "velocity": 0.23622047244094488
        },
        {
          "duration": 0,
          "durationTicks": 0,
          "midi": 67,
          "name": "G4",
          "ticks": 75920,
          "time": 98.85416666666667,
          "velocity": 0.08661417322834646
        },
        {
          "duration": 0.125,
          "durationTicks": 96,
          "midi": 63,
          "name": "D#4",
          "ticks": 75920,
          "time": 98.85416666666667,
          "velocity": 0.2125984251968504
        },
        {
          "duration": 0.125,
          "durationTicks": 96,
          "midi": 70,
          "name": "A#4",
          "ticks": 75920,
          "time": 98.85416666666667,
          "velocity": 0.25984251968503935
        },
        {
          "duration": 0.125,
          "durationTicks": 96,
          "midi": 77,
          "name": "F5",
          "ticks": 76018,
          "time": 98.98177083333333,
          "velocity": 0.2283464566929134
        },
        {
          "duration": 0,
          "durationTicks": 0,
          "midi": 31,
          "name": "G1",
          "ticks": 76027,
          "time": 98.99348958333333,
          "velocity": 0.29133858267716534
        },
        {
          "duration": 0.125,
          "durationTicks": 96,
          "midi": 65,
          "name": "F4",
          "ticks": 76027,
          "time": 98.99348958333333,
          "velocity": 0.2283464566929134
        },
        {
          "duration": 0.125,
          "durationTicks": 96,
          "midi": 72,
          "name": "C5",
          "ticks": 76027,
          "time": 98.99348958333333,
          "velocity": 0.25196850393700787
        },
        {
          "duration": 0.125,
          "durationTicks": 96,
          "midi": 91,
          "name": "G6",
          "ticks": 76045,
          "time": 99.01692708333333,
          "velocity": 0.05511811023622047
        },
        {
          "duration": 0,
          "durationTicks": 0,
          "midi": 29,
          "name": "F1",
          "ticks": 76072,
          "time": 99.05208333333333,
          "velocity": 0.1732283464566929
        },
        {
          "duration": 0,
          "durationTicks": 0,
          "midi": 32,
          "name": "G#1",
          "ticks": 76090,
          "time": 99.07552083333333,
          "velocity": 0.2755905511811024
        },
        {
          "duration": 0.1263020833333286,
          "durationTicks": 97,
          "midi": 51,
          "name": "D#3",
          "ticks": 76107,
          "time": 99.09765625,
          "velocity": 0.1968503937007874
        },
        {
          "duration": 0.1263020833333286,
          "durationTicks": 97,
          "midi": 32,
          "name": "G#1",
          "ticks": 76116,
          "time": 99.109375,
          "velocity": 0.3464566929133858
        },
        {
          "duration": 0.1263020833333428,
          "durationTicks": 97,
          "midi": 63,
          "name": "D#4",
          "ticks": 76126,
          "time": 99.12239583333333,
          "velocity": 0.25196850393700787
        },
        {
          "duration": 0.1263020833333428,
          "durationTicks": 97,
          "midi": 70,
          "name": "A#4",
          "ticks": 76126,
          "time": 99.12239583333333,
          "velocity": 0.2755905511811024
        },
        {
          "duration": 0,
          "durationTicks": 0,
          "midi": 80,
          "name": "G#5",
          "ticks": 76197,
          "time": 99.21484375,
          "velocity": 0.14173228346456693
        },
        {
          "duration": 0,
          "durationTicks": 0,
          "midi": 86,
          "name": "D6",
          "ticks": 76197,
          "time": 99.21484375,
          "velocity": 0.07086614173228346
        },
        {
          "duration": 0,
          "durationTicks": 0,
          "midi": 44,
          "name": "G#2",
          "ticks": 76206,
          "time": 99.2265625,
          "velocity": 0.3779527559055118
        },
        {
          "duration": 0,
          "durationTicks": 0,
          "midi": 57,
          "name": "A3",
          "ticks": 76206,
          "time": 99.2265625,
          "velocity": 0.2992125984251969
        },
        {
          "duration": 0.1263020833333286,
          "durationTicks": 97,
          "midi": 79,
          "name": "G5",
          "ticks": 76206,
          "time": 99.2265625,
          "velocity": 0.12598425196850394
        },
        {
          "duration": 0.1263020833333286,
          "durationTicks": 97,
          "midi": 72,
          "name": "C5",
          "ticks": 76206,
          "time": 99.2265625,
          "velocity": 0.1968503937007874
        },
        {
          "duration": 0,
          "durationTicks": 0,
          "midi": 56,
          "name": "G#3",
          "ticks": 76225,
          "time": 99.25130208333333,
          "velocity": 0.2283464566929134
        },
        {
          "duration": 0,
          "durationTicks": 0,
          "midi": 60,
          "name": "C4",
          "ticks": 76225,
          "time": 99.25130208333333,
          "velocity": 0.2283464566929134
        },
        {
          "duration": 0,
          "durationTicks": 0,
          "midi": 68,
          "name": "G#4",
          "ticks": 76225,
          "time": 99.25130208333333,
          "velocity": 0.25196850393700787
        },
        {
          "duration": 0.1263020833333428,
          "durationTicks": 97,
          "midi": 44,
          "name": "G#2",
          "ticks": 76234,
          "time": 99.26302083333333,
          "velocity": 0.3700787401574803
        },
        {
          "duration": 0.1263020833333428,
          "durationTicks": 97,
          "midi": 63,
          "name": "D#4",
          "ticks": 76234,
          "time": 99.26302083333333,
          "velocity": 0.11023622047244094
        },
        {
          "duration": 0,
          "durationTicks": 0,
          "midi": 67,
          "name": "G4",
          "ticks": 76270,
          "time": 99.30989583333333,
          "velocity": 0.2440944881889764
        },
        {
          "duration": 0,
          "durationTicks": 0,
          "midi": 71,
          "name": "B4",
          "ticks": 76270,
          "time": 99.30989583333333,
          "velocity": 0.2125984251968504
        },
        {
          "duration": 0,
          "durationTicks": 0,
          "midi": 58,
          "name": "A#3",
          "ticks": 76279,
          "time": 99.32161458333333,
          "velocity": 0.2440944881889764
        },
        {
          "duration": 0,
          "durationTicks": 0,
          "midi": 43,
          "name": "G2",
          "ticks": 76288,
          "time": 99.33333333333333,
          "velocity": 0.33858267716535434
        },
        {
          "duration": 0,
          "durationTicks": 0,
          "midi": 66,
          "name": "F#4",
          "ticks": 76288,
          "time": 99.33333333333333,
          "velocity": 0.25196850393700787
        },
        {
          "duration": 0,
          "durationTicks": 0,
          "midi": 31,
          "name": "G1",
          "ticks": 76306,
          "time": 99.35677083333333,
          "velocity": 0.36220472440944884
        },
        {
          "duration": 0,
          "durationTicks": 0,
          "midi": 69,
          "name": "A4",
          "ticks": 76306,
          "time": 99.35677083333333,
          "velocity": 0.2125984251968504
        },
        {
          "duration": 0.1276041666666714,
          "durationTicks": 98,
          "midi": 77,
          "name": "F5",
          "ticks": 76315,
          "time": 99.36848958333333,
          "velocity": 0.06299212598425197
        },
        {
          "duration": 0,
          "durationTicks": 0,
          "midi": 32,
          "name": "G#1",
          "ticks": 76324,
          "time": 99.38020833333333,
          "velocity": 0.31496062992125984
        },
        {
          "duration": 0.1276041666666714,
          "durationTicks": 98,
          "midi": 63,
          "name": "D#4",
          "ticks": 76324,
          "time": 99.38020833333333,
          "velocity": 0.25984251968503935
        },
        {
          "duration": 0.1276041666666714,
          "durationTicks": 98,
          "midi": 56,
          "name": "G#3",
          "ticks": 76324,
          "time": 99.38020833333333,
          "velocity": 0.2047244094488189
        },
        {
          "duration": 0.1276041666666714,
          "durationTicks": 98,
          "midi": 68,
          "name": "G#4",
          "ticks": 76324,
          "time": 99.38020833333333,
          "velocity": 0.2204724409448819
        },
        {
          "duration": 0,
          "durationTicks": 0,
          "midi": 33,
          "name": "A1",
          "ticks": 76343,
          "time": 99.40494791666667,
          "velocity": 0.31496062992125984
        },
        {
          "duration": 0,
          "durationTicks": 0,
          "midi": 51,
          "name": "D#3",
          "ticks": 76370,
          "time": 99.44010416666667,
          "velocity": 0.08661417322834646
        },
        {
          "duration": 0,
          "durationTicks": 0,
          "midi": 32,
          "name": "G#1",
          "ticks": 76370,
          "time": 99.44010416666667,
          "velocity": 0.3464566929133858
        },
        {
          "duration": 0.1276041666666572,
          "durationTicks": 98,
          "midi": 61,
          "name": "C#4",
          "ticks": 76397,
          "time": 99.47526041666667,
          "velocity": 0.29133858267716534
        },
        {
          "duration": 0,
          "durationTicks": 0,
          "midi": 31,
          "name": "G1",
          "ticks": 76406,
          "time": 99.48697916666667,
          "velocity": 0.3543307086614173
        },
        {
          "duration": 0,
          "durationTicks": 0,
          "midi": 70,
          "name": "A#4",
          "ticks": 76406,
          "time": 99.48697916666667,
          "velocity": 0.2283464566929134
        },
        {
          "duration": 0,
          "durationTicks": 0,
          "midi": 65,
          "name": "F4",
          "ticks": 76415,
          "time": 99.49869791666667,
          "velocity": 0.23622047244094488
        },
        {
          "duration": 0.1276041666666572,
          "durationTicks": 98,
          "midi": 75,
          "name": "D#5",
          "ticks": 76415,
          "time": 99.49869791666667,
          "velocity": 0.08661417322834646
        },
        {
          "duration": 0,
          "durationTicks": 0,
          "midi": 29,
          "name": "F1",
          "ticks": 76434,
          "time": 99.5234375,
          "velocity": 0.36220472440944884
        },
        {
          "duration": 0,
          "durationTicks": 0,
          "midi": 54,
          "name": "F#3",
          "ticks": 76479,
          "time": 99.58203125,
          "velocity": 0.25196850393700787
        },
        {
          "duration": 0,
          "durationTicks": 0,
          "midi": 26,
          "name": "D1",
          "ticks": 76479,
          "time": 99.58203125,
          "velocity": 0.3543307086614173
        },
        {
          "duration": 0,
          "durationTicks": 0,
          "midi": 79,
          "name": "G5",
          "ticks": 76488,
          "time": 99.59375,
          "velocity": 0.09448818897637795
        },
        {
          "duration": 0.1276041666666714,
          "durationTicks": 98,
          "midi": 72,
          "name": "C5",
          "ticks": 76488,
          "time": 99.59375,
          "velocity": 0.08661417322834646
        },
        {
          "duration": 0.1276041666666714,
          "durationTicks": 98,
          "midi": 60,
          "name": "C4",
          "ticks": 76497,
          "time": 99.60546875,
          "velocity": 0.25984251968503935
        },
        {
          "duration": 0.1276041666666714,
          "durationTicks": 98,
          "midi": 68,
          "name": "G#4",
          "ticks": 76497,
          "time": 99.60546875,
          "velocity": 0.2283464566929134
        },
        {
          "duration": 0,
          "durationTicks": 0,
          "midi": 57,
          "name": "A3",
          "ticks": 76506,
          "time": 99.6171875,
          "velocity": 0.2677165354330709
        },
        {
          "duration": 0,
          "durationTicks": 0,
          "midi": 65,
          "name": "F4",
          "ticks": 76506,
          "time": 99.6171875,
          "velocity": 0.13385826771653545
        },
        {
          "duration": 0,
          "durationTicks": 0,
          "midi": 53,
          "name": "F3",
          "ticks": 76525,
          "time": 99.64192708333333,
          "velocity": 0.1732283464566929
        },
        {
          "duration": 0,
          "durationTicks": 0,
          "midi": 35,
          "name": "B1",
          "ticks": 76525,
          "time": 99.64192708333333,
          "velocity": 0.3464566929133858
        },
        {
          "duration": 0,
          "durationTicks": 0,
          "midi": 71,
          "name": "B4",
          "ticks": 76552,
          "time": 99.67708333333333,
          "velocity": 0.06299212598425197
        },
        {
          "duration": 0,
          "durationTicks": 0,
          "midi": 58,
          "name": "A#3",
          "ticks": 76570,
          "time": 99.70052083333333,
          "velocity": 0.2204724409448819
        },
        {
          "duration": 0.1263020833333428,
          "durationTicks": 97,
          "midi": 89,
          "name": "F6",
          "ticks": 76579,
          "time": 99.71223958333333,
          "velocity": 0.1732283464566929
        },
        {
          "duration": 0,
          "durationTicks": 0,
          "midi": 33,
          "name": "A1",
          "ticks": 76588,
          "time": 99.72395833333333,
          "velocity": 0.29133858267716534
        },
        {
          "duration": 0.1263020833333428,
          "durationTicks": 97,
          "midi": 82,
          "name": "A#5",
          "ticks": 76588,
          "time": 99.72395833333333,
          "velocity": 0.07086614173228346
        },
        {
          "duration": 0.1263020833333428,
          "durationTicks": 97,
          "midi": 63,
          "name": "D#4",
          "ticks": 76588,
          "time": 99.72395833333333,
          "velocity": 0.25984251968503935
        },
        {
          "duration": 0.1263020833333428,
          "durationTicks": 97,
          "midi": 56,
          "name": "G#3",
          "ticks": 76597,
          "time": 99.73567708333333,
          "velocity": 0.1968503937007874
        },
        {
          "duration": 0.1276041666666714,
          "durationTicks": 98,
          "midi": 85,
          "name": "C#6",
          "ticks": 76624,
          "time": 99.77083333333333,
          "velocity": 0.16535433070866143
        },
        {
          "duration": 0,
          "durationTicks": 0,
          "midi": 33,
          "name": "A1",
          "ticks": 76634,
          "time": 99.78385416666667,
          "velocity": 0.3779527559055118
        },
        {
          "duration": 0,
          "durationTicks": 0,
          "midi": 34,
          "name": "A#1",
          "ticks": 76651,
          "time": 99.80598958333333,
          "velocity": 0.3700787401574803
        },
        {
          "duration": 0.1276041666666714,
          "durationTicks": 98,
          "midi": 84,
          "name": "C6",
          "ticks": 76669,
          "time": 99.82942708333333,
          "velocity": 0.16535433070866143
        },
        {
          "duration": 0.1276041666666714,
          "durationTicks": 98,
          "midi": 34,
          "name": "A#1",
          "ticks": 76678,
          "time": 99.84114583333333,
          "velocity": 0.3543307086614173
        },
        {
          "duration": 0,
          "durationTicks": 0,
          "midi": 65,
          "name": "F4",
          "ticks": 76697,
          "time": 99.86588541666667,
          "velocity": 0.14173228346456693
        },
        {
          "duration": 0,
          "durationTicks": 0,
          "midi": 70,
          "name": "A#4",
          "ticks": 76697,
          "time": 99.86588541666667,
          "velocity": 0.08661417322834646
        },
        {
          "duration": 0,
          "durationTicks": 0,
          "midi": 60,
          "name": "C4",
          "ticks": 76706,
          "time": 99.87760416666667,
          "velocity": 0.2440944881889764
        },
        {
          "duration": 0,
          "durationTicks": 0,
          "midi": 53,
          "name": "F3",
          "ticks": 76715,
          "time": 99.88932291666667,
          "velocity": 0.25984251968503935
        },
        {
          "duration": 0.1263020833333286,
          "durationTicks": 97,
          "midi": 80,
          "name": "G#5",
          "ticks": 76725,
          "time": 99.90234375,
          "velocity": 0.14960629921259844
        },
        {
          "duration": 0.1263020833333286,
          "durationTicks": 97,
          "midi": 68,
          "name": "G#4",
          "ticks": 76725,
          "time": 99.90234375,
          "velocity": 0.11023622047244094
        },
        {
          "duration": 0,
          "durationTicks": 0,
          "midi": 35,
          "name": "B1",
          "ticks": 76769,
          "time": 99.95963541666667,
          "velocity": 0.28346456692913385
        },
        {
          "duration": 0,
          "durationTicks": 0,
          "midi": 66,
          "name": "F#4",
          "ticks": 76769,
          "time": 99.95963541666667,
          "velocity": 0.2440944881889764
        },
        {
          "duration": 0.1276041666666572,
          "durationTicks": 98,
          "midi": 77,
          "name": "F5",
          "ticks": 76769,
          "time": 99.95963541666667,
          "velocity": 0.2047244094488189
        },
        {
          "duration": 0,
          "durationTicks": 0,
          "midi": 52,
          "name": "E3",
          "ticks": 76778,
          "time": 99.97135416666667,
          "velocity": 0.1732283464566929
        },
        {
          "duration": 0,
          "durationTicks": 0,
          "midi": 58,
          "name": "A#3",
          "ticks": 76778,
          "time": 99.97135416666667,
          "velocity": 0.25984251968503935
        },
        {
          "duration": 0.1276041666666714,
          "durationTicks": 98,
          "midi": 65,
          "name": "F4",
          "ticks": 76788,
          "time": 99.984375,
          "velocity": 0.2677165354330709
        },
        {
          "duration": 0,
          "durationTicks": 0,
          "midi": 51,
          "name": "D#3",
          "ticks": 76797,
          "time": 99.99609375,
          "velocity": 0.2283464566929134
        },
        {
          "duration": 0.1276041666666714,
          "durationTicks": 98,
          "midi": 73,
          "name": "C#5",
          "ticks": 76824,
          "time": 100.03125,
          "velocity": 0.16535433070866143
        },
        {
          "duration": 0,
          "durationTicks": 0,
          "midi": 49,
          "name": "C#3",
          "ticks": 76860,
          "time": 100.078125,
          "velocity": 0.23622047244094488
        },
        {
          "duration": 0.1276041666666714,
          "durationTicks": 98,
          "midi": 72,
          "name": "C5",
          "ticks": 76870,
          "time": 100.09114583333333,
          "velocity": 0.11811023622047244
        },
        {
          "duration": 0,
          "durationTicks": 0,
          "midi": 56,
          "name": "G#3",
          "ticks": 76879,
          "time": 100.10286458333333,
          "velocity": 0.2283464566929134
        },
        {
          "duration": 0,
          "durationTicks": 0,
          "midi": 48,
          "name": "C3",
          "ticks": 76897,
          "time": 100.12630208333333,
          "velocity": 0.1968503937007874
        },
        {
          "duration": 0.1276041666666714,
          "durationTicks": 98,
          "midi": 68,
          "name": "G#4",
          "ticks": 76924,
          "time": 100.16145833333333,
          "velocity": 0.16535433070866143
        },
        {
          "duration": 0,
          "durationTicks": 0,
          "midi": 61,
          "name": "C#4",
          "ticks": 76934,
          "time": 100.17447916666667,
          "velocity": 0.08661417322834646
        },
        {
          "duration": 0,
          "durationTicks": 0,
          "midi": 49,
          "name": "C#3",
          "ticks": 76943,
          "time": 100.18619791666667,
          "velocity": 0.13385826771653545
        },
        {
          "duration": 0.1276041666666572,
          "durationTicks": 98,
          "midi": 65,
          "name": "F4",
          "ticks": 76961,
          "time": 100.20963541666667,
          "velocity": 0.2992125984251969
        },
        {
          "duration": 0,
          "durationTicks": 0,
          "midi": 86,
          "name": "D6",
          "ticks": 76970,
          "time": 100.22135416666667,
          "velocity": 0.08661417322834646
        },
        {
          "duration": 0,
          "durationTicks": 0,
          "midi": 90,
          "name": "F#6",
          "ticks": 76970,
          "time": 100.22135416666667,
          "velocity": 0.07086614173228346
        },
        {
          "duration": 0,
          "durationTicks": 0,
          "midi": 86,
          "name": "D6",
          "ticks": 76970,
          "time": 100.22135416666667,
          "velocity": 0.08661417322834646
        },
        {
          "duration": 0.1276041666666572,
          "durationTicks": 98,
          "midi": 84,
          "name": "C6",
          "ticks": 76970,
          "time": 100.22135416666667,
          "velocity": 0.14960629921259844
        },
        {
          "duration": 0,
          "durationTicks": 0,
          "midi": 37,
          "name": "C#2",
          "ticks": 76979,
          "time": 100.23307291666667,
          "velocity": 0.2677165354330709
        },
        {
          "duration": 0.1276041666666572,
          "durationTicks": 98,
          "midi": 58,
          "name": "A#3",
          "ticks": 76988,
          "time": 100.24479166666667,
          "velocity": 0.3228346456692913
        },
        {
          "duration": 0,
          "durationTicks": 0,
          "midi": 38,
          "name": "D2",
          "ticks": 76998,
          "time": 100.2578125,
          "velocity": 0.1968503937007874
        },
        {
          "duration": 0.1276041666666572,
          "durationTicks": 98,
          "midi": 53,
          "name": "F3",
          "ticks": 77015,
          "time": 100.27994791666667,
          "velocity": 0.2677165354330709
        },
        {
          "duration": 0,
          "durationTicks": 0,
          "midi": 68,
          "name": "G#4",
          "ticks": 77034,
          "time": 100.3046875,
          "velocity": 0.07086614173228346
        },
        {
          "duration": 0,
          "durationTicks": 0,
          "midi": 60,
          "name": "C4",
          "ticks": 77070,
          "time": 100.3515625,
          "velocity": 0.1732283464566929
        },
        {
          "duration": 0,
          "durationTicks": 0,
          "midi": 63,
          "name": "D#4",
          "ticks": 77070,
          "time": 100.3515625,
          "velocity": 0.1968503937007874
        },
        {
          "duration": 0.1263020833333286,
          "durationTicks": 97,
          "midi": 56,
          "name": "G#3",
          "ticks": 77070,
          "time": 100.3515625,
          "velocity": 0.2677165354330709
        },
        {
          "duration": 0,
          "durationTicks": 0,
          "midi": 51,
          "name": "D#3",
          "ticks": 77079,
          "time": 100.36328125,
          "velocity": 0.2440944881889764
        },
        {
          "duration": 0.1263020833333428,
          "durationTicks": 97,
          "midi": 65,
          "name": "F4",
          "ticks": 77116,
          "time": 100.41145833333333,
          "velocity": 0.08661417322834646
        },
        {
          "duration": 0,
          "durationTicks": 0,
          "midi": 60,
          "name": "C4",
          "ticks": 77160,
          "time": 100.46875,
          "velocity": 0.1889763779527559
        },
        {
          "duration": 0,
          "durationTicks": 0,
          "midi": 44,
          "name": "G#2",
          "ticks": 77169,
          "time": 100.48046875,
          "velocity": 0.36220472440944884
        },
        {
          "duration": 0,
          "durationTicks": 0,
          "midi": 53,
          "name": "F3",
          "ticks": 77169,
          "time": 100.48046875,
          "velocity": 0.31496062992125984
        },
        {
          "duration": 0,
          "durationTicks": 0,
          "midi": 45,
          "name": "A2",
          "ticks": 77187,
          "time": 100.50390625,
          "velocity": 0.3779527559055118
        },
        {
          "duration": 0,
          "durationTicks": 0,
          "midi": 61,
          "name": "C#4",
          "ticks": 77196,
          "time": 100.515625,
          "velocity": 0.1732283464566929
        },
        {
          "duration": 0,
          "durationTicks": 0,
          "midi": 44,
          "name": "G#2",
          "ticks": 77206,
          "time": 100.52864583333333,
          "velocity": 0.36220472440944884
        },
        {
          "duration": 0,
          "durationTicks": 0,
          "midi": 63,
          "name": "D#4",
          "ticks": 77206,
          "time": 100.52864583333333,
          "velocity": 0.11023622047244094
        },
        {
          "duration": 0.1263020833333428,
          "durationTicks": 97,
          "midi": 68,
          "name": "G#4",
          "ticks": 77206,
          "time": 100.52864583333333,
          "velocity": 0.11023622047244094
        },
        {
          "duration": 0,
          "durationTicks": 0,
          "midi": 44,
          "name": "G#2",
          "ticks": 77242,
          "time": 100.57552083333333,
          "velocity": 0.3464566929133858
        },
        {
          "duration": 0,
          "durationTicks": 0,
          "midi": 45,
          "name": "A2",
          "ticks": 77260,
          "time": 100.59895833333333,
          "velocity": 0.1732283464566929
        },
        {
          "duration": 0.11848958333334281,
          "durationTicks": 91,
          "midi": 56,
          "name": "G#3",
          "ticks": 77260,
          "time": 100.59895833333333,
          "velocity": 0.2755905511811024
        },
        {
          "duration": 0,
          "durationTicks": 0,
          "midi": 65,
          "name": "F4",
          "ticks": 77277,
          "time": 100.62109375,
          "velocity": 0.05511811023622047
        },
        {
          "duration": 0,
          "durationTicks": 0,
          "midi": 48,
          "name": "C3",
          "ticks": 77286,
          "time": 100.6328125,
          "velocity": 0.2677165354330709
        },
        {
          "duration": 0.2526041666666714,
          "durationTicks": 194,
          "midi": 75,
          "name": "D#5",
          "ticks": 77296,
          "time": 100.64583333333333,
          "velocity": 0.08661417322834646
        },
        {
          "duration": 0,
          "durationTicks": 0,
          "midi": 61,
          "name": "C#4",
          "ticks": 77314,
          "time": 100.66927083333333,
          "velocity": 0.11023622047244094
        },
        {
          "duration": 0,
          "durationTicks": 0,
          "midi": 45,
          "name": "A2",
          "ticks": 77324,
          "time": 100.68229166666667,
          "velocity": 0.2677165354330709
        },
        {
          "duration": 0,
          "durationTicks": 0,
          "midi": 46,
          "name": "A#2",
          "ticks": 77341,
          "time": 100.70442708333333,
          "velocity": 0.3700787401574803
        },
        {
          "duration": 0.1263020833333428,
          "durationTicks": 97,
          "midi": 65,
          "name": "F4",
          "ticks": 77341,
          "time": 100.70442708333333,
          "velocity": 0.13385826771653545
        },
        {
          "duration": 0.009114583333328596,
          "durationTicks": 7,
          "midi": 56,
          "name": "G#3",
          "ticks": 77351,
          "time": 100.71744791666667,
          "velocity": 0.2440944881889764
        },
        {
          "duration": 0,
          "durationTicks": 0,
          "midi": 46,
          "name": "A#2",
          "ticks": 77377,
          "time": 100.75130208333333,
          "velocity": 0.3937007874015748
        },
        {
          "duration": 0,
          "durationTicks": 0,
          "midi": 56,
          "name": "G#3",
          "ticks": 77377,
          "time": 100.75130208333333,
          "velocity": 0.2755905511811024
        },
        {
          "duration": 0,
          "durationTicks": 0,
          "midi": 46,
          "name": "A#2",
          "ticks": 77404,
          "time": 100.78645833333333,
          "velocity": 0.3937007874015748
        },
        {
          "duration": 0,
          "durationTicks": 0,
          "midi": 56,
          "name": "G#3",
          "ticks": 77414,
          "time": 100.79947916666667,
          "velocity": 0.2440944881889764
        },
        {
          "duration": 0,
          "durationTicks": 0,
          "midi": 29,
          "name": "F1",
          "ticks": 77423,
          "time": 100.81119791666667,
          "velocity": 0.14960629921259844
        },
        {
          "duration": 0,
          "durationTicks": 0,
          "midi": 45,
          "name": "A2",
          "ticks": 77450,
          "time": 100.84635416666667,
          "velocity": 0.2755905511811024
        },
        {
          "duration": 0,
          "durationTicks": 0,
          "midi": 55,
          "name": "G3",
          "ticks": 77450,
          "time": 100.84635416666667,
          "velocity": 0.2755905511811024
        },
        {
          "duration": 0,
          "durationTicks": 0,
          "midi": 44,
          "name": "G#2",
          "ticks": 77467,
          "time": 100.86848958333333,
          "velocity": 0.2204724409448819
        },
        {
          "duration": 0.125,
          "durationTicks": 96,
          "midi": 53,
          "name": "F3",
          "ticks": 77477,
          "time": 100.88151041666667,
          "velocity": 0.2677165354330709
        },
        {
          "duration": 0,
          "durationTicks": 0,
          "midi": 54,
          "name": "F#3",
          "ticks": 77530,
          "time": 100.95052083333333,
          "velocity": 0.28346456692913385
        },
        {
          "duration": 0,
          "durationTicks": 0,
          "midi": 47,
          "name": "B2",
          "ticks": 77539,
          "time": 100.96223958333333,
          "velocity": 0.25984251968503935
        },
        {
          "duration": 0.1263020833333428,
          "durationTicks": 97,
          "midi": 55,
          "name": "G3",
          "ticks": 77566,
          "time": 100.99739583333333,
          "velocity": 0.30708661417322836
        },
        {
          "duration": 0,
          "durationTicks": 0,
          "midi": 47,
          "name": "B2",
          "ticks": 77575,
          "time": 101.00911458333333,
          "velocity": 0.2047244094488189
        },
        {
          "duration": 0,
          "durationTicks": 0,
          "midi": 74,
          "name": "D5",
          "ticks": 77575,
          "time": 101.00911458333333,
          "velocity": 0.05511811023622047
        },
        {
          "duration": 0.1276041666666714,
          "durationTicks": 98,
          "midi": 75,
          "name": "D#5",
          "ticks": 77602,
          "time": 101.04427083333333,
          "velocity": 0.08661417322834646
        },
        {
          "duration": 0,
          "durationTicks": 0,
          "midi": 48,
          "name": "C3",
          "ticks": 77620,
          "time": 101.06770833333333,
          "velocity": 0.2283464566929134
        },
        {
          "duration": 0.1276041666666714,
          "durationTicks": 98,
          "midi": 56,
          "name": "G#3",
          "ticks": 77620,
          "time": 101.06770833333333,
          "velocity": 0.2677165354330709
        },
        {
          "duration": 0,
          "durationTicks": 0,
          "midi": 60,
          "name": "C4",
          "ticks": 77629,
          "time": 101.07942708333333,
          "velocity": 0.23622047244094488
        },
        {
          "duration": 0,
          "durationTicks": 0,
          "midi": 49,
          "name": "C#3",
          "ticks": 77638,
          "time": 101.09114583333333,
          "velocity": 0.1889763779527559
        },
        {
          "duration": 0.1276041666666714,
          "durationTicks": 98,
          "midi": 58,
          "name": "A#3",
          "ticks": 77674,
          "time": 101.13802083333333,
          "velocity": 0.25984251968503935
        },
        {
          "duration": 0.1276041666666572,
          "durationTicks": 98,
          "midi": 51,
          "name": "D#3",
          "ticks": 77684,
          "time": 101.15104166666667,
          "velocity": 0.2204724409448819
        },
        {
          "duration": 0.1276041666666572,
          "durationTicks": 98,
          "midi": 77,
          "name": "F5",
          "ticks": 77693,
          "time": 101.16276041666667,
          "velocity": 0.06299212598425197
        },
        {
          "duration": 0,
          "durationTicks": 0,
          "midi": 86,
          "name": "D6",
          "ticks": 77729,
          "time": 101.20963541666667,
          "velocity": 0.07086614173228346
        },
        {
          "duration": 0,
          "durationTicks": 0,
          "midi": 80,
          "name": "G#5",
          "ticks": 77729,
          "time": 101.20963541666667,
          "velocity": 0.14960629921259844
        },
        {
          "duration": 0.1276041666666572,
          "durationTicks": 98,
          "midi": 65,
          "name": "F4",
          "ticks": 77729,
          "time": 101.20963541666667,
          "velocity": 0.2440944881889764
        },
        {
          "duration": 0,
          "durationTicks": 0,
          "midi": 79,
          "name": "G5",
          "ticks": 77739,
          "time": 101.22265625,
          "velocity": 0.09448818897637795
        },
        {
          "duration": 0,
          "durationTicks": 0,
          "midi": 95,
          "name": "B6",
          "ticks": 77739,
          "time": 101.22265625,
          "velocity": 0.08661417322834646
        },
        {
          "duration": 0,
          "durationTicks": 0,
          "midi": 60,
          "name": "C4",
          "ticks": 77748,
          "time": 101.234375,
          "velocity": 0.2677165354330709
        },
        {
          "duration": 0,
          "durationTicks": 0,
          "midi": 84,
          "name": "C6",
          "ticks": 77757,
          "time": 101.24609375,
          "velocity": 0.07086614173228346
        },
        {
          "duration": 0,
          "durationTicks": 0,
          "midi": 53,
          "name": "F3",
          "ticks": 77775,
          "time": 101.26953125,
          "velocity": 0.2283464566929134
        },
        {
          "duration": 0,
          "durationTicks": 0,
          "midi": 69,
          "name": "A4",
          "ticks": 77775,
          "time": 101.26953125,
          "velocity": 0.14960629921259844
        },
        {
          "duration": 0,
          "durationTicks": 0,
          "midi": 68,
          "name": "G#4",
          "ticks": 77803,
          "time": 101.30598958333333,
          "velocity": 0.14173228346456693
        },
        {
          "duration": 0.125,
          "durationTicks": 96,
          "midi": 63,
          "name": "D#4",
          "ticks": 77803,
          "time": 101.30598958333333,
          "velocity": 0.25984251968503935
        },
        {
          "duration": 0.125,
          "durationTicks": 96,
          "midi": 56,
          "name": "G#3",
          "ticks": 77812,
          "time": 101.31770833333333,
          "velocity": 0.25984251968503935
        },
        {
          "duration": 0,
          "durationTicks": 0,
          "midi": 72,
          "name": "C5",
          "ticks": 77830,
          "time": 101.34114583333333,
          "velocity": 0.1732283464566929
        },
        {
          "duration": 0,
          "durationTicks": 0,
          "midi": 58,
          "name": "A#3",
          "ticks": 77866,
          "time": 101.38802083333333,
          "velocity": 0.25196850393700787
        },
        {
          "duration": 0.08203125,
          "durationTicks": 63,
          "midi": 65,
          "name": "F4",
          "ticks": 77866,
          "time": 101.38802083333333,
          "velocity": 0.25984251968503935
        },
        {
          "duration": 0.1276041666666714,
          "durationTicks": 98,
          "midi": 73,
          "name": "C#5",
          "ticks": 77883,
          "time": 101.41015625,
          "velocity": 0.1732283464566929
        },
        {
          "duration": 0,
          "durationTicks": 0,
          "midi": 28,
          "name": "E1",
          "ticks": 77920,
          "time": 101.45833333333333,
          "velocity": 0.3464566929133858
        },
        {
          "duration": 0,
          "durationTicks": 0,
          "midi": 68,
          "name": "G#4",
          "ticks": 77920,
          "time": 101.45833333333333,
          "velocity": 0.2283464566929134
        },
        {
          "duration": 0,
          "durationTicks": 0,
          "midi": 61,
          "name": "C#4",
          "ticks": 77929,
          "time": 101.47005208333333,
          "velocity": 0.25196850393700787
        },
        {
          "duration": 0.045572916666671404,
          "durationTicks": 35,
          "midi": 65,
          "name": "F4",
          "ticks": 77929,
          "time": 101.47005208333333,
          "velocity": 0.25984251968503935
        },
        {
          "duration": 0.1263020833333428,
          "durationTicks": 97,
          "midi": 72,
          "name": "C5",
          "ticks": 77938,
          "time": 101.48177083333333,
          "velocity": 0.14173228346456693
        },
        {
          "duration": 0.1263020833333428,
          "durationTicks": 97,
          "midi": 27,
          "name": "D#1",
          "ticks": 77938,
          "time": 101.48177083333333,
          "velocity": 0.3700787401574803
        },
        {
          "duration": 0,
          "durationTicks": 0,
          "midi": 68,
          "name": "G#4",
          "ticks": 77947,
          "time": 101.49348958333333,
          "velocity": 0.2992125984251969
        },
        {
          "duration": 0,
          "durationTicks": 0,
          "midi": 61,
          "name": "C#4",
          "ticks": 77957,
          "time": 101.50651041666667,
          "velocity": 0.25196850393700787
        },
        {
          "duration": 0,
          "durationTicks": 0,
          "midi": 67,
          "name": "G4",
          "ticks": 77966,
          "time": 101.51822916666667,
          "velocity": 0.2440944881889764
        },
        {
          "duration": 0.125,
          "durationTicks": 96,
          "midi": 80,
          "name": "G#5",
          "ticks": 77966,
          "time": 101.51822916666667,
          "velocity": 0.1889763779527559
        },
        {
          "duration": 0.1263020833333286,
          "durationTicks": 97,
          "midi": 75,
          "name": "D#5",
          "ticks": 77984,
          "time": 101.54166666666667,
          "velocity": 0.14960629921259844
        },
        {
          "duration": 0.1263020833333286,
          "durationTicks": 97,
          "midi": 68,
          "name": "G#4",
          "ticks": 77984,
          "time": 101.54166666666667,
          "velocity": 0.29133858267716534
        },
        {
          "duration": 0,
          "durationTicks": 0,
          "midi": 63,
          "name": "D#4",
          "ticks": 78001,
          "time": 101.56380208333333,
          "velocity": 0.2047244094488189
        },
        {
          "duration": 0.12890625,
          "durationTicks": 99,
          "midi": 84,
          "name": "C6",
          "ticks": 78019,
          "time": 101.58723958333333,
          "velocity": 0.1732283464566929
        },
        {
          "duration": 0,
          "durationTicks": 0,
          "midi": 29,
          "name": "F1",
          "ticks": 78028,
          "time": 101.59895833333333,
          "velocity": 0.3937007874015748
        },
        {
          "duration": 0,
          "durationTicks": 0,
          "midi": 70,
          "name": "A#4",
          "ticks": 78038,
          "time": 101.61197916666667,
          "velocity": 0.25984251968503935
        },
        {
          "duration": 0,
          "durationTicks": 0,
          "midi": 77,
          "name": "F5",
          "ticks": 78038,
          "time": 101.61197916666667,
          "velocity": 0.1732283464566929
        },
        {
          "duration": 0,
          "durationTicks": 0,
          "midi": 65,
          "name": "F4",
          "ticks": 78047,
          "time": 101.62369791666667,
          "velocity": 0.16535433070866143
        },
        {
          "duration": 0,
          "durationTicks": 0,
          "midi": 85,
          "name": "C#6",
          "ticks": 78074,
          "time": 101.65885416666667,
          "velocity": 0.16535433070866143
        },
        {
          "duration": 0.1302083333333286,
          "durationTicks": 100,
          "midi": 75,
          "name": "D#5",
          "ticks": 78074,
          "time": 101.65885416666667,
          "velocity": 0.25984251968503935
        },
        {
          "duration": 0,
          "durationTicks": 0,
          "midi": 28,
          "name": "E1",
          "ticks": 78083,
          "time": 101.67057291666667,
          "velocity": 0.3779527559055118
        },
        {
          "duration": 0.1302083333333286,
          "durationTicks": 100,
          "midi": 80,
          "name": "G#5",
          "ticks": 78083,
          "time": 101.67057291666667,
          "velocity": 0.1968503937007874
        },
        {
          "duration": 0.1302083333333286,
          "durationTicks": 100,
          "midi": 68,
          "name": "G#4",
          "ticks": 78092,
          "time": 101.68229166666667,
          "velocity": 0.2204724409448819
        },
        {
          "duration": 0,
          "durationTicks": 0,
          "midi": 61,
          "name": "C#4",
          "ticks": 78102,
          "time": 101.6953125,
          "velocity": 0.1732283464566929
        },
        {
          "duration": 0,
          "durationTicks": 0,
          "midi": 46,
          "name": "A#2",
          "ticks": 78111,
          "time": 101.70703125,
          "velocity": 0.07086614173228346
        },
        {
          "duration": 0,
          "durationTicks": 0,
          "midi": 56,
          "name": "G#3",
          "ticks": 78111,
          "time": 101.70703125,
          "velocity": 0.06299212598425197
        },
        {
          "duration": 0.12890625,
          "durationTicks": 99,
          "midi": 89,
          "name": "F6",
          "ticks": 78111,
          "time": 101.70703125,
          "velocity": 0.1968503937007874
        },
        {
          "duration": 0.25390625,
          "durationTicks": 195,
          "midi": 27,
          "name": "D#1",
          "ticks": 78120,
          "time": 101.71875,
          "velocity": 0.3700787401574803
        },
        {
          "duration": 0,
          "durationTicks": 0,
          "midi": 72,
          "name": "C5",
          "ticks": 78130,
          "time": 101.73177083333333,
          "velocity": 0.07086614173228346
        },
        {
          "duration": 0.1276041666666714,
          "durationTicks": 98,
          "midi": 79,
          "name": "G5",
          "ticks": 78130,
          "time": 101.73177083333333,
          "velocity": 0.25984251968503935
        },
        {
          "duration": 0.1276041666666714,
          "durationTicks": 98,
          "midi": 82,
          "name": "A#5",
          "ticks": 78130,
          "time": 101.73177083333333,
          "velocity": 0.2283464566929134
        },
        {
          "duration": 0,
          "durationTicks": 0,
          "midi": 65,
          "name": "F4",
          "ticks": 78139,
          "time": 101.74348958333333,
          "velocity": 0.15748031496062992
        },
        {
          "duration": 0,
          "durationTicks": 0,
          "midi": 70,
          "name": "A#4",
          "ticks": 78139,
          "time": 101.74348958333333,
          "velocity": 0.2440944881889764
        },
        {
          "duration": 0.1276041666666714,
          "durationTicks": 98,
          "midi": 46,
          "name": "A#2",
          "ticks": 78148,
          "time": 101.75520833333333,
          "velocity": 0.08661417322834646
        },
        {
          "duration": 0,
          "durationTicks": 0,
          "midi": 61,
          "name": "C#4",
          "ticks": 78157,
          "time": 101.76692708333333,
          "velocity": 0.2283464566929134
        },
        {
          "duration": 0.1263020833333286,
          "durationTicks": 97,
          "midi": 68,
          "name": "G#4",
          "ticks": 78167,
          "time": 101.77994791666667,
          "velocity": 0.13385826771653545
        },
        {
          "duration": 0,
          "durationTicks": 0,
          "midi": 63,
          "name": "D#4",
          "ticks": 78176,
          "time": 101.79166666666667,
          "velocity": 0.14173228346456693
        },
        {
          "duration": 0.2513020833333286,
          "durationTicks": 193,
          "midi": 80,
          "name": "G#5",
          "ticks": 78185,
          "time": 101.80338541666667,
          "velocity": 0.2755905511811024
        },
        {
          "duration": 0.125,
          "durationTicks": 96,
          "midi": 65,
          "name": "F4",
          "ticks": 78195,
          "time": 101.81640625,
          "velocity": 0.13385826771653545
        },
        {
          "duration": 0.125,
          "durationTicks": 96,
          "midi": 72,
          "name": "C5",
          "ticks": 78195,
          "time": 101.81640625,
          "velocity": 0.1968503937007874
        },
        {
          "duration": 0.125,
          "durationTicks": 96,
          "midi": 84,
          "name": "C6",
          "ticks": 78195,
          "time": 101.81640625,
          "velocity": 0.25984251968503935
        },
        {
          "duration": 0,
          "durationTicks": 0,
          "midi": 61,
          "name": "C#4",
          "ticks": 78212,
          "time": 101.83854166666667,
          "velocity": 0.1889763779527559
        },
        {
          "duration": 0,
          "durationTicks": 0,
          "midi": 60,
          "name": "C4",
          "ticks": 78239,
          "time": 101.87369791666667,
          "velocity": 0.16535433070866143
        },
        {
          "duration": 0,
          "durationTicks": 0,
          "midi": 46,
          "name": "A#2",
          "ticks": 78266,
          "time": 101.90885416666667,
          "velocity": 0.2440944881889764
        },
        {
          "duration": 0,
          "durationTicks": 0,
          "midi": 83,
          "name": "B5",
          "ticks": 78320,
          "time": 101.97916666666667,
          "velocity": 0.1968503937007874
        },
        {
          "duration": 0,
          "durationTicks": 0,
          "midi": 57,
          "name": "A3",
          "ticks": 78329,
          "time": 101.99088541666667,
          "velocity": 0.18110236220472442
        },
        {
          "duration": 0,
          "durationTicks": 0,
          "midi": 77,
          "name": "F5",
          "ticks": 78329,
          "time": 101.99088541666667,
          "velocity": 0.25196850393700787
        },
        {
          "duration": 0,
          "durationTicks": 0,
          "midi": 70,
          "name": "A#4",
          "ticks": 78338,
          "time": 102.00260416666667,
          "velocity": 0.1732283464566929
        },
        {
          "duration": 0,
          "durationTicks": 0,
          "midi": 81,
          "name": "A5",
          "ticks": 78338,
          "time": 102.00260416666667,
          "velocity": 0.2047244094488189
        },
        {
          "duration": 0.1263020833333286,
          "durationTicks": 97,
          "midi": 58,
          "name": "A#3",
          "ticks": 78356,
          "time": 102.02604166666667,
          "velocity": 0.11023622047244094
        },
        {
          "duration": 0.1263020833333286,
          "durationTicks": 97,
          "midi": 39,
          "name": "D#2",
          "ticks": 78365,
          "time": 102.03776041666667,
          "velocity": 0.3543307086614173
        },
        {
          "duration": 0,
          "durationTicks": 0,
          "midi": 80,
          "name": "G#5",
          "ticks": 78383,
          "time": 102.06119791666667,
          "velocity": 0.05511811023622047
        },
        {
          "duration": 0.1276041666666572,
          "durationTicks": 98,
          "midi": 70,
          "name": "A#4",
          "ticks": 78401,
          "time": 102.08463541666667,
          "velocity": 0.16535433070866143
        },
        {
          "duration": 0,
          "durationTicks": 0,
          "midi": 89,
          "name": "F6",
          "ticks": 78410,
          "time": 102.09635416666667,
          "velocity": 0.09448818897637795
        },
        {
          "duration": 0.1276041666666572,
          "durationTicks": 98,
          "midi": 65,
          "name": "F4",
          "ticks": 78446,
          "time": 102.14322916666667,
          "velocity": 0.11023622047244094
        },
        {
          "duration": 0,
          "durationTicks": 0,
          "midi": 68,
          "name": "G#4",
          "ticks": 78455,
          "time": 102.15494791666667,
          "velocity": 0.10236220472440945
        },
        {
          "duration": 0,
          "durationTicks": 0,
          "midi": 61,
          "name": "C#4",
          "ticks": 78455,
          "time": 102.15494791666667,
          "velocity": 0.14173228346456693
        },
        {
          "duration": 0.1276041666666572,
          "durationTicks": 98,
          "midi": 84,
          "name": "C6",
          "ticks": 78482,
          "time": 102.19010416666667,
          "velocity": 0.16535433070866143
        },
        {
          "duration": 0,
          "durationTicks": 0,
          "midi": 40,
          "name": "E2",
          "ticks": 78492,
          "time": 102.203125,
          "velocity": 0.3228346456692913
        },
        {
          "duration": 0.1276041666666714,
          "durationTicks": 98,
          "midi": 77,
          "name": "F5",
          "ticks": 78492,
          "time": 102.203125,
          "velocity": 0.2677165354330709
        },
        {
          "duration": 0,
          "durationTicks": 0,
          "midi": 90,
          "name": "F#6",
          "ticks": 78501,
          "time": 102.21484375,
          "velocity": 0.05511811023622047
        },
        {
          "duration": 0,
          "durationTicks": 0,
          "midi": 86,
          "name": "D6",
          "ticks": 78501,
          "time": 102.21484375,
          "velocity": 0.06299212598425197
        },
        {
          "duration": 0.1276041666666714,
          "durationTicks": 98,
          "midi": 80,
          "name": "G#5",
          "ticks": 78501,
          "time": 102.21484375,
          "velocity": 0.16535433070866143
        },
        {
          "duration": 0,
          "durationTicks": 0,
          "midi": 91,
          "name": "G6",
          "ticks": 78510,
          "time": 102.2265625,
          "velocity": 0.10236220472440945
        },
        {
          "duration": 0,
          "durationTicks": 0,
          "midi": 63,
          "name": "D#4",
          "ticks": 78510,
          "time": 102.2265625,
          "velocity": 0.1968503937007874
        },
        {
          "duration": 0.1276041666666714,
          "durationTicks": 98,
          "midi": 68,
          "name": "G#4",
          "ticks": 78510,
          "time": 102.2265625,
          "velocity": 0.1968503937007874
        },
        {
          "duration": 0,
          "durationTicks": 0,
          "midi": 37,
          "name": "C#2",
          "ticks": 78520,
          "time": 102.23958333333333,
          "velocity": 0.2677165354330709
        },
        {
          "duration": 0,
          "durationTicks": 0,
          "midi": 57,
          "name": "A3",
          "ticks": 78520,
          "time": 102.23958333333333,
          "velocity": 0.29133858267716534
        },
        {
          "duration": 0,
          "durationTicks": 0,
          "midi": 87,
          "name": "D#6",
          "ticks": 78520,
          "time": 102.23958333333333,
          "velocity": 0.09448818897637795
        },
        {
          "duration": 0.1276041666666714,
          "durationTicks": 98,
          "midi": 72,
          "name": "C5",
          "ticks": 78537,
          "time": 102.26171875,
          "velocity": 0.08661417322834646
        },
        {
          "duration": 0,
          "durationTicks": 0,
          "midi": 60,
          "name": "C4",
          "ticks": 78546,
          "time": 102.2734375,
          "velocity": 0.18110236220472442
        },
        {
          "duration": 0,
          "durationTicks": 0,
          "midi": 69,
          "name": "A4",
          "ticks": 78564,
          "time": 102.296875,
          "velocity": 0.1968503937007874
        },
        {
          "duration": 0.1276041666666714,
          "durationTicks": 98,
          "midi": 79,
          "name": "G5",
          "ticks": 78573,
          "time": 102.30859375,
          "velocity": 0.25984251968503935
        },
        {
          "duration": 0.1276041666666714,
          "durationTicks": 98,
          "midi": 70,
          "name": "A#4",
          "ticks": 78583,
          "time": 102.32161458333333,
          "velocity": 0.2283464566929134
        },
        {
          "duration": 0.1276041666666714,
          "durationTicks": 98,
          "midi": 58,
          "name": "A#3",
          "ticks": 78592,
          "time": 102.33333333333333,
          "velocity": 0.1968503937007874
        },
        {
          "duration": 0.1276041666666572,
          "durationTicks": 98,
          "midi": 86,
          "name": "D6",
          "ticks": 78611,
          "time": 102.35807291666667,
          "velocity": 0.05511811023622047
        },
        {
          "duration": 0,
          "durationTicks": 0,
          "midi": 56,
          "name": "G#3",
          "ticks": 78637,
          "time": 102.39192708333333,
          "velocity": 0.1889763779527559
        },
        {
          "duration": 0,
          "durationTicks": 0,
          "midi": 57,
          "name": "A3",
          "ticks": 78674,
          "time": 102.44010416666667,
          "velocity": 0.1732283464566929
        },
        {
          "duration": 0,
          "durationTicks": 0,
          "midi": 41,
          "name": "F2",
          "ticks": 78683,
          "time": 102.45182291666667,
          "velocity": 0.33858267716535434
        },
        {
          "duration": 0,
          "durationTicks": 0,
          "midi": 75,
          "name": "D#5",
          "ticks": 78692,
          "time": 102.46354166666667,
          "velocity": 0.1968503937007874
        },
        {
          "duration": 0,
          "durationTicks": 0,
          "midi": 81,
          "name": "A5",
          "ticks": 78702,
          "time": 102.4765625,
          "velocity": 0.1889763779527559
        },
        {
          "duration": 0,
          "durationTicks": 0,
          "midi": 39,
          "name": "D#2",
          "ticks": 78720,
          "time": 102.5,
          "velocity": 0.3464566929133858
        },
        {
          "duration": 0,
          "durationTicks": 0,
          "midi": 79,
          "name": "G5",
          "ticks": 78720,
          "time": 102.5,
          "velocity": 0.2125984251968504
        },
        {
          "duration": 0,
          "durationTicks": 0,
          "midi": 76,
          "name": "E5",
          "ticks": 78729,
          "time": 102.51171875,
          "velocity": 0.2283464566929134
        },
        {
          "duration": 0,
          "durationTicks": 0,
          "midi": 68,
          "name": "G#4",
          "ticks": 78747,
          "time": 102.53515625,
          "velocity": 0.07086614173228346
        },
        {
          "duration": 0,
          "durationTicks": 0,
          "midi": 72,
          "name": "C5",
          "ticks": 78747,
          "time": 102.53515625,
          "velocity": 0.1732283464566929
        },
        {
          "duration": 0.125,
          "durationTicks": 96,
          "midi": 39,
          "name": "D#2",
          "ticks": 78747,
          "time": 102.53515625,
          "velocity": 0.36220472440944884
        },
        {
          "duration": 0.125,
          "durationTicks": 96,
          "midi": 80,
          "name": "G#5",
          "ticks": 78801,
          "time": 102.60546875,
          "velocity": 0.07086614173228346
        },
        {
          "duration": 0,
          "durationTicks": 0,
          "midi": 63,
          "name": "D#4",
          "ticks": 78845,
          "time": 102.66276041666667,
          "velocity": 0.18110236220472442
        },
        {
          "duration": 0,
          "durationTicks": 0,
          "midi": 58,
          "name": "A#3",
          "ticks": 78845,
          "time": 102.66276041666667,
          "velocity": 0.13385826771653545
        },
        {
          "duration": 0,
          "durationTicks": 0,
          "midi": 38,
          "name": "D2",
          "ticks": 78881,
          "time": 102.70963541666667,
          "velocity": 0.31496062992125984
        },
        {
          "duration": 0,
          "durationTicks": 0,
          "midi": 47,
          "name": "B2",
          "ticks": 78881,
          "time": 102.70963541666667,
          "velocity": 0.33858267716535434
        },
        {
          "duration": 0.1276041666666572,
          "durationTicks": 98,
          "midi": 67,
          "name": "G4",
          "ticks": 78881,
          "time": 102.70963541666667,
          "velocity": 0.1968503937007874
        },
        {
          "duration": 0.1276041666666572,
          "durationTicks": 98,
          "midi": 75,
          "name": "D#5",
          "ticks": 78881,
          "time": 102.70963541666667,
          "velocity": 0.25984251968503935
        },
        {
          "duration": 0,
          "durationTicks": 0,
          "midi": 60,
          "name": "C4",
          "ticks": 78890,
          "time": 102.72135416666667,
          "velocity": 0.2125984251968504
        },
        {
          "duration": 0.1276041666666572,
          "durationTicks": 98,
          "midi": 94,
          "name": "A#6",
          "ticks": 78890,
          "time": 102.72135416666667,
          "velocity": 0.06299212598425197
        },
        {
          "duration": 0,
          "durationTicks": 0,
          "midi": 31,
          "name": "G1",
          "ticks": 78899,
          "time": 102.73307291666667,
          "velocity": 0.29133858267716534
        },
        {
          "duration": 0,
          "durationTicks": 0,
          "midi": 46,
          "name": "A#2",
          "ticks": 78909,
          "time": 102.74609375,
          "velocity": 0.3464566929133858
        },
        {
          "duration": 0.1263020833333286,
          "durationTicks": 97,
          "midi": 82,
          "name": "A#5",
          "ticks": 78918,
          "time": 102.7578125,
          "velocity": 0.09448818897637795
        },
        {
          "duration": 0,
          "durationTicks": 0,
          "midi": 56,
          "name": "G#3",
          "ticks": 78927,
          "time": 102.76953125,
          "velocity": 0.1968503937007874
        },
        {
          "duration": 0.1263020833333286,
          "durationTicks": 97,
          "midi": 46,
          "name": "A#2",
          "ticks": 78936,
          "time": 102.78125,
          "velocity": 0.3464566929133858
        },
        {
          "duration": 0,
          "durationTicks": 0,
          "midi": 76,
          "name": "E5",
          "ticks": 78946,
          "time": 102.79427083333333,
          "velocity": 0.2440944881889764
        },
        {
          "duration": 0.2526041666666714,
          "durationTicks": 194,
          "midi": 68,
          "name": "G#4",
          "ticks": 78946,
          "time": 102.79427083333333,
          "velocity": 0.1968503937007874
        },
        {
          "duration": 0,
          "durationTicks": 0,
          "midi": 65,
          "name": "F4",
          "ticks": 78963,
          "time": 102.81640625,
          "velocity": 0.05511811023622047
        },
        {
          "duration": 0.1263020833333286,
          "durationTicks": 97,
          "midi": 77,
          "name": "F5",
          "ticks": 78963,
          "time": 102.81640625,
          "velocity": 0.25984251968503935
        },
        {
          "duration": 0,
          "durationTicks": 0,
          "midi": 84,
          "name": "C6",
          "ticks": 78981,
          "time": 102.83984375,
          "velocity": 0.05511811023622047
        },
        {
          "duration": 0.1276041666666714,
          "durationTicks": 98,
          "midi": 80,
          "name": "G#5",
          "ticks": 79017,
          "time": 102.88671875,
          "velocity": 0.1968503937007874
        },
        {
          "duration": 0.1276041666666714,
          "durationTicks": 98,
          "midi": 84,
          "name": "C6",
          "ticks": 79026,
          "time": 102.8984375,
          "velocity": 0.11023622047244094
        },
        {
          "duration": 0,
          "durationTicks": 0,
          "midi": 73,
          "name": "C#5",
          "ticks": 79072,
          "time": 102.95833333333333,
          "velocity": 0.1968503937007874
        },
        {
          "duration": 0,
          "durationTicks": 0,
          "midi": 76,
          "name": "E5",
          "ticks": 79090,
          "time": 102.98177083333333,
          "velocity": 0.2125984251968504
        },
        {
          "duration": 0.1276041666666714,
          "durationTicks": 98,
          "midi": 70,
          "name": "A#4",
          "ticks": 79090,
          "time": 102.98177083333333,
          "velocity": 0.14173228346456693
        },
        {
          "duration": 0.1276041666666714,
          "durationTicks": 98,
          "midi": 51,
          "name": "D#3",
          "ticks": 79090,
          "time": 102.98177083333333,
          "velocity": 0.36220472440944884
        },
        {
          "duration": 0,
          "durationTicks": 0,
          "midi": 66,
          "name": "F#4",
          "ticks": 79099,
          "time": 102.99348958333333,
          "velocity": 0.1889763779527559
        },
        {
          "duration": 0,
          "durationTicks": 0,
          "midi": 31,
          "name": "G1",
          "ticks": 79099,
          "time": 102.99348958333333,
          "velocity": 0.29133858267716534
        },
        {
          "duration": 0,
          "durationTicks": 0,
          "midi": 74,
          "name": "D5",
          "ticks": 79108,
          "time": 103.00520833333333,
          "velocity": 0.25984251968503935
        },
        {
          "duration": 0,
          "durationTicks": 0,
          "midi": 77,
          "name": "F5",
          "ticks": 79108,
          "time": 103.00520833333333,
          "velocity": 0.1968503937007874
        },
        {
          "duration": 0.1263020833333286,
          "durationTicks": 97,
          "midi": 72,
          "name": "C5",
          "ticks": 79127,
          "time": 103.02994791666667,
          "velocity": 0.2440944881889764
        },
        {
          "duration": 0.1276041666666714,
          "durationTicks": 98,
          "midi": 68,
          "name": "G#4",
          "ticks": 79171,
          "time": 103.08723958333333,
          "velocity": 0.2440944881889764
        },
        {
          "duration": 0.1276041666666714,
          "durationTicks": 98,
          "midi": 39,
          "name": "D#2",
          "ticks": 79171,
          "time": 103.08723958333333,
          "velocity": 0.3543307086614173
        },
        {
          "duration": 0.1276041666666572,
          "durationTicks": 98,
          "midi": 58,
          "name": "A#3",
          "ticks": 79181,
          "time": 103.10026041666667,
          "velocity": 0.11023622047244094
        },
        {
          "duration": 0,
          "durationTicks": 0,
          "midi": 65,
          "name": "F4",
          "ticks": 79235,
          "time": 103.17057291666667,
          "velocity": 0.1968503937007874
        },
        {
          "duration": 0,
          "durationTicks": 0,
          "midi": 38,
          "name": "D2",
          "ticks": 79262,
          "time": 103.20572916666667,
          "velocity": 0.28346456692913385
        },
        {
          "duration": 0.1263020833333286,
          "durationTicks": 97,
          "midi": 80,
          "name": "G#5",
          "ticks": 79262,
          "time": 103.20572916666667,
          "velocity": 0.25196850393700787
        },
        {
          "duration": 0,
          "durationTicks": 0,
          "midi": 61,
          "name": "C#4",
          "ticks": 79272,
          "time": 103.21875,
          "velocity": 0.2125984251968504
        },
        {
          "duration": 0,
          "durationTicks": 0,
          "midi": 86,
          "name": "D6",
          "ticks": 79272,
          "time": 103.21875,
          "velocity": 0.08661417322834646
        },
        {
          "duration": 0,
          "durationTicks": 0,
          "midi": 94,
          "name": "A#6",
          "ticks": 79272,
          "time": 103.21875,
          "velocity": 0.05511811023622047
        },
        {
          "duration": 0.1263020833333286,
          "durationTicks": 97,
          "midi": 75,
          "name": "D#5",
          "ticks": 79272,
          "time": 103.21875,
          "velocity": 0.2047244094488189
        },
        {
          "duration": 0.2526041666666714,
          "durationTicks": 194,
          "midi": 70,
          "name": "A#4",
          "ticks": 79272,
          "time": 103.21875,
          "velocity": 0.14173228346456693
        },
        {
          "duration": 0,
          "durationTicks": 0,
          "midi": 37,
          "name": "C#2",
          "ticks": 79281,
          "time": 103.23046875,
          "velocity": 0.2755905511811024
        },
        {
          "duration": 0,
          "durationTicks": 0,
          "midi": 57,
          "name": "A3",
          "ticks": 79281,
          "time": 103.23046875,
          "velocity": 0.30708661417322836
        },
        {
          "duration": 0.1263020833333286,
          "durationTicks": 97,
          "midi": 51,
          "name": "D#3",
          "ticks": 79281,
          "time": 103.23046875,
          "velocity": 0.36220472440944884
        },
        {
          "duration": 0,
          "durationTicks": 0,
          "midi": 38,
          "name": "D2",
          "ticks": 79299,
          "time": 103.25390625,
          "velocity": 0.1889763779527559
        },
        {
          "duration": 0.1263020833333286,
          "durationTicks": 97,
          "midi": 84,
          "name": "C6",
          "ticks": 79362,
          "time": 103.3359375,
          "velocity": 0.1968503937007874
        },
        {
          "duration": 0.1263020833333286,
          "durationTicks": 97,
          "midi": 82,
          "name": "A#5",
          "ticks": 79371,
          "time": 103.34765625,
          "velocity": 0.25984251968503935
        },
        {
          "duration": 0.1263020833333286,
          "durationTicks": 97,
          "midi": 51,
          "name": "D#3",
          "ticks": 79380,
          "time": 103.359375,
          "velocity": 0.3543307086614173
        },
        {
          "duration": 0.1263020833333286,
          "durationTicks": 97,
          "midi": 77,
          "name": "F5",
          "ticks": 79380,
          "time": 103.359375,
          "velocity": 0.25984251968503935
        },
        {
          "duration": 0,
          "durationTicks": 0,
          "midi": 80,
          "name": "G#5",
          "ticks": 79416,
          "time": 103.40625,
          "velocity": 0.2125984251968504
        },
        {
          "duration": 0.1276041666666714,
          "durationTicks": 98,
          "midi": 67,
          "name": "G4",
          "ticks": 79452,
          "time": 103.453125,
          "velocity": 0.2283464566929134
        },
        {
          "duration": 0,
          "durationTicks": 0,
          "midi": 73,
          "name": "C#5",
          "ticks": 79461,
          "time": 103.46484375,
          "velocity": 0.10236220472440945
        },
        {
          "duration": 0.1276041666666714,
          "durationTicks": 98,
          "midi": 75,
          "name": "D#5",
          "ticks": 79461,
          "time": 103.46484375,
          "velocity": 0.2047244094488189
        },
        {
          "duration": 0.1276041666666714,
          "durationTicks": 98,
          "midi": 46,
          "name": "A#2",
          "ticks": 79470,
          "time": 103.4765625,
          "velocity": 0.3464566929133858
        },
        {
          "duration": 0.1276041666666714,
          "durationTicks": 98,
          "midi": 72,
          "name": "C5",
          "ticks": 79506,
          "time": 103.5234375,
          "velocity": 0.25196850393700787
        },
        {
          "duration": 0,
          "durationTicks": 0,
          "midi": 63,
          "name": "D#4",
          "ticks": 79516,
          "time": 103.53645833333333,
          "velocity": 0.23622047244094488
        },
        {
          "duration": 0,
          "durationTicks": 0,
          "midi": 36,
          "name": "C2",
          "ticks": 79543,
          "time": 103.57161458333333,
          "velocity": 0.25984251968503935
        },
        {
          "duration": 0,
          "durationTicks": 0,
          "midi": 47,
          "name": "B2",
          "ticks": 79543,
          "time": 103.57161458333333,
          "velocity": 0.3464566929133858
        },
        {
          "duration": 0,
          "durationTicks": 0,
          "midi": 60,
          "name": "C4",
          "ticks": 79552,
          "time": 103.58333333333333,
          "velocity": 0.25196850393700787
        },
        {
          "duration": 0.12890625,
          "durationTicks": 99,
          "midi": 77,
          "name": "F5",
          "ticks": 79552,
          "time": 103.58333333333333,
          "velocity": 0.25984251968503935
        },
        {
          "duration": 0,
          "durationTicks": 0,
          "midi": 79,
          "name": "G5",
          "ticks": 79561,
          "time": 103.59505208333333,
          "velocity": 0.07874015748031496
        },
        {
          "duration": 0.12890625,
          "durationTicks": 99,
          "midi": 87,
          "name": "D#6",
          "ticks": 79561,
          "time": 103.59505208333333,
          "velocity": 0.12598425196850394
        },
        {
          "duration": 0,
          "durationTicks": 0,
          "midi": 57,
          "name": "A3",
          "ticks": 79571,
          "time": 103.60807291666667,
          "velocity": 0.30708661417322836
        },
        {
          "duration": 0,
          "durationTicks": 0,
          "midi": 68,
          "name": "G#4",
          "ticks": 79571,
          "time": 103.60807291666667,
          "velocity": 0.2440944881889764
        },
        {
          "duration": 0.1276041666666572,
          "durationTicks": 98,
          "midi": 39,
          "name": "D#2",
          "ticks": 79580,
          "time": 103.61979166666667,
          "velocity": 0.3543307086614173
        },
        {
          "duration": 0,
          "durationTicks": 0,
          "midi": 60,
          "name": "C4",
          "ticks": 79589,
          "time": 103.63151041666667,
          "velocity": 0.23622047244094488
        },
        {
          "duration": 0,
          "durationTicks": 0,
          "midi": 78,
          "name": "F#5",
          "ticks": 79616,
          "time": 103.66666666666667,
          "velocity": 0.2440944881889764
        },
        {
          "duration": 0,
          "durationTicks": 0,
          "midi": 56,
          "name": "G#3",
          "ticks": 79616,
          "time": 103.66666666666667,
          "velocity": 0.2755905511811024
        },
        {
          "duration": 0.1276041666666572,
          "durationTicks": 98,
          "midi": 63,
          "name": "D#4",
          "ticks": 79616,
          "time": 103.66666666666667,
          "velocity": 0.2047244094488189
        },
        {
          "duration": 0,
          "durationTicks": 0,
          "midi": 71,
          "name": "B4",
          "ticks": 79625,
          "time": 103.67838541666667,
          "velocity": 0.2047244094488189
        },
        {
          "duration": 0.1276041666666714,
          "durationTicks": 98,
          "midi": 79,
          "name": "G5",
          "ticks": 79635,
          "time": 103.69140625,
          "velocity": 0.25984251968503935
        },
        {
          "duration": 0.1276041666666714,
          "durationTicks": 98,
          "midi": 70,
          "name": "A#4",
          "ticks": 79644,
          "time": 103.703125,
          "velocity": 0.2125984251968504
        },
        {
          "duration": 0.1276041666666714,
          "durationTicks": 98,
          "midi": 82,
          "name": "A#5",
          "ticks": 79644,
          "time": 103.703125,
          "velocity": 0.2204724409448819
        },
        {
          "duration": 0,
          "durationTicks": 0,
          "midi": 30,
          "name": "F#1",
          "ticks": 79663,
          "time": 103.72786458333333,
          "velocity": 0.4251968503937008
        },
        {
          "duration": 0.1276041666666714,
          "durationTicks": 98,
          "midi": 89,
          "name": "F6",
          "ticks": 79663,
          "time": 103.72786458333333,
          "velocity": 0.10236220472440945
        },
        {
          "duration": 0,
          "durationTicks": 0,
          "midi": 86,
          "name": "D6",
          "ticks": 79680,
          "time": 103.75,
          "velocity": 0.05511811023622047
        },
        {
          "duration": 0.12890625,
          "durationTicks": 99,
          "midi": 53,
          "name": "F3",
          "ticks": 79680,
          "time": 103.75,
          "velocity": 0.2204724409448819
        },
        {
          "duration": 0.12890625,
          "durationTicks": 99,
          "midi": 63,
          "name": "D#4",
          "ticks": 79680,
          "time": 103.75,
          "velocity": 0.12598425196850394
        },
        {
          "duration": 0,
          "durationTicks": 0,
          "midi": 87,
          "name": "D#6",
          "ticks": 79698,
          "time": 103.7734375,
          "velocity": 0.11023622047244094
        },
        {
          "duration": 0.12890625,
          "durationTicks": 99,
          "midi": 29,
          "name": "F1",
          "ticks": 79707,
          "time": 103.78515625,
          "velocity": 0.3858267716535433
        },
        {
          "duration": 0,
          "durationTicks": 0,
          "midi": 86,
          "name": "D6",
          "ticks": 79726,
          "time": 103.80989583333333,
          "velocity": 0.06299212598425197
        },
        {
          "duration": 0.25390625,
          "durationTicks": 195,
          "midi": 60,
          "name": "C4",
          "ticks": 79744,
          "time": 103.83333333333333,
          "velocity": 0.13385826771653545
        },
        {
          "duration": 0,
          "durationTicks": 0,
          "midi": 84,
          "name": "C6",
          "ticks": 79754,
          "time": 103.84635416666667,
          "velocity": 0.10236220472440945
        },
        {
          "duration": 0.1276041666666572,
          "durationTicks": 98,
          "midi": 48,
          "name": "C3",
          "ticks": 79763,
          "time": 103.85807291666667,
          "velocity": 0.08661417322834646
        },
        {
          "duration": 0,
          "durationTicks": 0,
          "midi": 69,
          "name": "A4",
          "ticks": 79772,
          "time": 103.86979166666667,
          "velocity": 0.1968503937007874
        },
        {
          "duration": 0,
          "durationTicks": 0,
          "midi": 78,
          "name": "F#5",
          "ticks": 79772,
          "time": 103.86979166666667,
          "velocity": 0.2283464566929134
        },
        {
          "duration": 0,
          "durationTicks": 0,
          "midi": 68,
          "name": "G#4",
          "ticks": 79791,
          "time": 103.89453125,
          "velocity": 0.1968503937007874
        },
        {
          "duration": 0,
          "durationTicks": 0,
          "midi": 77,
          "name": "F5",
          "ticks": 79791,
          "time": 103.89453125,
          "velocity": 0.25984251968503935
        },
        {
          "duration": 0,
          "durationTicks": 0,
          "midi": 80,
          "name": "G#5",
          "ticks": 79791,
          "time": 103.89453125,
          "velocity": 0.2125984251968504
        },
        {
          "duration": 0.1263020833333286,
          "durationTicks": 97,
          "midi": 56,
          "name": "G#3",
          "ticks": 79791,
          "time": 103.89453125,
          "velocity": 0.11811023622047244
        },
        {
          "duration": 0,
          "durationTicks": 0,
          "midi": 67,
          "name": "G4",
          "ticks": 79818,
          "time": 103.9296875,
          "velocity": 0.1968503937007874
        },
        {
          "duration": 0,
          "durationTicks": 0,
          "midi": 76,
          "name": "E5",
          "ticks": 79818,
          "time": 103.9296875,
          "velocity": 0.2440944881889764
        },
        {
          "duration": 0,
          "durationTicks": 0,
          "midi": 79,
          "name": "G5",
          "ticks": 79818,
          "time": 103.9296875,
          "velocity": 0.2283464566929134
        },
        {
          "duration": 0,
          "durationTicks": 0,
          "midi": 66,
          "name": "F#4",
          "ticks": 79835,
          "time": 103.95182291666667,
          "velocity": 0.18110236220472442
        },
        {
          "duration": 0,
          "durationTicks": 0,
          "midi": 78,
          "name": "F#5",
          "ticks": 79835,
          "time": 103.95182291666667,
          "velocity": 0.18110236220472442
        },
        {
          "duration": 0,
          "durationTicks": 0,
          "midi": 63,
          "name": "D#4",
          "ticks": 79835,
          "time": 103.95182291666667,
          "velocity": 0.11023622047244094
        },
        {
          "duration": 0.1263020833333286,
          "durationTicks": 97,
          "midi": 75,
          "name": "D#5",
          "ticks": 79835,
          "time": 103.95182291666667,
          "velocity": 0.2440944881889764
        },
        {
          "duration": 0.1263020833333286,
          "durationTicks": 97,
          "midi": 77,
          "name": "F5",
          "ticks": 79845,
          "time": 103.96484375,
          "velocity": 0.25984251968503935
        },
        {
          "duration": 0.1263020833333286,
          "durationTicks": 97,
          "midi": 68,
          "name": "G#4",
          "ticks": 79854,
          "time": 103.9765625,
          "velocity": 0.1968503937007874
        },
        {
          "duration": 0.1263020833333286,
          "durationTicks": 97,
          "midi": 72,
          "name": "C5",
          "ticks": 79863,
          "time": 103.98828125,
          "velocity": 0.15748031496062992
        },
        {
          "duration": 0,
          "durationTicks": 0,
          "midi": 84,
          "name": "C6",
          "ticks": 79908,
          "time": 104.046875,
          "velocity": 0.05511811023622047
        },
        {
          "duration": 0,
          "durationTicks": 0,
          "midi": 53,
          "name": "F3",
          "ticks": 79917,
          "time": 104.05859375,
          "velocity": 0.12598425196850394
        },
        {
          "duration": 0.1276041666666714,
          "durationTicks": 98,
          "midi": 82,
          "name": "A#5",
          "ticks": 79953,
          "time": 104.10546875,
          "velocity": 0.13385826771653545
        },
        {
          "duration": 0,
          "durationTicks": 0,
          "midi": 53,
          "name": "F3",
          "ticks": 79990,
          "time": 104.15364583333333,
          "velocity": 0.05511811023622047
        },
        {
          "duration": 0,
          "durationTicks": 0,
          "midi": 63,
          "name": "D#4",
          "ticks": 79999,
          "time": 104.16536458333333,
          "velocity": 0.10236220472440945
        },
        {
          "duration": 0,
          "durationTicks": 0,
          "midi": 61,
          "name": "C#4",
          "ticks": 80035,
          "time": 104.21223958333333,
          "velocity": 0.08661417322834646
        },
        {
          "duration": 0,
          "durationTicks": 0,
          "midi": 72,
          "name": "C5",
          "ticks": 80035,
          "time": 104.21223958333333,
          "velocity": 0.14173228346456693
        },
        {
          "duration": 0,
          "durationTicks": 0,
          "midi": 80,
          "name": "G#5",
          "ticks": 80035,
          "time": 104.21223958333333,
          "velocity": 0.15748031496062992
        },
        {
          "duration": 0.1263020833333428,
          "durationTicks": 97,
          "midi": 67,
          "name": "G4",
          "ticks": 80035,
          "time": 104.21223958333333,
          "velocity": 0.2204724409448819
        },
        {
          "duration": 0.1263020833333428,
          "durationTicks": 97,
          "midi": 75,
          "name": "D#5",
          "ticks": 80035,
          "time": 104.21223958333333,
          "velocity": 0.25984251968503935
        },
        {
          "duration": 0,
          "durationTicks": 0,
          "midi": 56,
          "name": "G#3",
          "ticks": 80044,
          "time": 104.22395833333333,
          "velocity": 0.29133858267716534
        },
        {
          "duration": 0,
          "durationTicks": 0,
          "midi": 86,
          "name": "D6",
          "ticks": 80054,
          "time": 104.23697916666667,
          "velocity": 0.08661417322834646
        },
        {
          "duration": 0.1263020833333286,
          "durationTicks": 97,
          "midi": 94,
          "name": "A#6",
          "ticks": 80054,
          "time": 104.23697916666667,
          "velocity": 0.07874015748031496
        },
        {
          "duration": 0,
          "durationTicks": 0,
          "midi": 38,
          "name": "D2",
          "ticks": 80063,
          "time": 104.24869791666667,
          "velocity": 0.2283464566929134
        },
        {
          "duration": 0.1263020833333286,
          "durationTicks": 97,
          "midi": 63,
          "name": "D#4",
          "ticks": 80063,
          "time": 104.24869791666667,
          "velocity": 0.14173228346456693
        },
        {
          "duration": 0.1263020833333286,
          "durationTicks": 97,
          "midi": 60,
          "name": "C4",
          "ticks": 80081,
          "time": 104.27213541666667,
          "velocity": 0.10236220472440945
        },
        {
          "duration": 0,
          "durationTicks": 0,
          "midi": 56,
          "name": "G#3",
          "ticks": 80144,
          "time": 104.35416666666667,
          "velocity": 0.14173228346456693
        },
        {
          "duration": 0,
          "durationTicks": 0,
          "midi": 80,
          "name": "G#5",
          "ticks": 80189,
          "time": 104.41276041666667,
          "velocity": 0.05511811023622047
        },
        {
          "duration": 0,
          "durationTicks": 0,
          "midi": 53,
          "name": "F3",
          "ticks": 80216,
          "time": 104.44791666666667,
          "velocity": 0.08661417322834646
        },
        {
          "duration": 0.50390625,
          "durationTicks": 387,
          "midi": 72,
          "name": "C5",
          "ticks": 80225,
          "time": 104.45963541666667,
          "velocity": 0.2440944881889764
        },
        {
          "duration": 0.1263020833333286,
          "durationTicks": 97,
          "midi": 63,
          "name": "D#4",
          "ticks": 80235,
          "time": 104.47265625,
          "velocity": 0.2283464566929134
        },
        {
          "duration": 0.1263020833333286,
          "durationTicks": 97,
          "midi": 91,
          "name": "G6",
          "ticks": 80244,
          "time": 104.484375,
          "velocity": 0.08661417322834646
        },
        {
          "duration": 0.3776041666666714,
          "durationTicks": 290,
          "midi": 68,
          "name": "G#4",
          "ticks": 80325,
          "time": 104.58984375,
          "velocity": 0.2755905511811024
        },
        {
          "duration": 0.2513020833333286,
          "durationTicks": 193,
          "midi": 87,
          "name": "D#6",
          "ticks": 80334,
          "time": 104.6015625,
          "velocity": 0.07086614173228346
        },
        {
          "duration": 0.3776041666666714,
          "durationTicks": 290,
          "midi": 60,
          "name": "C4",
          "ticks": 80334,
          "time": 104.6015625,
          "velocity": 0.25984251968503935
        },
        {
          "duration": 0.1263020833333286,
          "durationTicks": 97,
          "midi": 79,
          "name": "G5",
          "ticks": 80379,
          "time": 104.66015625,
          "velocity": 0.08661417322834646
        },
        {
          "duration": 0,
          "durationTicks": 0,
          "midi": 29,
          "name": "F1",
          "ticks": 80432,
          "time": 104.72916666666667,
          "velocity": 0.4015748031496063
        },
        {
          "duration": 0,
          "durationTicks": 0,
          "midi": 30,
          "name": "F#1",
          "ticks": 80442,
          "time": 104.7421875,
          "velocity": 0.4251968503937008
        },
        {
          "duration": 0,
          "durationTicks": 0,
          "midi": 48,
          "name": "C3",
          "ticks": 80469,
          "time": 104.77734375,
          "velocity": 0.12598425196850394
        },
        {
          "duration": 0.125,
          "durationTicks": 96,
          "midi": 29,
          "name": "F1",
          "ticks": 80478,
          "time": 104.7890625,
          "velocity": 0.3779527559055118
        },
        {
          "duration": 0.125,
          "durationTicks": 96,
          "midi": 48,
          "name": "C3",
          "ticks": 80514,
          "time": 104.8359375,
          "velocity": 0.08661417322834646
        },
        {
          "duration": 0,
          "durationTicks": 0,
          "midi": 67,
          "name": "G4",
          "ticks": 80576,
          "time": 104.91666666666667,
          "velocity": 0.2440944881889764
        },
        {
          "duration": 0,
          "durationTicks": 0,
          "midi": 75,
          "name": "D#5",
          "ticks": 80576,
          "time": 104.91666666666667,
          "velocity": 0.05511811023622047
        },
        {
          "duration": 0,
          "durationTicks": 0,
          "midi": 70,
          "name": "A#4",
          "ticks": 80585,
          "time": 104.92838541666667,
          "velocity": 0.1732283464566929
        },
        {
          "duration": 0.125,
          "durationTicks": 96,
          "midi": 68,
          "name": "G#4",
          "ticks": 80612,
          "time": 104.96354166666667,
          "velocity": 0.2440944881889764
        },
        {
          "duration": 0.2513020833333286,
          "durationTicks": 193,
          "midi": 72,
          "name": "C5",
          "ticks": 80612,
          "time": 104.96354166666667,
          "velocity": 0.18110236220472442
        },
        {
          "duration": 0.2513020833333286,
          "durationTicks": 193,
          "midi": 60,
          "name": "C4",
          "ticks": 80622,
          "time": 104.9765625,
          "velocity": 0.23622047244094488
        },
        {
          "duration": 0,
          "durationTicks": 0,
          "midi": 64,
          "name": "E4",
          "ticks": 80791,
          "time": 105.19661458333333,
          "velocity": 0.2125984251968504
        },
        {
          "duration": 0,
          "durationTicks": 0,
          "midi": 80,
          "name": "G#5",
          "ticks": 80801,
          "time": 105.20963541666667,
          "velocity": 0.14960629921259844
        },
        {
          "duration": 0,
          "durationTicks": 0,
          "midi": 90,
          "name": "F#6",
          "ticks": 80801,
          "time": 105.20963541666667,
          "velocity": 0.06299212598425197
        },
        {
          "duration": 0,
          "durationTicks": 0,
          "midi": 86,
          "name": "D6",
          "ticks": 80801,
          "time": 105.20963541666667,
          "velocity": 0.10236220472440945
        },
        {
          "duration": 0.1263020833333286,
          "durationTicks": 97,
          "midi": 82,
          "name": "A#5",
          "ticks": 80801,
          "time": 105.20963541666667,
          "velocity": 0.07874015748031496
        },
        {
          "duration": 0.1263020833333286,
          "durationTicks": 97,
          "midi": 67,
          "name": "G4",
          "ticks": 80801,
          "time": 105.20963541666667,
          "velocity": 0.25984251968503935
        },
        {
          "duration": 0.1263020833333286,
          "durationTicks": 97,
          "midi": 75,
          "name": "D#5",
          "ticks": 80801,
          "time": 105.20963541666667,
          "velocity": 0.1732283464566929
        },
        {
          "duration": 0.1263020833333286,
          "durationTicks": 97,
          "midi": 63,
          "name": "D#4",
          "ticks": 80810,
          "time": 105.22135416666667,
          "velocity": 0.2125984251968504
        },
        {
          "duration": 0,
          "durationTicks": 0,
          "midi": 57,
          "name": "A3",
          "ticks": 80819,
          "time": 105.23307291666667,
          "velocity": 0.29133858267716534
        },
        {
          "duration": 0.125,
          "durationTicks": 96,
          "midi": 86,
          "name": "D6",
          "ticks": 80829,
          "time": 105.24609375,
          "velocity": 0.05511811023622047
        },
        {
          "duration": 0.25,
          "durationTicks": 192,
          "midi": 31,
          "name": "G1",
          "ticks": 80829,
          "time": 105.24609375,
          "velocity": 0.36220472440944884
        },
        {
          "duration": 0,
          "durationTicks": 0,
          "midi": 60,
          "name": "C4",
          "ticks": 80846,
          "time": 105.26822916666667,
          "velocity": 0.07874015748031496
        },
        {
          "duration": 0.125,
          "durationTicks": 96,
          "midi": 50,
          "name": "D3",
          "ticks": 80900,
          "time": 105.33854166666667,
          "velocity": 0.08661417322834646
        },
        {
          "duration": 0,
          "durationTicks": 0,
          "midi": 72,
          "name": "C5",
          "ticks": 80962,
          "time": 105.41927083333333,
          "velocity": 0.05511811023622047
        },
        {
          "duration": 0.125,
          "durationTicks": 96,
          "midi": 68,
          "name": "G#4",
          "ticks": 80989,
          "time": 105.45442708333333,
          "velocity": 0.2440944881889764
        },
        {
          "duration": 0.125,
          "durationTicks": 96,
          "midi": 77,
          "name": "F5",
          "ticks": 80989,
          "time": 105.45442708333333,
          "velocity": 0.14173228346456693
        },
        {
          "duration": 0.125,
          "durationTicks": 96,
          "midi": 65,
          "name": "F4",
          "ticks": 81008,
          "time": 105.47916666666667,
          "velocity": 0.29133858267716534
        },
        {
          "duration": 0.1276041666666714,
          "durationTicks": 98,
          "midi": 58,
          "name": "A#3",
          "ticks": 81034,
          "time": 105.51302083333333,
          "velocity": 0.2755905511811024
        },
        {
          "duration": 0,
          "durationTicks": 0,
          "midi": 44,
          "name": "G#2",
          "ticks": 81078,
          "time": 105.5703125,
          "velocity": 0.3779527559055118
        },
        {
          "duration": 0.12890625,
          "durationTicks": 99,
          "midi": 84,
          "name": "C6",
          "ticks": 81087,
          "time": 105.58203125,
          "velocity": 0.05511811023622047
        },
        {
          "duration": 0,
          "durationTicks": 0,
          "midi": 45,
          "name": "A2",
          "ticks": 81097,
          "time": 105.59505208333333,
          "velocity": 0.3858267716535433
        },
        {
          "duration": 0,
          "durationTicks": 0,
          "midi": 60,
          "name": "C4",
          "ticks": 81097,
          "time": 105.59505208333333,
          "velocity": 0.31496062992125984
        },
        {
          "duration": 0.12890625,
          "durationTicks": 99,
          "midi": 71,
          "name": "B4",
          "ticks": 81097,
          "time": 105.59505208333333,
          "velocity": 0.14960629921259844
        },
        {
          "duration": 0.1276041666666714,
          "durationTicks": 98,
          "midi": 44,
          "name": "G#2",
          "ticks": 81115,
          "time": 105.61848958333333,
          "velocity": 0.3700787401574803
        },
        {
          "duration": 0,
          "durationTicks": 0,
          "midi": 31,
          "name": "G1",
          "ticks": 81125,
          "time": 105.63151041666667,
          "velocity": 0.2677165354330709
        },
        {
          "duration": 0,
          "durationTicks": 0,
          "midi": 59,
          "name": "B3",
          "ticks": 81134,
          "time": 105.64322916666667,
          "velocity": 0.2440944881889764
        },
        {
          "duration": 0.1263020833333286,
          "durationTicks": 97,
          "midi": 82,
          "name": "A#5",
          "ticks": 81143,
          "time": 105.65494791666667,
          "velocity": 0.05511811023622047
        },
        {
          "duration": 0,
          "durationTicks": 0,
          "midi": 29,
          "name": "F1",
          "ticks": 81153,
          "time": 105.66796875,
          "velocity": 0.18110236220472442
        },
        {
          "duration": 0,
          "durationTicks": 0,
          "midi": 66,
          "name": "F#4",
          "ticks": 81153,
          "time": 105.66796875,
          "velocity": 0.25196850393700787
        },
        {
          "duration": 0.1263020833333286,
          "durationTicks": 97,
          "midi": 63,
          "name": "D#4",
          "ticks": 81153,
          "time": 105.66796875,
          "velocity": 0.23622047244094488
        },
        {
          "duration": 0.2526041666666714,
          "durationTicks": 194,
          "midi": 70,
          "name": "A#4",
          "ticks": 81162,
          "time": 105.6796875,
          "velocity": 0.2125984251968504
        },
        {
          "duration": 0,
          "durationTicks": 0,
          "midi": 86,
          "name": "D6",
          "ticks": 81171,
          "time": 105.69140625,
          "velocity": 0.05511811023622047
        },
        {
          "duration": 0.2526041666666714,
          "durationTicks": 194,
          "midi": 67,
          "name": "G4",
          "ticks": 81171,
          "time": 105.69140625,
          "velocity": 0.30708661417322836
        },
        {
          "duration": 0.2526041666666714,
          "durationTicks": 194,
          "midi": 58,
          "name": "A#3",
          "ticks": 81171,
          "time": 105.69140625,
          "velocity": 0.2677165354330709
        },
        {
          "duration": 0,
          "durationTicks": 0,
          "midi": 86,
          "name": "D6",
          "ticks": 81261,
          "time": 105.80859375,
          "velocity": 0.09448818897637795
        },
        {
          "duration": 0.1263020833333286,
          "durationTicks": 97,
          "midi": 44,
          "name": "G#2",
          "ticks": 81270,
          "time": 105.8203125,
          "velocity": 0.36220472440944884
        },
        {
          "duration": 0.1263020833333428,
          "durationTicks": 97,
          "midi": 63,
          "name": "D#4",
          "ticks": 81280,
          "time": 105.83333333333333,
          "velocity": 0.16535433070866143
        },
        {
          "duration": 0.1263020833333428,
          "durationTicks": 97,
          "midi": 77,
          "name": "F5",
          "ticks": 81289,
          "time": 105.84505208333333,
          "velocity": 0.12598425196850394
        },
        {
          "duration": 0,
          "durationTicks": 0,
          "midi": 86,
          "name": "D6",
          "ticks": 81343,
          "time": 105.91536458333333,
          "velocity": 0.08661417322834646
        },
        {
          "duration": 0,
          "durationTicks": 0,
          "midi": 43,
          "name": "G2",
          "ticks": 81370,
          "time": 105.95052083333333,
          "velocity": 0.3228346456692913
        },
        {
          "duration": 0,
          "durationTicks": 0,
          "midi": 31,
          "name": "G1",
          "ticks": 81388,
          "time": 105.97395833333333,
          "velocity": 0.36220472440944884
        },
        {
          "duration": 0,
          "durationTicks": 0,
          "midi": 66,
          "name": "F#4",
          "ticks": 81388,
          "time": 105.97395833333333,
          "velocity": 0.23622047244094488
        },
        {
          "duration": 0.1236979166666714,
          "durationTicks": 95,
          "midi": 71,
          "name": "B4",
          "ticks": 81388,
          "time": 105.97395833333333,
          "velocity": 0.05511811023622047
        },
        {
          "duration": 0,
          "durationTicks": 0,
          "midi": 32,
          "name": "G#1",
          "ticks": 81406,
          "time": 105.99739583333333,
          "velocity": 0.31496062992125984
        },
        {
          "duration": 0.125,
          "durationTicks": 96,
          "midi": 56,
          "name": "G#3",
          "ticks": 81406,
          "time": 105.99739583333333,
          "velocity": 0.2283464566929134
        },
        {
          "duration": 0.125,
          "durationTicks": 96,
          "midi": 65,
          "name": "F4",
          "ticks": 81406,
          "time": 105.99739583333333,
          "velocity": 0.25984251968503935
        },
        {
          "duration": 0.125,
          "durationTicks": 96,
          "midi": 68,
          "name": "G#4",
          "ticks": 81406,
          "time": 105.99739583333333,
          "velocity": 0.23622047244094488
        },
        {
          "duration": 0,
          "durationTicks": 0,
          "midi": 33,
          "name": "A1",
          "ticks": 81424,
          "time": 106.02083333333333,
          "velocity": 0.31496062992125984
        },
        {
          "duration": 0,
          "durationTicks": 0,
          "midi": 84,
          "name": "C6",
          "ticks": 81424,
          "time": 106.02083333333333,
          "velocity": 0.08661417322834646
        },
        {
          "duration": 0.1263020833333286,
          "durationTicks": 97,
          "midi": 70,
          "name": "A#4",
          "ticks": 81468,
          "time": 106.078125,
          "velocity": 0.11023622047244094
        },
        {
          "duration": 0.1276041666666714,
          "durationTicks": 98,
          "midi": 67,
          "name": "G4",
          "ticks": 81486,
          "time": 106.1015625,
          "velocity": 0.07874015748031496
        },
        {
          "duration": 0.1276041666666714,
          "durationTicks": 98,
          "midi": 58,
          "name": "A#3",
          "ticks": 81495,
          "time": 106.11328125,
          "velocity": 0.10236220472440945
        },
        {
          "duration": 0,
          "durationTicks": 0,
          "midi": 61,
          "name": "C#4",
          "ticks": 81558,
          "time": 106.1953125,
          "velocity": 0.2204724409448819
        },
        {
          "duration": 0,
          "durationTicks": 0,
          "midi": 80,
          "name": "G#5",
          "ticks": 81558,
          "time": 106.1953125,
          "velocity": 0.14173228346456693
        },
        {
          "duration": 0,
          "durationTicks": 0,
          "midi": 86,
          "name": "D6",
          "ticks": 81567,
          "time": 106.20703125,
          "velocity": 0.06299212598425197
        },
        {
          "duration": 0,
          "durationTicks": 0,
          "midi": 94,
          "name": "A#6",
          "ticks": 81567,
          "time": 106.20703125,
          "velocity": 0.07874015748031496
        },
        {
          "duration": 0,
          "durationTicks": 0,
          "midi": 34,
          "name": "A#1",
          "ticks": 81577,
          "time": 106.22005208333333,
          "velocity": 0.4015748031496063
        },
        {
          "duration": 0,
          "durationTicks": 0,
          "midi": 79,
          "name": "G5",
          "ticks": 81577,
          "time": 106.22005208333333,
          "velocity": 0.08661417322834646
        },
        {
          "duration": 0,
          "durationTicks": 0,
          "midi": 87,
          "name": "D#6",
          "ticks": 81577,
          "time": 106.22005208333333,
          "velocity": 0.08661417322834646
        },
        {
          "duration": 0,
          "durationTicks": 0,
          "midi": 60,
          "name": "C4",
          "ticks": 81577,
          "time": 106.22005208333333,
          "velocity": 0.29133858267716534
        },
        {
          "duration": 0,
          "durationTicks": 0,
          "midi": 56,
          "name": "G#3",
          "ticks": 81586,
          "time": 106.23177083333333,
          "velocity": 0.25984251968503935
        },
        {
          "duration": 0.1276041666666714,
          "durationTicks": 98,
          "midi": 70,
          "name": "A#4",
          "ticks": 81595,
          "time": 106.24348958333333,
          "velocity": 0.11023622047244094
        },
        {
          "duration": 0.1276041666666572,
          "durationTicks": 98,
          "midi": 65,
          "name": "F4",
          "ticks": 81605,
          "time": 106.25651041666667,
          "velocity": 0.14960629921259844
        },
        {
          "duration": 0,
          "durationTicks": 0,
          "midi": 33,
          "name": "A1",
          "ticks": 81614,
          "time": 106.26822916666667,
          "velocity": 0.36220472440944884
        },
        {
          "duration": 0,
          "durationTicks": 0,
          "midi": 53,
          "name": "F3",
          "ticks": 81623,
          "time": 106.27994791666667,
          "velocity": 0.2283464566929134
        },
        {
          "duration": 0,
          "durationTicks": 0,
          "midi": 32,
          "name": "G#1",
          "ticks": 81633,
          "time": 106.29296875,
          "velocity": 0.3464566929133858
        },
        {
          "duration": 0,
          "durationTicks": 0,
          "midi": 60,
          "name": "C4",
          "ticks": 81633,
          "time": 106.29296875,
          "velocity": 0.29133858267716534
        },
        {
          "duration": 0.2526041666666572,
          "durationTicks": 194,
          "midi": 63,
          "name": "D#4",
          "ticks": 81677,
          "time": 106.35026041666667,
          "velocity": 0.16535433070866143
        },
        {
          "duration": 0,
          "durationTicks": 0,
          "midi": 60,
          "name": "C4",
          "ticks": 81686,
          "time": 106.36197916666667,
          "velocity": 0.08661417322834646
        },
        {
          "duration": 0.1263020833333286,
          "durationTicks": 97,
          "midi": 68,
          "name": "G#4",
          "ticks": 81686,
          "time": 106.36197916666667,
          "velocity": 0.14173228346456693
        },
        {
          "duration": 0.125,
          "durationTicks": 96,
          "midi": 67,
          "name": "G4",
          "ticks": 81759,
          "time": 106.45703125,
          "velocity": 0.10236220472440945
        },
        {
          "duration": 0.125,
          "durationTicks": 96,
          "midi": 58,
          "name": "A#3",
          "ticks": 81759,
          "time": 106.45703125,
          "velocity": 0.2677165354330709
        },
        {
          "duration": 0.125,
          "durationTicks": 96,
          "midi": 51,
          "name": "D#3",
          "ticks": 81768,
          "time": 106.46875,
          "velocity": 0.1968503937007874
        },
        {
          "duration": 0.125,
          "durationTicks": 96,
          "midi": 77,
          "name": "F5",
          "ticks": 81768,
          "time": 106.46875,
          "velocity": 0.05511811023622047
        },
        {
          "duration": 0.3763020833333286,
          "durationTicks": 289,
          "midi": 60,
          "name": "C4",
          "ticks": 81857,
          "time": 106.58463541666667,
          "velocity": 0.2677165354330709
        },
        {
          "duration": 0.125,
          "durationTicks": 96,
          "midi": 53,
          "name": "F3",
          "ticks": 81866,
          "time": 106.59635416666667,
          "velocity": 0.23622047244094488
        },
        {
          "duration": 0.1263020833333286,
          "durationTicks": 97,
          "midi": 79,
          "name": "G5",
          "ticks": 81884,
          "time": 106.61979166666667,
          "velocity": 0.07086614173228346
        },
        {
          "duration": 0.1263020833333286,
          "durationTicks": 97,
          "midi": 53,
          "name": "F3",
          "ticks": 81965,
          "time": 106.72526041666667,
          "velocity": 0.2125984251968504
        },
        {
          "duration": 0,
          "durationTicks": 0,
          "midi": 31,
          "name": "G1",
          "ticks": 81974,
          "time": 106.73697916666667,
          "velocity": 0.29133858267716534
        },
        {
          "duration": 0,
          "durationTicks": 0,
          "midi": 54,
          "name": "F#3",
          "ticks": 82082,
          "time": 106.87760416666667,
          "velocity": 0.1889763779527559
        },
        {
          "duration": 0,
          "durationTicks": 0,
          "midi": 53,
          "name": "F3",
          "ticks": 82099,
          "time": 106.89973958333333,
          "velocity": 0.1968503937007874
        },
        {
          "duration": 0.12369791666665719,
          "durationTicks": 95,
          "midi": 60,
          "name": "C4",
          "ticks": 82109,
          "time": 106.91276041666667,
          "velocity": 0.2204724409448819
        },
        {
          "duration": 0.1236979166666714,
          "durationTicks": 95,
          "midi": 53,
          "name": "F3",
          "ticks": 82126,
          "time": 106.93489583333333,
          "velocity": 0.2047244094488189
        },
        {
          "duration": 0,
          "durationTicks": 0,
          "midi": 31,
          "name": "G1",
          "ticks": 82161,
          "time": 106.98046875,
          "velocity": 0.29133858267716534
        },
        {
          "duration": 0.1263020833333286,
          "durationTicks": 97,
          "midi": 60,
          "name": "C4",
          "ticks": 82233,
          "time": 107.07421875,
          "velocity": 0.12598425196850394
        },
        {
          "duration": 0.1263020833333286,
          "durationTicks": 97,
          "midi": 32,
          "name": "G#1",
          "ticks": 82242,
          "time": 107.0859375,
          "velocity": 0.3464566929133858
        },
        {
          "duration": 0,
          "durationTicks": 0,
          "midi": 52,
          "name": "E3",
          "ticks": 82287,
          "time": 107.14453125,
          "velocity": 0.12598425196850394
        },
        {
          "duration": 0,
          "durationTicks": 0,
          "midi": 65,
          "name": "F4",
          "ticks": 82314,
          "time": 107.1796875,
          "velocity": 0.14173228346456693
        },
        {
          "duration": 0,
          "durationTicks": 0,
          "midi": 80,
          "name": "G#5",
          "ticks": 82323,
          "time": 107.19140625,
          "velocity": 0.14960629921259844
        },
        {
          "duration": 0,
          "durationTicks": 0,
          "midi": 79,
          "name": "G5",
          "ticks": 82332,
          "time": 107.203125,
          "velocity": 0.10236220472440945
        },
        {
          "duration": 0,
          "durationTicks": 0,
          "midi": 94,
          "name": "A#6",
          "ticks": 82332,
          "time": 107.203125,
          "velocity": 0.08661417322834646
        },
        {
          "duration": 0.1276041666666714,
          "durationTicks": 98,
          "midi": 56,
          "name": "G#3",
          "ticks": 82332,
          "time": 107.203125,
          "velocity": 0.36220472440944884
        },
        {
          "duration": 0,
          "durationTicks": 0,
          "midi": 44,
          "name": "G#2",
          "ticks": 82341,
          "time": 107.21484375,
          "velocity": 0.3700787401574803
        },
        {
          "duration": 0,
          "durationTicks": 0,
          "midi": 75,
          "name": "D#5",
          "ticks": 82351,
          "time": 107.22786458333333,
          "velocity": 0.10236220472440945
        },
        {
          "duration": 0,
          "durationTicks": 0,
          "midi": 60,
          "name": "C4",
          "ticks": 82360,
          "time": 107.23958333333333,
          "velocity": 0.28346456692913385
        },
        {
          "duration": 0,
          "durationTicks": 0,
          "midi": 44,
          "name": "G#2",
          "ticks": 82369,
          "time": 107.25130208333333,
          "velocity": 0.3779527559055118
        },
        {
          "duration": 0.1263020833333428,
          "durationTicks": 97,
          "midi": 63,
          "name": "D#4",
          "ticks": 82387,
          "time": 107.27473958333333,
          "velocity": 0.1889763779527559
        },
        {
          "duration": 0.1263020833333428,
          "durationTicks": 97,
          "midi": 77,
          "name": "F5",
          "ticks": 82396,
          "time": 107.28645833333333,
          "velocity": 0.06299212598425197
        },
        {
          "duration": 0,
          "durationTicks": 0,
          "midi": 44,
          "name": "G#2",
          "ticks": 82406,
          "time": 107.29947916666667,
          "velocity": 0.3700787401574803
        },
        {
          "duration": 0.1263020833333286,
          "durationTicks": 97,
          "midi": 58,
          "name": "A#3",
          "ticks": 82406,
          "time": 107.29947916666667,
          "velocity": 0.2755905511811024
        },
        {
          "duration": 0,
          "durationTicks": 0,
          "midi": 31,
          "name": "G1",
          "ticks": 82432,
          "time": 107.33333333333333,
          "velocity": 0.36220472440944884
        },
        {
          "duration": 0,
          "durationTicks": 0,
          "midi": 52,
          "name": "E3",
          "ticks": 82432,
          "time": 107.33333333333333,
          "velocity": 0.2283464566929134
        },
        {
          "duration": 0,
          "durationTicks": 0,
          "midi": 32,
          "name": "G#1",
          "ticks": 82450,
          "time": 107.35677083333333,
          "velocity": 0.33070866141732286
        },
        {
          "duration": 0,
          "durationTicks": 0,
          "midi": 53,
          "name": "F3",
          "ticks": 82459,
          "time": 107.36848958333333,
          "velocity": 0.23622047244094488
        },
        {
          "duration": 0.1263020833333428,
          "durationTicks": 97,
          "midi": 65,
          "name": "F4",
          "ticks": 82459,
          "time": 107.36848958333333,
          "velocity": 0.25196850393700787
        },
        {
          "duration": 0,
          "durationTicks": 0,
          "midi": 33,
          "name": "A1",
          "ticks": 82469,
          "time": 107.38151041666667,
          "velocity": 0.3228346456692913
        },
        {
          "duration": 0,
          "durationTicks": 0,
          "midi": 60,
          "name": "C4",
          "ticks": 82469,
          "time": 107.38151041666667,
          "velocity": 0.2283464566929134
        },
        {
          "duration": 0,
          "durationTicks": 0,
          "midi": 53,
          "name": "F3",
          "ticks": 82486,
          "time": 107.40364583333333,
          "velocity": 0.2440944881889764
        },
        {
          "duration": 0,
          "durationTicks": 0,
          "midi": 32,
          "name": "G#1",
          "ticks": 82505,
          "time": 107.42838541666667,
          "velocity": 0.3464566929133858
        },
        {
          "duration": 0,
          "durationTicks": 0,
          "midi": 61,
          "name": "C#4",
          "ticks": 82505,
          "time": 107.42838541666667,
          "velocity": 0.2677165354330709
        },
        {
          "duration": 0,
          "durationTicks": 0,
          "midi": 50,
          "name": "D3",
          "ticks": 82522,
          "time": 107.45052083333333,
          "velocity": 0.07086614173228346
        },
        {
          "duration": 0.1263020833333286,
          "durationTicks": 97,
          "midi": 56,
          "name": "G#3",
          "ticks": 82532,
          "time": 107.46354166666667,
          "velocity": 0.2125984251968504
        },
        {
          "duration": 0,
          "durationTicks": 0,
          "midi": 84,
          "name": "C6",
          "ticks": 82541,
          "time": 107.47526041666667,
          "velocity": 0.08661417322834646
        },
        {
          "duration": 0,
          "durationTicks": 0,
          "midi": 29,
          "name": "F1",
          "ticks": 82559,
          "time": 107.49869791666667,
          "velocity": 0.36220472440944884
        },
        {
          "duration": 0,
          "durationTicks": 0,
          "midi": 48,
          "name": "C3",
          "ticks": 82559,
          "time": 107.49869791666667,
          "velocity": 0.07874015748031496
        },
        {
          "duration": 0,
          "durationTicks": 0,
          "midi": 61,
          "name": "C#4",
          "ticks": 82559,
          "time": 107.49869791666667,
          "velocity": 0.25196850393700787
        },
        {
          "duration": 0.1276041666666714,
          "durationTicks": 98,
          "midi": 70,
          "name": "A#4",
          "ticks": 82576,
          "time": 107.52083333333333,
          "velocity": 0.1968503937007874
        },
        {
          "duration": 0,
          "durationTicks": 0,
          "midi": 67,
          "name": "G4",
          "ticks": 82586,
          "time": 107.53385416666667,
          "velocity": 0.2992125984251969
        },
        {
          "duration": 0,
          "durationTicks": 0,
          "midi": 58,
          "name": "A#3",
          "ticks": 82595,
          "time": 107.54557291666667,
          "velocity": 0.2283464566929134
        },
        {
          "duration": 0,
          "durationTicks": 0,
          "midi": 26,
          "name": "D1",
          "ticks": 82604,
          "time": 107.55729166666667,
          "velocity": 0.3543307086614173
        },
        {
          "duration": 0,
          "durationTicks": 0,
          "midi": 86,
          "name": "D6",
          "ticks": 82604,
          "time": 107.55729166666667,
          "velocity": 0.10236220472440945
        },
        {
          "duration": 0,
          "durationTicks": 0,
          "midi": 68,
          "name": "G#4",
          "ticks": 82622,
          "time": 107.58072916666667,
          "velocity": 0.31496062992125984
        },
        {
          "duration": 0.1263020833333286,
          "durationTicks": 97,
          "midi": 72,
          "name": "C5",
          "ticks": 82622,
          "time": 107.58072916666667,
          "velocity": 0.14173228346456693
        },
        {
          "duration": 0,
          "durationTicks": 0,
          "midi": 57,
          "name": "A3",
          "ticks": 82631,
          "time": 107.59244791666667,
          "velocity": 0.3228346456692913
        },
        {
          "duration": 0,
          "durationTicks": 0,
          "midi": 67,
          "name": "G4",
          "ticks": 82631,
          "time": 107.59244791666667,
          "velocity": 0.2283464566929134
        },
        {
          "duration": 0.1263020833333286,
          "durationTicks": 97,
          "midi": 87,
          "name": "D#6",
          "ticks": 82640,
          "time": 107.60416666666667,
          "velocity": 0.07874015748031496
        },
        {
          "duration": 0,
          "durationTicks": 0,
          "midi": 35,
          "name": "B1",
          "ticks": 82650,
          "time": 107.6171875,
          "velocity": 0.3464566929133858
        },
        {
          "duration": 0.1263020833333286,
          "durationTicks": 97,
          "midi": 68,
          "name": "G#4",
          "ticks": 82650,
          "time": 107.6171875,
          "velocity": 0.28346456692913385
        },
        {
          "duration": 0.1263020833333286,
          "durationTicks": 97,
          "midi": 60,
          "name": "C4",
          "ticks": 82659,
          "time": 107.62890625,
          "velocity": 0.2440944881889764
        },
        {
          "duration": 0,
          "durationTicks": 0,
          "midi": 69,
          "name": "A4",
          "ticks": 82704,
          "time": 107.6875,
          "velocity": 0.2204724409448819
        },
        {
          "duration": 0.12890625,
          "durationTicks": 99,
          "midi": 68,
          "name": "G#4",
          "ticks": 82721,
          "time": 107.70963541666667,
          "velocity": 0.2677165354330709
        },
        {
          "duration": 0.12890625,
          "durationTicks": 99,
          "midi": 71,
          "name": "B4",
          "ticks": 82721,
          "time": 107.70963541666667,
          "velocity": 0.14173228346456693
        },
        {
          "duration": 0,
          "durationTicks": 0,
          "midi": 36,
          "name": "C2",
          "ticks": 82730,
          "time": 107.72135416666667,
          "velocity": 0.3228346456692913
        },
        {
          "duration": 0,
          "durationTicks": 0,
          "midi": 59,
          "name": "B3",
          "ticks": 82730,
          "time": 107.72135416666667,
          "velocity": 0.2125984251968504
        },
        {
          "duration": 0.1276041666666714,
          "durationTicks": 98,
          "midi": 53,
          "name": "F3",
          "ticks": 82740,
          "time": 107.734375,
          "velocity": 0.16535433070866143
        },
        {
          "duration": 0,
          "durationTicks": 0,
          "midi": 34,
          "name": "A#1",
          "ticks": 82749,
          "time": 107.74609375,
          "velocity": 0.3779527559055118
        },
        {
          "duration": 0,
          "durationTicks": 0,
          "midi": 59,
          "name": "B3",
          "ticks": 82758,
          "time": 107.7578125,
          "velocity": 0.2283464566929134
        },
        {
          "duration": 0,
          "durationTicks": 0,
          "midi": 34,
          "name": "A#1",
          "ticks": 82776,
          "time": 107.78125,
          "velocity": 0.3700787401574803
        },
        {
          "duration": 0.375,
          "durationTicks": 288,
          "midi": 67,
          "name": "G4",
          "ticks": 82785,
          "time": 107.79296875,
          "velocity": 0.2755905511811024
        },
        {
          "duration": 0.375,
          "durationTicks": 288,
          "midi": 58,
          "name": "A#3",
          "ticks": 82785,
          "time": 107.79296875,
          "velocity": 0.2283464566929134
        },
        {
          "duration": 0,
          "durationTicks": 0,
          "midi": 35,
          "name": "B1",
          "ticks": 82795,
          "time": 107.80598958333333,
          "velocity": 0.3464566929133858
        },
        {
          "duration": 0.125,
          "durationTicks": 96,
          "midi": 86,
          "name": "D6",
          "ticks": 82804,
          "time": 107.81770833333333,
          "velocity": 0.08661417322834646
        },
        {
          "duration": 0.0807291666666714,
          "durationTicks": 62,
          "midi": 49,
          "name": "C#3",
          "ticks": 82813,
          "time": 107.82942708333333,
          "velocity": 0.23622047244094488
        },
        {
          "duration": 0.125,
          "durationTicks": 96,
          "midi": 34,
          "name": "A#1",
          "ticks": 82813,
          "time": 107.82942708333333,
          "velocity": 0.3543307086614173
        },
        {
          "duration": 0.044270833333328596,
          "durationTicks": 34,
          "midi": 49,
          "name": "C#3",
          "ticks": 82875,
          "time": 107.91015625,
          "velocity": 0.15748031496062992
        },
        {
          "duration": 0,
          "durationTicks": 0,
          "midi": 35,
          "name": "B1",
          "ticks": 82893,
          "time": 107.93359375,
          "velocity": 0.31496062992125984
        },
        {
          "duration": 0.125,
          "durationTicks": 96,
          "midi": 86,
          "name": "D6",
          "ticks": 82893,
          "time": 107.93359375,
          "velocity": 0.08661417322834646
        },
        {
          "duration": 0.1236979166666714,
          "durationTicks": 95,
          "midi": 86,
          "name": "D6",
          "ticks": 82974,
          "time": 108.0390625,
          "velocity": 0.08661417322834646
        },
        {
          "duration": 0.12369791666665719,
          "durationTicks": 95,
          "midi": 49,
          "name": "C#3",
          "ticks": 82991,
          "time": 108.06119791666667,
          "velocity": 0.12598425196850394
        },
        {
          "duration": 0.1263020833333286,
          "durationTicks": 97,
          "midi": 70,
          "name": "A#4",
          "ticks": 83036,
          "time": 108.11979166666667,
          "velocity": 0.23622047244094488
        },
        {
          "duration": 0.1263020833333428,
          "durationTicks": 97,
          "midi": 67,
          "name": "G4",
          "ticks": 83053,
          "time": 108.14192708333333,
          "velocity": 0.2677165354330709
        },
        {
          "duration": 0.1263020833333428,
          "durationTicks": 97,
          "midi": 86,
          "name": "D6",
          "ticks": 83053,
          "time": 108.14192708333333,
          "velocity": 0.08661417322834646
        },
        {
          "duration": 0,
          "durationTicks": 0,
          "midi": 80,
          "name": "G#5",
          "ticks": 83089,
          "time": 108.18880208333333,
          "velocity": 0.13385826771653545
        },
        {
          "duration": 0,
          "durationTicks": 0,
          "midi": 37,
          "name": "C#2",
          "ticks": 83098,
          "time": 108.20052083333333,
          "velocity": 0.25984251968503935
        },
        {
          "duration": 0,
          "durationTicks": 0,
          "midi": 56,
          "name": "G#3",
          "ticks": 83098,
          "time": 108.20052083333333,
          "velocity": 0.29133858267716534
        },
        {
          "duration": 0,
          "durationTicks": 0,
          "midi": 50,
          "name": "D3",
          "ticks": 83098,
          "time": 108.20052083333333,
          "velocity": 0.15748031496062992
        },
        {
          "duration": 0,
          "durationTicks": 0,
          "midi": 90,
          "name": "F#6",
          "ticks": 83098,
          "time": 108.20052083333333,
          "velocity": 0.08661417322834646
        },
        {
          "duration": 0,
          "durationTicks": 0,
          "midi": 65,
          "name": "F4",
          "ticks": 83107,
          "time": 108.21223958333333,
          "velocity": 0.14173228346456693
        },
        {
          "duration": 0,
          "durationTicks": 0,
          "midi": 38,
          "name": "D2",
          "ticks": 83116,
          "time": 108.22395833333333,
          "velocity": 0.2125984251968504
        },
        {
          "duration": 0,
          "durationTicks": 0,
          "midi": 71,
          "name": "B4",
          "ticks": 83116,
          "time": 108.22395833333333,
          "velocity": 0.1732283464566929
        },
        {
          "duration": 0,
          "durationTicks": 0,
          "midi": 59,
          "name": "B3",
          "ticks": 83126,
          "time": 108.23697916666667,
          "velocity": 0.2440944881889764
        },
        {
          "duration": 0.3763020833333286,
          "durationTicks": 289,
          "midi": 70,
          "name": "A#4",
          "ticks": 83153,
          "time": 108.27213541666667,
          "velocity": 0.2283464566929134
        },
        {
          "duration": 0.3606770833333286,
          "durationTicks": 277,
          "midi": 67,
          "name": "G4",
          "ticks": 83162,
          "time": 108.28385416666667,
          "velocity": 0.25984251968503935
        },
        {
          "duration": 0.3763020833333286,
          "durationTicks": 289,
          "midi": 58,
          "name": "A#3",
          "ticks": 83162,
          "time": 108.28385416666667,
          "velocity": 0.25196850393700787
        },
        {
          "duration": 0,
          "durationTicks": 0,
          "midi": 86,
          "name": "D6",
          "ticks": 83198,
          "time": 108.33072916666667,
          "velocity": 0.07874015748031496
        },
        {
          "duration": 0,
          "durationTicks": 0,
          "midi": 86,
          "name": "D6",
          "ticks": 83279,
          "time": 108.43619791666667,
          "velocity": 0.07874015748031496
        },
        {
          "duration": 0.125,
          "durationTicks": 96,
          "midi": 44,
          "name": "G#2",
          "ticks": 83279,
          "time": 108.43619791666667,
          "velocity": 0.36220472440944884
        },
        {
          "duration": 0.125,
          "durationTicks": 96,
          "midi": 89,
          "name": "F6",
          "ticks": 83279,
          "time": 108.43619791666667,
          "velocity": 0.07086614173228346
        },
        {
          "duration": 0.125,
          "durationTicks": 96,
          "midi": 63,
          "name": "D#4",
          "ticks": 83288,
          "time": 108.44791666666667,
          "velocity": 0.08661417322834646
        },
        {
          "duration": 0.1158854166666714,
          "durationTicks": 89,
          "midi": 86,
          "name": "D6",
          "ticks": 83350,
          "time": 108.52864583333333,
          "velocity": 0.08661417322834646
        },
        {
          "duration": 0,
          "durationTicks": 0,
          "midi": 68,
          "name": "G#4",
          "ticks": 83422,
          "time": 108.62239583333333,
          "velocity": 0.2755905511811024
        },
        {
          "duration": 0.015625,
          "durationTicks": 12,
          "midi": 67,
          "name": "G4",
          "ticks": 83439,
          "time": 108.64453125,
          "velocity": 0.2677165354330709
        },
        {
          "duration": 0.009114583333328596,
          "durationTicks": 7,
          "midi": 86,
          "name": "D6",
          "ticks": 83439,
          "time": 108.64453125,
          "velocity": 0.08661417322834646
        },
        {
          "duration": 0,
          "durationTicks": 0,
          "midi": 47,
          "name": "B2",
          "ticks": 83476,
          "time": 108.69270833333333,
          "velocity": 0.33858267716535434
        },
        {
          "duration": 0.1276041666666714,
          "durationTicks": 98,
          "midi": 65,
          "name": "F4",
          "ticks": 83476,
          "time": 108.69270833333333,
          "velocity": 0.14960629921259844
        },
        {
          "duration": 0.1276041666666714,
          "durationTicks": 98,
          "midi": 68,
          "name": "G#4",
          "ticks": 83476,
          "time": 108.69270833333333,
          "velocity": 0.23622047244094488
        },
        {
          "duration": 0,
          "durationTicks": 0,
          "midi": 31,
          "name": "G1",
          "ticks": 83485,
          "time": 108.70442708333333,
          "velocity": 0.29133858267716534
        },
        {
          "duration": 0,
          "durationTicks": 0,
          "midi": 46,
          "name": "A#2",
          "ticks": 83494,
          "time": 108.71614583333333,
          "velocity": 0.3464566929133858
        },
        {
          "duration": 0,
          "durationTicks": 0,
          "midi": 87,
          "name": "D#6",
          "ticks": 83494,
          "time": 108.71614583333333,
          "velocity": 0.06299212598425197
        },
        {
          "duration": 0,
          "durationTicks": 0,
          "midi": 46,
          "name": "A#2",
          "ticks": 83521,
          "time": 108.75130208333333,
          "velocity": 0.33070866141732286
        },
        {
          "duration": 0.1276041666666714,
          "durationTicks": 98,
          "midi": 70,
          "name": "A#4",
          "ticks": 83530,
          "time": 108.76302083333333,
          "velocity": 0.2047244094488189
        },
        {
          "duration": 0,
          "durationTicks": 0,
          "midi": 67,
          "name": "G4",
          "ticks": 83540,
          "time": 108.77604166666667,
          "velocity": 0.25196850393700787
        },
        {
          "duration": 0,
          "durationTicks": 0,
          "midi": 84,
          "name": "C6",
          "ticks": 83585,
          "time": 108.83463541666667,
          "velocity": 0.07874015748031496
        },
        {
          "duration": 0.1276041666666572,
          "durationTicks": 98,
          "midi": 68,
          "name": "G#4",
          "ticks": 83585,
          "time": 108.83463541666667,
          "velocity": 0.18110236220472442
        },
        {
          "duration": 0.1276041666666572,
          "durationTicks": 98,
          "midi": 56,
          "name": "G#3",
          "ticks": 83594,
          "time": 108.84635416666667,
          "velocity": 0.2204724409448819
        },
        {
          "duration": 0.1276041666666572,
          "durationTicks": 98,
          "midi": 65,
          "name": "F4",
          "ticks": 83594,
          "time": 108.84635416666667,
          "velocity": 0.25196850393700787
        },
        {
          "duration": 0.1276041666666714,
          "durationTicks": 98,
          "midi": 84,
          "name": "C6",
          "ticks": 83658,
          "time": 108.9296875,
          "velocity": 0.05511811023622047
        },
        {
          "duration": 0.1276041666666714,
          "durationTicks": 98,
          "midi": 70,
          "name": "A#4",
          "ticks": 83667,
          "time": 108.94140625,
          "velocity": 0.09448818897637795
        },
        {
          "duration": 0,
          "durationTicks": 0,
          "midi": 66,
          "name": "F#4",
          "ticks": 83676,
          "time": 108.953125,
          "velocity": 0.18110236220472442
        },
        {
          "duration": 0.1263020833333286,
          "durationTicks": 97,
          "midi": 61,
          "name": "C#4",
          "ticks": 83685,
          "time": 108.96484375,
          "velocity": 0.25196850393700787
        },
        {
          "duration": 0.1263020833333428,
          "durationTicks": 97,
          "midi": 53,
          "name": "F3",
          "ticks": 83695,
          "time": 108.97786458333333,
          "velocity": 0.2047244094488189
        },
        {
          "duration": 0,
          "durationTicks": 0,
          "midi": 66,
          "name": "F#4",
          "ticks": 83749,
          "time": 109.04817708333333,
          "velocity": 0.10236220472440945
        },
        {
          "duration": 0,
          "durationTicks": 0,
          "midi": 70,
          "name": "A#4",
          "ticks": 83839,
          "time": 109.16536458333333,
          "velocity": 0.12598425196850394
        },
        {
          "duration": 0.2513020833333428,
          "durationTicks": 193,
          "midi": 61,
          "name": "C#4",
          "ticks": 83848,
          "time": 109.17708333333333,
          "velocity": 0.3464566929133858
        },
        {
          "duration": 0,
          "durationTicks": 0,
          "midi": 85,
          "name": "C#6",
          "ticks": 83857,
          "time": 109.18880208333333,
          "velocity": 0.07874015748031496
        },
        {
          "duration": 0,
          "durationTicks": 0,
          "midi": 90,
          "name": "F#6",
          "ticks": 83857,
          "time": 109.18880208333333,
          "velocity": 0.06299212598425197
        },
        {
          "duration": 0.2513020833333428,
          "durationTicks": 193,
          "midi": 80,
          "name": "G#5",
          "ticks": 83857,
          "time": 109.18880208333333,
          "velocity": 0.11811023622047244
        },
        {
          "duration": 0,
          "durationTicks": 0,
          "midi": 37,
          "name": "C#2",
          "ticks": 83867,
          "time": 109.20182291666667,
          "velocity": 0.2677165354330709
        },
        {
          "duration": 0.2513020833333286,
          "durationTicks": 193,
          "midi": 65,
          "name": "F4",
          "ticks": 83867,
          "time": 109.20182291666667,
          "velocity": 0.2125984251968504
        },
        {
          "duration": 0,
          "durationTicks": 0,
          "midi": 38,
          "name": "D2",
          "ticks": 83884,
          "time": 109.22395833333333,
          "velocity": 0.1889763779527559
        },
        {
          "duration": 0.2513020833333428,
          "durationTicks": 193,
          "midi": 53,
          "name": "F3",
          "ticks": 83893,
          "time": 109.23567708333333,
          "velocity": 0.2204724409448819
        },
        {
          "duration": 0.125,
          "durationTicks": 96,
          "midi": 68,
          "name": "G#4",
          "ticks": 83903,
          "time": 109.24869791666667,
          "velocity": 0.05511811023622047
        },
        {
          "duration": 0,
          "durationTicks": 0,
          "midi": 69,
          "name": "A4",
          "ticks": 84036,
          "time": 109.421875,
          "velocity": 0.2125984251968504
        },
        {
          "duration": 0,
          "durationTicks": 0,
          "midi": 28,
          "name": "E1",
          "ticks": 84046,
          "time": 109.43489583333333,
          "velocity": 0.36220472440944884
        },
        {
          "duration": 0,
          "durationTicks": 0,
          "midi": 84,
          "name": "C6",
          "ticks": 84046,
          "time": 109.43489583333333,
          "velocity": 0.10236220472440945
        },
        {
          "duration": 0,
          "durationTicks": 0,
          "midi": 89,
          "name": "F6",
          "ticks": 84055,
          "time": 109.44661458333333,
          "velocity": 0.06299212598425197
        },
        {
          "duration": 0.1263020833333428,
          "durationTicks": 97,
          "midi": 53,
          "name": "F3",
          "ticks": 84055,
          "time": 109.44661458333333,
          "velocity": 0.2047244094488189
        },
        {
          "duration": 0.1263020833333428,
          "durationTicks": 97,
          "midi": 65,
          "name": "F4",
          "ticks": 84055,
          "time": 109.44661458333333,
          "velocity": 0.23622047244094488
        },
        {
          "duration": 0.1263020833333428,
          "durationTicks": 97,
          "midi": 68,
          "name": "G#4",
          "ticks": 84055,
          "time": 109.44661458333333,
          "velocity": 0.2283464566929134
        },
        {
          "duration": 0,
          "durationTicks": 0,
          "midi": 46,
          "name": "A#2",
          "ticks": 84064,
          "time": 109.45833333333333,
          "velocity": 0.08661417322834646
        },
        {
          "duration": 0.1263020833333428,
          "durationTicks": 97,
          "midi": 27,
          "name": "D#1",
          "ticks": 84064,
          "time": 109.45833333333333,
          "velocity": 0.36220472440944884
        },
        {
          "duration": 0,
          "durationTicks": 0,
          "midi": 61,
          "name": "C#4",
          "ticks": 84082,
          "time": 109.48177083333333,
          "velocity": 0.36220472440944884
        },
        {
          "duration": 0,
          "durationTicks": 0,
          "midi": 51,
          "name": "D#3",
          "ticks": 84118,
          "time": 109.52864583333333,
          "velocity": 0.1889763779527559
        },
        {
          "duration": 0,
          "durationTicks": 0,
          "midi": 59,
          "name": "B3",
          "ticks": 84118,
          "time": 109.52864583333333,
          "velocity": 0.2677165354330709
        },
        {
          "duration": 0,
          "durationTicks": 0,
          "midi": 62,
          "name": "D4",
          "ticks": 84136,
          "time": 109.55208333333333,
          "velocity": 0.18110236220472442
        },
        {
          "duration": 0.1263020833333428,
          "durationTicks": 97,
          "midi": 56,
          "name": "G#3",
          "ticks": 84145,
          "time": 109.56380208333333,
          "velocity": 0.25984251968503935
        },
        {
          "duration": 0,
          "durationTicks": 0,
          "midi": 29,
          "name": "F1",
          "ticks": 84154,
          "time": 109.57552083333333,
          "velocity": 0.3858267716535433
        },
        {
          "duration": 0,
          "durationTicks": 0,
          "midi": 60,
          "name": "C4",
          "ticks": 84154,
          "time": 109.57552083333333,
          "velocity": 0.16535433070866143
        },
        {
          "duration": 0,
          "durationTicks": 0,
          "midi": 49,
          "name": "C#3",
          "ticks": 84163,
          "time": 109.58723958333333,
          "velocity": 0.15748031496062992
        },
        {
          "duration": 0,
          "durationTicks": 0,
          "midi": 28,
          "name": "E1",
          "ticks": 84199,
          "time": 109.63411458333333,
          "velocity": 0.3700787401574803
        },
        {
          "duration": 0,
          "durationTicks": 0,
          "midi": 60,
          "name": "C4",
          "ticks": 84235,
          "time": 109.68098958333333,
          "velocity": 0.28346456692913385
        },
        {
          "duration": 0.2526041666666714,
          "durationTicks": 194,
          "midi": 68,
          "name": "G#4",
          "ticks": 84244,
          "time": 109.69270833333333,
          "velocity": 0.11811023622047244
        },
        {
          "duration": 0.2526041666666714,
          "durationTicks": 194,
          "midi": 27,
          "name": "D#1",
          "ticks": 84244,
          "time": 109.69270833333333,
          "velocity": 0.36220472440944884
        },
        {
          "duration": 0,
          "durationTicks": 0,
          "midi": 51,
          "name": "D#3",
          "ticks": 84254,
          "time": 109.70572916666667,
          "velocity": 0.1968503937007874
        },
        {
          "duration": 0,
          "durationTicks": 0,
          "midi": 61,
          "name": "C#4",
          "ticks": 84280,
          "time": 109.73958333333333,
          "velocity": 0.28346456692913385
        },
        {
          "duration": 0,
          "durationTicks": 0,
          "midi": 65,
          "name": "F4",
          "ticks": 84290,
          "time": 109.75260416666667,
          "velocity": 0.13385826771653545
        },
        {
          "duration": 0,
          "durationTicks": 0,
          "midi": 46,
          "name": "A#2",
          "ticks": 84299,
          "time": 109.76432291666667,
          "velocity": 0.08661417322834646
        },
        {
          "duration": 0,
          "durationTicks": 0,
          "midi": 62,
          "name": "D4",
          "ticks": 84326,
          "time": 109.79947916666667,
          "velocity": 0.1889763779527559
        },
        {
          "duration": 0,
          "durationTicks": 0,
          "midi": 53,
          "name": "F3",
          "ticks": 84335,
          "time": 109.81119791666667,
          "velocity": 0.1732283464566929
        },
        {
          "duration": 0,
          "durationTicks": 0,
          "midi": 61,
          "name": "C#4",
          "ticks": 84353,
          "time": 109.83463541666667,
          "velocity": 0.25984251968503935
        },
        {
          "duration": 0.1263020833333286,
          "durationTicks": 97,
          "midi": 46,
          "name": "A#2",
          "ticks": 84353,
          "time": 109.83463541666667,
          "velocity": 0.09448818897637795
        },
        {
          "duration": 0,
          "durationTicks": 0,
          "midi": 41,
          "name": "F2",
          "ticks": 84424,
          "time": 109.92708333333333,
          "velocity": 0.3779527559055118
        },
        {
          "duration": 0.2513020833333428,
          "durationTicks": 193,
          "midi": 68,
          "name": "G#4",
          "ticks": 84424,
          "time": 109.92708333333333,
          "velocity": 0.16535433070866143
        },
        {
          "duration": 0.1263020833333286,
          "durationTicks": 97,
          "midi": 63,
          "name": "D#4",
          "ticks": 84434,
          "time": 109.94010416666667,
          "velocity": 0.25984251968503935
        },
        {
          "duration": 0,
          "durationTicks": 0,
          "midi": 56,
          "name": "G#3",
          "ticks": 84443,
          "time": 109.95182291666667,
          "velocity": 0.2125984251968504
        },
        {
          "duration": 0,
          "durationTicks": 0,
          "midi": 39,
          "name": "D#2",
          "ticks": 84452,
          "time": 109.96354166666667,
          "velocity": 0.3464566929133858
        },
        {
          "duration": 0,
          "durationTicks": 0,
          "midi": 56,
          "name": "G#3",
          "ticks": 84470,
          "time": 109.98697916666667,
          "velocity": 0.2283464566929134
        },
        {
          "duration": 0.125,
          "durationTicks": 96,
          "midi": 39,
          "name": "D#2",
          "ticks": 84479,
          "time": 109.99869791666667,
          "velocity": 0.36220472440944884
        },
        {
          "duration": 0,
          "durationTicks": 0,
          "midi": 82,
          "name": "A#5",
          "ticks": 84488,
          "time": 110.01041666666667,
          "velocity": 0.05511811023622047
        },
        {
          "duration": 0,
          "durationTicks": 0,
          "midi": 56,
          "name": "G#3",
          "ticks": 84506,
          "time": 110.03385416666667,
          "velocity": 0.2204724409448819
        },
        {
          "duration": 0.125,
          "durationTicks": 96,
          "midi": 60,
          "name": "C4",
          "ticks": 84533,
          "time": 110.06901041666667,
          "velocity": 0.28346456692913385
        },
        {
          "duration": 0.125,
          "durationTicks": 96,
          "midi": 65,
          "name": "F4",
          "ticks": 84577,
          "time": 110.12630208333333,
          "velocity": 0.2283464566929134
        },
        {
          "duration": 0.125,
          "durationTicks": 96,
          "midi": 61,
          "name": "C#4",
          "ticks": 84595,
          "time": 110.14973958333333,
          "velocity": 0.31496062992125984
        },
        {
          "duration": 0,
          "durationTicks": 0,
          "midi": 86,
          "name": "D6",
          "ticks": 84613,
          "time": 110.17317708333333,
          "velocity": 0.09448818897637795
        },
        {
          "duration": 0,
          "durationTicks": 0,
          "midi": 38,
          "name": "D2",
          "ticks": 84631,
          "time": 110.19661458333333,
          "velocity": 0.2755905511811024
        },
        {
          "duration": 0,
          "durationTicks": 0,
          "midi": 84,
          "name": "C6",
          "ticks": 84641,
          "time": 110.20963541666667,
          "velocity": 0.05511811023622047
        },
        {
          "duration": 0,
          "durationTicks": 0,
          "midi": 62,
          "name": "D4",
          "ticks": 84658,
          "time": 110.23177083333333,
          "velocity": 0.2047244094488189
        },
        {
          "duration": 0,
          "durationTicks": 0,
          "midi": 58,
          "name": "A#3",
          "ticks": 84703,
          "time": 110.29036458333333,
          "velocity": 0.1732283464566929
        },
        {
          "duration": 0.125,
          "durationTicks": 96,
          "midi": 68,
          "name": "G#4",
          "ticks": 84703,
          "time": 110.29036458333333,
          "velocity": 0.1889763779527559
        },
        {
          "duration": 0.125,
          "durationTicks": 96,
          "midi": 63,
          "name": "D#4",
          "ticks": 84712,
          "time": 110.30208333333333,
          "velocity": 0.25196850393700787
        },
        {
          "duration": 0,
          "durationTicks": 0,
          "midi": 56,
          "name": "G#3",
          "ticks": 84730,
          "time": 110.32552083333333,
          "velocity": 0.2204724409448819
        },
        {
          "duration": 0.125,
          "durationTicks": 96,
          "midi": 63,
          "name": "D#4",
          "ticks": 84801,
          "time": 110.41796875,
          "velocity": 0.08661417322834646
        },
        {
          "duration": 0.125,
          "durationTicks": 96,
          "midi": 58,
          "name": "A#3",
          "ticks": 84801,
          "time": 110.41796875,
          "velocity": 0.2283464566929134
        },
        {
          "duration": 0.1236979166666714,
          "durationTicks": 95,
          "midi": 86,
          "name": "D6",
          "ticks": 84820,
          "time": 110.44270833333333,
          "velocity": 0.08661417322834646
        },
        {
          "duration": 0.1236979166666714,
          "durationTicks": 95,
          "midi": 67,
          "name": "G4",
          "ticks": 84820,
          "time": 110.44270833333333,
          "velocity": 0.2440944881889764
        },
        {
          "duration": 0.2513020833333286,
          "durationTicks": 193,
          "midi": 39,
          "name": "D#2",
          "ticks": 84837,
          "time": 110.46484375,
          "velocity": 0.3779527559055118
        },
        {
          "duration": 0,
          "durationTicks": 0,
          "midi": 60,
          "name": "C4",
          "ticks": 84899,
          "time": 110.54557291666667,
          "velocity": 0.1968503937007874
        },
        {
          "duration": 0.125,
          "durationTicks": 96,
          "midi": 68,
          "name": "G#4",
          "ticks": 84899,
          "time": 110.54557291666667,
          "velocity": 0.2283464566929134
        },
        {
          "duration": 0,
          "durationTicks": 0,
          "midi": 74,
          "name": "D5",
          "ticks": 84988,
          "time": 110.66145833333333,
          "velocity": 0.2677165354330709
        },
        {
          "duration": 0,
          "durationTicks": 0,
          "midi": 57,
          "name": "A3",
          "ticks": 84998,
          "time": 110.67447916666667,
          "velocity": 0.29133858267716534
        },
        {
          "duration": 0,
          "durationTicks": 0,
          "midi": 67,
          "name": "G4",
          "ticks": 84998,
          "time": 110.67447916666667,
          "velocity": 0.31496062992125984
        },
        {
          "duration": 0,
          "durationTicks": 0,
          "midi": 47,
          "name": "B2",
          "ticks": 85007,
          "time": 110.68619791666667,
          "velocity": 0.33858267716535434
        },
        {
          "duration": 0,
          "durationTicks": 0,
          "midi": 56,
          "name": "G#3",
          "ticks": 85016,
          "time": 110.69791666666667,
          "velocity": 0.2204724409448819
        },
        {
          "duration": 0,
          "durationTicks": 0,
          "midi": 70,
          "name": "A#4",
          "ticks": 85026,
          "time": 110.7109375,
          "velocity": 0.2204724409448819
        },
        {
          "duration": 0.1276041666666714,
          "durationTicks": 98,
          "midi": 46,
          "name": "A#2",
          "ticks": 85026,
          "time": 110.7109375,
          "velocity": 0.3464566929133858
        },
        {
          "duration": 0,
          "durationTicks": 0,
          "midi": 65,
          "name": "F4",
          "ticks": 85035,
          "time": 110.72265625,
          "velocity": 0.30708661417322836
        },
        {
          "duration": 0,
          "durationTicks": 0,
          "midi": 84,
          "name": "C6",
          "ticks": 85035,
          "time": 110.72265625,
          "velocity": 0.11023622047244094
        },
        {
          "duration": 0,
          "durationTicks": 0,
          "midi": 66,
          "name": "F#4",
          "ticks": 85052,
          "time": 110.74479166666667,
          "velocity": 0.2440944881889764
        },
        {
          "duration": 0,
          "durationTicks": 0,
          "midi": 56,
          "name": "G#3",
          "ticks": 85079,
          "time": 110.77994791666667,
          "velocity": 0.36220472440944884
        },
        {
          "duration": 0,
          "durationTicks": 0,
          "midi": 75,
          "name": "D#5",
          "ticks": 85079,
          "time": 110.77994791666667,
          "velocity": 0.08661417322834646
        },
        {
          "duration": 0.1276041666666714,
          "durationTicks": 98,
          "midi": 72,
          "name": "C5",
          "ticks": 85089,
          "time": 110.79296875,
          "velocity": 0.2125984251968504
        },
        {
          "duration": 0,
          "durationTicks": 0,
          "midi": 84,
          "name": "C6",
          "ticks": 85098,
          "time": 110.8046875,
          "velocity": 0.05511811023622047
        },
        {
          "duration": 0,
          "durationTicks": 0,
          "midi": 57,
          "name": "A3",
          "ticks": 85107,
          "time": 110.81640625,
          "velocity": 0.31496062992125984
        },
        {
          "duration": 0,
          "durationTicks": 0,
          "midi": 47,
          "name": "B2",
          "ticks": 85117,
          "time": 110.82942708333333,
          "velocity": 0.3937007874015748
        },
        {
          "duration": 0,
          "durationTicks": 0,
          "midi": 56,
          "name": "G#3",
          "ticks": 85126,
          "time": 110.84114583333333,
          "velocity": 0.18110236220472442
        },
        {
          "duration": 0,
          "durationTicks": 0,
          "midi": 61,
          "name": "C#4",
          "ticks": 85126,
          "time": 110.84114583333333,
          "velocity": 0.1968503937007874
        },
        {
          "duration": 0,
          "durationTicks": 0,
          "midi": 46,
          "name": "A#2",
          "ticks": 85143,
          "time": 110.86328125,
          "velocity": 0.3937007874015748
        },
        {
          "duration": 0,
          "durationTicks": 0,
          "midi": 45,
          "name": "A2",
          "ticks": 85161,
          "time": 110.88671875,
          "velocity": 0.4015748031496063
        },
        {
          "duration": 0,
          "durationTicks": 0,
          "midi": 71,
          "name": "B4",
          "ticks": 85170,
          "time": 110.8984375,
          "velocity": 0.1889763779527559
        },
        {
          "duration": 0,
          "durationTicks": 0,
          "midi": 64,
          "name": "E4",
          "ticks": 85180,
          "time": 110.91145833333333,
          "velocity": 0.2047244094488189
        },
        {
          "duration": 0,
          "durationTicks": 0,
          "midi": 74,
          "name": "D5",
          "ticks": 85180,
          "time": 110.91145833333333,
          "velocity": 0.25196850393700787
        },
        {
          "duration": 0.1276041666666714,
          "durationTicks": 98,
          "midi": 72,
          "name": "C5",
          "ticks": 85189,
          "time": 110.92317708333333,
          "velocity": 0.30708661417322836
        },
        {
          "duration": 0.1276041666666714,
          "durationTicks": 98,
          "midi": 51,
          "name": "D#3",
          "ticks": 85198,
          "time": 110.93489583333333,
          "velocity": 0.3700787401574803
        },
        {
          "duration": 0.1276041666666714,
          "durationTicks": 98,
          "midi": 70,
          "name": "A#4",
          "ticks": 85198,
          "time": 110.93489583333333,
          "velocity": 0.29133858267716534
        },
        {
          "duration": 0,
          "durationTicks": 0,
          "midi": 91,
          "name": "G6",
          "ticks": 85208,
          "time": 110.94791666666667,
          "velocity": 0.08661417322834646
        },
        {
          "duration": 0.10546875,
          "durationTicks": 81,
          "midi": 65,
          "name": "F4",
          "ticks": 85208,
          "time": 110.94791666666667,
          "velocity": 0.33070866141732286
        },
        {
          "duration": 0.1276041666666572,
          "durationTicks": 98,
          "midi": 75,
          "name": "D#5",
          "ticks": 85217,
          "time": 110.95963541666667,
          "velocity": 0.18110236220472442
        },
        {
          "duration": 0,
          "durationTicks": 0,
          "midi": 31,
          "name": "G1",
          "ticks": 85226,
          "time": 110.97135416666667,
          "velocity": 0.2755905511811024
        },
        {
          "duration": 0,
          "durationTicks": 0,
          "midi": 61,
          "name": "C#4",
          "ticks": 85244,
          "time": 110.99479166666667,
          "velocity": 0.2677165354330709
        },
        {
          "duration": 0,
          "durationTicks": 0,
          "midi": 40,
          "name": "E2",
          "ticks": 85280,
          "time": 111.04166666666667,
          "velocity": 0.3779527559055118
        },
        {
          "duration": 0.022135416666657193,
          "durationTicks": 17,
          "midi": 65,
          "name": "F4",
          "ticks": 85289,
          "time": 111.05338541666667,
          "velocity": 0.2125984251968504
        },
        {
          "duration": 0,
          "durationTicks": 0,
          "midi": 71,
          "name": "B4",
          "ticks": 85289,
          "time": 111.05338541666667,
          "velocity": 0.2755905511811024
        },
        {
          "duration": 0.12890625,
          "durationTicks": 99,
          "midi": 73,
          "name": "C#5",
          "ticks": 85289,
          "time": 111.05338541666667,
          "velocity": 0.2755905511811024
        },
        {
          "duration": 0,
          "durationTicks": 0,
          "midi": 70,
          "name": "A#4",
          "ticks": 85299,
          "time": 111.06640625,
          "velocity": 0.12598425196850394
        },
        {
          "duration": 0,
          "durationTicks": 0,
          "midi": 39,
          "name": "D#2",
          "ticks": 85308,
          "time": 111.078125,
          "velocity": 0.3464566929133858
        },
        {
          "duration": 0,
          "durationTicks": 0,
          "midi": 66,
          "name": "F#4",
          "ticks": 85308,
          "time": 111.078125,
          "velocity": 0.30708661417322836
        },
        {
          "duration": 0,
          "durationTicks": 0,
          "midi": 62,
          "name": "D4",
          "ticks": 85317,
          "time": 111.08984375,
          "velocity": 0.30708661417322836
        },
        {
          "duration": 0,
          "durationTicks": 0,
          "midi": 81,
          "name": "A5",
          "ticks": 85317,
          "time": 111.08984375,
          "velocity": 0.10236220472440945
        },
        {
          "duration": 0,
          "durationTicks": 0,
          "midi": 65,
          "name": "F4",
          "ticks": 85326,
          "time": 111.1015625,
          "velocity": 0.2283464566929134
        },
        {
          "duration": 0,
          "durationTicks": 0,
          "midi": 57,
          "name": "A3",
          "ticks": 85336,
          "time": 111.11458333333333,
          "velocity": 0.2677165354330709
        },
        {
          "duration": 0,
          "durationTicks": 0,
          "midi": 39,
          "name": "D#2",
          "ticks": 85336,
          "time": 111.11458333333333,
          "velocity": 0.36220472440944884
        },
        {
          "duration": 0,
          "durationTicks": 0,
          "midi": 53,
          "name": "F3",
          "ticks": 85372,
          "time": 111.16145833333333,
          "velocity": 0.4015748031496063
        },
        {
          "duration": 0,
          "durationTicks": 0,
          "midi": 64,
          "name": "E4",
          "ticks": 85372,
          "time": 111.16145833333333,
          "velocity": 0.11023622047244094
        },
        {
          "duration": 0.1276041666666714,
          "durationTicks": 98,
          "midi": 75,
          "name": "D#5",
          "ticks": 85372,
          "time": 111.16145833333333,
          "velocity": 0.25984251968503935
        },
        {
          "duration": 0,
          "durationTicks": 0,
          "midi": 68,
          "name": "G#4",
          "ticks": 85381,
          "time": 111.17317708333333,
          "velocity": 0.1968503937007874
        },
        {
          "duration": 0,
          "durationTicks": 0,
          "midi": 90,
          "name": "F#6",
          "ticks": 85381,
          "time": 111.17317708333333,
          "velocity": 0.07086614173228346
        },
        {
          "duration": 0,
          "durationTicks": 0,
          "midi": 95,
          "name": "B6",
          "ticks": 85381,
          "time": 111.17317708333333,
          "velocity": 0.07874015748031496
        },
        {
          "duration": 0,
          "durationTicks": 0,
          "midi": 86,
          "name": "D6",
          "ticks": 85381,
          "time": 111.17317708333333,
          "velocity": 0.08661417322834646
        },
        {
          "duration": 0.1276041666666714,
          "durationTicks": 98,
          "midi": 70,
          "name": "A#4",
          "ticks": 85381,
          "time": 111.17317708333333,
          "velocity": 0.14960629921259844
        },
        {
          "duration": 0,
          "durationTicks": 0,
          "midi": 52,
          "name": "E3",
          "ticks": 85391,
          "time": 111.18619791666667,
          "velocity": 0.4094488188976378
        },
        {
          "duration": 0,
          "durationTicks": 0,
          "midi": 72,
          "name": "C5",
          "ticks": 85391,
          "time": 111.18619791666667,
          "velocity": 0.18110236220472442
        },
        {
          "duration": 0,
          "durationTicks": 0,
          "midi": 37,
          "name": "C#2",
          "ticks": 85391,
          "time": 111.18619791666667,
          "velocity": 0.25984251968503935
        },
        {
          "duration": 0,
          "durationTicks": 0,
          "midi": 79,
          "name": "G5",
          "ticks": 85391,
          "time": 111.18619791666667,
          "velocity": 0.13385826771653545
        },
        {
          "duration": 0,
          "durationTicks": 0,
          "midi": 86,
          "name": "D6",
          "ticks": 85391,
          "time": 111.18619791666667,
          "velocity": 0.08661417322834646
        },
        {
          "duration": 0,
          "durationTicks": 0,
          "midi": 51,
          "name": "D#3",
          "ticks": 85400,
          "time": 111.19791666666667,
          "velocity": 0.4094488188976378
        },
        {
          "duration": 0,
          "durationTicks": 0,
          "midi": 51,
          "name": "D#3",
          "ticks": 85427,
          "time": 111.23307291666667,
          "velocity": 0.36220472440944884
        },
        {
          "duration": 0,
          "durationTicks": 0,
          "midi": 37,
          "name": "C#2",
          "ticks": 85463,
          "time": 111.27994791666667,
          "velocity": 0.3228346456692913
        },
        {
          "duration": 0,
          "durationTicks": 0,
          "midi": 65,
          "name": "F4",
          "ticks": 85472,
          "time": 111.29166666666667,
          "velocity": 0.2204724409448819
        },
        {
          "duration": 0.1263020833333286,
          "durationTicks": 97,
          "midi": 77,
          "name": "F5",
          "ticks": 85472,
          "time": 111.29166666666667,
          "velocity": 0.2677165354330709
        },
        {
          "duration": 0,
          "durationTicks": 0,
          "midi": 75,
          "name": "D#5",
          "ticks": 85482,
          "time": 111.3046875,
          "velocity": 0.06299212598425197
        },
        {
          "duration": 0,
          "durationTicks": 0,
          "midi": 56,
          "name": "G#3",
          "ticks": 85491,
          "time": 111.31640625,
          "velocity": 0.31496062992125984
        },
        {
          "duration": 0,
          "durationTicks": 0,
          "midi": 37,
          "name": "C#2",
          "ticks": 85491,
          "time": 111.31640625,
          "velocity": 0.2755905511811024
        },
        {
          "duration": 0,
          "durationTicks": 0,
          "midi": 80,
          "name": "G#5",
          "ticks": 85491,
          "time": 111.31640625,
          "velocity": 0.1732283464566929
        },
        {
          "duration": 0.1263020833333286,
          "durationTicks": 97,
          "midi": 51,
          "name": "D#3",
          "ticks": 85491,
          "time": 111.31640625,
          "velocity": 0.3700787401574803
        },
        {
          "duration": 0,
          "durationTicks": 0,
          "midi": 59,
          "name": "B3",
          "ticks": 85518,
          "time": 111.3515625,
          "velocity": 0.29133858267716534
        },
        {
          "duration": 0.1276041666666714,
          "durationTicks": 98,
          "midi": 70,
          "name": "A#4",
          "ticks": 85518,
          "time": 111.3515625,
          "velocity": 0.11811023622047244
        },
        {
          "duration": 0,
          "durationTicks": 0,
          "midi": 52,
          "name": "E3",
          "ticks": 85545,
          "time": 111.38671875,
          "velocity": 0.3779527559055118
        },
        {
          "duration": 0,
          "durationTicks": 0,
          "midi": 75,
          "name": "D#5",
          "ticks": 85545,
          "time": 111.38671875,
          "velocity": 0.06299212598425197
        },
        {
          "duration": 0.1276041666666572,
          "durationTicks": 98,
          "midi": 77,
          "name": "F5",
          "ticks": 85562,
          "time": 111.40885416666667,
          "velocity": 0.29133858267716534
        },
        {
          "duration": 0,
          "durationTicks": 0,
          "midi": 65,
          "name": "F4",
          "ticks": 85572,
          "time": 111.421875,
          "velocity": 0.2283464566929134
        },
        {
          "duration": 0.1276041666666714,
          "durationTicks": 98,
          "midi": 72,
          "name": "C5",
          "ticks": 85572,
          "time": 111.421875,
          "velocity": 0.2125984251968504
        },
        {
          "duration": 0,
          "durationTicks": 0,
          "midi": 56,
          "name": "G#3",
          "ticks": 85581,
          "time": 111.43359375,
          "velocity": 0.2992125984251969
        },
        {
          "duration": 0,
          "durationTicks": 0,
          "midi": 46,
          "name": "A#2",
          "ticks": 85590,
          "time": 111.4453125,
          "velocity": 0.3464566929133858
        },
        {
          "duration": 0,
          "durationTicks": 0,
          "midi": 57,
          "name": "A3",
          "ticks": 85600,
          "time": 111.45833333333333,
          "velocity": 0.31496062992125984
        },
        {
          "duration": 0,
          "durationTicks": 0,
          "midi": 75,
          "name": "D#5",
          "ticks": 85609,
          "time": 111.47005208333333,
          "velocity": 0.11023622047244094
        },
        {
          "duration": 0,
          "durationTicks": 0,
          "midi": 56,
          "name": "G#3",
          "ticks": 85618,
          "time": 111.48177083333333,
          "velocity": 0.30708661417322836
        },
        {
          "duration": 0,
          "durationTicks": 0,
          "midi": 46,
          "name": "A#2",
          "ticks": 85645,
          "time": 111.51692708333333,
          "velocity": 0.4015748031496063
        },
        {
          "duration": 0,
          "durationTicks": 0,
          "midi": 65,
          "name": "F4",
          "ticks": 85645,
          "time": 111.51692708333333,
          "velocity": 0.11811023622047244
        },
        {
          "duration": 0,
          "durationTicks": 0,
          "midi": 47,
          "name": "B2",
          "ticks": 85663,
          "time": 111.54036458333333,
          "velocity": 0.4015748031496063
        },
        {
          "duration": 0,
          "durationTicks": 0,
          "midi": 91,
          "name": "G6",
          "ticks": 85663,
          "time": 111.54036458333333,
          "velocity": 0.05511811023622047
        },
        {
          "duration": 0,
          "durationTicks": 0,
          "midi": 45,
          "name": "A2",
          "ticks": 85681,
          "time": 111.56380208333333,
          "velocity": 0.30708661417322836
        },
        {
          "duration": 0,
          "durationTicks": 0,
          "midi": 65,
          "name": "F4",
          "ticks": 85681,
          "time": 111.56380208333333,
          "velocity": 0.07086614173228346
        },
        {
          "duration": 0,
          "durationTicks": 0,
          "midi": 71,
          "name": "B4",
          "ticks": 85681,
          "time": 111.56380208333333,
          "velocity": 0.12598425196850394
        },
        {
          "duration": 0.125,
          "durationTicks": 96,
          "midi": 87,
          "name": "D#6",
          "ticks": 85681,
          "time": 111.56380208333333,
          "velocity": 0.2047244094488189
        },
        {
          "duration": 0.6302083333333428,
          "durationTicks": 484,
          "midi": 79,
          "name": "G5",
          "ticks": 85681,
          "time": 111.56380208333333,
          "velocity": 0.33858267716535434
        },
        {
          "duration": 0.125,
          "durationTicks": 96,
          "midi": 75,
          "name": "D#5",
          "ticks": 85691,
          "time": 111.57682291666667,
          "velocity": 0.2125984251968504
        },
        {
          "duration": 0,
          "durationTicks": 0,
          "midi": 66,
          "name": "F#4",
          "ticks": 85708,
          "time": 111.59895833333333,
          "velocity": 0.11023622047244094
        },
        {
          "duration": 0,
          "durationTicks": 0,
          "midi": 40,
          "name": "E2",
          "ticks": 85726,
          "time": 111.62239583333333,
          "velocity": 0.36220472440944884
        },
        {
          "duration": 0,
          "durationTicks": 0,
          "midi": 37,
          "name": "C#2",
          "ticks": 85743,
          "time": 111.64453125,
          "velocity": 0.4015748031496063
        },
        {
          "duration": 0,
          "durationTicks": 0,
          "midi": 69,
          "name": "A4",
          "ticks": 85761,
          "time": 111.66796875,
          "velocity": 0.2283464566929134
        },
        {
          "duration": 0,
          "durationTicks": 0,
          "midi": 29,
          "name": "F1",
          "ticks": 85770,
          "time": 111.6796875,
          "velocity": 0.4015748031496063
        },
        {
          "duration": 0,
          "durationTicks": 0,
          "midi": 66,
          "name": "F#4",
          "ticks": 85770,
          "time": 111.6796875,
          "velocity": 0.1968503937007874
        },
        {
          "duration": 0,
          "durationTicks": 0,
          "midi": 72,
          "name": "C5",
          "ticks": 85770,
          "time": 111.6796875,
          "velocity": 0.2125984251968504
        },
        {
          "duration": 0.013020833333328596,
          "durationTicks": 10,
          "midi": 86,
          "name": "D6",
          "ticks": 85770,
          "time": 111.6796875,
          "velocity": 0.07086614173228346
        },
        {
          "duration": 0.1158854166666714,
          "durationTicks": 89,
          "midi": 86,
          "name": "D6",
          "ticks": 85780,
          "time": 111.69270833333333,
          "velocity": 0.18110236220472442
        },
        {
          "duration": 0,
          "durationTicks": 0,
          "midi": 30,
          "name": "F#1",
          "ticks": 85780,
          "time": 111.69270833333333,
          "velocity": 0.4330708661417323
        },
        {
          "duration": 0.12890625,
          "durationTicks": 99,
          "midi": 68,
          "name": "G#4",
          "ticks": 85780,
          "time": 111.69270833333333,
          "velocity": 0.25984251968503935
        },
        {
          "duration": 0.12890625,
          "durationTicks": 99,
          "midi": 60,
          "name": "C4",
          "ticks": 85780,
          "time": 111.69270833333333,
          "velocity": 0.1889763779527559
        },
        {
          "duration": 0,
          "durationTicks": 0,
          "midi": 73,
          "name": "C#5",
          "ticks": 85789,
          "time": 111.70442708333333,
          "velocity": 0.2125984251968504
        },
        {
          "duration": 0,
          "durationTicks": 0,
          "midi": 84,
          "name": "C6",
          "ticks": 85789,
          "time": 111.70442708333333,
          "velocity": 0.14960629921259844
        },
        {
          "duration": 0.12890625,
          "durationTicks": 99,
          "midi": 65,
          "name": "F4",
          "ticks": 85789,
          "time": 111.70442708333333,
          "velocity": 0.1732283464566929
        },
        {
          "duration": 0,
          "durationTicks": 0,
          "midi": 48,
          "name": "C3",
          "ticks": 85807,
          "time": 111.72786458333333,
          "velocity": 0.11023622047244094
        },
        {
          "duration": 0,
          "durationTicks": 0,
          "midi": 83,
          "name": "B5",
          "ticks": 85807,
          "time": 111.72786458333333,
          "velocity": 0.1968503937007874
        },
        {
          "duration": 0,
          "durationTicks": 0,
          "midi": 70,
          "name": "A#4",
          "ticks": 85816,
          "time": 111.73958333333333,
          "velocity": 0.1968503937007874
        },
        {
          "duration": 0,
          "durationTicks": 0,
          "midi": 81,
          "name": "A5",
          "ticks": 85825,
          "time": 111.75130208333333,
          "velocity": 0.1889763779527559
        },
        {
          "duration": 0.12890625,
          "durationTicks": 99,
          "midi": 29,
          "name": "F1",
          "ticks": 85825,
          "time": 111.75130208333333,
          "velocity": 0.4015748031496063
        },
        {
          "duration": 0,
          "durationTicks": 0,
          "midi": 63,
          "name": "D#4",
          "ticks": 85834,
          "time": 111.76302083333333,
          "velocity": 0.1968503937007874
        },
        {
          "duration": 0.25390625,
          "durationTicks": 195,
          "midi": 86,
          "name": "D6",
          "ticks": 85844,
          "time": 111.77604166666667,
          "velocity": 0.08661417322834646
        },
        {
          "duration": 0.1276041666666572,
          "durationTicks": 98,
          "midi": 75,
          "name": "D#5",
          "ticks": 85853,
          "time": 111.78776041666667,
          "velocity": 0.1968503937007874
        },
        {
          "duration": 0,
          "durationTicks": 0,
          "midi": 67,
          "name": "G4",
          "ticks": 85862,
          "time": 111.79947916666667,
          "velocity": 0.2125984251968504
        },
        {
          "duration": 0.1276041666666572,
          "durationTicks": 98,
          "midi": 48,
          "name": "C3",
          "ticks": 85862,
          "time": 111.79947916666667,
          "velocity": 0.08661417322834646
        },
        {
          "duration": 0.1263020833333286,
          "durationTicks": 97,
          "midi": 68,
          "name": "G#4",
          "ticks": 85881,
          "time": 111.82421875,
          "velocity": 0.25196850393700787
        },
        {
          "duration": 0.1263020833333286,
          "durationTicks": 97,
          "midi": 65,
          "name": "F4",
          "ticks": 85890,
          "time": 111.8359375,
          "velocity": 0.25984251968503935
        },
        {
          "duration": 0,
          "durationTicks": 0,
          "midi": 61,
          "name": "C#4",
          "ticks": 85926,
          "time": 111.8828125,
          "velocity": 0.25984251968503935
        },
        {
          "duration": 0,
          "durationTicks": 0,
          "midi": 60,
          "name": "C4",
          "ticks": 85944,
          "time": 111.90625,
          "velocity": 0.25984251968503935
        },
        {
          "duration": 0.1263020833333286,
          "durationTicks": 97,
          "midi": 87,
          "name": "D#6",
          "ticks": 85953,
          "time": 111.91796875,
          "velocity": 0.14960629921259844
        },
        {
          "duration": 0.125,
          "durationTicks": 96,
          "midi": 63,
          "name": "D#4",
          "ticks": 85990,
          "time": 111.96614583333333,
          "velocity": 0.1968503937007874
        },
        {
          "duration": 0,
          "durationTicks": 0,
          "midi": 55,
          "name": "G3",
          "ticks": 86007,
          "time": 111.98828125,
          "velocity": 0.2047244094488189
        },
        {
          "duration": 0,
          "durationTicks": 0,
          "midi": 52,
          "name": "E3",
          "ticks": 86043,
          "time": 112.03515625,
          "velocity": 0.1889763779527559
        },
        {
          "duration": 0,
          "durationTicks": 0,
          "midi": 46,
          "name": "A#2",
          "ticks": 86115,
          "time": 112.12890625,
          "velocity": 0.1968503937007874
        },
        {
          "duration": 0,
          "durationTicks": 0,
          "midi": 73,
          "name": "C#5",
          "ticks": 86115,
          "time": 112.12890625,
          "velocity": 0.2283464566929134
        },
        {
          "duration": 0.3763020833333286,
          "durationTicks": 289,
          "midi": 75,
          "name": "D#5",
          "ticks": 86115,
          "time": 112.12890625,
          "velocity": 0.25984251968503935
        },
        {
          "duration": 0,
          "durationTicks": 0,
          "midi": 45,
          "name": "A2",
          "ticks": 86132,
          "time": 112.15104166666667,
          "velocity": 0.1968503937007874
        },
        {
          "duration": 0,
          "durationTicks": 0,
          "midi": 56,
          "name": "G#3",
          "ticks": 86150,
          "time": 112.17447916666667,
          "velocity": 0.30708661417322836
        },
        {
          "duration": 0,
          "durationTicks": 0,
          "midi": 86,
          "name": "D6",
          "ticks": 86150,
          "time": 112.17447916666667,
          "velocity": 0.10236220472440945
        },
        {
          "duration": 0,
          "durationTicks": 0,
          "midi": 77,
          "name": "F5",
          "ticks": 86150,
          "time": 112.17447916666667,
          "velocity": 0.2283464566929134
        },
        {
          "duration": 0,
          "durationTicks": 0,
          "midi": 82,
          "name": "A#5",
          "ticks": 86150,
          "time": 112.17447916666667,
          "velocity": 0.07874015748031496
        },
        {
          "duration": 0.125,
          "durationTicks": 96,
          "midi": 72,
          "name": "C5",
          "ticks": 86150,
          "time": 112.17447916666667,
          "velocity": 0.25196850393700787
        },
        {
          "duration": 0,
          "durationTicks": 0,
          "midi": 65,
          "name": "F4",
          "ticks": 86168,
          "time": 112.19791666666667,
          "velocity": 0.18110236220472442
        },
        {
          "duration": 0.125,
          "durationTicks": 96,
          "midi": 60,
          "name": "C4",
          "ticks": 86168,
          "time": 112.19791666666667,
          "velocity": 0.2047244094488189
        },
        {
          "duration": 0,
          "durationTicks": 0,
          "midi": 56,
          "name": "G#3",
          "ticks": 86177,
          "time": 112.20963541666667,
          "velocity": 0.1889763779527559
        },
        {
          "duration": 0.2513020833333286,
          "durationTicks": 193,
          "midi": 79,
          "name": "G5",
          "ticks": 86177,
          "time": 112.20963541666667,
          "velocity": 0.16535433070866143
        },
        {
          "duration": 0,
          "durationTicks": 0,
          "midi": 65,
          "name": "F4",
          "ticks": 86204,
          "time": 112.24479166666667,
          "velocity": 0.1968503937007874
        },
        {
          "duration": 0,
          "durationTicks": 0,
          "midi": 41,
          "name": "F2",
          "ticks": 86213,
          "time": 112.25651041666667,
          "velocity": 0.2125984251968504
        },
        {
          "duration": 0,
          "durationTicks": 0,
          "midi": 63,
          "name": "D#4",
          "ticks": 86231,
          "time": 112.27994791666667,
          "velocity": 0.1968503937007874
        },
        {
          "duration": 0.1263020833333428,
          "durationTicks": 97,
          "midi": 60,
          "name": "C4",
          "ticks": 86266,
          "time": 112.32552083333333,
          "velocity": 0.1732283464566929
        },
        {
          "duration": 0.1263020833333428,
          "durationTicks": 97,
          "midi": 63,
          "name": "D#4",
          "ticks": 86275,
          "time": 112.33723958333333,
          "velocity": 0.2440944881889764
        },
        {
          "duration": 0.1263020833333428,
          "durationTicks": 97,
          "midi": 94,
          "name": "A#6",
          "ticks": 86293,
          "time": 112.36067708333333,
          "velocity": 0.06299212598425197
        },
        {
          "duration": 0,
          "durationTicks": 0,
          "midi": 65,
          "name": "F4",
          "ticks": 86310,
          "time": 112.3828125,
          "velocity": 0.15748031496062992
        },
        {
          "duration": 0.1276041666666714,
          "durationTicks": 98,
          "midi": 27,
          "name": "D#1",
          "ticks": 86337,
          "time": 112.41796875,
          "velocity": 0.3779527559055118
        },
        {
          "duration": 0,
          "durationTicks": 0,
          "midi": 77,
          "name": "F5",
          "ticks": 86347,
          "time": 112.43098958333333,
          "velocity": 0.18110236220472442
        },
        {
          "duration": 0.1276041666666714,
          "durationTicks": 98,
          "midi": 80,
          "name": "G#5",
          "ticks": 86356,
          "time": 112.44270833333333,
          "velocity": 0.1732283464566929
        },
        {
          "duration": 0.1263020833333286,
          "durationTicks": 97,
          "midi": 79,
          "name": "G5",
          "ticks": 86375,
          "time": 112.46744791666667,
          "velocity": 0.13385826771653545
        },
        {
          "duration": 0,
          "durationTicks": 0,
          "midi": 70,
          "name": "A#4",
          "ticks": 86392,
          "time": 112.48958333333333,
          "velocity": 0.2125984251968504
        },
        {
          "duration": 0,
          "durationTicks": 0,
          "midi": 46,
          "name": "A#2",
          "ticks": 86401,
          "time": 112.50130208333333,
          "velocity": 0.13385826771653545
        },
        {
          "duration": 0,
          "durationTicks": 0,
          "midi": 57,
          "name": "A3",
          "ticks": 86411,
          "time": 112.51432291666667,
          "velocity": 0.07874015748031496
        },
        {
          "duration": 0,
          "durationTicks": 0,
          "midi": 67,
          "name": "G4",
          "ticks": 86428,
          "time": 112.53645833333333,
          "velocity": 0.23622047244094488
        },
        {
          "duration": 0,
          "durationTicks": 0,
          "midi": 75,
          "name": "D#5",
          "ticks": 86428,
          "time": 112.53645833333333,
          "velocity": 0.1732283464566929
        },
        {
          "duration": 0,
          "durationTicks": 0,
          "midi": 66,
          "name": "F#4",
          "ticks": 86447,
          "time": 112.56119791666667,
          "velocity": 0.2283464566929134
        },
        {
          "duration": 0,
          "durationTicks": 0,
          "midi": 70,
          "name": "A#4",
          "ticks": 86456,
          "time": 112.57291666666667,
          "velocity": 0.1732283464566929
        },
        {
          "duration": 0.1263020833333286,
          "durationTicks": 97,
          "midi": 79,
          "name": "G5",
          "ticks": 86456,
          "time": 112.57291666666667,
          "velocity": 0.1732283464566929
        },
        {
          "duration": 0,
          "durationTicks": 0,
          "midi": 75,
          "name": "D#5",
          "ticks": 86483,
          "time": 112.60807291666667,
          "velocity": 0.1732283464566929
        },
        {
          "duration": 0,
          "durationTicks": 0,
          "midi": 61,
          "name": "C#4",
          "ticks": 86501,
          "time": 112.63151041666667,
          "velocity": 0.23622047244094488
        },
        {
          "duration": 0.3802083333333286,
          "durationTicks": 292,
          "midi": 72,
          "name": "C5",
          "ticks": 86501,
          "time": 112.63151041666667,
          "velocity": 0.2440944881889764
        },
        {
          "duration": 0,
          "durationTicks": 0,
          "midi": 70,
          "name": "A#4",
          "ticks": 86518,
          "time": 112.65364583333333,
          "velocity": 0.1968503937007874
        },
        {
          "duration": 0,
          "durationTicks": 0,
          "midi": 61,
          "name": "C#4",
          "ticks": 86528,
          "time": 112.66666666666667,
          "velocity": 0.2047244094488189
        },
        {
          "duration": 0,
          "durationTicks": 0,
          "midi": 29,
          "name": "F1",
          "ticks": 86537,
          "time": 112.67838541666667,
          "velocity": 0.41732283464566927
        },
        {
          "duration": 0,
          "durationTicks": 0,
          "midi": 75,
          "name": "D#5",
          "ticks": 86537,
          "time": 112.67838541666667,
          "velocity": 0.12598425196850394
        },
        {
          "duration": 0,
          "durationTicks": 0,
          "midi": 65,
          "name": "F4",
          "ticks": 86537,
          "time": 112.67838541666667,
          "velocity": 0.2125984251968504
        },
        {
          "duration": 0,
          "durationTicks": 0,
          "midi": 30,
          "name": "F#1",
          "ticks": 86546,
          "time": 112.69010416666667,
          "velocity": 0.4330708661417323
        },
        {
          "duration": 0,
          "durationTicks": 0,
          "midi": 60,
          "name": "C4",
          "ticks": 86546,
          "time": 112.69010416666667,
          "velocity": 0.1732283464566929
        },
        {
          "duration": 0.1263020833333286,
          "durationTicks": 97,
          "midi": 68,
          "name": "G#4",
          "ticks": 86546,
          "time": 112.69010416666667,
          "velocity": 0.2283464566929134
        },
        {
          "duration": 0,
          "durationTicks": 0,
          "midi": 48,
          "name": "C3",
          "ticks": 86573,
          "time": 112.72526041666667,
          "velocity": 0.10236220472440945
        },
        {
          "duration": 0.1263020833333286,
          "durationTicks": 97,
          "midi": 75,
          "name": "D#5",
          "ticks": 86573,
          "time": 112.72526041666667,
          "velocity": 0.25984251968503935
        },
        {
          "duration": 0.1263020833333286,
          "durationTicks": 97,
          "midi": 29,
          "name": "F1",
          "ticks": 86583,
          "time": 112.73828125,
          "velocity": 0.4015748031496063
        },
        {
          "duration": 0,
          "durationTicks": 0,
          "midi": 60,
          "name": "C4",
          "ticks": 86592,
          "time": 112.75,
          "velocity": 0.1889763779527559
        },
        {
          "duration": 0.1263020833333286,
          "durationTicks": 97,
          "midi": 63,
          "name": "D#4",
          "ticks": 86592,
          "time": 112.75,
          "velocity": 0.1889763779527559
        },
        {
          "duration": 0,
          "durationTicks": 0,
          "midi": 70,
          "name": "A#4",
          "ticks": 86609,
          "time": 112.77213541666667,
          "velocity": 0.1732283464566929
        },
        {
          "duration": 0.1263020833333286,
          "durationTicks": 97,
          "midi": 48,
          "name": "C3",
          "ticks": 86619,
          "time": 112.78515625,
          "velocity": 0.07874015748031496
        },
        {
          "duration": 0.1276041666666572,
          "durationTicks": 98,
          "midi": 75,
          "name": "D#5",
          "ticks": 86663,
          "time": 112.84244791666667,
          "velocity": 0.12598425196850394
        },
        {
          "duration": 0,
          "durationTicks": 0,
          "midi": 63,
          "name": "D#4",
          "ticks": 86718,
          "time": 112.9140625,
          "velocity": 0.1968503937007874
        },
        {
          "duration": 0.1263020833333286,
          "durationTicks": 97,
          "midi": 60,
          "name": "C4",
          "ticks": 86718,
          "time": 112.9140625,
          "velocity": 0.1732283464566929
        },
        {
          "duration": 0.08203125,
          "durationTicks": 63,
          "midi": 77,
          "name": "F5",
          "ticks": 86727,
          "time": 112.92578125,
          "velocity": 0.1968503937007874
        },
        {
          "duration": 0.1263020833333428,
          "durationTicks": 97,
          "midi": 68,
          "name": "G#4",
          "ticks": 86737,
          "time": 112.93880208333333,
          "velocity": 0.1889763779527559
        },
        {
          "duration": 0.1263020833333428,
          "durationTicks": 97,
          "midi": 79,
          "name": "G5",
          "ticks": 86737,
          "time": 112.93880208333333,
          "velocity": 0.1889763779527559
        },
        {
          "duration": 0,
          "durationTicks": 0,
          "midi": 63,
          "name": "D#4",
          "ticks": 86746,
          "time": 112.95052083333333,
          "velocity": 0.2125984251968504
        },
        {
          "duration": 0,
          "durationTicks": 0,
          "midi": 75,
          "name": "D#5",
          "ticks": 86781,
          "time": 112.99609375,
          "velocity": 0.11811023622047244
        },
        {
          "duration": 0.044270833333328596,
          "durationTicks": 34,
          "midi": 77,
          "name": "F5",
          "ticks": 86790,
          "time": 113.0078125,
          "velocity": 0.15748031496062992
        },
        {
          "duration": 0,
          "durationTicks": 0,
          "midi": 70,
          "name": "A#4",
          "ticks": 86836,
          "time": 113.06770833333333,
          "velocity": 0.1889763779527559
        },
        {
          "duration": 0.1263020833333428,
          "durationTicks": 97,
          "midi": 75,
          "name": "D#5",
          "ticks": 86845,
          "time": 113.07942708333333,
          "velocity": 0.18110236220472442
        },
        {
          "duration": 0,
          "durationTicks": 0,
          "midi": 65,
          "name": "F4",
          "ticks": 86890,
          "time": 113.13802083333333,
          "velocity": 0.1968503937007874
        },
        {
          "duration": 0,
          "durationTicks": 0,
          "midi": 44,
          "name": "G#2",
          "ticks": 86907,
          "time": 113.16015625,
          "velocity": 0.3779527559055118
        },
        {
          "duration": 0.1276041666666714,
          "durationTicks": 98,
          "midi": 80,
          "name": "G#5",
          "ticks": 86907,
          "time": 113.16015625,
          "velocity": 0.18110236220472442
        },
        {
          "duration": 0.2552083333333286,
          "durationTicks": 196,
          "midi": 72,
          "name": "C5",
          "ticks": 86907,
          "time": 113.16015625,
          "velocity": 0.25984251968503935
        },
        {
          "duration": 0,
          "durationTicks": 0,
          "midi": 86,
          "name": "D6",
          "ticks": 86917,
          "time": 113.17317708333333,
          "velocity": 0.10236220472440945
        },
        {
          "duration": 0.1276041666666714,
          "durationTicks": 98,
          "midi": 77,
          "name": "F5",
          "ticks": 86917,
          "time": 113.17317708333333,
          "velocity": 0.2047244094488189
        },
        {
          "duration": 0.3815104166666714,
          "durationTicks": 293,
          "midi": 70,
          "name": "A#4",
          "ticks": 86917,
          "time": 113.17317708333333,
          "velocity": 0.2204724409448819
        },
        {
          "duration": 0,
          "durationTicks": 0,
          "midi": 42,
          "name": "F#2",
          "ticks": 86926,
          "time": 113.18489583333333,
          "velocity": 0.4015748031496063
        },
        {
          "duration": 0,
          "durationTicks": 0,
          "midi": 57,
          "name": "A3",
          "ticks": 86926,
          "time": 113.18489583333333,
          "velocity": 0.29133858267716534
        },
        {
          "duration": 0.1276041666666714,
          "durationTicks": 98,
          "midi": 68,
          "name": "G#4",
          "ticks": 86926,
          "time": 113.18489583333333,
          "velocity": 0.1889763779527559
        },
        {
          "duration": 0,
          "durationTicks": 0,
          "midi": 91,
          "name": "G6",
          "ticks": 86935,
          "time": 113.19661458333333,
          "velocity": 0.07874015748031496
        },
        {
          "duration": 0,
          "durationTicks": 0,
          "midi": 56,
          "name": "G#3",
          "ticks": 86945,
          "time": 113.20963541666667,
          "velocity": 0.18110236220472442
        },
        {
          "duration": 0,
          "durationTicks": 0,
          "midi": 66,
          "name": "F#4",
          "ticks": 86954,
          "time": 113.22135416666667,
          "velocity": 0.1732283464566929
        },
        {
          "duration": 0,
          "durationTicks": 0,
          "midi": 60,
          "name": "C4",
          "ticks": 86954,
          "time": 113.22135416666667,
          "velocity": 0.1732283464566929
        },
        {
          "duration": 0,
          "durationTicks": 0,
          "midi": 43,
          "name": "G2",
          "ticks": 86954,
          "time": 113.22135416666667,
          "velocity": 0.3779527559055118
        },
        {
          "duration": 0,
          "durationTicks": 0,
          "midi": 63,
          "name": "D#4",
          "ticks": 86981,
          "time": 113.25651041666667,
          "velocity": 0.1968503937007874
        },
        {
          "duration": 0.1263020833333286,
          "durationTicks": 97,
          "midi": 31,
          "name": "G1",
          "ticks": 87026,
          "time": 113.31510416666667,
          "velocity": 0.3779527559055118
        },
        {
          "duration": 0.1263020833333286,
          "durationTicks": 97,
          "midi": 50,
          "name": "D3",
          "ticks": 87036,
          "time": 113.328125,
          "velocity": 0.07086614173228346
        },
        {
          "duration": 0.1263020833333286,
          "durationTicks": 97,
          "midi": 89,
          "name": "F6",
          "ticks": 87045,
          "time": 113.33984375,
          "velocity": 0.05511811023622047
        },
        {
          "duration": 0.1263020833333286,
          "durationTicks": 97,
          "midi": 72,
          "name": "C5",
          "ticks": 87081,
          "time": 113.38671875,
          "velocity": 0.13385826771653545
        },
        {
          "duration": 0,
          "durationTicks": 0,
          "midi": 87,
          "name": "D#6",
          "ticks": 87108,
          "time": 113.421875,
          "velocity": 0.12598425196850394
        },
        {
          "duration": 0.1276041666666714,
          "durationTicks": 98,
          "midi": 68,
          "name": "G#4",
          "ticks": 87135,
          "time": 113.45703125,
          "velocity": 0.15748031496062992
        },
        {
          "duration": 0,
          "durationTicks": 0,
          "midi": 44,
          "name": "G#2",
          "ticks": 87198,
          "time": 113.5390625,
          "velocity": 0.4094488188976378
        },
        {
          "duration": 0,
          "durationTicks": 0,
          "midi": 64,
          "name": "E4",
          "ticks": 87198,
          "time": 113.5390625,
          "velocity": 0.1889763779527559
        },
        {
          "duration": 0.1276041666666714,
          "durationTicks": 98,
          "midi": 58,
          "name": "A#3",
          "ticks": 87198,
          "time": 113.5390625,
          "velocity": 0.2125984251968504
        },
        {
          "duration": 0,
          "durationTicks": 0,
          "midi": 75,
          "name": "D#5",
          "ticks": 87207,
          "time": 113.55078125,
          "velocity": 0.1732283464566929
        },
        {
          "duration": 0.1276041666666714,
          "durationTicks": 98,
          "midi": 79,
          "name": "G5",
          "ticks": 87207,
          "time": 113.55078125,
          "velocity": 0.08661417322834646
        },
        {
          "duration": 0,
          "durationTicks": 0,
          "midi": 31,
          "name": "G1",
          "ticks": 87217,
          "time": 113.56380208333333,
          "velocity": 0.29133858267716534
        },
        {
          "duration": 0.08333333333334281,
          "durationTicks": 64,
          "midi": 63,
          "name": "D#4",
          "ticks": 87217,
          "time": 113.56380208333333,
          "velocity": 0.2677165354330709
        },
        {
          "duration": 0.1276041666666714,
          "durationTicks": 98,
          "midi": 67,
          "name": "G4",
          "ticks": 87217,
          "time": 113.56380208333333,
          "velocity": 0.2755905511811024
        },
        {
          "duration": 0.1276041666666714,
          "durationTicks": 98,
          "midi": 44,
          "name": "G#2",
          "ticks": 87226,
          "time": 113.57552083333333,
          "velocity": 0.3858267716535433
        },
        {
          "duration": 0.1276041666666714,
          "durationTicks": 98,
          "midi": 72,
          "name": "C5",
          "ticks": 87235,
          "time": 113.58723958333333,
          "velocity": 0.18110236220472442
        },
        {
          "duration": 0,
          "durationTicks": 0,
          "midi": 86,
          "name": "D6",
          "ticks": 87271,
          "time": 113.63411458333333,
          "velocity": 0.06299212598425197
        },
        {
          "duration": 0.044270833333328596,
          "durationTicks": 34,
          "midi": 63,
          "name": "D#4",
          "ticks": 87281,
          "time": 113.64713541666667,
          "velocity": 0.28346456692913385
        },
        {
          "duration": 0,
          "durationTicks": 0,
          "midi": 61,
          "name": "C#4",
          "ticks": 87317,
          "time": 113.69401041666667,
          "velocity": 0.1968503937007874
        },
        {
          "duration": 0.0950520833333286,
          "durationTicks": 73,
          "midi": 67,
          "name": "G4",
          "ticks": 87317,
          "time": 113.69401041666667,
          "velocity": 0.31496062992125984
        },
        {
          "duration": 0,
          "durationTicks": 0,
          "midi": 86,
          "name": "D6",
          "ticks": 87336,
          "time": 113.71875,
          "velocity": 0.10236220472440945
        },
        {
          "duration": 0.1276041666666714,
          "durationTicks": 98,
          "midi": 72,
          "name": "C5",
          "ticks": 87336,
          "time": 113.71875,
          "velocity": 0.1968503937007874
        },
        {
          "duration": 0,
          "durationTicks": 0,
          "midi": 58,
          "name": "A#3",
          "ticks": 87345,
          "time": 113.73046875,
          "velocity": 0.2047244094488189
        },
        {
          "duration": 0.1276041666666714,
          "durationTicks": 98,
          "midi": 63,
          "name": "D#4",
          "ticks": 87345,
          "time": 113.73046875,
          "velocity": 0.14960629921259844
        },
        {
          "duration": 0,
          "durationTicks": 0,
          "midi": 58,
          "name": "A#3",
          "ticks": 87372,
          "time": 113.765625,
          "velocity": 0.1968503937007874
        },
        {
          "duration": 0,
          "durationTicks": 0,
          "midi": 68,
          "name": "G#4",
          "ticks": 87381,
          "time": 113.77734375,
          "velocity": 0.2283464566929134
        },
        {
          "duration": 0.033854166666671404,
          "durationTicks": 26,
          "midi": 67,
          "name": "G4",
          "ticks": 87390,
          "time": 113.7890625,
          "velocity": 0.1732283464566929
        },
        {
          "duration": 0.1263020833333286,
          "durationTicks": 97,
          "midi": 44,
          "name": "G#2",
          "ticks": 87390,
          "time": 113.7890625,
          "velocity": 0.3779527559055118
        },
        {
          "duration": 0,
          "durationTicks": 0,
          "midi": 75,
          "name": "D#5",
          "ticks": 87400,
          "time": 113.80208333333333,
          "velocity": 0.14173228346456693
        },
        {
          "duration": 0.1263020833333428,
          "durationTicks": 97,
          "midi": 63,
          "name": "D#4",
          "ticks": 87409,
          "time": 113.81380208333333,
          "velocity": 0.13385826771653545
        },
        {
          "duration": 0.1263020833333428,
          "durationTicks": 97,
          "midi": 68,
          "name": "G#4",
          "ticks": 87409,
          "time": 113.81380208333333,
          "velocity": 0.18110236220472442
        },
        {
          "duration": 0,
          "durationTicks": 0,
          "midi": 53,
          "name": "F3",
          "ticks": 87480,
          "time": 113.90625,
          "velocity": 0.11811023622047244
        },
        {
          "duration": 0,
          "durationTicks": 0,
          "midi": 58,
          "name": "A#3",
          "ticks": 87490,
          "time": 113.91927083333333,
          "velocity": 0.1889763779527559
        },
        {
          "duration": 0,
          "durationTicks": 0,
          "midi": 31,
          "name": "G1",
          "ticks": 87499,
          "time": 113.93098958333333,
          "velocity": 0.3858267716535433
        },
        {
          "duration": 0,
          "durationTicks": 0,
          "midi": 75,
          "name": "D#5",
          "ticks": 87499,
          "time": 113.93098958333333,
          "velocity": 0.1732283464566929
        },
        {
          "duration": 0,
          "durationTicks": 0,
          "midi": 72,
          "name": "C5",
          "ticks": 87499,
          "time": 113.93098958333333,
          "velocity": 0.18110236220472442
        },
        {
          "duration": 0,
          "durationTicks": 0,
          "midi": 60,
          "name": "C4",
          "ticks": 87508,
          "time": 113.94270833333333,
          "velocity": 0.2755905511811024
        },
        {
          "duration": 0,
          "durationTicks": 0,
          "midi": 32,
          "name": "G#1",
          "ticks": 87518,
          "time": 113.95572916666667,
          "velocity": 0.3543307086614173
        },
        {
          "duration": 0,
          "durationTicks": 0,
          "midi": 68,
          "name": "G#4",
          "ticks": 87518,
          "time": 113.95572916666667,
          "velocity": 0.25196850393700787
        },
        {
          "duration": 0.125,
          "durationTicks": 96,
          "midi": 63,
          "name": "D#4",
          "ticks": 87527,
          "time": 113.96744791666667,
          "velocity": 0.1732283464566929
        },
        {
          "duration": 0,
          "durationTicks": 0,
          "midi": 60,
          "name": "C4",
          "ticks": 87536,
          "time": 113.97916666666667,
          "velocity": 0.28346456692913385
        },
        {
          "duration": 0,
          "durationTicks": 0,
          "midi": 67,
          "name": "G4",
          "ticks": 87536,
          "time": 113.97916666666667,
          "velocity": 0.2755905511811024
        },
        {
          "duration": 0,
          "durationTicks": 0,
          "midi": 33,
          "name": "A1",
          "ticks": 87536,
          "time": 113.97916666666667,
          "velocity": 0.3464566929133858
        },
        {
          "duration": 0.2513020833333286,
          "durationTicks": 193,
          "midi": 75,
          "name": "D#5",
          "ticks": 87546,
          "time": 113.9921875,
          "velocity": 0.2204724409448819
        },
        {
          "duration": 0,
          "durationTicks": 0,
          "midi": 60,
          "name": "C4",
          "ticks": 87563,
          "time": 114.01432291666667,
          "velocity": 0.2755905511811024
        },
        {
          "duration": 0,
          "durationTicks": 0,
          "midi": 68,
          "name": "G#4",
          "ticks": 87563,
          "time": 114.01432291666667,
          "velocity": 0.2283464566929134
        },
        {
          "duration": 0,
          "durationTicks": 0,
          "midi": 61,
          "name": "C#4",
          "ticks": 87581,
          "time": 114.03776041666667,
          "velocity": 0.2125984251968504
        },
        {
          "duration": 0,
          "durationTicks": 0,
          "midi": 67,
          "name": "G4",
          "ticks": 87598,
          "time": 114.05989583333333,
          "velocity": 0.1968503937007874
        },
        {
          "duration": 0,
          "durationTicks": 0,
          "midi": 69,
          "name": "A4",
          "ticks": 87598,
          "time": 114.05989583333333,
          "velocity": 0.1732283464566929
        },
        {
          "duration": 0,
          "durationTicks": 0,
          "midi": 63,
          "name": "D#4",
          "ticks": 87643,
          "time": 114.11848958333333,
          "velocity": 0.16535433070866143
        },
        {
          "duration": 0,
          "durationTicks": 0,
          "midi": 67,
          "name": "G4",
          "ticks": 87670,
          "time": 114.15364583333333,
          "velocity": 0.2283464566929134
        },
        {
          "duration": 0,
          "durationTicks": 0,
          "midi": 64,
          "name": "E4",
          "ticks": 87679,
          "time": 114.16536458333333,
          "velocity": 0.18110236220472442
        },
        {
          "duration": 0,
          "durationTicks": 0,
          "midi": 80,
          "name": "G#5",
          "ticks": 87679,
          "time": 114.16536458333333,
          "velocity": 0.14173228346456693
        },
        {
          "duration": 0,
          "durationTicks": 0,
          "midi": 90,
          "name": "F#6",
          "ticks": 87679,
          "time": 114.16536458333333,
          "velocity": 0.05511811023622047
        },
        {
          "duration": 0.1263020833333428,
          "durationTicks": 97,
          "midi": 82,
          "name": "A#5",
          "ticks": 87679,
          "time": 114.16536458333333,
          "velocity": 0.08661417322834646
        },
        {
          "duration": 0,
          "durationTicks": 0,
          "midi": 34,
          "name": "A#1",
          "ticks": 87688,
          "time": 114.17708333333333,
          "velocity": 0.4015748031496063
        },
        {
          "duration": 0,
          "durationTicks": 0,
          "midi": 56,
          "name": "G#3",
          "ticks": 87688,
          "time": 114.17708333333333,
          "velocity": 0.2992125984251969
        },
        {
          "duration": 0,
          "durationTicks": 0,
          "midi": 91,
          "name": "G6",
          "ticks": 87688,
          "time": 114.17708333333333,
          "velocity": 0.11811023622047244
        },
        {
          "duration": 0.08203125,
          "durationTicks": 63,
          "midi": 60,
          "name": "C4",
          "ticks": 87698,
          "time": 114.19010416666667,
          "velocity": 0.2440944881889764
        },
        {
          "duration": 0,
          "durationTicks": 0,
          "midi": 32,
          "name": "G#1",
          "ticks": 87707,
          "time": 114.20182291666667,
          "velocity": 0.3543307086614173
        },
        {
          "duration": 0.125,
          "durationTicks": 96,
          "midi": 72,
          "name": "C5",
          "ticks": 87707,
          "time": 114.20182291666667,
          "velocity": 0.2755905511811024
        },
        {
          "duration": 0.25,
          "durationTicks": 192,
          "midi": 79,
          "name": "G5",
          "ticks": 87707,
          "time": 114.20182291666667,
          "velocity": 0.11023622047244094
        },
        {
          "duration": 0,
          "durationTicks": 0,
          "midi": 33,
          "name": "A1",
          "ticks": 87725,
          "time": 114.22526041666667,
          "velocity": 0.3779527559055118
        },
        {
          "duration": 0,
          "durationTicks": 0,
          "midi": 68,
          "name": "G#4",
          "ticks": 87725,
          "time": 114.22526041666667,
          "velocity": 0.2047244094488189
        },
        {
          "duration": 0.125,
          "durationTicks": 96,
          "midi": 75,
          "name": "D#5",
          "ticks": 87725,
          "time": 114.22526041666667,
          "velocity": 0.1889763779527559
        },
        {
          "duration": 0,
          "durationTicks": 0,
          "midi": 70,
          "name": "A#4",
          "ticks": 87734,
          "time": 114.23697916666667,
          "velocity": 0.10236220472440945
        },
        {
          "duration": 0,
          "durationTicks": 0,
          "midi": 58,
          "name": "A#3",
          "ticks": 87743,
          "time": 114.24869791666667,
          "velocity": 0.2125984251968504
        },
        {
          "duration": 0,
          "durationTicks": 0,
          "midi": 67,
          "name": "G4",
          "ticks": 87743,
          "time": 114.24869791666667,
          "velocity": 0.11811023622047244
        },
        {
          "duration": 0.12369791666665719,
          "durationTicks": 95,
          "midi": 32,
          "name": "G#1",
          "ticks": 87743,
          "time": 114.24869791666667,
          "velocity": 0.3700787401574803
        },
        {
          "duration": 0.25,
          "durationTicks": 192,
          "midi": 63,
          "name": "D#4",
          "ticks": 87743,
          "time": 114.24869791666667,
          "velocity": 0.1889763779527559
        },
        {
          "duration": 0.04296875,
          "durationTicks": 33,
          "midi": 60,
          "name": "C4",
          "ticks": 87761,
          "time": 114.27213541666667,
          "velocity": 0.1968503937007874
        },
        {
          "duration": 0.125,
          "durationTicks": 96,
          "midi": 51,
          "name": "D#3",
          "ticks": 87761,
          "time": 114.27213541666667,
          "velocity": 0.06299212598425197
        },
        {
          "duration": 0,
          "durationTicks": 0,
          "midi": 70,
          "name": "A#4",
          "ticks": 87778,
          "time": 114.29427083333333,
          "velocity": 0.12598425196850394
        },
        {
          "duration": 0,
          "durationTicks": 0,
          "midi": 58,
          "name": "A#3",
          "ticks": 87796,
          "time": 114.31770833333333,
          "velocity": 0.1732283464566929
        },
        {
          "duration": 0,
          "durationTicks": 0,
          "midi": 68,
          "name": "G#4",
          "ticks": 87796,
          "time": 114.31770833333333,
          "velocity": 0.1732283464566929
        },
        {
          "duration": 0,
          "durationTicks": 0,
          "midi": 58,
          "name": "A#3",
          "ticks": 87823,
          "time": 114.35286458333333,
          "velocity": 0.1732283464566929
        },
        {
          "duration": 0.1263020833333428,
          "durationTicks": 97,
          "midi": 68,
          "name": "G#4",
          "ticks": 87823,
          "time": 114.35286458333333,
          "velocity": 0.2283464566929134
        },
        {
          "duration": 0,
          "durationTicks": 0,
          "midi": 58,
          "name": "A#3",
          "ticks": 87850,
          "time": 114.38802083333333,
          "velocity": 0.1732283464566929
        },
        {
          "duration": 0.125,
          "durationTicks": 96,
          "midi": 80,
          "name": "G#5",
          "ticks": 87904,
          "time": 114.45833333333333,
          "velocity": 0.1732283464566929
        },
        {
          "duration": 0,
          "durationTicks": 0,
          "midi": 67,
          "name": "G4",
          "ticks": 87913,
          "time": 114.47005208333333,
          "velocity": 0.12598425196850394
        },
        {
          "duration": 0,
          "durationTicks": 0,
          "midi": 67,
          "name": "G4",
          "ticks": 87948,
          "time": 114.515625,
          "velocity": 0.14960629921259844
        },
        {
          "duration": 0,
          "durationTicks": 0,
          "midi": 70,
          "name": "A#4",
          "ticks": 87966,
          "time": 114.5390625,
          "velocity": 0.1732283464566929
        },
        {
          "duration": 0,
          "durationTicks": 0,
          "midi": 75,
          "name": "D#5",
          "ticks": 87975,
          "time": 114.55078125,
          "velocity": 0.1889763779527559
        },
        {
          "duration": 0.1263020833333286,
          "durationTicks": 97,
          "midi": 79,
          "name": "G5",
          "ticks": 87975,
          "time": 114.55078125,
          "velocity": 0.23622047244094488
        },
        {
          "duration": 0,
          "durationTicks": 0,
          "midi": 72,
          "name": "C5",
          "ticks": 88029,
          "time": 114.62109375,
          "velocity": 0.07874015748031496
        },
        {
          "duration": 0.1276041666666714,
          "durationTicks": 98,
          "midi": 75,
          "name": "D#5",
          "ticks": 88038,
          "time": 114.6328125,
          "velocity": 0.2047244094488189
        },
        {
          "duration": 0,
          "durationTicks": 0,
          "midi": 36,
          "name": "C2",
          "ticks": 88056,
          "time": 114.65625,
          "velocity": 0.31496062992125984
        },
        {
          "duration": 0,
          "durationTicks": 0,
          "midi": 70,
          "name": "A#4",
          "ticks": 88056,
          "time": 114.65625,
          "velocity": 0.1732283464566929
        },
        {
          "duration": 0,
          "durationTicks": 0,
          "midi": 58,
          "name": "A#3",
          "ticks": 88065,
          "time": 114.66796875,
          "velocity": 0.1968503937007874
        },
        {
          "duration": 0,
          "durationTicks": 0,
          "midi": 72,
          "name": "C5",
          "ticks": 88065,
          "time": 114.66796875,
          "velocity": 0.08661417322834646
        },
        {
          "duration": 0,
          "durationTicks": 0,
          "midi": 35,
          "name": "B1",
          "ticks": 88092,
          "time": 114.703125,
          "velocity": 0.4251968503937008
        },
        {
          "duration": 0,
          "durationTicks": 0,
          "midi": 67,
          "name": "G4",
          "ticks": 88092,
          "time": 114.703125,
          "velocity": 0.1732283464566929
        },
        {
          "duration": 0,
          "durationTicks": 0,
          "midi": 77,
          "name": "F5",
          "ticks": 88092,
          "time": 114.703125,
          "velocity": 0.05511811023622047
        },
        {
          "duration": 0,
          "durationTicks": 0,
          "midi": 63,
          "name": "D#4",
          "ticks": 88101,
          "time": 114.71484375,
          "velocity": 0.10236220472440945
        },
        {
          "duration": 0,
          "durationTicks": 0,
          "midi": 79,
          "name": "G5",
          "ticks": 88101,
          "time": 114.71484375,
          "velocity": 0.1732283464566929
        },
        {
          "duration": 0.1276041666666714,
          "durationTicks": 98,
          "midi": 70,
          "name": "A#4",
          "ticks": 88101,
          "time": 114.71484375,
          "velocity": 0.2204724409448819
        },
        {
          "duration": 0,
          "durationTicks": 0,
          "midi": 60,
          "name": "C4",
          "ticks": 88111,
          "time": 114.72786458333333,
          "velocity": 0.2283464566929134
        },
        {
          "duration": 0,
          "durationTicks": 0,
          "midi": 67,
          "name": "G4",
          "ticks": 88120,
          "time": 114.73958333333333,
          "velocity": 0.1732283464566929
        },
        {
          "duration": 0.1276041666666714,
          "durationTicks": 98,
          "midi": 36,
          "name": "C2",
          "ticks": 88129,
          "time": 114.75130208333333,
          "velocity": 0.3937007874015748
        },
        {
          "duration": 0,
          "durationTicks": 0,
          "midi": 60,
          "name": "C4",
          "ticks": 88139,
          "time": 114.76432291666667,
          "velocity": 0.2283464566929134
        },
        {
          "duration": 0,
          "durationTicks": 0,
          "midi": 63,
          "name": "D#4",
          "ticks": 88139,
          "time": 114.76432291666667,
          "velocity": 0.11023622047244094
        },
        {
          "duration": 0.1276041666666714,
          "durationTicks": 98,
          "midi": 75,
          "name": "D#5",
          "ticks": 88156,
          "time": 114.78645833333333,
          "velocity": 0.2283464566929134
        },
        {
          "duration": 0.1276041666666714,
          "durationTicks": 98,
          "midi": 67,
          "name": "G4",
          "ticks": 88156,
          "time": 114.78645833333333,
          "velocity": 0.1732283464566929
        },
        {
          "duration": 0,
          "durationTicks": 0,
          "midi": 60,
          "name": "C4",
          "ticks": 88165,
          "time": 114.79817708333333,
          "velocity": 0.2204724409448819
        },
        {
          "duration": 0.12890625,
          "durationTicks": 99,
          "midi": 63,
          "name": "D#4",
          "ticks": 88183,
          "time": 114.82161458333333,
          "velocity": 0.13385826771653545
        },
        {
          "duration": 0.12890625,
          "durationTicks": 99,
          "midi": 72,
          "name": "C5",
          "ticks": 88183,
          "time": 114.82161458333333,
          "velocity": 0.10236220472440945
        },
        {
          "duration": 0,
          "durationTicks": 0,
          "midi": 60,
          "name": "C4",
          "ticks": 88192,
          "time": 114.83333333333333,
          "velocity": 0.2283464566929134
        },
        {
          "duration": 0,
          "durationTicks": 0,
          "midi": 70,
          "name": "A#4",
          "ticks": 88211,
          "time": 114.85807291666667,
          "velocity": 0.07874015748031496
        },
        {
          "duration": 0,
          "durationTicks": 0,
          "midi": 60,
          "name": "C4",
          "ticks": 88220,
          "time": 114.86979166666667,
          "velocity": 0.2283464566929134
        },
        {
          "duration": 0,
          "durationTicks": 0,
          "midi": 71,
          "name": "B4",
          "ticks": 88247,
          "time": 114.90494791666667,
          "velocity": 0.1732283464566929
        },
        {
          "duration": 0,
          "durationTicks": 0,
          "midi": 87,
          "name": "D#6",
          "ticks": 88247,
          "time": 114.90494791666667,
          "velocity": 0.14960629921259844
        },
        {
          "duration": 0.1276041666666572,
          "durationTicks": 98,
          "midi": 79,
          "name": "G5",
          "ticks": 88256,
          "time": 114.91666666666667,
          "velocity": 0.2125984251968504
        },
        {
          "duration": 0.25390625,
          "durationTicks": 195,
          "midi": 48,
          "name": "C3",
          "ticks": 88256,
          "time": 114.91666666666667,
          "velocity": 0.3779527559055118
        },
        {
          "duration": 0.1276041666666714,
          "durationTicks": 98,
          "midi": 63,
          "name": "D#4",
          "ticks": 88266,
          "time": 114.9296875,
          "velocity": 0.06299212598425197
        },
        {
          "duration": 0.1276041666666714,
          "durationTicks": 98,
          "midi": 68,
          "name": "G#4",
          "ticks": 88275,
          "time": 114.94140625,
          "velocity": 0.1968503937007874
        },
        {
          "duration": 0,
          "durationTicks": 0,
          "midi": 31,
          "name": "G1",
          "ticks": 88294,
          "time": 114.96614583333333,
          "velocity": 0.25984251968503935
        },
        {
          "duration": 0,
          "durationTicks": 0,
          "midi": 70,
          "name": "A#4",
          "ticks": 88303,
          "time": 114.97786458333333,
          "velocity": 0.1732283464566929
        },
        {
          "duration": 0,
          "durationTicks": 0,
          "midi": 76,
          "name": "E5",
          "ticks": 88330,
          "time": 115.01302083333333,
          "velocity": 0.1889763779527559
        },
        {
          "duration": 0.1263020833333286,
          "durationTicks": 97,
          "midi": 75,
          "name": "D#5",
          "ticks": 88347,
          "time": 115.03515625,
          "velocity": 0.14960629921259844
        },
        {
          "duration": 0.1263020833333428,
          "durationTicks": 97,
          "midi": 67,
          "name": "G4",
          "ticks": 88375,
          "time": 115.07161458333333,
          "velocity": 0.08661417322834646
        },
        {
          "duration": 0,
          "durationTicks": 0,
          "midi": 57,
          "name": "A3",
          "ticks": 88437,
          "time": 115.15234375,
          "velocity": 0.29133858267716534
        },
        {
          "duration": 0,
          "durationTicks": 0,
          "midi": 72,
          "name": "C5",
          "ticks": 88437,
          "time": 115.15234375,
          "velocity": 0.14173228346456693
        },
        {
          "duration": 0,
          "durationTicks": 0,
          "midi": 65,
          "name": "F4",
          "ticks": 88447,
          "time": 115.16536458333333,
          "velocity": 0.23622047244094488
        },
        {
          "duration": 0,
          "durationTicks": 0,
          "midi": 95,
          "name": "B6",
          "ticks": 88447,
          "time": 115.16536458333333,
          "velocity": 0.07086614173228346
        },
        {
          "duration": 0,
          "durationTicks": 0,
          "midi": 86,
          "name": "D6",
          "ticks": 88447,
          "time": 115.16536458333333,
          "velocity": 0.09448818897637795
        },
        {
          "duration": 0,
          "durationTicks": 0,
          "midi": 70,
          "name": "A#4",
          "ticks": 88447,
          "time": 115.16536458333333,
          "velocity": 0.14173228346456693
        },
        {
          "duration": 0,
          "durationTicks": 0,
          "midi": 78,
          "name": "F#5",
          "ticks": 88447,
          "time": 115.16536458333333,
          "velocity": 0.10236220472440945
        },
        {
          "duration": 0,
          "durationTicks": 0,
          "midi": 80,
          "name": "G#5",
          "ticks": 88447,
          "time": 115.16536458333333,
          "velocity": 0.12598425196850394
        },
        {
          "duration": 0,
          "durationTicks": 0,
          "midi": 63,
          "name": "D#4",
          "ticks": 88456,
          "time": 115.17708333333333,
          "velocity": 0.2283464566929134
        },
        {
          "duration": 0,
          "durationTicks": 0,
          "midi": 35,
          "name": "B1",
          "ticks": 88456,
          "time": 115.17708333333333,
          "velocity": 0.4251968503937008
        },
        {
          "duration": 0,
          "durationTicks": 0,
          "midi": 74,
          "name": "D5",
          "ticks": 88456,
          "time": 115.17708333333333,
          "velocity": 0.1968503937007874
        },
        {
          "duration": 0,
          "durationTicks": 0,
          "midi": 56,
          "name": "G#3",
          "ticks": 88465,
          "time": 115.18880208333333,
          "velocity": 0.2204724409448819
        },
        {
          "duration": 0,
          "durationTicks": 0,
          "midi": 87,
          "name": "D#6",
          "ticks": 88465,
          "time": 115.18880208333333,
          "velocity": 0.08661417322834646
        },
        {
          "duration": 0,
          "durationTicks": 0,
          "midi": 62,
          "name": "D4",
          "ticks": 88475,
          "time": 115.20182291666667,
          "velocity": 0.1732283464566929
        },
        {
          "duration": 0,
          "durationTicks": 0,
          "midi": 65,
          "name": "F4",
          "ticks": 88475,
          "time": 115.20182291666667,
          "velocity": 0.1968503937007874
        },
        {
          "duration": 0,
          "durationTicks": 0,
          "midi": 34,
          "name": "A#1",
          "ticks": 88484,
          "time": 115.21354166666667,
          "velocity": 0.3779527559055118
        },
        {
          "duration": 0,
          "durationTicks": 0,
          "midi": 72,
          "name": "C5",
          "ticks": 88484,
          "time": 115.21354166666667,
          "velocity": 0.08661417322834646
        },
        {
          "duration": 0,
          "durationTicks": 0,
          "midi": 63,
          "name": "D#4",
          "ticks": 88493,
          "time": 115.22526041666667,
          "velocity": 0.2440944881889764
        },
        {
          "duration": 0,
          "durationTicks": 0,
          "midi": 68,
          "name": "G#4",
          "ticks": 88493,
          "time": 115.22526041666667,
          "velocity": 0.1968503937007874
        },
        {
          "duration": 0,
          "durationTicks": 0,
          "midi": 58,
          "name": "A#3",
          "ticks": 88503,
          "time": 115.23828125,
          "velocity": 0.2125984251968504
        },
        {
          "duration": 0.25390625,
          "durationTicks": 195,
          "midi": 77,
          "name": "F5",
          "ticks": 88512,
          "time": 115.25,
          "velocity": 0.16535433070866143
        },
        {
          "duration": 0,
          "durationTicks": 0,
          "midi": 62,
          "name": "D4",
          "ticks": 88521,
          "time": 115.26171875,
          "velocity": 0.2204724409448819
        },
        {
          "duration": 0,
          "durationTicks": 0,
          "midi": 34,
          "name": "A#1",
          "ticks": 88531,
          "time": 115.27473958333333,
          "velocity": 0.3858267716535433
        },
        {
          "duration": 0,
          "durationTicks": 0,
          "midi": 63,
          "name": "D#4",
          "ticks": 88540,
          "time": 115.28645833333333,
          "velocity": 0.2283464566929134
        },
        {
          "duration": 0,
          "durationTicks": 0,
          "midi": 35,
          "name": "B1",
          "ticks": 88549,
          "time": 115.29817708333333,
          "velocity": 0.3779527559055118
        },
        {
          "duration": 0.1171875,
          "durationTicks": 90,
          "midi": 68,
          "name": "G#4",
          "ticks": 88558,
          "time": 115.30989583333333,
          "velocity": 0.14173228346456693
        },
        {
          "duration": 0.1263020833333428,
          "durationTicks": 97,
          "midi": 62,
          "name": "D4",
          "ticks": 88558,
          "time": 115.30989583333333,
          "velocity": 0.1732283464566929
        },
        {
          "duration": 0.1263020833333286,
          "durationTicks": 97,
          "midi": 65,
          "name": "F4",
          "ticks": 88568,
          "time": 115.32291666666667,
          "velocity": 0.1732283464566929
        },
        {
          "duration": 0,
          "durationTicks": 0,
          "midi": 34,
          "name": "A#1",
          "ticks": 88577,
          "time": 115.33463541666667,
          "velocity": 0.41732283464566927
        },
        {
          "duration": 0,
          "durationTicks": 0,
          "midi": 58,
          "name": "A#3",
          "ticks": 88595,
          "time": 115.35807291666667,
          "velocity": 0.2283464566929134
        },
        {
          "duration": 0,
          "durationTicks": 0,
          "midi": 47,
          "name": "B2",
          "ticks": 88595,
          "time": 115.35807291666667,
          "velocity": 0.07874015748031496
        },
        {
          "duration": 0,
          "durationTicks": 0,
          "midi": 35,
          "name": "B1",
          "ticks": 88612,
          "time": 115.38020833333333,
          "velocity": 0.3543307086614173
        },
        {
          "duration": 0,
          "durationTicks": 0,
          "midi": 57,
          "name": "A3",
          "ticks": 88622,
          "time": 115.39322916666667,
          "velocity": 0.23622047244094488
        },
        {
          "duration": 0,
          "durationTicks": 0,
          "midi": 87,
          "name": "D#6",
          "ticks": 88631,
          "time": 115.40494791666667,
          "velocity": 0.18110236220472442
        },
        {
          "duration": 0.009114583333342807,
          "durationTicks": 7,
          "midi": 68,
          "name": "G#4",
          "ticks": 88648,
          "time": 115.42708333333333,
          "velocity": 0.08661417322834646
        },
        {
          "duration": 0.1263020833333428,
          "durationTicks": 97,
          "midi": 46,
          "name": "A#2",
          "ticks": 88648,
          "time": 115.42708333333333,
          "velocity": 0.3700787401574803
        },
        {
          "duration": 0,
          "durationTicks": 0,
          "midi": 56,
          "name": "G#3",
          "ticks": 88658,
          "time": 115.44010416666667,
          "velocity": 0.2204724409448819
        },
        {
          "duration": 0.125,
          "durationTicks": 96,
          "midi": 72,
          "name": "C5",
          "ticks": 88667,
          "time": 115.45182291666667,
          "velocity": 0.1732283464566929
        },
        {
          "duration": 0,
          "durationTicks": 0,
          "midi": 61,
          "name": "C#4",
          "ticks": 88685,
          "time": 115.47526041666667,
          "velocity": 0.1889763779527559
        },
        {
          "duration": 0,
          "durationTicks": 0,
          "midi": 65,
          "name": "F4",
          "ticks": 88702,
          "time": 115.49739583333333,
          "velocity": 0.11023622047244094
        },
        {
          "duration": 0,
          "durationTicks": 0,
          "midi": 70,
          "name": "A#4",
          "ticks": 88702,
          "time": 115.49739583333333,
          "velocity": 0.08661417322834646
        },
        {
          "duration": 0,
          "durationTicks": 0,
          "midi": 75,
          "name": "D#5",
          "ticks": 88712,
          "time": 115.51041666666667,
          "velocity": 0.1732283464566929
        },
        {
          "duration": 0,
          "durationTicks": 0,
          "midi": 47,
          "name": "B2",
          "ticks": 88729,
          "time": 115.53255208333333,
          "velocity": 0.3937007874015748
        },
        {
          "duration": 0,
          "durationTicks": 0,
          "midi": 68,
          "name": "G#4",
          "ticks": 88729,
          "time": 115.53255208333333,
          "velocity": 0.11023622047244094
        },
        {
          "duration": 0,
          "durationTicks": 0,
          "midi": 74,
          "name": "D5",
          "ticks": 88729,
          "time": 115.53255208333333,
          "velocity": 0.06299212598425197
        },
        {
          "duration": 0,
          "durationTicks": 0,
          "midi": 76,
          "name": "E5",
          "ticks": 88738,
          "time": 115.54427083333333,
          "velocity": 0.14173228346456693
        },
        {
          "duration": 0,
          "durationTicks": 0,
          "midi": 46,
          "name": "A#2",
          "ticks": 88748,
          "time": 115.55729166666667,
          "velocity": 0.3464566929133858
        },
        {
          "duration": 0,
          "durationTicks": 0,
          "midi": 56,
          "name": "G#3",
          "ticks": 88748,
          "time": 115.55729166666667,
          "velocity": 0.33070866141732286
        },
        {
          "duration": 0,
          "durationTicks": 0,
          "midi": 47,
          "name": "B2",
          "ticks": 88765,
          "time": 115.57942708333333,
          "velocity": 0.3779527559055118
        },
        {
          "duration": 0.1263020833333428,
          "durationTicks": 97,
          "midi": 75,
          "name": "D#5",
          "ticks": 88765,
          "time": 115.57942708333333,
          "velocity": 0.18110236220472442
        },
        {
          "duration": 0,
          "durationTicks": 0,
          "midi": 46,
          "name": "A#2",
          "ticks": 88783,
          "time": 115.60286458333333,
          "velocity": 0.4094488188976378
        },
        {
          "duration": 0,
          "durationTicks": 0,
          "midi": 66,
          "name": "F#4",
          "ticks": 88819,
          "time": 115.64973958333333,
          "velocity": 0.14173228346456693
        },
        {
          "duration": 0,
          "durationTicks": 0,
          "midi": 49,
          "name": "C#3",
          "ticks": 88828,
          "time": 115.66145833333333,
          "velocity": 0.2440944881889764
        },
        {
          "duration": 0,
          "durationTicks": 0,
          "midi": 63,
          "name": "D#4",
          "ticks": 88828,
          "time": 115.66145833333333,
          "velocity": 0.16535433070866143
        },
        {
          "duration": 0,
          "durationTicks": 0,
          "midi": 29,
          "name": "F1",
          "ticks": 88838,
          "time": 115.67447916666667,
          "velocity": 0.4094488188976378
        },
        {
          "duration": 0,
          "durationTicks": 0,
          "midi": 77,
          "name": "F5",
          "ticks": 88838,
          "time": 115.67447916666667,
          "velocity": 0.18110236220472442
        },
        {
          "duration": 0,
          "durationTicks": 0,
          "midi": 30,
          "name": "F#1",
          "ticks": 88847,
          "time": 115.68619791666667,
          "velocity": 0.4330708661417323
        },
        {
          "duration": 0,
          "durationTicks": 0,
          "midi": 68,
          "name": "G#4",
          "ticks": 88847,
          "time": 115.68619791666667,
          "velocity": 0.05511811023622047
        },
        {
          "duration": 0.2513020833333286,
          "durationTicks": 193,
          "midi": 72,
          "name": "C5",
          "ticks": 88847,
          "time": 115.68619791666667,
          "velocity": 0.25984251968503935
        },
        {
          "duration": 0,
          "durationTicks": 0,
          "midi": 48,
          "name": "C3",
          "ticks": 88874,
          "time": 115.72135416666667,
          "velocity": 0.08661417322834646
        },
        {
          "duration": 0,
          "durationTicks": 0,
          "midi": 66,
          "name": "F#4",
          "ticks": 88874,
          "time": 115.72135416666667,
          "velocity": 0.15748031496062992
        },
        {
          "duration": 0,
          "durationTicks": 0,
          "midi": 29,
          "name": "F1",
          "ticks": 88883,
          "time": 115.73307291666667,
          "velocity": 0.3937007874015748
        },
        {
          "duration": 0,
          "durationTicks": 0,
          "midi": 75,
          "name": "D#5",
          "ticks": 88928,
          "time": 115.79166666666667,
          "velocity": 0.15748031496062992
        },
        {
          "duration": 0,
          "durationTicks": 0,
          "midi": 77,
          "name": "F5",
          "ticks": 88937,
          "time": 115.80338541666667,
          "velocity": 0.1732283464566929
        },
        {
          "duration": 0.125,
          "durationTicks": 96,
          "midi": 68,
          "name": "G#4",
          "ticks": 88937,
          "time": 115.80338541666667,
          "velocity": 0.14960629921259844
        },
        {
          "duration": 0,
          "durationTicks": 0,
          "midi": 66,
          "name": "F#4",
          "ticks": 88964,
          "time": 115.83854166666667,
          "velocity": 0.1732283464566929
        },
        {
          "duration": 0,
          "durationTicks": 0,
          "midi": 77,
          "name": "F5",
          "ticks": 88982,
          "time": 115.86197916666667,
          "velocity": 0.18110236220472442
        },
        {
          "duration": 0,
          "durationTicks": 0,
          "midi": 28,
          "name": "E1",
          "ticks": 89018,
          "time": 115.90885416666667,
          "velocity": 0.3779527559055118
        },
        {
          "duration": 0,
          "durationTicks": 0,
          "midi": 64,
          "name": "E4",
          "ticks": 89018,
          "time": 115.90885416666667,
          "velocity": 0.1889763779527559
        },
        {
          "duration": 0.125,
          "durationTicks": 96,
          "midi": 29,
          "name": "F1",
          "ticks": 89035,
          "time": 115.93098958333333,
          "velocity": 0.3858267716535433
        },
        {
          "duration": 0.125,
          "durationTicks": 96,
          "midi": 48,
          "name": "C3",
          "ticks": 89045,
          "time": 115.94401041666667,
          "velocity": 0.06299212598425197
        },
        {
          "duration": 0.125,
          "durationTicks": 96,
          "midi": 63,
          "name": "D#4",
          "ticks": 89045,
          "time": 115.94401041666667,
          "velocity": 0.1732283464566929
        },
        {
          "duration": 0.1263020833333428,
          "durationTicks": 97,
          "midi": 75,
          "name": "D#5",
          "ticks": 89107,
          "time": 116.02473958333333,
          "velocity": 0.18110236220472442
        },
        {
          "duration": 0.2526041666666714,
          "durationTicks": 194,
          "midi": 72,
          "name": "C5",
          "ticks": 89197,
          "time": 116.14192708333333,
          "velocity": 0.2125984251968504
        },
        {
          "duration": 0,
          "durationTicks": 0,
          "midi": 90,
          "name": "F#6",
          "ticks": 89206,
          "time": 116.15364583333333,
          "velocity": 0.07874015748031496
        },
        {
          "duration": 0.1276041666666714,
          "durationTicks": 98,
          "midi": 41,
          "name": "F2",
          "ticks": 89206,
          "time": 116.15364583333333,
          "velocity": 0.4094488188976378
        },
        {
          "duration": 0.1276041666666714,
          "durationTicks": 98,
          "midi": 80,
          "name": "G#5",
          "ticks": 89206,
          "time": 116.15364583333333,
          "velocity": 0.16535433070866143
        },
        {
          "duration": 0,
          "durationTicks": 0,
          "midi": 56,
          "name": "G#3",
          "ticks": 89215,
          "time": 116.16536458333333,
          "velocity": 0.30708661417322836
        },
        {
          "duration": 0,
          "durationTicks": 0,
          "midi": 86,
          "name": "D6",
          "ticks": 89215,
          "time": 116.16536458333333,
          "velocity": 0.09448818897637795
        },
        {
          "duration": 0,
          "durationTicks": 0,
          "midi": 77,
          "name": "F5",
          "ticks": 89215,
          "time": 116.16536458333333,
          "velocity": 0.1968503937007874
        },
        {
          "duration": 0,
          "durationTicks": 0,
          "midi": 91,
          "name": "G6",
          "ticks": 89225,
          "time": 116.17838541666667,
          "velocity": 0.09448818897637795
        },
        {
          "duration": 0,
          "durationTicks": 0,
          "midi": 65,
          "name": "F4",
          "ticks": 89234,
          "time": 116.19010416666667,
          "velocity": 0.1732283464566929
        },
        {
          "duration": 0,
          "durationTicks": 0,
          "midi": 79,
          "name": "G5",
          "ticks": 89243,
          "time": 116.20182291666667,
          "velocity": 0.07086614173228346
        },
        {
          "duration": 0,
          "durationTicks": 0,
          "midi": 63,
          "name": "D#4",
          "ticks": 89253,
          "time": 116.21484375,
          "velocity": 0.1968503937007874
        },
        {
          "duration": 0.125,
          "durationTicks": 96,
          "midi": 60,
          "name": "C4",
          "ticks": 89253,
          "time": 116.21484375,
          "velocity": 0.2125984251968504
        },
        {
          "duration": 0.125,
          "durationTicks": 96,
          "midi": 41,
          "name": "F2",
          "ticks": 89270,
          "time": 116.23697916666667,
          "velocity": 0.3937007874015748
        },
        {
          "duration": 0,
          "durationTicks": 0,
          "midi": 57,
          "name": "A3",
          "ticks": 89280,
          "time": 116.25,
          "velocity": 0.08661417322834646
        },
        {
          "duration": 0.125,
          "durationTicks": 96,
          "midi": 65,
          "name": "F4",
          "ticks": 89280,
          "time": 116.25,
          "velocity": 0.2125984251968504
        },
        {
          "duration": 0.125,
          "durationTicks": 96,
          "midi": 63,
          "name": "D#4",
          "ticks": 89333,
          "time": 116.31901041666667,
          "velocity": 0.2283464566929134
        },
        {
          "duration": 0,
          "durationTicks": 0,
          "midi": 46,
          "name": "A#2",
          "ticks": 89422,
          "time": 116.43489583333333,
          "velocity": 0.05511811023622047
        },
        {
          "duration": 0.1263020833333428,
          "durationTicks": 97,
          "midi": 27,
          "name": "D#1",
          "ticks": 89422,
          "time": 116.43489583333333,
          "velocity": 0.3779527559055118
        },
        {
          "duration": 0.1263020833333286,
          "durationTicks": 97,
          "midi": 80,
          "name": "G#5",
          "ticks": 89432,
          "time": 116.44791666666667,
          "velocity": 0.1732283464566929
        },
        {
          "duration": 0,
          "durationTicks": 0,
          "midi": 75,
          "name": "D#5",
          "ticks": 89486,
          "time": 116.51822916666667,
          "velocity": 0.16535433070866143
        },
        {
          "duration": 0.1276041666666714,
          "durationTicks": 98,
          "midi": 79,
          "name": "G5",
          "ticks": 89512,
          "time": 116.55208333333333,
          "velocity": 0.1732283464566929
        },
        {
          "duration": 0,
          "durationTicks": 0,
          "midi": 70,
          "name": "A#4",
          "ticks": 89522,
          "time": 116.56510416666667,
          "velocity": 0.18110236220472442
        },
        {
          "duration": 0,
          "durationTicks": 0,
          "midi": 64,
          "name": "E4",
          "ticks": 89549,
          "time": 116.60026041666667,
          "velocity": 0.1732283464566929
        },
        {
          "duration": 0,
          "durationTicks": 0,
          "midi": 75,
          "name": "D#5",
          "ticks": 89558,
          "time": 116.61197916666667,
          "velocity": 0.16535433070866143
        },
        {
          "duration": 0,
          "durationTicks": 0,
          "midi": 70,
          "name": "A#4",
          "ticks": 89567,
          "time": 116.62369791666667,
          "velocity": 0.18110236220472442
        },
        {
          "duration": 0,
          "durationTicks": 0,
          "midi": 72,
          "name": "C5",
          "ticks": 89567,
          "time": 116.62369791666667,
          "velocity": 0.11023622047244094
        },
        {
          "duration": 0.1276041666666572,
          "durationTicks": 98,
          "midi": 68,
          "name": "G#4",
          "ticks": 89594,
          "time": 116.65885416666667,
          "velocity": 0.2125984251968504
        },
        {
          "duration": 0,
          "durationTicks": 0,
          "midi": 29,
          "name": "F1",
          "ticks": 89603,
          "time": 116.67057291666667,
          "velocity": 0.4251968503937008
        },
        {
          "duration": 0,
          "durationTicks": 0,
          "midi": 60,
          "name": "C4",
          "ticks": 89603,
          "time": 116.67057291666667,
          "velocity": 0.1732283464566929
        },
        {
          "duration": 0,
          "durationTicks": 0,
          "midi": 65,
          "name": "F4",
          "ticks": 89603,
          "time": 116.67057291666667,
          "velocity": 0.2204724409448819
        },
        {
          "duration": 0,
          "durationTicks": 0,
          "midi": 30,
          "name": "F#1",
          "ticks": 89613,
          "time": 116.68359375,
          "velocity": 0.4330708661417323
        },
        {
          "duration": 0.1263020833333286,
          "durationTicks": 97,
          "midi": 75,
          "name": "D#5",
          "ticks": 89613,
          "time": 116.68359375,
          "velocity": 0.2283464566929134
        },
        {
          "duration": 0,
          "durationTicks": 0,
          "midi": 48,
          "name": "C3",
          "ticks": 89640,
          "time": 116.71875,
          "velocity": 0.09448818897637795
        },
        {
          "duration": 0.1263020833333286,
          "durationTicks": 97,
          "midi": 29,
          "name": "F1",
          "ticks": 89649,
          "time": 116.73046875,
          "velocity": 0.3937007874015748
        },
        {
          "duration": 0,
          "durationTicks": 0,
          "midi": 60,
          "name": "C4",
          "ticks": 89658,
          "time": 116.7421875,
          "velocity": 0.18110236220472442
        },
        {
          "duration": 0,
          "durationTicks": 0,
          "midi": 63,
          "name": "D#4",
          "ticks": 89658,
          "time": 116.7421875,
          "velocity": 0.1968503937007874
        },
        {
          "duration": 0,
          "durationTicks": 0,
          "midi": 70,
          "name": "A#4",
          "ticks": 89676,
          "time": 116.765625,
          "velocity": 0.1889763779527559
        },
        {
          "duration": 0.1263020833333286,
          "durationTicks": 97,
          "midi": 48,
          "name": "C3",
          "ticks": 89685,
          "time": 116.77734375,
          "velocity": 0.08661417322834646
        },
        {
          "duration": 0.1263020833333286,
          "durationTicks": 97,
          "midi": 72,
          "name": "C5",
          "ticks": 89712,
          "time": 116.8125,
          "velocity": 0.15748031496062992
        },
        {
          "duration": 0,
          "durationTicks": 0,
          "midi": 87,
          "name": "D#6",
          "ticks": 89785,
          "time": 116.90755208333333,
          "velocity": 0.07874015748031496
        },
        {
          "duration": 0.1263020833333428,
          "durationTicks": 97,
          "midi": 60,
          "name": "C4",
          "ticks": 89785,
          "time": 116.90755208333333,
          "velocity": 0.1732283464566929
        },
        {
          "duration": 0,
          "durationTicks": 0,
          "midi": 64,
          "name": "E4",
          "ticks": 89794,
          "time": 116.91927083333333,
          "velocity": 0.2125984251968504
        },
        {
          "duration": 0.1263020833333428,
          "durationTicks": 97,
          "midi": 77,
          "name": "F5",
          "ticks": 89794,
          "time": 116.91927083333333,
          "velocity": 0.1889763779527559
        },
        {
          "duration": 0.1263020833333428,
          "durationTicks": 97,
          "midi": 68,
          "name": "G#4",
          "ticks": 89794,
          "time": 116.91927083333333,
          "velocity": 0.1968503937007874
        },
        {
          "duration": 0.1263020833333428,
          "durationTicks": 97,
          "midi": 79,
          "name": "G5",
          "ticks": 89794,
          "time": 116.91927083333333,
          "velocity": 0.1889763779527559
        },
        {
          "duration": 0,
          "durationTicks": 0,
          "midi": 63,
          "name": "D#4",
          "ticks": 89821,
          "time": 116.95442708333333,
          "velocity": 0.1968503937007874
        },
        {
          "duration": 0,
          "durationTicks": 0,
          "midi": 84,
          "name": "C6",
          "ticks": 89838,
          "time": 116.9765625,
          "velocity": 0.06299212598425197
        },
        {
          "duration": 0,
          "durationTicks": 0,
          "midi": 65,
          "name": "F4",
          "ticks": 89848,
          "time": 116.98958333333333,
          "velocity": 0.18110236220472442
        },
        {
          "duration": 0,
          "durationTicks": 0,
          "midi": 75,
          "name": "D#5",
          "ticks": 89848,
          "time": 116.98958333333333,
          "velocity": 0.12598425196850394
        },
        {
          "duration": 0.125,
          "durationTicks": 96,
          "midi": 75,
          "name": "D#5",
          "ticks": 89911,
          "time": 117.07161458333333,
          "velocity": 0.1732283464566929
        },
        {
          "duration": 0,
          "durationTicks": 0,
          "midi": 90,
          "name": "F#6",
          "ticks": 89973,
          "time": 117.15234375,
          "velocity": 0.07086614173228346
        },
        {
          "duration": 0.1263020833333286,
          "durationTicks": 97,
          "midi": 80,
          "name": "G#5",
          "ticks": 89973,
          "time": 117.15234375,
          "velocity": 0.1732283464566929
        },
        {
          "duration": 0.1263020833333286,
          "durationTicks": 97,
          "midi": 72,
          "name": "C5",
          "ticks": 89973,
          "time": 117.15234375,
          "velocity": 0.2125984251968504
        },
        {
          "duration": 0,
          "durationTicks": 0,
          "midi": 42,
          "name": "F#2",
          "ticks": 89982,
          "time": 117.1640625,
          "velocity": 0.3937007874015748
        },
        {
          "duration": 0,
          "durationTicks": 0,
          "midi": 86,
          "name": "D6",
          "ticks": 89982,
          "time": 117.1640625,
          "velocity": 0.07874015748031496
        },
        {
          "duration": 0.1263020833333286,
          "durationTicks": 97,
          "midi": 77,
          "name": "F5",
          "ticks": 89982,
          "time": 117.1640625,
          "velocity": 0.2047244094488189
        },
        {
          "duration": 0,
          "durationTicks": 0,
          "midi": 57,
          "name": "A3",
          "ticks": 89991,
          "time": 117.17578125,
          "velocity": 0.29133858267716534
        },
        {
          "duration": 0,
          "durationTicks": 0,
          "midi": 65,
          "name": "F4",
          "ticks": 89991,
          "time": 117.17578125,
          "velocity": 0.1732283464566929
        },
        {
          "duration": 0,
          "durationTicks": 0,
          "midi": 87,
          "name": "D#6",
          "ticks": 89991,
          "time": 117.17578125,
          "velocity": 0.11023622047244094
        },
        {
          "duration": 0.1263020833333286,
          "durationTicks": 97,
          "midi": 68,
          "name": "G#4",
          "ticks": 89991,
          "time": 117.17578125,
          "velocity": 0.18110236220472442
        },
        {
          "duration": 0,
          "durationTicks": 0,
          "midi": 60,
          "name": "C4",
          "ticks": 90009,
          "time": 117.19921875,
          "velocity": 0.1732283464566929
        },
        {
          "duration": 0,
          "durationTicks": 0,
          "midi": 79,
          "name": "G5",
          "ticks": 90009,
          "time": 117.19921875,
          "velocity": 0.05511811023622047
        },
        {
          "duration": 0,
          "durationTicks": 0,
          "midi": 43,
          "name": "G2",
          "ticks": 90018,
          "time": 117.2109375,
          "velocity": 0.3779527559055118
        },
        {
          "duration": 0,
          "durationTicks": 0,
          "midi": 63,
          "name": "D#4",
          "ticks": 90036,
          "time": 117.234375,
          "velocity": 0.1968503937007874
        },
        {
          "duration": 0.1263020833333428,
          "durationTicks": 97,
          "midi": 31,
          "name": "G1",
          "ticks": 90091,
          "time": 117.30598958333333,
          "velocity": 0.3779527559055118
        },
        {
          "duration": 0.1263020833333428,
          "durationTicks": 97,
          "midi": 70,
          "name": "A#4",
          "ticks": 90091,
          "time": 117.30598958333333,
          "velocity": 0.1732283464566929
        },
        {
          "duration": 0,
          "durationTicks": 0,
          "midi": 50,
          "name": "D3",
          "ticks": 90127,
          "time": 117.35286458333333,
          "velocity": 0.07086614173228346
        },
        {
          "duration": 0,
          "durationTicks": 0,
          "midi": 87,
          "name": "D#6",
          "ticks": 90163,
          "time": 117.39973958333333,
          "velocity": 0.14173228346456693
        },
        {
          "duration": 0.1263020833333428,
          "durationTicks": 97,
          "midi": 68,
          "name": "G#4",
          "ticks": 90190,
          "time": 117.43489583333333,
          "velocity": 0.16535433070866143
        },
        {
          "duration": 0,
          "durationTicks": 0,
          "midi": 58,
          "name": "A#3",
          "ticks": 90252,
          "time": 117.515625,
          "velocity": 0.2283464566929134
        },
        {
          "duration": 0,
          "durationTicks": 0,
          "midi": 44,
          "name": "G#2",
          "ticks": 90262,
          "time": 117.52864583333333,
          "velocity": 0.4015748031496063
        },
        {
          "duration": 0,
          "durationTicks": 0,
          "midi": 87,
          "name": "D#6",
          "ticks": 90262,
          "time": 117.52864583333333,
          "velocity": 0.11023622047244094
        },
        {
          "duration": 0.1263020833333428,
          "durationTicks": 97,
          "midi": 72,
          "name": "C5",
          "ticks": 90271,
          "time": 117.54036458333333,
          "velocity": 0.18110236220472442
        },
        {
          "duration": 0.1263020833333428,
          "durationTicks": 97,
          "midi": 79,
          "name": "G5",
          "ticks": 90271,
          "time": 117.54036458333333,
          "velocity": 0.08661417322834646
        },
        {
          "duration": 0.1263020833333428,
          "durationTicks": 97,
          "midi": 63,
          "name": "D#4",
          "ticks": 90271,
          "time": 117.54036458333333,
          "velocity": 0.2204724409448819
        },
        {
          "duration": 0.1263020833333428,
          "durationTicks": 97,
          "midi": 67,
          "name": "G4",
          "ticks": 90280,
          "time": 117.55208333333333,
          "velocity": 0.28346456692913385
        },
        {
          "duration": 0.1263020833333428,
          "durationTicks": 97,
          "midi": 44,
          "name": "G#2",
          "ticks": 90289,
          "time": 117.56380208333333,
          "velocity": 0.3779527559055118
        },
        {
          "duration": 0,
          "durationTicks": 0,
          "midi": 31,
          "name": "G1",
          "ticks": 90299,
          "time": 117.57682291666667,
          "velocity": 0.2677165354330709
        },
        {
          "duration": 0,
          "durationTicks": 0,
          "midi": 86,
          "name": "D6",
          "ticks": 90326,
          "time": 117.61197916666667,
          "velocity": 0.06299212598425197
        },
        {
          "duration": 0,
          "durationTicks": 0,
          "midi": 70,
          "name": "A#4",
          "ticks": 90353,
          "time": 117.64713541666667,
          "velocity": 0.09448818897637795
        },
        {
          "duration": 0,
          "durationTicks": 0,
          "midi": 68,
          "name": "G#4",
          "ticks": 90370,
          "time": 117.66927083333333,
          "velocity": 0.2440944881889764
        },
        {
          "duration": 0,
          "durationTicks": 0,
          "midi": 60,
          "name": "C4",
          "ticks": 90379,
          "time": 117.68098958333333,
          "velocity": 0.2204724409448819
        },
        {
          "duration": 0,
          "durationTicks": 0,
          "midi": 64,
          "name": "E4",
          "ticks": 90379,
          "time": 117.68098958333333,
          "velocity": 0.15748031496062992
        },
        {
          "duration": 0.1263020833333428,
          "durationTicks": 97,
          "midi": 79,
          "name": "G5",
          "ticks": 90379,
          "time": 117.68098958333333,
          "velocity": 0.06299212598425197
        },
        {
          "duration": 0.1263020833333286,
          "durationTicks": 97,
          "midi": 67,
          "name": "G4",
          "ticks": 90389,
          "time": 117.69401041666667,
          "velocity": 0.30708661417322836
        },
        {
          "duration": 0,
          "durationTicks": 0,
          "midi": 86,
          "name": "D6",
          "ticks": 90398,
          "time": 117.70572916666667,
          "velocity": 0.10236220472440945
        },
        {
          "duration": 0,
          "durationTicks": 0,
          "midi": 70,
          "name": "A#4",
          "ticks": 90398,
          "time": 117.70572916666667,
          "velocity": 0.05511811023622047
        },
        {
          "duration": 0.1263020833333286,
          "durationTicks": 97,
          "midi": 72,
          "name": "C5",
          "ticks": 90398,
          "time": 117.70572916666667,
          "velocity": 0.1889763779527559
        },
        {
          "duration": 0,
          "durationTicks": 0,
          "midi": 63,
          "name": "D#4",
          "ticks": 90407,
          "time": 117.71744791666667,
          "velocity": 0.14960629921259844
        },
        {
          "duration": 0.1263020833333286,
          "durationTicks": 97,
          "midi": 75,
          "name": "D#5",
          "ticks": 90407,
          "time": 117.71744791666667,
          "velocity": 0.2047244094488189
        },
        {
          "duration": 0.1263020833333286,
          "durationTicks": 97,
          "midi": 44,
          "name": "G#2",
          "ticks": 90443,
          "time": 117.76432291666667,
          "velocity": 0.3779527559055118
        },
        {
          "duration": 0.1276041666666572,
          "durationTicks": 98,
          "midi": 63,
          "name": "D#4",
          "ticks": 90470,
          "time": 117.79947916666667,
          "velocity": 0.14173228346456693
        },
        {
          "duration": 0.1276041666666572,
          "durationTicks": 98,
          "midi": 68,
          "name": "G#4",
          "ticks": 90479,
          "time": 117.81119791666667,
          "velocity": 0.07086614173228346
        },
        {
          "duration": 0,
          "durationTicks": 0,
          "midi": 70,
          "name": "A#4",
          "ticks": 90551,
          "time": 117.90494791666667,
          "velocity": 0.08661417322834646
        },
        {
          "duration": 0,
          "durationTicks": 0,
          "midi": 72,
          "name": "C5",
          "ticks": 90561,
          "time": 117.91796875,
          "velocity": 0.18110236220472442
        },
        {
          "duration": 0,
          "durationTicks": 0,
          "midi": 60,
          "name": "C4",
          "ticks": 90570,
          "time": 117.9296875,
          "velocity": 0.2677165354330709
        },
        {
          "duration": 0,
          "durationTicks": 0,
          "midi": 32,
          "name": "G#1",
          "ticks": 90570,
          "time": 117.9296875,
          "velocity": 0.3779527559055118
        },
        {
          "duration": 0.125,
          "durationTicks": 96,
          "midi": 63,
          "name": "D#4",
          "ticks": 90570,
          "time": 117.9296875,
          "velocity": 0.1732283464566929
        },
        {
          "duration": 0.125,
          "durationTicks": 96,
          "midi": 67,
          "name": "G4",
          "ticks": 90570,
          "time": 117.9296875,
          "velocity": 0.2677165354330709
        },
        {
          "duration": 0,
          "durationTicks": 0,
          "midi": 60,
          "name": "C4",
          "ticks": 90597,
          "time": 117.96484375,
          "velocity": 0.2755905511811024
        },
        {
          "duration": 0,
          "durationTicks": 0,
          "midi": 33,
          "name": "A1",
          "ticks": 90597,
          "time": 117.96484375,
          "velocity": 0.33858267716535434
        },
        {
          "duration": 0,
          "durationTicks": 0,
          "midi": 70,
          "name": "A#4",
          "ticks": 90597,
          "time": 117.96484375,
          "velocity": 0.09448818897637795
        },
        {
          "duration": 0,
          "durationTicks": 0,
          "midi": 75,
          "name": "D#5",
          "ticks": 90597,
          "time": 117.96484375,
          "velocity": 0.2047244094488189
        },
        {
          "duration": 0,
          "durationTicks": 0,
          "midi": 60,
          "name": "C4",
          "ticks": 90624,
          "time": 118,
          "velocity": 0.2677165354330709
        },
        {
          "duration": 0.125,
          "durationTicks": 96,
          "midi": 75,
          "name": "D#5",
          "ticks": 90641,
          "time": 118.02213541666667,
          "velocity": 0.2125984251968504
        },
        {
          "duration": 0,
          "durationTicks": 0,
          "midi": 80,
          "name": "G#5",
          "ticks": 90740,
          "time": 118.15104166666667,
          "velocity": 0.12598425196850394
        },
        {
          "duration": 0,
          "durationTicks": 0,
          "midi": 86,
          "name": "D6",
          "ticks": 90740,
          "time": 118.15104166666667,
          "velocity": 0.11023622047244094
        },
        {
          "duration": 0,
          "durationTicks": 0,
          "midi": 90,
          "name": "F#6",
          "ticks": 90740,
          "time": 118.15104166666667,
          "velocity": 0.07874015748031496
        },
        {
          "duration": 0.1276041666666572,
          "durationTicks": 98,
          "midi": 82,
          "name": "A#5",
          "ticks": 90740,
          "time": 118.15104166666667,
          "velocity": 0.07874015748031496
        },
        {
          "duration": 0,
          "durationTicks": 0,
          "midi": 34,
          "name": "A#1",
          "ticks": 90749,
          "time": 118.16276041666667,
          "velocity": 0.4094488188976378
        },
        {
          "duration": 0,
          "durationTicks": 0,
          "midi": 63,
          "name": "D#4",
          "ticks": 90749,
          "time": 118.16276041666667,
          "velocity": 0.16535433070866143
        },
        {
          "duration": 0.1276041666666572,
          "durationTicks": 98,
          "midi": 51,
          "name": "D#3",
          "ticks": 90749,
          "time": 118.16276041666667,
          "velocity": 0.10236220472440945
        },
        {
          "duration": 0,
          "durationTicks": 0,
          "midi": 56,
          "name": "G#3",
          "ticks": 90758,
          "time": 118.17447916666667,
          "velocity": 0.23622047244094488
        },
        {
          "duration": 0,
          "durationTicks": 0,
          "midi": 32,
          "name": "G#1",
          "ticks": 90758,
          "time": 118.17447916666667,
          "velocity": 0.3700787401574803
        },
        {
          "duration": 0.1276041666666572,
          "durationTicks": 98,
          "midi": 60,
          "name": "C4",
          "ticks": 90758,
          "time": 118.17447916666667,
          "velocity": 0.2440944881889764
        },
        {
          "duration": 0.1276041666666572,
          "durationTicks": 98,
          "midi": 67,
          "name": "G4",
          "ticks": 90758,
          "time": 118.17447916666667,
          "velocity": 0.23622047244094488
        },
        {
          "duration": 0.1276041666666572,
          "durationTicks": 98,
          "midi": 72,
          "name": "C5",
          "ticks": 90758,
          "time": 118.17447916666667,
          "velocity": 0.2677165354330709
        },
        {
          "duration": 0,
          "durationTicks": 0,
          "midi": 86,
          "name": "D6",
          "ticks": 90776,
          "time": 118.19791666666667,
          "velocity": 0.07086614173228346
        },
        {
          "duration": 0,
          "durationTicks": 0,
          "midi": 33,
          "name": "A1",
          "ticks": 90785,
          "time": 118.20963541666667,
          "velocity": 0.3779527559055118
        },
        {
          "duration": 0,
          "durationTicks": 0,
          "midi": 75,
          "name": "D#5",
          "ticks": 90785,
          "time": 118.20963541666667,
          "velocity": 0.1968503937007874
        },
        {
          "duration": 0,
          "durationTicks": 0,
          "midi": 70,
          "name": "A#4",
          "ticks": 90794,
          "time": 118.22135416666667,
          "velocity": 0.11023622047244094
        },
        {
          "duration": 0.1263020833333286,
          "durationTicks": 97,
          "midi": 32,
          "name": "G#1",
          "ticks": 90804,
          "time": 118.234375,
          "velocity": 0.3700787401574803
        },
        {
          "duration": 0.25390625,
          "durationTicks": 195,
          "midi": 63,
          "name": "D#4",
          "ticks": 90804,
          "time": 118.234375,
          "velocity": 0.1732283464566929
        },
        {
          "duration": 0.1263020833333286,
          "durationTicks": 97,
          "midi": 75,
          "name": "D#5",
          "ticks": 90831,
          "time": 118.26953125,
          "velocity": 0.1968503937007874
        },
        {
          "duration": 0.1263020833333286,
          "durationTicks": 97,
          "midi": 70,
          "name": "A#4",
          "ticks": 90840,
          "time": 118.28125,
          "velocity": 0.11811023622047244
        },
        {
          "duration": 0,
          "durationTicks": 0,
          "midi": 68,
          "name": "G#4",
          "ticks": 90849,
          "time": 118.29296875,
          "velocity": 0.1968503937007874
        },
        {
          "duration": 0.1263020833333286,
          "durationTicks": 97,
          "midi": 58,
          "name": "A#3",
          "ticks": 90849,
          "time": 118.29296875,
          "velocity": 0.1968503937007874
        },
        {
          "duration": 0.1276041666666714,
          "durationTicks": 98,
          "midi": 68,
          "name": "G#4",
          "ticks": 90876,
          "time": 118.328125,
          "velocity": 0.2283464566929134
        },
        {
          "duration": 0.1276041666666714,
          "durationTicks": 98,
          "midi": 58,
          "name": "A#3",
          "ticks": 90912,
          "time": 118.375,
          "velocity": 0.1732283464566929
        },
        {
          "duration": 0.1276041666666714,
          "durationTicks": 98,
          "midi": 80,
          "name": "G#5",
          "ticks": 90958,
          "time": 118.43489583333333,
          "velocity": 0.1732283464566929
        },
        {
          "duration": 0.2552083333333428,
          "durationTicks": 196,
          "midi": 53,
          "name": "F3",
          "ticks": 90967,
          "time": 118.44661458333333,
          "velocity": 0.08661417322834646
        },
        {
          "duration": 0.1276041666666714,
          "durationTicks": 98,
          "midi": 34,
          "name": "A#1",
          "ticks": 90976,
          "time": 118.45833333333333,
          "velocity": 0.3937007874015748
        },
        {
          "duration": 0,
          "durationTicks": 0,
          "midi": 68,
          "name": "G#4",
          "ticks": 91022,
          "time": 118.51822916666667,
          "velocity": 0.1889763779527559
        },
        {
          "duration": 0,
          "durationTicks": 0,
          "midi": 75,
          "name": "D#5",
          "ticks": 91031,
          "time": 118.52994791666667,
          "velocity": 0.14173228346456693
        },
        {
          "duration": 0.1276041666666572,
          "durationTicks": 98,
          "midi": 79,
          "name": "G5",
          "ticks": 91049,
          "time": 118.55338541666667,
          "velocity": 0.1732283464566929
        },
        {
          "duration": 0,
          "durationTicks": 0,
          "midi": 73,
          "name": "C#5",
          "ticks": 91058,
          "time": 118.56510416666667,
          "velocity": 0.18110236220472442
        },
        {
          "duration": 0,
          "durationTicks": 0,
          "midi": 68,
          "name": "G#4",
          "ticks": 91067,
          "time": 118.57682291666667,
          "velocity": 0.1968503937007874
        },
        {
          "duration": 0,
          "durationTicks": 0,
          "midi": 77,
          "name": "F5",
          "ticks": 91086,
          "time": 118.6015625,
          "velocity": 0.18110236220472442
        },
        {
          "duration": 0.1276041666666714,
          "durationTicks": 98,
          "midi": 73,
          "name": "C#5",
          "ticks": 91104,
          "time": 118.625,
          "velocity": 0.1968503937007874
        },
        {
          "duration": 0,
          "durationTicks": 0,
          "midi": 61,
          "name": "C#4",
          "ticks": 91121,
          "time": 118.64713541666667,
          "velocity": 0.1968503937007874
        },
        {
          "duration": 0,
          "durationTicks": 0,
          "midi": 69,
          "name": "A4",
          "ticks": 91121,
          "time": 118.64713541666667,
          "velocity": 0.2204724409448819
        },
        {
          "duration": 0.12890625,
          "durationTicks": 99,
          "midi": 65,
          "name": "F4",
          "ticks": 91121,
          "time": 118.64713541666667,
          "velocity": 0.1732283464566929
        },
        {
          "duration": 0.12890625,
          "durationTicks": 99,
          "midi": 77,
          "name": "F5",
          "ticks": 91131,
          "time": 118.66015625,
          "velocity": 0.2125984251968504
        },
        {
          "duration": 0,
          "durationTicks": 0,
          "midi": 38,
          "name": "D2",
          "ticks": 91140,
          "time": 118.671875,
          "velocity": 0.4015748031496063
        },
        {
          "duration": 0.12890625,
          "durationTicks": 99,
          "midi": 80,
          "name": "G#5",
          "ticks": 91140,
          "time": 118.671875,
          "velocity": 0.09448818897637795
        },
        {
          "duration": 0.12890625,
          "durationTicks": 99,
          "midi": 75,
          "name": "D#5",
          "ticks": 91140,
          "time": 118.671875,
          "velocity": 0.2047244094488189
        },
        {
          "duration": 0,
          "durationTicks": 0,
          "midi": 39,
          "name": "D#2",
          "ticks": 91149,
          "time": 118.68359375,
          "velocity": 0.3700787401574803
        },
        {
          "duration": 0,
          "durationTicks": 0,
          "midi": 61,
          "name": "C#4",
          "ticks": 91158,
          "time": 118.6953125,
          "velocity": 0.2440944881889764
        },
        {
          "duration": 0,
          "durationTicks": 0,
          "midi": 69,
          "name": "A4",
          "ticks": 91168,
          "time": 118.70833333333333,
          "velocity": 0.10236220472440945
        },
        {
          "duration": 0,
          "durationTicks": 0,
          "midi": 39,
          "name": "D#2",
          "ticks": 91177,
          "time": 118.72005208333333,
          "velocity": 0.3779527559055118
        },
        {
          "duration": 0,
          "durationTicks": 0,
          "midi": 61,
          "name": "C#4",
          "ticks": 91204,
          "time": 118.75520833333333,
          "velocity": 0.1889763779527559
        },
        {
          "duration": 0,
          "durationTicks": 0,
          "midi": 40,
          "name": "E2",
          "ticks": 91213,
          "time": 118.76692708333333,
          "velocity": 0.31496062992125984
        },
        {
          "duration": 0.1263020833333286,
          "durationTicks": 97,
          "midi": 72,
          "name": "C5",
          "ticks": 91241,
          "time": 118.80338541666667,
          "velocity": 0.14960629921259844
        },
        {
          "duration": 0,
          "durationTicks": 0,
          "midi": 61,
          "name": "C#4",
          "ticks": 91303,
          "time": 118.88411458333333,
          "velocity": 0.1968503937007874
        },
        {
          "duration": 0,
          "durationTicks": 0,
          "midi": 40,
          "name": "E2",
          "ticks": 91313,
          "time": 118.89713541666667,
          "velocity": 0.2677165354330709
        },
        {
          "duration": 0,
          "durationTicks": 0,
          "midi": 87,
          "name": "D#6",
          "ticks": 91313,
          "time": 118.89713541666667,
          "velocity": 0.14173228346456693
        },
        {
          "duration": 0.1276041666666572,
          "durationTicks": 98,
          "midi": 80,
          "name": "G#5",
          "ticks": 91313,
          "time": 118.89713541666667,
          "velocity": 0.09448818897637795
        },
        {
          "duration": 0.1276041666666572,
          "durationTicks": 98,
          "midi": 51,
          "name": "D#3",
          "ticks": 91313,
          "time": 118.89713541666667,
          "velocity": 0.3779527559055118
        },
        {
          "duration": 0,
          "durationTicks": 0,
          "midi": 77,
          "name": "F5",
          "ticks": 91322,
          "time": 118.90885416666667,
          "velocity": 0.14173228346456693
        },
        {
          "duration": 0.1263020833333286,
          "durationTicks": 97,
          "midi": 65,
          "name": "F4",
          "ticks": 91331,
          "time": 118.92057291666667,
          "velocity": 0.15748031496062992
        },
        {
          "duration": 0.1263020833333286,
          "durationTicks": 97,
          "midi": 79,
          "name": "G5",
          "ticks": 91331,
          "time": 118.92057291666667,
          "velocity": 0.09448818897637795
        },
        {
          "duration": 0.1263020833333286,
          "durationTicks": 97,
          "midi": 68,
          "name": "G#4",
          "ticks": 91331,
          "time": 118.92057291666667,
          "velocity": 0.28346456692913385
        },
        {
          "duration": 0,
          "durationTicks": 0,
          "midi": 73,
          "name": "C#5",
          "ticks": 91341,
          "time": 118.93359375,
          "velocity": 0.14173228346456693
        },
        {
          "duration": 0,
          "durationTicks": 0,
          "midi": 31,
          "name": "G1",
          "ticks": 91341,
          "time": 118.93359375,
          "velocity": 0.29133858267716534
        },
        {
          "duration": 0,
          "durationTicks": 0,
          "midi": 61,
          "name": "C#4",
          "ticks": 91350,
          "time": 118.9453125,
          "velocity": 0.25196850393700787
        },
        {
          "duration": 0,
          "durationTicks": 0,
          "midi": 73,
          "name": "C#5",
          "ticks": 91386,
          "time": 118.9921875,
          "velocity": 0.16535433070866143
        },
        {
          "duration": 0,
          "durationTicks": 0,
          "midi": 61,
          "name": "C#4",
          "ticks": 91395,
          "time": 119.00390625,
          "velocity": 0.2125984251968504
        },
        {
          "duration": 0.125,
          "durationTicks": 96,
          "midi": 75,
          "name": "D#5",
          "ticks": 91413,
          "time": 119.02734375,
          "velocity": 0.14173228346456693
        },
        {
          "duration": 0.1263020833333286,
          "durationTicks": 97,
          "midi": 67,
          "name": "G4",
          "ticks": 91440,
          "time": 119.0625,
          "velocity": 0.16535433070866143
        },
        {
          "duration": 0,
          "durationTicks": 0,
          "midi": 84,
          "name": "C6",
          "ticks": 91502,
          "time": 119.14322916666667,
          "velocity": 0.15748031496062992
        },
        {
          "duration": 0.25390625,
          "durationTicks": 195,
          "midi": 80,
          "name": "G#5",
          "ticks": 91502,
          "time": 119.14322916666667,
          "velocity": 0.1732283464566929
        },
        {
          "duration": 0,
          "durationTicks": 0,
          "midi": 65,
          "name": "F4",
          "ticks": 91511,
          "time": 119.15494791666667,
          "velocity": 0.2125984251968504
        },
        {
          "duration": 0,
          "durationTicks": 0,
          "midi": 78,
          "name": "F#5",
          "ticks": 91511,
          "time": 119.15494791666667,
          "velocity": 0.07874015748031496
        },
        {
          "duration": 0,
          "durationTicks": 0,
          "midi": 86,
          "name": "D6",
          "ticks": 91511,
          "time": 119.15494791666667,
          "velocity": 0.08661417322834646
        },
        {
          "duration": 0,
          "durationTicks": 0,
          "midi": 57,
          "name": "A3",
          "ticks": 91521,
          "time": 119.16796875,
          "velocity": 0.31496062992125984
        },
        {
          "duration": 0.25390625,
          "durationTicks": 195,
          "midi": 39,
          "name": "D#2",
          "ticks": 91521,
          "time": 119.16796875,
          "velocity": 0.3937007874015748
        },
        {
          "duration": 0,
          "durationTicks": 0,
          "midi": 74,
          "name": "D5",
          "ticks": 91530,
          "time": 119.1796875,
          "velocity": 0.14960629921259844
        },
        {
          "duration": 0,
          "durationTicks": 0,
          "midi": 87,
          "name": "D#6",
          "ticks": 91530,
          "time": 119.1796875,
          "velocity": 0.08661417322834646
        },
        {
          "duration": 0,
          "durationTicks": 0,
          "midi": 61,
          "name": "C#4",
          "ticks": 91530,
          "time": 119.1796875,
          "velocity": 0.25196850393700787
        },
        {
          "duration": 0.1263020833333286,
          "durationTicks": 97,
          "midi": 68,
          "name": "G#4",
          "ticks": 91530,
          "time": 119.1796875,
          "velocity": 0.2204724409448819
        },
        {
          "duration": 0,
          "durationTicks": 0,
          "midi": 63,
          "name": "D#4",
          "ticks": 91557,
          "time": 119.21484375,
          "velocity": 0.1968503937007874
        },
        {
          "duration": 0,
          "durationTicks": 0,
          "midi": 77,
          "name": "F5",
          "ticks": 91566,
          "time": 119.2265625,
          "velocity": 0.16535433070866143
        },
        {
          "duration": 0,
          "durationTicks": 0,
          "midi": 75,
          "name": "D#5",
          "ticks": 91602,
          "time": 119.2734375,
          "velocity": 0.15748031496062992
        },
        {
          "duration": 0.1263020833333286,
          "durationTicks": 97,
          "midi": 77,
          "name": "F5",
          "ticks": 91602,
          "time": 119.2734375,
          "velocity": 0.06299212598425197
        },
        {
          "duration": 0.1263020833333428,
          "durationTicks": 97,
          "midi": 65,
          "name": "F4",
          "ticks": 91612,
          "time": 119.28645833333333,
          "velocity": 0.16535433070866143
        },
        {
          "duration": 0,
          "durationTicks": 0,
          "midi": 61,
          "name": "C#4",
          "ticks": 91639,
          "time": 119.32161458333333,
          "velocity": 0.23622047244094488
        },
        {
          "duration": 0,
          "durationTicks": 0,
          "midi": 61,
          "name": "C#4",
          "ticks": 91692,
          "time": 119.390625,
          "velocity": 0.2283464566929134
        },
        {
          "duration": 0,
          "durationTicks": 0,
          "midi": 68,
          "name": "G#4",
          "ticks": 91692,
          "time": 119.390625,
          "velocity": 0.1732283464566929
        },
        {
          "duration": 0,
          "durationTicks": 0,
          "midi": 87,
          "name": "D#6",
          "ticks": 91692,
          "time": 119.390625,
          "velocity": 0.1968503937007874
        },
        {
          "duration": 0,
          "durationTicks": 0,
          "midi": 60,
          "name": "C4",
          "ticks": 91711,
          "time": 119.41536458333333,
          "velocity": 0.2204724409448819
        },
        {
          "duration": 0,
          "durationTicks": 0,
          "midi": 77,
          "name": "F5",
          "ticks": 91720,
          "time": 119.42708333333333,
          "velocity": 0.1732283464566929
        },
        {
          "duration": 0,
          "durationTicks": 0,
          "midi": 73,
          "name": "C#5",
          "ticks": 91730,
          "time": 119.44010416666667,
          "velocity": 0.1889763779527559
        },
        {
          "duration": 0,
          "durationTicks": 0,
          "midi": 68,
          "name": "G#4",
          "ticks": 91739,
          "time": 119.45182291666667,
          "velocity": 0.18110236220472442
        },
        {
          "duration": 0,
          "durationTicks": 0,
          "midi": 55,
          "name": "G3",
          "ticks": 91748,
          "time": 119.46354166666667,
          "velocity": 0.25196850393700787
        },
        {
          "duration": 0,
          "durationTicks": 0,
          "midi": 77,
          "name": "F5",
          "ticks": 91757,
          "time": 119.47526041666667,
          "velocity": 0.1889763779527559
        },
        {
          "duration": 0,
          "durationTicks": 0,
          "midi": 72,
          "name": "C5",
          "ticks": 91757,
          "time": 119.47526041666667,
          "velocity": 0.1732283464566929
        },
        {
          "duration": 0,
          "durationTicks": 0,
          "midi": 33,
          "name": "A1",
          "ticks": 91767,
          "time": 119.48828125,
          "velocity": 0.36220472440944884
        },
        {
          "duration": 0,
          "durationTicks": 0,
          "midi": 52,
          "name": "E3",
          "ticks": 91784,
          "time": 119.51041666666667,
          "velocity": 0.18110236220472442
        },
        {
          "duration": 0,
          "durationTicks": 0,
          "midi": 57,
          "name": "A3",
          "ticks": 91784,
          "time": 119.51041666666667,
          "velocity": 0.31496062992125984
        },
        {
          "duration": 0,
          "durationTicks": 0,
          "midi": 31,
          "name": "G1",
          "ticks": 91794,
          "time": 119.5234375,
          "velocity": 0.3779527559055118
        },
        {
          "duration": 0,
          "durationTicks": 0,
          "midi": 65,
          "name": "F4",
          "ticks": 91794,
          "time": 119.5234375,
          "velocity": 0.14173228346456693
        },
        {
          "duration": 0,
          "durationTicks": 0,
          "midi": 71,
          "name": "B4",
          "ticks": 91794,
          "time": 119.5234375,
          "velocity": 0.16535433070866143
        },
        {
          "duration": 0,
          "durationTicks": 0,
          "midi": 76,
          "name": "E5",
          "ticks": 91794,
          "time": 119.5234375,
          "velocity": 0.11023622047244094
        },
        {
          "duration": 0,
          "durationTicks": 0,
          "midi": 56,
          "name": "G#3",
          "ticks": 91811,
          "time": 119.54557291666667,
          "velocity": 0.31496062992125984
        },
        {
          "duration": 0,
          "durationTicks": 0,
          "midi": 62,
          "name": "D4",
          "ticks": 91811,
          "time": 119.54557291666667,
          "velocity": 0.10236220472440945
        },
        {
          "duration": 0.1276041666666714,
          "durationTicks": 98,
          "midi": 75,
          "name": "D#5",
          "ticks": 91821,
          "time": 119.55859375,
          "velocity": 0.16535433070866143
        },
        {
          "duration": 0,
          "durationTicks": 0,
          "midi": 49,
          "name": "C#3",
          "ticks": 91830,
          "time": 119.5703125,
          "velocity": 0.2755905511811024
        },
        {
          "duration": 0,
          "durationTicks": 0,
          "midi": 48,
          "name": "C3",
          "ticks": 91847,
          "time": 119.59244791666667,
          "velocity": 0.23622047244094488
        },
        {
          "duration": 0,
          "durationTicks": 0,
          "midi": 55,
          "name": "G3",
          "ticks": 91847,
          "time": 119.59244791666667,
          "velocity": 0.2047244094488189
        },
        {
          "duration": 0.1276041666666572,
          "durationTicks": 98,
          "midi": 63,
          "name": "D#4",
          "ticks": 91847,
          "time": 119.59244791666667,
          "velocity": 0.14173228346456693
        },
        {
          "duration": 0,
          "durationTicks": 0,
          "midi": 26,
          "name": "D1",
          "ticks": 91857,
          "time": 119.60546875,
          "velocity": 0.3700787401574803
        },
        {
          "duration": 0,
          "durationTicks": 0,
          "midi": 34,
          "name": "A#1",
          "ticks": 91884,
          "time": 119.640625,
          "velocity": 0.3779527559055118
        },
        {
          "duration": 0,
          "durationTicks": 0,
          "midi": 66,
          "name": "F#4",
          "ticks": 91884,
          "time": 119.640625,
          "velocity": 0.18110236220472442
        },
        {
          "duration": 0,
          "durationTicks": 0,
          "midi": 48,
          "name": "C3",
          "ticks": 91893,
          "time": 119.65234375,
          "velocity": 0.2677165354330709
        },
        {
          "duration": 0.1276041666666714,
          "durationTicks": 98,
          "midi": 72,
          "name": "C5",
          "ticks": 91893,
          "time": 119.65234375,
          "velocity": 0.25196850393700787
        },
        {
          "duration": 0,
          "durationTicks": 0,
          "midi": 27,
          "name": "D#1",
          "ticks": 91902,
          "time": 119.6640625,
          "velocity": 0.4251968503937008
        },
        {
          "duration": 0,
          "durationTicks": 0,
          "midi": 77,
          "name": "F5",
          "ticks": 91902,
          "time": 119.6640625,
          "velocity": 0.1732283464566929
        },
        {
          "duration": 0,
          "durationTicks": 0,
          "midi": 30,
          "name": "F#1",
          "ticks": 91912,
          "time": 119.67708333333333,
          "velocity": 0.4330708661417323
        },
        {
          "duration": 0,
          "durationTicks": 0,
          "midi": 48,
          "name": "C3",
          "ticks": 91938,
          "time": 119.7109375,
          "velocity": 0.09448818897637795
        },
        {
          "duration": 0,
          "durationTicks": 0,
          "midi": 77,
          "name": "F5",
          "ticks": 91948,
          "time": 119.72395833333333,
          "velocity": 0.18110236220472442
        },
        {
          "duration": 0.1263020833333428,
          "durationTicks": 97,
          "midi": 29,
          "name": "F1",
          "ticks": 91948,
          "time": 119.72395833333333,
          "velocity": 0.3937007874015748
        },
        {
          "duration": 0.1263020833333428,
          "durationTicks": 97,
          "midi": 48,
          "name": "C3",
          "ticks": 91984,
          "time": 119.77083333333333,
          "velocity": 0.07874015748031496
        },
        {
          "duration": 0,
          "durationTicks": 0,
          "midi": 75,
          "name": "D#5",
          "ticks": 91993,
          "time": 119.78255208333333,
          "velocity": 0.14173228346456693
        },
        {
          "duration": 0.1263020833333428,
          "durationTicks": 97,
          "midi": 68,
          "name": "G#4",
          "ticks": 92011,
          "time": 119.80598958333333,
          "velocity": 0.15748031496062992
        },
        {
          "duration": 0,
          "durationTicks": 0,
          "midi": 87,
          "name": "D#6",
          "ticks": 92083,
          "time": 119.89973958333333,
          "velocity": 0.13385826771653545
        },
        {
          "duration": 0.125,
          "durationTicks": 96,
          "midi": 63,
          "name": "D#4",
          "ticks": 92110,
          "time": 119.93489583333333,
          "velocity": 0.1732283464566929
        },
        {
          "duration": 0,
          "durationTicks": 0,
          "midi": 72,
          "name": "C5",
          "ticks": 92164,
          "time": 120.00520833333333,
          "velocity": 0.08661417322834646
        },
        {
          "duration": 0.1276041666666714,
          "durationTicks": 98,
          "midi": 72,
          "name": "C5",
          "ticks": 92262,
          "time": 120.1328125,
          "velocity": 0.2204724409448819
        },
        {
          "duration": 0,
          "durationTicks": 0,
          "midi": 60,
          "name": "C4",
          "ticks": 92272,
          "time": 120.14583333333333,
          "velocity": 0.2283464566929134
        },
        {
          "duration": 0,
          "durationTicks": 0,
          "midi": 56,
          "name": "G#3",
          "ticks": 92272,
          "time": 120.14583333333333,
          "velocity": 0.2992125984251969
        },
        {
          "duration": 0,
          "durationTicks": 0,
          "midi": 90,
          "name": "F#6",
          "ticks": 92272,
          "time": 120.14583333333333,
          "velocity": 0.05511811023622047
        },
        {
          "duration": 0,
          "durationTicks": 0,
          "midi": 86,
          "name": "D6",
          "ticks": 92272,
          "time": 120.14583333333333,
          "velocity": 0.11023622047244094
        },
        {
          "duration": 0.1276041666666714,
          "durationTicks": 98,
          "midi": 82,
          "name": "A#5",
          "ticks": 92272,
          "time": 120.14583333333333,
          "velocity": 0.06299212598425197
        },
        {
          "duration": 0.25390625,
          "durationTicks": 195,
          "midi": 80,
          "name": "G#5",
          "ticks": 92272,
          "time": 120.14583333333333,
          "velocity": 0.1732283464566929
        },
        {
          "duration": 0,
          "durationTicks": 0,
          "midi": 77,
          "name": "F5",
          "ticks": 92281,
          "time": 120.15755208333333,
          "velocity": 0.2047244094488189
        },
        {
          "duration": 0,
          "durationTicks": 0,
          "midi": 65,
          "name": "F4",
          "ticks": 92290,
          "time": 120.16927083333333,
          "velocity": 0.2047244094488189
        },
        {
          "duration": 0,
          "durationTicks": 0,
          "midi": 91,
          "name": "G6",
          "ticks": 92290,
          "time": 120.16927083333333,
          "velocity": 0.08661417322834646
        },
        {
          "duration": 0.2526041666666572,
          "durationTicks": 194,
          "midi": 60,
          "name": "C4",
          "ticks": 92300,
          "time": 120.18229166666667,
          "velocity": 0.1968503937007874
        },
        {
          "duration": 0.1263020833333286,
          "durationTicks": 97,
          "midi": 75,
          "name": "D#5",
          "ticks": 92309,
          "time": 120.19401041666667,
          "velocity": 0.16535433070866143
        },
        {
          "duration": 0,
          "durationTicks": 0,
          "midi": 63,
          "name": "D#4",
          "ticks": 92318,
          "time": 120.20572916666667,
          "velocity": 0.1968503937007874
        },
        {
          "duration": 0.1263020833333286,
          "durationTicks": 97,
          "midi": 65,
          "name": "F4",
          "ticks": 92336,
          "time": 120.22916666666667,
          "velocity": 0.1889763779527559
        },
        {
          "duration": 0,
          "durationTicks": 0,
          "midi": 41,
          "name": "F2",
          "ticks": 92353,
          "time": 120.25130208333333,
          "velocity": 0.2125984251968504
        },
        {
          "duration": 0.1263020833333286,
          "durationTicks": 97,
          "midi": 63,
          "name": "D#4",
          "ticks": 92381,
          "time": 120.28776041666667,
          "velocity": 0.2204724409448819
        },
        {
          "duration": 0.1263020833333286,
          "durationTicks": 97,
          "midi": 27,
          "name": "D#1",
          "ticks": 92462,
          "time": 120.39322916666667,
          "velocity": 0.3779527559055118
        },
        {
          "duration": 0,
          "durationTicks": 0,
          "midi": 77,
          "name": "F5",
          "ticks": 92481,
          "time": 120.41796875,
          "velocity": 0.1732283464566929
        },
        {
          "duration": 0.1263020833333286,
          "durationTicks": 97,
          "midi": 80,
          "name": "G#5",
          "ticks": 92498,
          "time": 120.44010416666667,
          "velocity": 0.1732283464566929
        },
        {
          "duration": 0,
          "durationTicks": 0,
          "midi": 64,
          "name": "E4",
          "ticks": 92552,
          "time": 120.51041666666667,
          "velocity": 0.16535433070866143
        },
        {
          "duration": 0,
          "durationTicks": 0,
          "midi": 75,
          "name": "D#5",
          "ticks": 92552,
          "time": 120.51041666666667,
          "velocity": 0.16535433070866143
        },
        {
          "duration": 0.1263020833333286,
          "durationTicks": 97,
          "midi": 79,
          "name": "G5",
          "ticks": 92579,
          "time": 120.54557291666667,
          "velocity": 0.1732283464566929
        },
        {
          "duration": 0,
          "durationTicks": 0,
          "midi": 70,
          "name": "A#4",
          "ticks": 92588,
          "time": 120.55729166666667,
          "velocity": 0.18110236220472442
        },
        {
          "duration": 0,
          "durationTicks": 0,
          "midi": 75,
          "name": "D#5",
          "ticks": 92615,
          "time": 120.59244791666667,
          "velocity": 0.18110236220472442
        },
        {
          "duration": 0,
          "durationTicks": 0,
          "midi": 70,
          "name": "A#4",
          "ticks": 92633,
          "time": 120.61588541666667,
          "velocity": 0.1968503937007874
        },
        {
          "duration": 0,
          "durationTicks": 0,
          "midi": 28,
          "name": "E1",
          "ticks": 92660,
          "time": 120.65104166666667,
          "velocity": 0.4015748031496063
        },
        {
          "duration": 0,
          "durationTicks": 0,
          "midi": 84,
          "name": "C6",
          "ticks": 92660,
          "time": 120.65104166666667,
          "velocity": 0.06299212598425197
        },
        {
          "duration": 0,
          "durationTicks": 0,
          "midi": 29,
          "name": "F1",
          "ticks": 92669,
          "time": 120.66276041666667,
          "velocity": 0.4330708661417323
        },
        {
          "duration": 0,
          "durationTicks": 0,
          "midi": 65,
          "name": "F4",
          "ticks": 92669,
          "time": 120.66276041666667,
          "velocity": 0.2047244094488189
        },
        {
          "duration": 0.125,
          "durationTicks": 96,
          "midi": 60,
          "name": "C4",
          "ticks": 92669,
          "time": 120.66276041666667,
          "velocity": 0.1889763779527559
        },
        {
          "duration": 0.125,
          "durationTicks": 96,
          "midi": 68,
          "name": "G#4",
          "ticks": 92669,
          "time": 120.66276041666667,
          "velocity": 0.2204724409448819
        },
        {
          "duration": 0.125,
          "durationTicks": 96,
          "midi": 75,
          "name": "D#5",
          "ticks": 92669,
          "time": 120.66276041666667,
          "velocity": 0.2283464566929134
        },
        {
          "duration": 0,
          "durationTicks": 0,
          "midi": 30,
          "name": "F#1",
          "ticks": 92678,
          "time": 120.67447916666667,
          "velocity": 0.4330708661417323
        },
        {
          "duration": 0.10416666666665719,
          "durationTicks": 80,
          "midi": 63,
          "name": "D#4",
          "ticks": 92714,
          "time": 120.72135416666667,
          "velocity": 0.1968503937007874
        },
        {
          "duration": 0.12369791666665719,
          "durationTicks": 95,
          "midi": 29,
          "name": "F1",
          "ticks": 92714,
          "time": 120.72135416666667,
          "velocity": 0.3937007874015748
        },
        {
          "duration": 0,
          "durationTicks": 0,
          "midi": 70,
          "name": "A#4",
          "ticks": 92732,
          "time": 120.74479166666667,
          "velocity": 0.1732283464566929
        },
        {
          "duration": 0.125,
          "durationTicks": 96,
          "midi": 48,
          "name": "C3",
          "ticks": 92750,
          "time": 120.76822916666667,
          "velocity": 0.09448818897637795
        },
        {
          "duration": 0.1263020833333428,
          "durationTicks": 97,
          "midi": 72,
          "name": "C5",
          "ticks": 92767,
          "time": 120.79036458333333,
          "velocity": 0.1732283464566929
        },
        {
          "duration": 0.01953125,
          "durationTicks": 15,
          "midi": 63,
          "name": "D#4",
          "ticks": 92794,
          "time": 120.82552083333333,
          "velocity": 0.08661417322834646
        },
        {
          "duration": 0,
          "durationTicks": 0,
          "midi": 63,
          "name": "D#4",
          "ticks": 92839,
          "time": 120.88411458333333,
          "velocity": 0.18110236220472442
        },
        {
          "duration": 0.1263020833333428,
          "durationTicks": 97,
          "midi": 60,
          "name": "C4",
          "ticks": 92839,
          "time": 120.88411458333333,
          "velocity": 0.1732283464566929
        },
        {
          "duration": 0.1263020833333428,
          "durationTicks": 97,
          "midi": 87,
          "name": "D#6",
          "ticks": 92848,
          "time": 120.89583333333333,
          "velocity": 0.08661417322834646
        },
        {
          "duration": 0,
          "durationTicks": 0,
          "midi": 77,
          "name": "F5",
          "ticks": 92857,
          "time": 120.90755208333333,
          "velocity": 0.18110236220472442
        },
        {
          "duration": 0.1263020833333428,
          "durationTicks": 97,
          "midi": 68,
          "name": "G#4",
          "ticks": 92857,
          "time": 120.90755208333333,
          "velocity": 0.18110236220472442
        },
        {
          "duration": 0.1263020833333428,
          "durationTicks": 97,
          "midi": 79,
          "name": "G5",
          "ticks": 92857,
          "time": 120.90755208333333,
          "velocity": 0.18110236220472442
        },
        {
          "duration": 0,
          "durationTicks": 0,
          "midi": 66,
          "name": "F#4",
          "ticks": 92867,
          "time": 120.92057291666667,
          "velocity": 0.18110236220472442
        },
        {
          "duration": 0.1263020833333286,
          "durationTicks": 97,
          "midi": 75,
          "name": "D#5",
          "ticks": 92867,
          "time": 120.92057291666667,
          "velocity": 0.08661417322834646
        },
        {
          "duration": 0,
          "durationTicks": 0,
          "midi": 63,
          "name": "D#4",
          "ticks": 92884,
          "time": 120.94270833333333,
          "velocity": 0.2047244094488189
        },
        {
          "duration": 0,
          "durationTicks": 0,
          "midi": 65,
          "name": "F4",
          "ticks": 92911,
          "time": 120.97786458333333,
          "velocity": 0.1889763779527559
        },
        {
          "duration": 0.1263020833333286,
          "durationTicks": 97,
          "midi": 75,
          "name": "D#5",
          "ticks": 92966,
          "time": 121.04947916666667,
          "velocity": 0.1732283464566929
        },
        {
          "duration": 0,
          "durationTicks": 0,
          "midi": 44,
          "name": "G#2",
          "ticks": 93028,
          "time": 121.13020833333333,
          "velocity": 0.3700787401574803
        },
        {
          "duration": 0.1276041666666714,
          "durationTicks": 98,
          "midi": 72,
          "name": "C5",
          "ticks": 93028,
          "time": 121.13020833333333,
          "velocity": 0.2125984251968504
        },
        {
          "duration": 0,
          "durationTicks": 0,
          "midi": 90,
          "name": "F#6",
          "ticks": 93037,
          "time": 121.14192708333333,
          "velocity": 0.07874015748031496
        },
        {
          "duration": 0,
          "durationTicks": 0,
          "midi": 86,
          "name": "D6",
          "ticks": 93037,
          "time": 121.14192708333333,
          "velocity": 0.10236220472440945
        },
        {
          "duration": 0.1276041666666714,
          "durationTicks": 98,
          "midi": 80,
          "name": "G#5",
          "ticks": 93037,
          "time": 121.14192708333333,
          "velocity": 0.1732283464566929
        },
        {
          "duration": 0,
          "durationTicks": 0,
          "midi": 42,
          "name": "F#2",
          "ticks": 93047,
          "time": 121.15494791666667,
          "velocity": 0.4015748031496063
        },
        {
          "duration": 0.1276041666666572,
          "durationTicks": 98,
          "midi": 77,
          "name": "F5",
          "ticks": 93047,
          "time": 121.15494791666667,
          "velocity": 0.2283464566929134
        },
        {
          "duration": 0.1276041666666572,
          "durationTicks": 98,
          "midi": 43,
          "name": "G2",
          "ticks": 93056,
          "time": 121.16666666666667,
          "velocity": 0.3858267716535433
        },
        {
          "duration": 0,
          "durationTicks": 0,
          "midi": 56,
          "name": "G#3",
          "ticks": 93065,
          "time": 121.17838541666667,
          "velocity": 0.2047244094488189
        },
        {
          "duration": 0,
          "durationTicks": 0,
          "midi": 66,
          "name": "F#4",
          "ticks": 93075,
          "time": 121.19140625,
          "velocity": 0.18110236220472442
        },
        {
          "duration": 0,
          "durationTicks": 0,
          "midi": 60,
          "name": "C4",
          "ticks": 93075,
          "time": 121.19140625,
          "velocity": 0.16535433070866143
        },
        {
          "duration": 0,
          "durationTicks": 0,
          "midi": 63,
          "name": "D#4",
          "ticks": 93101,
          "time": 121.22526041666667,
          "velocity": 0.2125984251968504
        },
        {
          "duration": 0,
          "durationTicks": 0,
          "midi": 29,
          "name": "F1",
          "ticks": 93128,
          "time": 121.26041666666667,
          "velocity": 0.3779527559055118
        },
        {
          "duration": 0.125,
          "durationTicks": 96,
          "midi": 31,
          "name": "G1",
          "ticks": 93147,
          "time": 121.28515625,
          "velocity": 0.3779527559055118
        },
        {
          "duration": 0.125,
          "durationTicks": 96,
          "midi": 70,
          "name": "A#4",
          "ticks": 93147,
          "time": 121.28515625,
          "velocity": 0.1732283464566929
        },
        {
          "duration": 0,
          "durationTicks": 0,
          "midi": 50,
          "name": "D3",
          "ticks": 93192,
          "time": 121.34375,
          "velocity": 0.06299212598425197
        },
        {
          "duration": 0,
          "durationTicks": 0,
          "midi": 87,
          "name": "D#6",
          "ticks": 93228,
          "time": 121.390625,
          "velocity": 0.14173228346456693
        },
        {
          "duration": 0.1263020833333286,
          "durationTicks": 97,
          "midi": 68,
          "name": "G#4",
          "ticks": 93255,
          "time": 121.42578125,
          "velocity": 0.1889763779527559
        },
        {
          "duration": 0.1263020833333286,
          "durationTicks": 97,
          "midi": 75,
          "name": "D#5",
          "ticks": 93255,
          "time": 121.42578125,
          "velocity": 0.11023622047244094
        },
        {
          "duration": 0,
          "durationTicks": 0,
          "midi": 44,
          "name": "G#2",
          "ticks": 93308,
          "time": 121.49479166666667,
          "velocity": 0.4015748031496063
        },
        {
          "duration": 0,
          "durationTicks": 0,
          "midi": 58,
          "name": "A#3",
          "ticks": 93318,
          "time": 121.5078125,
          "velocity": 0.1889763779527559
        },
        {
          "duration": 0,
          "durationTicks": 0,
          "midi": 45,
          "name": "A2",
          "ticks": 93335,
          "time": 121.52994791666667,
          "velocity": 0.4015748031496063
        },
        {
          "duration": 0.125,
          "durationTicks": 96,
          "midi": 72,
          "name": "C5",
          "ticks": 93335,
          "time": 121.52994791666667,
          "velocity": 0.1732283464566929
        },
        {
          "duration": 0.125,
          "durationTicks": 96,
          "midi": 79,
          "name": "G5",
          "ticks": 93335,
          "time": 121.52994791666667,
          "velocity": 0.13385826771653545
        },
        {
          "duration": 0,
          "durationTicks": 0,
          "midi": 31,
          "name": "G1",
          "ticks": 93345,
          "time": 121.54296875,
          "velocity": 0.29133858267716534
        },
        {
          "duration": 0.125,
          "durationTicks": 96,
          "midi": 67,
          "name": "G4",
          "ticks": 93345,
          "time": 121.54296875,
          "velocity": 0.29133858267716534
        },
        {
          "duration": 0.125,
          "durationTicks": 96,
          "midi": 63,
          "name": "D#4",
          "ticks": 93345,
          "time": 121.54296875,
          "velocity": 0.2204724409448819
        },
        {
          "duration": 0.125,
          "durationTicks": 96,
          "midi": 44,
          "name": "G#2",
          "ticks": 93354,
          "time": 121.5546875,
          "velocity": 0.3779527559055118
        },
        {
          "duration": 0,
          "durationTicks": 0,
          "midi": 70,
          "name": "A#4",
          "ticks": 93372,
          "time": 121.578125,
          "velocity": 0.10236220472440945
        },
        {
          "duration": 0,
          "durationTicks": 0,
          "midi": 86,
          "name": "D6",
          "ticks": 93389,
          "time": 121.60026041666667,
          "velocity": 0.05511811023622047
        },
        {
          "duration": 0,
          "durationTicks": 0,
          "midi": 70,
          "name": "A#4",
          "ticks": 93416,
          "time": 121.63541666666667,
          "velocity": 0.13385826771653545
        },
        {
          "duration": 0.1263020833333286,
          "durationTicks": 97,
          "midi": 67,
          "name": "G4",
          "ticks": 93443,
          "time": 121.67057291666667,
          "velocity": 0.29133858267716534
        },
        {
          "duration": 0,
          "durationTicks": 0,
          "midi": 58,
          "name": "A#3",
          "ticks": 93462,
          "time": 121.6953125,
          "velocity": 0.18110236220472442
        },
        {
          "duration": 0.125,
          "durationTicks": 96,
          "midi": 63,
          "name": "D#4",
          "ticks": 93462,
          "time": 121.6953125,
          "velocity": 0.15748031496062992
        },
        {
          "duration": 0.125,
          "durationTicks": 96,
          "midi": 75,
          "name": "D#5",
          "ticks": 93462,
          "time": 121.6953125,
          "velocity": 0.2125984251968504
        },
        {
          "duration": 0.125,
          "durationTicks": 96,
          "midi": 72,
          "name": "C5",
          "ticks": 93462,
          "time": 121.6953125,
          "velocity": 0.1968503937007874
        },
        {
          "duration": 0.125,
          "durationTicks": 96,
          "midi": 44,
          "name": "G#2",
          "ticks": 93506,
          "time": 121.75260416666667,
          "velocity": 0.3779527559055118
        },
        {
          "duration": 0.1263020833333286,
          "durationTicks": 97,
          "midi": 68,
          "name": "G#4",
          "ticks": 93533,
          "time": 121.78776041666667,
          "velocity": 0.08661417322834646
        },
        {
          "duration": 0.1263020833333286,
          "durationTicks": 97,
          "midi": 63,
          "name": "D#4",
          "ticks": 93542,
          "time": 121.79947916666667,
          "velocity": 0.15748031496062992
        },
        {
          "duration": 0,
          "durationTicks": 0,
          "midi": 75,
          "name": "D#5",
          "ticks": 93614,
          "time": 121.89322916666667,
          "velocity": 0.1732283464566929
        },
        {
          "duration": 0.1276041666666572,
          "durationTicks": 98,
          "midi": 70,
          "name": "A#4",
          "ticks": 93614,
          "time": 121.89322916666667,
          "velocity": 0.11023622047244094
        },
        {
          "duration": 0,
          "durationTicks": 0,
          "midi": 60,
          "name": "C4",
          "ticks": 93623,
          "time": 121.90494791666667,
          "velocity": 0.29133858267716534
        },
        {
          "duration": 0.1276041666666572,
          "durationTicks": 98,
          "midi": 67,
          "name": "G4",
          "ticks": 93623,
          "time": 121.90494791666667,
          "velocity": 0.2755905511811024
        },
        {
          "duration": 0,
          "durationTicks": 0,
          "midi": 32,
          "name": "G#1",
          "ticks": 93632,
          "time": 121.91666666666667,
          "velocity": 0.3700787401574803
        },
        {
          "duration": 0,
          "durationTicks": 0,
          "midi": 33,
          "name": "A1",
          "ticks": 93651,
          "time": 121.94140625,
          "velocity": 0.3464566929133858
        },
        {
          "duration": 0,
          "durationTicks": 0,
          "midi": 60,
          "name": "C4",
          "ticks": 93660,
          "time": 121.953125,
          "velocity": 0.29133858267716534
        },
        {
          "duration": 0,
          "durationTicks": 0,
          "midi": 86,
          "name": "D6",
          "ticks": 93660,
          "time": 121.953125,
          "velocity": 0.07086614173228346
        },
        {
          "duration": 0,
          "durationTicks": 0,
          "midi": 63,
          "name": "D#4",
          "ticks": 93660,
          "time": 121.953125,
          "velocity": 0.1732283464566929
        },
        {
          "duration": 0,
          "durationTicks": 0,
          "midi": 75,
          "name": "D#5",
          "ticks": 93660,
          "time": 121.953125,
          "velocity": 0.1968503937007874
        },
        {
          "duration": 0,
          "durationTicks": 0,
          "midi": 73,
          "name": "C#5",
          "ticks": 93678,
          "time": 121.9765625,
          "velocity": 0.16535433070866143
        },
        {
          "duration": 0,
          "durationTicks": 0,
          "midi": 60,
          "name": "C4",
          "ticks": 93687,
          "time": 121.98828125,
          "velocity": 0.28346456692913385
        },
        {
          "duration": 0.1263020833333286,
          "durationTicks": 97,
          "midi": 75,
          "name": "D#5",
          "ticks": 93705,
          "time": 122.01171875,
          "velocity": 0.1968503937007874
        },
        {
          "duration": 0.1263020833333428,
          "durationTicks": 97,
          "midi": 67,
          "name": "G4",
          "ticks": 93733,
          "time": 122.04817708333333,
          "velocity": 0.1732283464566929
        },
        {
          "duration": 0,
          "durationTicks": 0,
          "midi": 57,
          "name": "A3",
          "ticks": 93795,
          "time": 122.12890625,
          "velocity": 0.31496062992125984
        },
        {
          "duration": 0,
          "durationTicks": 0,
          "midi": 86,
          "name": "D6",
          "ticks": 93795,
          "time": 122.12890625,
          "velocity": 0.10236220472440945
        },
        {
          "duration": 0,
          "durationTicks": 0,
          "midi": 80,
          "name": "G#5",
          "ticks": 93795,
          "time": 122.12890625,
          "velocity": 0.14960629921259844
        },
        {
          "duration": 0,
          "durationTicks": 0,
          "midi": 77,
          "name": "F5",
          "ticks": 93804,
          "time": 122.140625,
          "velocity": 0.12598425196850394
        },
        {
          "duration": 0,
          "durationTicks": 0,
          "midi": 90,
          "name": "F#6",
          "ticks": 93804,
          "time": 122.140625,
          "velocity": 0.07086614173228346
        },
        {
          "duration": 0,
          "durationTicks": 0,
          "midi": 34,
          "name": "A#1",
          "ticks": 93813,
          "time": 122.15234375,
          "velocity": 0.4094488188976378
        },
        {
          "duration": 0,
          "durationTicks": 0,
          "midi": 91,
          "name": "G6",
          "ticks": 93813,
          "time": 122.15234375,
          "velocity": 0.11023622047244094
        },
        {
          "duration": 0,
          "durationTicks": 0,
          "midi": 56,
          "name": "G#3",
          "ticks": 93823,
          "time": 122.16536458333333,
          "velocity": 0.2283464566929134
        },
        {
          "duration": 0,
          "durationTicks": 0,
          "midi": 60,
          "name": "C4",
          "ticks": 93823,
          "time": 122.16536458333333,
          "velocity": 0.2204724409448819
        },
        {
          "duration": 0,
          "durationTicks": 0,
          "midi": 32,
          "name": "G#1",
          "ticks": 93823,
          "time": 122.16536458333333,
          "velocity": 0.3779527559055118
        },
        {
          "duration": 0.1263020833333428,
          "durationTicks": 97,
          "midi": 72,
          "name": "C5",
          "ticks": 93823,
          "time": 122.16536458333333,
          "velocity": 0.2755905511811024
        },
        {
          "duration": 0.1263020833333428,
          "durationTicks": 97,
          "midi": 82,
          "name": "A#5",
          "ticks": 93823,
          "time": 122.16536458333333,
          "velocity": 0.11023622047244094
        },
        {
          "duration": 0.1263020833333428,
          "durationTicks": 97,
          "midi": 79,
          "name": "G5",
          "ticks": 93823,
          "time": 122.16536458333333,
          "velocity": 0.11811023622047244
        },
        {
          "duration": 0,
          "durationTicks": 0,
          "midi": 86,
          "name": "D6",
          "ticks": 93832,
          "time": 122.17708333333333,
          "velocity": 0.08661417322834646
        },
        {
          "duration": 0.1263020833333428,
          "durationTicks": 97,
          "midi": 67,
          "name": "G4",
          "ticks": 93832,
          "time": 122.17708333333333,
          "velocity": 0.2440944881889764
        },
        {
          "duration": 0.1263020833333428,
          "durationTicks": 97,
          "midi": 75,
          "name": "D#5",
          "ticks": 93841,
          "time": 122.18880208333333,
          "velocity": 0.2204724409448819
        },
        {
          "duration": 0,
          "durationTicks": 0,
          "midi": 33,
          "name": "A1",
          "ticks": 93851,
          "time": 122.20182291666667,
          "velocity": 0.3779527559055118
        },
        {
          "duration": 0,
          "durationTicks": 0,
          "midi": 60,
          "name": "C4",
          "ticks": 93851,
          "time": 122.20182291666667,
          "velocity": 0.23622047244094488
        },
        {
          "duration": 0,
          "durationTicks": 0,
          "midi": 70,
          "name": "A#4",
          "ticks": 93851,
          "time": 122.20182291666667,
          "velocity": 0.10236220472440945
        },
        {
          "duration": 0.1263020833333286,
          "durationTicks": 97,
          "midi": 51,
          "name": "D#3",
          "ticks": 93851,
          "time": 122.20182291666667,
          "velocity": 0.07086614173228346
        },
        {
          "duration": 0.2526041666666572,
          "durationTicks": 194,
          "midi": 63,
          "name": "D#4",
          "ticks": 93851,
          "time": 122.20182291666667,
          "velocity": 0.1968503937007874
        },
        {
          "duration": 0.1263020833333428,
          "durationTicks": 97,
          "midi": 32,
          "name": "G#1",
          "ticks": 93868,
          "time": 122.22395833333333,
          "velocity": 0.3700787401574803
        },
        {
          "duration": 0,
          "durationTicks": 0,
          "midi": 68,
          "name": "G#4",
          "ticks": 93913,
          "time": 122.28255208333333,
          "velocity": 0.2125984251968504
        },
        {
          "duration": 0,
          "durationTicks": 0,
          "midi": 68,
          "name": "G#4",
          "ticks": 93941,
          "time": 122.31901041666667,
          "velocity": 0.2283464566929134
        },
        {
          "duration": 0,
          "durationTicks": 0,
          "midi": 70,
          "name": "A#4",
          "ticks": 93941,
          "time": 122.31901041666667,
          "velocity": 0.11023622047244094
        },
        {
          "duration": 0,
          "durationTicks": 0,
          "midi": 51,
          "name": "D#3",
          "ticks": 93950,
          "time": 122.33072916666667,
          "velocity": 0.05511811023622047
        },
        {
          "duration": 0,
          "durationTicks": 0,
          "midi": 58,
          "name": "A#3",
          "ticks": 93968,
          "time": 122.35416666666667,
          "velocity": 0.18110236220472442
        },
        {
          "duration": 0,
          "durationTicks": 0,
          "midi": 68,
          "name": "G#4",
          "ticks": 93977,
          "time": 122.36588541666667,
          "velocity": 0.2283464566929134
        },
        {
          "duration": 0,
          "durationTicks": 0,
          "midi": 77,
          "name": "F5",
          "ticks": 94004,
          "time": 122.40104166666667,
          "velocity": 0.11023622047244094
        },
        {
          "duration": 0.1263020833333286,
          "durationTicks": 97,
          "midi": 70,
          "name": "A#4",
          "ticks": 94013,
          "time": 122.41276041666667,
          "velocity": 0.1968503937007874
        },
        {
          "duration": 0.1263020833333286,
          "durationTicks": 97,
          "midi": 80,
          "name": "G#5",
          "ticks": 94022,
          "time": 122.42447916666667,
          "velocity": 0.1732283464566929
        },
        {
          "duration": 0.25,
          "durationTicks": 192,
          "midi": 75,
          "name": "D#5",
          "ticks": 94094,
          "time": 122.51822916666667,
          "velocity": 0.2125984251968504
        },
        {
          "duration": 0.1276041666666572,
          "durationTicks": 98,
          "midi": 79,
          "name": "G5",
          "ticks": 94103,
          "time": 122.52994791666667,
          "velocity": 0.25984251968503935
        },
        {
          "duration": 0.1276041666666714,
          "durationTicks": 98,
          "midi": 72,
          "name": "C5",
          "ticks": 94122,
          "time": 122.5546875,
          "velocity": 0.11023622047244094
        },
        {
          "duration": 0.2565104166666572,
          "durationTicks": 197,
          "midi": 70,
          "name": "A#4",
          "ticks": 94175,
          "time": 122.62369791666667,
          "velocity": 0.2283464566929134
        },
        {
          "duration": 0,
          "durationTicks": 0,
          "midi": 36,
          "name": "C2",
          "ticks": 94185,
          "time": 122.63671875,
          "velocity": 0.3700787401574803
        },
        {
          "duration": 0.12890625,
          "durationTicks": 99,
          "midi": 67,
          "name": "G4",
          "ticks": 94194,
          "time": 122.6484375,
          "velocity": 0.2047244094488189
        },
        {
          "duration": 0,
          "durationTicks": 0,
          "midi": 35,
          "name": "B1",
          "ticks": 94213,
          "time": 122.67317708333333,
          "velocity": 0.41732283464566927
        },
        {
          "duration": 0,
          "durationTicks": 0,
          "midi": 80,
          "name": "G#5",
          "ticks": 94213,
          "time": 122.67317708333333,
          "velocity": 0.09448818897637795
        },
        {
          "duration": 0,
          "durationTicks": 0,
          "midi": 77,
          "name": "F5",
          "ticks": 94213,
          "time": 122.67317708333333,
          "velocity": 0.05511811023622047
        },
        {
          "duration": 0,
          "durationTicks": 0,
          "midi": 60,
          "name": "C4",
          "ticks": 94222,
          "time": 122.68489583333333,
          "velocity": 0.2283464566929134
        },
        {
          "duration": 0,
          "durationTicks": 0,
          "midi": 37,
          "name": "C#2",
          "ticks": 94240,
          "time": 122.70833333333333,
          "velocity": 0.3779527559055118
        },
        {
          "duration": 0.1276041666666714,
          "durationTicks": 98,
          "midi": 63,
          "name": "D#4",
          "ticks": 94249,
          "time": 122.72005208333333,
          "velocity": 0.18110236220472442
        },
        {
          "duration": 0,
          "durationTicks": 0,
          "midi": 60,
          "name": "C4",
          "ticks": 94258,
          "time": 122.73177083333333,
          "velocity": 0.2283464566929134
        },
        {
          "duration": 0.1276041666666714,
          "durationTicks": 98,
          "midi": 36,
          "name": "C2",
          "ticks": 94258,
          "time": 122.73177083333333,
          "velocity": 0.3937007874015748
        },
        {
          "duration": 0,
          "durationTicks": 0,
          "midi": 94,
          "name": "A#6",
          "ticks": 94267,
          "time": 122.74348958333333,
          "velocity": 0.07086614173228346
        },
        {
          "duration": 0.1276041666666572,
          "durationTicks": 98,
          "midi": 79,
          "name": "G5",
          "ticks": 94277,
          "time": 122.75651041666667,
          "velocity": 0.10236220472440945
        },
        {
          "duration": 0.006510416666657193,
          "durationTicks": 5,
          "midi": 75,
          "name": "D#5",
          "ticks": 94286,
          "time": 122.76822916666667,
          "velocity": 0.23622047244094488
        },
        {
          "duration": 0.1276041666666572,
          "durationTicks": 98,
          "midi": 60,
          "name": "C4",
          "ticks": 94286,
          "time": 122.76822916666667,
          "velocity": 0.2283464566929134
        },
        {
          "duration": 0.1276041666666572,
          "durationTicks": 98,
          "midi": 67,
          "name": "G4",
          "ticks": 94286,
          "time": 122.76822916666667,
          "velocity": 0.1732283464566929
        },
        {
          "duration": 0.1276041666666572,
          "durationTicks": 98,
          "midi": 84,
          "name": "C6",
          "ticks": 94295,
          "time": 122.77994791666667,
          "velocity": 0.14960629921259844
        },
        {
          "duration": 0,
          "durationTicks": 0,
          "midi": 71,
          "name": "B4",
          "ticks": 94368,
          "time": 122.875,
          "velocity": 0.16535433070866143
        },
        {
          "duration": 0,
          "durationTicks": 0,
          "midi": 87,
          "name": "D#6",
          "ticks": 94368,
          "time": 122.875,
          "velocity": 0.12598425196850394
        },
        {
          "duration": 0.25390625,
          "durationTicks": 195,
          "midi": 48,
          "name": "C3",
          "ticks": 94377,
          "time": 122.88671875,
          "velocity": 0.3779527559055118
        },
        {
          "duration": 0,
          "durationTicks": 0,
          "midi": 31,
          "name": "G1",
          "ticks": 94396,
          "time": 122.91145833333333,
          "velocity": 0.29133858267716534
        },
        {
          "duration": 0.09375,
          "durationTicks": 72,
          "midi": 68,
          "name": "G#4",
          "ticks": 94396,
          "time": 122.91145833333333,
          "velocity": 0.1889763779527559
        },
        {
          "duration": 0.25390625,
          "durationTicks": 195,
          "midi": 79,
          "name": "G5",
          "ticks": 94396,
          "time": 122.91145833333333,
          "velocity": 0.2283464566929134
        },
        {
          "duration": 0.1263020833333428,
          "durationTicks": 97,
          "midi": 75,
          "name": "D#5",
          "ticks": 94450,
          "time": 122.98177083333333,
          "velocity": 0.1968503937007874
        },
        {
          "duration": 0,
          "durationTicks": 0,
          "midi": 80,
          "name": "G#5",
          "ticks": 94459,
          "time": 122.99348958333333,
          "velocity": 0.11023622047244094
        },
        {
          "duration": 0.03255208333334281,
          "durationTicks": 25,
          "midi": 68,
          "name": "G#4",
          "ticks": 94468,
          "time": 123.00520833333333,
          "velocity": 0.1968503937007874
        },
        {
          "duration": 0.1276041666666714,
          "durationTicks": 98,
          "midi": 67,
          "name": "G4",
          "ticks": 94495,
          "time": 123.04036458333333,
          "velocity": 0.2283464566929134
        },
        {
          "duration": 0,
          "durationTicks": 0,
          "midi": 72,
          "name": "C5",
          "ticks": 94558,
          "time": 123.12239583333333,
          "velocity": 0.14173228346456693
        },
        {
          "duration": 0,
          "durationTicks": 0,
          "midi": 57,
          "name": "A3",
          "ticks": 94567,
          "time": 123.13411458333333,
          "velocity": 0.2992125984251969
        },
        {
          "duration": 0,
          "durationTicks": 0,
          "midi": 86,
          "name": "D6",
          "ticks": 94567,
          "time": 123.13411458333333,
          "velocity": 0.08661417322834646
        },
        {
          "duration": 0.12890625,
          "durationTicks": 99,
          "midi": 82,
          "name": "A#5",
          "ticks": 94567,
          "time": 123.13411458333333,
          "velocity": 0.11023622047244094
        },
        {
          "duration": 0,
          "durationTicks": 0,
          "midi": 68,
          "name": "G#4",
          "ticks": 94577,
          "time": 123.14713541666667,
          "velocity": 0.2047244094488189
        },
        {
          "duration": 0,
          "durationTicks": 0,
          "midi": 74,
          "name": "D5",
          "ticks": 94577,
          "time": 123.14713541666667,
          "velocity": 0.1732283464566929
        },
        {
          "duration": 0,
          "durationTicks": 0,
          "midi": 35,
          "name": "B1",
          "ticks": 94577,
          "time": 123.14713541666667,
          "velocity": 0.4330708661417323
        },
        {
          "duration": 0,
          "durationTicks": 0,
          "midi": 70,
          "name": "A#4",
          "ticks": 94577,
          "time": 123.14713541666667,
          "velocity": 0.08661417322834646
        },
        {
          "duration": 0,
          "durationTicks": 0,
          "midi": 77,
          "name": "F5",
          "ticks": 94577,
          "time": 123.14713541666667,
          "velocity": 0.15748031496062992
        },
        {
          "duration": 0,
          "durationTicks": 0,
          "midi": 56,
          "name": "G#3",
          "ticks": 94586,
          "time": 123.15885416666667,
          "velocity": 0.2283464566929134
        },
        {
          "duration": 0,
          "durationTicks": 0,
          "midi": 65,
          "name": "F4",
          "ticks": 94586,
          "time": 123.15885416666667,
          "velocity": 0.23622047244094488
        },
        {
          "duration": 0,
          "durationTicks": 0,
          "midi": 91,
          "name": "G6",
          "ticks": 94586,
          "time": 123.15885416666667,
          "velocity": 0.11023622047244094
        },
        {
          "duration": 0,
          "durationTicks": 0,
          "midi": 75,
          "name": "D#5",
          "ticks": 94595,
          "time": 123.17057291666667,
          "velocity": 0.1889763779527559
        },
        {
          "duration": 0,
          "durationTicks": 0,
          "midi": 62,
          "name": "D4",
          "ticks": 94605,
          "time": 123.18359375,
          "velocity": 0.2047244094488189
        },
        {
          "duration": 0,
          "durationTicks": 0,
          "midi": 34,
          "name": "A#1",
          "ticks": 94605,
          "time": 123.18359375,
          "velocity": 0.3779527559055118
        },
        {
          "duration": 0.1067708333333286,
          "durationTicks": 82,
          "midi": 58,
          "name": "A#3",
          "ticks": 94605,
          "time": 123.18359375,
          "velocity": 0.2125984251968504
        },
        {
          "duration": 0,
          "durationTicks": 0,
          "midi": 68,
          "name": "G#4",
          "ticks": 94614,
          "time": 123.1953125,
          "velocity": 0.2125984251968504
        },
        {
          "duration": 0,
          "durationTicks": 0,
          "midi": 63,
          "name": "D#4",
          "ticks": 94623,
          "time": 123.20703125,
          "velocity": 0.25984251968503935
        },
        {
          "duration": 0.2356770833333428,
          "durationTicks": 181,
          "midi": 77,
          "name": "F5",
          "ticks": 94633,
          "time": 123.22005208333333,
          "velocity": 0.16535433070866143
        },
        {
          "duration": 0,
          "durationTicks": 0,
          "midi": 35,
          "name": "B1",
          "ticks": 94642,
          "time": 123.23177083333333,
          "velocity": 0.3858267716535433
        },
        {
          "duration": 0,
          "durationTicks": 0,
          "midi": 74,
          "name": "D5",
          "ticks": 94642,
          "time": 123.23177083333333,
          "velocity": 0.1968503937007874
        },
        {
          "duration": 0,
          "durationTicks": 0,
          "midi": 65,
          "name": "F4",
          "ticks": 94642,
          "time": 123.23177083333333,
          "velocity": 0.2204724409448819
        },
        {
          "duration": 0,
          "durationTicks": 0,
          "midi": 75,
          "name": "D#5",
          "ticks": 94659,
          "time": 123.25390625,
          "velocity": 0.16535433070866143
        },
        {
          "duration": 0,
          "durationTicks": 0,
          "midi": 35,
          "name": "B1",
          "ticks": 94669,
          "time": 123.26692708333333,
          "velocity": 0.3858267716535433
        },
        {
          "duration": 0.1263020833333428,
          "durationTicks": 97,
          "midi": 62,
          "name": "D4",
          "ticks": 94678,
          "time": 123.27864583333333,
          "velocity": 0.1732283464566929
        },
        {
          "duration": 0.020833333333342807,
          "durationTicks": 16,
          "midi": 58,
          "name": "A#3",
          "ticks": 94687,
          "time": 123.29036458333333,
          "velocity": 0.2440944881889764
        },
        {
          "duration": 0,
          "durationTicks": 0,
          "midi": 34,
          "name": "A#1",
          "ticks": 94687,
          "time": 123.29036458333333,
          "velocity": 0.41732283464566927
        },
        {
          "duration": 0.1263020833333428,
          "durationTicks": 97,
          "midi": 65,
          "name": "F4",
          "ticks": 94687,
          "time": 123.29036458333333,
          "velocity": 0.18110236220472442
        },
        {
          "duration": 0.1263020833333428,
          "durationTicks": 97,
          "midi": 68,
          "name": "G#4",
          "ticks": 94687,
          "time": 123.29036458333333,
          "velocity": 0.15748031496062992
        },
        {
          "duration": 0,
          "durationTicks": 0,
          "midi": 58,
          "name": "A#3",
          "ticks": 94714,
          "time": 123.32552083333333,
          "velocity": 0.2283464566929134
        },
        {
          "duration": 0,
          "durationTicks": 0,
          "midi": 35,
          "name": "B1",
          "ticks": 94732,
          "time": 123.34895833333333,
          "velocity": 0.36220472440944884
        },
        {
          "duration": 0,
          "durationTicks": 0,
          "midi": 34,
          "name": "A#1",
          "ticks": 94750,
          "time": 123.37239583333333,
          "velocity": 0.33070866141732286
        },
        {
          "duration": 0,
          "durationTicks": 0,
          "midi": 87,
          "name": "D#6",
          "ticks": 94759,
          "time": 123.38411458333333,
          "velocity": 0.1732283464566929
        },
        {
          "duration": 0.08333333333334281,
          "durationTicks": 64,
          "midi": 46,
          "name": "A#2",
          "ticks": 94768,
          "time": 123.39583333333333,
          "velocity": 0.36220472440944884
        },
        {
          "duration": 0.12890625,
          "durationTicks": 99,
          "midi": 72,
          "name": "C5",
          "ticks": 94787,
          "time": 123.42057291666667,
          "velocity": 0.2125984251968504
        },
        {
          "duration": 0,
          "durationTicks": 0,
          "midi": 62,
          "name": "D4",
          "ticks": 94796,
          "time": 123.43229166666667,
          "velocity": 0.1732283464566929
        },
        {
          "duration": 0,
          "durationTicks": 0,
          "midi": 53,
          "name": "F3",
          "ticks": 94796,
          "time": 123.43229166666667,
          "velocity": 0.2440944881889764
        },
        {
          "duration": 0.018229166666657193,
          "durationTicks": 14,
          "midi": 77,
          "name": "F5",
          "ticks": 94814,
          "time": 123.45572916666667,
          "velocity": 0.14960629921259844
        },
        {
          "duration": 0,
          "durationTicks": 0,
          "midi": 76,
          "name": "E5",
          "ticks": 94823,
          "time": 123.46744791666667,
          "velocity": 0.11811023622047244
        },
        {
          "duration": 0.04557291666665719,
          "durationTicks": 35,
          "midi": 46,
          "name": "A#2",
          "ticks": 94832,
          "time": 123.47916666666667,
          "velocity": 0.36220472440944884
        },
        {
          "duration": 0.3815104166666714,
          "durationTicks": 293,
          "midi": 75,
          "name": "D#5",
          "ticks": 94842,
          "time": 123.4921875,
          "velocity": 0.2047244094488189
        },
        {
          "duration": 0,
          "durationTicks": 0,
          "midi": 47,
          "name": "B2",
          "ticks": 94851,
          "time": 123.50390625,
          "velocity": 0.3937007874015748
        },
        {
          "duration": 0,
          "durationTicks": 0,
          "midi": 57,
          "name": "A3",
          "ticks": 94860,
          "time": 123.515625,
          "velocity": 0.33858267716535434
        },
        {
          "duration": 0,
          "durationTicks": 0,
          "midi": 46,
          "name": "A#2",
          "ticks": 94869,
          "time": 123.52734375,
          "velocity": 0.3779527559055118
        },
        {
          "duration": 0.1276041666666714,
          "durationTicks": 98,
          "midi": 70,
          "name": "A#4",
          "ticks": 94869,
          "time": 123.52734375,
          "velocity": 0.08661417322834646
        },
        {
          "duration": 0,
          "durationTicks": 0,
          "midi": 56,
          "name": "G#3",
          "ticks": 94879,
          "time": 123.54036458333333,
          "velocity": 0.2992125984251969
        },
        {
          "duration": 0,
          "durationTicks": 0,
          "midi": 65,
          "name": "F4",
          "ticks": 94897,
          "time": 123.56380208333333,
          "velocity": 0.1732283464566929
        },
        {
          "duration": 0,
          "durationTicks": 0,
          "midi": 46,
          "name": "A#2",
          "ticks": 94907,
          "time": 123.57682291666667,
          "velocity": 0.4094488188976378
        },
        {
          "duration": 0,
          "durationTicks": 0,
          "midi": 66,
          "name": "F#4",
          "ticks": 94951,
          "time": 123.63411458333333,
          "velocity": 0.18110236220472442
        },
        {
          "duration": 0,
          "durationTicks": 0,
          "midi": 28,
          "name": "E1",
          "ticks": 94960,
          "time": 123.64583333333333,
          "velocity": 0.4015748031496063
        },
        {
          "duration": 0,
          "durationTicks": 0,
          "midi": 63,
          "name": "D#4",
          "ticks": 94960,
          "time": 123.64583333333333,
          "velocity": 0.14960629921259844
        },
        {
          "duration": 0,
          "durationTicks": 0,
          "midi": 29,
          "name": "F1",
          "ticks": 94970,
          "time": 123.65885416666667,
          "velocity": 0.4330708661417323
        },
        {
          "duration": 0,
          "durationTicks": 0,
          "midi": 77,
          "name": "F5",
          "ticks": 94970,
          "time": 123.65885416666667,
          "velocity": 0.16535433070866143
        },
        {
          "duration": 0.1263020833333286,
          "durationTicks": 97,
          "midi": 68,
          "name": "G#4",
          "ticks": 94970,
          "time": 123.65885416666667,
          "velocity": 0.10236220472440945
        },
        {
          "duration": 0.2526041666666572,
          "durationTicks": 194,
          "midi": 72,
          "name": "C5",
          "ticks": 94970,
          "time": 123.65885416666667,
          "velocity": 0.2440944881889764
        },
        {
          "duration": 0,
          "durationTicks": 0,
          "midi": 30,
          "name": "F#1",
          "ticks": 94979,
          "time": 123.67057291666667,
          "velocity": 0.4330708661417323
        },
        {
          "duration": 0,
          "durationTicks": 0,
          "midi": 65,
          "name": "F4",
          "ticks": 94997,
          "time": 123.69401041666667,
          "velocity": 0.1968503937007874
        },
        {
          "duration": 0,
          "durationTicks": 0,
          "midi": 29,
          "name": "F1",
          "ticks": 95006,
          "time": 123.70572916666667,
          "velocity": 0.4015748031496063
        },
        {
          "duration": 0.1263020833333286,
          "durationTicks": 97,
          "midi": 68,
          "name": "G#4",
          "ticks": 95060,
          "time": 123.77604166666667,
          "velocity": 0.14960629921259844
        },
        {
          "duration": 0,
          "durationTicks": 0,
          "midi": 66,
          "name": "F#4",
          "ticks": 95096,
          "time": 123.82291666666667,
          "velocity": 0.14960629921259844
        },
        {
          "duration": 0,
          "durationTicks": 0,
          "midi": 77,
          "name": "F5",
          "ticks": 95105,
          "time": 123.83463541666667,
          "velocity": 0.1732283464566929
        },
        {
          "duration": 0,
          "durationTicks": 0,
          "midi": 28,
          "name": "E1",
          "ticks": 95142,
          "time": 123.8828125,
          "velocity": 0.3700787401574803
        },
        {
          "duration": 0.125,
          "durationTicks": 96,
          "midi": 29,
          "name": "F1",
          "ticks": 95159,
          "time": 123.90494791666667,
          "velocity": 0.3779527559055118
        },
        {
          "duration": 0.125,
          "durationTicks": 96,
          "midi": 63,
          "name": "D#4",
          "ticks": 95159,
          "time": 123.90494791666667,
          "velocity": 0.2283464566929134
        },
        {
          "duration": 0.125,
          "durationTicks": 96,
          "midi": 48,
          "name": "C3",
          "ticks": 95177,
          "time": 123.92838541666667,
          "velocity": 0.05511811023622047
        },
        {
          "duration": 0.25390625,
          "durationTicks": 195,
          "midi": 72,
          "name": "C5",
          "ticks": 95320,
          "time": 124.11458333333333,
          "velocity": 0.1968503937007874
        },
        {
          "duration": 0,
          "durationTicks": 0,
          "midi": 56,
          "name": "G#3",
          "ticks": 95337,
          "time": 124.13671875,
          "velocity": 0.2992125984251969
        },
        {
          "duration": 0,
          "durationTicks": 0,
          "midi": 63,
          "name": "D#4",
          "ticks": 95337,
          "time": 124.13671875,
          "velocity": 0.2204724409448819
        },
        {
          "duration": 0,
          "durationTicks": 0,
          "midi": 41,
          "name": "F2",
          "ticks": 95337,
          "time": 124.13671875,
          "velocity": 0.4094488188976378
        },
        {
          "duration": 0.1276041666666714,
          "durationTicks": 98,
          "midi": 82,
          "name": "A#5",
          "ticks": 95337,
          "time": 124.13671875,
          "velocity": 0.11023622047244094
        },
        {
          "duration": 0.1276041666666714,
          "durationTicks": 98,
          "midi": 80,
          "name": "G#5",
          "ticks": 95337,
          "time": 124.13671875,
          "velocity": 0.1732283464566929
        },
        {
          "duration": 0,
          "durationTicks": 0,
          "midi": 77,
          "name": "F5",
          "ticks": 95346,
          "time": 124.1484375,
          "velocity": 0.1968503937007874
        },
        {
          "duration": 0,
          "durationTicks": 0,
          "midi": 65,
          "name": "F4",
          "ticks": 95356,
          "time": 124.16145833333333,
          "velocity": 0.2204724409448819
        },
        {
          "duration": 0,
          "durationTicks": 0,
          "midi": 56,
          "name": "G#3",
          "ticks": 95365,
          "time": 124.17317708333333,
          "velocity": 0.18110236220472442
        },
        {
          "duration": 0,
          "durationTicks": 0,
          "midi": 87,
          "name": "D#6",
          "ticks": 95365,
          "time": 124.17317708333333,
          "velocity": 0.05511811023622047
        },
        {
          "duration": 0.2526041666666714,
          "durationTicks": 194,
          "midi": 60,
          "name": "C4",
          "ticks": 95365,
          "time": 124.17317708333333,
          "velocity": 0.2125984251968504
        },
        {
          "duration": 0,
          "durationTicks": 0,
          "midi": 42,
          "name": "F#2",
          "ticks": 95383,
          "time": 124.19661458333333,
          "velocity": 0.3779527559055118
        },
        {
          "duration": 0,
          "durationTicks": 0,
          "midi": 65,
          "name": "F4",
          "ticks": 95392,
          "time": 124.20833333333333,
          "velocity": 0.2125984251968504
        },
        {
          "duration": 0.1263020833333428,
          "durationTicks": 97,
          "midi": 75,
          "name": "D#5",
          "ticks": 95392,
          "time": 124.20833333333333,
          "velocity": 0.1968503937007874
        },
        {
          "duration": 0.1263020833333428,
          "durationTicks": 97,
          "midi": 41,
          "name": "F2",
          "ticks": 95401,
          "time": 124.22005208333333,
          "velocity": 0.3937007874015748
        },
        {
          "duration": 0,
          "durationTicks": 0,
          "midi": 65,
          "name": "F4",
          "ticks": 95437,
          "time": 124.26692708333333,
          "velocity": 0.1889763779527559
        },
        {
          "duration": 0,
          "durationTicks": 0,
          "midi": 63,
          "name": "D#4",
          "ticks": 95464,
          "time": 124.30208333333333,
          "velocity": 0.2047244094488189
        },
        {
          "duration": 0,
          "durationTicks": 0,
          "midi": 77,
          "name": "F5",
          "ticks": 95501,
          "time": 124.35026041666667,
          "velocity": 0.07086614173228346
        },
        {
          "duration": 0.234375,
          "durationTicks": 180,
          "midi": 75,
          "name": "D#5",
          "ticks": 95501,
          "time": 124.35026041666667,
          "velocity": 0.16535433070866143
        },
        {
          "duration": 0.125,
          "durationTicks": 96,
          "midi": 63,
          "name": "D#4",
          "ticks": 95510,
          "time": 124.36197916666667,
          "velocity": 0.2204724409448819
        },
        {
          "duration": 0,
          "durationTicks": 0,
          "midi": 28,
          "name": "E1",
          "ticks": 95528,
          "time": 124.38541666666667,
          "velocity": 0.3779527559055118
        },
        {
          "duration": 0.1263020833333428,
          "durationTicks": 97,
          "midi": 27,
          "name": "D#1",
          "ticks": 95545,
          "time": 124.40755208333333,
          "velocity": 0.3779527559055118
        },
        {
          "duration": 0.1263020833333428,
          "durationTicks": 97,
          "midi": 80,
          "name": "G#5",
          "ticks": 95554,
          "time": 124.41927083333333,
          "velocity": 0.1732283464566929
        },
        {
          "duration": 0.1263020833333428,
          "durationTicks": 97,
          "midi": 91,
          "name": "G6",
          "ticks": 95635,
          "time": 124.52473958333333,
          "velocity": 0.13385826771653545
        },
        {
          "duration": 0.1263020833333428,
          "durationTicks": 97,
          "midi": 79,
          "name": "G5",
          "ticks": 95644,
          "time": 124.53645833333333,
          "velocity": 0.16535433070866143
        },
        {
          "duration": 0.016927083333328596,
          "durationTicks": 13,
          "midi": 75,
          "name": "D#5",
          "ticks": 95681,
          "time": 124.58463541666667,
          "velocity": 0.1732283464566929
        },
        {
          "duration": 0,
          "durationTicks": 0,
          "midi": 65,
          "name": "F4",
          "ticks": 95681,
          "time": 124.58463541666667,
          "velocity": 0.14173228346456693
        },
        {
          "duration": 0,
          "durationTicks": 0,
          "midi": 70,
          "name": "A#4",
          "ticks": 95698,
          "time": 124.60677083333333,
          "velocity": 0.1968503937007874
        },
        {
          "duration": 0,
          "durationTicks": 0,
          "midi": 64,
          "name": "E4",
          "ticks": 95716,
          "time": 124.63020833333333,
          "velocity": 0.1968503937007874
        },
        {
          "duration": 0.1263020833333428,
          "durationTicks": 97,
          "midi": 68,
          "name": "G#4",
          "ticks": 95716,
          "time": 124.63020833333333,
          "velocity": 0.1968503937007874
        },
        {
          "duration": 0,
          "durationTicks": 0,
          "midi": 29,
          "name": "F1",
          "ticks": 95725,
          "time": 124.64192708333333,
          "velocity": 0.41732283464566927
        },
        {
          "duration": 0,
          "durationTicks": 0,
          "midi": 60,
          "name": "C4",
          "ticks": 95725,
          "time": 124.64192708333333,
          "velocity": 0.16535433070866143
        },
        {
          "duration": 0.1263020833333428,
          "durationTicks": 97,
          "midi": 87,
          "name": "D#6",
          "ticks": 95725,
          "time": 124.64192708333333,
          "velocity": 0.11023622047244094
        },
        {
          "duration": 0,
          "durationTicks": 0,
          "midi": 75,
          "name": "D#5",
          "ticks": 95734,
          "time": 124.65364583333333,
          "velocity": 0.1732283464566929
        },
        {
          "duration": 0,
          "durationTicks": 0,
          "midi": 65,
          "name": "F4",
          "ticks": 95734,
          "time": 124.65364583333333,
          "velocity": 0.1732283464566929
        },
        {
          "duration": 0,
          "durationTicks": 0,
          "midi": 30,
          "name": "F#1",
          "ticks": 95734,
          "time": 124.65364583333333,
          "velocity": 0.4330708661417323
        },
        {
          "duration": 0,
          "durationTicks": 0,
          "midi": 70,
          "name": "A#4",
          "ticks": 95744,
          "time": 124.66666666666667,
          "velocity": 0.1968503937007874
        },
        {
          "duration": 0,
          "durationTicks": 0,
          "midi": 75,
          "name": "D#5",
          "ticks": 95771,
          "time": 124.70182291666667,
          "velocity": 0.2204724409448819
        },
        {
          "duration": 0.125,
          "durationTicks": 96,
          "midi": 29,
          "name": "F1",
          "ticks": 95771,
          "time": 124.70182291666667,
          "velocity": 0.4015748031496063
        },
        {
          "duration": 0,
          "durationTicks": 0,
          "midi": 60,
          "name": "C4",
          "ticks": 95780,
          "time": 124.71354166666667,
          "velocity": 0.18110236220472442
        },
        {
          "duration": 0,
          "durationTicks": 0,
          "midi": 63,
          "name": "D#4",
          "ticks": 95780,
          "time": 124.71354166666667,
          "velocity": 0.1732283464566929
        },
        {
          "duration": 0,
          "durationTicks": 0,
          "midi": 70,
          "name": "A#4",
          "ticks": 95798,
          "time": 124.73697916666667,
          "velocity": 0.1732283464566929
        },
        {
          "duration": 0.125,
          "durationTicks": 96,
          "midi": 48,
          "name": "C3",
          "ticks": 95815,
          "time": 124.75911458333333,
          "velocity": 0.07874015748031496
        },
        {
          "duration": 0,
          "durationTicks": 0,
          "midi": 75,
          "name": "D#5",
          "ticks": 95824,
          "time": 124.77083333333333,
          "velocity": 0.12598425196850394
        },
        {
          "duration": 0.125,
          "durationTicks": 96,
          "midi": 72,
          "name": "C5",
          "ticks": 95824,
          "time": 124.77083333333333,
          "velocity": 0.14173228346456693
        },
        {
          "duration": 0.1263020833333286,
          "durationTicks": 97,
          "midi": 60,
          "name": "C4",
          "ticks": 95904,
          "time": 124.875,
          "velocity": 0.1732283464566929
        },
        {
          "duration": 0,
          "durationTicks": 0,
          "midi": 64,
          "name": "E4",
          "ticks": 95914,
          "time": 124.88802083333333,
          "velocity": 0.1968503937007874
        },
        {
          "duration": 0.1263020833333428,
          "durationTicks": 97,
          "midi": 87,
          "name": "D#6",
          "ticks": 95914,
          "time": 124.88802083333333,
          "velocity": 0.09448818897637795
        },
        {
          "duration": 0,
          "durationTicks": 0,
          "midi": 77,
          "name": "F5",
          "ticks": 95923,
          "time": 124.89973958333333,
          "velocity": 0.18110236220472442
        },
        {
          "duration": 0.1263020833333428,
          "durationTicks": 97,
          "midi": 68,
          "name": "G#4",
          "ticks": 95923,
          "time": 124.89973958333333,
          "velocity": 0.1889763779527559
        },
        {
          "duration": 0.1263020833333428,
          "durationTicks": 97,
          "midi": 79,
          "name": "G5",
          "ticks": 95923,
          "time": 124.89973958333333,
          "velocity": 0.14173228346456693
        },
        {
          "duration": 0.1263020833333428,
          "durationTicks": 97,
          "midi": 63,
          "name": "D#4",
          "ticks": 95932,
          "time": 124.91145833333333,
          "velocity": 0.2125984251968504
        },
        {
          "duration": 0,
          "durationTicks": 0,
          "midi": 86,
          "name": "D6",
          "ticks": 96094,
          "time": 125.12239583333333,
          "velocity": 0.11023622047244094
        },
        {
          "duration": 0.1263020833333428,
          "durationTicks": 97,
          "midi": 80,
          "name": "G#5",
          "ticks": 96094,
          "time": 125.12239583333333,
          "velocity": 0.1732283464566929
        },
        {
          "duration": 0.1171875,
          "durationTicks": 90,
          "midi": 72,
          "name": "C5",
          "ticks": 96094,
          "time": 125.12239583333333,
          "velocity": 0.16535433070866143
        },
        {
          "duration": 0,
          "durationTicks": 0,
          "midi": 42,
          "name": "F#2",
          "ticks": 96103,
          "time": 125.13411458333333,
          "velocity": 0.4015748031496063
        },
        {
          "duration": 0,
          "durationTicks": 0,
          "midi": 77,
          "name": "F5",
          "ticks": 96103,
          "time": 125.13411458333333,
          "velocity": 0.2125984251968504
        },
        {
          "duration": 0,
          "durationTicks": 0,
          "midi": 57,
          "name": "A3",
          "ticks": 96112,
          "time": 125.14583333333333,
          "velocity": 0.2992125984251969
        },
        {
          "duration": 0.125,
          "durationTicks": 96,
          "midi": 68,
          "name": "G#4",
          "ticks": 96112,
          "time": 125.14583333333333,
          "velocity": 0.1889763779527559
        },
        {
          "duration": 0,
          "durationTicks": 0,
          "midi": 56,
          "name": "G#3",
          "ticks": 96130,
          "time": 125.16927083333333,
          "velocity": 0.18110236220472442
        },
        {
          "duration": 0,
          "durationTicks": 0,
          "midi": 79,
          "name": "G5",
          "ticks": 96130,
          "time": 125.16927083333333,
          "velocity": 0.06299212598425197
        },
        {
          "duration": 0.125,
          "durationTicks": 96,
          "midi": 75,
          "name": "D#5",
          "ticks": 96130,
          "time": 125.16927083333333,
          "velocity": 0.14960629921259844
        },
        {
          "duration": 0,
          "durationTicks": 0,
          "midi": 60,
          "name": "C4",
          "ticks": 96139,
          "time": 125.18098958333333,
          "velocity": 0.1732283464566929
        },
        {
          "duration": 0,
          "durationTicks": 0,
          "midi": 43,
          "name": "G2",
          "ticks": 96139,
          "time": 125.18098958333333,
          "velocity": 0.3779527559055118
        },
        {
          "duration": 0,
          "durationTicks": 0,
          "midi": 63,
          "name": "D#4",
          "ticks": 96166,
          "time": 125.21614583333333,
          "velocity": 0.1968503937007874
        },
        {
          "duration": 0,
          "durationTicks": 0,
          "midi": 44,
          "name": "G#2",
          "ticks": 96184,
          "time": 125.23958333333333,
          "velocity": 0.3228346456692913
        },
        {
          "duration": 0,
          "durationTicks": 0,
          "midi": 66,
          "name": "F#4",
          "ticks": 96184,
          "time": 125.23958333333333,
          "velocity": 0.1732283464566929
        },
        {
          "duration": 0.009114583333342807,
          "durationTicks": 7,
          "midi": 72,
          "name": "C5",
          "ticks": 96184,
          "time": 125.23958333333333,
          "velocity": 0.14173228346456693
        },
        {
          "duration": 0.125,
          "durationTicks": 96,
          "midi": 31,
          "name": "G1",
          "ticks": 96210,
          "time": 125.2734375,
          "velocity": 0.3779527559055118
        },
        {
          "duration": 0.125,
          "durationTicks": 96,
          "midi": 70,
          "name": "A#4",
          "ticks": 96210,
          "time": 125.2734375,
          "velocity": 0.14960629921259844
        },
        {
          "duration": 0,
          "durationTicks": 0,
          "midi": 50,
          "name": "D3",
          "ticks": 96246,
          "time": 125.3203125,
          "velocity": 0.07086614173228346
        },
        {
          "duration": 0,
          "durationTicks": 0,
          "midi": 87,
          "name": "D#6",
          "ticks": 96282,
          "time": 125.3671875,
          "velocity": 0.14173228346456693
        },
        {
          "duration": 0.1263020833333286,
          "durationTicks": 97,
          "midi": 80,
          "name": "G#5",
          "ticks": 96309,
          "time": 125.40234375,
          "velocity": 0.09448818897637795
        },
        {
          "duration": 0.1263020833333286,
          "durationTicks": 97,
          "midi": 68,
          "name": "G#4",
          "ticks": 96318,
          "time": 125.4140625,
          "velocity": 0.1968503937007874
        },
        {
          "duration": 0,
          "durationTicks": 0,
          "midi": 44,
          "name": "G#2",
          "ticks": 96380,
          "time": 125.49479166666667,
          "velocity": 0.4015748031496063
        },
        {
          "duration": 0,
          "durationTicks": 0,
          "midi": 58,
          "name": "A#3",
          "ticks": 96380,
          "time": 125.49479166666667,
          "velocity": 0.1968503937007874
        },
        {
          "duration": 0,
          "durationTicks": 0,
          "midi": 87,
          "name": "D#6",
          "ticks": 96380,
          "time": 125.49479166666667,
          "velocity": 0.11023622047244094
        },
        {
          "duration": 0,
          "durationTicks": 0,
          "midi": 72,
          "name": "C5",
          "ticks": 96390,
          "time": 125.5078125,
          "velocity": 0.1968503937007874
        },
        {
          "duration": 0,
          "durationTicks": 0,
          "midi": 82,
          "name": "A#5",
          "ticks": 96390,
          "time": 125.5078125,
          "velocity": 0.07874015748031496
        },
        {
          "duration": 0.1171875,
          "durationTicks": 90,
          "midi": 75,
          "name": "D#5",
          "ticks": 96390,
          "time": 125.5078125,
          "velocity": 0.18110236220472442
        },
        {
          "duration": 0,
          "durationTicks": 0,
          "midi": 45,
          "name": "A2",
          "ticks": 96399,
          "time": 125.51953125,
          "velocity": 0.3937007874015748
        },
        {
          "duration": 0.1263020833333286,
          "durationTicks": 97,
          "midi": 63,
          "name": "D#4",
          "ticks": 96399,
          "time": 125.51953125,
          "velocity": 0.2204724409448819
        },
        {
          "duration": 0,
          "durationTicks": 0,
          "midi": 31,
          "name": "G1",
          "ticks": 96408,
          "time": 125.53125,
          "velocity": 0.29133858267716534
        },
        {
          "duration": 0.1263020833333286,
          "durationTicks": 97,
          "midi": 67,
          "name": "G4",
          "ticks": 96408,
          "time": 125.53125,
          "velocity": 0.29133858267716534
        },
        {
          "duration": 0,
          "durationTicks": 0,
          "midi": 58,
          "name": "A#3",
          "ticks": 96417,
          "time": 125.54296875,
          "velocity": 0.1889763779527559
        },
        {
          "duration": 0.1263020833333286,
          "durationTicks": 97,
          "midi": 44,
          "name": "G#2",
          "ticks": 96417,
          "time": 125.54296875,
          "velocity": 0.3779527559055118
        },
        {
          "duration": 0.009114583333328596,
          "durationTicks": 7,
          "midi": 75,
          "name": "D#5",
          "ticks": 96480,
          "time": 125.625,
          "velocity": 0.2204724409448819
        },
        {
          "duration": 0,
          "durationTicks": 0,
          "midi": 68,
          "name": "G#4",
          "ticks": 96489,
          "time": 125.63671875,
          "velocity": 0.1968503937007874
        },
        {
          "duration": 0.1263020833333286,
          "durationTicks": 97,
          "midi": 79,
          "name": "G5",
          "ticks": 96498,
          "time": 125.6484375,
          "velocity": 0.14173228346456693
        },
        {
          "duration": 0,
          "durationTicks": 0,
          "midi": 60,
          "name": "C4",
          "ticks": 96507,
          "time": 125.66015625,
          "velocity": 0.2047244094488189
        },
        {
          "duration": 0.1263020833333286,
          "durationTicks": 97,
          "midi": 67,
          "name": "G4",
          "ticks": 96507,
          "time": 125.66015625,
          "velocity": 0.2440944881889764
        },
        {
          "duration": 0,
          "durationTicks": 0,
          "midi": 58,
          "name": "A#3",
          "ticks": 96526,
          "time": 125.68489583333333,
          "velocity": 0.1968503937007874
        },
        {
          "duration": 0,
          "durationTicks": 0,
          "midi": 86,
          "name": "D6",
          "ticks": 96526,
          "time": 125.68489583333333,
          "velocity": 0.07874015748031496
        },
        {
          "duration": 0.125,
          "durationTicks": 96,
          "midi": 63,
          "name": "D#4",
          "ticks": 96526,
          "time": 125.68489583333333,
          "velocity": 0.14960629921259844
        },
        {
          "duration": 0.125,
          "durationTicks": 96,
          "midi": 75,
          "name": "D#5",
          "ticks": 96535,
          "time": 125.69661458333333,
          "velocity": 0.18110236220472442
        },
        {
          "duration": 0,
          "durationTicks": 0,
          "midi": 58,
          "name": "A#3",
          "ticks": 96553,
          "time": 125.72005208333333,
          "velocity": 0.1889763779527559
        },
        {
          "duration": 0.1263020833333428,
          "durationTicks": 97,
          "midi": 44,
          "name": "G#2",
          "ticks": 96571,
          "time": 125.74348958333333,
          "velocity": 0.3779527559055118
        },
        {
          "duration": 0.1276041666666714,
          "durationTicks": 98,
          "midi": 75,
          "name": "D#5",
          "ticks": 96624,
          "time": 125.8125,
          "velocity": 0.16535433070866143
        },
        {
          "duration": 0,
          "durationTicks": 0,
          "midi": 63,
          "name": "D#4",
          "ticks": 96643,
          "time": 125.83723958333333,
          "velocity": 0.14173228346456693
        },
        {
          "duration": 0,
          "durationTicks": 0,
          "midi": 64,
          "name": "E4",
          "ticks": 96670,
          "time": 125.87239583333333,
          "velocity": 0.15748031496062992
        },
        {
          "duration": 0,
          "durationTicks": 0,
          "midi": 31,
          "name": "G1",
          "ticks": 96679,
          "time": 125.88411458333333,
          "velocity": 0.3779527559055118
        },
        {
          "duration": 0.1263020833333428,
          "durationTicks": 97,
          "midi": 60,
          "name": "C4",
          "ticks": 96679,
          "time": 125.88411458333333,
          "velocity": 0.25984251968503935
        },
        {
          "duration": 0.1263020833333286,
          "durationTicks": 97,
          "midi": 67,
          "name": "G4",
          "ticks": 96689,
          "time": 125.89713541666667,
          "velocity": 0.25984251968503935
        },
        {
          "duration": 0,
          "durationTicks": 0,
          "midi": 32,
          "name": "G#1",
          "ticks": 96698,
          "time": 125.90885416666667,
          "velocity": 0.3543307086614173
        },
        {
          "duration": 0,
          "durationTicks": 0,
          "midi": 70,
          "name": "A#4",
          "ticks": 96715,
          "time": 125.93098958333333,
          "velocity": 0.09448818897637795
        },
        {
          "duration": 0,
          "durationTicks": 0,
          "midi": 33,
          "name": "A1",
          "ticks": 96715,
          "time": 125.93098958333333,
          "velocity": 0.3464566929133858
        },
        {
          "duration": 0,
          "durationTicks": 0,
          "midi": 86,
          "name": "D6",
          "ticks": 96715,
          "time": 125.93098958333333,
          "velocity": 0.07086614173228346
        },
        {
          "duration": 0.3802083333333286,
          "durationTicks": 292,
          "midi": 75,
          "name": "D#5",
          "ticks": 96725,
          "time": 125.94401041666667,
          "velocity": 0.2204724409448819
        },
        {
          "duration": 0,
          "durationTicks": 0,
          "midi": 63,
          "name": "D#4",
          "ticks": 96734,
          "time": 125.95572916666667,
          "velocity": 0.1732283464566929
        },
        {
          "duration": 0,
          "durationTicks": 0,
          "midi": 57,
          "name": "A3",
          "ticks": 96859,
          "time": 126.11848958333333,
          "velocity": 0.30708661417322836
        },
        {
          "duration": 0,
          "durationTicks": 0,
          "midi": 66,
          "name": "F#4",
          "ticks": 96859,
          "time": 126.11848958333333,
          "velocity": 0.1732283464566929
        },
        {
          "duration": 0,
          "durationTicks": 0,
          "midi": 80,
          "name": "G#5",
          "ticks": 96859,
          "time": 126.11848958333333,
          "velocity": 0.14173228346456693
        },
        {
          "duration": 0,
          "durationTicks": 0,
          "midi": 90,
          "name": "F#6",
          "ticks": 96859,
          "time": 126.11848958333333,
          "velocity": 0.05511811023622047
        },
        {
          "duration": 0,
          "durationTicks": 0,
          "midi": 86,
          "name": "D6",
          "ticks": 96859,
          "time": 126.11848958333333,
          "velocity": 0.10236220472440945
        },
        {
          "duration": 0,
          "durationTicks": 0,
          "midi": 84,
          "name": "C6",
          "ticks": 96859,
          "time": 126.11848958333333,
          "velocity": 0.13385826771653545
        },
        {
          "duration": 0.12890625,
          "durationTicks": 99,
          "midi": 82,
          "name": "A#5",
          "ticks": 96859,
          "time": 126.11848958333333,
          "velocity": 0.09448818897637795
        },
        {
          "duration": 0,
          "durationTicks": 0,
          "midi": 34,
          "name": "A#1",
          "ticks": 96869,
          "time": 126.13151041666667,
          "velocity": 0.4094488188976378
        },
        {
          "duration": 0,
          "durationTicks": 0,
          "midi": 63,
          "name": "D#4",
          "ticks": 96869,
          "time": 126.13151041666667,
          "velocity": 0.1968503937007874
        },
        {
          "duration": 0,
          "durationTicks": 0,
          "midi": 77,
          "name": "F5",
          "ticks": 96869,
          "time": 126.13151041666667,
          "velocity": 0.09448818897637795
        },
        {
          "duration": 0,
          "durationTicks": 0,
          "midi": 95,
          "name": "B6",
          "ticks": 96869,
          "time": 126.13151041666667,
          "velocity": 0.09448818897637795
        },
        {
          "duration": 0,
          "durationTicks": 0,
          "midi": 60,
          "name": "C4",
          "ticks": 96869,
          "time": 126.13151041666667,
          "velocity": 0.2283464566929134
        },
        {
          "duration": 0.12890625,
          "durationTicks": 99,
          "midi": 72,
          "name": "C5",
          "ticks": 96869,
          "time": 126.13151041666667,
          "velocity": 0.23622047244094488
        },
        {
          "duration": 0,
          "durationTicks": 0,
          "midi": 56,
          "name": "G#3",
          "ticks": 96878,
          "time": 126.14322916666667,
          "velocity": 0.2677165354330709
        },
        {
          "duration": 0,
          "durationTicks": 0,
          "midi": 32,
          "name": "G#1",
          "ticks": 96887,
          "time": 126.15494791666667,
          "velocity": 0.36220472440944884
        },
        {
          "duration": 0.25390625,
          "durationTicks": 195,
          "midi": 67,
          "name": "G4",
          "ticks": 96887,
          "time": 126.15494791666667,
          "velocity": 0.2440944881889764
        },
        {
          "duration": 0,
          "durationTicks": 0,
          "midi": 86,
          "name": "D6",
          "ticks": 96896,
          "time": 126.16666666666667,
          "velocity": 0.08661417322834646
        },
        {
          "duration": 0.25390625,
          "durationTicks": 195,
          "midi": 63,
          "name": "D#4",
          "ticks": 96896,
          "time": 126.16666666666667,
          "velocity": 0.18110236220472442
        },
        {
          "duration": 0,
          "durationTicks": 0,
          "midi": 33,
          "name": "A1",
          "ticks": 96906,
          "time": 126.1796875,
          "velocity": 0.3779527559055118
        },
        {
          "duration": 0,
          "durationTicks": 0,
          "midi": 60,
          "name": "C4",
          "ticks": 96915,
          "time": 126.19140625,
          "velocity": 0.2125984251968504
        },
        {
          "duration": 0,
          "durationTicks": 0,
          "midi": 70,
          "name": "A#4",
          "ticks": 96924,
          "time": 126.203125,
          "velocity": 0.08661417322834646
        },
        {
          "duration": 0.1263020833333286,
          "durationTicks": 97,
          "midi": 32,
          "name": "G#1",
          "ticks": 96924,
          "time": 126.203125,
          "velocity": 0.3700787401574803
        },
        {
          "duration": 0,
          "durationTicks": 0,
          "midi": 73,
          "name": "C#5",
          "ticks": 96934,
          "time": 126.21614583333333,
          "velocity": 0.1889763779527559
        },
        {
          "duration": 0.1263020833333286,
          "durationTicks": 97,
          "midi": 51,
          "name": "D#3",
          "ticks": 96951,
          "time": 126.23828125,
          "velocity": 0.07874015748031496
        },
        {
          "duration": 0,
          "durationTicks": 0,
          "midi": 70,
          "name": "A#4",
          "ticks": 96961,
          "time": 126.25130208333333,
          "velocity": 0.08661417322834646
        },
        {
          "duration": 0.1263020833333428,
          "durationTicks": 97,
          "midi": 72,
          "name": "C5",
          "ticks": 96997,
          "time": 126.29817708333333,
          "velocity": 0.06299212598425197
        },
        {
          "duration": 0,
          "durationTicks": 0,
          "midi": 58,
          "name": "A#3",
          "ticks": 97033,
          "time": 126.34505208333333,
          "velocity": 0.1889763779527559
        },
        {
          "duration": 0,
          "durationTicks": 0,
          "midi": 34,
          "name": "A#1",
          "ticks": 97096,
          "time": 126.42708333333333,
          "velocity": 0.3937007874015748
        },
        {
          "duration": 0.125,
          "durationTicks": 96,
          "midi": 53,
          "name": "F3",
          "ticks": 97096,
          "time": 126.42708333333333,
          "velocity": 0.08661417322834646
        },
        {
          "duration": 0,
          "durationTicks": 0,
          "midi": 75,
          "name": "D#5",
          "ticks": 97141,
          "time": 126.48567708333333,
          "velocity": 0.15748031496062992
        },
        {
          "duration": 0.1236979166666714,
          "durationTicks": 95,
          "midi": 34,
          "name": "A#1",
          "ticks": 97150,
          "time": 126.49739583333333,
          "velocity": 0.3779527559055118
        },
        {
          "duration": 0,
          "durationTicks": 0,
          "midi": 54,
          "name": "F#3",
          "ticks": 97230,
          "time": 126.6015625,
          "velocity": 0.18110236220472442
        },
        {
          "duration": 0.125,
          "durationTicks": 96,
          "midi": 70,
          "name": "A#4",
          "ticks": 97247,
          "time": 126.62369791666667,
          "velocity": 0.1968503937007874
        },
        {
          "duration": 0,
          "durationTicks": 0,
          "midi": 57,
          "name": "A3",
          "ticks": 97257,
          "time": 126.63671875,
          "velocity": 0.30708661417322836
        },
        {
          "duration": 0,
          "durationTicks": 0,
          "midi": 63,
          "name": "D#4",
          "ticks": 97257,
          "time": 126.63671875,
          "velocity": 0.14960629921259844
        },
        {
          "duration": 0.1236979166666714,
          "durationTicks": 95,
          "midi": 39,
          "name": "D#2",
          "ticks": 97266,
          "time": 126.6484375,
          "velocity": 0.3779527559055118
        },
        {
          "duration": 0,
          "durationTicks": 0,
          "midi": 75,
          "name": "D#5",
          "ticks": 97328,
          "time": 126.72916666666667,
          "velocity": 0.1732283464566929
        },
        {
          "duration": 0,
          "durationTicks": 0,
          "midi": 56,
          "name": "G#3",
          "ticks": 97363,
          "time": 126.77473958333333,
          "velocity": 0.1968503937007874
        },
        {
          "duration": 0,
          "durationTicks": 0,
          "midi": 40,
          "name": "E2",
          "ticks": 97363,
          "time": 126.77473958333333,
          "velocity": 0.36220472440944884
        },
        {
          "duration": 0.37890625,
          "durationTicks": 291,
          "midi": 72,
          "name": "C5",
          "ticks": 97372,
          "time": 126.78645833333333,
          "velocity": 0.2125984251968504
        },
        {
          "duration": 0.125,
          "durationTicks": 96,
          "midi": 39,
          "name": "D#2",
          "ticks": 97399,
          "time": 126.82161458333333,
          "velocity": 0.41732283464566927
        },
        {
          "duration": 0,
          "durationTicks": 0,
          "midi": 56,
          "name": "G#3",
          "ticks": 97426,
          "time": 126.85677083333333,
          "velocity": 0.28346456692913385
        },
        {
          "duration": 0,
          "durationTicks": 0,
          "midi": 87,
          "name": "D#6",
          "ticks": 97436,
          "time": 126.86979166666667,
          "velocity": 0.14173228346456693
        },
        {
          "duration": 0,
          "durationTicks": 0,
          "midi": 56,
          "name": "G#3",
          "ticks": 97453,
          "time": 126.89192708333333,
          "velocity": 0.25984251968503935
        },
        {
          "duration": 0,
          "durationTicks": 0,
          "midi": 63,
          "name": "D#4",
          "ticks": 97453,
          "time": 126.89192708333333,
          "velocity": 0.06299212598425197
        },
        {
          "duration": 0,
          "durationTicks": 0,
          "midi": 70,
          "name": "A#4",
          "ticks": 97471,
          "time": 126.91536458333333,
          "velocity": 0.10236220472440945
        },
        {
          "duration": 0,
          "durationTicks": 0,
          "midi": 58,
          "name": "A#3",
          "ticks": 97498,
          "time": 126.95052083333333,
          "velocity": 0.14173228346456693
        },
        {
          "duration": 0,
          "durationTicks": 0,
          "midi": 40,
          "name": "E2",
          "ticks": 97525,
          "time": 126.98567708333333,
          "velocity": 0.36220472440944884
        },
        {
          "duration": 0,
          "durationTicks": 0,
          "midi": 75,
          "name": "D#5",
          "ticks": 97525,
          "time": 126.98567708333333,
          "velocity": 0.15748031496062992
        },
        {
          "duration": 0,
          "durationTicks": 0,
          "midi": 57,
          "name": "A3",
          "ticks": 97542,
          "time": 127.0078125,
          "velocity": 0.2755905511811024
        },
        {
          "duration": 0,
          "durationTicks": 0,
          "midi": 34,
          "name": "A#1",
          "ticks": 97578,
          "time": 127.0546875,
          "velocity": 0.36220472440944884
        },
        {
          "duration": 0,
          "durationTicks": 0,
          "midi": 56,
          "name": "G#3",
          "ticks": 97605,
          "time": 127.08984375,
          "velocity": 0.1732283464566929
        },
        {
          "duration": 0,
          "durationTicks": 0,
          "midi": 32,
          "name": "G#1",
          "ticks": 97605,
          "time": 127.08984375,
          "velocity": 0.3858267716535433
        },
        {
          "duration": 0,
          "durationTicks": 0,
          "midi": 73,
          "name": "C#5",
          "ticks": 97615,
          "time": 127.10286458333333,
          "velocity": 0.1732283464566929
        },
        {
          "duration": 0,
          "durationTicks": 0,
          "midi": 90,
          "name": "F#6",
          "ticks": 97624,
          "time": 127.11458333333333,
          "velocity": 0.07086614173228346
        },
        {
          "duration": 0,
          "durationTicks": 0,
          "midi": 86,
          "name": "D6",
          "ticks": 97624,
          "time": 127.11458333333333,
          "velocity": 0.07874015748031496
        },
        {
          "duration": 0,
          "durationTicks": 0,
          "midi": 80,
          "name": "G#5",
          "ticks": 97624,
          "time": 127.11458333333333,
          "velocity": 0.14173228346456693
        },
        {
          "duration": 0,
          "durationTicks": 0,
          "midi": 63,
          "name": "D#4",
          "ticks": 97633,
          "time": 127.12630208333333,
          "velocity": 0.1889763779527559
        },
        {
          "duration": 0,
          "durationTicks": 0,
          "midi": 71,
          "name": "B4",
          "ticks": 97643,
          "time": 127.13932291666667,
          "velocity": 0.18110236220472442
        },
        {
          "duration": 0,
          "durationTicks": 0,
          "midi": 87,
          "name": "D#6",
          "ticks": 97643,
          "time": 127.13932291666667,
          "velocity": 0.05511811023622047
        },
        {
          "duration": 0,
          "durationTicks": 0,
          "midi": 56,
          "name": "G#3",
          "ticks": 97652,
          "time": 127.15104166666667,
          "velocity": 0.2047244094488189
        },
        {
          "duration": 0.1067708333333286,
          "durationTicks": 82,
          "midi": 72,
          "name": "C5",
          "ticks": 97670,
          "time": 127.17447916666667,
          "velocity": 0.07874015748031496
        },
        {
          "duration": 0.3763020833333286,
          "durationTicks": 289,
          "midi": 70,
          "name": "A#4",
          "ticks": 97670,
          "time": 127.17447916666667,
          "velocity": 0.23622047244094488
        },
        {
          "duration": 0,
          "durationTicks": 0,
          "midi": 26,
          "name": "D1",
          "ticks": 97680,
          "time": 127.1875,
          "velocity": 0.3700787401574803
        },
        {
          "duration": 0,
          "durationTicks": 0,
          "midi": 24,
          "name": "C1",
          "ticks": 97707,
          "time": 127.22265625,
          "velocity": 0.3543307086614173
        },
        {
          "duration": 0,
          "durationTicks": 0,
          "midi": 75,
          "name": "D#5",
          "ticks": 97716,
          "time": 127.234375,
          "velocity": 0.14960629921259844
        },
        {
          "duration": 0,
          "durationTicks": 0,
          "midi": 47,
          "name": "B2",
          "ticks": 97725,
          "time": 127.24609375,
          "velocity": 0.2125984251968504
        },
        {
          "duration": 0.01953125,
          "durationTicks": 15,
          "midi": 72,
          "name": "C5",
          "ticks": 97752,
          "time": 127.28125,
          "velocity": 0.06299212598425197
        },
        {
          "duration": 0,
          "durationTicks": 0,
          "midi": 30,
          "name": "F#1",
          "ticks": 97787,
          "time": 127.32682291666667,
          "velocity": 0.3779527559055118
        },
        {
          "duration": 0,
          "durationTicks": 0,
          "midi": 28,
          "name": "E1",
          "ticks": 97805,
          "time": 127.35026041666667,
          "velocity": 0.3779527559055118
        },
        {
          "duration": 0,
          "durationTicks": 0,
          "midi": 58,
          "name": "A#3",
          "ticks": 97805,
          "time": 127.35026041666667,
          "velocity": 0.25196850393700787
        },
        {
          "duration": 0,
          "durationTicks": 0,
          "midi": 87,
          "name": "D#6",
          "ticks": 97814,
          "time": 127.36197916666667,
          "velocity": 0.14173228346456693
        },
        {
          "duration": 0,
          "durationTicks": 0,
          "midi": 25,
          "name": "C#1",
          "ticks": 97841,
          "time": 127.39713541666667,
          "velocity": 0.3779527559055118
        },
        {
          "duration": 0,
          "durationTicks": 0,
          "midi": 61,
          "name": "C#4",
          "ticks": 97841,
          "time": 127.39713541666667,
          "velocity": 0.2283464566929134
        },
        {
          "duration": 0,
          "durationTicks": 0,
          "midi": 24,
          "name": "C1",
          "ticks": 97859,
          "time": 127.42057291666667,
          "velocity": 0.36220472440944884
        },
        {
          "duration": 0,
          "durationTicks": 0,
          "midi": 60,
          "name": "C4",
          "ticks": 97859,
          "time": 127.42057291666667,
          "velocity": 0.28346456692913385
        },
        {
          "duration": 0,
          "durationTicks": 0,
          "midi": 60,
          "name": "C4",
          "ticks": 97886,
          "time": 127.45572916666667,
          "velocity": 0.23622047244094488
        },
        {
          "duration": 0,
          "durationTicks": 0,
          "midi": 33,
          "name": "A1",
          "ticks": 97903,
          "time": 127.47786458333333,
          "velocity": 0.3858267716535433
        },
        {
          "duration": 0,
          "durationTicks": 0,
          "midi": 75,
          "name": "D#5",
          "ticks": 97903,
          "time": 127.47786458333333,
          "velocity": 0.14960629921259844
        },
        {
          "duration": 0.1263020833333428,
          "durationTicks": 97,
          "midi": 63,
          "name": "D#4",
          "ticks": 97921,
          "time": 127.50130208333333,
          "velocity": 0.2283464566929134
        },
        {
          "duration": 0,
          "durationTicks": 0,
          "midi": 28,
          "name": "E1",
          "ticks": 97948,
          "time": 127.53645833333333,
          "velocity": 0.30708661417322836
        },
        {
          "duration": 0,
          "durationTicks": 0,
          "midi": 69,
          "name": "A4",
          "ticks": 97966,
          "time": 127.55989583333333,
          "velocity": 0.2125984251968504
        },
        {
          "duration": 0,
          "durationTicks": 0,
          "midi": 71,
          "name": "B4",
          "ticks": 98002,
          "time": 127.60677083333333,
          "velocity": 0.1968503937007874
        },
        {
          "duration": 0.1263020833333428,
          "durationTicks": 97,
          "midi": 86,
          "name": "D6",
          "ticks": 98002,
          "time": 127.60677083333333,
          "velocity": 0.09448818897637795
        },
        {
          "duration": 0.1263020833333428,
          "durationTicks": 97,
          "midi": 53,
          "name": "F3",
          "ticks": 98011,
          "time": 127.61848958333333,
          "velocity": 0.23622047244094488
        },
        {
          "duration": 0.2526041666666714,
          "durationTicks": 194,
          "midi": 67,
          "name": "G4",
          "ticks": 98011,
          "time": 127.61848958333333,
          "velocity": 0.30708661417322836
        },
        {
          "duration": 0,
          "durationTicks": 0,
          "midi": 30,
          "name": "F#1",
          "ticks": 98020,
          "time": 127.63020833333333,
          "velocity": 0.41732283464566927
        },
        {
          "duration": 0,
          "durationTicks": 0,
          "midi": 72,
          "name": "C5",
          "ticks": 98020,
          "time": 127.63020833333333,
          "velocity": 0.12598425196850394
        },
        {
          "duration": 0,
          "durationTicks": 0,
          "midi": 58,
          "name": "A#3",
          "ticks": 98030,
          "time": 127.64322916666667,
          "velocity": 0.13385826771653545
        },
        {
          "duration": 0.125,
          "durationTicks": 96,
          "midi": 29,
          "name": "F1",
          "ticks": 98056,
          "time": 127.67708333333333,
          "velocity": 0.3858267716535433
        },
        {
          "duration": 0.125,
          "durationTicks": 96,
          "midi": 70,
          "name": "A#4",
          "ticks": 98074,
          "time": 127.70052083333333,
          "velocity": 0.11023622047244094
        },
        {
          "duration": 0,
          "durationTicks": 0,
          "midi": 75,
          "name": "D#5",
          "ticks": 98101,
          "time": 127.73567708333333,
          "velocity": 0.14173228346456693
        },
        {
          "duration": 0.1263020833333428,
          "durationTicks": 97,
          "midi": 63,
          "name": "D#4",
          "ticks": 98101,
          "time": 127.73567708333333,
          "velocity": 0.13385826771653545
        },
        {
          "duration": 0.1263020833333428,
          "durationTicks": 97,
          "midi": 48,
          "name": "C3",
          "ticks": 98110,
          "time": 127.74739583333333,
          "velocity": 0.10236220472440945
        },
        {
          "duration": 0.2513020833333286,
          "durationTicks": 193,
          "midi": 53,
          "name": "F3",
          "ticks": 98182,
          "time": 127.84114583333333,
          "velocity": 0.14173228346456693
        },
        {
          "duration": 0,
          "durationTicks": 0,
          "midi": 87,
          "name": "D#6",
          "ticks": 98191,
          "time": 127.85286458333333,
          "velocity": 0.14173228346456693
        },
        {
          "duration": 0.125,
          "durationTicks": 96,
          "midi": 65,
          "name": "F4",
          "ticks": 98191,
          "time": 127.85286458333333,
          "velocity": 0.25196850393700787
        },
        {
          "duration": 0,
          "durationTicks": 0,
          "midi": 67,
          "name": "G4",
          "ticks": 98227,
          "time": 127.89973958333333,
          "velocity": 0.1732283464566929
        },
        {
          "duration": 0,
          "durationTicks": 0,
          "midi": 66,
          "name": "F#4",
          "ticks": 98254,
          "time": 127.93489583333333,
          "velocity": 0.25984251968503935
        },
        {
          "duration": 0.1250000000000142,
          "durationTicks": 96,
          "midi": 67,
          "name": "G4",
          "ticks": 98272,
          "time": 127.95833333333333,
          "velocity": 0.23622047244094488
        },
        {
          "duration": 0.2513020833333286,
          "durationTicks": 193,
          "midi": 86,
          "name": "D6",
          "ticks": 98272,
          "time": 127.95833333333333,
          "velocity": 0.12598425196850394
        },
        {
          "duration": 0,
          "durationTicks": 0,
          "midi": 75,
          "name": "D#5",
          "ticks": 98289,
          "time": 127.98046875,
          "velocity": 0.15748031496062992
        },
        {
          "duration": 0,
          "durationTicks": 0,
          "midi": 87,
          "name": "D#6",
          "ticks": 98379,
          "time": 128.09765625,
          "velocity": 0.15748031496062992
        },
        {
          "duration": 0,
          "durationTicks": 0,
          "midi": 80,
          "name": "G#5",
          "ticks": 98379,
          "time": 128.09765625,
          "velocity": 0.14173228346456693
        },
        {
          "duration": 0,
          "durationTicks": 0,
          "midi": 95,
          "name": "B6",
          "ticks": 98389,
          "time": 128.11067708333334,
          "velocity": 0.07086614173228346
        },
        {
          "duration": 0.25,
          "durationTicks": 192,
          "midi": 67,
          "name": "G4",
          "ticks": 98389,
          "time": 128.11067708333334,
          "velocity": 0.2992125984251969
        },
        {
          "duration": 0,
          "durationTicks": 0,
          "midi": 57,
          "name": "A3",
          "ticks": 98398,
          "time": 128.12239583333334,
          "velocity": 0.31496062992125984
        },
        {
          "duration": 0,
          "durationTicks": 0,
          "midi": 38,
          "name": "D2",
          "ticks": 98407,
          "time": 128.13411458333334,
          "velocity": 0.23622047244094488
        },
        {
          "duration": 0.12369791666665719,
          "durationTicks": 95,
          "midi": 63,
          "name": "D#4",
          "ticks": 98452,
          "time": 128.19270833333334,
          "velocity": 0.08661417322834646
        },
        {
          "duration": 0,
          "durationTicks": 0,
          "midi": 75,
          "name": "D#5",
          "ticks": 98478,
          "time": 128.2265625,
          "velocity": 0.15748031496062992
        },
        {
          "duration": 0.125,
          "durationTicks": 96,
          "midi": 53,
          "name": "F3",
          "ticks": 98531,
          "time": 128.29557291666666,
          "velocity": 0.11023622047244094
        },
        {
          "duration": 0.125,
          "durationTicks": 96,
          "midi": 65,
          "name": "F4",
          "ticks": 98576,
          "time": 128.35416666666666,
          "velocity": 0.25984251968503935
        },
        {
          "duration": 0,
          "durationTicks": 0,
          "midi": 67,
          "name": "G4",
          "ticks": 98621,
          "time": 128.41276041666666,
          "velocity": 0.15748031496062992
        },
        {
          "duration": 0,
          "durationTicks": 0,
          "midi": 75,
          "name": "D#5",
          "ticks": 98665,
          "time": 128.47005208333334,
          "velocity": 0.14960629921259844
        },
        {
          "duration": 0.2513020833333144,
          "durationTicks": 193,
          "midi": 67,
          "name": "G4",
          "ticks": 98674,
          "time": 128.48177083333334,
          "velocity": 0.2677165354330709
        },
        {
          "duration": 0,
          "durationTicks": 0,
          "midi": 60,
          "name": "C4",
          "ticks": 98684,
          "time": 128.49479166666666,
          "velocity": 0.07874015748031496
        },
        {
          "duration": 0.12630208333331439,
          "durationTicks": 97,
          "midi": 63,
          "name": "D#4",
          "ticks": 98755,
          "time": 128.58723958333334,
          "velocity": 0.1889763779527559
        },
        {
          "duration": 0.12630208333331439,
          "durationTicks": 97,
          "midi": 86,
          "name": "D6",
          "ticks": 98755,
          "time": 128.58723958333334,
          "velocity": 0.06299212598425197
        },
        {
          "duration": 0,
          "durationTicks": 0,
          "midi": 29,
          "name": "F1",
          "ticks": 98773,
          "time": 128.61067708333334,
          "velocity": 0.4015748031496063
        },
        {
          "duration": 0,
          "durationTicks": 0,
          "midi": 30,
          "name": "F#1",
          "ticks": 98782,
          "time": 128.62239583333334,
          "velocity": 0.4251968503937008
        },
        {
          "duration": 0,
          "durationTicks": 0,
          "midi": 48,
          "name": "C3",
          "ticks": 98809,
          "time": 128.65755208333334,
          "velocity": 0.14173228346456693
        },
        {
          "duration": 0.125,
          "durationTicks": 96,
          "midi": 29,
          "name": "F1",
          "ticks": 98818,
          "time": 128.66927083333334,
          "velocity": 0.3779527559055118
        },
        {
          "duration": 0,
          "durationTicks": 0,
          "midi": 75,
          "name": "D#5",
          "ticks": 98854,
          "time": 128.71614583333334,
          "velocity": 0.14173228346456693
        },
        {
          "duration": 0.125,
          "durationTicks": 96,
          "midi": 48,
          "name": "C3",
          "ticks": 98854,
          "time": 128.71614583333334,
          "velocity": 0.08661417322834646
        },
        {
          "duration": 0.12630208333331439,
          "durationTicks": 97,
          "midi": 68,
          "name": "G#4",
          "ticks": 98899,
          "time": 128.77473958333334,
          "velocity": 0.2440944881889764
        },
        {
          "duration": 0,
          "durationTicks": 0,
          "midi": 87,
          "name": "D#6",
          "ticks": 98953,
          "time": 128.84505208333334,
          "velocity": 0.14173228346456693
        },
        {
          "duration": 0.25,
          "durationTicks": 192,
          "midi": 67,
          "name": "G4",
          "ticks": 98962,
          "time": 128.85677083333334,
          "velocity": 0.2755905511811024
        },
        {
          "duration": 0.25,
          "durationTicks": 192,
          "midi": 86,
          "name": "D6",
          "ticks": 98998,
          "time": 128.90364583333334,
          "velocity": 0.11023622047244094
        },
        {
          "duration": 0,
          "durationTicks": 0,
          "midi": 75,
          "name": "D#5",
          "ticks": 99043,
          "time": 128.96223958333334,
          "velocity": 0.14173228346456693
        },
        {
          "duration": 0,
          "durationTicks": 0,
          "midi": 95,
          "name": "B6",
          "ticks": 99141,
          "time": 129.08984375,
          "velocity": 0.10236220472440945
        },
        {
          "duration": 0,
          "durationTicks": 0,
          "midi": 80,
          "name": "G#5",
          "ticks": 99141,
          "time": 129.08984375,
          "velocity": 0.14173228346456693
        },
        {
          "duration": 0,
          "durationTicks": 0,
          "midi": 84,
          "name": "C6",
          "ticks": 99141,
          "time": 129.08984375,
          "velocity": 0.11811023622047244
        },
        {
          "duration": 0,
          "durationTicks": 0,
          "midi": 90,
          "name": "F#6",
          "ticks": 99141,
          "time": 129.08984375,
          "velocity": 0.06299212598425197
        },
        {
          "duration": 0,
          "durationTicks": 0,
          "midi": 57,
          "name": "A3",
          "ticks": 99159,
          "time": 129.11328125,
          "velocity": 0.30708661417322836
        },
        {
          "duration": 0.2486979166666572,
          "durationTicks": 191,
          "midi": 31,
          "name": "G1",
          "ticks": 99168,
          "time": 129.125,
          "velocity": 0.36220472440944884
        },
        {
          "duration": 0.2486979166666572,
          "durationTicks": 191,
          "midi": 65,
          "name": "F4",
          "ticks": 99168,
          "time": 129.125,
          "velocity": 0.25984251968503935
        },
        {
          "duration": 0,
          "durationTicks": 0,
          "midi": 57,
          "name": "A3",
          "ticks": 99212,
          "time": 129.18229166666666,
          "velocity": 0.10236220472440945
        },
        {
          "duration": 0.125,
          "durationTicks": 96,
          "midi": 50,
          "name": "D3",
          "ticks": 99212,
          "time": 129.18229166666666,
          "velocity": 0.08661417322834646
        },
        {
          "duration": 0,
          "durationTicks": 0,
          "midi": 75,
          "name": "D#5",
          "ticks": 99239,
          "time": 129.21744791666666,
          "velocity": 0.14173228346456693
        },
        {
          "duration": 0,
          "durationTicks": 0,
          "midi": 87,
          "name": "D#6",
          "ticks": 99328,
          "time": 129.33333333333334,
          "velocity": 0.14173228346456693
        },
        {
          "duration": 0.2513020833333144,
          "durationTicks": 193,
          "midi": 67,
          "name": "G4",
          "ticks": 99346,
          "time": 129.35677083333334,
          "velocity": 0.25196850393700787
        },
        {
          "duration": 0,
          "durationTicks": 0,
          "midi": 44,
          "name": "G#2",
          "ticks": 99417,
          "time": 129.44921875,
          "velocity": 0.3700787401574803
        },
        {
          "duration": 0.1263020833333428,
          "durationTicks": 97,
          "midi": 86,
          "name": "D6",
          "ticks": 99417,
          "time": 129.44921875,
          "velocity": 0.05511811023622047
        },
        {
          "duration": 0,
          "durationTicks": 0,
          "midi": 87,
          "name": "D#6",
          "ticks": 99427,
          "time": 129.46223958333334,
          "velocity": 0.14173228346456693
        },
        {
          "duration": 0,
          "durationTicks": 0,
          "midi": 45,
          "name": "A2",
          "ticks": 99436,
          "time": 129.47395833333334,
          "velocity": 0.3858267716535433
        },
        {
          "duration": 0.12630208333331439,
          "durationTicks": 97,
          "midi": 44,
          "name": "G#2",
          "ticks": 99454,
          "time": 129.49739583333334,
          "velocity": 0.36220472440944884
        },
        {
          "duration": 0,
          "durationTicks": 0,
          "midi": 31,
          "name": "G1",
          "ticks": 99463,
          "time": 129.50911458333334,
          "velocity": 0.2677165354330709
        },
        {
          "duration": 0,
          "durationTicks": 0,
          "midi": 29,
          "name": "F1",
          "ticks": 99490,
          "time": 129.54427083333334,
          "velocity": 0.18110236220472442
        },
        {
          "duration": 0,
          "durationTicks": 0,
          "midi": 63,
          "name": "D#4",
          "ticks": 99517,
          "time": 129.57942708333334,
          "velocity": 0.16535433070866143
        },
        {
          "duration": 0.12630208333331439,
          "durationTicks": 97,
          "midi": 68,
          "name": "G#4",
          "ticks": 99526,
          "time": 129.59114583333334,
          "velocity": 0.25984251968503935
        },
        {
          "duration": 0,
          "durationTicks": 0,
          "midi": 69,
          "name": "A4",
          "ticks": 99580,
          "time": 129.66145833333334,
          "velocity": 0.25196850393700787
        },
        {
          "duration": 0.1263020833333428,
          "durationTicks": 97,
          "midi": 70,
          "name": "A#4",
          "ticks": 99597,
          "time": 129.68359375,
          "velocity": 0.25984251968503935
        },
        {
          "duration": 0.1263020833333428,
          "durationTicks": 97,
          "midi": 67,
          "name": "G4",
          "ticks": 99597,
          "time": 129.68359375,
          "velocity": 0.11023622047244094
        },
        {
          "duration": 0.12630208333331439,
          "durationTicks": 97,
          "midi": 44,
          "name": "G#2",
          "ticks": 99607,
          "time": 129.69661458333334,
          "velocity": 0.36220472440944884
        },
        {
          "duration": 0,
          "durationTicks": 0,
          "midi": 75,
          "name": "D#5",
          "ticks": 99616,
          "time": 129.70833333333334,
          "velocity": 0.14960629921259844
        },
        {
          "duration": 0.12630208333331439,
          "durationTicks": 97,
          "midi": 63,
          "name": "D#4",
          "ticks": 99625,
          "time": 129.72005208333334,
          "velocity": 0.14173228346456693
        },
        {
          "duration": 0,
          "durationTicks": 0,
          "midi": 43,
          "name": "G2",
          "ticks": 99706,
          "time": 129.82552083333334,
          "velocity": 0.33070866141732286
        },
        {
          "duration": 0.12630208333331439,
          "durationTicks": 97,
          "midi": 87,
          "name": "D#6",
          "ticks": 99715,
          "time": 129.83723958333334,
          "velocity": 0.08661417322834646
        },
        {
          "duration": 0.12630208333331439,
          "durationTicks": 97,
          "midi": 68,
          "name": "G#4",
          "ticks": 99715,
          "time": 129.83723958333334,
          "velocity": 0.29133858267716534
        },
        {
          "duration": 0,
          "durationTicks": 0,
          "midi": 31,
          "name": "G1",
          "ticks": 99725,
          "time": 129.85026041666666,
          "velocity": 0.3700787401574803
        },
        {
          "duration": 0,
          "durationTicks": 0,
          "midi": 32,
          "name": "G#1",
          "ticks": 99742,
          "time": 129.87239583333334,
          "velocity": 0.31496062992125984
        },
        {
          "duration": 0,
          "durationTicks": 0,
          "midi": 33,
          "name": "A1",
          "ticks": 99760,
          "time": 129.89583333333334,
          "velocity": 0.31496062992125984
        },
        {
          "duration": 0.12630208333331439,
          "durationTicks": 97,
          "midi": 70,
          "name": "A#4",
          "ticks": 99787,
          "time": 129.93098958333334,
          "velocity": 0.30708661417322836
        },
        {
          "duration": 0.12630208333331439,
          "durationTicks": 97,
          "midi": 89,
          "name": "F6",
          "ticks": 99796,
          "time": 129.94270833333334,
          "velocity": 0.08661417322834646
        },
        {
          "duration": 0,
          "durationTicks": 0,
          "midi": 75,
          "name": "D#5",
          "ticks": 99805,
          "time": 129.95442708333334,
          "velocity": 0.14173228346456693
        },
        {
          "duration": 0.12630208333331439,
          "durationTicks": 97,
          "midi": 68,
          "name": "G#4",
          "ticks": 99895,
          "time": 130.07161458333334,
          "velocity": 0.29133858267716534
        },
        {
          "duration": 0.12630208333331439,
          "durationTicks": 97,
          "midi": 87,
          "name": "D#6",
          "ticks": 99895,
          "time": 130.07161458333334,
          "velocity": 0.2204724409448819
        },
        {
          "duration": 0,
          "durationTicks": 0,
          "midi": 56,
          "name": "G#3",
          "ticks": 99905,
          "time": 130.08463541666666,
          "velocity": 0.2992125984251969
        },
        {
          "duration": 0,
          "durationTicks": 0,
          "midi": 34,
          "name": "A#1",
          "ticks": 99914,
          "time": 130.09635416666666,
          "velocity": 0.4015748031496063
        },
        {
          "duration": 0,
          "durationTicks": 0,
          "midi": 56,
          "name": "G#3",
          "ticks": 99932,
          "time": 130.11979166666666,
          "velocity": 0.1968503937007874
        },
        {
          "duration": 0,
          "durationTicks": 0,
          "midi": 84,
          "name": "C6",
          "ticks": 99932,
          "time": 130.11979166666666,
          "velocity": 0.05511811023622047
        },
        {
          "duration": 0,
          "durationTicks": 0,
          "midi": 51,
          "name": "D#3",
          "ticks": 99941,
          "time": 130.13151041666666,
          "velocity": 0.05511811023622047
        },
        {
          "duration": 0,
          "durationTicks": 0,
          "midi": 33,
          "name": "A1",
          "ticks": 99950,
          "time": 130.14322916666666,
          "velocity": 0.36220472440944884
        },
        {
          "duration": 0,
          "durationTicks": 0,
          "midi": 32,
          "name": "G#1",
          "ticks": 99968,
          "time": 130.16666666666666,
          "velocity": 0.3464566929133858
        },
        {
          "duration": 0,
          "durationTicks": 0,
          "midi": 70,
          "name": "A#4",
          "ticks": 99968,
          "time": 130.16666666666666,
          "velocity": 0.25196850393700787
        },
        {
          "duration": 0,
          "durationTicks": 0,
          "midi": 57,
          "name": "A3",
          "ticks": 99977,
          "time": 130.17838541666666,
          "velocity": 0.10236220472440945
        },
        {
          "duration": 0,
          "durationTicks": 0,
          "midi": 75,
          "name": "D#5",
          "ticks": 99995,
          "time": 130.20182291666666,
          "velocity": 0.15748031496062992
        },
        {
          "duration": 0.125,
          "durationTicks": 96,
          "midi": 68,
          "name": "G#4",
          "ticks": 100022,
          "time": 130.23697916666666,
          "velocity": 0.2440944881889764
        },
        {
          "duration": 0,
          "durationTicks": 0,
          "midi": 63,
          "name": "D#4",
          "ticks": 100093,
          "time": 130.32942708333334,
          "velocity": 0.14960629921259844
        },
        {
          "duration": 0.125,
          "durationTicks": 96,
          "midi": 67,
          "name": "G4",
          "ticks": 100111,
          "time": 130.35286458333334,
          "velocity": 0.2677165354330709
        },
        {
          "duration": 0,
          "durationTicks": 0,
          "midi": 70,
          "name": "A#4",
          "ticks": 100155,
          "time": 130.41015625,
          "velocity": 0.11811023622047244
        },
        {
          "duration": 0,
          "durationTicks": 0,
          "midi": 75,
          "name": "D#5",
          "ticks": 100182,
          "time": 130.4453125,
          "velocity": 0.14173228346456693
        },
        {
          "duration": 0.62890625,
          "durationTicks": 483,
          "midi": 65,
          "name": "F4",
          "ticks": 100209,
          "time": 130.48046875,
          "velocity": 0.28346456692913385
        },
        {
          "duration": 0.125,
          "durationTicks": 96,
          "midi": 68,
          "name": "G#4",
          "ticks": 100218,
          "time": 130.4921875,
          "velocity": 0.11023622047244094
        },
        {
          "duration": 0,
          "durationTicks": 0,
          "midi": 31,
          "name": "G1",
          "ticks": 100307,
          "time": 130.60807291666666,
          "velocity": 0.29133858267716534
        },
        {
          "duration": 0,
          "durationTicks": 0,
          "midi": 84,
          "name": "C6",
          "ticks": 100370,
          "time": 130.69010416666666,
          "velocity": 0.06299212598425197
        },
        {
          "duration": 0,
          "durationTicks": 0,
          "midi": 75,
          "name": "D#5",
          "ticks": 100380,
          "time": 130.703125,
          "velocity": 0.14173228346456693
        },
        {
          "duration": 0.1263020833333428,
          "durationTicks": 97,
          "midi": 84,
          "name": "C6",
          "ticks": 100434,
          "time": 130.7734375,
          "velocity": 0.06299212598425197
        },
        {
          "duration": 0,
          "durationTicks": 0,
          "midi": 87,
          "name": "D#6",
          "ticks": 100470,
          "time": 130.8203125,
          "velocity": 0.14173228346456693
        },
        {
          "duration": 0,
          "durationTicks": 0,
          "midi": 47,
          "name": "B2",
          "ticks": 100487,
          "time": 130.84244791666666,
          "velocity": 0.11023622047244094
        },
        {
          "duration": 0,
          "durationTicks": 0,
          "midi": 31,
          "name": "G1",
          "ticks": 100497,
          "time": 130.85546875,
          "velocity": 0.29133858267716534
        },
        {
          "duration": 0,
          "durationTicks": 0,
          "midi": 75,
          "name": "D#5",
          "ticks": 100568,
          "time": 130.94791666666666,
          "velocity": 0.14173228346456693
        },
        {
          "duration": 0.1263020833333428,
          "durationTicks": 97,
          "midi": 32,
          "name": "G#1",
          "ticks": 100577,
          "time": 130.95963541666666,
          "velocity": 0.3464566929133858
        },
        {
          "duration": 0.1263020833333428,
          "durationTicks": 97,
          "midi": 51,
          "name": "D#3",
          "ticks": 100577,
          "time": 130.95963541666666,
          "velocity": 0.14173228346456693
        },
        {
          "duration": 0,
          "durationTicks": 0,
          "midi": 72,
          "name": "C5",
          "ticks": 100658,
          "time": 131.06510416666666,
          "velocity": 0.09448818897637795
        },
        {
          "duration": 0,
          "durationTicks": 0,
          "midi": 86,
          "name": "D6",
          "ticks": 100658,
          "time": 131.06510416666666,
          "velocity": 0.08661417322834646
        },
        {
          "duration": 0,
          "durationTicks": 0,
          "midi": 80,
          "name": "G#5",
          "ticks": 100658,
          "time": 131.06510416666666,
          "velocity": 0.14173228346456693
        },
        {
          "duration": 0,
          "durationTicks": 0,
          "midi": 90,
          "name": "F#6",
          "ticks": 100667,
          "time": 131.07682291666666,
          "velocity": 0.05511811023622047
        },
        {
          "duration": 0.1263020833333428,
          "durationTicks": 97,
          "midi": 44,
          "name": "G#2",
          "ticks": 100667,
          "time": 131.07682291666666,
          "velocity": 0.3779527559055118
        },
        {
          "duration": 0,
          "durationTicks": 0,
          "midi": 63,
          "name": "D#4",
          "ticks": 100721,
          "time": 131.14713541666666,
          "velocity": 0.10236220472440945
        },
        {
          "duration": 0,
          "durationTicks": 0,
          "midi": 75,
          "name": "D#5",
          "ticks": 100757,
          "time": 131.19401041666666,
          "velocity": 0.14960629921259844
        },
        {
          "duration": 0,
          "durationTicks": 0,
          "midi": 32,
          "name": "G#1",
          "ticks": 100784,
          "time": 131.22916666666666,
          "velocity": 0.33070866141732286
        },
        {
          "duration": 0,
          "durationTicks": 0,
          "midi": 33,
          "name": "A1",
          "ticks": 100802,
          "time": 131.25260416666666,
          "velocity": 0.3228346456692913
        },
        {
          "duration": 0,
          "durationTicks": 0,
          "midi": 32,
          "name": "G#1",
          "ticks": 100838,
          "time": 131.29947916666666,
          "velocity": 0.3543307086614173
        },
        {
          "duration": 0,
          "durationTicks": 0,
          "midi": 51,
          "name": "D#3",
          "ticks": 100838,
          "time": 131.29947916666666,
          "velocity": 0.06299212598425197
        },
        {
          "duration": 0,
          "durationTicks": 0,
          "midi": 87,
          "name": "D#6",
          "ticks": 100847,
          "time": 131.31119791666666,
          "velocity": 0.13385826771653545
        },
        {
          "duration": 0,
          "durationTicks": 0,
          "midi": 29,
          "name": "F1",
          "ticks": 100892,
          "time": 131.36979166666666,
          "velocity": 0.36220472440944884
        },
        {
          "duration": 0,
          "durationTicks": 0,
          "midi": 48,
          "name": "C3",
          "ticks": 100892,
          "time": 131.36979166666666,
          "velocity": 0.08661417322834646
        },
        {
          "duration": 0,
          "durationTicks": 0,
          "midi": 26,
          "name": "D1",
          "ticks": 100937,
          "time": 131.42838541666666,
          "velocity": 0.3543307086614173
        },
        {
          "duration": 0,
          "durationTicks": 0,
          "midi": 56,
          "name": "G#3",
          "ticks": 100946,
          "time": 131.44010416666666,
          "velocity": 0.28346456692913385
        },
        {
          "duration": 0,
          "durationTicks": 0,
          "midi": 66,
          "name": "F#4",
          "ticks": 100946,
          "time": 131.44010416666666,
          "velocity": 0.07874015748031496
        },
        {
          "duration": 0,
          "durationTicks": 0,
          "midi": 75,
          "name": "D#5",
          "ticks": 100946,
          "time": 131.44010416666666,
          "velocity": 0.15748031496062992
        },
        {
          "duration": 0,
          "durationTicks": 0,
          "midi": 57,
          "name": "A3",
          "ticks": 100963,
          "time": 131.46223958333334,
          "velocity": 0.29133858267716534
        },
        {
          "duration": 0.125,
          "durationTicks": 96,
          "midi": 35,
          "name": "B1",
          "ticks": 100981,
          "time": 131.48567708333334,
          "velocity": 0.3464566929133858
        },
        {
          "duration": 0,
          "durationTicks": 0,
          "midi": 44,
          "name": "G#2",
          "ticks": 101043,
          "time": 131.56640625,
          "velocity": 0.25196850393700787
        },
        {
          "duration": 0,
          "durationTicks": 0,
          "midi": 63,
          "name": "D#4",
          "ticks": 101052,
          "time": 131.578125,
          "velocity": 0.15748031496062992
        },
        {
          "duration": 0,
          "durationTicks": 0,
          "midi": 36,
          "name": "C2",
          "ticks": 101062,
          "time": 131.59114583333334,
          "velocity": 0.31496062992125984
        },
        {
          "duration": 0,
          "durationTicks": 0,
          "midi": 34,
          "name": "A#1",
          "ticks": 101079,
          "time": 131.61328125,
          "velocity": 0.3779527559055118
        },
        {
          "duration": 0.125,
          "durationTicks": 96,
          "midi": 53,
          "name": "F3",
          "ticks": 101089,
          "time": 131.62630208333334,
          "velocity": 0.08661417322834646
        },
        {
          "duration": 0,
          "durationTicks": 0,
          "midi": 34,
          "name": "A#1",
          "ticks": 101106,
          "time": 131.6484375,
          "velocity": 0.3700787401574803
        },
        {
          "duration": 0,
          "durationTicks": 0,
          "midi": 35,
          "name": "B1",
          "ticks": 101124,
          "time": 131.671875,
          "velocity": 0.3464566929133858
        },
        {
          "duration": 0,
          "durationTicks": 0,
          "midi": 75,
          "name": "D#5",
          "ticks": 101133,
          "time": 131.68359375,
          "velocity": 0.14173228346456693
        },
        {
          "duration": 0.12369791666665719,
          "durationTicks": 95,
          "midi": 34,
          "name": "A#1",
          "ticks": 101142,
          "time": 131.6953125,
          "velocity": 0.3543307086614173
        },
        {
          "duration": 0,
          "durationTicks": 0,
          "midi": 35,
          "name": "B1",
          "ticks": 101222,
          "time": 131.79947916666666,
          "velocity": 0.31496062992125984
        },
        {
          "duration": 0.125,
          "durationTicks": 96,
          "midi": 70,
          "name": "A#4",
          "ticks": 101222,
          "time": 131.79947916666666,
          "velocity": 0.25984251968503935
        },
        {
          "duration": 0,
          "durationTicks": 0,
          "midi": 63,
          "name": "D#4",
          "ticks": 101240,
          "time": 131.82291666666666,
          "velocity": 0.14173228346456693
        },
        {
          "duration": 0,
          "durationTicks": 0,
          "midi": 71,
          "name": "B4",
          "ticks": 101294,
          "time": 131.89322916666666,
          "velocity": 0.25196850393700787
        },
        {
          "duration": 0.125,
          "durationTicks": 96,
          "midi": 72,
          "name": "C5",
          "ticks": 101311,
          "time": 131.91536458333334,
          "velocity": 0.2440944881889764
        },
        {
          "duration": 0,
          "durationTicks": 0,
          "midi": 75,
          "name": "D#5",
          "ticks": 101321,
          "time": 131.92838541666666,
          "velocity": 0.14173228346456693
        },
        {
          "duration": 0,
          "durationTicks": 0,
          "midi": 66,
          "name": "F#4",
          "ticks": 101410,
          "time": 132.04427083333334,
          "velocity": 0.14173228346456693
        },
        {
          "duration": 0,
          "durationTicks": 0,
          "midi": 80,
          "name": "G#5",
          "ticks": 101419,
          "time": 132.05598958333334,
          "velocity": 0.14173228346456693
        },
        {
          "duration": 0,
          "durationTicks": 0,
          "midi": 87,
          "name": "D#6",
          "ticks": 101419,
          "time": 132.05598958333334,
          "velocity": 0.14173228346456693
        },
        {
          "duration": 0.12630208333331439,
          "durationTicks": 97,
          "midi": 86,
          "name": "D6",
          "ticks": 101419,
          "time": 132.05598958333334,
          "velocity": 0.08661417322834646
        },
        {
          "duration": 0.12630208333331439,
          "durationTicks": 97,
          "midi": 70,
          "name": "A#4",
          "ticks": 101419,
          "time": 132.05598958333334,
          "velocity": 0.31496062992125984
        },
        {
          "duration": 0,
          "durationTicks": 0,
          "midi": 64,
          "name": "E4",
          "ticks": 101428,
          "time": 132.06770833333334,
          "velocity": 0.05511811023622047
        },
        {
          "duration": 0,
          "durationTicks": 0,
          "midi": 57,
          "name": "A3",
          "ticks": 101437,
          "time": 132.07942708333334,
          "velocity": 0.29133858267716534
        },
        {
          "duration": 0.125,
          "durationTicks": 96,
          "midi": 89,
          "name": "F6",
          "ticks": 101437,
          "time": 132.07942708333334,
          "velocity": 0.08661417322834646
        },
        {
          "duration": 0,
          "durationTicks": 0,
          "midi": 38,
          "name": "D2",
          "ticks": 101447,
          "time": 132.09244791666666,
          "velocity": 0.2204724409448819
        },
        {
          "duration": 0,
          "durationTicks": 0,
          "midi": 57,
          "name": "A3",
          "ticks": 101491,
          "time": 132.14973958333334,
          "velocity": 0.10236220472440945
        },
        {
          "duration": 0,
          "durationTicks": 0,
          "midi": 75,
          "name": "D#5",
          "ticks": 101509,
          "time": 132.17317708333334,
          "velocity": 0.14960629921259844
        },
        {
          "duration": 0.125,
          "durationTicks": 96,
          "midi": 72,
          "name": "C5",
          "ticks": 101509,
          "time": 132.17317708333334,
          "velocity": 0.08661417322834646
        },
        {
          "duration": 0.1263020833333428,
          "durationTicks": 97,
          "midi": 63,
          "name": "D#4",
          "ticks": 101607,
          "time": 132.30078125,
          "velocity": 0.1889763779527559
        },
        {
          "duration": 0.1263020833333428,
          "durationTicks": 97,
          "midi": 44,
          "name": "G#2",
          "ticks": 101607,
          "time": 132.30078125,
          "velocity": 0.36220472440944884
        },
        {
          "duration": 0.1263020833333428,
          "durationTicks": 97,
          "midi": 75,
          "name": "D#5",
          "ticks": 101607,
          "time": 132.30078125,
          "velocity": 0.25196850393700787
        },
        {
          "duration": 0.1263020833333428,
          "durationTicks": 97,
          "midi": 70,
          "name": "A#4",
          "ticks": 101616,
          "time": 132.3125,
          "velocity": 0.12598425196850394
        },
        {
          "duration": 0.12630208333331439,
          "durationTicks": 97,
          "midi": 94,
          "name": "A#6",
          "ticks": 101626,
          "time": 132.32552083333334,
          "velocity": 0.05511811023622047
        },
        {
          "duration": 0.25,
          "durationTicks": 192,
          "midi": 72,
          "name": "C5",
          "ticks": 101725,
          "time": 132.45442708333334,
          "velocity": 0.25196850393700787
        },
        {
          "duration": 0,
          "durationTicks": 0,
          "midi": 45,
          "name": "A2",
          "ticks": 101787,
          "time": 132.53515625,
          "velocity": 0.28346456692913385
        },
        {
          "duration": 0,
          "durationTicks": 0,
          "midi": 47,
          "name": "B2",
          "ticks": 101805,
          "time": 132.55859375,
          "velocity": 0.3464566929133858
        },
        {
          "duration": 0,
          "durationTicks": 0,
          "midi": 63,
          "name": "D#4",
          "ticks": 101805,
          "time": 132.55859375,
          "velocity": 0.14173228346456693
        },
        {
          "duration": 0.1263020833333428,
          "durationTicks": 97,
          "midi": 65,
          "name": "F4",
          "ticks": 101822,
          "time": 132.58072916666666,
          "velocity": 0.10236220472440945
        },
        {
          "duration": 0.1263020833333428,
          "durationTicks": 97,
          "midi": 46,
          "name": "A#2",
          "ticks": 101832,
          "time": 132.59375,
          "velocity": 0.3464566929133858
        },
        {
          "duration": 0,
          "durationTicks": 0,
          "midi": 31,
          "name": "G1",
          "ticks": 101841,
          "time": 132.60546875,
          "velocity": 0.25984251968503935
        },
        {
          "duration": 0.1263020833333428,
          "durationTicks": 97,
          "midi": 70,
          "name": "A#4",
          "ticks": 101886,
          "time": 132.6640625,
          "velocity": 0.25984251968503935
        },
        {
          "duration": 0,
          "durationTicks": 0,
          "midi": 75,
          "name": "D#5",
          "ticks": 101903,
          "time": 132.68619791666666,
          "velocity": 0.11023622047244094
        },
        {
          "duration": 0.1171875,
          "durationTicks": 90,
          "midi": 72,
          "name": "C5",
          "ticks": 101912,
          "time": 132.69791666666666,
          "velocity": 0.11023622047244094
        },
        {
          "duration": 0.125,
          "durationTicks": 96,
          "midi": 87,
          "name": "D#6",
          "ticks": 101985,
          "time": 132.79296875,
          "velocity": 0.13385826771653545
        },
        {
          "duration": 0,
          "durationTicks": 0,
          "midi": 69,
          "name": "A4",
          "ticks": 102002,
          "time": 132.81510416666666,
          "velocity": 0.2440944881889764
        },
        {
          "duration": 0.009114583333342807,
          "durationTicks": 7,
          "midi": 72,
          "name": "C5",
          "ticks": 102002,
          "time": 132.81510416666666,
          "velocity": 0.05511811023622047
        },
        {
          "duration": 0.125,
          "durationTicks": 96,
          "midi": 68,
          "name": "G#4",
          "ticks": 102021,
          "time": 132.83984375,
          "velocity": 0.25196850393700787
        },
        {
          "duration": 0,
          "durationTicks": 0,
          "midi": 75,
          "name": "D#5",
          "ticks": 102083,
          "time": 132.92057291666666,
          "velocity": 0.14173228346456693
        },
        {
          "duration": 0.1263020833333428,
          "durationTicks": 97,
          "midi": 70,
          "name": "A#4",
          "ticks": 102101,
          "time": 132.94401041666666,
          "velocity": 0.14173228346456693
        },
        {
          "duration": 0.1263020833333428,
          "durationTicks": 97,
          "midi": 67,
          "name": "G4",
          "ticks": 102110,
          "time": 132.95572916666666,
          "velocity": 0.2677165354330709
        },
        {
          "duration": 0,
          "durationTicks": 0,
          "midi": 56,
          "name": "G#3",
          "ticks": 102182,
          "time": 133.04947916666666,
          "velocity": 0.30708661417322836
        },
        {
          "duration": 0,
          "durationTicks": 0,
          "midi": 80,
          "name": "G#5",
          "ticks": 102182,
          "time": 133.04947916666666,
          "velocity": 0.11811023622047244
        },
        {
          "duration": 0,
          "durationTicks": 0,
          "midi": 37,
          "name": "C#2",
          "ticks": 102191,
          "time": 133.06119791666666,
          "velocity": 0.2677165354330709
        },
        {
          "duration": 0,
          "durationTicks": 0,
          "midi": 91,
          "name": "G6",
          "ticks": 102191,
          "time": 133.06119791666666,
          "velocity": 0.12598425196850394
        },
        {
          "duration": 0.1263020833333428,
          "durationTicks": 97,
          "midi": 63,
          "name": "D#4",
          "ticks": 102191,
          "time": 133.06119791666666,
          "velocity": 0.29133858267716534
        },
        {
          "duration": 0,
          "durationTicks": 0,
          "midi": 87,
          "name": "D#6",
          "ticks": 102200,
          "time": 133.07291666666666,
          "velocity": 0.07874015748031496
        },
        {
          "duration": 0,
          "durationTicks": 0,
          "midi": 56,
          "name": "G#3",
          "ticks": 102209,
          "time": 133.08463541666666,
          "velocity": 0.1968503937007874
        },
        {
          "duration": 0,
          "durationTicks": 0,
          "midi": 38,
          "name": "D2",
          "ticks": 102209,
          "time": 133.08463541666666,
          "velocity": 0.1968503937007874
        },
        {
          "duration": 0.1263020833333428,
          "durationTicks": 97,
          "midi": 82,
          "name": "A#5",
          "ticks": 102227,
          "time": 133.10807291666666,
          "velocity": 0.07086614173228346
        },
        {
          "duration": 0,
          "durationTicks": 0,
          "midi": 57,
          "name": "A3",
          "ticks": 102254,
          "time": 133.14322916666666,
          "velocity": 0.09448818897637795
        },
        {
          "duration": 0.1263020833333428,
          "durationTicks": 97,
          "midi": 60,
          "name": "C4",
          "ticks": 102299,
          "time": 133.20182291666666,
          "velocity": 0.25984251968503935
        },
        {
          "duration": 0.1263020833333428,
          "durationTicks": 97,
          "midi": 67,
          "name": "G4",
          "ticks": 102299,
          "time": 133.20182291666666,
          "velocity": 0.11023622047244094
        },
        {
          "duration": 0,
          "durationTicks": 0,
          "midi": 87,
          "name": "D#6",
          "ticks": 102371,
          "time": 133.29557291666666,
          "velocity": 0.14173228346456693
        },
        {
          "duration": 0.1263020833333428,
          "durationTicks": 97,
          "midi": 27,
          "name": "D#1",
          "ticks": 102371,
          "time": 133.29557291666666,
          "velocity": 0.36220472440944884
        },
        {
          "duration": 0,
          "durationTicks": 0,
          "midi": 61,
          "name": "C#4",
          "ticks": 102380,
          "time": 133.30729166666666,
          "velocity": 0.18110236220472442
        },
        {
          "duration": 0.1263020833333428,
          "durationTicks": 97,
          "midi": 67,
          "name": "G4",
          "ticks": 102389,
          "time": 133.31901041666666,
          "velocity": 0.2440944881889764
        },
        {
          "duration": 0.125,
          "durationTicks": 96,
          "midi": 46,
          "name": "A#2",
          "ticks": 102408,
          "time": 133.34375,
          "velocity": 0.07086614173228346
        },
        {
          "duration": 0.125,
          "durationTicks": 96,
          "midi": 63,
          "name": "D#4",
          "ticks": 102408,
          "time": 133.34375,
          "velocity": 0.13385826771653545
        },
        {
          "duration": 0,
          "durationTicks": 0,
          "midi": 87,
          "name": "D#6",
          "ticks": 102470,
          "time": 133.42447916666666,
          "velocity": 0.11811023622047244
        },
        {
          "duration": 0,
          "durationTicks": 0,
          "midi": 29,
          "name": "F1",
          "ticks": 102480,
          "time": 133.4375,
          "velocity": 0.3858267716535433
        },
        {
          "duration": 0.125,
          "durationTicks": 96,
          "midi": 68,
          "name": "G#4",
          "ticks": 102480,
          "time": 133.4375,
          "velocity": 0.25984251968503935
        },
        {
          "duration": 0.125,
          "durationTicks": 96,
          "midi": 60,
          "name": "C4",
          "ticks": 102489,
          "time": 133.44921875,
          "velocity": 0.14173228346456693
        },
        {
          "duration": 0,
          "durationTicks": 0,
          "midi": 28,
          "name": "E1",
          "ticks": 102524,
          "time": 133.49479166666666,
          "velocity": 0.3700787401574803
        },
        {
          "duration": 0,
          "durationTicks": 0,
          "midi": 46,
          "name": "A#2",
          "ticks": 102551,
          "time": 133.52994791666666,
          "velocity": 0.08661417322834646
        },
        {
          "duration": 0.2513020833333428,
          "durationTicks": 193,
          "midi": 27,
          "name": "D#1",
          "ticks": 102560,
          "time": 133.54166666666666,
          "velocity": 0.3700787401574803
        },
        {
          "duration": 0.2526041666666856,
          "durationTicks": 194,
          "midi": 63,
          "name": "D#4",
          "ticks": 102578,
          "time": 133.56510416666666,
          "velocity": 0.30708661417322836
        },
        {
          "duration": 0.2526041666666856,
          "durationTicks": 194,
          "midi": 82,
          "name": "A#5",
          "ticks": 102578,
          "time": 133.56510416666666,
          "velocity": 0.07086614173228346
        },
        {
          "duration": 0.125,
          "durationTicks": 96,
          "midi": 46,
          "name": "A#2",
          "ticks": 102596,
          "time": 133.58854166666666,
          "velocity": 0.07874015748031496
        },
        {
          "duration": 0,
          "durationTicks": 0,
          "midi": 67,
          "name": "G4",
          "ticks": 102632,
          "time": 133.63541666666666,
          "velocity": 0.11023622047244094
        },
        {
          "duration": 0.1263020833333428,
          "durationTicks": 97,
          "midi": 68,
          "name": "G#4",
          "ticks": 102668,
          "time": 133.68229166666666,
          "velocity": 0.11811023622047244
        },
        {
          "duration": 0,
          "durationTicks": 0,
          "midi": 60,
          "name": "C4",
          "ticks": 102695,
          "time": 133.71744791666666,
          "velocity": 0.16535433070866143
        },
        {
          "duration": 0,
          "durationTicks": 0,
          "midi": 64,
          "name": "E4",
          "ticks": 102749,
          "time": 133.78776041666666,
          "velocity": 0.2440944881889764
        },
        {
          "duration": 0.12760416666668561,
          "durationTicks": 98,
          "midi": 65,
          "name": "F4",
          "ticks": 102758,
          "time": 133.79947916666666,
          "velocity": 0.25984251968503935
        },
        {
          "duration": 0,
          "durationTicks": 0,
          "midi": 39,
          "name": "D#2",
          "ticks": 102776,
          "time": 133.82291666666666,
          "velocity": 0.3464566929133858
        },
        {
          "duration": 0.1263020833333428,
          "durationTicks": 97,
          "midi": 39,
          "name": "D#2",
          "ticks": 102803,
          "time": 133.85807291666666,
          "velocity": 0.3543307086614173
        },
        {
          "duration": 0.1263020833333428,
          "durationTicks": 97,
          "midi": 58,
          "name": "A#3",
          "ticks": 102813,
          "time": 133.87109375,
          "velocity": 0.11023622047244094
        },
        {
          "duration": 0,
          "durationTicks": 0,
          "midi": 75,
          "name": "D#5",
          "ticks": 102849,
          "time": 133.91796875,
          "velocity": 0.14960629921259844
        },
        {
          "duration": 0,
          "durationTicks": 0,
          "midi": 70,
          "name": "A#4",
          "ticks": 102876,
          "time": 133.953125,
          "velocity": 0.1732283464566929
        },
        {
          "duration": 0.10677083333334281,
          "durationTicks": 82,
          "midi": 63,
          "name": "D#4",
          "ticks": 102885,
          "time": 133.96484375,
          "velocity": 0.10236220472440945
        },
        {
          "duration": 0.1276041666666572,
          "durationTicks": 98,
          "midi": 68,
          "name": "G#4",
          "ticks": 102921,
          "time": 134.01171875,
          "velocity": 0.28346456692913385
        },
        {
          "duration": 0,
          "durationTicks": 0,
          "midi": 72,
          "name": "C5",
          "ticks": 102939,
          "time": 134.03515625,
          "velocity": 0.11023622047244094
        },
        {
          "duration": 0,
          "durationTicks": 0,
          "midi": 86,
          "name": "D6",
          "ticks": 102939,
          "time": 134.03515625,
          "velocity": 0.10236220472440945
        },
        {
          "duration": 0.1276041666666572,
          "durationTicks": 98,
          "midi": 87,
          "name": "D#6",
          "ticks": 102939,
          "time": 134.03515625,
          "velocity": 0.1968503937007874
        },
        {
          "duration": 0,
          "durationTicks": 0,
          "midi": 56,
          "name": "G#3",
          "ticks": 102948,
          "time": 134.046875,
          "velocity": 0.2992125984251969
        },
        {
          "duration": 0,
          "durationTicks": 0,
          "midi": 64,
          "name": "E4",
          "ticks": 102948,
          "time": 134.046875,
          "velocity": 0.1968503937007874
        },
        {
          "duration": 0,
          "durationTicks": 0,
          "midi": 95,
          "name": "B6",
          "ticks": 102948,
          "time": 134.046875,
          "velocity": 0.05511811023622047
        },
        {
          "duration": 0,
          "durationTicks": 0,
          "midi": 84,
          "name": "C6",
          "ticks": 102958,
          "time": 134.05989583333334,
          "velocity": 0.05511811023622047
        },
        {
          "duration": 0.01953125,
          "durationTicks": 15,
          "midi": 63,
          "name": "D#4",
          "ticks": 102967,
          "time": 134.07161458333334,
          "velocity": 0.2283464566929134
        },
        {
          "duration": 0,
          "durationTicks": 0,
          "midi": 37,
          "name": "C#2",
          "ticks": 102994,
          "time": 134.10677083333334,
          "velocity": 0.14173228346456693
        },
        {
          "duration": 0,
          "durationTicks": 0,
          "midi": 65,
          "name": "F4",
          "ticks": 103003,
          "time": 134.11848958333334,
          "velocity": 0.14173228346456693
        },
        {
          "duration": 0,
          "durationTicks": 0,
          "midi": 60,
          "name": "C4",
          "ticks": 103012,
          "time": 134.13020833333334,
          "velocity": 0.1968503937007874
        },
        {
          "duration": 0,
          "durationTicks": 0,
          "midi": 75,
          "name": "D#5",
          "ticks": 103039,
          "time": 134.16536458333334,
          "velocity": 0.14960629921259844
        },
        {
          "duration": 0,
          "durationTicks": 0,
          "midi": 58,
          "name": "A#3",
          "ticks": 103066,
          "time": 134.20052083333334,
          "velocity": 0.1968503937007874
        },
        {
          "duration": 0,
          "durationTicks": 0,
          "midi": 57,
          "name": "A3",
          "ticks": 103102,
          "time": 134.24739583333334,
          "velocity": 0.2204724409448819
        },
        {
          "duration": 0,
          "durationTicks": 0,
          "midi": 56,
          "name": "G#3",
          "ticks": 103120,
          "time": 134.27083333333334,
          "velocity": 0.2204724409448819
        },
        {
          "duration": 0,
          "durationTicks": 0,
          "midi": 41,
          "name": "F2",
          "ticks": 103129,
          "time": 134.28255208333334,
          "velocity": 0.3779527559055118
        },
        {
          "duration": 0.12630208333331439,
          "durationTicks": 97,
          "midi": 63,
          "name": "D#4",
          "ticks": 103129,
          "time": 134.28255208333334,
          "velocity": 0.29133858267716534
        },
        {
          "duration": 0,
          "durationTicks": 0,
          "midi": 82,
          "name": "A#5",
          "ticks": 103139,
          "time": 134.29557291666666,
          "velocity": 0.09448818897637795
        },
        {
          "duration": 0,
          "durationTicks": 0,
          "midi": 57,
          "name": "A3",
          "ticks": 103156,
          "time": 134.31770833333334,
          "velocity": 0.14960629921259844
        },
        {
          "duration": 0.10546875,
          "durationTicks": 81,
          "midi": 68,
          "name": "G#4",
          "ticks": 103165,
          "time": 134.32942708333334,
          "velocity": 0.11023622047244094
        },
        {
          "duration": 0.2526041666666572,
          "durationTicks": 194,
          "midi": 39,
          "name": "D#2",
          "ticks": 103165,
          "time": 134.32942708333334,
          "velocity": 0.3779527559055118
        },
        {
          "duration": 0.125,
          "durationTicks": 96,
          "midi": 58,
          "name": "A#3",
          "ticks": 103192,
          "time": 134.36458333333334,
          "velocity": 0.10236220472440945
        },
        {
          "duration": 0,
          "durationTicks": 0,
          "midi": 72,
          "name": "C5",
          "ticks": 103202,
          "time": 134.37760416666666,
          "velocity": 0.18110236220472442
        },
        {
          "duration": 0,
          "durationTicks": 0,
          "midi": 75,
          "name": "D#5",
          "ticks": 103229,
          "time": 134.41276041666666,
          "velocity": 0.14173228346456693
        },
        {
          "duration": 0.1263020833333428,
          "durationTicks": 97,
          "midi": 65,
          "name": "F4",
          "ticks": 103229,
          "time": 134.41276041666666,
          "velocity": 0.2755905511811024
        },
        {
          "duration": 0.01953125,
          "durationTicks": 15,
          "midi": 68,
          "name": "G#4",
          "ticks": 103246,
          "time": 134.43489583333334,
          "velocity": 0.1889763779527559
        },
        {
          "duration": 0,
          "durationTicks": 0,
          "midi": 68,
          "name": "G#4",
          "ticks": 103300,
          "time": 134.50520833333334,
          "velocity": 0.11023622047244094
        },
        {
          "duration": 0.12630208333331439,
          "durationTicks": 97,
          "midi": 65,
          "name": "F4",
          "ticks": 103309,
          "time": 134.51692708333334,
          "velocity": 0.2992125984251969
        },
        {
          "duration": 0,
          "durationTicks": 0,
          "midi": 38,
          "name": "D2",
          "ticks": 103319,
          "time": 134.52994791666666,
          "velocity": 0.33070866141732286
        },
        {
          "duration": 0,
          "durationTicks": 0,
          "midi": 47,
          "name": "B2",
          "ticks": 103328,
          "time": 134.54166666666666,
          "velocity": 0.33858267716535434
        },
        {
          "duration": 0,
          "durationTicks": 0,
          "midi": 31,
          "name": "G1",
          "ticks": 103346,
          "time": 134.56510416666666,
          "velocity": 0.29133858267716534
        },
        {
          "duration": 0,
          "durationTicks": 0,
          "midi": 60,
          "name": "C4",
          "ticks": 103346,
          "time": 134.56510416666666,
          "velocity": 0.1968503937007874
        },
        {
          "duration": 0.2513020833333428,
          "durationTicks": 193,
          "midi": 46,
          "name": "A#2",
          "ticks": 103355,
          "time": 134.57682291666666,
          "velocity": 0.3464566929133858
        },
        {
          "duration": 0,
          "durationTicks": 0,
          "midi": 56,
          "name": "G#3",
          "ticks": 103399,
          "time": 134.63411458333334,
          "velocity": 0.1968503937007874
        },
        {
          "duration": 0,
          "durationTicks": 0,
          "midi": 69,
          "name": "A4",
          "ticks": 103426,
          "time": 134.66927083333334,
          "velocity": 0.14173228346456693
        },
        {
          "duration": 0,
          "durationTicks": 0,
          "midi": 75,
          "name": "D#5",
          "ticks": 103426,
          "time": 134.66927083333334,
          "velocity": 0.11811023622047244
        },
        {
          "duration": 0.125,
          "durationTicks": 96,
          "midi": 65,
          "name": "F4",
          "ticks": 103426,
          "time": 134.66927083333334,
          "velocity": 0.31496062992125984
        },
        {
          "duration": 0.125,
          "durationTicks": 96,
          "midi": 84,
          "name": "C6",
          "ticks": 103436,
          "time": 134.68229166666666,
          "velocity": 0.08661417322834646
        },
        {
          "duration": 0,
          "durationTicks": 0,
          "midi": 80,
          "name": "G#5",
          "ticks": 103453,
          "time": 134.70442708333334,
          "velocity": 0.2047244094488189
        },
        {
          "duration": 0,
          "durationTicks": 0,
          "midi": 87,
          "name": "D#6",
          "ticks": 103515,
          "time": 134.78515625,
          "velocity": 0.14173228346456693
        },
        {
          "duration": 0.1276041666666572,
          "durationTicks": 98,
          "midi": 51,
          "name": "D#3",
          "ticks": 103525,
          "time": 134.79817708333334,
          "velocity": 0.3700787401574803
        },
        {
          "duration": 0,
          "durationTicks": 0,
          "midi": 31,
          "name": "G1",
          "ticks": 103534,
          "time": 134.80989583333334,
          "velocity": 0.29133858267716534
        },
        {
          "duration": 0.1276041666666572,
          "durationTicks": 98,
          "midi": 73,
          "name": "C#5",
          "ticks": 103534,
          "time": 134.80989583333334,
          "velocity": 0.2047244094488189
        },
        {
          "duration": 0.1276041666666572,
          "durationTicks": 98,
          "midi": 67,
          "name": "G4",
          "ticks": 103534,
          "time": 134.80989583333334,
          "velocity": 0.25984251968503935
        },
        {
          "duration": 0.1276041666666572,
          "durationTicks": 98,
          "midi": 70,
          "name": "A#4",
          "ticks": 103543,
          "time": 134.82161458333334,
          "velocity": 0.12598425196850394
        },
        {
          "duration": 0,
          "durationTicks": 0,
          "midi": 75,
          "name": "D#5",
          "ticks": 103552,
          "time": 134.83333333333334,
          "velocity": 0.09448818897637795
        },
        {
          "duration": 0,
          "durationTicks": 0,
          "midi": 29,
          "name": "F1",
          "ticks": 103579,
          "time": 134.86848958333334,
          "velocity": 0.18110236220472442
        },
        {
          "duration": 0,
          "durationTicks": 0,
          "midi": 91,
          "name": "G6",
          "ticks": 103589,
          "time": 134.88151041666666,
          "velocity": 0.05511811023622047
        },
        {
          "duration": 0,
          "durationTicks": 0,
          "midi": 72,
          "name": "C5",
          "ticks": 103589,
          "time": 134.88151041666666,
          "velocity": 0.15748031496062992
        },
        {
          "duration": 0,
          "durationTicks": 0,
          "midi": 75,
          "name": "D#5",
          "ticks": 103606,
          "time": 134.90364583333334,
          "velocity": 0.14173228346456693
        },
        {
          "duration": 0.1263020833333428,
          "durationTicks": 97,
          "midi": 58,
          "name": "A#3",
          "ticks": 103616,
          "time": 134.91666666666666,
          "velocity": 0.11023622047244094
        },
        {
          "duration": 0,
          "durationTicks": 0,
          "midi": 65,
          "name": "F4",
          "ticks": 103625,
          "time": 134.92838541666666,
          "velocity": 0.12598425196850394
        },
        {
          "duration": 0.1263020833333428,
          "durationTicks": 97,
          "midi": 39,
          "name": "D#2",
          "ticks": 103625,
          "time": 134.92838541666666,
          "velocity": 0.3543307086614173
        },
        {
          "duration": 0.1263020833333428,
          "durationTicks": 97,
          "midi": 68,
          "name": "G#4",
          "ticks": 103625,
          "time": 134.92838541666666,
          "velocity": 0.28346456692913385
        },
        {
          "duration": 0,
          "durationTicks": 0,
          "midi": 52,
          "name": "E3",
          "ticks": 103706,
          "time": 135.03385416666666,
          "velocity": 0.3464566929133858
        },
        {
          "duration": 0,
          "durationTicks": 0,
          "midi": 72,
          "name": "C5",
          "ticks": 103706,
          "time": 135.03385416666666,
          "velocity": 0.11811023622047244
        },
        {
          "duration": 0,
          "durationTicks": 0,
          "midi": 86,
          "name": "D6",
          "ticks": 103706,
          "time": 135.03385416666666,
          "velocity": 0.11023622047244094
        },
        {
          "duration": 0,
          "durationTicks": 0,
          "midi": 90,
          "name": "F#6",
          "ticks": 103706,
          "time": 135.03385416666666,
          "velocity": 0.05511811023622047
        },
        {
          "duration": 0,
          "durationTicks": 0,
          "midi": 37,
          "name": "C#2",
          "ticks": 103715,
          "time": 135.04557291666666,
          "velocity": 0.25984251968503935
        },
        {
          "duration": 0,
          "durationTicks": 0,
          "midi": 69,
          "name": "A4",
          "ticks": 103715,
          "time": 135.04557291666666,
          "velocity": 0.25196850393700787
        },
        {
          "duration": 0,
          "durationTicks": 0,
          "midi": 85,
          "name": "C#6",
          "ticks": 103715,
          "time": 135.04557291666666,
          "velocity": 0.07874015748031496
        },
        {
          "duration": 0,
          "durationTicks": 0,
          "midi": 86,
          "name": "D6",
          "ticks": 103715,
          "time": 135.04557291666666,
          "velocity": 0.05511811023622047
        },
        {
          "duration": 0,
          "durationTicks": 0,
          "midi": 61,
          "name": "C#4",
          "ticks": 103724,
          "time": 135.05729166666666,
          "velocity": 0.1968503937007874
        },
        {
          "duration": 0.12890625,
          "durationTicks": 99,
          "midi": 51,
          "name": "D#3",
          "ticks": 103724,
          "time": 135.05729166666666,
          "velocity": 0.3543307086614173
        },
        {
          "duration": 0,
          "durationTicks": 0,
          "midi": 38,
          "name": "D2",
          "ticks": 103734,
          "time": 135.0703125,
          "velocity": 0.2204724409448819
        },
        {
          "duration": 0,
          "durationTicks": 0,
          "midi": 70,
          "name": "A#4",
          "ticks": 103734,
          "time": 135.0703125,
          "velocity": 0.23622047244094488
        },
        {
          "duration": 0,
          "durationTicks": 0,
          "midi": 89,
          "name": "F6",
          "ticks": 103734,
          "time": 135.0703125,
          "velocity": 0.11023622047244094
        },
        {
          "duration": 0,
          "durationTicks": 0,
          "midi": 62,
          "name": "D4",
          "ticks": 103743,
          "time": 135.08203125,
          "velocity": 0.1968503937007874
        },
        {
          "duration": 0.12890625,
          "durationTicks": 99,
          "midi": 67,
          "name": "G4",
          "ticks": 103743,
          "time": 135.08203125,
          "velocity": 0.14173228346456693
        },
        {
          "duration": 0,
          "durationTicks": 0,
          "midi": 74,
          "name": "D5",
          "ticks": 103770,
          "time": 135.1171875,
          "velocity": 0.14173228346456693
        },
        {
          "duration": 0,
          "durationTicks": 0,
          "midi": 72,
          "name": "C5",
          "ticks": 103770,
          "time": 135.1171875,
          "velocity": 0.2440944881889764
        },
        {
          "duration": 0,
          "durationTicks": 0,
          "midi": 87,
          "name": "D#6",
          "ticks": 103779,
          "time": 135.12890625,
          "velocity": 0.1968503937007874
        },
        {
          "duration": 0,
          "durationTicks": 0,
          "midi": 91,
          "name": "G6",
          "ticks": 103788,
          "time": 135.140625,
          "velocity": 0.05511811023622047
        },
        {
          "duration": 0,
          "durationTicks": 0,
          "midi": 49,
          "name": "C#3",
          "ticks": 103798,
          "time": 135.15364583333334,
          "velocity": 0.3228346456692913
        },
        {
          "duration": 0,
          "durationTicks": 0,
          "midi": 75,
          "name": "D#5",
          "ticks": 103807,
          "time": 135.16536458333334,
          "velocity": 0.13385826771653545
        },
        {
          "duration": 0,
          "durationTicks": 0,
          "midi": 73,
          "name": "C#5",
          "ticks": 103816,
          "time": 135.17708333333334,
          "velocity": 0.25984251968503935
        },
        {
          "duration": 0.12630208333331439,
          "durationTicks": 97,
          "midi": 84,
          "name": "C6",
          "ticks": 103816,
          "time": 135.17708333333334,
          "velocity": 0.2047244094488189
        },
        {
          "duration": 0.12630208333331439,
          "durationTicks": 97,
          "midi": 51,
          "name": "D#3",
          "ticks": 103816,
          "time": 135.17708333333334,
          "velocity": 0.3543307086614173
        },
        {
          "duration": 0.12630208333331439,
          "durationTicks": 97,
          "midi": 68,
          "name": "G#4",
          "ticks": 103816,
          "time": 135.17708333333334,
          "velocity": 0.15748031496062992
        },
        {
          "duration": 0.10546875,
          "durationTicks": 81,
          "midi": 70,
          "name": "A#4",
          "ticks": 103835,
          "time": 135.20182291666666,
          "velocity": 0.11023622047244094
        },
        {
          "duration": 0.1263020833333428,
          "durationTicks": 97,
          "midi": 80,
          "name": "G#5",
          "ticks": 103835,
          "time": 135.20182291666666,
          "velocity": 0.2283464566929134
        },
        {
          "duration": 0.1263020833333428,
          "durationTicks": 97,
          "midi": 77,
          "name": "F5",
          "ticks": 103871,
          "time": 135.24869791666666,
          "velocity": 0.25984251968503935
        },
        {
          "duration": 0.1263020833333428,
          "durationTicks": 97,
          "midi": 75,
          "name": "D#5",
          "ticks": 103871,
          "time": 135.24869791666666,
          "velocity": 0.25196850393700787
        },
        {
          "duration": 0,
          "durationTicks": 0,
          "midi": 52,
          "name": "E3",
          "ticks": 103889,
          "time": 135.27213541666666,
          "velocity": 0.31496062992125984
        },
        {
          "duration": 0,
          "durationTicks": 0,
          "midi": 45,
          "name": "A2",
          "ticks": 103898,
          "time": 135.28385416666666,
          "velocity": 0.33858267716535434
        },
        {
          "duration": 0.020833333333342807,
          "durationTicks": 16,
          "midi": 70,
          "name": "A#4",
          "ticks": 103916,
          "time": 135.30729166666666,
          "velocity": 0.11811023622047244
        },
        {
          "duration": 0.12760416666668561,
          "durationTicks": 98,
          "midi": 73,
          "name": "C#5",
          "ticks": 103916,
          "time": 135.30729166666666,
          "velocity": 0.2204724409448819
        },
        {
          "duration": 0.12760416666668561,
          "durationTicks": 98,
          "midi": 46,
          "name": "A#2",
          "ticks": 103916,
          "time": 135.30729166666666,
          "velocity": 0.3464566929133858
        },
        {
          "duration": 0.12760416666668561,
          "durationTicks": 98,
          "midi": 65,
          "name": "F4",
          "ticks": 103925,
          "time": 135.31901041666666,
          "velocity": 0.07874015748031496
        },
        {
          "duration": 0,
          "durationTicks": 0,
          "midi": 79,
          "name": "G5",
          "ticks": 103961,
          "time": 135.36588541666666,
          "velocity": 0.25984251968503935
        },
        {
          "duration": 0,
          "durationTicks": 0,
          "midi": 72,
          "name": "C5",
          "ticks": 103970,
          "time": 135.37760416666666,
          "velocity": 0.25984251968503935
        },
        {
          "duration": 0,
          "durationTicks": 0,
          "midi": 86,
          "name": "D6",
          "ticks": 103988,
          "time": 135.40104166666666,
          "velocity": 0.09448818897637795
        },
        {
          "duration": 0,
          "durationTicks": 0,
          "midi": 62,
          "name": "D4",
          "ticks": 103997,
          "time": 135.41276041666666,
          "velocity": 0.08661417322834646
        },
        {
          "duration": 0,
          "durationTicks": 0,
          "midi": 75,
          "name": "D#5",
          "ticks": 103997,
          "time": 135.41276041666666,
          "velocity": 0.16535433070866143
        },
        {
          "duration": 0.1276041666666572,
          "durationTicks": 98,
          "midi": 80,
          "name": "G#5",
          "ticks": 104007,
          "time": 135.42578125,
          "velocity": 0.25984251968503935
        },
        {
          "duration": 0,
          "durationTicks": 0,
          "midi": 57,
          "name": "A3",
          "ticks": 104016,
          "time": 135.4375,
          "velocity": 0.29133858267716534
        },
        {
          "duration": 0.1276041666666572,
          "durationTicks": 98,
          "midi": 68,
          "name": "G#4",
          "ticks": 104016,
          "time": 135.4375,
          "velocity": 0.25984251968503935
        },
        {
          "duration": 0.1276041666666572,
          "durationTicks": 98,
          "midi": 73,
          "name": "C#5",
          "ticks": 104016,
          "time": 135.4375,
          "velocity": 0.11811023622047244
        },
        {
          "duration": 0.1276041666666572,
          "durationTicks": 98,
          "midi": 39,
          "name": "D#2",
          "ticks": 104016,
          "time": 135.4375,
          "velocity": 0.3543307086614173
        },
        {
          "duration": 0.1276041666666572,
          "durationTicks": 98,
          "midi": 82,
          "name": "A#5",
          "ticks": 104052,
          "time": 135.484375,
          "velocity": 0.2755905511811024
        },
        {
          "duration": 0.1276041666666572,
          "durationTicks": 98,
          "midi": 63,
          "name": "D#4",
          "ticks": 104061,
          "time": 135.49609375,
          "velocity": 0.2204724409448819
        },
        {
          "duration": 0,
          "durationTicks": 0,
          "midi": 58,
          "name": "A#3",
          "ticks": 104071,
          "time": 135.50911458333334,
          "velocity": 0.16535433070866143
        },
        {
          "duration": 0.1276041666666572,
          "durationTicks": 98,
          "midi": 80,
          "name": "G#5",
          "ticks": 104088,
          "time": 135.53125,
          "velocity": 0.25984251968503935
        },
        {
          "duration": 0,
          "durationTicks": 0,
          "midi": 87,
          "name": "D#6",
          "ticks": 104098,
          "time": 135.54427083333334,
          "velocity": 0.06299212598425197
        },
        {
          "duration": 0.1276041666666572,
          "durationTicks": 98,
          "midi": 30,
          "name": "F#1",
          "ticks": 104098,
          "time": 135.54427083333334,
          "velocity": 0.4251968503937008
        },
        {
          "duration": 0,
          "durationTicks": 0,
          "midi": 61,
          "name": "C#4",
          "ticks": 104107,
          "time": 135.55598958333334,
          "velocity": 0.14173228346456693
        },
        {
          "duration": 0.1276041666666572,
          "durationTicks": 98,
          "midi": 77,
          "name": "F5",
          "ticks": 104107,
          "time": 135.55598958333334,
          "velocity": 0.11023622047244094
        },
        {
          "duration": 0,
          "durationTicks": 0,
          "midi": 48,
          "name": "C3",
          "ticks": 104143,
          "time": 135.60286458333334,
          "velocity": 0.12598425196850394
        },
        {
          "duration": 0.12630208333331439,
          "durationTicks": 97,
          "midi": 29,
          "name": "F1",
          "ticks": 104152,
          "time": 135.61458333333334,
          "velocity": 0.3779527559055118
        },
        {
          "duration": 0,
          "durationTicks": 0,
          "midi": 79,
          "name": "G5",
          "ticks": 104162,
          "time": 135.62760416666666,
          "velocity": 0.11811023622047244
        },
        {
          "duration": 0,
          "durationTicks": 0,
          "midi": 87,
          "name": "D#6",
          "ticks": 104171,
          "time": 135.63932291666666,
          "velocity": 0.11023622047244094
        },
        {
          "duration": 0,
          "durationTicks": 0,
          "midi": 75,
          "name": "D#5",
          "ticks": 104189,
          "time": 135.66276041666666,
          "velocity": 0.16535433070866143
        },
        {
          "duration": 0.1263020833333428,
          "durationTicks": 97,
          "midi": 80,
          "name": "G#5",
          "ticks": 104189,
          "time": 135.66276041666666,
          "velocity": 0.2204724409448819
        },
        {
          "duration": 0.1263020833333428,
          "durationTicks": 97,
          "midi": 48,
          "name": "C3",
          "ticks": 104189,
          "time": 135.66276041666666,
          "velocity": 0.08661417322834646
        },
        {
          "duration": 0,
          "durationTicks": 0,
          "midi": 77,
          "name": "F5",
          "ticks": 104207,
          "time": 135.68619791666666,
          "velocity": 0.25984251968503935
        },
        {
          "duration": 0,
          "durationTicks": 0,
          "midi": 84,
          "name": "C6",
          "ticks": 104207,
          "time": 135.68619791666666,
          "velocity": 0.11811023622047244
        },
        {
          "duration": 0,
          "durationTicks": 0,
          "midi": 82,
          "name": "A#5",
          "ticks": 104252,
          "time": 135.74479166666666,
          "velocity": 0.11023622047244094
        },
        {
          "duration": 0.125,
          "durationTicks": 96,
          "midi": 80,
          "name": "G#5",
          "ticks": 104261,
          "time": 135.75651041666666,
          "velocity": 0.1889763779527559
        },
        {
          "duration": 0,
          "durationTicks": 0,
          "midi": 77,
          "name": "F5",
          "ticks": 104279,
          "time": 135.77994791666666,
          "velocity": 0.2047244094488189
        },
        {
          "duration": 0,
          "durationTicks": 0,
          "midi": 87,
          "name": "D#6",
          "ticks": 104279,
          "time": 135.77994791666666,
          "velocity": 0.14173228346456693
        },
        {
          "duration": 0.10416666666668561,
          "durationTicks": 80,
          "midi": 75,
          "name": "D#5",
          "ticks": 104297,
          "time": 135.80338541666666,
          "velocity": 0.12598425196850394
        },
        {
          "duration": 0.12369791666668561,
          "durationTicks": 95,
          "midi": 72,
          "name": "C5",
          "ticks": 104297,
          "time": 135.80338541666666,
          "velocity": 0.25196850393700787
        },
        {
          "duration": 0.01953125,
          "durationTicks": 15,
          "midi": 75,
          "name": "D#5",
          "ticks": 104377,
          "time": 135.90755208333334,
          "velocity": 0.1732283464566929
        },
        {
          "duration": 0,
          "durationTicks": 0,
          "midi": 77,
          "name": "F5",
          "ticks": 104395,
          "time": 135.93098958333334,
          "velocity": 0.11023622047244094
        },
        {
          "duration": 0,
          "durationTicks": 0,
          "midi": 79,
          "name": "G5",
          "ticks": 104395,
          "time": 135.93098958333334,
          "velocity": 0.25984251968503935
        },
        {
          "duration": 0,
          "durationTicks": 0,
          "midi": 68,
          "name": "G#4",
          "ticks": 104404,
          "time": 135.94270833333334,
          "velocity": 0.11023622047244094
        },
        {
          "duration": 0,
          "durationTicks": 0,
          "midi": 63,
          "name": "D#4",
          "ticks": 104440,
          "time": 135.98958333333334,
          "velocity": 0.14173228346456693
        },
        {
          "duration": 0.125,
          "durationTicks": 96,
          "midi": 72,
          "name": "C5",
          "ticks": 104467,
          "time": 136.02473958333334,
          "velocity": 0.14173228346456693
        },
        {
          "duration": 0,
          "durationTicks": 0,
          "midi": 56,
          "name": "G#3",
          "ticks": 104476,
          "time": 136.03645833333334,
          "velocity": 0.30708661417322836
        },
        {
          "duration": 0,
          "durationTicks": 0,
          "midi": 79,
          "name": "G5",
          "ticks": 104476,
          "time": 136.03645833333334,
          "velocity": 0.2204724409448819
        },
        {
          "duration": 0,
          "durationTicks": 0,
          "midi": 87,
          "name": "D#6",
          "ticks": 104476,
          "time": 136.03645833333334,
          "velocity": 0.14960629921259844
        },
        {
          "duration": 0,
          "durationTicks": 0,
          "midi": 86,
          "name": "D6",
          "ticks": 104476,
          "time": 136.03645833333334,
          "velocity": 0.12598425196850394
        },
        {
          "duration": 0,
          "durationTicks": 0,
          "midi": 37,
          "name": "C#2",
          "ticks": 104486,
          "time": 136.04947916666666,
          "velocity": 0.2677165354330709
        },
        {
          "duration": 0,
          "durationTicks": 0,
          "midi": 80,
          "name": "G#5",
          "ticks": 104486,
          "time": 136.04947916666666,
          "velocity": 0.13385826771653545
        },
        {
          "duration": 0,
          "durationTicks": 0,
          "midi": 75,
          "name": "D#5",
          "ticks": 104486,
          "time": 136.04947916666666,
          "velocity": 0.23622047244094488
        },
        {
          "duration": 0,
          "durationTicks": 0,
          "midi": 56,
          "name": "G#3",
          "ticks": 104503,
          "time": 136.07161458333334,
          "velocity": 0.2047244094488189
        },
        {
          "duration": 0,
          "durationTicks": 0,
          "midi": 38,
          "name": "D2",
          "ticks": 104503,
          "time": 136.07161458333334,
          "velocity": 0.1968503937007874
        },
        {
          "duration": 0,
          "durationTicks": 0,
          "midi": 57,
          "name": "A3",
          "ticks": 104548,
          "time": 136.13020833333334,
          "velocity": 0.11023622047244094
        },
        {
          "duration": 0,
          "durationTicks": 0,
          "midi": 75,
          "name": "D#5",
          "ticks": 104565,
          "time": 136.15234375,
          "velocity": 0.2755905511811024
        },
        {
          "duration": 0,
          "durationTicks": 0,
          "midi": 70,
          "name": "A#4",
          "ticks": 104583,
          "time": 136.17578125,
          "velocity": 0.25984251968503935
        },
        {
          "duration": 0,
          "durationTicks": 0,
          "midi": 79,
          "name": "G5",
          "ticks": 104592,
          "time": 136.1875,
          "velocity": 0.11023622047244094
        },
        {
          "duration": 0,
          "durationTicks": 0,
          "midi": 70,
          "name": "A#4",
          "ticks": 104664,
          "time": 136.28125,
          "velocity": 0.1889763779527559
        },
        {
          "duration": 0,
          "durationTicks": 0,
          "midi": 63,
          "name": "D#4",
          "ticks": 104673,
          "time": 136.29296875,
          "velocity": 0.13385826771653545
        },
        {
          "duration": 0,
          "durationTicks": 0,
          "midi": 77,
          "name": "F5",
          "ticks": 104673,
          "time": 136.29296875,
          "velocity": 0.25984251968503935
        },
        {
          "duration": 0,
          "durationTicks": 0,
          "midi": 77,
          "name": "F5",
          "ticks": 104754,
          "time": 136.3984375,
          "velocity": 0.2125984251968504
        },
        {
          "duration": 0,
          "durationTicks": 0,
          "midi": 75,
          "name": "D#5",
          "ticks": 104763,
          "time": 136.41015625,
          "velocity": 0.2204724409448819
        },
        {
          "duration": 0.11588541666665719,
          "durationTicks": 89,
          "midi": 72,
          "name": "C5",
          "ticks": 104763,
          "time": 136.41015625,
          "velocity": 0.25196850393700787
        },
        {
          "duration": 0.009114583333342807,
          "durationTicks": 7,
          "midi": 72,
          "name": "C5",
          "ticks": 104852,
          "time": 136.52604166666666,
          "velocity": 0.1968503937007874
        },
        {
          "duration": 0,
          "durationTicks": 0,
          "midi": 63,
          "name": "D#4",
          "ticks": 104852,
          "time": 136.52604166666666,
          "velocity": 0.16535433070866143
        },
        {
          "duration": 0,
          "durationTicks": 0,
          "midi": 30,
          "name": "F#1",
          "ticks": 104871,
          "time": 136.55078125,
          "velocity": 0.4251968503937008
        },
        {
          "duration": 0.1263020833333428,
          "durationTicks": 97,
          "midi": 48,
          "name": "C3",
          "ticks": 104871,
          "time": 136.55078125,
          "velocity": 0.16535433070866143
        },
        {
          "duration": 0,
          "durationTicks": 0,
          "midi": 68,
          "name": "G#4",
          "ticks": 104880,
          "time": 136.5625,
          "velocity": 0.2440944881889764
        },
        {
          "duration": 0.1263020833333428,
          "durationTicks": 97,
          "midi": 29,
          "name": "F1",
          "ticks": 104907,
          "time": 136.59765625,
          "velocity": 0.3779527559055118
        },
        {
          "duration": 0,
          "durationTicks": 0,
          "midi": 69,
          "name": "A4",
          "ticks": 104951,
          "time": 136.65494791666666,
          "velocity": 0.1968503937007874
        },
        {
          "duration": 0.1171875,
          "durationTicks": 90,
          "midi": 75,
          "name": "D#5",
          "ticks": 104951,
          "time": 136.65494791666666,
          "velocity": 0.29133858267716534
        },
        {
          "duration": 0.1263020833333428,
          "durationTicks": 97,
          "midi": 48,
          "name": "C3",
          "ticks": 104951,
          "time": 136.65494791666666,
          "velocity": 0.08661417322834646
        },
        {
          "duration": 0,
          "durationTicks": 0,
          "midi": 72,
          "name": "C5",
          "ticks": 104961,
          "time": 136.66796875,
          "velocity": 0.10236220472440945
        },
        {
          "duration": 0.009114583333342807,
          "durationTicks": 7,
          "midi": 75,
          "name": "D#5",
          "ticks": 105041,
          "time": 136.77213541666666,
          "velocity": 0.1968503937007874
        },
        {
          "duration": 0,
          "durationTicks": 0,
          "midi": 70,
          "name": "A#4",
          "ticks": 105060,
          "time": 136.796875,
          "velocity": 0.25984251968503935
        },
        {
          "duration": 0,
          "durationTicks": 0,
          "midi": 70,
          "name": "A#4",
          "ticks": 105131,
          "time": 136.88932291666666,
          "velocity": 0.2204724409448819
        },
        {
          "duration": 0.125,
          "durationTicks": 96,
          "midi": 75,
          "name": "D#5",
          "ticks": 105131,
          "time": 136.88932291666666,
          "velocity": 0.1968503937007874
        },
        {
          "duration": 0,
          "durationTicks": 0,
          "midi": 67,
          "name": "G4",
          "ticks": 105167,
          "time": 136.93619791666666,
          "velocity": 0.23622047244094488
        },
        {
          "duration": 0,
          "durationTicks": 0,
          "midi": 70,
          "name": "A#4",
          "ticks": 105230,
          "time": 137.01822916666666,
          "velocity": 0.1732283464566929
        },
        {
          "duration": 0,
          "durationTicks": 0,
          "midi": 80,
          "name": "G#5",
          "ticks": 105230,
          "time": 137.01822916666666,
          "velocity": 0.14173228346456693
        },
        {
          "duration": 0,
          "durationTicks": 0,
          "midi": 56,
          "name": "G#3",
          "ticks": 105239,
          "time": 137.02994791666666,
          "velocity": 0.2992125984251969
        },
        {
          "duration": 0,
          "durationTicks": 0,
          "midi": 90,
          "name": "F#6",
          "ticks": 105239,
          "time": 137.02994791666666,
          "velocity": 0.07086614173228346
        },
        {
          "duration": 0,
          "durationTicks": 0,
          "midi": 86,
          "name": "D6",
          "ticks": 105239,
          "time": 137.02994791666666,
          "velocity": 0.08661417322834646
        },
        {
          "duration": 0.10546875,
          "durationTicks": 81,
          "midi": 72,
          "name": "C5",
          "ticks": 105239,
          "time": 137.02994791666666,
          "velocity": 0.2677165354330709
        },
        {
          "duration": 0.1263020833333428,
          "durationTicks": 97,
          "midi": 31,
          "name": "G1",
          "ticks": 105257,
          "time": 137.05338541666666,
          "velocity": 0.3543307086614173
        },
        {
          "duration": 0,
          "durationTicks": 0,
          "midi": 56,
          "name": "G#3",
          "ticks": 105266,
          "time": 137.06510416666666,
          "velocity": 0.1732283464566929
        },
        {
          "duration": 0.1263020833333428,
          "durationTicks": 97,
          "midi": 50,
          "name": "D3",
          "ticks": 105266,
          "time": 137.06510416666666,
          "velocity": 0.11023622047244094
        },
        {
          "duration": 0,
          "durationTicks": 0,
          "midi": 63,
          "name": "D#4",
          "ticks": 105293,
          "time": 137.10026041666666,
          "velocity": 0.07086614173228346
        },
        {
          "duration": 0,
          "durationTicks": 0,
          "midi": 57,
          "name": "A3",
          "ticks": 105302,
          "time": 137.11197916666666,
          "velocity": 0.08661417322834646
        },
        {
          "duration": 0.020833333333342807,
          "durationTicks": 16,
          "midi": 72,
          "name": "C5",
          "ticks": 105320,
          "time": 137.13541666666666,
          "velocity": 0.2204724409448819
        },
        {
          "duration": 0,
          "durationTicks": 0,
          "midi": 75,
          "name": "D#5",
          "ticks": 105329,
          "time": 137.14713541666666,
          "velocity": 0.16535433070866143
        },
        {
          "duration": 0.1263020833333428,
          "durationTicks": 97,
          "midi": 31,
          "name": "G1",
          "ticks": 105329,
          "time": 137.14713541666666,
          "velocity": 0.3543307086614173
        },
        {
          "duration": 0.1263020833333428,
          "durationTicks": 97,
          "midi": 65,
          "name": "F4",
          "ticks": 105338,
          "time": 137.15885416666666,
          "velocity": 0.25984251968503935
        },
        {
          "duration": 0,
          "durationTicks": 0,
          "midi": 87,
          "name": "D#6",
          "ticks": 105419,
          "time": 137.26432291666666,
          "velocity": 0.14960629921259844
        },
        {
          "duration": 0,
          "durationTicks": 0,
          "midi": 66,
          "name": "F#4",
          "ticks": 105428,
          "time": 137.27604166666666,
          "velocity": 0.2047244094488189
        },
        {
          "duration": 0,
          "durationTicks": 0,
          "midi": 70,
          "name": "A#4",
          "ticks": 105447,
          "time": 137.30078125,
          "velocity": 0.25196850393700787
        },
        {
          "duration": 0,
          "durationTicks": 0,
          "midi": 44,
          "name": "G#2",
          "ticks": 105518,
          "time": 137.39322916666666,
          "velocity": 0.3858267716535433
        },
        {
          "duration": 0,
          "durationTicks": 0,
          "midi": 70,
          "name": "A#4",
          "ticks": 105518,
          "time": 137.39322916666666,
          "velocity": 0.1968503937007874
        },
        {
          "duration": 0,
          "durationTicks": 0,
          "midi": 87,
          "name": "D#6",
          "ticks": 105518,
          "time": 137.39322916666666,
          "velocity": 0.14960629921259844
        },
        {
          "duration": 0.1263020833333428,
          "durationTicks": 97,
          "midi": 63,
          "name": "D#4",
          "ticks": 105518,
          "time": 137.39322916666666,
          "velocity": 0.28346456692913385
        },
        {
          "duration": 0,
          "durationTicks": 0,
          "midi": 45,
          "name": "A2",
          "ticks": 105536,
          "time": 137.41666666666666,
          "velocity": 0.3700787401574803
        },
        {
          "duration": 0,
          "durationTicks": 0,
          "midi": 31,
          "name": "G1",
          "ticks": 105545,
          "time": 137.42838541666666,
          "velocity": 0.29133858267716534
        },
        {
          "duration": 0.1263020833333428,
          "durationTicks": 97,
          "midi": 44,
          "name": "G#2",
          "ticks": 105555,
          "time": 137.44140625,
          "velocity": 0.36220472440944884
        },
        {
          "duration": 0,
          "durationTicks": 0,
          "midi": 58,
          "name": "A#3",
          "ticks": 105564,
          "time": 137.453125,
          "velocity": 0.06299212598425197
        },
        {
          "duration": 0.125,
          "durationTicks": 96,
          "midi": 68,
          "name": "G#4",
          "ticks": 105627,
          "time": 137.53515625,
          "velocity": 0.2440944881889764
        },
        {
          "duration": 0.125,
          "durationTicks": 96,
          "midi": 44,
          "name": "G#2",
          "ticks": 105698,
          "time": 137.62760416666666,
          "velocity": 0.36220472440944884
        },
        {
          "duration": 0,
          "durationTicks": 0,
          "midi": 75,
          "name": "D#5",
          "ticks": 105708,
          "time": 137.640625,
          "velocity": 0.13385826771653545
        },
        {
          "duration": 0,
          "durationTicks": 0,
          "midi": 60,
          "name": "C4",
          "ticks": 105725,
          "time": 137.66276041666666,
          "velocity": 0.2440944881889764
        },
        {
          "duration": 0.12369791666668561,
          "durationTicks": 95,
          "midi": 63,
          "name": "D#4",
          "ticks": 105779,
          "time": 137.73307291666666,
          "velocity": 0.2204724409448819
        },
        {
          "duration": 0,
          "durationTicks": 0,
          "midi": 31,
          "name": "G1",
          "ticks": 105814,
          "time": 137.77864583333334,
          "velocity": 0.36220472440944884
        },
        {
          "duration": 0,
          "durationTicks": 0,
          "midi": 32,
          "name": "G#1",
          "ticks": 105832,
          "time": 137.80208333333334,
          "velocity": 0.33070866141732286
        },
        {
          "duration": 0.125,
          "durationTicks": 96,
          "midi": 67,
          "name": "G4",
          "ticks": 105832,
          "time": 137.80208333333334,
          "velocity": 0.2755905511811024
        },
        {
          "duration": 0,
          "durationTicks": 0,
          "midi": 33,
          "name": "A1",
          "ticks": 105850,
          "time": 137.82552083333334,
          "velocity": 0.3228346456692913
        },
        {
          "duration": 0,
          "durationTicks": 0,
          "midi": 75,
          "name": "D#5",
          "ticks": 105894,
          "time": 137.8828125,
          "velocity": 0.14173228346456693
        },
        {
          "duration": 0,
          "durationTicks": 0,
          "midi": 58,
          "name": "A#3",
          "ticks": 105921,
          "time": 137.91796875,
          "velocity": 0.2677165354330709
        },
        {
          "duration": 0,
          "durationTicks": 0,
          "midi": 55,
          "name": "G3",
          "ticks": 105984,
          "time": 138,
          "velocity": 0.2283464566929134
        },
        {
          "duration": 0,
          "durationTicks": 0,
          "midi": 60,
          "name": "C4",
          "ticks": 105993,
          "time": 138.01171875,
          "velocity": 0.25984251968503935
        },
        {
          "duration": 0,
          "durationTicks": 0,
          "midi": 80,
          "name": "G#5",
          "ticks": 105993,
          "time": 138.01171875,
          "velocity": 0.13385826771653545
        },
        {
          "duration": 0,
          "durationTicks": 0,
          "midi": 84,
          "name": "C6",
          "ticks": 105993,
          "time": 138.01171875,
          "velocity": 0.09448818897637795
        },
        {
          "duration": 0,
          "durationTicks": 0,
          "midi": 87,
          "name": "D#6",
          "ticks": 105993,
          "time": 138.01171875,
          "velocity": 0.15748031496062992
        },
        {
          "duration": 0,
          "durationTicks": 0,
          "midi": 34,
          "name": "A#1",
          "ticks": 106003,
          "time": 138.02473958333334,
          "velocity": 0.3937007874015748
        },
        {
          "duration": 0,
          "durationTicks": 0,
          "midi": 56,
          "name": "G#3",
          "ticks": 106003,
          "time": 138.02473958333334,
          "velocity": 0.2755905511811024
        },
        {
          "duration": 0,
          "durationTicks": 0,
          "midi": 51,
          "name": "D#3",
          "ticks": 106003,
          "time": 138.02473958333334,
          "velocity": 0.15748031496062992
        },
        {
          "duration": 0.125,
          "durationTicks": 96,
          "midi": 65,
          "name": "F4",
          "ticks": 106003,
          "time": 138.02473958333334,
          "velocity": 0.25984251968503935
        },
        {
          "duration": 0,
          "durationTicks": 0,
          "midi": 79,
          "name": "G5",
          "ticks": 106012,
          "time": 138.03645833333334,
          "velocity": 0.05511811023622047
        },
        {
          "duration": 0,
          "durationTicks": 0,
          "midi": 90,
          "name": "F#6",
          "ticks": 106012,
          "time": 138.03645833333334,
          "velocity": 0.05511811023622047
        },
        {
          "duration": 0,
          "durationTicks": 0,
          "midi": 32,
          "name": "G#1",
          "ticks": 106030,
          "time": 138.05989583333334,
          "velocity": 0.3464566929133858
        },
        {
          "duration": 0,
          "durationTicks": 0,
          "midi": 51,
          "name": "D#3",
          "ticks": 106047,
          "time": 138.08203125,
          "velocity": 0.05511811023622047
        },
        {
          "duration": 0,
          "durationTicks": 0,
          "midi": 32,
          "name": "G#1",
          "ticks": 106057,
          "time": 138.09505208333334,
          "velocity": 0.3464566929133858
        },
        {
          "duration": 0.125,
          "durationTicks": 96,
          "midi": 75,
          "name": "D#5",
          "ticks": 106083,
          "time": 138.12890625,
          "velocity": 0.1732283464566929
        },
        {
          "duration": 0,
          "durationTicks": 0,
          "midi": 56,
          "name": "G#3",
          "ticks": 106128,
          "time": 138.1875,
          "velocity": 0.23622047244094488
        },
        {
          "duration": 0,
          "durationTicks": 0,
          "midi": 62,
          "name": "D4",
          "ticks": 106182,
          "time": 138.2578125,
          "velocity": 0.1968503937007874
        },
        {
          "duration": 0.125,
          "durationTicks": 96,
          "midi": 82,
          "name": "A#5",
          "ticks": 106199,
          "time": 138.27994791666666,
          "velocity": 0.07874015748031496
        },
        {
          "duration": 0.125,
          "durationTicks": 96,
          "midi": 63,
          "name": "D#4",
          "ticks": 106209,
          "time": 138.29296875,
          "velocity": 0.25984251968503935
        },
        {
          "duration": 0,
          "durationTicks": 0,
          "midi": 55,
          "name": "G3",
          "ticks": 106298,
          "time": 138.40885416666666,
          "velocity": 0.23622047244094488
        },
        {
          "duration": 0.125,
          "durationTicks": 96,
          "midi": 61,
          "name": "C#4",
          "ticks": 106378,
          "time": 138.51302083333334,
          "velocity": 0.2677165354330709
        },
        {
          "duration": 0,
          "durationTicks": 0,
          "midi": 31,
          "name": "G1",
          "ticks": 106414,
          "time": 138.55989583333334,
          "velocity": 0.25984251968503935
        },
        {
          "duration": 0,
          "durationTicks": 0,
          "midi": 75,
          "name": "D#5",
          "ticks": 106467,
          "time": 138.62890625,
          "velocity": 0.15748031496062992
        },
        {
          "duration": 0.125,
          "durationTicks": 96,
          "midi": 53,
          "name": "F3",
          "ticks": 106486,
          "time": 138.65364583333334,
          "velocity": 0.2677165354330709
        },
        {
          "duration": 0,
          "durationTicks": 0,
          "midi": 87,
          "name": "D#6",
          "ticks": 106557,
          "time": 138.74609375,
          "velocity": 0.13385826771653545
        },
        {
          "duration": 0,
          "durationTicks": 0,
          "midi": 60,
          "name": "C4",
          "ticks": 106575,
          "time": 138.76953125,
          "velocity": 0.2755905511811024
        },
        {
          "duration": 0,
          "durationTicks": 0,
          "midi": 31,
          "name": "G1",
          "ticks": 106602,
          "time": 138.8046875,
          "velocity": 0.25984251968503935
        },
        {
          "duration": 0,
          "durationTicks": 0,
          "midi": 61,
          "name": "C#4",
          "ticks": 106629,
          "time": 138.83984375,
          "velocity": 0.12598425196850394
        },
        {
          "duration": 0,
          "durationTicks": 0,
          "midi": 31,
          "name": "G1",
          "ticks": 106656,
          "time": 138.875,
          "velocity": 0.33858267716535434
        },
        {
          "duration": 0,
          "durationTicks": 0,
          "midi": 60,
          "name": "C4",
          "ticks": 106656,
          "time": 138.875,
          "velocity": 0.1732283464566929
        },
        {
          "duration": 0,
          "durationTicks": 0,
          "midi": 75,
          "name": "D#5",
          "ticks": 106665,
          "time": 138.88671875,
          "velocity": 0.14173228346456693
        },
        {
          "duration": 0.1276041666666572,
          "durationTicks": 98,
          "midi": 32,
          "name": "G#1",
          "ticks": 106674,
          "time": 138.8984375,
          "velocity": 0.3464566929133858
        },
        {
          "duration": 0.1276041666666572,
          "durationTicks": 98,
          "midi": 63,
          "name": "D#4",
          "ticks": 106674,
          "time": 138.8984375,
          "velocity": 0.07874015748031496
        },
        {
          "duration": 0,
          "durationTicks": 0,
          "midi": 51,
          "name": "D#3",
          "ticks": 106692,
          "time": 138.921875,
          "velocity": 0.23622047244094488
        },
        {
          "duration": 0,
          "durationTicks": 0,
          "midi": 52,
          "name": "E3",
          "ticks": 106719,
          "time": 138.95703125,
          "velocity": 0.2440944881889764
        },
        {
          "duration": 0.1276041666666572,
          "durationTicks": 98,
          "midi": 75,
          "name": "D#5",
          "ticks": 106728,
          "time": 138.96875,
          "velocity": 0.08661417322834646
        },
        {
          "duration": 0,
          "durationTicks": 0,
          "midi": 51,
          "name": "D#3",
          "ticks": 106738,
          "time": 138.98177083333334,
          "velocity": 0.2677165354330709
        },
        {
          "duration": 0,
          "durationTicks": 0,
          "midi": 45,
          "name": "A2",
          "ticks": 106747,
          "time": 138.99348958333334,
          "velocity": 0.3464566929133858
        },
        {
          "duration": 0,
          "durationTicks": 0,
          "midi": 70,
          "name": "A#4",
          "ticks": 106747,
          "time": 138.99348958333334,
          "velocity": 0.14173228346456693
        },
        {
          "duration": 0,
          "durationTicks": 0,
          "midi": 80,
          "name": "G#5",
          "ticks": 106756,
          "time": 139.00520833333334,
          "velocity": 0.11023622047244094
        },
        {
          "duration": 0,
          "durationTicks": 0,
          "midi": 90,
          "name": "F#6",
          "ticks": 106756,
          "time": 139.00520833333334,
          "velocity": 0.07086614173228346
        },
        {
          "duration": 0,
          "durationTicks": 0,
          "midi": 44,
          "name": "G#2",
          "ticks": 106765,
          "time": 139.01692708333334,
          "velocity": 0.3700787401574803
        },
        {
          "duration": 0,
          "durationTicks": 0,
          "midi": 57,
          "name": "A3",
          "ticks": 106765,
          "time": 139.01692708333334,
          "velocity": 0.2125984251968504
        },
        {
          "duration": 0.12630208333331439,
          "durationTicks": 97,
          "midi": 63,
          "name": "D#4",
          "ticks": 106765,
          "time": 139.01692708333334,
          "velocity": 0.1889763779527559
        },
        {
          "duration": 0.1263020833333428,
          "durationTicks": 97,
          "midi": 77,
          "name": "F5",
          "ticks": 106775,
          "time": 139.02994791666666,
          "velocity": 0.08661417322834646
        },
        {
          "duration": 0.12630208333331439,
          "durationTicks": 97,
          "midi": 44,
          "name": "G#2",
          "ticks": 106792,
          "time": 139.05208333333334,
          "velocity": 0.3700787401574803
        },
        {
          "duration": 0.12630208333331439,
          "durationTicks": 97,
          "midi": 58,
          "name": "A#3",
          "ticks": 106792,
          "time": 139.05208333333334,
          "velocity": 0.29133858267716534
        },
        {
          "duration": 0,
          "durationTicks": 0,
          "midi": 52,
          "name": "E3",
          "ticks": 106855,
          "time": 139.13411458333334,
          "velocity": 0.2283464566929134
        },
        {
          "duration": 0,
          "durationTicks": 0,
          "midi": 75,
          "name": "D#5",
          "ticks": 106855,
          "time": 139.13411458333334,
          "velocity": 0.10236220472440945
        },
        {
          "duration": 0,
          "durationTicks": 0,
          "midi": 32,
          "name": "G#1",
          "ticks": 106874,
          "time": 139.15885416666666,
          "velocity": 0.3464566929133858
        },
        {
          "duration": 0,
          "durationTicks": 0,
          "midi": 51,
          "name": "D#3",
          "ticks": 106874,
          "time": 139.15885416666666,
          "velocity": 0.25984251968503935
        },
        {
          "duration": 0,
          "durationTicks": 0,
          "midi": 70,
          "name": "A#4",
          "ticks": 106874,
          "time": 139.15885416666666,
          "velocity": 0.06299212598425197
        },
        {
          "duration": 0,
          "durationTicks": 0,
          "midi": 33,
          "name": "A1",
          "ticks": 106892,
          "time": 139.18229166666666,
          "velocity": 0.31496062992125984
        },
        {
          "duration": 0,
          "durationTicks": 0,
          "midi": 32,
          "name": "G#1",
          "ticks": 106928,
          "time": 139.22916666666666,
          "velocity": 0.3543307086614173
        },
        {
          "duration": 0,
          "durationTicks": 0,
          "midi": 52,
          "name": "E3",
          "ticks": 106937,
          "time": 139.24088541666666,
          "velocity": 0.2047244094488189
        },
        {
          "duration": 0,
          "durationTicks": 0,
          "midi": 87,
          "name": "D#6",
          "ticks": 106946,
          "time": 139.25260416666666,
          "velocity": 0.11023622047244094
        },
        {
          "duration": 0,
          "durationTicks": 0,
          "midi": 51,
          "name": "D#3",
          "ticks": 106956,
          "time": 139.265625,
          "velocity": 0.1968503937007874
        },
        {
          "duration": 0,
          "durationTicks": 0,
          "midi": 60,
          "name": "C4",
          "ticks": 106965,
          "time": 139.27734375,
          "velocity": 0.2677165354330709
        },
        {
          "duration": 0,
          "durationTicks": 0,
          "midi": 79,
          "name": "G5",
          "ticks": 106965,
          "time": 139.27734375,
          "velocity": 0.08661417322834646
        },
        {
          "duration": 0,
          "durationTicks": 0,
          "midi": 29,
          "name": "F1",
          "ticks": 106983,
          "time": 139.30078125,
          "velocity": 0.36220472440944884
        },
        {
          "duration": 0,
          "durationTicks": 0,
          "midi": 60,
          "name": "C4",
          "ticks": 107000,
          "time": 139.32291666666666,
          "velocity": 0.2755905511811024
        },
        {
          "duration": 0,
          "durationTicks": 0,
          "midi": 28,
          "name": "E1",
          "ticks": 107010,
          "time": 139.3359375,
          "velocity": 0.3543307086614173
        },
        {
          "duration": 0,
          "durationTicks": 0,
          "midi": 60,
          "name": "C4",
          "ticks": 107027,
          "time": 139.35807291666666,
          "velocity": 0.28346456692913385
        },
        {
          "duration": 0,
          "durationTicks": 0,
          "midi": 26,
          "name": "D1",
          "ticks": 107036,
          "time": 139.36979166666666,
          "velocity": 0.3464566929133858
        },
        {
          "duration": 0,
          "durationTicks": 0,
          "midi": 79,
          "name": "G5",
          "ticks": 107036,
          "time": 139.36979166666666,
          "velocity": 0.07086614173228346
        },
        {
          "duration": 0,
          "durationTicks": 0,
          "midi": 75,
          "name": "D#5",
          "ticks": 107046,
          "time": 139.3828125,
          "velocity": 0.15748031496062992
        },
        {
          "duration": 0.12369791666665719,
          "durationTicks": 95,
          "midi": 57,
          "name": "A3",
          "ticks": 107046,
          "time": 139.3828125,
          "velocity": 0.31496062992125984
        },
        {
          "duration": 0.125,
          "durationTicks": 96,
          "midi": 51,
          "name": "D#3",
          "ticks": 107063,
          "time": 139.40494791666666,
          "velocity": 0.29133858267716534
        },
        {
          "duration": 0.125,
          "durationTicks": 96,
          "midi": 70,
          "name": "A#4",
          "ticks": 107063,
          "time": 139.40494791666666,
          "velocity": 0.09448818897637795
        },
        {
          "duration": 0,
          "durationTicks": 0,
          "midi": 35,
          "name": "B1",
          "ticks": 107081,
          "time": 139.42838541666666,
          "velocity": 0.3464566929133858
        },
        {
          "duration": 0,
          "durationTicks": 0,
          "midi": 52,
          "name": "E3",
          "ticks": 107143,
          "time": 139.50911458333334,
          "velocity": 0.2440944881889764
        },
        {
          "duration": 0,
          "durationTicks": 0,
          "midi": 61,
          "name": "C#4",
          "ticks": 107152,
          "time": 139.52083333333334,
          "velocity": 0.25196850393700787
        },
        {
          "duration": 0,
          "durationTicks": 0,
          "midi": 64,
          "name": "E4",
          "ticks": 107162,
          "time": 139.53385416666666,
          "velocity": 0.2283464566929134
        },
        {
          "duration": 0,
          "durationTicks": 0,
          "midi": 34,
          "name": "A#1",
          "ticks": 107179,
          "time": 139.55598958333334,
          "velocity": 0.3779527559055118
        },
        {
          "duration": 0,
          "durationTicks": 0,
          "midi": 63,
          "name": "D#4",
          "ticks": 107179,
          "time": 139.55598958333334,
          "velocity": 0.18110236220472442
        },
        {
          "duration": 0.125,
          "durationTicks": 96,
          "midi": 53,
          "name": "F3",
          "ticks": 107179,
          "time": 139.55598958333334,
          "velocity": 0.08661417322834646
        },
        {
          "duration": 0,
          "durationTicks": 0,
          "midi": 60,
          "name": "C4",
          "ticks": 107189,
          "time": 139.56901041666666,
          "velocity": 0.13385826771653545
        },
        {
          "duration": 0,
          "durationTicks": 0,
          "midi": 34,
          "name": "A#1",
          "ticks": 107206,
          "time": 139.59114583333334,
          "velocity": 0.36220472440944884
        },
        {
          "duration": 0,
          "durationTicks": 0,
          "midi": 63,
          "name": "D#4",
          "ticks": 107224,
          "time": 139.61458333333334,
          "velocity": 0.2283464566929134
        },
        {
          "duration": 0.12369791666665719,
          "durationTicks": 95,
          "midi": 34,
          "name": "A#1",
          "ticks": 107233,
          "time": 139.62630208333334,
          "velocity": 0.3543307086614173
        },
        {
          "duration": 0.12369791666665719,
          "durationTicks": 95,
          "midi": 65,
          "name": "F4",
          "ticks": 107251,
          "time": 139.64973958333334,
          "velocity": 0.2440944881889764
        },
        {
          "duration": 0.12369791666665719,
          "durationTicks": 95,
          "midi": 84,
          "name": "C6",
          "ticks": 107268,
          "time": 139.671875,
          "velocity": 0.07874015748031496
        },
        {
          "duration": 0,
          "durationTicks": 0,
          "midi": 35,
          "name": "B1",
          "ticks": 107313,
          "time": 139.73046875,
          "velocity": 0.33858267716535434
        },
        {
          "duration": 0,
          "durationTicks": 0,
          "midi": 51,
          "name": "D#3",
          "ticks": 107313,
          "time": 139.73046875,
          "velocity": 0.14960629921259844
        },
        {
          "duration": 0,
          "durationTicks": 0,
          "midi": 64,
          "name": "E4",
          "ticks": 107348,
          "time": 139.77604166666666,
          "velocity": 0.10236220472440945
        },
        {
          "duration": 0,
          "durationTicks": 0,
          "midi": 75,
          "name": "D#5",
          "ticks": 107419,
          "time": 139.86848958333334,
          "velocity": 0.14960629921259844
        },
        {
          "duration": 0.1263020833333428,
          "durationTicks": 97,
          "midi": 65,
          "name": "F4",
          "ticks": 107429,
          "time": 139.88151041666666,
          "velocity": 0.25984251968503935
        },
        {
          "duration": 0.1263020833333428,
          "durationTicks": 97,
          "midi": 84,
          "name": "C6",
          "ticks": 107456,
          "time": 139.91666666666666,
          "velocity": 0.11023622047244094
        },
        {
          "duration": 0,
          "durationTicks": 0,
          "midi": 72,
          "name": "C5",
          "ticks": 107510,
          "time": 139.98697916666666,
          "velocity": 0.14173228346456693
        },
        {
          "duration": 0,
          "durationTicks": 0,
          "midi": 87,
          "name": "D#6",
          "ticks": 107510,
          "time": 139.98697916666666,
          "velocity": 0.1732283464566929
        },
        {
          "duration": 0,
          "durationTicks": 0,
          "midi": 86,
          "name": "D6",
          "ticks": 107510,
          "time": 139.98697916666666,
          "velocity": 0.09448818897637795
        },
        {
          "duration": 0,
          "durationTicks": 0,
          "midi": 80,
          "name": "G#5",
          "ticks": 107510,
          "time": 139.98697916666666,
          "velocity": 0.13385826771653545
        },
        {
          "duration": 0,
          "durationTicks": 0,
          "midi": 56,
          "name": "G#3",
          "ticks": 107519,
          "time": 139.99869791666666,
          "velocity": 0.2992125984251969
        },
        {
          "duration": 0,
          "durationTicks": 0,
          "midi": 66,
          "name": "F#4",
          "ticks": 107519,
          "time": 139.99869791666666,
          "velocity": 0.14173228346456693
        },
        {
          "duration": 0,
          "durationTicks": 0,
          "midi": 90,
          "name": "F#6",
          "ticks": 107519,
          "time": 139.99869791666666,
          "velocity": 0.07086614173228346
        },
        {
          "duration": 0,
          "durationTicks": 0,
          "midi": 91,
          "name": "G6",
          "ticks": 107528,
          "time": 140.01041666666666,
          "velocity": 0.10236220472440945
        },
        {
          "duration": 0,
          "durationTicks": 0,
          "midi": 38,
          "name": "D2",
          "ticks": 107537,
          "time": 140.02213541666666,
          "velocity": 0.2283464566929134
        },
        {
          "duration": 0,
          "durationTicks": 0,
          "midi": 75,
          "name": "D#5",
          "ticks": 107609,
          "time": 140.11588541666666,
          "velocity": 0.14960629921259844
        },
        {
          "duration": 0.1263020833333428,
          "durationTicks": 97,
          "midi": 60,
          "name": "C4",
          "ticks": 107609,
          "time": 140.11588541666666,
          "velocity": 0.25984251968503935
        },
        {
          "duration": 0.1263020833333428,
          "durationTicks": 97,
          "midi": 65,
          "name": "F4",
          "ticks": 107618,
          "time": 140.12760416666666,
          "velocity": 0.10236220472440945
        },
        {
          "duration": 0.1263020833333428,
          "durationTicks": 97,
          "midi": 79,
          "name": "G5",
          "ticks": 107618,
          "time": 140.12760416666666,
          "velocity": 0.07086614173228346
        },
        {
          "duration": 0.125,
          "durationTicks": 96,
          "midi": 44,
          "name": "G#2",
          "ticks": 107699,
          "time": 140.23307291666666,
          "velocity": 0.36220472440944884
        },
        {
          "duration": 0,
          "durationTicks": 0,
          "midi": 61,
          "name": "C#4",
          "ticks": 107708,
          "time": 140.24479166666666,
          "velocity": 0.25196850393700787
        },
        {
          "duration": 0.1263020833333428,
          "durationTicks": 97,
          "midi": 63,
          "name": "D#4",
          "ticks": 107735,
          "time": 140.27994791666666,
          "velocity": 0.25984251968503935
        },
        {
          "duration": 0,
          "durationTicks": 0,
          "midi": 64,
          "name": "E4",
          "ticks": 107806,
          "time": 140.37239583333334,
          "velocity": 0.2440944881889764
        },
        {
          "duration": 0,
          "durationTicks": 0,
          "midi": 84,
          "name": "C6",
          "ticks": 107806,
          "time": 140.37239583333334,
          "velocity": 0.08661417322834646
        },
        {
          "duration": 0.1263020833333428,
          "durationTicks": 97,
          "midi": 60,
          "name": "C4",
          "ticks": 107816,
          "time": 140.38541666666666,
          "velocity": 0.14960629921259844
        },
        {
          "duration": 0.1263020833333428,
          "durationTicks": 97,
          "midi": 65,
          "name": "F4",
          "ticks": 107825,
          "time": 140.39713541666666,
          "velocity": 0.2440944881889764
        },
        {
          "duration": 0,
          "durationTicks": 0,
          "midi": 47,
          "name": "B2",
          "ticks": 107906,
          "time": 140.50260416666666,
          "velocity": 0.3464566929133858
        },
        {
          "duration": 0,
          "durationTicks": 0,
          "midi": 66,
          "name": "F#4",
          "ticks": 107906,
          "time": 140.50260416666666,
          "velocity": 0.2125984251968504
        },
        {
          "duration": 0.1263020833333428,
          "durationTicks": 97,
          "midi": 68,
          "name": "G#4",
          "ticks": 107915,
          "time": 140.51432291666666,
          "velocity": 0.2440944881889764
        },
        {
          "duration": 0,
          "durationTicks": 0,
          "midi": 31,
          "name": "G1",
          "ticks": 107934,
          "time": 140.5390625,
          "velocity": 0.2755905511811024
        },
        {
          "duration": 0.125,
          "durationTicks": 96,
          "midi": 46,
          "name": "A#2",
          "ticks": 107943,
          "time": 140.55078125,
          "velocity": 0.33858267716535434
        },
        {
          "duration": 0.125,
          "durationTicks": 96,
          "midi": 63,
          "name": "D#4",
          "ticks": 107952,
          "time": 140.5625,
          "velocity": 0.12598425196850394
        },
        {
          "duration": 0,
          "durationTicks": 0,
          "midi": 75,
          "name": "D#5",
          "ticks": 107988,
          "time": 140.609375,
          "velocity": 0.14173228346456693
        },
        {
          "duration": 0.125,
          "durationTicks": 96,
          "midi": 65,
          "name": "F4",
          "ticks": 108005,
          "time": 140.63151041666666,
          "velocity": 0.11811023622047244
        },
        {
          "duration": 0.125,
          "durationTicks": 96,
          "midi": 70,
          "name": "A#4",
          "ticks": 108014,
          "time": 140.64322916666666,
          "velocity": 0.25984251968503935
        },
        {
          "duration": 0,
          "durationTicks": 0,
          "midi": 87,
          "name": "D#6",
          "ticks": 108086,
          "time": 140.73697916666666,
          "velocity": 0.14173228346456693
        },
        {
          "duration": 0.125,
          "durationTicks": 96,
          "midi": 68,
          "name": "G#4",
          "ticks": 108103,
          "time": 140.75911458333334,
          "velocity": 0.25196850393700787
        },
        {
          "duration": 0,
          "durationTicks": 0,
          "midi": 72,
          "name": "C5",
          "ticks": 108175,
          "time": 140.85286458333334,
          "velocity": 0.05511811023622047
        },
        {
          "duration": 0,
          "durationTicks": 0,
          "midi": 75,
          "name": "D#5",
          "ticks": 108184,
          "time": 140.86458333333334,
          "velocity": 0.14173228346456693
        },
        {
          "duration": 0,
          "durationTicks": 0,
          "midi": 89,
          "name": "F6",
          "ticks": 108256,
          "time": 140.95833333333334,
          "velocity": 0.05511811023622047
        },
        {
          "duration": 0.12630208333331439,
          "durationTicks": 97,
          "midi": 70,
          "name": "A#4",
          "ticks": 108256,
          "time": 140.95833333333334,
          "velocity": 0.30708661417322836
        },
        {
          "duration": 0,
          "durationTicks": 0,
          "midi": 86,
          "name": "D6",
          "ticks": 108273,
          "time": 140.98046875,
          "velocity": 0.07086614173228346
        },
        {
          "duration": 0,
          "durationTicks": 0,
          "midi": 80,
          "name": "G#5",
          "ticks": 108273,
          "time": 140.98046875,
          "velocity": 0.14173228346456693
        },
        {
          "duration": 0,
          "durationTicks": 0,
          "midi": 84,
          "name": "C6",
          "ticks": 108273,
          "time": 140.98046875,
          "velocity": 0.09448818897637795
        },
        {
          "duration": 0,
          "durationTicks": 0,
          "midi": 90,
          "name": "F#6",
          "ticks": 108283,
          "time": 140.99348958333334,
          "velocity": 0.07086614173228346
        },
        {
          "duration": 0,
          "durationTicks": 0,
          "midi": 63,
          "name": "D#4",
          "ticks": 108283,
          "time": 140.99348958333334,
          "velocity": 0.18110236220472442
        },
        {
          "duration": 0,
          "durationTicks": 0,
          "midi": 57,
          "name": "A3",
          "ticks": 108292,
          "time": 141.00520833333334,
          "velocity": 0.2992125984251969
        },
        {
          "duration": 0,
          "durationTicks": 0,
          "midi": 91,
          "name": "G6",
          "ticks": 108292,
          "time": 141.00520833333334,
          "velocity": 0.08661417322834646
        },
        {
          "duration": 0.12630208333331439,
          "durationTicks": 97,
          "midi": 89,
          "name": "F6",
          "ticks": 108292,
          "time": 141.00520833333334,
          "velocity": 0.08661417322834646
        },
        {
          "duration": 0,
          "durationTicks": 0,
          "midi": 38,
          "name": "D2",
          "ticks": 108301,
          "time": 141.01692708333334,
          "velocity": 0.2125984251968504
        },
        {
          "duration": 0,
          "durationTicks": 0,
          "midi": 57,
          "name": "A3",
          "ticks": 108355,
          "time": 141.08723958333334,
          "velocity": 0.09448818897637795
        },
        {
          "duration": 0,
          "durationTicks": 0,
          "midi": 61,
          "name": "C#4",
          "ticks": 108355,
          "time": 141.08723958333334,
          "velocity": 0.08661417322834646
        },
        {
          "duration": 0,
          "durationTicks": 0,
          "midi": 75,
          "name": "D#5",
          "ticks": 108373,
          "time": 141.11067708333334,
          "velocity": 0.14173228346456693
        },
        {
          "duration": 0,
          "durationTicks": 0,
          "midi": 69,
          "name": "A4",
          "ticks": 108382,
          "time": 141.12239583333334,
          "velocity": 0.25196850393700787
        },
        {
          "duration": 0.12630208333331439,
          "durationTicks": 97,
          "midi": 72,
          "name": "C5",
          "ticks": 108382,
          "time": 141.12239583333334,
          "velocity": 0.14173228346456693
        },
        {
          "duration": 0.12630208333331439,
          "durationTicks": 97,
          "midi": 87,
          "name": "D#6",
          "ticks": 108391,
          "time": 141.13411458333334,
          "velocity": 0.1889763779527559
        },
        {
          "duration": 0.12630208333331439,
          "durationTicks": 97,
          "midi": 68,
          "name": "G#4",
          "ticks": 108400,
          "time": 141.14583333333334,
          "velocity": 0.28346456692913385
        },
        {
          "duration": 0,
          "durationTicks": 0,
          "midi": 61,
          "name": "C#4",
          "ticks": 108410,
          "time": 141.15885416666666,
          "velocity": 0.08661417322834646
        },
        {
          "duration": 0.1263020833333428,
          "durationTicks": 97,
          "midi": 27,
          "name": "D#1",
          "ticks": 108464,
          "time": 141.22916666666666,
          "velocity": 0.3779527559055118
        },
        {
          "duration": 0.1276041666666572,
          "durationTicks": 98,
          "midi": 46,
          "name": "A#2",
          "ticks": 108481,
          "time": 141.25130208333334,
          "velocity": 0.06299212598425197
        },
        {
          "duration": 0.1276041666666572,
          "durationTicks": 98,
          "midi": 70,
          "name": "A#4",
          "ticks": 108481,
          "time": 141.25130208333334,
          "velocity": 0.25984251968503935
        },
        {
          "duration": 0.1276041666666572,
          "durationTicks": 98,
          "midi": 89,
          "name": "F6",
          "ticks": 108490,
          "time": 141.26302083333334,
          "velocity": 0.08661417322834646
        },
        {
          "duration": 0,
          "durationTicks": 0,
          "midi": 61,
          "name": "C#4",
          "ticks": 108509,
          "time": 141.28776041666666,
          "velocity": 0.10236220472440945
        },
        {
          "duration": 0,
          "durationTicks": 0,
          "midi": 61,
          "name": "C#4",
          "ticks": 108545,
          "time": 141.33463541666666,
          "velocity": 0.1889763779527559
        },
        {
          "duration": 0.12760416666668561,
          "durationTicks": 98,
          "midi": 87,
          "name": "D#6",
          "ticks": 108563,
          "time": 141.35807291666666,
          "velocity": 0.1732283464566929
        },
        {
          "duration": 0,
          "durationTicks": 0,
          "midi": 29,
          "name": "F1",
          "ticks": 108572,
          "time": 141.36979166666666,
          "velocity": 0.3858267716535433
        },
        {
          "duration": 0.1263020833333428,
          "durationTicks": 97,
          "midi": 68,
          "name": "G#4",
          "ticks": 108591,
          "time": 141.39453125,
          "velocity": 0.25196850393700787
        },
        {
          "duration": 0,
          "durationTicks": 0,
          "midi": 72,
          "name": "C5",
          "ticks": 108600,
          "time": 141.40625,
          "velocity": 0.07874015748031496
        },
        {
          "duration": 0.1263020833333428,
          "durationTicks": 97,
          "midi": 84,
          "name": "C6",
          "ticks": 108600,
          "time": 141.40625,
          "velocity": 0.08661417322834646
        },
        {
          "duration": 0,
          "durationTicks": 0,
          "midi": 61,
          "name": "C#4",
          "ticks": 108609,
          "time": 141.41796875,
          "velocity": 0.16535433070866143
        },
        {
          "duration": 0,
          "durationTicks": 0,
          "midi": 28,
          "name": "E1",
          "ticks": 108627,
          "time": 141.44140625,
          "velocity": 0.3700787401574803
        },
        {
          "duration": 0.1171875,
          "durationTicks": 90,
          "midi": 70,
          "name": "A#4",
          "ticks": 108654,
          "time": 141.4765625,
          "velocity": 0.2992125984251969
        },
        {
          "duration": 0,
          "durationTicks": 0,
          "midi": 63,
          "name": "D#4",
          "ticks": 108663,
          "time": 141.48828125,
          "velocity": 0.14173228346456693
        },
        {
          "duration": 0.2513020833333428,
          "durationTicks": 193,
          "midi": 27,
          "name": "D#1",
          "ticks": 108663,
          "time": 141.48828125,
          "velocity": 0.36220472440944884
        },
        {
          "duration": 0.2526041666666572,
          "durationTicks": 194,
          "midi": 46,
          "name": "A#2",
          "ticks": 108681,
          "time": 141.51171875,
          "velocity": 0.10236220472440945
        },
        {
          "duration": 0,
          "durationTicks": 0,
          "midi": 89,
          "name": "F6",
          "ticks": 108699,
          "time": 141.53515625,
          "velocity": 0.08661417322834646
        },
        {
          "duration": 0.125,
          "durationTicks": 96,
          "midi": 61,
          "name": "C#4",
          "ticks": 108709,
          "time": 141.54817708333334,
          "velocity": 0.11811023622047244
        },
        {
          "duration": 0.125,
          "durationTicks": 96,
          "midi": 72,
          "name": "C5",
          "ticks": 108726,
          "time": 141.5703125,
          "velocity": 0.23622047244094488
        },
        {
          "duration": 0.125,
          "durationTicks": 96,
          "midi": 91,
          "name": "G6",
          "ticks": 108726,
          "time": 141.5703125,
          "velocity": 0.08661417322834646
        },
        {
          "duration": 0.009114583333342807,
          "durationTicks": 7,
          "midi": 70,
          "name": "A#4",
          "ticks": 108744,
          "time": 141.59375,
          "velocity": 0.11023622047244094
        },
        {
          "duration": 0,
          "durationTicks": 0,
          "midi": 75,
          "name": "D#5",
          "ticks": 108753,
          "time": 141.60546875,
          "velocity": 0.15748031496062992
        },
        {
          "duration": 0.1263020833333428,
          "durationTicks": 97,
          "midi": 68,
          "name": "G#4",
          "ticks": 108780,
          "time": 141.640625,
          "velocity": 0.1968503937007874
        },
        {
          "duration": 0,
          "durationTicks": 0,
          "midi": 69,
          "name": "A4",
          "ticks": 108834,
          "time": 141.7109375,
          "velocity": 0.25196850393700787
        },
        {
          "duration": 0.1263020833333428,
          "durationTicks": 97,
          "midi": 89,
          "name": "F6",
          "ticks": 108852,
          "time": 141.734375,
          "velocity": 0.09448818897637795
        },
        {
          "duration": 0.1263020833333428,
          "durationTicks": 97,
          "midi": 70,
          "name": "A#4",
          "ticks": 108852,
          "time": 141.734375,
          "velocity": 0.2992125984251969
        },
        {
          "duration": 0,
          "durationTicks": 0,
          "midi": 63,
          "name": "D#4",
          "ticks": 108861,
          "time": 141.74609375,
          "velocity": 0.14173228346456693
        },
        {
          "duration": 0.2526041666666572,
          "durationTicks": 194,
          "midi": 58,
          "name": "A#3",
          "ticks": 108870,
          "time": 141.7578125,
          "velocity": 0.11023622047244094
        },
        {
          "duration": 0.2109375,
          "durationTicks": 162,
          "midi": 39,
          "name": "D#2",
          "ticks": 108879,
          "time": 141.76953125,
          "velocity": 0.3779527559055118
        },
        {
          "duration": 0.125,
          "durationTicks": 96,
          "midi": 72,
          "name": "C5",
          "ticks": 108924,
          "time": 141.828125,
          "velocity": 0.18110236220472442
        },
        {
          "duration": 0,
          "durationTicks": 0,
          "midi": 75,
          "name": "D#5",
          "ticks": 108942,
          "time": 141.8515625,
          "velocity": 0.14960629921259844
        },
        {
          "duration": 0.12890625,
          "durationTicks": 99,
          "midi": 80,
          "name": "G#5",
          "ticks": 109032,
          "time": 141.96875,
          "velocity": 0.16535433070866143
        },
        {
          "duration": 0.04166666666665719,
          "durationTicks": 32,
          "midi": 39,
          "name": "D#2",
          "ticks": 109041,
          "time": 141.98046875,
          "velocity": 0.2677165354330709
        },
        {
          "duration": 0,
          "durationTicks": 0,
          "midi": 87,
          "name": "D#6",
          "ticks": 109041,
          "time": 141.98046875,
          "velocity": 0.14173228346456693
        },
        {
          "duration": 0,
          "durationTicks": 0,
          "midi": 86,
          "name": "D6",
          "ticks": 109041,
          "time": 141.98046875,
          "velocity": 0.07874015748031496
        },
        {
          "duration": 0,
          "durationTicks": 0,
          "midi": 90,
          "name": "F#6",
          "ticks": 109041,
          "time": 141.98046875,
          "velocity": 0.05511811023622047
        },
        {
          "duration": 0.12890625,
          "durationTicks": 99,
          "midi": 67,
          "name": "G4",
          "ticks": 109041,
          "time": 141.98046875,
          "velocity": 0.25984251968503935
        },
        {
          "duration": 0.12890625,
          "durationTicks": 99,
          "midi": 72,
          "name": "C5",
          "ticks": 109050,
          "time": 141.9921875,
          "velocity": 0.1732283464566929
        },
        {
          "duration": 0,
          "durationTicks": 0,
          "midi": 70,
          "name": "A#4",
          "ticks": 109060,
          "time": 142.00520833333334,
          "velocity": 0.14960629921259844
        },
        {
          "duration": 0,
          "durationTicks": 0,
          "midi": 56,
          "name": "G#3",
          "ticks": 109069,
          "time": 142.01692708333334,
          "velocity": 0.1968503937007874
        },
        {
          "duration": 0,
          "durationTicks": 0,
          "midi": 38,
          "name": "D2",
          "ticks": 109069,
          "time": 142.01692708333334,
          "velocity": 0.1968503937007874
        },
        {
          "duration": 0,
          "durationTicks": 0,
          "midi": 86,
          "name": "D6",
          "ticks": 109069,
          "time": 142.01692708333334,
          "velocity": 0.05511811023622047
        },
        {
          "duration": 0,
          "durationTicks": 0,
          "midi": 70,
          "name": "A#4",
          "ticks": 109105,
          "time": 142.06380208333334,
          "velocity": 0.11023622047244094
        },
        {
          "duration": 0.12630208333331439,
          "durationTicks": 97,
          "midi": 68,
          "name": "G#4",
          "ticks": 109105,
          "time": 142.06380208333334,
          "velocity": 0.25984251968503935
        },
        {
          "duration": 0,
          "durationTicks": 0,
          "midi": 57,
          "name": "A3",
          "ticks": 109114,
          "time": 142.07552083333334,
          "velocity": 0.09448818897637795
        },
        {
          "duration": 0.125,
          "durationTicks": 96,
          "midi": 87,
          "name": "D#6",
          "ticks": 109124,
          "time": 142.08854166666666,
          "velocity": 0.08661417322834646
        },
        {
          "duration": 0,
          "durationTicks": 0,
          "midi": 75,
          "name": "D#5",
          "ticks": 109133,
          "time": 142.10026041666666,
          "velocity": 0.14173228346456693
        },
        {
          "duration": 0,
          "durationTicks": 0,
          "midi": 84,
          "name": "C6",
          "ticks": 109169,
          "time": 142.14713541666666,
          "velocity": 0.08661417322834646
        },
        {
          "duration": 0,
          "durationTicks": 0,
          "midi": 72,
          "name": "C5",
          "ticks": 109187,
          "time": 142.17057291666666,
          "velocity": 0.11023622047244094
        },
        {
          "duration": 0,
          "durationTicks": 0,
          "midi": 41,
          "name": "F2",
          "ticks": 109222,
          "time": 142.21614583333334,
          "velocity": 0.36220472440944884
        },
        {
          "duration": 0,
          "durationTicks": 0,
          "midi": 63,
          "name": "D#4",
          "ticks": 109231,
          "time": 142.22786458333334,
          "velocity": 0.15748031496062992
        },
        {
          "duration": 0.1276041666666572,
          "durationTicks": 98,
          "midi": 70,
          "name": "A#4",
          "ticks": 109231,
          "time": 142.22786458333334,
          "velocity": 0.25984251968503935
        },
        {
          "duration": 0.2513020833333144,
          "durationTicks": 193,
          "midi": 58,
          "name": "A#3",
          "ticks": 109231,
          "time": 142.22786458333334,
          "velocity": 0.11023622047244094
        },
        {
          "duration": 0,
          "durationTicks": 0,
          "midi": 89,
          "name": "F6",
          "ticks": 109241,
          "time": 142.24088541666666,
          "velocity": 0.07086614173228346
        },
        {
          "duration": 0,
          "durationTicks": 0,
          "midi": 67,
          "name": "G4",
          "ticks": 109250,
          "time": 142.25260416666666,
          "velocity": 0.07086614173228346
        },
        {
          "duration": 0.1263020833333428,
          "durationTicks": 97,
          "midi": 73,
          "name": "C#5",
          "ticks": 109250,
          "time": 142.25260416666666,
          "velocity": 0.08661417322834646
        },
        {
          "duration": 0,
          "durationTicks": 0,
          "midi": 39,
          "name": "D#2",
          "ticks": 109259,
          "time": 142.26432291666666,
          "velocity": 0.3543307086614173
        },
        {
          "duration": 0.25,
          "durationTicks": 192,
          "midi": 68,
          "name": "G#4",
          "ticks": 109277,
          "time": 142.28776041666666,
          "velocity": 0.1968503937007874
        },
        {
          "duration": 0.125,
          "durationTicks": 96,
          "midi": 39,
          "name": "D#2",
          "ticks": 109286,
          "time": 142.29947916666666,
          "velocity": 0.3543307086614173
        },
        {
          "duration": 0,
          "durationTicks": 0,
          "midi": 75,
          "name": "D#5",
          "ticks": 109322,
          "time": 142.34635416666666,
          "velocity": 0.14173228346456693
        },
        {
          "duration": 0.375,
          "durationTicks": 288,
          "midi": 65,
          "name": "F4",
          "ticks": 109322,
          "time": 142.34635416666666,
          "velocity": 0.28346456692913385
        },
        {
          "duration": 0,
          "durationTicks": 0,
          "midi": 84,
          "name": "C6",
          "ticks": 109332,
          "time": 142.359375,
          "velocity": 0.13385826771653545
        },
        {
          "duration": 0.12369791666668561,
          "durationTicks": 95,
          "midi": 72,
          "name": "C5",
          "ticks": 109367,
          "time": 142.40494791666666,
          "velocity": 0.09448818897637795
        },
        {
          "duration": 0.25,
          "durationTicks": 192,
          "midi": 84,
          "name": "C6",
          "ticks": 109384,
          "time": 142.42708333333334,
          "velocity": 0.11023622047244094
        },
        {
          "duration": 0,
          "durationTicks": 0,
          "midi": 47,
          "name": "B2",
          "ticks": 109420,
          "time": 142.47395833333334,
          "velocity": 0.33858267716535434
        },
        {
          "duration": 0.125,
          "durationTicks": 96,
          "midi": 91,
          "name": "G6",
          "ticks": 109420,
          "time": 142.47395833333334,
          "velocity": 0.07086614173228346
        },
        {
          "duration": 0,
          "durationTicks": 0,
          "midi": 70,
          "name": "A#4",
          "ticks": 109429,
          "time": 142.48567708333334,
          "velocity": 0.11811023622047244
        },
        {
          "duration": 0,
          "durationTicks": 0,
          "midi": 31,
          "name": "G1",
          "ticks": 109447,
          "time": 142.50911458333334,
          "velocity": 0.29133858267716534
        },
        {
          "duration": 0.2513020833333144,
          "durationTicks": 193,
          "midi": 46,
          "name": "A#2",
          "ticks": 109447,
          "time": 142.50911458333334,
          "velocity": 0.3464566929133858
        },
        {
          "duration": 0,
          "durationTicks": 0,
          "midi": 75,
          "name": "D#5",
          "ticks": 109518,
          "time": 142.6015625,
          "velocity": 0.14173228346456693
        },
        {
          "duration": 0.25,
          "durationTicks": 192,
          "midi": 72,
          "name": "C5",
          "ticks": 109527,
          "time": 142.61328125,
          "velocity": 0.1732283464566929
        },
        {
          "duration": 0,
          "durationTicks": 0,
          "midi": 64,
          "name": "E4",
          "ticks": 109608,
          "time": 142.71875,
          "velocity": 0.1968503937007874
        },
        {
          "duration": 0,
          "durationTicks": 0,
          "midi": 87,
          "name": "D#6",
          "ticks": 109617,
          "time": 142.73046875,
          "velocity": 0.07874015748031496
        },
        {
          "duration": 0,
          "durationTicks": 0,
          "midi": 31,
          "name": "G1",
          "ticks": 109627,
          "time": 142.74348958333334,
          "velocity": 0.29133858267716534
        },
        {
          "duration": 0.12369791666665719,
          "durationTicks": 95,
          "midi": 65,
          "name": "F4",
          "ticks": 109627,
          "time": 142.74348958333334,
          "velocity": 0.25984251968503935
        },
        {
          "duration": 0.12369791666665719,
          "durationTicks": 95,
          "midi": 70,
          "name": "A#4",
          "ticks": 109627,
          "time": 142.74348958333334,
          "velocity": 0.09448818897637795
        },
        {
          "duration": 0.12369791666665719,
          "durationTicks": 95,
          "midi": 51,
          "name": "D#3",
          "ticks": 109627,
          "time": 142.74348958333334,
          "velocity": 0.36220472440944884
        },
        {
          "duration": 0.125,
          "durationTicks": 96,
          "midi": 61,
          "name": "C#4",
          "ticks": 109662,
          "time": 142.7890625,
          "velocity": 0.12598425196850394
        },
        {
          "duration": 0,
          "durationTicks": 0,
          "midi": 75,
          "name": "D#5",
          "ticks": 109706,
          "time": 142.84635416666666,
          "velocity": 0.14960629921259844
        },
        {
          "duration": 0.1263020833333428,
          "durationTicks": 97,
          "midi": 39,
          "name": "D#2",
          "ticks": 109706,
          "time": 142.84635416666666,
          "velocity": 0.3543307086614173
        },
        {
          "duration": 0.11848958333334281,
          "durationTicks": 91,
          "midi": 73,
          "name": "C#5",
          "ticks": 109733,
          "time": 142.88151041666666,
          "velocity": 0.14173228346456693
        },
        {
          "duration": 0.12760416666668561,
          "durationTicks": 98,
          "midi": 61,
          "name": "C#4",
          "ticks": 109742,
          "time": 142.89322916666666,
          "velocity": 0.16535433070866143
        },
        {
          "duration": 0,
          "durationTicks": 0,
          "midi": 68,
          "name": "G#4",
          "ticks": 109769,
          "time": 142.92838541666666,
          "velocity": 0.08661417322834646
        },
        {
          "duration": 0,
          "durationTicks": 0,
          "midi": 72,
          "name": "C5",
          "ticks": 109779,
          "time": 142.94140625,
          "velocity": 0.1968503937007874
        },
        {
          "duration": 0.12760416666668561,
          "durationTicks": 98,
          "midi": 79,
          "name": "G5",
          "ticks": 109796,
          "time": 142.96354166666666,
          "velocity": 0.25984251968503935
        },
        {
          "duration": 0.12760416666668561,
          "durationTicks": 98,
          "midi": 75,
          "name": "D#5",
          "ticks": 109796,
          "time": 142.96354166666666,
          "velocity": 0.25984251968503935
        },
        {
          "duration": 0,
          "durationTicks": 0,
          "midi": 37,
          "name": "C#2",
          "ticks": 109806,
          "time": 142.9765625,
          "velocity": 0.2677165354330709
        },
        {
          "duration": 0,
          "durationTicks": 0,
          "midi": 95,
          "name": "B6",
          "ticks": 109806,
          "time": 142.9765625,
          "velocity": 0.07874015748031496
        },
        {
          "duration": 0,
          "durationTicks": 0,
          "midi": 92,
          "name": "G#6",
          "ticks": 109806,
          "time": 142.9765625,
          "velocity": 0.07086614173228346
        },
        {
          "duration": 0,
          "durationTicks": 0,
          "midi": 57,
          "name": "A3",
          "ticks": 109815,
          "time": 142.98828125,
          "velocity": 0.30708661417322836
        },
        {
          "duration": 0.1276041666666572,
          "durationTicks": 98,
          "midi": 51,
          "name": "D#3",
          "ticks": 109815,
          "time": 142.98828125,
          "velocity": 0.3543307086614173
        },
        {
          "duration": 0.2552083333333428,
          "durationTicks": 196,
          "midi": 70,
          "name": "A#4",
          "ticks": 109815,
          "time": 142.98828125,
          "velocity": 0.13385826771653545
        },
        {
          "duration": 0.009114583333342807,
          "durationTicks": 7,
          "midi": 73,
          "name": "C#5",
          "ticks": 109824,
          "time": 143,
          "velocity": 0.10236220472440945
        },
        {
          "duration": 0.1276041666666572,
          "durationTicks": 98,
          "midi": 86,
          "name": "D6",
          "ticks": 109824,
          "time": 143,
          "velocity": 0.07874015748031496
        },
        {
          "duration": 0,
          "durationTicks": 0,
          "midi": 38,
          "name": "D2",
          "ticks": 109834,
          "time": 143.01302083333334,
          "velocity": 0.1732283464566929
        },
        {
          "duration": 0.3802083333333144,
          "durationTicks": 292,
          "midi": 61,
          "name": "C#4",
          "ticks": 109834,
          "time": 143.01302083333334,
          "velocity": 0.1732283464566929
        },
        {
          "duration": 0.12630208333331439,
          "durationTicks": 97,
          "midi": 65,
          "name": "F4",
          "ticks": 109843,
          "time": 143.02473958333334,
          "velocity": 0.13385826771653545
        },
        {
          "duration": 0.12630208333331439,
          "durationTicks": 97,
          "midi": 94,
          "name": "A#6",
          "ticks": 109843,
          "time": 143.02473958333334,
          "velocity": 0.05511811023622047
        },
        {
          "duration": 0,
          "durationTicks": 0,
          "midi": 68,
          "name": "G#4",
          "ticks": 109860,
          "time": 143.046875,
          "velocity": 0.08661417322834646
        },
        {
          "duration": 0.11848958333331439,
          "durationTicks": 91,
          "midi": 72,
          "name": "C5",
          "ticks": 109870,
          "time": 143.05989583333334,
          "velocity": 0.12598425196850394
        },
        {
          "duration": 0,
          "durationTicks": 0,
          "midi": 85,
          "name": "C#6",
          "ticks": 109879,
          "time": 143.07161458333334,
          "velocity": 0.07086614173228346
        },
        {
          "duration": 0.1276041666666572,
          "durationTicks": 98,
          "midi": 77,
          "name": "F5",
          "ticks": 109897,
          "time": 143.09505208333334,
          "velocity": 0.25984251968503935
        },
        {
          "duration": 0.1276041666666572,
          "durationTicks": 98,
          "midi": 80,
          "name": "G#5",
          "ticks": 109897,
          "time": 143.09505208333334,
          "velocity": 0.2677165354330709
        },
        {
          "duration": 0.1276041666666572,
          "durationTicks": 98,
          "midi": 84,
          "name": "C6",
          "ticks": 109906,
          "time": 143.10677083333334,
          "velocity": 0.08661417322834646
        },
        {
          "duration": 0.1276041666666572,
          "durationTicks": 98,
          "midi": 51,
          "name": "D#3",
          "ticks": 109915,
          "time": 143.11848958333334,
          "velocity": 0.3543307086614173
        },
        {
          "duration": 0.1276041666666572,
          "durationTicks": 98,
          "midi": 84,
          "name": "C6",
          "ticks": 109942,
          "time": 143.15364583333334,
          "velocity": 0.10236220472440945
        },
        {
          "duration": 0,
          "durationTicks": 0,
          "midi": 87,
          "name": "D#6",
          "ticks": 109951,
          "time": 143.16536458333334,
          "velocity": 0.06299212598425197
        },
        {
          "duration": 0.009114583333342807,
          "durationTicks": 7,
          "midi": 72,
          "name": "C5",
          "ticks": 109961,
          "time": 143.17838541666666,
          "velocity": 0.12598425196850394
        },
        {
          "duration": 0.2526041666666856,
          "durationTicks": 194,
          "midi": 68,
          "name": "G#4",
          "ticks": 109961,
          "time": 143.17838541666666,
          "velocity": 0.1889763779527559
        },
        {
          "duration": 0,
          "durationTicks": 0,
          "midi": 45,
          "name": "A2",
          "ticks": 109988,
          "time": 143.21354166666666,
          "velocity": 0.33858267716535434
        },
        {
          "duration": 0.1263020833333428,
          "durationTicks": 97,
          "midi": 87,
          "name": "D#6",
          "ticks": 109988,
          "time": 143.21354166666666,
          "velocity": 0.15748031496062992
        },
        {
          "duration": 0.1263020833333428,
          "durationTicks": 97,
          "midi": 65,
          "name": "F4",
          "ticks": 109997,
          "time": 143.22526041666666,
          "velocity": 0.07086614173228346
        },
        {
          "duration": 0,
          "durationTicks": 0,
          "midi": 79,
          "name": "G5",
          "ticks": 110006,
          "time": 143.23697916666666,
          "velocity": 0.11811023622047244
        },
        {
          "duration": 0.1263020833333428,
          "durationTicks": 97,
          "midi": 46,
          "name": "A#2",
          "ticks": 110016,
          "time": 143.25,
          "velocity": 0.3464566929133858
        },
        {
          "duration": 0.7591145833333428,
          "durationTicks": 583,
          "midi": 80,
          "name": "G#5",
          "ticks": 110033,
          "time": 143.27213541666666,
          "velocity": 0.25196850393700787
        },
        {
          "duration": 0,
          "durationTicks": 0,
          "midi": 91,
          "name": "G6",
          "ticks": 110042,
          "time": 143.28385416666666,
          "velocity": 0.09448818897637795
        },
        {
          "duration": 0,
          "durationTicks": 0,
          "midi": 47,
          "name": "B2",
          "ticks": 110078,
          "time": 143.33072916666666,
          "velocity": 0.33858267716535434
        },
        {
          "duration": 0.1263020833333428,
          "durationTicks": 97,
          "midi": 84,
          "name": "C6",
          "ticks": 110078,
          "time": 143.33072916666666,
          "velocity": 0.2677165354330709
        },
        {
          "duration": 0.1263020833333428,
          "durationTicks": 97,
          "midi": 72,
          "name": "C5",
          "ticks": 110078,
          "time": 143.33072916666666,
          "velocity": 0.18110236220472442
        },
        {
          "duration": 0,
          "durationTicks": 0,
          "midi": 75,
          "name": "D#5",
          "ticks": 110087,
          "time": 143.34244791666666,
          "velocity": 0.15748031496062992
        },
        {
          "duration": 0,
          "durationTicks": 0,
          "midi": 87,
          "name": "D#6",
          "ticks": 110087,
          "time": 143.34244791666666,
          "velocity": 0.09448818897637795
        },
        {
          "duration": 0.1263020833333428,
          "durationTicks": 97,
          "midi": 61,
          "name": "C#4",
          "ticks": 110096,
          "time": 143.35416666666666,
          "velocity": 0.16535433070866143
        },
        {
          "duration": 0.1263020833333428,
          "durationTicks": 97,
          "midi": 85,
          "name": "C#6",
          "ticks": 110096,
          "time": 143.35416666666666,
          "velocity": 0.06299212598425197
        },
        {
          "duration": 0.1263020833333428,
          "durationTicks": 97,
          "midi": 39,
          "name": "D#2",
          "ticks": 110096,
          "time": 143.35416666666666,
          "velocity": 0.3543307086614173
        },
        {
          "duration": 0,
          "durationTicks": 0,
          "midi": 57,
          "name": "A3",
          "ticks": 110106,
          "time": 143.3671875,
          "velocity": 0.30708661417322836
        },
        {
          "duration": 0.1263020833333428,
          "durationTicks": 97,
          "midi": 87,
          "name": "D#6",
          "ticks": 110132,
          "time": 143.40104166666666,
          "velocity": 0.2283464566929134
        },
        {
          "duration": 0.12760416666668561,
          "durationTicks": 98,
          "midi": 91,
          "name": "G6",
          "ticks": 110177,
          "time": 143.45963541666666,
          "velocity": 0.25196850393700787
        },
        {
          "duration": 0.12760416666668561,
          "durationTicks": 98,
          "midi": 53,
          "name": "F3",
          "ticks": 110186,
          "time": 143.47135416666666,
          "velocity": 0.23622047244094488
        },
        {
          "duration": 0,
          "durationTicks": 0,
          "midi": 63,
          "name": "D#4",
          "ticks": 110196,
          "time": 143.484375,
          "velocity": 0.15748031496062992
        },
        {
          "duration": 0,
          "durationTicks": 0,
          "midi": 66,
          "name": "F#4",
          "ticks": 110196,
          "time": 143.484375,
          "velocity": 0.09448818897637795
        },
        {
          "duration": 0,
          "durationTicks": 0,
          "midi": 30,
          "name": "F#1",
          "ticks": 110196,
          "time": 143.484375,
          "velocity": 0.4251968503937008
        },
        {
          "duration": 0.1263020833333428,
          "durationTicks": 97,
          "midi": 29,
          "name": "F1",
          "ticks": 110241,
          "time": 143.54296875,
          "velocity": 0.3858267716535433
        },
        {
          "duration": 0,
          "durationTicks": 0,
          "midi": 75,
          "name": "D#5",
          "ticks": 110277,
          "time": 143.58984375,
          "velocity": 0.14173228346456693
        },
        {
          "duration": 0.2526041666666572,
          "durationTicks": 194,
          "midi": 84,
          "name": "C6",
          "ticks": 110287,
          "time": 143.60286458333334,
          "velocity": 0.14173228346456693
        },
        {
          "duration": 0.12630208333331439,
          "durationTicks": 97,
          "midi": 48,
          "name": "C3",
          "ticks": 110296,
          "time": 143.61458333333334,
          "velocity": 0.10236220472440945
        },
        {
          "duration": 0.12630208333331439,
          "durationTicks": 97,
          "midi": 87,
          "name": "D#6",
          "ticks": 110314,
          "time": 143.63802083333334,
          "velocity": 0.08661417322834646
        },
        {
          "duration": 0.2526041666666572,
          "durationTicks": 194,
          "midi": 91,
          "name": "G6",
          "ticks": 110367,
          "time": 143.70703125,
          "velocity": 0.14173228346456693
        },
        {
          "duration": 0.12630208333331439,
          "durationTicks": 97,
          "midi": 62,
          "name": "D4",
          "ticks": 110377,
          "time": 143.72005208333334,
          "velocity": 0.18110236220472442
        },
        {
          "duration": 0.12630208333331439,
          "durationTicks": 97,
          "midi": 77,
          "name": "F5",
          "ticks": 110377,
          "time": 143.72005208333334,
          "velocity": 0.11023622047244094
        },
        {
          "duration": 0.2526041666666572,
          "durationTicks": 194,
          "midi": 53,
          "name": "F3",
          "ticks": 110377,
          "time": 143.72005208333334,
          "velocity": 0.14173228346456693
        },
        {
          "duration": 0.12630208333331439,
          "durationTicks": 97,
          "midi": 65,
          "name": "F4",
          "ticks": 110386,
          "time": 143.73177083333334,
          "velocity": 0.25984251968503935
        },
        {
          "duration": 0,
          "durationTicks": 0,
          "midi": 66,
          "name": "F#4",
          "ticks": 110440,
          "time": 143.80208333333334,
          "velocity": 0.25984251968503935
        },
        {
          "duration": 0.12630208333331439,
          "durationTicks": 97,
          "midi": 63,
          "name": "D#4",
          "ticks": 110440,
          "time": 143.80208333333334,
          "velocity": 0.1732283464566929
        },
        {
          "duration": 0.1263020833333428,
          "durationTicks": 97,
          "midi": 67,
          "name": "G4",
          "ticks": 110457,
          "time": 143.82421875,
          "velocity": 0.25196850393700787
        },
        {
          "duration": 0,
          "durationTicks": 0,
          "midi": 75,
          "name": "D#5",
          "ticks": 110467,
          "time": 143.83723958333334,
          "velocity": 0.1732283464566929
        },
        {
          "duration": 0,
          "durationTicks": 0,
          "midi": 68,
          "name": "G#4",
          "ticks": 110566,
          "time": 143.96614583333334,
          "velocity": 0.2677165354330709
        },
        {
          "duration": 0,
          "durationTicks": 0,
          "midi": 72,
          "name": "C5",
          "ticks": 110566,
          "time": 143.96614583333334,
          "velocity": 0.2440944881889764
        },
        {
          "duration": 0,
          "durationTicks": 0,
          "midi": 86,
          "name": "D6",
          "ticks": 110566,
          "time": 143.96614583333334,
          "velocity": 0.11811023622047244
        },
        {
          "duration": 0.12630208333331439,
          "durationTicks": 97,
          "midi": 82,
          "name": "A#5",
          "ticks": 110566,
          "time": 143.96614583333334,
          "velocity": 0.08661417322834646
        },
        {
          "duration": 0,
          "durationTicks": 0,
          "midi": 85,
          "name": "C#6",
          "ticks": 110575,
          "time": 143.97786458333334,
          "velocity": 0.08661417322834646
        },
        {
          "duration": 0,
          "durationTicks": 0,
          "midi": 95,
          "name": "B6",
          "ticks": 110575,
          "time": 143.97786458333334,
          "velocity": 0.08661417322834646
        },
        {
          "duration": 0,
          "durationTicks": 0,
          "midi": 77,
          "name": "F5",
          "ticks": 110575,
          "time": 143.97786458333334,
          "velocity": 0.2047244094488189
        },
        {
          "duration": 0.12630208333331439,
          "durationTicks": 97,
          "midi": 86,
          "name": "D6",
          "ticks": 110575,
          "time": 143.97786458333334,
          "velocity": 0.10236220472440945
        },
        {
          "duration": 0,
          "durationTicks": 0,
          "midi": 57,
          "name": "A3",
          "ticks": 110585,
          "time": 143.99088541666666,
          "velocity": 0.29133858267716534
        },
        {
          "duration": 0.1263020833333428,
          "durationTicks": 97,
          "midi": 67,
          "name": "G4",
          "ticks": 110585,
          "time": 143.99088541666666,
          "velocity": 0.29133858267716534
        },
        {
          "duration": 0,
          "durationTicks": 0,
          "midi": 38,
          "name": "D2",
          "ticks": 110594,
          "time": 144.00260416666666,
          "velocity": 0.2204724409448819
        },
        {
          "duration": 0.1263020833333428,
          "durationTicks": 97,
          "midi": 63,
          "name": "D#4",
          "ticks": 110594,
          "time": 144.00260416666666,
          "velocity": 0.16535433070866143
        },
        {
          "duration": 0,
          "durationTicks": 0,
          "midi": 72,
          "name": "C5",
          "ticks": 110612,
          "time": 144.02604166666666,
          "velocity": 0.15748031496062992
        },
        {
          "duration": 0,
          "durationTicks": 0,
          "midi": 87,
          "name": "D#6",
          "ticks": 110612,
          "time": 144.02604166666666,
          "velocity": 0.05511811023622047
        },
        {
          "duration": 0,
          "durationTicks": 0,
          "midi": 77,
          "name": "F5",
          "ticks": 110638,
          "time": 144.05989583333334,
          "velocity": 0.18110236220472442
        },
        {
          "duration": 0,
          "durationTicks": 0,
          "midi": 57,
          "name": "A3",
          "ticks": 110638,
          "time": 144.05989583333334,
          "velocity": 0.10236220472440945
        },
        {
          "duration": 0.1263020833333428,
          "durationTicks": 97,
          "midi": 75,
          "name": "D#5",
          "ticks": 110648,
          "time": 144.07291666666666,
          "velocity": 0.1732283464566929
        },
        {
          "duration": 0.1263020833333428,
          "durationTicks": 97,
          "midi": 84,
          "name": "C6",
          "ticks": 110648,
          "time": 144.07291666666666,
          "velocity": 0.07874015748031496
        },
        {
          "duration": 0.1263020833333428,
          "durationTicks": 97,
          "midi": 53,
          "name": "F3",
          "ticks": 110720,
          "time": 144.16666666666666,
          "velocity": 0.08661417322834646
        },
        {
          "duration": 0.1263020833333428,
          "durationTicks": 97,
          "midi": 91,
          "name": "G6",
          "ticks": 110720,
          "time": 144.16666666666666,
          "velocity": 0.08661417322834646
        },
        {
          "duration": 0.1263020833333428,
          "durationTicks": 97,
          "midi": 65,
          "name": "F4",
          "ticks": 110756,
          "time": 144.21354166666666,
          "velocity": 0.25984251968503935
        },
        {
          "duration": 0,
          "durationTicks": 0,
          "midi": 67,
          "name": "G4",
          "ticks": 110810,
          "time": 144.28385416666666,
          "velocity": 0.1889763779527559
        },
        {
          "duration": 0.1263020833333428,
          "durationTicks": 97,
          "midi": 63,
          "name": "D#4",
          "ticks": 110856,
          "time": 144.34375,
          "velocity": 0.1968503937007874
        },
        {
          "duration": 0.25390625,
          "durationTicks": 195,
          "midi": 79,
          "name": "G5",
          "ticks": 110856,
          "time": 144.34375,
          "velocity": 0.12598425196850394
        },
        {
          "duration": 0.25390625,
          "durationTicks": 195,
          "midi": 67,
          "name": "G4",
          "ticks": 110865,
          "time": 144.35546875,
          "velocity": 0.2755905511811024
        },
        {
          "duration": 0,
          "durationTicks": 0,
          "midi": 45,
          "name": "A2",
          "ticks": 110946,
          "time": 144.4609375,
          "velocity": 0.25984251968503935
        },
        {
          "duration": 0,
          "durationTicks": 0,
          "midi": 29,
          "name": "F1",
          "ticks": 110964,
          "time": 144.484375,
          "velocity": 0.4094488188976378
        },
        {
          "duration": 0,
          "durationTicks": 0,
          "midi": 30,
          "name": "F#1",
          "ticks": 110974,
          "time": 144.49739583333334,
          "velocity": 0.4251968503937008
        },
        {
          "duration": 0.1276041666666572,
          "durationTicks": 98,
          "midi": 63,
          "name": "D#4",
          "ticks": 110991,
          "time": 144.51953125,
          "velocity": 0.14960629921259844
        },
        {
          "duration": 0,
          "durationTicks": 0,
          "midi": 48,
          "name": "C3",
          "ticks": 111001,
          "time": 144.53255208333334,
          "velocity": 0.12598425196850394
        },
        {
          "duration": 0,
          "durationTicks": 0,
          "midi": 87,
          "name": "D#6",
          "ticks": 111001,
          "time": 144.53255208333334,
          "velocity": 0.05511811023622047
        },
        {
          "duration": 0,
          "durationTicks": 0,
          "midi": 86,
          "name": "D6",
          "ticks": 111001,
          "time": 144.53255208333334,
          "velocity": 0.05511811023622047
        },
        {
          "duration": 0.1276041666666572,
          "durationTicks": 98,
          "midi": 29,
          "name": "F1",
          "ticks": 111010,
          "time": 144.54427083333334,
          "velocity": 0.3779527559055118
        },
        {
          "duration": 0,
          "durationTicks": 0,
          "midi": 75,
          "name": "D#5",
          "ticks": 111046,
          "time": 144.59114583333334,
          "velocity": 0.10236220472440945
        },
        {
          "duration": 0.1276041666666572,
          "durationTicks": 98,
          "midi": 65,
          "name": "F4",
          "ticks": 111046,
          "time": 144.59114583333334,
          "velocity": 0.2677165354330709
        },
        {
          "duration": 0.1276041666666572,
          "durationTicks": 98,
          "midi": 48,
          "name": "C3",
          "ticks": 111046,
          "time": 144.59114583333334,
          "velocity": 0.10236220472440945
        },
        {
          "duration": 0.1263020833333428,
          "durationTicks": 97,
          "midi": 67,
          "name": "G4",
          "ticks": 111101,
          "time": 144.66276041666666,
          "velocity": 0.29133858267716534
        },
        {
          "duration": 0.1263020833333428,
          "durationTicks": 97,
          "midi": 63,
          "name": "D#4",
          "ticks": 111137,
          "time": 144.70963541666666,
          "velocity": 0.15748031496062992
        },
        {
          "duration": 0,
          "durationTicks": 0,
          "midi": 87,
          "name": "D#6",
          "ticks": 111146,
          "time": 144.72135416666666,
          "velocity": 0.11811023622047244
        },
        {
          "duration": 0,
          "durationTicks": 0,
          "midi": 86,
          "name": "D6",
          "ticks": 111191,
          "time": 144.77994791666666,
          "velocity": 0.07086614173228346
        },
        {
          "duration": 0,
          "durationTicks": 0,
          "midi": 75,
          "name": "D#5",
          "ticks": 111227,
          "time": 144.82682291666666,
          "velocity": 0.15748031496062992
        },
        {
          "duration": 0,
          "durationTicks": 0,
          "midi": 65,
          "name": "F4",
          "ticks": 111254,
          "time": 144.86197916666666,
          "velocity": 0.10236220472440945
        },
        {
          "duration": 0.2513020833333144,
          "durationTicks": 193,
          "midi": 65,
          "name": "F4",
          "ticks": 111325,
          "time": 144.95442708333334,
          "velocity": 0.28346456692913385
        },
        {
          "duration": 0,
          "durationTicks": 0,
          "midi": 56,
          "name": "G#3",
          "ticks": 111335,
          "time": 144.96744791666666,
          "velocity": 0.29133858267716534
        },
        {
          "duration": 0,
          "durationTicks": 0,
          "midi": 86,
          "name": "D6",
          "ticks": 111335,
          "time": 144.96744791666666,
          "velocity": 0.06299212598425197
        },
        {
          "duration": 0,
          "durationTicks": 0,
          "midi": 90,
          "name": "F#6",
          "ticks": 111335,
          "time": 144.96744791666666,
          "velocity": 0.10236220472440945
        },
        {
          "duration": 0,
          "durationTicks": 0,
          "midi": 86,
          "name": "D6",
          "ticks": 111335,
          "time": 144.96744791666666,
          "velocity": 0.09448818897637795
        },
        {
          "duration": 0,
          "durationTicks": 0,
          "midi": 80,
          "name": "G#5",
          "ticks": 111335,
          "time": 144.96744791666666,
          "velocity": 0.14173228346456693
        },
        {
          "duration": 0,
          "durationTicks": 0,
          "midi": 84,
          "name": "C6",
          "ticks": 111335,
          "time": 144.96744791666666,
          "velocity": 0.13385826771653545
        },
        {
          "duration": 0,
          "durationTicks": 0,
          "midi": 31,
          "name": "G1",
          "ticks": 111352,
          "time": 144.98958333333334,
          "velocity": 0.3543307086614173
        },
        {
          "duration": 0,
          "durationTicks": 0,
          "midi": 56,
          "name": "G#3",
          "ticks": 111362,
          "time": 145.00260416666666,
          "velocity": 0.1968503937007874
        },
        {
          "duration": 0,
          "durationTicks": 0,
          "midi": 79,
          "name": "G5",
          "ticks": 111362,
          "time": 145.00260416666666,
          "velocity": 0.05511811023622047
        },
        {
          "duration": 0,
          "durationTicks": 0,
          "midi": 32,
          "name": "G#1",
          "ticks": 111379,
          "time": 145.02473958333334,
          "velocity": 0.3543307086614173
        },
        {
          "duration": 0,
          "durationTicks": 0,
          "midi": 31,
          "name": "G1",
          "ticks": 111397,
          "time": 145.04817708333334,
          "velocity": 0.3464566929133858
        },
        {
          "duration": 0,
          "durationTicks": 0,
          "midi": 57,
          "name": "A3",
          "ticks": 111406,
          "time": 145.05989583333334,
          "velocity": 0.10236220472440945
        },
        {
          "duration": 0.12630208333331439,
          "durationTicks": 97,
          "midi": 31,
          "name": "G1",
          "ticks": 111424,
          "time": 145.08333333333334,
          "velocity": 0.3543307086614173
        },
        {
          "duration": 0.12630208333331439,
          "durationTicks": 97,
          "midi": 75,
          "name": "D#5",
          "ticks": 111424,
          "time": 145.08333333333334,
          "velocity": 0.18110236220472442
        },
        {
          "duration": 0.12630208333331439,
          "durationTicks": 97,
          "midi": 84,
          "name": "C6",
          "ticks": 111433,
          "time": 145.09505208333334,
          "velocity": 0.08661417322834646
        },
        {
          "duration": 0.12630208333331439,
          "durationTicks": 97,
          "midi": 50,
          "name": "D3",
          "ticks": 111433,
          "time": 145.09505208333334,
          "velocity": 0.09448818897637795
        },
        {
          "duration": 0.25390625,
          "durationTicks": 195,
          "midi": 87,
          "name": "D#6",
          "ticks": 111514,
          "time": 145.20052083333334,
          "velocity": 0.29133858267716534
        },
        {
          "duration": 0.125,
          "durationTicks": 96,
          "midi": 63,
          "name": "D#4",
          "ticks": 111542,
          "time": 145.23697916666666,
          "velocity": 0.1732283464566929
        },
        {
          "duration": 0.125,
          "durationTicks": 96,
          "midi": 67,
          "name": "G4",
          "ticks": 111542,
          "time": 145.23697916666666,
          "velocity": 0.2677165354330709
        },
        {
          "duration": 0.12630208333331439,
          "durationTicks": 97,
          "midi": 86,
          "name": "D6",
          "ticks": 111559,
          "time": 145.25911458333334,
          "velocity": 0.07874015748031496
        },
        {
          "duration": 0.1263020833333428,
          "durationTicks": 97,
          "midi": 84,
          "name": "C6",
          "ticks": 111569,
          "time": 145.27213541666666,
          "velocity": 0.25196850393700787
        },
        {
          "duration": 0,
          "durationTicks": 0,
          "midi": 44,
          "name": "G#2",
          "ticks": 111613,
          "time": 145.32942708333334,
          "velocity": 0.3779527559055118
        },
        {
          "duration": 0.1276041666666572,
          "durationTicks": 98,
          "midi": 80,
          "name": "G#5",
          "ticks": 111613,
          "time": 145.32942708333334,
          "velocity": 0.2440944881889764
        },
        {
          "duration": 0,
          "durationTicks": 0,
          "midi": 45,
          "name": "A2",
          "ticks": 111631,
          "time": 145.35286458333334,
          "velocity": 0.3779527559055118
        },
        {
          "duration": 0.1276041666666572,
          "durationTicks": 98,
          "midi": 65,
          "name": "F4",
          "ticks": 111631,
          "time": 145.35286458333334,
          "velocity": 0.14173228346456693
        },
        {
          "duration": 0.12630208333331439,
          "durationTicks": 97,
          "midi": 44,
          "name": "G#2",
          "ticks": 111649,
          "time": 145.37630208333334,
          "velocity": 0.36220472440944884
        },
        {
          "duration": 0,
          "durationTicks": 0,
          "midi": 31,
          "name": "G1",
          "ticks": 111659,
          "time": 145.38932291666666,
          "velocity": 0.25984251968503935
        },
        {
          "duration": 0.125,
          "durationTicks": 96,
          "midi": 79,
          "name": "G5",
          "ticks": 111668,
          "time": 145.40104166666666,
          "velocity": 0.2440944881889764
        },
        {
          "duration": 0.3763020833333428,
          "durationTicks": 289,
          "midi": 80,
          "name": "G#5",
          "ticks": 111695,
          "time": 145.43619791666666,
          "velocity": 0.1732283464566929
        },
        {
          "duration": 0,
          "durationTicks": 0,
          "midi": 63,
          "name": "D#4",
          "ticks": 111704,
          "time": 145.44791666666666,
          "velocity": 0.1732283464566929
        },
        {
          "duration": 0.10416666666668561,
          "durationTicks": 80,
          "midi": 68,
          "name": "G#4",
          "ticks": 111713,
          "time": 145.45963541666666,
          "velocity": 0.3228346456692913
        },
        {
          "duration": 0.125,
          "durationTicks": 96,
          "midi": 87,
          "name": "D#6",
          "ticks": 111731,
          "time": 145.48307291666666,
          "velocity": 0.1732283464566929
        },
        {
          "duration": 0.2513020833333428,
          "durationTicks": 193,
          "midi": 84,
          "name": "C6",
          "ticks": 111749,
          "time": 145.50651041666666,
          "velocity": 0.13385826771653545
        },
        {
          "duration": 0,
          "durationTicks": 0,
          "midi": 69,
          "name": "A4",
          "ticks": 111776,
          "time": 145.54166666666666,
          "velocity": 0.29133858267716534
        },
        {
          "duration": 0.020833333333314386,
          "durationTicks": 16,
          "midi": 68,
          "name": "G#4",
          "ticks": 111793,
          "time": 145.56380208333334,
          "velocity": 0.1968503937007874
        },
        {
          "duration": 0.2513020833333144,
          "durationTicks": 193,
          "midi": 70,
          "name": "A#4",
          "ticks": 111793,
          "time": 145.56380208333334,
          "velocity": 0.2755905511811024
        },
        {
          "duration": 0.125,
          "durationTicks": 96,
          "midi": 44,
          "name": "G#2",
          "ticks": 111802,
          "time": 145.57552083333334,
          "velocity": 0.36220472440944884
        },
        {
          "duration": 0,
          "durationTicks": 0,
          "midi": 75,
          "name": "D#5",
          "ticks": 111812,
          "time": 145.58854166666666,
          "velocity": 0.14173228346456693
        },
        {
          "duration": 0.125,
          "durationTicks": 96,
          "midi": 63,
          "name": "D#4",
          "ticks": 111812,
          "time": 145.58854166666666,
          "velocity": 0.14173228346456693
        },
        {
          "duration": 0.12630208333331439,
          "durationTicks": 97,
          "midi": 89,
          "name": "F6",
          "ticks": 111829,
          "time": 145.61067708333334,
          "velocity": 0.06299212598425197
        },
        {
          "duration": 0.2513020833333144,
          "durationTicks": 193,
          "midi": 79,
          "name": "G5",
          "ticks": 111847,
          "time": 145.63411458333334,
          "velocity": 0.14173228346456693
        },
        {
          "duration": 0.125,
          "durationTicks": 96,
          "midi": 68,
          "name": "G#4",
          "ticks": 111910,
          "time": 145.71614583333334,
          "velocity": 0.2283464566929134
        },
        {
          "duration": 0.125,
          "durationTicks": 96,
          "midi": 89,
          "name": "F6",
          "ticks": 111919,
          "time": 145.72786458333334,
          "velocity": 0.06299212598425197
        },
        {
          "duration": 0,
          "durationTicks": 0,
          "midi": 32,
          "name": "G#1",
          "ticks": 111929,
          "time": 145.74088541666666,
          "velocity": 0.3464566929133858
        },
        {
          "duration": 0,
          "durationTicks": 0,
          "midi": 33,
          "name": "A1",
          "ticks": 111955,
          "time": 145.77473958333334,
          "velocity": 0.31496062992125984
        },
        {
          "duration": 0,
          "durationTicks": 0,
          "midi": 75,
          "name": "D#5",
          "ticks": 111999,
          "time": 145.83203125,
          "velocity": 0.14960629921259844
        },
        {
          "duration": 0.12630208333331439,
          "durationTicks": 97,
          "midi": 70,
          "name": "A#4",
          "ticks": 112018,
          "time": 145.85677083333334,
          "velocity": 0.11023622047244094
        },
        {
          "duration": 0.25390625,
          "durationTicks": 195,
          "midi": 87,
          "name": "D#6",
          "ticks": 112071,
          "time": 145.92578125,
          "velocity": 0.2440944881889764
        },
        {
          "duration": 0,
          "durationTicks": 0,
          "midi": 71,
          "name": "B4",
          "ticks": 112089,
          "time": 145.94921875,
          "velocity": 0.1968503937007874
        },
        {
          "duration": 0,
          "durationTicks": 0,
          "midi": 80,
          "name": "G#5",
          "ticks": 112089,
          "time": 145.94921875,
          "velocity": 0.15748031496062992
        },
        {
          "duration": 0,
          "durationTicks": 0,
          "midi": 56,
          "name": "G#3",
          "ticks": 112098,
          "time": 145.9609375,
          "velocity": 0.2992125984251969
        },
        {
          "duration": 0,
          "durationTicks": 0,
          "midi": 51,
          "name": "D#3",
          "ticks": 112098,
          "time": 145.9609375,
          "velocity": 0.14960629921259844
        },
        {
          "duration": 0,
          "durationTicks": 0,
          "midi": 95,
          "name": "B6",
          "ticks": 112098,
          "time": 145.9609375,
          "velocity": 0.06299212598425197
        },
        {
          "duration": 0.1276041666666572,
          "durationTicks": 98,
          "midi": 82,
          "name": "A#5",
          "ticks": 112098,
          "time": 145.9609375,
          "velocity": 0.11023622047244094
        },
        {
          "duration": 0.2552083333333428,
          "durationTicks": 196,
          "midi": 63,
          "name": "D#4",
          "ticks": 112098,
          "time": 145.9609375,
          "velocity": 0.1732283464566929
        },
        {
          "duration": 0,
          "durationTicks": 0,
          "midi": 34,
          "name": "A#1",
          "ticks": 112108,
          "time": 145.97395833333334,
          "velocity": 0.4015748031496063
        },
        {
          "duration": 0,
          "durationTicks": 0,
          "midi": 74,
          "name": "D5",
          "ticks": 112108,
          "time": 145.97395833333334,
          "velocity": 0.07874015748031496
        },
        {
          "duration": 0.1276041666666572,
          "durationTicks": 98,
          "midi": 84,
          "name": "C6",
          "ticks": 112108,
          "time": 145.97395833333334,
          "velocity": 0.14960629921259844
        },
        {
          "duration": 0,
          "durationTicks": 0,
          "midi": 79,
          "name": "G5",
          "ticks": 112117,
          "time": 145.98567708333334,
          "velocity": 0.16535433070866143
        },
        {
          "duration": 0,
          "durationTicks": 0,
          "midi": 32,
          "name": "G#1",
          "ticks": 112126,
          "time": 145.99739583333334,
          "velocity": 0.3464566929133858
        },
        {
          "duration": 0,
          "durationTicks": 0,
          "midi": 75,
          "name": "D#5",
          "ticks": 112136,
          "time": 146.01041666666666,
          "velocity": 0.1968503937007874
        },
        {
          "duration": 0,
          "durationTicks": 0,
          "midi": 51,
          "name": "D#3",
          "ticks": 112136,
          "time": 146.01041666666666,
          "velocity": 0.07086614173228346
        },
        {
          "duration": 0,
          "durationTicks": 0,
          "midi": 33,
          "name": "A1",
          "ticks": 112145,
          "time": 146.02213541666666,
          "velocity": 0.36220472440944884
        },
        {
          "duration": 0,
          "durationTicks": 0,
          "midi": 32,
          "name": "G#1",
          "ticks": 112163,
          "time": 146.04557291666666,
          "velocity": 0.3464566929133858
        },
        {
          "duration": 0.1263020833333428,
          "durationTicks": 97,
          "midi": 79,
          "name": "G5",
          "ticks": 112163,
          "time": 146.04557291666666,
          "velocity": 0.18110236220472442
        },
        {
          "duration": 0,
          "durationTicks": 0,
          "midi": 57,
          "name": "A3",
          "ticks": 112172,
          "time": 146.05729166666666,
          "velocity": 0.10236220472440945
        },
        {
          "duration": 0.1263020833333428,
          "durationTicks": 97,
          "midi": 75,
          "name": "D#5",
          "ticks": 112181,
          "time": 146.06901041666666,
          "velocity": 0.18110236220472442
        },
        {
          "duration": 0.1263020833333428,
          "durationTicks": 97,
          "midi": 79,
          "name": "G5",
          "ticks": 112280,
          "time": 146.19791666666666,
          "velocity": 0.16535433070866143
        },
        {
          "duration": 0.1263020833333428,
          "durationTicks": 97,
          "midi": 67,
          "name": "G4",
          "ticks": 112290,
          "time": 146.2109375,
          "velocity": 0.28346456692913385
        },
        {
          "duration": 0.125,
          "durationTicks": 96,
          "midi": 68,
          "name": "G#4",
          "ticks": 112353,
          "time": 146.29296875,
          "velocity": 0.14173228346456693
        },
        {
          "duration": 0.125,
          "durationTicks": 96,
          "midi": 87,
          "name": "D#6",
          "ticks": 112353,
          "time": 146.29296875,
          "velocity": 0.10236220472440945
        },
        {
          "duration": 0,
          "durationTicks": 0,
          "midi": 66,
          "name": "F#4",
          "ticks": 112370,
          "time": 146.31510416666666,
          "velocity": 0.2047244094488189
        },
        {
          "duration": 0,
          "durationTicks": 0,
          "midi": 75,
          "name": "D#5",
          "ticks": 112380,
          "time": 146.328125,
          "velocity": 0.2047244094488189
        },
        {
          "duration": 0.25,
          "durationTicks": 192,
          "midi": 84,
          "name": "C6",
          "ticks": 112380,
          "time": 146.328125,
          "velocity": 0.14960629921259844
        },
        {
          "duration": 0.375,
          "durationTicks": 288,
          "midi": 60,
          "name": "C4",
          "ticks": 112380,
          "time": 146.328125,
          "velocity": 0.1968503937007874
        },
        {
          "duration": 1.00390625,
          "durationTicks": 771,
          "midi": 65,
          "name": "F4",
          "ticks": 112389,
          "time": 146.33984375,
          "velocity": 0.31496062992125984
        },
        {
          "duration": 0.125,
          "durationTicks": 96,
          "midi": 80,
          "name": "G#5",
          "ticks": 112451,
          "time": 146.42057291666666,
          "velocity": 0.09448818897637795
        },
        {
          "duration": 0,
          "durationTicks": 0,
          "midi": 31,
          "name": "G1",
          "ticks": 112513,
          "time": 146.50130208333334,
          "velocity": 0.2677165354330709
        },
        {
          "duration": 0,
          "durationTicks": 0,
          "midi": 79,
          "name": "G5",
          "ticks": 112513,
          "time": 146.50130208333334,
          "velocity": 0.05511811023622047
        },
        {
          "duration": 0,
          "durationTicks": 0,
          "midi": 75,
          "name": "D#5",
          "ticks": 112567,
          "time": 146.57161458333334,
          "velocity": 0.14173228346456693
        },
        {
          "duration": 0,
          "durationTicks": 0,
          "midi": 87,
          "name": "D#6",
          "ticks": 112665,
          "time": 146.69921875,
          "velocity": 0.14960629921259844
        },
        {
          "duration": 0,
          "durationTicks": 0,
          "midi": 31,
          "name": "G1",
          "ticks": 112683,
          "time": 146.72265625,
          "velocity": 0.29133858267716534
        },
        {
          "duration": 0.125,
          "durationTicks": 96,
          "midi": 60,
          "name": "C4",
          "ticks": 112692,
          "time": 146.734375,
          "velocity": 0.1732283464566929
        },
        {
          "duration": 0,
          "durationTicks": 0,
          "midi": 79,
          "name": "G5",
          "ticks": 112702,
          "time": 146.74739583333334,
          "velocity": 0.05511811023622047
        },
        {
          "duration": 0,
          "durationTicks": 0,
          "midi": 84,
          "name": "C6",
          "ticks": 112702,
          "time": 146.74739583333334,
          "velocity": 0.08661417322834646
        },
        {
          "duration": 0,
          "durationTicks": 0,
          "midi": 75,
          "name": "D#5",
          "ticks": 112755,
          "time": 146.81640625,
          "velocity": 0.14173228346456693
        },
        {
          "duration": 0.1263020833333428,
          "durationTicks": 97,
          "midi": 32,
          "name": "G#1",
          "ticks": 112773,
          "time": 146.83984375,
          "velocity": 0.3464566929133858
        },
        {
          "duration": 0.1263020833333428,
          "durationTicks": 97,
          "midi": 51,
          "name": "D#3",
          "ticks": 112773,
          "time": 146.83984375,
          "velocity": 0.08661417322834646
        },
        {
          "duration": 0,
          "durationTicks": 0,
          "midi": 79,
          "name": "G5",
          "ticks": 112791,
          "time": 146.86328125,
          "velocity": 0.07086614173228346
        },
        {
          "duration": 0,
          "durationTicks": 0,
          "midi": 78,
          "name": "F#5",
          "ticks": 112800,
          "time": 146.875,
          "velocity": 0.08661417322834646
        },
        {
          "duration": 0,
          "durationTicks": 0,
          "midi": 61,
          "name": "C#4",
          "ticks": 112809,
          "time": 146.88671875,
          "velocity": 0.13385826771653545
        },
        {
          "duration": 0.1263020833333428,
          "durationTicks": 97,
          "midi": 84,
          "name": "C6",
          "ticks": 112809,
          "time": 146.88671875,
          "velocity": 0.08661417322834646
        },
        {
          "duration": 0,
          "durationTicks": 0,
          "midi": 60,
          "name": "C4",
          "ticks": 112836,
          "time": 146.921875,
          "velocity": 0.16535433070866143
        },
        {
          "duration": 0,
          "durationTicks": 0,
          "midi": 80,
          "name": "G#5",
          "ticks": 112854,
          "time": 146.9453125,
          "velocity": 0.14173228346456693
        },
        {
          "duration": 0,
          "durationTicks": 0,
          "midi": 44,
          "name": "G#2",
          "ticks": 112863,
          "time": 146.95703125,
          "velocity": 0.3779527559055118
        },
        {
          "duration": 0,
          "durationTicks": 0,
          "midi": 57,
          "name": "A3",
          "ticks": 112872,
          "time": 146.96875,
          "velocity": 0.2992125984251969
        },
        {
          "duration": 0,
          "durationTicks": 0,
          "midi": 87,
          "name": "D#6",
          "ticks": 112872,
          "time": 146.96875,
          "velocity": 0.05511811023622047
        },
        {
          "duration": 0.125,
          "durationTicks": 96,
          "midi": 84,
          "name": "C6",
          "ticks": 112872,
          "time": 146.96875,
          "velocity": 0.11023622047244094
        },
        {
          "duration": 0.125,
          "durationTicks": 96,
          "midi": 72,
          "name": "C5",
          "ticks": 112882,
          "time": 146.98177083333334,
          "velocity": 0.11023622047244094
        },
        {
          "duration": 0.125,
          "durationTicks": 96,
          "midi": 44,
          "name": "G#2",
          "ticks": 112891,
          "time": 146.99348958333334,
          "velocity": 0.3700787401574803
        },
        {
          "duration": 0.125,
          "durationTicks": 96,
          "midi": 60,
          "name": "C4",
          "ticks": 112891,
          "time": 146.99348958333334,
          "velocity": 0.13385826771653545
        },
        {
          "duration": 0,
          "durationTicks": 0,
          "midi": 43,
          "name": "G2",
          "ticks": 112944,
          "time": 147.0625,
          "velocity": 0.33858267716535434
        },
        {
          "duration": 0,
          "durationTicks": 0,
          "midi": 75,
          "name": "D#5",
          "ticks": 112944,
          "time": 147.0625,
          "velocity": 0.15748031496062992
        },
        {
          "duration": 0,
          "durationTicks": 0,
          "midi": 31,
          "name": "G1",
          "ticks": 112961,
          "time": 147.08463541666666,
          "velocity": 0.36220472440944884
        },
        {
          "duration": 0,
          "durationTicks": 0,
          "midi": 52,
          "name": "E3",
          "ticks": 112961,
          "time": 147.08463541666666,
          "velocity": 0.10236220472440945
        },
        {
          "duration": 0.1263020833333428,
          "durationTicks": 97,
          "midi": 84,
          "name": "C6",
          "ticks": 112971,
          "time": 147.09765625,
          "velocity": 0.08661417322834646
        },
        {
          "duration": 0,
          "durationTicks": 0,
          "midi": 32,
          "name": "G#1",
          "ticks": 112980,
          "time": 147.109375,
          "velocity": 0.31496062992125984
        },
        {
          "duration": 0.1263020833333428,
          "durationTicks": 97,
          "midi": 60,
          "name": "C4",
          "ticks": 112980,
          "time": 147.109375,
          "velocity": 0.08661417322834646
        },
        {
          "duration": 0,
          "durationTicks": 0,
          "midi": 33,
          "name": "A1",
          "ticks": 112999,
          "time": 147.13411458333334,
          "velocity": 0.31496062992125984
        },
        {
          "duration": 0.1263020833333428,
          "durationTicks": 97,
          "midi": 51,
          "name": "D#3",
          "ticks": 113016,
          "time": 147.15625,
          "velocity": 0.08661417322834646
        },
        {
          "duration": 0,
          "durationTicks": 0,
          "midi": 32,
          "name": "G#1",
          "ticks": 113026,
          "time": 147.16927083333334,
          "velocity": 0.3464566929133858
        },
        {
          "duration": 0,
          "durationTicks": 0,
          "midi": 87,
          "name": "D#6",
          "ticks": 113043,
          "time": 147.19140625,
          "velocity": 0.14173228346456693
        },
        {
          "duration": 0,
          "durationTicks": 0,
          "midi": 31,
          "name": "G1",
          "ticks": 113061,
          "time": 147.21484375,
          "velocity": 0.36220472440944884
        },
        {
          "duration": 0,
          "durationTicks": 0,
          "midi": 29,
          "name": "F1",
          "ticks": 113089,
          "time": 147.25130208333334,
          "velocity": 0.36220472440944884
        },
        {
          "duration": 0,
          "durationTicks": 0,
          "midi": 48,
          "name": "C3",
          "ticks": 113089,
          "time": 147.25130208333334,
          "velocity": 0.08661417322834646
        },
        {
          "duration": 0.12369791666665719,
          "durationTicks": 95,
          "midi": 68,
          "name": "G#4",
          "ticks": 113098,
          "time": 147.26302083333334,
          "velocity": 0.2283464566929134
        },
        {
          "duration": 0,
          "durationTicks": 0,
          "midi": 26,
          "name": "D1",
          "ticks": 113133,
          "time": 147.30859375,
          "velocity": 0.3543307086614173
        },
        {
          "duration": 0.125,
          "durationTicks": 96,
          "midi": 65,
          "name": "F4",
          "ticks": 113133,
          "time": 147.30859375,
          "velocity": 0.2047244094488189
        },
        {
          "duration": 0,
          "durationTicks": 0,
          "midi": 56,
          "name": "G#3",
          "ticks": 113142,
          "time": 147.3203125,
          "velocity": 0.29133858267716534
        },
        {
          "duration": 0,
          "durationTicks": 0,
          "midi": 62,
          "name": "D4",
          "ticks": 113142,
          "time": 147.3203125,
          "velocity": 0.05511811023622047
        },
        {
          "duration": 0,
          "durationTicks": 0,
          "midi": 75,
          "name": "D#5",
          "ticks": 113142,
          "time": 147.3203125,
          "velocity": 0.14960629921259844
        },
        {
          "duration": 0.125,
          "durationTicks": 96,
          "midi": 70,
          "name": "A#4",
          "ticks": 113142,
          "time": 147.3203125,
          "velocity": 0.2440944881889764
        },
        {
          "duration": 0,
          "durationTicks": 0,
          "midi": 57,
          "name": "A3",
          "ticks": 113160,
          "time": 147.34375,
          "velocity": 0.28346456692913385
        },
        {
          "duration": 0.1263020833333428,
          "durationTicks": 97,
          "midi": 35,
          "name": "B1",
          "ticks": 113178,
          "time": 147.3671875,
          "velocity": 0.3464566929133858
        },
        {
          "duration": 0.1263020833333428,
          "durationTicks": 97,
          "midi": 73,
          "name": "C#5",
          "ticks": 113178,
          "time": 147.3671875,
          "velocity": 0.2440944881889764
        },
        {
          "duration": 0.2526041666666856,
          "durationTicks": 194,
          "midi": 77,
          "name": "F5",
          "ticks": 113222,
          "time": 147.42447916666666,
          "velocity": 0.25984251968503935
        },
        {
          "duration": 0,
          "durationTicks": 0,
          "midi": 33,
          "name": "A1",
          "ticks": 113241,
          "time": 147.44921875,
          "velocity": 0.29133858267716534
        },
        {
          "duration": 0,
          "durationTicks": 0,
          "midi": 63,
          "name": "D#4",
          "ticks": 113241,
          "time": 147.44921875,
          "velocity": 0.15748031496062992
        },
        {
          "duration": 0,
          "durationTicks": 0,
          "midi": 36,
          "name": "C2",
          "ticks": 113258,
          "time": 147.47135416666666,
          "velocity": 0.33858267716535434
        },
        {
          "duration": 0.22265625,
          "durationTicks": 171,
          "midi": 68,
          "name": "G#4",
          "ticks": 113268,
          "time": 147.484375,
          "velocity": 0.11811023622047244
        },
        {
          "duration": 0,
          "durationTicks": 0,
          "midi": 34,
          "name": "A#1",
          "ticks": 113277,
          "time": 147.49609375,
          "velocity": 0.3779527559055118
        },
        {
          "duration": 0.1263020833333428,
          "durationTicks": 97,
          "midi": 53,
          "name": "F3",
          "ticks": 113277,
          "time": 147.49609375,
          "velocity": 0.08661417322834646
        },
        {
          "duration": 0.1263020833333428,
          "durationTicks": 97,
          "midi": 65,
          "name": "F4",
          "ticks": 113295,
          "time": 147.51953125,
          "velocity": 0.11811023622047244
        },
        {
          "duration": 0,
          "durationTicks": 0,
          "midi": 34,
          "name": "A#1",
          "ticks": 113304,
          "time": 147.53125,
          "velocity": 0.3700787401574803
        },
        {
          "duration": 0.1263020833333428,
          "durationTicks": 97,
          "midi": 70,
          "name": "A#4",
          "ticks": 113322,
          "time": 147.5546875,
          "velocity": 0.16535433070866143
        },
        {
          "duration": 0,
          "durationTicks": 0,
          "midi": 75,
          "name": "D#5",
          "ticks": 113331,
          "time": 147.56640625,
          "velocity": 0.14173228346456693
        },
        {
          "duration": 0.1263020833333428,
          "durationTicks": 97,
          "midi": 34,
          "name": "A#1",
          "ticks": 113331,
          "time": 147.56640625,
          "velocity": 0.3543307086614173
        },
        {
          "duration": 0.2513020833333428,
          "durationTicks": 193,
          "midi": 73,
          "name": "C#5",
          "ticks": 113367,
          "time": 147.61328125,
          "velocity": 0.13385826771653545
        },
        {
          "duration": 0,
          "durationTicks": 0,
          "midi": 35,
          "name": "B1",
          "ticks": 113421,
          "time": 147.68359375,
          "velocity": 0.29133858267716534
        },
        {
          "duration": 0,
          "durationTicks": 0,
          "midi": 65,
          "name": "F4",
          "ticks": 113430,
          "time": 147.6953125,
          "velocity": 0.1968503937007874
        },
        {
          "duration": 0.125,
          "durationTicks": 96,
          "midi": 80,
          "name": "G#5",
          "ticks": 113430,
          "time": 147.6953125,
          "velocity": 0.11811023622047244
        },
        {
          "duration": 0.029947916666657193,
          "durationTicks": 23,
          "midi": 68,
          "name": "G#4",
          "ticks": 113439,
          "time": 147.70703125,
          "velocity": 0.25196850393700787
        },
        {
          "duration": 0,
          "durationTicks": 0,
          "midi": 65,
          "name": "F4",
          "ticks": 113457,
          "time": 147.73046875,
          "velocity": 0.1732283464566929
        },
        {
          "duration": 0,
          "durationTicks": 0,
          "midi": 66,
          "name": "F#4",
          "ticks": 113484,
          "time": 147.765625,
          "velocity": 0.1732283464566929
        },
        {
          "duration": 0,
          "durationTicks": 0,
          "midi": 69,
          "name": "A4",
          "ticks": 113484,
          "time": 147.765625,
          "velocity": 0.28346456692913385
        },
        {
          "duration": 0.125,
          "durationTicks": 96,
          "midi": 67,
          "name": "G4",
          "ticks": 113502,
          "time": 147.7890625,
          "velocity": 0.1732283464566929
        },
        {
          "duration": 0.125,
          "durationTicks": 96,
          "midi": 70,
          "name": "A#4",
          "ticks": 113502,
          "time": 147.7890625,
          "velocity": 0.2677165354330709
        },
        {
          "duration": 0,
          "durationTicks": 0,
          "midi": 75,
          "name": "D#5",
          "ticks": 113519,
          "time": 147.81119791666666,
          "velocity": 0.14173228346456693
        },
        {
          "duration": 0,
          "durationTicks": 0,
          "midi": 71,
          "name": "B4",
          "ticks": 113609,
          "time": 147.92838541666666,
          "velocity": 0.25984251968503935
        },
        {
          "duration": 0,
          "durationTicks": 0,
          "midi": 56,
          "name": "G#3",
          "ticks": 113618,
          "time": 147.94010416666666,
          "velocity": 0.30708661417322836
        },
        {
          "duration": 0,
          "durationTicks": 0,
          "midi": 87,
          "name": "D#6",
          "ticks": 113618,
          "time": 147.94010416666666,
          "velocity": 0.1732283464566929
        },
        {
          "duration": 0,
          "durationTicks": 0,
          "midi": 64,
          "name": "E4",
          "ticks": 113618,
          "time": 147.94010416666666,
          "velocity": 0.08661417322834646
        },
        {
          "duration": 0,
          "durationTicks": 0,
          "midi": 90,
          "name": "F#6",
          "ticks": 113618,
          "time": 147.94010416666666,
          "velocity": 0.08661417322834646
        },
        {
          "duration": 0,
          "durationTicks": 0,
          "midi": 86,
          "name": "D6",
          "ticks": 113618,
          "time": 147.94010416666666,
          "velocity": 0.11023622047244094
        },
        {
          "duration": 0,
          "durationTicks": 0,
          "midi": 89,
          "name": "F6",
          "ticks": 113618,
          "time": 147.94010416666666,
          "velocity": 0.06299212598425197
        },
        {
          "duration": 0,
          "durationTicks": 0,
          "midi": 80,
          "name": "G#5",
          "ticks": 113618,
          "time": 147.94010416666666,
          "velocity": 0.14960629921259844
        },
        {
          "duration": 0,
          "durationTicks": 0,
          "midi": 37,
          "name": "C#2",
          "ticks": 113628,
          "time": 147.953125,
          "velocity": 0.25984251968503935
        },
        {
          "duration": 0,
          "durationTicks": 0,
          "midi": 91,
          "name": "G6",
          "ticks": 113628,
          "time": 147.953125,
          "velocity": 0.09448818897637795
        },
        {
          "duration": 0,
          "durationTicks": 0,
          "midi": 86,
          "name": "D6",
          "ticks": 113628,
          "time": 147.953125,
          "velocity": 0.08661417322834646
        },
        {
          "duration": 0.1263020833333428,
          "durationTicks": 97,
          "midi": 70,
          "name": "A#4",
          "ticks": 113628,
          "time": 147.953125,
          "velocity": 0.28346456692913385
        },
        {
          "duration": 0.1263020833333428,
          "durationTicks": 97,
          "midi": 89,
          "name": "F6",
          "ticks": 113628,
          "time": 147.953125,
          "velocity": 0.11023622047244094
        },
        {
          "duration": 0,
          "durationTicks": 0,
          "midi": 73,
          "name": "C#5",
          "ticks": 113637,
          "time": 147.96484375,
          "velocity": 0.14960629921259844
        },
        {
          "duration": 0,
          "durationTicks": 0,
          "midi": 56,
          "name": "G#3",
          "ticks": 113646,
          "time": 147.9765625,
          "velocity": 0.2047244094488189
        },
        {
          "duration": 0,
          "durationTicks": 0,
          "midi": 38,
          "name": "D2",
          "ticks": 113646,
          "time": 147.9765625,
          "velocity": 0.1968503937007874
        },
        {
          "duration": 0.1263020833333428,
          "durationTicks": 97,
          "midi": 79,
          "name": "G5",
          "ticks": 113646,
          "time": 147.9765625,
          "velocity": 0.08661417322834646
        },
        {
          "duration": 0,
          "durationTicks": 0,
          "midi": 68,
          "name": "G#4",
          "ticks": 113673,
          "time": 148.01171875,
          "velocity": 0.2440944881889764
        },
        {
          "duration": 0,
          "durationTicks": 0,
          "midi": 77,
          "name": "F5",
          "ticks": 113673,
          "time": 148.01171875,
          "velocity": 0.16535433070866143
        },
        {
          "duration": 0,
          "durationTicks": 0,
          "midi": 57,
          "name": "A3",
          "ticks": 113691,
          "time": 148.03515625,
          "velocity": 0.09448818897637795
        },
        {
          "duration": 0,
          "durationTicks": 0,
          "midi": 67,
          "name": "G4",
          "ticks": 113691,
          "time": 148.03515625,
          "velocity": 0.14960629921259844
        },
        {
          "duration": 0,
          "durationTicks": 0,
          "midi": 75,
          "name": "D#5",
          "ticks": 113718,
          "time": 148.0703125,
          "velocity": 0.14173228346456693
        },
        {
          "duration": 0.1276041666666572,
          "durationTicks": 98,
          "midi": 73,
          "name": "C#5",
          "ticks": 113727,
          "time": 148.08203125,
          "velocity": 0.08661417322834646
        },
        {
          "duration": 0.1276041666666572,
          "durationTicks": 98,
          "midi": 70,
          "name": "A#4",
          "ticks": 113736,
          "time": 148.09375,
          "velocity": 0.07874015748031496
        },
        {
          "duration": 0.1276041666666572,
          "durationTicks": 98,
          "midi": 77,
          "name": "F5",
          "ticks": 113773,
          "time": 148.14192708333334,
          "velocity": 0.08661417322834646
        },
        {
          "duration": 0.1276041666666572,
          "durationTicks": 98,
          "midi": 44,
          "name": "G#2",
          "ticks": 113800,
          "time": 148.17708333333334,
          "velocity": 0.36220472440944884
        },
        {
          "duration": 0,
          "durationTicks": 0,
          "midi": 64,
          "name": "E4",
          "ticks": 113809,
          "time": 148.18880208333334,
          "velocity": 0.2047244094488189
        },
        {
          "duration": 0.1276041666666572,
          "durationTicks": 98,
          "midi": 68,
          "name": "G#4",
          "ticks": 113809,
          "time": 148.18880208333334,
          "velocity": 0.25984251968503935
        },
        {
          "duration": 0,
          "durationTicks": 0,
          "midi": 87,
          "name": "D#6",
          "ticks": 113818,
          "time": 148.20052083333334,
          "velocity": 0.05511811023622047
        },
        {
          "duration": 0,
          "durationTicks": 0,
          "midi": 65,
          "name": "F4",
          "ticks": 113827,
          "time": 148.21223958333334,
          "velocity": 0.1889763779527559
        },
        {
          "duration": 0.1263020833333428,
          "durationTicks": 97,
          "midi": 70,
          "name": "A#4",
          "ticks": 113846,
          "time": 148.23697916666666,
          "velocity": 0.29133858267716534
        },
        {
          "duration": 0,
          "durationTicks": 0,
          "midi": 63,
          "name": "D#4",
          "ticks": 113873,
          "time": 148.27213541666666,
          "velocity": 0.07874015748031496
        },
        {
          "duration": 0,
          "durationTicks": 0,
          "midi": 75,
          "name": "D#5",
          "ticks": 113900,
          "time": 148.30729166666666,
          "velocity": 0.15748031496062992
        },
        {
          "duration": 0.125,
          "durationTicks": 96,
          "midi": 67,
          "name": "G4",
          "ticks": 113909,
          "time": 148.31901041666666,
          "velocity": 0.1968503937007874
        },
        {
          "duration": 0,
          "durationTicks": 0,
          "midi": 71,
          "name": "B4",
          "ticks": 113963,
          "time": 148.38932291666666,
          "velocity": 0.25196850393700787
        },
        {
          "duration": 0.125,
          "durationTicks": 96,
          "midi": 68,
          "name": "G#4",
          "ticks": 113963,
          "time": 148.38932291666666,
          "velocity": 0.2283464566929134
        },
        {
          "duration": 0.1263020833333428,
          "durationTicks": 97,
          "midi": 72,
          "name": "C5",
          "ticks": 113981,
          "time": 148.41276041666666,
          "velocity": 0.2755905511811024
        },
        {
          "duration": 0,
          "durationTicks": 0,
          "midi": 45,
          "name": "A2",
          "ticks": 113990,
          "time": 148.42447916666666,
          "velocity": 0.30708661417322836
        },
        {
          "duration": 0.1263020833333428,
          "durationTicks": 97,
          "midi": 91,
          "name": "G6",
          "ticks": 113990,
          "time": 148.42447916666666,
          "velocity": 0.05511811023622047
        },
        {
          "duration": 0,
          "durationTicks": 0,
          "midi": 47,
          "name": "B2",
          "ticks": 114007,
          "time": 148.44661458333334,
          "velocity": 0.33858267716535434
        },
        {
          "duration": 0,
          "durationTicks": 0,
          "midi": 63,
          "name": "D#4",
          "ticks": 114007,
          "time": 148.44661458333334,
          "velocity": 0.14960629921259844
        },
        {
          "duration": 0,
          "durationTicks": 0,
          "midi": 31,
          "name": "G1",
          "ticks": 114025,
          "time": 148.47005208333334,
          "velocity": 0.29133858267716534
        },
        {
          "duration": 0,
          "durationTicks": 0,
          "midi": 65,
          "name": "F4",
          "ticks": 114025,
          "time": 148.47005208333334,
          "velocity": 0.08661417322834646
        },
        {
          "duration": 0.1276041666666572,
          "durationTicks": 98,
          "midi": 46,
          "name": "A#2",
          "ticks": 114025,
          "time": 148.47005208333334,
          "velocity": 0.3543307086614173
        },
        {
          "duration": 0,
          "durationTicks": 0,
          "midi": 70,
          "name": "A#4",
          "ticks": 114071,
          "time": 148.52994791666666,
          "velocity": 0.25984251968503935
        },
        {
          "duration": 0,
          "durationTicks": 0,
          "midi": 65,
          "name": "F4",
          "ticks": 114080,
          "time": 148.54166666666666,
          "velocity": 0.1889763779527559
        },
        {
          "duration": 0,
          "durationTicks": 0,
          "midi": 81,
          "name": "A5",
          "ticks": 114080,
          "time": 148.54166666666666,
          "velocity": 0.09448818897637795
        },
        {
          "duration": 0.1263020833333428,
          "durationTicks": 97,
          "midi": 68,
          "name": "G#4",
          "ticks": 114089,
          "time": 148.55338541666666,
          "velocity": 0.2677165354330709
        },
        {
          "duration": 0,
          "durationTicks": 0,
          "midi": 75,
          "name": "D#5",
          "ticks": 114099,
          "time": 148.56640625,
          "velocity": 0.14173228346456693
        },
        {
          "duration": 0,
          "durationTicks": 0,
          "midi": 65,
          "name": "F4",
          "ticks": 114116,
          "time": 148.58854166666666,
          "velocity": 0.1732283464566929
        },
        {
          "duration": 0,
          "durationTicks": 0,
          "midi": 69,
          "name": "A4",
          "ticks": 114161,
          "time": 148.64713541666666,
          "velocity": 0.25984251968503935
        },
        {
          "duration": 0.1263020833333428,
          "durationTicks": 97,
          "midi": 72,
          "name": "C5",
          "ticks": 114170,
          "time": 148.65885416666666,
          "velocity": 0.11811023622047244
        },
        {
          "duration": 0.1263020833333428,
          "durationTicks": 97,
          "midi": 67,
          "name": "G4",
          "ticks": 114170,
          "time": 148.65885416666666,
          "velocity": 0.1732283464566929
        },
        {
          "duration": 0.1263020833333428,
          "durationTicks": 97,
          "midi": 82,
          "name": "A#5",
          "ticks": 114170,
          "time": 148.65885416666666,
          "velocity": 0.11811023622047244
        },
        {
          "duration": 0.1263020833333428,
          "durationTicks": 97,
          "midi": 70,
          "name": "A#4",
          "ticks": 114179,
          "time": 148.67057291666666,
          "velocity": 0.2677165354330709
        },
        {
          "duration": 0,
          "durationTicks": 0,
          "midi": 87,
          "name": "D#6",
          "ticks": 114189,
          "time": 148.68359375,
          "velocity": 0.14173228346456693
        },
        {
          "duration": 0,
          "durationTicks": 0,
          "midi": 89,
          "name": "F6",
          "ticks": 114189,
          "time": 148.68359375,
          "velocity": 0.07086614173228346
        },
        {
          "duration": 0,
          "durationTicks": 0,
          "midi": 68,
          "name": "G#4",
          "ticks": 114279,
          "time": 148.80078125,
          "velocity": 0.23622047244094488
        },
        {
          "duration": 0.1263020833333428,
          "durationTicks": 97,
          "midi": 63,
          "name": "D#4",
          "ticks": 114288,
          "time": 148.8125,
          "velocity": 0.16535433070866143
        },
        {
          "duration": 0.1263020833333428,
          "durationTicks": 97,
          "midi": 79,
          "name": "G5",
          "ticks": 114288,
          "time": 148.8125,
          "velocity": 0.11811023622047244
        },
        {
          "duration": 0.1263020833333428,
          "durationTicks": 97,
          "midi": 67,
          "name": "G4",
          "ticks": 114297,
          "time": 148.82421875,
          "velocity": 0.29133858267716534
        },
        {
          "duration": 0.1263020833333428,
          "durationTicks": 97,
          "midi": 68,
          "name": "G#4",
          "ticks": 114351,
          "time": 148.89453125,
          "velocity": 0.2677165354330709
        },
        {
          "duration": 0.1263020833333428,
          "durationTicks": 97,
          "midi": 65,
          "name": "F4",
          "ticks": 114360,
          "time": 148.90625,
          "velocity": 0.2283464566929134
        },
        {
          "duration": 0,
          "durationTicks": 0,
          "midi": 84,
          "name": "C6",
          "ticks": 114378,
          "time": 148.9296875,
          "velocity": 0.12598425196850394
        },
        {
          "duration": 0,
          "durationTicks": 0,
          "midi": 87,
          "name": "D#6",
          "ticks": 114378,
          "time": 148.9296875,
          "velocity": 0.10236220472440945
        },
        {
          "duration": 0,
          "durationTicks": 0,
          "midi": 56,
          "name": "G#3",
          "ticks": 114387,
          "time": 148.94140625,
          "velocity": 0.2992125984251969
        },
        {
          "duration": 0,
          "durationTicks": 0,
          "midi": 37,
          "name": "C#2",
          "ticks": 114387,
          "time": 148.94140625,
          "velocity": 0.2755905511811024
        },
        {
          "duration": 0,
          "durationTicks": 0,
          "midi": 90,
          "name": "F#6",
          "ticks": 114387,
          "time": 148.94140625,
          "velocity": 0.08661417322834646
        },
        {
          "duration": 0,
          "durationTicks": 0,
          "midi": 91,
          "name": "G6",
          "ticks": 114387,
          "time": 148.94140625,
          "velocity": 0.07874015748031496
        },
        {
          "duration": 0,
          "durationTicks": 0,
          "midi": 95,
          "name": "B6",
          "ticks": 114387,
          "time": 148.94140625,
          "velocity": 0.05511811023622047
        },
        {
          "duration": 0,
          "durationTicks": 0,
          "midi": 86,
          "name": "D6",
          "ticks": 114387,
          "time": 148.94140625,
          "velocity": 0.08661417322834646
        },
        {
          "duration": 0.1263020833333428,
          "durationTicks": 97,
          "midi": 92,
          "name": "G#6",
          "ticks": 114387,
          "time": 148.94140625,
          "velocity": 0.09448818897637795
        },
        {
          "duration": 0,
          "durationTicks": 0,
          "midi": 38,
          "name": "D2",
          "ticks": 114414,
          "time": 148.9765625,
          "velocity": 0.18110236220472442
        },
        {
          "duration": 0,
          "durationTicks": 0,
          "midi": 56,
          "name": "G#3",
          "ticks": 114414,
          "time": 148.9765625,
          "velocity": 0.1732283464566929
        },
        {
          "duration": 0.1263020833333428,
          "durationTicks": 97,
          "midi": 87,
          "name": "D#6",
          "ticks": 114423,
          "time": 148.98828125,
          "velocity": 0.07874015748031496
        },
        {
          "duration": 0,
          "durationTicks": 0,
          "midi": 37,
          "name": "C#2",
          "ticks": 114433,
          "time": 149.00130208333334,
          "velocity": 0.14173228346456693
        },
        {
          "duration": 0,
          "durationTicks": 0,
          "midi": 57,
          "name": "A3",
          "ticks": 114460,
          "time": 149.03645833333334,
          "velocity": 0.10236220472440945
        },
        {
          "duration": 0,
          "durationTicks": 0,
          "midi": 75,
          "name": "D#5",
          "ticks": 114477,
          "time": 149.05859375,
          "velocity": 0.14173228346456693
        },
        {
          "duration": 0,
          "durationTicks": 0,
          "midi": 67,
          "name": "G4",
          "ticks": 114496,
          "time": 149.08333333333334,
          "velocity": 0.08661417322834646
        },
        {
          "duration": 0,
          "durationTicks": 0,
          "midi": 70,
          "name": "A#4",
          "ticks": 114496,
          "time": 149.08333333333334,
          "velocity": 0.2755905511811024
        },
        {
          "duration": 0,
          "durationTicks": 0,
          "midi": 79,
          "name": "G5",
          "ticks": 114496,
          "time": 149.08333333333334,
          "velocity": 0.08661417322834646
        },
        {
          "duration": 0,
          "durationTicks": 0,
          "midi": 89,
          "name": "F6",
          "ticks": 114505,
          "time": 149.09505208333334,
          "velocity": 0.06299212598425197
        },
        {
          "duration": 0,
          "durationTicks": 0,
          "midi": 69,
          "name": "A4",
          "ticks": 114540,
          "time": 149.140625,
          "velocity": 0.2204724409448819
        },
        {
          "duration": 0.1276041666666572,
          "durationTicks": 98,
          "midi": 80,
          "name": "G#5",
          "ticks": 114540,
          "time": 149.140625,
          "velocity": 0.11811023622047244
        },
        {
          "duration": 0.1276041666666572,
          "durationTicks": 98,
          "midi": 87,
          "name": "D#6",
          "ticks": 114540,
          "time": 149.140625,
          "velocity": 0.2283464566929134
        },
        {
          "duration": 0,
          "durationTicks": 0,
          "midi": 65,
          "name": "F4",
          "ticks": 114550,
          "time": 149.15364583333334,
          "velocity": 0.1732283464566929
        },
        {
          "duration": 0.12630208333331439,
          "durationTicks": 97,
          "midi": 68,
          "name": "G#4",
          "ticks": 114559,
          "time": 149.16536458333334,
          "velocity": 0.30708661417322836
        },
        {
          "duration": 0,
          "durationTicks": 0,
          "midi": 66,
          "name": "F#4",
          "ticks": 114586,
          "time": 149.20052083333334,
          "velocity": 0.25196850393700787
        },
        {
          "duration": 0.12630208333331439,
          "durationTicks": 97,
          "midi": 46,
          "name": "A#2",
          "ticks": 114586,
          "time": 149.20052083333334,
          "velocity": 0.07874015748031496
        },
        {
          "duration": 0.12630208333331439,
          "durationTicks": 97,
          "midi": 27,
          "name": "D#1",
          "ticks": 114586,
          "time": 149.20052083333334,
          "velocity": 0.3700787401574803
        },
        {
          "duration": 0.12630208333331439,
          "durationTicks": 97,
          "midi": 61,
          "name": "C#4",
          "ticks": 114595,
          "time": 149.21223958333334,
          "velocity": 0.1889763779527559
        },
        {
          "duration": 0.12630208333331439,
          "durationTicks": 97,
          "midi": 77,
          "name": "F5",
          "ticks": 114595,
          "time": 149.21223958333334,
          "velocity": 0.11811023622047244
        },
        {
          "duration": 0.2526041666666572,
          "durationTicks": 194,
          "midi": 65,
          "name": "F4",
          "ticks": 114604,
          "time": 149.22395833333334,
          "velocity": 0.25984251968503935
        },
        {
          "duration": 0.125,
          "durationTicks": 96,
          "midi": 72,
          "name": "C5",
          "ticks": 114614,
          "time": 149.23697916666666,
          "velocity": 0.25196850393700787
        },
        {
          "duration": 0.125,
          "durationTicks": 96,
          "midi": 87,
          "name": "D#6",
          "ticks": 114668,
          "time": 149.30729166666666,
          "velocity": 0.14173228346456693
        },
        {
          "duration": 0.125,
          "durationTicks": 96,
          "midi": 73,
          "name": "C#5",
          "ticks": 114668,
          "time": 149.30729166666666,
          "velocity": 0.2677165354330709
        },
        {
          "duration": 0.12630208333331439,
          "durationTicks": 97,
          "midi": 68,
          "name": "G#4",
          "ticks": 114685,
          "time": 149.32942708333334,
          "velocity": 0.2677165354330709
        },
        {
          "duration": 0,
          "durationTicks": 0,
          "midi": 28,
          "name": "E1",
          "ticks": 114730,
          "time": 149.38802083333334,
          "velocity": 0.3700787401574803
        },
        {
          "duration": 0,
          "durationTicks": 0,
          "midi": 46,
          "name": "A#2",
          "ticks": 114757,
          "time": 149.42317708333334,
          "velocity": 0.05511811023622047
        },
        {
          "duration": 0,
          "durationTicks": 0,
          "midi": 63,
          "name": "D#4",
          "ticks": 114766,
          "time": 149.43489583333334,
          "velocity": 0.14173228346456693
        },
        {
          "duration": 0.1276041666666572,
          "durationTicks": 98,
          "midi": 70,
          "name": "A#4",
          "ticks": 114766,
          "time": 149.43489583333334,
          "velocity": 0.2755905511811024
        },
        {
          "duration": 0.25390625,
          "durationTicks": 195,
          "midi": 27,
          "name": "D#1",
          "ticks": 114766,
          "time": 149.43489583333334,
          "velocity": 0.36220472440944884
        },
        {
          "duration": 0,
          "durationTicks": 0,
          "midi": 67,
          "name": "G4",
          "ticks": 114775,
          "time": 149.44661458333334,
          "velocity": 0.2047244094488189
        },
        {
          "duration": 0.25390625,
          "durationTicks": 195,
          "midi": 46,
          "name": "A#2",
          "ticks": 114794,
          "time": 149.47135416666666,
          "velocity": 0.07874015748031496
        },
        {
          "duration": 0.1263020833333428,
          "durationTicks": 97,
          "midi": 65,
          "name": "F4",
          "ticks": 114821,
          "time": 149.50651041666666,
          "velocity": 0.10236220472440945
        },
        {
          "duration": 0.2526041666666856,
          "durationTicks": 194,
          "midi": 68,
          "name": "G#4",
          "ticks": 114830,
          "time": 149.51822916666666,
          "velocity": 0.2047244094488189
        },
        {
          "duration": 0.125,
          "durationTicks": 96,
          "midi": 72,
          "name": "C5",
          "ticks": 114839,
          "time": 149.52994791666666,
          "velocity": 0.25984251968503935
        },
        {
          "duration": 0,
          "durationTicks": 0,
          "midi": 75,
          "name": "D#5",
          "ticks": 114857,
          "time": 149.55338541666666,
          "velocity": 0.14173228346456693
        },
        {
          "duration": 0,
          "durationTicks": 0,
          "midi": 91,
          "name": "G6",
          "ticks": 114947,
          "time": 149.67057291666666,
          "velocity": 0.05511811023622047
        },
        {
          "duration": 0.2513020833333428,
          "durationTicks": 193,
          "midi": 58,
          "name": "A#3",
          "ticks": 114956,
          "time": 149.68229166666666,
          "velocity": 0.11023622047244094
        },
        {
          "duration": 0,
          "durationTicks": 0,
          "midi": 63,
          "name": "D#4",
          "ticks": 114966,
          "time": 149.6953125,
          "velocity": 0.14960629921259844
        },
        {
          "duration": 0,
          "durationTicks": 0,
          "midi": 71,
          "name": "B4",
          "ticks": 114975,
          "time": 149.70703125,
          "velocity": 0.2677165354330709
        },
        {
          "duration": 0,
          "durationTicks": 0,
          "midi": 39,
          "name": "D#2",
          "ticks": 114984,
          "time": 149.71875,
          "velocity": 0.3464566929133858
        },
        {
          "duration": 0,
          "durationTicks": 0,
          "midi": 70,
          "name": "A#4",
          "ticks": 114993,
          "time": 149.73046875,
          "velocity": 0.29133858267716534
        },
        {
          "duration": 0.12369791666665719,
          "durationTicks": 95,
          "midi": 39,
          "name": "D#2",
          "ticks": 115011,
          "time": 149.75390625,
          "velocity": 0.3543307086614173
        },
        {
          "duration": 0.125,
          "durationTicks": 96,
          "midi": 72,
          "name": "C5",
          "ticks": 115037,
          "time": 149.78776041666666,
          "velocity": 0.14173228346456693
        },
        {
          "duration": 0,
          "durationTicks": 0,
          "midi": 75,
          "name": "D#5",
          "ticks": 115046,
          "time": 149.79947916666666,
          "velocity": 0.14173228346456693
        },
        {
          "duration": 0,
          "durationTicks": 0,
          "midi": 68,
          "name": "G#4",
          "ticks": 115118,
          "time": 149.89322916666666,
          "velocity": 0.1732283464566929
        },
        {
          "duration": 0,
          "durationTicks": 0,
          "midi": 40,
          "name": "E2",
          "ticks": 115135,
          "time": 149.91536458333334,
          "velocity": 0.33070866141732286
        },
        {
          "duration": 0,
          "durationTicks": 0,
          "midi": 65,
          "name": "F4",
          "ticks": 115135,
          "time": 149.91536458333334,
          "velocity": 0.1968503937007874
        },
        {
          "duration": 0,
          "durationTicks": 0,
          "midi": 73,
          "name": "C#5",
          "ticks": 115135,
          "time": 149.91536458333334,
          "velocity": 0.2125984251968504
        },
        {
          "duration": 0,
          "durationTicks": 0,
          "midi": 90,
          "name": "F#6",
          "ticks": 115145,
          "time": 149.92838541666666,
          "velocity": 0.07086614173228346
        },
        {
          "duration": 0.12760416666668561,
          "durationTicks": 98,
          "midi": 87,
          "name": "D#6",
          "ticks": 115145,
          "time": 149.92838541666666,
          "velocity": 0.11023622047244094
        },
        {
          "duration": 0.12760416666668561,
          "durationTicks": 98,
          "midi": 80,
          "name": "G#5",
          "ticks": 115145,
          "time": 149.92838541666666,
          "velocity": 0.1732283464566929
        },
        {
          "duration": 0,
          "durationTicks": 0,
          "midi": 66,
          "name": "F#4",
          "ticks": 115154,
          "time": 149.94010416666666,
          "velocity": 0.18110236220472442
        },
        {
          "duration": 0,
          "durationTicks": 0,
          "midi": 74,
          "name": "D5",
          "ticks": 115154,
          "time": 149.94010416666666,
          "velocity": 0.1889763779527559
        },
        {
          "duration": 0.12760416666668561,
          "durationTicks": 98,
          "midi": 68,
          "name": "G#4",
          "ticks": 115154,
          "time": 149.94010416666666,
          "velocity": 0.25984251968503935
        },
        {
          "duration": 0.12760416666668561,
          "durationTicks": 98,
          "midi": 77,
          "name": "F5",
          "ticks": 115154,
          "time": 149.94010416666666,
          "velocity": 0.1968503937007874
        },
        {
          "duration": 0,
          "durationTicks": 0,
          "midi": 57,
          "name": "A3",
          "ticks": 115163,
          "time": 149.95182291666666,
          "velocity": 0.29133858267716534
        },
        {
          "duration": 0,
          "durationTicks": 0,
          "midi": 38,
          "name": "D2",
          "ticks": 115172,
          "time": 149.96354166666666,
          "velocity": 0.2125984251968504
        },
        {
          "duration": 0,
          "durationTicks": 0,
          "midi": 65,
          "name": "F4",
          "ticks": 115172,
          "time": 149.96354166666666,
          "velocity": 0.1732283464566929
        },
        {
          "duration": 0,
          "durationTicks": 0,
          "midi": 73,
          "name": "C#5",
          "ticks": 115182,
          "time": 149.9765625,
          "velocity": 0.16535433070866143
        },
        {
          "duration": 0,
          "durationTicks": 0,
          "midi": 69,
          "name": "A4",
          "ticks": 115209,
          "time": 150.01171875,
          "velocity": 0.2677165354330709
        },
        {
          "duration": 0,
          "durationTicks": 0,
          "midi": 57,
          "name": "A3",
          "ticks": 115218,
          "time": 150.0234375,
          "velocity": 0.09448818897637795
        },
        {
          "duration": 0.1263020833333428,
          "durationTicks": 97,
          "midi": 77,
          "name": "F5",
          "ticks": 115227,
          "time": 150.03515625,
          "velocity": 0.1968503937007874
        },
        {
          "duration": 0.1263020833333428,
          "durationTicks": 97,
          "midi": 67,
          "name": "G4",
          "ticks": 115227,
          "time": 150.03515625,
          "velocity": 0.16535433070866143
        },
        {
          "duration": 0.1263020833333428,
          "durationTicks": 97,
          "midi": 70,
          "name": "A#4",
          "ticks": 115227,
          "time": 150.03515625,
          "velocity": 0.2755905511811024
        },
        {
          "duration": 0,
          "durationTicks": 0,
          "midi": 75,
          "name": "D#5",
          "ticks": 115245,
          "time": 150.05859375,
          "velocity": 0.15748031496062992
        },
        {
          "duration": 0,
          "durationTicks": 0,
          "midi": 73,
          "name": "C#5",
          "ticks": 115264,
          "time": 150.08333333333334,
          "velocity": 0.07086614173228346
        },
        {
          "duration": 0.2526041666666572,
          "durationTicks": 194,
          "midi": 58,
          "name": "A#3",
          "ticks": 115336,
          "time": 150.17708333333334,
          "velocity": 0.11023622047244094
        },
        {
          "duration": 0,
          "durationTicks": 0,
          "midi": 66,
          "name": "F#4",
          "ticks": 115354,
          "time": 150.20052083333334,
          "velocity": 0.18110236220472442
        },
        {
          "duration": 0,
          "durationTicks": 0,
          "midi": 39,
          "name": "D#2",
          "ticks": 115363,
          "time": 150.21223958333334,
          "velocity": 0.3464566929133858
        },
        {
          "duration": 0,
          "durationTicks": 0,
          "midi": 69,
          "name": "A4",
          "ticks": 115363,
          "time": 150.21223958333334,
          "velocity": 0.1968503937007874
        },
        {
          "duration": 0,
          "durationTicks": 0,
          "midi": 64,
          "name": "E4",
          "ticks": 115372,
          "time": 150.22395833333334,
          "velocity": 0.1889763779527559
        },
        {
          "duration": 0,
          "durationTicks": 0,
          "midi": 67,
          "name": "G4",
          "ticks": 115372,
          "time": 150.22395833333334,
          "velocity": 0.2283464566929134
        },
        {
          "duration": 0,
          "durationTicks": 0,
          "midi": 68,
          "name": "G#4",
          "ticks": 115390,
          "time": 150.24739583333334,
          "velocity": 0.18110236220472442
        },
        {
          "duration": 0.12630208333331439,
          "durationTicks": 97,
          "midi": 39,
          "name": "D#2",
          "ticks": 115390,
          "time": 150.24739583333334,
          "velocity": 0.36220472440944884
        },
        {
          "duration": 0.12630208333331439,
          "durationTicks": 97,
          "midi": 70,
          "name": "A#4",
          "ticks": 115417,
          "time": 150.28255208333334,
          "velocity": 0.12598425196850394
        },
        {
          "duration": 0,
          "durationTicks": 0,
          "midi": 73,
          "name": "C#5",
          "ticks": 115426,
          "time": 150.29427083333334,
          "velocity": 0.09448818897637795
        },
        {
          "duration": 0,
          "durationTicks": 0,
          "midi": 75,
          "name": "D#5",
          "ticks": 115435,
          "time": 150.30598958333334,
          "velocity": 0.16535433070866143
        },
        {
          "duration": 0,
          "durationTicks": 0,
          "midi": 72,
          "name": "C5",
          "ticks": 115471,
          "time": 150.35286458333334,
          "velocity": 0.08661417322834646
        },
        {
          "duration": 0,
          "durationTicks": 0,
          "midi": 73,
          "name": "C#5",
          "ticks": 115516,
          "time": 150.41145833333334,
          "velocity": 0.07874015748031496
        },
        {
          "duration": 0,
          "durationTicks": 0,
          "midi": 38,
          "name": "D2",
          "ticks": 115525,
          "time": 150.42317708333334,
          "velocity": 0.3228346456692913
        },
        {
          "duration": 0,
          "durationTicks": 0,
          "midi": 47,
          "name": "B2",
          "ticks": 115525,
          "time": 150.42317708333334,
          "velocity": 0.3464566929133858
        },
        {
          "duration": 0.12630208333331439,
          "durationTicks": 97,
          "midi": 67,
          "name": "G4",
          "ticks": 115525,
          "time": 150.42317708333334,
          "velocity": 0.25984251968503935
        },
        {
          "duration": 0,
          "durationTicks": 0,
          "midi": 46,
          "name": "A#2",
          "ticks": 115552,
          "time": 150.45833333333334,
          "velocity": 0.3464566929133858
        },
        {
          "duration": 0,
          "durationTicks": 0,
          "midi": 31,
          "name": "G1",
          "ticks": 115552,
          "time": 150.45833333333334,
          "velocity": 0.29133858267716534
        },
        {
          "duration": 0,
          "durationTicks": 0,
          "midi": 63,
          "name": "D#4",
          "ticks": 115561,
          "time": 150.47005208333334,
          "velocity": 0.14173228346456693
        },
        {
          "duration": 0,
          "durationTicks": 0,
          "midi": 86,
          "name": "D6",
          "ticks": 115561,
          "time": 150.47005208333334,
          "velocity": 0.05511811023622047
        },
        {
          "duration": 0.12630208333331439,
          "durationTicks": 97,
          "midi": 46,
          "name": "A#2",
          "ticks": 115579,
          "time": 150.49348958333334,
          "velocity": 0.3464566929133858
        },
        {
          "duration": 0.12630208333331439,
          "durationTicks": 97,
          "midi": 68,
          "name": "G#4",
          "ticks": 115588,
          "time": 150.50520833333334,
          "velocity": 0.2677165354330709
        },
        {
          "duration": 0.1263020833333428,
          "durationTicks": 97,
          "midi": 65,
          "name": "F4",
          "ticks": 115598,
          "time": 150.51822916666666,
          "velocity": 0.1968503937007874
        },
        {
          "duration": 0,
          "durationTicks": 0,
          "midi": 75,
          "name": "D#5",
          "ticks": 115625,
          "time": 150.55338541666666,
          "velocity": 0.14173228346456693
        },
        {
          "duration": 0,
          "durationTicks": 0,
          "midi": 87,
          "name": "D#6",
          "ticks": 115715,
          "time": 150.67057291666666,
          "velocity": 0.12598425196850394
        },
        {
          "duration": 0,
          "durationTicks": 0,
          "midi": 67,
          "name": "G4",
          "ticks": 115732,
          "time": 150.69270833333334,
          "velocity": 0.28346456692913385
        },
        {
          "duration": 0.12630208333331439,
          "durationTicks": 97,
          "midi": 51,
          "name": "D#3",
          "ticks": 115732,
          "time": 150.69270833333334,
          "velocity": 0.36220472440944884
        },
        {
          "duration": 0.1263020833333428,
          "durationTicks": 97,
          "midi": 70,
          "name": "A#4",
          "ticks": 115742,
          "time": 150.70572916666666,
          "velocity": 0.08661417322834646
        },
        {
          "duration": 0,
          "durationTicks": 0,
          "midi": 65,
          "name": "F4",
          "ticks": 115759,
          "time": 150.72786458333334,
          "velocity": 0.2283464566929134
        },
        {
          "duration": 0.12630208333331439,
          "durationTicks": 97,
          "midi": 68,
          "name": "G#4",
          "ticks": 115786,
          "time": 150.76302083333334,
          "velocity": 0.14173228346456693
        },
        {
          "duration": 0,
          "durationTicks": 0,
          "midi": 75,
          "name": "D#5",
          "ticks": 115813,
          "time": 150.79817708333334,
          "velocity": 0.14173228346456693
        },
        {
          "duration": 0.12630208333331439,
          "durationTicks": 97,
          "midi": 58,
          "name": "A#3",
          "ticks": 115822,
          "time": 150.80989583333334,
          "velocity": 0.10236220472440945
        },
        {
          "duration": 0.1263020833333428,
          "durationTicks": 97,
          "midi": 39,
          "name": "D#2",
          "ticks": 115832,
          "time": 150.82291666666666,
          "velocity": 0.3543307086614173
        },
        {
          "duration": 0,
          "durationTicks": 0,
          "midi": 38,
          "name": "D2",
          "ticks": 115903,
          "time": 150.91536458333334,
          "velocity": 0.29133858267716534
        },
        {
          "duration": 0,
          "durationTicks": 0,
          "midi": 69,
          "name": "A4",
          "ticks": 115903,
          "time": 150.91536458333334,
          "velocity": 0.2047244094488189
        },
        {
          "duration": 0,
          "durationTicks": 0,
          "midi": 65,
          "name": "F4",
          "ticks": 115903,
          "time": 150.91536458333334,
          "velocity": 0.2440944881889764
        },
        {
          "duration": 0.1276041666666572,
          "durationTicks": 98,
          "midi": 80,
          "name": "G#5",
          "ticks": 115903,
          "time": 150.91536458333334,
          "velocity": 0.2047244094488189
        },
        {
          "duration": 0,
          "durationTicks": 0,
          "midi": 86,
          "name": "D6",
          "ticks": 115912,
          "time": 150.92708333333334,
          "velocity": 0.06299212598425197
        },
        {
          "duration": 0,
          "durationTicks": 0,
          "midi": 90,
          "name": "F#6",
          "ticks": 115912,
          "time": 150.92708333333334,
          "velocity": 0.11023622047244094
        },
        {
          "duration": 0,
          "durationTicks": 0,
          "midi": 37,
          "name": "C#2",
          "ticks": 115922,
          "time": 150.94010416666666,
          "velocity": 0.2755905511811024
        },
        {
          "duration": 0,
          "durationTicks": 0,
          "midi": 57,
          "name": "A3",
          "ticks": 115922,
          "time": 150.94010416666666,
          "velocity": 0.2992125984251969
        },
        {
          "duration": 0,
          "durationTicks": 0,
          "midi": 87,
          "name": "D#6",
          "ticks": 115922,
          "time": 150.94010416666666,
          "velocity": 0.14173228346456693
        },
        {
          "duration": 0.1263020833333428,
          "durationTicks": 97,
          "midi": 68,
          "name": "G#4",
          "ticks": 115922,
          "time": 150.94010416666666,
          "velocity": 0.25984251968503935
        },
        {
          "duration": 0.1263020833333428,
          "durationTicks": 97,
          "midi": 51,
          "name": "D#3",
          "ticks": 115922,
          "time": 150.94010416666666,
          "velocity": 0.3543307086614173
        },
        {
          "duration": 0,
          "durationTicks": 0,
          "midi": 77,
          "name": "F5",
          "ticks": 115931,
          "time": 150.95182291666666,
          "velocity": 0.07086614173228346
        },
        {
          "duration": 0,
          "durationTicks": 0,
          "midi": 38,
          "name": "D2",
          "ticks": 115940,
          "time": 150.96354166666666,
          "velocity": 0.2047244094488189
        },
        {
          "duration": 0,
          "durationTicks": 0,
          "midi": 69,
          "name": "A4",
          "ticks": 115976,
          "time": 151.01041666666666,
          "velocity": 0.25984251968503935
        },
        {
          "duration": 0.2513020833333428,
          "durationTicks": 193,
          "midi": 89,
          "name": "F6",
          "ticks": 115994,
          "time": 151.03385416666666,
          "velocity": 0.07086614173228346
        },
        {
          "duration": 0.6302083333333428,
          "durationTicks": 484,
          "midi": 70,
          "name": "A#4",
          "ticks": 115994,
          "time": 151.03385416666666,
          "velocity": 0.30708661417322836
        },
        {
          "duration": 0,
          "durationTicks": 0,
          "midi": 75,
          "name": "D#5",
          "ticks": 116003,
          "time": 151.04557291666666,
          "velocity": 0.14960629921259844
        },
        {
          "duration": 0.125,
          "durationTicks": 96,
          "midi": 67,
          "name": "G4",
          "ticks": 116003,
          "time": 151.04557291666666,
          "velocity": 0.1732283464566929
        },
        {
          "duration": 0.125,
          "durationTicks": 96,
          "midi": 51,
          "name": "D#3",
          "ticks": 116021,
          "time": 151.06901041666666,
          "velocity": 0.3464566929133858
        },
        {
          "duration": 0,
          "durationTicks": 0,
          "midi": 45,
          "name": "A2",
          "ticks": 116102,
          "time": 151.17447916666666,
          "velocity": 0.3464566929133858
        },
        {
          "duration": 0,
          "durationTicks": 0,
          "midi": 87,
          "name": "D#6",
          "ticks": 116102,
          "time": 151.17447916666666,
          "velocity": 0.11023622047244094
        },
        {
          "duration": 0.12630208333331439,
          "durationTicks": 97,
          "midi": 46,
          "name": "A#2",
          "ticks": 116119,
          "time": 151.19661458333334,
          "velocity": 0.3464566929133858
        },
        {
          "duration": 0,
          "durationTicks": 0,
          "midi": 68,
          "name": "G#4",
          "ticks": 116155,
          "time": 151.24348958333334,
          "velocity": 0.1732283464566929
        },
        {
          "duration": 0,
          "durationTicks": 0,
          "midi": 65,
          "name": "F4",
          "ticks": 116173,
          "time": 151.26692708333334,
          "velocity": 0.14960629921259844
        },
        {
          "duration": 0,
          "durationTicks": 0,
          "midi": 67,
          "name": "G4",
          "ticks": 116173,
          "time": 151.26692708333334,
          "velocity": 0.14173228346456693
        },
        {
          "duration": 0,
          "durationTicks": 0,
          "midi": 47,
          "name": "B2",
          "ticks": 116182,
          "time": 151.27864583333334,
          "velocity": 0.3464566929133858
        },
        {
          "duration": 0,
          "durationTicks": 0,
          "midi": 75,
          "name": "D#5",
          "ticks": 116200,
          "time": 151.30208333333334,
          "velocity": 0.16535433070866143
        },
        {
          "duration": 0,
          "durationTicks": 0,
          "midi": 57,
          "name": "A3",
          "ticks": 116209,
          "time": 151.31380208333334,
          "velocity": 0.30708661417322836
        },
        {
          "duration": 0.1276041666666572,
          "durationTicks": 98,
          "midi": 63,
          "name": "D#4",
          "ticks": 116209,
          "time": 151.31380208333334,
          "velocity": 0.25196850393700787
        },
        {
          "duration": 0,
          "durationTicks": 0,
          "midi": 89,
          "name": "F6",
          "ticks": 116219,
          "time": 151.32682291666666,
          "velocity": 0.08661417322834646
        },
        {
          "duration": 0.12760416666668561,
          "durationTicks": 98,
          "midi": 39,
          "name": "D#2",
          "ticks": 116219,
          "time": 151.32682291666666,
          "velocity": 0.3543307086614173
        },
        {
          "duration": 0,
          "durationTicks": 0,
          "midi": 67,
          "name": "G4",
          "ticks": 116245,
          "time": 151.36067708333334,
          "velocity": 0.18110236220472442
        },
        {
          "duration": 0,
          "durationTicks": 0,
          "midi": 60,
          "name": "C4",
          "ticks": 116255,
          "time": 151.37369791666666,
          "velocity": 0.25196850393700787
        },
        {
          "duration": 0,
          "durationTicks": 0,
          "midi": 89,
          "name": "F6",
          "ticks": 116264,
          "time": 151.38541666666666,
          "velocity": 0.05511811023622047
        },
        {
          "duration": 0,
          "durationTicks": 0,
          "midi": 60,
          "name": "C4",
          "ticks": 116291,
          "time": 151.42057291666666,
          "velocity": 0.1968503937007874
        },
        {
          "duration": 0.1263020833333428,
          "durationTicks": 97,
          "midi": 65,
          "name": "F4",
          "ticks": 116291,
          "time": 151.42057291666666,
          "velocity": 0.2677165354330709
        },
        {
          "duration": 0.1263020833333428,
          "durationTicks": 97,
          "midi": 53,
          "name": "F3",
          "ticks": 116291,
          "time": 151.42057291666666,
          "velocity": 0.23622047244094488
        },
        {
          "duration": 0.1263020833333428,
          "durationTicks": 97,
          "midi": 30,
          "name": "F#1",
          "ticks": 116300,
          "time": 151.43229166666666,
          "velocity": 0.4251968503937008
        },
        {
          "duration": 0,
          "durationTicks": 0,
          "midi": 66,
          "name": "F#4",
          "ticks": 116354,
          "time": 151.50260416666666,
          "velocity": 0.2677165354330709
        },
        {
          "duration": 0.1263020833333428,
          "durationTicks": 97,
          "midi": 29,
          "name": "F1",
          "ticks": 116354,
          "time": 151.50260416666666,
          "velocity": 0.3779527559055118
        },
        {
          "duration": 0.3776041666666856,
          "durationTicks": 290,
          "midi": 63,
          "name": "D#4",
          "ticks": 116363,
          "time": 151.51432291666666,
          "velocity": 0.2125984251968504
        },
        {
          "duration": 0.2513020833333428,
          "durationTicks": 193,
          "midi": 67,
          "name": "G4",
          "ticks": 116373,
          "time": 151.52734375,
          "velocity": 0.28346456692913385
        },
        {
          "duration": 0.2513020833333428,
          "durationTicks": 193,
          "midi": 86,
          "name": "D6",
          "ticks": 116373,
          "time": 151.52734375,
          "velocity": 0.08661417322834646
        },
        {
          "duration": 0.1263020833333428,
          "durationTicks": 97,
          "midi": 48,
          "name": "C3",
          "ticks": 116390,
          "time": 151.54947916666666,
          "velocity": 0.08661417322834646
        },
        {
          "duration": 0.1263020833333428,
          "durationTicks": 97,
          "midi": 60,
          "name": "C4",
          "ticks": 116444,
          "time": 151.61979166666666,
          "velocity": 0.12598425196850394
        },
        {
          "duration": 0.2526041666666856,
          "durationTicks": 194,
          "midi": 53,
          "name": "F3",
          "ticks": 116471,
          "time": 151.65494791666666,
          "velocity": 0.14173228346456693
        },
        {
          "duration": 0,
          "durationTicks": 0,
          "midi": 87,
          "name": "D#6",
          "ticks": 116480,
          "time": 151.66666666666666,
          "velocity": 0.13385826771653545
        },
        {
          "duration": 0.1263020833333428,
          "durationTicks": 97,
          "midi": 60,
          "name": "C4",
          "ticks": 116507,
          "time": 151.70182291666666,
          "velocity": 0.11811023622047244
        },
        {
          "duration": 0,
          "durationTicks": 0,
          "midi": 68,
          "name": "G#4",
          "ticks": 116561,
          "time": 151.77213541666666,
          "velocity": 0.25196850393700787
        },
        {
          "duration": 0.11848958333334281,
          "durationTicks": 91,
          "midi": 86,
          "name": "D6",
          "ticks": 116579,
          "time": 151.79557291666666,
          "velocity": 0.08661417322834646
        },
        {
          "duration": 0.09375,
          "durationTicks": 72,
          "midi": 67,
          "name": "G4",
          "ticks": 116588,
          "time": 151.80729166666666,
          "velocity": 0.25984251968503935
        },
        {
          "duration": 0,
          "durationTicks": 0,
          "midi": 91,
          "name": "G6",
          "ticks": 116597,
          "time": 151.81901041666666,
          "velocity": 0.07086614173228346
        },
        {
          "duration": 0,
          "durationTicks": 0,
          "midi": 76,
          "name": "E5",
          "ticks": 116660,
          "time": 151.90104166666666,
          "velocity": 0.09448818897637795
        },
        {
          "duration": 0.033854166666685614,
          "durationTicks": 26,
          "midi": 67,
          "name": "G4",
          "ticks": 116660,
          "time": 151.90104166666666,
          "velocity": 0.2204724409448819
        },
        {
          "duration": 0,
          "durationTicks": 0,
          "midi": 72,
          "name": "C5",
          "ticks": 116670,
          "time": 151.9140625,
          "velocity": 0.2125984251968504
        },
        {
          "duration": 0.009114583333342807,
          "durationTicks": 7,
          "midi": 86,
          "name": "D6",
          "ticks": 116670,
          "time": 151.9140625,
          "velocity": 0.11023622047244094
        },
        {
          "duration": 0,
          "durationTicks": 0,
          "midi": 80,
          "name": "G#5",
          "ticks": 116670,
          "time": 151.9140625,
          "velocity": 0.14960629921259844
        },
        {
          "duration": 0.2526041666666572,
          "durationTicks": 194,
          "midi": 82,
          "name": "A#5",
          "ticks": 116670,
          "time": 151.9140625,
          "velocity": 0.11811023622047244
        },
        {
          "duration": 0.2526041666666572,
          "durationTicks": 194,
          "midi": 63,
          "name": "D#4",
          "ticks": 116670,
          "time": 151.9140625,
          "velocity": 0.29133858267716534
        },
        {
          "duration": 0,
          "durationTicks": 0,
          "midi": 56,
          "name": "G#3",
          "ticks": 116679,
          "time": 151.92578125,
          "velocity": 0.30708661417322836
        },
        {
          "duration": 0,
          "durationTicks": 0,
          "midi": 90,
          "name": "F#6",
          "ticks": 116679,
          "time": 151.92578125,
          "velocity": 0.07086614173228346
        },
        {
          "duration": 0,
          "durationTicks": 0,
          "midi": 85,
          "name": "C#6",
          "ticks": 116679,
          "time": 151.92578125,
          "velocity": 0.05511811023622047
        },
        {
          "duration": 0,
          "durationTicks": 0,
          "midi": 77,
          "name": "F5",
          "ticks": 116698,
          "time": 151.95052083333334,
          "velocity": 0.1968503937007874
        },
        {
          "duration": 0,
          "durationTicks": 0,
          "midi": 38,
          "name": "D2",
          "ticks": 116698,
          "time": 151.95052083333334,
          "velocity": 0.23622047244094488
        },
        {
          "duration": 0,
          "durationTicks": 0,
          "midi": 91,
          "name": "G6",
          "ticks": 116698,
          "time": 151.95052083333334,
          "velocity": 0.06299212598425197
        },
        {
          "duration": 0,
          "durationTicks": 0,
          "midi": 79,
          "name": "G5",
          "ticks": 116707,
          "time": 151.96223958333334,
          "velocity": 0.09448818897637795
        },
        {
          "duration": 0.125,
          "durationTicks": 96,
          "midi": 72,
          "name": "C5",
          "ticks": 116707,
          "time": 151.96223958333334,
          "velocity": 0.2047244094488189
        },
        {
          "duration": 0.08333333333334281,
          "durationTicks": 64,
          "midi": 60,
          "name": "C4",
          "ticks": 116724,
          "time": 151.984375,
          "velocity": 0.2125984251968504
        },
        {
          "duration": 0,
          "durationTicks": 0,
          "midi": 57,
          "name": "A3",
          "ticks": 116742,
          "time": 152.0078125,
          "velocity": 0.10236220472440945
        },
        {
          "duration": 0,
          "durationTicks": 0,
          "midi": 77,
          "name": "F5",
          "ticks": 116751,
          "time": 152.01953125,
          "velocity": 0.16535433070866143
        },
        {
          "duration": 0,
          "durationTicks": 0,
          "midi": 79,
          "name": "G5",
          "ticks": 116761,
          "time": 152.03255208333334,
          "velocity": 0.05511811023622047
        },
        {
          "duration": 0.125,
          "durationTicks": 96,
          "midi": 67,
          "name": "G4",
          "ticks": 116770,
          "time": 152.04427083333334,
          "velocity": 0.13385826771653545
        },
        {
          "duration": 0.04166666666665719,
          "durationTicks": 32,
          "midi": 60,
          "name": "C4",
          "ticks": 116788,
          "time": 152.06770833333334,
          "velocity": 0.2283464566929134
        },
        {
          "duration": 0.125,
          "durationTicks": 96,
          "midi": 53,
          "name": "F3",
          "ticks": 116823,
          "time": 152.11328125,
          "velocity": 0.08661417322834646
        },
        {
          "duration": 0,
          "durationTicks": 0,
          "midi": 60,
          "name": "C4",
          "ticks": 116832,
          "time": 152.125,
          "velocity": 0.2204724409448819
        },
        {
          "duration": 0.25,
          "durationTicks": 192,
          "midi": 63,
          "name": "D#4",
          "ticks": 116904,
          "time": 152.21875,
          "velocity": 0.09448818897637795
        },
        {
          "duration": 0.125,
          "durationTicks": 96,
          "midi": 75,
          "name": "D#5",
          "ticks": 116956,
          "time": 152.28645833333334,
          "velocity": 0.1732283464566929
        },
        {
          "duration": 0,
          "durationTicks": 0,
          "midi": 29,
          "name": "F1",
          "ticks": 117064,
          "time": 152.42708333333334,
          "velocity": 0.4015748031496063
        },
        {
          "duration": 0,
          "durationTicks": 0,
          "midi": 56,
          "name": "G#3",
          "ticks": 117064,
          "time": 152.42708333333334,
          "velocity": 0.1732283464566929
        },
        {
          "duration": 0,
          "durationTicks": 0,
          "midi": 60,
          "name": "C4",
          "ticks": 117064,
          "time": 152.42708333333334,
          "velocity": 0.2440944881889764
        },
        {
          "duration": 0,
          "durationTicks": 0,
          "midi": 79,
          "name": "G5",
          "ticks": 117073,
          "time": 152.43880208333334,
          "velocity": 0.05511811023622047
        },
        {
          "duration": 0,
          "durationTicks": 0,
          "midi": 30,
          "name": "F#1",
          "ticks": 117073,
          "time": 152.43880208333334,
          "velocity": 0.4251968503937008
        },
        {
          "duration": 0,
          "durationTicks": 0,
          "midi": 48,
          "name": "C3",
          "ticks": 117100,
          "time": 152.47395833333334,
          "velocity": 0.13385826771653545
        },
        {
          "duration": 0.125,
          "durationTicks": 96,
          "midi": 29,
          "name": "F1",
          "ticks": 117109,
          "time": 152.48567708333334,
          "velocity": 0.3779527559055118
        },
        {
          "duration": 0,
          "durationTicks": 0,
          "midi": 75,
          "name": "D#5",
          "ticks": 117145,
          "time": 152.53255208333334,
          "velocity": 0.14960629921259844
        },
        {
          "duration": 0,
          "durationTicks": 0,
          "midi": 55,
          "name": "G3",
          "ticks": 117154,
          "time": 152.54427083333334,
          "velocity": 0.25984251968503935
        },
        {
          "duration": 0,
          "durationTicks": 0,
          "midi": 55,
          "name": "G3",
          "ticks": 117181,
          "time": 152.57942708333334,
          "velocity": 0.28346456692913385
        },
        {
          "duration": 0,
          "durationTicks": 0,
          "midi": 48,
          "name": "C3",
          "ticks": 117208,
          "time": 152.61458333333334,
          "velocity": 0.14173228346456693
        },
        {
          "duration": 0.12630208333331439,
          "durationTicks": 97,
          "midi": 58,
          "name": "A#3",
          "ticks": 117235,
          "time": 152.64973958333334,
          "velocity": 0.29133858267716534
        },
        {
          "duration": 0,
          "durationTicks": 0,
          "midi": 87,
          "name": "D#6",
          "ticks": 117244,
          "time": 152.66145833333334,
          "velocity": 0.14173228346456693
        },
        {
          "duration": 0,
          "durationTicks": 0,
          "midi": 77,
          "name": "F5",
          "ticks": 117253,
          "time": 152.67317708333334,
          "velocity": 0.10236220472440945
        },
        {
          "duration": 0,
          "durationTicks": 0,
          "midi": 55,
          "name": "G3",
          "ticks": 117334,
          "time": 152.77864583333334,
          "velocity": 0.1889763779527559
        },
        {
          "duration": 0,
          "durationTicks": 0,
          "midi": 75,
          "name": "D#5",
          "ticks": 117334,
          "time": 152.77864583333334,
          "velocity": 0.14173228346456693
        },
        {
          "duration": 0.125,
          "durationTicks": 96,
          "midi": 60,
          "name": "C4",
          "ticks": 117334,
          "time": 152.77864583333334,
          "velocity": 0.2755905511811024
        },
        {
          "duration": 0,
          "durationTicks": 0,
          "midi": 79,
          "name": "G5",
          "ticks": 117343,
          "time": 152.79036458333334,
          "velocity": 0.06299212598425197
        },
        {
          "duration": 0,
          "durationTicks": 0,
          "midi": 57,
          "name": "A3",
          "ticks": 117432,
          "time": 152.90625,
          "velocity": 0.31496062992125984
        },
        {
          "duration": 0,
          "durationTicks": 0,
          "midi": 87,
          "name": "D#6",
          "ticks": 117432,
          "time": 152.90625,
          "velocity": 0.07874015748031496
        },
        {
          "duration": 0,
          "durationTicks": 0,
          "midi": 80,
          "name": "G#5",
          "ticks": 117432,
          "time": 152.90625,
          "velocity": 0.14960629921259844
        },
        {
          "duration": 0,
          "durationTicks": 0,
          "midi": 90,
          "name": "F#6",
          "ticks": 117432,
          "time": 152.90625,
          "velocity": 0.07086614173228346
        },
        {
          "duration": 0.125,
          "durationTicks": 96,
          "midi": 82,
          "name": "A#5",
          "ticks": 117432,
          "time": 152.90625,
          "velocity": 0.13385826771653545
        },
        {
          "duration": 0,
          "durationTicks": 0,
          "midi": 70,
          "name": "A#4",
          "ticks": 117442,
          "time": 152.91927083333334,
          "velocity": 0.15748031496062992
        },
        {
          "duration": 0,
          "durationTicks": 0,
          "midi": 77,
          "name": "F5",
          "ticks": 117442,
          "time": 152.91927083333334,
          "velocity": 0.10236220472440945
        },
        {
          "duration": 0.125,
          "durationTicks": 96,
          "midi": 63,
          "name": "D#4",
          "ticks": 117442,
          "time": 152.91927083333334,
          "velocity": 0.2755905511811024
        },
        {
          "duration": 0,
          "durationTicks": 0,
          "midi": 31,
          "name": "G1",
          "ticks": 117451,
          "time": 152.93098958333334,
          "velocity": 0.3700787401574803
        },
        {
          "duration": 0,
          "durationTicks": 0,
          "midi": 91,
          "name": "G6",
          "ticks": 117451,
          "time": 152.93098958333334,
          "velocity": 0.06299212598425197
        },
        {
          "duration": 0.125,
          "durationTicks": 96,
          "midi": 58,
          "name": "A#3",
          "ticks": 117469,
          "time": 152.95442708333334,
          "velocity": 0.25196850393700787
        },
        {
          "duration": 0.125,
          "durationTicks": 96,
          "midi": 31,
          "name": "G1",
          "ticks": 117486,
          "time": 152.9765625,
          "velocity": 0.3543307086614173
        },
        {
          "duration": 0.1263020833333428,
          "durationTicks": 97,
          "midi": 50,
          "name": "D3",
          "ticks": 117531,
          "time": 153.03515625,
          "velocity": 0.08661417322834646
        },
        {
          "duration": 0,
          "durationTicks": 0,
          "midi": 64,
          "name": "E4",
          "ticks": 117540,
          "time": 153.046875,
          "velocity": 0.25984251968503935
        },
        {
          "duration": 0,
          "durationTicks": 0,
          "midi": 60,
          "name": "C4",
          "ticks": 117558,
          "time": 153.0703125,
          "velocity": 0.2204724409448819
        },
        {
          "duration": 0.1263020833333428,
          "durationTicks": 97,
          "midi": 65,
          "name": "F4",
          "ticks": 117558,
          "time": 153.0703125,
          "velocity": 0.25984251968503935
        },
        {
          "duration": 0.1263020833333428,
          "durationTicks": 97,
          "midi": 84,
          "name": "C6",
          "ticks": 117567,
          "time": 153.08203125,
          "velocity": 0.06299212598425197
        },
        {
          "duration": 0,
          "durationTicks": 0,
          "midi": 60,
          "name": "C4",
          "ticks": 117594,
          "time": 153.1171875,
          "velocity": 0.18110236220472442
        },
        {
          "duration": 0,
          "durationTicks": 0,
          "midi": 87,
          "name": "D#6",
          "ticks": 117621,
          "time": 153.15234375,
          "velocity": 0.13385826771653545
        },
        {
          "duration": 0.1263020833333428,
          "durationTicks": 97,
          "midi": 63,
          "name": "D#4",
          "ticks": 117630,
          "time": 153.1640625,
          "velocity": 0.25196850393700787
        },
        {
          "duration": 0.1276041666666572,
          "durationTicks": 98,
          "midi": 67,
          "name": "G4",
          "ticks": 117666,
          "time": 153.2109375,
          "velocity": 0.2283464566929134
        },
        {
          "duration": 0.12890625,
          "durationTicks": 99,
          "midi": 87,
          "name": "D#6",
          "ticks": 117720,
          "time": 153.28125,
          "velocity": 0.11023622047244094
        },
        {
          "duration": 0.12890625,
          "durationTicks": 99,
          "midi": 71,
          "name": "B4",
          "ticks": 117720,
          "time": 153.28125,
          "velocity": 0.11811023622047244
        },
        {
          "duration": 0.2552083333333428,
          "durationTicks": 196,
          "midi": 82,
          "name": "A#5",
          "ticks": 117720,
          "time": 153.28125,
          "velocity": 0.07874015748031496
        },
        {
          "duration": 0,
          "durationTicks": 0,
          "midi": 45,
          "name": "A2",
          "ticks": 117729,
          "time": 153.29296875,
          "velocity": 0.3858267716535433
        },
        {
          "duration": 0,
          "durationTicks": 0,
          "midi": 59,
          "name": "B3",
          "ticks": 117729,
          "time": 153.29296875,
          "velocity": 0.28346456692913385
        },
        {
          "duration": 0.12890625,
          "durationTicks": 99,
          "midi": 78,
          "name": "F#5",
          "ticks": 117739,
          "time": 153.30598958333334,
          "velocity": 0.08661417322834646
        },
        {
          "duration": 0.12890625,
          "durationTicks": 99,
          "midi": 44,
          "name": "G#2",
          "ticks": 117748,
          "time": 153.31770833333334,
          "velocity": 0.36220472440944884
        },
        {
          "duration": 0,
          "durationTicks": 0,
          "midi": 31,
          "name": "G1",
          "ticks": 117757,
          "time": 153.32942708333334,
          "velocity": 0.2677165354330709
        },
        {
          "duration": 0,
          "durationTicks": 0,
          "midi": 79,
          "name": "G5",
          "ticks": 117776,
          "time": 153.35416666666666,
          "velocity": 0.05511811023622047
        },
        {
          "duration": 0,
          "durationTicks": 0,
          "midi": 30,
          "name": "F#1",
          "ticks": 117785,
          "time": 153.36588541666666,
          "velocity": 0.18110236220472442
        },
        {
          "duration": 0,
          "durationTicks": 0,
          "midi": 58,
          "name": "A#3",
          "ticks": 117785,
          "time": 153.36588541666666,
          "velocity": 0.2992125984251969
        },
        {
          "duration": 0,
          "durationTicks": 0,
          "midi": 58,
          "name": "A#3",
          "ticks": 117812,
          "time": 153.40104166666666,
          "velocity": 0.31496062992125984
        },
        {
          "duration": 0.2513020833333428,
          "durationTicks": 193,
          "midi": 67,
          "name": "G4",
          "ticks": 117821,
          "time": 153.41276041666666,
          "velocity": 0.1732283464566929
        },
        {
          "duration": 0.2513020833333428,
          "durationTicks": 193,
          "midi": 77,
          "name": "F5",
          "ticks": 117831,
          "time": 153.42578125,
          "velocity": 0.08661417322834646
        },
        {
          "duration": 0,
          "durationTicks": 0,
          "midi": 58,
          "name": "A#3",
          "ticks": 117849,
          "time": 153.44921875,
          "velocity": 0.30708661417322836
        },
        {
          "duration": 0,
          "durationTicks": 0,
          "midi": 56,
          "name": "G#3",
          "ticks": 117867,
          "time": 153.47265625,
          "velocity": 0.2992125984251969
        },
        {
          "duration": 0.125,
          "durationTicks": 96,
          "midi": 58,
          "name": "A#3",
          "ticks": 117884,
          "time": 153.49479166666666,
          "velocity": 0.31496062992125984
        },
        {
          "duration": 0.2513020833333428,
          "durationTicks": 193,
          "midi": 63,
          "name": "D#4",
          "ticks": 117902,
          "time": 153.51822916666666,
          "velocity": 0.2047244094488189
        },
        {
          "duration": 0.125,
          "durationTicks": 96,
          "midi": 44,
          "name": "G#2",
          "ticks": 117911,
          "time": 153.52994791666666,
          "velocity": 0.36220472440944884
        },
        {
          "duration": 0.1263020833333428,
          "durationTicks": 97,
          "midi": 56,
          "name": "G#3",
          "ticks": 118010,
          "time": 153.65885416666666,
          "velocity": 0.31496062992125984
        },
        {
          "duration": 0,
          "durationTicks": 0,
          "midi": 31,
          "name": "G1",
          "ticks": 118019,
          "time": 153.67057291666666,
          "velocity": 0.3543307086614173
        },
        {
          "duration": 0,
          "durationTicks": 0,
          "midi": 32,
          "name": "G#1",
          "ticks": 118037,
          "time": 153.69401041666666,
          "velocity": 0.31496062992125984
        },
        {
          "duration": 0,
          "durationTicks": 0,
          "midi": 60,
          "name": "C4",
          "ticks": 118037,
          "time": 153.69401041666666,
          "velocity": 0.1732283464566929
        },
        {
          "duration": 0,
          "durationTicks": 0,
          "midi": 33,
          "name": "A1",
          "ticks": 118054,
          "time": 153.71614583333334,
          "velocity": 0.31496062992125984
        },
        {
          "duration": 0,
          "durationTicks": 0,
          "midi": 57,
          "name": "A3",
          "ticks": 118090,
          "time": 153.76302083333334,
          "velocity": 0.30708661417322836
        },
        {
          "duration": 0,
          "durationTicks": 0,
          "midi": 75,
          "name": "D#5",
          "ticks": 118100,
          "time": 153.77604166666666,
          "velocity": 0.14173228346456693
        },
        {
          "duration": 0,
          "durationTicks": 0,
          "midi": 75,
          "name": "D#5",
          "ticks": 118190,
          "time": 153.89322916666666,
          "velocity": 0.1732283464566929
        },
        {
          "duration": 0,
          "durationTicks": 0,
          "midi": 80,
          "name": "G#5",
          "ticks": 118190,
          "time": 153.89322916666666,
          "velocity": 0.14173228346456693
        },
        {
          "duration": 0,
          "durationTicks": 0,
          "midi": 90,
          "name": "F#6",
          "ticks": 118199,
          "time": 153.90494791666666,
          "velocity": 0.07086614173228346
        },
        {
          "duration": 0,
          "durationTicks": 0,
          "midi": 95,
          "name": "B6",
          "ticks": 118199,
          "time": 153.90494791666666,
          "velocity": 0.07086614173228346
        },
        {
          "duration": 0,
          "durationTicks": 0,
          "midi": 86,
          "name": "D6",
          "ticks": 118199,
          "time": 153.90494791666666,
          "velocity": 0.07874015748031496
        },
        {
          "duration": 0,
          "durationTicks": 0,
          "midi": 87,
          "name": "D#6",
          "ticks": 118199,
          "time": 153.90494791666666,
          "velocity": 0.2125984251968504
        },
        {
          "duration": 0,
          "durationTicks": 0,
          "midi": 34,
          "name": "A#1",
          "ticks": 118208,
          "time": 153.91666666666666,
          "velocity": 0.4015748031496063
        },
        {
          "duration": 0.109375,
          "durationTicks": 84,
          "midi": 67,
          "name": "G4",
          "ticks": 118208,
          "time": 153.91666666666666,
          "velocity": 0.11023622047244094
        },
        {
          "duration": 0.1302083333333428,
          "durationTicks": 100,
          "midi": 65,
          "name": "F4",
          "ticks": 118208,
          "time": 153.91666666666666,
          "velocity": 0.1732283464566929
        },
        {
          "duration": 0,
          "durationTicks": 0,
          "midi": 53,
          "name": "F3",
          "ticks": 118218,
          "time": 153.9296875,
          "velocity": 0.2755905511811024
        },
        {
          "duration": 0,
          "durationTicks": 0,
          "midi": 32,
          "name": "G#1",
          "ticks": 118227,
          "time": 153.94140625,
          "velocity": 0.3464566929133858
        },
        {
          "duration": 0.12890625,
          "durationTicks": 99,
          "midi": 72,
          "name": "C5",
          "ticks": 118227,
          "time": 153.94140625,
          "velocity": 0.13385826771653545
        },
        {
          "duration": 0,
          "durationTicks": 0,
          "midi": 54,
          "name": "F#3",
          "ticks": 118236,
          "time": 153.953125,
          "velocity": 0.2677165354330709
        },
        {
          "duration": 0,
          "durationTicks": 0,
          "midi": 33,
          "name": "A1",
          "ticks": 118246,
          "time": 153.96614583333334,
          "velocity": 0.36220472440944884
        },
        {
          "duration": 0,
          "durationTicks": 0,
          "midi": 75,
          "name": "D#5",
          "ticks": 118246,
          "time": 153.96614583333334,
          "velocity": 0.18110236220472442
        },
        {
          "duration": 0.1276041666666572,
          "durationTicks": 98,
          "midi": 60,
          "name": "C4",
          "ticks": 118246,
          "time": 153.96614583333334,
          "velocity": 0.13385826771653545
        },
        {
          "duration": 0,
          "durationTicks": 0,
          "midi": 87,
          "name": "D#6",
          "ticks": 118255,
          "time": 153.97786458333334,
          "velocity": 0.18110236220472442
        },
        {
          "duration": 0,
          "durationTicks": 0,
          "midi": 53,
          "name": "F3",
          "ticks": 118255,
          "time": 153.97786458333334,
          "velocity": 0.29133858267716534
        },
        {
          "duration": 0,
          "durationTicks": 0,
          "midi": 32,
          "name": "G#1",
          "ticks": 118264,
          "time": 153.98958333333334,
          "velocity": 0.3464566929133858
        },
        {
          "duration": 0,
          "durationTicks": 0,
          "midi": 79,
          "name": "G5",
          "ticks": 118273,
          "time": 154.00130208333334,
          "velocity": 0.1732283464566929
        },
        {
          "duration": 0.1263020833333428,
          "durationTicks": 97,
          "midi": 63,
          "name": "D#4",
          "ticks": 118283,
          "time": 154.01432291666666,
          "velocity": 0.09448818897637795
        },
        {
          "duration": 0.020833333333342807,
          "durationTicks": 16,
          "midi": 67,
          "name": "G4",
          "ticks": 118292,
          "time": 154.02604166666666,
          "velocity": 0.10236220472440945
        },
        {
          "duration": 0,
          "durationTicks": 0,
          "midi": 75,
          "name": "D#5",
          "ticks": 118292,
          "time": 154.02604166666666,
          "velocity": 0.1732283464566929
        },
        {
          "duration": 0.1263020833333428,
          "durationTicks": 97,
          "midi": 56,
          "name": "G#3",
          "ticks": 118301,
          "time": 154.03776041666666,
          "velocity": 0.11023622047244094
        },
        {
          "duration": 0,
          "durationTicks": 0,
          "midi": 51,
          "name": "D#3",
          "ticks": 118391,
          "time": 154.15494791666666,
          "velocity": 0.23622047244094488
        },
        {
          "duration": 0,
          "durationTicks": 0,
          "midi": 60,
          "name": "C4",
          "ticks": 118401,
          "time": 154.16796875,
          "velocity": 0.05511811023622047
        },
        {
          "duration": 0,
          "durationTicks": 0,
          "midi": 70,
          "name": "A#4",
          "ticks": 118410,
          "time": 154.1796875,
          "velocity": 0.06299212598425197
        },
        {
          "duration": 0,
          "durationTicks": 0,
          "midi": 54,
          "name": "F#3",
          "ticks": 118472,
          "time": 154.26041666666666,
          "velocity": 0.2440944881889764
        },
        {
          "duration": 0,
          "durationTicks": 0,
          "midi": 75,
          "name": "D#5",
          "ticks": 118481,
          "time": 154.27213541666666,
          "velocity": 0.2125984251968504
        },
        {
          "duration": 0.2526041666666572,
          "durationTicks": 194,
          "midi": 72,
          "name": "C5",
          "ticks": 118491,
          "time": 154.28515625,
          "velocity": 0.08661417322834646
        },
        {
          "duration": 0.125,
          "durationTicks": 96,
          "midi": 53,
          "name": "F3",
          "ticks": 118500,
          "time": 154.296875,
          "velocity": 0.28346456692913385
        },
        {
          "duration": 0,
          "durationTicks": 0,
          "midi": 60,
          "name": "C4",
          "ticks": 118562,
          "time": 154.37760416666666,
          "velocity": 0.14960629921259844
        },
        {
          "duration": 0,
          "durationTicks": 0,
          "midi": 47,
          "name": "B2",
          "ticks": 118598,
          "time": 154.42447916666666,
          "velocity": 0.2125984251968504
        },
        {
          "duration": 0,
          "durationTicks": 0,
          "midi": 31,
          "name": "G1",
          "ticks": 118608,
          "time": 154.4375,
          "velocity": 0.29133858267716534
        },
        {
          "duration": 0.1263020833333428,
          "durationTicks": 97,
          "midi": 53,
          "name": "F3",
          "ticks": 118617,
          "time": 154.44921875,
          "velocity": 0.29133858267716534
        },
        {
          "duration": 0.1263020833333428,
          "durationTicks": 97,
          "midi": 60,
          "name": "C4",
          "ticks": 118617,
          "time": 154.44921875,
          "velocity": 0.11023622047244094
        },
        {
          "duration": 0,
          "durationTicks": 0,
          "midi": 48,
          "name": "C3",
          "ticks": 118635,
          "time": 154.47265625,
          "velocity": 0.1889763779527559
        },
        {
          "duration": 0,
          "durationTicks": 0,
          "midi": 75,
          "name": "D#5",
          "ticks": 118671,
          "time": 154.51953125,
          "velocity": 0.14173228346456693
        },
        {
          "duration": 0,
          "durationTicks": 0,
          "midi": 48,
          "name": "C3",
          "ticks": 118680,
          "time": 154.53125,
          "velocity": 0.18110236220472442
        },
        {
          "duration": 0,
          "durationTicks": 0,
          "midi": 54,
          "name": "F#3",
          "ticks": 118726,
          "time": 154.59114583333334,
          "velocity": 0.1889763779527559
        },
        {
          "duration": 0.125,
          "durationTicks": 96,
          "midi": 53,
          "name": "F3",
          "ticks": 118753,
          "time": 154.62630208333334,
          "velocity": 0.1968503937007874
        },
        {
          "duration": 0,
          "durationTicks": 0,
          "midi": 87,
          "name": "D#6",
          "ticks": 118770,
          "time": 154.6484375,
          "velocity": 0.1732283464566929
        },
        {
          "duration": 0,
          "durationTicks": 0,
          "midi": 31,
          "name": "G1",
          "ticks": 118815,
          "time": 154.70703125,
          "velocity": 0.25984251968503935
        },
        {
          "duration": 0,
          "durationTicks": 0,
          "midi": 54,
          "name": "F#3",
          "ticks": 118842,
          "time": 154.7421875,
          "velocity": 0.11811023622047244
        },
        {
          "duration": 0,
          "durationTicks": 0,
          "midi": 31,
          "name": "G1",
          "ticks": 118868,
          "time": 154.77604166666666,
          "velocity": 0.33858267716535434
        },
        {
          "duration": 0,
          "durationTicks": 0,
          "midi": 75,
          "name": "D#5",
          "ticks": 118868,
          "time": 154.77604166666666,
          "velocity": 0.14173228346456693
        },
        {
          "duration": 0,
          "durationTicks": 0,
          "midi": 53,
          "name": "F3",
          "ticks": 118878,
          "time": 154.7890625,
          "velocity": 0.1968503937007874
        },
        {
          "duration": 0.1276041666666572,
          "durationTicks": 98,
          "midi": 32,
          "name": "G#1",
          "ticks": 118887,
          "time": 154.80078125,
          "velocity": 0.3464566929133858
        },
        {
          "duration": 0,
          "durationTicks": 0,
          "midi": 52,
          "name": "E3",
          "ticks": 118923,
          "time": 154.84765625,
          "velocity": 0.14173228346456693
        },
        {
          "duration": 0,
          "durationTicks": 0,
          "midi": 80,
          "name": "G#5",
          "ticks": 118959,
          "time": 154.89453125,
          "velocity": 0.14173228346456693
        },
        {
          "duration": 0,
          "durationTicks": 0,
          "midi": 53,
          "name": "F3",
          "ticks": 118969,
          "time": 154.90755208333334,
          "velocity": 0.29133858267716534
        },
        {
          "duration": 0,
          "durationTicks": 0,
          "midi": 44,
          "name": "G#2",
          "ticks": 118969,
          "time": 154.90755208333334,
          "velocity": 0.3779527559055118
        },
        {
          "duration": 0,
          "durationTicks": 0,
          "midi": 70,
          "name": "A#4",
          "ticks": 118969,
          "time": 154.90755208333334,
          "velocity": 0.12598425196850394
        },
        {
          "duration": 0,
          "durationTicks": 0,
          "midi": 86,
          "name": "D6",
          "ticks": 118969,
          "time": 154.90755208333334,
          "velocity": 0.08661417322834646
        },
        {
          "duration": 0,
          "durationTicks": 0,
          "midi": 87,
          "name": "D#6",
          "ticks": 118978,
          "time": 154.91927083333334,
          "velocity": 0.07874015748031496
        },
        {
          "duration": 0,
          "durationTicks": 0,
          "midi": 44,
          "name": "G#2",
          "ticks": 119005,
          "time": 154.95442708333334,
          "velocity": 0.3700787401574803
        },
        {
          "duration": 0,
          "durationTicks": 0,
          "midi": 52,
          "name": "E3",
          "ticks": 119014,
          "time": 154.96614583333334,
          "velocity": 0.29133858267716534
        },
        {
          "duration": 0,
          "durationTicks": 0,
          "midi": 44,
          "name": "G#2",
          "ticks": 119032,
          "time": 154.98958333333334,
          "velocity": 0.3779527559055118
        },
        {
          "duration": 0.125,
          "durationTicks": 96,
          "midi": 53,
          "name": "F3",
          "ticks": 119032,
          "time": 154.98958333333334,
          "velocity": 0.31496062992125984
        },
        {
          "duration": 0.125,
          "durationTicks": 96,
          "midi": 72,
          "name": "C5",
          "ticks": 119041,
          "time": 155.00130208333334,
          "velocity": 0.08661417322834646
        },
        {
          "duration": 0.12630208333331439,
          "durationTicks": 97,
          "midi": 75,
          "name": "D#5",
          "ticks": 119059,
          "time": 155.02473958333334,
          "velocity": 0.15748031496062992
        },
        {
          "duration": 0,
          "durationTicks": 0,
          "midi": 32,
          "name": "G#1",
          "ticks": 119086,
          "time": 155.05989583333334,
          "velocity": 0.33858267716535434
        },
        {
          "duration": 0,
          "durationTicks": 0,
          "midi": 51,
          "name": "D#3",
          "ticks": 119086,
          "time": 155.05989583333334,
          "velocity": 0.2283464566929134
        },
        {
          "duration": 0,
          "durationTicks": 0,
          "midi": 57,
          "name": "A3",
          "ticks": 119095,
          "time": 155.07161458333334,
          "velocity": 0.2677165354330709
        },
        {
          "duration": 0.12630208333331439,
          "durationTicks": 97,
          "midi": 68,
          "name": "G#4",
          "ticks": 119095,
          "time": 155.07161458333334,
          "velocity": 0.11023622047244094
        },
        {
          "duration": 0,
          "durationTicks": 0,
          "midi": 33,
          "name": "A1",
          "ticks": 119113,
          "time": 155.09505208333334,
          "velocity": 0.3228346456692913
        },
        {
          "duration": 0,
          "durationTicks": 0,
          "midi": 56,
          "name": "G#3",
          "ticks": 119113,
          "time": 155.09505208333334,
          "velocity": 0.2677165354330709
        },
        {
          "duration": 0,
          "durationTicks": 0,
          "midi": 32,
          "name": "G#1",
          "ticks": 119140,
          "time": 155.13020833333334,
          "velocity": 0.3543307086614173
        },
        {
          "duration": 0,
          "durationTicks": 0,
          "midi": 52,
          "name": "E3",
          "ticks": 119149,
          "time": 155.14192708333334,
          "velocity": 0.2677165354330709
        },
        {
          "duration": 0,
          "durationTicks": 0,
          "midi": 58,
          "name": "A#3",
          "ticks": 119167,
          "time": 155.16536458333334,
          "velocity": 0.1889763779527559
        },
        {
          "duration": 0,
          "durationTicks": 0,
          "midi": 53,
          "name": "F3",
          "ticks": 119185,
          "time": 155.18880208333334,
          "velocity": 0.2283464566929134
        },
        {
          "duration": 0,
          "durationTicks": 0,
          "midi": 29,
          "name": "F1",
          "ticks": 119194,
          "time": 155.20052083333334,
          "velocity": 0.36220472440944884
        },
        {
          "duration": 0,
          "durationTicks": 0,
          "midi": 52,
          "name": "E3",
          "ticks": 119204,
          "time": 155.21354166666666,
          "velocity": 0.1732283464566929
        },
        {
          "duration": 0,
          "durationTicks": 0,
          "midi": 61,
          "name": "C#4",
          "ticks": 119204,
          "time": 155.21354166666666,
          "velocity": 0.1889763779527559
        },
        {
          "duration": 0.12760416666668561,
          "durationTicks": 98,
          "midi": 80,
          "name": "G#5",
          "ticks": 119213,
          "time": 155.22526041666666,
          "velocity": 0.11023622047244094
        },
        {
          "duration": 0.12760416666668561,
          "durationTicks": 98,
          "midi": 79,
          "name": "G5",
          "ticks": 119222,
          "time": 155.23697916666666,
          "velocity": 0.10236220472440945
        },
        {
          "duration": 0,
          "durationTicks": 0,
          "midi": 27,
          "name": "D#1",
          "ticks": 119232,
          "time": 155.25,
          "velocity": 0.3543307086614173
        },
        {
          "duration": 0.1276041666666572,
          "durationTicks": 98,
          "midi": 72,
          "name": "C5",
          "ticks": 119232,
          "time": 155.25,
          "velocity": 0.2047244094488189
        },
        {
          "duration": 0,
          "durationTicks": 0,
          "midi": 56,
          "name": "G#3",
          "ticks": 119241,
          "time": 155.26171875,
          "velocity": 0.25196850393700787
        },
        {
          "duration": 0,
          "durationTicks": 0,
          "midi": 61,
          "name": "C#4",
          "ticks": 119241,
          "time": 155.26171875,
          "velocity": 0.2992125984251969
        },
        {
          "duration": 0,
          "durationTicks": 0,
          "midi": 26,
          "name": "D1",
          "ticks": 119250,
          "time": 155.2734375,
          "velocity": 0.3464566929133858
        },
        {
          "duration": 0,
          "durationTicks": 0,
          "midi": 65,
          "name": "F4",
          "ticks": 119250,
          "time": 155.2734375,
          "velocity": 0.25984251968503935
        },
        {
          "duration": 0.1263020833333428,
          "durationTicks": 97,
          "midi": 75,
          "name": "D#5",
          "ticks": 119250,
          "time": 155.2734375,
          "velocity": 0.14960629921259844
        },
        {
          "duration": 0,
          "durationTicks": 0,
          "midi": 60,
          "name": "C4",
          "ticks": 119268,
          "time": 155.296875,
          "velocity": 0.29133858267716534
        },
        {
          "duration": 0,
          "durationTicks": 0,
          "midi": 35,
          "name": "B1",
          "ticks": 119285,
          "time": 155.31901041666666,
          "velocity": 0.3464566929133858
        },
        {
          "duration": 0,
          "durationTicks": 0,
          "midi": 43,
          "name": "G2",
          "ticks": 119285,
          "time": 155.31901041666666,
          "velocity": 0.10236220472440945
        },
        {
          "duration": 0.12760416666668561,
          "durationTicks": 98,
          "midi": 82,
          "name": "A#5",
          "ticks": 119285,
          "time": 155.31901041666666,
          "velocity": 0.08661417322834646
        },
        {
          "duration": 0,
          "durationTicks": 0,
          "midi": 63,
          "name": "D#4",
          "ticks": 119295,
          "time": 155.33203125,
          "velocity": 0.2755905511811024
        },
        {
          "duration": 0,
          "durationTicks": 0,
          "midi": 58,
          "name": "A#3",
          "ticks": 119304,
          "time": 155.34375,
          "velocity": 0.2283464566929134
        },
        {
          "duration": 0.12630208333331439,
          "durationTicks": 97,
          "midi": 65,
          "name": "F4",
          "ticks": 119332,
          "time": 155.38020833333334,
          "velocity": 0.28346456692913385
        },
        {
          "duration": 0,
          "durationTicks": 0,
          "midi": 44,
          "name": "G#2",
          "ticks": 119349,
          "time": 155.40234375,
          "velocity": 0.2440944881889764
        },
        {
          "duration": 0,
          "durationTicks": 0,
          "midi": 87,
          "name": "D#6",
          "ticks": 119349,
          "time": 155.40234375,
          "velocity": 0.05511811023622047
        },
        {
          "duration": 0.1276041666666572,
          "durationTicks": 98,
          "midi": 68,
          "name": "G#4",
          "ticks": 119349,
          "time": 155.40234375,
          "velocity": 0.2440944881889764
        },
        {
          "duration": 0.1276041666666572,
          "durationTicks": 98,
          "midi": 84,
          "name": "C6",
          "ticks": 119349,
          "time": 155.40234375,
          "velocity": 0.09448818897637795
        },
        {
          "duration": 0,
          "durationTicks": 0,
          "midi": 61,
          "name": "C#4",
          "ticks": 119386,
          "time": 155.45052083333334,
          "velocity": 0.1968503937007874
        },
        {
          "duration": 0,
          "durationTicks": 0,
          "midi": 34,
          "name": "A#1",
          "ticks": 119386,
          "time": 155.45052083333334,
          "velocity": 0.3779527559055118
        },
        {
          "duration": 0,
          "durationTicks": 0,
          "midi": 53,
          "name": "F3",
          "ticks": 119395,
          "time": 155.46223958333334,
          "velocity": 0.1968503937007874
        },
        {
          "duration": 0.1276041666666572,
          "durationTicks": 98,
          "midi": 79,
          "name": "G5",
          "ticks": 119413,
          "time": 155.48567708333334,
          "velocity": 0.12598425196850394
        },
        {
          "duration": 0,
          "durationTicks": 0,
          "midi": 60,
          "name": "C4",
          "ticks": 119422,
          "time": 155.49739583333334,
          "velocity": 0.31496062992125984
        },
        {
          "duration": 0,
          "durationTicks": 0,
          "midi": 35,
          "name": "B1",
          "ticks": 119431,
          "time": 155.50911458333334,
          "velocity": 0.3464566929133858
        },
        {
          "duration": 0.12630208333331439,
          "durationTicks": 97,
          "midi": 75,
          "name": "D#5",
          "ticks": 119440,
          "time": 155.52083333333334,
          "velocity": 0.14960629921259844
        },
        {
          "duration": 0,
          "durationTicks": 0,
          "midi": 55,
          "name": "G3",
          "ticks": 119450,
          "time": 155.53385416666666,
          "velocity": 0.2047244094488189
        },
        {
          "duration": 0.1263020833333428,
          "durationTicks": 97,
          "midi": 34,
          "name": "A#1",
          "ticks": 119450,
          "time": 155.53385416666666,
          "velocity": 0.3543307086614173
        },
        {
          "duration": 0,
          "durationTicks": 0,
          "midi": 60,
          "name": "C4",
          "ticks": 119459,
          "time": 155.54557291666666,
          "velocity": 0.30708661417322836
        },
        {
          "duration": 0.1263020833333428,
          "durationTicks": 97,
          "midi": 82,
          "name": "A#5",
          "ticks": 119477,
          "time": 155.56901041666666,
          "velocity": 0.12598425196850394
        },
        {
          "duration": 0.1263020833333428,
          "durationTicks": 97,
          "midi": 68,
          "name": "G#4",
          "ticks": 119477,
          "time": 155.56901041666666,
          "velocity": 0.12598425196850394
        },
        {
          "duration": 0.1263020833333428,
          "durationTicks": 97,
          "midi": 53,
          "name": "F3",
          "ticks": 119486,
          "time": 155.58072916666666,
          "velocity": 0.08661417322834646
        },
        {
          "duration": 0.1263020833333428,
          "durationTicks": 97,
          "midi": 63,
          "name": "D#4",
          "ticks": 119486,
          "time": 155.58072916666666,
          "velocity": 0.30708661417322836
        },
        {
          "duration": 0.1263020833333428,
          "durationTicks": 97,
          "midi": 58,
          "name": "A#3",
          "ticks": 119486,
          "time": 155.58072916666666,
          "velocity": 0.1889763779527559
        },
        {
          "duration": 0,
          "durationTicks": 0,
          "midi": 35,
          "name": "B1",
          "ticks": 119531,
          "time": 155.63932291666666,
          "velocity": 0.31496062992125984
        },
        {
          "duration": 0.1263020833333428,
          "durationTicks": 97,
          "midi": 65,
          "name": "F4",
          "ticks": 119540,
          "time": 155.65104166666666,
          "velocity": 0.31496062992125984
        },
        {
          "duration": 0.1263020833333428,
          "durationTicks": 97,
          "midi": 84,
          "name": "C6",
          "ticks": 119540,
          "time": 155.65104166666666,
          "velocity": 0.13385826771653545
        },
        {
          "duration": 0,
          "durationTicks": 0,
          "midi": 60,
          "name": "C4",
          "ticks": 119558,
          "time": 155.67447916666666,
          "velocity": 0.1732283464566929
        },
        {
          "duration": 0,
          "durationTicks": 0,
          "midi": 64,
          "name": "E4",
          "ticks": 119603,
          "time": 155.73307291666666,
          "velocity": 0.2204724409448819
        },
        {
          "duration": 0.1263020833333428,
          "durationTicks": 97,
          "midi": 87,
          "name": "D#6",
          "ticks": 119603,
          "time": 155.73307291666666,
          "velocity": 0.10236220472440945
        },
        {
          "duration": 0.1263020833333428,
          "durationTicks": 97,
          "midi": 68,
          "name": "G#4",
          "ticks": 119603,
          "time": 155.73307291666666,
          "velocity": 0.23622047244094488
        },
        {
          "duration": 0.1263020833333428,
          "durationTicks": 97,
          "midi": 63,
          "name": "D#4",
          "ticks": 119612,
          "time": 155.74479166666666,
          "velocity": 0.1732283464566929
        },
        {
          "duration": 0.12890625,
          "durationTicks": 99,
          "midi": 70,
          "name": "A#4",
          "ticks": 119666,
          "time": 155.81510416666666,
          "velocity": 0.2755905511811024
        },
        {
          "duration": 0.12890625,
          "durationTicks": 99,
          "midi": 65,
          "name": "F4",
          "ticks": 119666,
          "time": 155.81510416666666,
          "velocity": 0.2440944881889764
        },
        {
          "duration": 0.12890625,
          "durationTicks": 99,
          "midi": 89,
          "name": "F6",
          "ticks": 119675,
          "time": 155.82682291666666,
          "velocity": 0.08661417322834646
        },
        {
          "duration": 0,
          "durationTicks": 0,
          "midi": 58,
          "name": "A#3",
          "ticks": 119685,
          "time": 155.83984375,
          "velocity": 0.09448818897637795
        },
        {
          "duration": 0.1302083333333428,
          "durationTicks": 100,
          "midi": 84,
          "name": "C6",
          "ticks": 119721,
          "time": 155.88671875,
          "velocity": 0.1968503937007874
        },
        {
          "duration": 0,
          "durationTicks": 0,
          "midi": 86,
          "name": "D6",
          "ticks": 119730,
          "time": 155.8984375,
          "velocity": 0.08661417322834646
        },
        {
          "duration": 0.1302083333333428,
          "durationTicks": 100,
          "midi": 72,
          "name": "C5",
          "ticks": 119730,
          "time": 155.8984375,
          "velocity": 0.2992125984251969
        },
        {
          "duration": 0.1302083333333428,
          "durationTicks": 100,
          "midi": 87,
          "name": "D#6",
          "ticks": 119730,
          "time": 155.8984375,
          "velocity": 0.14960629921259844
        },
        {
          "duration": 0.1302083333333428,
          "durationTicks": 100,
          "midi": 80,
          "name": "G#5",
          "ticks": 119730,
          "time": 155.8984375,
          "velocity": 0.1732283464566929
        },
        {
          "duration": 0,
          "durationTicks": 0,
          "midi": 37,
          "name": "C#2",
          "ticks": 119739,
          "time": 155.91015625,
          "velocity": 0.2677165354330709
        },
        {
          "duration": 0.1302083333333428,
          "durationTicks": 100,
          "midi": 91,
          "name": "G6",
          "ticks": 119739,
          "time": 155.91015625,
          "velocity": 0.14173228346456693
        },
        {
          "duration": 0,
          "durationTicks": 0,
          "midi": 57,
          "name": "A3",
          "ticks": 119749,
          "time": 155.92317708333334,
          "velocity": 0.30708661417322836
        },
        {
          "duration": 0,
          "durationTicks": 0,
          "midi": 68,
          "name": "G#4",
          "ticks": 119758,
          "time": 155.93489583333334,
          "velocity": 0.2125984251968504
        },
        {
          "duration": 0,
          "durationTicks": 0,
          "midi": 61,
          "name": "C#4",
          "ticks": 119758,
          "time": 155.93489583333334,
          "velocity": 0.14173228346456693
        },
        {
          "duration": 0,
          "durationTicks": 0,
          "midi": 69,
          "name": "A4",
          "ticks": 119786,
          "time": 155.97135416666666,
          "velocity": 0.29133858267716534
        },
        {
          "duration": 0,
          "durationTicks": 0,
          "midi": 77,
          "name": "F5",
          "ticks": 119795,
          "time": 155.98307291666666,
          "velocity": 0.14960629921259844
        },
        {
          "duration": 0,
          "durationTicks": 0,
          "midi": 73,
          "name": "C#5",
          "ticks": 119805,
          "time": 155.99609375,
          "velocity": 0.1889763779527559
        },
        {
          "duration": 0,
          "durationTicks": 0,
          "midi": 57,
          "name": "A3",
          "ticks": 119814,
          "time": 156.0078125,
          "velocity": 0.11811023622047244
        },
        {
          "duration": 0,
          "durationTicks": 0,
          "midi": 63,
          "name": "D#4",
          "ticks": 119814,
          "time": 156.0078125,
          "velocity": 0.1889763779527559
        },
        {
          "duration": 0.1276041666666572,
          "durationTicks": 98,
          "midi": 68,
          "name": "G#4",
          "ticks": 119814,
          "time": 156.0078125,
          "velocity": 0.2992125984251969
        },
        {
          "duration": 0,
          "durationTicks": 0,
          "midi": 71,
          "name": "B4",
          "ticks": 119851,
          "time": 156.05598958333334,
          "velocity": 0.2283464566929134
        },
        {
          "duration": 0.12630208333331439,
          "durationTicks": 97,
          "midi": 65,
          "name": "F4",
          "ticks": 119860,
          "time": 156.06770833333334,
          "velocity": 0.1732283464566929
        },
        {
          "duration": 0.12630208333331439,
          "durationTicks": 97,
          "midi": 82,
          "name": "A#5",
          "ticks": 119860,
          "time": 156.06770833333334,
          "velocity": 0.15748031496062992
        },
        {
          "duration": 0.12630208333331439,
          "durationTicks": 97,
          "midi": 89,
          "name": "F6",
          "ticks": 119860,
          "time": 156.06770833333334,
          "velocity": 0.11023622047244094
        },
        {
          "duration": 0.1263020833333428,
          "durationTicks": 97,
          "midi": 70,
          "name": "A#4",
          "ticks": 119870,
          "time": 156.08072916666666,
          "velocity": 0.31496062992125984
        },
        {
          "duration": 0,
          "durationTicks": 0,
          "midi": 58,
          "name": "A#3",
          "ticks": 119924,
          "time": 156.15104166666666,
          "velocity": 0.05511811023622047
        },
        {
          "duration": 0,
          "durationTicks": 0,
          "midi": 63,
          "name": "D#4",
          "ticks": 119924,
          "time": 156.15104166666666,
          "velocity": 0.1889763779527559
        },
        {
          "duration": 0.12760416666668561,
          "durationTicks": 98,
          "midi": 72,
          "name": "C5",
          "ticks": 119924,
          "time": 156.15104166666666,
          "velocity": 0.30708661417322836
        },
        {
          "duration": 0.12760416666668561,
          "durationTicks": 98,
          "midi": 44,
          "name": "G#2",
          "ticks": 119924,
          "time": 156.15104166666666,
          "velocity": 0.36220472440944884
        },
        {
          "duration": 0.12760416666668561,
          "durationTicks": 98,
          "midi": 91,
          "name": "G6",
          "ticks": 119933,
          "time": 156.16276041666666,
          "velocity": 0.10236220472440945
        },
        {
          "duration": 0.10677083333334281,
          "durationTicks": 82,
          "midi": 68,
          "name": "G#4",
          "ticks": 119942,
          "time": 156.17447916666666,
          "velocity": 0.16535433070866143
        },
        {
          "duration": 0,
          "durationTicks": 0,
          "midi": 63,
          "name": "D#4",
          "ticks": 119978,
          "time": 156.22135416666666,
          "velocity": 0.08661417322834646
        },
        {
          "duration": 0.1276041666666572,
          "durationTicks": 98,
          "midi": 75,
          "name": "D#5",
          "ticks": 119988,
          "time": 156.234375,
          "velocity": 0.2677165354330709
        },
        {
          "duration": 0.09505208333334281,
          "durationTicks": 73,
          "midi": 70,
          "name": "A#4",
          "ticks": 119997,
          "time": 156.24609375,
          "velocity": 0.18110236220472442
        },
        {
          "duration": 0.1276041666666572,
          "durationTicks": 98,
          "midi": 94,
          "name": "A#6",
          "ticks": 119997,
          "time": 156.24609375,
          "velocity": 0.11023622047244094
        },
        {
          "duration": 0.020833333333342807,
          "durationTicks": 16,
          "midi": 68,
          "name": "G#4",
          "ticks": 120024,
          "time": 156.28125,
          "velocity": 0.15748031496062992
        },
        {
          "duration": 0,
          "durationTicks": 0,
          "midi": 78,
          "name": "F#5",
          "ticks": 120042,
          "time": 156.3046875,
          "velocity": 0.1889763779527559
        },
        {
          "duration": 0,
          "durationTicks": 0,
          "midi": 73,
          "name": "C#5",
          "ticks": 120052,
          "time": 156.31770833333334,
          "velocity": 0.2047244094488189
        },
        {
          "duration": 0.12890625,
          "durationTicks": 99,
          "midi": 61,
          "name": "C#4",
          "ticks": 120052,
          "time": 156.31770833333334,
          "velocity": 0.05511811023622047
        },
        {
          "duration": 0.12890625,
          "durationTicks": 99,
          "midi": 89,
          "name": "F6",
          "ticks": 120052,
          "time": 156.31770833333334,
          "velocity": 0.13385826771653545
        },
        {
          "duration": 0.12890625,
          "durationTicks": 99,
          "midi": 84,
          "name": "C6",
          "ticks": 120061,
          "time": 156.32942708333334,
          "velocity": 0.09448818897637795
        },
        {
          "duration": 0.12890625,
          "durationTicks": 99,
          "midi": 77,
          "name": "F5",
          "ticks": 120061,
          "time": 156.32942708333334,
          "velocity": 0.2755905511811024
        },
        {
          "duration": 0.032552083333314386,
          "durationTicks": 25,
          "midi": 70,
          "name": "A#4",
          "ticks": 120070,
          "time": 156.34114583333334,
          "velocity": 0.08661417322834646
        },
        {
          "duration": 0,
          "durationTicks": 0,
          "midi": 72,
          "name": "C5",
          "ticks": 120070,
          "time": 156.34114583333334,
          "velocity": 0.1889763779527559
        },
        {
          "duration": 0,
          "durationTicks": 0,
          "midi": 65,
          "name": "F4",
          "ticks": 120107,
          "time": 156.38932291666666,
          "velocity": 0.12598425196850394
        },
        {
          "duration": 0.12890625,
          "durationTicks": 99,
          "midi": 75,
          "name": "D#5",
          "ticks": 120116,
          "time": 156.40104166666666,
          "velocity": 0.1732283464566929
        },
        {
          "duration": 0.12890625,
          "durationTicks": 99,
          "midi": 80,
          "name": "G#5",
          "ticks": 120116,
          "time": 156.40104166666666,
          "velocity": 0.28346456692913385
        },
        {
          "duration": 0,
          "durationTicks": 0,
          "midi": 47,
          "name": "B2",
          "ticks": 120125,
          "time": 156.41276041666666,
          "velocity": 0.33858267716535434
        },
        {
          "duration": 0.12760416666668561,
          "durationTicks": 98,
          "midi": 72,
          "name": "C5",
          "ticks": 120134,
          "time": 156.42447916666666,
          "velocity": 0.11023622047244094
        },
        {
          "duration": 0.12760416666668561,
          "durationTicks": 98,
          "midi": 87,
          "name": "D#6",
          "ticks": 120134,
          "time": 156.42447916666666,
          "velocity": 0.07086614173228346
        },
        {
          "duration": 0,
          "durationTicks": 0,
          "midi": 46,
          "name": "A#2",
          "ticks": 120144,
          "time": 156.4375,
          "velocity": 0.3464566929133858
        },
        {
          "duration": 0,
          "durationTicks": 0,
          "midi": 31,
          "name": "G1",
          "ticks": 120144,
          "time": 156.4375,
          "velocity": 0.29133858267716534
        },
        {
          "duration": 0.1276041666666572,
          "durationTicks": 98,
          "midi": 65,
          "name": "F4",
          "ticks": 120144,
          "time": 156.4375,
          "velocity": 0.16535433070866143
        },
        {
          "duration": 0,
          "durationTicks": 0,
          "midi": 46,
          "name": "A#2",
          "ticks": 120172,
          "time": 156.47395833333334,
          "velocity": 0.33070866141732286
        },
        {
          "duration": 0.12630208333331439,
          "durationTicks": 97,
          "midi": 70,
          "name": "A#4",
          "ticks": 120181,
          "time": 156.48567708333334,
          "velocity": 0.1889763779527559
        },
        {
          "duration": 0.12630208333331439,
          "durationTicks": 97,
          "midi": 94,
          "name": "A#6",
          "ticks": 120181,
          "time": 156.48567708333334,
          "velocity": 0.14173228346456693
        },
        {
          "duration": 0.12630208333331439,
          "durationTicks": 97,
          "midi": 75,
          "name": "D#5",
          "ticks": 120190,
          "time": 156.49739583333334,
          "velocity": 0.29133858267716534
        },
        {
          "duration": 0.12630208333331439,
          "durationTicks": 97,
          "midi": 77,
          "name": "F5",
          "ticks": 120244,
          "time": 156.56770833333334,
          "velocity": 0.30708661417322836
        },
        {
          "duration": 0.12630208333331439,
          "durationTicks": 97,
          "midi": 72,
          "name": "C5",
          "ticks": 120253,
          "time": 156.57942708333334,
          "velocity": 0.15748031496062992
        },
        {
          "duration": 0.12630208333331439,
          "durationTicks": 97,
          "midi": 84,
          "name": "C6",
          "ticks": 120253,
          "time": 156.57942708333334,
          "velocity": 0.10236220472440945
        },
        {
          "duration": 0.12630208333331439,
          "durationTicks": 97,
          "midi": 75,
          "name": "D#5",
          "ticks": 120307,
          "time": 156.64973958333334,
          "velocity": 0.18110236220472442
        },
        {
          "duration": 0.12630208333331439,
          "durationTicks": 97,
          "midi": 80,
          "name": "G#5",
          "ticks": 120307,
          "time": 156.64973958333334,
          "velocity": 0.30708661417322836
        },
        {
          "duration": 0.12630208333331439,
          "durationTicks": 97,
          "midi": 82,
          "name": "A#5",
          "ticks": 120370,
          "time": 156.73177083333334,
          "velocity": 0.2677165354330709
        },
        {
          "duration": 0.25390625,
          "durationTicks": 195,
          "midi": 77,
          "name": "F5",
          "ticks": 120370,
          "time": 156.73177083333334,
          "velocity": 0.1732283464566929
        },
        {
          "duration": 0.1263020833333428,
          "durationTicks": 97,
          "midi": 89,
          "name": "F6",
          "ticks": 120380,
          "time": 156.74479166666666,
          "velocity": 0.08661417322834646
        },
        {
          "duration": 0.1263020833333428,
          "durationTicks": 97,
          "midi": 75,
          "name": "D#5",
          "ticks": 120389,
          "time": 156.75651041666666,
          "velocity": 0.14173228346456693
        },
        {
          "duration": 0.1263020833333428,
          "durationTicks": 97,
          "midi": 65,
          "name": "F4",
          "ticks": 120389,
          "time": 156.75651041666666,
          "velocity": 0.07874015748031496
        },
        {
          "duration": 0.1276041666666572,
          "durationTicks": 98,
          "midi": 84,
          "name": "C6",
          "ticks": 120433,
          "time": 156.81380208333334,
          "velocity": 0.13385826771653545
        },
        {
          "duration": 0.12760416666668561,
          "durationTicks": 98,
          "midi": 84,
          "name": "C6",
          "ticks": 120443,
          "time": 156.82682291666666,
          "velocity": 0.2677165354330709
        },
        {
          "duration": 0.2526041666666856,
          "durationTicks": 194,
          "midi": 80,
          "name": "G#5",
          "ticks": 120443,
          "time": 156.82682291666666,
          "velocity": 0.2677165354330709
        },
        {
          "duration": 0,
          "durationTicks": 0,
          "midi": 72,
          "name": "C5",
          "ticks": 120498,
          "time": 156.8984375,
          "velocity": 0.13385826771653545
        },
        {
          "duration": 0.125,
          "durationTicks": 96,
          "midi": 87,
          "name": "D#6",
          "ticks": 120498,
          "time": 156.8984375,
          "velocity": 0.2755905511811024
        },
        {
          "duration": 0.125,
          "durationTicks": 96,
          "midi": 82,
          "name": "A#5",
          "ticks": 120498,
          "time": 156.8984375,
          "velocity": 0.1968503937007874
        },
        {
          "duration": 0,
          "durationTicks": 0,
          "midi": 56,
          "name": "G#3",
          "ticks": 120507,
          "time": 156.91015625,
          "velocity": 0.30708661417322836
        },
        {
          "duration": 0,
          "durationTicks": 0,
          "midi": 90,
          "name": "F#6",
          "ticks": 120507,
          "time": 156.91015625,
          "velocity": 0.06299212598425197
        },
        {
          "duration": 0,
          "durationTicks": 0,
          "midi": 95,
          "name": "B6",
          "ticks": 120507,
          "time": 156.91015625,
          "velocity": 0.07874015748031496
        },
        {
          "duration": 0,
          "durationTicks": 0,
          "midi": 86,
          "name": "D6",
          "ticks": 120507,
          "time": 156.91015625,
          "velocity": 0.06299212598425197
        },
        {
          "duration": 0,
          "durationTicks": 0,
          "midi": 91,
          "name": "G6",
          "ticks": 120507,
          "time": 156.91015625,
          "velocity": 0.06299212598425197
        },
        {
          "duration": 0,
          "durationTicks": 0,
          "midi": 37,
          "name": "C#2",
          "ticks": 120516,
          "time": 156.921875,
          "velocity": 0.2677165354330709
        },
        {
          "duration": 0,
          "durationTicks": 0,
          "midi": 70,
          "name": "A#4",
          "ticks": 120516,
          "time": 156.921875,
          "velocity": 0.05511811023622047
        },
        {
          "duration": 0,
          "durationTicks": 0,
          "midi": 63,
          "name": "D#4",
          "ticks": 120516,
          "time": 156.921875,
          "velocity": 0.18110236220472442
        },
        {
          "duration": 0,
          "durationTicks": 0,
          "midi": 56,
          "name": "G#3",
          "ticks": 120534,
          "time": 156.9453125,
          "velocity": 0.2047244094488189
        },
        {
          "duration": 0,
          "durationTicks": 0,
          "midi": 38,
          "name": "D2",
          "ticks": 120534,
          "time": 156.9453125,
          "velocity": 0.1968503937007874
        },
        {
          "duration": 0,
          "durationTicks": 0,
          "midi": 75,
          "name": "D#5",
          "ticks": 120561,
          "time": 156.98046875,
          "velocity": 0.16535433070866143
        },
        {
          "duration": 0,
          "durationTicks": 0,
          "midi": 57,
          "name": "A3",
          "ticks": 120578,
          "time": 157.00260416666666,
          "velocity": 0.11023622047244094
        },
        {
          "duration": 0,
          "durationTicks": 0,
          "midi": 73,
          "name": "C#5",
          "ticks": 120596,
          "time": 157.02604166666666,
          "velocity": 0.1732283464566929
        },
        {
          "duration": 0.12890625,
          "durationTicks": 99,
          "midi": 84,
          "name": "C6",
          "ticks": 120613,
          "time": 157.04817708333334,
          "velocity": 0.1889763779527559
        },
        {
          "duration": 0,
          "durationTicks": 0,
          "midi": 76,
          "name": "E5",
          "ticks": 120623,
          "time": 157.06119791666666,
          "velocity": 0.2283464566929134
        },
        {
          "duration": 0,
          "durationTicks": 0,
          "midi": 77,
          "name": "F5",
          "ticks": 120623,
          "time": 157.06119791666666,
          "velocity": 0.1968503937007874
        },
        {
          "duration": 0.2565104166666856,
          "durationTicks": 197,
          "midi": 87,
          "name": "D#6",
          "ticks": 120623,
          "time": 157.06119791666666,
          "velocity": 0.14173228346456693
        },
        {
          "duration": 0.12760416666668561,
          "durationTicks": 98,
          "midi": 68,
          "name": "G#4",
          "ticks": 120632,
          "time": 157.07291666666666,
          "velocity": 0.16535433070866143
        },
        {
          "duration": 0.12760416666668561,
          "durationTicks": 98,
          "midi": 75,
          "name": "D#5",
          "ticks": 120641,
          "time": 157.08463541666666,
          "velocity": 0.2677165354330709
        },
        {
          "duration": 0,
          "durationTicks": 0,
          "midi": 73,
          "name": "C#5",
          "ticks": 120651,
          "time": 157.09765625,
          "velocity": 0.1732283464566929
        },
        {
          "duration": 0.1276041666666572,
          "durationTicks": 98,
          "midi": 80,
          "name": "G#5",
          "ticks": 120687,
          "time": 157.14453125,
          "velocity": 0.2677165354330709
        },
        {
          "duration": 0.1276041666666572,
          "durationTicks": 98,
          "midi": 27,
          "name": "D#1",
          "ticks": 120696,
          "time": 157.15625,
          "velocity": 0.36220472440944884
        },
        {
          "duration": 0.1276041666666572,
          "durationTicks": 98,
          "midi": 72,
          "name": "C5",
          "ticks": 120706,
          "time": 157.16927083333334,
          "velocity": 0.15748031496062992
        },
        {
          "duration": 0.1276041666666572,
          "durationTicks": 98,
          "midi": 46,
          "name": "A#2",
          "ticks": 120715,
          "time": 157.18098958333334,
          "velocity": 0.09448818897637795
        },
        {
          "duration": 0.12890625,
          "durationTicks": 99,
          "midi": 61,
          "name": "C#4",
          "ticks": 120742,
          "time": 157.21614583333334,
          "velocity": 0.25984251968503935
        },
        {
          "duration": 0.12890625,
          "durationTicks": 99,
          "midi": 75,
          "name": "D#5",
          "ticks": 120751,
          "time": 157.22786458333334,
          "velocity": 0.2677165354330709
        },
        {
          "duration": 0.12890625,
          "durationTicks": 99,
          "midi": 68,
          "name": "G#4",
          "ticks": 120760,
          "time": 157.23958333333334,
          "velocity": 0.1889763779527559
        },
        {
          "duration": 0.12890625,
          "durationTicks": 99,
          "midi": 94,
          "name": "A#6",
          "ticks": 120770,
          "time": 157.25260416666666,
          "velocity": 0.10236220472440945
        },
        {
          "duration": 0.12890625,
          "durationTicks": 99,
          "midi": 65,
          "name": "F4",
          "ticks": 120797,
          "time": 157.28776041666666,
          "velocity": 0.25196850393700787
        },
        {
          "duration": 0,
          "durationTicks": 0,
          "midi": 29,
          "name": "F1",
          "ticks": 120806,
          "time": 157.29947916666666,
          "velocity": 0.3858267716535433
        },
        {
          "duration": 0.12890625,
          "durationTicks": 99,
          "midi": 72,
          "name": "C5",
          "ticks": 120824,
          "time": 157.32291666666666,
          "velocity": 0.28346456692913385
        },
        {
          "duration": 0,
          "durationTicks": 0,
          "midi": 69,
          "name": "A4",
          "ticks": 120834,
          "time": 157.3359375,
          "velocity": 0.1968503937007874
        },
        {
          "duration": 0.2552083333333428,
          "durationTicks": 196,
          "midi": 75,
          "name": "D#5",
          "ticks": 120843,
          "time": 157.34765625,
          "velocity": 0.30708661417322836
        },
        {
          "duration": 0,
          "durationTicks": 0,
          "midi": 28,
          "name": "E1",
          "ticks": 120852,
          "time": 157.359375,
          "velocity": 0.3700787401574803
        },
        {
          "duration": 0,
          "durationTicks": 0,
          "midi": 63,
          "name": "D#4",
          "ticks": 120852,
          "time": 157.359375,
          "velocity": 0.1732283464566929
        },
        {
          "duration": 0.1276041666666572,
          "durationTicks": 98,
          "midi": 68,
          "name": "G#4",
          "ticks": 120852,
          "time": 157.359375,
          "velocity": 0.2204724409448819
        },
        {
          "duration": 0.1276041666666572,
          "durationTicks": 98,
          "midi": 91,
          "name": "G6",
          "ticks": 120862,
          "time": 157.37239583333334,
          "velocity": 0.07086614173228346
        },
        {
          "duration": 0.1276041666666572,
          "durationTicks": 98,
          "midi": 65,
          "name": "F4",
          "ticks": 120871,
          "time": 157.38411458333334,
          "velocity": 0.2204724409448819
        },
        {
          "duration": 0.1276041666666572,
          "durationTicks": 98,
          "midi": 85,
          "name": "C#6",
          "ticks": 120889,
          "time": 157.40755208333334,
          "velocity": 0.11811023622047244
        },
        {
          "duration": 0.25390625,
          "durationTicks": 195,
          "midi": 27,
          "name": "D#1",
          "ticks": 120889,
          "time": 157.40755208333334,
          "velocity": 0.36220472440944884
        },
        {
          "duration": 0.12630208333331439,
          "durationTicks": 97,
          "midi": 73,
          "name": "C#5",
          "ticks": 120907,
          "time": 157.43098958333334,
          "velocity": 0.29133858267716534
        },
        {
          "duration": 0.12630208333331439,
          "durationTicks": 97,
          "midi": 46,
          "name": "A#2",
          "ticks": 120916,
          "time": 157.44270833333334,
          "velocity": 0.07874015748031496
        },
        {
          "duration": 0.1263020833333428,
          "durationTicks": 97,
          "midi": 61,
          "name": "C#4",
          "ticks": 120935,
          "time": 157.46744791666666,
          "velocity": 0.14173228346456693
        },
        {
          "duration": 0,
          "durationTicks": 0,
          "midi": 72,
          "name": "C5",
          "ticks": 120962,
          "time": 157.50260416666666,
          "velocity": 0.14173228346456693
        },
        {
          "duration": 0.1263020833333428,
          "durationTicks": 97,
          "midi": 94,
          "name": "A#6",
          "ticks": 120962,
          "time": 157.50260416666666,
          "velocity": 0.11023622047244094
        },
        {
          "duration": 0.1263020833333428,
          "durationTicks": 97,
          "midi": 67,
          "name": "G4",
          "ticks": 120962,
          "time": 157.50260416666666,
          "velocity": 0.1732283464566929
        },
        {
          "duration": 0.1263020833333428,
          "durationTicks": 97,
          "midi": 77,
          "name": "F5",
          "ticks": 121016,
          "time": 157.57291666666666,
          "velocity": 0.28346456692913385
        },
        {
          "duration": 0.1263020833333428,
          "durationTicks": 97,
          "midi": 65,
          "name": "F4",
          "ticks": 121025,
          "time": 157.58463541666666,
          "velocity": 0.12598425196850394
        },
        {
          "duration": 0.1263020833333428,
          "durationTicks": 97,
          "midi": 84,
          "name": "C6",
          "ticks": 121025,
          "time": 157.58463541666666,
          "velocity": 0.07086614173228346
        },
        {
          "duration": 0,
          "durationTicks": 0,
          "midi": 72,
          "name": "C5",
          "ticks": 121034,
          "time": 157.59635416666666,
          "velocity": 0.09448818897637795
        },
        {
          "duration": 0.2526041666666856,
          "durationTicks": 194,
          "midi": 68,
          "name": "G#4",
          "ticks": 121034,
          "time": 157.59635416666666,
          "velocity": 0.1732283464566929
        },
        {
          "duration": 0.1263020833333428,
          "durationTicks": 97,
          "midi": 80,
          "name": "G#5",
          "ticks": 121044,
          "time": 157.609375,
          "velocity": 0.28346456692913385
        },
        {
          "duration": 0,
          "durationTicks": 0,
          "midi": 26,
          "name": "D1",
          "ticks": 121071,
          "time": 157.64453125,
          "velocity": 0.33858267716535434
        },
        {
          "duration": 0.2526041666666856,
          "durationTicks": 194,
          "midi": 72,
          "name": "C5",
          "ticks": 121088,
          "time": 157.66666666666666,
          "velocity": 0.2204724409448819
        },
        {
          "duration": 0,
          "durationTicks": 0,
          "midi": 39,
          "name": "D#2",
          "ticks": 121106,
          "time": 157.69010416666666,
          "velocity": 0.3464566929133858
        },
        {
          "duration": 0.25390625,
          "durationTicks": 195,
          "midi": 58,
          "name": "A#3",
          "ticks": 121106,
          "time": 157.69010416666666,
          "velocity": 0.09448818897637795
        },
        {
          "duration": 0.25390625,
          "durationTicks": 195,
          "midi": 65,
          "name": "F4",
          "ticks": 121115,
          "time": 157.70182291666666,
          "velocity": 0.11811023622047244
        },
        {
          "duration": 0.1263020833333428,
          "durationTicks": 97,
          "midi": 84,
          "name": "C6",
          "ticks": 121134,
          "time": 157.7265625,
          "velocity": 0.2677165354330709
        },
        {
          "duration": 0.1263020833333428,
          "durationTicks": 97,
          "midi": 39,
          "name": "D#2",
          "ticks": 121134,
          "time": 157.7265625,
          "velocity": 0.3543307086614173
        },
        {
          "duration": 0.125,
          "durationTicks": 96,
          "midi": 75,
          "name": "D#5",
          "ticks": 121152,
          "time": 157.75,
          "velocity": 0.1968503937007874
        },
        {
          "duration": 0,
          "durationTicks": 0,
          "midi": 94,
          "name": "A#6",
          "ticks": 121170,
          "time": 157.7734375,
          "velocity": 0.07874015748031496
        },
        {
          "duration": 0.125,
          "durationTicks": 96,
          "midi": 77,
          "name": "F5",
          "ticks": 121170,
          "time": 157.7734375,
          "velocity": 0.1732283464566929
        },
        {
          "duration": 0.1263020833333428,
          "durationTicks": 97,
          "midi": 87,
          "name": "D#6",
          "ticks": 121206,
          "time": 157.8203125,
          "velocity": 0.13385826771653545
        },
        {
          "duration": 0.1263020833333428,
          "durationTicks": 97,
          "midi": 80,
          "name": "G#5",
          "ticks": 121206,
          "time": 157.8203125,
          "velocity": 0.2125984251968504
        },
        {
          "duration": 0.1263020833333428,
          "durationTicks": 97,
          "midi": 87,
          "name": "D#6",
          "ticks": 121215,
          "time": 157.83203125,
          "velocity": 0.25984251968503935
        },
        {
          "duration": 0.12760416666668561,
          "durationTicks": 98,
          "midi": 89,
          "name": "F6",
          "ticks": 121268,
          "time": 157.90104166666666,
          "velocity": 0.2677165354330709
        },
        {
          "duration": 0,
          "durationTicks": 0,
          "midi": 56,
          "name": "G#3",
          "ticks": 121278,
          "time": 157.9140625,
          "velocity": 0.2992125984251969
        },
        {
          "duration": 0,
          "durationTicks": 0,
          "midi": 86,
          "name": "D6",
          "ticks": 121278,
          "time": 157.9140625,
          "velocity": 0.09448818897637795
        },
        {
          "duration": 0.1276041666666572,
          "durationTicks": 98,
          "midi": 85,
          "name": "C#6",
          "ticks": 121278,
          "time": 157.9140625,
          "velocity": 0.1889763779527559
        },
        {
          "duration": 0.2565104166666572,
          "durationTicks": 197,
          "midi": 65,
          "name": "F4",
          "ticks": 121278,
          "time": 157.9140625,
          "velocity": 0.14173228346456693
        },
        {
          "duration": 0,
          "durationTicks": 0,
          "midi": 38,
          "name": "D2",
          "ticks": 121287,
          "time": 157.92578125,
          "velocity": 0.2677165354330709
        },
        {
          "duration": 0.1276041666666572,
          "durationTicks": 98,
          "midi": 61,
          "name": "C#4",
          "ticks": 121287,
          "time": 157.92578125,
          "velocity": 0.11811023622047244
        },
        {
          "duration": 0.2565104166666572,
          "durationTicks": 197,
          "midi": 75,
          "name": "D#5",
          "ticks": 121296,
          "time": 157.9375,
          "velocity": 0.14960629921259844
        },
        {
          "duration": 0.2565104166666572,
          "durationTicks": 197,
          "midi": 70,
          "name": "A#4",
          "ticks": 121296,
          "time": 157.9375,
          "velocity": 0.1732283464566929
        },
        {
          "duration": 0,
          "durationTicks": 0,
          "midi": 37,
          "name": "C#2",
          "ticks": 121324,
          "time": 157.97395833333334,
          "velocity": 0.14173228346456693
        },
        {
          "duration": 0.12630208333331439,
          "durationTicks": 97,
          "midi": 84,
          "name": "C6",
          "ticks": 121333,
          "time": 157.98567708333334,
          "velocity": 0.29133858267716534
        },
        {
          "duration": 0,
          "durationTicks": 0,
          "midi": 57,
          "name": "A3",
          "ticks": 121351,
          "time": 158.00911458333334,
          "velocity": 0.09448818897637795
        },
        {
          "duration": 0.2565104166666572,
          "durationTicks": 197,
          "midi": 87,
          "name": "D#6",
          "ticks": 121378,
          "time": 158.04427083333334,
          "velocity": 0.25984251968503935
        },
        {
          "duration": 0,
          "durationTicks": 0,
          "midi": 68,
          "name": "G#4",
          "ticks": 121396,
          "time": 158.06770833333334,
          "velocity": 0.08661417322834646
        },
        {
          "duration": 0.12890625,
          "durationTicks": 99,
          "midi": 80,
          "name": "G#5",
          "ticks": 121396,
          "time": 158.06770833333334,
          "velocity": 0.16535433070866143
        },
        {
          "duration": 0,
          "durationTicks": 0,
          "midi": 82,
          "name": "A#5",
          "ticks": 121423,
          "time": 158.10286458333334,
          "velocity": 0.2283464566929134
        },
        {
          "duration": 0,
          "durationTicks": 0,
          "midi": 81,
          "name": "A5",
          "ticks": 121442,
          "time": 158.12760416666666,
          "velocity": 0.2125984251968504
        },
        {
          "duration": 0,
          "durationTicks": 0,
          "midi": 72,
          "name": "C5",
          "ticks": 121442,
          "time": 158.12760416666666,
          "velocity": 0.08661417322834646
        },
        {
          "duration": 0,
          "durationTicks": 0,
          "midi": 79,
          "name": "G5",
          "ticks": 121451,
          "time": 158.13932291666666,
          "velocity": 0.2283464566929134
        },
        {
          "duration": 0.1276041666666572,
          "durationTicks": 98,
          "midi": 84,
          "name": "C6",
          "ticks": 121461,
          "time": 158.15234375,
          "velocity": 0.1732283464566929
        },
        {
          "duration": 0,
          "durationTicks": 0,
          "midi": 63,
          "name": "D#4",
          "ticks": 121470,
          "time": 158.1640625,
          "velocity": 0.1968503937007874
        },
        {
          "duration": 0.1276041666666572,
          "durationTicks": 98,
          "midi": 89,
          "name": "F6",
          "ticks": 121479,
          "time": 158.17578125,
          "velocity": 0.14960629921259844
        },
        {
          "duration": 0,
          "durationTicks": 0,
          "midi": 31,
          "name": "G1",
          "ticks": 121489,
          "time": 158.18880208333334,
          "velocity": 0.29133858267716534
        },
        {
          "duration": 0,
          "durationTicks": 0,
          "midi": 67,
          "name": "G4",
          "ticks": 121498,
          "time": 158.20052083333334,
          "velocity": 0.14173228346456693
        },
        {
          "duration": 0,
          "durationTicks": 0,
          "midi": 62,
          "name": "D4",
          "ticks": 121507,
          "time": 158.21223958333334,
          "velocity": 0.10236220472440945
        },
        {
          "duration": 0,
          "durationTicks": 0,
          "midi": 88,
          "name": "E6",
          "ticks": 121570,
          "time": 158.29427083333334,
          "velocity": 0.08661417322834646
        },
        {
          "duration": 0,
          "durationTicks": 0,
          "midi": 75,
          "name": "D#5",
          "ticks": 121570,
          "time": 158.29427083333334,
          "velocity": 0.16535433070866143
        },
        {
          "duration": 0,
          "durationTicks": 0,
          "midi": 86,
          "name": "D6",
          "ticks": 121589,
          "time": 158.31901041666666,
          "velocity": 0.11023622047244094
        },
        {
          "duration": 0,
          "durationTicks": 0,
          "midi": 60,
          "name": "C4",
          "ticks": 121625,
          "time": 158.36588541666666,
          "velocity": 0.12598425196850394
        },
        {
          "duration": 0,
          "durationTicks": 0,
          "midi": 65,
          "name": "F4",
          "ticks": 121625,
          "time": 158.36588541666666,
          "velocity": 0.11023622047244094
        },
        {
          "duration": 0,
          "durationTicks": 0,
          "midi": 84,
          "name": "C6",
          "ticks": 121625,
          "time": 158.36588541666666,
          "velocity": 0.08661417322834646
        },
        {
          "duration": 0.12760416666668561,
          "durationTicks": 98,
          "midi": 83,
          "name": "B5",
          "ticks": 121634,
          "time": 158.37760416666666,
          "velocity": 0.25984251968503935
        },
        {
          "duration": 0,
          "durationTicks": 0,
          "midi": 58,
          "name": "A#3",
          "ticks": 121644,
          "time": 158.390625,
          "velocity": 0.23622047244094488
        },
        {
          "duration": 0,
          "durationTicks": 0,
          "midi": 68,
          "name": "G#4",
          "ticks": 121653,
          "time": 158.40234375,
          "velocity": 0.1732283464566929
        },
        {
          "duration": 0.1276041666666572,
          "durationTicks": 98,
          "midi": 91,
          "name": "G6",
          "ticks": 121653,
          "time": 158.40234375,
          "velocity": 0.1732283464566929
        },
        {
          "duration": 0,
          "durationTicks": 0,
          "midi": 57,
          "name": "A3",
          "ticks": 121662,
          "time": 158.4140625,
          "velocity": 0.3228346456692913
        },
        {
          "duration": 0.1276041666666572,
          "durationTicks": 98,
          "midi": 80,
          "name": "G#5",
          "ticks": 121662,
          "time": 158.4140625,
          "velocity": 0.25984251968503935
        },
        {
          "duration": 0.1276041666666572,
          "durationTicks": 98,
          "midi": 48,
          "name": "C3",
          "ticks": 121662,
          "time": 158.4140625,
          "velocity": 0.28346456692913385
        },
        {
          "duration": 0.1276041666666572,
          "durationTicks": 98,
          "midi": 87,
          "name": "D#6",
          "ticks": 121662,
          "time": 158.4140625,
          "velocity": 0.25984251968503935
        },
        {
          "duration": 0.1276041666666572,
          "durationTicks": 98,
          "midi": 67,
          "name": "G4",
          "ticks": 121672,
          "time": 158.42708333333334,
          "velocity": 0.2125984251968504
        },
        {
          "duration": 0.2565104166666572,
          "durationTicks": 197,
          "midi": 36,
          "name": "C2",
          "ticks": 121672,
          "time": 158.42708333333334,
          "velocity": 0.3700787401574803
        },
        {
          "duration": 0,
          "durationTicks": 0,
          "midi": 56,
          "name": "G#3",
          "ticks": 121681,
          "time": 158.43880208333334,
          "velocity": 0.25984251968503935
        },
        {
          "duration": 0,
          "durationTicks": 0,
          "midi": 75,
          "name": "D#5",
          "ticks": 121681,
          "time": 158.43880208333334,
          "velocity": 0.1968503937007874
        },
        {
          "duration": 0,
          "durationTicks": 0,
          "midi": 60,
          "name": "C4",
          "ticks": 121681,
          "time": 158.43880208333334,
          "velocity": 0.28346456692913385
        },
        {
          "duration": 0,
          "durationTicks": 0,
          "midi": 76,
          "name": "E5",
          "ticks": 121698,
          "time": 158.4609375,
          "velocity": 0.2755905511811024
        },
        {
          "duration": 0.12890625,
          "durationTicks": 99,
          "midi": 79,
          "name": "G5",
          "ticks": 121698,
          "time": 158.4609375,
          "velocity": 0.31496062992125984
        },
        {
          "duration": 0,
          "durationTicks": 0,
          "midi": 70,
          "name": "A#4",
          "ticks": 121708,
          "time": 158.47395833333334,
          "velocity": 0.2204724409448819
        },
        {
          "duration": 0,
          "durationTicks": 0,
          "midi": 72,
          "name": "C5",
          "ticks": 121725,
          "time": 158.49609375,
          "velocity": 0.2440944881889764
        },
        {
          "duration": 0,
          "durationTicks": 0,
          "midi": 75,
          "name": "D#5",
          "ticks": 121725,
          "time": 158.49609375,
          "velocity": 0.28346456692913385
        },
        {
          "duration": 0,
          "durationTicks": 0,
          "midi": 63,
          "name": "D#4",
          "ticks": 121725,
          "time": 158.49609375,
          "velocity": 0.1889763779527559
        },
        {
          "duration": 0.12890625,
          "durationTicks": 99,
          "midi": 82,
          "name": "A#5",
          "ticks": 121725,
          "time": 158.49609375,
          "velocity": 0.25984251968503935
        },
        {
          "duration": 0,
          "durationTicks": 0,
          "midi": 73,
          "name": "C#5",
          "ticks": 121744,
          "time": 158.52083333333334,
          "velocity": 0.31496062992125984
        },
        {
          "duration": 0.12890625,
          "durationTicks": 99,
          "midi": 92,
          "name": "G#6",
          "ticks": 121744,
          "time": 158.52083333333334,
          "velocity": 0.11811023622047244
        },
        {
          "duration": 0.12890625,
          "durationTicks": 99,
          "midi": 84,
          "name": "C6",
          "ticks": 121753,
          "time": 158.53255208333334,
          "velocity": 0.23622047244094488
        },
        {
          "duration": 0,
          "durationTicks": 0,
          "midi": 57,
          "name": "A3",
          "ticks": 121763,
          "time": 158.54557291666666,
          "velocity": 0.29133858267716534
        },
        {
          "duration": 0,
          "durationTicks": 0,
          "midi": 71,
          "name": "B4",
          "ticks": 121763,
          "time": 158.54557291666666,
          "velocity": 0.28346456692913385
        },
        {
          "duration": 0,
          "durationTicks": 0,
          "midi": 86,
          "name": "D6",
          "ticks": 121763,
          "time": 158.54557291666666,
          "velocity": 0.07086614173228346
        },
        {
          "duration": 0.12890625,
          "durationTicks": 99,
          "midi": 75,
          "name": "D#5",
          "ticks": 121763,
          "time": 158.54557291666666,
          "velocity": 0.25196850393700787
        },
        {
          "duration": 0,
          "durationTicks": 0,
          "midi": 63,
          "name": "D#4",
          "ticks": 121772,
          "time": 158.55729166666666,
          "velocity": 0.14960629921259844
        },
        {
          "duration": 0.12890625,
          "durationTicks": 99,
          "midi": 77,
          "name": "F5",
          "ticks": 121772,
          "time": 158.55729166666666,
          "velocity": 0.18110236220472442
        },
        {
          "duration": 0.12890625,
          "durationTicks": 99,
          "midi": 80,
          "name": "G#5",
          "ticks": 121772,
          "time": 158.55729166666666,
          "velocity": 0.29133858267716534
        },
        {
          "duration": 0.12890625,
          "durationTicks": 99,
          "midi": 87,
          "name": "D#6",
          "ticks": 121772,
          "time": 158.55729166666666,
          "velocity": 0.07086614173228346
        },
        {
          "duration": 0,
          "durationTicks": 0,
          "midi": 86,
          "name": "D6",
          "ticks": 121781,
          "time": 158.56901041666666,
          "velocity": 0.05511811023622047
        },
        {
          "duration": 0,
          "durationTicks": 0,
          "midi": 70,
          "name": "A#4",
          "ticks": 121790,
          "time": 158.58072916666666,
          "velocity": 0.29133858267716534
        },
        {
          "duration": 0.12760416666668561,
          "durationTicks": 98,
          "midi": 79,
          "name": "G5",
          "ticks": 121790,
          "time": 158.58072916666666,
          "velocity": 0.2677165354330709
        },
        {
          "duration": 0,
          "durationTicks": 0,
          "midi": 63,
          "name": "D#4",
          "ticks": 121817,
          "time": 158.61588541666666,
          "velocity": 0.1889763779527559
        },
        {
          "duration": 0,
          "durationTicks": 0,
          "midi": 68,
          "name": "G#4",
          "ticks": 121827,
          "time": 158.62890625,
          "velocity": 0.29133858267716534
        },
        {
          "duration": 0.12890625,
          "durationTicks": 99,
          "midi": 87,
          "name": "D#6",
          "ticks": 121827,
          "time": 158.62890625,
          "velocity": 0.12598425196850394
        },
        {
          "duration": 0,
          "durationTicks": 0,
          "midi": 76,
          "name": "E5",
          "ticks": 121836,
          "time": 158.640625,
          "velocity": 0.1732283464566929
        },
        {
          "duration": 0,
          "durationTicks": 0,
          "midi": 58,
          "name": "A#3",
          "ticks": 121836,
          "time": 158.640625,
          "velocity": 0.29133858267716534
        },
        {
          "duration": 0,
          "durationTicks": 0,
          "midi": 67,
          "name": "G4",
          "ticks": 121845,
          "time": 158.65234375,
          "velocity": 0.33858267716535434
        },
        {
          "duration": 0,
          "durationTicks": 0,
          "midi": 86,
          "name": "D6",
          "ticks": 121845,
          "time": 158.65234375,
          "velocity": 0.09448818897637795
        },
        {
          "duration": 0.09635416666665719,
          "durationTicks": 74,
          "midi": 82,
          "name": "A#5",
          "ticks": 121845,
          "time": 158.65234375,
          "velocity": 0.2992125984251969
        },
        {
          "duration": 0,
          "durationTicks": 0,
          "midi": 48,
          "name": "C3",
          "ticks": 121855,
          "time": 158.66536458333334,
          "velocity": 0.3228346456692913
        },
        {
          "duration": 0,
          "durationTicks": 0,
          "midi": 72,
          "name": "C5",
          "ticks": 121855,
          "time": 158.66536458333334,
          "velocity": 0.08661417322834646
        },
        {
          "duration": 0.12890625,
          "durationTicks": 99,
          "midi": 89,
          "name": "F6",
          "ticks": 121855,
          "time": 158.66536458333334,
          "velocity": 0.07874015748031496
        },
        {
          "duration": 0,
          "durationTicks": 0,
          "midi": 61,
          "name": "C#4",
          "ticks": 121864,
          "time": 158.67708333333334,
          "velocity": 0.2204724409448819
        },
        {
          "duration": 0,
          "durationTicks": 0,
          "midi": 88,
          "name": "E6",
          "ticks": 121864,
          "time": 158.67708333333334,
          "velocity": 0.06299212598425197
        },
        {
          "duration": 0,
          "durationTicks": 0,
          "midi": 88,
          "name": "E6",
          "ticks": 121864,
          "time": 158.67708333333334,
          "velocity": 0.07874015748031496
        },
        {
          "duration": 0,
          "durationTicks": 0,
          "midi": 75,
          "name": "D#5",
          "ticks": 121864,
          "time": 158.67708333333334,
          "velocity": 0.2283464566929134
        },
        {
          "duration": 0,
          "durationTicks": 0,
          "midi": 49,
          "name": "C#3",
          "ticks": 121873,
          "time": 158.68880208333334,
          "velocity": 0.3543307086614173
        },
        {
          "duration": 0,
          "durationTicks": 0,
          "midi": 65,
          "name": "F4",
          "ticks": 121873,
          "time": 158.68880208333334,
          "velocity": 0.30708661417322836
        },
        {
          "duration": 0,
          "durationTicks": 0,
          "midi": 48,
          "name": "C3",
          "ticks": 121891,
          "time": 158.71223958333334,
          "velocity": 0.4094488188976378
        },
        {
          "duration": 0,
          "durationTicks": 0,
          "midi": 64,
          "name": "E4",
          "ticks": 121891,
          "time": 158.71223958333334,
          "velocity": 0.29133858267716534
        },
        {
          "duration": 0.13020833333331439,
          "durationTicks": 100,
          "midi": 67,
          "name": "G4",
          "ticks": 121891,
          "time": 158.71223958333334,
          "velocity": 0.2204724409448819
        },
        {
          "duration": 0,
          "durationTicks": 0,
          "midi": 83,
          "name": "B5",
          "ticks": 121900,
          "time": 158.72395833333334,
          "velocity": 0.1732283464566929
        },
        {
          "duration": 0,
          "durationTicks": 0,
          "midi": 91,
          "name": "G6",
          "ticks": 121909,
          "time": 158.73567708333334,
          "velocity": 0.08661417322834646
        },
        {
          "duration": 0,
          "durationTicks": 0,
          "midi": 62,
          "name": "D4",
          "ticks": 121919,
          "time": 158.74869791666666,
          "velocity": 0.29133858267716534
        },
        {
          "duration": 0.03255208333334281,
          "durationTicks": 25,
          "midi": 82,
          "name": "A#5",
          "ticks": 121919,
          "time": 158.74869791666666,
          "velocity": 0.12598425196850394
        },
        {
          "duration": 0,
          "durationTicks": 0,
          "midi": 48,
          "name": "C3",
          "ticks": 121928,
          "time": 158.76041666666666,
          "velocity": 0.3700787401574803
        },
        {
          "duration": 0.12890625,
          "durationTicks": 99,
          "midi": 80,
          "name": "G#5",
          "ticks": 121928,
          "time": 158.76041666666666,
          "velocity": 0.12598425196850394
        },
        {
          "duration": 0,
          "durationTicks": 0,
          "midi": 61,
          "name": "C#4",
          "ticks": 121937,
          "time": 158.77213541666666,
          "velocity": 0.33858267716535434
        },
        {
          "duration": 0.12890625,
          "durationTicks": 99,
          "midi": 75,
          "name": "D#5",
          "ticks": 121937,
          "time": 158.77213541666666,
          "velocity": 0.1732283464566929
        },
        {
          "duration": 0,
          "durationTicks": 0,
          "midi": 88,
          "name": "E6",
          "ticks": 121947,
          "time": 158.78515625,
          "velocity": 0.08661417322834646
        },
        {
          "duration": 0.12890625,
          "durationTicks": 99,
          "midi": 77,
          "name": "F5",
          "ticks": 121947,
          "time": 158.78515625,
          "velocity": 0.29133858267716534
        },
        {
          "duration": 0,
          "durationTicks": 0,
          "midi": 60,
          "name": "C4",
          "ticks": 121956,
          "time": 158.796875,
          "velocity": 0.3543307086614173
        },
        {
          "duration": 0,
          "durationTicks": 0,
          "midi": 88,
          "name": "E6",
          "ticks": 121956,
          "time": 158.796875,
          "velocity": 0.08661417322834646
        },
        {
          "duration": 0.12890625,
          "durationTicks": 99,
          "midi": 84,
          "name": "C6",
          "ticks": 121956,
          "time": 158.796875,
          "velocity": 0.08661417322834646
        },
        {
          "duration": 0,
          "durationTicks": 0,
          "midi": 86,
          "name": "D6",
          "ticks": 121965,
          "time": 158.80859375,
          "velocity": 0.06299212598425197
        },
        {
          "duration": 0,
          "durationTicks": 0,
          "midi": 70,
          "name": "A#4",
          "ticks": 121965,
          "time": 158.80859375,
          "velocity": 0.1968503937007874
        },
        {
          "duration": 0.12890625,
          "durationTicks": 99,
          "midi": 89,
          "name": "F6",
          "ticks": 121965,
          "time": 158.80859375,
          "velocity": 0.11023622047244094
        },
        {
          "duration": 0,
          "durationTicks": 0,
          "midi": 36,
          "name": "C2",
          "ticks": 121975,
          "time": 158.82161458333334,
          "velocity": 0.29133858267716534
        },
        {
          "duration": 0,
          "durationTicks": 0,
          "midi": 48,
          "name": "C3",
          "ticks": 121984,
          "time": 158.83333333333334,
          "velocity": 0.4094488188976378
        },
        {
          "duration": 0,
          "durationTicks": 0,
          "midi": 58,
          "name": "A#3",
          "ticks": 121984,
          "time": 158.83333333333334,
          "velocity": 0.31496062992125984
        },
        {
          "duration": 0,
          "durationTicks": 0,
          "midi": 35,
          "name": "B1",
          "ticks": 121993,
          "time": 158.84505208333334,
          "velocity": 0.2283464566929134
        },
        {
          "duration": 0,
          "durationTicks": 0,
          "midi": 91,
          "name": "G6",
          "ticks": 122002,
          "time": 158.85677083333334,
          "velocity": 0.07086614173228346
        },
        {
          "duration": 0,
          "durationTicks": 0,
          "midi": 86,
          "name": "D6",
          "ticks": 122002,
          "time": 158.85677083333334,
          "velocity": 0.06299212598425197
        },
        {
          "duration": 0,
          "durationTicks": 0,
          "midi": 48,
          "name": "C3",
          "ticks": 122020,
          "time": 158.88020833333334,
          "velocity": 0.3700787401574803
        },
        {
          "duration": 0,
          "durationTicks": 0,
          "midi": 67,
          "name": "G4",
          "ticks": 122020,
          "time": 158.88020833333334,
          "velocity": 0.1732283464566929
        },
        {
          "duration": 0,
          "durationTicks": 0,
          "midi": 55,
          "name": "G3",
          "ticks": 122029,
          "time": 158.89192708333334,
          "velocity": 0.30708661417322836
        },
        {
          "duration": 0.12890625,
          "durationTicks": 99,
          "midi": 82,
          "name": "A#5",
          "ticks": 122039,
          "time": 158.90494791666666,
          "velocity": 0.09448818897637795
        },
        {
          "duration": 0,
          "durationTicks": 0,
          "midi": 75,
          "name": "D#5",
          "ticks": 122048,
          "time": 158.91666666666666,
          "velocity": 0.2677165354330709
        },
        {
          "duration": 0,
          "durationTicks": 0,
          "midi": 69,
          "name": "A4",
          "ticks": 122048,
          "time": 158.91666666666666,
          "velocity": 0.1968503937007874
        },
        {
          "duration": 0,
          "durationTicks": 0,
          "midi": 60,
          "name": "C4",
          "ticks": 122057,
          "time": 158.92838541666666,
          "velocity": 0.2283464566929134
        },
        {
          "duration": 0,
          "durationTicks": 0,
          "midi": 63,
          "name": "D#4",
          "ticks": 122057,
          "time": 158.92838541666666,
          "velocity": 0.2204724409448819
        },
        {
          "duration": 0.2578125,
          "durationTicks": 198,
          "midi": 80,
          "name": "G#5",
          "ticks": 122057,
          "time": 158.92838541666666,
          "velocity": 0.28346456692913385
        },
        {
          "duration": 0,
          "durationTicks": 0,
          "midi": 78,
          "name": "F#5",
          "ticks": 122067,
          "time": 158.94140625,
          "velocity": 0.28346456692913385
        },
        {
          "duration": 0.12890625,
          "durationTicks": 99,
          "midi": 35,
          "name": "B1",
          "ticks": 122067,
          "time": 158.94140625,
          "velocity": 0.36220472440944884
        },
        {
          "duration": 0,
          "durationTicks": 0,
          "midi": 62,
          "name": "D4",
          "ticks": 122076,
          "time": 158.953125,
          "velocity": 0.2047244094488189
        },
        {
          "duration": 0,
          "durationTicks": 0,
          "midi": 66,
          "name": "F#4",
          "ticks": 122076,
          "time": 158.953125,
          "velocity": 0.12598425196850394
        },
        {
          "duration": 0,
          "durationTicks": 0,
          "midi": 72,
          "name": "C5",
          "ticks": 122085,
          "time": 158.96484375,
          "velocity": 0.31496062992125984
        },
        {
          "duration": 0,
          "durationTicks": 0,
          "midi": 77,
          "name": "F5",
          "ticks": 122085,
          "time": 158.96484375,
          "velocity": 0.1968503937007874
        },
        {
          "duration": 0,
          "durationTicks": 0,
          "midi": 91,
          "name": "G6",
          "ticks": 122085,
          "time": 158.96484375,
          "velocity": 0.11023622047244094
        },
        {
          "duration": 0,
          "durationTicks": 0,
          "midi": 78,
          "name": "F#5",
          "ticks": 122103,
          "time": 158.98828125,
          "velocity": 0.25984251968503935
        },
        {
          "duration": 0.12890625,
          "durationTicks": 99,
          "midi": 87,
          "name": "D#6",
          "ticks": 122103,
          "time": 158.98828125,
          "velocity": 0.12598425196850394
        },
        {
          "duration": 0,
          "durationTicks": 0,
          "midi": 71,
          "name": "B4",
          "ticks": 122112,
          "time": 159,
          "velocity": 0.2755905511811024
        },
        {
          "duration": 0.09635416666665719,
          "durationTicks": 74,
          "midi": 66,
          "name": "F#4",
          "ticks": 122112,
          "time": 159,
          "velocity": 0.2755905511811024
        },
        {
          "duration": 0,
          "durationTicks": 0,
          "midi": 77,
          "name": "F5",
          "ticks": 122121,
          "time": 159.01171875,
          "velocity": 0.2047244094488189
        },
        {
          "duration": 0.12890625,
          "durationTicks": 99,
          "midi": 62,
          "name": "D4",
          "ticks": 122121,
          "time": 159.01171875,
          "velocity": 0.2204724409448819
        },
        {
          "duration": 0,
          "durationTicks": 0,
          "midi": 69,
          "name": "A4",
          "ticks": 122131,
          "time": 159.02473958333334,
          "velocity": 0.3464566929133858
        },
        {
          "duration": 0,
          "durationTicks": 0,
          "midi": 88,
          "name": "E6",
          "ticks": 122140,
          "time": 159.03645833333334,
          "velocity": 0.10236220472440945
        },
        {
          "duration": 0,
          "durationTicks": 0,
          "midi": 75,
          "name": "D#5",
          "ticks": 122149,
          "time": 159.04817708333334,
          "velocity": 0.1732283464566929
        },
        {
          "duration": 0.12890625,
          "durationTicks": 99,
          "midi": 71,
          "name": "B4",
          "ticks": 122149,
          "time": 159.04817708333334,
          "velocity": 0.25984251968503935
        },
        {
          "duration": 0,
          "durationTicks": 0,
          "midi": 84,
          "name": "C6",
          "ticks": 122159,
          "time": 159.06119791666666,
          "velocity": 0.05511811023622047
        },
        {
          "duration": 0,
          "durationTicks": 0,
          "midi": 36,
          "name": "C2",
          "ticks": 122159,
          "time": 159.06119791666666,
          "velocity": 0.4015748031496063
        },
        {
          "duration": 0,
          "durationTicks": 0,
          "midi": 56,
          "name": "G#3",
          "ticks": 122159,
          "time": 159.06119791666666,
          "velocity": 0.2755905511811024
        },
        {
          "duration": 0,
          "durationTicks": 0,
          "midi": 67,
          "name": "G4",
          "ticks": 122168,
          "time": 159.07291666666666,
          "velocity": 0.31496062992125984
        },
        {
          "duration": 0.10807291666668561,
          "durationTicks": 83,
          "midi": 78,
          "name": "F#5",
          "ticks": 122168,
          "time": 159.07291666666666,
          "velocity": 0.25984251968503935
        },
        {
          "duration": 0.12890625,
          "durationTicks": 99,
          "midi": 74,
          "name": "D5",
          "ticks": 122168,
          "time": 159.07291666666666,
          "velocity": 0.2992125984251969
        },
        {
          "duration": 0,
          "durationTicks": 0,
          "midi": 89,
          "name": "F6",
          "ticks": 122177,
          "time": 159.08463541666666,
          "velocity": 0.05511811023622047
        },
        {
          "duration": 0,
          "durationTicks": 0,
          "midi": 85,
          "name": "C#6",
          "ticks": 122177,
          "time": 159.08463541666666,
          "velocity": 0.10236220472440945
        },
        {
          "duration": 0.03255208333334281,
          "durationTicks": 25,
          "midi": 66,
          "name": "F#4",
          "ticks": 122186,
          "time": 159.09635416666666,
          "velocity": 0.33070866141732286
        },
        {
          "duration": 0,
          "durationTicks": 0,
          "midi": 70,
          "name": "A#4",
          "ticks": 122204,
          "time": 159.11979166666666,
          "velocity": 0.11811023622047244
        },
        {
          "duration": 0,
          "durationTicks": 0,
          "midi": 93,
          "name": "A6",
          "ticks": 122213,
          "time": 159.13151041666666,
          "velocity": 0.08661417322834646
        },
        {
          "duration": 0,
          "durationTicks": 0,
          "midi": 57,
          "name": "A3",
          "ticks": 122223,
          "time": 159.14453125,
          "velocity": 0.23622047244094488
        },
        {
          "duration": 0,
          "durationTicks": 0,
          "midi": 77,
          "name": "F5",
          "ticks": 122223,
          "time": 159.14453125,
          "velocity": 0.1968503937007874
        },
        {
          "duration": 0.1276041666666572,
          "durationTicks": 98,
          "midi": 72,
          "name": "C5",
          "ticks": 122223,
          "time": 159.14453125,
          "velocity": 0.2283464566929134
        },
        {
          "duration": 0.1276041666666572,
          "durationTicks": 98,
          "midi": 87,
          "name": "D#6",
          "ticks": 122223,
          "time": 159.14453125,
          "velocity": 0.16535433070866143
        },
        {
          "duration": 0,
          "durationTicks": 0,
          "midi": 63,
          "name": "D#4",
          "ticks": 122232,
          "time": 159.15625,
          "velocity": 0.3543307086614173
        },
        {
          "duration": 0,
          "durationTicks": 0,
          "midi": 69,
          "name": "A4",
          "ticks": 122241,
          "time": 159.16796875,
          "velocity": 0.2283464566929134
        },
        {
          "duration": 0,
          "durationTicks": 0,
          "midi": 66,
          "name": "F#4",
          "ticks": 122241,
          "time": 159.16796875,
          "velocity": 0.2125984251968504
        },
        {
          "duration": 0,
          "durationTicks": 0,
          "midi": 85,
          "name": "C#6",
          "ticks": 122251,
          "time": 159.18098958333334,
          "velocity": 0.07086614173228346
        },
        {
          "duration": 0,
          "durationTicks": 0,
          "midi": 85,
          "name": "C#6",
          "ticks": 122251,
          "time": 159.18098958333334,
          "velocity": 0.07086614173228346
        },
        {
          "duration": 0.020833333333314386,
          "durationTicks": 16,
          "midi": 78,
          "name": "F#5",
          "ticks": 122251,
          "time": 159.18098958333334,
          "velocity": 0.2677165354330709
        },
        {
          "duration": 0,
          "durationTicks": 0,
          "midi": 57,
          "name": "A3",
          "ticks": 122260,
          "time": 159.19270833333334,
          "velocity": 0.31496062992125984
        },
        {
          "duration": 0,
          "durationTicks": 0,
          "midi": 70,
          "name": "A#4",
          "ticks": 122260,
          "time": 159.19270833333334,
          "velocity": 0.2992125984251969
        },
        {
          "duration": 0.1276041666666572,
          "durationTicks": 98,
          "midi": 47,
          "name": "B2",
          "ticks": 122260,
          "time": 159.19270833333334,
          "velocity": 0.3779527559055118
        },
        {
          "duration": 0,
          "durationTicks": 0,
          "midi": 80,
          "name": "G#5",
          "ticks": 122269,
          "time": 159.20442708333334,
          "velocity": 0.18110236220472442
        },
        {
          "duration": 0,
          "durationTicks": 0,
          "midi": 60,
          "name": "C4",
          "ticks": 122279,
          "time": 159.21744791666666,
          "velocity": 0.29133858267716534
        },
        {
          "duration": 0,
          "durationTicks": 0,
          "midi": 89,
          "name": "F6",
          "ticks": 122279,
          "time": 159.21744791666666,
          "velocity": 0.05511811023622047
        },
        {
          "duration": 0,
          "durationTicks": 0,
          "midi": 38,
          "name": "D2",
          "ticks": 122288,
          "time": 159.22916666666666,
          "velocity": 0.30708661417322836
        },
        {
          "duration": 0,
          "durationTicks": 0,
          "midi": 67,
          "name": "G4",
          "ticks": 122288,
          "time": 159.22916666666666,
          "velocity": 0.2283464566929134
        },
        {
          "duration": 0.1263020833333428,
          "durationTicks": 97,
          "midi": 81,
          "name": "A5",
          "ticks": 122288,
          "time": 159.22916666666666,
          "velocity": 0.2283464566929134
        },
        {
          "duration": 0,
          "durationTicks": 0,
          "midi": 37,
          "name": "C#2",
          "ticks": 122305,
          "time": 159.25130208333334,
          "velocity": 0.30708661417322836
        },
        {
          "duration": 0,
          "durationTicks": 0,
          "midi": 62,
          "name": "D4",
          "ticks": 122305,
          "time": 159.25130208333334,
          "velocity": 0.1968503937007874
        },
        {
          "duration": 0,
          "durationTicks": 0,
          "midi": 80,
          "name": "G#5",
          "ticks": 122305,
          "time": 159.25130208333334,
          "velocity": 0.13385826771653545
        },
        {
          "duration": 0,
          "durationTicks": 0,
          "midi": 65,
          "name": "F4",
          "ticks": 122332,
          "time": 159.28645833333334,
          "velocity": 0.30708661417322836
        },
        {
          "duration": 0,
          "durationTicks": 0,
          "midi": 56,
          "name": "G#3",
          "ticks": 122332,
          "time": 159.28645833333334,
          "velocity": 0.3464566929133858
        },
        {
          "duration": 0,
          "durationTicks": 0,
          "midi": 62,
          "name": "D4",
          "ticks": 122332,
          "time": 159.28645833333334,
          "velocity": 0.30708661417322836
        },
        {
          "duration": 0.1276041666666572,
          "durationTicks": 98,
          "midi": 85,
          "name": "C#6",
          "ticks": 122332,
          "time": 159.28645833333334,
          "velocity": 0.2283464566929134
        },
        {
          "duration": 0,
          "durationTicks": 0,
          "midi": 82,
          "name": "A#5",
          "ticks": 122342,
          "time": 159.29947916666666,
          "velocity": 0.05511811023622047
        },
        {
          "duration": 0.12760416666668561,
          "durationTicks": 98,
          "midi": 80,
          "name": "G#5",
          "ticks": 122342,
          "time": 159.29947916666666,
          "velocity": 0.14173228346456693
        },
        {
          "duration": 0,
          "durationTicks": 0,
          "midi": 78,
          "name": "F#5",
          "ticks": 122351,
          "time": 159.31119791666666,
          "velocity": 0.10236220472440945
        },
        {
          "duration": 0.08203125,
          "durationTicks": 63,
          "midi": 47,
          "name": "B2",
          "ticks": 122351,
          "time": 159.31119791666666,
          "velocity": 0.3779527559055118
        },
        {
          "duration": 0,
          "durationTicks": 0,
          "midi": 75,
          "name": "D#5",
          "ticks": 122360,
          "time": 159.32291666666666,
          "velocity": 0.14173228346456693
        },
        {
          "duration": 0,
          "durationTicks": 0,
          "midi": 32,
          "name": "G#1",
          "ticks": 122378,
          "time": 159.34635416666666,
          "velocity": 0.25984251968503935
        },
        {
          "duration": 0,
          "durationTicks": 0,
          "midi": 60,
          "name": "C4",
          "ticks": 122378,
          "time": 159.34635416666666,
          "velocity": 0.25984251968503935
        },
        {
          "duration": 0,
          "durationTicks": 0,
          "midi": 53,
          "name": "F3",
          "ticks": 122387,
          "time": 159.35807291666666,
          "velocity": 0.2992125984251969
        },
        {
          "duration": 0.12760416666668561,
          "durationTicks": 98,
          "midi": 90,
          "name": "F#6",
          "ticks": 122387,
          "time": 159.35807291666666,
          "velocity": 0.2283464566929134
        },
        {
          "duration": 0,
          "durationTicks": 0,
          "midi": 31,
          "name": "G1",
          "ticks": 122396,
          "time": 159.36979166666666,
          "velocity": 0.29133858267716534
        },
        {
          "duration": 0,
          "durationTicks": 0,
          "midi": 66,
          "name": "F#4",
          "ticks": 122396,
          "time": 159.36979166666666,
          "velocity": 0.14960629921259844
        },
        {
          "duration": 0.045572916666685614,
          "durationTicks": 35,
          "midi": 47,
          "name": "B2",
          "ticks": 122414,
          "time": 159.39322916666666,
          "velocity": 0.3779527559055118
        },
        {
          "duration": 0,
          "durationTicks": 0,
          "midi": 69,
          "name": "A4",
          "ticks": 122414,
          "time": 159.39322916666666,
          "velocity": 0.11023622047244094
        },
        {
          "duration": 0.12890625,
          "durationTicks": 99,
          "midi": 75,
          "name": "D#5",
          "ticks": 122423,
          "time": 159.40494791666666,
          "velocity": 0.18110236220472442
        },
        {
          "duration": 0,
          "durationTicks": 0,
          "midi": 48,
          "name": "C3",
          "ticks": 122433,
          "time": 159.41796875,
          "velocity": 0.3543307086614173
        },
        {
          "duration": 0,
          "durationTicks": 0,
          "midi": 61,
          "name": "C#4",
          "ticks": 122433,
          "time": 159.41796875,
          "velocity": 0.1968503937007874
        },
        {
          "duration": 0.12890625,
          "durationTicks": 99,
          "midi": 92,
          "name": "G#6",
          "ticks": 122433,
          "time": 159.41796875,
          "velocity": 0.2047244094488189
        },
        {
          "duration": 0.3841145833333428,
          "durationTicks": 295,
          "midi": 89,
          "name": "F6",
          "ticks": 122433,
          "time": 159.41796875,
          "velocity": 0.2283464566929134
        },
        {
          "duration": 0,
          "durationTicks": 0,
          "midi": 72,
          "name": "C5",
          "ticks": 122442,
          "time": 159.4296875,
          "velocity": 0.14173228346456693
        },
        {
          "duration": 0.12890625,
          "durationTicks": 99,
          "midi": 77,
          "name": "F5",
          "ticks": 122442,
          "time": 159.4296875,
          "velocity": 0.10236220472440945
        },
        {
          "duration": 0,
          "durationTicks": 0,
          "midi": 47,
          "name": "B2",
          "ticks": 122451,
          "time": 159.44140625,
          "velocity": 0.14960629921259844
        },
        {
          "duration": 0,
          "durationTicks": 0,
          "midi": 70,
          "name": "A#4",
          "ticks": 122451,
          "time": 159.44140625,
          "velocity": 0.11811023622047244
        },
        {
          "duration": 0,
          "durationTicks": 0,
          "midi": 36,
          "name": "C2",
          "ticks": 122461,
          "time": 159.45442708333334,
          "velocity": 0.3464566929133858
        },
        {
          "duration": 0,
          "durationTicks": 0,
          "midi": 80,
          "name": "G#5",
          "ticks": 122461,
          "time": 159.45442708333334,
          "velocity": 0.05511811023622047
        },
        {
          "duration": 0.2578125,
          "durationTicks": 198,
          "midi": 65,
          "name": "F4",
          "ticks": 122461,
          "time": 159.45442708333334,
          "velocity": 0.18110236220472442
        },
        {
          "duration": 0,
          "durationTicks": 0,
          "midi": 34,
          "name": "A#1",
          "ticks": 122478,
          "time": 159.4765625,
          "velocity": 0.3937007874015748
        },
        {
          "duration": 0.1302083333333428,
          "durationTicks": 100,
          "midi": 61,
          "name": "C#4",
          "ticks": 122478,
          "time": 159.4765625,
          "velocity": 0.18110236220472442
        },
        {
          "duration": 0.1302083333333428,
          "durationTicks": 100,
          "midi": 85,
          "name": "C#6",
          "ticks": 122487,
          "time": 159.48828125,
          "velocity": 0.2283464566929134
        },
        {
          "duration": 0,
          "durationTicks": 0,
          "midi": 76,
          "name": "E5",
          "ticks": 122497,
          "time": 159.50130208333334,
          "velocity": 0.2047244094488189
        },
        {
          "duration": 0,
          "durationTicks": 0,
          "midi": 70,
          "name": "A#4",
          "ticks": 122497,
          "time": 159.50130208333334,
          "velocity": 0.11023622047244094
        },
        {
          "duration": 0,
          "durationTicks": 0,
          "midi": 34,
          "name": "A#1",
          "ticks": 122506,
          "time": 159.51302083333334,
          "velocity": 0.3858267716535433
        },
        {
          "duration": 0,
          "durationTicks": 0,
          "midi": 68,
          "name": "G#4",
          "ticks": 122506,
          "time": 159.51302083333334,
          "velocity": 0.10236220472440945
        },
        {
          "duration": 0.3828125,
          "durationTicks": 294,
          "midi": 77,
          "name": "F5",
          "ticks": 122515,
          "time": 159.52473958333334,
          "velocity": 0.3700787401574803
        },
        {
          "duration": 0.1302083333333428,
          "durationTicks": 100,
          "midi": 80,
          "name": "G#5",
          "ticks": 122525,
          "time": 159.53776041666666,
          "velocity": 0.2204724409448819
        },
        {
          "duration": 0.08463541666668561,
          "durationTicks": 65,
          "midi": 84,
          "name": "C6",
          "ticks": 122525,
          "time": 159.53776041666666,
          "velocity": 0.18110236220472442
        },
        {
          "duration": 0,
          "durationTicks": 0,
          "midi": 34,
          "name": "A#1",
          "ticks": 122534,
          "time": 159.54947916666666,
          "velocity": 0.3779527559055118
        },
        {
          "duration": 0,
          "durationTicks": 0,
          "midi": 57,
          "name": "A3",
          "ticks": 122553,
          "time": 159.57421875,
          "velocity": 0.2204724409448819
        },
        {
          "duration": 0,
          "durationTicks": 0,
          "midi": 32,
          "name": "G#1",
          "ticks": 122562,
          "time": 159.5859375,
          "velocity": 0.3779527559055118
        },
        {
          "duration": 0,
          "durationTicks": 0,
          "midi": 56,
          "name": "G#3",
          "ticks": 122571,
          "time": 159.59765625,
          "velocity": 0.1968503937007874
        },
        {
          "duration": 0,
          "durationTicks": 0,
          "midi": 31,
          "name": "G1",
          "ticks": 122580,
          "time": 159.609375,
          "velocity": 0.3779527559055118
        },
        {
          "duration": 0,
          "durationTicks": 0,
          "midi": 50,
          "name": "D3",
          "ticks": 122580,
          "time": 159.609375,
          "velocity": 0.09448818897637795
        },
        {
          "duration": 0.1276041666666572,
          "durationTicks": 98,
          "midi": 82,
          "name": "A#5",
          "ticks": 122580,
          "time": 159.609375,
          "velocity": 0.2204724409448819
        },
        {
          "duration": 0.1705729166666572,
          "durationTicks": 131,
          "midi": 84,
          "name": "C6",
          "ticks": 122590,
          "time": 159.62239583333334,
          "velocity": 0.07086614173228346
        },
        {
          "duration": 0,
          "durationTicks": 0,
          "midi": 30,
          "name": "F#1",
          "ticks": 122599,
          "time": 159.63411458333334,
          "velocity": 0.3779527559055118
        },
        {
          "duration": 0,
          "durationTicks": 0,
          "midi": 68,
          "name": "G#4",
          "ticks": 122608,
          "time": 159.64583333333334,
          "velocity": 0.14173228346456693
        },
        {
          "duration": 0,
          "durationTicks": 0,
          "midi": 70,
          "name": "A#4",
          "ticks": 122608,
          "time": 159.64583333333334,
          "velocity": 0.07086614173228346
        },
        {
          "duration": 0,
          "durationTicks": 0,
          "midi": 28,
          "name": "E1",
          "ticks": 122618,
          "time": 159.65885416666666,
          "velocity": 0.3779527559055118
        },
        {
          "duration": 0.125,
          "durationTicks": 96,
          "midi": 80,
          "name": "G#5",
          "ticks": 122627,
          "time": 159.67057291666666,
          "velocity": 0.2125984251968504
        },
        {
          "duration": 0,
          "durationTicks": 0,
          "midi": 61,
          "name": "C#4",
          "ticks": 122636,
          "time": 159.68229166666666,
          "velocity": 0.1732283464566929
        },
        {
          "duration": 0,
          "durationTicks": 0,
          "midi": 58,
          "name": "A#3",
          "ticks": 122646,
          "time": 159.6953125,
          "velocity": 0.1968503937007874
        },
        {
          "duration": 0,
          "durationTicks": 0,
          "midi": 44,
          "name": "G#2",
          "ticks": 122646,
          "time": 159.6953125,
          "velocity": 0.3779527559055118
        },
        {
          "duration": 0,
          "durationTicks": 0,
          "midi": 68,
          "name": "G#4",
          "ticks": 122646,
          "time": 159.6953125,
          "velocity": 0.1889763779527559
        },
        {
          "duration": 0.1263020833333428,
          "durationTicks": 97,
          "midi": 73,
          "name": "C#5",
          "ticks": 122708,
          "time": 159.77604166666666,
          "velocity": 0.1732283464566929
        },
        {
          "duration": 0.1276041666666572,
          "durationTicks": 98,
          "midi": 84,
          "name": "C6",
          "ticks": 122725,
          "time": 159.79817708333334,
          "velocity": 0.13385826771653545
        },
        {
          "duration": 0.12760416666668561,
          "durationTicks": 98,
          "midi": 46,
          "name": "A#2",
          "ticks": 122735,
          "time": 159.81119791666666,
          "velocity": 0.36220472440944884
        },
        {
          "duration": 0.12760416666668561,
          "durationTicks": 98,
          "midi": 61,
          "name": "C#4",
          "ticks": 122744,
          "time": 159.82291666666666,
          "velocity": 0.1732283464566929
        },
        {
          "duration": 0.12760416666668561,
          "durationTicks": 98,
          "midi": 70,
          "name": "A#4",
          "ticks": 122744,
          "time": 159.82291666666666,
          "velocity": 0.11023622047244094
        },
        {
          "duration": 0.12760416666668561,
          "durationTicks": 98,
          "midi": 65,
          "name": "F4",
          "ticks": 122744,
          "time": 159.82291666666666,
          "velocity": 0.1889763779527559
        },
        {
          "duration": 0,
          "durationTicks": 0,
          "midi": 80,
          "name": "G#5",
          "ticks": 122753,
          "time": 159.83463541666666,
          "velocity": 0.08661417322834646
        },
        {
          "duration": 0,
          "durationTicks": 0,
          "midi": 76,
          "name": "E5",
          "ticks": 122789,
          "time": 159.88151041666666,
          "velocity": 0.31496062992125984
        },
        {
          "duration": 0.1263020833333428,
          "durationTicks": 97,
          "midi": 68,
          "name": "G#4",
          "ticks": 122789,
          "time": 159.88151041666666,
          "velocity": 0.2283464566929134
        },
        {
          "duration": 0,
          "durationTicks": 0,
          "midi": 58,
          "name": "A#3",
          "ticks": 122816,
          "time": 159.91666666666666,
          "velocity": 0.23622047244094488
        },
        {
          "duration": 0,
          "durationTicks": 0,
          "midi": 74,
          "name": "D5",
          "ticks": 122816,
          "time": 159.91666666666666,
          "velocity": 0.31496062992125984
        },
        {
          "duration": 0,
          "durationTicks": 0,
          "midi": 93,
          "name": "A6",
          "ticks": 122816,
          "time": 159.91666666666666,
          "velocity": 0.05511811023622047
        },
        {
          "duration": 0,
          "durationTicks": 0,
          "midi": 85,
          "name": "C#6",
          "ticks": 122826,
          "time": 159.9296875,
          "velocity": 0.11023622047244094
        },
        {
          "duration": 0,
          "durationTicks": 0,
          "midi": 90,
          "name": "F#6",
          "ticks": 122826,
          "time": 159.9296875,
          "velocity": 0.08661417322834646
        },
        {
          "duration": 0,
          "durationTicks": 0,
          "midi": 86,
          "name": "D6",
          "ticks": 122826,
          "time": 159.9296875,
          "velocity": 0.08661417322834646
        },
        {
          "duration": 0,
          "durationTicks": 0,
          "midi": 87,
          "name": "D#6",
          "ticks": 122826,
          "time": 159.9296875,
          "velocity": 0.07874015748031496
        },
        {
          "duration": 0.1263020833333428,
          "durationTicks": 97,
          "midi": 75,
          "name": "D#5",
          "ticks": 122826,
          "time": 159.9296875,
          "velocity": 0.23622047244094488
        },
        {
          "duration": 0,
          "durationTicks": 0,
          "midi": 57,
          "name": "A3",
          "ticks": 122835,
          "time": 159.94140625,
          "velocity": 0.2992125984251969
        },
        {
          "duration": 0,
          "durationTicks": 0,
          "midi": 84,
          "name": "C6",
          "ticks": 122835,
          "time": 159.94140625,
          "velocity": 0.07874015748031496
        },
        {
          "duration": 0,
          "durationTicks": 0,
          "midi": 73,
          "name": "C#5",
          "ticks": 122844,
          "time": 159.953125,
          "velocity": 0.25196850393700787
        },
        {
          "duration": 0,
          "durationTicks": 0,
          "midi": 56,
          "name": "G#3",
          "ticks": 122854,
          "time": 159.96614583333334,
          "velocity": 0.2047244094488189
        },
        {
          "duration": 0,
          "durationTicks": 0,
          "midi": 38,
          "name": "D2",
          "ticks": 122854,
          "time": 159.96614583333334,
          "velocity": 0.1968503937007874
        },
        {
          "duration": 0.12630208333331439,
          "durationTicks": 97,
          "midi": 77,
          "name": "F5",
          "ticks": 122854,
          "time": 159.96614583333334,
          "velocity": 0.28346456692913385
        },
        {
          "duration": 0,
          "durationTicks": 0,
          "midi": 69,
          "name": "A4",
          "ticks": 122871,
          "time": 159.98828125,
          "velocity": 0.1889763779527559
        },
        {
          "duration": 0.1276041666666572,
          "durationTicks": 98,
          "midi": 94,
          "name": "A#6",
          "ticks": 122871,
          "time": 159.98828125,
          "velocity": 0.10236220472440945
        },
        {
          "duration": 0,
          "durationTicks": 0,
          "midi": 57,
          "name": "A3",
          "ticks": 122898,
          "time": 160.0234375,
          "velocity": 0.10236220472440945
        },
        {
          "duration": 0,
          "durationTicks": 0,
          "midi": 73,
          "name": "C#5",
          "ticks": 122898,
          "time": 160.0234375,
          "velocity": 0.1889763779527559
        },
        {
          "duration": 0,
          "durationTicks": 0,
          "midi": 65,
          "name": "F4",
          "ticks": 122934,
          "time": 160.0703125,
          "velocity": 0.12598425196850394
        },
        {
          "duration": 0,
          "durationTicks": 0,
          "midi": 73,
          "name": "C#5",
          "ticks": 122944,
          "time": 160.08333333333334,
          "velocity": 0.18110236220472442
        },
        {
          "duration": 0,
          "durationTicks": 0,
          "midi": 69,
          "name": "A4",
          "ticks": 122962,
          "time": 160.10677083333334,
          "velocity": 0.1732283464566929
        },
        {
          "duration": 0,
          "durationTicks": 0,
          "midi": 61,
          "name": "C#4",
          "ticks": 122971,
          "time": 160.11848958333334,
          "velocity": 0.13385826771653545
        },
        {
          "duration": 0,
          "durationTicks": 0,
          "midi": 76,
          "name": "E5",
          "ticks": 122981,
          "time": 160.13151041666666,
          "velocity": 0.2047244094488189
        },
        {
          "duration": 0,
          "durationTicks": 0,
          "midi": 74,
          "name": "D5",
          "ticks": 122990,
          "time": 160.14322916666666,
          "velocity": 0.25984251968503935
        },
        {
          "duration": 0.1263020833333428,
          "durationTicks": 97,
          "midi": 34,
          "name": "A#1",
          "ticks": 123017,
          "time": 160.17838541666666,
          "velocity": 0.3779527559055118
        },
        {
          "duration": 0,
          "durationTicks": 0,
          "midi": 59,
          "name": "B3",
          "ticks": 123026,
          "time": 160.19010416666666,
          "velocity": 0.1968503937007874
        },
        {
          "duration": 0,
          "durationTicks": 0,
          "midi": 84,
          "name": "C6",
          "ticks": 123026,
          "time": 160.19010416666666,
          "velocity": 0.07874015748031496
        },
        {
          "duration": 0.1263020833333428,
          "durationTicks": 97,
          "midi": 77,
          "name": "F5",
          "ticks": 123026,
          "time": 160.19010416666666,
          "velocity": 0.11811023622047244
        },
        {
          "duration": 0,
          "durationTicks": 0,
          "midi": 70,
          "name": "A#4",
          "ticks": 123036,
          "time": 160.203125,
          "velocity": 0.07874015748031496
        },
        {
          "duration": 0,
          "durationTicks": 0,
          "midi": 72,
          "name": "C5",
          "ticks": 123036,
          "time": 160.203125,
          "velocity": 0.14960629921259844
        },
        {
          "duration": 0.1263020833333428,
          "durationTicks": 97,
          "midi": 61,
          "name": "C#4",
          "ticks": 123036,
          "time": 160.203125,
          "velocity": 0.2204724409448819
        },
        {
          "duration": 0.1263020833333428,
          "durationTicks": 97,
          "midi": 65,
          "name": "F4",
          "ticks": 123053,
          "time": 160.22526041666666,
          "velocity": 0.1732283464566929
        },
        {
          "duration": 0,
          "durationTicks": 0,
          "midi": 68,
          "name": "G#4",
          "ticks": 123063,
          "time": 160.23828125,
          "velocity": 0.11811023622047244
        },
        {
          "duration": 0.1263020833333428,
          "durationTicks": 97,
          "midi": 75,
          "name": "D#5",
          "ticks": 123063,
          "time": 160.23828125,
          "velocity": 0.11023622047244094
        },
        {
          "duration": 0,
          "durationTicks": 0,
          "midi": 70,
          "name": "A#4",
          "ticks": 123072,
          "time": 160.25,
          "velocity": 0.07086614173228346
        },
        {
          "duration": 0.12760416666668561,
          "durationTicks": 98,
          "midi": 71,
          "name": "B4",
          "ticks": 123116,
          "time": 160.30729166666666,
          "velocity": 0.18110236220472442
        },
        {
          "duration": 0,
          "durationTicks": 0,
          "midi": 56,
          "name": "G#3",
          "ticks": 123126,
          "time": 160.3203125,
          "velocity": 0.10236220472440945
        },
        {
          "duration": 0,
          "durationTicks": 0,
          "midi": 53,
          "name": "F3",
          "ticks": 123171,
          "time": 160.37890625,
          "velocity": 0.07086614173228346
        },
        {
          "duration": 0.1276041666666572,
          "durationTicks": 98,
          "midi": 70,
          "name": "A#4",
          "ticks": 123180,
          "time": 160.390625,
          "velocity": 0.25196850393700787
        },
        {
          "duration": 0.1276041666666572,
          "durationTicks": 98,
          "midi": 89,
          "name": "F6",
          "ticks": 123180,
          "time": 160.390625,
          "velocity": 0.12598425196850394
        },
        {
          "duration": 0,
          "durationTicks": 0,
          "midi": 36,
          "name": "C2",
          "ticks": 123207,
          "time": 160.42578125,
          "velocity": 0.31496062992125984
        },
        {
          "duration": 0,
          "durationTicks": 0,
          "midi": 57,
          "name": "A3",
          "ticks": 123207,
          "time": 160.42578125,
          "velocity": 0.2047244094488189
        },
        {
          "duration": 0.1276041666666572,
          "durationTicks": 98,
          "midi": 91,
          "name": "G6",
          "ticks": 123207,
          "time": 160.42578125,
          "velocity": 0.2125984251968504
        },
        {
          "duration": 0.1276041666666572,
          "durationTicks": 98,
          "midi": 86,
          "name": "D6",
          "ticks": 123207,
          "time": 160.42578125,
          "velocity": 0.08661417322834646
        },
        {
          "duration": 0.1276041666666572,
          "durationTicks": 98,
          "midi": 79,
          "name": "G5",
          "ticks": 123217,
          "time": 160.43880208333334,
          "velocity": 0.2283464566929134
        },
        {
          "duration": 0.1276041666666572,
          "durationTicks": 98,
          "midi": 63,
          "name": "D#4",
          "ticks": 123226,
          "time": 160.45052083333334,
          "velocity": 0.18110236220472442
        },
        {
          "duration": 0.1276041666666572,
          "durationTicks": 98,
          "midi": 67,
          "name": "G4",
          "ticks": 123226,
          "time": 160.45052083333334,
          "velocity": 0.1732283464566929
        },
        {
          "duration": 0,
          "durationTicks": 0,
          "midi": 36,
          "name": "C2",
          "ticks": 123235,
          "time": 160.46223958333334,
          "velocity": 0.4015748031496063
        },
        {
          "duration": 0,
          "durationTicks": 0,
          "midi": 35,
          "name": "B1",
          "ticks": 123245,
          "time": 160.47526041666666,
          "velocity": 0.4251968503937008
        },
        {
          "duration": 0.12760416666668561,
          "durationTicks": 98,
          "midi": 87,
          "name": "D#6",
          "ticks": 123254,
          "time": 160.48697916666666,
          "velocity": 0.2125984251968504
        },
        {
          "duration": 0,
          "durationTicks": 0,
          "midi": 37,
          "name": "C#2",
          "ticks": 123263,
          "time": 160.49869791666666,
          "velocity": 0.3779527559055118
        },
        {
          "duration": 0,
          "durationTicks": 0,
          "midi": 60,
          "name": "C4",
          "ticks": 123263,
          "time": 160.49869791666666,
          "velocity": 0.2283464566929134
        },
        {
          "duration": 0,
          "durationTicks": 0,
          "midi": 36,
          "name": "C2",
          "ticks": 123281,
          "time": 160.52213541666666,
          "velocity": 0.3937007874015748
        },
        {
          "duration": 0.1276041666666572,
          "durationTicks": 98,
          "midi": 84,
          "name": "C6",
          "ticks": 123298,
          "time": 160.54427083333334,
          "velocity": 0.2125984251968504
        },
        {
          "duration": 0,
          "durationTicks": 0,
          "midi": 79,
          "name": "G5",
          "ticks": 123317,
          "time": 160.56901041666666,
          "velocity": 0.1732283464566929
        },
        {
          "duration": 0.12760416666668561,
          "durationTicks": 98,
          "midi": 68,
          "name": "G#4",
          "ticks": 123317,
          "time": 160.56901041666666,
          "velocity": 0.1968503937007874
        },
        {
          "duration": 0,
          "durationTicks": 0,
          "midi": 75,
          "name": "D#5",
          "ticks": 123336,
          "time": 160.59375,
          "velocity": 0.16535433070866143
        },
        {
          "duration": 0,
          "durationTicks": 0,
          "midi": 71,
          "name": "B4",
          "ticks": 123345,
          "time": 160.60546875,
          "velocity": 0.1889763779527559
        },
        {
          "duration": 0.1263020833333428,
          "durationTicks": 97,
          "midi": 82,
          "name": "A#5",
          "ticks": 123345,
          "time": 160.60546875,
          "velocity": 0.2204724409448819
        },
        {
          "duration": 0,
          "durationTicks": 0,
          "midi": 79,
          "name": "G5",
          "ticks": 123363,
          "time": 160.62890625,
          "velocity": 0.18110236220472442
        },
        {
          "duration": 0,
          "durationTicks": 0,
          "midi": 75,
          "name": "D#5",
          "ticks": 123381,
          "time": 160.65234375,
          "velocity": 0.18110236220472442
        },
        {
          "duration": 0,
          "durationTicks": 0,
          "midi": 91,
          "name": "G6",
          "ticks": 123408,
          "time": 160.6875,
          "velocity": 0.11811023622047244
        },
        {
          "duration": 0.1263020833333428,
          "durationTicks": 97,
          "midi": 89,
          "name": "F6",
          "ticks": 123417,
          "time": 160.69921875,
          "velocity": 0.08661417322834646
        },
        {
          "duration": 0.1263020833333428,
          "durationTicks": 97,
          "midi": 84,
          "name": "C6",
          "ticks": 123417,
          "time": 160.69921875,
          "velocity": 0.11023622047244094
        },
        {
          "duration": 0.12630208333331439,
          "durationTicks": 97,
          "midi": 93,
          "name": "A6",
          "ticks": 123427,
          "time": 160.71223958333334,
          "velocity": 0.08661417322834646
        },
        {
          "duration": 0.12630208333331439,
          "durationTicks": 97,
          "midi": 65,
          "name": "F4",
          "ticks": 123427,
          "time": 160.71223958333334,
          "velocity": 0.25984251968503935
        },
        {
          "duration": 0.12630208333331439,
          "durationTicks": 97,
          "midi": 70,
          "name": "A#4",
          "ticks": 123427,
          "time": 160.71223958333334,
          "velocity": 0.1732283464566929
        },
        {
          "duration": 0,
          "durationTicks": 0,
          "midi": 87,
          "name": "D#6",
          "ticks": 123454,
          "time": 160.74739583333334,
          "velocity": 0.11023622047244094
        },
        {
          "duration": 0,
          "durationTicks": 0,
          "midi": 68,
          "name": "G#4",
          "ticks": 123498,
          "time": 160.8046875,
          "velocity": 0.1889763779527559
        },
        {
          "duration": 0,
          "durationTicks": 0,
          "midi": 75,
          "name": "D#5",
          "ticks": 123507,
          "time": 160.81640625,
          "velocity": 0.11811023622047244
        },
        {
          "duration": 0.1276041666666572,
          "durationTicks": 98,
          "midi": 36,
          "name": "C2",
          "ticks": 123507,
          "time": 160.81640625,
          "velocity": 0.3779527559055118
        },
        {
          "duration": 0.1276041666666572,
          "durationTicks": 98,
          "midi": 79,
          "name": "G5",
          "ticks": 123507,
          "time": 160.81640625,
          "velocity": 0.2283464566929134
        },
        {
          "duration": 0,
          "durationTicks": 0,
          "midi": 60,
          "name": "C4",
          "ticks": 123517,
          "time": 160.82942708333334,
          "velocity": 0.23622047244094488
        },
        {
          "duration": 0,
          "durationTicks": 0,
          "midi": 67,
          "name": "G4",
          "ticks": 123526,
          "time": 160.84114583333334,
          "velocity": 0.1968503937007874
        },
        {
          "duration": 0,
          "durationTicks": 0,
          "midi": 76,
          "name": "E5",
          "ticks": 123526,
          "time": 160.84114583333334,
          "velocity": 0.11023622047244094
        },
        {
          "duration": 0.1276041666666572,
          "durationTicks": 98,
          "midi": 63,
          "name": "D#4",
          "ticks": 123526,
          "time": 160.84114583333334,
          "velocity": 0.2677165354330709
        },
        {
          "duration": 0.1276041666666572,
          "durationTicks": 98,
          "midi": 82,
          "name": "A#5",
          "ticks": 123526,
          "time": 160.84114583333334,
          "velocity": 0.16535433070866143
        },
        {
          "duration": 0.1276041666666572,
          "durationTicks": 98,
          "midi": 70,
          "name": "A#4",
          "ticks": 123535,
          "time": 160.85286458333334,
          "velocity": 0.18110236220472442
        },
        {
          "duration": 0,
          "durationTicks": 0,
          "midi": 60,
          "name": "C4",
          "ticks": 123545,
          "time": 160.86588541666666,
          "velocity": 0.2283464566929134
        },
        {
          "duration": 0,
          "durationTicks": 0,
          "midi": 72,
          "name": "C5",
          "ticks": 123562,
          "time": 160.88802083333334,
          "velocity": 0.07874015748031496
        },
        {
          "duration": 0,
          "durationTicks": 0,
          "midi": 67,
          "name": "G4",
          "ticks": 123562,
          "time": 160.88802083333334,
          "velocity": 0.2047244094488189
        },
        {
          "duration": 0,
          "durationTicks": 0,
          "midi": 60,
          "name": "C4",
          "ticks": 123571,
          "time": 160.89973958333334,
          "velocity": 0.2283464566929134
        },
        {
          "duration": 0,
          "durationTicks": 0,
          "midi": 90,
          "name": "F#6",
          "ticks": 123589,
          "time": 160.92317708333334,
          "velocity": 0.11023622047244094
        },
        {
          "duration": 0,
          "durationTicks": 0,
          "midi": 92,
          "name": "G#6",
          "ticks": 123598,
          "time": 160.93489583333334,
          "velocity": 0.06299212598425197
        },
        {
          "duration": 0,
          "durationTicks": 0,
          "midi": 86,
          "name": "D6",
          "ticks": 123598,
          "time": 160.93489583333334,
          "velocity": 0.08661417322834646
        },
        {
          "duration": 0.1276041666666572,
          "durationTicks": 98,
          "midi": 77,
          "name": "F5",
          "ticks": 123598,
          "time": 160.93489583333334,
          "velocity": 0.15748031496062992
        },
        {
          "duration": 0.1276041666666572,
          "durationTicks": 98,
          "midi": 84,
          "name": "C6",
          "ticks": 123598,
          "time": 160.93489583333334,
          "velocity": 0.1889763779527559
        },
        {
          "duration": 0,
          "durationTicks": 0,
          "midi": 57,
          "name": "A3",
          "ticks": 123608,
          "time": 160.94791666666666,
          "velocity": 0.30708661417322836
        },
        {
          "duration": 0.12760416666668561,
          "durationTicks": 98,
          "midi": 65,
          "name": "F4",
          "ticks": 123617,
          "time": 160.95963541666666,
          "velocity": 0.2992125984251969
        },
        {
          "duration": 0,
          "durationTicks": 0,
          "midi": 75,
          "name": "D#5",
          "ticks": 123626,
          "time": 160.97135416666666,
          "velocity": 0.1968503937007874
        },
        {
          "duration": 0,
          "durationTicks": 0,
          "midi": 38,
          "name": "D2",
          "ticks": 123626,
          "time": 160.97135416666666,
          "velocity": 0.16535433070866143
        },
        {
          "duration": 0,
          "durationTicks": 0,
          "midi": 70,
          "name": "A#4",
          "ticks": 123645,
          "time": 160.99609375,
          "velocity": 0.1732283464566929
        },
        {
          "duration": 0,
          "durationTicks": 0,
          "midi": 79,
          "name": "G5",
          "ticks": 123654,
          "time": 161.0078125,
          "velocity": 0.1732283464566929
        },
        {
          "duration": 0,
          "durationTicks": 0,
          "midi": 57,
          "name": "A3",
          "ticks": 123672,
          "time": 161.03125,
          "velocity": 0.11023622047244094
        },
        {
          "duration": 0,
          "durationTicks": 0,
          "midi": 75,
          "name": "D#5",
          "ticks": 123672,
          "time": 161.03125,
          "velocity": 0.1732283464566929
        },
        {
          "duration": 0.125,
          "durationTicks": 96,
          "midi": 79,
          "name": "G5",
          "ticks": 123699,
          "time": 161.06640625,
          "velocity": 0.1732283464566929
        },
        {
          "duration": 0.125,
          "durationTicks": 96,
          "midi": 60,
          "name": "C4",
          "ticks": 123708,
          "time": 161.078125,
          "velocity": 0.31496062992125984
        },
        {
          "duration": 0.09244791666665719,
          "durationTicks": 71,
          "midi": 82,
          "name": "A#5",
          "ticks": 123735,
          "time": 161.11328125,
          "velocity": 0.07874015748031496
        },
        {
          "duration": 0,
          "durationTicks": 0,
          "midi": 63,
          "name": "D#4",
          "ticks": 123762,
          "time": 161.1484375,
          "velocity": 0.25196850393700787
        },
        {
          "duration": 0.125,
          "durationTicks": 96,
          "midi": 92,
          "name": "G#6",
          "ticks": 123779,
          "time": 161.17057291666666,
          "velocity": 0.1889763779527559
        },
        {
          "duration": 0,
          "durationTicks": 0,
          "midi": 73,
          "name": "C#5",
          "ticks": 123797,
          "time": 161.19401041666666,
          "velocity": 0.12598425196850394
        },
        {
          "duration": 0.1263020833333428,
          "durationTicks": 97,
          "midi": 37,
          "name": "C#2",
          "ticks": 123797,
          "time": 161.19401041666666,
          "velocity": 0.3779527559055118
        },
        {
          "duration": 0.1263020833333428,
          "durationTicks": 97,
          "midi": 68,
          "name": "G#4",
          "ticks": 123797,
          "time": 161.19401041666666,
          "velocity": 0.1732283464566929
        },
        {
          "duration": 0.1263020833333428,
          "durationTicks": 97,
          "midi": 80,
          "name": "G#5",
          "ticks": 123797,
          "time": 161.19401041666666,
          "velocity": 0.2283464566929134
        },
        {
          "duration": 0.25390625,
          "durationTicks": 195,
          "midi": 77,
          "name": "F5",
          "ticks": 123797,
          "time": 161.19401041666666,
          "velocity": 0.14960629921259844
        },
        {
          "duration": 0.03255208333334281,
          "durationTicks": 25,
          "midi": 82,
          "name": "A#5",
          "ticks": 123806,
          "time": 161.20572916666666,
          "velocity": 0.05511811023622047
        },
        {
          "duration": 0.1263020833333428,
          "durationTicks": 97,
          "midi": 63,
          "name": "D#4",
          "ticks": 123806,
          "time": 161.20572916666666,
          "velocity": 0.33070866141732286
        },
        {
          "duration": 0.12760416666668561,
          "durationTicks": 98,
          "midi": 87,
          "name": "D#6",
          "ticks": 123824,
          "time": 161.22916666666666,
          "velocity": 0.2204724409448819
        },
        {
          "duration": 0,
          "durationTicks": 0,
          "midi": 72,
          "name": "C5",
          "ticks": 123833,
          "time": 161.24088541666666,
          "velocity": 0.2047244094488189
        },
        {
          "duration": 0.12760416666668561,
          "durationTicks": 98,
          "midi": 91,
          "name": "G6",
          "ticks": 123833,
          "time": 161.24088541666666,
          "velocity": 0.09448818897637795
        },
        {
          "duration": 0.12890625,
          "durationTicks": 99,
          "midi": 84,
          "name": "C6",
          "ticks": 123878,
          "time": 161.29947916666666,
          "velocity": 0.2283464566929134
        },
        {
          "duration": 0.12890625,
          "durationTicks": 99,
          "midi": 73,
          "name": "C#5",
          "ticks": 123878,
          "time": 161.29947916666666,
          "velocity": 0.1968503937007874
        },
        {
          "duration": 0,
          "durationTicks": 0,
          "midi": 61,
          "name": "C#4",
          "ticks": 123887,
          "time": 161.31119791666666,
          "velocity": 0.25984251968503935
        },
        {
          "duration": 0.12760416666668561,
          "durationTicks": 98,
          "midi": 65,
          "name": "F4",
          "ticks": 123896,
          "time": 161.32291666666666,
          "velocity": 0.36220472440944884
        },
        {
          "duration": 0.1276041666666572,
          "durationTicks": 98,
          "midi": 68,
          "name": "G#4",
          "ticks": 123906,
          "time": 161.3359375,
          "velocity": 0.1732283464566929
        },
        {
          "duration": 0,
          "durationTicks": 0,
          "midi": 37,
          "name": "C#2",
          "ticks": 123915,
          "time": 161.34765625,
          "velocity": 0.4094488188976378
        },
        {
          "duration": 0,
          "durationTicks": 0,
          "midi": 75,
          "name": "D#5",
          "ticks": 123915,
          "time": 161.34765625,
          "velocity": 0.18110236220472442
        },
        {
          "duration": 0.1276041666666572,
          "durationTicks": 98,
          "midi": 80,
          "name": "G#5",
          "ticks": 123915,
          "time": 161.34765625,
          "velocity": 0.25196850393700787
        },
        {
          "duration": 0.25390625,
          "durationTicks": 195,
          "midi": 56,
          "name": "G#3",
          "ticks": 123915,
          "time": 161.34765625,
          "velocity": 0.11023622047244094
        },
        {
          "duration": 0,
          "durationTicks": 0,
          "midi": 36,
          "name": "C2",
          "ticks": 123924,
          "time": 161.359375,
          "velocity": 0.4094488188976378
        },
        {
          "duration": 0,
          "durationTicks": 0,
          "midi": 93,
          "name": "A6",
          "ticks": 123924,
          "time": 161.359375,
          "velocity": 0.07086614173228346
        },
        {
          "duration": 0,
          "durationTicks": 0,
          "midi": 61,
          "name": "C#4",
          "ticks": 123934,
          "time": 161.37239583333334,
          "velocity": 0.2125984251968504
        },
        {
          "duration": 0.12630208333331439,
          "durationTicks": 97,
          "midi": 72,
          "name": "C5",
          "ticks": 123943,
          "time": 161.38411458333334,
          "velocity": 0.14173228346456693
        },
        {
          "duration": 0.12630208333331439,
          "durationTicks": 97,
          "midi": 37,
          "name": "C#2",
          "ticks": 123952,
          "time": 161.39583333333334,
          "velocity": 0.3858267716535433
        },
        {
          "duration": 0,
          "durationTicks": 0,
          "midi": 75,
          "name": "D#5",
          "ticks": 123961,
          "time": 161.40755208333334,
          "velocity": 0.16535433070866143
        },
        {
          "duration": 0,
          "durationTicks": 0,
          "midi": 87,
          "name": "D#6",
          "ticks": 123961,
          "time": 161.40755208333334,
          "velocity": 0.05511811023622047
        },
        {
          "duration": 0.12630208333331439,
          "durationTicks": 97,
          "midi": 63,
          "name": "D#4",
          "ticks": 123997,
          "time": 161.45442708333334,
          "velocity": 0.2204724409448819
        },
        {
          "duration": 0.12630208333331439,
          "durationTicks": 97,
          "midi": 68,
          "name": "G#4",
          "ticks": 123997,
          "time": 161.45442708333334,
          "velocity": 0.3543307086614173
        },
        {
          "duration": 0.12630208333331439,
          "durationTicks": 97,
          "midi": 87,
          "name": "D#6",
          "ticks": 124015,
          "time": 161.47786458333334,
          "velocity": 0.14960629921259844
        },
        {
          "duration": 0.1276041666666572,
          "durationTicks": 98,
          "midi": 84,
          "name": "C6",
          "ticks": 124078,
          "time": 161.55989583333334,
          "velocity": 0.1968503937007874
        },
        {
          "duration": 0.2486979166666572,
          "durationTicks": 191,
          "midi": 65,
          "name": "F4",
          "ticks": 124096,
          "time": 161.58333333333334,
          "velocity": 0.3543307086614173
        },
        {
          "duration": 0.1276041666666572,
          "durationTicks": 98,
          "midi": 93,
          "name": "A6",
          "ticks": 124105,
          "time": 161.59505208333334,
          "velocity": 0.07874015748031496
        },
        {
          "duration": 0.12760416666668561,
          "durationTicks": 98,
          "midi": 80,
          "name": "G#5",
          "ticks": 124124,
          "time": 161.61979166666666,
          "velocity": 0.25196850393700787
        },
        {
          "duration": 0,
          "durationTicks": 0,
          "midi": 61,
          "name": "C#4",
          "ticks": 124160,
          "time": 161.66666666666666,
          "velocity": 0.1889763779527559
        },
        {
          "duration": 0,
          "durationTicks": 0,
          "midi": 72,
          "name": "C5",
          "ticks": 124169,
          "time": 161.67838541666666,
          "velocity": 0.1889763779527559
        },
        {
          "duration": 0,
          "durationTicks": 0,
          "midi": 37,
          "name": "C#2",
          "ticks": 124179,
          "time": 161.69140625,
          "velocity": 0.3858267716535433
        },
        {
          "duration": 0.2356770833333428,
          "durationTicks": 181,
          "midi": 87,
          "name": "D#6",
          "ticks": 124179,
          "time": 161.69140625,
          "velocity": 0.1889763779527559
        },
        {
          "duration": 0.2526041666666572,
          "durationTicks": 194,
          "midi": 68,
          "name": "G#4",
          "ticks": 124179,
          "time": 161.69140625,
          "velocity": 0.3779527559055118
        },
        {
          "duration": 0,
          "durationTicks": 0,
          "midi": 36,
          "name": "C2",
          "ticks": 124196,
          "time": 161.71354166666666,
          "velocity": 0.41732283464566927
        },
        {
          "duration": 0,
          "durationTicks": 0,
          "midi": 75,
          "name": "D#5",
          "ticks": 124196,
          "time": 161.71354166666666,
          "velocity": 0.1968503937007874
        },
        {
          "duration": 0,
          "durationTicks": 0,
          "midi": 56,
          "name": "G#3",
          "ticks": 124196,
          "time": 161.71354166666666,
          "velocity": 0.08661417322834646
        },
        {
          "duration": 0,
          "durationTicks": 0,
          "midi": 61,
          "name": "C#4",
          "ticks": 124206,
          "time": 161.7265625,
          "velocity": 0.25984251968503935
        },
        {
          "duration": 0,
          "durationTicks": 0,
          "midi": 38,
          "name": "D2",
          "ticks": 124215,
          "time": 161.73828125,
          "velocity": 0.3779527559055118
        },
        {
          "duration": 0,
          "durationTicks": 0,
          "midi": 72,
          "name": "C5",
          "ticks": 124215,
          "time": 161.73828125,
          "velocity": 0.1889763779527559
        },
        {
          "duration": 0,
          "durationTicks": 0,
          "midi": 75,
          "name": "D#5",
          "ticks": 124242,
          "time": 161.7734375,
          "velocity": 0.1732283464566929
        },
        {
          "duration": 0.09375,
          "durationTicks": 72,
          "midi": 56,
          "name": "G#3",
          "ticks": 124242,
          "time": 161.7734375,
          "velocity": 0.08661417322834646
        },
        {
          "duration": 0,
          "durationTicks": 0,
          "midi": 61,
          "name": "C#4",
          "ticks": 124251,
          "time": 161.78515625,
          "velocity": 0.25984251968503935
        },
        {
          "duration": 0,
          "durationTicks": 0,
          "midi": 72,
          "name": "C5",
          "ticks": 124260,
          "time": 161.796875,
          "velocity": 0.07874015748031496
        },
        {
          "duration": 0.1263020833333428,
          "durationTicks": 97,
          "midi": 84,
          "name": "C6",
          "ticks": 124260,
          "time": 161.796875,
          "velocity": 0.14173228346456693
        },
        {
          "duration": 0.1263020833333428,
          "durationTicks": 97,
          "midi": 37,
          "name": "C#2",
          "ticks": 124260,
          "time": 161.796875,
          "velocity": 0.3779527559055118
        },
        {
          "duration": 0.006510416666657193,
          "durationTicks": 5,
          "midi": 65,
          "name": "F4",
          "ticks": 124287,
          "time": 161.83203125,
          "velocity": 0.23622047244094488
        },
        {
          "duration": 0,
          "durationTicks": 0,
          "midi": 61,
          "name": "C#4",
          "ticks": 124305,
          "time": 161.85546875,
          "velocity": 0.2440944881889764
        },
        {
          "duration": 0.03255208333334281,
          "durationTicks": 25,
          "midi": 56,
          "name": "G#3",
          "ticks": 124314,
          "time": 161.8671875,
          "velocity": 0.08661417322834646
        },
        {
          "duration": 0,
          "durationTicks": 0,
          "midi": 77,
          "name": "F5",
          "ticks": 124332,
          "time": 161.890625,
          "velocity": 0.07874015748031496
        },
        {
          "duration": 0,
          "durationTicks": 0,
          "midi": 61,
          "name": "C#4",
          "ticks": 124350,
          "time": 161.9140625,
          "velocity": 0.2283464566929134
        },
        {
          "duration": 0,
          "durationTicks": 0,
          "midi": 72,
          "name": "C5",
          "ticks": 124360,
          "time": 161.92708333333334,
          "velocity": 0.2283464566929134
        },
        {
          "duration": 0.016927083333314386,
          "durationTicks": 13,
          "midi": 87,
          "name": "D#6",
          "ticks": 124360,
          "time": 161.92708333333334,
          "velocity": 0.07086614173228346
        },
        {
          "duration": 0,
          "durationTicks": 0,
          "midi": 57,
          "name": "A3",
          "ticks": 124377,
          "time": 161.94921875,
          "velocity": 0.2992125984251969
        },
        {
          "duration": 0,
          "durationTicks": 0,
          "midi": 65,
          "name": "F4",
          "ticks": 124377,
          "time": 161.94921875,
          "velocity": 0.12598425196850394
        },
        {
          "duration": 0,
          "durationTicks": 0,
          "midi": 73,
          "name": "C#5",
          "ticks": 124377,
          "time": 161.94921875,
          "velocity": 0.1732283464566929
        },
        {
          "duration": 0.1276041666666572,
          "durationTicks": 98,
          "midi": 70,
          "name": "A#4",
          "ticks": 124377,
          "time": 161.94921875,
          "velocity": 0.3464566929133858
        },
        {
          "duration": 0.1276041666666572,
          "durationTicks": 98,
          "midi": 87,
          "name": "D#6",
          "ticks": 124377,
          "time": 161.94921875,
          "velocity": 0.13385826771653545
        },
        {
          "duration": 0.2526041666666572,
          "durationTicks": 194,
          "midi": 49,
          "name": "C#3",
          "ticks": 124377,
          "time": 161.94921875,
          "velocity": 0.3700787401574803
        },
        {
          "duration": 0,
          "durationTicks": 0,
          "midi": 38,
          "name": "D2",
          "ticks": 124387,
          "time": 161.96223958333334,
          "velocity": 0.2283464566929134
        },
        {
          "duration": 0,
          "durationTicks": 0,
          "midi": 75,
          "name": "D#5",
          "ticks": 124387,
          "time": 161.96223958333334,
          "velocity": 0.16535433070866143
        },
        {
          "duration": 0,
          "durationTicks": 0,
          "midi": 89,
          "name": "F6",
          "ticks": 124387,
          "time": 161.96223958333334,
          "velocity": 0.07874015748031496
        },
        {
          "duration": 0.12630208333331439,
          "durationTicks": 97,
          "midi": 65,
          "name": "F4",
          "ticks": 124423,
          "time": 162.00911458333334,
          "velocity": 0.05511811023622047
        },
        {
          "duration": 0,
          "durationTicks": 0,
          "midi": 57,
          "name": "A3",
          "ticks": 124432,
          "time": 162.02083333333334,
          "velocity": 0.11811023622047244
        },
        {
          "duration": 0,
          "durationTicks": 0,
          "midi": 75,
          "name": "D#5",
          "ticks": 124432,
          "time": 162.02083333333334,
          "velocity": 0.1732283464566929
        },
        {
          "duration": 0.125,
          "durationTicks": 96,
          "midi": 68,
          "name": "G#4",
          "ticks": 124468,
          "time": 162.06770833333334,
          "velocity": 0.2677165354330709
        },
        {
          "duration": 0.125,
          "durationTicks": 96,
          "midi": 88,
          "name": "E6",
          "ticks": 124478,
          "time": 162.08072916666666,
          "velocity": 0.07874015748031496
        },
        {
          "duration": 0.125,
          "durationTicks": 96,
          "midi": 72,
          "name": "C5",
          "ticks": 124478,
          "time": 162.08072916666666,
          "velocity": 0.31496062992125984
        },
        {
          "duration": 0,
          "durationTicks": 0,
          "midi": 91,
          "name": "G6",
          "ticks": 124522,
          "time": 162.13802083333334,
          "velocity": 0.10236220472440945
        },
        {
          "duration": 0,
          "durationTicks": 0,
          "midi": 50,
          "name": "D3",
          "ticks": 124540,
          "time": 162.16145833333334,
          "velocity": 0.3464566929133858
        },
        {
          "duration": 0,
          "durationTicks": 0,
          "midi": 61,
          "name": "C#4",
          "ticks": 124540,
          "time": 162.16145833333334,
          "velocity": 0.1968503937007874
        },
        {
          "duration": 0,
          "durationTicks": 0,
          "midi": 56,
          "name": "G#3",
          "ticks": 124557,
          "time": 162.18359375,
          "velocity": 0.06299212598425197
        },
        {
          "duration": 0.1263020833333428,
          "durationTicks": 97,
          "midi": 75,
          "name": "D#5",
          "ticks": 124557,
          "time": 162.18359375,
          "velocity": 0.29133858267716534
        },
        {
          "duration": 0.12630208333331439,
          "durationTicks": 97,
          "midi": 65,
          "name": "F4",
          "ticks": 124567,
          "time": 162.19661458333334,
          "velocity": 0.1732283464566929
        },
        {
          "duration": 0.12630208333331439,
          "durationTicks": 97,
          "midi": 70,
          "name": "A#4",
          "ticks": 124567,
          "time": 162.19661458333334,
          "velocity": 0.2283464566929134
        },
        {
          "duration": 0.2526041666666572,
          "durationTicks": 194,
          "midi": 37,
          "name": "C#2",
          "ticks": 124567,
          "time": 162.19661458333334,
          "velocity": 0.3779527559055118
        },
        {
          "duration": 0,
          "durationTicks": 0,
          "midi": 94,
          "name": "A#6",
          "ticks": 124576,
          "time": 162.20833333333334,
          "velocity": 0.08661417322834646
        },
        {
          "duration": 0,
          "durationTicks": 0,
          "midi": 61,
          "name": "C#4",
          "ticks": 124585,
          "time": 162.22005208333334,
          "velocity": 0.25984251968503935
        },
        {
          "duration": 0.125,
          "durationTicks": 96,
          "midi": 68,
          "name": "G#4",
          "ticks": 124585,
          "time": 162.22005208333334,
          "velocity": 0.1732283464566929
        },
        {
          "duration": 0,
          "durationTicks": 0,
          "midi": 61,
          "name": "C#4",
          "ticks": 124639,
          "time": 162.29036458333334,
          "velocity": 0.2125984251968504
        },
        {
          "duration": 0.125,
          "durationTicks": 96,
          "midi": 56,
          "name": "G#3",
          "ticks": 124639,
          "time": 162.29036458333334,
          "velocity": 0.10236220472440945
        },
        {
          "duration": 0.12630208333331439,
          "durationTicks": 97,
          "midi": 84,
          "name": "C6",
          "ticks": 124657,
          "time": 162.31380208333334,
          "velocity": 0.13385826771653545
        },
        {
          "duration": 0,
          "durationTicks": 0,
          "midi": 88,
          "name": "E6",
          "ticks": 124684,
          "time": 162.34895833333334,
          "velocity": 0.07874015748031496
        },
        {
          "duration": 0,
          "durationTicks": 0,
          "midi": 91,
          "name": "G6",
          "ticks": 124684,
          "time": 162.34895833333334,
          "velocity": 0.07086614173228346
        },
        {
          "duration": 0.12630208333331439,
          "durationTicks": 97,
          "midi": 72,
          "name": "C5",
          "ticks": 124711,
          "time": 162.38411458333334,
          "velocity": 0.2283464566929134
        },
        {
          "duration": 0.1263020833333428,
          "durationTicks": 97,
          "midi": 70,
          "name": "A#4",
          "ticks": 124728,
          "time": 162.40625,
          "velocity": 0.2440944881889764
        },
        {
          "duration": 0.1263020833333428,
          "durationTicks": 97,
          "midi": 89,
          "name": "F6",
          "ticks": 124728,
          "time": 162.40625,
          "velocity": 0.14173228346456693
        },
        {
          "duration": 0,
          "durationTicks": 0,
          "midi": 48,
          "name": "C3",
          "ticks": 124737,
          "time": 162.41796875,
          "velocity": 0.25984251968503935
        },
        {
          "duration": 0.09505208333334281,
          "durationTicks": 73,
          "midi": 86,
          "name": "D6",
          "ticks": 124737,
          "time": 162.41796875,
          "velocity": 0.09448818897637795
        },
        {
          "duration": 0,
          "durationTicks": 0,
          "midi": 58,
          "name": "A#3",
          "ticks": 124747,
          "time": 162.43098958333334,
          "velocity": 0.1968503937007874
        },
        {
          "duration": 0.2565104166666572,
          "durationTicks": 197,
          "midi": 79,
          "name": "G5",
          "ticks": 124747,
          "time": 162.43098958333334,
          "velocity": 0.2283464566929134
        },
        {
          "duration": 0,
          "durationTicks": 0,
          "midi": 29,
          "name": "F1",
          "ticks": 124756,
          "time": 162.44270833333334,
          "velocity": 0.4330708661417323
        },
        {
          "duration": 0,
          "durationTicks": 0,
          "midi": 75,
          "name": "D#5",
          "ticks": 124756,
          "time": 162.44270833333334,
          "velocity": 0.1732283464566929
        },
        {
          "duration": 0.12630208333331439,
          "durationTicks": 97,
          "midi": 67,
          "name": "G4",
          "ticks": 124756,
          "time": 162.44270833333334,
          "velocity": 0.18110236220472442
        },
        {
          "duration": 0,
          "durationTicks": 0,
          "midi": 59,
          "name": "B3",
          "ticks": 124765,
          "time": 162.45442708333334,
          "velocity": 0.2204724409448819
        },
        {
          "duration": 0,
          "durationTicks": 0,
          "midi": 30,
          "name": "F#1",
          "ticks": 124765,
          "time": 162.45442708333334,
          "velocity": 0.4330708661417323
        },
        {
          "duration": 0.12630208333331439,
          "durationTicks": 97,
          "midi": 63,
          "name": "D#4",
          "ticks": 124765,
          "time": 162.45442708333334,
          "velocity": 0.1968503937007874
        },
        {
          "duration": 0,
          "durationTicks": 0,
          "midi": 60,
          "name": "C4",
          "ticks": 124792,
          "time": 162.48958333333334,
          "velocity": 0.2283464566929134
        },
        {
          "duration": 0,
          "durationTicks": 0,
          "midi": 77,
          "name": "F5",
          "ticks": 124792,
          "time": 162.48958333333334,
          "velocity": 0.05511811023622047
        },
        {
          "duration": 0.1276041666666572,
          "durationTicks": 98,
          "midi": 29,
          "name": "F1",
          "ticks": 124792,
          "time": 162.48958333333334,
          "velocity": 0.4015748031496063
        },
        {
          "duration": 0.03125,
          "durationTicks": 24,
          "midi": 86,
          "name": "D6",
          "ticks": 124810,
          "time": 162.51302083333334,
          "velocity": 0.08661417322834646
        },
        {
          "duration": 0.1302083333333428,
          "durationTicks": 100,
          "midi": 48,
          "name": "C3",
          "ticks": 124827,
          "time": 162.53515625,
          "velocity": 0.07874015748031496
        },
        {
          "duration": 0.13020833333331439,
          "durationTicks": 100,
          "midi": 80,
          "name": "G#5",
          "ticks": 124837,
          "time": 162.54817708333334,
          "velocity": 0.12598425196850394
        },
        {
          "duration": 0,
          "durationTicks": 0,
          "midi": 68,
          "name": "G#4",
          "ticks": 124846,
          "time": 162.55989583333334,
          "velocity": 0.23622047244094488
        },
        {
          "duration": 0.13020833333331439,
          "durationTicks": 100,
          "midi": 72,
          "name": "C5",
          "ticks": 124846,
          "time": 162.55989583333334,
          "velocity": 0.11811023622047244
        },
        {
          "duration": 0,
          "durationTicks": 0,
          "midi": 60,
          "name": "C4",
          "ticks": 124874,
          "time": 162.59635416666666,
          "velocity": 0.2204724409448819
        },
        {
          "duration": 0,
          "durationTicks": 0,
          "midi": 68,
          "name": "G#4",
          "ticks": 124883,
          "time": 162.60807291666666,
          "velocity": 0.2283464566929134
        },
        {
          "duration": 0,
          "durationTicks": 0,
          "midi": 84,
          "name": "C6",
          "ticks": 124893,
          "time": 162.62109375,
          "velocity": 0.06299212598425197
        },
        {
          "duration": 0,
          "durationTicks": 0,
          "midi": 58,
          "name": "A#3",
          "ticks": 124902,
          "time": 162.6328125,
          "velocity": 0.2283464566929134
        },
        {
          "duration": 0,
          "durationTicks": 0,
          "midi": 87,
          "name": "D#6",
          "ticks": 124902,
          "time": 162.6328125,
          "velocity": 0.07086614173228346
        },
        {
          "duration": 0,
          "durationTicks": 0,
          "midi": 68,
          "name": "G#4",
          "ticks": 124911,
          "time": 162.64453125,
          "velocity": 0.2440944881889764
        },
        {
          "duration": 0,
          "durationTicks": 0,
          "midi": 61,
          "name": "C#4",
          "ticks": 124920,
          "time": 162.65625,
          "velocity": 0.1889763779527559
        },
        {
          "duration": 0,
          "durationTicks": 0,
          "midi": 58,
          "name": "A#3",
          "ticks": 124930,
          "time": 162.66927083333334,
          "velocity": 0.1732283464566929
        },
        {
          "duration": 0,
          "durationTicks": 0,
          "midi": 70,
          "name": "A#4",
          "ticks": 124930,
          "time": 162.66927083333334,
          "velocity": 0.1732283464566929
        },
        {
          "duration": 0,
          "durationTicks": 0,
          "midi": 79,
          "name": "G5",
          "ticks": 124948,
          "time": 162.69270833333334,
          "velocity": 0.1732283464566929
        },
        {
          "duration": 0,
          "durationTicks": 0,
          "midi": 70,
          "name": "A#4",
          "ticks": 124966,
          "time": 162.71614583333334,
          "velocity": 0.14173228346456693
        },
        {
          "duration": 0,
          "durationTicks": 0,
          "midi": 31,
          "name": "G1",
          "ticks": 124975,
          "time": 162.72786458333334,
          "velocity": 0.2677165354330709
        },
        {
          "duration": 0,
          "durationTicks": 0,
          "midi": 77,
          "name": "F5",
          "ticks": 124985,
          "time": 162.74088541666666,
          "velocity": 0.07874015748031496
        },
        {
          "duration": 0,
          "durationTicks": 0,
          "midi": 79,
          "name": "G5",
          "ticks": 124994,
          "time": 162.75260416666666,
          "velocity": 0.1732283464566929
        },
        {
          "duration": 0,
          "durationTicks": 0,
          "midi": 75,
          "name": "D#5",
          "ticks": 125021,
          "time": 162.78776041666666,
          "velocity": 0.1968503937007874
        },
        {
          "duration": 0,
          "durationTicks": 0,
          "midi": 73,
          "name": "C#5",
          "ticks": 125038,
          "time": 162.80989583333334,
          "velocity": 0.11023622047244094
        },
        {
          "duration": 0.12630208333331439,
          "durationTicks": 97,
          "midi": 67,
          "name": "G4",
          "ticks": 125038,
          "time": 162.80989583333334,
          "velocity": 0.1968503937007874
        },
        {
          "duration": 0,
          "durationTicks": 0,
          "midi": 70,
          "name": "A#4",
          "ticks": 125083,
          "time": 162.86848958333334,
          "velocity": 0.13385826771653545
        },
        {
          "duration": 0,
          "durationTicks": 0,
          "midi": 66,
          "name": "F#4",
          "ticks": 125119,
          "time": 162.91536458333334,
          "velocity": 0.14960629921259844
        },
        {
          "duration": 0,
          "durationTicks": 0,
          "midi": 57,
          "name": "A3",
          "ticks": 125119,
          "time": 162.91536458333334,
          "velocity": 0.31496062992125984
        },
        {
          "duration": 0,
          "durationTicks": 0,
          "midi": 40,
          "name": "E2",
          "ticks": 125128,
          "time": 162.92708333333334,
          "velocity": 0.30708661417322836
        },
        {
          "duration": 0,
          "durationTicks": 0,
          "midi": 90,
          "name": "F#6",
          "ticks": 125128,
          "time": 162.92708333333334,
          "velocity": 0.07874015748031496
        },
        {
          "duration": 0.125,
          "durationTicks": 96,
          "midi": 80,
          "name": "G#5",
          "ticks": 125128,
          "time": 162.92708333333334,
          "velocity": 0.1889763779527559
        },
        {
          "duration": 0.25390625,
          "durationTicks": 195,
          "midi": 82,
          "name": "A#5",
          "ticks": 125128,
          "time": 162.92708333333334,
          "velocity": 0.11023622047244094
        },
        {
          "duration": 0.125,
          "durationTicks": 96,
          "midi": 75,
          "name": "D#5",
          "ticks": 125138,
          "time": 162.94010416666666,
          "velocity": 0.1968503937007874
        },
        {
          "duration": 0.125,
          "durationTicks": 96,
          "midi": 63,
          "name": "D#4",
          "ticks": 125138,
          "time": 162.94010416666666,
          "velocity": 0.1889763779527559
        },
        {
          "duration": 0.25390625,
          "durationTicks": 195,
          "midi": 70,
          "name": "A#4",
          "ticks": 125138,
          "time": 162.94010416666666,
          "velocity": 0.25984251968503935
        },
        {
          "duration": 0,
          "durationTicks": 0,
          "midi": 60,
          "name": "C4",
          "ticks": 125147,
          "time": 162.95182291666666,
          "velocity": 0.23622047244094488
        },
        {
          "duration": 0,
          "durationTicks": 0,
          "midi": 67,
          "name": "G4",
          "ticks": 125147,
          "time": 162.95182291666666,
          "velocity": 0.2204724409448819
        },
        {
          "duration": 0,
          "durationTicks": 0,
          "midi": 91,
          "name": "G6",
          "ticks": 125147,
          "time": 162.95182291666666,
          "velocity": 0.10236220472440945
        },
        {
          "duration": 0.10416666666668561,
          "durationTicks": 80,
          "midi": 39,
          "name": "D#2",
          "ticks": 125147,
          "time": 162.95182291666666,
          "velocity": 0.3858267716535433
        },
        {
          "duration": 0.125,
          "durationTicks": 96,
          "midi": 77,
          "name": "F5",
          "ticks": 125147,
          "time": 162.95182291666666,
          "velocity": 0.18110236220472442
        },
        {
          "duration": 0,
          "durationTicks": 0,
          "midi": 58,
          "name": "A#3",
          "ticks": 125192,
          "time": 163.01041666666666,
          "velocity": 0.23622047244094488
        },
        {
          "duration": 0.12760416666668561,
          "durationTicks": 98,
          "midi": 67,
          "name": "G4",
          "ticks": 125192,
          "time": 163.01041666666666,
          "velocity": 0.2283464566929134
        },
        {
          "duration": 0.1276041666666572,
          "durationTicks": 98,
          "midi": 73,
          "name": "C#5",
          "ticks": 125209,
          "time": 163.03255208333334,
          "velocity": 0.1732283464566929
        },
        {
          "duration": 0.020833333333314386,
          "durationTicks": 16,
          "midi": 39,
          "name": "D#2",
          "ticks": 125227,
          "time": 163.05598958333334,
          "velocity": 0.33858267716535434
        },
        {
          "duration": 0,
          "durationTicks": 0,
          "midi": 60,
          "name": "C4",
          "ticks": 125255,
          "time": 163.09244791666666,
          "velocity": 0.23622047244094488
        },
        {
          "duration": 0,
          "durationTicks": 0,
          "midi": 58,
          "name": "A#3",
          "ticks": 125264,
          "time": 163.10416666666666,
          "velocity": 0.25984251968503935
        },
        {
          "duration": 0,
          "durationTicks": 0,
          "midi": 63,
          "name": "D#4",
          "ticks": 125273,
          "time": 163.11588541666666,
          "velocity": 0.1732283464566929
        },
        {
          "duration": 0,
          "durationTicks": 0,
          "midi": 39,
          "name": "D#2",
          "ticks": 125283,
          "time": 163.12890625,
          "velocity": 0.3779527559055118
        },
        {
          "duration": 0,
          "durationTicks": 0,
          "midi": 75,
          "name": "D#5",
          "ticks": 125283,
          "time": 163.12890625,
          "velocity": 0.2047244094488189
        },
        {
          "duration": 0.1263020833333428,
          "durationTicks": 97,
          "midi": 80,
          "name": "G#5",
          "ticks": 125319,
          "time": 163.17578125,
          "velocity": 0.18110236220472442
        },
        {
          "duration": 0.3802083333333428,
          "durationTicks": 292,
          "midi": 77,
          "name": "F5",
          "ticks": 125364,
          "time": 163.234375,
          "velocity": 0.2755905511811024
        },
        {
          "duration": 0.1263020833333428,
          "durationTicks": 97,
          "midi": 73,
          "name": "C#5",
          "ticks": 125409,
          "time": 163.29296875,
          "velocity": 0.2047244094488189
        },
        {
          "duration": 0,
          "durationTicks": 0,
          "midi": 56,
          "name": "G#3",
          "ticks": 125418,
          "time": 163.3046875,
          "velocity": 0.29133858267716534
        },
        {
          "duration": 0.1263020833333428,
          "durationTicks": 97,
          "midi": 70,
          "name": "A#4",
          "ticks": 125454,
          "time": 163.3515625,
          "velocity": 0.2125984251968504
        },
        {
          "duration": 0.1263020833333428,
          "durationTicks": 97,
          "midi": 65,
          "name": "F4",
          "ticks": 125454,
          "time": 163.3515625,
          "velocity": 0.25984251968503935
        },
        {
          "duration": 0,
          "durationTicks": 0,
          "midi": 55,
          "name": "G3",
          "ticks": 125499,
          "time": 163.41015625,
          "velocity": 0.14173228346456693
        },
        {
          "duration": 0.1263020833333428,
          "durationTicks": 97,
          "midi": 87,
          "name": "D#6",
          "ticks": 125508,
          "time": 163.421875,
          "velocity": 0.05511811023622047
        },
        {
          "duration": 0.1263020833333428,
          "durationTicks": 97,
          "midi": 84,
          "name": "C6",
          "ticks": 125508,
          "time": 163.421875,
          "velocity": 0.15748031496062992
        },
        {
          "duration": 0.1263020833333428,
          "durationTicks": 97,
          "midi": 80,
          "name": "G#5",
          "ticks": 125508,
          "time": 163.421875,
          "velocity": 0.1889763779527559
        },
        {
          "duration": 0,
          "durationTicks": 0,
          "midi": 59,
          "name": "B3",
          "ticks": 125517,
          "time": 163.43359375,
          "velocity": 0.2204724409448819
        },
        {
          "duration": 0.1263020833333428,
          "durationTicks": 97,
          "midi": 93,
          "name": "A6",
          "ticks": 125517,
          "time": 163.43359375,
          "velocity": 0.07086614173228346
        },
        {
          "duration": 0,
          "durationTicks": 0,
          "midi": 47,
          "name": "B2",
          "ticks": 125527,
          "time": 163.44661458333334,
          "velocity": 0.11811023622047244
        },
        {
          "duration": 0.12630208333331439,
          "durationTicks": 97,
          "midi": 61,
          "name": "C#4",
          "ticks": 125527,
          "time": 163.44661458333334,
          "velocity": 0.1889763779527559
        },
        {
          "duration": 0,
          "durationTicks": 0,
          "midi": 34,
          "name": "A#1",
          "ticks": 125554,
          "time": 163.48177083333334,
          "velocity": 0.3937007874015748
        },
        {
          "duration": 0,
          "durationTicks": 0,
          "midi": 68,
          "name": "G#4",
          "ticks": 125571,
          "time": 163.50390625,
          "velocity": 0.05511811023622047
        },
        {
          "duration": 0,
          "durationTicks": 0,
          "midi": 35,
          "name": "B1",
          "ticks": 125598,
          "time": 163.5390625,
          "velocity": 0.33070866141732286
        },
        {
          "duration": 0,
          "durationTicks": 0,
          "midi": 57,
          "name": "A3",
          "ticks": 125598,
          "time": 163.5390625,
          "velocity": 0.2283464566929134
        },
        {
          "duration": 0,
          "durationTicks": 0,
          "midi": 75,
          "name": "D#5",
          "ticks": 125607,
          "time": 163.55078125,
          "velocity": 0.05511811023622047
        },
        {
          "duration": 0.12890625,
          "durationTicks": 99,
          "midi": 73,
          "name": "C#5",
          "ticks": 125607,
          "time": 163.55078125,
          "velocity": 0.2047244094488189
        },
        {
          "duration": 0.2565104166666572,
          "durationTicks": 197,
          "midi": 65,
          "name": "F4",
          "ticks": 125617,
          "time": 163.56380208333334,
          "velocity": 0.25984251968503935
        },
        {
          "duration": 0.1276041666666572,
          "durationTicks": 98,
          "midi": 61,
          "name": "C#4",
          "ticks": 125635,
          "time": 163.58723958333334,
          "velocity": 0.1968503937007874
        },
        {
          "duration": 0,
          "durationTicks": 0,
          "midi": 68,
          "name": "G#4",
          "ticks": 125645,
          "time": 163.60026041666666,
          "velocity": 0.07874015748031496
        },
        {
          "duration": 0,
          "durationTicks": 0,
          "midi": 57,
          "name": "A3",
          "ticks": 125654,
          "time": 163.61197916666666,
          "velocity": 0.2283464566929134
        },
        {
          "duration": 0,
          "durationTicks": 0,
          "midi": 70,
          "name": "A#4",
          "ticks": 125663,
          "time": 163.62369791666666,
          "velocity": 0.1968503937007874
        },
        {
          "duration": 0,
          "durationTicks": 0,
          "midi": 56,
          "name": "G#3",
          "ticks": 125673,
          "time": 163.63671875,
          "velocity": 0.1968503937007874
        },
        {
          "duration": 0,
          "durationTicks": 0,
          "midi": 69,
          "name": "A4",
          "ticks": 125699,
          "time": 163.67057291666666,
          "velocity": 0.16535433070866143
        },
        {
          "duration": 0.12760416666668561,
          "durationTicks": 98,
          "midi": 78,
          "name": "F#5",
          "ticks": 125699,
          "time": 163.67057291666666,
          "velocity": 0.11023622047244094
        },
        {
          "duration": 0.12760416666668561,
          "durationTicks": 98,
          "midi": 80,
          "name": "G#5",
          "ticks": 125699,
          "time": 163.67057291666666,
          "velocity": 0.13385826771653545
        },
        {
          "duration": 0.12760416666668561,
          "durationTicks": 98,
          "midi": 44,
          "name": "G#2",
          "ticks": 125699,
          "time": 163.67057291666666,
          "velocity": 0.3779527559055118
        },
        {
          "duration": 0,
          "durationTicks": 0,
          "midi": 73,
          "name": "C#5",
          "ticks": 125726,
          "time": 163.70572916666666,
          "velocity": 0.18110236220472442
        },
        {
          "duration": 0,
          "durationTicks": 0,
          "midi": 69,
          "name": "A4",
          "ticks": 125745,
          "time": 163.73046875,
          "velocity": 0.1732283464566929
        },
        {
          "duration": 0.1276041666666572,
          "durationTicks": 98,
          "midi": 84,
          "name": "C6",
          "ticks": 125754,
          "time": 163.7421875,
          "velocity": 0.08661417322834646
        },
        {
          "duration": 0,
          "durationTicks": 0,
          "midi": 93,
          "name": "A6",
          "ticks": 125781,
          "time": 163.77734375,
          "velocity": 0.07086614173228346
        },
        {
          "duration": 0.1276041666666572,
          "durationTicks": 98,
          "midi": 73,
          "name": "C#5",
          "ticks": 125781,
          "time": 163.77734375,
          "velocity": 0.16535433070866143
        },
        {
          "duration": 0,
          "durationTicks": 0,
          "midi": 45,
          "name": "A2",
          "ticks": 125791,
          "time": 163.79036458333334,
          "velocity": 0.3464566929133858
        },
        {
          "duration": 0,
          "durationTicks": 0,
          "midi": 58,
          "name": "A#3",
          "ticks": 125800,
          "time": 163.80208333333334,
          "velocity": 0.2283464566929134
        },
        {
          "duration": 0.1276041666666572,
          "durationTicks": 98,
          "midi": 46,
          "name": "A#2",
          "ticks": 125809,
          "time": 163.81380208333334,
          "velocity": 0.36220472440944884
        },
        {
          "duration": 0.1276041666666572,
          "durationTicks": 98,
          "midi": 75,
          "name": "D#5",
          "ticks": 125818,
          "time": 163.82552083333334,
          "velocity": 0.08661417322834646
        },
        {
          "duration": 0.1276041666666572,
          "durationTicks": 98,
          "midi": 82,
          "name": "A#5",
          "ticks": 125818,
          "time": 163.82552083333334,
          "velocity": 0.11811023622047244
        },
        {
          "duration": 0,
          "durationTicks": 0,
          "midi": 80,
          "name": "G#5",
          "ticks": 125828,
          "time": 163.83854166666666,
          "velocity": 0.06299212598425197
        },
        {
          "duration": 0.12760416666668561,
          "durationTicks": 98,
          "midi": 63,
          "name": "D#4",
          "ticks": 125828,
          "time": 163.83854166666666,
          "velocity": 0.2440944881889764
        },
        {
          "duration": 0.11979166666668561,
          "durationTicks": 92,
          "midi": 91,
          "name": "G6",
          "ticks": 125855,
          "time": 163.87369791666666,
          "velocity": 0.08661417322834646
        },
        {
          "duration": 0,
          "durationTicks": 0,
          "midi": 70,
          "name": "A#4",
          "ticks": 125864,
          "time": 163.88541666666666,
          "velocity": 0.05511811023622047
        },
        {
          "duration": 0,
          "durationTicks": 0,
          "midi": 68,
          "name": "G#4",
          "ticks": 125882,
          "time": 163.90885416666666,
          "velocity": 0.2204724409448819
        },
        {
          "duration": 0.12760416666668561,
          "durationTicks": 98,
          "midi": 72,
          "name": "C5",
          "ticks": 125891,
          "time": 163.92057291666666,
          "velocity": 0.25984251968503935
        },
        {
          "duration": 0,
          "durationTicks": 0,
          "midi": 86,
          "name": "D6",
          "ticks": 125900,
          "time": 163.93229166666666,
          "velocity": 0.08661417322834646
        },
        {
          "duration": 0,
          "durationTicks": 0,
          "midi": 78,
          "name": "F#5",
          "ticks": 125900,
          "time": 163.93229166666666,
          "velocity": 0.11023622047244094
        },
        {
          "duration": 0,
          "durationTicks": 0,
          "midi": 38,
          "name": "D2",
          "ticks": 125909,
          "time": 163.94401041666666,
          "velocity": 0.2677165354330709
        },
        {
          "duration": 0,
          "durationTicks": 0,
          "midi": 87,
          "name": "D#6",
          "ticks": 125919,
          "time": 163.95703125,
          "velocity": 0.07086614173228346
        },
        {
          "duration": 0,
          "durationTicks": 0,
          "midi": 68,
          "name": "G#4",
          "ticks": 125937,
          "time": 163.98046875,
          "velocity": 0.1732283464566929
        },
        {
          "duration": 0.25,
          "durationTicks": 192,
          "midi": 65,
          "name": "F4",
          "ticks": 125937,
          "time": 163.98046875,
          "velocity": 0.1968503937007874
        },
        {
          "duration": 0,
          "durationTicks": 0,
          "midi": 37,
          "name": "C#2",
          "ticks": 125947,
          "time": 163.99348958333334,
          "velocity": 0.14173228346456693
        },
        {
          "duration": 0.009114583333314386,
          "durationTicks": 7,
          "midi": 91,
          "name": "G6",
          "ticks": 125947,
          "time": 163.99348958333334,
          "velocity": 0.08661417322834646
        },
        {
          "duration": 0,
          "durationTicks": 0,
          "midi": 57,
          "name": "A3",
          "ticks": 125974,
          "time": 164.02864583333334,
          "velocity": 0.09448818897637795
        },
        {
          "duration": 0.12369791666668561,
          "durationTicks": 95,
          "midi": 34,
          "name": "A#1",
          "ticks": 126089,
          "time": 164.17838541666666,
          "velocity": 0.3779527559055118
        },
        {
          "duration": 0.12369791666668561,
          "durationTicks": 95,
          "midi": 72,
          "name": "C5",
          "ticks": 126089,
          "time": 164.17838541666666,
          "velocity": 0.11023622047244094
        },
        {
          "duration": 0,
          "durationTicks": 0,
          "midi": 70,
          "name": "A#4",
          "ticks": 126107,
          "time": 164.20182291666666,
          "velocity": 0.06299212598425197
        },
        {
          "duration": 0,
          "durationTicks": 0,
          "midi": 84,
          "name": "C6",
          "ticks": 126107,
          "time": 164.20182291666666,
          "velocity": 0.07086614173228346
        },
        {
          "duration": 0.12369791666668561,
          "durationTicks": 95,
          "midi": 65,
          "name": "F4",
          "ticks": 126107,
          "time": 164.20182291666666,
          "velocity": 0.16535433070866143
        },
        {
          "duration": 0,
          "durationTicks": 0,
          "midi": 61,
          "name": "C#4",
          "ticks": 126125,
          "time": 164.22526041666666,
          "velocity": 0.1889763779527559
        },
        {
          "duration": 0,
          "durationTicks": 0,
          "midi": 67,
          "name": "G4",
          "ticks": 126152,
          "time": 164.26041666666666,
          "velocity": 0.2283464566929134
        },
        {
          "duration": 0,
          "durationTicks": 0,
          "midi": 35,
          "name": "B1",
          "ticks": 126169,
          "time": 164.28255208333334,
          "velocity": 0.3700787401574803
        },
        {
          "duration": 0,
          "durationTicks": 0,
          "midi": 57,
          "name": "A3",
          "ticks": 126169,
          "time": 164.28255208333334,
          "velocity": 0.2204724409448819
        },
        {
          "duration": 0,
          "durationTicks": 0,
          "midi": 86,
          "name": "D6",
          "ticks": 126169,
          "time": 164.28255208333334,
          "velocity": 0.07086614173228346
        },
        {
          "duration": 0.125,
          "durationTicks": 96,
          "midi": 82,
          "name": "A#5",
          "ticks": 126204,
          "time": 164.328125,
          "velocity": 0.11811023622047244
        },
        {
          "duration": 0.125,
          "durationTicks": 96,
          "midi": 91,
          "name": "G6",
          "ticks": 126204,
          "time": 164.328125,
          "velocity": 0.07874015748031496
        },
        {
          "duration": 0.125,
          "durationTicks": 96,
          "midi": 63,
          "name": "D#4",
          "ticks": 126204,
          "time": 164.328125,
          "velocity": 0.2283464566929134
        },
        {
          "duration": 0,
          "durationTicks": 0,
          "midi": 70,
          "name": "A#4",
          "ticks": 126267,
          "time": 164.41015625,
          "velocity": 0.15748031496062992
        },
        {
          "duration": 0,
          "durationTicks": 0,
          "midi": 36,
          "name": "C2",
          "ticks": 126276,
          "time": 164.421875,
          "velocity": 0.3228346456692913
        },
        {
          "duration": 0,
          "durationTicks": 0,
          "midi": 58,
          "name": "A#3",
          "ticks": 126276,
          "time": 164.421875,
          "velocity": 0.1732283464566929
        },
        {
          "duration": 0,
          "durationTicks": 0,
          "midi": 72,
          "name": "C5",
          "ticks": 126276,
          "time": 164.421875,
          "velocity": 0.13385826771653545
        },
        {
          "duration": 0.2513020833333428,
          "durationTicks": 193,
          "midi": 67,
          "name": "G4",
          "ticks": 126276,
          "time": 164.421875,
          "velocity": 0.1968503937007874
        },
        {
          "duration": 0.2513020833333428,
          "durationTicks": 193,
          "midi": 79,
          "name": "G5",
          "ticks": 126276,
          "time": 164.421875,
          "velocity": 0.23622047244094488
        },
        {
          "duration": 0.1263020833333428,
          "durationTicks": 97,
          "midi": 77,
          "name": "F5",
          "ticks": 126285,
          "time": 164.43359375,
          "velocity": 0.08661417322834646
        },
        {
          "duration": 0,
          "durationTicks": 0,
          "midi": 35,
          "name": "B1",
          "ticks": 126303,
          "time": 164.45703125,
          "velocity": 0.41732283464566927
        },
        {
          "duration": 0,
          "durationTicks": 0,
          "midi": 60,
          "name": "C4",
          "ticks": 126312,
          "time": 164.46875,
          "velocity": 0.2283464566929134
        },
        {
          "duration": 0,
          "durationTicks": 0,
          "midi": 37,
          "name": "C#2",
          "ticks": 126330,
          "time": 164.4921875,
          "velocity": 0.3779527559055118
        },
        {
          "duration": 0,
          "durationTicks": 0,
          "midi": 70,
          "name": "A#4",
          "ticks": 126330,
          "time": 164.4921875,
          "velocity": 0.1732283464566929
        },
        {
          "duration": 0,
          "durationTicks": 0,
          "midi": 63,
          "name": "D#4",
          "ticks": 126339,
          "time": 164.50390625,
          "velocity": 0.1968503937007874
        },
        {
          "duration": 0,
          "durationTicks": 0,
          "midi": 60,
          "name": "C4",
          "ticks": 126348,
          "time": 164.515625,
          "velocity": 0.2283464566929134
        },
        {
          "duration": 0.125,
          "durationTicks": 96,
          "midi": 36,
          "name": "C2",
          "ticks": 126348,
          "time": 164.515625,
          "velocity": 0.4015748031496063
        },
        {
          "duration": 0,
          "durationTicks": 0,
          "midi": 70,
          "name": "A#4",
          "ticks": 126358,
          "time": 164.52864583333334,
          "velocity": 0.1968503937007874
        },
        {
          "duration": 0.125,
          "durationTicks": 96,
          "midi": 60,
          "name": "C4",
          "ticks": 126375,
          "time": 164.55078125,
          "velocity": 0.23622047244094488
        },
        {
          "duration": 0.2513020833333428,
          "durationTicks": 193,
          "midi": 77,
          "name": "F5",
          "ticks": 126375,
          "time": 164.55078125,
          "velocity": 0.12598425196850394
        },
        {
          "duration": 0,
          "durationTicks": 0,
          "midi": 65,
          "name": "F4",
          "ticks": 126402,
          "time": 164.5859375,
          "velocity": 0.1732283464566929
        },
        {
          "duration": 0,
          "durationTicks": 0,
          "midi": 70,
          "name": "A#4",
          "ticks": 126420,
          "time": 164.609375,
          "velocity": 0.1968503937007874
        },
        {
          "duration": 0,
          "durationTicks": 0,
          "midi": 58,
          "name": "A#3",
          "ticks": 126447,
          "time": 164.64453125,
          "velocity": 0.1968503937007874
        },
        {
          "duration": 0.1263020833333428,
          "durationTicks": 97,
          "midi": 65,
          "name": "F4",
          "ticks": 126473,
          "time": 164.67838541666666,
          "velocity": 0.14960629921259844
        },
        {
          "duration": 0.11848958333334281,
          "durationTicks": 91,
          "midi": 72,
          "name": "C5",
          "ticks": 126491,
          "time": 164.70182291666666,
          "velocity": 0.14960629921259844
        },
        {
          "duration": 0,
          "durationTicks": 0,
          "midi": 67,
          "name": "G4",
          "ticks": 126527,
          "time": 164.74869791666666,
          "velocity": 0.1968503937007874
        },
        {
          "duration": 0.3815104166666572,
          "durationTicks": 293,
          "midi": 79,
          "name": "G5",
          "ticks": 126537,
          "time": 164.76171875,
          "velocity": 0.2204724409448819
        },
        {
          "duration": 0,
          "durationTicks": 0,
          "midi": 64,
          "name": "E4",
          "ticks": 126554,
          "time": 164.78385416666666,
          "velocity": 0.2047244094488189
        },
        {
          "duration": 0,
          "durationTicks": 0,
          "midi": 86,
          "name": "D6",
          "ticks": 126554,
          "time": 164.78385416666666,
          "velocity": 0.07874015748031496
        },
        {
          "duration": 0,
          "durationTicks": 0,
          "midi": 68,
          "name": "G#4",
          "ticks": 126564,
          "time": 164.796875,
          "velocity": 0.1732283464566929
        },
        {
          "duration": 0.1276041666666572,
          "durationTicks": 98,
          "midi": 36,
          "name": "C2",
          "ticks": 126564,
          "time": 164.796875,
          "velocity": 0.3779527559055118
        },
        {
          "duration": 0.1276041666666572,
          "durationTicks": 98,
          "midi": 77,
          "name": "F5",
          "ticks": 126564,
          "time": 164.796875,
          "velocity": 0.11023622047244094
        },
        {
          "duration": 0.1276041666666572,
          "durationTicks": 98,
          "midi": 75,
          "name": "D#5",
          "ticks": 126573,
          "time": 164.80859375,
          "velocity": 0.14173228346456693
        },
        {
          "duration": 0.1276041666666572,
          "durationTicks": 98,
          "midi": 82,
          "name": "A#5",
          "ticks": 126573,
          "time": 164.80859375,
          "velocity": 0.16535433070866143
        },
        {
          "duration": 0.009114583333342807,
          "durationTicks": 7,
          "midi": 72,
          "name": "C5",
          "ticks": 126582,
          "time": 164.8203125,
          "velocity": 0.1732283464566929
        },
        {
          "duration": 0.1276041666666572,
          "durationTicks": 98,
          "midi": 63,
          "name": "D#4",
          "ticks": 126582,
          "time": 164.8203125,
          "velocity": 0.25196850393700787
        },
        {
          "duration": 0.2552083333333428,
          "durationTicks": 196,
          "midi": 67,
          "name": "G4",
          "ticks": 126591,
          "time": 164.83203125,
          "velocity": 0.2283464566929134
        },
        {
          "duration": 0.1276041666666572,
          "durationTicks": 98,
          "midi": 85,
          "name": "C#6",
          "ticks": 126601,
          "time": 164.84505208333334,
          "velocity": 0.05511811023622047
        },
        {
          "duration": 0,
          "durationTicks": 0,
          "midi": 60,
          "name": "C4",
          "ticks": 126610,
          "time": 164.85677083333334,
          "velocity": 0.2283464566929134
        },
        {
          "duration": 0,
          "durationTicks": 0,
          "midi": 70,
          "name": "A#4",
          "ticks": 126610,
          "time": 164.85677083333334,
          "velocity": 0.2047244094488189
        },
        {
          "duration": 0,
          "durationTicks": 0,
          "midi": 72,
          "name": "C5",
          "ticks": 126628,
          "time": 164.88020833333334,
          "velocity": 0.1968503937007874
        },
        {
          "duration": 0,
          "durationTicks": 0,
          "midi": 57,
          "name": "A3",
          "ticks": 126655,
          "time": 164.91536458333334,
          "velocity": 0.30708661417322836
        },
        {
          "duration": 0,
          "durationTicks": 0,
          "midi": 86,
          "name": "D6",
          "ticks": 126655,
          "time": 164.91536458333334,
          "velocity": 0.08661417322834646
        },
        {
          "duration": 0,
          "durationTicks": 0,
          "midi": 84,
          "name": "C6",
          "ticks": 126655,
          "time": 164.91536458333334,
          "velocity": 0.14960629921259844
        },
        {
          "duration": 0,
          "durationTicks": 0,
          "midi": 70,
          "name": "A#4",
          "ticks": 126664,
          "time": 164.92708333333334,
          "velocity": 0.1968503937007874
        },
        {
          "duration": 0,
          "durationTicks": 0,
          "midi": 92,
          "name": "G#6",
          "ticks": 126664,
          "time": 164.92708333333334,
          "velocity": 0.05511811023622047
        },
        {
          "duration": 0.12890625,
          "durationTicks": 99,
          "midi": 72,
          "name": "C5",
          "ticks": 126664,
          "time": 164.92708333333334,
          "velocity": 0.2677165354330709
        },
        {
          "duration": 0,
          "durationTicks": 0,
          "midi": 87,
          "name": "D#6",
          "ticks": 126673,
          "time": 164.93880208333334,
          "velocity": 0.05511811023622047
        },
        {
          "duration": 0,
          "durationTicks": 0,
          "midi": 60,
          "name": "C4",
          "ticks": 126682,
          "time": 164.95052083333334,
          "velocity": 0.2283464566929134
        },
        {
          "duration": 0,
          "durationTicks": 0,
          "midi": 37,
          "name": "C#2",
          "ticks": 126682,
          "time": 164.95052083333334,
          "velocity": 0.3937007874015748
        },
        {
          "duration": 0,
          "durationTicks": 0,
          "midi": 88,
          "name": "E6",
          "ticks": 126692,
          "time": 164.96354166666666,
          "velocity": 0.05511811023622047
        },
        {
          "duration": 0,
          "durationTicks": 0,
          "midi": 60,
          "name": "C4",
          "ticks": 126710,
          "time": 164.98697916666666,
          "velocity": 0.2204724409448819
        },
        {
          "duration": 0.1263020833333428,
          "durationTicks": 97,
          "midi": 36,
          "name": "C2",
          "ticks": 126710,
          "time": 164.98697916666666,
          "velocity": 0.4015748031496063
        },
        {
          "duration": 0.1263020833333428,
          "durationTicks": 97,
          "midi": 70,
          "name": "A#4",
          "ticks": 126710,
          "time": 164.98697916666666,
          "velocity": 0.2047244094488189
        },
        {
          "duration": 0,
          "durationTicks": 0,
          "midi": 63,
          "name": "D#4",
          "ticks": 126720,
          "time": 165,
          "velocity": 0.2125984251968504
        },
        {
          "duration": 0,
          "durationTicks": 0,
          "midi": 60,
          "name": "C4",
          "ticks": 126747,
          "time": 165.03515625,
          "velocity": 0.18110236220472442
        },
        {
          "duration": 0.1263020833333428,
          "durationTicks": 97,
          "midi": 65,
          "name": "F4",
          "ticks": 126756,
          "time": 165.046875,
          "velocity": 0.1968503937007874
        },
        {
          "duration": 0.1276041666666572,
          "durationTicks": 98,
          "midi": 72,
          "name": "C5",
          "ticks": 126837,
          "time": 165.15234375,
          "velocity": 0.2047244094488189
        },
        {
          "duration": 0,
          "durationTicks": 0,
          "midi": 36,
          "name": "C2",
          "ticks": 126846,
          "time": 165.1640625,
          "velocity": 0.3779527559055118
        },
        {
          "duration": 0.1276041666666572,
          "durationTicks": 98,
          "midi": 80,
          "name": "G#5",
          "ticks": 126846,
          "time": 165.1640625,
          "velocity": 0.2440944881889764
        },
        {
          "duration": 0.1276041666666572,
          "durationTicks": 98,
          "midi": 60,
          "name": "C4",
          "ticks": 126846,
          "time": 165.1640625,
          "velocity": 0.1968503937007874
        },
        {
          "duration": 0,
          "durationTicks": 0,
          "midi": 79,
          "name": "G5",
          "ticks": 126855,
          "time": 165.17578125,
          "velocity": 0.06299212598425197
        },
        {
          "duration": 0,
          "durationTicks": 0,
          "midi": 65,
          "name": "F4",
          "ticks": 126864,
          "time": 165.1875,
          "velocity": 0.1968503937007874
        },
        {
          "duration": 0.1263020833333428,
          "durationTicks": 97,
          "midi": 37,
          "name": "C#2",
          "ticks": 126864,
          "time": 165.1875,
          "velocity": 0.3779527559055118
        },
        {
          "duration": 0.3776041666666572,
          "durationTicks": 290,
          "midi": 68,
          "name": "G#4",
          "ticks": 126864,
          "time": 165.1875,
          "velocity": 0.1968503937007874
        },
        {
          "duration": 0,
          "durationTicks": 0,
          "midi": 75,
          "name": "D#5",
          "ticks": 126874,
          "time": 165.20052083333334,
          "velocity": 0.1889763779527559
        },
        {
          "duration": 0.09375,
          "durationTicks": 72,
          "midi": 75,
          "name": "D#5",
          "ticks": 126901,
          "time": 165.23567708333334,
          "velocity": 0.2047244094488189
        },
        {
          "duration": 0,
          "durationTicks": 0,
          "midi": 65,
          "name": "F4",
          "ticks": 126910,
          "time": 165.24739583333334,
          "velocity": 0.1889763779527559
        },
        {
          "duration": 0,
          "durationTicks": 0,
          "midi": 70,
          "name": "A#4",
          "ticks": 126928,
          "time": 165.27083333333334,
          "velocity": 0.1732283464566929
        },
        {
          "duration": 0,
          "durationTicks": 0,
          "midi": 63,
          "name": "D#4",
          "ticks": 126946,
          "time": 165.29427083333334,
          "velocity": 0.2204724409448819
        },
        {
          "duration": 0,
          "durationTicks": 0,
          "midi": 39,
          "name": "D#2",
          "ticks": 126964,
          "time": 165.31770833333334,
          "velocity": 0.3779527559055118
        },
        {
          "duration": 0.12630208333331439,
          "durationTicks": 97,
          "midi": 60,
          "name": "C4",
          "ticks": 126964,
          "time": 165.31770833333334,
          "velocity": 0.1732283464566929
        },
        {
          "duration": 0,
          "durationTicks": 0,
          "midi": 73,
          "name": "C#5",
          "ticks": 126973,
          "time": 165.32942708333334,
          "velocity": 0.11023622047244094
        },
        {
          "duration": 0.03385416666665719,
          "durationTicks": 26,
          "midi": 75,
          "name": "D#5",
          "ticks": 126973,
          "time": 165.32942708333334,
          "velocity": 0.18110236220472442
        },
        {
          "duration": 0.12630208333331439,
          "durationTicks": 97,
          "midi": 56,
          "name": "G#3",
          "ticks": 126973,
          "time": 165.32942708333334,
          "velocity": 0.08661417322834646
        },
        {
          "duration": 0,
          "durationTicks": 0,
          "midi": 36,
          "name": "C2",
          "ticks": 126982,
          "time": 165.34114583333334,
          "velocity": 0.41732283464566927
        },
        {
          "duration": 0,
          "durationTicks": 0,
          "midi": 65,
          "name": "F4",
          "ticks": 126992,
          "time": 165.35416666666666,
          "velocity": 0.1968503937007874
        },
        {
          "duration": 0,
          "durationTicks": 0,
          "midi": 38,
          "name": "D2",
          "ticks": 127001,
          "time": 165.36588541666666,
          "velocity": 0.3700787401574803
        },
        {
          "duration": 0,
          "durationTicks": 0,
          "midi": 80,
          "name": "G#5",
          "ticks": 127001,
          "time": 165.36588541666666,
          "velocity": 0.2125984251968504
        },
        {
          "duration": 0,
          "durationTicks": 0,
          "midi": 63,
          "name": "D#4",
          "ticks": 127019,
          "time": 165.38932291666666,
          "velocity": 0.1968503937007874
        },
        {
          "duration": 0,
          "durationTicks": 0,
          "midi": 37,
          "name": "C#2",
          "ticks": 127019,
          "time": 165.38932291666666,
          "velocity": 0.3858267716535433
        },
        {
          "duration": 0.125,
          "durationTicks": 96,
          "midi": 92,
          "name": "G#6",
          "ticks": 127036,
          "time": 165.41145833333334,
          "velocity": 0.2125984251968504
        },
        {
          "duration": 0.12369791666665719,
          "durationTicks": 95,
          "midi": 87,
          "name": "D#6",
          "ticks": 127072,
          "time": 165.45833333333334,
          "velocity": 0.2125984251968504
        },
        {
          "duration": 0.125,
          "durationTicks": 96,
          "midi": 77,
          "name": "F5",
          "ticks": 127108,
          "time": 165.50520833333334,
          "velocity": 0.1968503937007874
        },
        {
          "duration": 0.12630208333331439,
          "durationTicks": 97,
          "midi": 84,
          "name": "C6",
          "ticks": 127135,
          "time": 165.54036458333334,
          "velocity": 0.2283464566929134
        },
        {
          "duration": 0.2552083333333428,
          "durationTicks": 196,
          "midi": 80,
          "name": "G#5",
          "ticks": 127170,
          "time": 165.5859375,
          "velocity": 0.29133858267716534
        },
        {
          "duration": 0,
          "durationTicks": 0,
          "midi": 72,
          "name": "C5",
          "ticks": 127215,
          "time": 165.64453125,
          "velocity": 0.16535433070866143
        },
        {
          "duration": 0.1276041666666572,
          "durationTicks": 98,
          "midi": 87,
          "name": "D#6",
          "ticks": 127225,
          "time": 165.65755208333334,
          "velocity": 0.2047244094488189
        },
        {
          "duration": 0,
          "durationTicks": 0,
          "midi": 75,
          "name": "D#5",
          "ticks": 127234,
          "time": 165.66927083333334,
          "velocity": 0.1732283464566929
        },
        {
          "duration": 0.25390625,
          "durationTicks": 195,
          "midi": 60,
          "name": "C4",
          "ticks": 127234,
          "time": 165.66927083333334,
          "velocity": 0.18110236220472442
        },
        {
          "duration": 0,
          "durationTicks": 0,
          "midi": 65,
          "name": "F4",
          "ticks": 127243,
          "time": 165.68098958333334,
          "velocity": 0.1968503937007874
        },
        {
          "duration": 0.25390625,
          "durationTicks": 195,
          "midi": 68,
          "name": "G#4",
          "ticks": 127243,
          "time": 165.68098958333334,
          "velocity": 0.1732283464566929
        },
        {
          "duration": 0,
          "durationTicks": 0,
          "midi": 36,
          "name": "C2",
          "ticks": 127252,
          "time": 165.69270833333334,
          "velocity": 0.4094488188976378
        },
        {
          "duration": 0,
          "durationTicks": 0,
          "midi": 94,
          "name": "A#6",
          "ticks": 127262,
          "time": 165.70572916666666,
          "velocity": 0.12598425196850394
        },
        {
          "duration": 0,
          "durationTicks": 0,
          "midi": 49,
          "name": "C#3",
          "ticks": 127271,
          "time": 165.71744791666666,
          "velocity": 0.09448818897637795
        },
        {
          "duration": 0.1263020833333428,
          "durationTicks": 97,
          "midi": 65,
          "name": "F4",
          "ticks": 127271,
          "time": 165.71744791666666,
          "velocity": 0.1968503937007874
        },
        {
          "duration": 0.1263020833333428,
          "durationTicks": 97,
          "midi": 75,
          "name": "D#5",
          "ticks": 127271,
          "time": 165.71744791666666,
          "velocity": 0.2204724409448819
        },
        {
          "duration": 0.1263020833333428,
          "durationTicks": 97,
          "midi": 72,
          "name": "C5",
          "ticks": 127271,
          "time": 165.71744791666666,
          "velocity": 0.2047244094488189
        },
        {
          "duration": 0,
          "durationTicks": 0,
          "midi": 56,
          "name": "G#3",
          "ticks": 127289,
          "time": 165.74088541666666,
          "velocity": 0.07874015748031496
        },
        {
          "duration": 0.1263020833333428,
          "durationTicks": 97,
          "midi": 77,
          "name": "F5",
          "ticks": 127298,
          "time": 165.75260416666666,
          "velocity": 0.23622047244094488
        },
        {
          "duration": 0,
          "durationTicks": 0,
          "midi": 63,
          "name": "D#4",
          "ticks": 127316,
          "time": 165.77604166666666,
          "velocity": 0.1968503937007874
        },
        {
          "duration": 0.25390625,
          "durationTicks": 195,
          "midi": 80,
          "name": "G#5",
          "ticks": 127352,
          "time": 165.82291666666666,
          "velocity": 0.2992125984251969
        },
        {
          "duration": 0,
          "durationTicks": 0,
          "midi": 63,
          "name": "D#4",
          "ticks": 127361,
          "time": 165.83463541666666,
          "velocity": 0.1968503937007874
        },
        {
          "duration": 0,
          "durationTicks": 0,
          "midi": 65,
          "name": "F4",
          "ticks": 127397,
          "time": 165.88151041666666,
          "velocity": 0.2204724409448819
        },
        {
          "duration": 0.1263020833333428,
          "durationTicks": 97,
          "midi": 87,
          "name": "D#6",
          "ticks": 127397,
          "time": 165.88151041666666,
          "velocity": 0.09448818897637795
        },
        {
          "duration": 0,
          "durationTicks": 0,
          "midi": 50,
          "name": "D3",
          "ticks": 127424,
          "time": 165.91666666666666,
          "velocity": 0.3779527559055118
        },
        {
          "duration": 0,
          "durationTicks": 0,
          "midi": 72,
          "name": "C5",
          "ticks": 127424,
          "time": 165.91666666666666,
          "velocity": 0.2204724409448819
        },
        {
          "duration": 0,
          "durationTicks": 0,
          "midi": 86,
          "name": "D6",
          "ticks": 127424,
          "time": 165.91666666666666,
          "velocity": 0.10236220472440945
        },
        {
          "duration": 0,
          "durationTicks": 0,
          "midi": 90,
          "name": "F#6",
          "ticks": 127424,
          "time": 165.91666666666666,
          "velocity": 0.07086614173228346
        },
        {
          "duration": 0,
          "durationTicks": 0,
          "midi": 37,
          "name": "C#2",
          "ticks": 127434,
          "time": 165.9296875,
          "velocity": 0.2677165354330709
        },
        {
          "duration": 0.1263020833333428,
          "durationTicks": 97,
          "midi": 75,
          "name": "D#5",
          "ticks": 127443,
          "time": 165.94140625,
          "velocity": 0.1889763779527559
        },
        {
          "duration": 0.2513020833333428,
          "durationTicks": 193,
          "midi": 49,
          "name": "C#3",
          "ticks": 127443,
          "time": 165.94140625,
          "velocity": 0.3700787401574803
        },
        {
          "duration": 0,
          "durationTicks": 0,
          "midi": 56,
          "name": "G#3",
          "ticks": 127452,
          "time": 165.953125,
          "velocity": 0.2125984251968504
        },
        {
          "duration": 0,
          "durationTicks": 0,
          "midi": 38,
          "name": "D2",
          "ticks": 127452,
          "time": 165.953125,
          "velocity": 0.1889763779527559
        },
        {
          "duration": 0,
          "durationTicks": 0,
          "midi": 72,
          "name": "C5",
          "ticks": 127461,
          "time": 165.96484375,
          "velocity": 0.14173228346456693
        },
        {
          "duration": 0,
          "durationTicks": 0,
          "midi": 63,
          "name": "D#4",
          "ticks": 127479,
          "time": 165.98828125,
          "velocity": 0.11023622047244094
        },
        {
          "duration": 0.125,
          "durationTicks": 96,
          "midi": 68,
          "name": "G#4",
          "ticks": 127479,
          "time": 165.98828125,
          "velocity": 0.14173228346456693
        },
        {
          "duration": 0.125,
          "durationTicks": 96,
          "midi": 89,
          "name": "F6",
          "ticks": 127497,
          "time": 166.01171875,
          "velocity": 0.14960629921259844
        },
        {
          "duration": 0.125,
          "durationTicks": 96,
          "midi": 82,
          "name": "A#5",
          "ticks": 127497,
          "time": 166.01171875,
          "velocity": 0.33858267716535434
        },
        {
          "duration": 0,
          "durationTicks": 0,
          "midi": 57,
          "name": "A3",
          "ticks": 127506,
          "time": 166.0234375,
          "velocity": 0.09448818897637795
        },
        {
          "duration": 0,
          "durationTicks": 0,
          "midi": 77,
          "name": "F5",
          "ticks": 127515,
          "time": 166.03515625,
          "velocity": 0.08661417322834646
        },
        {
          "duration": 0,
          "durationTicks": 0,
          "midi": 65,
          "name": "F4",
          "ticks": 127525,
          "time": 166.04817708333334,
          "velocity": 0.05511811023622047
        },
        {
          "duration": 0.1171875,
          "durationTicks": 90,
          "midi": 68,
          "name": "G#4",
          "ticks": 127560,
          "time": 166.09375,
          "velocity": 0.11811023622047244
        },
        {
          "duration": 0.1263020833333428,
          "durationTicks": 97,
          "midi": 80,
          "name": "G#5",
          "ticks": 127560,
          "time": 166.09375,
          "velocity": 0.15748031496062992
        },
        {
          "duration": 0,
          "durationTicks": 0,
          "midi": 62,
          "name": "D4",
          "ticks": 127613,
          "time": 166.16276041666666,
          "velocity": 0.3937007874015748
        },
        {
          "duration": 0.12760416666668561,
          "durationTicks": 98,
          "midi": 77,
          "name": "F5",
          "ticks": 127613,
          "time": 166.16276041666666,
          "velocity": 0.05511811023622047
        },
        {
          "duration": 0,
          "durationTicks": 0,
          "midi": 37,
          "name": "C#2",
          "ticks": 127622,
          "time": 166.17447916666666,
          "velocity": 0.3937007874015748
        },
        {
          "duration": 0,
          "durationTicks": 0,
          "midi": 81,
          "name": "A5",
          "ticks": 127622,
          "time": 166.17447916666666,
          "velocity": 0.30708661417322836
        },
        {
          "duration": 0.1263020833333428,
          "durationTicks": 97,
          "midi": 75,
          "name": "D#5",
          "ticks": 127631,
          "time": 166.18619791666666,
          "velocity": 0.06299212598425197
        },
        {
          "duration": 0,
          "durationTicks": 0,
          "midi": 36,
          "name": "C2",
          "ticks": 127640,
          "time": 166.19791666666666,
          "velocity": 0.41732283464566927
        },
        {
          "duration": 0,
          "durationTicks": 0,
          "midi": 91,
          "name": "G6",
          "ticks": 127640,
          "time": 166.19791666666666,
          "velocity": 0.11023622047244094
        },
        {
          "duration": 0,
          "durationTicks": 0,
          "midi": 60,
          "name": "C4",
          "ticks": 127650,
          "time": 166.2109375,
          "velocity": 0.36220472440944884
        },
        {
          "duration": 0,
          "durationTicks": 0,
          "midi": 65,
          "name": "F4",
          "ticks": 127650,
          "time": 166.2109375,
          "velocity": 0.2204724409448819
        },
        {
          "duration": 0.009114583333342807,
          "durationTicks": 7,
          "midi": 68,
          "name": "G#4",
          "ticks": 127650,
          "time": 166.2109375,
          "velocity": 0.28346456692913385
        },
        {
          "duration": 0,
          "durationTicks": 0,
          "midi": 79,
          "name": "G5",
          "ticks": 127650,
          "time": 166.2109375,
          "velocity": 0.3464566929133858
        },
        {
          "duration": 0,
          "durationTicks": 0,
          "midi": 59,
          "name": "B3",
          "ticks": 127677,
          "time": 166.24609375,
          "velocity": 0.2755905511811024
        },
        {
          "duration": 0,
          "durationTicks": 0,
          "midi": 76,
          "name": "E5",
          "ticks": 127694,
          "time": 166.26822916666666,
          "velocity": 0.3228346456692913
        },
        {
          "duration": 0,
          "durationTicks": 0,
          "midi": 68,
          "name": "G#4",
          "ticks": 127694,
          "time": 166.26822916666666,
          "velocity": 0.1732283464566929
        },
        {
          "duration": 0.2552083333333428,
          "durationTicks": 196,
          "midi": 82,
          "name": "A#5",
          "ticks": 127694,
          "time": 166.26822916666666,
          "velocity": 0.25196850393700787
        },
        {
          "duration": 0.1263020833333428,
          "durationTicks": 97,
          "midi": 37,
          "name": "C#2",
          "ticks": 127704,
          "time": 166.28125,
          "velocity": 0.3779527559055118
        },
        {
          "duration": 0,
          "durationTicks": 0,
          "midi": 58,
          "name": "A#3",
          "ticks": 127713,
          "time": 166.29296875,
          "velocity": 0.41732283464566927
        },
        {
          "duration": 0,
          "durationTicks": 0,
          "midi": 77,
          "name": "F5",
          "ticks": 127713,
          "time": 166.29296875,
          "velocity": 0.11811023622047244
        },
        {
          "duration": 0,
          "durationTicks": 0,
          "midi": 57,
          "name": "A3",
          "ticks": 127731,
          "time": 166.31640625,
          "velocity": 0.4015748031496063
        },
        {
          "duration": 0,
          "durationTicks": 0,
          "midi": 63,
          "name": "D#4",
          "ticks": 127731,
          "time": 166.31640625,
          "velocity": 0.18110236220472442
        },
        {
          "duration": 0,
          "durationTicks": 0,
          "midi": 56,
          "name": "G#3",
          "ticks": 127748,
          "time": 166.33854166666666,
          "velocity": 0.4015748031496063
        },
        {
          "duration": 0,
          "durationTicks": 0,
          "midi": 57,
          "name": "A3",
          "ticks": 127784,
          "time": 166.38541666666666,
          "velocity": 0.30708661417322836
        },
        {
          "duration": 0,
          "durationTicks": 0,
          "midi": 64,
          "name": "E4",
          "ticks": 127794,
          "time": 166.3984375,
          "velocity": 0.1968503937007874
        },
        {
          "duration": 0,
          "durationTicks": 0,
          "midi": 58,
          "name": "A#3",
          "ticks": 127803,
          "time": 166.41015625,
          "velocity": 0.2440944881889764
        },
        {
          "duration": 0.12890625,
          "durationTicks": 99,
          "midi": 75,
          "name": "D#5",
          "ticks": 127803,
          "time": 166.41015625,
          "velocity": 0.2440944881889764
        },
        {
          "duration": 0.5130208333333428,
          "durationTicks": 394,
          "midi": 87,
          "name": "D#6",
          "ticks": 127803,
          "time": 166.41015625,
          "velocity": 0.3543307086614173
        },
        {
          "duration": 0.2565104166666572,
          "durationTicks": 197,
          "midi": 79,
          "name": "G5",
          "ticks": 127812,
          "time": 166.421875,
          "velocity": 0.2047244094488189
        },
        {
          "duration": 0.10677083333331439,
          "durationTicks": 82,
          "midi": 63,
          "name": "D#4",
          "ticks": 127822,
          "time": 166.43489583333334,
          "velocity": 0.2755905511811024
        },
        {
          "duration": 0,
          "durationTicks": 0,
          "midi": 32,
          "name": "G#1",
          "ticks": 127831,
          "time": 166.44661458333334,
          "velocity": 0.3700787401574803
        },
        {
          "duration": 0,
          "durationTicks": 0,
          "midi": 60,
          "name": "C4",
          "ticks": 127831,
          "time": 166.44661458333334,
          "velocity": 0.2677165354330709
        },
        {
          "duration": 0.12890625,
          "durationTicks": 99,
          "midi": 70,
          "name": "A#4",
          "ticks": 127831,
          "time": 166.44661458333334,
          "velocity": 0.29133858267716534
        },
        {
          "duration": 0,
          "durationTicks": 0,
          "midi": 57,
          "name": "A3",
          "ticks": 127840,
          "time": 166.45833333333334,
          "velocity": 0.25196850393700787
        },
        {
          "duration": 0,
          "durationTicks": 0,
          "midi": 67,
          "name": "G4",
          "ticks": 127840,
          "time": 166.45833333333334,
          "velocity": 0.15748031496062992
        },
        {
          "duration": 0,
          "durationTicks": 0,
          "midi": 33,
          "name": "A1",
          "ticks": 127849,
          "time": 166.47005208333334,
          "velocity": 0.3464566929133858
        },
        {
          "duration": 0,
          "durationTicks": 0,
          "midi": 72,
          "name": "C5",
          "ticks": 127876,
          "time": 166.50520833333334,
          "velocity": 0.1889763779527559
        },
        {
          "duration": 0,
          "durationTicks": 0,
          "midi": 67,
          "name": "G4",
          "ticks": 127876,
          "time": 166.50520833333334,
          "velocity": 0.25984251968503935
        },
        {
          "duration": 0,
          "durationTicks": 0,
          "midi": 60,
          "name": "C4",
          "ticks": 127886,
          "time": 166.51822916666666,
          "velocity": 0.23622047244094488
        },
        {
          "duration": 0.12760416666668561,
          "durationTicks": 98,
          "midi": 32,
          "name": "G#1",
          "ticks": 127886,
          "time": 166.51822916666666,
          "velocity": 0.3779527559055118
        },
        {
          "duration": 0,
          "durationTicks": 0,
          "midi": 83,
          "name": "B5",
          "ticks": 127895,
          "time": 166.52994791666666,
          "velocity": 0.1968503937007874
        },
        {
          "duration": 0.022135416666685614,
          "durationTicks": 17,
          "midi": 63,
          "name": "D#4",
          "ticks": 127904,
          "time": 166.54166666666666,
          "velocity": 0.25984251968503935
        },
        {
          "duration": 0,
          "durationTicks": 0,
          "midi": 54,
          "name": "F#3",
          "ticks": 127914,
          "time": 166.5546875,
          "velocity": 0.4015748031496063
        },
        {
          "duration": 0.1276041666666572,
          "durationTicks": 98,
          "midi": 82,
          "name": "A#5",
          "ticks": 127914,
          "time": 166.5546875,
          "velocity": 0.25984251968503935
        },
        {
          "duration": 0.1276041666666572,
          "durationTicks": 98,
          "midi": 70,
          "name": "A#4",
          "ticks": 127923,
          "time": 166.56640625,
          "velocity": 0.06299212598425197
        },
        {
          "duration": 0,
          "durationTicks": 0,
          "midi": 53,
          "name": "F3",
          "ticks": 127932,
          "time": 166.578125,
          "velocity": 0.4094488188976378
        },
        {
          "duration": 0,
          "durationTicks": 0,
          "midi": 59,
          "name": "B3",
          "ticks": 127932,
          "time": 166.578125,
          "velocity": 0.2283464566929134
        },
        {
          "duration": 0.1276041666666572,
          "durationTicks": 98,
          "midi": 72,
          "name": "C5",
          "ticks": 127932,
          "time": 166.578125,
          "velocity": 0.12598425196850394
        },
        {
          "duration": 0.12890625,
          "durationTicks": 99,
          "midi": 52,
          "name": "E3",
          "ticks": 127950,
          "time": 166.6015625,
          "velocity": 0.3779527559055118
        },
        {
          "duration": 0.12890625,
          "durationTicks": 99,
          "midi": 67,
          "name": "G4",
          "ticks": 127950,
          "time": 166.6015625,
          "velocity": 0.25196850393700787
        },
        {
          "duration": 0,
          "durationTicks": 0,
          "midi": 81,
          "name": "A5",
          "ticks": 127959,
          "time": 166.61328125,
          "velocity": 0.1968503937007874
        },
        {
          "duration": 0,
          "durationTicks": 0,
          "midi": 58,
          "name": "A#3",
          "ticks": 127986,
          "time": 166.6484375,
          "velocity": 0.29133858267716534
        },
        {
          "duration": 0.1302083333333428,
          "durationTicks": 100,
          "midi": 89,
          "name": "F6",
          "ticks": 127995,
          "time": 166.66015625,
          "velocity": 0.1968503937007874
        },
        {
          "duration": 0,
          "durationTicks": 0,
          "midi": 44,
          "name": "G#2",
          "ticks": 128005,
          "time": 166.67317708333334,
          "velocity": 0.4094488188976378
        },
        {
          "duration": 0,
          "durationTicks": 0,
          "midi": 75,
          "name": "D#5",
          "ticks": 128005,
          "time": 166.67317708333334,
          "velocity": 0.2125984251968504
        },
        {
          "duration": 0,
          "durationTicks": 0,
          "midi": 31,
          "name": "G1",
          "ticks": 128014,
          "time": 166.68489583333334,
          "velocity": 0.29133858267716534
        },
        {
          "duration": 0,
          "durationTicks": 0,
          "midi": 45,
          "name": "A2",
          "ticks": 128014,
          "time": 166.68489583333334,
          "velocity": 0.3937007874015748
        },
        {
          "duration": 0.09765625,
          "durationTicks": 75,
          "midi": 70,
          "name": "A#4",
          "ticks": 128032,
          "time": 166.70833333333334,
          "velocity": 0.25984251968503935
        },
        {
          "duration": 0.13020833333331439,
          "durationTicks": 100,
          "midi": 44,
          "name": "G#2",
          "ticks": 128032,
          "time": 166.70833333333334,
          "velocity": 0.3858267716535433
        },
        {
          "duration": 0,
          "durationTicks": 0,
          "midi": 31,
          "name": "G1",
          "ticks": 128042,
          "time": 166.72135416666666,
          "velocity": 0.25984251968503935
        },
        {
          "duration": 0,
          "durationTicks": 0,
          "midi": 75,
          "name": "D#5",
          "ticks": 128051,
          "time": 166.73307291666666,
          "velocity": 0.1968503937007874
        },
        {
          "duration": 0,
          "durationTicks": 0,
          "midi": 63,
          "name": "D#4",
          "ticks": 128060,
          "time": 166.74479166666666,
          "velocity": 0.14960629921259844
        },
        {
          "duration": 0,
          "durationTicks": 0,
          "midi": 79,
          "name": "G5",
          "ticks": 128070,
          "time": 166.7578125,
          "velocity": 0.1732283464566929
        },
        {
          "duration": 0,
          "durationTicks": 0,
          "midi": 68,
          "name": "G#4",
          "ticks": 128079,
          "time": 166.76953125,
          "velocity": 0.2283464566929134
        },
        {
          "duration": 0,
          "durationTicks": 0,
          "midi": 72,
          "name": "C5",
          "ticks": 128088,
          "time": 166.78125,
          "velocity": 0.18110236220472442
        },
        {
          "duration": 0,
          "durationTicks": 0,
          "midi": 53,
          "name": "F3",
          "ticks": 128098,
          "time": 166.79427083333334,
          "velocity": 0.4015748031496063
        },
        {
          "duration": 0.12630208333331439,
          "durationTicks": 97,
          "midi": 83,
          "name": "B5",
          "ticks": 128098,
          "time": 166.79427083333334,
          "velocity": 0.1968503937007874
        },
        {
          "duration": 0.032552083333314386,
          "durationTicks": 25,
          "midi": 70,
          "name": "A#4",
          "ticks": 128107,
          "time": 166.80598958333334,
          "velocity": 0.25984251968503935
        },
        {
          "duration": 0,
          "durationTicks": 0,
          "midi": 52,
          "name": "E3",
          "ticks": 128116,
          "time": 166.81770833333334,
          "velocity": 0.4015748031496063
        },
        {
          "duration": 0,
          "durationTicks": 0,
          "midi": 67,
          "name": "G4",
          "ticks": 128116,
          "time": 166.81770833333334,
          "velocity": 0.2047244094488189
        },
        {
          "duration": 0,
          "durationTicks": 0,
          "midi": 63,
          "name": "D#4",
          "ticks": 128126,
          "time": 166.83072916666666,
          "velocity": 0.25984251968503935
        },
        {
          "duration": 0,
          "durationTicks": 0,
          "midi": 51,
          "name": "D#3",
          "ticks": 128135,
          "time": 166.84244791666666,
          "velocity": 0.4015748031496063
        },
        {
          "duration": 0,
          "durationTicks": 0,
          "midi": 90,
          "name": "F#6",
          "ticks": 128135,
          "time": 166.84244791666666,
          "velocity": 0.08661417322834646
        },
        {
          "duration": 0.125,
          "durationTicks": 96,
          "midi": 67,
          "name": "G4",
          "ticks": 128144,
          "time": 166.85416666666666,
          "velocity": 0.2283464566929134
        },
        {
          "duration": 0,
          "durationTicks": 0,
          "midi": 63,
          "name": "D#4",
          "ticks": 128162,
          "time": 166.87760416666666,
          "velocity": 0.2440944881889764
        },
        {
          "duration": 0.1263020833333428,
          "durationTicks": 97,
          "midi": 89,
          "name": "F6",
          "ticks": 128162,
          "time": 166.87760416666666,
          "velocity": 0.16535433070866143
        },
        {
          "duration": 0.2552083333333428,
          "durationTicks": 196,
          "midi": 82,
          "name": "A#5",
          "ticks": 128162,
          "time": 166.87760416666666,
          "velocity": 0.28346456692913385
        },
        {
          "duration": 0,
          "durationTicks": 0,
          "midi": 59,
          "name": "B3",
          "ticks": 128179,
          "time": 166.89973958333334,
          "velocity": 0.2440944881889764
        },
        {
          "duration": 0,
          "durationTicks": 0,
          "midi": 50,
          "name": "D3",
          "ticks": 128179,
          "time": 166.89973958333334,
          "velocity": 0.3779527559055118
        },
        {
          "duration": 0,
          "durationTicks": 0,
          "midi": 57,
          "name": "A3",
          "ticks": 128197,
          "time": 166.92317708333334,
          "velocity": 0.29133858267716534
        },
        {
          "duration": 0,
          "durationTicks": 0,
          "midi": 86,
          "name": "D6",
          "ticks": 128197,
          "time": 166.92317708333334,
          "velocity": 0.11023622047244094
        },
        {
          "duration": 0,
          "durationTicks": 0,
          "midi": 79,
          "name": "G5",
          "ticks": 128197,
          "time": 166.92317708333334,
          "velocity": 0.29133858267716534
        },
        {
          "duration": 0,
          "durationTicks": 0,
          "midi": 77,
          "name": "F5",
          "ticks": 128197,
          "time": 166.92317708333334,
          "velocity": 0.14960629921259844
        },
        {
          "duration": 0,
          "durationTicks": 0,
          "midi": 34,
          "name": "A#1",
          "ticks": 128206,
          "time": 166.93489583333334,
          "velocity": 0.4015748031496063
        },
        {
          "duration": 0,
          "durationTicks": 0,
          "midi": 63,
          "name": "D#4",
          "ticks": 128206,
          "time": 166.93489583333334,
          "velocity": 0.16535433070866143
        },
        {
          "duration": 0,
          "durationTicks": 0,
          "midi": 88,
          "name": "E6",
          "ticks": 128206,
          "time": 166.93489583333334,
          "velocity": 0.07874015748031496
        },
        {
          "duration": 0,
          "durationTicks": 0,
          "midi": 52,
          "name": "E3",
          "ticks": 128216,
          "time": 166.94791666666666,
          "velocity": 0.25984251968503935
        },
        {
          "duration": 0,
          "durationTicks": 0,
          "midi": 56,
          "name": "G#3",
          "ticks": 128216,
          "time": 166.94791666666666,
          "velocity": 0.2283464566929134
        },
        {
          "duration": 0,
          "durationTicks": 0,
          "midi": 60,
          "name": "C4",
          "ticks": 128216,
          "time": 166.94791666666666,
          "velocity": 0.2283464566929134
        },
        {
          "duration": 0,
          "durationTicks": 0,
          "midi": 75,
          "name": "D#5",
          "ticks": 128216,
          "time": 166.94791666666666,
          "velocity": 0.2755905511811024
        },
        {
          "duration": 0,
          "durationTicks": 0,
          "midi": 32,
          "name": "G#1",
          "ticks": 128216,
          "time": 166.94791666666666,
          "velocity": 0.3779527559055118
        },
        {
          "duration": 0,
          "durationTicks": 0,
          "midi": 86,
          "name": "D6",
          "ticks": 128216,
          "time": 166.94791666666666,
          "velocity": 0.07086614173228346
        },
        {
          "duration": 0,
          "durationTicks": 0,
          "midi": 50,
          "name": "D3",
          "ticks": 128233,
          "time": 166.97005208333334,
          "velocity": 0.28346456692913385
        },
        {
          "duration": 0,
          "durationTicks": 0,
          "midi": 76,
          "name": "E5",
          "ticks": 128233,
          "time": 166.97005208333334,
          "velocity": 0.25196850393700787
        },
        {
          "duration": 0.12890625,
          "durationTicks": 99,
          "midi": 67,
          "name": "G4",
          "ticks": 128233,
          "time": 166.97005208333334,
          "velocity": 0.25984251968503935
        },
        {
          "duration": 0,
          "durationTicks": 0,
          "midi": 33,
          "name": "A1",
          "ticks": 128242,
          "time": 166.98177083333334,
          "velocity": 0.3779527559055118
        },
        {
          "duration": 0,
          "durationTicks": 0,
          "midi": 60,
          "name": "C4",
          "ticks": 128242,
          "time": 166.98177083333334,
          "velocity": 0.2283464566929134
        },
        {
          "duration": 0,
          "durationTicks": 0,
          "midi": 63,
          "name": "D#4",
          "ticks": 128242,
          "time": 166.98177083333334,
          "velocity": 0.16535433070866143
        },
        {
          "duration": 0.12890625,
          "durationTicks": 99,
          "midi": 70,
          "name": "A#4",
          "ticks": 128242,
          "time": 166.98177083333334,
          "velocity": 0.2677165354330709
        },
        {
          "duration": 0,
          "durationTicks": 0,
          "midi": 86,
          "name": "D6",
          "ticks": 128252,
          "time": 166.99479166666666,
          "velocity": 0.08661417322834646
        },
        {
          "duration": 0,
          "durationTicks": 0,
          "midi": 72,
          "name": "C5",
          "ticks": 128261,
          "time": 167.00651041666666,
          "velocity": 0.11811023622047244
        },
        {
          "duration": 0.12890625,
          "durationTicks": 99,
          "midi": 75,
          "name": "D#5",
          "ticks": 128261,
          "time": 167.00651041666666,
          "velocity": 0.2992125984251969
        },
        {
          "duration": 0.12890625,
          "durationTicks": 99,
          "midi": 32,
          "name": "G#1",
          "ticks": 128261,
          "time": 167.00651041666666,
          "velocity": 0.3700787401574803
        },
        {
          "duration": 0,
          "durationTicks": 0,
          "midi": 60,
          "name": "C4",
          "ticks": 128270,
          "time": 167.01822916666666,
          "velocity": 0.23622047244094488
        },
        {
          "duration": 0,
          "durationTicks": 0,
          "midi": 50,
          "name": "D3",
          "ticks": 128280,
          "time": 167.03125,
          "velocity": 0.29133858267716534
        },
        {
          "duration": 0,
          "durationTicks": 0,
          "midi": 80,
          "name": "G#5",
          "ticks": 128280,
          "time": 167.03125,
          "velocity": 0.1968503937007874
        },
        {
          "duration": 0,
          "durationTicks": 0,
          "midi": 63,
          "name": "D#4",
          "ticks": 128289,
          "time": 167.04296875,
          "velocity": 0.2047244094488189
        },
        {
          "duration": 0,
          "durationTicks": 0,
          "midi": 83,
          "name": "B5",
          "ticks": 128307,
          "time": 167.06640625,
          "velocity": 0.08661417322834646
        },
        {
          "duration": 0.1302083333333428,
          "durationTicks": 100,
          "midi": 58,
          "name": "A#3",
          "ticks": 128307,
          "time": 167.06640625,
          "velocity": 0.2677165354330709
        },
        {
          "duration": 0,
          "durationTicks": 0,
          "midi": 51,
          "name": "D#3",
          "ticks": 128316,
          "time": 167.078125,
          "velocity": 0.13385826771653545
        },
        {
          "duration": 0,
          "durationTicks": 0,
          "midi": 63,
          "name": "D#4",
          "ticks": 128316,
          "time": 167.078125,
          "velocity": 0.1968503937007874
        },
        {
          "duration": 0.1302083333333428,
          "durationTicks": 100,
          "midi": 80,
          "name": "G#5",
          "ticks": 128316,
          "time": 167.078125,
          "velocity": 0.25984251968503935
        },
        {
          "duration": 0,
          "durationTicks": 0,
          "midi": 68,
          "name": "G#4",
          "ticks": 128325,
          "time": 167.08984375,
          "velocity": 0.1889763779527559
        },
        {
          "duration": 0,
          "durationTicks": 0,
          "midi": 77,
          "name": "F5",
          "ticks": 128334,
          "time": 167.1015625,
          "velocity": 0.09448818897637795
        },
        {
          "duration": 0.1302083333333428,
          "durationTicks": 100,
          "midi": 87,
          "name": "D#6",
          "ticks": 128334,
          "time": 167.1015625,
          "velocity": 0.13385826771653545
        },
        {
          "duration": 0,
          "durationTicks": 0,
          "midi": 67,
          "name": "G4",
          "ticks": 128353,
          "time": 167.12630208333334,
          "velocity": 0.25984251968503935
        },
        {
          "duration": 0.12890625,
          "durationTicks": 99,
          "midi": 82,
          "name": "A#5",
          "ticks": 128353,
          "time": 167.12630208333334,
          "velocity": 0.2755905511811024
        },
        {
          "duration": 0,
          "durationTicks": 0,
          "midi": 76,
          "name": "E5",
          "ticks": 128372,
          "time": 167.15104166666666,
          "velocity": 0.2440944881889764
        },
        {
          "duration": 0,
          "durationTicks": 0,
          "midi": 60,
          "name": "C4",
          "ticks": 128381,
          "time": 167.16276041666666,
          "velocity": 0.2047244094488189
        },
        {
          "duration": 0,
          "durationTicks": 0,
          "midi": 64,
          "name": "E4",
          "ticks": 128381,
          "time": 167.16276041666666,
          "velocity": 0.1889763779527559
        },
        {
          "duration": 0,
          "durationTicks": 0,
          "midi": 89,
          "name": "F6",
          "ticks": 128381,
          "time": 167.16276041666666,
          "velocity": 0.05511811023622047
        },
        {
          "duration": 0.12890625,
          "durationTicks": 99,
          "midi": 87,
          "name": "D#6",
          "ticks": 128381,
          "time": 167.16276041666666,
          "velocity": 0.2204724409448819
        },
        {
          "duration": 0,
          "durationTicks": 0,
          "midi": 48,
          "name": "C3",
          "ticks": 128390,
          "time": 167.17447916666666,
          "velocity": 0.4015748031496063
        },
        {
          "duration": 0,
          "durationTicks": 0,
          "midi": 75,
          "name": "D#5",
          "ticks": 128400,
          "time": 167.1875,
          "velocity": 0.1968503937007874
        },
        {
          "duration": 0,
          "durationTicks": 0,
          "midi": 47,
          "name": "B2",
          "ticks": 128409,
          "time": 167.19921875,
          "velocity": 0.4015748031496063
        },
        {
          "duration": 0,
          "durationTicks": 0,
          "midi": 67,
          "name": "G4",
          "ticks": 128418,
          "time": 167.2109375,
          "velocity": 0.1732283464566929
        },
        {
          "duration": 0.1276041666666572,
          "durationTicks": 98,
          "midi": 79,
          "name": "G5",
          "ticks": 128418,
          "time": 167.2109375,
          "velocity": 0.2283464566929134
        },
        {
          "duration": 0,
          "durationTicks": 0,
          "midi": 29,
          "name": "F1",
          "ticks": 128427,
          "time": 167.22265625,
          "velocity": 0.3858267716535433
        },
        {
          "duration": 0,
          "durationTicks": 0,
          "midi": 60,
          "name": "C4",
          "ticks": 128437,
          "time": 167.23567708333334,
          "velocity": 0.1732283464566929
        },
        {
          "duration": 0,
          "durationTicks": 0,
          "midi": 46,
          "name": "A#2",
          "ticks": 128437,
          "time": 167.23567708333334,
          "velocity": 0.3937007874015748
        },
        {
          "duration": 0,
          "durationTicks": 0,
          "midi": 70,
          "name": "A#4",
          "ticks": 128437,
          "time": 167.23567708333334,
          "velocity": 0.1889763779527559
        },
        {
          "duration": 0,
          "durationTicks": 0,
          "midi": 76,
          "name": "E5",
          "ticks": 128464,
          "time": 167.27083333333334,
          "velocity": 0.1968503937007874
        },
        {
          "duration": 0,
          "durationTicks": 0,
          "midi": 67,
          "name": "G4",
          "ticks": 128464,
          "time": 167.27083333333334,
          "velocity": 0.2204724409448819
        },
        {
          "duration": 0.12890625,
          "durationTicks": 99,
          "midi": 45,
          "name": "A2",
          "ticks": 128464,
          "time": 167.27083333333334,
          "velocity": 0.36220472440944884
        },
        {
          "duration": 0,
          "durationTicks": 0,
          "midi": 58,
          "name": "A#3",
          "ticks": 128473,
          "time": 167.28255208333334,
          "velocity": 0.1968503937007874
        },
        {
          "duration": 0,
          "durationTicks": 0,
          "midi": 26,
          "name": "D1",
          "ticks": 128473,
          "time": 167.28255208333334,
          "velocity": 0.3779527559055118
        },
        {
          "duration": 0.12890625,
          "durationTicks": 99,
          "midi": 75,
          "name": "D#5",
          "ticks": 128492,
          "time": 167.30729166666666,
          "velocity": 0.2283464566929134
        },
        {
          "duration": 0.2578125,
          "durationTicks": 198,
          "midi": 89,
          "name": "F6",
          "ticks": 128492,
          "time": 167.30729166666666,
          "velocity": 0.3779527559055118
        },
        {
          "duration": 0.12109375,
          "durationTicks": 93,
          "midi": 70,
          "name": "A#4",
          "ticks": 128509,
          "time": 167.32942708333334,
          "velocity": 0.2047244094488189
        },
        {
          "duration": 0,
          "durationTicks": 0,
          "midi": 35,
          "name": "B1",
          "ticks": 128519,
          "time": 167.34244791666666,
          "velocity": 0.36220472440944884
        },
        {
          "duration": 0,
          "durationTicks": 0,
          "midi": 44,
          "name": "G#2",
          "ticks": 128528,
          "time": 167.35416666666666,
          "velocity": 0.33070866141732286
        },
        {
          "duration": 0,
          "durationTicks": 0,
          "midi": 63,
          "name": "D#4",
          "ticks": 128528,
          "time": 167.35416666666666,
          "velocity": 0.1968503937007874
        },
        {
          "duration": 0,
          "durationTicks": 0,
          "midi": 80,
          "name": "G#5",
          "ticks": 128537,
          "time": 167.36588541666666,
          "velocity": 0.12598425196850394
        },
        {
          "duration": 0,
          "durationTicks": 0,
          "midi": 34,
          "name": "A#1",
          "ticks": 128546,
          "time": 167.37760416666666,
          "velocity": 0.3700787401574803
        },
        {
          "duration": 0,
          "durationTicks": 0,
          "midi": 68,
          "name": "G#4",
          "ticks": 128556,
          "time": 167.390625,
          "velocity": 0.2047244094488189
        },
        {
          "duration": 0,
          "durationTicks": 0,
          "midi": 33,
          "name": "A1",
          "ticks": 128565,
          "time": 167.40234375,
          "velocity": 0.3858267716535433
        },
        {
          "duration": 0,
          "durationTicks": 0,
          "midi": 71,
          "name": "B4",
          "ticks": 128565,
          "time": 167.40234375,
          "velocity": 0.16535433070866143
        },
        {
          "duration": 0,
          "durationTicks": 0,
          "midi": 47,
          "name": "B2",
          "ticks": 128574,
          "time": 167.4140625,
          "velocity": 0.25196850393700787
        },
        {
          "duration": 0,
          "durationTicks": 0,
          "midi": 55,
          "name": "G3",
          "ticks": 128574,
          "time": 167.4140625,
          "velocity": 0.16535433070866143
        },
        {
          "duration": 0.12890625,
          "durationTicks": 99,
          "midi": 92,
          "name": "G#6",
          "ticks": 128574,
          "time": 167.4140625,
          "velocity": 0.1968503937007874
        },
        {
          "duration": 0.2578125,
          "durationTicks": 198,
          "midi": 87,
          "name": "D#6",
          "ticks": 128574,
          "time": 167.4140625,
          "velocity": 0.33070866141732286
        },
        {
          "duration": 0,
          "durationTicks": 0,
          "midi": 66,
          "name": "F#4",
          "ticks": 128584,
          "time": 167.42708333333334,
          "velocity": 0.2125984251968504
        },
        {
          "duration": 0,
          "durationTicks": 0,
          "midi": 76,
          "name": "E5",
          "ticks": 128584,
          "time": 167.42708333333334,
          "velocity": 0.2125984251968504
        },
        {
          "duration": 0,
          "durationTicks": 0,
          "midi": 72,
          "name": "C5",
          "ticks": 128593,
          "time": 167.43880208333334,
          "velocity": 0.18110236220472442
        },
        {
          "duration": 0.2578125,
          "durationTicks": 198,
          "midi": 77,
          "name": "F5",
          "ticks": 128593,
          "time": 167.43880208333334,
          "velocity": 0.2047244094488189
        },
        {
          "duration": 0.009114583333314386,
          "durationTicks": 7,
          "midi": 70,
          "name": "A#4",
          "ticks": 128602,
          "time": 167.45052083333334,
          "velocity": 0.11811023622047244
        },
        {
          "duration": 0.12890625,
          "durationTicks": 99,
          "midi": 65,
          "name": "F4",
          "ticks": 128602,
          "time": 167.45052083333334,
          "velocity": 0.1889763779527559
        },
        {
          "duration": 0,
          "durationTicks": 0,
          "midi": 82,
          "name": "A#5",
          "ticks": 128612,
          "time": 167.46354166666666,
          "velocity": 0.2283464566929134
        },
        {
          "duration": 0.12890625,
          "durationTicks": 99,
          "midi": 68,
          "name": "G#4",
          "ticks": 128612,
          "time": 167.46354166666666,
          "velocity": 0.13385826771653545
        },
        {
          "duration": 0,
          "durationTicks": 0,
          "midi": 61,
          "name": "C#4",
          "ticks": 128621,
          "time": 167.47526041666666,
          "velocity": 0.18110236220472442
        },
        {
          "duration": 0,
          "durationTicks": 0,
          "midi": 75,
          "name": "D#5",
          "ticks": 128621,
          "time": 167.47526041666666,
          "velocity": 0.2283464566929134
        },
        {
          "duration": 0,
          "durationTicks": 0,
          "midi": 33,
          "name": "A1",
          "ticks": 128638,
          "time": 167.49739583333334,
          "velocity": 0.3937007874015748
        },
        {
          "duration": 0.1302083333333428,
          "durationTicks": 100,
          "midi": 70,
          "name": "A#4",
          "ticks": 128648,
          "time": 167.51041666666666,
          "velocity": 0.25984251968503935
        },
        {
          "duration": 0.1302083333333428,
          "durationTicks": 100,
          "midi": 61,
          "name": "C#4",
          "ticks": 128657,
          "time": 167.52213541666666,
          "velocity": 0.1968503937007874
        },
        {
          "duration": 0,
          "durationTicks": 0,
          "midi": 35,
          "name": "B1",
          "ticks": 128666,
          "time": 167.53385416666666,
          "velocity": 0.3700787401574803
        },
        {
          "duration": 0.12890625,
          "durationTicks": 99,
          "midi": 85,
          "name": "C#6",
          "ticks": 128676,
          "time": 167.546875,
          "velocity": 0.2204724409448819
        },
        {
          "duration": 0,
          "durationTicks": 0,
          "midi": 34,
          "name": "A#1",
          "ticks": 128685,
          "time": 167.55859375,
          "velocity": 0.3700787401574803
        },
        {
          "duration": 0,
          "durationTicks": 0,
          "midi": 75,
          "name": "D#5",
          "ticks": 128685,
          "time": 167.55859375,
          "velocity": 0.25196850393700787
        },
        {
          "duration": 0,
          "durationTicks": 0,
          "midi": 66,
          "name": "F#4",
          "ticks": 128713,
          "time": 167.59505208333334,
          "velocity": 0.30708661417322836
        },
        {
          "duration": 0,
          "durationTicks": 0,
          "midi": 31,
          "name": "G1",
          "ticks": 128722,
          "time": 167.60677083333334,
          "velocity": 0.3779527559055118
        },
        {
          "duration": 0,
          "durationTicks": 0,
          "midi": 50,
          "name": "D3",
          "ticks": 128722,
          "time": 167.60677083333334,
          "velocity": 0.07086614173228346
        },
        {
          "duration": 0.1276041666666572,
          "durationTicks": 98,
          "midi": 82,
          "name": "A#5",
          "ticks": 128722,
          "time": 167.60677083333334,
          "velocity": 0.2283464566929134
        },
        {
          "duration": 0.3815104166666572,
          "durationTicks": 293,
          "midi": 89,
          "name": "F6",
          "ticks": 128731,
          "time": 167.61848958333334,
          "velocity": 0.3779527559055118
        },
        {
          "duration": 0,
          "durationTicks": 0,
          "midi": 63,
          "name": "D#4",
          "ticks": 128741,
          "time": 167.63151041666666,
          "velocity": 0.1732283464566929
        },
        {
          "duration": 0.1263020833333428,
          "durationTicks": 97,
          "midi": 68,
          "name": "G#4",
          "ticks": 128750,
          "time": 167.64322916666666,
          "velocity": 0.1732283464566929
        },
        {
          "duration": 0,
          "durationTicks": 0,
          "midi": 48,
          "name": "C3",
          "ticks": 128759,
          "time": 167.65494791666666,
          "velocity": 0.2047244094488189
        },
        {
          "duration": 0.1263020833333428,
          "durationTicks": 97,
          "midi": 65,
          "name": "F4",
          "ticks": 128759,
          "time": 167.65494791666666,
          "velocity": 0.1889763779527559
        },
        {
          "duration": 0,
          "durationTicks": 0,
          "midi": 57,
          "name": "A3",
          "ticks": 128777,
          "time": 167.67838541666666,
          "velocity": 0.28346456692913385
        },
        {
          "duration": 0,
          "durationTicks": 0,
          "midi": 61,
          "name": "C#4",
          "ticks": 128777,
          "time": 167.67838541666666,
          "velocity": 0.18110236220472442
        },
        {
          "duration": 0,
          "durationTicks": 0,
          "midi": 88,
          "name": "E6",
          "ticks": 128777,
          "time": 167.67838541666666,
          "velocity": 0.29133858267716534
        },
        {
          "duration": 0.1263020833333428,
          "durationTicks": 97,
          "midi": 92,
          "name": "G#6",
          "ticks": 128777,
          "time": 167.67838541666666,
          "velocity": 0.11811023622047244
        },
        {
          "duration": 0,
          "durationTicks": 0,
          "midi": 44,
          "name": "G#2",
          "ticks": 128786,
          "time": 167.69010416666666,
          "velocity": 0.4015748031496063
        },
        {
          "duration": 0.1263020833333428,
          "durationTicks": 97,
          "midi": 86,
          "name": "D6",
          "ticks": 128786,
          "time": 167.69010416666666,
          "velocity": 0.30708661417322836
        },
        {
          "duration": 0,
          "durationTicks": 0,
          "midi": 85,
          "name": "C#6",
          "ticks": 128796,
          "time": 167.703125,
          "velocity": 0.1889763779527559
        },
        {
          "duration": 0,
          "durationTicks": 0,
          "midi": 76,
          "name": "E5",
          "ticks": 128813,
          "time": 167.72526041666666,
          "velocity": 0.08661417322834646
        },
        {
          "duration": 0.12760416666668561,
          "durationTicks": 98,
          "midi": 84,
          "name": "C6",
          "ticks": 128813,
          "time": 167.72526041666666,
          "velocity": 0.23622047244094488
        },
        {
          "duration": 0.1263020833333428,
          "durationTicks": 97,
          "midi": 83,
          "name": "B5",
          "ticks": 128832,
          "time": 167.75,
          "velocity": 0.2755905511811024
        },
        {
          "duration": 0,
          "durationTicks": 0,
          "midi": 73,
          "name": "C#5",
          "ticks": 128849,
          "time": 167.77213541666666,
          "velocity": 0.2047244094488189
        },
        {
          "duration": 0,
          "durationTicks": 0,
          "midi": 41,
          "name": "F2",
          "ticks": 128859,
          "time": 167.78515625,
          "velocity": 0.3228346456692913
        },
        {
          "duration": 0,
          "durationTicks": 0,
          "midi": 66,
          "name": "F#4",
          "ticks": 128859,
          "time": 167.78515625,
          "velocity": 0.16535433070866143
        },
        {
          "duration": 0,
          "durationTicks": 0,
          "midi": 81,
          "name": "A5",
          "ticks": 128859,
          "time": 167.78515625,
          "velocity": 0.23622047244094488
        },
        {
          "duration": 0,
          "durationTicks": 0,
          "midi": 90,
          "name": "F#6",
          "ticks": 128859,
          "time": 167.78515625,
          "velocity": 0.13385826771653545
        },
        {
          "duration": 0,
          "durationTicks": 0,
          "midi": 77,
          "name": "F5",
          "ticks": 128876,
          "time": 167.80729166666666,
          "velocity": 0.11811023622047244
        },
        {
          "duration": 0,
          "durationTicks": 0,
          "midi": 85,
          "name": "C#6",
          "ticks": 128876,
          "time": 167.80729166666666,
          "velocity": 0.09448818897637795
        },
        {
          "duration": 0.1276041666666572,
          "durationTicks": 98,
          "midi": 46,
          "name": "A#2",
          "ticks": 128886,
          "time": 167.8203125,
          "velocity": 0.36220472440944884
        },
        {
          "duration": 0.1276041666666572,
          "durationTicks": 98,
          "midi": 65,
          "name": "F4",
          "ticks": 128886,
          "time": 167.8203125,
          "velocity": 0.1889763779527559
        },
        {
          "duration": 0.1276041666666572,
          "durationTicks": 98,
          "midi": 82,
          "name": "A#5",
          "ticks": 128886,
          "time": 167.8203125,
          "velocity": 0.2047244094488189
        },
        {
          "duration": 0,
          "durationTicks": 0,
          "midi": 79,
          "name": "G5",
          "ticks": 128895,
          "time": 167.83203125,
          "velocity": 0.1968503937007874
        },
        {
          "duration": 0,
          "durationTicks": 0,
          "midi": 87,
          "name": "D#6",
          "ticks": 128904,
          "time": 167.84375,
          "velocity": 0.14173228346456693
        },
        {
          "duration": 0,
          "durationTicks": 0,
          "midi": 78,
          "name": "F#5",
          "ticks": 128904,
          "time": 167.84375,
          "velocity": 0.25196850393700787
        },
        {
          "duration": 0.1276041666666572,
          "durationTicks": 98,
          "midi": 80,
          "name": "G#5",
          "ticks": 128904,
          "time": 167.84375,
          "velocity": 0.1968503937007874
        },
        {
          "duration": 0,
          "durationTicks": 0,
          "midi": 61,
          "name": "C#4",
          "ticks": 128914,
          "time": 167.85677083333334,
          "velocity": 0.1732283464566929
        },
        {
          "duration": 0,
          "durationTicks": 0,
          "midi": 75,
          "name": "D#5",
          "ticks": 128914,
          "time": 167.85677083333334,
          "velocity": 0.14173228346456693
        },
        {
          "duration": 0,
          "durationTicks": 0,
          "midi": 76,
          "name": "E5",
          "ticks": 128931,
          "time": 167.87890625,
          "velocity": 0.2283464566929134
        },
        {
          "duration": 0.6354166666666572,
          "durationTicks": 488,
          "midi": 87,
          "name": "D#6",
          "ticks": 128931,
          "time": 167.87890625,
          "velocity": 0.3700787401574803
        },
        {
          "duration": 0,
          "durationTicks": 0,
          "midi": 75,
          "name": "D#5",
          "ticks": 128949,
          "time": 167.90234375,
          "velocity": 0.2204724409448819
        },
        {
          "duration": 0,
          "durationTicks": 0,
          "midi": 58,
          "name": "A#3",
          "ticks": 128958,
          "time": 167.9140625,
          "velocity": 0.23622047244094488
        },
        {
          "duration": 0,
          "durationTicks": 0,
          "midi": 68,
          "name": "G#4",
          "ticks": 128967,
          "time": 167.92578125,
          "velocity": 0.2125984251968504
        },
        {
          "duration": 0.03645833333334281,
          "durationTicks": 28,
          "midi": 86,
          "name": "D6",
          "ticks": 128967,
          "time": 167.92578125,
          "velocity": 0.11023622047244094
        },
        {
          "duration": 0,
          "durationTicks": 0,
          "midi": 57,
          "name": "A3",
          "ticks": 128977,
          "time": 167.93880208333334,
          "velocity": 0.2992125984251969
        },
        {
          "duration": 0,
          "durationTicks": 0,
          "midi": 38,
          "name": "D2",
          "ticks": 128995,
          "time": 167.96223958333334,
          "velocity": 0.2283464566929134
        },
        {
          "duration": 0,
          "durationTicks": 0,
          "midi": 73,
          "name": "C#5",
          "ticks": 128995,
          "time": 167.96223958333334,
          "velocity": 0.1889763779527559
        },
        {
          "duration": 0,
          "durationTicks": 0,
          "midi": 66,
          "name": "F#4",
          "ticks": 128995,
          "time": 167.96223958333334,
          "velocity": 0.1968503937007874
        },
        {
          "duration": 0.09244791666665719,
          "durationTicks": 71,
          "midi": 86,
          "name": "D6",
          "ticks": 128995,
          "time": 167.96223958333334,
          "velocity": 0.18110236220472442
        },
        {
          "duration": 0,
          "durationTicks": 0,
          "midi": 77,
          "name": "F5",
          "ticks": 129031,
          "time": 168.00911458333334,
          "velocity": 0.1732283464566929
        },
        {
          "duration": 0,
          "durationTicks": 0,
          "midi": 73,
          "name": "C#5",
          "ticks": 129041,
          "time": 168.02213541666666,
          "velocity": 0.18110236220472442
        },
        {
          "duration": 0,
          "durationTicks": 0,
          "midi": 83,
          "name": "B5",
          "ticks": 129050,
          "time": 168.03385416666666,
          "velocity": 0.14173228346456693
        },
        {
          "duration": 0,
          "durationTicks": 0,
          "midi": 57,
          "name": "A3",
          "ticks": 129059,
          "time": 168.04557291666666,
          "velocity": 0.1968503937007874
        },
        {
          "duration": 0,
          "durationTicks": 0,
          "midi": 77,
          "name": "F5",
          "ticks": 129078,
          "time": 168.0703125,
          "velocity": 0.18110236220472442
        },
        {
          "duration": 0,
          "durationTicks": 0,
          "midi": 73,
          "name": "C#5",
          "ticks": 129096,
          "time": 168.09375,
          "velocity": 0.1732283464566929
        },
        {
          "duration": 0,
          "durationTicks": 0,
          "midi": 80,
          "name": "G#5",
          "ticks": 129096,
          "time": 168.09375,
          "velocity": 0.08661417322834646
        },
        {
          "duration": 0,
          "durationTicks": 0,
          "midi": 48,
          "name": "C3",
          "ticks": 129105,
          "time": 168.10546875,
          "velocity": 0.18110236220472442
        },
        {
          "duration": 0,
          "durationTicks": 0,
          "midi": 69,
          "name": "A4",
          "ticks": 129105,
          "time": 168.10546875,
          "velocity": 0.16535433070866143
        },
        {
          "duration": 0,
          "durationTicks": 0,
          "midi": 77,
          "name": "F5",
          "ticks": 129122,
          "time": 168.12760416666666,
          "velocity": 0.1889763779527559
        },
        {
          "duration": 0,
          "durationTicks": 0,
          "midi": 73,
          "name": "C#5",
          "ticks": 129140,
          "time": 168.15104166666666,
          "velocity": 0.1732283464566929
        },
        {
          "duration": 0.12760416666668561,
          "durationTicks": 98,
          "midi": 77,
          "name": "F5",
          "ticks": 129167,
          "time": 168.18619791666666,
          "velocity": 0.12598425196850394
        },
        {
          "duration": 0.12760416666668561,
          "durationTicks": 98,
          "midi": 84,
          "name": "C6",
          "ticks": 129167,
          "time": 168.18619791666666,
          "velocity": 0.2204724409448819
        },
        {
          "duration": 0.12760416666668561,
          "durationTicks": 98,
          "midi": 34,
          "name": "A#1",
          "ticks": 129167,
          "time": 168.18619791666666,
          "velocity": 0.3779527559055118
        },
        {
          "duration": 0.12760416666668561,
          "durationTicks": 98,
          "midi": 61,
          "name": "C#4",
          "ticks": 129176,
          "time": 168.19791666666666,
          "velocity": 0.18110236220472442
        },
        {
          "duration": 0.12760416666668561,
          "durationTicks": 98,
          "midi": 65,
          "name": "F4",
          "ticks": 129176,
          "time": 168.19791666666666,
          "velocity": 0.16535433070866143
        },
        {
          "duration": 0.12890625,
          "durationTicks": 99,
          "midi": 68,
          "name": "G#4",
          "ticks": 129203,
          "time": 168.23307291666666,
          "velocity": 0.11023622047244094
        },
        {
          "duration": 0,
          "durationTicks": 0,
          "midi": 57,
          "name": "A3",
          "ticks": 129212,
          "time": 168.24479166666666,
          "velocity": 0.2204724409448819
        },
        {
          "duration": 0,
          "durationTicks": 0,
          "midi": 70,
          "name": "A#4",
          "ticks": 129222,
          "time": 168.2578125,
          "velocity": 0.05511811023622047
        },
        {
          "duration": 0,
          "durationTicks": 0,
          "midi": 83,
          "name": "B5",
          "ticks": 129231,
          "time": 168.26953125,
          "velocity": 0.16535433070866143
        },
        {
          "duration": 0,
          "durationTicks": 0,
          "midi": 81,
          "name": "A5",
          "ticks": 129240,
          "time": 168.28125,
          "velocity": 0.11023622047244094
        },
        {
          "duration": 0,
          "durationTicks": 0,
          "midi": 35,
          "name": "B1",
          "ticks": 129250,
          "time": 168.29427083333334,
          "velocity": 0.3464566929133858
        },
        {
          "duration": 0,
          "durationTicks": 0,
          "midi": 57,
          "name": "A3",
          "ticks": 129250,
          "time": 168.29427083333334,
          "velocity": 0.2047244094488189
        },
        {
          "duration": 0.12630208333331439,
          "durationTicks": 97,
          "midi": 82,
          "name": "A#5",
          "ticks": 129250,
          "time": 168.29427083333334,
          "velocity": 0.25984251968503935
        },
        {
          "duration": 0,
          "durationTicks": 0,
          "midi": 78,
          "name": "F#5",
          "ticks": 129286,
          "time": 168.34114583333334,
          "velocity": 0.14960629921259844
        },
        {
          "duration": 0,
          "durationTicks": 0,
          "midi": 66,
          "name": "F#4",
          "ticks": 129295,
          "time": 168.35286458333334,
          "velocity": 0.08661417322834646
        },
        {
          "duration": 0.12630208333331439,
          "durationTicks": 97,
          "midi": 89,
          "name": "F6",
          "ticks": 129295,
          "time": 168.35286458333334,
          "velocity": 0.13385826771653545
        },
        {
          "duration": 0,
          "durationTicks": 0,
          "midi": 57,
          "name": "A3",
          "ticks": 129340,
          "time": 168.41145833333334,
          "velocity": 0.2125984251968504
        },
        {
          "duration": 0,
          "durationTicks": 0,
          "midi": 36,
          "name": "C2",
          "ticks": 129349,
          "time": 168.42317708333334,
          "velocity": 0.31496062992125984
        },
        {
          "duration": 0.12630208333331439,
          "durationTicks": 97,
          "midi": 91,
          "name": "G6",
          "ticks": 129349,
          "time": 168.42317708333334,
          "velocity": 0.2125984251968504
        },
        {
          "duration": 0.12630208333331439,
          "durationTicks": 97,
          "midi": 79,
          "name": "G5",
          "ticks": 129358,
          "time": 168.43489583333334,
          "velocity": 0.2283464566929134
        },
        {
          "duration": 0,
          "durationTicks": 0,
          "midi": 63,
          "name": "D#4",
          "ticks": 129368,
          "time": 168.44791666666666,
          "velocity": 0.18110236220472442
        },
        {
          "duration": 0.1263020833333428,
          "durationTicks": 97,
          "midi": 67,
          "name": "G4",
          "ticks": 129368,
          "time": 168.44791666666666,
          "velocity": 0.1732283464566929
        },
        {
          "duration": 0,
          "durationTicks": 0,
          "midi": 35,
          "name": "B1",
          "ticks": 129385,
          "time": 168.47005208333334,
          "velocity": 0.4251968503937008
        },
        {
          "duration": 0,
          "durationTicks": 0,
          "midi": 84,
          "name": "C6",
          "ticks": 129385,
          "time": 168.47005208333334,
          "velocity": 0.08661417322834646
        },
        {
          "duration": 0.1263020833333428,
          "durationTicks": 97,
          "midi": 87,
          "name": "D#6",
          "ticks": 129395,
          "time": 168.48307291666666,
          "velocity": 0.1968503937007874
        },
        {
          "duration": 0,
          "durationTicks": 0,
          "midi": 60,
          "name": "C4",
          "ticks": 129404,
          "time": 168.49479166666666,
          "velocity": 0.2283464566929134
        },
        {
          "duration": 0,
          "durationTicks": 0,
          "midi": 70,
          "name": "A#4",
          "ticks": 129404,
          "time": 168.49479166666666,
          "velocity": 0.18110236220472442
        },
        {
          "duration": 0,
          "durationTicks": 0,
          "midi": 36,
          "name": "C2",
          "ticks": 129421,
          "time": 168.51692708333334,
          "velocity": 0.3937007874015748
        },
        {
          "duration": 0,
          "durationTicks": 0,
          "midi": 63,
          "name": "D#4",
          "ticks": 129421,
          "time": 168.51692708333334,
          "velocity": 0.1732283464566929
        },
        {
          "duration": 0,
          "durationTicks": 0,
          "midi": 60,
          "name": "C4",
          "ticks": 129431,
          "time": 168.52994791666666,
          "velocity": 0.2204724409448819
        },
        {
          "duration": 0.12630208333331439,
          "durationTicks": 97,
          "midi": 84,
          "name": "C6",
          "ticks": 129448,
          "time": 168.55208333333334,
          "velocity": 0.2204724409448819
        },
        {
          "duration": 0.12630208333331439,
          "durationTicks": 97,
          "midi": 80,
          "name": "G#5",
          "ticks": 129448,
          "time": 168.55208333333334,
          "velocity": 0.25984251968503935
        },
        {
          "duration": 0.125,
          "durationTicks": 96,
          "midi": 82,
          "name": "A#5",
          "ticks": 129467,
          "time": 168.57682291666666,
          "velocity": 0.2677165354330709
        },
        {
          "duration": 0,
          "durationTicks": 0,
          "midi": 75,
          "name": "D#5",
          "ticks": 129476,
          "time": 168.58854166666666,
          "velocity": 0.1732283464566929
        },
        {
          "duration": 0,
          "durationTicks": 0,
          "midi": 70,
          "name": "A#4",
          "ticks": 129494,
          "time": 168.61197916666666,
          "velocity": 0.1732283464566929
        },
        {
          "duration": 0,
          "durationTicks": 0,
          "midi": 89,
          "name": "F6",
          "ticks": 129503,
          "time": 168.62369791666666,
          "velocity": 0.08661417322834646
        },
        {
          "duration": 0,
          "durationTicks": 0,
          "midi": 75,
          "name": "D#5",
          "ticks": 129521,
          "time": 168.64713541666666,
          "velocity": 0.1732283464566929
        },
        {
          "duration": 0.12630208333331439,
          "durationTicks": 97,
          "midi": 77,
          "name": "F5",
          "ticks": 129538,
          "time": 168.66927083333334,
          "velocity": 0.23622047244094488
        },
        {
          "duration": 0,
          "durationTicks": 0,
          "midi": 91,
          "name": "G6",
          "ticks": 129548,
          "time": 168.68229166666666,
          "velocity": 0.11811023622047244
        },
        {
          "duration": 0.07161458333331439,
          "durationTicks": 55,
          "midi": 84,
          "name": "C6",
          "ticks": 129592,
          "time": 168.73958333333334,
          "velocity": 0.09448818897637795
        },
        {
          "duration": 0.12890625,
          "durationTicks": 99,
          "midi": 87,
          "name": "D#6",
          "ticks": 129592,
          "time": 168.73958333333334,
          "velocity": 0.11023622047244094
        },
        {
          "duration": 0,
          "durationTicks": 0,
          "midi": 81,
          "name": "A5",
          "ticks": 129628,
          "time": 168.78645833333334,
          "velocity": 0.06299212598425197
        },
        {
          "duration": 0,
          "durationTicks": 0,
          "midi": 61,
          "name": "C#4",
          "ticks": 129647,
          "time": 168.81119791666666,
          "velocity": 0.1968503937007874
        },
        {
          "duration": 0.057291666666685614,
          "durationTicks": 44,
          "midi": 84,
          "name": "C6",
          "ticks": 129647,
          "time": 168.81119791666666,
          "velocity": 0.11023622047244094
        },
        {
          "duration": 0.12890625,
          "durationTicks": 99,
          "midi": 75,
          "name": "D#5",
          "ticks": 129647,
          "time": 168.81119791666666,
          "velocity": 0.1968503937007874
        },
        {
          "duration": 0.12890625,
          "durationTicks": 99,
          "midi": 36,
          "name": "C2",
          "ticks": 129647,
          "time": 168.81119791666666,
          "velocity": 0.3779527559055118
        },
        {
          "duration": 0.12890625,
          "durationTicks": 99,
          "midi": 79,
          "name": "G5",
          "ticks": 129647,
          "time": 168.81119791666666,
          "velocity": 0.2440944881889764
        },
        {
          "duration": 0.12890625,
          "durationTicks": 99,
          "midi": 63,
          "name": "D#4",
          "ticks": 129656,
          "time": 168.82291666666666,
          "velocity": 0.1889763779527559
        },
        {
          "duration": 0.12890625,
          "durationTicks": 99,
          "midi": 67,
          "name": "G4",
          "ticks": 129656,
          "time": 168.82291666666666,
          "velocity": 0.1889763779527559
        },
        {
          "duration": 0,
          "durationTicks": 0,
          "midi": 60,
          "name": "C4",
          "ticks": 129666,
          "time": 168.8359375,
          "velocity": 0.2283464566929134
        },
        {
          "duration": 0,
          "durationTicks": 0,
          "midi": 80,
          "name": "G#5",
          "ticks": 129675,
          "time": 168.84765625,
          "velocity": 0.07086614173228346
        },
        {
          "duration": 0.12890625,
          "durationTicks": 99,
          "midi": 70,
          "name": "A#4",
          "ticks": 129684,
          "time": 168.859375,
          "velocity": 0.1968503937007874
        },
        {
          "duration": 0,
          "durationTicks": 0,
          "midi": 60,
          "name": "C4",
          "ticks": 129694,
          "time": 168.87239583333334,
          "velocity": 0.2204724409448819
        },
        {
          "duration": 0,
          "durationTicks": 0,
          "midi": 60,
          "name": "C4",
          "ticks": 129720,
          "time": 168.90625,
          "velocity": 0.2204724409448819
        },
        {
          "duration": 0.5091145833333144,
          "durationTicks": 391,
          "midi": 77,
          "name": "F5",
          "ticks": 129730,
          "time": 168.91927083333334,
          "velocity": 0.3937007874015748
        },
        {
          "duration": 0,
          "durationTicks": 0,
          "midi": 56,
          "name": "G#3",
          "ticks": 129739,
          "time": 168.93098958333334,
          "velocity": 0.2992125984251969
        },
        {
          "duration": 0,
          "durationTicks": 0,
          "midi": 85,
          "name": "C#6",
          "ticks": 129739,
          "time": 168.93098958333334,
          "velocity": 0.09448818897637795
        },
        {
          "duration": 0,
          "durationTicks": 0,
          "midi": 88,
          "name": "E6",
          "ticks": 129739,
          "time": 168.93098958333334,
          "velocity": 0.08661417322834646
        },
        {
          "duration": 0,
          "durationTicks": 0,
          "midi": 86,
          "name": "D6",
          "ticks": 129739,
          "time": 168.93098958333334,
          "velocity": 0.08661417322834646
        },
        {
          "duration": 0,
          "durationTicks": 0,
          "midi": 56,
          "name": "G#3",
          "ticks": 129767,
          "time": 168.96744791666666,
          "velocity": 0.1968503937007874
        },
        {
          "duration": 0,
          "durationTicks": 0,
          "midi": 38,
          "name": "D2",
          "ticks": 129767,
          "time": 168.96744791666666,
          "velocity": 0.1968503937007874
        },
        {
          "duration": 0,
          "durationTicks": 0,
          "midi": 75,
          "name": "D#5",
          "ticks": 129767,
          "time": 168.96744791666666,
          "velocity": 0.18110236220472442
        },
        {
          "duration": 0.2526041666666856,
          "durationTicks": 194,
          "midi": 84,
          "name": "C6",
          "ticks": 129776,
          "time": 168.97916666666666,
          "velocity": 0.14173228346456693
        },
        {
          "duration": 0,
          "durationTicks": 0,
          "midi": 70,
          "name": "A#4",
          "ticks": 129786,
          "time": 168.9921875,
          "velocity": 0.15748031496062992
        },
        {
          "duration": 0,
          "durationTicks": 0,
          "midi": 79,
          "name": "G5",
          "ticks": 129795,
          "time": 169.00390625,
          "velocity": 0.1732283464566929
        },
        {
          "duration": 0,
          "durationTicks": 0,
          "midi": 75,
          "name": "D#5",
          "ticks": 129812,
          "time": 169.02604166666666,
          "velocity": 0.18110236220472442
        },
        {
          "duration": 0,
          "durationTicks": 0,
          "midi": 57,
          "name": "A3",
          "ticks": 129812,
          "time": 169.02604166666666,
          "velocity": 0.10236220472440945
        },
        {
          "duration": 0,
          "durationTicks": 0,
          "midi": 70,
          "name": "A#4",
          "ticks": 129830,
          "time": 169.04947916666666,
          "velocity": 0.07874015748031496
        },
        {
          "duration": 0.1263020833333428,
          "durationTicks": 97,
          "midi": 75,
          "name": "D#5",
          "ticks": 129857,
          "time": 169.08463541666666,
          "velocity": 0.15748031496062992
        },
        {
          "duration": 0,
          "durationTicks": 0,
          "midi": 61,
          "name": "C#4",
          "ticks": 129919,
          "time": 169.16536458333334,
          "velocity": 0.1968503937007874
        },
        {
          "duration": 0.12890625,
          "durationTicks": 99,
          "midi": 92,
          "name": "G#6",
          "ticks": 129928,
          "time": 169.17708333333334,
          "velocity": 0.2047244094488189
        },
        {
          "duration": 0.12890625,
          "durationTicks": 99,
          "midi": 80,
          "name": "G#5",
          "ticks": 129938,
          "time": 169.19010416666666,
          "velocity": 0.2283464566929134
        },
        {
          "duration": 0.12890625,
          "durationTicks": 99,
          "midi": 37,
          "name": "C#2",
          "ticks": 129938,
          "time": 169.19010416666666,
          "velocity": 0.3779527559055118
        },
        {
          "duration": 0.2565104166666856,
          "durationTicks": 197,
          "midi": 65,
          "name": "F4",
          "ticks": 129938,
          "time": 169.19010416666666,
          "velocity": 0.18110236220472442
        },
        {
          "duration": 0.2565104166666856,
          "durationTicks": 197,
          "midi": 68,
          "name": "G#4",
          "ticks": 129947,
          "time": 169.20182291666666,
          "velocity": 0.1732283464566929
        },
        {
          "duration": 0,
          "durationTicks": 0,
          "midi": 61,
          "name": "C#4",
          "ticks": 129966,
          "time": 169.2265625,
          "velocity": 0.25984251968503935
        },
        {
          "duration": 0,
          "durationTicks": 0,
          "midi": 72,
          "name": "C5",
          "ticks": 129966,
          "time": 169.2265625,
          "velocity": 0.1968503937007874
        },
        {
          "duration": 0.1276041666666572,
          "durationTicks": 98,
          "midi": 87,
          "name": "D#6",
          "ticks": 129975,
          "time": 169.23828125,
          "velocity": 0.2047244094488189
        },
        {
          "duration": 0,
          "durationTicks": 0,
          "midi": 84,
          "name": "C6",
          "ticks": 129984,
          "time": 169.25,
          "velocity": 0.08661417322834646
        },
        {
          "duration": 0,
          "durationTicks": 0,
          "midi": 75,
          "name": "D#5",
          "ticks": 130002,
          "time": 169.2734375,
          "velocity": 0.1732283464566929
        },
        {
          "duration": 0,
          "durationTicks": 0,
          "midi": 61,
          "name": "C#4",
          "ticks": 130011,
          "time": 169.28515625,
          "velocity": 0.2440944881889764
        },
        {
          "duration": 0.1276041666666572,
          "durationTicks": 98,
          "midi": 84,
          "name": "C6",
          "ticks": 130020,
          "time": 169.296875,
          "velocity": 0.23622047244094488
        },
        {
          "duration": 0,
          "durationTicks": 0,
          "midi": 38,
          "name": "D2",
          "ticks": 130048,
          "time": 169.33333333333334,
          "velocity": 0.3937007874015748
        },
        {
          "duration": 0,
          "durationTicks": 0,
          "midi": 62,
          "name": "D4",
          "ticks": 130048,
          "time": 169.33333333333334,
          "velocity": 0.1732283464566929
        },
        {
          "duration": 0,
          "durationTicks": 0,
          "midi": 79,
          "name": "G5",
          "ticks": 130048,
          "time": 169.33333333333334,
          "velocity": 0.09448818897637795
        },
        {
          "duration": 0,
          "durationTicks": 0,
          "midi": 36,
          "name": "C2",
          "ticks": 130066,
          "time": 169.35677083333334,
          "velocity": 0.41732283464566927
        },
        {
          "duration": 0,
          "durationTicks": 0,
          "midi": 61,
          "name": "C#4",
          "ticks": 130066,
          "time": 169.35677083333334,
          "velocity": 0.25196850393700787
        },
        {
          "duration": 0,
          "durationTicks": 0,
          "midi": 72,
          "name": "C5",
          "ticks": 130075,
          "time": 169.36848958333334,
          "velocity": 0.2283464566929134
        },
        {
          "duration": 0.1276041666666572,
          "durationTicks": 98,
          "midi": 80,
          "name": "G#5",
          "ticks": 130075,
          "time": 169.36848958333334,
          "velocity": 0.25984251968503935
        },
        {
          "duration": 0.1276041666666572,
          "durationTicks": 98,
          "midi": 56,
          "name": "G#3",
          "ticks": 130075,
          "time": 169.36848958333334,
          "velocity": 0.10236220472440945
        },
        {
          "duration": 0,
          "durationTicks": 0,
          "midi": 38,
          "name": "D2",
          "ticks": 130085,
          "time": 169.38151041666666,
          "velocity": 0.3779527559055118
        },
        {
          "duration": 0,
          "durationTicks": 0,
          "midi": 75,
          "name": "D#5",
          "ticks": 130102,
          "time": 169.40364583333334,
          "velocity": 0.14173228346456693
        },
        {
          "duration": 0.1276041666666572,
          "durationTicks": 98,
          "midi": 37,
          "name": "C#2",
          "ticks": 130102,
          "time": 169.40364583333334,
          "velocity": 0.3858267716535433
        },
        {
          "duration": 0,
          "durationTicks": 0,
          "midi": 61,
          "name": "C#4",
          "ticks": 130111,
          "time": 169.41536458333334,
          "velocity": 0.2125984251968504
        },
        {
          "duration": 0,
          "durationTicks": 0,
          "midi": 78,
          "name": "F#5",
          "ticks": 130121,
          "time": 169.42838541666666,
          "velocity": 0.31496062992125984
        },
        {
          "duration": 0,
          "durationTicks": 0,
          "midi": 92,
          "name": "G#6",
          "ticks": 130130,
          "time": 169.44010416666666,
          "velocity": 0.11811023622047244
        },
        {
          "duration": 0.1171875,
          "durationTicks": 90,
          "midi": 84,
          "name": "C6",
          "ticks": 130130,
          "time": 169.44010416666666,
          "velocity": 0.14173228346456693
        },
        {
          "duration": 0.5065104166666856,
          "durationTicks": 389,
          "midi": 77,
          "name": "F5",
          "ticks": 130139,
          "time": 169.45182291666666,
          "velocity": 0.3858267716535433
        },
        {
          "duration": 0,
          "durationTicks": 0,
          "midi": 61,
          "name": "C#4",
          "ticks": 130166,
          "time": 169.48697916666666,
          "velocity": 0.1732283464566929
        },
        {
          "duration": 0,
          "durationTicks": 0,
          "midi": 87,
          "name": "D#6",
          "ticks": 130176,
          "time": 169.5,
          "velocity": 0.13385826771653545
        },
        {
          "duration": 0,
          "durationTicks": 0,
          "midi": 76,
          "name": "E5",
          "ticks": 130220,
          "time": 169.55729166666666,
          "velocity": 0.33070866141732286
        },
        {
          "duration": 0.009114583333342807,
          "durationTicks": 7,
          "midi": 84,
          "name": "C6",
          "ticks": 130220,
          "time": 169.55729166666666,
          "velocity": 0.11811023622047244
        },
        {
          "duration": 0,
          "durationTicks": 0,
          "midi": 74,
          "name": "D5",
          "ticks": 130256,
          "time": 169.60416666666666,
          "velocity": 0.33858267716535434
        },
        {
          "duration": 0,
          "durationTicks": 0,
          "midi": 93,
          "name": "A6",
          "ticks": 130256,
          "time": 169.60416666666666,
          "velocity": 0.09448818897637795
        },
        {
          "duration": 0.25390625,
          "durationTicks": 195,
          "midi": 80,
          "name": "G#5",
          "ticks": 130266,
          "time": 169.6171875,
          "velocity": 0.2204724409448819
        },
        {
          "duration": 0,
          "durationTicks": 0,
          "midi": 71,
          "name": "B4",
          "ticks": 130302,
          "time": 169.6640625,
          "velocity": 0.3228346456692913
        },
        {
          "duration": 0,
          "durationTicks": 0,
          "midi": 61,
          "name": "C#4",
          "ticks": 130311,
          "time": 169.67578125,
          "velocity": 0.23622047244094488
        },
        {
          "duration": 0.2526041666666572,
          "durationTicks": 194,
          "midi": 68,
          "name": "G#4",
          "ticks": 130311,
          "time": 169.67578125,
          "velocity": 0.25984251968503935
        },
        {
          "duration": 0.1276041666666572,
          "durationTicks": 98,
          "midi": 65,
          "name": "F4",
          "ticks": 130320,
          "time": 169.6875,
          "velocity": 0.1968503937007874
        },
        {
          "duration": 0.1276041666666572,
          "durationTicks": 98,
          "midi": 84,
          "name": "C6",
          "ticks": 130330,
          "time": 169.70052083333334,
          "velocity": 0.08661417322834646
        },
        {
          "duration": 0,
          "durationTicks": 0,
          "midi": 36,
          "name": "C2",
          "ticks": 130339,
          "time": 169.71223958333334,
          "velocity": 0.4094488188976378
        },
        {
          "duration": 0,
          "durationTicks": 0,
          "midi": 56,
          "name": "G#3",
          "ticks": 130348,
          "time": 169.72395833333334,
          "velocity": 0.07086614173228346
        },
        {
          "duration": 0,
          "durationTicks": 0,
          "midi": 72,
          "name": "C5",
          "ticks": 130348,
          "time": 169.72395833333334,
          "velocity": 0.23622047244094488
        },
        {
          "duration": 0,
          "durationTicks": 0,
          "midi": 61,
          "name": "C#4",
          "ticks": 130358,
          "time": 169.73697916666666,
          "velocity": 0.2283464566929134
        },
        {
          "duration": 0,
          "durationTicks": 0,
          "midi": 37,
          "name": "C#2",
          "ticks": 130375,
          "time": 169.75911458333334,
          "velocity": 0.3937007874015748
        },
        {
          "duration": 0,
          "durationTicks": 0,
          "midi": 56,
          "name": "G#3",
          "ticks": 130384,
          "time": 169.77083333333334,
          "velocity": 0.08661417322834646
        },
        {
          "duration": 0,
          "durationTicks": 0,
          "midi": 75,
          "name": "D#5",
          "ticks": 130394,
          "time": 169.78385416666666,
          "velocity": 0.2047244094488189
        },
        {
          "duration": 0,
          "durationTicks": 0,
          "midi": 61,
          "name": "C#4",
          "ticks": 130403,
          "time": 169.79557291666666,
          "velocity": 0.25984251968503935
        },
        {
          "duration": 0.12369791666668561,
          "durationTicks": 95,
          "midi": 37,
          "name": "C#2",
          "ticks": 130403,
          "time": 169.79557291666666,
          "velocity": 0.3779527559055118
        },
        {
          "duration": 0.125,
          "durationTicks": 96,
          "midi": 65,
          "name": "F4",
          "ticks": 130421,
          "time": 169.81901041666666,
          "velocity": 0.23622047244094488
        },
        {
          "duration": 0,
          "durationTicks": 0,
          "midi": 56,
          "name": "G#3",
          "ticks": 130430,
          "time": 169.83072916666666,
          "velocity": 0.08661417322834646
        },
        {
          "duration": 0,
          "durationTicks": 0,
          "midi": 74,
          "name": "D5",
          "ticks": 130448,
          "time": 169.85416666666666,
          "velocity": 0.2204724409448819
        },
        {
          "duration": 0,
          "durationTicks": 0,
          "midi": 61,
          "name": "C#4",
          "ticks": 130448,
          "time": 169.85416666666666,
          "velocity": 0.25196850393700787
        },
        {
          "duration": 0,
          "durationTicks": 0,
          "midi": 56,
          "name": "G#3",
          "ticks": 130474,
          "time": 169.88802083333334,
          "velocity": 0.09448818897637795
        },
        {
          "duration": 0.1276041666666572,
          "durationTicks": 98,
          "midi": 87,
          "name": "D#6",
          "ticks": 130474,
          "time": 169.88802083333334,
          "velocity": 0.14960629921259844
        },
        {
          "duration": 0,
          "durationTicks": 0,
          "midi": 84,
          "name": "C6",
          "ticks": 130491,
          "time": 169.91015625,
          "velocity": 0.07874015748031496
        },
        {
          "duration": 0,
          "durationTicks": 0,
          "midi": 61,
          "name": "C#4",
          "ticks": 130491,
          "time": 169.91015625,
          "velocity": 0.2283464566929134
        },
        {
          "duration": 0,
          "durationTicks": 0,
          "midi": 72,
          "name": "C5",
          "ticks": 130500,
          "time": 169.921875,
          "velocity": 0.2047244094488189
        },
        {
          "duration": 0,
          "durationTicks": 0,
          "midi": 50,
          "name": "D3",
          "ticks": 130510,
          "time": 169.93489583333334,
          "velocity": 0.36220472440944884
        },
        {
          "duration": 0,
          "durationTicks": 0,
          "midi": 85,
          "name": "C#6",
          "ticks": 130510,
          "time": 169.93489583333334,
          "velocity": 0.09448818897637795
        },
        {
          "duration": 0,
          "durationTicks": 0,
          "midi": 86,
          "name": "D6",
          "ticks": 130510,
          "time": 169.93489583333334,
          "velocity": 0.08661417322834646
        },
        {
          "duration": 0,
          "durationTicks": 0,
          "midi": 90,
          "name": "F#6",
          "ticks": 130510,
          "time": 169.93489583333334,
          "velocity": 0.06299212598425197
        },
        {
          "duration": 0,
          "durationTicks": 0,
          "midi": 91,
          "name": "G6",
          "ticks": 130519,
          "time": 169.94661458333334,
          "velocity": 0.11811023622047244
        },
        {
          "duration": 0.1276041666666572,
          "durationTicks": 98,
          "midi": 82,
          "name": "A#5",
          "ticks": 130519,
          "time": 169.94661458333334,
          "velocity": 0.1732283464566929
        },
        {
          "duration": 0,
          "durationTicks": 0,
          "midi": 37,
          "name": "C#2",
          "ticks": 130528,
          "time": 169.95833333333334,
          "velocity": 0.2440944881889764
        },
        {
          "duration": 0,
          "durationTicks": 0,
          "midi": 63,
          "name": "D#4",
          "ticks": 130528,
          "time": 169.95833333333334,
          "velocity": 0.2677165354330709
        },
        {
          "duration": 0.25390625,
          "durationTicks": 195,
          "midi": 49,
          "name": "C#3",
          "ticks": 130528,
          "time": 169.95833333333334,
          "velocity": 0.3700787401574803
        },
        {
          "duration": 0,
          "durationTicks": 0,
          "midi": 72,
          "name": "C5",
          "ticks": 130538,
          "time": 169.97135416666666,
          "velocity": 0.1732283464566929
        },
        {
          "duration": 0.12760416666668561,
          "durationTicks": 98,
          "midi": 77,
          "name": "F5",
          "ticks": 130565,
          "time": 170.00651041666666,
          "velocity": 0.08661417322834646
        },
        {
          "duration": 0.12760416666668561,
          "durationTicks": 98,
          "midi": 68,
          "name": "G#4",
          "ticks": 130565,
          "time": 170.00651041666666,
          "velocity": 0.29133858267716534
        },
        {
          "duration": 0,
          "durationTicks": 0,
          "midi": 65,
          "name": "F4",
          "ticks": 130574,
          "time": 170.01822916666666,
          "velocity": 0.25984251968503935
        },
        {
          "duration": 0,
          "durationTicks": 0,
          "midi": 57,
          "name": "A3",
          "ticks": 130583,
          "time": 170.02994791666666,
          "velocity": 0.11023622047244094
        },
        {
          "duration": 0,
          "durationTicks": 0,
          "midi": 87,
          "name": "D#6",
          "ticks": 130619,
          "time": 170.07682291666666,
          "velocity": 0.13385826771653545
        },
        {
          "duration": 0,
          "durationTicks": 0,
          "midi": 65,
          "name": "F4",
          "ticks": 130629,
          "time": 170.08984375,
          "velocity": 0.09448818897637795
        },
        {
          "duration": 0.1263020833333428,
          "durationTicks": 97,
          "midi": 82,
          "name": "A#5",
          "ticks": 130665,
          "time": 170.13671875,
          "velocity": 0.11023622047244094
        },
        {
          "duration": 0.1263020833333428,
          "durationTicks": 97,
          "midi": 89,
          "name": "F6",
          "ticks": 130665,
          "time": 170.13671875,
          "velocity": 0.14173228346456693
        },
        {
          "duration": 0,
          "durationTicks": 0,
          "midi": 70,
          "name": "A#4",
          "ticks": 130674,
          "time": 170.1484375,
          "velocity": 0.30708661417322836
        },
        {
          "duration": 0,
          "durationTicks": 0,
          "midi": 50,
          "name": "D3",
          "ticks": 130692,
          "time": 170.171875,
          "velocity": 0.31496062992125984
        },
        {
          "duration": 0.1263020833333428,
          "durationTicks": 97,
          "midi": 65,
          "name": "F4",
          "ticks": 130701,
          "time": 170.18359375,
          "velocity": 0.33858267716535434
        },
        {
          "duration": 0.08203125,
          "durationTicks": 63,
          "midi": 68,
          "name": "G#4",
          "ticks": 130701,
          "time": 170.18359375,
          "velocity": 0.2204724409448819
        },
        {
          "duration": 0.08203125,
          "durationTicks": 63,
          "midi": 84,
          "name": "C6",
          "ticks": 130710,
          "time": 170.1953125,
          "velocity": 0.14173228346456693
        },
        {
          "duration": 0.25390625,
          "durationTicks": 195,
          "midi": 37,
          "name": "C#2",
          "ticks": 130710,
          "time": 170.1953125,
          "velocity": 0.3779527559055118
        },
        {
          "duration": 0,
          "durationTicks": 0,
          "midi": 56,
          "name": "G#3",
          "ticks": 130728,
          "time": 170.21875,
          "velocity": 0.08661417322834646
        },
        {
          "duration": 0,
          "durationTicks": 0,
          "midi": 61,
          "name": "C#4",
          "ticks": 130737,
          "time": 170.23046875,
          "velocity": 0.25984251968503935
        },
        {
          "duration": 0,
          "durationTicks": 0,
          "midi": 66,
          "name": "F#4",
          "ticks": 130755,
          "time": 170.25390625,
          "velocity": 0.29133858267716534
        },
        {
          "duration": 0.04427083333334281,
          "durationTicks": 34,
          "midi": 68,
          "name": "G#4",
          "ticks": 130764,
          "time": 170.265625,
          "velocity": 0.31496062992125984
        },
        {
          "duration": 0.04427083333334281,
          "durationTicks": 34,
          "midi": 84,
          "name": "C6",
          "ticks": 130773,
          "time": 170.27734375,
          "velocity": 0.08661417322834646
        },
        {
          "duration": 0,
          "durationTicks": 0,
          "midi": 61,
          "name": "C#4",
          "ticks": 130783,
          "time": 170.29036458333334,
          "velocity": 0.2125984251968504
        },
        {
          "duration": 0,
          "durationTicks": 0,
          "midi": 70,
          "name": "A#4",
          "ticks": 130810,
          "time": 170.32552083333334,
          "velocity": 0.3464566929133858
        },
        {
          "duration": 0.1276041666666572,
          "durationTicks": 98,
          "midi": 56,
          "name": "G#3",
          "ticks": 130810,
          "time": 170.32552083333334,
          "velocity": 0.10236220472440945
        },
        {
          "duration": 0,
          "durationTicks": 0,
          "midi": 86,
          "name": "D6",
          "ticks": 130819,
          "time": 170.33723958333334,
          "velocity": 0.05511811023622047
        },
        {
          "duration": 0.12890625,
          "durationTicks": 99,
          "midi": 72,
          "name": "C5",
          "ticks": 130855,
          "time": 170.38411458333334,
          "velocity": 0.3464566929133858
        },
        {
          "duration": 0,
          "durationTicks": 0,
          "midi": 88,
          "name": "E6",
          "ticks": 130865,
          "time": 170.39713541666666,
          "velocity": 0.05511811023622047
        },
        {
          "duration": 0,
          "durationTicks": 0,
          "midi": 70,
          "name": "A#4",
          "ticks": 130874,
          "time": 170.40885416666666,
          "velocity": 0.28346456692913385
        },
        {
          "duration": 0,
          "durationTicks": 0,
          "midi": 27,
          "name": "D#1",
          "ticks": 130891,
          "time": 170.43098958333334,
          "velocity": 0.41732283464566927
        },
        {
          "duration": 0,
          "durationTicks": 0,
          "midi": 48,
          "name": "C3",
          "ticks": 130891,
          "time": 170.43098958333334,
          "velocity": 0.25984251968503935
        },
        {
          "duration": 0.2565104166666856,
          "durationTicks": 197,
          "midi": 79,
          "name": "G5",
          "ticks": 130901,
          "time": 170.44401041666666,
          "velocity": 0.2204724409448819
        },
        {
          "duration": 0,
          "durationTicks": 0,
          "midi": 30,
          "name": "F#1",
          "ticks": 130910,
          "time": 170.45572916666666,
          "velocity": 0.4330708661417323
        },
        {
          "duration": 0.12890625,
          "durationTicks": 99,
          "midi": 77,
          "name": "F5",
          "ticks": 130910,
          "time": 170.45572916666666,
          "velocity": 0.07086614173228346
        },
        {
          "duration": 0,
          "durationTicks": 0,
          "midi": 68,
          "name": "G#4",
          "ticks": 130919,
          "time": 170.46744791666666,
          "velocity": 0.3700787401574803
        },
        {
          "duration": 0,
          "durationTicks": 0,
          "midi": 65,
          "name": "F4",
          "ticks": 130929,
          "time": 170.48046875,
          "velocity": 0.2125984251968504
        },
        {
          "duration": 0,
          "durationTicks": 0,
          "midi": 48,
          "name": "C3",
          "ticks": 130938,
          "time": 170.4921875,
          "velocity": 0.11023622047244094
        },
        {
          "duration": 0.1276041666666572,
          "durationTicks": 98,
          "midi": 29,
          "name": "F1",
          "ticks": 130947,
          "time": 170.50390625,
          "velocity": 0.4015748031496063
        },
        {
          "duration": 0,
          "durationTicks": 0,
          "midi": 70,
          "name": "A#4",
          "ticks": 130957,
          "time": 170.51692708333334,
          "velocity": 0.3464566929133858
        },
        {
          "duration": 0,
          "durationTicks": 0,
          "midi": 68,
          "name": "G#4",
          "ticks": 130966,
          "time": 170.52864583333334,
          "velocity": 0.25196850393700787
        },
        {
          "duration": 0,
          "durationTicks": 0,
          "midi": 89,
          "name": "F6",
          "ticks": 130966,
          "time": 170.52864583333334,
          "velocity": 0.07086614173228346
        },
        {
          "duration": 0.12630208333331439,
          "durationTicks": 97,
          "midi": 63,
          "name": "D#4",
          "ticks": 130966,
          "time": 170.52864583333334,
          "velocity": 0.18110236220472442
        },
        {
          "duration": 0.1276041666666572,
          "durationTicks": 98,
          "midi": 48,
          "name": "C3",
          "ticks": 130983,
          "time": 170.55078125,
          "velocity": 0.08661417322834646
        },
        {
          "duration": 0,
          "durationTicks": 0,
          "midi": 60,
          "name": "C4",
          "ticks": 130993,
          "time": 170.56380208333334,
          "velocity": 0.2283464566929134
        },
        {
          "duration": 0.1276041666666572,
          "durationTicks": 98,
          "midi": 72,
          "name": "C5",
          "ticks": 131002,
          "time": 170.57552083333334,
          "velocity": 0.3543307086614173
        },
        {
          "duration": 0.1276041666666572,
          "durationTicks": 98,
          "midi": 67,
          "name": "G4",
          "ticks": 131011,
          "time": 170.58723958333334,
          "velocity": 0.1732283464566929
        },
        {
          "duration": 0,
          "durationTicks": 0,
          "midi": 60,
          "name": "C4",
          "ticks": 131021,
          "time": 170.60026041666666,
          "velocity": 0.2204724409448819
        },
        {
          "duration": 0,
          "durationTicks": 0,
          "midi": 70,
          "name": "A#4",
          "ticks": 131021,
          "time": 170.60026041666666,
          "velocity": 0.2283464566929134
        },
        {
          "duration": 0.10807291666665719,
          "durationTicks": 83,
          "midi": 75,
          "name": "D#5",
          "ticks": 131038,
          "time": 170.62239583333334,
          "velocity": 0.3700787401574803
        },
        {
          "duration": 0,
          "durationTicks": 0,
          "midi": 58,
          "name": "A#3",
          "ticks": 131048,
          "time": 170.63541666666666,
          "velocity": 0.2283464566929134
        },
        {
          "duration": 0.12760416666668561,
          "durationTicks": 98,
          "midi": 94,
          "name": "A#6",
          "ticks": 131048,
          "time": 170.63541666666666,
          "velocity": 0.14960629921259844
        },
        {
          "duration": 0,
          "durationTicks": 0,
          "midi": 70,
          "name": "A#4",
          "ticks": 131074,
          "time": 170.66927083333334,
          "velocity": 0.18110236220472442
        },
        {
          "duration": 0.1263020833333428,
          "durationTicks": 97,
          "midi": 77,
          "name": "F5",
          "ticks": 131093,
          "time": 170.69401041666666,
          "velocity": 0.3700787401574803
        },
        {
          "duration": 0,
          "durationTicks": 0,
          "midi": 79,
          "name": "G5",
          "ticks": 131102,
          "time": 170.70572916666666,
          "velocity": 0.1968503937007874
        },
        {
          "duration": 0,
          "durationTicks": 0,
          "midi": 84,
          "name": "C6",
          "ticks": 131102,
          "time": 170.70572916666666,
          "velocity": 0.12598425196850394
        },
        {
          "duration": 0,
          "durationTicks": 0,
          "midi": 31,
          "name": "G1",
          "ticks": 131112,
          "time": 170.71875,
          "velocity": 0.29133858267716534
        },
        {
          "duration": 0,
          "durationTicks": 0,
          "midi": 68,
          "name": "G#4",
          "ticks": 131112,
          "time": 170.71875,
          "velocity": 0.2283464566929134
        },
        {
          "duration": 0.1263020833333428,
          "durationTicks": 97,
          "midi": 80,
          "name": "G#5",
          "ticks": 131112,
          "time": 170.71875,
          "velocity": 0.3543307086614173
        },
        {
          "duration": 0.01953125,
          "durationTicks": 15,
          "midi": 75,
          "name": "D#5",
          "ticks": 131121,
          "time": 170.73046875,
          "velocity": 0.1732283464566929
        },
        {
          "duration": 0.1263020833333428,
          "durationTicks": 97,
          "midi": 70,
          "name": "A#4",
          "ticks": 131139,
          "time": 170.75390625,
          "velocity": 0.2283464566929134
        },
        {
          "duration": 0,
          "durationTicks": 0,
          "midi": 29,
          "name": "F1",
          "ticks": 131148,
          "time": 170.765625,
          "velocity": 0.1889763779527559
        },
        {
          "duration": 0,
          "durationTicks": 0,
          "midi": 87,
          "name": "D#6",
          "ticks": 131148,
          "time": 170.765625,
          "velocity": 0.09448818897637795
        },
        {
          "duration": 0,
          "durationTicks": 0,
          "midi": 75,
          "name": "D#5",
          "ticks": 131165,
          "time": 170.78776041666666,
          "velocity": 0.1889763779527559
        },
        {
          "duration": 0.12760416666668561,
          "durationTicks": 98,
          "midi": 77,
          "name": "F5",
          "ticks": 131192,
          "time": 170.82291666666666,
          "velocity": 0.3464566929133858
        },
        {
          "duration": 0,
          "durationTicks": 0,
          "midi": 72,
          "name": "C5",
          "ticks": 131202,
          "time": 170.8359375,
          "velocity": 0.23622047244094488
        },
        {
          "duration": 0,
          "durationTicks": 0,
          "midi": 70,
          "name": "A#4",
          "ticks": 131238,
          "time": 170.8828125,
          "velocity": 0.11023622047244094
        },
        {
          "duration": 0.1276041666666572,
          "durationTicks": 98,
          "midi": 80,
          "name": "G#5",
          "ticks": 131238,
          "time": 170.8828125,
          "velocity": 0.3228346456692913
        },
        {
          "duration": 0.1276041666666572,
          "durationTicks": 98,
          "midi": 75,
          "name": "D#5",
          "ticks": 131238,
          "time": 170.8828125,
          "velocity": 0.2283464566929134
        },
        {
          "duration": 0,
          "durationTicks": 0,
          "midi": 71,
          "name": "B4",
          "ticks": 131265,
          "time": 170.91796875,
          "velocity": 0.14173228346456693
        },
        {
          "duration": 0,
          "durationTicks": 0,
          "midi": 57,
          "name": "A3",
          "ticks": 131274,
          "time": 170.9296875,
          "velocity": 0.31496062992125984
        },
        {
          "duration": 0,
          "durationTicks": 0,
          "midi": 86,
          "name": "D6",
          "ticks": 131274,
          "time": 170.9296875,
          "velocity": 0.13385826771653545
        },
        {
          "duration": 0,
          "durationTicks": 0,
          "midi": 90,
          "name": "F#6",
          "ticks": 131274,
          "time": 170.9296875,
          "velocity": 0.11023622047244094
        },
        {
          "duration": 0.1276041666666572,
          "durationTicks": 98,
          "midi": 82,
          "name": "A#5",
          "ticks": 131274,
          "time": 170.9296875,
          "velocity": 0.08661417322834646
        },
        {
          "duration": 0,
          "durationTicks": 0,
          "midi": 63,
          "name": "D#4",
          "ticks": 131283,
          "time": 170.94140625,
          "velocity": 0.1889763779527559
        },
        {
          "duration": 0,
          "durationTicks": 0,
          "midi": 85,
          "name": "C#6",
          "ticks": 131283,
          "time": 170.94140625,
          "velocity": 0.05511811023622047
        },
        {
          "duration": 0,
          "durationTicks": 0,
          "midi": 89,
          "name": "F6",
          "ticks": 131293,
          "time": 170.95442708333334,
          "velocity": 0.09448818897637795
        },
        {
          "duration": 0.1276041666666572,
          "durationTicks": 98,
          "midi": 84,
          "name": "C6",
          "ticks": 131293,
          "time": 170.95442708333334,
          "velocity": 0.13385826771653545
        },
        {
          "duration": 0.10546875,
          "durationTicks": 81,
          "midi": 39,
          "name": "D#2",
          "ticks": 131293,
          "time": 170.95442708333334,
          "velocity": 0.3937007874015748
        },
        {
          "duration": 0.1276041666666572,
          "durationTicks": 98,
          "midi": 70,
          "name": "A#4",
          "ticks": 131293,
          "time": 170.95442708333334,
          "velocity": 0.2125984251968504
        },
        {
          "duration": 0,
          "durationTicks": 0,
          "midi": 56,
          "name": "G#3",
          "ticks": 131302,
          "time": 170.96614583333334,
          "velocity": 0.1968503937007874
        },
        {
          "duration": 0,
          "durationTicks": 0,
          "midi": 60,
          "name": "C4",
          "ticks": 131302,
          "time": 170.96614583333334,
          "velocity": 0.1732283464566929
        },
        {
          "duration": 0,
          "durationTicks": 0,
          "midi": 67,
          "name": "G4",
          "ticks": 131302,
          "time": 170.96614583333334,
          "velocity": 0.2440944881889764
        },
        {
          "duration": 0.1276041666666572,
          "durationTicks": 98,
          "midi": 63,
          "name": "D#4",
          "ticks": 131311,
          "time": 170.97786458333334,
          "velocity": 0.1968503937007874
        },
        {
          "duration": 0,
          "durationTicks": 0,
          "midi": 72,
          "name": "C5",
          "ticks": 131321,
          "time": 170.99088541666666,
          "velocity": 0.10236220472440945
        },
        {
          "duration": 0,
          "durationTicks": 0,
          "midi": 80,
          "name": "G#5",
          "ticks": 131338,
          "time": 171.01302083333334,
          "velocity": 0.11023622047244094
        },
        {
          "duration": 0,
          "durationTicks": 0,
          "midi": 58,
          "name": "A#3",
          "ticks": 131338,
          "time": 171.01302083333334,
          "velocity": 0.2283464566929134
        },
        {
          "duration": 0,
          "durationTicks": 0,
          "midi": 77,
          "name": "F5",
          "ticks": 131338,
          "time": 171.01302083333334,
          "velocity": 0.1732283464566929
        },
        {
          "duration": 0.1276041666666572,
          "durationTicks": 98,
          "midi": 92,
          "name": "G#6",
          "ticks": 131338,
          "time": 171.01302083333334,
          "velocity": 0.11023622047244094
        },
        {
          "duration": 0.1276041666666572,
          "durationTicks": 98,
          "midi": 87,
          "name": "D#6",
          "ticks": 131338,
          "time": 171.01302083333334,
          "velocity": 0.15748031496062992
        },
        {
          "duration": 0,
          "durationTicks": 0,
          "midi": 67,
          "name": "G4",
          "ticks": 131348,
          "time": 171.02604166666666,
          "velocity": 0.2204724409448819
        },
        {
          "duration": 0.1263020833333428,
          "durationTicks": 97,
          "midi": 73,
          "name": "C#5",
          "ticks": 131357,
          "time": 171.03776041666666,
          "velocity": 0.1732283464566929
        },
        {
          "duration": 0.022135416666657193,
          "durationTicks": 17,
          "midi": 39,
          "name": "D#2",
          "ticks": 131374,
          "time": 171.05989583333334,
          "velocity": 0.3700787401574803
        },
        {
          "duration": 0,
          "durationTicks": 0,
          "midi": 67,
          "name": "G4",
          "ticks": 131384,
          "time": 171.07291666666666,
          "velocity": 0.2047244094488189
        },
        {
          "duration": 0,
          "durationTicks": 0,
          "midi": 58,
          "name": "A#3",
          "ticks": 131393,
          "time": 171.08463541666666,
          "velocity": 0.23622047244094488
        },
        {
          "duration": 0,
          "durationTicks": 0,
          "midi": 84,
          "name": "C6",
          "ticks": 131393,
          "time": 171.08463541666666,
          "velocity": 0.11023622047244094
        },
        {
          "duration": 0.1263020833333428,
          "durationTicks": 97,
          "midi": 89,
          "name": "F6",
          "ticks": 131393,
          "time": 171.08463541666666,
          "velocity": 0.10236220472440945
        },
        {
          "duration": 0.1263020833333428,
          "durationTicks": 97,
          "midi": 70,
          "name": "A#4",
          "ticks": 131402,
          "time": 171.09635416666666,
          "velocity": 0.25984251968503935
        },
        {
          "duration": 0,
          "durationTicks": 0,
          "midi": 39,
          "name": "D#2",
          "ticks": 131421,
          "time": 171.12109375,
          "velocity": 0.3779527559055118
        },
        {
          "duration": 0,
          "durationTicks": 0,
          "midi": 58,
          "name": "A#3",
          "ticks": 131421,
          "time": 171.12109375,
          "velocity": 0.25196850393700787
        },
        {
          "duration": 0,
          "durationTicks": 0,
          "midi": 87,
          "name": "D#6",
          "ticks": 131439,
          "time": 171.14453125,
          "velocity": 0.07086614173228346
        },
        {
          "duration": 0.2513020833333428,
          "durationTicks": 193,
          "midi": 80,
          "name": "G#5",
          "ticks": 131439,
          "time": 171.14453125,
          "velocity": 0.2755905511811024
        },
        {
          "duration": 0,
          "durationTicks": 0,
          "midi": 40,
          "name": "E2",
          "ticks": 131456,
          "time": 171.16666666666666,
          "velocity": 0.36220472440944884
        },
        {
          "duration": 0,
          "durationTicks": 0,
          "midi": 58,
          "name": "A#3",
          "ticks": 131465,
          "time": 171.17838541666666,
          "velocity": 0.1968503937007874
        },
        {
          "duration": 0.2526041666666856,
          "durationTicks": 194,
          "midi": 77,
          "name": "F5",
          "ticks": 131483,
          "time": 171.20182291666666,
          "velocity": 0.2755905511811024
        },
        {
          "duration": 0,
          "durationTicks": 0,
          "midi": 87,
          "name": "D#6",
          "ticks": 131537,
          "time": 171.27213541666666,
          "velocity": 0.14173228346456693
        },
        {
          "duration": 0.12630208333331439,
          "durationTicks": 97,
          "midi": 73,
          "name": "C#5",
          "ticks": 131554,
          "time": 171.29427083333334,
          "velocity": 0.2047244094488189
        },
        {
          "duration": 0,
          "durationTicks": 0,
          "midi": 56,
          "name": "G#3",
          "ticks": 131564,
          "time": 171.30729166666666,
          "velocity": 0.29133858267716534
        },
        {
          "duration": 0,
          "durationTicks": 0,
          "midi": 62,
          "name": "D4",
          "ticks": 131564,
          "time": 171.30729166666666,
          "velocity": 0.07874015748031496
        },
        {
          "duration": 0.1263020833333428,
          "durationTicks": 97,
          "midi": 84,
          "name": "C6",
          "ticks": 131573,
          "time": 171.31901041666666,
          "velocity": 0.15748031496062992
        },
        {
          "duration": 0,
          "durationTicks": 0,
          "midi": 56,
          "name": "G#3",
          "ticks": 131591,
          "time": 171.34244791666666,
          "velocity": 0.1968503937007874
        },
        {
          "duration": 0,
          "durationTicks": 0,
          "midi": 70,
          "name": "A#4",
          "ticks": 131608,
          "time": 171.36458333333334,
          "velocity": 0.2125984251968504
        },
        {
          "duration": 0.1263020833333428,
          "durationTicks": 97,
          "midi": 80,
          "name": "G#5",
          "ticks": 131618,
          "time": 171.37760416666666,
          "velocity": 0.33858267716535434
        },
        {
          "duration": 0.1263020833333428,
          "durationTicks": 97,
          "midi": 87,
          "name": "D#6",
          "ticks": 131627,
          "time": 171.38932291666666,
          "velocity": 0.1732283464566929
        },
        {
          "duration": 0,
          "durationTicks": 0,
          "midi": 62,
          "name": "D4",
          "ticks": 131654,
          "time": 171.42447916666666,
          "velocity": 0.1732283464566929
        },
        {
          "duration": 0,
          "durationTicks": 0,
          "midi": 55,
          "name": "G3",
          "ticks": 131654,
          "time": 171.42447916666666,
          "velocity": 0.14960629921259844
        },
        {
          "duration": 0.1263020833333428,
          "durationTicks": 97,
          "midi": 70,
          "name": "A#4",
          "ticks": 131663,
          "time": 171.43619791666666,
          "velocity": 0.06299212598425197
        },
        {
          "duration": 0.2526041666666856,
          "durationTicks": 194,
          "midi": 77,
          "name": "F5",
          "ticks": 131663,
          "time": 171.43619791666666,
          "velocity": 0.2677165354330709
        },
        {
          "duration": 0,
          "durationTicks": 0,
          "midi": 47,
          "name": "B2",
          "ticks": 131672,
          "time": 171.44791666666666,
          "velocity": 0.16535433070866143
        },
        {
          "duration": 0,
          "durationTicks": 0,
          "midi": 93,
          "name": "A6",
          "ticks": 131672,
          "time": 171.44791666666666,
          "velocity": 0.07086614173228346
        },
        {
          "duration": 0,
          "durationTicks": 0,
          "midi": 88,
          "name": "E6",
          "ticks": 131672,
          "time": 171.44791666666666,
          "velocity": 0.11023622047244094
        },
        {
          "duration": 0.2526041666666856,
          "durationTicks": 194,
          "midi": 65,
          "name": "F4",
          "ticks": 131672,
          "time": 171.44791666666666,
          "velocity": 0.1732283464566929
        },
        {
          "duration": 0,
          "durationTicks": 0,
          "midi": 36,
          "name": "C2",
          "ticks": 131682,
          "time": 171.4609375,
          "velocity": 0.3464566929133858
        },
        {
          "duration": 0,
          "durationTicks": 0,
          "midi": 57,
          "name": "A3",
          "ticks": 131682,
          "time": 171.4609375,
          "velocity": 0.23622047244094488
        },
        {
          "duration": 0,
          "durationTicks": 0,
          "midi": 81,
          "name": "A5",
          "ticks": 131682,
          "time": 171.4609375,
          "velocity": 0.3228346456692913
        },
        {
          "duration": 0.2526041666666572,
          "durationTicks": 194,
          "midi": 61,
          "name": "C#4",
          "ticks": 131682,
          "time": 171.4609375,
          "velocity": 0.18110236220472442
        },
        {
          "duration": 0,
          "durationTicks": 0,
          "midi": 59,
          "name": "B3",
          "ticks": 131699,
          "time": 171.48307291666666,
          "velocity": 0.2204724409448819
        },
        {
          "duration": 0,
          "durationTicks": 0,
          "midi": 34,
          "name": "A#1",
          "ticks": 131699,
          "time": 171.48307291666666,
          "velocity": 0.3937007874015748
        },
        {
          "duration": 0,
          "durationTicks": 0,
          "midi": 68,
          "name": "G#4",
          "ticks": 131726,
          "time": 171.51822916666666,
          "velocity": 0.05511811023622047
        },
        {
          "duration": 0.5104166666666856,
          "durationTicks": 392,
          "midi": 82,
          "name": "A#5",
          "ticks": 131726,
          "time": 171.51822916666666,
          "velocity": 0.36220472440944884
        },
        {
          "duration": 0,
          "durationTicks": 0,
          "midi": 80,
          "name": "G#5",
          "ticks": 131736,
          "time": 171.53125,
          "velocity": 0.05511811023622047
        },
        {
          "duration": 0,
          "durationTicks": 0,
          "midi": 35,
          "name": "B1",
          "ticks": 131745,
          "time": 171.54296875,
          "velocity": 0.3464566929133858
        },
        {
          "duration": 0,
          "durationTicks": 0,
          "midi": 73,
          "name": "C#5",
          "ticks": 131762,
          "time": 171.56510416666666,
          "velocity": 0.1968503937007874
        },
        {
          "duration": 0,
          "durationTicks": 0,
          "midi": 57,
          "name": "A3",
          "ticks": 131772,
          "time": 171.578125,
          "velocity": 0.2204724409448819
        },
        {
          "duration": 0,
          "durationTicks": 0,
          "midi": 56,
          "name": "G#3",
          "ticks": 131789,
          "time": 171.60026041666666,
          "velocity": 0.2047244094488189
        },
        {
          "duration": 0,
          "durationTicks": 0,
          "midi": 70,
          "name": "A#4",
          "ticks": 131807,
          "time": 171.62369791666666,
          "velocity": 0.1968503937007874
        },
        {
          "duration": 0.12890625,
          "durationTicks": 99,
          "midi": 89,
          "name": "F6",
          "ticks": 131807,
          "time": 171.62369791666666,
          "velocity": 0.14173228346456693
        },
        {
          "duration": 0.08333333333334281,
          "durationTicks": 64,
          "midi": 80,
          "name": "G#5",
          "ticks": 131816,
          "time": 171.63541666666666,
          "velocity": 0.2283464566929134
        },
        {
          "duration": 0,
          "durationTicks": 0,
          "midi": 58,
          "name": "A#3",
          "ticks": 131843,
          "time": 171.67057291666666,
          "velocity": 0.2047244094488189
        },
        {
          "duration": 0.1302083333333428,
          "durationTicks": 100,
          "midi": 44,
          "name": "G#2",
          "ticks": 131843,
          "time": 171.67057291666666,
          "velocity": 0.3858267716535433
        },
        {
          "duration": 0,
          "durationTicks": 0,
          "midi": 69,
          "name": "A4",
          "ticks": 131852,
          "time": 171.68229166666666,
          "velocity": 0.18110236220472442
        },
        {
          "duration": 0,
          "durationTicks": 0,
          "midi": 77,
          "name": "F5",
          "ticks": 131862,
          "time": 171.6953125,
          "velocity": 0.1732283464566929
        },
        {
          "duration": 0,
          "durationTicks": 0,
          "midi": 63,
          "name": "D#4",
          "ticks": 131871,
          "time": 171.70703125,
          "velocity": 0.06299212598425197
        },
        {
          "duration": 0,
          "durationTicks": 0,
          "midi": 73,
          "name": "C#5",
          "ticks": 131880,
          "time": 171.71875,
          "velocity": 0.16535433070866143
        },
        {
          "duration": 0.04557291666665719,
          "durationTicks": 35,
          "midi": 80,
          "name": "G#5",
          "ticks": 131880,
          "time": 171.71875,
          "velocity": 0.09448818897637795
        },
        {
          "duration": 0,
          "durationTicks": 0,
          "midi": 69,
          "name": "A4",
          "ticks": 131890,
          "time": 171.73177083333334,
          "velocity": 0.18110236220472442
        },
        {
          "duration": 0.12890625,
          "durationTicks": 99,
          "midi": 77,
          "name": "F5",
          "ticks": 131899,
          "time": 171.74348958333334,
          "velocity": 0.2283464566929134
        },
        {
          "duration": 0,
          "durationTicks": 0,
          "midi": 81,
          "name": "A5",
          "ticks": 131918,
          "time": 171.76822916666666,
          "velocity": 0.33070866141732286
        },
        {
          "duration": 0,
          "durationTicks": 0,
          "midi": 79,
          "name": "G5",
          "ticks": 131918,
          "time": 171.76822916666666,
          "velocity": 0.3464566929133858
        },
        {
          "duration": 0.12760416666668561,
          "durationTicks": 98,
          "midi": 73,
          "name": "C#5",
          "ticks": 131927,
          "time": 171.77994791666666,
          "velocity": 0.1732283464566929
        },
        {
          "duration": 0,
          "durationTicks": 0,
          "midi": 71,
          "name": "B4",
          "ticks": 131936,
          "time": 171.79166666666666,
          "velocity": 0.11811023622047244
        },
        {
          "duration": 0,
          "durationTicks": 0,
          "midi": 86,
          "name": "D6",
          "ticks": 131936,
          "time": 171.79166666666666,
          "velocity": 0.08661417322834646
        },
        {
          "duration": 0.1276041666666572,
          "durationTicks": 98,
          "midi": 46,
          "name": "A#2",
          "ticks": 131955,
          "time": 171.81640625,
          "velocity": 0.36220472440944884
        },
        {
          "duration": 0,
          "durationTicks": 0,
          "midi": 70,
          "name": "A#4",
          "ticks": 131964,
          "time": 171.828125,
          "velocity": 0.08661417322834646
        },
        {
          "duration": 0.1276041666666572,
          "durationTicks": 98,
          "midi": 61,
          "name": "C#4",
          "ticks": 131964,
          "time": 171.828125,
          "velocity": 0.1732283464566929
        },
        {
          "duration": 0.1276041666666572,
          "durationTicks": 98,
          "midi": 65,
          "name": "F4",
          "ticks": 131964,
          "time": 171.828125,
          "velocity": 0.18110236220472442
        },
        {
          "duration": 0,
          "durationTicks": 0,
          "midi": 80,
          "name": "G#5",
          "ticks": 131973,
          "time": 171.83984375,
          "velocity": 0.08661417322834646
        },
        {
          "duration": 0,
          "durationTicks": 0,
          "midi": 76,
          "name": "E5",
          "ticks": 131983,
          "time": 171.85286458333334,
          "velocity": 0.31496062992125984
        },
        {
          "duration": 0.1276041666666572,
          "durationTicks": 98,
          "midi": 80,
          "name": "G#5",
          "ticks": 132027,
          "time": 171.91015625,
          "velocity": 0.14173228346456693
        },
        {
          "duration": 0,
          "durationTicks": 0,
          "midi": 64,
          "name": "E4",
          "ticks": 132037,
          "time": 171.92317708333334,
          "velocity": 0.09448818897637795
        },
        {
          "duration": 0,
          "durationTicks": 0,
          "midi": 72,
          "name": "C5",
          "ticks": 132037,
          "time": 171.92317708333334,
          "velocity": 0.14173228346456693
        },
        {
          "duration": 0,
          "durationTicks": 0,
          "midi": 68,
          "name": "G#4",
          "ticks": 132046,
          "time": 171.93489583333334,
          "velocity": 0.2283464566929134
        },
        {
          "duration": 0,
          "durationTicks": 0,
          "midi": 85,
          "name": "C#6",
          "ticks": 132046,
          "time": 171.93489583333334,
          "velocity": 0.10236220472440945
        },
        {
          "duration": 0,
          "durationTicks": 0,
          "midi": 88,
          "name": "E6",
          "ticks": 132046,
          "time": 171.93489583333334,
          "velocity": 0.08661417322834646
        },
        {
          "duration": 0,
          "durationTicks": 0,
          "midi": 86,
          "name": "D6",
          "ticks": 132046,
          "time": 171.93489583333334,
          "velocity": 0.07874015748031496
        },
        {
          "duration": 0,
          "durationTicks": 0,
          "midi": 57,
          "name": "A3",
          "ticks": 132055,
          "time": 171.94661458333334,
          "velocity": 0.2992125984251969
        },
        {
          "duration": 0,
          "durationTicks": 0,
          "midi": 73,
          "name": "C#5",
          "ticks": 132064,
          "time": 171.95833333333334,
          "velocity": 0.1889763779527559
        },
        {
          "duration": 0,
          "durationTicks": 0,
          "midi": 56,
          "name": "G#3",
          "ticks": 132074,
          "time": 171.97135416666666,
          "velocity": 0.2125984251968504
        },
        {
          "duration": 0,
          "durationTicks": 0,
          "midi": 38,
          "name": "D2",
          "ticks": 132074,
          "time": 171.97135416666666,
          "velocity": 0.1968503937007874
        },
        {
          "duration": 0,
          "durationTicks": 0,
          "midi": 81,
          "name": "A5",
          "ticks": 132101,
          "time": 172.00651041666666,
          "velocity": 0.1968503937007874
        },
        {
          "duration": 0,
          "durationTicks": 0,
          "midi": 77,
          "name": "F5",
          "ticks": 132101,
          "time": 172.00651041666666,
          "velocity": 0.1968503937007874
        },
        {
          "duration": 0,
          "durationTicks": 0,
          "midi": 57,
          "name": "A3",
          "ticks": 132118,
          "time": 172.02864583333334,
          "velocity": 0.09448818897637795
        },
        {
          "duration": 0.125,
          "durationTicks": 96,
          "midi": 73,
          "name": "C#5",
          "ticks": 132118,
          "time": 172.02864583333334,
          "velocity": 0.18110236220472442
        },
        {
          "duration": 0,
          "durationTicks": 0,
          "midi": 79,
          "name": "G5",
          "ticks": 132128,
          "time": 172.04166666666666,
          "velocity": 0.2125984251968504
        },
        {
          "duration": 0,
          "durationTicks": 0,
          "midi": 76,
          "name": "E5",
          "ticks": 132172,
          "time": 172.09895833333334,
          "velocity": 0.1889763779527559
        },
        {
          "duration": 0.1263020833333428,
          "durationTicks": 97,
          "midi": 61,
          "name": "C#4",
          "ticks": 132234,
          "time": 172.1796875,
          "velocity": 0.18110236220472442
        },
        {
          "duration": 0.1263020833333428,
          "durationTicks": 97,
          "midi": 34,
          "name": "A#1",
          "ticks": 132234,
          "time": 172.1796875,
          "velocity": 0.3779527559055118
        },
        {
          "duration": 0.1263020833333428,
          "durationTicks": 97,
          "midi": 80,
          "name": "G#5",
          "ticks": 132234,
          "time": 172.1796875,
          "velocity": 0.2047244094488189
        },
        {
          "duration": 0.1263020833333428,
          "durationTicks": 97,
          "midi": 65,
          "name": "F4",
          "ticks": 132243,
          "time": 172.19140625,
          "velocity": 0.1732283464566929
        },
        {
          "duration": 0.1263020833333428,
          "durationTicks": 97,
          "midi": 77,
          "name": "F5",
          "ticks": 132243,
          "time": 172.19140625,
          "velocity": 0.25984251968503935
        },
        {
          "duration": 0.12630208333331439,
          "durationTicks": 97,
          "midi": 70,
          "name": "A#4",
          "ticks": 132253,
          "time": 172.20442708333334,
          "velocity": 0.08661417322834646
        },
        {
          "duration": 0,
          "durationTicks": 0,
          "midi": 68,
          "name": "G#4",
          "ticks": 132297,
          "time": 172.26171875,
          "velocity": 0.05511811023622047
        },
        {
          "duration": 0.1263020833333428,
          "durationTicks": 97,
          "midi": 84,
          "name": "C6",
          "ticks": 132297,
          "time": 172.26171875,
          "velocity": 0.14173228346456693
        },
        {
          "duration": 0.12630208333331439,
          "durationTicks": 97,
          "midi": 94,
          "name": "A#6",
          "ticks": 132343,
          "time": 172.32161458333334,
          "velocity": 0.14173228346456693
        },
        {
          "duration": 0,
          "durationTicks": 0,
          "midi": 75,
          "name": "D#5",
          "ticks": 132352,
          "time": 172.33333333333334,
          "velocity": 0.28346456692913385
        },
        {
          "duration": 0,
          "durationTicks": 0,
          "midi": 72,
          "name": "C5",
          "ticks": 132397,
          "time": 172.39192708333334,
          "velocity": 0.2992125984251969
        },
        {
          "duration": 0,
          "durationTicks": 0,
          "midi": 91,
          "name": "G6",
          "ticks": 132397,
          "time": 172.39192708333334,
          "velocity": 0.14173228346456693
        },
        {
          "duration": 0.1276041666666572,
          "durationTicks": 98,
          "midi": 70,
          "name": "A#4",
          "ticks": 132414,
          "time": 172.4140625,
          "velocity": 0.33070866141732286
        },
        {
          "duration": 0,
          "durationTicks": 0,
          "midi": 36,
          "name": "C2",
          "ticks": 132424,
          "time": 172.42708333333334,
          "velocity": 0.31496062992125984
        },
        {
          "duration": 0.25390625,
          "durationTicks": 195,
          "midi": 79,
          "name": "G5",
          "ticks": 132433,
          "time": 172.43880208333334,
          "velocity": 0.2283464566929134
        },
        {
          "duration": 0,
          "durationTicks": 0,
          "midi": 67,
          "name": "G4",
          "ticks": 132442,
          "time": 172.45052083333334,
          "velocity": 0.1732283464566929
        },
        {
          "duration": 0.1276041666666572,
          "durationTicks": 98,
          "midi": 89,
          "name": "F6",
          "ticks": 132442,
          "time": 172.45052083333334,
          "velocity": 0.13385826771653545
        },
        {
          "duration": 0.25390625,
          "durationTicks": 195,
          "midi": 63,
          "name": "D#4",
          "ticks": 132442,
          "time": 172.45052083333334,
          "velocity": 0.1732283464566929
        },
        {
          "duration": 0,
          "durationTicks": 0,
          "midi": 36,
          "name": "C2",
          "ticks": 132451,
          "time": 172.46223958333334,
          "velocity": 0.4015748031496063
        },
        {
          "duration": 0,
          "durationTicks": 0,
          "midi": 60,
          "name": "C4",
          "ticks": 132451,
          "time": 172.46223958333334,
          "velocity": 0.2204724409448819
        },
        {
          "duration": 0,
          "durationTicks": 0,
          "midi": 35,
          "name": "B1",
          "ticks": 132461,
          "time": 172.47526041666666,
          "velocity": 0.4251968503937008
        },
        {
          "duration": 0,
          "durationTicks": 0,
          "midi": 37,
          "name": "C#2",
          "ticks": 132478,
          "time": 172.49739583333334,
          "velocity": 0.3700787401574803
        },
        {
          "duration": 0,
          "durationTicks": 0,
          "midi": 60,
          "name": "C4",
          "ticks": 132478,
          "time": 172.49739583333334,
          "velocity": 0.2283464566929134
        },
        {
          "duration": 0.12630208333331439,
          "durationTicks": 97,
          "midi": 77,
          "name": "F5",
          "ticks": 132478,
          "time": 172.49739583333334,
          "velocity": 0.16535433070866143
        },
        {
          "duration": 0,
          "durationTicks": 0,
          "midi": 72,
          "name": "C5",
          "ticks": 132496,
          "time": 172.52083333333334,
          "velocity": 0.2125984251968504
        },
        {
          "duration": 0,
          "durationTicks": 0,
          "midi": 68,
          "name": "G#4",
          "ticks": 132496,
          "time": 172.52083333333334,
          "velocity": 0.33858267716535434
        },
        {
          "duration": 0.1276041666666572,
          "durationTicks": 98,
          "midi": 36,
          "name": "C2",
          "ticks": 132496,
          "time": 172.52083333333334,
          "velocity": 0.3937007874015748
        },
        {
          "duration": 0,
          "durationTicks": 0,
          "midi": 60,
          "name": "C4",
          "ticks": 132505,
          "time": 172.53255208333334,
          "velocity": 0.2125984251968504
        },
        {
          "duration": 0,
          "durationTicks": 0,
          "midi": 71,
          "name": "B4",
          "ticks": 132524,
          "time": 172.55729166666666,
          "velocity": 0.18110236220472442
        },
        {
          "duration": 0,
          "durationTicks": 0,
          "midi": 60,
          "name": "C4",
          "ticks": 132533,
          "time": 172.56901041666666,
          "velocity": 0.2204724409448819
        },
        {
          "duration": 0.1263020833333428,
          "durationTicks": 97,
          "midi": 75,
          "name": "D#5",
          "ticks": 132533,
          "time": 172.56901041666666,
          "velocity": 0.33070866141732286
        },
        {
          "duration": 0.1263020833333428,
          "durationTicks": 97,
          "midi": 67,
          "name": "G4",
          "ticks": 132542,
          "time": 172.58072916666666,
          "velocity": 0.1889763779527559
        },
        {
          "duration": 0.1263020833333428,
          "durationTicks": 97,
          "midi": 60,
          "name": "C4",
          "ticks": 132560,
          "time": 172.60416666666666,
          "velocity": 0.2125984251968504
        },
        {
          "duration": 0.1263020833333428,
          "durationTicks": 97,
          "midi": 72,
          "name": "C5",
          "ticks": 132578,
          "time": 172.62760416666666,
          "velocity": 0.3464566929133858
        },
        {
          "duration": 0,
          "durationTicks": 0,
          "midi": 70,
          "name": "A#4",
          "ticks": 132587,
          "time": 172.63932291666666,
          "velocity": 0.11811023622047244
        },
        {
          "duration": 0,
          "durationTicks": 0,
          "midi": 70,
          "name": "A#4",
          "ticks": 132632,
          "time": 172.69791666666666,
          "velocity": 0.3700787401574803
        },
        {
          "duration": 0,
          "durationTicks": 0,
          "midi": 69,
          "name": "A4",
          "ticks": 132677,
          "time": 172.75651041666666,
          "velocity": 0.3464566929133858
        },
        {
          "duration": 0,
          "durationTicks": 0,
          "midi": 80,
          "name": "G#5",
          "ticks": 132686,
          "time": 172.76822916666666,
          "velocity": 0.08661417322834646
        },
        {
          "duration": 0,
          "durationTicks": 0,
          "midi": 68,
          "name": "G#4",
          "ticks": 132696,
          "time": 172.78125,
          "velocity": 0.3700787401574803
        },
        {
          "duration": 0.1263020833333428,
          "durationTicks": 97,
          "midi": 87,
          "name": "D#6",
          "ticks": 132696,
          "time": 172.78125,
          "velocity": 0.07874015748031496
        },
        {
          "duration": 0,
          "durationTicks": 0,
          "midi": 64,
          "name": "E4",
          "ticks": 132713,
          "time": 172.80338541666666,
          "velocity": 0.23622047244094488
        },
        {
          "duration": 0.2565104166666856,
          "durationTicks": 197,
          "midi": 79,
          "name": "G5",
          "ticks": 132713,
          "time": 172.80338541666666,
          "velocity": 0.2204724409448819
        },
        {
          "duration": 0.12760416666668561,
          "durationTicks": 98,
          "midi": 77,
          "name": "F5",
          "ticks": 132722,
          "time": 172.81510416666666,
          "velocity": 0.14173228346456693
        },
        {
          "duration": 0.12760416666668561,
          "durationTicks": 98,
          "midi": 36,
          "name": "C2",
          "ticks": 132722,
          "time": 172.81510416666666,
          "velocity": 0.3779527559055118
        },
        {
          "duration": 0,
          "durationTicks": 0,
          "midi": 60,
          "name": "C4",
          "ticks": 132732,
          "time": 172.828125,
          "velocity": 0.2283464566929134
        },
        {
          "duration": 0,
          "durationTicks": 0,
          "midi": 84,
          "name": "C6",
          "ticks": 132732,
          "time": 172.828125,
          "velocity": 0.11811023622047244
        },
        {
          "duration": 0.1276041666666572,
          "durationTicks": 98,
          "midi": 75,
          "name": "D#5",
          "ticks": 132732,
          "time": 172.828125,
          "velocity": 0.23622047244094488
        },
        {
          "duration": 0,
          "durationTicks": 0,
          "midi": 65,
          "name": "F4",
          "ticks": 132741,
          "time": 172.83984375,
          "velocity": 0.3543307086614173
        },
        {
          "duration": 0,
          "durationTicks": 0,
          "midi": 70,
          "name": "A#4",
          "ticks": 132759,
          "time": 172.86328125,
          "velocity": 0.2047244094488189
        },
        {
          "duration": 0,
          "durationTicks": 0,
          "midi": 67,
          "name": "G4",
          "ticks": 132776,
          "time": 172.88541666666666,
          "velocity": 0.2283464566929134
        },
        {
          "duration": 0,
          "durationTicks": 0,
          "midi": 60,
          "name": "C4",
          "ticks": 132786,
          "time": 172.8984375,
          "velocity": 0.2283464566929134
        },
        {
          "duration": 0,
          "durationTicks": 0,
          "midi": 72,
          "name": "C5",
          "ticks": 132786,
          "time": 172.8984375,
          "velocity": 0.29133858267716534
        },
        {
          "duration": 0,
          "durationTicks": 0,
          "midi": 63,
          "name": "D#4",
          "ticks": 132786,
          "time": 172.8984375,
          "velocity": 0.3779527559055118
        },
        {
          "duration": 0.1302083333333428,
          "durationTicks": 100,
          "midi": 70,
          "name": "A#4",
          "ticks": 132795,
          "time": 172.91015625,
          "velocity": 0.4015748031496063
        },
        {
          "duration": 0,
          "durationTicks": 0,
          "midi": 80,
          "name": "G#5",
          "ticks": 132804,
          "time": 172.921875,
          "velocity": 0.14960629921259844
        },
        {
          "duration": 0,
          "durationTicks": 0,
          "midi": 90,
          "name": "F#6",
          "ticks": 132814,
          "time": 172.93489583333334,
          "velocity": 0.07086614173228346
        },
        {
          "duration": 0.12890625,
          "durationTicks": 99,
          "midi": 86,
          "name": "D6",
          "ticks": 132814,
          "time": 172.93489583333334,
          "velocity": 0.08661417322834646
        },
        {
          "duration": 0,
          "durationTicks": 0,
          "midi": 56,
          "name": "G#3",
          "ticks": 132823,
          "time": 172.94661458333334,
          "velocity": 0.2677165354330709
        },
        {
          "duration": 0,
          "durationTicks": 0,
          "midi": 87,
          "name": "D#6",
          "ticks": 132823,
          "time": 172.94661458333334,
          "velocity": 0.08661417322834646
        },
        {
          "duration": 0.12890625,
          "durationTicks": 99,
          "midi": 89,
          "name": "F6",
          "ticks": 132823,
          "time": 172.94661458333334,
          "velocity": 0.1889763779527559
        },
        {
          "duration": 0,
          "durationTicks": 0,
          "midi": 60,
          "name": "C4",
          "ticks": 132832,
          "time": 172.95833333333334,
          "velocity": 0.2283464566929134
        },
        {
          "duration": 0,
          "durationTicks": 0,
          "midi": 37,
          "name": "C#2",
          "ticks": 132841,
          "time": 172.97005208333334,
          "velocity": 0.3858267716535433
        },
        {
          "duration": 0,
          "durationTicks": 0,
          "midi": 67,
          "name": "G4",
          "ticks": 132841,
          "time": 172.97005208333334,
          "velocity": 0.1968503937007874
        },
        {
          "duration": 0,
          "durationTicks": 0,
          "midi": 58,
          "name": "A#3",
          "ticks": 132851,
          "time": 172.98307291666666,
          "velocity": 0.2047244094488189
        },
        {
          "duration": 0,
          "durationTicks": 0,
          "midi": 36,
          "name": "C2",
          "ticks": 132860,
          "time": 172.99479166666666,
          "velocity": 0.3937007874015748
        },
        {
          "duration": 0,
          "durationTicks": 0,
          "midi": 60,
          "name": "C4",
          "ticks": 132860,
          "time": 172.99479166666666,
          "velocity": 0.2283464566929134
        },
        {
          "duration": 0,
          "durationTicks": 0,
          "midi": 63,
          "name": "D#4",
          "ticks": 132860,
          "time": 172.99479166666666,
          "velocity": 0.18110236220472442
        },
        {
          "duration": 0,
          "durationTicks": 0,
          "midi": 69,
          "name": "A4",
          "ticks": 132869,
          "time": 173.00651041666666,
          "velocity": 0.3937007874015748
        },
        {
          "duration": 0.12760416666668561,
          "durationTicks": 98,
          "midi": 87,
          "name": "D#6",
          "ticks": 132869,
          "time": 173.00651041666666,
          "velocity": 0.1732283464566929
        },
        {
          "duration": 0,
          "durationTicks": 0,
          "midi": 37,
          "name": "C#2",
          "ticks": 132879,
          "time": 173.01953125,
          "velocity": 0.3937007874015748
        },
        {
          "duration": 0,
          "durationTicks": 0,
          "midi": 84,
          "name": "C6",
          "ticks": 132888,
          "time": 173.03125,
          "velocity": 0.07874015748031496
        },
        {
          "duration": 0,
          "durationTicks": 0,
          "midi": 68,
          "name": "G#4",
          "ticks": 132888,
          "time": 173.03125,
          "velocity": 0.3937007874015748
        },
        {
          "duration": 0,
          "durationTicks": 0,
          "midi": 36,
          "name": "C2",
          "ticks": 132897,
          "time": 173.04296875,
          "velocity": 0.3543307086614173
        },
        {
          "duration": 0,
          "durationTicks": 0,
          "midi": 60,
          "name": "C4",
          "ticks": 132897,
          "time": 173.04296875,
          "velocity": 0.1889763779527559
        },
        {
          "duration": 0,
          "durationTicks": 0,
          "midi": 77,
          "name": "F5",
          "ticks": 132924,
          "time": 173.078125,
          "velocity": 0.10236220472440945
        },
        {
          "duration": 0,
          "durationTicks": 0,
          "midi": 84,
          "name": "C6",
          "ticks": 132924,
          "time": 173.078125,
          "velocity": 0.14173228346456693
        },
        {
          "duration": 0,
          "durationTicks": 0,
          "midi": 65,
          "name": "F4",
          "ticks": 132933,
          "time": 173.08984375,
          "velocity": 0.3858267716535433
        },
        {
          "duration": 0.1276041666666572,
          "durationTicks": 98,
          "midi": 82,
          "name": "A#5",
          "ticks": 132970,
          "time": 173.13802083333334,
          "velocity": 0.14173228346456693
        },
        {
          "duration": 0,
          "durationTicks": 0,
          "midi": 63,
          "name": "D#4",
          "ticks": 132979,
          "time": 173.14973958333334,
          "velocity": 0.4015748031496063
        },
        {
          "duration": 0.1276041666666572,
          "durationTicks": 98,
          "midi": 72,
          "name": "C5",
          "ticks": 132988,
          "time": 173.16145833333334,
          "velocity": 0.1889763779527559
        },
        {
          "duration": 0,
          "durationTicks": 0,
          "midi": 69,
          "name": "A4",
          "ticks": 133006,
          "time": 173.18489583333334,
          "velocity": 0.2125984251968504
        },
        {
          "duration": 0,
          "durationTicks": 0,
          "midi": 80,
          "name": "G#5",
          "ticks": 133006,
          "time": 173.18489583333334,
          "velocity": 0.2125984251968504
        },
        {
          "duration": 0.1276041666666572,
          "durationTicks": 98,
          "midi": 37,
          "name": "C#2",
          "ticks": 133015,
          "time": 173.19661458333334,
          "velocity": 0.3779527559055118
        },
        {
          "duration": 0,
          "durationTicks": 0,
          "midi": 70,
          "name": "A#4",
          "ticks": 133024,
          "time": 173.20833333333334,
          "velocity": 0.25196850393700787
        },
        {
          "duration": 0,
          "durationTicks": 0,
          "midi": 60,
          "name": "C4",
          "ticks": 133024,
          "time": 173.20833333333334,
          "velocity": 0.3779527559055118
        },
        {
          "duration": 0,
          "durationTicks": 0,
          "midi": 86,
          "name": "D6",
          "ticks": 133024,
          "time": 173.20833333333334,
          "velocity": 0.06299212598425197
        },
        {
          "duration": 0.12760416666668561,
          "durationTicks": 98,
          "midi": 65,
          "name": "F4",
          "ticks": 133034,
          "time": 173.22135416666666,
          "velocity": 0.2047244094488189
        },
        {
          "duration": 0,
          "durationTicks": 0,
          "midi": 76,
          "name": "E5",
          "ticks": 133043,
          "time": 173.23307291666666,
          "velocity": 0.18110236220472442
        },
        {
          "duration": 0.2526041666666856,
          "durationTicks": 194,
          "midi": 68,
          "name": "G#4",
          "ticks": 133043,
          "time": 173.23307291666666,
          "velocity": 0.29133858267716534
        },
        {
          "duration": 0.12760416666668561,
          "durationTicks": 98,
          "midi": 87,
          "name": "D#6",
          "ticks": 133061,
          "time": 173.25651041666666,
          "velocity": 0.09448818897637795
        },
        {
          "duration": 0.12760416666668561,
          "durationTicks": 98,
          "midi": 75,
          "name": "D#5",
          "ticks": 133070,
          "time": 173.26822916666666,
          "velocity": 0.2204724409448819
        },
        {
          "duration": 0,
          "durationTicks": 0,
          "midi": 58,
          "name": "A#3",
          "ticks": 133079,
          "time": 173.27994791666666,
          "velocity": 0.3464566929133858
        },
        {
          "duration": 0,
          "durationTicks": 0,
          "midi": 63,
          "name": "D#4",
          "ticks": 133089,
          "time": 173.29296875,
          "velocity": 0.2283464566929134
        },
        {
          "duration": 0,
          "durationTicks": 0,
          "midi": 73,
          "name": "C#5",
          "ticks": 133089,
          "time": 173.29296875,
          "velocity": 0.1732283464566929
        },
        {
          "duration": 0,
          "durationTicks": 0,
          "midi": 88,
          "name": "E6",
          "ticks": 133115,
          "time": 173.32682291666666,
          "velocity": 0.06299212598425197
        },
        {
          "duration": 0.1171875,
          "durationTicks": 90,
          "midi": 60,
          "name": "C4",
          "ticks": 133125,
          "time": 173.33984375,
          "velocity": 0.33858267716535434
        },
        {
          "duration": 0,
          "durationTicks": 0,
          "midi": 37,
          "name": "C#2",
          "ticks": 133134,
          "time": 173.3515625,
          "velocity": 0.4015748031496063
        },
        {
          "duration": 0,
          "durationTicks": 0,
          "midi": 36,
          "name": "C2",
          "ticks": 133143,
          "time": 173.36328125,
          "velocity": 0.4094488188976378
        },
        {
          "duration": 0,
          "durationTicks": 0,
          "midi": 63,
          "name": "D#4",
          "ticks": 133161,
          "time": 173.38671875,
          "velocity": 0.31496062992125984
        },
        {
          "duration": 0,
          "durationTicks": 0,
          "midi": 37,
          "name": "C#2",
          "ticks": 133170,
          "time": 173.3984375,
          "velocity": 0.3858267716535433
        },
        {
          "duration": 0,
          "durationTicks": 0,
          "midi": 76,
          "name": "E5",
          "ticks": 133170,
          "time": 173.3984375,
          "velocity": 0.11811023622047244
        },
        {
          "duration": 0,
          "durationTicks": 0,
          "midi": 87,
          "name": "D#6",
          "ticks": 133170,
          "time": 173.3984375,
          "velocity": 0.06299212598425197
        },
        {
          "duration": 0,
          "durationTicks": 0,
          "midi": 73,
          "name": "C#5",
          "ticks": 133188,
          "time": 173.421875,
          "velocity": 0.10236220472440945
        },
        {
          "duration": 0,
          "durationTicks": 0,
          "midi": 41,
          "name": "F2",
          "ticks": 133206,
          "time": 173.4453125,
          "velocity": 0.2204724409448819
        },
        {
          "duration": 0.009114583333342807,
          "durationTicks": 7,
          "midi": 60,
          "name": "C4",
          "ticks": 133215,
          "time": 173.45703125,
          "velocity": 0.2047244094488189
        },
        {
          "duration": 0,
          "durationTicks": 0,
          "midi": 65,
          "name": "F4",
          "ticks": 133215,
          "time": 173.45703125,
          "velocity": 0.30708661417322836
        },
        {
          "duration": 0,
          "durationTicks": 0,
          "midi": 93,
          "name": "A6",
          "ticks": 133224,
          "time": 173.46875,
          "velocity": 0.07086614173228346
        },
        {
          "duration": 0,
          "durationTicks": 0,
          "midi": 36,
          "name": "C2",
          "ticks": 133259,
          "time": 173.51432291666666,
          "velocity": 0.2204724409448819
        },
        {
          "duration": 0,
          "durationTicks": 0,
          "midi": 58,
          "name": "A#3",
          "ticks": 133269,
          "time": 173.52734375,
          "velocity": 0.2204724409448819
        },
        {
          "duration": 0,
          "durationTicks": 0,
          "midi": 63,
          "name": "D#4",
          "ticks": 133269,
          "time": 173.52734375,
          "velocity": 0.31496062992125984
        },
        {
          "duration": 0,
          "durationTicks": 0,
          "midi": 91,
          "name": "G6",
          "ticks": 133269,
          "time": 173.52734375,
          "velocity": 0.05511811023622047
        },
        {
          "duration": 0,
          "durationTicks": 0,
          "midi": 44,
          "name": "G#2",
          "ticks": 133296,
          "time": 173.5625,
          "velocity": 0.2204724409448819
        },
        {
          "duration": 0,
          "durationTicks": 0,
          "midi": 60,
          "name": "C4",
          "ticks": 133313,
          "time": 173.58463541666666,
          "velocity": 0.2047244094488189
        },
        {
          "duration": 0,
          "durationTicks": 0,
          "midi": 65,
          "name": "F4",
          "ticks": 133313,
          "time": 173.58463541666666,
          "velocity": 0.29133858267716534
        },
        {
          "duration": 0,
          "durationTicks": 0,
          "midi": 84,
          "name": "C6",
          "ticks": 133313,
          "time": 173.58463541666666,
          "velocity": 0.08661417322834646
        },
        {
          "duration": 0,
          "durationTicks": 0,
          "midi": 41,
          "name": "F2",
          "ticks": 133349,
          "time": 173.63151041666666,
          "velocity": 0.2204724409448819
        },
        {
          "duration": 0,
          "durationTicks": 0,
          "midi": 63,
          "name": "D#4",
          "ticks": 133359,
          "time": 173.64453125,
          "velocity": 0.1968503937007874
        },
        {
          "duration": 0.1276041666666572,
          "durationTicks": 98,
          "midi": 87,
          "name": "D#6",
          "ticks": 133359,
          "time": 173.64453125,
          "velocity": 0.15748031496062992
        },
        {
          "duration": 0.25390625,
          "durationTicks": 195,
          "midi": 68,
          "name": "G#4",
          "ticks": 133359,
          "time": 173.64453125,
          "velocity": 0.30708661417322836
        },
        {
          "duration": 0.1276041666666572,
          "durationTicks": 98,
          "midi": 60,
          "name": "C4",
          "ticks": 133386,
          "time": 173.6796875,
          "velocity": 0.16535433070866143
        },
        {
          "duration": 0,
          "durationTicks": 0,
          "midi": 64,
          "name": "E4",
          "ticks": 133395,
          "time": 173.69140625,
          "velocity": 0.2047244094488189
        },
        {
          "duration": 0.1276041666666572,
          "durationTicks": 98,
          "midi": 84,
          "name": "C6",
          "ticks": 133395,
          "time": 173.69140625,
          "velocity": 0.1889763779527559
        },
        {
          "duration": 0,
          "durationTicks": 0,
          "midi": 48,
          "name": "C3",
          "ticks": 133404,
          "time": 173.703125,
          "velocity": 0.25984251968503935
        },
        {
          "duration": 0,
          "durationTicks": 0,
          "midi": 36,
          "name": "C2",
          "ticks": 133413,
          "time": 173.71484375,
          "velocity": 0.41732283464566927
        },
        {
          "duration": 0,
          "durationTicks": 0,
          "midi": 75,
          "name": "D#5",
          "ticks": 133413,
          "time": 173.71484375,
          "velocity": 0.1889763779527559
        },
        {
          "duration": 0,
          "durationTicks": 0,
          "midi": 65,
          "name": "F4",
          "ticks": 133413,
          "time": 173.71484375,
          "velocity": 0.2204724409448819
        },
        {
          "duration": 0,
          "durationTicks": 0,
          "midi": 72,
          "name": "C5",
          "ticks": 133423,
          "time": 173.72786458333334,
          "velocity": 0.2047244094488189
        },
        {
          "duration": 0.12630208333331439,
          "durationTicks": 97,
          "midi": 56,
          "name": "G#3",
          "ticks": 133423,
          "time": 173.72786458333334,
          "velocity": 0.08661417322834646
        },
        {
          "duration": 0,
          "durationTicks": 0,
          "midi": 38,
          "name": "D2",
          "ticks": 133432,
          "time": 173.73958333333334,
          "velocity": 0.3779527559055118
        },
        {
          "duration": 0.12630208333331439,
          "durationTicks": 97,
          "midi": 63,
          "name": "D#4",
          "ticks": 133450,
          "time": 173.76302083333334,
          "velocity": 0.2755905511811024
        },
        {
          "duration": 0.12630208333331439,
          "durationTicks": 97,
          "midi": 77,
          "name": "F5",
          "ticks": 133459,
          "time": 173.77473958333334,
          "velocity": 0.08661417322834646
        },
        {
          "duration": 0,
          "durationTicks": 0,
          "midi": 51,
          "name": "D#3",
          "ticks": 133486,
          "time": 173.80989583333334,
          "velocity": 0.2125984251968504
        },
        {
          "duration": 0.1276041666666572,
          "durationTicks": 98,
          "midi": 60,
          "name": "C4",
          "ticks": 133486,
          "time": 173.80989583333334,
          "velocity": 0.1732283464566929
        },
        {
          "duration": 0,
          "durationTicks": 0,
          "midi": 65,
          "name": "F4",
          "ticks": 133504,
          "time": 173.83333333333334,
          "velocity": 0.18110236220472442
        },
        {
          "duration": 0,
          "durationTicks": 0,
          "midi": 70,
          "name": "A#4",
          "ticks": 133504,
          "time": 173.83333333333334,
          "velocity": 0.23622047244094488
        },
        {
          "duration": 0,
          "durationTicks": 0,
          "midi": 89,
          "name": "F6",
          "ticks": 133504,
          "time": 173.83333333333334,
          "velocity": 0.13385826771653545
        },
        {
          "duration": 0,
          "durationTicks": 0,
          "midi": 48,
          "name": "C3",
          "ticks": 133540,
          "time": 173.88020833333334,
          "velocity": 0.2204724409448819
        },
        {
          "duration": 0,
          "durationTicks": 0,
          "midi": 65,
          "name": "F4",
          "ticks": 133549,
          "time": 173.89192708333334,
          "velocity": 0.1889763779527559
        },
        {
          "duration": 0.12890625,
          "durationTicks": 99,
          "midi": 84,
          "name": "C6",
          "ticks": 133549,
          "time": 173.89192708333334,
          "velocity": 0.07086614173228346
        },
        {
          "duration": 0.12890625,
          "durationTicks": 99,
          "midi": 87,
          "name": "D#6",
          "ticks": 133549,
          "time": 173.89192708333334,
          "velocity": 0.11023622047244094
        },
        {
          "duration": 0,
          "durationTicks": 0,
          "midi": 72,
          "name": "C5",
          "ticks": 133568,
          "time": 173.91666666666666,
          "velocity": 0.2047244094488189
        },
        {
          "duration": 0,
          "durationTicks": 0,
          "midi": 86,
          "name": "D6",
          "ticks": 133577,
          "time": 173.92838541666666,
          "velocity": 0.09448818897637795
        },
        {
          "duration": 0,
          "durationTicks": 0,
          "midi": 56,
          "name": "G#3",
          "ticks": 133586,
          "time": 173.94010416666666,
          "velocity": 0.33858267716535434
        },
        {
          "duration": 0,
          "durationTicks": 0,
          "midi": 64,
          "name": "E4",
          "ticks": 133586,
          "time": 173.94010416666666,
          "velocity": 0.2283464566929134
        },
        {
          "duration": 0,
          "durationTicks": 0,
          "midi": 90,
          "name": "F#6",
          "ticks": 133586,
          "time": 173.94010416666666,
          "velocity": 0.07874015748031496
        },
        {
          "duration": 0,
          "durationTicks": 0,
          "midi": 89,
          "name": "F6",
          "ticks": 133586,
          "time": 173.94010416666666,
          "velocity": 0.06299212598425197
        },
        {
          "duration": 0,
          "durationTicks": 0,
          "midi": 75,
          "name": "D#5",
          "ticks": 133596,
          "time": 173.953125,
          "velocity": 0.1889763779527559
        },
        {
          "duration": 0,
          "durationTicks": 0,
          "midi": 89,
          "name": "F6",
          "ticks": 133596,
          "time": 173.953125,
          "velocity": 0.09448818897637795
        },
        {
          "duration": 0,
          "durationTicks": 0,
          "midi": 49,
          "name": "C#3",
          "ticks": 133596,
          "time": 173.953125,
          "velocity": 0.4015748031496063
        },
        {
          "duration": 0,
          "durationTicks": 0,
          "midi": 70,
          "name": "A#4",
          "ticks": 133605,
          "time": 173.96484375,
          "velocity": 0.1968503937007874
        },
        {
          "duration": 0,
          "durationTicks": 0,
          "midi": 64,
          "name": "E4",
          "ticks": 133614,
          "time": 173.9765625,
          "velocity": 0.1889763779527559
        },
        {
          "duration": 0,
          "durationTicks": 0,
          "midi": 56,
          "name": "G#3",
          "ticks": 133614,
          "time": 173.9765625,
          "velocity": 0.2677165354330709
        },
        {
          "duration": 0.1263020833333428,
          "durationTicks": 97,
          "midi": 72,
          "name": "C5",
          "ticks": 133614,
          "time": 173.9765625,
          "velocity": 0.18110236220472442
        },
        {
          "duration": 0,
          "durationTicks": 0,
          "midi": 80,
          "name": "G#5",
          "ticks": 133632,
          "time": 174,
          "velocity": 0.1968503937007874
        },
        {
          "duration": 0,
          "durationTicks": 0,
          "midi": 50,
          "name": "D3",
          "ticks": 133641,
          "time": 174.01171875,
          "velocity": 0.3937007874015748
        },
        {
          "duration": 0,
          "durationTicks": 0,
          "midi": 75,
          "name": "D#5",
          "ticks": 133650,
          "time": 174.0234375,
          "velocity": 0.18110236220472442
        },
        {
          "duration": 0,
          "durationTicks": 0,
          "midi": 49,
          "name": "C#3",
          "ticks": 133660,
          "time": 174.03645833333334,
          "velocity": 0.3464566929133858
        },
        {
          "duration": 0,
          "durationTicks": 0,
          "midi": 68,
          "name": "G#4",
          "ticks": 133660,
          "time": 174.03645833333334,
          "velocity": 0.1732283464566929
        },
        {
          "duration": 0,
          "durationTicks": 0,
          "midi": 60,
          "name": "C4",
          "ticks": 133677,
          "time": 174.05859375,
          "velocity": 0.2125984251968504
        },
        {
          "duration": 0.12630208333331439,
          "durationTicks": 97,
          "midi": 49,
          "name": "C#3",
          "ticks": 133687,
          "time": 174.07161458333334,
          "velocity": 0.36220472440944884
        },
        {
          "duration": 0,
          "durationTicks": 0,
          "midi": 70,
          "name": "A#4",
          "ticks": 133696,
          "time": 174.08333333333334,
          "velocity": 0.10236220472440945
        },
        {
          "duration": 0.12630208333331439,
          "durationTicks": 97,
          "midi": 75,
          "name": "D#5",
          "ticks": 133696,
          "time": 174.08333333333334,
          "velocity": 0.23622047244094488
        },
        {
          "duration": 0.11848958333334281,
          "durationTicks": 91,
          "midi": 56,
          "name": "G#3",
          "ticks": 133713,
          "time": 174.10546875,
          "velocity": 0.2204724409448819
        },
        {
          "duration": 0,
          "durationTicks": 0,
          "midi": 94,
          "name": "A#6",
          "ticks": 133740,
          "time": 174.140625,
          "velocity": 0.11023622047244094
        },
        {
          "duration": 0,
          "durationTicks": 0,
          "midi": 36,
          "name": "C2",
          "ticks": 133758,
          "time": 174.1640625,
          "velocity": 0.29133858267716534
        },
        {
          "duration": 0,
          "durationTicks": 0,
          "midi": 69,
          "name": "A4",
          "ticks": 133767,
          "time": 174.17578125,
          "velocity": 0.1732283464566929
        },
        {
          "duration": 0,
          "durationTicks": 0,
          "midi": 57,
          "name": "A3",
          "ticks": 133767,
          "time": 174.17578125,
          "velocity": 0.13385826771653545
        },
        {
          "duration": 0.12890625,
          "durationTicks": 99,
          "midi": 65,
          "name": "F4",
          "ticks": 133767,
          "time": 174.17578125,
          "velocity": 0.1968503937007874
        },
        {
          "duration": 0,
          "durationTicks": 0,
          "midi": 60,
          "name": "C4",
          "ticks": 133777,
          "time": 174.18880208333334,
          "velocity": 0.15748031496062992
        },
        {
          "duration": 0.12890625,
          "durationTicks": 99,
          "midi": 77,
          "name": "F5",
          "ticks": 133786,
          "time": 174.20052083333334,
          "velocity": 0.28346456692913385
        },
        {
          "duration": 0.07291666666665719,
          "durationTicks": 56,
          "midi": 84,
          "name": "C6",
          "ticks": 133786,
          "time": 174.20052083333334,
          "velocity": 0.14960629921259844
        },
        {
          "duration": 0,
          "durationTicks": 0,
          "midi": 36,
          "name": "C2",
          "ticks": 133795,
          "time": 174.21223958333334,
          "velocity": 0.4094488188976378
        },
        {
          "duration": 0.12890625,
          "durationTicks": 99,
          "midi": 68,
          "name": "G#4",
          "ticks": 133795,
          "time": 174.21223958333334,
          "velocity": 0.2125984251968504
        },
        {
          "duration": 0.009114583333314386,
          "durationTicks": 7,
          "midi": 56,
          "name": "G#3",
          "ticks": 133804,
          "time": 174.22395833333334,
          "velocity": 0.14173228346456693
        },
        {
          "duration": 0.12760416666668561,
          "durationTicks": 98,
          "midi": 60,
          "name": "C4",
          "ticks": 133823,
          "time": 174.24869791666666,
          "velocity": 0.25984251968503935
        },
        {
          "duration": 0,
          "durationTicks": 0,
          "midi": 37,
          "name": "C#2",
          "ticks": 133832,
          "time": 174.26041666666666,
          "velocity": 0.3937007874015748
        },
        {
          "duration": 0.05598958333334281,
          "durationTicks": 43,
          "midi": 84,
          "name": "C6",
          "ticks": 133842,
          "time": 174.2734375,
          "velocity": 0.05511811023622047
        },
        {
          "duration": 0,
          "durationTicks": 0,
          "midi": 38,
          "name": "D2",
          "ticks": 133851,
          "time": 174.28515625,
          "velocity": 0.3779527559055118
        },
        {
          "duration": 0.1263020833333428,
          "durationTicks": 97,
          "midi": 37,
          "name": "C#2",
          "ticks": 133869,
          "time": 174.30859375,
          "velocity": 0.3779527559055118
        },
        {
          "duration": 0.1263020833333428,
          "durationTicks": 97,
          "midi": 56,
          "name": "G#3",
          "ticks": 133878,
          "time": 174.3203125,
          "velocity": 0.09448818897637795
        },
        {
          "duration": 0.1263020833333428,
          "durationTicks": 97,
          "midi": 80,
          "name": "G#5",
          "ticks": 133878,
          "time": 174.3203125,
          "velocity": 0.33858267716535434
        },
        {
          "duration": 0.1263020833333428,
          "durationTicks": 97,
          "midi": 87,
          "name": "D#6",
          "ticks": 133887,
          "time": 174.33203125,
          "velocity": 0.11023622047244094
        },
        {
          "duration": 0.1263020833333428,
          "durationTicks": 97,
          "midi": 75,
          "name": "D#5",
          "ticks": 133887,
          "time": 174.33203125,
          "velocity": 0.13385826771653545
        },
        {
          "duration": 0.1263020833333428,
          "durationTicks": 97,
          "midi": 63,
          "name": "D#4",
          "ticks": 133914,
          "time": 174.3671875,
          "velocity": 0.2204724409448819
        },
        {
          "duration": 0.1276041666666572,
          "durationTicks": 98,
          "midi": 72,
          "name": "C5",
          "ticks": 133959,
          "time": 174.42578125,
          "velocity": 0.2283464566929134
        },
        {
          "duration": 0,
          "durationTicks": 0,
          "midi": 58,
          "name": "A#3",
          "ticks": 133968,
          "time": 174.4375,
          "velocity": 0.1968503937007874
        },
        {
          "duration": 0,
          "durationTicks": 0,
          "midi": 67,
          "name": "G4",
          "ticks": 133977,
          "time": 174.44921875,
          "velocity": 0.2125984251968504
        },
        {
          "duration": 0.1276041666666572,
          "durationTicks": 98,
          "midi": 77,
          "name": "F5",
          "ticks": 133977,
          "time": 174.44921875,
          "velocity": 0.15748031496062992
        },
        {
          "duration": 0.1276041666666572,
          "durationTicks": 98,
          "midi": 79,
          "name": "G5",
          "ticks": 133977,
          "time": 174.44921875,
          "velocity": 0.23622047244094488
        },
        {
          "duration": 0.1276041666666572,
          "durationTicks": 98,
          "midi": 82,
          "name": "A#5",
          "ticks": 133977,
          "time": 174.44921875,
          "velocity": 0.3700787401574803
        },
        {
          "duration": 0.2565104166666572,
          "durationTicks": 197,
          "midi": 63,
          "name": "D#4",
          "ticks": 133977,
          "time": 174.44921875,
          "velocity": 0.1732283464566929
        },
        {
          "duration": 0,
          "durationTicks": 0,
          "midi": 32,
          "name": "G#1",
          "ticks": 133987,
          "time": 174.46223958333334,
          "velocity": 0.3779527559055118
        },
        {
          "duration": 0,
          "durationTicks": 0,
          "midi": 60,
          "name": "C4",
          "ticks": 133987,
          "time": 174.46223958333334,
          "velocity": 0.23622047244094488
        },
        {
          "duration": 0,
          "durationTicks": 0,
          "midi": 33,
          "name": "A1",
          "ticks": 134004,
          "time": 174.484375,
          "velocity": 0.33858267716535434
        },
        {
          "duration": 0,
          "durationTicks": 0,
          "midi": 60,
          "name": "C4",
          "ticks": 134013,
          "time": 174.49609375,
          "velocity": 0.2283464566929134
        },
        {
          "duration": 0,
          "durationTicks": 0,
          "midi": 70,
          "name": "A#4",
          "ticks": 134013,
          "time": 174.49609375,
          "velocity": 0.2047244094488189
        },
        {
          "duration": 0,
          "durationTicks": 0,
          "midi": 68,
          "name": "G#4",
          "ticks": 134013,
          "time": 174.49609375,
          "velocity": 0.2677165354330709
        },
        {
          "duration": 0.12890625,
          "durationTicks": 99,
          "midi": 72,
          "name": "C5",
          "ticks": 134031,
          "time": 174.51953125,
          "velocity": 0.23622047244094488
        },
        {
          "duration": 0,
          "durationTicks": 0,
          "midi": 51,
          "name": "D#3",
          "ticks": 134040,
          "time": 174.53125,
          "velocity": 0.08661417322834646
        },
        {
          "duration": 0,
          "durationTicks": 0,
          "midi": 89,
          "name": "F6",
          "ticks": 134040,
          "time": 174.53125,
          "velocity": 0.10236220472440945
        },
        {
          "duration": 0.12890625,
          "durationTicks": 99,
          "midi": 32,
          "name": "G#1",
          "ticks": 134040,
          "time": 174.53125,
          "velocity": 0.3700787401574803
        },
        {
          "duration": 0.12890625,
          "durationTicks": 99,
          "midi": 75,
          "name": "D#5",
          "ticks": 134050,
          "time": 174.54427083333334,
          "velocity": 0.23622047244094488
        },
        {
          "duration": 0.12890625,
          "durationTicks": 99,
          "midi": 67,
          "name": "G4",
          "ticks": 134059,
          "time": 174.55598958333334,
          "velocity": 0.1732283464566929
        },
        {
          "duration": 0,
          "durationTicks": 0,
          "midi": 60,
          "name": "C4",
          "ticks": 134068,
          "time": 174.56770833333334,
          "velocity": 0.2283464566929134
        },
        {
          "duration": 0,
          "durationTicks": 0,
          "midi": 70,
          "name": "A#4",
          "ticks": 134068,
          "time": 174.56770833333334,
          "velocity": 0.05511811023622047
        },
        {
          "duration": 0.12890625,
          "durationTicks": 99,
          "midi": 80,
          "name": "G#5",
          "ticks": 134078,
          "time": 174.58072916666666,
          "velocity": 0.33858267716535434
        },
        {
          "duration": 0,
          "durationTicks": 0,
          "midi": 51,
          "name": "D#3",
          "ticks": 134087,
          "time": 174.59244791666666,
          "velocity": 0.08661417322834646
        },
        {
          "duration": 0.12890625,
          "durationTicks": 99,
          "midi": 87,
          "name": "D#6",
          "ticks": 134087,
          "time": 174.59244791666666,
          "velocity": 0.10236220472440945
        },
        {
          "duration": 0,
          "durationTicks": 0,
          "midi": 60,
          "name": "C4",
          "ticks": 134096,
          "time": 174.60416666666666,
          "velocity": 0.2125984251968504
        },
        {
          "duration": 0,
          "durationTicks": 0,
          "midi": 51,
          "name": "D#3",
          "ticks": 134123,
          "time": 174.63932291666666,
          "velocity": 0.06299212598425197
        },
        {
          "duration": 0,
          "durationTicks": 0,
          "midi": 58,
          "name": "A#3",
          "ticks": 134151,
          "time": 174.67578125,
          "velocity": 0.2204724409448819
        },
        {
          "duration": 0,
          "durationTicks": 0,
          "midi": 44,
          "name": "G#2",
          "ticks": 134160,
          "time": 174.6875,
          "velocity": 0.4094488188976378
        },
        {
          "duration": 0,
          "durationTicks": 0,
          "midi": 79,
          "name": "G5",
          "ticks": 134160,
          "time": 174.6875,
          "velocity": 0.1968503937007874
        },
        {
          "duration": 0.1276041666666572,
          "durationTicks": 98,
          "midi": 80,
          "name": "G#5",
          "ticks": 134170,
          "time": 174.70052083333334,
          "velocity": 0.25196850393700787
        },
        {
          "duration": 0.1276041666666572,
          "durationTicks": 98,
          "midi": 82,
          "name": "A#5",
          "ticks": 134170,
          "time": 174.70052083333334,
          "velocity": 0.2283464566929134
        },
        {
          "duration": 0,
          "durationTicks": 0,
          "midi": 31,
          "name": "G1",
          "ticks": 134179,
          "time": 174.71223958333334,
          "velocity": 0.29133858267716534
        },
        {
          "duration": 0.25390625,
          "durationTicks": 195,
          "midi": 44,
          "name": "G#2",
          "ticks": 134188,
          "time": 174.72395833333334,
          "velocity": 0.3858267716535433
        },
        {
          "duration": 0.12630208333331439,
          "durationTicks": 97,
          "midi": 75,
          "name": "D#5",
          "ticks": 134197,
          "time": 174.73567708333334,
          "velocity": 0.2125984251968504
        },
        {
          "duration": 0.08203125,
          "durationTicks": 63,
          "midi": 63,
          "name": "D#4",
          "ticks": 134207,
          "time": 174.74869791666666,
          "velocity": 0.14173228346456693
        },
        {
          "duration": 0,
          "durationTicks": 0,
          "midi": 29,
          "name": "F1",
          "ticks": 134224,
          "time": 174.77083333333334,
          "velocity": 0.1732283464566929
        },
        {
          "duration": 0,
          "durationTicks": 0,
          "midi": 79,
          "name": "G5",
          "ticks": 134224,
          "time": 174.77083333333334,
          "velocity": 0.18110236220472442
        },
        {
          "duration": 0,
          "durationTicks": 0,
          "midi": 89,
          "name": "F6",
          "ticks": 134251,
          "time": 174.80598958333334,
          "velocity": 0.06299212598425197
        },
        {
          "duration": 0.12630208333331439,
          "durationTicks": 97,
          "midi": 84,
          "name": "C6",
          "ticks": 134251,
          "time": 174.80598958333334,
          "velocity": 0.2125984251968504
        },
        {
          "duration": 0.12630208333331439,
          "durationTicks": 97,
          "midi": 77,
          "name": "F5",
          "ticks": 134251,
          "time": 174.80598958333334,
          "velocity": 0.2125984251968504
        },
        {
          "duration": 0.1263020833333428,
          "durationTicks": 97,
          "midi": 80,
          "name": "G#5",
          "ticks": 134261,
          "time": 174.81901041666666,
          "velocity": 0.25984251968503935
        },
        {
          "duration": 0.04427083333334281,
          "durationTicks": 34,
          "midi": 63,
          "name": "D#4",
          "ticks": 134270,
          "time": 174.83072916666666,
          "velocity": 0.14173228346456693
        },
        {
          "duration": 0.12760416666668561,
          "durationTicks": 98,
          "midi": 87,
          "name": "D#6",
          "ticks": 134297,
          "time": 174.86588541666666,
          "velocity": 0.09448818897637795
        },
        {
          "duration": 0.13020833333331439,
          "durationTicks": 100,
          "midi": 87,
          "name": "D#6",
          "ticks": 134341,
          "time": 174.92317708333334,
          "velocity": 0.2047244094488189
        },
        {
          "duration": 0,
          "durationTicks": 0,
          "midi": 57,
          "name": "A3",
          "ticks": 134351,
          "time": 174.93619791666666,
          "velocity": 0.30708661417322836
        },
        {
          "duration": 0,
          "durationTicks": 0,
          "midi": 63,
          "name": "D#4",
          "ticks": 134351,
          "time": 174.93619791666666,
          "velocity": 0.14173228346456693
        },
        {
          "duration": 0,
          "durationTicks": 0,
          "midi": 68,
          "name": "G#4",
          "ticks": 134351,
          "time": 174.93619791666666,
          "velocity": 0.2125984251968504
        },
        {
          "duration": 0,
          "durationTicks": 0,
          "midi": 74,
          "name": "D5",
          "ticks": 134351,
          "time": 174.93619791666666,
          "velocity": 0.07874015748031496
        },
        {
          "duration": 0,
          "durationTicks": 0,
          "midi": 86,
          "name": "D6",
          "ticks": 134351,
          "time": 174.93619791666666,
          "velocity": 0.11023622047244094
        },
        {
          "duration": 0.1302083333333428,
          "durationTicks": 100,
          "midi": 82,
          "name": "A#5",
          "ticks": 134351,
          "time": 174.93619791666666,
          "velocity": 0.10236220472440945
        },
        {
          "duration": 0,
          "durationTicks": 0,
          "midi": 34,
          "name": "A#1",
          "ticks": 134360,
          "time": 174.94791666666666,
          "velocity": 0.41732283464566927
        },
        {
          "duration": 0.2591145833333428,
          "durationTicks": 199,
          "midi": 79,
          "name": "G5",
          "ticks": 134360,
          "time": 174.94791666666666,
          "velocity": 0.2204724409448819
        },
        {
          "duration": 0,
          "durationTicks": 0,
          "midi": 56,
          "name": "G#3",
          "ticks": 134369,
          "time": 174.95963541666666,
          "velocity": 0.25984251968503935
        },
        {
          "duration": 0,
          "durationTicks": 0,
          "midi": 76,
          "name": "E5",
          "ticks": 134369,
          "time": 174.95963541666666,
          "velocity": 0.14173228346456693
        },
        {
          "duration": 0.1302083333333428,
          "durationTicks": 100,
          "midi": 60,
          "name": "C4",
          "ticks": 134369,
          "time": 174.95963541666666,
          "velocity": 0.23622047244094488
        },
        {
          "duration": 0,
          "durationTicks": 0,
          "midi": 32,
          "name": "G#1",
          "ticks": 134379,
          "time": 174.97265625,
          "velocity": 0.36220472440944884
        },
        {
          "duration": 0.2578125,
          "durationTicks": 198,
          "midi": 67,
          "name": "G4",
          "ticks": 134379,
          "time": 174.97265625,
          "velocity": 0.1889763779527559
        },
        {
          "duration": 0.1302083333333428,
          "durationTicks": 100,
          "midi": 84,
          "name": "C6",
          "ticks": 134388,
          "time": 174.984375,
          "velocity": 0.25196850393700787
        },
        {
          "duration": 0.1302083333333428,
          "durationTicks": 100,
          "midi": 63,
          "name": "D#4",
          "ticks": 134388,
          "time": 174.984375,
          "velocity": 0.1889763779527559
        },
        {
          "duration": 0,
          "durationTicks": 0,
          "midi": 33,
          "name": "A1",
          "ticks": 134397,
          "time": 174.99609375,
          "velocity": 0.3779527559055118
        },
        {
          "duration": 0,
          "durationTicks": 0,
          "midi": 51,
          "name": "D#3",
          "ticks": 134397,
          "time": 174.99609375,
          "velocity": 0.06299212598425197
        },
        {
          "duration": 0.12890625,
          "durationTicks": 99,
          "midi": 70,
          "name": "A#4",
          "ticks": 134406,
          "time": 175.0078125,
          "velocity": 0.1968503937007874
        },
        {
          "duration": 0.12890625,
          "durationTicks": 99,
          "midi": 32,
          "name": "G#1",
          "ticks": 134416,
          "time": 175.02083333333334,
          "velocity": 0.3700787401574803
        },
        {
          "duration": 0.12890625,
          "durationTicks": 99,
          "midi": 75,
          "name": "D#5",
          "ticks": 134425,
          "time": 175.03255208333334,
          "velocity": 0.2677165354330709
        },
        {
          "duration": 0.09635416666665719,
          "durationTicks": 74,
          "midi": 51,
          "name": "D#3",
          "ticks": 134434,
          "time": 175.04427083333334,
          "velocity": 0.10236220472440945
        },
        {
          "duration": 0.12890625,
          "durationTicks": 99,
          "midi": 92,
          "name": "G#6",
          "ticks": 134444,
          "time": 175.05729166666666,
          "velocity": 0.2283464566929134
        },
        {
          "duration": 0,
          "durationTicks": 0,
          "midi": 58,
          "name": "A#3",
          "ticks": 134462,
          "time": 175.08072916666666,
          "velocity": 0.1968503937007874
        },
        {
          "duration": 0,
          "durationTicks": 0,
          "midi": 77,
          "name": "F5",
          "ticks": 134472,
          "time": 175.09375,
          "velocity": 0.1732283464566929
        },
        {
          "duration": 0.1276041666666572,
          "durationTicks": 98,
          "midi": 94,
          "name": "A#6",
          "ticks": 134481,
          "time": 175.10546875,
          "velocity": 0.13385826771653545
        },
        {
          "duration": 0.03255208333334281,
          "durationTicks": 25,
          "midi": 51,
          "name": "D#3",
          "ticks": 134508,
          "time": 175.140625,
          "velocity": 0.05511811023622047
        },
        {
          "duration": 0,
          "durationTicks": 0,
          "midi": 89,
          "name": "F6",
          "ticks": 134508,
          "time": 175.140625,
          "velocity": 0.18110236220472442
        },
        {
          "duration": 0,
          "durationTicks": 0,
          "midi": 60,
          "name": "C4",
          "ticks": 134508,
          "time": 175.140625,
          "velocity": 0.2204724409448819
        },
        {
          "duration": 0,
          "durationTicks": 0,
          "midi": 77,
          "name": "F5",
          "ticks": 134526,
          "time": 175.1640625,
          "velocity": 0.2204724409448819
        },
        {
          "duration": 0,
          "durationTicks": 0,
          "midi": 70,
          "name": "A#4",
          "ticks": 134536,
          "time": 175.17708333333334,
          "velocity": 0.14173228346456693
        },
        {
          "duration": 0.1276041666666572,
          "durationTicks": 98,
          "midi": 84,
          "name": "C6",
          "ticks": 134536,
          "time": 175.17708333333334,
          "velocity": 0.1968503937007874
        },
        {
          "duration": 0.1276041666666572,
          "durationTicks": 98,
          "midi": 80,
          "name": "G#5",
          "ticks": 134545,
          "time": 175.18880208333334,
          "velocity": 0.1889763779527559
        },
        {
          "duration": 0,
          "durationTicks": 0,
          "midi": 57,
          "name": "A3",
          "ticks": 134554,
          "time": 175.20052083333334,
          "velocity": 0.2992125984251969
        },
        {
          "duration": 0.1276041666666572,
          "durationTicks": 98,
          "midi": 92,
          "name": "G#6",
          "ticks": 134554,
          "time": 175.20052083333334,
          "velocity": 0.2125984251968504
        },
        {
          "duration": 0,
          "durationTicks": 0,
          "midi": 30,
          "name": "F#1",
          "ticks": 134572,
          "time": 175.22395833333334,
          "velocity": 0.3779527559055118
        },
        {
          "duration": 0,
          "durationTicks": 0,
          "midi": 56,
          "name": "G#3",
          "ticks": 134572,
          "time": 175.22395833333334,
          "velocity": 0.1968503937007874
        },
        {
          "duration": 0,
          "durationTicks": 0,
          "midi": 60,
          "name": "C4",
          "ticks": 134572,
          "time": 175.22395833333334,
          "velocity": 0.1732283464566929
        },
        {
          "duration": 0,
          "durationTicks": 0,
          "midi": 91,
          "name": "G6",
          "ticks": 134572,
          "time": 175.22395833333334,
          "velocity": 0.11023622047244094
        },
        {
          "duration": 0,
          "durationTicks": 0,
          "midi": 72,
          "name": "C5",
          "ticks": 134581,
          "time": 175.23567708333334,
          "velocity": 0.25984251968503935
        },
        {
          "duration": 0,
          "durationTicks": 0,
          "midi": 29,
          "name": "F1",
          "ticks": 134590,
          "time": 175.24739583333334,
          "velocity": 0.3779527559055118
        },
        {
          "duration": 0,
          "durationTicks": 0,
          "midi": 48,
          "name": "C3",
          "ticks": 134590,
          "time": 175.24739583333334,
          "velocity": 0.08661417322834646
        },
        {
          "duration": 0,
          "durationTicks": 0,
          "midi": 28,
          "name": "E1",
          "ticks": 134608,
          "time": 175.27083333333334,
          "velocity": 0.3779527559055118
        },
        {
          "duration": 0,
          "durationTicks": 0,
          "midi": 70,
          "name": "A#4",
          "ticks": 134617,
          "time": 175.28255208333334,
          "velocity": 0.2677165354330709
        },
        {
          "duration": 0,
          "durationTicks": 0,
          "midi": 46,
          "name": "A#2",
          "ticks": 134617,
          "time": 175.28255208333334,
          "velocity": 0.10236220472440945
        },
        {
          "duration": 0,
          "durationTicks": 0,
          "midi": 81,
          "name": "A5",
          "ticks": 134627,
          "time": 175.29557291666666,
          "velocity": 0.08661417322834646
        },
        {
          "duration": 0,
          "durationTicks": 0,
          "midi": 88,
          "name": "E6",
          "ticks": 134627,
          "time": 175.29557291666666,
          "velocity": 0.13385826771653545
        },
        {
          "duration": 0,
          "durationTicks": 0,
          "midi": 56,
          "name": "G#3",
          "ticks": 134627,
          "time": 175.29557291666666,
          "velocity": 0.29133858267716534
        },
        {
          "duration": 0,
          "durationTicks": 0,
          "midi": 69,
          "name": "A4",
          "ticks": 134636,
          "time": 175.30729166666666,
          "velocity": 0.2283464566929134
        },
        {
          "duration": 0,
          "durationTicks": 0,
          "midi": 26,
          "name": "D1",
          "ticks": 134636,
          "time": 175.30729166666666,
          "velocity": 0.3779527559055118
        },
        {
          "duration": 0,
          "durationTicks": 0,
          "midi": 72,
          "name": "C5",
          "ticks": 134636,
          "time": 175.30729166666666,
          "velocity": 0.14173228346456693
        },
        {
          "duration": 0,
          "durationTicks": 0,
          "midi": 62,
          "name": "D4",
          "ticks": 134636,
          "time": 175.30729166666666,
          "velocity": 0.11811023622047244
        },
        {
          "duration": 0.1263020833333428,
          "durationTicks": 97,
          "midi": 85,
          "name": "C#6",
          "ticks": 134636,
          "time": 175.30729166666666,
          "velocity": 0.1968503937007874
        },
        {
          "duration": 0,
          "durationTicks": 0,
          "midi": 66,
          "name": "F#4",
          "ticks": 134645,
          "time": 175.31901041666666,
          "velocity": 0.08661417322834646
        },
        {
          "duration": 0.1263020833333428,
          "durationTicks": 97,
          "midi": 87,
          "name": "D#6",
          "ticks": 134645,
          "time": 175.31901041666666,
          "velocity": 0.1889763779527559
        },
        {
          "duration": 0,
          "durationTicks": 0,
          "midi": 24,
          "name": "C1",
          "ticks": 134672,
          "time": 175.35416666666666,
          "velocity": 0.36220472440944884
        },
        {
          "duration": 0.1263020833333428,
          "durationTicks": 97,
          "midi": 89,
          "name": "F6",
          "ticks": 134681,
          "time": 175.36588541666666,
          "velocity": 0.2125984251968504
        },
        {
          "duration": 0.1263020833333428,
          "durationTicks": 97,
          "midi": 84,
          "name": "C6",
          "ticks": 134681,
          "time": 175.36588541666666,
          "velocity": 0.2204724409448819
        },
        {
          "duration": 0,
          "durationTicks": 0,
          "midi": 34,
          "name": "A#1",
          "ticks": 134691,
          "time": 175.37890625,
          "velocity": 0.3700787401574803
        },
        {
          "duration": 0.25390625,
          "durationTicks": 195,
          "midi": 75,
          "name": "D#5",
          "ticks": 134691,
          "time": 175.37890625,
          "velocity": 0.25196850393700787
        },
        {
          "duration": 0,
          "durationTicks": 0,
          "midi": 32,
          "name": "G#1",
          "ticks": 134718,
          "time": 175.4140625,
          "velocity": 0.3700787401574803
        },
        {
          "duration": 0,
          "durationTicks": 0,
          "midi": 57,
          "name": "A3",
          "ticks": 134718,
          "time": 175.4140625,
          "velocity": 0.2204724409448819
        },
        {
          "duration": 0.1263020833333428,
          "durationTicks": 97,
          "midi": 92,
          "name": "G#6",
          "ticks": 134735,
          "time": 175.43619791666666,
          "velocity": 0.13385826771653545
        },
        {
          "duration": 0.25390625,
          "durationTicks": 195,
          "midi": 61,
          "name": "C#4",
          "ticks": 134735,
          "time": 175.43619791666666,
          "velocity": 0.2283464566929134
        },
        {
          "duration": 0,
          "durationTicks": 0,
          "midi": 65,
          "name": "F4",
          "ticks": 134745,
          "time": 175.44921875,
          "velocity": 0.1968503937007874
        },
        {
          "duration": 0,
          "durationTicks": 0,
          "midi": 66,
          "name": "F#4",
          "ticks": 134762,
          "time": 175.47135416666666,
          "velocity": 0.23622047244094488
        },
        {
          "duration": 0,
          "durationTicks": 0,
          "midi": 35,
          "name": "B1",
          "ticks": 134772,
          "time": 175.484375,
          "velocity": 0.33858267716535434
        },
        {
          "duration": 0,
          "durationTicks": 0,
          "midi": 57,
          "name": "A3",
          "ticks": 134781,
          "time": 175.49609375,
          "velocity": 0.2755905511811024
        },
        {
          "duration": 0,
          "durationTicks": 0,
          "midi": 72,
          "name": "C5",
          "ticks": 134781,
          "time": 175.49609375,
          "velocity": 0.13385826771653545
        },
        {
          "duration": 0.25390625,
          "durationTicks": 195,
          "midi": 65,
          "name": "F4",
          "ticks": 134781,
          "time": 175.49609375,
          "velocity": 0.2204724409448819
        },
        {
          "duration": 0,
          "durationTicks": 0,
          "midi": 89,
          "name": "F6",
          "ticks": 134798,
          "time": 175.51822916666666,
          "velocity": 0.11811023622047244
        },
        {
          "duration": 0,
          "durationTicks": 0,
          "midi": 56,
          "name": "G#3",
          "ticks": 134808,
          "time": 175.53125,
          "velocity": 0.25196850393700787
        },
        {
          "duration": 0,
          "durationTicks": 0,
          "midi": 94,
          "name": "A#6",
          "ticks": 134825,
          "time": 175.55338541666666,
          "velocity": 0.06299212598425197
        },
        {
          "duration": 0.12760416666668561,
          "durationTicks": 98,
          "midi": 84,
          "name": "C6",
          "ticks": 134825,
          "time": 175.55338541666666,
          "velocity": 0.11023622047244094
        },
        {
          "duration": 0,
          "durationTicks": 0,
          "midi": 35,
          "name": "B1",
          "ticks": 134835,
          "time": 175.56640625,
          "velocity": 0.36220472440944884
        },
        {
          "duration": 0,
          "durationTicks": 0,
          "midi": 91,
          "name": "G6",
          "ticks": 134835,
          "time": 175.56640625,
          "velocity": 0.11023622047244094
        },
        {
          "duration": 0.1276041666666572,
          "durationTicks": 98,
          "midi": 72,
          "name": "C5",
          "ticks": 134835,
          "time": 175.56640625,
          "velocity": 0.31496062992125984
        },
        {
          "duration": 0,
          "durationTicks": 0,
          "midi": 92,
          "name": "G#6",
          "ticks": 134844,
          "time": 175.578125,
          "velocity": 0.11023622047244094
        },
        {
          "duration": 0,
          "durationTicks": 0,
          "midi": 34,
          "name": "A#1",
          "ticks": 134853,
          "time": 175.58984375,
          "velocity": 0.3543307086614173
        },
        {
          "duration": 0,
          "durationTicks": 0,
          "midi": 80,
          "name": "G#5",
          "ticks": 134863,
          "time": 175.60286458333334,
          "velocity": 0.14960629921259844
        },
        {
          "duration": 0,
          "durationTicks": 0,
          "midi": 35,
          "name": "B1",
          "ticks": 134872,
          "time": 175.61458333333334,
          "velocity": 0.33070866141732286
        },
        {
          "duration": 0,
          "durationTicks": 0,
          "midi": 57,
          "name": "A3",
          "ticks": 134881,
          "time": 175.62630208333334,
          "velocity": 0.25984251968503935
        },
        {
          "duration": 0.1276041666666572,
          "durationTicks": 98,
          "midi": 61,
          "name": "C#4",
          "ticks": 134899,
          "time": 175.64973958333334,
          "velocity": 0.2204724409448819
        },
        {
          "duration": 0,
          "durationTicks": 0,
          "midi": 69,
          "name": "A4",
          "ticks": 134916,
          "time": 175.671875,
          "velocity": 0.25984251968503935
        },
        {
          "duration": 0.12890625,
          "durationTicks": 99,
          "midi": 75,
          "name": "D#5",
          "ticks": 134916,
          "time": 175.671875,
          "velocity": 0.31496062992125984
        },
        {
          "duration": 0,
          "durationTicks": 0,
          "midi": 94,
          "name": "A#6",
          "ticks": 134935,
          "time": 175.69661458333334,
          "velocity": 0.07874015748031496
        },
        {
          "duration": 0,
          "durationTicks": 0,
          "midi": 46,
          "name": "A#2",
          "ticks": 134935,
          "time": 175.69661458333334,
          "velocity": 0.33858267716535434
        },
        {
          "duration": 0,
          "durationTicks": 0,
          "midi": 59,
          "name": "B3",
          "ticks": 134962,
          "time": 175.73177083333334,
          "velocity": 0.2204724409448819
        },
        {
          "duration": 0,
          "durationTicks": 0,
          "midi": 66,
          "name": "F#4",
          "ticks": 134971,
          "time": 175.74348958333334,
          "velocity": 0.2204724409448819
        },
        {
          "duration": 0.12890625,
          "durationTicks": 99,
          "midi": 89,
          "name": "F6",
          "ticks": 134971,
          "time": 175.74348958333334,
          "velocity": 0.14173228346456693
        },
        {
          "duration": 0.12890625,
          "durationTicks": 99,
          "midi": 84,
          "name": "C6",
          "ticks": 134980,
          "time": 175.75520833333334,
          "velocity": 0.13385826771653545
        },
        {
          "duration": 0,
          "durationTicks": 0,
          "midi": 77,
          "name": "F5",
          "ticks": 134990,
          "time": 175.76822916666666,
          "velocity": 0.14173228346456693
        },
        {
          "duration": 0,
          "durationTicks": 0,
          "midi": 64,
          "name": "E4",
          "ticks": 134999,
          "time": 175.77994791666666,
          "velocity": 0.1968503937007874
        },
        {
          "duration": 0,
          "durationTicks": 0,
          "midi": 73,
          "name": "C#5",
          "ticks": 135008,
          "time": 175.79166666666666,
          "velocity": 0.14960629921259844
        },
        {
          "duration": 0,
          "durationTicks": 0,
          "midi": 55,
          "name": "G3",
          "ticks": 135018,
          "time": 175.8046875,
          "velocity": 0.1968503937007874
        },
        {
          "duration": 0,
          "durationTicks": 0,
          "midi": 35,
          "name": "B1",
          "ticks": 135018,
          "time": 175.8046875,
          "velocity": 0.3543307086614173
        },
        {
          "duration": 0.1302083333333428,
          "durationTicks": 100,
          "midi": 72,
          "name": "C5",
          "ticks": 135035,
          "time": 175.82682291666666,
          "velocity": 0.1968503937007874
        },
        {
          "duration": 0.1302083333333428,
          "durationTicks": 100,
          "midi": 65,
          "name": "F4",
          "ticks": 135035,
          "time": 175.82682291666666,
          "velocity": 0.2125984251968504
        },
        {
          "duration": 0,
          "durationTicks": 0,
          "midi": 34,
          "name": "A#1",
          "ticks": 135045,
          "time": 175.83984375,
          "velocity": 0.3543307086614173
        },
        {
          "duration": 0,
          "durationTicks": 0,
          "midi": 57,
          "name": "A3",
          "ticks": 135054,
          "time": 175.8515625,
          "velocity": 0.25984251968503935
        },
        {
          "duration": 0,
          "durationTicks": 0,
          "midi": 35,
          "name": "B1",
          "ticks": 135063,
          "time": 175.86328125,
          "velocity": 0.3464566929133858
        },
        {
          "duration": 0,
          "durationTicks": 0,
          "midi": 58,
          "name": "A#3",
          "ticks": 135091,
          "time": 175.89973958333334,
          "velocity": 0.29133858267716534
        },
        {
          "duration": 0,
          "durationTicks": 0,
          "midi": 61,
          "name": "C#4",
          "ticks": 135100,
          "time": 175.91145833333334,
          "velocity": 0.2283464566929134
        },
        {
          "duration": 0.23567708333331439,
          "durationTicks": 181,
          "midi": 77,
          "name": "F5",
          "ticks": 135100,
          "time": 175.91145833333334,
          "velocity": 0.31496062992125984
        },
        {
          "duration": 0,
          "durationTicks": 0,
          "midi": 57,
          "name": "A3",
          "ticks": 135110,
          "time": 175.92447916666666,
          "velocity": 0.2992125984251969
        },
        {
          "duration": 0.12760416666668561,
          "durationTicks": 98,
          "midi": 75,
          "name": "D#5",
          "ticks": 135110,
          "time": 175.92447916666666,
          "velocity": 0.1968503937007874
        },
        {
          "duration": 0.12760416666668561,
          "durationTicks": 98,
          "midi": 80,
          "name": "G#5",
          "ticks": 135119,
          "time": 175.93619791666666,
          "velocity": 0.14173228346456693
        },
        {
          "duration": 0.12760416666668561,
          "durationTicks": 98,
          "midi": 84,
          "name": "C6",
          "ticks": 135119,
          "time": 175.93619791666666,
          "velocity": 0.14173228346456693
        },
        {
          "duration": 0,
          "durationTicks": 0,
          "midi": 86,
          "name": "D6",
          "ticks": 135128,
          "time": 175.94791666666666,
          "velocity": 0.08661417322834646
        },
        {
          "duration": 0.12760416666668561,
          "durationTicks": 98,
          "midi": 44,
          "name": "G#2",
          "ticks": 135128,
          "time": 175.94791666666666,
          "velocity": 0.3779527559055118
        },
        {
          "duration": 0,
          "durationTicks": 0,
          "midi": 73,
          "name": "C#5",
          "ticks": 135147,
          "time": 175.97265625,
          "velocity": 0.1732283464566929
        },
        {
          "duration": 0,
          "durationTicks": 0,
          "midi": 57,
          "name": "A3",
          "ticks": 135201,
          "time": 176.04296875,
          "velocity": 0.08661417322834646
        },
        {
          "duration": 0,
          "durationTicks": 0,
          "midi": 65,
          "name": "F4",
          "ticks": 135219,
          "time": 176.06640625,
          "velocity": 0.11023622047244094
        },
        {
          "duration": 0,
          "durationTicks": 0,
          "midi": 46,
          "name": "A#2",
          "ticks": 135229,
          "time": 176.07942708333334,
          "velocity": 0.33858267716535434
        },
        {
          "duration": 0,
          "durationTicks": 0,
          "midi": 73,
          "name": "C#5",
          "ticks": 135246,
          "time": 176.1015625,
          "velocity": 0.1732283464566929
        },
        {
          "duration": 0,
          "durationTicks": 0,
          "midi": 47,
          "name": "B2",
          "ticks": 135264,
          "time": 176.125,
          "velocity": 0.2677165354330709
        },
        {
          "duration": 0.016927083333342807,
          "durationTicks": 13,
          "midi": 77,
          "name": "F5",
          "ticks": 135281,
          "time": 176.14713541666666,
          "velocity": 0.13385826771653545
        },
        {
          "duration": 0,
          "durationTicks": 0,
          "midi": 55,
          "name": "G3",
          "ticks": 135307,
          "time": 176.18098958333334,
          "velocity": 0.1889763779527559
        },
        {
          "duration": 0,
          "durationTicks": 0,
          "midi": 66,
          "name": "F#4",
          "ticks": 135307,
          "time": 176.18098958333334,
          "velocity": 0.1732283464566929
        },
        {
          "duration": 0,
          "durationTicks": 0,
          "midi": 35,
          "name": "B1",
          "ticks": 135307,
          "time": 176.18098958333334,
          "velocity": 0.3543307086614173
        },
        {
          "duration": 0.1276041666666572,
          "durationTicks": 98,
          "midi": 80,
          "name": "G#5",
          "ticks": 135307,
          "time": 176.18098958333334,
          "velocity": 0.33070866141732286
        },
        {
          "duration": 0,
          "durationTicks": 0,
          "midi": 87,
          "name": "D#6",
          "ticks": 135317,
          "time": 176.19401041666666,
          "velocity": 0.08661417322834646
        },
        {
          "duration": 0.12760416666668561,
          "durationTicks": 98,
          "midi": 77,
          "name": "F5",
          "ticks": 135317,
          "time": 176.19401041666666,
          "velocity": 0.18110236220472442
        },
        {
          "duration": 0.12760416666668561,
          "durationTicks": 98,
          "midi": 61,
          "name": "C#4",
          "ticks": 135326,
          "time": 176.20572916666666,
          "velocity": 0.2283464566929134
        },
        {
          "duration": 0.12760416666668561,
          "durationTicks": 98,
          "midi": 65,
          "name": "F4",
          "ticks": 135326,
          "time": 176.20572916666666,
          "velocity": 0.2283464566929134
        },
        {
          "duration": 0,
          "durationTicks": 0,
          "midi": 57,
          "name": "A3",
          "ticks": 135335,
          "time": 176.21744791666666,
          "velocity": 0.2677165354330709
        },
        {
          "duration": 0.12760416666668561,
          "durationTicks": 98,
          "midi": 34,
          "name": "A#1",
          "ticks": 135335,
          "time": 176.21744791666666,
          "velocity": 0.3543307086614173
        },
        {
          "duration": 0,
          "durationTicks": 0,
          "midi": 57,
          "name": "A3",
          "ticks": 135371,
          "time": 176.26432291666666,
          "velocity": 0.2677165354330709
        },
        {
          "duration": 0,
          "durationTicks": 0,
          "midi": 84,
          "name": "C6",
          "ticks": 135381,
          "time": 176.27734375,
          "velocity": 0.05511811023622047
        },
        {
          "duration": 0.12760416666668561,
          "durationTicks": 98,
          "midi": 82,
          "name": "A#5",
          "ticks": 135398,
          "time": 176.29947916666666,
          "velocity": 0.3228346456692913
        },
        {
          "duration": 0,
          "durationTicks": 0,
          "midi": 89,
          "name": "F6",
          "ticks": 135408,
          "time": 176.3125,
          "velocity": 0.10236220472440945
        },
        {
          "duration": 0,
          "durationTicks": 0,
          "midi": 60,
          "name": "C4",
          "ticks": 135445,
          "time": 176.36067708333334,
          "velocity": 0.12598425196850394
        },
        {
          "duration": 0.12630208333331439,
          "durationTicks": 97,
          "midi": 80,
          "name": "G#5",
          "ticks": 135499,
          "time": 176.43098958333334,
          "velocity": 0.1732283464566929
        },
        {
          "duration": 0.1276041666666572,
          "durationTicks": 98,
          "midi": 75,
          "name": "D#5",
          "ticks": 135516,
          "time": 176.453125,
          "velocity": 0.1732283464566929
        },
        {
          "duration": 0.1276041666666572,
          "durationTicks": 98,
          "midi": 67,
          "name": "G4",
          "ticks": 135516,
          "time": 176.453125,
          "velocity": 0.2047244094488189
        },
        {
          "duration": 0,
          "durationTicks": 0,
          "midi": 60,
          "name": "C4",
          "ticks": 135526,
          "time": 176.46614583333334,
          "velocity": 0.2677165354330709
        },
        {
          "duration": 0.1276041666666572,
          "durationTicks": 98,
          "midi": 63,
          "name": "D#4",
          "ticks": 135526,
          "time": 176.46614583333334,
          "velocity": 0.2204724409448819
        },
        {
          "duration": 0,
          "durationTicks": 0,
          "midi": 35,
          "name": "B1",
          "ticks": 135535,
          "time": 176.47786458333334,
          "velocity": 0.4015748031496063
        },
        {
          "duration": 0,
          "durationTicks": 0,
          "midi": 70,
          "name": "A#4",
          "ticks": 135544,
          "time": 176.48958333333334,
          "velocity": 0.16535433070866143
        },
        {
          "duration": 0,
          "durationTicks": 0,
          "midi": 37,
          "name": "C#2",
          "ticks": 135562,
          "time": 176.51302083333334,
          "velocity": 0.3700787401574803
        },
        {
          "duration": 0,
          "durationTicks": 0,
          "midi": 86,
          "name": "D6",
          "ticks": 135562,
          "time": 176.51302083333334,
          "velocity": 0.05511811023622047
        },
        {
          "duration": 0,
          "durationTicks": 0,
          "midi": 77,
          "name": "F5",
          "ticks": 135571,
          "time": 176.52473958333334,
          "velocity": 0.08661417322834646
        },
        {
          "duration": 0.2513020833333144,
          "durationTicks": 193,
          "midi": 79,
          "name": "G5",
          "ticks": 135571,
          "time": 176.52473958333334,
          "velocity": 0.3228346456692913
        },
        {
          "duration": 0,
          "durationTicks": 0,
          "midi": 36,
          "name": "C2",
          "ticks": 135580,
          "time": 176.53645833333334,
          "velocity": 0.3779527559055118
        },
        {
          "duration": 0,
          "durationTicks": 0,
          "midi": 86,
          "name": "D6",
          "ticks": 135598,
          "time": 176.55989583333334,
          "velocity": 0.11023622047244094
        },
        {
          "duration": 0.12630208333331439,
          "durationTicks": 97,
          "midi": 82,
          "name": "A#5",
          "ticks": 135607,
          "time": 176.57161458333334,
          "velocity": 0.1968503937007874
        },
        {
          "duration": 0,
          "durationTicks": 0,
          "midi": 55,
          "name": "G3",
          "ticks": 135697,
          "time": 176.68880208333334,
          "velocity": 0.08661417322834646
        },
        {
          "duration": 0.125,
          "durationTicks": 96,
          "midi": 36,
          "name": "C2",
          "ticks": 135697,
          "time": 176.68880208333334,
          "velocity": 0.36220472440944884
        },
        {
          "duration": 0.1263020833333428,
          "durationTicks": 97,
          "midi": 63,
          "name": "D#4",
          "ticks": 135777,
          "time": 176.79296875,
          "velocity": 0.2204724409448819
        },
        {
          "duration": 0,
          "durationTicks": 0,
          "midi": 57,
          "name": "A3",
          "ticks": 135786,
          "time": 176.8046875,
          "velocity": 0.2047244094488189
        },
        {
          "duration": 0.1263020833333428,
          "durationTicks": 97,
          "midi": 48,
          "name": "C3",
          "ticks": 135786,
          "time": 176.8046875,
          "velocity": 0.36220472440944884
        },
        {
          "duration": 0.1263020833333428,
          "durationTicks": 97,
          "midi": 75,
          "name": "D#5",
          "ticks": 135786,
          "time": 176.8046875,
          "velocity": 0.30708661417322836
        },
        {
          "duration": 0,
          "durationTicks": 0,
          "midi": 94,
          "name": "A#6",
          "ticks": 135796,
          "time": 176.81770833333334,
          "velocity": 0.11811023622047244
        },
        {
          "duration": 0.12630208333331439,
          "durationTicks": 97,
          "midi": 67,
          "name": "G4",
          "ticks": 135796,
          "time": 176.81770833333334,
          "velocity": 0.2283464566929134
        },
        {
          "duration": 0,
          "durationTicks": 0,
          "midi": 86,
          "name": "D6",
          "ticks": 135849,
          "time": 176.88671875,
          "velocity": 0.05511811023622047
        },
        {
          "duration": 0,
          "durationTicks": 0,
          "midi": 58,
          "name": "A#3",
          "ticks": 135859,
          "time": 176.89973958333334,
          "velocity": 0.2755905511811024
        },
        {
          "duration": 0,
          "durationTicks": 0,
          "midi": 77,
          "name": "F5",
          "ticks": 135859,
          "time": 176.89973958333334,
          "velocity": 0.09448818897637795
        },
        {
          "duration": 0,
          "durationTicks": 0,
          "midi": 72,
          "name": "C5",
          "ticks": 135886,
          "time": 176.93489583333334,
          "velocity": 0.10236220472440945
        },
        {
          "duration": 0,
          "durationTicks": 0,
          "midi": 80,
          "name": "G#5",
          "ticks": 135886,
          "time": 176.93489583333334,
          "velocity": 0.14173228346456693
        },
        {
          "duration": 0,
          "durationTicks": 0,
          "midi": 56,
          "name": "G#3",
          "ticks": 135895,
          "time": 176.94661458333334,
          "velocity": 0.2992125984251969
        },
        {
          "duration": 0,
          "durationTicks": 0,
          "midi": 95,
          "name": "B6",
          "ticks": 135895,
          "time": 176.94661458333334,
          "velocity": 0.08661417322834646
        },
        {
          "duration": 0,
          "durationTicks": 0,
          "midi": 86,
          "name": "D6",
          "ticks": 135895,
          "time": 176.94661458333334,
          "velocity": 0.08661417322834646
        },
        {
          "duration": 0,
          "durationTicks": 0,
          "midi": 70,
          "name": "A#4",
          "ticks": 135895,
          "time": 176.94661458333334,
          "velocity": 0.05511811023622047
        },
        {
          "duration": 0,
          "durationTicks": 0,
          "midi": 87,
          "name": "D#6",
          "ticks": 135904,
          "time": 176.95833333333334,
          "velocity": 0.05511811023622047
        },
        {
          "duration": 0,
          "durationTicks": 0,
          "midi": 38,
          "name": "D2",
          "ticks": 135914,
          "time": 176.97135416666666,
          "velocity": 0.2283464566929134
        },
        {
          "duration": 0.12630208333331439,
          "durationTicks": 97,
          "midi": 70,
          "name": "A#4",
          "ticks": 135976,
          "time": 177.05208333333334,
          "velocity": 0.31496062992125984
        },
        {
          "duration": 0,
          "durationTicks": 0,
          "midi": 56,
          "name": "G#3",
          "ticks": 135985,
          "time": 177.06380208333334,
          "velocity": 0.13385826771653545
        },
        {
          "duration": 0.12630208333331439,
          "durationTicks": 97,
          "midi": 89,
          "name": "F6",
          "ticks": 135985,
          "time": 177.06380208333334,
          "velocity": 0.12598425196850394
        },
        {
          "duration": 0.12630208333331439,
          "durationTicks": 97,
          "midi": 36,
          "name": "C2",
          "ticks": 135985,
          "time": 177.06380208333334,
          "velocity": 0.36220472440944884
        },
        {
          "duration": 0.12630208333331439,
          "durationTicks": 97,
          "midi": 75,
          "name": "D#5",
          "ticks": 135994,
          "time": 177.07552083333334,
          "velocity": 0.1732283464566929
        },
        {
          "duration": 0,
          "durationTicks": 0,
          "midi": 56,
          "name": "G#3",
          "ticks": 136048,
          "time": 177.14583333333334,
          "velocity": 0.06299212598425197
        },
        {
          "duration": 0.25390625,
          "durationTicks": 195,
          "midi": 65,
          "name": "F4",
          "ticks": 136075,
          "time": 177.18098958333334,
          "velocity": 0.2283464566929134
        },
        {
          "duration": 0,
          "durationTicks": 0,
          "midi": 61,
          "name": "C#4",
          "ticks": 136084,
          "time": 177.19270833333334,
          "velocity": 0.2440944881889764
        },
        {
          "duration": 0.37890625,
          "durationTicks": 291,
          "midi": 68,
          "name": "G#4",
          "ticks": 136094,
          "time": 177.20572916666666,
          "velocity": 0.2204724409448819
        },
        {
          "duration": 0,
          "durationTicks": 0,
          "midi": 76,
          "name": "E5",
          "ticks": 136103,
          "time": 177.21744791666666,
          "velocity": 0.13385826771653545
        },
        {
          "duration": 0,
          "durationTicks": 0,
          "midi": 61,
          "name": "C#4",
          "ticks": 136112,
          "time": 177.22916666666666,
          "velocity": 0.29133858267716534
        },
        {
          "duration": 0,
          "durationTicks": 0,
          "midi": 61,
          "name": "C#4",
          "ticks": 136166,
          "time": 177.29947916666666,
          "velocity": 0.29133858267716534
        },
        {
          "duration": 0.1263020833333428,
          "durationTicks": 97,
          "midi": 91,
          "name": "G6",
          "ticks": 136175,
          "time": 177.31119791666666,
          "velocity": 0.11023622047244094
        },
        {
          "duration": 0.1263020833333428,
          "durationTicks": 97,
          "midi": 72,
          "name": "C5",
          "ticks": 136175,
          "time": 177.31119791666666,
          "velocity": 0.31496062992125984
        },
        {
          "duration": 0,
          "durationTicks": 0,
          "midi": 47,
          "name": "B2",
          "ticks": 136185,
          "time": 177.32421875,
          "velocity": 0.2047244094488189
        },
        {
          "duration": 0,
          "durationTicks": 0,
          "midi": 70,
          "name": "A#4",
          "ticks": 136185,
          "time": 177.32421875,
          "velocity": 0.2283464566929134
        },
        {
          "duration": 0,
          "durationTicks": 0,
          "midi": 36,
          "name": "C2",
          "ticks": 136202,
          "time": 177.34635416666666,
          "velocity": 0.4015748031496063
        },
        {
          "duration": 0,
          "durationTicks": 0,
          "midi": 75,
          "name": "D#5",
          "ticks": 136202,
          "time": 177.34635416666666,
          "velocity": 0.1732283464566929
        },
        {
          "duration": 0,
          "durationTicks": 0,
          "midi": 61,
          "name": "C#4",
          "ticks": 136212,
          "time": 177.359375,
          "velocity": 0.28346456692913385
        },
        {
          "duration": 0,
          "durationTicks": 0,
          "midi": 61,
          "name": "C#4",
          "ticks": 136265,
          "time": 177.42838541666666,
          "velocity": 0.25196850393700787
        },
        {
          "duration": 0,
          "durationTicks": 0,
          "midi": 73,
          "name": "C#5",
          "ticks": 136310,
          "time": 177.48697916666666,
          "velocity": 0.31496062992125984
        },
        {
          "duration": 0,
          "durationTicks": 0,
          "midi": 66,
          "name": "F#4",
          "ticks": 136310,
          "time": 177.48697916666666,
          "velocity": 0.08661417322834646
        },
        {
          "duration": 0,
          "durationTicks": 0,
          "midi": 61,
          "name": "C#4",
          "ticks": 136310,
          "time": 177.48697916666666,
          "velocity": 0.1968503937007874
        },
        {
          "duration": 0.1263020833333428,
          "durationTicks": 97,
          "midi": 72,
          "name": "C5",
          "ticks": 136328,
          "time": 177.51041666666666,
          "velocity": 0.33858267716535434
        },
        {
          "duration": 0.1263020833333428,
          "durationTicks": 97,
          "midi": 91,
          "name": "G6",
          "ticks": 136328,
          "time": 177.51041666666666,
          "velocity": 0.08661417322834646
        },
        {
          "duration": 0,
          "durationTicks": 0,
          "midi": 65,
          "name": "F4",
          "ticks": 136337,
          "time": 177.52213541666666,
          "velocity": 0.07086614173228346
        },
        {
          "duration": 0,
          "durationTicks": 0,
          "midi": 56,
          "name": "G#3",
          "ticks": 136373,
          "time": 177.56901041666666,
          "velocity": 0.07874015748031496
        },
        {
          "duration": 0,
          "durationTicks": 0,
          "midi": 37,
          "name": "C#2",
          "ticks": 136373,
          "time": 177.56901041666666,
          "velocity": 0.3543307086614173
        },
        {
          "duration": 0,
          "durationTicks": 0,
          "midi": 73,
          "name": "C#5",
          "ticks": 136454,
          "time": 177.67447916666666,
          "velocity": 0.33070866141732286
        },
        {
          "duration": 0.2526041666666856,
          "durationTicks": 194,
          "midi": 65,
          "name": "F4",
          "ticks": 136454,
          "time": 177.67447916666666,
          "velocity": 0.23622047244094488
        },
        {
          "duration": 0,
          "durationTicks": 0,
          "midi": 49,
          "name": "C#3",
          "ticks": 136471,
          "time": 177.69661458333334,
          "velocity": 0.3464566929133858
        },
        {
          "duration": 0.12630208333331439,
          "durationTicks": 97,
          "midi": 72,
          "name": "C5",
          "ticks": 136471,
          "time": 177.69661458333334,
          "velocity": 0.33858267716535434
        },
        {
          "duration": 0.12630208333331439,
          "durationTicks": 97,
          "midi": 68,
          "name": "G#4",
          "ticks": 136471,
          "time": 177.69661458333334,
          "velocity": 0.30708661417322836
        },
        {
          "duration": 0,
          "durationTicks": 0,
          "midi": 62,
          "name": "D4",
          "ticks": 136481,
          "time": 177.70963541666666,
          "velocity": 0.2440944881889764
        },
        {
          "duration": 0,
          "durationTicks": 0,
          "midi": 87,
          "name": "D#6",
          "ticks": 136481,
          "time": 177.70963541666666,
          "velocity": 0.07874015748031496
        },
        {
          "duration": 0,
          "durationTicks": 0,
          "midi": 31,
          "name": "G1",
          "ticks": 136498,
          "time": 177.73177083333334,
          "velocity": 0.2677165354330709
        },
        {
          "duration": 0,
          "durationTicks": 0,
          "midi": 61,
          "name": "C#4",
          "ticks": 136498,
          "time": 177.73177083333334,
          "velocity": 0.2992125984251969
        },
        {
          "duration": 0.12630208333331439,
          "durationTicks": 97,
          "midi": 75,
          "name": "D#5",
          "ticks": 136534,
          "time": 177.77864583333334,
          "velocity": 0.1732283464566929
        },
        {
          "duration": 0.1263020833333428,
          "durationTicks": 97,
          "midi": 61,
          "name": "C#4",
          "ticks": 136544,
          "time": 177.79166666666666,
          "velocity": 0.29133858267716534
        },
        {
          "duration": 0,
          "durationTicks": 0,
          "midi": 37,
          "name": "C#2",
          "ticks": 136561,
          "time": 177.81380208333334,
          "velocity": 0.3543307086614173
        },
        {
          "duration": 0,
          "durationTicks": 0,
          "midi": 72,
          "name": "C5",
          "ticks": 136588,
          "time": 177.84895833333334,
          "velocity": 0.06299212598425197
        },
        {
          "duration": 0,
          "durationTicks": 0,
          "midi": 69,
          "name": "A4",
          "ticks": 136598,
          "time": 177.86197916666666,
          "velocity": 0.28346456692913385
        },
        {
          "duration": 0,
          "durationTicks": 0,
          "midi": 88,
          "name": "E6",
          "ticks": 136598,
          "time": 177.86197916666666,
          "velocity": 0.07874015748031496
        },
        {
          "duration": 0.12760416666668561,
          "durationTicks": 98,
          "midi": 68,
          "name": "G#4",
          "ticks": 136607,
          "time": 177.87369791666666,
          "velocity": 0.2755905511811024
        },
        {
          "duration": 0,
          "durationTicks": 0,
          "midi": 84,
          "name": "C6",
          "ticks": 136643,
          "time": 177.92057291666666,
          "velocity": 0.11023622047244094
        },
        {
          "duration": 0,
          "durationTicks": 0,
          "midi": 61,
          "name": "C#4",
          "ticks": 136643,
          "time": 177.92057291666666,
          "velocity": 0.2677165354330709
        },
        {
          "duration": 0,
          "durationTicks": 0,
          "midi": 50,
          "name": "D3",
          "ticks": 136652,
          "time": 177.93229166666666,
          "velocity": 0.3543307086614173
        },
        {
          "duration": 0,
          "durationTicks": 0,
          "midi": 57,
          "name": "A3",
          "ticks": 136652,
          "time": 177.93229166666666,
          "velocity": 0.2992125984251969
        },
        {
          "duration": 0,
          "durationTicks": 0,
          "midi": 65,
          "name": "F4",
          "ticks": 136652,
          "time": 177.93229166666666,
          "velocity": 0.23622047244094488
        },
        {
          "duration": 0,
          "durationTicks": 0,
          "midi": 90,
          "name": "F#6",
          "ticks": 136652,
          "time": 177.93229166666666,
          "velocity": 0.07086614173228346
        },
        {
          "duration": 0,
          "durationTicks": 0,
          "midi": 87,
          "name": "D#6",
          "ticks": 136652,
          "time": 177.93229166666666,
          "velocity": 0.08661417322834646
        },
        {
          "duration": 0,
          "durationTicks": 0,
          "midi": 91,
          "name": "G6",
          "ticks": 136652,
          "time": 177.93229166666666,
          "velocity": 0.14173228346456693
        },
        {
          "duration": 0.11848958333334281,
          "durationTicks": 91,
          "midi": 72,
          "name": "C5",
          "ticks": 136652,
          "time": 177.93229166666666,
          "velocity": 0.33070866141732286
        },
        {
          "duration": 0,
          "durationTicks": 0,
          "midi": 37,
          "name": "C#2",
          "ticks": 136662,
          "time": 177.9453125,
          "velocity": 0.2755905511811024
        },
        {
          "duration": 0,
          "durationTicks": 0,
          "midi": 49,
          "name": "C#3",
          "ticks": 136671,
          "time": 177.95703125,
          "velocity": 0.3464566929133858
        },
        {
          "duration": 0,
          "durationTicks": 0,
          "midi": 87,
          "name": "D#6",
          "ticks": 136671,
          "time": 177.95703125,
          "velocity": 0.08661417322834646
        },
        {
          "duration": 0,
          "durationTicks": 0,
          "midi": 50,
          "name": "D3",
          "ticks": 136689,
          "time": 177.98046875,
          "velocity": 0.3228346456692913
        },
        {
          "duration": 0.09505208333334281,
          "durationTicks": 73,
          "midi": 65,
          "name": "F4",
          "ticks": 136689,
          "time": 177.98046875,
          "velocity": 0.16535433070866143
        },
        {
          "duration": 0,
          "durationTicks": 0,
          "midi": 61,
          "name": "C#4",
          "ticks": 136698,
          "time": 177.9921875,
          "velocity": 0.2440944881889764
        },
        {
          "duration": 0,
          "durationTicks": 0,
          "midi": 89,
          "name": "F6",
          "ticks": 136698,
          "time": 177.9921875,
          "velocity": 0.14960629921259844
        },
        {
          "duration": 0,
          "durationTicks": 0,
          "midi": 70,
          "name": "A#4",
          "ticks": 136707,
          "time": 178.00390625,
          "velocity": 0.3228346456692913
        },
        {
          "duration": 0.009114583333342807,
          "durationTicks": 7,
          "midi": 72,
          "name": "C5",
          "ticks": 136743,
          "time": 178.05078125,
          "velocity": 0.1732283464566929
        },
        {
          "duration": 0,
          "durationTicks": 0,
          "midi": 56,
          "name": "G#3",
          "ticks": 136753,
          "time": 178.06380208333334,
          "velocity": 0.05511811023622047
        },
        {
          "duration": 0,
          "durationTicks": 0,
          "midi": 87,
          "name": "D#6",
          "ticks": 136753,
          "time": 178.06380208333334,
          "velocity": 0.11811023622047244
        },
        {
          "duration": 0,
          "durationTicks": 0,
          "midi": 49,
          "name": "C#3",
          "ticks": 136762,
          "time": 178.07552083333334,
          "velocity": 0.3464566929133858
        },
        {
          "duration": 0.032552083333314386,
          "durationTicks": 25,
          "midi": 65,
          "name": "F4",
          "ticks": 136762,
          "time": 178.07552083333334,
          "velocity": 0.1968503937007874
        },
        {
          "duration": 0,
          "durationTicks": 0,
          "midi": 68,
          "name": "G#4",
          "ticks": 136762,
          "time": 178.07552083333334,
          "velocity": 0.2992125984251969
        },
        {
          "duration": 0.12630208333331439,
          "durationTicks": 97,
          "midi": 84,
          "name": "C6",
          "ticks": 136798,
          "time": 178.12239583333334,
          "velocity": 0.16535433070866143
        },
        {
          "duration": 0,
          "durationTicks": 0,
          "midi": 65,
          "name": "F4",
          "ticks": 136808,
          "time": 178.13541666666666,
          "velocity": 0.2992125984251969
        },
        {
          "duration": 0,
          "durationTicks": 0,
          "midi": 80,
          "name": "G#5",
          "ticks": 136808,
          "time": 178.13541666666666,
          "velocity": 0.14960629921259844
        },
        {
          "duration": 0,
          "durationTicks": 0,
          "midi": 60,
          "name": "C4",
          "ticks": 136834,
          "time": 178.16927083333334,
          "velocity": 0.2283464566929134
        },
        {
          "duration": 0,
          "durationTicks": 0,
          "midi": 66,
          "name": "F#4",
          "ticks": 136834,
          "time": 178.16927083333334,
          "velocity": 0.2204724409448819
        },
        {
          "duration": 0.125,
          "durationTicks": 96,
          "midi": 87,
          "name": "D#6",
          "ticks": 136844,
          "time": 178.18229166666666,
          "velocity": 0.14960629921259844
        },
        {
          "duration": 0,
          "durationTicks": 0,
          "midi": 61,
          "name": "C#4",
          "ticks": 136853,
          "time": 178.19401041666666,
          "velocity": 0.2204724409448819
        },
        {
          "duration": 0.125,
          "durationTicks": 96,
          "midi": 65,
          "name": "F4",
          "ticks": 136853,
          "time": 178.19401041666666,
          "velocity": 0.3464566929133858
        },
        {
          "duration": 0.125,
          "durationTicks": 96,
          "midi": 68,
          "name": "G#4",
          "ticks": 136853,
          "time": 178.19401041666666,
          "velocity": 0.33858267716535434
        },
        {
          "duration": 0.125,
          "durationTicks": 96,
          "midi": 37,
          "name": "C#2",
          "ticks": 136853,
          "time": 178.19401041666666,
          "velocity": 0.36220472440944884
        },
        {
          "duration": 0,
          "durationTicks": 0,
          "midi": 61,
          "name": "C#4",
          "ticks": 136880,
          "time": 178.22916666666666,
          "velocity": 0.29133858267716534
        },
        {
          "duration": 0,
          "durationTicks": 0,
          "midi": 70,
          "name": "A#4",
          "ticks": 136898,
          "time": 178.25260416666666,
          "velocity": 0.2283464566929134
        },
        {
          "duration": 0,
          "durationTicks": 0,
          "midi": 64,
          "name": "E4",
          "ticks": 136942,
          "time": 178.30989583333334,
          "velocity": 0.31496062992125984
        },
        {
          "duration": 0,
          "durationTicks": 0,
          "midi": 82,
          "name": "A#5",
          "ticks": 136942,
          "time": 178.30989583333334,
          "velocity": 0.11811023622047244
        },
        {
          "duration": 0,
          "durationTicks": 0,
          "midi": 56,
          "name": "G#3",
          "ticks": 136951,
          "time": 178.32161458333334,
          "velocity": 0.14173228346456693
        },
        {
          "duration": 0,
          "durationTicks": 0,
          "midi": 63,
          "name": "D#4",
          "ticks": 136961,
          "time": 178.33463541666666,
          "velocity": 0.29133858267716534
        },
        {
          "duration": 0,
          "durationTicks": 0,
          "midi": 66,
          "name": "F#4",
          "ticks": 136988,
          "time": 178.36979166666666,
          "velocity": 0.18110236220472442
        },
        {
          "duration": 0,
          "durationTicks": 0,
          "midi": 79,
          "name": "G5",
          "ticks": 136988,
          "time": 178.36979166666666,
          "velocity": 0.13385826771653545
        },
        {
          "duration": 0.12760416666668561,
          "durationTicks": 98,
          "midi": 60,
          "name": "C4",
          "ticks": 136988,
          "time": 178.36979166666666,
          "velocity": 0.2992125984251969
        },
        {
          "duration": 0,
          "durationTicks": 0,
          "midi": 68,
          "name": "G#4",
          "ticks": 137032,
          "time": 178.42708333333334,
          "velocity": 0.2677165354330709
        },
        {
          "duration": 0,
          "durationTicks": 0,
          "midi": 84,
          "name": "C6",
          "ticks": 137032,
          "time": 178.42708333333334,
          "velocity": 0.07874015748031496
        },
        {
          "duration": 0.1276041666666572,
          "durationTicks": 98,
          "midi": 75,
          "name": "D#5",
          "ticks": 137032,
          "time": 178.42708333333334,
          "velocity": 0.18110236220472442
        },
        {
          "duration": 0,
          "durationTicks": 0,
          "midi": 47,
          "name": "B2",
          "ticks": 137041,
          "time": 178.43880208333334,
          "velocity": 0.25196850393700787
        },
        {
          "duration": 0,
          "durationTicks": 0,
          "midi": 65,
          "name": "F4",
          "ticks": 137051,
          "time": 178.45182291666666,
          "velocity": 0.29133858267716534
        },
        {
          "duration": 0,
          "durationTicks": 0,
          "midi": 30,
          "name": "F#1",
          "ticks": 137051,
          "time": 178.45182291666666,
          "velocity": 0.4251968503937008
        },
        {
          "duration": 0.09375,
          "durationTicks": 72,
          "midi": 48,
          "name": "C3",
          "ticks": 137060,
          "time": 178.46354166666666,
          "velocity": 0.12598425196850394
        },
        {
          "duration": 0.2552083333333428,
          "durationTicks": 196,
          "midi": 70,
          "name": "A#4",
          "ticks": 137069,
          "time": 178.47526041666666,
          "velocity": 0.13385826771653545
        },
        {
          "duration": 0.1263020833333428,
          "durationTicks": 97,
          "midi": 82,
          "name": "A#5",
          "ticks": 137079,
          "time": 178.48828125,
          "velocity": 0.18110236220472442
        },
        {
          "duration": 0.2552083333333428,
          "durationTicks": 196,
          "midi": 67,
          "name": "G4",
          "ticks": 137079,
          "time": 178.48828125,
          "velocity": 0.25984251968503935
        },
        {
          "duration": 0,
          "durationTicks": 0,
          "midi": 60,
          "name": "C4",
          "ticks": 137088,
          "time": 178.5,
          "velocity": 0.25984251968503935
        },
        {
          "duration": 0,
          "durationTicks": 0,
          "midi": 91,
          "name": "G6",
          "ticks": 137088,
          "time": 178.5,
          "velocity": 0.07086614173228346
        },
        {
          "duration": 0,
          "durationTicks": 0,
          "midi": 86,
          "name": "D6",
          "ticks": 137097,
          "time": 178.51171875,
          "velocity": 0.06299212598425197
        },
        {
          "duration": 0.1263020833333428,
          "durationTicks": 97,
          "midi": 29,
          "name": "F1",
          "ticks": 137097,
          "time": 178.51171875,
          "velocity": 0.3779527559055118
        },
        {
          "duration": 0.1276041666666572,
          "durationTicks": 98,
          "midi": 77,
          "name": "F5",
          "ticks": 137115,
          "time": 178.53515625,
          "velocity": 0.14173228346456693
        },
        {
          "duration": 0,
          "durationTicks": 0,
          "midi": 60,
          "name": "C4",
          "ticks": 137132,
          "time": 178.55729166666666,
          "velocity": 0.33858267716535434
        },
        {
          "duration": 0.03255208333334281,
          "durationTicks": 25,
          "midi": 48,
          "name": "C3",
          "ticks": 137132,
          "time": 178.55729166666666,
          "velocity": 0.08661417322834646
        },
        {
          "duration": 0,
          "durationTicks": 0,
          "midi": 88,
          "name": "E6",
          "ticks": 137132,
          "time": 178.55729166666666,
          "velocity": 0.06299212598425197
        },
        {
          "duration": 0,
          "durationTicks": 0,
          "midi": 63,
          "name": "D#4",
          "ticks": 137142,
          "time": 178.5703125,
          "velocity": 0.28346456692913385
        },
        {
          "duration": 0,
          "durationTicks": 0,
          "midi": 59,
          "name": "B3",
          "ticks": 137169,
          "time": 178.60546875,
          "velocity": 0.2992125984251969
        },
        {
          "duration": 0,
          "durationTicks": 0,
          "midi": 48,
          "name": "C3",
          "ticks": 137178,
          "time": 178.6171875,
          "velocity": 0.07874015748031496
        },
        {
          "duration": 0,
          "durationTicks": 0,
          "midi": 61,
          "name": "C#4",
          "ticks": 137187,
          "time": 178.62890625,
          "velocity": 0.29133858267716534
        },
        {
          "duration": 0,
          "durationTicks": 0,
          "midi": 60,
          "name": "C4",
          "ticks": 137206,
          "time": 178.65364583333334,
          "velocity": 0.30708661417322836
        },
        {
          "duration": 0,
          "durationTicks": 0,
          "midi": 65,
          "name": "F4",
          "ticks": 137215,
          "time": 178.66536458333334,
          "velocity": 0.2204724409448819
        },
        {
          "duration": 0.12630208333331439,
          "durationTicks": 97,
          "midi": 82,
          "name": "A#5",
          "ticks": 137224,
          "time": 178.67708333333334,
          "velocity": 0.15748031496062992
        },
        {
          "duration": 0.1263020833333428,
          "durationTicks": 97,
          "midi": 41,
          "name": "F2",
          "ticks": 137234,
          "time": 178.69010416666666,
          "velocity": 0.4094488188976378
        },
        {
          "duration": 0.1263020833333428,
          "durationTicks": 97,
          "midi": 63,
          "name": "D#4",
          "ticks": 137234,
          "time": 178.69010416666666,
          "velocity": 0.29133858267716534
        },
        {
          "duration": 0.1263020833333428,
          "durationTicks": 97,
          "midi": 60,
          "name": "C4",
          "ticks": 137306,
          "time": 178.78385416666666,
          "velocity": 0.33858267716535434
        },
        {
          "duration": 0,
          "durationTicks": 0,
          "midi": 30,
          "name": "F#1",
          "ticks": 137324,
          "time": 178.80729166666666,
          "velocity": 0.3700787401574803
        },
        {
          "duration": 0.12760416666668561,
          "durationTicks": 98,
          "midi": 79,
          "name": "G5",
          "ticks": 137324,
          "time": 178.80729166666666,
          "velocity": 0.1889763779527559
        },
        {
          "duration": 0,
          "durationTicks": 0,
          "midi": 29,
          "name": "F1",
          "ticks": 137342,
          "time": 178.83072916666666,
          "velocity": 0.36220472440944884
        },
        {
          "duration": 0.1263020833333428,
          "durationTicks": 97,
          "midi": 75,
          "name": "D#5",
          "ticks": 137352,
          "time": 178.84375,
          "velocity": 0.1732283464566929
        },
        {
          "duration": 0.12760416666668561,
          "durationTicks": 98,
          "midi": 70,
          "name": "A#4",
          "ticks": 137369,
          "time": 178.86588541666666,
          "velocity": 0.14960629921259844
        },
        {
          "duration": 0,
          "durationTicks": 0,
          "midi": 80,
          "name": "G#5",
          "ticks": 137415,
          "time": 178.92578125,
          "velocity": 0.13385826771653545
        },
        {
          "duration": 0,
          "durationTicks": 0,
          "midi": 86,
          "name": "D6",
          "ticks": 137415,
          "time": 178.92578125,
          "velocity": 0.14173228346456693
        },
        {
          "duration": 0.1276041666666572,
          "durationTicks": 98,
          "midi": 77,
          "name": "F5",
          "ticks": 137415,
          "time": 178.92578125,
          "velocity": 0.1732283464566929
        },
        {
          "duration": 0,
          "durationTicks": 0,
          "midi": 64,
          "name": "E4",
          "ticks": 137424,
          "time": 178.9375,
          "velocity": 0.25984251968503935
        },
        {
          "duration": 0,
          "durationTicks": 0,
          "midi": 88,
          "name": "E6",
          "ticks": 137424,
          "time": 178.9375,
          "velocity": 0.07874015748031496
        },
        {
          "duration": 0,
          "durationTicks": 0,
          "midi": 91,
          "name": "G6",
          "ticks": 137424,
          "time": 178.9375,
          "velocity": 0.11023622047244094
        },
        {
          "duration": 0.25390625,
          "durationTicks": 195,
          "midi": 67,
          "name": "G4",
          "ticks": 137424,
          "time": 178.9375,
          "velocity": 0.2204724409448819
        },
        {
          "duration": 0.1276041666666572,
          "durationTicks": 98,
          "midi": 58,
          "name": "A#3",
          "ticks": 137442,
          "time": 178.9609375,
          "velocity": 0.3779527559055118
        },
        {
          "duration": 0.1276041666666572,
          "durationTicks": 98,
          "midi": 63,
          "name": "D#4",
          "ticks": 137442,
          "time": 178.9609375,
          "velocity": 0.25196850393700787
        },
        {
          "duration": 0,
          "durationTicks": 0,
          "midi": 27,
          "name": "D#1",
          "ticks": 137460,
          "time": 178.984375,
          "velocity": 0.3700787401574803
        },
        {
          "duration": 0,
          "durationTicks": 0,
          "midi": 82,
          "name": "A#5",
          "ticks": 137479,
          "time": 179.00911458333334,
          "velocity": 0.09448818897637795
        },
        {
          "duration": 0,
          "durationTicks": 0,
          "midi": 27,
          "name": "D#1",
          "ticks": 137488,
          "time": 179.02083333333334,
          "velocity": 0.3543307086614173
        },
        {
          "duration": 0.12630208333331439,
          "durationTicks": 97,
          "midi": 63,
          "name": "D#4",
          "ticks": 137515,
          "time": 179.05598958333334,
          "velocity": 0.2125984251968504
        },
        {
          "duration": 0.2513020833333144,
          "durationTicks": 193,
          "midi": 75,
          "name": "D#5",
          "ticks": 137515,
          "time": 179.05598958333334,
          "velocity": 0.2125984251968504
        },
        {
          "duration": 0,
          "durationTicks": 0,
          "midi": 56,
          "name": "G#3",
          "ticks": 137524,
          "time": 179.06770833333334,
          "velocity": 0.3228346456692913
        },
        {
          "duration": 0,
          "durationTicks": 0,
          "midi": 60,
          "name": "C4",
          "ticks": 137524,
          "time": 179.06770833333334,
          "velocity": 0.31496062992125984
        },
        {
          "duration": 0,
          "durationTicks": 0,
          "midi": 31,
          "name": "G1",
          "ticks": 137542,
          "time": 179.09114583333334,
          "velocity": 0.29133858267716534
        },
        {
          "duration": 0,
          "durationTicks": 0,
          "midi": 56,
          "name": "G#3",
          "ticks": 137551,
          "time": 179.10286458333334,
          "velocity": 0.29133858267716534
        },
        {
          "duration": 0,
          "durationTicks": 0,
          "midi": 86,
          "name": "D6",
          "ticks": 137551,
          "time": 179.10286458333334,
          "velocity": 0.05511811023622047
        },
        {
          "duration": 0,
          "durationTicks": 0,
          "midi": 84,
          "name": "C6",
          "ticks": 137561,
          "time": 179.11588541666666,
          "velocity": 0.09448818897637795
        },
        {
          "duration": 0,
          "durationTicks": 0,
          "midi": 65,
          "name": "F4",
          "ticks": 137588,
          "time": 179.15104166666666,
          "velocity": 0.18110236220472442
        },
        {
          "duration": 0,
          "durationTicks": 0,
          "midi": 70,
          "name": "A#4",
          "ticks": 137605,
          "time": 179.17317708333334,
          "velocity": 0.13385826771653545
        },
        {
          "duration": 0,
          "durationTicks": 0,
          "midi": 58,
          "name": "A#3",
          "ticks": 137614,
          "time": 179.18489583333334,
          "velocity": 0.2047244094488189
        },
        {
          "duration": 0,
          "durationTicks": 0,
          "midi": 72,
          "name": "C5",
          "ticks": 137614,
          "time": 179.18489583333334,
          "velocity": 0.13385826771653545
        },
        {
          "duration": 0,
          "durationTicks": 0,
          "midi": 79,
          "name": "G5",
          "ticks": 137624,
          "time": 179.19791666666666,
          "velocity": 0.14960629921259844
        },
        {
          "duration": 0.125,
          "durationTicks": 96,
          "midi": 39,
          "name": "D#2",
          "ticks": 137624,
          "time": 179.19791666666666,
          "velocity": 0.3543307086614173
        },
        {
          "duration": 0.125,
          "durationTicks": 96,
          "midi": 53,
          "name": "F3",
          "ticks": 137624,
          "time": 179.19791666666666,
          "velocity": 0.2992125984251969
        },
        {
          "duration": 0,
          "durationTicks": 0,
          "midi": 70,
          "name": "A#4",
          "ticks": 137651,
          "time": 179.23307291666666,
          "velocity": 0.18110236220472442
        },
        {
          "duration": 0,
          "durationTicks": 0,
          "midi": 79,
          "name": "G5",
          "ticks": 137668,
          "time": 179.25520833333334,
          "velocity": 0.14960629921259844
        },
        {
          "duration": 0,
          "durationTicks": 0,
          "midi": 76,
          "name": "E5",
          "ticks": 137686,
          "time": 179.27864583333334,
          "velocity": 0.13385826771653545
        },
        {
          "duration": 0,
          "durationTicks": 0,
          "midi": 54,
          "name": "F#3",
          "ticks": 137695,
          "time": 179.29036458333334,
          "velocity": 0.1889763779527559
        },
        {
          "duration": 0,
          "durationTicks": 0,
          "midi": 94,
          "name": "A#6",
          "ticks": 137695,
          "time": 179.29036458333334,
          "velocity": 0.08661417322834646
        },
        {
          "duration": 0,
          "durationTicks": 0,
          "midi": 57,
          "name": "A3",
          "ticks": 137713,
          "time": 179.31380208333334,
          "velocity": 0.31496062992125984
        },
        {
          "duration": 0,
          "durationTicks": 0,
          "midi": 75,
          "name": "D#5",
          "ticks": 137713,
          "time": 179.31380208333334,
          "velocity": 0.16535433070866143
        },
        {
          "duration": 0.12630208333331439,
          "durationTicks": 97,
          "midi": 51,
          "name": "D#3",
          "ticks": 137722,
          "time": 179.32552083333334,
          "velocity": 0.29133858267716534
        },
        {
          "duration": 0,
          "durationTicks": 0,
          "midi": 56,
          "name": "G#3",
          "ticks": 137731,
          "time": 179.33723958333334,
          "velocity": 0.2440944881889764
        },
        {
          "duration": 0.12630208333331439,
          "durationTicks": 97,
          "midi": 27,
          "name": "D#1",
          "ticks": 137731,
          "time": 179.33723958333334,
          "velocity": 0.36220472440944884
        },
        {
          "duration": 0,
          "durationTicks": 0,
          "midi": 70,
          "name": "A#4",
          "ticks": 137749,
          "time": 179.36067708333334,
          "velocity": 0.16535433070866143
        },
        {
          "duration": 0,
          "durationTicks": 0,
          "midi": 65,
          "name": "F4",
          "ticks": 137749,
          "time": 179.36067708333334,
          "velocity": 0.11023622047244094
        },
        {
          "duration": 0.1276041666666572,
          "durationTicks": 98,
          "midi": 77,
          "name": "F5",
          "ticks": 137776,
          "time": 179.39583333333334,
          "velocity": 0.12598425196850394
        },
        {
          "duration": 0,
          "durationTicks": 0,
          "midi": 57,
          "name": "A3",
          "ticks": 137785,
          "time": 179.40755208333334,
          "velocity": 0.2204724409448819
        },
        {
          "duration": 0.25390625,
          "durationTicks": 195,
          "midi": 75,
          "name": "D#5",
          "ticks": 137785,
          "time": 179.40755208333334,
          "velocity": 0.15748031496062992
        },
        {
          "duration": 0,
          "durationTicks": 0,
          "midi": 66,
          "name": "F#4",
          "ticks": 137794,
          "time": 179.41927083333334,
          "velocity": 0.1889763779527559
        },
        {
          "duration": 0.1276041666666572,
          "durationTicks": 98,
          "midi": 70,
          "name": "A#4",
          "ticks": 137794,
          "time": 179.41927083333334,
          "velocity": 0.12598425196850394
        },
        {
          "duration": 0,
          "durationTicks": 0,
          "midi": 44,
          "name": "G#2",
          "ticks": 137804,
          "time": 179.43229166666666,
          "velocity": 0.2677165354330709
        },
        {
          "duration": 0.2526041666666856,
          "durationTicks": 194,
          "midi": 61,
          "name": "C#4",
          "ticks": 137804,
          "time": 179.43229166666666,
          "velocity": 0.2283464566929134
        },
        {
          "duration": 0.2526041666666572,
          "durationTicks": 194,
          "midi": 65,
          "name": "F4",
          "ticks": 137821,
          "time": 179.45442708333334,
          "velocity": 0.25984251968503935
        },
        {
          "duration": 0,
          "durationTicks": 0,
          "midi": 34,
          "name": "A#1",
          "ticks": 137840,
          "time": 179.47916666666666,
          "velocity": 0.3779527559055118
        },
        {
          "duration": 0,
          "durationTicks": 0,
          "midi": 57,
          "name": "A3",
          "ticks": 137858,
          "time": 179.50260416666666,
          "velocity": 0.2755905511811024
        },
        {
          "duration": 0,
          "durationTicks": 0,
          "midi": 34,
          "name": "A#1",
          "ticks": 137867,
          "time": 179.51432291666666,
          "velocity": 0.3700787401574803
        },
        {
          "duration": 0,
          "durationTicks": 0,
          "midi": 57,
          "name": "A3",
          "ticks": 137886,
          "time": 179.5390625,
          "velocity": 0.25984251968503935
        },
        {
          "duration": 0,
          "durationTicks": 0,
          "midi": 35,
          "name": "B1",
          "ticks": 137886,
          "time": 179.5390625,
          "velocity": 0.3464566929133858
        },
        {
          "duration": 0,
          "durationTicks": 0,
          "midi": 56,
          "name": "G#3",
          "ticks": 137904,
          "time": 179.5625,
          "velocity": 0.25196850393700787
        },
        {
          "duration": 0,
          "durationTicks": 0,
          "midi": 51,
          "name": "D#3",
          "ticks": 137913,
          "time": 179.57421875,
          "velocity": 0.1732283464566929
        },
        {
          "duration": 0,
          "durationTicks": 0,
          "midi": 84,
          "name": "C6",
          "ticks": 137940,
          "time": 179.609375,
          "velocity": 0.08661417322834646
        },
        {
          "duration": 0,
          "durationTicks": 0,
          "midi": 57,
          "name": "A3",
          "ticks": 137950,
          "time": 179.62239583333334,
          "velocity": 0.2755905511811024
        },
        {
          "duration": 0,
          "durationTicks": 0,
          "midi": 56,
          "name": "G#3",
          "ticks": 137967,
          "time": 179.64453125,
          "velocity": 0.2677165354330709
        },
        {
          "duration": 0,
          "durationTicks": 0,
          "midi": 47,
          "name": "B2",
          "ticks": 137993,
          "time": 179.67838541666666,
          "velocity": 0.33858267716535434
        },
        {
          "duration": 0,
          "durationTicks": 0,
          "midi": 62,
          "name": "D4",
          "ticks": 137993,
          "time": 179.67838541666666,
          "velocity": 0.2204724409448819
        },
        {
          "duration": 0,
          "durationTicks": 0,
          "midi": 46,
          "name": "A#2",
          "ticks": 138011,
          "time": 179.70182291666666,
          "velocity": 0.33858267716535434
        },
        {
          "duration": 0,
          "durationTicks": 0,
          "midi": 61,
          "name": "C#4",
          "ticks": 138011,
          "time": 179.70182291666666,
          "velocity": 0.2283464566929134
        },
        {
          "duration": 0.12630208333331439,
          "durationTicks": 97,
          "midi": 65,
          "name": "F4",
          "ticks": 138028,
          "time": 179.72395833333334,
          "velocity": 0.2283464566929134
        },
        {
          "duration": 0,
          "durationTicks": 0,
          "midi": 45,
          "name": "A2",
          "ticks": 138038,
          "time": 179.73697916666666,
          "velocity": 0.25196850393700787
        },
        {
          "duration": 0,
          "durationTicks": 0,
          "midi": 75,
          "name": "D#5",
          "ticks": 138055,
          "time": 179.75911458333334,
          "velocity": 0.11023622047244094
        },
        {
          "duration": 0,
          "durationTicks": 0,
          "midi": 73,
          "name": "C#5",
          "ticks": 138065,
          "time": 179.77213541666666,
          "velocity": 0.14960629921259844
        },
        {
          "duration": 0,
          "durationTicks": 0,
          "midi": 55,
          "name": "G3",
          "ticks": 138082,
          "time": 179.79427083333334,
          "velocity": 0.1889763779527559
        },
        {
          "duration": 0,
          "durationTicks": 0,
          "midi": 35,
          "name": "B1",
          "ticks": 138091,
          "time": 179.80598958333334,
          "velocity": 0.3543307086614173
        },
        {
          "duration": 0.1276041666666572,
          "durationTicks": 98,
          "midi": 68,
          "name": "G#4",
          "ticks": 138091,
          "time": 179.80598958333334,
          "velocity": 0.2047244094488189
        },
        {
          "duration": 0.1276041666666572,
          "durationTicks": 98,
          "midi": 75,
          "name": "D#5",
          "ticks": 138091,
          "time": 179.80598958333334,
          "velocity": 0.15748031496062992
        },
        {
          "duration": 0,
          "durationTicks": 0,
          "midi": 89,
          "name": "F6",
          "ticks": 138101,
          "time": 179.81901041666666,
          "velocity": 0.05511811023622047
        },
        {
          "duration": 0.12760416666668561,
          "durationTicks": 98,
          "midi": 61,
          "name": "C#4",
          "ticks": 138101,
          "time": 179.81901041666666,
          "velocity": 0.2283464566929134
        },
        {
          "duration": 0.12760416666668561,
          "durationTicks": 98,
          "midi": 65,
          "name": "F4",
          "ticks": 138101,
          "time": 179.81901041666666,
          "velocity": 0.2283464566929134
        },
        {
          "duration": 0,
          "durationTicks": 0,
          "midi": 34,
          "name": "A#1",
          "ticks": 138110,
          "time": 179.83072916666666,
          "velocity": 0.3543307086614173
        },
        {
          "duration": 0,
          "durationTicks": 0,
          "midi": 57,
          "name": "A3",
          "ticks": 138110,
          "time": 179.83072916666666,
          "velocity": 0.25984251968503935
        },
        {
          "duration": 0,
          "durationTicks": 0,
          "midi": 35,
          "name": "B1",
          "ticks": 138128,
          "time": 179.85416666666666,
          "velocity": 0.31496062992125984
        },
        {
          "duration": 0.12760416666668561,
          "durationTicks": 98,
          "midi": 70,
          "name": "A#4",
          "ticks": 138137,
          "time": 179.86588541666666,
          "velocity": 0.2283464566929134
        },
        {
          "duration": 0.12760416666668561,
          "durationTicks": 98,
          "midi": 84,
          "name": "C6",
          "ticks": 138146,
          "time": 179.87760416666666,
          "velocity": 0.12598425196850394
        },
        {
          "duration": 0,
          "durationTicks": 0,
          "midi": 89,
          "name": "F6",
          "ticks": 138156,
          "time": 179.890625,
          "velocity": 0.06299212598425197
        },
        {
          "duration": 0,
          "durationTicks": 0,
          "midi": 60,
          "name": "C4",
          "ticks": 138173,
          "time": 179.91276041666666,
          "velocity": 0.2283464566929134
        },
        {
          "duration": 0,
          "durationTicks": 0,
          "midi": 44,
          "name": "G#2",
          "ticks": 138173,
          "time": 179.91276041666666,
          "velocity": 0.3779527559055118
        },
        {
          "duration": 0,
          "durationTicks": 0,
          "midi": 78,
          "name": "F#5",
          "ticks": 138182,
          "time": 179.92447916666666,
          "velocity": 0.11023622047244094
        },
        {
          "duration": 0,
          "durationTicks": 0,
          "midi": 80,
          "name": "G#5",
          "ticks": 138182,
          "time": 179.92447916666666,
          "velocity": 0.14173228346456693
        },
        {
          "duration": 0,
          "durationTicks": 0,
          "midi": 51,
          "name": "D#3",
          "ticks": 138201,
          "time": 179.94921875,
          "velocity": 0.29133858267716534
        },
        {
          "duration": 0,
          "durationTicks": 0,
          "midi": 57,
          "name": "A3",
          "ticks": 138201,
          "time": 179.94921875,
          "velocity": 0.2992125984251969
        },
        {
          "duration": 0,
          "durationTicks": 0,
          "midi": 73,
          "name": "C#5",
          "ticks": 138201,
          "time": 179.94921875,
          "velocity": 0.1732283464566929
        },
        {
          "duration": 0.1276041666666572,
          "durationTicks": 98,
          "midi": 56,
          "name": "G#3",
          "ticks": 138219,
          "time": 179.97265625,
          "velocity": 0.31496062992125984
        },
        {
          "duration": 0,
          "durationTicks": 0,
          "midi": 45,
          "name": "A2",
          "ticks": 138228,
          "time": 179.984375,
          "velocity": 0.30708661417322836
        },
        {
          "duration": 0,
          "durationTicks": 0,
          "midi": 75,
          "name": "D#5",
          "ticks": 138237,
          "time": 179.99609375,
          "velocity": 0.10236220472440945
        },
        {
          "duration": 0,
          "durationTicks": 0,
          "midi": 65,
          "name": "F4",
          "ticks": 138247,
          "time": 180.00911458333334,
          "velocity": 0.12598425196850394
        },
        {
          "duration": 0,
          "durationTicks": 0,
          "midi": 69,
          "name": "A4",
          "ticks": 138274,
          "time": 180.04427083333334,
          "velocity": 0.2047244094488189
        },
        {
          "duration": 0,
          "durationTicks": 0,
          "midi": 60,
          "name": "C4",
          "ticks": 138283,
          "time": 180.05598958333334,
          "velocity": 0.2992125984251969
        },
        {
          "duration": 0,
          "durationTicks": 0,
          "midi": 79,
          "name": "G5",
          "ticks": 138283,
          "time": 180.05598958333334,
          "velocity": 0.14960629921259844
        },
        {
          "duration": 0,
          "durationTicks": 0,
          "midi": 46,
          "name": "A#2",
          "ticks": 138292,
          "time": 180.06770833333334,
          "velocity": 0.33858267716535434
        },
        {
          "duration": 0,
          "durationTicks": 0,
          "midi": 68,
          "name": "G#4",
          "ticks": 138292,
          "time": 180.06770833333334,
          "velocity": 0.1968503937007874
        },
        {
          "duration": 0,
          "durationTicks": 0,
          "midi": 77,
          "name": "F5",
          "ticks": 138292,
          "time": 180.06770833333334,
          "velocity": 0.15748031496062992
        },
        {
          "duration": 0,
          "durationTicks": 0,
          "midi": 73,
          "name": "C#5",
          "ticks": 138310,
          "time": 180.09114583333334,
          "velocity": 0.16535433070866143
        },
        {
          "duration": 0,
          "durationTicks": 0,
          "midi": 47,
          "name": "B2",
          "ticks": 138319,
          "time": 180.10286458333334,
          "velocity": 0.3228346456692913
        },
        {
          "duration": 0,
          "durationTicks": 0,
          "midi": 63,
          "name": "D#4",
          "ticks": 138328,
          "time": 180.11458333333334,
          "velocity": 0.30708661417322836
        },
        {
          "duration": 0.1276041666666572,
          "durationTicks": 98,
          "midi": 82,
          "name": "A#5",
          "ticks": 138328,
          "time": 180.11458333333334,
          "velocity": 0.11023622047244094
        },
        {
          "duration": 0,
          "durationTicks": 0,
          "midi": 70,
          "name": "A#4",
          "ticks": 138338,
          "time": 180.12760416666666,
          "velocity": 0.14173228346456693
        },
        {
          "duration": 0,
          "durationTicks": 0,
          "midi": 35,
          "name": "B1",
          "ticks": 138374,
          "time": 180.17447916666666,
          "velocity": 0.3464566929133858
        },
        {
          "duration": 0.1263020833333428,
          "durationTicks": 97,
          "midi": 87,
          "name": "D#6",
          "ticks": 138374,
          "time": 180.17447916666666,
          "velocity": 0.11811023622047244
        },
        {
          "duration": 0.1263020833333428,
          "durationTicks": 97,
          "midi": 68,
          "name": "G#4",
          "ticks": 138383,
          "time": 180.18619791666666,
          "velocity": 0.2992125984251969
        },
        {
          "duration": 0.1263020833333428,
          "durationTicks": 97,
          "midi": 61,
          "name": "C#4",
          "ticks": 138383,
          "time": 180.18619791666666,
          "velocity": 0.25984251968503935
        },
        {
          "duration": 0.1263020833333428,
          "durationTicks": 97,
          "midi": 65,
          "name": "F4",
          "ticks": 138383,
          "time": 180.18619791666666,
          "velocity": 0.2283464566929134
        },
        {
          "duration": 0.1263020833333428,
          "durationTicks": 97,
          "midi": 34,
          "name": "A#1",
          "ticks": 138392,
          "time": 180.19791666666666,
          "velocity": 0.3543307086614173
        },
        {
          "duration": 0,
          "durationTicks": 0,
          "midi": 56,
          "name": "G#3",
          "ticks": 138419,
          "time": 180.23307291666666,
          "velocity": 0.29133858267716534
        },
        {
          "duration": 0.1263020833333428,
          "durationTicks": 97,
          "midi": 72,
          "name": "C5",
          "ticks": 138419,
          "time": 180.23307291666666,
          "velocity": 0.30708661417322836
        },
        {
          "duration": 0,
          "durationTicks": 0,
          "midi": 91,
          "name": "G6",
          "ticks": 138429,
          "time": 180.24609375,
          "velocity": 0.11023622047244094
        },
        {
          "duration": 0,
          "durationTicks": 0,
          "midi": 56,
          "name": "G#3",
          "ticks": 138446,
          "time": 180.26822916666666,
          "velocity": 0.2755905511811024
        },
        {
          "duration": 0,
          "durationTicks": 0,
          "midi": 87,
          "name": "D#6",
          "ticks": 138473,
          "time": 180.30338541666666,
          "velocity": 0.14173228346456693
        },
        {
          "duration": 0,
          "durationTicks": 0,
          "midi": 60,
          "name": "C4",
          "ticks": 138482,
          "time": 180.31510416666666,
          "velocity": 0.1968503937007874
        },
        {
          "duration": 0,
          "durationTicks": 0,
          "midi": 68,
          "name": "G#4",
          "ticks": 138482,
          "time": 180.31510416666666,
          "velocity": 0.30708661417322836
        },
        {
          "duration": 0.12890625,
          "durationTicks": 99,
          "midi": 72,
          "name": "C5",
          "ticks": 138509,
          "time": 180.35026041666666,
          "velocity": 0.30708661417322836
        },
        {
          "duration": 0,
          "durationTicks": 0,
          "midi": 70,
          "name": "A#4",
          "ticks": 138519,
          "time": 180.36328125,
          "velocity": 0.12598425196850394
        },
        {
          "duration": 0,
          "durationTicks": 0,
          "midi": 91,
          "name": "G6",
          "ticks": 138519,
          "time": 180.36328125,
          "velocity": 0.11811023622047244
        },
        {
          "duration": 0.2591145833333428,
          "durationTicks": 199,
          "midi": 63,
          "name": "D#4",
          "ticks": 138528,
          "time": 180.375,
          "velocity": 0.2283464566929134
        },
        {
          "duration": 0,
          "durationTicks": 0,
          "midi": 76,
          "name": "E5",
          "ticks": 138564,
          "time": 180.421875,
          "velocity": 0.28346456692913385
        },
        {
          "duration": 0,
          "durationTicks": 0,
          "midi": 68,
          "name": "G#4",
          "ticks": 138564,
          "time": 180.421875,
          "velocity": 0.2677165354330709
        },
        {
          "duration": 0,
          "durationTicks": 0,
          "midi": 61,
          "name": "C#4",
          "ticks": 138573,
          "time": 180.43359375,
          "velocity": 0.2204724409448819
        },
        {
          "duration": 0,
          "durationTicks": 0,
          "midi": 94,
          "name": "A#6",
          "ticks": 138573,
          "time": 180.43359375,
          "velocity": 0.11023622047244094
        },
        {
          "duration": 0,
          "durationTicks": 0,
          "midi": 75,
          "name": "D#5",
          "ticks": 138583,
          "time": 180.44661458333334,
          "velocity": 0.2992125984251969
        },
        {
          "duration": 0,
          "durationTicks": 0,
          "midi": 60,
          "name": "C4",
          "ticks": 138592,
          "time": 180.45833333333334,
          "velocity": 0.25984251968503935
        },
        {
          "duration": 0.12109375,
          "durationTicks": 93,
          "midi": 67,
          "name": "G4",
          "ticks": 138592,
          "time": 180.45833333333334,
          "velocity": 0.25984251968503935
        },
        {
          "duration": 0,
          "durationTicks": 0,
          "midi": 35,
          "name": "B1",
          "ticks": 138601,
          "time": 180.47005208333334,
          "velocity": 0.4015748031496063
        },
        {
          "duration": 0,
          "durationTicks": 0,
          "midi": 70,
          "name": "A#4",
          "ticks": 138611,
          "time": 180.48307291666666,
          "velocity": 0.18110236220472442
        },
        {
          "duration": 0,
          "durationTicks": 0,
          "midi": 87,
          "name": "D#6",
          "ticks": 138620,
          "time": 180.49479166666666,
          "velocity": 0.07874015748031496
        },
        {
          "duration": 0,
          "durationTicks": 0,
          "midi": 72,
          "name": "C5",
          "ticks": 138620,
          "time": 180.49479166666666,
          "velocity": 0.1968503937007874
        },
        {
          "duration": 0.1302083333333428,
          "durationTicks": 100,
          "midi": 80,
          "name": "G#5",
          "ticks": 138620,
          "time": 180.49479166666666,
          "velocity": 0.33070866141732286
        },
        {
          "duration": 0,
          "durationTicks": 0,
          "midi": 58,
          "name": "A#3",
          "ticks": 138629,
          "time": 180.50651041666666,
          "velocity": 0.2283464566929134
        },
        {
          "duration": 0,
          "durationTicks": 0,
          "midi": 77,
          "name": "F5",
          "ticks": 138629,
          "time": 180.50651041666666,
          "velocity": 0.08661417322834646
        },
        {
          "duration": 0,
          "durationTicks": 0,
          "midi": 86,
          "name": "D6",
          "ticks": 138629,
          "time": 180.50651041666666,
          "velocity": 0.06299212598425197
        },
        {
          "duration": 0.1302083333333428,
          "durationTicks": 100,
          "midi": 75,
          "name": "D#5",
          "ticks": 138639,
          "time": 180.51953125,
          "velocity": 0.29133858267716534
        },
        {
          "duration": 0.1302083333333428,
          "durationTicks": 100,
          "midi": 36,
          "name": "C2",
          "ticks": 138639,
          "time": 180.51953125,
          "velocity": 0.3779527559055118
        },
        {
          "duration": 0,
          "durationTicks": 0,
          "midi": 60,
          "name": "C4",
          "ticks": 138648,
          "time": 180.53125,
          "velocity": 0.2677165354330709
        },
        {
          "duration": 0,
          "durationTicks": 0,
          "midi": 58,
          "name": "A#3",
          "ticks": 138657,
          "time": 180.54296875,
          "velocity": 0.2204724409448819
        },
        {
          "duration": 0,
          "durationTicks": 0,
          "midi": 94,
          "name": "A#6",
          "ticks": 138667,
          "time": 180.55598958333334,
          "velocity": 0.14960629921259844
        },
        {
          "duration": 0,
          "durationTicks": 0,
          "midi": 68,
          "name": "G#4",
          "ticks": 138676,
          "time": 180.56770833333334,
          "velocity": 0.2047244094488189
        },
        {
          "duration": 0,
          "durationTicks": 0,
          "midi": 58,
          "name": "A#3",
          "ticks": 138685,
          "time": 180.57942708333334,
          "velocity": 0.2204724409448819
        },
        {
          "duration": 0.009114583333314386,
          "durationTicks": 7,
          "midi": 67,
          "name": "G4",
          "ticks": 138685,
          "time": 180.57942708333334,
          "velocity": 0.23622047244094488
        },
        {
          "duration": 0,
          "durationTicks": 0,
          "midi": 86,
          "name": "D6",
          "ticks": 138704,
          "time": 180.60416666666666,
          "velocity": 0.07086614173228346
        },
        {
          "duration": 0,
          "durationTicks": 0,
          "midi": 58,
          "name": "A#3",
          "ticks": 138713,
          "time": 180.61588541666666,
          "velocity": 0.2204724409448819
        },
        {
          "duration": 0,
          "durationTicks": 0,
          "midi": 87,
          "name": "D#6",
          "ticks": 138713,
          "time": 180.61588541666666,
          "velocity": 0.09448818897637795
        },
        {
          "duration": 0.1263020833333428,
          "durationTicks": 97,
          "midi": 67,
          "name": "G4",
          "ticks": 138713,
          "time": 180.61588541666666,
          "velocity": 0.2047244094488189
        },
        {
          "duration": 0.1263020833333428,
          "durationTicks": 97,
          "midi": 72,
          "name": "C5",
          "ticks": 138713,
          "time": 180.61588541666666,
          "velocity": 0.1968503937007874
        },
        {
          "duration": 0.1263020833333428,
          "durationTicks": 97,
          "midi": 80,
          "name": "G#5",
          "ticks": 138713,
          "time": 180.61588541666666,
          "velocity": 0.3228346456692913
        },
        {
          "duration": 0,
          "durationTicks": 0,
          "midi": 60,
          "name": "C4",
          "ticks": 138732,
          "time": 180.640625,
          "velocity": 0.2677165354330709
        },
        {
          "duration": 0,
          "durationTicks": 0,
          "midi": 60,
          "name": "C4",
          "ticks": 138759,
          "time": 180.67578125,
          "velocity": 0.23622047244094488
        },
        {
          "duration": 0.125,
          "durationTicks": 96,
          "midi": 75,
          "name": "D#5",
          "ticks": 138759,
          "time": 180.67578125,
          "velocity": 0.1732283464566929
        },
        {
          "duration": 0.125,
          "durationTicks": 96,
          "midi": 84,
          "name": "C6",
          "ticks": 138759,
          "time": 180.67578125,
          "velocity": 0.31496062992125984
        },
        {
          "duration": 0.125,
          "durationTicks": 96,
          "midi": 87,
          "name": "D#6",
          "ticks": 138803,
          "time": 180.73307291666666,
          "velocity": 0.3228346456692913
        },
        {
          "duration": 0.125,
          "durationTicks": 96,
          "midi": 80,
          "name": "G#5",
          "ticks": 138812,
          "time": 180.74479166666666,
          "velocity": 0.1889763779527559
        },
        {
          "duration": 0.1263020833333428,
          "durationTicks": 97,
          "midi": 84,
          "name": "C6",
          "ticks": 138848,
          "time": 180.79166666666666,
          "velocity": 0.31496062992125984
        },
        {
          "duration": 0.2552083333333428,
          "durationTicks": 196,
          "midi": 48,
          "name": "C3",
          "ticks": 138848,
          "time": 180.79166666666666,
          "velocity": 0.3700787401574803
        },
        {
          "duration": 0,
          "durationTicks": 0,
          "midi": 57,
          "name": "A3",
          "ticks": 138857,
          "time": 180.80338541666666,
          "velocity": 0.1889763779527559
        },
        {
          "duration": 0,
          "durationTicks": 0,
          "midi": 64,
          "name": "E4",
          "ticks": 138857,
          "time": 180.80338541666666,
          "velocity": 0.1968503937007874
        },
        {
          "duration": 0,
          "durationTicks": 0,
          "midi": 68,
          "name": "G#4",
          "ticks": 138857,
          "time": 180.80338541666666,
          "velocity": 0.2125984251968504
        },
        {
          "duration": 0,
          "durationTicks": 0,
          "midi": 70,
          "name": "A#4",
          "ticks": 138857,
          "time": 180.80338541666666,
          "velocity": 0.14173228346456693
        },
        {
          "duration": 0,
          "durationTicks": 0,
          "midi": 75,
          "name": "D#5",
          "ticks": 138857,
          "time": 180.80338541666666,
          "velocity": 0.16535433070866143
        },
        {
          "duration": 0.1276041666666572,
          "durationTicks": 98,
          "midi": 67,
          "name": "G4",
          "ticks": 138874,
          "time": 180.82552083333334,
          "velocity": 0.2283464566929134
        },
        {
          "duration": 0.2565104166666572,
          "durationTicks": 197,
          "midi": 63,
          "name": "D#4",
          "ticks": 138874,
          "time": 180.82552083333334,
          "velocity": 0.25984251968503935
        },
        {
          "duration": 0.12890625,
          "durationTicks": 99,
          "midi": 80,
          "name": "G#5",
          "ticks": 138892,
          "time": 180.84895833333334,
          "velocity": 0.3543307086614173
        },
        {
          "duration": 0,
          "durationTicks": 0,
          "midi": 70,
          "name": "A#4",
          "ticks": 138901,
          "time": 180.86067708333334,
          "velocity": 0.16535433070866143
        },
        {
          "duration": 0,
          "durationTicks": 0,
          "midi": 87,
          "name": "D#6",
          "ticks": 138901,
          "time": 180.86067708333334,
          "velocity": 0.11023622047244094
        },
        {
          "duration": 0,
          "durationTicks": 0,
          "midi": 86,
          "name": "D6",
          "ticks": 138911,
          "time": 180.87369791666666,
          "velocity": 0.05511811023622047
        },
        {
          "duration": 0,
          "durationTicks": 0,
          "midi": 77,
          "name": "F5",
          "ticks": 138920,
          "time": 180.88541666666666,
          "velocity": 0.08661417322834646
        },
        {
          "duration": 0.12890625,
          "durationTicks": 99,
          "midi": 75,
          "name": "D#5",
          "ticks": 138938,
          "time": 180.90885416666666,
          "velocity": 0.30708661417322836
        },
        {
          "duration": 0,
          "durationTicks": 0,
          "midi": 72,
          "name": "C5",
          "ticks": 138947,
          "time": 180.92057291666666,
          "velocity": 0.11811023622047244
        },
        {
          "duration": 0.2565104166666856,
          "durationTicks": 197,
          "midi": 84,
          "name": "C6",
          "ticks": 138947,
          "time": 180.92057291666666,
          "velocity": 0.31496062992125984
        },
        {
          "duration": 0,
          "durationTicks": 0,
          "midi": 90,
          "name": "F#6",
          "ticks": 138956,
          "time": 180.93229166666666,
          "velocity": 0.05511811023622047
        },
        {
          "duration": 0,
          "durationTicks": 0,
          "midi": 86,
          "name": "D6",
          "ticks": 138956,
          "time": 180.93229166666666,
          "velocity": 0.07874015748031496
        },
        {
          "duration": 0,
          "durationTicks": 0,
          "midi": 37,
          "name": "C#2",
          "ticks": 138965,
          "time": 180.94401041666666,
          "velocity": 0.25984251968503935
        },
        {
          "duration": 0,
          "durationTicks": 0,
          "midi": 94,
          "name": "A#6",
          "ticks": 138965,
          "time": 180.94401041666666,
          "velocity": 0.12598425196850394
        },
        {
          "duration": 0.12890625,
          "durationTicks": 99,
          "midi": 88,
          "name": "E6",
          "ticks": 138965,
          "time": 180.94401041666666,
          "velocity": 0.07086614173228346
        },
        {
          "duration": 0.12890625,
          "durationTicks": 99,
          "midi": 67,
          "name": "G4",
          "ticks": 138965,
          "time": 180.94401041666666,
          "velocity": 0.18110236220472442
        },
        {
          "duration": 0,
          "durationTicks": 0,
          "midi": 57,
          "name": "A3",
          "ticks": 138975,
          "time": 180.95703125,
          "velocity": 0.3228346456692913
        },
        {
          "duration": 0,
          "durationTicks": 0,
          "midi": 86,
          "name": "D6",
          "ticks": 138975,
          "time": 180.95703125,
          "velocity": 0.11811023622047244
        },
        {
          "duration": 0,
          "durationTicks": 0,
          "midi": 38,
          "name": "D2",
          "ticks": 138984,
          "time": 180.96875,
          "velocity": 0.1968503937007874
        },
        {
          "duration": 0,
          "durationTicks": 0,
          "midi": 77,
          "name": "F5",
          "ticks": 139003,
          "time": 180.99348958333334,
          "velocity": 0.07086614173228346
        },
        {
          "duration": 0,
          "durationTicks": 0,
          "midi": 61,
          "name": "C#4",
          "ticks": 139030,
          "time": 181.02864583333334,
          "velocity": 0.25196850393700787
        },
        {
          "duration": 0.1276041666666572,
          "durationTicks": 98,
          "midi": 80,
          "name": "G#5",
          "ticks": 139048,
          "time": 181.05208333333334,
          "velocity": 0.3228346456692913
        },
        {
          "duration": 0,
          "durationTicks": 0,
          "midi": 87,
          "name": "D#6",
          "ticks": 139058,
          "time": 181.06510416666666,
          "velocity": 0.09448818897637795
        },
        {
          "duration": 0.12760416666668561,
          "durationTicks": 98,
          "midi": 75,
          "name": "D#5",
          "ticks": 139094,
          "time": 181.11197916666666,
          "velocity": 0.30708661417322836
        },
        {
          "duration": 0,
          "durationTicks": 0,
          "midi": 94,
          "name": "A#6",
          "ticks": 139103,
          "time": 181.12369791666666,
          "velocity": 0.11023622047244094
        },
        {
          "duration": 0,
          "durationTicks": 0,
          "midi": 36,
          "name": "C2",
          "ticks": 139139,
          "time": 181.17057291666666,
          "velocity": 0.3228346456692913
        },
        {
          "duration": 0,
          "durationTicks": 0,
          "midi": 69,
          "name": "A4",
          "ticks": 139139,
          "time": 181.17057291666666,
          "velocity": 0.1732283464566929
        },
        {
          "duration": 0,
          "durationTicks": 0,
          "midi": 63,
          "name": "D#4",
          "ticks": 139149,
          "time": 181.18359375,
          "velocity": 0.1968503937007874
        },
        {
          "duration": 0,
          "durationTicks": 0,
          "midi": 91,
          "name": "G6",
          "ticks": 139149,
          "time": 181.18359375,
          "velocity": 0.12598425196850394
        },
        {
          "duration": 0.1276041666666572,
          "durationTicks": 98,
          "midi": 72,
          "name": "C5",
          "ticks": 139149,
          "time": 181.18359375,
          "velocity": 0.3228346456692913
        },
        {
          "duration": 0.2565104166666572,
          "durationTicks": 197,
          "midi": 60,
          "name": "C4",
          "ticks": 139149,
          "time": 181.18359375,
          "velocity": 0.2204724409448819
        },
        {
          "duration": 0.1276041666666572,
          "durationTicks": 98,
          "midi": 37,
          "name": "C#2",
          "ticks": 139158,
          "time": 181.1953125,
          "velocity": 0.3543307086614173
        },
        {
          "duration": 0.2565104166666572,
          "durationTicks": 197,
          "midi": 68,
          "name": "G#4",
          "ticks": 139158,
          "time": 181.1953125,
          "velocity": 0.2047244094488189
        },
        {
          "duration": 0.1276041666666572,
          "durationTicks": 98,
          "midi": 80,
          "name": "G#5",
          "ticks": 139167,
          "time": 181.20703125,
          "velocity": 0.33858267716535434
        },
        {
          "duration": 0.1276041666666572,
          "durationTicks": 98,
          "midi": 63,
          "name": "D#4",
          "ticks": 139176,
          "time": 181.21875,
          "velocity": 0.23622047244094488
        },
        {
          "duration": 0,
          "durationTicks": 0,
          "midi": 87,
          "name": "D#6",
          "ticks": 139194,
          "time": 181.2421875,
          "velocity": 0.10236220472440945
        },
        {
          "duration": 0.12890625,
          "durationTicks": 99,
          "midi": 75,
          "name": "D#5",
          "ticks": 139230,
          "time": 181.2890625,
          "velocity": 0.29133858267716534
        },
        {
          "duration": 0,
          "durationTicks": 0,
          "midi": 82,
          "name": "A#5",
          "ticks": 139240,
          "time": 181.30208333333334,
          "velocity": 0.09448818897637795
        },
        {
          "duration": 0,
          "durationTicks": 0,
          "midi": 56,
          "name": "G#3",
          "ticks": 139240,
          "time": 181.30208333333334,
          "velocity": 0.11023622047244094
        },
        {
          "duration": 0.12890625,
          "durationTicks": 99,
          "midi": 94,
          "name": "A#6",
          "ticks": 139240,
          "time": 181.30208333333334,
          "velocity": 0.11811023622047244
        },
        {
          "duration": 0,
          "durationTicks": 0,
          "midi": 36,
          "name": "C2",
          "ticks": 139249,
          "time": 181.31380208333334,
          "velocity": 0.3543307086614173
        },
        {
          "duration": 0,
          "durationTicks": 0,
          "midi": 65,
          "name": "F4",
          "ticks": 139249,
          "time": 181.31380208333334,
          "velocity": 0.2047244094488189
        },
        {
          "duration": 0.12890625,
          "durationTicks": 99,
          "midi": 63,
          "name": "D#4",
          "ticks": 139267,
          "time": 181.33723958333334,
          "velocity": 0.2283464566929134
        },
        {
          "duration": 0,
          "durationTicks": 0,
          "midi": 36,
          "name": "C2",
          "ticks": 139286,
          "time": 181.36197916666666,
          "velocity": 0.4015748031496063
        },
        {
          "duration": 0.08333333333334281,
          "durationTicks": 64,
          "midi": 72,
          "name": "C5",
          "ticks": 139295,
          "time": 181.37369791666666,
          "velocity": 0.29133858267716534
        },
        {
          "duration": 0,
          "durationTicks": 0,
          "midi": 38,
          "name": "D2",
          "ticks": 139305,
          "time": 181.38671875,
          "velocity": 0.3700787401574803
        },
        {
          "duration": 0,
          "durationTicks": 0,
          "midi": 91,
          "name": "G6",
          "ticks": 139305,
          "time": 181.38671875,
          "velocity": 0.11811023622047244
        },
        {
          "duration": 0,
          "durationTicks": 0,
          "midi": 37,
          "name": "C#2",
          "ticks": 139322,
          "time": 181.40885416666666,
          "velocity": 0.3779527559055118
        },
        {
          "duration": 0.1263020833333428,
          "durationTicks": 97,
          "midi": 89,
          "name": "F6",
          "ticks": 139341,
          "time": 181.43359375,
          "velocity": 0.12598425196850394
        },
        {
          "duration": 0.1263020833333428,
          "durationTicks": 97,
          "midi": 70,
          "name": "A#4",
          "ticks": 139341,
          "time": 181.43359375,
          "velocity": 0.31496062992125984
        },
        {
          "duration": 0.04427083333334281,
          "durationTicks": 34,
          "midi": 72,
          "name": "C5",
          "ticks": 139359,
          "time": 181.45703125,
          "velocity": 0.18110236220472442
        },
        {
          "duration": 0.1263020833333428,
          "durationTicks": 97,
          "midi": 80,
          "name": "G#5",
          "ticks": 139386,
          "time": 181.4921875,
          "velocity": 0.18110236220472442
        },
        {
          "duration": 0,
          "durationTicks": 0,
          "midi": 76,
          "name": "E5",
          "ticks": 139431,
          "time": 181.55078125,
          "velocity": 0.18110236220472442
        },
        {
          "duration": 0.1263020833333428,
          "durationTicks": 97,
          "midi": 72,
          "name": "C5",
          "ticks": 139431,
          "time": 181.55078125,
          "velocity": 0.30708661417322836
        },
        {
          "duration": 0,
          "durationTicks": 0,
          "midi": 56,
          "name": "G#3",
          "ticks": 139440,
          "time": 181.5625,
          "velocity": 0.08661417322834646
        },
        {
          "duration": 0,
          "durationTicks": 0,
          "midi": 91,
          "name": "G6",
          "ticks": 139440,
          "time": 181.5625,
          "velocity": 0.11023622047244094
        },
        {
          "duration": 0,
          "durationTicks": 0,
          "midi": 37,
          "name": "C#2",
          "ticks": 139450,
          "time": 181.57552083333334,
          "velocity": 0.3543307086614173
        },
        {
          "duration": 0,
          "durationTicks": 0,
          "midi": 75,
          "name": "D#5",
          "ticks": 139450,
          "time": 181.57552083333334,
          "velocity": 0.18110236220472442
        },
        {
          "duration": 0,
          "durationTicks": 0,
          "midi": 50,
          "name": "D3",
          "ticks": 139530,
          "time": 181.6796875,
          "velocity": 0.31496062992125984
        },
        {
          "duration": 0,
          "durationTicks": 0,
          "midi": 70,
          "name": "A#4",
          "ticks": 139540,
          "time": 181.69270833333334,
          "velocity": 0.2283464566929134
        },
        {
          "duration": 0.1276041666666572,
          "durationTicks": 98,
          "midi": 63,
          "name": "D#4",
          "ticks": 139540,
          "time": 181.69270833333334,
          "velocity": 0.2440944881889764
        },
        {
          "duration": 0.1276041666666572,
          "durationTicks": 98,
          "midi": 60,
          "name": "C4",
          "ticks": 139540,
          "time": 181.69270833333334,
          "velocity": 0.23622047244094488
        },
        {
          "duration": 0.3828125,
          "durationTicks": 294,
          "midi": 68,
          "name": "G#4",
          "ticks": 139540,
          "time": 181.69270833333334,
          "velocity": 0.23622047244094488
        },
        {
          "duration": 0.1276041666666572,
          "durationTicks": 98,
          "midi": 49,
          "name": "C#3",
          "ticks": 139549,
          "time": 181.70442708333334,
          "velocity": 0.3464566929133858
        },
        {
          "duration": 0,
          "durationTicks": 0,
          "midi": 31,
          "name": "G1",
          "ticks": 139558,
          "time": 181.71614583333334,
          "velocity": 0.29133858267716534
        },
        {
          "duration": 0.2252604166666572,
          "durationTicks": 173,
          "midi": 75,
          "name": "D#5",
          "ticks": 139612,
          "time": 181.78645833333334,
          "velocity": 0.3464566929133858
        },
        {
          "duration": 0,
          "durationTicks": 0,
          "midi": 82,
          "name": "A#5",
          "ticks": 139621,
          "time": 181.79817708333334,
          "velocity": 0.05511811023622047
        },
        {
          "duration": 0.12630208333331439,
          "durationTicks": 97,
          "midi": 63,
          "name": "D#4",
          "ticks": 139621,
          "time": 181.79817708333334,
          "velocity": 0.2440944881889764
        },
        {
          "duration": 0,
          "durationTicks": 0,
          "midi": 94,
          "name": "A#6",
          "ticks": 139631,
          "time": 181.81119791666666,
          "velocity": 0.11023622047244094
        },
        {
          "duration": 0.1263020833333428,
          "durationTicks": 97,
          "midi": 60,
          "name": "C4",
          "ticks": 139631,
          "time": 181.81119791666666,
          "velocity": 0.2204724409448819
        },
        {
          "duration": 0.1263020833333428,
          "durationTicks": 97,
          "midi": 65,
          "name": "F4",
          "ticks": 139676,
          "time": 181.86979166666666,
          "velocity": 0.2283464566929134
        },
        {
          "duration": 0,
          "durationTicks": 0,
          "midi": 57,
          "name": "A3",
          "ticks": 139721,
          "time": 181.92838541666666,
          "velocity": 0.25984251968503935
        },
        {
          "duration": 0,
          "durationTicks": 0,
          "midi": 72,
          "name": "C5",
          "ticks": 139721,
          "time": 181.92838541666666,
          "velocity": 0.2204724409448819
        },
        {
          "duration": 0,
          "durationTicks": 0,
          "midi": 82,
          "name": "A#5",
          "ticks": 139721,
          "time": 181.92838541666666,
          "velocity": 0.08661417322834646
        },
        {
          "duration": 0,
          "durationTicks": 0,
          "midi": 50,
          "name": "D3",
          "ticks": 139730,
          "time": 181.94010416666666,
          "velocity": 0.3464566929133858
        },
        {
          "duration": 0,
          "durationTicks": 0,
          "midi": 86,
          "name": "D6",
          "ticks": 139730,
          "time": 181.94010416666666,
          "velocity": 0.09448818897637795
        },
        {
          "duration": 0.12890625,
          "durationTicks": 99,
          "midi": 95,
          "name": "B6",
          "ticks": 139730,
          "time": 181.94010416666666,
          "velocity": 0.10236220472440945
        },
        {
          "duration": 0,
          "durationTicks": 0,
          "midi": 37,
          "name": "C#2",
          "ticks": 139739,
          "time": 181.95182291666666,
          "velocity": 0.2755905511811024
        },
        {
          "duration": 0.12890625,
          "durationTicks": 99,
          "midi": 49,
          "name": "C#3",
          "ticks": 139748,
          "time": 181.96354166666666,
          "velocity": 0.3464566929133858
        },
        {
          "duration": 0,
          "durationTicks": 0,
          "midi": 76,
          "name": "E5",
          "ticks": 139766,
          "time": 181.98697916666666,
          "velocity": 0.3464566929133858
        },
        {
          "duration": 0,
          "durationTicks": 0,
          "midi": 94,
          "name": "A#6",
          "ticks": 139785,
          "time": 182.01171875,
          "velocity": 0.07874015748031496
        },
        {
          "duration": 0.029947916666657193,
          "durationTicks": 23,
          "midi": 75,
          "name": "D#5",
          "ticks": 139785,
          "time": 182.01171875,
          "velocity": 0.31496062992125984
        },
        {
          "duration": 0,
          "durationTicks": 0,
          "midi": 57,
          "name": "A3",
          "ticks": 139794,
          "time": 182.0234375,
          "velocity": 0.14960629921259844
        },
        {
          "duration": 0.1276041666666572,
          "durationTicks": 98,
          "midi": 60,
          "name": "C4",
          "ticks": 139794,
          "time": 182.0234375,
          "velocity": 0.11023622047244094
        },
        {
          "duration": 0,
          "durationTicks": 0,
          "midi": 63,
          "name": "D#4",
          "ticks": 139803,
          "time": 182.03515625,
          "velocity": 0.12598425196850394
        },
        {
          "duration": 0.12630208333331439,
          "durationTicks": 97,
          "midi": 79,
          "name": "G5",
          "ticks": 139813,
          "time": 182.04817708333334,
          "velocity": 0.2047244094488189
        },
        {
          "duration": 0,
          "durationTicks": 0,
          "midi": 84,
          "name": "C6",
          "ticks": 139822,
          "time": 182.05989583333334,
          "velocity": 0.11023622047244094
        },
        {
          "duration": 0.12630208333331439,
          "durationTicks": 97,
          "midi": 77,
          "name": "F5",
          "ticks": 139822,
          "time": 182.05989583333334,
          "velocity": 0.3228346456692913
        },
        {
          "duration": 0,
          "durationTicks": 0,
          "midi": 65,
          "name": "F4",
          "ticks": 139841,
          "time": 182.08463541666666,
          "velocity": 0.07086614173228346
        },
        {
          "duration": 0,
          "durationTicks": 0,
          "midi": 75,
          "name": "D#5",
          "ticks": 139850,
          "time": 182.09635416666666,
          "velocity": 0.14960629921259844
        },
        {
          "duration": 0,
          "durationTicks": 0,
          "midi": 69,
          "name": "A4",
          "ticks": 139912,
          "time": 182.17708333333334,
          "velocity": 0.1968503937007874
        },
        {
          "duration": 0,
          "durationTicks": 0,
          "midi": 62,
          "name": "D4",
          "ticks": 139921,
          "time": 182.18880208333334,
          "velocity": 0.4251968503937008
        },
        {
          "duration": 0.1263020833333428,
          "durationTicks": 97,
          "midi": 68,
          "name": "G#4",
          "ticks": 139931,
          "time": 182.20182291666666,
          "velocity": 0.25196850393700787
        },
        {
          "duration": 0,
          "durationTicks": 0,
          "midi": 36,
          "name": "C2",
          "ticks": 139940,
          "time": 182.21354166666666,
          "velocity": 0.3937007874015748
        },
        {
          "duration": 0,
          "durationTicks": 0,
          "midi": 61,
          "name": "C#4",
          "ticks": 139940,
          "time": 182.21354166666666,
          "velocity": 0.3779527559055118
        },
        {
          "duration": 0,
          "durationTicks": 0,
          "midi": 60,
          "name": "C4",
          "ticks": 139957,
          "time": 182.23567708333334,
          "velocity": 0.3779527559055118
        },
        {
          "duration": 0,
          "durationTicks": 0,
          "midi": 63,
          "name": "D#4",
          "ticks": 139967,
          "time": 182.24869791666666,
          "velocity": 0.2677165354330709
        },
        {
          "duration": 0,
          "durationTicks": 0,
          "midi": 59,
          "name": "B3",
          "ticks": 139984,
          "time": 182.27083333333334,
          "velocity": 0.2755905511811024
        },
        {
          "duration": 0,
          "durationTicks": 0,
          "midi": 65,
          "name": "F4",
          "ticks": 139984,
          "time": 182.27083333333334,
          "velocity": 0.25196850393700787
        },
        {
          "duration": 0,
          "durationTicks": 0,
          "midi": 79,
          "name": "G5",
          "ticks": 139984,
          "time": 182.27083333333334,
          "velocity": 0.12598425196850394
        },
        {
          "duration": 0,
          "durationTicks": 0,
          "midi": 72,
          "name": "C5",
          "ticks": 139994,
          "time": 182.28385416666666,
          "velocity": 0.2992125984251969
        },
        {
          "duration": 0,
          "durationTicks": 0,
          "midi": 37,
          "name": "C#2",
          "ticks": 139994,
          "time": 182.28385416666666,
          "velocity": 0.3464566929133858
        },
        {
          "duration": 0,
          "durationTicks": 0,
          "midi": 78,
          "name": "F#5",
          "ticks": 140003,
          "time": 182.29557291666666,
          "velocity": 0.1732283464566929
        },
        {
          "duration": 0,
          "durationTicks": 0,
          "midi": 58,
          "name": "A#3",
          "ticks": 140003,
          "time": 182.29557291666666,
          "velocity": 0.4015748031496063
        },
        {
          "duration": 0.1263020833333428,
          "durationTicks": 97,
          "midi": 77,
          "name": "F5",
          "ticks": 140021,
          "time": 182.31901041666666,
          "velocity": 0.2047244094488189
        },
        {
          "duration": 0,
          "durationTicks": 0,
          "midi": 57,
          "name": "A3",
          "ticks": 140039,
          "time": 182.34244791666666,
          "velocity": 0.3937007874015748
        },
        {
          "duration": 0,
          "durationTicks": 0,
          "midi": 56,
          "name": "G#3",
          "ticks": 140057,
          "time": 182.36588541666666,
          "velocity": 0.36220472440944884
        },
        {
          "duration": 0,
          "durationTicks": 0,
          "midi": 55,
          "name": "G3",
          "ticks": 140111,
          "time": 182.43619791666666,
          "velocity": 0.2755905511811024
        },
        {
          "duration": 0,
          "durationTicks": 0,
          "midi": 41,
          "name": "F2",
          "ticks": 140120,
          "time": 182.44791666666666,
          "velocity": 0.4015748031496063
        },
        {
          "duration": 0.125,
          "durationTicks": 96,
          "midi": 63,
          "name": "D#4",
          "ticks": 140129,
          "time": 182.45963541666666,
          "velocity": 0.23622047244094488
        },
        {
          "duration": 0,
          "durationTicks": 0,
          "midi": 60,
          "name": "C4",
          "ticks": 140156,
          "time": 182.49479166666666,
          "velocity": 0.2677165354330709
        },
        {
          "duration": 0,
          "durationTicks": 0,
          "midi": 70,
          "name": "A#4",
          "ticks": 140156,
          "time": 182.49479166666666,
          "velocity": 0.33858267716535434
        },
        {
          "duration": 0,
          "durationTicks": 0,
          "midi": 86,
          "name": "D6",
          "ticks": 140165,
          "time": 182.50651041666666,
          "velocity": 0.07086614173228346
        },
        {
          "duration": 0.125,
          "durationTicks": 96,
          "midi": 41,
          "name": "F2",
          "ticks": 140165,
          "time": 182.50651041666666,
          "velocity": 0.3700787401574803
        },
        {
          "duration": 0.125,
          "durationTicks": 96,
          "midi": 77,
          "name": "F5",
          "ticks": 140183,
          "time": 182.52994791666666,
          "velocity": 0.07874015748031496
        },
        {
          "duration": 0,
          "durationTicks": 0,
          "midi": 71,
          "name": "B4",
          "ticks": 140201,
          "time": 182.55338541666666,
          "velocity": 0.25984251968503935
        },
        {
          "duration": 0.1263020833333428,
          "durationTicks": 97,
          "midi": 87,
          "name": "D#6",
          "ticks": 140201,
          "time": 182.55338541666666,
          "velocity": 0.13385826771653545
        },
        {
          "duration": 0.1263020833333428,
          "durationTicks": 97,
          "midi": 68,
          "name": "G#4",
          "ticks": 140201,
          "time": 182.55338541666666,
          "velocity": 0.33858267716535434
        },
        {
          "duration": 0,
          "durationTicks": 0,
          "midi": 54,
          "name": "F#3",
          "ticks": 140218,
          "time": 182.57552083333334,
          "velocity": 0.4015748031496063
        },
        {
          "duration": 0,
          "durationTicks": 0,
          "midi": 60,
          "name": "C4",
          "ticks": 140228,
          "time": 182.58854166666666,
          "velocity": 0.25984251968503935
        },
        {
          "duration": 0,
          "durationTicks": 0,
          "midi": 53,
          "name": "F3",
          "ticks": 140237,
          "time": 182.60026041666666,
          "velocity": 0.4015748031496063
        },
        {
          "duration": 0,
          "durationTicks": 0,
          "midi": 86,
          "name": "D6",
          "ticks": 140237,
          "time": 182.60026041666666,
          "velocity": 0.05511811023622047
        },
        {
          "duration": 0.12760416666668561,
          "durationTicks": 98,
          "midi": 63,
          "name": "D#4",
          "ticks": 140237,
          "time": 182.60026041666666,
          "velocity": 0.2755905511811024
        },
        {
          "duration": 0.1276041666666572,
          "durationTicks": 98,
          "midi": 52,
          "name": "E3",
          "ticks": 140254,
          "time": 182.62239583333334,
          "velocity": 0.3858267716535433
        },
        {
          "duration": 0,
          "durationTicks": 0,
          "midi": 60,
          "name": "C4",
          "ticks": 140264,
          "time": 182.63541666666666,
          "velocity": 0.25984251968503935
        },
        {
          "duration": 0.1276041666666572,
          "durationTicks": 98,
          "midi": 70,
          "name": "A#4",
          "ticks": 140281,
          "time": 182.65755208333334,
          "velocity": 0.15748031496062992
        },
        {
          "duration": 0,
          "durationTicks": 0,
          "midi": 39,
          "name": "D#2",
          "ticks": 140291,
          "time": 182.67057291666666,
          "velocity": 0.2440944881889764
        },
        {
          "duration": 0,
          "durationTicks": 0,
          "midi": 60,
          "name": "C4",
          "ticks": 140291,
          "time": 182.67057291666666,
          "velocity": 0.2283464566929134
        },
        {
          "duration": 0.12760416666668561,
          "durationTicks": 98,
          "midi": 84,
          "name": "C6",
          "ticks": 140300,
          "time": 182.68229166666666,
          "velocity": 0.12598425196850394
        },
        {
          "duration": 0,
          "durationTicks": 0,
          "midi": 72,
          "name": "C5",
          "ticks": 140309,
          "time": 182.69401041666666,
          "velocity": 0.07086614173228346
        },
        {
          "duration": 0,
          "durationTicks": 0,
          "midi": 60,
          "name": "C4",
          "ticks": 140319,
          "time": 182.70703125,
          "velocity": 0.25196850393700787
        },
        {
          "duration": 0.1276041666666572,
          "durationTicks": 98,
          "midi": 65,
          "name": "F4",
          "ticks": 140319,
          "time": 182.70703125,
          "velocity": 0.29133858267716534
        },
        {
          "duration": 0,
          "durationTicks": 0,
          "midi": 31,
          "name": "G1",
          "ticks": 140328,
          "time": 182.71875,
          "velocity": 0.29133858267716534
        },
        {
          "duration": 0,
          "durationTicks": 0,
          "midi": 53,
          "name": "F3",
          "ticks": 140328,
          "time": 182.71875,
          "velocity": 0.4015748031496063
        },
        {
          "duration": 0,
          "durationTicks": 0,
          "midi": 67,
          "name": "G4",
          "ticks": 140337,
          "time": 182.73046875,
          "velocity": 0.14960629921259844
        },
        {
          "duration": 0,
          "durationTicks": 0,
          "midi": 58,
          "name": "A#3",
          "ticks": 140355,
          "time": 182.75390625,
          "velocity": 0.18110236220472442
        },
        {
          "duration": 0,
          "durationTicks": 0,
          "midi": 30,
          "name": "F#1",
          "ticks": 140364,
          "time": 182.765625,
          "velocity": 0.18110236220472442
        },
        {
          "duration": 0,
          "durationTicks": 0,
          "midi": 60,
          "name": "C4",
          "ticks": 140364,
          "time": 182.765625,
          "velocity": 0.18110236220472442
        },
        {
          "duration": 0,
          "durationTicks": 0,
          "midi": 72,
          "name": "C5",
          "ticks": 140391,
          "time": 182.80078125,
          "velocity": 0.11023622047244094
        },
        {
          "duration": 0.1276041666666572,
          "durationTicks": 98,
          "midi": 82,
          "name": "A#5",
          "ticks": 140400,
          "time": 182.8125,
          "velocity": 0.12598425196850394
        },
        {
          "duration": 0.1276041666666572,
          "durationTicks": 98,
          "midi": 63,
          "name": "D#4",
          "ticks": 140400,
          "time": 182.8125,
          "velocity": 0.2992125984251969
        },
        {
          "duration": 0.1276041666666572,
          "durationTicks": 98,
          "midi": 41,
          "name": "F2",
          "ticks": 140400,
          "time": 182.8125,
          "velocity": 0.36220472440944884
        },
        {
          "duration": 0,
          "durationTicks": 0,
          "midi": 52,
          "name": "E3",
          "ticks": 140410,
          "time": 182.82552083333334,
          "velocity": 0.4094488188976378
        },
        {
          "duration": 0,
          "durationTicks": 0,
          "midi": 79,
          "name": "G5",
          "ticks": 140410,
          "time": 182.82552083333334,
          "velocity": 0.15748031496062992
        },
        {
          "duration": 0,
          "durationTicks": 0,
          "midi": 68,
          "name": "G#4",
          "ticks": 140410,
          "time": 182.82552083333334,
          "velocity": 0.1732283464566929
        },
        {
          "duration": 0,
          "durationTicks": 0,
          "midi": 51,
          "name": "D#3",
          "ticks": 140428,
          "time": 182.84895833333334,
          "velocity": 0.4015748031496063
        },
        {
          "duration": 0,
          "durationTicks": 0,
          "midi": 70,
          "name": "A#4",
          "ticks": 140437,
          "time": 182.86067708333334,
          "velocity": 0.16535433070866143
        },
        {
          "duration": 0,
          "durationTicks": 0,
          "midi": 79,
          "name": "G5",
          "ticks": 140455,
          "time": 182.88411458333334,
          "velocity": 0.13385826771653545
        },
        {
          "duration": 0,
          "durationTicks": 0,
          "midi": 50,
          "name": "D3",
          "ticks": 140455,
          "time": 182.88411458333334,
          "velocity": 0.3858267716535433
        },
        {
          "duration": 0,
          "durationTicks": 0,
          "midi": 60,
          "name": "C4",
          "ticks": 140473,
          "time": 182.90755208333334,
          "velocity": 0.1889763779527559
        },
        {
          "duration": 0,
          "durationTicks": 0,
          "midi": 64,
          "name": "E4",
          "ticks": 140482,
          "time": 182.91927083333334,
          "velocity": 0.2440944881889764
        },
        {
          "duration": 0,
          "durationTicks": 0,
          "midi": 86,
          "name": "D6",
          "ticks": 140491,
          "time": 182.93098958333334,
          "velocity": 0.10236220472440945
        },
        {
          "duration": 0,
          "durationTicks": 0,
          "midi": 80,
          "name": "G#5",
          "ticks": 140491,
          "time": 182.93098958333334,
          "velocity": 0.14173228346456693
        },
        {
          "duration": 0,
          "durationTicks": 0,
          "midi": 52,
          "name": "E3",
          "ticks": 140501,
          "time": 182.94401041666666,
          "velocity": 0.3464566929133858
        },
        {
          "duration": 0,
          "durationTicks": 0,
          "midi": 68,
          "name": "G#4",
          "ticks": 140501,
          "time": 182.94401041666666,
          "velocity": 0.30708661417322836
        },
        {
          "duration": 0,
          "durationTicks": 0,
          "midi": 87,
          "name": "D#6",
          "ticks": 140501,
          "time": 182.94401041666666,
          "velocity": 0.14960629921259844
        },
        {
          "duration": 0.1302083333333428,
          "durationTicks": 100,
          "midi": 63,
          "name": "D#4",
          "ticks": 140510,
          "time": 182.95572916666666,
          "velocity": 0.25984251968503935
        },
        {
          "duration": 0,
          "durationTicks": 0,
          "midi": 38,
          "name": "D2",
          "ticks": 140519,
          "time": 182.96744791666666,
          "velocity": 0.2047244094488189
        },
        {
          "duration": 0,
          "durationTicks": 0,
          "midi": 58,
          "name": "A#3",
          "ticks": 140519,
          "time": 182.96744791666666,
          "velocity": 0.2992125984251969
        },
        {
          "duration": 0,
          "durationTicks": 0,
          "midi": 51,
          "name": "D#3",
          "ticks": 140519,
          "time": 182.96744791666666,
          "velocity": 0.3937007874015748
        },
        {
          "duration": 0,
          "durationTicks": 0,
          "midi": 68,
          "name": "G#4",
          "ticks": 140528,
          "time": 182.97916666666666,
          "velocity": 0.33858267716535434
        },
        {
          "duration": 0,
          "durationTicks": 0,
          "midi": 77,
          "name": "F5",
          "ticks": 140538,
          "time": 182.9921875,
          "velocity": 0.05511811023622047
        },
        {
          "duration": 0,
          "durationTicks": 0,
          "midi": 52,
          "name": "E3",
          "ticks": 140547,
          "time": 183.00390625,
          "velocity": 0.3543307086614173
        },
        {
          "duration": 0,
          "durationTicks": 0,
          "midi": 86,
          "name": "D6",
          "ticks": 140556,
          "time": 183.015625,
          "velocity": 0.07086614173228346
        },
        {
          "duration": 0,
          "durationTicks": 0,
          "midi": 68,
          "name": "G#4",
          "ticks": 140566,
          "time": 183.02864583333334,
          "velocity": 0.30708661417322836
        },
        {
          "duration": 0,
          "durationTicks": 0,
          "midi": 79,
          "name": "G5",
          "ticks": 140566,
          "time": 183.02864583333334,
          "velocity": 0.07874015748031496
        },
        {
          "duration": 0,
          "durationTicks": 0,
          "midi": 50,
          "name": "D3",
          "ticks": 140575,
          "time": 183.04036458333334,
          "velocity": 0.3464566929133858
        },
        {
          "duration": 0,
          "durationTicks": 0,
          "midi": 58,
          "name": "A#3",
          "ticks": 140584,
          "time": 183.05208333333334,
          "velocity": 0.2677165354330709
        },
        {
          "duration": 0,
          "durationTicks": 0,
          "midi": 67,
          "name": "G4",
          "ticks": 140584,
          "time": 183.05208333333334,
          "velocity": 0.2125984251968504
        },
        {
          "duration": 0.12760416666668561,
          "durationTicks": 98,
          "midi": 84,
          "name": "C6",
          "ticks": 140594,
          "time": 183.06510416666666,
          "velocity": 0.11023622047244094
        },
        {
          "duration": 0.12760416666668561,
          "durationTicks": 98,
          "midi": 48,
          "name": "C3",
          "ticks": 140594,
          "time": 183.06510416666666,
          "velocity": 0.3779527559055118
        },
        {
          "duration": 0.12760416666668561,
          "durationTicks": 98,
          "midi": 65,
          "name": "F4",
          "ticks": 140603,
          "time": 183.07682291666666,
          "velocity": 0.3228346456692913
        },
        {
          "duration": 0,
          "durationTicks": 0,
          "midi": 58,
          "name": "A#3",
          "ticks": 140612,
          "time": 183.08854166666666,
          "velocity": 0.25984251968503935
        },
        {
          "duration": 0,
          "durationTicks": 0,
          "midi": 58,
          "name": "A#3",
          "ticks": 140639,
          "time": 183.12369791666666,
          "velocity": 0.25196850393700787
        },
        {
          "duration": 0.09635416666668561,
          "durationTicks": 74,
          "midi": 67,
          "name": "G4",
          "ticks": 140666,
          "time": 183.15885416666666,
          "velocity": 0.23622047244094488
        },
        {
          "duration": 0,
          "durationTicks": 0,
          "midi": 77,
          "name": "F5",
          "ticks": 140675,
          "time": 183.17057291666666,
          "velocity": 0.08661417322834646
        },
        {
          "duration": 0.12890625,
          "durationTicks": 99,
          "midi": 82,
          "name": "A#5",
          "ticks": 140685,
          "time": 183.18359375,
          "velocity": 0.09448818897637795
        },
        {
          "duration": 0,
          "durationTicks": 0,
          "midi": 48,
          "name": "C3",
          "ticks": 140694,
          "time": 183.1953125,
          "velocity": 0.4330708661417323
        },
        {
          "duration": 0,
          "durationTicks": 0,
          "midi": 64,
          "name": "E4",
          "ticks": 140694,
          "time": 183.1953125,
          "velocity": 0.25196850393700787
        },
        {
          "duration": 0,
          "durationTicks": 0,
          "midi": 81,
          "name": "A5",
          "ticks": 140694,
          "time": 183.1953125,
          "velocity": 0.08661417322834646
        },
        {
          "duration": 0,
          "durationTicks": 0,
          "midi": 47,
          "name": "B2",
          "ticks": 140703,
          "time": 183.20703125,
          "velocity": 0.47244094488188976
        },
        {
          "duration": 0,
          "durationTicks": 0,
          "midi": 75,
          "name": "D#5",
          "ticks": 140703,
          "time": 183.20703125,
          "velocity": 0.11023622047244094
        },
        {
          "duration": 0.12890625,
          "durationTicks": 99,
          "midi": 63,
          "name": "D#4",
          "ticks": 140713,
          "time": 183.22005208333334,
          "velocity": 0.2440944881889764
        },
        {
          "duration": 0,
          "durationTicks": 0,
          "midi": 68,
          "name": "G#4",
          "ticks": 140722,
          "time": 183.23177083333334,
          "velocity": 0.1889763779527559
        },
        {
          "duration": 0,
          "durationTicks": 0,
          "midi": 46,
          "name": "A#2",
          "ticks": 140731,
          "time": 183.24348958333334,
          "velocity": 0.4566929133858268
        },
        {
          "duration": 0.032552083333314386,
          "durationTicks": 25,
          "midi": 67,
          "name": "G4",
          "ticks": 140740,
          "time": 183.25520833333334,
          "velocity": 0.16535433070866143
        },
        {
          "duration": 0.12760416666668561,
          "durationTicks": 98,
          "midi": 79,
          "name": "G5",
          "ticks": 140750,
          "time": 183.26822916666666,
          "velocity": 0.1732283464566929
        },
        {
          "duration": 0,
          "durationTicks": 0,
          "midi": 45,
          "name": "A2",
          "ticks": 140777,
          "time": 183.30338541666666,
          "velocity": 0.4094488188976378
        },
        {
          "duration": 0,
          "durationTicks": 0,
          "midi": 61,
          "name": "C#4",
          "ticks": 140777,
          "time": 183.30338541666666,
          "velocity": 0.2755905511811024
        },
        {
          "duration": 0,
          "durationTicks": 0,
          "midi": 43,
          "name": "G2",
          "ticks": 140786,
          "time": 183.31510416666666,
          "velocity": 0.3464566929133858
        },
        {
          "duration": 0.12760416666668561,
          "durationTicks": 98,
          "midi": 60,
          "name": "C4",
          "ticks": 140795,
          "time": 183.32682291666666,
          "velocity": 0.30708661417322836
        },
        {
          "duration": 0,
          "durationTicks": 0,
          "midi": 65,
          "name": "F4",
          "ticks": 140805,
          "time": 183.33984375,
          "velocity": 0.1968503937007874
        },
        {
          "duration": 0,
          "durationTicks": 0,
          "midi": 45,
          "name": "A2",
          "ticks": 140841,
          "time": 183.38671875,
          "velocity": 0.3464566929133858
        },
        {
          "duration": 0,
          "durationTicks": 0,
          "midi": 71,
          "name": "B4",
          "ticks": 140877,
          "time": 183.43359375,
          "velocity": 0.1732283464566929
        },
        {
          "duration": 0.1263020833333428,
          "durationTicks": 97,
          "midi": 80,
          "name": "G#5",
          "ticks": 140877,
          "time": 183.43359375,
          "velocity": 0.16535433070866143
        },
        {
          "duration": 0.1263020833333428,
          "durationTicks": 97,
          "midi": 89,
          "name": "F6",
          "ticks": 140877,
          "time": 183.43359375,
          "velocity": 0.2047244094488189
        },
        {
          "duration": 0.1263020833333428,
          "durationTicks": 97,
          "midi": 61,
          "name": "C#4",
          "ticks": 140886,
          "time": 183.4453125,
          "velocity": 0.36220472440944884
        },
        {
          "duration": 0,
          "durationTicks": 0,
          "midi": 56,
          "name": "G#3",
          "ticks": 140896,
          "time": 183.45833333333334,
          "velocity": 0.25984251968503935
        },
        {
          "duration": 0,
          "durationTicks": 0,
          "midi": 65,
          "name": "F4",
          "ticks": 140896,
          "time": 183.45833333333334,
          "velocity": 0.2283464566929134
        },
        {
          "duration": 0.10416666666665719,
          "durationTicks": 80,
          "midi": 30,
          "name": "F#1",
          "ticks": 140896,
          "time": 183.45833333333334,
          "velocity": 0.41732283464566927
        },
        {
          "duration": 0,
          "durationTicks": 0,
          "midi": 56,
          "name": "G#3",
          "ticks": 140922,
          "time": 183.4921875,
          "velocity": 0.25984251968503935
        },
        {
          "duration": 0.08333333333334281,
          "durationTicks": 64,
          "midi": 65,
          "name": "F4",
          "ticks": 140922,
          "time": 183.4921875,
          "velocity": 0.2283464566929134
        },
        {
          "duration": 0.1263020833333428,
          "durationTicks": 97,
          "midi": 85,
          "name": "C#6",
          "ticks": 140922,
          "time": 183.4921875,
          "velocity": 0.2204724409448819
        },
        {
          "duration": 0,
          "durationTicks": 0,
          "midi": 84,
          "name": "C6",
          "ticks": 140932,
          "time": 183.50520833333334,
          "velocity": 0.07086614173228346
        },
        {
          "duration": 0,
          "durationTicks": 0,
          "midi": 62,
          "name": "D4",
          "ticks": 140976,
          "time": 183.5625,
          "velocity": 0.2283464566929134
        },
        {
          "duration": 0,
          "durationTicks": 0,
          "midi": 66,
          "name": "F#4",
          "ticks": 140976,
          "time": 183.5625,
          "velocity": 0.25196850393700787
        },
        {
          "duration": 0.022135416666657193,
          "durationTicks": 17,
          "midi": 30,
          "name": "F#1",
          "ticks": 140976,
          "time": 183.5625,
          "velocity": 0.36220472440944884
        },
        {
          "duration": 0.1263020833333428,
          "durationTicks": 97,
          "midi": 82,
          "name": "A#5",
          "ticks": 140976,
          "time": 183.5625,
          "velocity": 0.2283464566929134
        },
        {
          "duration": 0.1263020833333428,
          "durationTicks": 97,
          "midi": 75,
          "name": "D#5",
          "ticks": 140976,
          "time": 183.5625,
          "velocity": 0.11023622047244094
        },
        {
          "duration": 0.04296875,
          "durationTicks": 33,
          "midi": 65,
          "name": "F4",
          "ticks": 140986,
          "time": 183.57552083333334,
          "velocity": 0.2440944881889764
        },
        {
          "duration": 0,
          "durationTicks": 0,
          "midi": 77,
          "name": "F5",
          "ticks": 140986,
          "time": 183.57552083333334,
          "velocity": 0.2677165354330709
        },
        {
          "duration": 0,
          "durationTicks": 0,
          "midi": 57,
          "name": "A3",
          "ticks": 140995,
          "time": 183.58723958333334,
          "velocity": 0.25984251968503935
        },
        {
          "duration": 0,
          "durationTicks": 0,
          "midi": 67,
          "name": "G4",
          "ticks": 140995,
          "time": 183.58723958333334,
          "velocity": 0.1889763779527559
        },
        {
          "duration": 0,
          "durationTicks": 0,
          "midi": 49,
          "name": "C#3",
          "ticks": 140995,
          "time": 183.58723958333334,
          "velocity": 0.09448818897637795
        },
        {
          "duration": 0.25390625,
          "durationTicks": 195,
          "midi": 61,
          "name": "C#4",
          "ticks": 140995,
          "time": 183.58723958333334,
          "velocity": 0.29133858267716534
        },
        {
          "duration": 0.09375,
          "durationTicks": 72,
          "midi": 65,
          "name": "F4",
          "ticks": 141013,
          "time": 183.61067708333334,
          "velocity": 0.36220472440944884
        },
        {
          "duration": 0,
          "durationTicks": 0,
          "midi": 84,
          "name": "C6",
          "ticks": 141022,
          "time": 183.62239583333334,
          "velocity": 0.13385826771653545
        },
        {
          "duration": 0.1276041666666572,
          "durationTicks": 98,
          "midi": 78,
          "name": "F#5",
          "ticks": 141022,
          "time": 183.62239583333334,
          "velocity": 0.28346456692913385
        },
        {
          "duration": 0,
          "durationTicks": 0,
          "midi": 57,
          "name": "A3",
          "ticks": 141058,
          "time": 183.66927083333334,
          "velocity": 0.2677165354330709
        },
        {
          "duration": 0,
          "durationTicks": 0,
          "midi": 56,
          "name": "G#3",
          "ticks": 141076,
          "time": 183.69270833333334,
          "velocity": 0.25196850393700787
        },
        {
          "duration": 0,
          "durationTicks": 0,
          "midi": 67,
          "name": "G4",
          "ticks": 141076,
          "time": 183.69270833333334,
          "velocity": 0.28346456692913385
        },
        {
          "duration": 0,
          "durationTicks": 0,
          "midi": 49,
          "name": "C#3",
          "ticks": 141085,
          "time": 183.70442708333334,
          "velocity": 0.07086614173228346
        },
        {
          "duration": 0.03385416666665719,
          "durationTicks": 26,
          "midi": 65,
          "name": "F4",
          "ticks": 141085,
          "time": 183.70442708333334,
          "velocity": 0.2992125984251969
        },
        {
          "duration": 0,
          "durationTicks": 0,
          "midi": 30,
          "name": "F#1",
          "ticks": 141085,
          "time": 183.70442708333334,
          "velocity": 0.36220472440944884
        },
        {
          "duration": 0,
          "durationTicks": 0,
          "midi": 75,
          "name": "D#5",
          "ticks": 141094,
          "time": 183.71614583333334,
          "velocity": 0.06299212598425197
        },
        {
          "duration": 0,
          "durationTicks": 0,
          "midi": 56,
          "name": "G#3",
          "ticks": 141104,
          "time": 183.72916666666666,
          "velocity": 0.18110236220472442
        },
        {
          "duration": 0,
          "durationTicks": 0,
          "midi": 74,
          "name": "D5",
          "ticks": 141104,
          "time": 183.72916666666666,
          "velocity": 0.18110236220472442
        },
        {
          "duration": 0,
          "durationTicks": 0,
          "midi": 85,
          "name": "C#6",
          "ticks": 141104,
          "time": 183.72916666666666,
          "velocity": 0.07086614173228346
        },
        {
          "duration": 0.1263020833333428,
          "durationTicks": 97,
          "midi": 66,
          "name": "F#4",
          "ticks": 141113,
          "time": 183.74088541666666,
          "velocity": 0.3543307086614173
        },
        {
          "duration": 0.12630208333331439,
          "durationTicks": 97,
          "midi": 70,
          "name": "A#4",
          "ticks": 141157,
          "time": 183.79817708333334,
          "velocity": 0.3543307086614173
        },
        {
          "duration": 0,
          "durationTicks": 0,
          "midi": 55,
          "name": "G3",
          "ticks": 141167,
          "time": 183.81119791666666,
          "velocity": 0.1968503937007874
        },
        {
          "duration": 0.1263020833333428,
          "durationTicks": 97,
          "midi": 89,
          "name": "F6",
          "ticks": 141167,
          "time": 183.81119791666666,
          "velocity": 0.1889763779527559
        },
        {
          "duration": 0,
          "durationTicks": 0,
          "midi": 77,
          "name": "F5",
          "ticks": 141176,
          "time": 183.82291666666666,
          "velocity": 0.16535433070866143
        },
        {
          "duration": 0.1263020833333428,
          "durationTicks": 97,
          "midi": 61,
          "name": "C#4",
          "ticks": 141176,
          "time": 183.82291666666666,
          "velocity": 0.23622047244094488
        },
        {
          "duration": 0.1263020833333428,
          "durationTicks": 97,
          "midi": 42,
          "name": "F#2",
          "ticks": 141176,
          "time": 183.82291666666666,
          "velocity": 0.3464566929133858
        },
        {
          "duration": 0,
          "durationTicks": 0,
          "midi": 65,
          "name": "F4",
          "ticks": 141185,
          "time": 183.83463541666666,
          "velocity": 0.23622047244094488
        },
        {
          "duration": 0,
          "durationTicks": 0,
          "midi": 57,
          "name": "A3",
          "ticks": 141195,
          "time": 183.84765625,
          "velocity": 0.2755905511811024
        },
        {
          "duration": 0,
          "durationTicks": 0,
          "midi": 75,
          "name": "D#5",
          "ticks": 141195,
          "time": 183.84765625,
          "velocity": 0.05511811023622047
        },
        {
          "duration": 0,
          "durationTicks": 0,
          "midi": 57,
          "name": "A3",
          "ticks": 141221,
          "time": 183.88151041666666,
          "velocity": 0.2677165354330709
        },
        {
          "duration": 0,
          "durationTicks": 0,
          "midi": 65,
          "name": "F4",
          "ticks": 141221,
          "time": 183.88151041666666,
          "velocity": 0.1968503937007874
        },
        {
          "duration": 0,
          "durationTicks": 0,
          "midi": 67,
          "name": "G4",
          "ticks": 141221,
          "time": 183.88151041666666,
          "velocity": 0.18110236220472442
        },
        {
          "duration": 0.1263020833333428,
          "durationTicks": 97,
          "midi": 84,
          "name": "C6",
          "ticks": 141221,
          "time": 183.88151041666666,
          "velocity": 0.13385826771653545
        },
        {
          "duration": 0.1263020833333428,
          "durationTicks": 97,
          "midi": 85,
          "name": "C#6",
          "ticks": 141221,
          "time": 183.88151041666666,
          "velocity": 0.2992125984251969
        },
        {
          "duration": 0,
          "durationTicks": 0,
          "midi": 56,
          "name": "G#3",
          "ticks": 141239,
          "time": 183.90494791666666,
          "velocity": 0.2440944881889764
        },
        {
          "duration": 0,
          "durationTicks": 0,
          "midi": 66,
          "name": "F#4",
          "ticks": 141239,
          "time": 183.90494791666666,
          "velocity": 0.2755905511811024
        },
        {
          "duration": 0,
          "durationTicks": 0,
          "midi": 73,
          "name": "C#5",
          "ticks": 141257,
          "time": 183.92838541666666,
          "velocity": 0.2755905511811024
        },
        {
          "duration": 0.1263020833333428,
          "durationTicks": 97,
          "midi": 80,
          "name": "G#5",
          "ticks": 141257,
          "time": 183.92838541666666,
          "velocity": 0.11811023622047244
        },
        {
          "duration": 0,
          "durationTicks": 0,
          "midi": 56,
          "name": "G#3",
          "ticks": 141266,
          "time": 183.94010416666666,
          "velocity": 0.2992125984251969
        },
        {
          "duration": 0,
          "durationTicks": 0,
          "midi": 78,
          "name": "F#5",
          "ticks": 141266,
          "time": 183.94010416666666,
          "velocity": 0.1732283464566929
        },
        {
          "duration": 0,
          "durationTicks": 0,
          "midi": 86,
          "name": "D6",
          "ticks": 141266,
          "time": 183.94010416666666,
          "velocity": 0.08661417322834646
        },
        {
          "duration": 0,
          "durationTicks": 0,
          "midi": 65,
          "name": "F4",
          "ticks": 141266,
          "time": 183.94010416666666,
          "velocity": 0.25984251968503935
        },
        {
          "duration": 0,
          "durationTicks": 0,
          "midi": 82,
          "name": "A#5",
          "ticks": 141275,
          "time": 183.95182291666666,
          "velocity": 0.07874015748031496
        },
        {
          "duration": 0,
          "durationTicks": 0,
          "midi": 79,
          "name": "G5",
          "ticks": 141285,
          "time": 183.96484375,
          "velocity": 0.18110236220472442
        },
        {
          "duration": 0,
          "durationTicks": 0,
          "midi": 38,
          "name": "D2",
          "ticks": 141285,
          "time": 183.96484375,
          "velocity": 0.25196850393700787
        },
        {
          "duration": 0,
          "durationTicks": 0,
          "midi": 56,
          "name": "G#3",
          "ticks": 141294,
          "time": 183.9765625,
          "velocity": 0.2125984251968504
        },
        {
          "duration": 0.1263020833333428,
          "durationTicks": 97,
          "midi": 73,
          "name": "C#5",
          "ticks": 141294,
          "time": 183.9765625,
          "velocity": 0.3543307086614173
        },
        {
          "duration": 0,
          "durationTicks": 0,
          "midi": 61,
          "name": "C#4",
          "ticks": 141311,
          "time": 183.99869791666666,
          "velocity": 0.2125984251968504
        },
        {
          "duration": 0,
          "durationTicks": 0,
          "midi": 66,
          "name": "F#4",
          "ticks": 141311,
          "time": 183.99869791666666,
          "velocity": 0.2440944881889764
        },
        {
          "duration": 0,
          "durationTicks": 0,
          "midi": 57,
          "name": "A3",
          "ticks": 141338,
          "time": 184.03385416666666,
          "velocity": 0.1968503937007874
        },
        {
          "duration": 0,
          "durationTicks": 0,
          "midi": 84,
          "name": "C6",
          "ticks": 141356,
          "time": 184.05729166666666,
          "velocity": 0.08661417322834646
        },
        {
          "duration": 0.1263020833333428,
          "durationTicks": 97,
          "midi": 70,
          "name": "A#4",
          "ticks": 141356,
          "time": 184.05729166666666,
          "velocity": 0.25984251968503935
        },
        {
          "duration": 0.1263020833333428,
          "durationTicks": 97,
          "midi": 77,
          "name": "F5",
          "ticks": 141356,
          "time": 184.05729166666666,
          "velocity": 0.29133858267716534
        },
        {
          "duration": 0,
          "durationTicks": 0,
          "midi": 58,
          "name": "A#3",
          "ticks": 141365,
          "time": 184.06901041666666,
          "velocity": 0.2047244094488189
        },
        {
          "duration": 0,
          "durationTicks": 0,
          "midi": 88,
          "name": "E6",
          "ticks": 141365,
          "time": 184.06901041666666,
          "velocity": 0.25196850393700787
        },
        {
          "duration": 0.1263020833333428,
          "durationTicks": 97,
          "midi": 30,
          "name": "F#1",
          "ticks": 141375,
          "time": 184.08203125,
          "velocity": 0.36220472440944884
        },
        {
          "duration": 0,
          "durationTicks": 0,
          "midi": 74,
          "name": "D5",
          "ticks": 141384,
          "time": 184.09375,
          "velocity": 0.13385826771653545
        },
        {
          "duration": 0,
          "durationTicks": 0,
          "midi": 54,
          "name": "F#3",
          "ticks": 141411,
          "time": 184.12890625,
          "velocity": 0.2125984251968504
        },
        {
          "duration": 0,
          "durationTicks": 0,
          "midi": 73,
          "name": "C#5",
          "ticks": 141420,
          "time": 184.140625,
          "velocity": 0.2204724409448819
        },
        {
          "duration": 0,
          "durationTicks": 0,
          "midi": 49,
          "name": "C#3",
          "ticks": 141438,
          "time": 184.1640625,
          "velocity": 0.1732283464566929
        },
        {
          "duration": 0,
          "durationTicks": 0,
          "midi": 51,
          "name": "D#3",
          "ticks": 141455,
          "time": 184.18619791666666,
          "velocity": 0.2204724409448819
        },
        {
          "duration": 0,
          "durationTicks": 0,
          "midi": 80,
          "name": "G#5",
          "ticks": 141455,
          "time": 184.18619791666666,
          "velocity": 0.2677165354330709
        },
        {
          "duration": 0,
          "durationTicks": 0,
          "midi": 85,
          "name": "C#6",
          "ticks": 141465,
          "time": 184.19921875,
          "velocity": 0.1732283464566929
        },
        {
          "duration": 0,
          "durationTicks": 0,
          "midi": 88,
          "name": "E6",
          "ticks": 141465,
          "time": 184.19921875,
          "velocity": 0.25984251968503935
        },
        {
          "duration": 0.1276041666666572,
          "durationTicks": 98,
          "midi": 61,
          "name": "C#4",
          "ticks": 141465,
          "time": 184.19921875,
          "velocity": 0.2283464566929134
        },
        {
          "duration": 0.1276041666666572,
          "durationTicks": 98,
          "midi": 65,
          "name": "F4",
          "ticks": 141465,
          "time": 184.19921875,
          "velocity": 0.2283464566929134
        },
        {
          "duration": 0,
          "durationTicks": 0,
          "midi": 81,
          "name": "A5",
          "ticks": 141474,
          "time": 184.2109375,
          "velocity": 0.2992125984251969
        },
        {
          "duration": 0.1276041666666572,
          "durationTicks": 98,
          "midi": 87,
          "name": "D#6",
          "ticks": 141483,
          "time": 184.22265625,
          "velocity": 0.14173228346456693
        },
        {
          "duration": 0.1276041666666572,
          "durationTicks": 98,
          "midi": 80,
          "name": "G#5",
          "ticks": 141493,
          "time": 184.23567708333334,
          "velocity": 0.4015748031496063
        },
        {
          "duration": 0,
          "durationTicks": 0,
          "midi": 57,
          "name": "A3",
          "ticks": 141510,
          "time": 184.2578125,
          "velocity": 0.28346456692913385
        },
        {
          "duration": 0,
          "durationTicks": 0,
          "midi": 49,
          "name": "C#3",
          "ticks": 141519,
          "time": 184.26953125,
          "velocity": 0.1968503937007874
        },
        {
          "duration": 0,
          "durationTicks": 0,
          "midi": 56,
          "name": "G#3",
          "ticks": 141529,
          "time": 184.28255208333334,
          "velocity": 0.25984251968503935
        },
        {
          "duration": 0.1276041666666572,
          "durationTicks": 98,
          "midi": 84,
          "name": "C6",
          "ticks": 141529,
          "time": 184.28255208333334,
          "velocity": 0.3464566929133858
        },
        {
          "duration": 0,
          "durationTicks": 0,
          "midi": 50,
          "name": "D3",
          "ticks": 141546,
          "time": 184.3046875,
          "velocity": 0.18110236220472442
        },
        {
          "duration": 0,
          "durationTicks": 0,
          "midi": 88,
          "name": "E6",
          "ticks": 141556,
          "time": 184.31770833333334,
          "velocity": 0.2677165354330709
        },
        {
          "duration": 0,
          "durationTicks": 0,
          "midi": 32,
          "name": "G#1",
          "ticks": 141565,
          "time": 184.32942708333334,
          "velocity": 0.3464566929133858
        },
        {
          "duration": 0,
          "durationTicks": 0,
          "midi": 86,
          "name": "D6",
          "ticks": 141565,
          "time": 184.32942708333334,
          "velocity": 0.09448818897637795
        },
        {
          "duration": 0,
          "durationTicks": 0,
          "midi": 65,
          "name": "F4",
          "ticks": 141565,
          "time": 184.32942708333334,
          "velocity": 0.12598425196850394
        },
        {
          "duration": 0,
          "durationTicks": 0,
          "midi": 46,
          "name": "A#2",
          "ticks": 141574,
          "time": 184.34114583333334,
          "velocity": 0.1968503937007874
        },
        {
          "duration": 0,
          "durationTicks": 0,
          "midi": 85,
          "name": "C#6",
          "ticks": 141574,
          "time": 184.34114583333334,
          "velocity": 0.1968503937007874
        },
        {
          "duration": 0.2565104166666856,
          "durationTicks": 197,
          "midi": 80,
          "name": "G#5",
          "ticks": 141593,
          "time": 184.36588541666666,
          "velocity": 0.3779527559055118
        },
        {
          "duration": 0,
          "durationTicks": 0,
          "midi": 32,
          "name": "G#1",
          "ticks": 141602,
          "time": 184.37760416666666,
          "velocity": 0.3464566929133858
        },
        {
          "duration": 0,
          "durationTicks": 0,
          "midi": 61,
          "name": "C#4",
          "ticks": 141602,
          "time": 184.37760416666666,
          "velocity": 0.18110236220472442
        },
        {
          "duration": 0,
          "durationTicks": 0,
          "midi": 51,
          "name": "D#3",
          "ticks": 141611,
          "time": 184.38932291666666,
          "velocity": 0.07086614173228346
        },
        {
          "duration": 0,
          "durationTicks": 0,
          "midi": 88,
          "name": "E6",
          "ticks": 141611,
          "time": 184.38932291666666,
          "velocity": 0.2677165354330709
        },
        {
          "duration": 0,
          "durationTicks": 0,
          "midi": 87,
          "name": "D#6",
          "ticks": 141629,
          "time": 184.41276041666666,
          "velocity": 0.11811023622047244
        },
        {
          "duration": 0,
          "durationTicks": 0,
          "midi": 33,
          "name": "A1",
          "ticks": 141638,
          "time": 184.42447916666666,
          "velocity": 0.3464566929133858
        },
        {
          "duration": 0,
          "durationTicks": 0,
          "midi": 55,
          "name": "G3",
          "ticks": 141648,
          "time": 184.4375,
          "velocity": 0.1889763779527559
        },
        {
          "duration": 0,
          "durationTicks": 0,
          "midi": 66,
          "name": "F#4",
          "ticks": 141648,
          "time": 184.4375,
          "velocity": 0.2047244094488189
        },
        {
          "duration": 0,
          "durationTicks": 0,
          "midi": 76,
          "name": "E5",
          "ticks": 141648,
          "time": 184.4375,
          "velocity": 0.2755905511811024
        },
        {
          "duration": 0,
          "durationTicks": 0,
          "midi": 94,
          "name": "A#6",
          "ticks": 141648,
          "time": 184.4375,
          "velocity": 0.08661417322834646
        },
        {
          "duration": 0,
          "durationTicks": 0,
          "midi": 79,
          "name": "G5",
          "ticks": 141657,
          "time": 184.44921875,
          "velocity": 0.07874015748031496
        },
        {
          "duration": 0,
          "durationTicks": 0,
          "midi": 87,
          "name": "D#6",
          "ticks": 141657,
          "time": 184.44921875,
          "velocity": 0.29133858267716534
        },
        {
          "duration": 0,
          "durationTicks": 0,
          "midi": 60,
          "name": "C4",
          "ticks": 141666,
          "time": 184.4609375,
          "velocity": 0.2047244094488189
        },
        {
          "duration": 0,
          "durationTicks": 0,
          "midi": 75,
          "name": "D#5",
          "ticks": 141666,
          "time": 184.4609375,
          "velocity": 0.33070866141732286
        },
        {
          "duration": 0.1276041666666572,
          "durationTicks": 98,
          "midi": 56,
          "name": "G#3",
          "ticks": 141666,
          "time": 184.4609375,
          "velocity": 0.2283464566929134
        },
        {
          "duration": 0.1276041666666572,
          "durationTicks": 98,
          "midi": 65,
          "name": "F4",
          "ticks": 141666,
          "time": 184.4609375,
          "velocity": 0.2125984251968504
        },
        {
          "duration": 0.1276041666666572,
          "durationTicks": 98,
          "midi": 32,
          "name": "G#1",
          "ticks": 141676,
          "time": 184.47395833333334,
          "velocity": 0.4015748031496063
        },
        {
          "duration": 0.1276041666666572,
          "durationTicks": 98,
          "midi": 61,
          "name": "C#4",
          "ticks": 141685,
          "time": 184.48567708333334,
          "velocity": 0.29133858267716534
        },
        {
          "duration": 0.09635416666665719,
          "durationTicks": 74,
          "midi": 84,
          "name": "C6",
          "ticks": 141702,
          "time": 184.5078125,
          "velocity": 0.28346456692913385
        },
        {
          "duration": 0,
          "durationTicks": 0,
          "midi": 46,
          "name": "A#2",
          "ticks": 141712,
          "time": 184.52083333333334,
          "velocity": 0.1889763779527559
        },
        {
          "duration": 0,
          "durationTicks": 0,
          "midi": 72,
          "name": "C5",
          "ticks": 141712,
          "time": 184.52083333333334,
          "velocity": 0.31496062992125984
        },
        {
          "duration": 0,
          "durationTicks": 0,
          "midi": 55,
          "name": "G3",
          "ticks": 141739,
          "time": 184.55598958333334,
          "velocity": 0.18110236220472442
        },
        {
          "duration": 0,
          "durationTicks": 0,
          "midi": 76,
          "name": "E5",
          "ticks": 141739,
          "time": 184.55598958333334,
          "velocity": 0.2677165354330709
        },
        {
          "duration": 0,
          "durationTicks": 0,
          "midi": 33,
          "name": "A1",
          "ticks": 141739,
          "time": 184.55598958333334,
          "velocity": 0.3464566929133858
        },
        {
          "duration": 0,
          "durationTicks": 0,
          "midi": 94,
          "name": "A#6",
          "ticks": 141748,
          "time": 184.56770833333334,
          "velocity": 0.11811023622047244
        },
        {
          "duration": 0.1276041666666572,
          "durationTicks": 98,
          "midi": 75,
          "name": "D#5",
          "ticks": 141757,
          "time": 184.57942708333334,
          "velocity": 0.33858267716535434
        },
        {
          "duration": 0,
          "durationTicks": 0,
          "midi": 49,
          "name": "C#3",
          "ticks": 141767,
          "time": 184.59244791666666,
          "velocity": 0.2283464566929134
        },
        {
          "duration": 0.12760416666668561,
          "durationTicks": 98,
          "midi": 32,
          "name": "G#1",
          "ticks": 141767,
          "time": 184.59244791666666,
          "velocity": 0.3464566929133858
        },
        {
          "duration": 0.03255208333334281,
          "durationTicks": 25,
          "midi": 84,
          "name": "C6",
          "ticks": 141776,
          "time": 184.60416666666666,
          "velocity": 0.14173228346456693
        },
        {
          "duration": 0,
          "durationTicks": 0,
          "midi": 80,
          "name": "G#5",
          "ticks": 141795,
          "time": 184.62890625,
          "velocity": 0.13385826771653545
        },
        {
          "duration": 0,
          "durationTicks": 0,
          "midi": 54,
          "name": "F#3",
          "ticks": 141804,
          "time": 184.640625,
          "velocity": 0.2125984251968504
        },
        {
          "duration": 0,
          "durationTicks": 0,
          "midi": 92,
          "name": "G#6",
          "ticks": 141804,
          "time": 184.640625,
          "velocity": 0.14173228346456693
        },
        {
          "duration": 0,
          "durationTicks": 0,
          "midi": 53,
          "name": "F3",
          "ticks": 141821,
          "time": 184.66276041666666,
          "velocity": 0.23622047244094488
        },
        {
          "duration": 0.25390625,
          "durationTicks": 195,
          "midi": 77,
          "name": "F5",
          "ticks": 141821,
          "time": 184.66276041666666,
          "velocity": 0.4015748031496063
        },
        {
          "duration": 0,
          "durationTicks": 0,
          "midi": 45,
          "name": "A2",
          "ticks": 141839,
          "time": 184.68619791666666,
          "velocity": 0.33070866141732286
        },
        {
          "duration": 0.1263020833333428,
          "durationTicks": 97,
          "midi": 75,
          "name": "D#5",
          "ticks": 141839,
          "time": 184.68619791666666,
          "velocity": 0.18110236220472442
        },
        {
          "duration": 0,
          "durationTicks": 0,
          "midi": 56,
          "name": "G#3",
          "ticks": 141848,
          "time": 184.69791666666666,
          "velocity": 0.2204724409448819
        },
        {
          "duration": 0.1263020833333428,
          "durationTicks": 97,
          "midi": 63,
          "name": "D#4",
          "ticks": 141848,
          "time": 184.69791666666666,
          "velocity": 0.11023622047244094
        },
        {
          "duration": 0.1263020833333428,
          "durationTicks": 97,
          "midi": 84,
          "name": "C6",
          "ticks": 141848,
          "time": 184.69791666666666,
          "velocity": 0.16535433070866143
        },
        {
          "duration": 0.1263020833333428,
          "durationTicks": 97,
          "midi": 44,
          "name": "G#2",
          "ticks": 141858,
          "time": 184.7109375,
          "velocity": 0.3779527559055118
        },
        {
          "duration": 0,
          "durationTicks": 0,
          "midi": 72,
          "name": "C5",
          "ticks": 141885,
          "time": 184.74609375,
          "velocity": 0.15748031496062992
        },
        {
          "duration": 0,
          "durationTicks": 0,
          "midi": 58,
          "name": "A#3",
          "ticks": 141894,
          "time": 184.7578125,
          "velocity": 0.2283464566929134
        },
        {
          "duration": 0,
          "durationTicks": 0,
          "midi": 72,
          "name": "C5",
          "ticks": 141921,
          "time": 184.79296875,
          "velocity": 0.18110236220472442
        },
        {
          "duration": 0,
          "durationTicks": 0,
          "midi": 55,
          "name": "G3",
          "ticks": 141938,
          "time": 184.81510416666666,
          "velocity": 0.1968503937007874
        },
        {
          "duration": 0,
          "durationTicks": 0,
          "midi": 61,
          "name": "C#4",
          "ticks": 141938,
          "time": 184.81510416666666,
          "velocity": 0.2992125984251969
        },
        {
          "duration": 0.12890625,
          "durationTicks": 99,
          "midi": 75,
          "name": "D#5",
          "ticks": 141938,
          "time": 184.81510416666666,
          "velocity": 0.2125984251968504
        },
        {
          "duration": 0,
          "durationTicks": 0,
          "midi": 65,
          "name": "F4",
          "ticks": 141948,
          "time": 184.828125,
          "velocity": 0.2283464566929134
        },
        {
          "duration": 0.10677083333334281,
          "durationTicks": 82,
          "midi": 80,
          "name": "G#5",
          "ticks": 141948,
          "time": 184.828125,
          "velocity": 0.10236220472440945
        },
        {
          "duration": 0.12890625,
          "durationTicks": 99,
          "midi": 32,
          "name": "G#1",
          "ticks": 141948,
          "time": 184.828125,
          "velocity": 0.3464566929133858
        },
        {
          "duration": 0,
          "durationTicks": 0,
          "midi": 62,
          "name": "D4",
          "ticks": 141957,
          "time": 184.83984375,
          "velocity": 0.2992125984251969
        },
        {
          "duration": 0,
          "durationTicks": 0,
          "midi": 79,
          "name": "G5",
          "ticks": 141957,
          "time": 184.83984375,
          "velocity": 0.05511811023622047
        },
        {
          "duration": 0.12890625,
          "durationTicks": 99,
          "midi": 56,
          "name": "G#3",
          "ticks": 141957,
          "time": 184.83984375,
          "velocity": 0.29133858267716534
        },
        {
          "duration": 0,
          "durationTicks": 0,
          "midi": 78,
          "name": "F#5",
          "ticks": 141975,
          "time": 184.86328125,
          "velocity": 0.3779527559055118
        },
        {
          "duration": 0,
          "durationTicks": 0,
          "midi": 61,
          "name": "C#4",
          "ticks": 141975,
          "time": 184.86328125,
          "velocity": 0.3464566929133858
        },
        {
          "duration": 0,
          "durationTicks": 0,
          "midi": 70,
          "name": "A#4",
          "ticks": 141984,
          "time": 184.875,
          "velocity": 0.14960629921259844
        },
        {
          "duration": 0,
          "durationTicks": 0,
          "midi": 65,
          "name": "F4",
          "ticks": 141993,
          "time": 184.88671875,
          "velocity": 0.25984251968503935
        },
        {
          "duration": 0,
          "durationTicks": 0,
          "midi": 84,
          "name": "C6",
          "ticks": 142002,
          "time": 184.8984375,
          "velocity": 0.13385826771653545
        },
        {
          "duration": 0.2578125,
          "durationTicks": 198,
          "midi": 77,
          "name": "F5",
          "ticks": 142002,
          "time": 184.8984375,
          "velocity": 0.3779527559055118
        },
        {
          "duration": 0,
          "durationTicks": 0,
          "midi": 73,
          "name": "C#5",
          "ticks": 142012,
          "time": 184.91145833333334,
          "velocity": 0.16535433070866143
        },
        {
          "duration": 0,
          "durationTicks": 0,
          "midi": 61,
          "name": "C#4",
          "ticks": 142021,
          "time": 184.92317708333334,
          "velocity": 0.2440944881889764
        },
        {
          "duration": 0.022135416666657193,
          "durationTicks": 17,
          "midi": 80,
          "name": "G#5",
          "ticks": 142030,
          "time": 184.93489583333334,
          "velocity": 0.1732283464566929
        },
        {
          "duration": 0,
          "durationTicks": 0,
          "midi": 64,
          "name": "E4",
          "ticks": 142040,
          "time": 184.94791666666666,
          "velocity": 0.18110236220472442
        },
        {
          "duration": 0,
          "durationTicks": 0,
          "midi": 86,
          "name": "D6",
          "ticks": 142040,
          "time": 184.94791666666666,
          "velocity": 0.10236220472440945
        },
        {
          "duration": 0,
          "durationTicks": 0,
          "midi": 94,
          "name": "A#6",
          "ticks": 142040,
          "time": 184.94791666666666,
          "velocity": 0.14960629921259844
        },
        {
          "duration": 0.12890625,
          "durationTicks": 99,
          "midi": 75,
          "name": "D#5",
          "ticks": 142040,
          "time": 184.94791666666666,
          "velocity": 0.33858267716535434
        },
        {
          "duration": 0,
          "durationTicks": 0,
          "midi": 41,
          "name": "F2",
          "ticks": 142049,
          "time": 184.95963541666666,
          "velocity": 0.4015748031496063
        },
        {
          "duration": 0,
          "durationTicks": 0,
          "midi": 57,
          "name": "A3",
          "ticks": 142049,
          "time": 184.95963541666666,
          "velocity": 0.30708661417322836
        },
        {
          "duration": 0,
          "durationTicks": 0,
          "midi": 56,
          "name": "G#3",
          "ticks": 142068,
          "time": 184.984375,
          "velocity": 0.1732283464566929
        },
        {
          "duration": 0,
          "durationTicks": 0,
          "midi": 61,
          "name": "C#4",
          "ticks": 142077,
          "time": 184.99609375,
          "velocity": 0.11023622047244094
        },
        {
          "duration": 0,
          "durationTicks": 0,
          "midi": 42,
          "name": "F#2",
          "ticks": 142086,
          "time": 185.0078125,
          "velocity": 0.3700787401574803
        },
        {
          "duration": 0,
          "durationTicks": 0,
          "midi": 70,
          "name": "A#4",
          "ticks": 142086,
          "time": 185.0078125,
          "velocity": 0.2283464566929134
        },
        {
          "duration": 0,
          "durationTicks": 0,
          "midi": 53,
          "name": "F3",
          "ticks": 142095,
          "time": 185.01953125,
          "velocity": 0.10236220472440945
        },
        {
          "duration": 0.1276041666666572,
          "durationTicks": 98,
          "midi": 72,
          "name": "C5",
          "ticks": 142095,
          "time": 185.01953125,
          "velocity": 0.3779527559055118
        },
        {
          "duration": 0,
          "durationTicks": 0,
          "midi": 43,
          "name": "G2",
          "ticks": 142105,
          "time": 185.03255208333334,
          "velocity": 0.33070866141732286
        },
        {
          "duration": 0,
          "durationTicks": 0,
          "midi": 69,
          "name": "A4",
          "ticks": 142141,
          "time": 185.07942708333334,
          "velocity": 0.3464566929133858
        },
        {
          "duration": 0,
          "durationTicks": 0,
          "midi": 56,
          "name": "G#3",
          "ticks": 142141,
          "time": 185.07942708333334,
          "velocity": 0.14960629921259844
        },
        {
          "duration": 0.09375,
          "durationTicks": 72,
          "midi": 63,
          "name": "D#4",
          "ticks": 142141,
          "time": 185.07942708333334,
          "velocity": 0.11023622047244094
        },
        {
          "duration": 0,
          "durationTicks": 0,
          "midi": 73,
          "name": "C#5",
          "ticks": 142150,
          "time": 185.09114583333334,
          "velocity": 0.2440944881889764
        },
        {
          "duration": 0.1276041666666572,
          "durationTicks": 98,
          "midi": 44,
          "name": "G#2",
          "ticks": 142150,
          "time": 185.09114583333334,
          "velocity": 0.36220472440944884
        },
        {
          "duration": 0,
          "durationTicks": 0,
          "midi": 68,
          "name": "G#4",
          "ticks": 142160,
          "time": 185.10416666666666,
          "velocity": 0.36220472440944884
        },
        {
          "duration": 0,
          "durationTicks": 0,
          "midi": 87,
          "name": "D#6",
          "ticks": 142160,
          "time": 185.10416666666666,
          "velocity": 0.08661417322834646
        },
        {
          "duration": 0.1263020833333428,
          "durationTicks": 97,
          "midi": 91,
          "name": "G6",
          "ticks": 142196,
          "time": 185.15104166666666,
          "velocity": 0.16535433070866143
        },
        {
          "duration": 0.1263020833333428,
          "durationTicks": 97,
          "midi": 72,
          "name": "C5",
          "ticks": 142196,
          "time": 185.15104166666666,
          "velocity": 0.3858267716535433
        },
        {
          "duration": 0.03385416666665719,
          "durationTicks": 26,
          "midi": 63,
          "name": "D#4",
          "ticks": 142213,
          "time": 185.17317708333334,
          "velocity": 0.14173228346456693
        },
        {
          "duration": 0,
          "durationTicks": 0,
          "midi": 69,
          "name": "A4",
          "ticks": 142223,
          "time": 185.18619791666666,
          "velocity": 0.3543307086614173
        },
        {
          "duration": 0.12760416666668561,
          "durationTicks": 98,
          "midi": 80,
          "name": "G#5",
          "ticks": 142223,
          "time": 185.18619791666666,
          "velocity": 0.2047244094488189
        },
        {
          "duration": 0,
          "durationTicks": 0,
          "midi": 65,
          "name": "F4",
          "ticks": 142232,
          "time": 185.19791666666666,
          "velocity": 0.2283464566929134
        },
        {
          "duration": 0.08203125,
          "durationTicks": 63,
          "midi": 60,
          "name": "C4",
          "ticks": 142232,
          "time": 185.19791666666666,
          "velocity": 0.2204724409448819
        },
        {
          "duration": 0.12760416666668561,
          "durationTicks": 98,
          "midi": 75,
          "name": "D#5",
          "ticks": 142241,
          "time": 185.20963541666666,
          "velocity": 0.2125984251968504
        },
        {
          "duration": 0.12760416666668561,
          "durationTicks": 98,
          "midi": 32,
          "name": "G#1",
          "ticks": 142241,
          "time": 185.20963541666666,
          "velocity": 0.3464566929133858
        },
        {
          "duration": 0.1276041666666572,
          "durationTicks": 98,
          "midi": 51,
          "name": "D#3",
          "ticks": 142251,
          "time": 185.22265625,
          "velocity": 0.08661417322834646
        },
        {
          "duration": 0.1276041666666572,
          "durationTicks": 98,
          "midi": 68,
          "name": "G#4",
          "ticks": 142251,
          "time": 185.22265625,
          "velocity": 0.4015748031496063
        },
        {
          "duration": 0,
          "durationTicks": 0,
          "midi": 63,
          "name": "D#4",
          "ticks": 142268,
          "time": 185.24479166666666,
          "velocity": 0.2283464566929134
        },
        {
          "duration": 0.12760416666668561,
          "durationTicks": 98,
          "midi": 82,
          "name": "A#5",
          "ticks": 142268,
          "time": 185.24479166666666,
          "velocity": 0.2283464566929134
        },
        {
          "duration": 0.12760416666668561,
          "durationTicks": 98,
          "midi": 72,
          "name": "C5",
          "ticks": 142286,
          "time": 185.26822916666666,
          "velocity": 0.18110236220472442
        },
        {
          "duration": 0.045572916666685614,
          "durationTicks": 35,
          "midi": 60,
          "name": "C4",
          "ticks": 142295,
          "time": 185.27994791666666,
          "velocity": 0.2047244094488189
        },
        {
          "duration": 0,
          "durationTicks": 0,
          "midi": 65,
          "name": "F4",
          "ticks": 142304,
          "time": 185.29166666666666,
          "velocity": 0.3779527559055118
        },
        {
          "duration": 0.1263020833333428,
          "durationTicks": 97,
          "midi": 84,
          "name": "C6",
          "ticks": 142314,
          "time": 185.3046875,
          "velocity": 0.2283464566929134
        },
        {
          "duration": 0,
          "durationTicks": 0,
          "midi": 66,
          "name": "F#4",
          "ticks": 142332,
          "time": 185.328125,
          "velocity": 0.3858267716535433
        },
        {
          "duration": 0.125,
          "durationTicks": 96,
          "midi": 60,
          "name": "C4",
          "ticks": 142332,
          "time": 185.328125,
          "velocity": 0.3700787401574803
        },
        {
          "duration": 0.125,
          "durationTicks": 96,
          "midi": 87,
          "name": "D#6",
          "ticks": 142342,
          "time": 185.34114583333334,
          "velocity": 0.2125984251968504
        },
        {
          "duration": 0,
          "durationTicks": 0,
          "midi": 75,
          "name": "D#5",
          "ticks": 142351,
          "time": 185.35286458333334,
          "velocity": 0.14173228346456693
        },
        {
          "duration": 0,
          "durationTicks": 0,
          "midi": 31,
          "name": "G1",
          "ticks": 142351,
          "time": 185.35286458333334,
          "velocity": 0.29133858267716534
        },
        {
          "duration": 0,
          "durationTicks": 0,
          "midi": 65,
          "name": "F4",
          "ticks": 142351,
          "time": 185.35286458333334,
          "velocity": 0.36220472440944884
        },
        {
          "duration": 0,
          "durationTicks": 0,
          "midi": 73,
          "name": "C#5",
          "ticks": 142369,
          "time": 185.37630208333334,
          "velocity": 0.15748031496062992
        },
        {
          "duration": 0,
          "durationTicks": 0,
          "midi": 80,
          "name": "G#5",
          "ticks": 142386,
          "time": 185.3984375,
          "velocity": 0.14173228346456693
        },
        {
          "duration": 0,
          "durationTicks": 0,
          "midi": 68,
          "name": "G#4",
          "ticks": 142404,
          "time": 185.421875,
          "velocity": 0.2204724409448819
        },
        {
          "duration": 0,
          "durationTicks": 0,
          "midi": 93,
          "name": "A6",
          "ticks": 142404,
          "time": 185.421875,
          "velocity": 0.09448818897637795
        },
        {
          "duration": 0,
          "durationTicks": 0,
          "midi": 65,
          "name": "F4",
          "ticks": 142404,
          "time": 185.421875,
          "velocity": 0.3700787401574803
        },
        {
          "duration": 0.125,
          "durationTicks": 96,
          "midi": 92,
          "name": "G#6",
          "ticks": 142413,
          "time": 185.43359375,
          "velocity": 0.2283464566929134
        },
        {
          "duration": 0,
          "durationTicks": 0,
          "midi": 37,
          "name": "C#2",
          "ticks": 142431,
          "time": 185.45703125,
          "velocity": 0.3543307086614173
        },
        {
          "duration": 0,
          "durationTicks": 0,
          "midi": 73,
          "name": "C#5",
          "ticks": 142440,
          "time": 185.46875,
          "velocity": 0.06299212598425197
        },
        {
          "duration": 0,
          "durationTicks": 0,
          "midi": 68,
          "name": "G#4",
          "ticks": 142449,
          "time": 185.48046875,
          "velocity": 0.2204724409448819
        },
        {
          "duration": 0,
          "durationTicks": 0,
          "midi": 79,
          "name": "G5",
          "ticks": 142459,
          "time": 185.49348958333334,
          "velocity": 0.05511811023622047
        },
        {
          "duration": 0,
          "durationTicks": 0,
          "midi": 77,
          "name": "F5",
          "ticks": 142476,
          "time": 185.515625,
          "velocity": 0.07086614173228346
        },
        {
          "duration": 0,
          "durationTicks": 0,
          "midi": 63,
          "name": "D#4",
          "ticks": 142494,
          "time": 185.5390625,
          "velocity": 0.3543307086614173
        },
        {
          "duration": 0,
          "durationTicks": 0,
          "midi": 82,
          "name": "A#5",
          "ticks": 142494,
          "time": 185.5390625,
          "velocity": 0.07874015748031496
        },
        {
          "duration": 0,
          "durationTicks": 0,
          "midi": 36,
          "name": "C2",
          "ticks": 142511,
          "time": 185.56119791666666,
          "velocity": 0.3464566929133858
        },
        {
          "duration": 0,
          "durationTicks": 0,
          "midi": 64,
          "name": "E4",
          "ticks": 142521,
          "time": 185.57421875,
          "velocity": 0.36220472440944884
        },
        {
          "duration": 0,
          "durationTicks": 0,
          "midi": 80,
          "name": "G#5",
          "ticks": 142521,
          "time": 185.57421875,
          "velocity": 0.07874015748031496
        },
        {
          "duration": 0.1263020833333428,
          "durationTicks": 97,
          "midi": 56,
          "name": "G#3",
          "ticks": 142521,
          "time": 185.57421875,
          "velocity": 0.08661417322834646
        },
        {
          "duration": 0.1263020833333428,
          "durationTicks": 97,
          "midi": 84,
          "name": "C6",
          "ticks": 142530,
          "time": 185.5859375,
          "velocity": 0.11023622047244094
        },
        {
          "duration": 0.1263020833333428,
          "durationTicks": 97,
          "midi": 37,
          "name": "C#2",
          "ticks": 142530,
          "time": 185.5859375,
          "velocity": 0.3543307086614173
        },
        {
          "duration": 0,
          "durationTicks": 0,
          "midi": 68,
          "name": "G#4",
          "ticks": 142539,
          "time": 185.59765625,
          "velocity": 0.14173228346456693
        },
        {
          "duration": 0,
          "durationTicks": 0,
          "midi": 65,
          "name": "F4",
          "ticks": 142539,
          "time": 185.59765625,
          "velocity": 0.33070866141732286
        },
        {
          "duration": 0.1263020833333428,
          "durationTicks": 97,
          "midi": 82,
          "name": "A#5",
          "ticks": 142584,
          "time": 185.65625,
          "velocity": 0.11811023622047244
        },
        {
          "duration": 0,
          "durationTicks": 0,
          "midi": 63,
          "name": "D#4",
          "ticks": 142593,
          "time": 185.66796875,
          "velocity": 0.30708661417322836
        },
        {
          "duration": 0.1263020833333428,
          "durationTicks": 97,
          "midi": 84,
          "name": "C6",
          "ticks": 142611,
          "time": 185.69140625,
          "velocity": 0.13385826771653545
        },
        {
          "duration": 0.1263020833333428,
          "durationTicks": 97,
          "midi": 68,
          "name": "G#4",
          "ticks": 142620,
          "time": 185.703125,
          "velocity": 0.2204724409448819
        },
        {
          "duration": 0,
          "durationTicks": 0,
          "midi": 60,
          "name": "C4",
          "ticks": 142629,
          "time": 185.71484375,
          "velocity": 0.36220472440944884
        },
        {
          "duration": 0,
          "durationTicks": 0,
          "midi": 65,
          "name": "F4",
          "ticks": 142629,
          "time": 185.71484375,
          "velocity": 0.25984251968503935
        },
        {
          "duration": 0,
          "durationTicks": 0,
          "midi": 88,
          "name": "E6",
          "ticks": 142629,
          "time": 185.71484375,
          "velocity": 0.06299212598425197
        },
        {
          "duration": 0,
          "durationTicks": 0,
          "midi": 75,
          "name": "D#5",
          "ticks": 142639,
          "time": 185.72786458333334,
          "velocity": 0.14960629921259844
        },
        {
          "duration": 0,
          "durationTicks": 0,
          "midi": 31,
          "name": "G1",
          "ticks": 142639,
          "time": 185.72786458333334,
          "velocity": 0.29133858267716534
        },
        {
          "duration": 0,
          "durationTicks": 0,
          "midi": 79,
          "name": "G5",
          "ticks": 142639,
          "time": 185.72786458333334,
          "velocity": 0.1732283464566929
        },
        {
          "duration": 0,
          "durationTicks": 0,
          "midi": 63,
          "name": "D#4",
          "ticks": 142683,
          "time": 185.78515625,
          "velocity": 0.33070866141732286
        },
        {
          "duration": 0.1263020833333428,
          "durationTicks": 97,
          "midi": 82,
          "name": "A#5",
          "ticks": 142683,
          "time": 185.78515625,
          "velocity": 0.11023622047244094
        },
        {
          "duration": 0.1276041666666572,
          "durationTicks": 98,
          "midi": 60,
          "name": "C4",
          "ticks": 142710,
          "time": 185.8203125,
          "velocity": 0.2283464566929134
        },
        {
          "duration": 0,
          "durationTicks": 0,
          "midi": 84,
          "name": "C6",
          "ticks": 142719,
          "time": 185.83203125,
          "velocity": 0.09448818897637795
        },
        {
          "duration": 0,
          "durationTicks": 0,
          "midi": 92,
          "name": "G#6",
          "ticks": 142719,
          "time": 185.83203125,
          "velocity": 0.05511811023622047
        },
        {
          "duration": 0.1276041666666572,
          "durationTicks": 98,
          "midi": 49,
          "name": "C#3",
          "ticks": 142719,
          "time": 185.83203125,
          "velocity": 0.3464566929133858
        },
        {
          "duration": 0,
          "durationTicks": 0,
          "midi": 65,
          "name": "F4",
          "ticks": 142729,
          "time": 185.84505208333334,
          "velocity": 0.33070866141732286
        },
        {
          "duration": 0.1276041666666572,
          "durationTicks": 98,
          "midi": 68,
          "name": "G#4",
          "ticks": 142729,
          "time": 185.84505208333334,
          "velocity": 0.23622047244094488
        },
        {
          "duration": 0,
          "durationTicks": 0,
          "midi": 64,
          "name": "E4",
          "ticks": 142765,
          "time": 185.89192708333334,
          "velocity": 0.2992125984251969
        },
        {
          "duration": 0,
          "durationTicks": 0,
          "midi": 65,
          "name": "F4",
          "ticks": 142782,
          "time": 185.9140625,
          "velocity": 0.2204724409448819
        },
        {
          "duration": 0.12890625,
          "durationTicks": 99,
          "midi": 82,
          "name": "A#5",
          "ticks": 142782,
          "time": 185.9140625,
          "velocity": 0.13385826771653545
        },
        {
          "duration": 0.12890625,
          "durationTicks": 99,
          "midi": 91,
          "name": "G6",
          "ticks": 142792,
          "time": 185.92708333333334,
          "velocity": 0.08661417322834646
        },
        {
          "duration": 0,
          "durationTicks": 0,
          "midi": 86,
          "name": "D6",
          "ticks": 142801,
          "time": 185.93880208333334,
          "velocity": 0.09448818897637795
        },
        {
          "duration": 0,
          "durationTicks": 0,
          "midi": 56,
          "name": "G#3",
          "ticks": 142810,
          "time": 185.95052083333334,
          "velocity": 0.2992125984251969
        },
        {
          "duration": 0,
          "durationTicks": 0,
          "midi": 66,
          "name": "F#4",
          "ticks": 142810,
          "time": 185.95052083333334,
          "velocity": 0.2047244094488189
        },
        {
          "duration": 0,
          "durationTicks": 0,
          "midi": 85,
          "name": "C#6",
          "ticks": 142810,
          "time": 185.95052083333334,
          "velocity": 0.07874015748031496
        },
        {
          "duration": 0,
          "durationTicks": 0,
          "midi": 87,
          "name": "D#6",
          "ticks": 142810,
          "time": 185.95052083333334,
          "velocity": 0.08661417322834646
        },
        {
          "duration": 0,
          "durationTicks": 0,
          "midi": 38,
          "name": "D2",
          "ticks": 142829,
          "time": 185.97526041666666,
          "velocity": 0.2283464566929134
        },
        {
          "duration": 0,
          "durationTicks": 0,
          "midi": 65,
          "name": "F4",
          "ticks": 142829,
          "time": 185.97526041666666,
          "velocity": 0.2204724409448819
        },
        {
          "duration": 0,
          "durationTicks": 0,
          "midi": 75,
          "name": "D#5",
          "ticks": 142829,
          "time": 185.97526041666666,
          "velocity": 0.14173228346456693
        },
        {
          "duration": 0.12760416666668561,
          "durationTicks": 98,
          "midi": 82,
          "name": "A#5",
          "ticks": 142865,
          "time": 186.02213541666666,
          "velocity": 0.11811023622047244
        },
        {
          "duration": 0.12760416666668561,
          "durationTicks": 98,
          "midi": 68,
          "name": "G#4",
          "ticks": 142865,
          "time": 186.02213541666666,
          "velocity": 0.14173228346456693
        },
        {
          "duration": 0,
          "durationTicks": 0,
          "midi": 60,
          "name": "C4",
          "ticks": 142874,
          "time": 186.03385416666666,
          "velocity": 0.11023622047244094
        },
        {
          "duration": 0,
          "durationTicks": 0,
          "midi": 57,
          "name": "A3",
          "ticks": 142874,
          "time": 186.03385416666666,
          "velocity": 0.14173228346456693
        },
        {
          "duration": 0,
          "durationTicks": 0,
          "midi": 63,
          "name": "D#4",
          "ticks": 142884,
          "time": 186.046875,
          "velocity": 0.23622047244094488
        },
        {
          "duration": 0,
          "durationTicks": 0,
          "midi": 80,
          "name": "G#5",
          "ticks": 142911,
          "time": 186.08203125,
          "velocity": 0.16535433070866143
        },
        {
          "duration": 0,
          "durationTicks": 0,
          "midi": 60,
          "name": "C4",
          "ticks": 142911,
          "time": 186.08203125,
          "velocity": 0.1732283464566929
        },
        {
          "duration": 0.1276041666666572,
          "durationTicks": 98,
          "midi": 56,
          "name": "G#3",
          "ticks": 142911,
          "time": 186.08203125,
          "velocity": 0.14173228346456693
        },
        {
          "duration": 0.1276041666666572,
          "durationTicks": 98,
          "midi": 37,
          "name": "C#2",
          "ticks": 142911,
          "time": 186.08203125,
          "velocity": 0.3543307086614173
        },
        {
          "duration": 0,
          "durationTicks": 0,
          "midi": 65,
          "name": "F4",
          "ticks": 142920,
          "time": 186.09375,
          "velocity": 0.1968503937007874
        },
        {
          "duration": 0,
          "durationTicks": 0,
          "midi": 75,
          "name": "D#5",
          "ticks": 142929,
          "time": 186.10546875,
          "velocity": 0.14173228346456693
        },
        {
          "duration": 0,
          "durationTicks": 0,
          "midi": 79,
          "name": "G5",
          "ticks": 142929,
          "time": 186.10546875,
          "velocity": 0.11811023622047244
        },
        {
          "duration": 0.12630208333331439,
          "durationTicks": 97,
          "midi": 82,
          "name": "A#5",
          "ticks": 142966,
          "time": 186.15364583333334,
          "velocity": 0.12598425196850394
        },
        {
          "duration": 0.12630208333331439,
          "durationTicks": 97,
          "midi": 63,
          "name": "D#4",
          "ticks": 142975,
          "time": 186.16536458333334,
          "velocity": 0.2283464566929134
        },
        {
          "duration": 0.08203125,
          "durationTicks": 63,
          "midi": 60,
          "name": "C4",
          "ticks": 143002,
          "time": 186.20052083333334,
          "velocity": 0.2204724409448819
        },
        {
          "duration": 0.12630208333331439,
          "durationTicks": 97,
          "midi": 68,
          "name": "G#4",
          "ticks": 143002,
          "time": 186.20052083333334,
          "velocity": 0.2047244094488189
        },
        {
          "duration": 0.12630208333331439,
          "durationTicks": 97,
          "midi": 84,
          "name": "C6",
          "ticks": 143011,
          "time": 186.21223958333334,
          "velocity": 0.10236220472440945
        },
        {
          "duration": 0.12630208333331439,
          "durationTicks": 97,
          "midi": 77,
          "name": "F5",
          "ticks": 143029,
          "time": 186.23567708333334,
          "velocity": 0.06299212598425197
        },
        {
          "duration": 0,
          "durationTicks": 0,
          "midi": 65,
          "name": "F4",
          "ticks": 143056,
          "time": 186.27083333333334,
          "velocity": 0.23622047244094488
        },
        {
          "duration": 0.044270833333314386,
          "durationTicks": 34,
          "midi": 60,
          "name": "C4",
          "ticks": 143065,
          "time": 186.28255208333334,
          "velocity": 0.2125984251968504
        },
        {
          "duration": 0,
          "durationTicks": 0,
          "midi": 63,
          "name": "D#4",
          "ticks": 143074,
          "time": 186.29427083333334,
          "velocity": 0.30708661417322836
        },
        {
          "duration": 0.125,
          "durationTicks": 96,
          "midi": 40,
          "name": "E2",
          "ticks": 143083,
          "time": 186.30598958333334,
          "velocity": 0.36220472440944884
        },
        {
          "duration": 0.12630208333331439,
          "durationTicks": 97,
          "midi": 83,
          "name": "B5",
          "ticks": 143101,
          "time": 186.32942708333334,
          "velocity": 0.08661417322834646
        },
        {
          "duration": 0,
          "durationTicks": 0,
          "midi": 60,
          "name": "C4",
          "ticks": 143110,
          "time": 186.34114583333334,
          "velocity": 0.1968503937007874
        },
        {
          "duration": 0,
          "durationTicks": 0,
          "midi": 64,
          "name": "E4",
          "ticks": 143110,
          "time": 186.34114583333334,
          "velocity": 0.30708661417322836
        },
        {
          "duration": 0.25390625,
          "durationTicks": 195,
          "midi": 78,
          "name": "F#5",
          "ticks": 143110,
          "time": 186.34114583333334,
          "velocity": 0.31496062992125984
        },
        {
          "duration": 0,
          "durationTicks": 0,
          "midi": 66,
          "name": "F#4",
          "ticks": 143155,
          "time": 186.39973958333334,
          "velocity": 0.31496062992125984
        },
        {
          "duration": 0,
          "durationTicks": 0,
          "midi": 47,
          "name": "B2",
          "ticks": 143182,
          "time": 186.43489583333334,
          "velocity": 0.2283464566929134
        },
        {
          "duration": 0.1276041666666572,
          "durationTicks": 98,
          "midi": 83,
          "name": "B5",
          "ticks": 143182,
          "time": 186.43489583333334,
          "velocity": 0.15748031496062992
        },
        {
          "duration": 0,
          "durationTicks": 0,
          "midi": 80,
          "name": "G#5",
          "ticks": 143191,
          "time": 186.44661458333334,
          "velocity": 0.18110236220472442
        },
        {
          "duration": 0,
          "durationTicks": 0,
          "midi": 64,
          "name": "E4",
          "ticks": 143200,
          "time": 186.45833333333334,
          "velocity": 0.3543307086614173
        },
        {
          "duration": 0,
          "durationTicks": 0,
          "midi": 68,
          "name": "G#4",
          "ticks": 143200,
          "time": 186.45833333333334,
          "velocity": 0.2283464566929134
        },
        {
          "duration": 0,
          "durationTicks": 0,
          "midi": 31,
          "name": "G1",
          "ticks": 143210,
          "time": 186.47135416666666,
          "velocity": 0.29133858267716534
        },
        {
          "duration": 0,
          "durationTicks": 0,
          "midi": 61,
          "name": "C#4",
          "ticks": 143219,
          "time": 186.48307291666666,
          "velocity": 0.25984251968503935
        },
        {
          "duration": 0.12760416666668561,
          "durationTicks": 98,
          "midi": 87,
          "name": "D#6",
          "ticks": 143237,
          "time": 186.50651041666666,
          "velocity": 0.14173228346456693
        },
        {
          "duration": 0,
          "durationTicks": 0,
          "midi": 59,
          "name": "B3",
          "ticks": 143246,
          "time": 186.51822916666666,
          "velocity": 0.25196850393700787
        },
        {
          "duration": 0,
          "durationTicks": 0,
          "midi": 81,
          "name": "A5",
          "ticks": 143246,
          "time": 186.51822916666666,
          "velocity": 0.08661417322834646
        },
        {
          "duration": 0,
          "durationTicks": 0,
          "midi": 64,
          "name": "E4",
          "ticks": 143255,
          "time": 186.52994791666666,
          "velocity": 0.29133858267716534
        },
        {
          "duration": 0,
          "durationTicks": 0,
          "midi": 68,
          "name": "G#4",
          "ticks": 143255,
          "time": 186.52994791666666,
          "velocity": 0.23622047244094488
        },
        {
          "duration": 0,
          "durationTicks": 0,
          "midi": 76,
          "name": "E5",
          "ticks": 143273,
          "time": 186.55338541666666,
          "velocity": 0.1732283464566929
        },
        {
          "duration": 0,
          "durationTicks": 0,
          "midi": 61,
          "name": "C#4",
          "ticks": 143282,
          "time": 186.56510416666666,
          "velocity": 0.25196850393700787
        },
        {
          "duration": 0.12760416666668561,
          "durationTicks": 98,
          "midi": 68,
          "name": "G#4",
          "ticks": 143282,
          "time": 186.56510416666666,
          "velocity": 0.3464566929133858
        },
        {
          "duration": 0.12760416666668561,
          "durationTicks": 98,
          "midi": 40,
          "name": "E2",
          "ticks": 143282,
          "time": 186.56510416666666,
          "velocity": 0.36220472440944884
        },
        {
          "duration": 0.12760416666668561,
          "durationTicks": 98,
          "midi": 64,
          "name": "E4",
          "ticks": 143291,
          "time": 186.57682291666666,
          "velocity": 0.2677165354330709
        },
        {
          "duration": 0.25390625,
          "durationTicks": 195,
          "midi": 79,
          "name": "G5",
          "ticks": 143301,
          "time": 186.58984375,
          "velocity": 0.18110236220472442
        },
        {
          "duration": 0,
          "durationTicks": 0,
          "midi": 61,
          "name": "C#4",
          "ticks": 143310,
          "time": 186.6015625,
          "velocity": 0.2440944881889764
        },
        {
          "duration": 0.1276041666666572,
          "durationTicks": 98,
          "midi": 72,
          "name": "C5",
          "ticks": 143337,
          "time": 186.63671875,
          "velocity": 0.23622047244094488
        },
        {
          "duration": 0,
          "durationTicks": 0,
          "midi": 81,
          "name": "A5",
          "ticks": 143346,
          "time": 186.6484375,
          "velocity": 0.2677165354330709
        },
        {
          "duration": 0,
          "durationTicks": 0,
          "midi": 83,
          "name": "B5",
          "ticks": 143382,
          "time": 186.6953125,
          "velocity": 0.2755905511811024
        },
        {
          "duration": 0,
          "durationTicks": 0,
          "midi": 78,
          "name": "F#5",
          "ticks": 143392,
          "time": 186.70833333333334,
          "velocity": 0.05511811023622047
        },
        {
          "duration": 0.12630208333331439,
          "durationTicks": 97,
          "midi": 52,
          "name": "E3",
          "ticks": 143392,
          "time": 186.70833333333334,
          "velocity": 0.36220472440944884
        },
        {
          "duration": 0,
          "durationTicks": 0,
          "midi": 71,
          "name": "B4",
          "ticks": 143409,
          "time": 186.73046875,
          "velocity": 0.33070866141732286
        },
        {
          "duration": 0,
          "durationTicks": 0,
          "midi": 31,
          "name": "G1",
          "ticks": 143419,
          "time": 186.74348958333334,
          "velocity": 0.25984251968503935
        },
        {
          "duration": 0,
          "durationTicks": 0,
          "midi": 73,
          "name": "C#5",
          "ticks": 143428,
          "time": 186.75520833333334,
          "velocity": 0.2755905511811024
        },
        {
          "duration": 0,
          "durationTicks": 0,
          "midi": 78,
          "name": "F#5",
          "ticks": 143437,
          "time": 186.76692708333334,
          "velocity": 0.1889763779527559
        },
        {
          "duration": 0,
          "durationTicks": 0,
          "midi": 85,
          "name": "C#6",
          "ticks": 143437,
          "time": 186.76692708333334,
          "velocity": 0.29133858267716534
        },
        {
          "duration": 0,
          "durationTicks": 0,
          "midi": 73,
          "name": "C#5",
          "ticks": 143455,
          "time": 186.79036458333334,
          "velocity": 0.33858267716535434
        },
        {
          "duration": 0.1276041666666572,
          "durationTicks": 98,
          "midi": 74,
          "name": "D5",
          "ticks": 143472,
          "time": 186.8125,
          "velocity": 0.31496062992125984
        },
        {
          "duration": 0.1276041666666572,
          "durationTicks": 98,
          "midi": 40,
          "name": "E2",
          "ticks": 143472,
          "time": 186.8125,
          "velocity": 0.36220472440944884
        },
        {
          "duration": 0.1276041666666572,
          "durationTicks": 98,
          "midi": 80,
          "name": "G#5",
          "ticks": 143482,
          "time": 186.82552083333334,
          "velocity": 0.1968503937007874
        },
        {
          "duration": 0.1276041666666572,
          "durationTicks": 98,
          "midi": 59,
          "name": "B3",
          "ticks": 143491,
          "time": 186.83723958333334,
          "velocity": 0.07874015748031496
        },
        {
          "duration": 0,
          "durationTicks": 0,
          "midi": 69,
          "name": "A4",
          "ticks": 143500,
          "time": 186.84895833333334,
          "velocity": 0.1732283464566929
        },
        {
          "duration": 0.12890625,
          "durationTicks": 99,
          "midi": 76,
          "name": "E5",
          "ticks": 143518,
          "time": 186.87239583333334,
          "velocity": 0.3228346456692913
        },
        {
          "duration": 0,
          "durationTicks": 0,
          "midi": 69,
          "name": "A4",
          "ticks": 143554,
          "time": 186.91927083333334,
          "velocity": 0.2204724409448819
        },
        {
          "duration": 0.12890625,
          "durationTicks": 99,
          "midi": 95,
          "name": "B6",
          "ticks": 143554,
          "time": 186.91927083333334,
          "velocity": 0.07086614173228346
        },
        {
          "duration": 0,
          "durationTicks": 0,
          "midi": 84,
          "name": "C6",
          "ticks": 143563,
          "time": 186.93098958333334,
          "velocity": 0.11023622047244094
        },
        {
          "duration": 0,
          "durationTicks": 0,
          "midi": 53,
          "name": "F3",
          "ticks": 143573,
          "time": 186.94401041666666,
          "velocity": 0.30708661417322836
        },
        {
          "duration": 0,
          "durationTicks": 0,
          "midi": 78,
          "name": "F#5",
          "ticks": 143573,
          "time": 186.94401041666666,
          "velocity": 0.2755905511811024
        },
        {
          "duration": 0,
          "durationTicks": 0,
          "midi": 86,
          "name": "D6",
          "ticks": 143573,
          "time": 186.94401041666666,
          "velocity": 0.07874015748031496
        },
        {
          "duration": 0,
          "durationTicks": 0,
          "midi": 85,
          "name": "C#6",
          "ticks": 143573,
          "time": 186.94401041666666,
          "velocity": 0.11023622047244094
        },
        {
          "duration": 0.12890625,
          "durationTicks": 99,
          "midi": 83,
          "name": "B5",
          "ticks": 143573,
          "time": 186.94401041666666,
          "velocity": 0.1732283464566929
        },
        {
          "duration": 0,
          "durationTicks": 0,
          "midi": 79,
          "name": "G5",
          "ticks": 143591,
          "time": 186.96744791666666,
          "velocity": 0.25196850393700787
        },
        {
          "duration": 0.12890625,
          "durationTicks": 99,
          "midi": 73,
          "name": "C#5",
          "ticks": 143591,
          "time": 186.96744791666666,
          "velocity": 0.1732283464566929
        },
        {
          "duration": 0.12890625,
          "durationTicks": 99,
          "midi": 64,
          "name": "E4",
          "ticks": 143591,
          "time": 186.96744791666666,
          "velocity": 0.2283464566929134
        },
        {
          "duration": 0.12890625,
          "durationTicks": 99,
          "midi": 68,
          "name": "G#4",
          "ticks": 143591,
          "time": 186.96744791666666,
          "velocity": 0.2283464566929134
        },
        {
          "duration": 0,
          "durationTicks": 0,
          "midi": 72,
          "name": "C5",
          "ticks": 143601,
          "time": 186.98046875,
          "velocity": 0.18110236220472442
        },
        {
          "duration": 0,
          "durationTicks": 0,
          "midi": 38,
          "name": "D2",
          "ticks": 143601,
          "time": 186.98046875,
          "velocity": 0.2047244094488189
        },
        {
          "duration": 0,
          "durationTicks": 0,
          "midi": 81,
          "name": "A5",
          "ticks": 143601,
          "time": 186.98046875,
          "velocity": 0.1889763779527559
        },
        {
          "duration": 0,
          "durationTicks": 0,
          "midi": 87,
          "name": "D#6",
          "ticks": 143601,
          "time": 186.98046875,
          "velocity": 0.13385826771653545
        },
        {
          "duration": 0,
          "durationTicks": 0,
          "midi": 78,
          "name": "F#5",
          "ticks": 143610,
          "time": 186.9921875,
          "velocity": 0.31496062992125984
        },
        {
          "duration": 0.1276041666666572,
          "durationTicks": 98,
          "midi": 54,
          "name": "F#3",
          "ticks": 143610,
          "time": 186.9921875,
          "velocity": 0.3543307086614173
        },
        {
          "duration": 0.1276041666666572,
          "durationTicks": 98,
          "midi": 80,
          "name": "G#5",
          "ticks": 143619,
          "time": 187.00390625,
          "velocity": 0.36220472440944884
        },
        {
          "duration": 0,
          "durationTicks": 0,
          "midi": 88,
          "name": "E6",
          "ticks": 143629,
          "time": 187.01692708333334,
          "velocity": 0.25984251968503935
        },
        {
          "duration": 0,
          "durationTicks": 0,
          "midi": 82,
          "name": "A#5",
          "ticks": 143646,
          "time": 187.0390625,
          "velocity": 0.15748031496062992
        },
        {
          "duration": 0.1276041666666572,
          "durationTicks": 98,
          "midi": 74,
          "name": "D5",
          "ticks": 143665,
          "time": 187.06380208333334,
          "velocity": 0.14173228346456693
        },
        {
          "duration": 0,
          "durationTicks": 0,
          "midi": 61,
          "name": "C#4",
          "ticks": 143674,
          "time": 187.07552083333334,
          "velocity": 0.25196850393700787
        },
        {
          "duration": 0,
          "durationTicks": 0,
          "midi": 86,
          "name": "D6",
          "ticks": 143674,
          "time": 187.07552083333334,
          "velocity": 0.1732283464566929
        },
        {
          "duration": 0,
          "durationTicks": 0,
          "midi": 88,
          "name": "E6",
          "ticks": 143674,
          "time": 187.07552083333334,
          "velocity": 0.25984251968503935
        },
        {
          "duration": 0.1276041666666572,
          "durationTicks": 98,
          "midi": 81,
          "name": "A5",
          "ticks": 143674,
          "time": 187.07552083333334,
          "velocity": 0.3464566929133858
        },
        {
          "duration": 0.1276041666666572,
          "durationTicks": 98,
          "midi": 71,
          "name": "B4",
          "ticks": 143674,
          "time": 187.07552083333334,
          "velocity": 0.10236220472440945
        },
        {
          "duration": 0.1276041666666572,
          "durationTicks": 98,
          "midi": 52,
          "name": "E3",
          "ticks": 143674,
          "time": 187.07552083333334,
          "velocity": 0.36220472440944884
        },
        {
          "duration": 0,
          "durationTicks": 0,
          "midi": 59,
          "name": "B3",
          "ticks": 143683,
          "time": 187.08723958333334,
          "velocity": 0.25984251968503935
        },
        {
          "duration": 0.11848958333331439,
          "durationTicks": 91,
          "midi": 83,
          "name": "B5",
          "ticks": 143683,
          "time": 187.08723958333334,
          "velocity": 0.25984251968503935
        },
        {
          "duration": 0,
          "durationTicks": 0,
          "midi": 31,
          "name": "G1",
          "ticks": 143693,
          "time": 187.10026041666666,
          "velocity": 0.29133858267716534
        },
        {
          "duration": 0,
          "durationTicks": 0,
          "midi": 88,
          "name": "E6",
          "ticks": 143729,
          "time": 187.14713541666666,
          "velocity": 0.28346456692913385
        },
        {
          "duration": 0,
          "durationTicks": 0,
          "midi": 95,
          "name": "B6",
          "ticks": 143729,
          "time": 187.14713541666666,
          "velocity": 0.25984251968503935
        },
        {
          "duration": 0,
          "durationTicks": 0,
          "midi": 84,
          "name": "C6",
          "ticks": 143729,
          "time": 187.14713541666666,
          "velocity": 0.1968503937007874
        },
        {
          "duration": 0.12890625,
          "durationTicks": 99,
          "midi": 85,
          "name": "C#6",
          "ticks": 143756,
          "time": 187.18229166666666,
          "velocity": 0.25984251968503935
        },
        {
          "duration": 0.12890625,
          "durationTicks": 99,
          "midi": 66,
          "name": "F#4",
          "ticks": 143765,
          "time": 187.19401041666666,
          "velocity": 0.16535433070866143
        },
        {
          "duration": 0.009114583333342807,
          "durationTicks": 7,
          "midi": 83,
          "name": "B5",
          "ticks": 143774,
          "time": 187.20572916666666,
          "velocity": 0.15748031496062992
        },
        {
          "duration": 0,
          "durationTicks": 0,
          "midi": 90,
          "name": "F#6",
          "ticks": 143774,
          "time": 187.20572916666666,
          "velocity": 0.14960629921259844
        },
        {
          "duration": 0,
          "durationTicks": 0,
          "midi": 88,
          "name": "E6",
          "ticks": 143774,
          "time": 187.20572916666666,
          "velocity": 0.25984251968503935
        },
        {
          "duration": 0.12890625,
          "durationTicks": 99,
          "midi": 47,
          "name": "B2",
          "ticks": 143774,
          "time": 187.20572916666666,
          "velocity": 0.36220472440944884
        },
        {
          "duration": 0,
          "durationTicks": 0,
          "midi": 81,
          "name": "A5",
          "ticks": 143793,
          "time": 187.23046875,
          "velocity": 0.14960629921259844
        },
        {
          "duration": 0.1276041666666572,
          "durationTicks": 98,
          "midi": 86,
          "name": "D6",
          "ticks": 143802,
          "time": 187.2421875,
          "velocity": 0.29133858267716534
        },
        {
          "duration": 0,
          "durationTicks": 0,
          "midi": 76,
          "name": "E5",
          "ticks": 143812,
          "time": 187.25520833333334,
          "velocity": 0.14960629921259844
        },
        {
          "duration": 0,
          "durationTicks": 0,
          "midi": 80,
          "name": "G#5",
          "ticks": 143812,
          "time": 187.25520833333334,
          "velocity": 0.11811023622047244
        },
        {
          "duration": 0,
          "durationTicks": 0,
          "midi": 87,
          "name": "D#6",
          "ticks": 143821,
          "time": 187.26692708333334,
          "velocity": 0.15748031496062992
        },
        {
          "duration": 0,
          "durationTicks": 0,
          "midi": 83,
          "name": "B5",
          "ticks": 143830,
          "time": 187.27864583333334,
          "velocity": 0.13385826771653545
        },
        {
          "duration": 0.2552083333333144,
          "durationTicks": 196,
          "midi": 88,
          "name": "E6",
          "ticks": 143830,
          "time": 187.27864583333334,
          "velocity": 0.3937007874015748
        },
        {
          "duration": 0.1263020833333428,
          "durationTicks": 97,
          "midi": 81,
          "name": "A5",
          "ticks": 143840,
          "time": 187.29166666666666,
          "velocity": 0.1732283464566929
        },
        {
          "duration": 0,
          "durationTicks": 0,
          "midi": 72,
          "name": "C5",
          "ticks": 143857,
          "time": 187.31380208333334,
          "velocity": 0.13385826771653545
        },
        {
          "duration": 0,
          "durationTicks": 0,
          "midi": 56,
          "name": "G#3",
          "ticks": 143866,
          "time": 187.32552083333334,
          "velocity": 0.29133858267716534
        },
        {
          "duration": 0.12760416666668561,
          "durationTicks": 98,
          "midi": 40,
          "name": "E2",
          "ticks": 143876,
          "time": 187.33854166666666,
          "velocity": 0.36220472440944884
        },
        {
          "duration": 0,
          "durationTicks": 0,
          "midi": 87,
          "name": "D#6",
          "ticks": 143893,
          "time": 187.36067708333334,
          "velocity": 0.29133858267716534
        },
        {
          "duration": 0,
          "durationTicks": 0,
          "midi": 76,
          "name": "E5",
          "ticks": 143903,
          "time": 187.37369791666666,
          "velocity": 0.14960629921259844
        },
        {
          "duration": 0.12760416666668561,
          "durationTicks": 98,
          "midi": 83,
          "name": "B5",
          "ticks": 143912,
          "time": 187.38541666666666,
          "velocity": 0.1889763779527559
        },
        {
          "duration": 0,
          "durationTicks": 0,
          "midi": 59,
          "name": "B3",
          "ticks": 143921,
          "time": 187.39713541666666,
          "velocity": 0.10236220472440945
        },
        {
          "duration": 0,
          "durationTicks": 0,
          "midi": 82,
          "name": "A#5",
          "ticks": 143948,
          "time": 187.43229166666666,
          "velocity": 0.11023622047244094
        },
        {
          "duration": 0,
          "durationTicks": 0,
          "midi": 47,
          "name": "B2",
          "ticks": 143957,
          "time": 187.44401041666666,
          "velocity": 0.25196850393700787
        },
        {
          "duration": 0.013020833333342807,
          "durationTicks": 10,
          "midi": 85,
          "name": "C#6",
          "ticks": 143957,
          "time": 187.44401041666666,
          "velocity": 0.14173228346456693
        },
        {
          "duration": 0.2578125,
          "durationTicks": 198,
          "midi": 68,
          "name": "G#4",
          "ticks": 143957,
          "time": 187.44401041666666,
          "velocity": 0.2283464566929134
        },
        {
          "duration": 0.2578125,
          "durationTicks": 198,
          "midi": 64,
          "name": "E4",
          "ticks": 143957,
          "time": 187.44401041666666,
          "velocity": 0.2204724409448819
        },
        {
          "duration": 0,
          "durationTicks": 0,
          "midi": 60,
          "name": "C4",
          "ticks": 143967,
          "time": 187.45703125,
          "velocity": 0.25984251968503935
        },
        {
          "duration": 0.11588541666665719,
          "durationTicks": 89,
          "midi": 85,
          "name": "C#6",
          "ticks": 143967,
          "time": 187.45703125,
          "velocity": 0.14960629921259844
        },
        {
          "duration": 0,
          "durationTicks": 0,
          "midi": 80,
          "name": "G#5",
          "ticks": 143967,
          "time": 187.45703125,
          "velocity": 0.2283464566929134
        },
        {
          "duration": 0,
          "durationTicks": 0,
          "midi": 35,
          "name": "B1",
          "ticks": 143985,
          "time": 187.48046875,
          "velocity": 0.28346456692913385
        },
        {
          "duration": 0,
          "durationTicks": 0,
          "midi": 57,
          "name": "A3",
          "ticks": 143995,
          "time": 187.49348958333334,
          "velocity": 0.2047244094488189
        },
        {
          "duration": 0.12890625,
          "durationTicks": 99,
          "midi": 76,
          "name": "E5",
          "ticks": 143995,
          "time": 187.49348958333334,
          "velocity": 0.23622047244094488
        },
        {
          "duration": 0,
          "durationTicks": 0,
          "midi": 86,
          "name": "D6",
          "ticks": 144012,
          "time": 187.515625,
          "velocity": 0.14960629921259844
        },
        {
          "duration": 0,
          "durationTicks": 0,
          "midi": 29,
          "name": "F1",
          "ticks": 144022,
          "time": 187.52864583333334,
          "velocity": 0.1968503937007874
        },
        {
          "duration": 0,
          "durationTicks": 0,
          "midi": 57,
          "name": "A3",
          "ticks": 144022,
          "time": 187.52864583333334,
          "velocity": 0.1968503937007874
        },
        {
          "duration": 0,
          "durationTicks": 0,
          "midi": 59,
          "name": "B3",
          "ticks": 144022,
          "time": 187.52864583333334,
          "velocity": 0.1968503937007874
        },
        {
          "duration": 0.12890625,
          "durationTicks": 99,
          "midi": 84,
          "name": "C6",
          "ticks": 144031,
          "time": 187.54036458333334,
          "velocity": 0.14173228346456693
        },
        {
          "duration": 0,
          "durationTicks": 0,
          "midi": 58,
          "name": "A#3",
          "ticks": 144040,
          "time": 187.55208333333334,
          "velocity": 0.2755905511811024
        },
        {
          "duration": 0.12109375,
          "durationTicks": 93,
          "midi": 73,
          "name": "C#5",
          "ticks": 144049,
          "time": 187.56380208333334,
          "velocity": 0.2204724409448819
        },
        {
          "duration": 0,
          "durationTicks": 0,
          "midi": 58,
          "name": "A#3",
          "ticks": 144068,
          "time": 187.58854166666666,
          "velocity": 0.2755905511811024
        },
        {
          "duration": 0,
          "durationTicks": 0,
          "midi": 88,
          "name": "E6",
          "ticks": 144068,
          "time": 187.58854166666666,
          "velocity": 0.14173228346456693
        },
        {
          "duration": 0.12890625,
          "durationTicks": 99,
          "midi": 33,
          "name": "A1",
          "ticks": 144077,
          "time": 187.60026041666666,
          "velocity": 0.3464566929133858
        },
        {
          "duration": 0,
          "durationTicks": 0,
          "midi": 59,
          "name": "B3",
          "ticks": 144087,
          "time": 187.61328125,
          "velocity": 0.25984251968503935
        },
        {
          "duration": 0,
          "durationTicks": 0,
          "midi": 79,
          "name": "G5",
          "ticks": 144087,
          "time": 187.61328125,
          "velocity": 0.2677165354330709
        },
        {
          "duration": 0,
          "durationTicks": 0,
          "midi": 86,
          "name": "D6",
          "ticks": 144087,
          "time": 187.61328125,
          "velocity": 0.14173228346456693
        },
        {
          "duration": 0.2552083333333428,
          "durationTicks": 196,
          "midi": 88,
          "name": "E6",
          "ticks": 144087,
          "time": 187.61328125,
          "velocity": 0.1968503937007874
        },
        {
          "duration": 0,
          "durationTicks": 0,
          "midi": 71,
          "name": "B4",
          "ticks": 144105,
          "time": 187.63671875,
          "velocity": 0.29133858267716534
        },
        {
          "duration": 0,
          "durationTicks": 0,
          "midi": 86,
          "name": "D6",
          "ticks": 144105,
          "time": 187.63671875,
          "velocity": 0.05511811023622047
        },
        {
          "duration": 0,
          "durationTicks": 0,
          "midi": 75,
          "name": "D#5",
          "ticks": 144115,
          "time": 187.64973958333334,
          "velocity": 0.2677165354330709
        },
        {
          "duration": 0,
          "durationTicks": 0,
          "midi": 70,
          "name": "A#4",
          "ticks": 144142,
          "time": 187.68489583333334,
          "velocity": 0.3228346456692913
        },
        {
          "duration": 0.0078125,
          "durationTicks": 6,
          "midi": 73,
          "name": "C#5",
          "ticks": 144142,
          "time": 187.68489583333334,
          "velocity": 0.14173228346456693
        },
        {
          "duration": 0.12630208333331439,
          "durationTicks": 97,
          "midi": 78,
          "name": "F#5",
          "ticks": 144142,
          "time": 187.68489583333334,
          "velocity": 0.3779527559055118
        },
        {
          "duration": 0,
          "durationTicks": 0,
          "midi": 85,
          "name": "C#6",
          "ticks": 144160,
          "time": 187.70833333333334,
          "velocity": 0.10236220472440945
        },
        {
          "duration": 0.12630208333331439,
          "durationTicks": 97,
          "midi": 80,
          "name": "G#5",
          "ticks": 144169,
          "time": 187.72005208333334,
          "velocity": 0.1889763779527559
        },
        {
          "duration": 0.5052083333333428,
          "durationTicks": 388,
          "midi": 76,
          "name": "E5",
          "ticks": 144179,
          "time": 187.73307291666666,
          "velocity": 0.3858267716535433
        },
        {
          "duration": 0.12630208333331439,
          "durationTicks": 97,
          "midi": 45,
          "name": "A2",
          "ticks": 144241,
          "time": 187.81380208333334,
          "velocity": 0.3543307086614173
        },
        {
          "duration": 0,
          "durationTicks": 0,
          "midi": 73,
          "name": "C#5",
          "ticks": 144250,
          "time": 187.82552083333334,
          "velocity": 0.14173228346456693
        },
        {
          "duration": 0,
          "durationTicks": 0,
          "midi": 95,
          "name": "B6",
          "ticks": 144250,
          "time": 187.82552083333334,
          "velocity": 0.11023622047244094
        },
        {
          "duration": 0,
          "durationTicks": 0,
          "midi": 83,
          "name": "B5",
          "ticks": 144259,
          "time": 187.83723958333334,
          "velocity": 0.16535433070866143
        },
        {
          "duration": 0.12630208333331439,
          "durationTicks": 97,
          "midi": 64,
          "name": "E4",
          "ticks": 144259,
          "time": 187.83723958333334,
          "velocity": 0.2283464566929134
        },
        {
          "duration": 0.12630208333331439,
          "durationTicks": 97,
          "midi": 68,
          "name": "G#4",
          "ticks": 144259,
          "time": 187.83723958333334,
          "velocity": 0.2283464566929134
        },
        {
          "duration": 0,
          "durationTicks": 0,
          "midi": 58,
          "name": "A#3",
          "ticks": 144269,
          "time": 187.85026041666666,
          "velocity": 0.2677165354330709
        },
        {
          "duration": 0,
          "durationTicks": 0,
          "midi": 79,
          "name": "G5",
          "ticks": 144278,
          "time": 187.86197916666666,
          "velocity": 0.18110236220472442
        },
        {
          "duration": 0,
          "durationTicks": 0,
          "midi": 71,
          "name": "B4",
          "ticks": 144296,
          "time": 187.88541666666666,
          "velocity": 0.18110236220472442
        },
        {
          "duration": 0,
          "durationTicks": 0,
          "midi": 78,
          "name": "F#5",
          "ticks": 144313,
          "time": 187.90755208333334,
          "velocity": 0.09448818897637795
        },
        {
          "duration": 0,
          "durationTicks": 0,
          "midi": 58,
          "name": "A#3",
          "ticks": 144331,
          "time": 187.93098958333334,
          "velocity": 0.28346456692913385
        },
        {
          "duration": 0,
          "durationTicks": 0,
          "midi": 81,
          "name": "A5",
          "ticks": 144340,
          "time": 187.94270833333334,
          "velocity": 0.13385826771653545
        },
        {
          "duration": 0,
          "durationTicks": 0,
          "midi": 86,
          "name": "D6",
          "ticks": 144340,
          "time": 187.94270833333334,
          "velocity": 0.09448818897637795
        },
        {
          "duration": 0.12630208333331439,
          "durationTicks": 97,
          "midi": 92,
          "name": "G#6",
          "ticks": 144340,
          "time": 187.94270833333334,
          "velocity": 0.14173228346456693
        },
        {
          "duration": 0.2526041666666572,
          "durationTicks": 194,
          "midi": 73,
          "name": "C#5",
          "ticks": 144340,
          "time": 187.94270833333334,
          "velocity": 0.3700787401574803
        },
        {
          "duration": 0.12630208333331439,
          "durationTicks": 97,
          "midi": 78,
          "name": "F#5",
          "ticks": 144349,
          "time": 187.95442708333334,
          "velocity": 0.2047244094488189
        },
        {
          "duration": 0,
          "durationTicks": 0,
          "midi": 37,
          "name": "C#2",
          "ticks": 144359,
          "time": 187.96744791666666,
          "velocity": 0.2677165354330709
        },
        {
          "duration": 0,
          "durationTicks": 0,
          "midi": 57,
          "name": "A3",
          "ticks": 144359,
          "time": 187.96744791666666,
          "velocity": 0.2992125984251969
        },
        {
          "duration": 0.1263020833333428,
          "durationTicks": 97,
          "midi": 89,
          "name": "F6",
          "ticks": 144359,
          "time": 187.96744791666666,
          "velocity": 0.07874015748031496
        },
        {
          "duration": 0,
          "durationTicks": 0,
          "midi": 80,
          "name": "G#5",
          "ticks": 144368,
          "time": 187.97916666666666,
          "velocity": 0.11023622047244094
        },
        {
          "duration": 0,
          "durationTicks": 0,
          "midi": 38,
          "name": "D2",
          "ticks": 144377,
          "time": 187.99088541666666,
          "velocity": 0.1732283464566929
        },
        {
          "duration": 0,
          "durationTicks": 0,
          "midi": 57,
          "name": "A3",
          "ticks": 144422,
          "time": 188.04947916666666,
          "velocity": 0.10236220472440945
        },
        {
          "duration": 0.12630208333331439,
          "durationTicks": 97,
          "midi": 95,
          "name": "B6",
          "ticks": 144439,
          "time": 188.07161458333334,
          "velocity": 0.14960629921259844
        },
        {
          "duration": 0,
          "durationTicks": 0,
          "midi": 80,
          "name": "G#5",
          "ticks": 144449,
          "time": 188.08463541666666,
          "velocity": 0.14960629921259844
        },
        {
          "duration": 0.1263020833333428,
          "durationTicks": 97,
          "midi": 52,
          "name": "E3",
          "ticks": 144449,
          "time": 188.08463541666666,
          "velocity": 0.10236220472440945
        },
        {
          "duration": 0.1263020833333428,
          "durationTicks": 97,
          "midi": 33,
          "name": "A1",
          "ticks": 144458,
          "time": 188.09635416666666,
          "velocity": 0.3464566929133858
        },
        {
          "duration": 0,
          "durationTicks": 0,
          "midi": 71,
          "name": "B4",
          "ticks": 144503,
          "time": 188.15494791666666,
          "velocity": 0.12598425196850394
        },
        {
          "duration": 0.1263020833333428,
          "durationTicks": 97,
          "midi": 92,
          "name": "G#6",
          "ticks": 144530,
          "time": 188.19010416666666,
          "velocity": 0.13385826771653545
        },
        {
          "duration": 0.1263020833333428,
          "durationTicks": 97,
          "midi": 73,
          "name": "C#5",
          "ticks": 144530,
          "time": 188.19010416666666,
          "velocity": 0.3464566929133858
        },
        {
          "duration": 0,
          "durationTicks": 0,
          "midi": 57,
          "name": "A3",
          "ticks": 144539,
          "time": 188.20182291666666,
          "velocity": 0.18110236220472442
        },
        {
          "duration": 0,
          "durationTicks": 0,
          "midi": 60,
          "name": "C4",
          "ticks": 144539,
          "time": 188.20182291666666,
          "velocity": 0.2047244094488189
        },
        {
          "duration": 0.1263020833333428,
          "durationTicks": 97,
          "midi": 68,
          "name": "G#4",
          "ticks": 144539,
          "time": 188.20182291666666,
          "velocity": 0.2047244094488189
        },
        {
          "duration": 0,
          "durationTicks": 0,
          "midi": 89,
          "name": "F6",
          "ticks": 144548,
          "time": 188.21354166666666,
          "velocity": 0.07086614173228346
        },
        {
          "duration": 0.1263020833333428,
          "durationTicks": 97,
          "midi": 64,
          "name": "E4",
          "ticks": 144548,
          "time": 188.21354166666666,
          "velocity": 0.2047244094488189
        },
        {
          "duration": 0,
          "durationTicks": 0,
          "midi": 58,
          "name": "A#3",
          "ticks": 144584,
          "time": 188.26041666666666,
          "velocity": 0.2677165354330709
        },
        {
          "duration": 0,
          "durationTicks": 0,
          "midi": 58,
          "name": "A#3",
          "ticks": 144620,
          "time": 188.30729166666666,
          "velocity": 0.2677165354330709
        },
        {
          "duration": 0.1263020833333428,
          "durationTicks": 97,
          "midi": 90,
          "name": "F#6",
          "ticks": 144629,
          "time": 188.31901041666666,
          "velocity": 0.11811023622047244
        },
        {
          "duration": 0.1263020833333428,
          "durationTicks": 97,
          "midi": 35,
          "name": "B1",
          "ticks": 144629,
          "time": 188.31901041666666,
          "velocity": 0.36220472440944884
        },
        {
          "duration": 0.2526041666666856,
          "durationTicks": 194,
          "midi": 71,
          "name": "B4",
          "ticks": 144629,
          "time": 188.31901041666666,
          "velocity": 0.3779527559055118
        },
        {
          "duration": 0,
          "durationTicks": 0,
          "midi": 73,
          "name": "C#5",
          "ticks": 144647,
          "time": 188.34244791666666,
          "velocity": 0.06299212598425197
        },
        {
          "duration": 0.1263020833333428,
          "durationTicks": 97,
          "midi": 54,
          "name": "F#3",
          "ticks": 144647,
          "time": 188.34244791666666,
          "velocity": 0.14960629921259844
        },
        {
          "duration": 0,
          "durationTicks": 0,
          "midi": 69,
          "name": "A4",
          "ticks": 144719,
          "time": 188.43619791666666,
          "velocity": 0.18110236220472442
        },
        {
          "duration": 0.1263020833333428,
          "durationTicks": 97,
          "midi": 80,
          "name": "G#5",
          "ticks": 144728,
          "time": 188.44791666666666,
          "velocity": 0.10236220472440945
        },
        {
          "duration": 0.1263020833333428,
          "durationTicks": 97,
          "midi": 64,
          "name": "E4",
          "ticks": 144728,
          "time": 188.44791666666666,
          "velocity": 0.2204724409448819
        },
        {
          "duration": 0.25390625,
          "durationTicks": 195,
          "midi": 61,
          "name": "C#4",
          "ticks": 144728,
          "time": 188.44791666666666,
          "velocity": 0.2440944881889764
        },
        {
          "duration": 0,
          "durationTicks": 0,
          "midi": 32,
          "name": "G#1",
          "ticks": 144737,
          "time": 188.45963541666666,
          "velocity": 0.29133858267716534
        },
        {
          "duration": 0.1263020833333428,
          "durationTicks": 97,
          "midi": 68,
          "name": "G#4",
          "ticks": 144737,
          "time": 188.45963541666666,
          "velocity": 0.2755905511811024
        },
        {
          "duration": 0.25390625,
          "durationTicks": 195,
          "midi": 57,
          "name": "A3",
          "ticks": 144737,
          "time": 188.45963541666666,
          "velocity": 0.2283464566929134
        },
        {
          "duration": 0,
          "durationTicks": 0,
          "midi": 31,
          "name": "G1",
          "ticks": 144764,
          "time": 188.49479166666666,
          "velocity": 0.2677165354330709
        },
        {
          "duration": 0,
          "durationTicks": 0,
          "midi": 29,
          "name": "F1",
          "ticks": 144791,
          "time": 188.52994791666666,
          "velocity": 0.18110236220472442
        },
        {
          "duration": 0,
          "durationTicks": 0,
          "midi": 70,
          "name": "A#4",
          "ticks": 144801,
          "time": 188.54296875,
          "velocity": 0.3937007874015748
        },
        {
          "duration": 0,
          "durationTicks": 0,
          "midi": 69,
          "name": "A4",
          "ticks": 144818,
          "time": 188.56510416666666,
          "velocity": 0.4251968503937008
        },
        {
          "duration": 0.12760416666668561,
          "durationTicks": 98,
          "midi": 85,
          "name": "C#6",
          "ticks": 144818,
          "time": 188.56510416666666,
          "velocity": 0.1968503937007874
        },
        {
          "duration": 0.12760416666668561,
          "durationTicks": 98,
          "midi": 35,
          "name": "B1",
          "ticks": 144818,
          "time": 188.56510416666666,
          "velocity": 0.36220472440944884
        },
        {
          "duration": 0,
          "durationTicks": 0,
          "midi": 87,
          "name": "D#6",
          "ticks": 144827,
          "time": 188.57682291666666,
          "velocity": 0.12598425196850394
        },
        {
          "duration": 0,
          "durationTicks": 0,
          "midi": 68,
          "name": "G#4",
          "ticks": 144846,
          "time": 188.6015625,
          "velocity": 0.4094488188976378
        },
        {
          "duration": 0.1276041666666572,
          "durationTicks": 98,
          "midi": 71,
          "name": "B4",
          "ticks": 144846,
          "time": 188.6015625,
          "velocity": 0.1968503937007874
        },
        {
          "duration": 0,
          "durationTicks": 0,
          "midi": 86,
          "name": "D6",
          "ticks": 144855,
          "time": 188.61328125,
          "velocity": 0.13385826771653545
        },
        {
          "duration": 0,
          "durationTicks": 0,
          "midi": 64,
          "name": "E4",
          "ticks": 144865,
          "time": 188.62630208333334,
          "velocity": 0.2204724409448819
        },
        {
          "duration": 0,
          "durationTicks": 0,
          "midi": 67,
          "name": "G4",
          "ticks": 144865,
          "time": 188.62630208333334,
          "velocity": 0.4015748031496063
        },
        {
          "duration": 0,
          "durationTicks": 0,
          "midi": 66,
          "name": "F#4",
          "ticks": 144892,
          "time": 188.66145833333334,
          "velocity": 0.3937007874015748
        },
        {
          "duration": 0,
          "durationTicks": 0,
          "midi": 65,
          "name": "F4",
          "ticks": 144909,
          "time": 188.68359375,
          "velocity": 0.4094488188976378
        },
        {
          "duration": 0,
          "durationTicks": 0,
          "midi": 48,
          "name": "C3",
          "ticks": 144909,
          "time": 188.68359375,
          "velocity": 0.3543307086614173
        },
        {
          "duration": 0,
          "durationTicks": 0,
          "midi": 84,
          "name": "C6",
          "ticks": 144909,
          "time": 188.68359375,
          "velocity": 0.11811023622047244
        },
        {
          "duration": 0.25390625,
          "durationTicks": 195,
          "midi": 86,
          "name": "D6",
          "ticks": 144928,
          "time": 188.70833333333334,
          "velocity": 0.14173228346456693
        },
        {
          "duration": 0.1276041666666572,
          "durationTicks": 98,
          "midi": 47,
          "name": "B2",
          "ticks": 144937,
          "time": 188.72005208333334,
          "velocity": 0.36220472440944884
        },
        {
          "duration": 0,
          "durationTicks": 0,
          "midi": 69,
          "name": "A4",
          "ticks": 144956,
          "time": 188.74479166666666,
          "velocity": 0.4015748031496063
        },
        {
          "duration": 0,
          "durationTicks": 0,
          "midi": 73,
          "name": "C#5",
          "ticks": 144973,
          "time": 188.76692708333334,
          "velocity": 0.3464566929133858
        },
        {
          "duration": 0,
          "durationTicks": 0,
          "midi": 71,
          "name": "B4",
          "ticks": 144983,
          "time": 188.77994791666666,
          "velocity": 0.25984251968503935
        },
        {
          "duration": 0,
          "durationTicks": 0,
          "midi": 77,
          "name": "F5",
          "ticks": 144992,
          "time": 188.79166666666666,
          "velocity": 0.3543307086614173
        },
        {
          "duration": 0,
          "durationTicks": 0,
          "midi": 69,
          "name": "A4",
          "ticks": 145001,
          "time": 188.80338541666666,
          "velocity": 0.1968503937007874
        },
        {
          "duration": 0.125,
          "durationTicks": 96,
          "midi": 35,
          "name": "B1",
          "ticks": 145011,
          "time": 188.81640625,
          "velocity": 0.36220472440944884
        },
        {
          "duration": 0.3815104166666572,
          "durationTicks": 293,
          "midi": 61,
          "name": "C#4",
          "ticks": 145011,
          "time": 188.81640625,
          "velocity": 0.2283464566929134
        },
        {
          "duration": 0.125,
          "durationTicks": 96,
          "midi": 57,
          "name": "A3",
          "ticks": 145020,
          "time": 188.828125,
          "velocity": 0.2283464566929134
        },
        {
          "duration": 0.125,
          "durationTicks": 96,
          "midi": 64,
          "name": "E4",
          "ticks": 145020,
          "time": 188.828125,
          "velocity": 0.2440944881889764
        },
        {
          "duration": 0.125,
          "durationTicks": 96,
          "midi": 68,
          "name": "G#4",
          "ticks": 145020,
          "time": 188.828125,
          "velocity": 0.25984251968503935
        },
        {
          "duration": 0,
          "durationTicks": 0,
          "midi": 58,
          "name": "A#3",
          "ticks": 145100,
          "time": 188.93229166666666,
          "velocity": 0.23622047244094488
        },
        {
          "duration": 0,
          "durationTicks": 0,
          "midi": 50,
          "name": "D3",
          "ticks": 145109,
          "time": 188.94401041666666,
          "velocity": 0.3464566929133858
        },
        {
          "duration": 0,
          "durationTicks": 0,
          "midi": 66,
          "name": "F#4",
          "ticks": 145109,
          "time": 188.94401041666666,
          "velocity": 0.2204724409448819
        },
        {
          "duration": 0,
          "durationTicks": 0,
          "midi": 89,
          "name": "F6",
          "ticks": 145109,
          "time": 188.94401041666666,
          "velocity": 0.08661417322834646
        },
        {
          "duration": 0.12760416666668561,
          "durationTicks": 98,
          "midi": 80,
          "name": "G#5",
          "ticks": 145109,
          "time": 188.94401041666666,
          "velocity": 0.15748031496062992
        },
        {
          "duration": 0.12760416666668561,
          "durationTicks": 98,
          "midi": 76,
          "name": "E5",
          "ticks": 145109,
          "time": 188.94401041666666,
          "velocity": 0.1968503937007874
        },
        {
          "duration": 0,
          "durationTicks": 0,
          "midi": 71,
          "name": "B4",
          "ticks": 145118,
          "time": 188.95572916666666,
          "velocity": 0.30708661417322836
        },
        {
          "duration": 0,
          "durationTicks": 0,
          "midi": 37,
          "name": "C#2",
          "ticks": 145118,
          "time": 188.95572916666666,
          "velocity": 0.2677165354330709
        },
        {
          "duration": 0.12760416666668561,
          "durationTicks": 98,
          "midi": 57,
          "name": "A3",
          "ticks": 145118,
          "time": 188.95572916666666,
          "velocity": 0.3464566929133858
        },
        {
          "duration": 0.2565104166666856,
          "durationTicks": 197,
          "midi": 87,
          "name": "D#6",
          "ticks": 145118,
          "time": 188.95572916666666,
          "velocity": 0.18110236220472442
        },
        {
          "duration": 0.12760416666668561,
          "durationTicks": 98,
          "midi": 49,
          "name": "C#3",
          "ticks": 145127,
          "time": 188.96744791666666,
          "velocity": 0.3464566929133858
        },
        {
          "duration": 0,
          "durationTicks": 0,
          "midi": 68,
          "name": "G#4",
          "ticks": 145137,
          "time": 188.98046875,
          "velocity": 0.23622047244094488
        },
        {
          "duration": 0.1276041666666572,
          "durationTicks": 98,
          "midi": 64,
          "name": "E4",
          "ticks": 145137,
          "time": 188.98046875,
          "velocity": 0.2283464566929134
        },
        {
          "duration": 0,
          "durationTicks": 0,
          "midi": 73,
          "name": "C#5",
          "ticks": 145146,
          "time": 188.9921875,
          "velocity": 0.29133858267716534
        },
        {
          "duration": 0,
          "durationTicks": 0,
          "midi": 68,
          "name": "G#4",
          "ticks": 145182,
          "time": 189.0390625,
          "velocity": 0.16535433070866143
        },
        {
          "duration": 0,
          "durationTicks": 0,
          "midi": 58,
          "name": "A#3",
          "ticks": 145200,
          "time": 189.0625,
          "velocity": 0.2283464566929134
        },
        {
          "duration": 0,
          "durationTicks": 0,
          "midi": 66,
          "name": "F#4",
          "ticks": 145209,
          "time": 189.07421875,
          "velocity": 0.11023622047244094
        },
        {
          "duration": 0.12890625,
          "durationTicks": 99,
          "midi": 47,
          "name": "B2",
          "ticks": 145218,
          "time": 189.0859375,
          "velocity": 0.36220472440944884
        },
        {
          "duration": 0,
          "durationTicks": 0,
          "midi": 71,
          "name": "B4",
          "ticks": 145246,
          "time": 189.12239583333334,
          "velocity": 0.3464566929133858
        },
        {
          "duration": 0.10677083333334281,
          "durationTicks": 82,
          "midi": 64,
          "name": "E4",
          "ticks": 145256,
          "time": 189.13541666666666,
          "velocity": 0.1968503937007874
        },
        {
          "duration": 0,
          "durationTicks": 0,
          "midi": 69,
          "name": "A4",
          "ticks": 145283,
          "time": 189.17057291666666,
          "velocity": 0.31496062992125984
        },
        {
          "duration": 0,
          "durationTicks": 0,
          "midi": 48,
          "name": "C3",
          "ticks": 145292,
          "time": 189.18229166666666,
          "velocity": 0.3464566929133858
        },
        {
          "duration": 0,
          "durationTicks": 0,
          "midi": 67,
          "name": "G4",
          "ticks": 145301,
          "time": 189.19401041666666,
          "velocity": 0.3779527559055118
        },
        {
          "duration": 0.12760416666668561,
          "durationTicks": 98,
          "midi": 86,
          "name": "D6",
          "ticks": 145301,
          "time": 189.19401041666666,
          "velocity": 0.07874015748031496
        },
        {
          "duration": 0.12760416666668561,
          "durationTicks": 98,
          "midi": 88,
          "name": "E6",
          "ticks": 145301,
          "time": 189.19401041666666,
          "velocity": 0.1968503937007874
        },
        {
          "duration": 0.1276041666666572,
          "durationTicks": 98,
          "midi": 58,
          "name": "A#3",
          "ticks": 145311,
          "time": 189.20703125,
          "velocity": 0.2283464566929134
        },
        {
          "duration": 0.1276041666666572,
          "durationTicks": 98,
          "midi": 36,
          "name": "C2",
          "ticks": 145311,
          "time": 189.20703125,
          "velocity": 0.36220472440944884
        },
        {
          "duration": 0.1276041666666572,
          "durationTicks": 98,
          "midi": 77,
          "name": "F5",
          "ticks": 145320,
          "time": 189.21875,
          "velocity": 0.1889763779527559
        },
        {
          "duration": 0,
          "durationTicks": 0,
          "midi": 65,
          "name": "F4",
          "ticks": 145329,
          "time": 189.23046875,
          "velocity": 0.4015748031496063
        },
        {
          "duration": 0,
          "durationTicks": 0,
          "midi": 69,
          "name": "A4",
          "ticks": 145329,
          "time": 189.23046875,
          "velocity": 0.28346456692913385
        },
        {
          "duration": 0,
          "durationTicks": 0,
          "midi": 73,
          "name": "C#5",
          "ticks": 145329,
          "time": 189.23046875,
          "velocity": 0.1968503937007874
        },
        {
          "duration": 0.020833333333342807,
          "durationTicks": 16,
          "midi": 64,
          "name": "E4",
          "ticks": 145338,
          "time": 189.2421875,
          "velocity": 0.3464566929133858
        },
        {
          "duration": 0,
          "durationTicks": 0,
          "midi": 63,
          "name": "D#4",
          "ticks": 145356,
          "time": 189.265625,
          "velocity": 0.25984251968503935
        },
        {
          "duration": 0,
          "durationTicks": 0,
          "midi": 71,
          "name": "B4",
          "ticks": 145356,
          "time": 189.265625,
          "velocity": 0.25984251968503935
        },
        {
          "duration": 0.1276041666666572,
          "durationTicks": 98,
          "midi": 65,
          "name": "F4",
          "ticks": 145365,
          "time": 189.27734375,
          "velocity": 0.2125984251968504
        },
        {
          "duration": 0.1276041666666572,
          "durationTicks": 98,
          "midi": 69,
          "name": "A4",
          "ticks": 145365,
          "time": 189.27734375,
          "velocity": 0.2283464566929134
        },
        {
          "duration": 0,
          "durationTicks": 0,
          "midi": 62,
          "name": "D4",
          "ticks": 145375,
          "time": 189.29036458333334,
          "velocity": 0.2125984251968504
        },
        {
          "duration": 0.25390625,
          "durationTicks": 195,
          "midi": 87,
          "name": "D#6",
          "ticks": 145411,
          "time": 189.33723958333334,
          "velocity": 0.08661417322834646
        },
        {
          "duration": 0,
          "durationTicks": 0,
          "midi": 57,
          "name": "A3",
          "ticks": 145420,
          "time": 189.34895833333334,
          "velocity": 0.3779527559055118
        },
        {
          "duration": 0,
          "durationTicks": 0,
          "midi": 73,
          "name": "C#5",
          "ticks": 145420,
          "time": 189.34895833333334,
          "velocity": 0.2283464566929134
        },
        {
          "duration": 0.12630208333331439,
          "durationTicks": 97,
          "midi": 89,
          "name": "F6",
          "ticks": 145420,
          "time": 189.34895833333334,
          "velocity": 0.2125984251968504
        },
        {
          "duration": 0.12630208333331439,
          "durationTicks": 97,
          "midi": 62,
          "name": "D4",
          "ticks": 145420,
          "time": 189.34895833333334,
          "velocity": 0.2440944881889764
        },
        {
          "duration": 0,
          "durationTicks": 0,
          "midi": 31,
          "name": "G1",
          "ticks": 145438,
          "time": 189.37239583333334,
          "velocity": 0.2755905511811024
        },
        {
          "duration": 0,
          "durationTicks": 0,
          "midi": 71,
          "name": "B4",
          "ticks": 145447,
          "time": 189.38411458333334,
          "velocity": 0.1968503937007874
        },
        {
          "duration": 0.12630208333331439,
          "durationTicks": 97,
          "midi": 76,
          "name": "E5",
          "ticks": 145447,
          "time": 189.38411458333334,
          "velocity": 0.2677165354330709
        },
        {
          "duration": 0,
          "durationTicks": 0,
          "midi": 95,
          "name": "B6",
          "ticks": 145456,
          "time": 189.39583333333334,
          "velocity": 0.05511811023622047
        },
        {
          "duration": 0,
          "durationTicks": 0,
          "midi": 29,
          "name": "F1",
          "ticks": 145466,
          "time": 189.40885416666666,
          "velocity": 0.1732283464566929
        },
        {
          "duration": 0,
          "durationTicks": 0,
          "midi": 58,
          "name": "A#3",
          "ticks": 145466,
          "time": 189.40885416666666,
          "velocity": 0.2283464566929134
        },
        {
          "duration": 0,
          "durationTicks": 0,
          "midi": 68,
          "name": "G#4",
          "ticks": 145475,
          "time": 189.42057291666666,
          "velocity": 0.1889763779527559
        },
        {
          "duration": 0,
          "durationTicks": 0,
          "midi": 90,
          "name": "F#6",
          "ticks": 145475,
          "time": 189.42057291666666,
          "velocity": 0.18110236220472442
        },
        {
          "duration": 0,
          "durationTicks": 0,
          "midi": 67,
          "name": "G4",
          "ticks": 145493,
          "time": 189.44401041666666,
          "velocity": 0.2204724409448819
        },
        {
          "duration": 0,
          "durationTicks": 0,
          "midi": 57,
          "name": "A3",
          "ticks": 145502,
          "time": 189.45572916666666,
          "velocity": 0.2283464566929134
        },
        {
          "duration": 0.1263020833333428,
          "durationTicks": 97,
          "midi": 36,
          "name": "C2",
          "ticks": 145502,
          "time": 189.45572916666666,
          "velocity": 0.36220472440944884
        },
        {
          "duration": 0,
          "durationTicks": 0,
          "midi": 91,
          "name": "G6",
          "ticks": 145519,
          "time": 189.47786458333334,
          "velocity": 0.1732283464566929
        },
        {
          "duration": 0.1276041666666572,
          "durationTicks": 98,
          "midi": 61,
          "name": "C#4",
          "ticks": 145546,
          "time": 189.51302083333334,
          "velocity": 0.23622047244094488
        },
        {
          "duration": 0,
          "durationTicks": 0,
          "midi": 57,
          "name": "A3",
          "ticks": 145556,
          "time": 189.52604166666666,
          "velocity": 0.1889763779527559
        },
        {
          "duration": 0,
          "durationTicks": 0,
          "midi": 92,
          "name": "G#6",
          "ticks": 145565,
          "time": 189.53776041666666,
          "velocity": 0.18110236220472442
        },
        {
          "duration": 0,
          "durationTicks": 0,
          "midi": 66,
          "name": "F#4",
          "ticks": 145574,
          "time": 189.54947916666666,
          "velocity": 0.14173228346456693
        },
        {
          "duration": 0.12760416666668561,
          "durationTicks": 98,
          "midi": 64,
          "name": "E4",
          "ticks": 145592,
          "time": 189.57291666666666,
          "velocity": 0.1889763779527559
        },
        {
          "duration": 0.12760416666668561,
          "durationTicks": 98,
          "midi": 36,
          "name": "C2",
          "ticks": 145592,
          "time": 189.57291666666666,
          "velocity": 0.36220472440944884
        },
        {
          "duration": 0,
          "durationTicks": 0,
          "midi": 72,
          "name": "C5",
          "ticks": 145601,
          "time": 189.58463541666666,
          "velocity": 0.15748031496062992
        },
        {
          "duration": 0,
          "durationTicks": 0,
          "midi": 93,
          "name": "A6",
          "ticks": 145601,
          "time": 189.58463541666666,
          "velocity": 0.1732283464566929
        },
        {
          "duration": 0.25390625,
          "durationTicks": 195,
          "midi": 88,
          "name": "E6",
          "ticks": 145601,
          "time": 189.58463541666666,
          "velocity": 0.13385826771653545
        },
        {
          "duration": 0,
          "durationTicks": 0,
          "midi": 69,
          "name": "A4",
          "ticks": 145628,
          "time": 189.61979166666666,
          "velocity": 0.1968503937007874
        },
        {
          "duration": 0,
          "durationTicks": 0,
          "midi": 94,
          "name": "A#6",
          "ticks": 145637,
          "time": 189.63151041666666,
          "velocity": 0.1889763779527559
        },
        {
          "duration": 0,
          "durationTicks": 0,
          "midi": 68,
          "name": "G#4",
          "ticks": 145647,
          "time": 189.64453125,
          "velocity": 0.16535433070866143
        },
        {
          "duration": 0,
          "durationTicks": 0,
          "midi": 74,
          "name": "D5",
          "ticks": 145656,
          "time": 189.65625,
          "velocity": 0.16535433070866143
        },
        {
          "duration": 0,
          "durationTicks": 0,
          "midi": 55,
          "name": "G3",
          "ticks": 145665,
          "time": 189.66796875,
          "velocity": 0.1968503937007874
        },
        {
          "duration": 0.1263020833333428,
          "durationTicks": 97,
          "midi": 69,
          "name": "A4",
          "ticks": 145683,
          "time": 189.69140625,
          "velocity": 0.2677165354330709
        },
        {
          "duration": 0,
          "durationTicks": 0,
          "midi": 38,
          "name": "D2",
          "ticks": 145692,
          "time": 189.703125,
          "velocity": 0.28346456692913385
        },
        {
          "duration": 0.1263020833333428,
          "durationTicks": 97,
          "midi": 66,
          "name": "F#4",
          "ticks": 145692,
          "time": 189.703125,
          "velocity": 0.3779527559055118
        },
        {
          "duration": 0.1263020833333428,
          "durationTicks": 97,
          "midi": 85,
          "name": "C#6",
          "ticks": 145692,
          "time": 189.703125,
          "velocity": 0.11023622047244094
        },
        {
          "duration": 0.1263020833333428,
          "durationTicks": 97,
          "midi": 62,
          "name": "D4",
          "ticks": 145692,
          "time": 189.703125,
          "velocity": 0.29133858267716534
        },
        {
          "duration": 0,
          "durationTicks": 0,
          "midi": 71,
          "name": "B4",
          "ticks": 145702,
          "time": 189.71614583333334,
          "velocity": 0.1889763779527559
        },
        {
          "duration": 0.12630208333331439,
          "durationTicks": 97,
          "midi": 58,
          "name": "A#3",
          "ticks": 145702,
          "time": 189.71614583333334,
          "velocity": 0.28346456692913385
        },
        {
          "duration": 0,
          "durationTicks": 0,
          "midi": 89,
          "name": "F6",
          "ticks": 145719,
          "time": 189.73828125,
          "velocity": 0.08661417322834646
        },
        {
          "duration": 0,
          "durationTicks": 0,
          "midi": 31,
          "name": "G1",
          "ticks": 145728,
          "time": 189.75,
          "velocity": 0.2755905511811024
        },
        {
          "duration": 0,
          "durationTicks": 0,
          "midi": 72,
          "name": "C5",
          "ticks": 145755,
          "time": 189.78515625,
          "velocity": 0.1968503937007874
        },
        {
          "duration": 0.1263020833333428,
          "durationTicks": 97,
          "midi": 83,
          "name": "B5",
          "ticks": 145755,
          "time": 189.78515625,
          "velocity": 0.11023622047244094
        },
        {
          "duration": 0,
          "durationTicks": 0,
          "midi": 64,
          "name": "E4",
          "ticks": 145765,
          "time": 189.79817708333334,
          "velocity": 0.33858267716535434
        },
        {
          "duration": 0,
          "durationTicks": 0,
          "midi": 90,
          "name": "F#6",
          "ticks": 145765,
          "time": 189.79817708333334,
          "velocity": 0.10236220472440945
        },
        {
          "duration": 0.12630208333331439,
          "durationTicks": 97,
          "midi": 92,
          "name": "G#6",
          "ticks": 145765,
          "time": 189.79817708333334,
          "velocity": 0.07874015748031496
        },
        {
          "duration": 0,
          "durationTicks": 0,
          "midi": 65,
          "name": "F4",
          "ticks": 145782,
          "time": 189.8203125,
          "velocity": 0.3700787401574803
        },
        {
          "duration": 0,
          "durationTicks": 0,
          "midi": 76,
          "name": "E5",
          "ticks": 145782,
          "time": 189.8203125,
          "velocity": 0.16535433070866143
        },
        {
          "duration": 0.1276041666666572,
          "durationTicks": 98,
          "midi": 48,
          "name": "C3",
          "ticks": 145782,
          "time": 189.8203125,
          "velocity": 0.36220472440944884
        },
        {
          "duration": 0,
          "durationTicks": 0,
          "midi": 64,
          "name": "E4",
          "ticks": 145801,
          "time": 189.84505208333334,
          "velocity": 0.33070866141732286
        },
        {
          "duration": 0,
          "durationTicks": 0,
          "midi": 62,
          "name": "D4",
          "ticks": 145818,
          "time": 189.8671875,
          "velocity": 0.2283464566929134
        },
        {
          "duration": 0,
          "durationTicks": 0,
          "midi": 72,
          "name": "C5",
          "ticks": 145818,
          "time": 189.8671875,
          "velocity": 0.2047244094488189
        },
        {
          "duration": 0.12890625,
          "durationTicks": 99,
          "midi": 85,
          "name": "C#6",
          "ticks": 145818,
          "time": 189.8671875,
          "velocity": 0.11023622047244094
        },
        {
          "duration": 0,
          "durationTicks": 0,
          "midi": 67,
          "name": "G4",
          "ticks": 145828,
          "time": 189.88020833333334,
          "velocity": 0.30708661417322836
        },
        {
          "duration": 0,
          "durationTicks": 0,
          "midi": 69,
          "name": "A4",
          "ticks": 145828,
          "time": 189.88020833333334,
          "velocity": 0.2125984251968504
        },
        {
          "duration": 0,
          "durationTicks": 0,
          "midi": 58,
          "name": "A#3",
          "ticks": 145845,
          "time": 189.90234375,
          "velocity": 0.25196850393700787
        },
        {
          "duration": 0,
          "durationTicks": 0,
          "midi": 66,
          "name": "F#4",
          "ticks": 145845,
          "time": 189.90234375,
          "velocity": 0.3464566929133858
        },
        {
          "duration": 0.13020833333331439,
          "durationTicks": 100,
          "midi": 92,
          "name": "G#6",
          "ticks": 145855,
          "time": 189.91536458333334,
          "velocity": 0.08661417322834646
        },
        {
          "duration": 0,
          "durationTicks": 0,
          "midi": 74,
          "name": "D5",
          "ticks": 145864,
          "time": 189.92708333333334,
          "velocity": 0.1732283464566929
        },
        {
          "duration": 0,
          "durationTicks": 0,
          "midi": 77,
          "name": "F5",
          "ticks": 145864,
          "time": 189.92708333333334,
          "velocity": 0.11023622047244094
        },
        {
          "duration": 0,
          "durationTicks": 0,
          "midi": 70,
          "name": "A#4",
          "ticks": 145873,
          "time": 189.93880208333334,
          "velocity": 0.2440944881889764
        },
        {
          "duration": 0,
          "durationTicks": 0,
          "midi": 84,
          "name": "C6",
          "ticks": 145873,
          "time": 189.93880208333334,
          "velocity": 0.06299212598425197
        },
        {
          "duration": 0,
          "durationTicks": 0,
          "midi": 76,
          "name": "E5",
          "ticks": 145883,
          "time": 189.95182291666666,
          "velocity": 0.07086614173228346
        },
        {
          "duration": 0,
          "durationTicks": 0,
          "midi": 80,
          "name": "G#5",
          "ticks": 145883,
          "time": 189.95182291666666,
          "velocity": 0.13385826771653545
        },
        {
          "duration": 0,
          "durationTicks": 0,
          "midi": 90,
          "name": "F#6",
          "ticks": 145883,
          "time": 189.95182291666666,
          "velocity": 0.07874015748031496
        },
        {
          "duration": 0,
          "durationTicks": 0,
          "midi": 37,
          "name": "C#2",
          "ticks": 145892,
          "time": 189.96354166666666,
          "velocity": 0.2677165354330709
        },
        {
          "duration": 0,
          "durationTicks": 0,
          "midi": 56,
          "name": "G#3",
          "ticks": 145892,
          "time": 189.96354166666666,
          "velocity": 0.2992125984251969
        },
        {
          "duration": 0,
          "durationTicks": 0,
          "midi": 88,
          "name": "E6",
          "ticks": 145892,
          "time": 189.96354166666666,
          "velocity": 0.11023622047244094
        },
        {
          "duration": 0,
          "durationTicks": 0,
          "midi": 93,
          "name": "A6",
          "ticks": 145892,
          "time": 189.96354166666666,
          "velocity": 0.11023622047244094
        },
        {
          "duration": 0.12890625,
          "durationTicks": 99,
          "midi": 69,
          "name": "A4",
          "ticks": 145892,
          "time": 189.96354166666666,
          "velocity": 0.33070866141732286
        },
        {
          "duration": 0,
          "durationTicks": 0,
          "midi": 66,
          "name": "F#4",
          "ticks": 145901,
          "time": 189.97526041666666,
          "velocity": 0.29133858267716534
        },
        {
          "duration": 0,
          "durationTicks": 0,
          "midi": 87,
          "name": "D#6",
          "ticks": 145901,
          "time": 189.97526041666666,
          "velocity": 0.06299212598425197
        },
        {
          "duration": 0,
          "durationTicks": 0,
          "midi": 38,
          "name": "D2",
          "ticks": 145910,
          "time": 189.98697916666666,
          "velocity": 0.1968503937007874
        },
        {
          "duration": 0,
          "durationTicks": 0,
          "midi": 63,
          "name": "D#4",
          "ticks": 145910,
          "time": 189.98697916666666,
          "velocity": 0.2125984251968504
        },
        {
          "duration": 0,
          "durationTicks": 0,
          "midi": 85,
          "name": "C#6",
          "ticks": 145920,
          "time": 190,
          "velocity": 0.10236220472440945
        },
        {
          "duration": 0,
          "durationTicks": 0,
          "midi": 65,
          "name": "F4",
          "ticks": 145929,
          "time": 190.01171875,
          "velocity": 0.25984251968503935
        },
        {
          "duration": 0.1276041666666572,
          "durationTicks": 98,
          "midi": 94,
          "name": "A#6",
          "ticks": 145929,
          "time": 190.01171875,
          "velocity": 0.11023622047244094
        },
        {
          "duration": 0,
          "durationTicks": 0,
          "midi": 74,
          "name": "D5",
          "ticks": 145938,
          "time": 190.0234375,
          "velocity": 0.18110236220472442
        },
        {
          "duration": 0.10546875,
          "durationTicks": 81,
          "midi": 66,
          "name": "F#4",
          "ticks": 145948,
          "time": 190.03645833333334,
          "velocity": 0.3464566929133858
        },
        {
          "duration": 0.12630208333331439,
          "durationTicks": 97,
          "midi": 85,
          "name": "C#6",
          "ticks": 145948,
          "time": 190.03645833333334,
          "velocity": 0.12598425196850394
        },
        {
          "duration": 0,
          "durationTicks": 0,
          "midi": 72,
          "name": "C5",
          "ticks": 145966,
          "time": 190.05989583333334,
          "velocity": 0.2047244094488189
        },
        {
          "duration": 0,
          "durationTicks": 0,
          "midi": 58,
          "name": "A#3",
          "ticks": 145984,
          "time": 190.08333333333334,
          "velocity": 0.2283464566929134
        },
        {
          "duration": 0.12630208333331439,
          "durationTicks": 97,
          "midi": 36,
          "name": "C2",
          "ticks": 145984,
          "time": 190.08333333333334,
          "velocity": 0.36220472440944884
        },
        {
          "duration": 0,
          "durationTicks": 0,
          "midi": 63,
          "name": "D#4",
          "ticks": 146011,
          "time": 190.11848958333334,
          "velocity": 0.2283464566929134
        },
        {
          "duration": 0,
          "durationTicks": 0,
          "midi": 67,
          "name": "G4",
          "ticks": 146011,
          "time": 190.11848958333334,
          "velocity": 0.2125984251968504
        },
        {
          "duration": 0,
          "durationTicks": 0,
          "midi": 74,
          "name": "D5",
          "ticks": 146011,
          "time": 190.11848958333334,
          "velocity": 0.18110236220472442
        },
        {
          "duration": 0.1276041666666572,
          "durationTicks": 98,
          "midi": 88,
          "name": "E6",
          "ticks": 146011,
          "time": 190.11848958333334,
          "velocity": 0.15748031496062992
        },
        {
          "duration": 0.2552083333333144,
          "durationTicks": 196,
          "midi": 69,
          "name": "A4",
          "ticks": 146020,
          "time": 190.13020833333334,
          "velocity": 0.3543307086614173
        },
        {
          "duration": 0.020833333333314386,
          "durationTicks": 16,
          "midi": 66,
          "name": "F#4",
          "ticks": 146029,
          "time": 190.14192708333334,
          "velocity": 0.2440944881889764
        },
        {
          "duration": 0,
          "durationTicks": 0,
          "midi": 77,
          "name": "F5",
          "ticks": 146056,
          "time": 190.17708333333334,
          "velocity": 0.1732283464566929
        },
        {
          "duration": 0,
          "durationTicks": 0,
          "midi": 70,
          "name": "A#4",
          "ticks": 146066,
          "time": 190.19010416666666,
          "velocity": 0.2992125984251969
        },
        {
          "duration": 0,
          "durationTicks": 0,
          "midi": 62,
          "name": "D4",
          "ticks": 146066,
          "time": 190.19010416666666,
          "velocity": 0.3937007874015748
        },
        {
          "duration": 0,
          "durationTicks": 0,
          "midi": 61,
          "name": "C#4",
          "ticks": 146093,
          "time": 190.22526041666666,
          "velocity": 0.4015748031496063
        },
        {
          "duration": 0,
          "durationTicks": 0,
          "midi": 31,
          "name": "G1",
          "ticks": 146102,
          "time": 190.23697916666666,
          "velocity": 0.29133858267716534
        },
        {
          "duration": 0,
          "durationTicks": 0,
          "midi": 60,
          "name": "C4",
          "ticks": 146111,
          "time": 190.24869791666666,
          "velocity": 0.3779527559055118
        },
        {
          "duration": 0.12760416666668561,
          "durationTicks": 98,
          "midi": 65,
          "name": "F4",
          "ticks": 146111,
          "time": 190.24869791666666,
          "velocity": 0.25984251968503935
        },
        {
          "duration": 0,
          "durationTicks": 0,
          "midi": 78,
          "name": "F#5",
          "ticks": 146129,
          "time": 190.27213541666666,
          "velocity": 0.1732283464566929
        },
        {
          "duration": 0.12890625,
          "durationTicks": 99,
          "midi": 76,
          "name": "E5",
          "ticks": 146129,
          "time": 190.27213541666666,
          "velocity": 0.3464566929133858
        },
        {
          "duration": 0,
          "durationTicks": 0,
          "midi": 95,
          "name": "B6",
          "ticks": 146138,
          "time": 190.28385416666666,
          "velocity": 0.13385826771653545
        },
        {
          "duration": 0,
          "durationTicks": 0,
          "midi": 75,
          "name": "D#5",
          "ticks": 146147,
          "time": 190.29557291666666,
          "velocity": 0.2047244094488189
        },
        {
          "duration": 0,
          "durationTicks": 0,
          "midi": 60,
          "name": "C4",
          "ticks": 146157,
          "time": 190.30859375,
          "velocity": 0.33858267716535434
        },
        {
          "duration": 0,
          "durationTicks": 0,
          "midi": 66,
          "name": "F#4",
          "ticks": 146166,
          "time": 190.3203125,
          "velocity": 0.2283464566929134
        },
        {
          "duration": 0,
          "durationTicks": 0,
          "midi": 81,
          "name": "A5",
          "ticks": 146184,
          "time": 190.34375,
          "velocity": 0.2047244094488189
        },
        {
          "duration": 0.12890625,
          "durationTicks": 99,
          "midi": 38,
          "name": "D2",
          "ticks": 146184,
          "time": 190.34375,
          "velocity": 0.3464566929133858
        },
        {
          "duration": 0,
          "durationTicks": 0,
          "midi": 57,
          "name": "A3",
          "ticks": 146193,
          "time": 190.35546875,
          "velocity": 0.3779527559055118
        },
        {
          "duration": 0,
          "durationTicks": 0,
          "midi": 70,
          "name": "A#4",
          "ticks": 146193,
          "time": 190.35546875,
          "velocity": 0.2204724409448819
        },
        {
          "duration": 0.5143229166666572,
          "durationTicks": 395,
          "midi": 79,
          "name": "G5",
          "ticks": 146193,
          "time": 190.35546875,
          "velocity": 0.36220472440944884
        },
        {
          "duration": 0,
          "durationTicks": 0,
          "midi": 77,
          "name": "F5",
          "ticks": 146202,
          "time": 190.3671875,
          "velocity": 0.25984251968503935
        },
        {
          "duration": 0,
          "durationTicks": 0,
          "midi": 86,
          "name": "D6",
          "ticks": 146202,
          "time": 190.3671875,
          "velocity": 0.11023622047244094
        },
        {
          "duration": 0,
          "durationTicks": 0,
          "midi": 56,
          "name": "G#3",
          "ticks": 146211,
          "time": 190.37890625,
          "velocity": 0.3700787401574803
        },
        {
          "duration": 0.1276041666666572,
          "durationTicks": 98,
          "midi": 69,
          "name": "A4",
          "ticks": 146221,
          "time": 190.39192708333334,
          "velocity": 0.2283464566929134
        },
        {
          "duration": 0,
          "durationTicks": 0,
          "midi": 71,
          "name": "B4",
          "ticks": 146230,
          "time": 190.40364583333334,
          "velocity": 0.2047244094488189
        },
        {
          "duration": 0,
          "durationTicks": 0,
          "midi": 84,
          "name": "C6",
          "ticks": 146230,
          "time": 190.40364583333334,
          "velocity": 0.2125984251968504
        },
        {
          "duration": 0,
          "durationTicks": 0,
          "midi": 67,
          "name": "G4",
          "ticks": 146248,
          "time": 190.42708333333334,
          "velocity": 0.2283464566929134
        },
        {
          "duration": 0.12890625,
          "durationTicks": 99,
          "midi": 76,
          "name": "E5",
          "ticks": 146257,
          "time": 190.43880208333334,
          "velocity": 0.4015748031496063
        },
        {
          "duration": 0,
          "durationTicks": 0,
          "midi": 65,
          "name": "F4",
          "ticks": 146266,
          "time": 190.45052083333334,
          "velocity": 0.2755905511811024
        },
        {
          "duration": 0.12890625,
          "durationTicks": 99,
          "midi": 95,
          "name": "B6",
          "ticks": 146266,
          "time": 190.45052083333334,
          "velocity": 0.15748031496062992
        },
        {
          "duration": 0.2565104166666572,
          "durationTicks": 197,
          "midi": 74,
          "name": "D5",
          "ticks": 146266,
          "time": 190.45052083333334,
          "velocity": 0.33858267716535434
        },
        {
          "duration": 0,
          "durationTicks": 0,
          "midi": 72,
          "name": "C5",
          "ticks": 146276,
          "time": 190.46354166666666,
          "velocity": 0.2755905511811024
        },
        {
          "duration": 0,
          "durationTicks": 0,
          "midi": 78,
          "name": "F#5",
          "ticks": 146276,
          "time": 190.46354166666666,
          "velocity": 0.28346456692913385
        },
        {
          "duration": 0,
          "durationTicks": 0,
          "midi": 68,
          "name": "G#4",
          "ticks": 146276,
          "time": 190.46354166666666,
          "velocity": 0.2992125984251969
        },
        {
          "duration": 0,
          "durationTicks": 0,
          "midi": 83,
          "name": "B5",
          "ticks": 146276,
          "time": 190.46354166666666,
          "velocity": 0.11023622047244094
        },
        {
          "duration": 0,
          "durationTicks": 0,
          "midi": 64,
          "name": "E4",
          "ticks": 146285,
          "time": 190.47526041666666,
          "velocity": 0.31496062992125984
        },
        {
          "duration": 0,
          "durationTicks": 0,
          "midi": 87,
          "name": "D#6",
          "ticks": 146285,
          "time": 190.47526041666666,
          "velocity": 0.08661417322834646
        },
        {
          "duration": 0.10807291666668561,
          "durationTicks": 83,
          "midi": 71,
          "name": "B4",
          "ticks": 146294,
          "time": 190.48697916666666,
          "velocity": 0.28346456692913385
        },
        {
          "duration": 0.12890625,
          "durationTicks": 99,
          "midi": 60,
          "name": "C4",
          "ticks": 146303,
          "time": 190.49869791666666,
          "velocity": 0.29133858267716534
        },
        {
          "duration": 0,
          "durationTicks": 0,
          "midi": 67,
          "name": "G4",
          "ticks": 146321,
          "time": 190.52213541666666,
          "velocity": 0.28346456692913385
        },
        {
          "duration": 0,
          "durationTicks": 0,
          "midi": 65,
          "name": "F4",
          "ticks": 146330,
          "time": 190.53385416666666,
          "velocity": 0.2204724409448819
        },
        {
          "duration": 0,
          "durationTicks": 0,
          "midi": 77,
          "name": "F5",
          "ticks": 146330,
          "time": 190.53385416666666,
          "velocity": 0.25984251968503935
        },
        {
          "duration": 0.12890625,
          "durationTicks": 99,
          "midi": 93,
          "name": "A6",
          "ticks": 146330,
          "time": 190.53385416666666,
          "velocity": 0.14173228346456693
        },
        {
          "duration": 0,
          "durationTicks": 0,
          "midi": 73,
          "name": "C#5",
          "ticks": 146340,
          "time": 190.546875,
          "velocity": 0.3228346456692913
        },
        {
          "duration": 0,
          "durationTicks": 0,
          "midi": 92,
          "name": "G#6",
          "ticks": 146340,
          "time": 190.546875,
          "velocity": 0.14173228346456693
        },
        {
          "duration": 0,
          "durationTicks": 0,
          "midi": 69,
          "name": "A4",
          "ticks": 146349,
          "time": 190.55859375,
          "velocity": 0.2440944881889764
        },
        {
          "duration": 0.1276041666666572,
          "durationTicks": 98,
          "midi": 64,
          "name": "E4",
          "ticks": 146349,
          "time": 190.55859375,
          "velocity": 0.33070866141732286
        },
        {
          "duration": 0.1276041666666572,
          "durationTicks": 98,
          "midi": 76,
          "name": "E5",
          "ticks": 146349,
          "time": 190.55859375,
          "velocity": 0.3779527559055118
        },
        {
          "duration": 0,
          "durationTicks": 0,
          "midi": 90,
          "name": "F#6",
          "ticks": 146358,
          "time": 190.5703125,
          "velocity": 0.08661417322834646
        },
        {
          "duration": 0.1276041666666572,
          "durationTicks": 98,
          "midi": 67,
          "name": "G4",
          "ticks": 146358,
          "time": 190.5703125,
          "velocity": 0.4015748031496063
        },
        {
          "duration": 0.1276041666666572,
          "durationTicks": 98,
          "midi": 83,
          "name": "B5",
          "ticks": 146368,
          "time": 190.58333333333334,
          "velocity": 0.11023622047244094
        },
        {
          "duration": 0.020833333333314386,
          "durationTicks": 16,
          "midi": 71,
          "name": "B4",
          "ticks": 146377,
          "time": 190.59505208333334,
          "velocity": 0.31496062992125984
        },
        {
          "duration": 0,
          "durationTicks": 0,
          "midi": 90,
          "name": "F#6",
          "ticks": 146377,
          "time": 190.59505208333334,
          "velocity": 0.11023622047244094
        },
        {
          "duration": 0,
          "durationTicks": 0,
          "midi": 87,
          "name": "D#6",
          "ticks": 146377,
          "time": 190.59505208333334,
          "velocity": 0.05511811023622047
        },
        {
          "duration": 0,
          "durationTicks": 0,
          "midi": 56,
          "name": "G#3",
          "ticks": 146377,
          "time": 190.59505208333334,
          "velocity": 0.25984251968503935
        },
        {
          "duration": 0.1276041666666572,
          "durationTicks": 98,
          "midi": 38,
          "name": "D2",
          "ticks": 146377,
          "time": 190.59505208333334,
          "velocity": 0.3464566929133858
        },
        {
          "duration": 0.10677083333331439,
          "durationTicks": 82,
          "midi": 60,
          "name": "C4",
          "ticks": 146386,
          "time": 190.60677083333334,
          "velocity": 0.2204724409448819
        },
        {
          "duration": 0,
          "durationTicks": 0,
          "midi": 86,
          "name": "D6",
          "ticks": 146395,
          "time": 190.61848958333334,
          "velocity": 0.05511811023622047
        },
        {
          "duration": 0,
          "durationTicks": 0,
          "midi": 70,
          "name": "A#4",
          "ticks": 146405,
          "time": 190.63151041666666,
          "velocity": 0.31496062992125984
        },
        {
          "duration": 0,
          "durationTicks": 0,
          "midi": 72,
          "name": "C5",
          "ticks": 146405,
          "time": 190.63151041666666,
          "velocity": 0.25984251968503935
        },
        {
          "duration": 0,
          "durationTicks": 0,
          "midi": 89,
          "name": "F6",
          "ticks": 146405,
          "time": 190.63151041666666,
          "velocity": 0.10236220472440945
        },
        {
          "duration": 0,
          "durationTicks": 0,
          "midi": 71,
          "name": "B4",
          "ticks": 146422,
          "time": 190.65364583333334,
          "velocity": 0.29133858267716534
        },
        {
          "duration": 0,
          "durationTicks": 0,
          "midi": 90,
          "name": "F#6",
          "ticks": 146422,
          "time": 190.65364583333334,
          "velocity": 0.07874015748031496
        },
        {
          "duration": 0,
          "durationTicks": 0,
          "midi": 75,
          "name": "D#5",
          "ticks": 146432,
          "time": 190.66666666666666,
          "velocity": 0.2440944881889764
        },
        {
          "duration": 0,
          "durationTicks": 0,
          "midi": 72,
          "name": "C5",
          "ticks": 146459,
          "time": 190.70182291666666,
          "velocity": 0.2283464566929134
        },
        {
          "duration": 0,
          "durationTicks": 0,
          "midi": 77,
          "name": "F5",
          "ticks": 146459,
          "time": 190.70182291666666,
          "velocity": 0.25984251968503935
        },
        {
          "duration": 0,
          "durationTicks": 0,
          "midi": 55,
          "name": "G3",
          "ticks": 146459,
          "time": 190.70182291666666,
          "velocity": 0.11811023622047244
        },
        {
          "duration": 0.020833333333342807,
          "durationTicks": 16,
          "midi": 60,
          "name": "C4",
          "ticks": 146468,
          "time": 190.71354166666666,
          "velocity": 0.31496062992125984
        },
        {
          "duration": 0.12890625,
          "durationTicks": 99,
          "midi": 95,
          "name": "B6",
          "ticks": 146468,
          "time": 190.71354166666666,
          "velocity": 0.12598425196850394
        },
        {
          "duration": 0,
          "durationTicks": 0,
          "midi": 45,
          "name": "A2",
          "ticks": 146477,
          "time": 190.72526041666666,
          "velocity": 0.2992125984251969
        },
        {
          "duration": 0,
          "durationTicks": 0,
          "midi": 88,
          "name": "E6",
          "ticks": 146477,
          "time": 190.72526041666666,
          "velocity": 0.06299212598425197
        },
        {
          "duration": 0.12890625,
          "durationTicks": 99,
          "midi": 76,
          "name": "E5",
          "ticks": 146477,
          "time": 190.72526041666666,
          "velocity": 0.3543307086614173
        },
        {
          "duration": 0.12890625,
          "durationTicks": 99,
          "midi": 64,
          "name": "E4",
          "ticks": 146496,
          "time": 190.75,
          "velocity": 0.33070866141732286
        },
        {
          "duration": 0.12890625,
          "durationTicks": 99,
          "midi": 83,
          "name": "B5",
          "ticks": 146496,
          "time": 190.75,
          "velocity": 0.08661417322834646
        },
        {
          "duration": 0,
          "durationTicks": 0,
          "midi": 67,
          "name": "G4",
          "ticks": 146505,
          "time": 190.76171875,
          "velocity": 0.2755905511811024
        },
        {
          "duration": 0,
          "durationTicks": 0,
          "midi": 86,
          "name": "D6",
          "ticks": 146505,
          "time": 190.76171875,
          "velocity": 0.11023622047244094
        },
        {
          "duration": 0,
          "durationTicks": 0,
          "midi": 45,
          "name": "A2",
          "ticks": 146505,
          "time": 190.76171875,
          "velocity": 0.2677165354330709
        },
        {
          "duration": 0.12890625,
          "durationTicks": 99,
          "midi": 74,
          "name": "D5",
          "ticks": 146514,
          "time": 190.7734375,
          "velocity": 0.31496062992125984
        },
        {
          "duration": 0,
          "durationTicks": 0,
          "midi": 61,
          "name": "C#4",
          "ticks": 146532,
          "time": 190.796875,
          "velocity": 0.3228346456692913
        },
        {
          "duration": 0,
          "durationTicks": 0,
          "midi": 72,
          "name": "C5",
          "ticks": 146541,
          "time": 190.80859375,
          "velocity": 0.29133858267716534
        },
        {
          "duration": 0,
          "durationTicks": 0,
          "midi": 36,
          "name": "C2",
          "ticks": 146551,
          "time": 190.82161458333334,
          "velocity": 0.30708661417322836
        },
        {
          "duration": 0.12890625,
          "durationTicks": 99,
          "midi": 67,
          "name": "G4",
          "ticks": 146551,
          "time": 190.82161458333334,
          "velocity": 0.25984251968503935
        },
        {
          "duration": 0,
          "durationTicks": 0,
          "midi": 85,
          "name": "C#6",
          "ticks": 146560,
          "time": 190.83333333333334,
          "velocity": 0.06299212598425197
        },
        {
          "duration": 0,
          "durationTicks": 0,
          "midi": 78,
          "name": "F#5",
          "ticks": 146569,
          "time": 190.84505208333334,
          "velocity": 0.25984251968503935
        },
        {
          "duration": 0,
          "durationTicks": 0,
          "midi": 80,
          "name": "G#5",
          "ticks": 146579,
          "time": 190.85807291666666,
          "velocity": 0.2047244094488189
        },
        {
          "duration": 0,
          "durationTicks": 0,
          "midi": 77,
          "name": "F5",
          "ticks": 146588,
          "time": 190.86979166666666,
          "velocity": 0.3228346456692913
        },
        {
          "duration": 0,
          "durationTicks": 0,
          "midi": 58,
          "name": "A#3",
          "ticks": 146588,
          "time": 190.86979166666666,
          "velocity": 0.3228346456692913
        },
        {
          "duration": 0,
          "durationTicks": 0,
          "midi": 91,
          "name": "G6",
          "ticks": 146588,
          "time": 190.86979166666666,
          "velocity": 0.08661417322834646
        },
        {
          "duration": 0.12890625,
          "durationTicks": 99,
          "midi": 86,
          "name": "D6",
          "ticks": 146588,
          "time": 190.86979166666666,
          "velocity": 0.12598425196850394
        },
        {
          "duration": 0.12890625,
          "durationTicks": 99,
          "midi": 71,
          "name": "B4",
          "ticks": 146597,
          "time": 190.88151041666666,
          "velocity": 0.31496062992125984
        },
        {
          "duration": 0.12890625,
          "durationTicks": 99,
          "midi": 95,
          "name": "B6",
          "ticks": 146597,
          "time": 190.88151041666666,
          "velocity": 0.09448818897637795
        },
        {
          "duration": 0.2278645833333428,
          "durationTicks": 175,
          "midi": 79,
          "name": "G5",
          "ticks": 146597,
          "time": 190.88151041666666,
          "velocity": 0.3779527559055118
        },
        {
          "duration": 0,
          "durationTicks": 0,
          "midi": 90,
          "name": "F#6",
          "ticks": 146606,
          "time": 190.89322916666666,
          "velocity": 0.11023622047244094
        },
        {
          "duration": 0.12890625,
          "durationTicks": 99,
          "midi": 76,
          "name": "E5",
          "ticks": 146606,
          "time": 190.89322916666666,
          "velocity": 0.25984251968503935
        },
        {
          "duration": 0,
          "durationTicks": 0,
          "midi": 57,
          "name": "A3",
          "ticks": 146616,
          "time": 190.90625,
          "velocity": 0.2992125984251969
        },
        {
          "duration": 0,
          "durationTicks": 0,
          "midi": 38,
          "name": "D2",
          "ticks": 146625,
          "time": 190.91796875,
          "velocity": 0.33858267716535434
        },
        {
          "duration": 0,
          "durationTicks": 0,
          "midi": 60,
          "name": "C4",
          "ticks": 146625,
          "time": 190.91796875,
          "velocity": 0.18110236220472442
        },
        {
          "duration": 0,
          "durationTicks": 0,
          "midi": 94,
          "name": "A#6",
          "ticks": 146643,
          "time": 190.94140625,
          "velocity": 0.06299212598425197
        },
        {
          "duration": 0.38671875,
          "durationTicks": 297,
          "midi": 83,
          "name": "B5",
          "ticks": 146643,
          "time": 190.94140625,
          "velocity": 0.4015748031496063
        },
        {
          "duration": 0,
          "durationTicks": 0,
          "midi": 72,
          "name": "C5",
          "ticks": 146652,
          "time": 190.953125,
          "velocity": 0.2283464566929134
        },
        {
          "duration": 0,
          "durationTicks": 0,
          "midi": 75,
          "name": "D#5",
          "ticks": 146652,
          "time": 190.953125,
          "velocity": 0.2677165354330709
        },
        {
          "duration": 0,
          "durationTicks": 0,
          "midi": 90,
          "name": "F#6",
          "ticks": 146652,
          "time": 190.953125,
          "velocity": 0.09448818897637795
        },
        {
          "duration": 0,
          "durationTicks": 0,
          "midi": 73,
          "name": "C#5",
          "ticks": 146661,
          "time": 190.96484375,
          "velocity": 0.29133858267716534
        },
        {
          "duration": 0.12890625,
          "durationTicks": 99,
          "midi": 86,
          "name": "D6",
          "ticks": 146661,
          "time": 190.96484375,
          "velocity": 0.11811023622047244
        },
        {
          "duration": 0.12890625,
          "durationTicks": 99,
          "midi": 60,
          "name": "C4",
          "ticks": 146661,
          "time": 190.96484375,
          "velocity": 0.2283464566929134
        },
        {
          "duration": 0.12890625,
          "durationTicks": 99,
          "midi": 50,
          "name": "D3",
          "ticks": 146661,
          "time": 190.96484375,
          "velocity": 0.3779527559055118
        },
        {
          "duration": 0.12890625,
          "durationTicks": 99,
          "midi": 64,
          "name": "E4",
          "ticks": 146661,
          "time": 190.96484375,
          "velocity": 0.28346456692913385
        },
        {
          "duration": 0.12890625,
          "durationTicks": 99,
          "midi": 67,
          "name": "G4",
          "ticks": 146671,
          "time": 190.97786458333334,
          "velocity": 0.31496062992125984
        },
        {
          "duration": 0,
          "durationTicks": 0,
          "midi": 80,
          "name": "G#5",
          "ticks": 146680,
          "time": 190.98958333333334,
          "velocity": 0.2283464566929134
        },
        {
          "duration": 0.12890625,
          "durationTicks": 99,
          "midi": 90,
          "name": "F#6",
          "ticks": 146689,
          "time": 191.00130208333334,
          "velocity": 0.07874015748031496
        },
        {
          "duration": 0,
          "durationTicks": 0,
          "midi": 72,
          "name": "C5",
          "ticks": 146698,
          "time": 191.01302083333334,
          "velocity": 0.36220472440944884
        },
        {
          "duration": 0,
          "durationTicks": 0,
          "midi": 71,
          "name": "B4",
          "ticks": 146717,
          "time": 191.03776041666666,
          "velocity": 0.3779527559055118
        },
        {
          "duration": 0,
          "durationTicks": 0,
          "midi": 81,
          "name": "A5",
          "ticks": 146717,
          "time": 191.03776041666666,
          "velocity": 0.2283464566929134
        },
        {
          "duration": 0,
          "durationTicks": 0,
          "midi": 77,
          "name": "F5",
          "ticks": 146717,
          "time": 191.03776041666666,
          "velocity": 0.2204724409448819
        },
        {
          "duration": 0.12760416666668561,
          "durationTicks": 98,
          "midi": 90,
          "name": "F#6",
          "ticks": 146717,
          "time": 191.03776041666666,
          "velocity": 0.15748031496062992
        },
        {
          "duration": 0,
          "durationTicks": 0,
          "midi": 69,
          "name": "A4",
          "ticks": 146744,
          "time": 191.07291666666666,
          "velocity": 0.31496062992125984
        },
        {
          "duration": 0,
          "durationTicks": 0,
          "midi": 78,
          "name": "F#5",
          "ticks": 146753,
          "time": 191.08463541666666,
          "velocity": 0.13385826771653545
        },
        {
          "duration": 0,
          "durationTicks": 0,
          "midi": 93,
          "name": "A6",
          "ticks": 146753,
          "time": 191.08463541666666,
          "velocity": 0.11023622047244094
        },
        {
          "duration": 0.12890625,
          "durationTicks": 99,
          "midi": 74,
          "name": "D5",
          "ticks": 146753,
          "time": 191.08463541666666,
          "velocity": 0.3228346456692913
        },
        {
          "duration": 0,
          "durationTicks": 0,
          "midi": 57,
          "name": "A3",
          "ticks": 146772,
          "time": 191.109375,
          "velocity": 0.30708661417322836
        },
        {
          "duration": 0.029947916666657193,
          "durationTicks": 23,
          "midi": 79,
          "name": "G5",
          "ticks": 146772,
          "time": 191.109375,
          "velocity": 0.1889763779527559
        },
        {
          "duration": 0.12890625,
          "durationTicks": 99,
          "midi": 71,
          "name": "B4",
          "ticks": 146772,
          "time": 191.109375,
          "velocity": 0.2283464566929134
        },
        {
          "duration": 0,
          "durationTicks": 0,
          "midi": 48,
          "name": "C3",
          "ticks": 146781,
          "time": 191.12109375,
          "velocity": 0.3779527559055118
        },
        {
          "duration": 0,
          "durationTicks": 0,
          "midi": 82,
          "name": "A#5",
          "ticks": 146781,
          "time": 191.12109375,
          "velocity": 0.2283464566929134
        },
        {
          "duration": 0,
          "durationTicks": 0,
          "midi": 66,
          "name": "F#4",
          "ticks": 146790,
          "time": 191.1328125,
          "velocity": 0.31496062992125984
        },
        {
          "duration": 0,
          "durationTicks": 0,
          "midi": 85,
          "name": "C#6",
          "ticks": 146790,
          "time": 191.1328125,
          "velocity": 0.11023622047244094
        },
        {
          "duration": 0,
          "durationTicks": 0,
          "midi": 47,
          "name": "B2",
          "ticks": 146800,
          "time": 191.14583333333334,
          "velocity": 0.3779527559055118
        },
        {
          "duration": 0.12890625,
          "durationTicks": 99,
          "midi": 79,
          "name": "G5",
          "ticks": 146800,
          "time": 191.14583333333334,
          "velocity": 0.2125984251968504
        },
        {
          "duration": 0,
          "durationTicks": 0,
          "midi": 45,
          "name": "A2",
          "ticks": 146827,
          "time": 191.18098958333334,
          "velocity": 0.3700787401574803
        },
        {
          "duration": 0,
          "durationTicks": 0,
          "midi": 64,
          "name": "E4",
          "ticks": 146827,
          "time": 191.18098958333334,
          "velocity": 0.3464566929133858
        },
        {
          "duration": 0.12890625,
          "durationTicks": 99,
          "midi": 67,
          "name": "G4",
          "ticks": 146827,
          "time": 191.18098958333334,
          "velocity": 0.23622047244094488
        },
        {
          "duration": 0,
          "durationTicks": 0,
          "midi": 86,
          "name": "D6",
          "ticks": 146836,
          "time": 191.19270833333334,
          "velocity": 0.09448818897637795
        },
        {
          "duration": 0,
          "durationTicks": 0,
          "midi": 63,
          "name": "D#4",
          "ticks": 146845,
          "time": 191.20442708333334,
          "velocity": 0.3464566929133858
        },
        {
          "duration": 0,
          "durationTicks": 0,
          "midi": 44,
          "name": "G#2",
          "ticks": 146845,
          "time": 191.20442708333334,
          "velocity": 0.3779527559055118
        },
        {
          "duration": 0,
          "durationTicks": 0,
          "midi": 82,
          "name": "A#5",
          "ticks": 146845,
          "time": 191.20442708333334,
          "velocity": 0.11811023622047244
        },
        {
          "duration": 0.12890625,
          "durationTicks": 99,
          "midi": 72,
          "name": "C5",
          "ticks": 146855,
          "time": 191.21744791666666,
          "velocity": 0.30708661417322836
        },
        {
          "duration": 0,
          "durationTicks": 0,
          "midi": 62,
          "name": "D4",
          "ticks": 146864,
          "time": 191.22916666666666,
          "velocity": 0.30708661417322836
        },
        {
          "duration": 0,
          "durationTicks": 0,
          "midi": 42,
          "name": "F#2",
          "ticks": 146873,
          "time": 191.24088541666666,
          "velocity": 0.4015748031496063
        },
        {
          "duration": 0.12890625,
          "durationTicks": 99,
          "midi": 90,
          "name": "F#6",
          "ticks": 146873,
          "time": 191.24088541666666,
          "velocity": 0.14960629921259844
        },
        {
          "duration": 0.12890625,
          "durationTicks": 99,
          "midi": 64,
          "name": "E4",
          "ticks": 146873,
          "time": 191.24088541666666,
          "velocity": 0.2047244094488189
        },
        {
          "duration": 0,
          "durationTicks": 0,
          "midi": 80,
          "name": "G#5",
          "ticks": 146883,
          "time": 191.25390625,
          "velocity": 0.25984251968503935
        },
        {
          "duration": 0,
          "durationTicks": 0,
          "midi": 78,
          "name": "F#5",
          "ticks": 146892,
          "time": 191.265625,
          "velocity": 0.2125984251968504
        },
        {
          "duration": 0.1276041666666572,
          "durationTicks": 98,
          "midi": 76,
          "name": "E5",
          "ticks": 146892,
          "time": 191.265625,
          "velocity": 0.2677165354330709
        },
        {
          "duration": 0,
          "durationTicks": 0,
          "midi": 41,
          "name": "F2",
          "ticks": 146901,
          "time": 191.27734375,
          "velocity": 0.3779527559055118
        },
        {
          "duration": 0,
          "durationTicks": 0,
          "midi": 59,
          "name": "B3",
          "ticks": 146901,
          "time": 191.27734375,
          "velocity": 0.2992125984251969
        },
        {
          "duration": 0,
          "durationTicks": 0,
          "midi": 85,
          "name": "C#6",
          "ticks": 146910,
          "time": 191.2890625,
          "velocity": 0.2440944881889764
        },
        {
          "duration": 0.1276041666666572,
          "durationTicks": 98,
          "midi": 67,
          "name": "G4",
          "ticks": 146910,
          "time": 191.2890625,
          "velocity": 0.2047244094488189
        },
        {
          "duration": 0,
          "durationTicks": 0,
          "midi": 57,
          "name": "A3",
          "ticks": 146928,
          "time": 191.3125,
          "velocity": 0.2992125984251969
        },
        {
          "duration": 0,
          "durationTicks": 0,
          "midi": 81,
          "name": "A5",
          "ticks": 146928,
          "time": 191.3125,
          "velocity": 0.2440944881889764
        },
        {
          "duration": 0,
          "durationTicks": 0,
          "midi": 38,
          "name": "D2",
          "ticks": 146937,
          "time": 191.32421875,
          "velocity": 0.3937007874015748
        },
        {
          "duration": 0,
          "durationTicks": 0,
          "midi": 78,
          "name": "F#5",
          "ticks": 146937,
          "time": 191.32421875,
          "velocity": 0.25196850393700787
        },
        {
          "duration": 0,
          "durationTicks": 0,
          "midi": 91,
          "name": "G6",
          "ticks": 146937,
          "time": 191.32421875,
          "velocity": 0.08661417322834646
        },
        {
          "duration": 0,
          "durationTicks": 0,
          "midi": 60,
          "name": "C4",
          "ticks": 146947,
          "time": 191.33723958333334,
          "velocity": 0.1889763779527559
        },
        {
          "duration": 0,
          "durationTicks": 0,
          "midi": 84,
          "name": "C6",
          "ticks": 146947,
          "time": 191.33723958333334,
          "velocity": 0.23622047244094488
        },
        {
          "duration": 0,
          "durationTicks": 0,
          "midi": 56,
          "name": "G#3",
          "ticks": 146947,
          "time": 191.33723958333334,
          "velocity": 0.33070866141732286
        },
        {
          "duration": 0,
          "durationTicks": 0,
          "midi": 83,
          "name": "B5",
          "ticks": 146956,
          "time": 191.34895833333334,
          "velocity": 0.29133858267716534
        },
        {
          "duration": 0,
          "durationTicks": 0,
          "midi": 85,
          "name": "C#6",
          "ticks": 146956,
          "time": 191.34895833333334,
          "velocity": 0.07874015748031496
        },
        {
          "duration": 0,
          "durationTicks": 0,
          "midi": 86,
          "name": "D6",
          "ticks": 146956,
          "time": 191.34895833333334,
          "velocity": 0.23622047244094488
        },
        {
          "duration": 0.1276041666666572,
          "durationTicks": 98,
          "midi": 79,
          "name": "G5",
          "ticks": 146956,
          "time": 191.34895833333334,
          "velocity": 0.2677165354330709
        },
        {
          "duration": 0,
          "durationTicks": 0,
          "midi": 37,
          "name": "C#2",
          "ticks": 146965,
          "time": 191.36067708333334,
          "velocity": 0.4015748031496063
        },
        {
          "duration": 0,
          "durationTicks": 0,
          "midi": 82,
          "name": "A#5",
          "ticks": 146975,
          "time": 191.37369791666666,
          "velocity": 0.25196850393700787
        },
        {
          "duration": 0.12760416666668561,
          "durationTicks": 98,
          "midi": 60,
          "name": "C4",
          "ticks": 146975,
          "time": 191.37369791666666,
          "velocity": 0.15748031496062992
        },
        {
          "duration": 0.12760416666668561,
          "durationTicks": 98,
          "midi": 64,
          "name": "E4",
          "ticks": 146975,
          "time": 191.37369791666666,
          "velocity": 0.1732283464566929
        },
        {
          "duration": 0,
          "durationTicks": 0,
          "midi": 53,
          "name": "F3",
          "ticks": 146992,
          "time": 191.39583333333334,
          "velocity": 0.3228346456692913
        },
        {
          "duration": 0,
          "durationTicks": 0,
          "midi": 34,
          "name": "A#1",
          "ticks": 146992,
          "time": 191.39583333333334,
          "velocity": 0.3700787401574803
        },
        {
          "duration": 0.12890625,
          "durationTicks": 99,
          "midi": 91,
          "name": "G6",
          "ticks": 146992,
          "time": 191.39583333333334,
          "velocity": 0.14173228346456693
        },
        {
          "duration": 0.12890625,
          "durationTicks": 99,
          "midi": 83,
          "name": "B5",
          "ticks": 146992,
          "time": 191.39583333333334,
          "velocity": 0.3700787401574803
        },
        {
          "duration": 0,
          "durationTicks": 0,
          "midi": 90,
          "name": "F#6",
          "ticks": 147001,
          "time": 191.40755208333334,
          "velocity": 0.05511811023622047
        },
        {
          "duration": 0.12890625,
          "durationTicks": 99,
          "midi": 87,
          "name": "D#6",
          "ticks": 147001,
          "time": 191.40755208333334,
          "velocity": 0.2283464566929134
        },
        {
          "duration": 0,
          "durationTicks": 0,
          "midi": 33,
          "name": "A1",
          "ticks": 147028,
          "time": 191.44270833333334,
          "velocity": 0.3464566929133858
        },
        {
          "duration": 0.12890625,
          "durationTicks": 99,
          "midi": 84,
          "name": "C6",
          "ticks": 147038,
          "time": 191.45572916666666,
          "velocity": 0.33858267716535434
        },
        {
          "duration": 0.12890625,
          "durationTicks": 99,
          "midi": 80,
          "name": "G#5",
          "ticks": 147038,
          "time": 191.45572916666666,
          "velocity": 0.3228346456692913
        },
        {
          "duration": 0,
          "durationTicks": 0,
          "midi": 59,
          "name": "B3",
          "ticks": 147047,
          "time": 191.46744791666666,
          "velocity": 0.15748031496062992
        },
        {
          "duration": 0,
          "durationTicks": 0,
          "midi": 72,
          "name": "C5",
          "ticks": 147047,
          "time": 191.46744791666666,
          "velocity": 0.16535433070866143
        },
        {
          "duration": 0,
          "durationTicks": 0,
          "midi": 70,
          "name": "A#4",
          "ticks": 147056,
          "time": 191.47916666666666,
          "velocity": 0.12598425196850394
        },
        {
          "duration": 0,
          "durationTicks": 0,
          "midi": 88,
          "name": "E6",
          "ticks": 147056,
          "time": 191.47916666666666,
          "velocity": 0.25196850393700787
        },
        {
          "duration": 0,
          "durationTicks": 0,
          "midi": 67,
          "name": "G4",
          "ticks": 147066,
          "time": 191.4921875,
          "velocity": 0.1889763779527559
        },
        {
          "duration": 0.1276041666666572,
          "durationTicks": 98,
          "midi": 87,
          "name": "D#6",
          "ticks": 147066,
          "time": 191.4921875,
          "velocity": 0.14173228346456693
        },
        {
          "duration": 0,
          "durationTicks": 0,
          "midi": 77,
          "name": "F5",
          "ticks": 147075,
          "time": 191.50390625,
          "velocity": 0.11023622047244094
        },
        {
          "duration": 0.1276041666666572,
          "durationTicks": 98,
          "midi": 63,
          "name": "D#4",
          "ticks": 147075,
          "time": 191.50390625,
          "velocity": 0.14173228346456693
        },
        {
          "duration": 0,
          "durationTicks": 0,
          "midi": 82,
          "name": "A#5",
          "ticks": 147084,
          "time": 191.515625,
          "velocity": 0.1968503937007874
        },
        {
          "duration": 0.1276041666666572,
          "durationTicks": 98,
          "midi": 67,
          "name": "G4",
          "ticks": 147093,
          "time": 191.52734375,
          "velocity": 0.11811023622047244
        },
        {
          "duration": 0,
          "durationTicks": 0,
          "midi": 83,
          "name": "B5",
          "ticks": 147103,
          "time": 191.54036458333334,
          "velocity": 0.18110236220472442
        },
        {
          "duration": 0.1276041666666572,
          "durationTicks": 98,
          "midi": 89,
          "name": "F6",
          "ticks": 147103,
          "time": 191.54036458333334,
          "velocity": 0.2440944881889764
        },
        {
          "duration": 0,
          "durationTicks": 0,
          "midi": 60,
          "name": "C4",
          "ticks": 147120,
          "time": 191.5625,
          "velocity": 0.18110236220472442
        },
        {
          "duration": 0,
          "durationTicks": 0,
          "midi": 40,
          "name": "E2",
          "ticks": 147130,
          "time": 191.57552083333334,
          "velocity": 0.29133858267716534
        },
        {
          "duration": 0,
          "durationTicks": 0,
          "midi": 78,
          "name": "F#5",
          "ticks": 147130,
          "time": 191.57552083333334,
          "velocity": 0.2204724409448819
        },
        {
          "duration": 0,
          "durationTicks": 0,
          "midi": 85,
          "name": "C#6",
          "ticks": 147130,
          "time": 191.57552083333334,
          "velocity": 0.25984251968503935
        },
        {
          "duration": 0.12890625,
          "durationTicks": 99,
          "midi": 84,
          "name": "C6",
          "ticks": 147130,
          "time": 191.57552083333334,
          "velocity": 0.2125984251968504
        },
        {
          "duration": 0,
          "durationTicks": 0,
          "midi": 82,
          "name": "A#5",
          "ticks": 147139,
          "time": 191.58723958333334,
          "velocity": 0.2440944881889764
        },
        {
          "duration": 0,
          "durationTicks": 0,
          "midi": 57,
          "name": "A3",
          "ticks": 147148,
          "time": 191.59895833333334,
          "velocity": 0.2047244094488189
        },
        {
          "duration": 0,
          "durationTicks": 0,
          "midi": 86,
          "name": "D6",
          "ticks": 147148,
          "time": 191.59895833333334,
          "velocity": 0.08661417322834646
        },
        {
          "duration": 0,
          "durationTicks": 0,
          "midi": 90,
          "name": "F#6",
          "ticks": 147148,
          "time": 191.59895833333334,
          "velocity": 0.23622047244094488
        },
        {
          "duration": 0,
          "durationTicks": 0,
          "midi": 77,
          "name": "F5",
          "ticks": 147148,
          "time": 191.59895833333334,
          "velocity": 0.2992125984251969
        },
        {
          "duration": 0.10807291666665719,
          "durationTicks": 83,
          "midi": 39,
          "name": "D#2",
          "ticks": 147148,
          "time": 191.59895833333334,
          "velocity": 0.2992125984251969
        },
        {
          "duration": 0,
          "durationTicks": 0,
          "midi": 86,
          "name": "D6",
          "ticks": 147166,
          "time": 191.62239583333334,
          "velocity": 0.25196850393700787
        },
        {
          "duration": 0,
          "durationTicks": 0,
          "midi": 63,
          "name": "D#4",
          "ticks": 147184,
          "time": 191.64583333333334,
          "velocity": 0.08661417322834646
        },
        {
          "duration": 0,
          "durationTicks": 0,
          "midi": 90,
          "name": "F#6",
          "ticks": 147184,
          "time": 191.64583333333334,
          "velocity": 0.07086614173228346
        },
        {
          "duration": 0,
          "durationTicks": 0,
          "midi": 83,
          "name": "B5",
          "ticks": 147184,
          "time": 191.64583333333334,
          "velocity": 0.2125984251968504
        },
        {
          "duration": 0,
          "durationTicks": 0,
          "midi": 58,
          "name": "A#3",
          "ticks": 147184,
          "time": 191.64583333333334,
          "velocity": 0.18110236220472442
        },
        {
          "duration": 0.13020833333331439,
          "durationTicks": 100,
          "midi": 73,
          "name": "C#5",
          "ticks": 147184,
          "time": 191.64583333333334,
          "velocity": 0.29133858267716534
        },
        {
          "duration": 0.09765625,
          "durationTicks": 75,
          "midi": 92,
          "name": "G#6",
          "ticks": 147184,
          "time": 191.64583333333334,
          "velocity": 0.1968503937007874
        },
        {
          "duration": 0,
          "durationTicks": 0,
          "midi": 35,
          "name": "B1",
          "ticks": 147203,
          "time": 191.67057291666666,
          "velocity": 0.1732283464566929
        },
        {
          "duration": 0,
          "durationTicks": 0,
          "midi": 91,
          "name": "G6",
          "ticks": 147203,
          "time": 191.67057291666666,
          "velocity": 0.25196850393700787
        },
        {
          "duration": 0,
          "durationTicks": 0,
          "midi": 79,
          "name": "G5",
          "ticks": 147212,
          "time": 191.68229166666666,
          "velocity": 0.14173228346456693
        },
        {
          "duration": 0.10807291666665719,
          "durationTicks": 83,
          "midi": 87,
          "name": "D#6",
          "ticks": 147222,
          "time": 191.6953125,
          "velocity": 0.23622047244094488
        },
        {
          "duration": 0.2565104166666572,
          "durationTicks": 197,
          "midi": 84,
          "name": "C6",
          "ticks": 147222,
          "time": 191.6953125,
          "velocity": 0.2992125984251969
        },
        {
          "duration": 0.020833333333342807,
          "durationTicks": 16,
          "midi": 39,
          "name": "D#2",
          "ticks": 147231,
          "time": 191.70703125,
          "velocity": 0.29133858267716534
        },
        {
          "duration": 0,
          "durationTicks": 0,
          "midi": 86,
          "name": "D6",
          "ticks": 147231,
          "time": 191.70703125,
          "velocity": 0.06299212598425197
        },
        {
          "duration": 0.1302083333333428,
          "durationTicks": 100,
          "midi": 72,
          "name": "C5",
          "ticks": 147240,
          "time": 191.71875,
          "velocity": 0.2755905511811024
        },
        {
          "duration": 0.1302083333333428,
          "durationTicks": 100,
          "midi": 88,
          "name": "E6",
          "ticks": 147240,
          "time": 191.71875,
          "velocity": 0.25984251968503935
        },
        {
          "duration": 0,
          "durationTicks": 0,
          "midi": 57,
          "name": "A3",
          "ticks": 147250,
          "time": 191.73177083333334,
          "velocity": 0.30708661417322836
        },
        {
          "duration": 0,
          "durationTicks": 0,
          "midi": 75,
          "name": "D#5",
          "ticks": 147250,
          "time": 191.73177083333334,
          "velocity": 0.05511811023622047
        },
        {
          "duration": 0,
          "durationTicks": 0,
          "midi": 91,
          "name": "G6",
          "ticks": 147250,
          "time": 191.73177083333334,
          "velocity": 0.09448818897637795
        },
        {
          "duration": 0.032552083333314386,
          "durationTicks": 25,
          "midi": 92,
          "name": "G#6",
          "ticks": 147259,
          "time": 191.74348958333334,
          "velocity": 0.25196850393700787
        },
        {
          "duration": 0.12890625,
          "durationTicks": 99,
          "midi": 79,
          "name": "G5",
          "ticks": 147259,
          "time": 191.74348958333334,
          "velocity": 0.15748031496062992
        },
        {
          "duration": 0,
          "durationTicks": 0,
          "midi": 56,
          "name": "G#3",
          "ticks": 147268,
          "time": 191.75520833333334,
          "velocity": 0.2125984251968504
        },
        {
          "duration": 0,
          "durationTicks": 0,
          "midi": 36,
          "name": "C2",
          "ticks": 147278,
          "time": 191.76822916666666,
          "velocity": 0.30708661417322836
        },
        {
          "duration": 0.12760416666668561,
          "durationTicks": 98,
          "midi": 68,
          "name": "G#4",
          "ticks": 147278,
          "time": 191.76822916666666,
          "velocity": 0.23622047244094488
        },
        {
          "duration": 0,
          "durationTicks": 0,
          "midi": 85,
          "name": "C#6",
          "ticks": 147287,
          "time": 191.77994791666666,
          "velocity": 0.23622047244094488
        },
        {
          "duration": 0,
          "durationTicks": 0,
          "midi": 90,
          "name": "F#6",
          "ticks": 147287,
          "time": 191.77994791666666,
          "velocity": 0.10236220472440945
        },
        {
          "duration": 0,
          "durationTicks": 0,
          "midi": 93,
          "name": "A6",
          "ticks": 147296,
          "time": 191.79166666666666,
          "velocity": 0.2440944881889764
        },
        {
          "duration": 0.022135416666685614,
          "durationTicks": 17,
          "midi": 87,
          "name": "D#6",
          "ticks": 147305,
          "time": 191.80338541666666,
          "velocity": 0.07874015748031496
        },
        {
          "duration": 0,
          "durationTicks": 0,
          "midi": 57,
          "name": "A3",
          "ticks": 147315,
          "time": 191.81640625,
          "velocity": 0.11023622047244094
        },
        {
          "duration": 0,
          "durationTicks": 0,
          "midi": 89,
          "name": "F6",
          "ticks": 147315,
          "time": 191.81640625,
          "velocity": 0.25984251968503935
        },
        {
          "duration": 0,
          "durationTicks": 0,
          "midi": 77,
          "name": "F5",
          "ticks": 147333,
          "time": 191.83984375,
          "velocity": 0.15748031496062992
        },
        {
          "duration": 0,
          "durationTicks": 0,
          "midi": 80,
          "name": "G#5",
          "ticks": 147343,
          "time": 191.85286458333334,
          "velocity": 0.16535433070866143
        },
        {
          "duration": 0.125,
          "durationTicks": 96,
          "midi": 65,
          "name": "F4",
          "ticks": 147343,
          "time": 191.85286458333334,
          "velocity": 0.23622047244094488
        },
        {
          "duration": 0,
          "durationTicks": 0,
          "midi": 81,
          "name": "A5",
          "ticks": 147378,
          "time": 191.8984375,
          "velocity": 0.15748031496062992
        },
        {
          "duration": 0,
          "durationTicks": 0,
          "midi": 61,
          "name": "C#4",
          "ticks": 147378,
          "time": 191.8984375,
          "velocity": 0.2283464566929134
        },
        {
          "duration": 0,
          "durationTicks": 0,
          "midi": 79,
          "name": "G5",
          "ticks": 147387,
          "time": 191.91015625,
          "velocity": 0.08661417322834646
        },
        {
          "duration": 0,
          "durationTicks": 0,
          "midi": 89,
          "name": "F6",
          "ticks": 147396,
          "time": 191.921875,
          "velocity": 0.13385826771653545
        },
        {
          "duration": 0,
          "durationTicks": 0,
          "midi": 39,
          "name": "D#2",
          "ticks": 147414,
          "time": 191.9453125,
          "velocity": 0.1889763779527559
        },
        {
          "duration": 0,
          "durationTicks": 0,
          "midi": 60,
          "name": "C4",
          "ticks": 147423,
          "time": 191.95703125,
          "velocity": 0.2125984251968504
        },
        {
          "duration": 0,
          "durationTicks": 0,
          "midi": 67,
          "name": "G4",
          "ticks": 147423,
          "time": 191.95703125,
          "velocity": 0.08661417322834646
        },
        {
          "duration": 0,
          "durationTicks": 0,
          "midi": 79,
          "name": "G5",
          "ticks": 147441,
          "time": 191.98046875,
          "velocity": 0.15748031496062992
        },
        {
          "duration": 0,
          "durationTicks": 0,
          "midi": 90,
          "name": "F#6",
          "ticks": 147450,
          "time": 191.9921875,
          "velocity": 0.14173228346456693
        },
        {
          "duration": 0,
          "durationTicks": 0,
          "midi": 86,
          "name": "D6",
          "ticks": 147460,
          "time": 192.00520833333334,
          "velocity": 0.18110236220472442
        },
        {
          "duration": 0,
          "durationTicks": 0,
          "midi": 40,
          "name": "E2",
          "ticks": 147477,
          "time": 192.02734375,
          "velocity": 0.1968503937007874
        },
        {
          "duration": 0,
          "durationTicks": 0,
          "midi": 83,
          "name": "B5",
          "ticks": 147477,
          "time": 192.02734375,
          "velocity": 0.14173228346456693
        },
        {
          "duration": 0,
          "durationTicks": 0,
          "midi": 56,
          "name": "G#3",
          "ticks": 147486,
          "time": 192.0390625,
          "velocity": 0.1889763779527559
        },
        {
          "duration": 0,
          "durationTicks": 0,
          "midi": 84,
          "name": "C6",
          "ticks": 147486,
          "time": 192.0390625,
          "velocity": 0.11023622047244094
        },
        {
          "duration": 0,
          "durationTicks": 0,
          "midi": 27,
          "name": "D#1",
          "ticks": 147504,
          "time": 192.0625,
          "velocity": 0.2125984251968504
        },
        {
          "duration": 0.12890625,
          "durationTicks": 99,
          "midi": 87,
          "name": "D#6",
          "ticks": 147504,
          "time": 192.0625,
          "velocity": 0.14173228346456693
        },
        {
          "duration": 0,
          "durationTicks": 0,
          "midi": 39,
          "name": "D#2",
          "ticks": 147513,
          "time": 192.07421875,
          "velocity": 0.2125984251968504
        },
        {
          "duration": 0.12890625,
          "durationTicks": 99,
          "midi": 92,
          "name": "G#6",
          "ticks": 147513,
          "time": 192.07421875,
          "velocity": 0.14173228346456693
        },
        {
          "duration": 0,
          "durationTicks": 0,
          "midi": 70,
          "name": "A#4",
          "ticks": 147523,
          "time": 192.08723958333334,
          "velocity": 0.11811023622047244
        },
        {
          "duration": 0,
          "durationTicks": 0,
          "midi": 72,
          "name": "C5",
          "ticks": 147532,
          "time": 192.09895833333334,
          "velocity": 0.15748031496062992
        },
        {
          "duration": 0,
          "durationTicks": 0,
          "midi": 57,
          "name": "A3",
          "ticks": 147541,
          "time": 192.11067708333334,
          "velocity": 0.2992125984251969
        },
        {
          "duration": 0,
          "durationTicks": 0,
          "midi": 67,
          "name": "G4",
          "ticks": 147541,
          "time": 192.11067708333334,
          "velocity": 0.06299212598425197
        },
        {
          "duration": 0,
          "durationTicks": 0,
          "midi": 79,
          "name": "G5",
          "ticks": 147551,
          "time": 192.12369791666666,
          "velocity": 0.09448818897637795
        },
        {
          "duration": 0,
          "durationTicks": 0,
          "midi": 56,
          "name": "G#3",
          "ticks": 147560,
          "time": 192.13541666666666,
          "velocity": 0.1889763779527559
        },
        {
          "duration": 0.12760416666668561,
          "durationTicks": 98,
          "midi": 88,
          "name": "E6",
          "ticks": 147560,
          "time": 192.13541666666666,
          "velocity": 0.1732283464566929
        },
        {
          "duration": 0,
          "durationTicks": 0,
          "midi": 36,
          "name": "C2",
          "ticks": 147569,
          "time": 192.14713541666666,
          "velocity": 0.2283464566929134
        },
        {
          "duration": 0,
          "durationTicks": 0,
          "midi": 80,
          "name": "G#5",
          "ticks": 147578,
          "time": 192.15885416666666,
          "velocity": 0.11023622047244094
        },
        {
          "duration": 0,
          "durationTicks": 0,
          "midi": 50,
          "name": "D3",
          "ticks": 147578,
          "time": 192.15885416666666,
          "velocity": 0.13385826771653545
        },
        {
          "duration": 0,
          "durationTicks": 0,
          "midi": 84,
          "name": "C6",
          "ticks": 147588,
          "time": 192.171875,
          "velocity": 0.07874015748031496
        },
        {
          "duration": 0,
          "durationTicks": 0,
          "midi": 61,
          "name": "C#4",
          "ticks": 147624,
          "time": 192.21875,
          "velocity": 0.13385826771653545
        },
        {
          "duration": 0,
          "durationTicks": 0,
          "midi": 58,
          "name": "A#3",
          "ticks": 147651,
          "time": 192.25390625,
          "velocity": 0.08661417322834646
        },
        {
          "duration": 0,
          "durationTicks": 0,
          "midi": 57,
          "name": "A3",
          "ticks": 147732,
          "time": 192.359375,
          "velocity": 0.29133858267716534
        },
        {
          "duration": 0,
          "durationTicks": 0,
          "midi": 56,
          "name": "G#3",
          "ticks": 147749,
          "time": 192.38151041666666,
          "velocity": 0.1968503937007874
        },
        {
          "duration": 0,
          "durationTicks": 0,
          "midi": 87,
          "name": "D#6",
          "ticks": 147759,
          "time": 192.39453125,
          "velocity": 0.08661417322834646
        },
        {
          "duration": 0,
          "durationTicks": 0,
          "midi": 92,
          "name": "G#6",
          "ticks": 147785,
          "time": 192.42838541666666,
          "velocity": 0.05511811023622047
        },
        {
          "duration": 0,
          "durationTicks": 0,
          "midi": 40,
          "name": "E2",
          "ticks": 147803,
          "time": 192.45182291666666,
          "velocity": 0.12598425196850394
        },
        {
          "duration": 0,
          "durationTicks": 0,
          "midi": 79,
          "name": "G5",
          "ticks": 147803,
          "time": 192.45182291666666,
          "velocity": 0.06299212598425197
        },
        {
          "duration": 0,
          "durationTicks": 0,
          "midi": 85,
          "name": "C#6",
          "ticks": 147812,
          "time": 192.46354166666666,
          "velocity": 0.13385826771653545
        },
        {
          "duration": 0,
          "durationTicks": 0,
          "midi": 72,
          "name": "C5",
          "ticks": 147911,
          "time": 192.59244791666666,
          "velocity": 0.09448818897637795
        },
        {
          "duration": 0,
          "durationTicks": 0,
          "midi": 56,
          "name": "G#3",
          "ticks": 147920,
          "time": 192.60416666666666,
          "velocity": 0.16535433070866143
        },
        {
          "duration": 0,
          "durationTicks": 0,
          "midi": 28,
          "name": "E1",
          "ticks": 147947,
          "time": 192.63932291666666,
          "velocity": 0.18110236220472442
        },
        {
          "duration": 0,
          "durationTicks": 0,
          "midi": 58,
          "name": "A#3",
          "ticks": 147974,
          "time": 192.67447916666666,
          "velocity": 0.11023622047244094
        },
        {
          "duration": 0,
          "durationTicks": 0,
          "midi": 29,
          "name": "F1",
          "ticks": 147983,
          "time": 192.68619791666666,
          "velocity": 0.2047244094488189
        },
        {
          "duration": 0,
          "durationTicks": 0,
          "midi": 30,
          "name": "F#1",
          "ticks": 148045,
          "time": 192.76692708333334,
          "velocity": 0.31496062992125984
        },
        {
          "duration": 0,
          "durationTicks": 0,
          "midi": 31,
          "name": "G1",
          "ticks": 148063,
          "time": 192.79036458333334,
          "velocity": 0.25984251968503935
        },
        {
          "duration": 0,
          "durationTicks": 0,
          "midi": 57,
          "name": "A3",
          "ticks": 148117,
          "time": 192.86067708333334,
          "velocity": 0.29133858267716534
        },
        {
          "duration": 0,
          "durationTicks": 0,
          "midi": 66,
          "name": "F#4",
          "ticks": 148126,
          "time": 192.87239583333334,
          "velocity": 0.08661417322834646
        },
        {
          "duration": 0,
          "durationTicks": 0,
          "midi": 40,
          "name": "E2",
          "ticks": 148162,
          "time": 192.91927083333334,
          "velocity": 0.1732283464566929
        },
        {
          "duration": 0.125,
          "durationTicks": 96,
          "midi": 56,
          "name": "G#3",
          "ticks": 148171,
          "time": 192.93098958333334,
          "velocity": 0.1732283464566929
        },
        {
          "duration": 0,
          "durationTicks": 0,
          "midi": 41,
          "name": "F2",
          "ticks": 148234,
          "time": 193.01302083333334,
          "velocity": 0.1732283464566929
        },
        {
          "duration": 0,
          "durationTicks": 0,
          "midi": 55,
          "name": "G3",
          "ticks": 148234,
          "time": 193.01302083333334,
          "velocity": 0.05511811023622047
        },
        {
          "duration": 0,
          "durationTicks": 0,
          "midi": 57,
          "name": "A3",
          "ticks": 148251,
          "time": 193.03515625,
          "velocity": 0.1732283464566929
        },
        {
          "duration": 0,
          "durationTicks": 0,
          "midi": 44,
          "name": "G#2",
          "ticks": 148260,
          "time": 193.046875,
          "velocity": 0.1889763779527559
        },
        {
          "duration": 0,
          "durationTicks": 0,
          "midi": 56,
          "name": "G#3",
          "ticks": 148270,
          "time": 193.05989583333334,
          "velocity": 0.1968503937007874
        },
        {
          "duration": 0,
          "durationTicks": 0,
          "midi": 48,
          "name": "C3",
          "ticks": 148332,
          "time": 193.140625,
          "velocity": 0.2047244094488189
        },
        {
          "duration": 0,
          "durationTicks": 0,
          "midi": 56,
          "name": "G#3",
          "ticks": 148349,
          "time": 193.16276041666666,
          "velocity": 0.1968503937007874
        },
        {
          "duration": 0,
          "durationTicks": 0,
          "midi": 31,
          "name": "G1",
          "ticks": 148412,
          "time": 193.24479166666666,
          "velocity": 0.30708661417322836
        },
        {
          "duration": 0,
          "durationTicks": 0,
          "midi": 31,
          "name": "G1",
          "ticks": 148439,
          "time": 193.27994791666666,
          "velocity": 0.2047244094488189
        },
        {
          "duration": 0,
          "durationTicks": 0,
          "midi": 56,
          "name": "G#3",
          "ticks": 148465,
          "time": 193.31380208333334,
          "velocity": 0.14173228346456693
        },
        {
          "duration": 0,
          "durationTicks": 0,
          "midi": 59,
          "name": "B3",
          "ticks": 148501,
          "time": 193.36067708333334,
          "velocity": 0.15748031496062992
        },
        {
          "duration": 0,
          "durationTicks": 0,
          "midi": 63,
          "name": "D#4",
          "ticks": 148572,
          "time": 193.453125,
          "velocity": 0.18110236220472442
        },
        {
          "duration": 0,
          "durationTicks": 0,
          "midi": 31,
          "name": "G1",
          "ticks": 148599,
          "time": 193.48828125,
          "velocity": 0.29133858267716534
        },
        {
          "duration": 0,
          "durationTicks": 0,
          "midi": 66,
          "name": "F#4",
          "ticks": 148608,
          "time": 193.5,
          "velocity": 0.1732283464566929
        },
        {
          "duration": 0,
          "durationTicks": 0,
          "midi": 56,
          "name": "G#3",
          "ticks": 148670,
          "time": 193.58072916666666,
          "velocity": 0.1889763779527559
        },
        {
          "duration": 0,
          "durationTicks": 0,
          "midi": 73,
          "name": "C#5",
          "ticks": 148706,
          "time": 193.62760416666666,
          "velocity": 0.16535433070866143
        },
        {
          "duration": 0.125,
          "durationTicks": 96,
          "midi": 56,
          "name": "G#3",
          "ticks": 148742,
          "time": 193.67447916666666,
          "velocity": 0.28346456692913385
        },
        {
          "duration": 0,
          "durationTicks": 0,
          "midi": 77,
          "name": "F5",
          "ticks": 148751,
          "time": 193.68619791666666,
          "velocity": 0.14960629921259844
        },
        {
          "duration": 0,
          "durationTicks": 0,
          "midi": 62,
          "name": "D4",
          "ticks": 148760,
          "time": 193.69791666666666,
          "velocity": 0.05511811023622047
        },
        {
          "duration": 0,
          "durationTicks": 0,
          "midi": 79,
          "name": "G5",
          "ticks": 148778,
          "time": 193.72135416666666,
          "velocity": 0.11023622047244094
        },
        {
          "duration": 0,
          "durationTicks": 0,
          "midi": 81,
          "name": "A5",
          "ticks": 148796,
          "time": 193.74479166666666,
          "velocity": 0.15748031496062992
        },
        {
          "duration": 0,
          "durationTicks": 0,
          "midi": 84,
          "name": "C6",
          "ticks": 148840,
          "time": 193.80208333333334,
          "velocity": 0.16535433070866143
        },
        {
          "duration": 0,
          "durationTicks": 0,
          "midi": 31,
          "name": "G1",
          "ticks": 148876,
          "time": 193.84895833333334,
          "velocity": 0.29133858267716534
        },
        {
          "duration": 0,
          "durationTicks": 0,
          "midi": 88,
          "name": "E6",
          "ticks": 148886,
          "time": 193.86197916666666,
          "velocity": 0.12598425196850394
        },
        {
          "duration": 0,
          "durationTicks": 0,
          "midi": 72,
          "name": "C5",
          "ticks": 148948,
          "time": 193.94270833333334,
          "velocity": 0.07086614173228346
        },
        {
          "duration": 0,
          "durationTicks": 0,
          "midi": 56,
          "name": "G#3",
          "ticks": 148957,
          "time": 193.95442708333334,
          "velocity": 0.23622047244094488
        },
        {
          "duration": 0,
          "durationTicks": 0,
          "midi": 31,
          "name": "G1",
          "ticks": 149073,
          "time": 194.10546875,
          "velocity": 0.29133858267716534
        },
        {
          "duration": 0,
          "durationTicks": 0,
          "midi": 56,
          "name": "G#3",
          "ticks": 149144,
          "time": 194.19791666666666,
          "velocity": 0.18110236220472442
        },
        {
          "duration": 0,
          "durationTicks": 0,
          "midi": 56,
          "name": "G#3",
          "ticks": 149198,
          "time": 194.26822916666666,
          "velocity": 0.23622047244094488
        },
        {
          "duration": 0,
          "durationTicks": 0,
          "midi": 72,
          "name": "C5",
          "ticks": 149198,
          "time": 194.26822916666666,
          "velocity": 0.08661417322834646
        },
        {
          "duration": 0,
          "durationTicks": 0,
          "midi": 56,
          "name": "G#3",
          "ticks": 149260,
          "time": 194.34895833333334,
          "velocity": 0.2755905511811024
        },
        {
          "duration": 0,
          "durationTicks": 0,
          "midi": 31,
          "name": "G1",
          "ticks": 149349,
          "time": 194.46484375,
          "velocity": 0.29133858267716534
        },
        {
          "duration": 0,
          "durationTicks": 0,
          "midi": 29,
          "name": "F1",
          "ticks": 149394,
          "time": 194.5234375,
          "velocity": 0.18110236220472442
        },
        {
          "duration": 0,
          "durationTicks": 0,
          "midi": 56,
          "name": "G#3",
          "ticks": 149421,
          "time": 194.55859375,
          "velocity": 0.29133858267716534
        },
        {
          "duration": 0,
          "durationTicks": 0,
          "midi": 66,
          "name": "F#4",
          "ticks": 149421,
          "time": 194.55859375,
          "velocity": 0.08661417322834646
        },
        {
          "duration": 0,
          "durationTicks": 0,
          "midi": 72,
          "name": "C5",
          "ticks": 149421,
          "time": 194.55859375,
          "velocity": 0.14173228346456693
        },
        {
          "duration": 0,
          "durationTicks": 0,
          "midi": 62,
          "name": "D4",
          "ticks": 149421,
          "time": 194.55859375,
          "velocity": 0.05511811023622047
        },
        {
          "duration": 0,
          "durationTicks": 0,
          "midi": 86,
          "name": "D6",
          "ticks": 149483,
          "time": 194.63932291666666,
          "velocity": 0.13385826771653545
        },
        {
          "duration": 0,
          "durationTicks": 0,
          "midi": 84,
          "name": "C6",
          "ticks": 149510,
          "time": 194.67447916666666,
          "velocity": 0.16535433070866143
        },
        {
          "duration": 0,
          "durationTicks": 0,
          "midi": 31,
          "name": "G1",
          "ticks": 149546,
          "time": 194.72135416666666,
          "velocity": 0.29133858267716534
        },
        {
          "duration": 0,
          "durationTicks": 0,
          "midi": 86,
          "name": "D6",
          "ticks": 149600,
          "time": 194.79166666666666,
          "velocity": 0.15748031496062992
        },
        {
          "duration": 0,
          "durationTicks": 0,
          "midi": 56,
          "name": "G#3",
          "ticks": 149617,
          "time": 194.81380208333334,
          "velocity": 0.18110236220472442
        },
        {
          "duration": 0,
          "durationTicks": 0,
          "midi": 94,
          "name": "A#6",
          "ticks": 149644,
          "time": 194.84895833333334,
          "velocity": 0.12598425196850394
        },
        {
          "duration": 0,
          "durationTicks": 0,
          "midi": 88,
          "name": "E6",
          "ticks": 149671,
          "time": 194.88411458333334,
          "velocity": 0.14960629921259844
        },
        {
          "duration": 0,
          "durationTicks": 0,
          "midi": 86,
          "name": "D6",
          "ticks": 149689,
          "time": 194.90755208333334,
          "velocity": 0.14960629921259844
        },
        {
          "duration": 0,
          "durationTicks": 0,
          "midi": 84,
          "name": "C6",
          "ticks": 149706,
          "time": 194.9296875,
          "velocity": 0.12598425196850394
        },
        {
          "duration": 0,
          "durationTicks": 0,
          "midi": 56,
          "name": "G#3",
          "ticks": 149716,
          "time": 194.94270833333334,
          "velocity": 0.29133858267716534
        },
        {
          "duration": 0,
          "durationTicks": 0,
          "midi": 88,
          "name": "E6",
          "ticks": 149733,
          "time": 194.96484375,
          "velocity": 0.16535433070866143
        },
        {
          "duration": 0,
          "durationTicks": 0,
          "midi": 85,
          "name": "C#6",
          "ticks": 149751,
          "time": 194.98828125,
          "velocity": 0.14173228346456693
        },
        {
          "duration": 0,
          "durationTicks": 0,
          "midi": 92,
          "name": "G#6",
          "ticks": 149769,
          "time": 195.01171875,
          "velocity": 0.14173228346456693
        },
        {
          "duration": 0,
          "durationTicks": 0,
          "midi": 57,
          "name": "A3",
          "ticks": 149778,
          "time": 195.0234375,
          "velocity": 0.08661417322834646
        },
        {
          "duration": 0,
          "durationTicks": 0,
          "midi": 90,
          "name": "F#6",
          "ticks": 149787,
          "time": 195.03515625,
          "velocity": 0.13385826771653545
        },
        {
          "duration": 0,
          "durationTicks": 0,
          "midi": 94,
          "name": "A#6",
          "ticks": 149814,
          "time": 195.0703125,
          "velocity": 0.14173228346456693
        },
        {
          "duration": 0,
          "durationTicks": 0,
          "midi": 92,
          "name": "G#6",
          "ticks": 149832,
          "time": 195.09375,
          "velocity": 0.14173228346456693
        },
        {
          "duration": 0,
          "durationTicks": 0,
          "midi": 29,
          "name": "F1",
          "ticks": 149868,
          "time": 195.140625,
          "velocity": 0.1732283464566929
        },
        {
          "duration": 0,
          "durationTicks": 0,
          "midi": 94,
          "name": "A#6",
          "ticks": 149877,
          "time": 195.15234375,
          "velocity": 0.14173228346456693
        },
        {
          "duration": 0,
          "durationTicks": 0,
          "midi": 87,
          "name": "D#6",
          "ticks": 149895,
          "time": 195.17578125,
          "velocity": 0.14173228346456693
        },
        {
          "duration": 0,
          "durationTicks": 0,
          "midi": 57,
          "name": "A3",
          "ticks": 149912,
          "time": 195.19791666666666,
          "velocity": 0.1732283464566929
        },
        {
          "duration": 0,
          "durationTicks": 0,
          "midi": 83,
          "name": "B5",
          "ticks": 149930,
          "time": 195.22135416666666,
          "velocity": 0.14960629921259844
        },
        {
          "duration": 0,
          "durationTicks": 0,
          "midi": 85,
          "name": "C#6",
          "ticks": 149975,
          "time": 195.27994791666666,
          "velocity": 0.1968503937007874
        },
        {
          "duration": 0,
          "durationTicks": 0,
          "midi": 56,
          "name": "G#3",
          "ticks": 149984,
          "time": 195.29166666666666,
          "velocity": 0.29133858267716534
        },
        {
          "duration": 0,
          "durationTicks": 0,
          "midi": 82,
          "name": "A#5",
          "ticks": 150001,
          "time": 195.31380208333334,
          "velocity": 0.16535433070866143
        },
        {
          "duration": 0,
          "durationTicks": 0,
          "midi": 56,
          "name": "G#3",
          "ticks": 150019,
          "time": 195.33723958333334,
          "velocity": 0.1968503937007874
        },
        {
          "duration": 0,
          "durationTicks": 0,
          "midi": 79,
          "name": "G5",
          "ticks": 150019,
          "time": 195.33723958333334,
          "velocity": 0.1889763779527559
        },
        {
          "duration": 0,
          "durationTicks": 0,
          "midi": 73,
          "name": "C#5",
          "ticks": 150064,
          "time": 195.39583333333334,
          "velocity": 0.16535433070866143
        },
        {
          "duration": 0,
          "durationTicks": 0,
          "midi": 31,
          "name": "G1",
          "ticks": 150126,
          "time": 195.4765625,
          "velocity": 0.25984251968503935
        },
        {
          "duration": 0,
          "durationTicks": 0,
          "midi": 68,
          "name": "G#4",
          "ticks": 150135,
          "time": 195.48828125,
          "velocity": 0.1732283464566929
        },
        {
          "duration": 0,
          "durationTicks": 0,
          "midi": 69,
          "name": "A4",
          "ticks": 150162,
          "time": 195.5234375,
          "velocity": 0.1889763779527559
        },
        {
          "duration": 0,
          "durationTicks": 0,
          "midi": 56,
          "name": "G#3",
          "ticks": 150179,
          "time": 195.54557291666666,
          "velocity": 0.1732283464566929
        },
        {
          "duration": 0,
          "durationTicks": 0,
          "midi": 71,
          "name": "B4",
          "ticks": 150206,
          "time": 195.58072916666666,
          "velocity": 0.1732283464566929
        },
        {
          "duration": 0,
          "durationTicks": 0,
          "midi": 67,
          "name": "G4",
          "ticks": 150268,
          "time": 195.66145833333334,
          "velocity": 0.2047244094488189
        },
        {
          "duration": 0,
          "durationTicks": 0,
          "midi": 56,
          "name": "G#3",
          "ticks": 150268,
          "time": 195.66145833333334,
          "velocity": 0.29133858267716534
        },
        {
          "duration": 0,
          "durationTicks": 0,
          "midi": 62,
          "name": "D4",
          "ticks": 150278,
          "time": 195.67447916666666,
          "velocity": 0.05511811023622047
        },
        {
          "duration": 0,
          "durationTicks": 0,
          "midi": 56,
          "name": "G#3",
          "ticks": 150305,
          "time": 195.70963541666666,
          "velocity": 0.1732283464566929
        },
        {
          "duration": 0,
          "durationTicks": 0,
          "midi": 47,
          "name": "B2",
          "ticks": 150385,
          "time": 195.81380208333334,
          "velocity": 0.11811023622047244
        },
        {
          "duration": 0,
          "durationTicks": 0,
          "midi": 31,
          "name": "G1",
          "ticks": 150395,
          "time": 195.82682291666666,
          "velocity": 0.29133858267716534
        },
        {
          "duration": 0,
          "durationTicks": 0,
          "midi": 63,
          "name": "D#4",
          "ticks": 150404,
          "time": 195.83854166666666,
          "velocity": 0.18110236220472442
        },
        {
          "duration": 0,
          "durationTicks": 0,
          "midi": 59,
          "name": "B3",
          "ticks": 150458,
          "time": 195.90885416666666,
          "velocity": 0.1732283464566929
        },
        {
          "duration": 0,
          "durationTicks": 0,
          "midi": 69,
          "name": "A4",
          "ticks": 150458,
          "time": 195.90885416666666,
          "velocity": 0.08661417322834646
        },
        {
          "duration": 0,
          "durationTicks": 0,
          "midi": 56,
          "name": "G#3",
          "ticks": 150475,
          "time": 195.93098958333334,
          "velocity": 0.23622047244094488
        },
        {
          "duration": 0,
          "durationTicks": 0,
          "midi": 71,
          "name": "B4",
          "ticks": 150493,
          "time": 195.95442708333334,
          "velocity": 0.05511811023622047
        },
        {
          "duration": 0,
          "durationTicks": 0,
          "midi": 53,
          "name": "F3",
          "ticks": 150511,
          "time": 195.97786458333334,
          "velocity": 0.18110236220472442
        },
        {
          "duration": 0,
          "durationTicks": 0,
          "midi": 56,
          "name": "G#3",
          "ticks": 150555,
          "time": 196.03515625,
          "velocity": 0.29133858267716534
        },
        {
          "duration": 0,
          "durationTicks": 0,
          "midi": 72,
          "name": "C5",
          "ticks": 150555,
          "time": 196.03515625,
          "velocity": 0.11811023622047244
        },
        {
          "duration": 0,
          "durationTicks": 0,
          "midi": 31,
          "name": "G1",
          "ticks": 150680,
          "time": 196.19791666666666,
          "velocity": 0.29133858267716534
        },
        {
          "duration": 0,
          "durationTicks": 0,
          "midi": 63,
          "name": "D#4",
          "ticks": 150690,
          "time": 196.2109375,
          "velocity": 0.05511811023622047
        },
        {
          "duration": 0,
          "durationTicks": 0,
          "midi": 74,
          "name": "D5",
          "ticks": 150744,
          "time": 196.28125,
          "velocity": 0.11023622047244094
        },
        {
          "duration": 0,
          "durationTicks": 0,
          "midi": 72,
          "name": "C5",
          "ticks": 150744,
          "time": 196.28125,
          "velocity": 0.16535433070866143
        },
        {
          "duration": 0,
          "durationTicks": 0,
          "midi": 56,
          "name": "G#3",
          "ticks": 150753,
          "time": 196.29296875,
          "velocity": 0.2992125984251969
        },
        {
          "duration": 0,
          "durationTicks": 0,
          "midi": 69,
          "name": "A4",
          "ticks": 150780,
          "time": 196.328125,
          "velocity": 0.14173228346456693
        },
        {
          "duration": 0,
          "durationTicks": 0,
          "midi": 53,
          "name": "F3",
          "ticks": 150789,
          "time": 196.33984375,
          "velocity": 0.06299212598425197
        },
        {
          "duration": 0,
          "durationTicks": 0,
          "midi": 57,
          "name": "A3",
          "ticks": 150825,
          "time": 196.38671875,
          "velocity": 0.10236220472440945
        },
        {
          "duration": 0,
          "durationTicks": 0,
          "midi": 64,
          "name": "E4",
          "ticks": 150835,
          "time": 196.39973958333334,
          "velocity": 0.16535433070866143
        },
        {
          "duration": 0,
          "durationTicks": 0,
          "midi": 56,
          "name": "G#3",
          "ticks": 150950,
          "time": 196.54947916666666,
          "velocity": 0.18110236220472442
        },
        {
          "duration": 0,
          "durationTicks": 0,
          "midi": 64,
          "name": "E4",
          "ticks": 150977,
          "time": 196.58463541666666,
          "velocity": 0.14173228346456693
        },
        {
          "duration": 0,
          "durationTicks": 0,
          "midi": 60,
          "name": "C4",
          "ticks": 151066,
          "time": 196.70052083333334,
          "velocity": 0.1732283464566929
        },
        {
          "duration": 0,
          "durationTicks": 0,
          "midi": 31,
          "name": "G1",
          "ticks": 151076,
          "time": 196.71354166666666,
          "velocity": 0.25984251968503935
        },
        {
          "duration": 0,
          "durationTicks": 0,
          "midi": 55,
          "name": "G3",
          "ticks": 151120,
          "time": 196.77083333333334,
          "velocity": 0.28346456692913385
        },
        {
          "duration": 0,
          "durationTicks": 0,
          "midi": 56,
          "name": "G#3",
          "ticks": 151156,
          "time": 196.81770833333334,
          "velocity": 0.1968503937007874
        },
        {
          "duration": 0,
          "durationTicks": 0,
          "midi": 80,
          "name": "G#5",
          "ticks": 151255,
          "time": 196.94661458333334,
          "velocity": 0.14960629921259844
        },
        {
          "duration": 0,
          "durationTicks": 0,
          "midi": 56,
          "name": "G#3",
          "ticks": 151291,
          "time": 196.99348958333334,
          "velocity": 0.2283464566929134
        },
        {
          "duration": 0,
          "durationTicks": 0,
          "midi": 83,
          "name": "B5",
          "ticks": 151300,
          "time": 197.00520833333334,
          "velocity": 0.15748031496062992
        },
        {
          "duration": 0,
          "durationTicks": 0,
          "midi": 63,
          "name": "D#4",
          "ticks": 151336,
          "time": 197.05208333333334,
          "velocity": 0.07874015748031496
        },
        {
          "duration": 0,
          "durationTicks": 0,
          "midi": 56,
          "name": "G#3",
          "ticks": 151346,
          "time": 197.06510416666666,
          "velocity": 0.2755905511811024
        },
        {
          "duration": 0,
          "durationTicks": 0,
          "midi": 72,
          "name": "C5",
          "ticks": 151346,
          "time": 197.06510416666666,
          "velocity": 0.11811023622047244
        },
        {
          "duration": 0,
          "durationTicks": 0,
          "midi": 78,
          "name": "F#5",
          "ticks": 151363,
          "time": 197.08723958333334,
          "velocity": 0.11023622047244094
        },
        {
          "duration": 0,
          "durationTicks": 0,
          "midi": 56,
          "name": "G#3",
          "ticks": 151381,
          "time": 197.11067708333334,
          "velocity": 0.16535433070866143
        },
        {
          "duration": 0,
          "durationTicks": 0,
          "midi": 81,
          "name": "A5",
          "ticks": 151399,
          "time": 197.13411458333334,
          "velocity": 0.1732283464566929
        },
        {
          "duration": 0,
          "durationTicks": 0,
          "midi": 50,
          "name": "D3",
          "ticks": 151443,
          "time": 197.19140625,
          "velocity": 0.08661417322834646
        },
        {
          "duration": 0,
          "durationTicks": 0,
          "midi": 84,
          "name": "C6",
          "ticks": 151443,
          "time": 197.19140625,
          "velocity": 0.16535433070866143
        },
        {
          "duration": 0,
          "durationTicks": 0,
          "midi": 31,
          "name": "G1",
          "ticks": 151452,
          "time": 197.203125,
          "velocity": 0.2677165354330709
        },
        {
          "duration": 0,
          "durationTicks": 0,
          "midi": 29,
          "name": "F1",
          "ticks": 151479,
          "time": 197.23828125,
          "velocity": 0.1732283464566929
        },
        {
          "duration": 0,
          "durationTicks": 0,
          "midi": 56,
          "name": "G#3",
          "ticks": 151506,
          "time": 197.2734375,
          "velocity": 0.18110236220472442
        },
        {
          "duration": 0,
          "durationTicks": 0,
          "midi": 79,
          "name": "G5",
          "ticks": 151506,
          "time": 197.2734375,
          "velocity": 0.13385826771653545
        },
        {
          "duration": 0,
          "durationTicks": 0,
          "midi": 81,
          "name": "A5",
          "ticks": 151524,
          "time": 197.296875,
          "velocity": 0.11023622047244094
        },
        {
          "duration": 0.125,
          "durationTicks": 96,
          "midi": 82,
          "name": "A#5",
          "ticks": 151533,
          "time": 197.30859375,
          "velocity": 0.16535433070866143
        },
        {
          "duration": 0,
          "durationTicks": 0,
          "midi": 56,
          "name": "G#3",
          "ticks": 151551,
          "time": 197.33203125,
          "velocity": 0.18110236220472442
        },
        {
          "duration": 0,
          "durationTicks": 0,
          "midi": 84,
          "name": "C6",
          "ticks": 151568,
          "time": 197.35416666666666,
          "velocity": 0.11023622047244094
        },
        {
          "duration": 0,
          "durationTicks": 0,
          "midi": 56,
          "name": "G#3",
          "ticks": 151586,
          "time": 197.37760416666666,
          "velocity": 0.29133858267716534
        },
        {
          "duration": 0,
          "durationTicks": 0,
          "midi": 85,
          "name": "C#6",
          "ticks": 151586,
          "time": 197.37760416666666,
          "velocity": 0.1732283464566929
        },
        {
          "duration": 0,
          "durationTicks": 0,
          "midi": 72,
          "name": "C5",
          "ticks": 151595,
          "time": 197.38932291666666,
          "velocity": 0.14173228346456693
        },
        {
          "duration": 0,
          "durationTicks": 0,
          "midi": 62,
          "name": "D4",
          "ticks": 151605,
          "time": 197.40234375,
          "velocity": 0.05511811023622047
        },
        {
          "duration": 0,
          "durationTicks": 0,
          "midi": 87,
          "name": "D#6",
          "ticks": 151614,
          "time": 197.4140625,
          "velocity": 0.12598425196850394
        },
        {
          "duration": 0,
          "durationTicks": 0,
          "midi": 56,
          "name": "G#3",
          "ticks": 151631,
          "time": 197.43619791666666,
          "velocity": 0.1889763779527559
        },
        {
          "duration": 0.12369791666668561,
          "durationTicks": 95,
          "midi": 89,
          "name": "F6",
          "ticks": 151631,
          "time": 197.43619791666666,
          "velocity": 0.14960629921259844
        },
        {
          "duration": 0,
          "durationTicks": 0,
          "midi": 56,
          "name": "G#3",
          "ticks": 151667,
          "time": 197.48307291666666,
          "velocity": 0.23622047244094488
        },
        {
          "duration": 0,
          "durationTicks": 0,
          "midi": 88,
          "name": "E6",
          "ticks": 151711,
          "time": 197.54036458333334,
          "velocity": 0.12598425196850394
        },
        {
          "duration": 0,
          "durationTicks": 0,
          "midi": 56,
          "name": "G#3",
          "ticks": 151729,
          "time": 197.56380208333334,
          "velocity": 0.2755905511811024
        },
        {
          "duration": 0,
          "durationTicks": 0,
          "midi": 56,
          "name": "G#3",
          "ticks": 151756,
          "time": 197.59895833333334,
          "velocity": 0.1889763779527559
        },
        {
          "duration": 0,
          "durationTicks": 0,
          "midi": 87,
          "name": "D#6",
          "ticks": 151756,
          "time": 197.59895833333334,
          "velocity": 0.12598425196850394
        },
        {
          "duration": 0.125,
          "durationTicks": 96,
          "midi": 86,
          "name": "D6",
          "ticks": 151800,
          "time": 197.65625,
          "velocity": 0.14173228346456693
        },
        {
          "duration": 0,
          "durationTicks": 0,
          "midi": 31,
          "name": "G1",
          "ticks": 151818,
          "time": 197.6796875,
          "velocity": 0.1732283464566929
        },
        {
          "duration": 0,
          "durationTicks": 0,
          "midi": 85,
          "name": "C#6",
          "ticks": 151854,
          "time": 197.7265625,
          "velocity": 0.12598425196850394
        },
        {
          "duration": 0,
          "durationTicks": 0,
          "midi": 31,
          "name": "G1",
          "ticks": 151881,
          "time": 197.76171875,
          "velocity": 0.2283464566929134
        },
        {
          "duration": 0,
          "durationTicks": 0,
          "midi": 84,
          "name": "C6",
          "ticks": 151899,
          "time": 197.78515625,
          "velocity": 0.11023622047244094
        },
        {
          "duration": 0,
          "durationTicks": 0,
          "midi": 31,
          "name": "G1",
          "ticks": 151943,
          "time": 197.84244791666666,
          "velocity": 0.29133858267716534
        },
        {
          "duration": 0.1263020833333428,
          "durationTicks": 97,
          "midi": 83,
          "name": "B5",
          "ticks": 151943,
          "time": 197.84244791666666,
          "velocity": 0.13385826771653545
        },
        {
          "duration": 0,
          "durationTicks": 0,
          "midi": 56,
          "name": "G#3",
          "ticks": 151979,
          "time": 197.88932291666666,
          "velocity": 0.2755905511811024
        },
        {
          "duration": 0,
          "durationTicks": 0,
          "midi": 62,
          "name": "D4",
          "ticks": 151979,
          "time": 197.88932291666666,
          "velocity": 0.05511811023622047
        },
        {
          "duration": 0,
          "durationTicks": 0,
          "midi": 56,
          "name": "G#3",
          "ticks": 152006,
          "time": 197.92447916666666,
          "velocity": 0.2047244094488189
        },
        {
          "duration": 0,
          "durationTicks": 0,
          "midi": 81,
          "name": "A5",
          "ticks": 152042,
          "time": 197.97135416666666,
          "velocity": 0.14173228346456693
        },
        {
          "duration": 0,
          "durationTicks": 0,
          "midi": 56,
          "name": "G#3",
          "ticks": 152052,
          "time": 197.984375,
          "velocity": 0.23622047244094488
        },
        {
          "duration": 0,
          "durationTicks": 0,
          "midi": 80,
          "name": "G#5",
          "ticks": 152088,
          "time": 198.03125,
          "velocity": 0.13385826771653545
        },
        {
          "duration": 0,
          "durationTicks": 0,
          "midi": 31,
          "name": "G1",
          "ticks": 152132,
          "time": 198.08854166666666,
          "velocity": 0.29133858267716534
        },
        {
          "duration": 0,
          "durationTicks": 0,
          "midi": 79,
          "name": "G5",
          "ticks": 152132,
          "time": 198.08854166666666,
          "velocity": 0.15748031496062992
        },
        {
          "duration": 0,
          "durationTicks": 0,
          "midi": 56,
          "name": "G#3",
          "ticks": 152177,
          "time": 198.14713541666666,
          "velocity": 0.18110236220472442
        },
        {
          "duration": 0.125,
          "durationTicks": 96,
          "midi": 78,
          "name": "F#5",
          "ticks": 152177,
          "time": 198.14713541666666,
          "velocity": 0.14960629921259844
        },
        {
          "duration": 0,
          "durationTicks": 0,
          "midi": 56,
          "name": "G#3",
          "ticks": 152231,
          "time": 198.21744791666666,
          "velocity": 0.23622047244094488
        },
        {
          "duration": 0,
          "durationTicks": 0,
          "midi": 77,
          "name": "F5",
          "ticks": 152231,
          "time": 198.21744791666666,
          "velocity": 0.14173228346456693
        },
        {
          "duration": 0.12630208333331439,
          "durationTicks": 97,
          "midi": 76,
          "name": "E5",
          "ticks": 152275,
          "time": 198.27473958333334,
          "velocity": 0.14173228346456693
        },
        {
          "duration": 0,
          "durationTicks": 0,
          "midi": 72,
          "name": "C5",
          "ticks": 152293,
          "time": 198.29817708333334,
          "velocity": 0.12598425196850394
        },
        {
          "duration": 0,
          "durationTicks": 0,
          "midi": 56,
          "name": "G#3",
          "ticks": 152302,
          "time": 198.30989583333334,
          "velocity": 0.2755905511811024
        },
        {
          "duration": 0,
          "durationTicks": 0,
          "midi": 75,
          "name": "D#5",
          "ticks": 152329,
          "time": 198.34505208333334,
          "velocity": 0.14173228346456693
        },
        {
          "duration": 0,
          "durationTicks": 0,
          "midi": 72,
          "name": "C5",
          "ticks": 152365,
          "time": 198.39192708333334,
          "velocity": 0.13385826771653545
        },
        {
          "duration": 0,
          "durationTicks": 0,
          "midi": 31,
          "name": "G1",
          "ticks": 152384,
          "time": 198.41666666666666,
          "velocity": 0.28346456692913385
        },
        {
          "duration": 0,
          "durationTicks": 0,
          "midi": 60,
          "name": "C4",
          "ticks": 152393,
          "time": 198.42838541666666,
          "velocity": 0.14960629921259844
        },
        {
          "duration": 0,
          "durationTicks": 0,
          "midi": 29,
          "name": "F1",
          "ticks": 152429,
          "time": 198.47526041666666,
          "velocity": 0.18110236220472442
        },
        {
          "duration": 0,
          "durationTicks": 0,
          "midi": 48,
          "name": "C3",
          "ticks": 152545,
          "time": 198.62630208333334,
          "velocity": 0.16535433070866143
        },
        {
          "duration": 0,
          "durationTicks": 0,
          "midi": 41,
          "name": "F2",
          "ticks": 152634,
          "time": 198.7421875,
          "velocity": 0.2992125984251969
        },
        {
          "duration": 0,
          "durationTicks": 0,
          "midi": 60,
          "name": "C4",
          "ticks": 152644,
          "time": 198.75520833333334,
          "velocity": 0.4015748031496063
        },
        {
          "duration": 0,
          "durationTicks": 0,
          "midi": 59,
          "name": "B3",
          "ticks": 152661,
          "time": 198.77734375,
          "velocity": 0.4015748031496063
        },
        {
          "duration": 0,
          "durationTicks": 0,
          "midi": 58,
          "name": "A#3",
          "ticks": 152671,
          "time": 198.79036458333334,
          "velocity": 0.3858267716535433
        },
        {
          "duration": 0,
          "durationTicks": 0,
          "midi": 57,
          "name": "A3",
          "ticks": 152688,
          "time": 198.8125,
          "velocity": 0.3779527559055118
        },
        {
          "duration": 0,
          "durationTicks": 0,
          "midi": 56,
          "name": "G#3",
          "ticks": 152733,
          "time": 198.87109375,
          "velocity": 0.25984251968503935
        },
        {
          "duration": 0.125,
          "durationTicks": 96,
          "midi": 39,
          "name": "D#2",
          "ticks": 152795,
          "time": 198.95182291666666,
          "velocity": 0.36220472440944884
        },
        {
          "duration": 0.25,
          "durationTicks": 192,
          "midi": 58,
          "name": "A#3",
          "ticks": 152795,
          "time": 198.95182291666666,
          "velocity": 0.10236220472440945
        },
        {
          "duration": 0,
          "durationTicks": 0,
          "midi": 39,
          "name": "D#2",
          "ticks": 152902,
          "time": 199.09114583333334,
          "velocity": 0.3464566929133858
        },
        {
          "duration": 0,
          "durationTicks": 0,
          "midi": 37,
          "name": "C#2",
          "ticks": 152956,
          "time": 199.16145833333334,
          "velocity": 0.36220472440944884
        },
        {
          "duration": 0,
          "durationTicks": 0,
          "midi": 36,
          "name": "C2",
          "ticks": 152974,
          "time": 199.18489583333334,
          "velocity": 0.36220472440944884
        },
        {
          "duration": 0.125,
          "durationTicks": 96,
          "midi": 60,
          "name": "C4",
          "ticks": 152974,
          "time": 199.18489583333334,
          "velocity": 0.2283464566929134
        },
        {
          "duration": 0,
          "durationTicks": 0,
          "midi": 35,
          "name": "B1",
          "ticks": 152991,
          "time": 199.20703125,
          "velocity": 0.36220472440944884
        },
        {
          "duration": 0,
          "durationTicks": 0,
          "midi": 33,
          "name": "A1",
          "ticks": 153018,
          "time": 199.2421875,
          "velocity": 0.3464566929133858
        },
        {
          "duration": 0,
          "durationTicks": 0,
          "midi": 52,
          "name": "E3",
          "ticks": 153018,
          "time": 199.2421875,
          "velocity": 0.07874015748031496
        },
        {
          "duration": 0,
          "durationTicks": 0,
          "midi": 61,
          "name": "C#4",
          "ticks": 153036,
          "time": 199.265625,
          "velocity": 0.25196850393700787
        },
        {
          "duration": 0,
          "durationTicks": 0,
          "midi": 30,
          "name": "F#1",
          "ticks": 153063,
          "time": 199.30078125,
          "velocity": 0.36220472440944884
        },
        {
          "duration": 0,
          "durationTicks": 0,
          "midi": 49,
          "name": "C#3",
          "ticks": 153063,
          "time": 199.30078125,
          "velocity": 0.07086614173228346
        },
        {
          "duration": 0,
          "durationTicks": 0,
          "midi": 61,
          "name": "C#4",
          "ticks": 153072,
          "time": 199.3125,
          "velocity": 0.1889763779527559
        },
        {
          "duration": 0.1263020833333428,
          "durationTicks": 97,
          "midi": 65,
          "name": "F4",
          "ticks": 153072,
          "time": 199.3125,
          "velocity": 0.1889763779527559
        },
        {
          "duration": 0,
          "durationTicks": 0,
          "midi": 53,
          "name": "F3",
          "ticks": 153117,
          "time": 199.37109375,
          "velocity": 0.05511811023622047
        },
        {
          "duration": 0.1263020833333428,
          "durationTicks": 97,
          "midi": 87,
          "name": "D#6",
          "ticks": 153117,
          "time": 199.37109375,
          "velocity": 0.12598425196850394
        },
        {
          "duration": 0.1263020833333428,
          "durationTicks": 97,
          "midi": 58,
          "name": "A#3",
          "ticks": 153126,
          "time": 199.3828125,
          "velocity": 0.23622047244094488
        },
        {
          "duration": 0.1263020833333428,
          "durationTicks": 97,
          "midi": 70,
          "name": "A#4",
          "ticks": 153126,
          "time": 199.3828125,
          "velocity": 0.23622047244094488
        },
        {
          "duration": 0.1263020833333428,
          "durationTicks": 97,
          "midi": 72,
          "name": "C5",
          "ticks": 153126,
          "time": 199.3828125,
          "velocity": 0.2440944881889764
        },
        {
          "duration": 0,
          "durationTicks": 0,
          "midi": 66,
          "name": "F#4",
          "ticks": 153135,
          "time": 199.39453125,
          "velocity": 0.1968503937007874
        },
        {
          "duration": 0.7565104166666572,
          "durationTicks": 581,
          "midi": 34,
          "name": "A#1",
          "ticks": 153135,
          "time": 199.39453125,
          "velocity": 0.29133858267716534
        },
        {
          "duration": 0.1276041666666572,
          "durationTicks": 98,
          "midi": 86,
          "name": "D6",
          "ticks": 153189,
          "time": 199.46484375,
          "velocity": 0.12598425196850394
        },
        {
          "duration": 0,
          "durationTicks": 0,
          "midi": 61,
          "name": "C#4",
          "ticks": 153235,
          "time": 199.52473958333334,
          "velocity": 0.12598425196850394
        },
        {
          "duration": 0.3776041666666572,
          "durationTicks": 290,
          "midi": 72,
          "name": "C5",
          "ticks": 153235,
          "time": 199.52473958333334,
          "velocity": 0.25196850393700787
        },
        {
          "duration": 0,
          "durationTicks": 0,
          "midi": 61,
          "name": "C#4",
          "ticks": 153271,
          "time": 199.57161458333334,
          "velocity": 0.14960629921259844
        },
        {
          "duration": 0.12630208333331439,
          "durationTicks": 97,
          "midi": 65,
          "name": "F4",
          "ticks": 153280,
          "time": 199.58333333333334,
          "velocity": 0.09448818897637795
        },
        {
          "duration": 0.125,
          "durationTicks": 96,
          "midi": 85,
          "name": "C#6",
          "ticks": 153299,
          "time": 199.60807291666666,
          "velocity": 0.14173228346456693
        },
        {
          "duration": 0.25,
          "durationTicks": 192,
          "midi": 58,
          "name": "A#3",
          "ticks": 153308,
          "time": 199.61979166666666,
          "velocity": 0.14173228346456693
        },
        {
          "duration": 0.125,
          "durationTicks": 96,
          "midi": 83,
          "name": "B5",
          "ticks": 153495,
          "time": 199.86328125,
          "velocity": 0.14173228346456693
        },
        {
          "duration": 0.2513020833333428,
          "durationTicks": 193,
          "midi": 68,
          "name": "G#4",
          "ticks": 153495,
          "time": 199.86328125,
          "velocity": 0.1968503937007874
        },
        {
          "duration": 0,
          "durationTicks": 0,
          "midi": 70,
          "name": "A#4",
          "ticks": 153513,
          "time": 199.88671875,
          "velocity": 0.08661417322834646
        },
        {
          "duration": 0,
          "durationTicks": 0,
          "midi": 61,
          "name": "C#4",
          "ticks": 153522,
          "time": 199.8984375,
          "velocity": 0.08661417322834646
        },
        {
          "duration": 0,
          "durationTicks": 0,
          "midi": 87,
          "name": "D#6",
          "ticks": 153522,
          "time": 199.8984375,
          "velocity": 0.05511811023622047
        },
        {
          "duration": 0,
          "durationTicks": 0,
          "midi": 70,
          "name": "A#4",
          "ticks": 153549,
          "time": 199.93359375,
          "velocity": 0.10236220472440945
        },
        {
          "duration": 0,
          "durationTicks": 0,
          "midi": 61,
          "name": "C#4",
          "ticks": 153567,
          "time": 199.95703125,
          "velocity": 0.10236220472440945
        },
        {
          "duration": 0.1263020833333428,
          "durationTicks": 97,
          "midi": 82,
          "name": "A#5",
          "ticks": 153603,
          "time": 200.00390625,
          "velocity": 0.12598425196850394
        },
        {
          "duration": 0,
          "durationTicks": 0,
          "midi": 61,
          "name": "C#4",
          "ticks": 153612,
          "time": 200.015625,
          "velocity": 0.07874015748031496
        },
        {
          "duration": 0.6263020833333144,
          "durationTicks": 481,
          "midi": 72,
          "name": "C5",
          "ticks": 153622,
          "time": 200.02864583333334,
          "velocity": 0.1732283464566929
        },
        {
          "duration": 0.1263020833333428,
          "durationTicks": 97,
          "midi": 58,
          "name": "A#3",
          "ticks": 153648,
          "time": 200.0625,
          "velocity": 0.09448818897637795
        },
        {
          "duration": 0.1263020833333428,
          "durationTicks": 97,
          "midi": 65,
          "name": "F4",
          "ticks": 153684,
          "time": 200.109375,
          "velocity": 0.1968503937007874
        },
        {
          "duration": 0,
          "durationTicks": 0,
          "midi": 47,
          "name": "B2",
          "ticks": 153693,
          "time": 200.12109375,
          "velocity": 0.2755905511811024
        },
        {
          "duration": 0.125,
          "durationTicks": 96,
          "midi": 81,
          "name": "A5",
          "ticks": 153712,
          "time": 200.14583333333334,
          "velocity": 0.12598425196850394
        },
        {
          "duration": 1.0026041666666572,
          "durationTicks": 770,
          "midi": 46,
          "name": "A#2",
          "ticks": 153712,
          "time": 200.14583333333334,
          "velocity": 0.28346456692913385
        },
        {
          "duration": 0.125,
          "durationTicks": 96,
          "midi": 80,
          "name": "G#5",
          "ticks": 153810,
          "time": 200.2734375,
          "velocity": 0.14173228346456693
        },
        {
          "duration": 0.25,
          "durationTicks": 192,
          "midi": 68,
          "name": "G#4",
          "ticks": 153891,
          "time": 200.37890625,
          "velocity": 0.07086614173228346
        },
        {
          "duration": 0.25,
          "durationTicks": 192,
          "midi": 63,
          "name": "D#4",
          "ticks": 153891,
          "time": 200.37890625,
          "velocity": 0.2125984251968504
        },
        {
          "duration": 0.125,
          "durationTicks": 96,
          "midi": 79,
          "name": "G5",
          "ticks": 153908,
          "time": 200.40104166666666,
          "velocity": 0.12598425196850394
        },
        {
          "duration": 0.125,
          "durationTicks": 96,
          "midi": 82,
          "name": "A#5",
          "ticks": 153962,
          "time": 200.47135416666666,
          "velocity": 0.07874015748031496
        },
        {
          "duration": 0.125,
          "durationTicks": 96,
          "midi": 78,
          "name": "F#5",
          "ticks": 154007,
          "time": 200.52994791666666,
          "velocity": 0.12598425196850394
        },
        {
          "duration": 0.125,
          "durationTicks": 96,
          "midi": 65,
          "name": "F4",
          "ticks": 154078,
          "time": 200.62239583333334,
          "velocity": 0.2204724409448819
        },
        {
          "duration": 0.125,
          "durationTicks": 96,
          "midi": 76,
          "name": "E5",
          "ticks": 154212,
          "time": 200.796875,
          "velocity": 0.13385826771653545
        },
        {
          "duration": 0.3776041666666856,
          "durationTicks": 290,
          "midi": 72,
          "name": "C5",
          "ticks": 154229,
          "time": 200.81901041666666,
          "velocity": 0.2440944881889764
        },
        {
          "duration": 0.2513020833333428,
          "durationTicks": 193,
          "midi": 68,
          "name": "G#4",
          "ticks": 154256,
          "time": 200.85416666666666,
          "velocity": 0.2677165354330709
        },
        {
          "duration": 0.125,
          "durationTicks": 96,
          "midi": 65,
          "name": "F4",
          "ticks": 154283,
          "time": 200.88932291666666,
          "velocity": 0.2125984251968504
        },
        {
          "duration": 0.125,
          "durationTicks": 96,
          "midi": 75,
          "name": "D#5",
          "ticks": 154310,
          "time": 200.92447916666666,
          "velocity": 0.14173228346456693
        },
        {
          "duration": 0.1263020833333428,
          "durationTicks": 97,
          "midi": 63,
          "name": "D#4",
          "ticks": 154364,
          "time": 200.99479166666666,
          "velocity": 0.11811023622047244
        },
        {
          "duration": 0,
          "durationTicks": 0,
          "midi": 74,
          "name": "D5",
          "ticks": 154408,
          "time": 201.05208333333334,
          "velocity": 0.14173228346456693
        },
        {
          "duration": 0,
          "durationTicks": 0,
          "midi": 67,
          "name": "G4",
          "ticks": 154408,
          "time": 201.05208333333334,
          "velocity": 0.2204724409448819
        },
        {
          "duration": 0,
          "durationTicks": 0,
          "midi": 47,
          "name": "B2",
          "ticks": 154435,
          "time": 201.08723958333334,
          "velocity": 0.2677165354330709
        },
        {
          "duration": 0.12630208333331439,
          "durationTicks": 97,
          "midi": 61,
          "name": "C#4",
          "ticks": 154444,
          "time": 201.09895833333334,
          "velocity": 0.2440944881889764
        },
        {
          "duration": 0.1263020833333428,
          "durationTicks": 97,
          "midi": 68,
          "name": "G#4",
          "ticks": 154454,
          "time": 201.11197916666666,
          "velocity": 0.2283464566929134
        },
        {
          "duration": 0.1263020833333428,
          "durationTicks": 97,
          "midi": 65,
          "name": "F4",
          "ticks": 154454,
          "time": 201.11197916666666,
          "velocity": 0.1732283464566929
        },
        {
          "duration": 1.2513020833333428,
          "durationTicks": 961,
          "midi": 39,
          "name": "D#2",
          "ticks": 154472,
          "time": 201.13541666666666,
          "velocity": 0.29133858267716534
        },
        {
          "duration": 0.1263020833333428,
          "durationTicks": 97,
          "midi": 58,
          "name": "A#3",
          "ticks": 154544,
          "time": 201.22916666666666,
          "velocity": 0.07086614173228346
        },
        {
          "duration": 0.1263020833333428,
          "durationTicks": 97,
          "midi": 70,
          "name": "A#4",
          "ticks": 154571,
          "time": 201.26432291666666,
          "velocity": 0.2125984251968504
        },
        {
          "duration": 0.12630208333331439,
          "durationTicks": 97,
          "midi": 67,
          "name": "G4",
          "ticks": 154588,
          "time": 201.28645833333334,
          "velocity": 0.11023622047244094
        },
        {
          "duration": 0.25,
          "durationTicks": 192,
          "midi": 72,
          "name": "C5",
          "ticks": 154598,
          "time": 201.29947916666666,
          "velocity": 0.2125984251968504
        },
        {
          "duration": 0.24869791666668561,
          "durationTicks": 191,
          "midi": 61,
          "name": "C#4",
          "ticks": 154634,
          "time": 201.34635416666666,
          "velocity": 0.13385826771653545
        },
        {
          "duration": 0.12369791666665719,
          "durationTicks": 95,
          "midi": 68,
          "name": "G#4",
          "ticks": 154714,
          "time": 201.45052083333334,
          "velocity": 0.11023622047244094
        },
        {
          "duration": 0,
          "durationTicks": 0,
          "midi": 71,
          "name": "B4",
          "ticks": 154777,
          "time": 201.53255208333334,
          "velocity": 0.11811023622047244
        },
        {
          "duration": 0,
          "durationTicks": 0,
          "midi": 72,
          "name": "C5",
          "ticks": 154794,
          "time": 201.5546875,
          "velocity": 0.11023622047244094
        },
        {
          "duration": 0,
          "durationTicks": 0,
          "midi": 70,
          "name": "A#4",
          "ticks": 154812,
          "time": 201.578125,
          "velocity": 0.16535433070866143
        },
        {
          "duration": 0,
          "durationTicks": 0,
          "midi": 65,
          "name": "F4",
          "ticks": 154829,
          "time": 201.60026041666666,
          "velocity": 0.10236220472440945
        },
        {
          "duration": 0.3606770833333428,
          "durationTicks": 277,
          "midi": 68,
          "name": "G#4",
          "ticks": 154829,
          "time": 201.60026041666666,
          "velocity": 0.25984251968503935
        },
        {
          "duration": 0.625,
          "durationTicks": 480,
          "midi": 72,
          "name": "C5",
          "ticks": 154839,
          "time": 201.61328125,
          "velocity": 0.14960629921259844
        },
        {
          "duration": 0.125,
          "durationTicks": 96,
          "midi": 61,
          "name": "C#4",
          "ticks": 154972,
          "time": 201.78645833333334,
          "velocity": 0.08661417322834646
        },
        {
          "duration": 0.014322916666657193,
          "durationTicks": 11,
          "midi": 68,
          "name": "G#4",
          "ticks": 155106,
          "time": 201.9609375,
          "velocity": 0.14173228346456693
        },
        {
          "duration": 0.125,
          "durationTicks": 96,
          "midi": 67,
          "name": "G4",
          "ticks": 155133,
          "time": 201.99609375,
          "velocity": 0.1732283464566929
        },
        {
          "duration": 0.125,
          "durationTicks": 96,
          "midi": 70,
          "name": "A#4",
          "ticks": 155204,
          "time": 202.08854166666666,
          "velocity": 0.07874015748031496
        },
        {
          "duration": 0,
          "durationTicks": 0,
          "midi": 67,
          "name": "G4",
          "ticks": 155240,
          "time": 202.13541666666666,
          "velocity": 0.2047244094488189
        },
        {
          "duration": 0,
          "durationTicks": 0,
          "midi": 67,
          "name": "G4",
          "ticks": 155312,
          "time": 202.22916666666666,
          "velocity": 0.2125984251968504
        },
        {
          "duration": 0.1263020833333428,
          "durationTicks": 97,
          "midi": 67,
          "name": "G4",
          "ticks": 155348,
          "time": 202.27604166666666,
          "velocity": 0.2283464566929134
        },
        {
          "duration": 0,
          "durationTicks": 0,
          "midi": 74,
          "name": "D5",
          "ticks": 155357,
          "time": 202.28776041666666,
          "velocity": 0.13385826771653545
        },
        {
          "duration": 0.1263020833333428,
          "durationTicks": 97,
          "midi": 65,
          "name": "F4",
          "ticks": 155357,
          "time": 202.28776041666666,
          "velocity": 0.16535433070866143
        },
        {
          "duration": 0.3763020833333428,
          "durationTicks": 289,
          "midi": 75,
          "name": "D#5",
          "ticks": 155393,
          "time": 202.33463541666666,
          "velocity": 0.2283464566929134
        },
        {
          "duration": 0.2513020833333428,
          "durationTicks": 193,
          "midi": 41,
          "name": "F2",
          "ticks": 155411,
          "time": 202.35807291666666,
          "velocity": 0.2992125984251969
        },
        {
          "duration": 0.2513020833333428,
          "durationTicks": 193,
          "midi": 67,
          "name": "G4",
          "ticks": 155411,
          "time": 202.35807291666666,
          "velocity": 0.2283464566929134
        },
        {
          "duration": 0.1263020833333428,
          "durationTicks": 97,
          "midi": 64,
          "name": "E4",
          "ticks": 155429,
          "time": 202.38151041666666,
          "velocity": 0.13385826771653545
        },
        {
          "duration": 0.125,
          "durationTicks": 96,
          "midi": 63,
          "name": "D#4",
          "ticks": 155528,
          "time": 202.51041666666666,
          "velocity": 0.14173228346456693
        },
        {
          "duration": 0,
          "durationTicks": 0,
          "midi": 42,
          "name": "F#2",
          "ticks": 155572,
          "time": 202.56770833333334,
          "velocity": 0.29133858267716534
        },
        {
          "duration": 0.125,
          "durationTicks": 96,
          "midi": 68,
          "name": "G#4",
          "ticks": 155599,
          "time": 202.60286458333334,
          "velocity": 0.2283464566929134
        },
        {
          "duration": 0.2513020833333428,
          "durationTicks": 193,
          "midi": 39,
          "name": "D#2",
          "ticks": 155609,
          "time": 202.61588541666666,
          "velocity": 0.29133858267716534
        },
        {
          "duration": 0.125,
          "durationTicks": 96,
          "midi": 62,
          "name": "D4",
          "ticks": 155626,
          "time": 202.63802083333334,
          "velocity": 0.12598425196850394
        },
        {
          "duration": 0.2513020833333144,
          "durationTicks": 193,
          "midi": 67,
          "name": "G4",
          "ticks": 155707,
          "time": 202.74348958333334,
          "velocity": 0.18110236220472442
        },
        {
          "duration": 0.12630208333331439,
          "durationTicks": 97,
          "midi": 61,
          "name": "C#4",
          "ticks": 155725,
          "time": 202.76692708333334,
          "velocity": 0.12598425196850394
        },
        {
          "duration": 0.2513020833333428,
          "durationTicks": 193,
          "midi": 75,
          "name": "D#5",
          "ticks": 155742,
          "time": 202.7890625,
          "velocity": 0.1732283464566929
        },
        {
          "duration": 0,
          "durationTicks": 0,
          "midi": 64,
          "name": "E4",
          "ticks": 155778,
          "time": 202.8359375,
          "velocity": 0.1732283464566929
        },
        {
          "duration": 0.25,
          "durationTicks": 192,
          "midi": 34,
          "name": "A#1",
          "ticks": 155788,
          "time": 202.84895833333334,
          "velocity": 0.29133858267716534
        },
        {
          "duration": 0.25,
          "durationTicks": 192,
          "midi": 63,
          "name": "D#4",
          "ticks": 155797,
          "time": 202.86067708333334,
          "velocity": 0.23622047244094488
        },
        {
          "duration": 0.125,
          "durationTicks": 96,
          "midi": 67,
          "name": "G4",
          "ticks": 155913,
          "time": 203.01171875,
          "velocity": 0.07874015748031496
        },
        {
          "duration": 0,
          "durationTicks": 0,
          "midi": 55,
          "name": "G3",
          "ticks": 155957,
          "time": 203.06901041666666,
          "velocity": 0.29133858267716534
        },
        {
          "duration": 0.125,
          "durationTicks": 96,
          "midi": 68,
          "name": "G#4",
          "ticks": 155975,
          "time": 203.09244791666666,
          "velocity": 0.10236220472440945
        },
        {
          "duration": 0.125,
          "durationTicks": 96,
          "midi": 60,
          "name": "C4",
          "ticks": 155984,
          "time": 203.10416666666666,
          "velocity": 0.2283464566929134
        },
        {
          "duration": 0.25,
          "durationTicks": 192,
          "midi": 27,
          "name": "D#1",
          "ticks": 155984,
          "time": 203.10416666666666,
          "velocity": 0.2992125984251969
        },
        {
          "duration": 0,
          "durationTicks": 0,
          "midi": 56,
          "name": "G#3",
          "ticks": 156002,
          "time": 203.12760416666666,
          "velocity": 0.2992125984251969
        },
        {
          "duration": 0.125,
          "durationTicks": 96,
          "midi": 75,
          "name": "D#5",
          "ticks": 156002,
          "time": 203.12760416666666,
          "velocity": 0.08661417322834646
        },
        {
          "duration": 0,
          "durationTicks": 0,
          "midi": 56,
          "name": "G#3",
          "ticks": 156046,
          "time": 203.18489583333334,
          "velocity": 0.28346456692913385
        },
        {
          "duration": 0,
          "durationTicks": 0,
          "midi": 61,
          "name": "C#4",
          "ticks": 156046,
          "time": 203.18489583333334,
          "velocity": 0.1889763779527559
        },
        {
          "duration": 0.125,
          "durationTicks": 96,
          "midi": 63,
          "name": "D#4",
          "ticks": 156064,
          "time": 203.20833333333334,
          "velocity": 0.2440944881889764
        },
        {
          "duration": 0.125,
          "durationTicks": 96,
          "midi": 58,
          "name": "A#3",
          "ticks": 156073,
          "time": 203.22005208333334,
          "velocity": 0.2283464566929134
        },
        {
          "duration": 0.125,
          "durationTicks": 96,
          "midi": 67,
          "name": "G4",
          "ticks": 156083,
          "time": 203.23307291666666,
          "velocity": 0.25984251968503935
        },
        {
          "duration": 0,
          "durationTicks": 0,
          "midi": 86,
          "name": "D6",
          "ticks": 156100,
          "time": 203.25520833333334,
          "velocity": 0.08661417322834646
        },
        {
          "duration": 0.125,
          "durationTicks": 96,
          "midi": 70,
          "name": "A#4",
          "ticks": 156145,
          "time": 203.31380208333334,
          "velocity": 0.25196850393700787
        },
        {
          "duration": 0.3763020833333428,
          "durationTicks": 289,
          "midi": 63,
          "name": "D#4",
          "ticks": 156162,
          "time": 203.3359375,
          "velocity": 0.2125984251968504
        },
        {
          "duration": 0.7513020833333144,
          "durationTicks": 577,
          "midi": 32,
          "name": "G#1",
          "ticks": 156172,
          "time": 203.34895833333334,
          "velocity": 0.28346456692913385
        },
        {
          "duration": 0,
          "durationTicks": 0,
          "midi": 56,
          "name": "G#3",
          "ticks": 156181,
          "time": 203.36067708333334,
          "velocity": 0.1732283464566929
        },
        {
          "duration": 0,
          "durationTicks": 0,
          "midi": 56,
          "name": "G#3",
          "ticks": 156270,
          "time": 203.4765625,
          "velocity": 0.1968503937007874
        },
        {
          "duration": 0.2513020833333428,
          "durationTicks": 193,
          "midi": 67,
          "name": "G4",
          "ticks": 156270,
          "time": 203.4765625,
          "velocity": 0.12598425196850394
        },
        {
          "duration": 0,
          "durationTicks": 0,
          "midi": 58,
          "name": "A#3",
          "ticks": 156297,
          "time": 203.51171875,
          "velocity": 0.15748031496062992
        },
        {
          "duration": 0.2513020833333428,
          "durationTicks": 193,
          "midi": 70,
          "name": "A#4",
          "ticks": 156324,
          "time": 203.546875,
          "velocity": 0.13385826771653545
        },
        {
          "duration": 0,
          "durationTicks": 0,
          "midi": 64,
          "name": "E4",
          "ticks": 156449,
          "time": 203.70963541666666,
          "velocity": 0.1968503937007874
        },
        {
          "duration": 0.125,
          "durationTicks": 96,
          "midi": 63,
          "name": "D#4",
          "ticks": 156468,
          "time": 203.734375,
          "velocity": 0.2125984251968504
        },
        {
          "duration": 0.24869791666668561,
          "durationTicks": 191,
          "midi": 65,
          "name": "F4",
          "ticks": 156548,
          "time": 203.83854166666666,
          "velocity": 0.2125984251968504
        },
        {
          "duration": 0.125,
          "durationTicks": 96,
          "midi": 58,
          "name": "A#3",
          "ticks": 156601,
          "time": 203.90755208333334,
          "velocity": 0.11023622047244094
        },
        {
          "duration": 0.25,
          "durationTicks": 192,
          "midi": 70,
          "name": "A#4",
          "ticks": 156673,
          "time": 204.00130208333334,
          "velocity": 0.08661417322834646
        },
        {
          "duration": 0.7513020833333428,
          "durationTicks": 577,
          "midi": 44,
          "name": "G#2",
          "ticks": 156726,
          "time": 204.0703125,
          "velocity": 0.2992125984251969
        },
        {
          "duration": 0.25,
          "durationTicks": 192,
          "midi": 60,
          "name": "C4",
          "ticks": 156744,
          "time": 204.09375,
          "velocity": 0.2125984251968504
        },
        {
          "duration": 0.125,
          "durationTicks": 96,
          "midi": 63,
          "name": "D#4",
          "ticks": 156798,
          "time": 204.1640625,
          "velocity": 0.09448818897637795
        },
        {
          "duration": 0,
          "durationTicks": 0,
          "midi": 70,
          "name": "A#4",
          "ticks": 156914,
          "time": 204.31510416666666,
          "velocity": 0.06299212598425197
        },
        {
          "duration": 0.125,
          "durationTicks": 96,
          "midi": 63,
          "name": "D#4",
          "ticks": 156931,
          "time": 204.33723958333334,
          "velocity": 0.2283464566929134
        },
        {
          "duration": 0,
          "durationTicks": 0,
          "midi": 67,
          "name": "G4",
          "ticks": 156949,
          "time": 204.36067708333334,
          "velocity": 0.08661417322834646
        },
        {
          "duration": 0.12630208333331439,
          "durationTicks": 97,
          "midi": 70,
          "name": "A#4",
          "ticks": 156994,
          "time": 204.41927083333334,
          "velocity": 0.10236220472440945
        },
        {
          "duration": 0,
          "durationTicks": 0,
          "midi": 65,
          "name": "F4",
          "ticks": 157057,
          "time": 204.50130208333334,
          "velocity": 0.07874015748031496
        },
        {
          "duration": 0.25,
          "durationTicks": 192,
          "midi": 65,
          "name": "F4",
          "ticks": 157102,
          "time": 204.55989583333334,
          "velocity": 0.2047244094488189
        },
        {
          "duration": 0,
          "durationTicks": 0,
          "midi": 60,
          "name": "C4",
          "ticks": 157129,
          "time": 204.59505208333334,
          "velocity": 0.08661417322834646
        },
        {
          "duration": 0.125,
          "durationTicks": 96,
          "midi": 60,
          "name": "C4",
          "ticks": 157245,
          "time": 204.74609375,
          "velocity": 0.08661417322834646
        },
        {
          "duration": 0,
          "durationTicks": 0,
          "midi": 70,
          "name": "A#4",
          "ticks": 157272,
          "time": 204.78125,
          "velocity": 0.07086614173228346
        },
        {
          "duration": 0.125,
          "durationTicks": 96,
          "midi": 56,
          "name": "G#3",
          "ticks": 157290,
          "time": 204.8046875,
          "velocity": 0.2440944881889764
        },
        {
          "duration": 0.25,
          "durationTicks": 192,
          "midi": 32,
          "name": "G#1",
          "ticks": 157299,
          "time": 204.81640625,
          "velocity": 0.29133858267716534
        },
        {
          "duration": 0.1263020833333428,
          "durationTicks": 97,
          "midi": 60,
          "name": "C4",
          "ticks": 157316,
          "time": 204.83854166666666,
          "velocity": 0.2283464566929134
        },
        {
          "duration": 0,
          "durationTicks": 0,
          "midi": 63,
          "name": "D#4",
          "ticks": 157343,
          "time": 204.87369791666666,
          "velocity": 0.06299212598425197
        },
        {
          "duration": 0.125,
          "durationTicks": 96,
          "midi": 63,
          "name": "D#4",
          "ticks": 157397,
          "time": 204.94401041666666,
          "velocity": 0.2283464566929134
        },
        {
          "duration": 0.125,
          "durationTicks": 96,
          "midi": 70,
          "name": "A#4",
          "ticks": 157406,
          "time": 204.95572916666666,
          "velocity": 0.06299212598425197
        },
        {
          "duration": 0,
          "durationTicks": 0,
          "midi": 56,
          "name": "G#3",
          "ticks": 157460,
          "time": 205.02604166666666,
          "velocity": 0.08661417322834646
        },
        {
          "duration": 0,
          "durationTicks": 0,
          "midi": 68,
          "name": "G#4",
          "ticks": 157478,
          "time": 205.04947916666666,
          "velocity": 0.30708661417322836
        },
        {
          "duration": 0.12630208333331439,
          "durationTicks": 97,
          "midi": 56,
          "name": "G#3",
          "ticks": 157495,
          "time": 205.07161458333334,
          "velocity": 0.14173228346456693
        },
        {
          "duration": 0.7513020833333144,
          "durationTicks": 577,
          "midi": 29,
          "name": "F1",
          "ticks": 157495,
          "time": 205.07161458333334,
          "velocity": 0.2992125984251969
        },
        {
          "duration": 0,
          "durationTicks": 0,
          "midi": 67,
          "name": "G4",
          "ticks": 157505,
          "time": 205.08463541666666,
          "velocity": 0.25984251968503935
        },
        {
          "duration": 0.2513020833333428,
          "durationTicks": 193,
          "midi": 60,
          "name": "C4",
          "ticks": 157505,
          "time": 205.08463541666666,
          "velocity": 0.12598425196850394
        },
        {
          "duration": 0,
          "durationTicks": 0,
          "midi": 68,
          "name": "G#4",
          "ticks": 157522,
          "time": 205.10677083333334,
          "velocity": 0.25984251968503935
        },
        {
          "duration": 0,
          "durationTicks": 0,
          "midi": 68,
          "name": "G#4",
          "ticks": 157549,
          "time": 205.14192708333334,
          "velocity": 0.2677165354330709
        },
        {
          "duration": 0,
          "durationTicks": 0,
          "midi": 69,
          "name": "A4",
          "ticks": 157585,
          "time": 205.18880208333334,
          "velocity": 0.2283464566929134
        },
        {
          "duration": 0.125,
          "durationTicks": 96,
          "midi": 63,
          "name": "D#4",
          "ticks": 157604,
          "time": 205.21354166666666,
          "velocity": 0.14173228346456693
        },
        {
          "duration": 0.25,
          "durationTicks": 192,
          "midi": 70,
          "name": "A#4",
          "ticks": 157604,
          "time": 205.21354166666666,
          "velocity": 0.2283464566929134
        },
        {
          "duration": 0,
          "durationTicks": 0,
          "midi": 66,
          "name": "F#4",
          "ticks": 157640,
          "time": 205.26041666666666,
          "velocity": 0.14173228346456693
        },
        {
          "duration": 0,
          "durationTicks": 0,
          "midi": 67,
          "name": "G4",
          "ticks": 157676,
          "time": 205.30729166666666,
          "velocity": 0.12598425196850394
        },
        {
          "duration": 0,
          "durationTicks": 0,
          "midi": 68,
          "name": "G#4",
          "ticks": 157747,
          "time": 205.39973958333334,
          "velocity": 0.14173228346456693
        },
        {
          "duration": 0.125,
          "durationTicks": 96,
          "midi": 56,
          "name": "G#3",
          "ticks": 157809,
          "time": 205.48046875,
          "velocity": 0.08661417322834646
        },
        {
          "duration": 0.125,
          "durationTicks": 96,
          "midi": 63,
          "name": "D#4",
          "ticks": 157827,
          "time": 205.50390625,
          "velocity": 0.05511811023622047
        },
        {
          "duration": 0.125,
          "durationTicks": 96,
          "midi": 60,
          "name": "C4",
          "ticks": 157854,
          "time": 205.5390625,
          "velocity": 0.07874015748031496
        },
        {
          "duration": 0.125,
          "durationTicks": 96,
          "midi": 68,
          "name": "G#4",
          "ticks": 157854,
          "time": 205.5390625,
          "velocity": 0.12598425196850394
        },
        {
          "duration": 0.3763020833333428,
          "durationTicks": 289,
          "midi": 72,
          "name": "C5",
          "ticks": 157854,
          "time": 205.5390625,
          "velocity": 0.1968503937007874
        },
        {
          "duration": 0.12630208333331439,
          "durationTicks": 97,
          "midi": 67,
          "name": "G4",
          "ticks": 157987,
          "time": 205.71223958333334,
          "velocity": 0.13385826771653545
        },
        {
          "duration": 0.12630208333331439,
          "durationTicks": 97,
          "midi": 70,
          "name": "A#4",
          "ticks": 157987,
          "time": 205.71223958333334,
          "velocity": 0.08661417322834646
        },
        {
          "duration": 0.5013020833333144,
          "durationTicks": 385,
          "midi": 41,
          "name": "F2",
          "ticks": 158068,
          "time": 205.81770833333334,
          "velocity": 0.2992125984251969
        },
        {
          "duration": 0.2486979166666572,
          "durationTicks": 191,
          "midi": 67,
          "name": "G4",
          "ticks": 158140,
          "time": 205.91145833333334,
          "velocity": 0.07874015748031496
        },
        {
          "duration": 1.0013020833333428,
          "durationTicks": 769,
          "midi": 75,
          "name": "D#5",
          "ticks": 158229,
          "time": 206.02734375,
          "velocity": 0.2283464566929134
        },
        {
          "duration": 0.25,
          "durationTicks": 192,
          "midi": 72,
          "name": "C5",
          "ticks": 158247,
          "time": 206.05078125,
          "velocity": 0.07086614173228346
        },
        {
          "duration": 0,
          "durationTicks": 0,
          "midi": 60,
          "name": "C4",
          "ticks": 158380,
          "time": 206.22395833333334,
          "velocity": 0.07086614173228346
        },
        {
          "duration": 0,
          "durationTicks": 0,
          "midi": 67,
          "name": "G4",
          "ticks": 158390,
          "time": 206.23697916666666,
          "velocity": 0.05511811023622047
        },
        {
          "duration": 0.5013020833333428,
          "durationTicks": 385,
          "midi": 39,
          "name": "D#2",
          "ticks": 158444,
          "time": 206.30729166666666,
          "velocity": 0.29133858267716534
        },
        {
          "duration": 0.25,
          "durationTicks": 192,
          "midi": 77,
          "name": "F5",
          "ticks": 158632,
          "time": 206.55208333333334,
          "velocity": 0.2125984251968504
        },
        {
          "duration": 0.5026041666666856,
          "durationTicks": 386,
          "midi": 29,
          "name": "F1",
          "ticks": 158819,
          "time": 206.79557291666666,
          "velocity": 0.2992125984251969
        },
        {
          "duration": 0,
          "durationTicks": 0,
          "midi": 60,
          "name": "C4",
          "ticks": 158989,
          "time": 207.01692708333334,
          "velocity": 0.2440944881889764
        },
        {
          "duration": 0.2526041666666572,
          "durationTicks": 194,
          "midi": 77,
          "name": "F5",
          "ticks": 159016,
          "time": 207.05208333333334,
          "velocity": 0.08661417322834646
        },
        {
          "duration": 0,
          "durationTicks": 0,
          "midi": 61,
          "name": "C#4",
          "ticks": 159025,
          "time": 207.06380208333334,
          "velocity": 0.2440944881889764
        },
        {
          "duration": 0,
          "durationTicks": 0,
          "midi": 61,
          "name": "C#4",
          "ticks": 159052,
          "time": 207.09895833333334,
          "velocity": 0.2677165354330709
        },
        {
          "duration": 0.12630208333331439,
          "durationTicks": 97,
          "midi": 65,
          "name": "F4",
          "ticks": 159097,
          "time": 207.15755208333334,
          "velocity": 0.2283464566929134
        },
        {
          "duration": 0,
          "durationTicks": 0,
          "midi": 61,
          "name": "C#4",
          "ticks": 159106,
          "time": 207.16927083333334,
          "velocity": 0.13385826771653545
        },
        {
          "duration": 0,
          "durationTicks": 0,
          "midi": 60,
          "name": "C4",
          "ticks": 159177,
          "time": 207.26171875,
          "velocity": 0.11023622047244094
        },
        {
          "duration": 0,
          "durationTicks": 0,
          "midi": 35,
          "name": "B1",
          "ticks": 159187,
          "time": 207.27473958333334,
          "velocity": 0.2992125984251969
        },
        {
          "duration": 0.5026041666666572,
          "durationTicks": 386,
          "midi": 68,
          "name": "G#4",
          "ticks": 159187,
          "time": 207.27473958333334,
          "velocity": 0.2440944881889764
        },
        {
          "duration": 0.75390625,
          "durationTicks": 579,
          "midi": 34,
          "name": "A#1",
          "ticks": 159205,
          "time": 207.29817708333334,
          "velocity": 0.29133858267716534
        },
        {
          "duration": 0,
          "durationTicks": 0,
          "midi": 60,
          "name": "C4",
          "ticks": 159223,
          "time": 207.32161458333334,
          "velocity": 0.13385826771653545
        },
        {
          "duration": 0,
          "durationTicks": 0,
          "midi": 61,
          "name": "C#4",
          "ticks": 159250,
          "time": 207.35677083333334,
          "velocity": 0.2047244094488189
        },
        {
          "duration": 0.25,
          "durationTicks": 192,
          "midi": 65,
          "name": "F4",
          "ticks": 159286,
          "time": 207.40364583333334,
          "velocity": 0.12598425196850394
        },
        {
          "duration": 0,
          "durationTicks": 0,
          "midi": 61,
          "name": "C#4",
          "ticks": 159295,
          "time": 207.41536458333334,
          "velocity": 0.18110236220472442
        },
        {
          "duration": 0,
          "durationTicks": 0,
          "midi": 61,
          "name": "C#4",
          "ticks": 159349,
          "time": 207.48567708333334,
          "velocity": 0.11811023622047244
        },
        {
          "duration": 0,
          "durationTicks": 0,
          "midi": 61,
          "name": "C#4",
          "ticks": 159394,
          "time": 207.54427083333334,
          "velocity": 0.06299212598425197
        },
        {
          "duration": 0.125,
          "durationTicks": 96,
          "midi": 72,
          "name": "C5",
          "ticks": 159465,
          "time": 207.63671875,
          "velocity": 0.2047244094488189
        },
        {
          "duration": 0,
          "durationTicks": 0,
          "midi": 61,
          "name": "C#4",
          "ticks": 159536,
          "time": 207.72916666666666,
          "velocity": 0.14960629921259844
        },
        {
          "duration": 0.1263020833333428,
          "durationTicks": 97,
          "midi": 73,
          "name": "C#5",
          "ticks": 159582,
          "time": 207.7890625,
          "velocity": 0.2125984251968504
        },
        {
          "duration": 0,
          "durationTicks": 0,
          "midi": 61,
          "name": "C#4",
          "ticks": 159591,
          "time": 207.80078125,
          "velocity": 0.14960629921259844
        },
        {
          "duration": 0.2513020833333428,
          "durationTicks": 193,
          "midi": 65,
          "name": "F4",
          "ticks": 159618,
          "time": 207.8359375,
          "velocity": 0.09448818897637795
        },
        {
          "duration": 1.3854166666666572,
          "durationTicks": 1064,
          "midi": 68,
          "name": "G#4",
          "ticks": 159654,
          "time": 207.8828125,
          "velocity": 0.1968503937007874
        },
        {
          "duration": 0.1263020833333428,
          "durationTicks": 97,
          "midi": 77,
          "name": "F5",
          "ticks": 159672,
          "time": 207.90625,
          "velocity": 0.2125984251968504
        },
        {
          "duration": 0.08203125,
          "durationTicks": 63,
          "midi": 60,
          "name": "C4",
          "ticks": 159743,
          "time": 207.99869791666666,
          "velocity": 0.10236220472440945
        },
        {
          "duration": 0,
          "durationTicks": 0,
          "midi": 47,
          "name": "B2",
          "ticks": 159753,
          "time": 208.01171875,
          "velocity": 0.2755905511811024
        },
        {
          "duration": 0.1263020833333428,
          "durationTicks": 97,
          "midi": 80,
          "name": "G#5",
          "ticks": 159762,
          "time": 208.0234375,
          "velocity": 0.2125984251968504
        },
        {
          "duration": 0.50390625,
          "durationTicks": 387,
          "midi": 46,
          "name": "A#2",
          "ticks": 159771,
          "time": 208.03515625,
          "velocity": 0.2755905511811024
        },
        {
          "duration": 0.04427083333334281,
          "durationTicks": 34,
          "midi": 60,
          "name": "C4",
          "ticks": 159806,
          "time": 208.08072916666666,
          "velocity": 0.14173228346456693
        },
        {
          "duration": 0.1263020833333428,
          "durationTicks": 97,
          "midi": 72,
          "name": "C5",
          "ticks": 159852,
          "time": 208.140625,
          "velocity": 0.06299212598425197
        },
        {
          "duration": 0,
          "durationTicks": 0,
          "midi": 60,
          "name": "C4",
          "ticks": 159861,
          "time": 208.15234375,
          "velocity": 0.11023622047244094
        },
        {
          "duration": 0.1263020833333428,
          "durationTicks": 97,
          "midi": 84,
          "name": "C6",
          "ticks": 159861,
          "time": 208.15234375,
          "velocity": 0.2047244094488189
        },
        {
          "duration": 0.328125,
          "durationTicks": 252,
          "midi": 60,
          "name": "C4",
          "ticks": 159897,
          "time": 208.19921875,
          "velocity": 0.14173228346456693
        },
        {
          "duration": 0.125,
          "durationTicks": 96,
          "midi": 73,
          "name": "C#5",
          "ticks": 159961,
          "time": 208.28255208333334,
          "velocity": 0.07874015748031496
        },
        {
          "duration": 0.125,
          "durationTicks": 96,
          "midi": 80,
          "name": "G#5",
          "ticks": 159961,
          "time": 208.28255208333334,
          "velocity": 0.2125984251968504
        },
        {
          "duration": 2.63671875,
          "durationTicks": 2025,
          "midi": 65,
          "name": "F4",
          "ticks": 160005,
          "time": 208.33984375,
          "velocity": 0.2283464566929134
        },
        {
          "duration": 0.5026041666666572,
          "durationTicks": 386,
          "midi": 34,
          "name": "A#1",
          "ticks": 160140,
          "time": 208.515625,
          "velocity": 0.29133858267716534
        },
        {
          "duration": 0.04947916666665719,
          "durationTicks": 38,
          "midi": 60,
          "name": "C4",
          "ticks": 160149,
          "time": 208.52734375,
          "velocity": 0.11023622047244094
        },
        {
          "duration": 0.375,
          "durationTicks": 288,
          "midi": 60,
          "name": "C4",
          "ticks": 160194,
          "time": 208.5859375,
          "velocity": 0.1968503937007874
        },
        {
          "duration": 0.125,
          "durationTicks": 96,
          "midi": 84,
          "name": "C6",
          "ticks": 160283,
          "time": 208.70182291666666,
          "velocity": 0.05511811023622047
        },
        {
          "duration": 0.125,
          "durationTicks": 96,
          "midi": 73,
          "name": "C#5",
          "ticks": 160337,
          "time": 208.77213541666666,
          "velocity": 0.2125984251968504
        },
        {
          "duration": 0.1263020833333428,
          "durationTicks": 97,
          "midi": 72,
          "name": "C5",
          "ticks": 160445,
          "time": 208.91276041666666,
          "velocity": 0.2047244094488189
        },
        {
          "duration": 0,
          "durationTicks": 0,
          "midi": 61,
          "name": "C#4",
          "ticks": 160516,
          "time": 209.00520833333334,
          "velocity": 0.2677165354330709
        },
        {
          "duration": 0.5052083333333428,
          "durationTicks": 388,
          "midi": 27,
          "name": "D#1",
          "ticks": 160535,
          "time": 209.02994791666666,
          "velocity": 0.2992125984251969
        },
        {
          "duration": 0,
          "durationTicks": 0,
          "midi": 61,
          "name": "C#4",
          "ticks": 160554,
          "time": 209.0546875,
          "velocity": 0.2440944881889764
        },
        {
          "duration": 0.1263020833333428,
          "durationTicks": 97,
          "midi": 84,
          "name": "C6",
          "ticks": 160554,
          "time": 209.0546875,
          "velocity": 0.06299212598425197
        },
        {
          "duration": 0,
          "durationTicks": 0,
          "midi": 74,
          "name": "D5",
          "ticks": 160625,
          "time": 209.14713541666666,
          "velocity": 0.1889763779527559
        },
        {
          "duration": 0.12760416666668561,
          "durationTicks": 98,
          "midi": 60,
          "name": "C4",
          "ticks": 160625,
          "time": 209.14713541666666,
          "velocity": 0.14173228346456693
        },
        {
          "duration": 0.2526041666666856,
          "durationTicks": 194,
          "midi": 87,
          "name": "D#6",
          "ticks": 160634,
          "time": 209.15885416666666,
          "velocity": 0.10236220472440945
        },
        {
          "duration": 0.37890625,
          "durationTicks": 291,
          "midi": 75,
          "name": "D#5",
          "ticks": 160644,
          "time": 209.171875,
          "velocity": 0.2125984251968504
        },
        {
          "duration": 0,
          "durationTicks": 0,
          "midi": 61,
          "name": "C#4",
          "ticks": 160707,
          "time": 209.25390625,
          "velocity": 0.1889763779527559
        },
        {
          "duration": 0.1263020833333428,
          "durationTicks": 97,
          "midi": 70,
          "name": "A#4",
          "ticks": 160707,
          "time": 209.25390625,
          "velocity": 0.25196850393700787
        },
        {
          "duration": 1.3802083333333428,
          "durationTicks": 1060,
          "midi": 61,
          "name": "C#4",
          "ticks": 160752,
          "time": 209.3125,
          "velocity": 0.2125984251968504
        },
        {
          "duration": 0,
          "durationTicks": 0,
          "midi": 68,
          "name": "G#4",
          "ticks": 160779,
          "time": 209.34765625,
          "velocity": 0.09448818897637795
        },
        {
          "duration": 0.1263020833333428,
          "durationTicks": 97,
          "midi": 72,
          "name": "C5",
          "ticks": 160824,
          "time": 209.40625,
          "velocity": 0.07086614173228346
        },
        {
          "duration": 0.1263020833333428,
          "durationTicks": 97,
          "midi": 68,
          "name": "G#4",
          "ticks": 160851,
          "time": 209.44140625,
          "velocity": 0.12598425196850394
        },
        {
          "duration": 0,
          "durationTicks": 0,
          "midi": 70,
          "name": "A#4",
          "ticks": 160887,
          "time": 209.48828125,
          "velocity": 0.06299212598425197
        },
        {
          "duration": 0,
          "durationTicks": 0,
          "midi": 40,
          "name": "E2",
          "ticks": 160896,
          "time": 209.5,
          "velocity": 0.28346456692913385
        },
        {
          "duration": 0.5013020833333428,
          "durationTicks": 385,
          "midi": 39,
          "name": "D#2",
          "ticks": 160914,
          "time": 209.5234375,
          "velocity": 0.29133858267716534
        },
        {
          "duration": 0.3763020833333428,
          "durationTicks": 289,
          "midi": 75,
          "name": "D#5",
          "ticks": 161021,
          "time": 209.66276041666666,
          "velocity": 0.07874015748031496
        },
        {
          "duration": 0.25,
          "durationTicks": 192,
          "midi": 70,
          "name": "A#4",
          "ticks": 161048,
          "time": 209.69791666666666,
          "velocity": 0.11023622047244094
        },
        {
          "duration": 0.125,
          "durationTicks": 96,
          "midi": 68,
          "name": "G#4",
          "ticks": 161164,
          "time": 209.84895833333334,
          "velocity": 0.07874015748031496
        },
        {
          "duration": 0.12630208333331439,
          "durationTicks": 97,
          "midi": 72,
          "name": "C5",
          "ticks": 161272,
          "time": 209.98958333333334,
          "velocity": 0.1968503937007874
        },
        {
          "duration": 0.2513020833333144,
          "durationTicks": 193,
          "midi": 27,
          "name": "D#1",
          "ticks": 161299,
          "time": 210.02473958333334,
          "velocity": 0.2992125984251969
        },
        {
          "duration": 0.3763020833333144,
          "durationTicks": 289,
          "midi": 70,
          "name": "A#4",
          "ticks": 161389,
          "time": 210.14192708333334,
          "velocity": 0.23622047244094488
        },
        {
          "duration": 0,
          "durationTicks": 0,
          "midi": 28,
          "name": "E1",
          "ticks": 161451,
          "time": 210.22265625,
          "velocity": 0.29133858267716534
        },
        {
          "duration": 0.125,
          "durationTicks": 96,
          "midi": 53,
          "name": "F3",
          "ticks": 161460,
          "time": 210.234375,
          "velocity": 0.29133858267716534
        },
        {
          "duration": 0,
          "durationTicks": 0,
          "midi": 68,
          "name": "G#4",
          "ticks": 161576,
          "time": 210.38541666666666,
          "velocity": 0.09448818897637795
        },
        {
          "duration": 0.1263020833333428,
          "durationTicks": 97,
          "midi": 51,
          "name": "D#3",
          "ticks": 161585,
          "time": 210.39713541666666,
          "velocity": 0.29133858267716534
        },
        {
          "duration": 0.1263020833333428,
          "durationTicks": 97,
          "midi": 72,
          "name": "C5",
          "ticks": 161666,
          "time": 210.50260416666666,
          "velocity": 0.07086614173228346
        },
        {
          "duration": 0.125,
          "durationTicks": 96,
          "midi": 68,
          "name": "G#4",
          "ticks": 161685,
          "time": 210.52734375,
          "velocity": 0.1732283464566929
        },
        {
          "duration": 0.125,
          "durationTicks": 96,
          "midi": 46,
          "name": "A#2",
          "ticks": 161712,
          "time": 210.5625,
          "velocity": 0.2755905511811024
        },
        {
          "duration": 0.375,
          "durationTicks": 288,
          "midi": 70,
          "name": "A#4",
          "ticks": 161783,
          "time": 210.65494791666666,
          "velocity": 0.12598425196850394
        },
        {
          "duration": 0.2486979166666572,
          "durationTicks": 191,
          "midi": 39,
          "name": "D#2",
          "ticks": 161854,
          "time": 210.74739583333334,
          "velocity": 0.29133858267716534
        },
        {
          "duration": 0.125,
          "durationTicks": 96,
          "midi": 61,
          "name": "C#4",
          "ticks": 161890,
          "time": 210.79427083333334,
          "velocity": 0.12598425196850394
        },
        {
          "duration": 0.125,
          "durationTicks": 96,
          "midi": 56,
          "name": "G#3",
          "ticks": 161961,
          "time": 210.88671875,
          "velocity": 0.25196850393700787
        },
        {
          "duration": 0,
          "durationTicks": 0,
          "midi": 84,
          "name": "C6",
          "ticks": 162015,
          "time": 210.95703125,
          "velocity": 0.05511811023622047
        },
        {
          "duration": 0,
          "durationTicks": 0,
          "midi": 60,
          "name": "C4",
          "ticks": 162032,
          "time": 210.97916666666666,
          "velocity": 0.23622047244094488
        },
        {
          "duration": 0,
          "durationTicks": 0,
          "midi": 38,
          "name": "D2",
          "ticks": 162050,
          "time": 211.00260416666666,
          "velocity": 0.29133858267716534
        },
        {
          "duration": 0.1263020833333428,
          "durationTicks": 97,
          "midi": 82,
          "name": "A#5",
          "ticks": 162059,
          "time": 211.01432291666666,
          "velocity": 0.11023622047244094
        },
        {
          "duration": 0.1263020833333428,
          "durationTicks": 97,
          "midi": 63,
          "name": "D#4",
          "ticks": 162059,
          "time": 211.01432291666666,
          "velocity": 0.2283464566929134
        },
        {
          "duration": 0,
          "durationTicks": 0,
          "midi": 60,
          "name": "C4",
          "ticks": 162078,
          "time": 211.0390625,
          "velocity": 0.2125984251968504
        },
        {
          "duration": 0,
          "durationTicks": 0,
          "midi": 32,
          "name": "G#1",
          "ticks": 162114,
          "time": 211.0859375,
          "velocity": 0.29133858267716534
        },
        {
          "duration": 0,
          "durationTicks": 0,
          "midi": 31,
          "name": "G1",
          "ticks": 162132,
          "time": 211.109375,
          "velocity": 0.29133858267716534
        },
        {
          "duration": 0,
          "durationTicks": 0,
          "midi": 68,
          "name": "G#4",
          "ticks": 162132,
          "time": 211.109375,
          "velocity": 0.2125984251968504
        },
        {
          "duration": 0.125,
          "durationTicks": 96,
          "midi": 56,
          "name": "G#3",
          "ticks": 162132,
          "time": 211.109375,
          "velocity": 0.14960629921259844
        },
        {
          "duration": 0.125,
          "durationTicks": 96,
          "midi": 67,
          "name": "G4",
          "ticks": 162159,
          "time": 211.14453125,
          "velocity": 0.1968503937007874
        },
        {
          "duration": 0,
          "durationTicks": 0,
          "midi": 27,
          "name": "D#1",
          "ticks": 162176,
          "time": 211.16666666666666,
          "velocity": 0.29133858267716534
        },
        {
          "duration": 0.1263020833333428,
          "durationTicks": 97,
          "midi": 70,
          "name": "A#4",
          "ticks": 162221,
          "time": 211.22526041666666,
          "velocity": 0.2440944881889764
        },
        {
          "duration": 0.1263020833333428,
          "durationTicks": 97,
          "midi": 60,
          "name": "C4",
          "ticks": 162230,
          "time": 211.23697916666666,
          "velocity": 0.16535433070866143
        },
        {
          "duration": 0.3776041666666856,
          "durationTicks": 290,
          "midi": 68,
          "name": "G#4",
          "ticks": 162230,
          "time": 211.23697916666666,
          "velocity": 0.2204724409448819
        },
        {
          "duration": 0,
          "durationTicks": 0,
          "midi": 65,
          "name": "F4",
          "ticks": 162239,
          "time": 211.24869791666666,
          "velocity": 0.08661417322834646
        },
        {
          "duration": 0.50390625,
          "durationTicks": 387,
          "midi": 32,
          "name": "G#1",
          "ticks": 162239,
          "time": 211.24869791666666,
          "velocity": 0.28346456692913385
        },
        {
          "duration": 0.1263020833333428,
          "durationTicks": 97,
          "midi": 63,
          "name": "D#4",
          "ticks": 162266,
          "time": 211.28385416666666,
          "velocity": 0.13385826771653545
        },
        {
          "duration": 0.10546875,
          "durationTicks": 81,
          "midi": 60,
          "name": "C4",
          "ticks": 162320,
          "time": 211.35416666666666,
          "velocity": 0.15748031496062992
        },
        {
          "duration": 0.01953125,
          "durationTicks": 15,
          "midi": 60,
          "name": "C4",
          "ticks": 162401,
          "time": 211.45963541666666,
          "velocity": 0.12598425196850394
        },
        {
          "duration": 0,
          "durationTicks": 0,
          "midi": 64,
          "name": "E4",
          "ticks": 162418,
          "time": 211.48177083333334,
          "velocity": 0.08661417322834646
        },
        {
          "duration": 0.12630208333331439,
          "durationTicks": 97,
          "midi": 70,
          "name": "A#4",
          "ticks": 162418,
          "time": 211.48177083333334,
          "velocity": 0.13385826771653545
        },
        {
          "duration": 0,
          "durationTicks": 0,
          "midi": 63,
          "name": "D#4",
          "ticks": 162472,
          "time": 211.55208333333334,
          "velocity": 0.05511811023622047
        },
        {
          "duration": 0,
          "durationTicks": 0,
          "midi": 60,
          "name": "C4",
          "ticks": 162482,
          "time": 211.56510416666666,
          "velocity": 0.14173228346456693
        },
        {
          "duration": 0.1263020833333428,
          "durationTicks": 97,
          "midi": 68,
          "name": "G#4",
          "ticks": 162527,
          "time": 211.62369791666666,
          "velocity": 0.23622047244094488
        },
        {
          "duration": 0,
          "durationTicks": 0,
          "midi": 70,
          "name": "A#4",
          "ticks": 162554,
          "time": 211.65885416666666,
          "velocity": 0.07874015748031496
        },
        {
          "duration": 0,
          "durationTicks": 0,
          "midi": 60,
          "name": "C4",
          "ticks": 162590,
          "time": 211.70572916666666,
          "velocity": 0.1732283464566929
        },
        {
          "duration": 0,
          "durationTicks": 0,
          "midi": 66,
          "name": "F#4",
          "ticks": 162608,
          "time": 211.72916666666666,
          "velocity": 0.1732283464566929
        },
        {
          "duration": 0.24869791666668561,
          "durationTicks": 191,
          "midi": 65,
          "name": "F4",
          "ticks": 162617,
          "time": 211.74088541666666,
          "velocity": 0.1968503937007874
        },
        {
          "duration": 0,
          "durationTicks": 0,
          "midi": 68,
          "name": "G#4",
          "ticks": 162653,
          "time": 211.78776041666666,
          "velocity": 0.11811023622047244
        },
        {
          "duration": 0.12369791666668561,
          "durationTicks": 95,
          "midi": 60,
          "name": "C4",
          "ticks": 162671,
          "time": 211.81119791666666,
          "velocity": 0.14960629921259844
        },
        {
          "duration": 0.08072916666668561,
          "durationTicks": 62,
          "midi": 68,
          "name": "G#4",
          "ticks": 162689,
          "time": 211.83463541666666,
          "velocity": 0.11023622047244094
        },
        {
          "duration": 0.04296875,
          "durationTicks": 33,
          "midi": 68,
          "name": "G#4",
          "ticks": 162751,
          "time": 211.91536458333334,
          "velocity": 0.14173228346456693
        },
        {
          "duration": 0.125,
          "durationTicks": 96,
          "midi": 70,
          "name": "A#4",
          "ticks": 162751,
          "time": 211.91536458333334,
          "velocity": 0.08661417322834646
        },
        {
          "duration": 0.125,
          "durationTicks": 96,
          "midi": 60,
          "name": "C4",
          "ticks": 162768,
          "time": 211.9375,
          "velocity": 0.14960629921259844
        },
        {
          "duration": 0.5026041666666572,
          "durationTicks": 386,
          "midi": 44,
          "name": "G#2",
          "ticks": 162786,
          "time": 211.9609375,
          "velocity": 0.2992125984251969
        },
        {
          "duration": 0,
          "durationTicks": 0,
          "midi": 64,
          "name": "E4",
          "ticks": 162803,
          "time": 211.98307291666666,
          "velocity": 0.2047244094488189
        },
        {
          "duration": 0.125,
          "durationTicks": 96,
          "midi": 75,
          "name": "D#5",
          "ticks": 162813,
          "time": 211.99609375,
          "velocity": 0.06299212598425197
        },
        {
          "duration": 0.125,
          "durationTicks": 96,
          "midi": 63,
          "name": "D#4",
          "ticks": 162822,
          "time": 212.0078125,
          "velocity": 0.2047244094488189
        },
        {
          "duration": 0.08072916666665719,
          "durationTicks": 62,
          "midi": 68,
          "name": "G#4",
          "ticks": 162849,
          "time": 212.04296875,
          "velocity": 0.11023622047244094
        },
        {
          "duration": 0,
          "durationTicks": 0,
          "midi": 60,
          "name": "C4",
          "ticks": 162884,
          "time": 212.08854166666666,
          "velocity": 0.1968503937007874
        },
        {
          "duration": 0,
          "durationTicks": 0,
          "midi": 60,
          "name": "C4",
          "ticks": 162911,
          "time": 212.12369791666666,
          "velocity": 0.1732283464566929
        },
        {
          "duration": 0.04427083333334281,
          "durationTicks": 34,
          "midi": 68,
          "name": "G#4",
          "ticks": 162911,
          "time": 212.12369791666666,
          "velocity": 0.1732283464566929
        },
        {
          "duration": 0,
          "durationTicks": 0,
          "midi": 67,
          "name": "G4",
          "ticks": 162957,
          "time": 212.18359375,
          "velocity": 0.11023622047244094
        },
        {
          "duration": 0.10546875,
          "durationTicks": 81,
          "midi": 60,
          "name": "C4",
          "ticks": 162966,
          "time": 212.1953125,
          "velocity": 0.2677165354330709
        },
        {
          "duration": 0,
          "durationTicks": 0,
          "midi": 65,
          "name": "F4",
          "ticks": 163002,
          "time": 212.2421875,
          "velocity": 0.06299212598425197
        },
        {
          "duration": 0.125,
          "durationTicks": 96,
          "midi": 67,
          "name": "G4",
          "ticks": 163029,
          "time": 212.27734375,
          "velocity": 0.14173228346456693
        },
        {
          "duration": 0.01953125,
          "durationTicks": 15,
          "midi": 60,
          "name": "C4",
          "ticks": 163047,
          "time": 212.30078125,
          "velocity": 0.2677165354330709
        },
        {
          "duration": 0,
          "durationTicks": 0,
          "midi": 60,
          "name": "C4",
          "ticks": 163074,
          "time": 212.3359375,
          "velocity": 0.2755905511811024
        },
        {
          "duration": 0,
          "durationTicks": 0,
          "midi": 70,
          "name": "A#4",
          "ticks": 163074,
          "time": 212.3359375,
          "velocity": 0.05511811023622047
        },
        {
          "duration": 0,
          "durationTicks": 0,
          "midi": 65,
          "name": "F4",
          "ticks": 163091,
          "time": 212.35807291666666,
          "velocity": 0.08661417322834646
        },
        {
          "duration": 0,
          "durationTicks": 0,
          "midi": 60,
          "name": "C4",
          "ticks": 163100,
          "time": 212.36979166666666,
          "velocity": 0.2755905511811024
        },
        {
          "duration": 0,
          "durationTicks": 0,
          "midi": 60,
          "name": "C4",
          "ticks": 163127,
          "time": 212.40494791666666,
          "velocity": 0.28346456692913385
        },
        {
          "duration": 0,
          "durationTicks": 0,
          "midi": 72,
          "name": "C5",
          "ticks": 163145,
          "time": 212.42838541666666,
          "velocity": 0.05511811023622047
        },
        {
          "duration": 0.5026041666666856,
          "durationTicks": 386,
          "midi": 67,
          "name": "G4",
          "ticks": 163145,
          "time": 212.42838541666666,
          "velocity": 0.2204724409448819
        },
        {
          "duration": 0,
          "durationTicks": 0,
          "midi": 60,
          "name": "C4",
          "ticks": 163154,
          "time": 212.44010416666666,
          "velocity": 0.29133858267716534
        },
        {
          "duration": 0.50390625,
          "durationTicks": 387,
          "midi": 32,
          "name": "G#1",
          "ticks": 163189,
          "time": 212.48567708333334,
          "velocity": 0.29133858267716534
        },
        {
          "duration": 0.2513020833333428,
          "durationTicks": 193,
          "midi": 58,
          "name": "A#3",
          "ticks": 163199,
          "time": 212.49869791666666,
          "velocity": 0.2755905511811024
        },
        {
          "duration": 0.125,
          "durationTicks": 96,
          "midi": 53,
          "name": "F3",
          "ticks": 163279,
          "time": 212.60286458333334,
          "velocity": 0.2440944881889764
        },
        {
          "duration": 0,
          "durationTicks": 0,
          "midi": 57,
          "name": "A3",
          "ticks": 163368,
          "time": 212.71875,
          "velocity": 0.28346456692913385
        },
        {
          "duration": 0.2526041666666572,
          "durationTicks": 194,
          "midi": 72,
          "name": "C5",
          "ticks": 163378,
          "time": 212.73177083333334,
          "velocity": 0.09448818897637795
        },
        {
          "duration": 0,
          "durationTicks": 0,
          "midi": 56,
          "name": "G#3",
          "ticks": 163387,
          "time": 212.74348958333334,
          "velocity": 0.23622047244094488
        },
        {
          "duration": 0.2513020833333144,
          "durationTicks": 193,
          "midi": 60,
          "name": "C4",
          "ticks": 163396,
          "time": 212.75520833333334,
          "velocity": 0.29133858267716534
        },
        {
          "duration": 0,
          "durationTicks": 0,
          "midi": 63,
          "name": "D#4",
          "ticks": 163477,
          "time": 212.86067708333334,
          "velocity": 0.2440944881889764
        },
        {
          "duration": 0,
          "durationTicks": 0,
          "midi": 53,
          "name": "F3",
          "ticks": 163513,
          "time": 212.90755208333334,
          "velocity": 0.16535433070866143
        },
        {
          "duration": 0,
          "durationTicks": 0,
          "midi": 58,
          "name": "A#3",
          "ticks": 163567,
          "time": 212.97786458333334,
          "velocity": 0.2047244094488189
        },
        {
          "duration": 0.12630208333331439,
          "durationTicks": 97,
          "midi": 67,
          "name": "G4",
          "ticks": 163567,
          "time": 212.97786458333334,
          "velocity": 0.2047244094488189
        },
        {
          "duration": 0.12630208333331439,
          "durationTicks": 97,
          "midi": 29,
          "name": "F1",
          "ticks": 163567,
          "time": 212.97786458333334,
          "velocity": 0.2992125984251969
        },
        {
          "duration": 0,
          "durationTicks": 0,
          "midi": 86,
          "name": "D6",
          "ticks": 163576,
          "time": 212.98958333333334,
          "velocity": 0.07086614173228346
        },
        {
          "duration": 0.3776041666666572,
          "durationTicks": 290,
          "midi": 63,
          "name": "D#4",
          "ticks": 163576,
          "time": 212.98958333333334,
          "velocity": 0.25984251968503935
        },
        {
          "duration": 0,
          "durationTicks": 0,
          "midi": 58,
          "name": "A#3",
          "ticks": 163621,
          "time": 213.04817708333334,
          "velocity": 0.28346456692913385
        },
        {
          "duration": 0,
          "durationTicks": 0,
          "midi": 60,
          "name": "C4",
          "ticks": 163657,
          "time": 213.09505208333334,
          "velocity": 0.2283464566929134
        },
        {
          "duration": 0,
          "durationTicks": 0,
          "midi": 29,
          "name": "F1",
          "ticks": 163666,
          "time": 213.10677083333334,
          "velocity": 0.2992125984251969
        },
        {
          "duration": 0.12630208333331439,
          "durationTicks": 97,
          "midi": 67,
          "name": "G4",
          "ticks": 163666,
          "time": 213.10677083333334,
          "velocity": 0.08661417322834646
        },
        {
          "duration": 0,
          "durationTicks": 0,
          "midi": 58,
          "name": "A#3",
          "ticks": 163676,
          "time": 213.11979166666666,
          "velocity": 0.2283464566929134
        },
        {
          "duration": 0,
          "durationTicks": 0,
          "midi": 29,
          "name": "F1",
          "ticks": 163703,
          "time": 213.15494791666666,
          "velocity": 0.2992125984251969
        },
        {
          "duration": 0,
          "durationTicks": 0,
          "midi": 58,
          "name": "A#3",
          "ticks": 163730,
          "time": 213.19010416666666,
          "velocity": 0.2204724409448819
        },
        {
          "duration": 0,
          "durationTicks": 0,
          "midi": 30,
          "name": "F#1",
          "ticks": 163747,
          "time": 213.21223958333334,
          "velocity": 0.31496062992125984
        },
        {
          "duration": 0,
          "durationTicks": 0,
          "midi": 58,
          "name": "A#3",
          "ticks": 163756,
          "time": 213.22395833333334,
          "velocity": 0.14173228346456693
        },
        {
          "duration": 0,
          "durationTicks": 0,
          "midi": 67,
          "name": "G4",
          "ticks": 163775,
          "time": 213.24869791666666,
          "velocity": 0.12598425196850394
        },
        {
          "duration": 0,
          "durationTicks": 0,
          "midi": 30,
          "name": "F#1",
          "ticks": 163784,
          "time": 213.26041666666666,
          "velocity": 0.31496062992125984
        },
        {
          "duration": 0,
          "durationTicks": 0,
          "midi": 30,
          "name": "F#1",
          "ticks": 163820,
          "time": 213.30729166666666,
          "velocity": 0.31496062992125984
        },
        {
          "duration": 0,
          "durationTicks": 0,
          "midi": 58,
          "name": "A#3",
          "ticks": 163820,
          "time": 213.30729166666666,
          "velocity": 0.14960629921259844
        },
        {
          "duration": 0,
          "durationTicks": 0,
          "midi": 30,
          "name": "F#1",
          "ticks": 163882,
          "time": 213.38802083333334,
          "velocity": 0.31496062992125984
        },
        {
          "duration": 0,
          "durationTicks": 0,
          "midi": 67,
          "name": "G4",
          "ticks": 163882,
          "time": 213.38802083333334,
          "velocity": 0.08661417322834646
        },
        {
          "duration": 0,
          "durationTicks": 0,
          "midi": 60,
          "name": "C4",
          "ticks": 163899,
          "time": 213.41015625,
          "velocity": 0.11023622047244094
        },
        {
          "duration": 0,
          "durationTicks": 0,
          "midi": 30,
          "name": "F#1",
          "ticks": 163917,
          "time": 213.43359375,
          "velocity": 0.31496062992125984
        },
        {
          "duration": 0.125,
          "durationTicks": 96,
          "midi": 65,
          "name": "F4",
          "ticks": 163935,
          "time": 213.45703125,
          "velocity": 0.2204724409448819
        },
        {
          "duration": 0,
          "durationTicks": 0,
          "midi": 60,
          "name": "C4",
          "ticks": 163944,
          "time": 213.46875,
          "velocity": 0.1732283464566929
        },
        {
          "duration": 0,
          "durationTicks": 0,
          "midi": 30,
          "name": "F#1",
          "ticks": 163980,
          "time": 213.515625,
          "velocity": 0.31496062992125984
        },
        {
          "duration": 0,
          "durationTicks": 0,
          "midi": 29,
          "name": "F1",
          "ticks": 163998,
          "time": 213.5390625,
          "velocity": 0.2992125984251969
        },
        {
          "duration": 0,
          "durationTicks": 0,
          "midi": 56,
          "name": "G#3",
          "ticks": 163998,
          "time": 213.5390625,
          "velocity": 0.14960629921259844
        },
        {
          "duration": 0,
          "durationTicks": 0,
          "midi": 30,
          "name": "F#1",
          "ticks": 164015,
          "time": 213.56119791666666,
          "velocity": 0.31496062992125984
        },
        {
          "duration": 0.125,
          "durationTicks": 96,
          "midi": 65,
          "name": "F4",
          "ticks": 164042,
          "time": 213.59635416666666,
          "velocity": 0.2204724409448819
        },
        {
          "duration": 0,
          "durationTicks": 0,
          "midi": 55,
          "name": "G3",
          "ticks": 164069,
          "time": 213.63151041666666,
          "velocity": 0.14960629921259844
        },
        {
          "duration": 0,
          "durationTicks": 0,
          "midi": 30,
          "name": "F#1",
          "ticks": 164078,
          "time": 213.64322916666666,
          "velocity": 0.31496062992125984
        },
        {
          "duration": 0,
          "durationTicks": 0,
          "midi": 29,
          "name": "F1",
          "ticks": 164096,
          "time": 213.66666666666666,
          "velocity": 0.2992125984251969
        },
        {
          "duration": 0,
          "durationTicks": 0,
          "midi": 30,
          "name": "F#1",
          "ticks": 164114,
          "time": 213.69010416666666,
          "velocity": 0.31496062992125984
        },
        {
          "duration": 0,
          "durationTicks": 0,
          "midi": 67,
          "name": "G4",
          "ticks": 164131,
          "time": 213.71223958333334,
          "velocity": 0.08661417322834646
        },
        {
          "duration": 0.125,
          "durationTicks": 96,
          "midi": 63,
          "name": "D#4",
          "ticks": 164131,
          "time": 213.71223958333334,
          "velocity": 0.05511811023622047
        },
        {
          "duration": 0,
          "durationTicks": 0,
          "midi": 55,
          "name": "G3",
          "ticks": 164176,
          "time": 213.77083333333334,
          "velocity": 0.1732283464566929
        },
        {
          "duration": 0,
          "durationTicks": 0,
          "midi": 29,
          "name": "F1",
          "ticks": 164193,
          "time": 213.79296875,
          "velocity": 0.29133858267716534
        },
        {
          "duration": 0,
          "durationTicks": 0,
          "midi": 56,
          "name": "G#3",
          "ticks": 164193,
          "time": 213.79296875,
          "velocity": 0.1732283464566929
        },
        {
          "duration": 0,
          "durationTicks": 0,
          "midi": 30,
          "name": "F#1",
          "ticks": 164211,
          "time": 213.81640625,
          "velocity": 0.31496062992125984
        },
        {
          "duration": 0.1263020833333428,
          "durationTicks": 97,
          "midi": 55,
          "name": "G3",
          "ticks": 164211,
          "time": 213.81640625,
          "velocity": 0.18110236220472442
        },
        {
          "duration": 0.2526041666666572,
          "durationTicks": 194,
          "midi": 63,
          "name": "D#4",
          "ticks": 164220,
          "time": 213.828125,
          "velocity": 0.14960629921259844
        },
        {
          "duration": 0,
          "durationTicks": 0,
          "midi": 28,
          "name": "E1",
          "ticks": 164230,
          "time": 213.84114583333334,
          "velocity": 0.30708661417322836
        },
        {
          "duration": 0,
          "durationTicks": 0,
          "midi": 25,
          "name": "C#1",
          "ticks": 164256,
          "time": 213.875,
          "velocity": 0.29133858267716534
        },
        {
          "duration": 0.08203125,
          "durationTicks": 63,
          "midi": 55,
          "name": "G3",
          "ticks": 164283,
          "time": 213.91015625,
          "velocity": 0.1732283464566929
        },
        {
          "duration": 0,
          "durationTicks": 0,
          "midi": 34,
          "name": "A#1",
          "ticks": 164293,
          "time": 213.92317708333334,
          "velocity": 0.29133858267716534
        },
        {
          "duration": 0,
          "durationTicks": 0,
          "midi": 33,
          "name": "A1",
          "ticks": 164310,
          "time": 213.9453125,
          "velocity": 0.29133858267716534
        },
        {
          "duration": 0,
          "durationTicks": 0,
          "midi": 31,
          "name": "G1",
          "ticks": 164337,
          "time": 213.98046875,
          "velocity": 0.2992125984251969
        },
        {
          "duration": 0.04427083333334281,
          "durationTicks": 34,
          "midi": 55,
          "name": "G3",
          "ticks": 164346,
          "time": 213.9921875,
          "velocity": 0.14960629921259844
        },
        {
          "duration": 0,
          "durationTicks": 0,
          "midi": 28,
          "name": "E1",
          "ticks": 164373,
          "time": 214.02734375,
          "velocity": 0.2992125984251969
        },
        {
          "duration": 0,
          "durationTicks": 0,
          "midi": 55,
          "name": "G3",
          "ticks": 164392,
          "time": 214.05208333333334,
          "velocity": 0.1889763779527559
        },
        {
          "duration": 0,
          "durationTicks": 0,
          "midi": 25,
          "name": "C#1",
          "ticks": 164419,
          "time": 214.08723958333334,
          "velocity": 0.30708661417322836
        },
        {
          "duration": 0,
          "durationTicks": 0,
          "midi": 67,
          "name": "G4",
          "ticks": 164436,
          "time": 214.109375,
          "velocity": 0.11811023622047244
        },
        {
          "duration": 0,
          "durationTicks": 0,
          "midi": 65,
          "name": "F4",
          "ticks": 164463,
          "time": 214.14453125,
          "velocity": 0.08661417322834646
        },
        {
          "duration": 0.7513020833333428,
          "durationTicks": 577,
          "midi": 63,
          "name": "D#4",
          "ticks": 164499,
          "time": 214.19140625,
          "velocity": 0.16535433070866143
        },
        {
          "duration": 0.125,
          "durationTicks": 96,
          "midi": 67,
          "name": "G4",
          "ticks": 164525,
          "time": 214.22526041666666,
          "velocity": 0.14173228346456693
        },
        {
          "duration": 0,
          "durationTicks": 0,
          "midi": 56,
          "name": "G#3",
          "ticks": 164561,
          "time": 214.27213541666666,
          "velocity": 0.16535433070866143
        },
        {
          "duration": 0,
          "durationTicks": 0,
          "midi": 80,
          "name": "G#5",
          "ticks": 164605,
          "time": 214.32942708333334,
          "velocity": 0.10236220472440945
        },
        {
          "duration": 0,
          "durationTicks": 0,
          "midi": 37,
          "name": "C#2",
          "ticks": 164615,
          "time": 214.34244791666666,
          "velocity": 0.05511811023622047
        },
        {
          "duration": 0,
          "durationTicks": 0,
          "midi": 79,
          "name": "G5",
          "ticks": 164624,
          "time": 214.35416666666666,
          "velocity": 0.06299212598425197
        },
        {
          "duration": 0,
          "durationTicks": 0,
          "midi": 56,
          "name": "G#3",
          "ticks": 164624,
          "time": 214.35416666666666,
          "velocity": 0.14960629921259844
        },
        {
          "duration": 0.6263020833333428,
          "durationTicks": 481,
          "midi": 60,
          "name": "C4",
          "ticks": 164624,
          "time": 214.35416666666666,
          "velocity": 0.14173228346456693
        },
        {
          "duration": 0.12369791666668561,
          "durationTicks": 95,
          "midi": 37,
          "name": "C#2",
          "ticks": 164651,
          "time": 214.38932291666666,
          "velocity": 0.06299212598425197
        },
        {
          "duration": 0.12369791666665719,
          "durationTicks": 95,
          "midi": 67,
          "name": "G4",
          "ticks": 164668,
          "time": 214.41145833333334,
          "velocity": 0.11023622047244094
        },
        {
          "duration": 0,
          "durationTicks": 0,
          "midi": 73,
          "name": "C#5",
          "ticks": 164686,
          "time": 214.43489583333334,
          "velocity": 0.09448818897637795
        },
        {
          "duration": 0.12369791666665719,
          "durationTicks": 95,
          "midi": 56,
          "name": "G#3",
          "ticks": 164686,
          "time": 214.43489583333334,
          "velocity": 0.16535433070866143
        },
        {
          "duration": 0,
          "durationTicks": 0,
          "midi": 81,
          "name": "A5",
          "ticks": 164748,
          "time": 214.515625,
          "velocity": 0.11023622047244094
        },
        {
          "duration": 0.125,
          "durationTicks": 96,
          "midi": 56,
          "name": "G#3",
          "ticks": 164748,
          "time": 214.515625,
          "velocity": 0.14960629921259844
        },
        {
          "duration": 0,
          "durationTicks": 0,
          "midi": 77,
          "name": "F5",
          "ticks": 164766,
          "time": 214.5390625,
          "velocity": 0.13385826771653545
        },
        {
          "duration": 0.25,
          "durationTicks": 192,
          "midi": 67,
          "name": "G4",
          "ticks": 164766,
          "time": 214.5390625,
          "velocity": 0.1732283464566929
        },
        {
          "duration": 0,
          "durationTicks": 0,
          "midi": 82,
          "name": "A#5",
          "ticks": 164793,
          "time": 214.57421875,
          "velocity": 0.14173228346456693
        },
        {
          "duration": 0.125,
          "durationTicks": 96,
          "midi": 56,
          "name": "G#3",
          "ticks": 164810,
          "time": 214.59635416666666,
          "velocity": 0.14173228346456693
        },
        {
          "duration": 0,
          "durationTicks": 0,
          "midi": 82,
          "name": "A#5",
          "ticks": 164837,
          "time": 214.63151041666666,
          "velocity": 0.15748031496062992
        },
        {
          "duration": 0.08072916666668561,
          "durationTicks": 62,
          "midi": 56,
          "name": "G#3",
          "ticks": 164873,
          "time": 214.67838541666666,
          "velocity": 0.16535433070866143
        },
        {
          "duration": 0,
          "durationTicks": 0,
          "midi": 83,
          "name": "B5",
          "ticks": 164891,
          "time": 214.70182291666666,
          "velocity": 0.14173228346456693
        },
        {
          "duration": 0,
          "durationTicks": 0,
          "midi": 83,
          "name": "B5",
          "ticks": 164935,
          "time": 214.75911458333334,
          "velocity": 0.15748031496062992
        },
        {
          "duration": 0.044270833333314386,
          "durationTicks": 34,
          "midi": 56,
          "name": "G#3",
          "ticks": 164935,
          "time": 214.75911458333334,
          "velocity": 0.16535433070866143
        },
        {
          "duration": 0,
          "durationTicks": 0,
          "midi": 79,
          "name": "G5",
          "ticks": 164953,
          "time": 214.78255208333334,
          "velocity": 0.1732283464566929
        },
        {
          "duration": 0,
          "durationTicks": 0,
          "midi": 76,
          "name": "E5",
          "ticks": 164972,
          "time": 214.80729166666666,
          "velocity": 0.15748031496062992
        },
        {
          "duration": 0,
          "durationTicks": 0,
          "midi": 84,
          "name": "C6",
          "ticks": 164989,
          "time": 214.82942708333334,
          "velocity": 0.1732283464566929
        },
        {
          "duration": 0,
          "durationTicks": 0,
          "midi": 82,
          "name": "A#5",
          "ticks": 164989,
          "time": 214.82942708333334,
          "velocity": 0.08661417322834646
        },
        {
          "duration": 0.2526041666666572,
          "durationTicks": 194,
          "midi": 67,
          "name": "G4",
          "ticks": 164989,
          "time": 214.82942708333334,
          "velocity": 0.2204724409448819
        },
        {
          "duration": 0,
          "durationTicks": 0,
          "midi": 55,
          "name": "G3",
          "ticks": 165007,
          "time": 214.85286458333334,
          "velocity": 0.2677165354330709
        },
        {
          "duration": 0,
          "durationTicks": 0,
          "midi": 80,
          "name": "G#5",
          "ticks": 165007,
          "time": 214.85286458333334,
          "velocity": 0.18110236220472442
        },
        {
          "duration": 0,
          "durationTicks": 0,
          "midi": 84,
          "name": "C6",
          "ticks": 165024,
          "time": 214.875,
          "velocity": 0.18110236220472442
        },
        {
          "duration": 0,
          "durationTicks": 0,
          "midi": 55,
          "name": "G3",
          "ticks": 165034,
          "time": 214.88802083333334,
          "velocity": 0.2440944881889764
        },
        {
          "duration": 0,
          "durationTicks": 0,
          "midi": 80,
          "name": "G#5",
          "ticks": 165043,
          "time": 214.89973958333334,
          "velocity": 0.1889763779527559
        },
        {
          "duration": 0,
          "durationTicks": 0,
          "midi": 54,
          "name": "F#3",
          "ticks": 165052,
          "time": 214.91145833333334,
          "velocity": 0.2125984251968504
        },
        {
          "duration": 0.1263020833333428,
          "durationTicks": 97,
          "midi": 77,
          "name": "F5",
          "ticks": 165062,
          "time": 214.92447916666666,
          "velocity": 0.2204724409448819
        },
        {
          "duration": 0,
          "durationTicks": 0,
          "midi": 55,
          "name": "G3",
          "ticks": 165071,
          "time": 214.93619791666666,
          "velocity": 0.2204724409448819
        },
        {
          "duration": 0,
          "durationTicks": 0,
          "midi": 85,
          "name": "C#6",
          "ticks": 165080,
          "time": 214.94791666666666,
          "velocity": 0.1889763779527559
        },
        {
          "duration": 0,
          "durationTicks": 0,
          "midi": 81,
          "name": "A5",
          "ticks": 165098,
          "time": 214.97135416666666,
          "velocity": 0.1732283464566929
        },
        {
          "duration": 0,
          "durationTicks": 0,
          "midi": 61,
          "name": "C#4",
          "ticks": 165107,
          "time": 214.98307291666666,
          "velocity": 0.2677165354330709
        },
        {
          "duration": 0,
          "durationTicks": 0,
          "midi": 85,
          "name": "C#6",
          "ticks": 165125,
          "time": 215.00651041666666,
          "velocity": 0.1889763779527559
        },
        {
          "duration": 0,
          "durationTicks": 0,
          "midi": 56,
          "name": "G#3",
          "ticks": 165142,
          "time": 215.02864583333334,
          "velocity": 0.2047244094488189
        },
        {
          "duration": 0,
          "durationTicks": 0,
          "midi": 61,
          "name": "C#4",
          "ticks": 165142,
          "time": 215.02864583333334,
          "velocity": 0.25984251968503935
        },
        {
          "duration": 0,
          "durationTicks": 0,
          "midi": 81,
          "name": "A5",
          "ticks": 165152,
          "time": 215.04166666666666,
          "velocity": 0.1968503937007874
        },
        {
          "duration": 0,
          "durationTicks": 0,
          "midi": 78,
          "name": "F#5",
          "ticks": 165161,
          "time": 215.05338541666666,
          "velocity": 0.1968503937007874
        },
        {
          "duration": 0,
          "durationTicks": 0,
          "midi": 75,
          "name": "D#5",
          "ticks": 165161,
          "time": 215.05338541666666,
          "velocity": 0.05511811023622047
        },
        {
          "duration": 0,
          "durationTicks": 0,
          "midi": 56,
          "name": "G#3",
          "ticks": 165170,
          "time": 215.06510416666666,
          "velocity": 0.1732283464566929
        },
        {
          "duration": 0,
          "durationTicks": 0,
          "midi": 60,
          "name": "C4",
          "ticks": 165170,
          "time": 215.06510416666666,
          "velocity": 0.16535433070866143
        },
        {
          "duration": 0,
          "durationTicks": 0,
          "midi": 86,
          "name": "D6",
          "ticks": 165170,
          "time": 215.06510416666666,
          "velocity": 0.1968503937007874
        },
        {
          "duration": 0.08333333333334281,
          "durationTicks": 64,
          "midi": 65,
          "name": "F4",
          "ticks": 165188,
          "time": 215.08854166666666,
          "velocity": 0.2440944881889764
        },
        {
          "duration": 0.12760416666668561,
          "durationTicks": 98,
          "midi": 82,
          "name": "A#5",
          "ticks": 165188,
          "time": 215.08854166666666,
          "velocity": 0.2283464566929134
        },
        {
          "duration": 0,
          "durationTicks": 0,
          "midi": 61,
          "name": "C#4",
          "ticks": 165197,
          "time": 215.10026041666666,
          "velocity": 0.2047244094488189
        },
        {
          "duration": 0,
          "durationTicks": 0,
          "midi": 78,
          "name": "F#5",
          "ticks": 165206,
          "time": 215.11197916666666,
          "velocity": 0.2047244094488189
        },
        {
          "duration": 0,
          "durationTicks": 0,
          "midi": 60,
          "name": "C4",
          "ticks": 165216,
          "time": 215.125,
          "velocity": 0.1968503937007874
        },
        {
          "duration": 0,
          "durationTicks": 0,
          "midi": 86,
          "name": "D6",
          "ticks": 165225,
          "time": 215.13671875,
          "velocity": 0.2125984251968504
        },
        {
          "duration": 0,
          "durationTicks": 0,
          "midi": 79,
          "name": "G5",
          "ticks": 165225,
          "time": 215.13671875,
          "velocity": 0.13385826771653545
        },
        {
          "duration": 0,
          "durationTicks": 0,
          "midi": 55,
          "name": "G3",
          "ticks": 165234,
          "time": 215.1484375,
          "velocity": 0.1968503937007874
        },
        {
          "duration": 0.04427083333334281,
          "durationTicks": 34,
          "midi": 65,
          "name": "F4",
          "ticks": 165252,
          "time": 215.171875,
          "velocity": 0.2283464566929134
        },
        {
          "duration": 0.1263020833333428,
          "durationTicks": 97,
          "midi": 58,
          "name": "A#3",
          "ticks": 165252,
          "time": 215.171875,
          "velocity": 0.16535433070866143
        },
        {
          "duration": 0,
          "durationTicks": 0,
          "midi": 54,
          "name": "F#3",
          "ticks": 165261,
          "time": 215.18359375,
          "velocity": 0.09448818897637795
        },
        {
          "duration": 0.1263020833333428,
          "durationTicks": 97,
          "midi": 89,
          "name": "F6",
          "ticks": 165261,
          "time": 215.18359375,
          "velocity": 0.1732283464566929
        },
        {
          "duration": 0.5052083333333144,
          "durationTicks": 388,
          "midi": 68,
          "name": "G#4",
          "ticks": 165271,
          "time": 215.19661458333334,
          "velocity": 0.23622047244094488
        },
        {
          "duration": 0.7578125,
          "durationTicks": 582,
          "midi": 27,
          "name": "D#1",
          "ticks": 165271,
          "time": 215.19661458333334,
          "velocity": 0.2992125984251969
        },
        {
          "duration": 0,
          "durationTicks": 0,
          "midi": 79,
          "name": "G5",
          "ticks": 165288,
          "time": 215.21875,
          "velocity": 0.10236220472440945
        },
        {
          "duration": 0.125,
          "durationTicks": 96,
          "midi": 61,
          "name": "C#4",
          "ticks": 165324,
          "time": 215.265625,
          "velocity": 0.14173228346456693
        },
        {
          "duration": 0.125,
          "durationTicks": 96,
          "midi": 65,
          "name": "F4",
          "ticks": 165351,
          "time": 215.30078125,
          "velocity": 0.09448818897637795
        },
        {
          "duration": 0.125,
          "durationTicks": 96,
          "midi": 85,
          "name": "C#6",
          "ticks": 165351,
          "time": 215.30078125,
          "velocity": 0.1732283464566929
        },
        {
          "duration": 0,
          "durationTicks": 0,
          "midi": 77,
          "name": "F5",
          "ticks": 165450,
          "time": 215.4296875,
          "velocity": 0.11023622047244094
        },
        {
          "duration": 0.1276041666666572,
          "durationTicks": 98,
          "midi": 73,
          "name": "C#5",
          "ticks": 165450,
          "time": 215.4296875,
          "velocity": 0.05511811023622047
        },
        {
          "duration": 0.1276041666666572,
          "durationTicks": 98,
          "midi": 82,
          "name": "A#5",
          "ticks": 165450,
          "time": 215.4296875,
          "velocity": 0.1732283464566929
        },
        {
          "duration": 0,
          "durationTicks": 0,
          "midi": 77,
          "name": "F5",
          "ticks": 165486,
          "time": 215.4765625,
          "velocity": 0.14173228346456693
        },
        {
          "duration": 0.1263020833333428,
          "durationTicks": 97,
          "midi": 54,
          "name": "F#3",
          "ticks": 165522,
          "time": 215.5234375,
          "velocity": 0.08661417322834646
        },
        {
          "duration": 0.1263020833333428,
          "durationTicks": 97,
          "midi": 65,
          "name": "F4",
          "ticks": 165531,
          "time": 215.53515625,
          "velocity": 0.06299212598425197
        },
        {
          "duration": 0.25390625,
          "durationTicks": 195,
          "midi": 61,
          "name": "C#4",
          "ticks": 165531,
          "time": 215.53515625,
          "velocity": 0.11811023622047244
        },
        {
          "duration": 0.12630208333331439,
          "durationTicks": 97,
          "midi": 78,
          "name": "F#5",
          "ticks": 165541,
          "time": 215.54817708333334,
          "velocity": 0.2283464566929134
        },
        {
          "duration": 0,
          "durationTicks": 0,
          "midi": 86,
          "name": "D6",
          "ticks": 165559,
          "time": 215.57161458333334,
          "velocity": 0.10236220472440945
        },
        {
          "duration": 0,
          "durationTicks": 0,
          "midi": 82,
          "name": "A#5",
          "ticks": 165621,
          "time": 215.65234375,
          "velocity": 0.12598425196850394
        },
        {
          "duration": 0.1276041666666572,
          "durationTicks": 98,
          "midi": 77,
          "name": "F5",
          "ticks": 165640,
          "time": 215.67708333333334,
          "velocity": 0.14960629921259844
        },
        {
          "duration": 0,
          "durationTicks": 0,
          "midi": 85,
          "name": "C#6",
          "ticks": 165649,
          "time": 215.68880208333334,
          "velocity": 0.08661417322834646
        },
        {
          "duration": 0.1276041666666572,
          "durationTicks": 98,
          "midi": 73,
          "name": "C#5",
          "ticks": 165649,
          "time": 215.68880208333334,
          "velocity": 0.11811023622047244
        },
        {
          "duration": 0.1263020833333428,
          "durationTicks": 97,
          "midi": 85,
          "name": "C#6",
          "ticks": 165695,
          "time": 215.74869791666666,
          "velocity": 0.08661417322834646
        },
        {
          "duration": 0,
          "durationTicks": 0,
          "midi": 80,
          "name": "G#5",
          "ticks": 165704,
          "time": 215.76041666666666,
          "velocity": 0.07874015748031496
        },
        {
          "duration": 0.1263020833333428,
          "durationTicks": 97,
          "midi": 65,
          "name": "F4",
          "ticks": 165740,
          "time": 215.80729166666666,
          "velocity": 0.07086614173228346
        },
        {
          "duration": 0,
          "durationTicks": 0,
          "midi": 92,
          "name": "G#6",
          "ticks": 165750,
          "time": 215.8203125,
          "velocity": 0.12598425196850394
        },
        {
          "duration": 0.25,
          "durationTicks": 192,
          "midi": 73,
          "name": "C#5",
          "ticks": 165750,
          "time": 215.8203125,
          "velocity": 0.1732283464566929
        },
        {
          "duration": 0,
          "durationTicks": 0,
          "midi": 80,
          "name": "G#5",
          "ticks": 165767,
          "time": 215.84244791666666,
          "velocity": 0.10236220472440945
        },
        {
          "duration": 0,
          "durationTicks": 0,
          "midi": 80,
          "name": "G#5",
          "ticks": 165821,
          "time": 215.91276041666666,
          "velocity": 0.10236220472440945
        },
        {
          "duration": 0.125,
          "durationTicks": 96,
          "midi": 77,
          "name": "F5",
          "ticks": 165830,
          "time": 215.92447916666666,
          "velocity": 0.1732283464566929
        },
        {
          "duration": 0,
          "durationTicks": 0,
          "midi": 54,
          "name": "F#3",
          "ticks": 165840,
          "time": 215.9375,
          "velocity": 0.06299212598425197
        },
        {
          "duration": 0.30859375,
          "durationTicks": 237,
          "midi": 85,
          "name": "C#6",
          "ticks": 165840,
          "time": 215.9375,
          "velocity": 0.12598425196850394
        },
        {
          "duration": 0.3776041666666572,
          "durationTicks": 290,
          "midi": 58,
          "name": "A#3",
          "ticks": 165840,
          "time": 215.9375,
          "velocity": 0.12598425196850394
        },
        {
          "duration": 0.7578125,
          "durationTicks": 582,
          "midi": 39,
          "name": "D#2",
          "ticks": 165840,
          "time": 215.9375,
          "velocity": 0.29133858267716534
        },
        {
          "duration": 0.3203125,
          "durationTicks": 246,
          "midi": 85,
          "name": "C#6",
          "ticks": 165884,
          "time": 215.99479166666666,
          "velocity": 0.1732283464566929
        },
        {
          "duration": 0.2513020833333428,
          "durationTicks": 193,
          "midi": 77,
          "name": "F5",
          "ticks": 165902,
          "time": 216.01822916666666,
          "velocity": 0.13385826771653545
        },
        {
          "duration": 0,
          "durationTicks": 0,
          "midi": 68,
          "name": "G#4",
          "ticks": 165919,
          "time": 216.04036458333334,
          "velocity": 0.05511811023622047
        },
        {
          "duration": 0,
          "durationTicks": 0,
          "midi": 65,
          "name": "F4",
          "ticks": 165946,
          "time": 216.07552083333334,
          "velocity": 0.05511811023622047
        },
        {
          "duration": 0.5078125,
          "durationTicks": 390,
          "midi": 61,
          "name": "C#4",
          "ticks": 165964,
          "time": 216.09895833333334,
          "velocity": 0.1732283464566929
        },
        {
          "duration": 0.25390625,
          "durationTicks": 195,
          "midi": 73,
          "name": "C#5",
          "ticks": 165973,
          "time": 216.11067708333334,
          "velocity": 0.25196850393700787
        },
        {
          "duration": 0,
          "durationTicks": 0,
          "midi": 80,
          "name": "G#5",
          "ticks": 166009,
          "time": 216.15755208333334,
          "velocity": 0.08661417322834646
        },
        {
          "duration": 0.12630208333331439,
          "durationTicks": 97,
          "midi": 82,
          "name": "A#5",
          "ticks": 166009,
          "time": 216.15755208333334,
          "velocity": 0.14173228346456693
        },
        {
          "duration": 0.1263020833333428,
          "durationTicks": 97,
          "midi": 70,
          "name": "A#4",
          "ticks": 166019,
          "time": 216.17057291666666,
          "velocity": 0.1732283464566929
        },
        {
          "duration": 0,
          "durationTicks": 0,
          "midi": 84,
          "name": "C6",
          "ticks": 166036,
          "time": 216.19270833333334,
          "velocity": 0.08661417322834646
        },
        {
          "duration": 0.1276041666666572,
          "durationTicks": 98,
          "midi": 65,
          "name": "F4",
          "ticks": 166036,
          "time": 216.19270833333334,
          "velocity": 0.07086614173228346
        },
        {
          "duration": 0,
          "durationTicks": 0,
          "midi": 92,
          "name": "G#6",
          "ticks": 166072,
          "time": 216.23958333333334,
          "velocity": 0.07874015748031496
        },
        {
          "duration": 0,
          "durationTicks": 0,
          "midi": 68,
          "name": "G#4",
          "ticks": 166082,
          "time": 216.25260416666666,
          "velocity": 0.11023622047244094
        },
        {
          "duration": 0.12760416666668561,
          "durationTicks": 98,
          "midi": 78,
          "name": "F#5",
          "ticks": 166118,
          "time": 216.29947916666666,
          "velocity": 0.14173228346456693
        },
        {
          "duration": 0.12760416666668561,
          "durationTicks": 98,
          "midi": 66,
          "name": "F#4",
          "ticks": 166127,
          "time": 216.31119791666666,
          "velocity": 0.18110236220472442
        },
        {
          "duration": 0.6315104166666856,
          "durationTicks": 485,
          "midi": 85,
          "name": "C#6",
          "ticks": 166127,
          "time": 216.31119791666666,
          "velocity": 0.15748031496062992
        },
        {
          "duration": 0.1276041666666572,
          "durationTicks": 98,
          "midi": 92,
          "name": "G#6",
          "ticks": 166173,
          "time": 216.37109375,
          "velocity": 0.08661417322834646
        },
        {
          "duration": 0.1276041666666572,
          "durationTicks": 98,
          "midi": 68,
          "name": "G#4",
          "ticks": 166200,
          "time": 216.40625,
          "velocity": 0.13385826771653545
        },
        {
          "duration": 0.62890625,
          "durationTicks": 483,
          "midi": 77,
          "name": "F5",
          "ticks": 166209,
          "time": 216.41796875,
          "velocity": 0.2283464566929134
        },
        {
          "duration": 0.37890625,
          "durationTicks": 291,
          "midi": 65,
          "name": "F4",
          "ticks": 166218,
          "time": 216.4296875,
          "velocity": 0.1732283464566929
        },
        {
          "duration": 0.12630208333331439,
          "durationTicks": 97,
          "midi": 80,
          "name": "G#5",
          "ticks": 166237,
          "time": 216.45442708333334,
          "velocity": 0.14173228346456693
        },
        {
          "duration": 0.12630208333331439,
          "durationTicks": 97,
          "midi": 92,
          "name": "G#6",
          "ticks": 166309,
          "time": 216.54817708333334,
          "velocity": 0.14173228346456693
        },
        {
          "duration": 0.12630208333331439,
          "durationTicks": 97,
          "midi": 68,
          "name": "G#4",
          "ticks": 166390,
          "time": 216.65364583333334,
          "velocity": 0.08661417322834646
        },
        {
          "duration": 0,
          "durationTicks": 0,
          "midi": 60,
          "name": "C4",
          "ticks": 166399,
          "time": 216.66536458333334,
          "velocity": 0.08661417322834646
        },
        {
          "duration": 1.0065104166666572,
          "durationTicks": 773,
          "midi": 27,
          "name": "D#1",
          "ticks": 166426,
          "time": 216.70052083333334,
          "velocity": 0.2992125984251969
        },
        {
          "duration": 0.25,
          "durationTicks": 192,
          "midi": 73,
          "name": "C#5",
          "ticks": 166436,
          "time": 216.71354166666666,
          "velocity": 0.1732283464566929
        },
        {
          "duration": 0.5026041666666572,
          "durationTicks": 386,
          "midi": 61,
          "name": "C#4",
          "ticks": 166462,
          "time": 216.74739583333334,
          "velocity": 0.11023622047244094
        },
        {
          "duration": 0.2486979166666572,
          "durationTicks": 191,
          "midi": 68,
          "name": "G#4",
          "ticks": 166489,
          "time": 216.78255208333334,
          "velocity": 0.15748031496062992
        },
        {
          "duration": 0.125,
          "durationTicks": 96,
          "midi": 65,
          "name": "F4",
          "ticks": 166552,
          "time": 216.86458333333334,
          "velocity": 0.07086614173228346
        },
        {
          "duration": 0.125,
          "durationTicks": 96,
          "midi": 70,
          "name": "A#4",
          "ticks": 166596,
          "time": 216.921875,
          "velocity": 0.14173228346456693
        },
        {
          "duration": 0,
          "durationTicks": 0,
          "midi": 92,
          "name": "G#6",
          "ticks": 166605,
          "time": 216.93359375,
          "velocity": 0.07874015748031496
        },
        {
          "duration": 0.1263020833333428,
          "durationTicks": 97,
          "midi": 85,
          "name": "C#6",
          "ticks": 166641,
          "time": 216.98046875,
          "velocity": 0.06299212598425197
        },
        {
          "duration": 0.1263020833333428,
          "durationTicks": 97,
          "midi": 85,
          "name": "C#6",
          "ticks": 166650,
          "time": 216.9921875,
          "velocity": 0.15748031496062992
        },
        {
          "duration": 0,
          "durationTicks": 0,
          "midi": 87,
          "name": "D#6",
          "ticks": 166667,
          "time": 217.01432291666666,
          "velocity": 0.08661417322834646
        },
        {
          "duration": 0.12760416666668561,
          "durationTicks": 98,
          "midi": 78,
          "name": "F#5",
          "ticks": 166685,
          "time": 217.03776041666666,
          "velocity": 0.16535433070866143
        },
        {
          "duration": 0.1276041666666572,
          "durationTicks": 98,
          "midi": 66,
          "name": "F#4",
          "ticks": 166704,
          "time": 217.0625,
          "velocity": 0.14960629921259844
        },
        {
          "duration": 0.2526041666666572,
          "durationTicks": 194,
          "midi": 85,
          "name": "C#6",
          "ticks": 166749,
          "time": 217.12109375,
          "velocity": 0.14173228346456693
        },
        {
          "duration": 0,
          "durationTicks": 0,
          "midi": 80,
          "name": "G#5",
          "ticks": 166758,
          "time": 217.1328125,
          "velocity": 0.05511811023622047
        },
        {
          "duration": 0.1263020833333428,
          "durationTicks": 97,
          "midi": 77,
          "name": "F5",
          "ticks": 166758,
          "time": 217.1328125,
          "velocity": 0.16535433070866143
        },
        {
          "duration": 0.5026041666666572,
          "durationTicks": 386,
          "midi": 73,
          "name": "C#5",
          "ticks": 166758,
          "time": 217.1328125,
          "velocity": 0.23622047244094488
        },
        {
          "duration": 0.2513020833333428,
          "durationTicks": 193,
          "midi": 68,
          "name": "G#4",
          "ticks": 166785,
          "time": 217.16796875,
          "velocity": 0.14173228346456693
        },
        {
          "duration": 0.12630208333331439,
          "durationTicks": 97,
          "midi": 65,
          "name": "F4",
          "ticks": 166795,
          "time": 217.18098958333334,
          "velocity": 0.14173228346456693
        },
        {
          "duration": 0.125,
          "durationTicks": 96,
          "midi": 61,
          "name": "C#4",
          "ticks": 166867,
          "time": 217.27473958333334,
          "velocity": 0.1968503937007874
        },
        {
          "duration": 0,
          "durationTicks": 0,
          "midi": 92,
          "name": "G#6",
          "ticks": 166894,
          "time": 217.30989583333334,
          "velocity": 0.05511811023622047
        },
        {
          "duration": 0,
          "durationTicks": 0,
          "midi": 92,
          "name": "G#6",
          "ticks": 166939,
          "time": 217.36848958333334,
          "velocity": 0.07874015748031496
        },
        {
          "duration": 0.1263020833333428,
          "durationTicks": 97,
          "midi": 89,
          "name": "F6",
          "ticks": 166983,
          "time": 217.42578125,
          "velocity": 0.07874015748031496
        },
        {
          "duration": 0,
          "durationTicks": 0,
          "midi": 87,
          "name": "D#6",
          "ticks": 166992,
          "time": 217.4375,
          "velocity": 0.08661417322834646
        },
        {
          "duration": 0,
          "durationTicks": 0,
          "midi": 77,
          "name": "F5",
          "ticks": 167002,
          "time": 217.45052083333334,
          "velocity": 0.07086614173228346
        },
        {
          "duration": 0.125,
          "durationTicks": 96,
          "midi": 68,
          "name": "G#4",
          "ticks": 167002,
          "time": 217.45052083333334,
          "velocity": 0.12598425196850394
        },
        {
          "duration": 0.6276041666666572,
          "durationTicks": 482,
          "midi": 85,
          "name": "C#6",
          "ticks": 167002,
          "time": 217.45052083333334,
          "velocity": 0.16535433070866143
        },
        {
          "duration": 0.87890625,
          "durationTicks": 675,
          "midi": 77,
          "name": "F5",
          "ticks": 167082,
          "time": 217.5546875,
          "velocity": 0.1968503937007874
        },
        {
          "duration": 0,
          "durationTicks": 0,
          "midi": 74,
          "name": "D5",
          "ticks": 167127,
          "time": 217.61328125,
          "velocity": 0.08661417322834646
        },
        {
          "duration": 0.1263020833333428,
          "durationTicks": 97,
          "midi": 73,
          "name": "C#5",
          "ticks": 167154,
          "time": 217.6484375,
          "velocity": 0.14960629921259844
        },
        {
          "duration": 0.1263020833333428,
          "durationTicks": 97,
          "midi": 82,
          "name": "A#5",
          "ticks": 167154,
          "time": 217.6484375,
          "velocity": 0.08661417322834646
        },
        {
          "duration": 0,
          "durationTicks": 0,
          "midi": 29,
          "name": "F1",
          "ticks": 167163,
          "time": 217.66015625,
          "velocity": 0.2992125984251969
        },
        {
          "duration": 0,
          "durationTicks": 0,
          "midi": 68,
          "name": "G#4",
          "ticks": 167163,
          "time": 217.66015625,
          "velocity": 0.08661417322834646
        },
        {
          "duration": 0.125,
          "durationTicks": 96,
          "midi": 70,
          "name": "A#4",
          "ticks": 167172,
          "time": 217.671875,
          "velocity": 0.11023622047244094
        },
        {
          "duration": 0.5026041666666572,
          "durationTicks": 386,
          "midi": 27,
          "name": "D#1",
          "ticks": 167190,
          "time": 217.6953125,
          "velocity": 0.2992125984251969
        },
        {
          "duration": 0.375,
          "durationTicks": 288,
          "midi": 68,
          "name": "G#4",
          "ticks": 167235,
          "time": 217.75390625,
          "velocity": 0.13385826771653545
        },
        {
          "duration": 0.125,
          "durationTicks": 96,
          "midi": 73,
          "name": "C#5",
          "ticks": 167253,
          "time": 217.77734375,
          "velocity": 0.13385826771653545
        },
        {
          "duration": 0.125,
          "durationTicks": 96,
          "midi": 78,
          "name": "F#5",
          "ticks": 167280,
          "time": 217.8125,
          "velocity": 0.07874015748031496
        },
        {
          "duration": 0.6276041666666572,
          "durationTicks": 482,
          "midi": 73,
          "name": "C#5",
          "ticks": 167325,
          "time": 217.87109375,
          "velocity": 0.1968503937007874
        },
        {
          "duration": 0.125,
          "durationTicks": 96,
          "midi": 65,
          "name": "F4",
          "ticks": 167361,
          "time": 217.91796875,
          "velocity": 0.14173228346456693
        },
        {
          "duration": 0.125,
          "durationTicks": 96,
          "midi": 61,
          "name": "C#4",
          "ticks": 167459,
          "time": 218.04557291666666,
          "velocity": 0.10236220472440945
        },
        {
          "duration": 0.3763020833333428,
          "durationTicks": 289,
          "midi": 85,
          "name": "C#6",
          "ticks": 167468,
          "time": 218.05729166666666,
          "velocity": 0.14173228346456693
        },
        {
          "duration": 0.5026041666666856,
          "durationTicks": 386,
          "midi": 39,
          "name": "D#2",
          "ticks": 167567,
          "time": 218.18619791666666,
          "velocity": 0.29133858267716534
        },
        {
          "duration": 0.11588541666668561,
          "durationTicks": 89,
          "midi": 68,
          "name": "G#4",
          "ticks": 167576,
          "time": 218.19791666666666,
          "velocity": 0.13385826771653545
        },
        {
          "duration": 0.009114583333314386,
          "durationTicks": 7,
          "midi": 68,
          "name": "G#4",
          "ticks": 167665,
          "time": 218.31380208333334,
          "velocity": 0.08661417322834646
        },
        {
          "duration": 0,
          "durationTicks": 0,
          "midi": 80,
          "name": "G#5",
          "ticks": 167701,
          "time": 218.36067708333334,
          "velocity": 0.11023622047244094
        },
        {
          "duration": 0.125,
          "durationTicks": 96,
          "midi": 77,
          "name": "F5",
          "ticks": 167737,
          "time": 218.40755208333334,
          "velocity": 0.12598425196850394
        },
        {
          "duration": 0.125,
          "durationTicks": 96,
          "midi": 70,
          "name": "A#4",
          "ticks": 167755,
          "time": 218.43098958333334,
          "velocity": 0.08661417322834646
        },
        {
          "duration": 0.125,
          "durationTicks": 96,
          "midi": 68,
          "name": "G#4",
          "ticks": 167755,
          "time": 218.43098958333334,
          "velocity": 0.1732283464566929
        },
        {
          "duration": 0.125,
          "durationTicks": 96,
          "midi": 84,
          "name": "C6",
          "ticks": 167764,
          "time": 218.44270833333334,
          "velocity": 0.11023622047244094
        },
        {
          "duration": 0,
          "durationTicks": 0,
          "midi": 79,
          "name": "G5",
          "ticks": 167800,
          "time": 218.48958333333334,
          "velocity": 0.10236220472440945
        },
        {
          "duration": 0.10546875,
          "durationTicks": 81,
          "midi": 73,
          "name": "C#5",
          "ticks": 167809,
          "time": 218.50130208333334,
          "velocity": 0.10236220472440945
        },
        {
          "duration": 0,
          "durationTicks": 0,
          "midi": 66,
          "name": "F#4",
          "ticks": 167836,
          "time": 218.53645833333334,
          "velocity": 0.14173228346456693
        },
        {
          "duration": 0.125,
          "durationTicks": 96,
          "midi": 77,
          "name": "F5",
          "ticks": 167872,
          "time": 218.58333333333334,
          "velocity": 0.14173228346456693
        },
        {
          "duration": 0.01953125,
          "durationTicks": 15,
          "midi": 73,
          "name": "C#5",
          "ticks": 167890,
          "time": 218.60677083333334,
          "velocity": 0.11023622047244094
        },
        {
          "duration": 0,
          "durationTicks": 0,
          "midi": 66,
          "name": "F#4",
          "ticks": 167890,
          "time": 218.60677083333334,
          "velocity": 0.14960629921259844
        },
        {
          "duration": 0.2526041666666572,
          "durationTicks": 194,
          "midi": 95,
          "name": "B6",
          "ticks": 167907,
          "time": 218.62890625,
          "velocity": 0.09448818897637795
        },
        {
          "duration": 0.5065104166666572,
          "durationTicks": 389,
          "midi": 68,
          "name": "G#4",
          "ticks": 167907,
          "time": 218.62890625,
          "velocity": 0.12598425196850394
        },
        {
          "duration": 0,
          "durationTicks": 0,
          "midi": 73,
          "name": "C#5",
          "ticks": 167925,
          "time": 218.65234375,
          "velocity": 0.14173228346456693
        },
        {
          "duration": 0,
          "durationTicks": 0,
          "midi": 65,
          "name": "F4",
          "ticks": 167934,
          "time": 218.6640625,
          "velocity": 0.15748031496062992
        },
        {
          "duration": 0.5065104166666572,
          "durationTicks": 389,
          "midi": 29,
          "name": "F1",
          "ticks": 167943,
          "time": 218.67578125,
          "velocity": 0.2992125984251969
        },
        {
          "duration": 0.12630208333331439,
          "durationTicks": 97,
          "midi": 73,
          "name": "C#5",
          "ticks": 167980,
          "time": 218.72395833333334,
          "velocity": 0.18110236220472442
        },
        {
          "duration": 0,
          "durationTicks": 0,
          "midi": 77,
          "name": "F5",
          "ticks": 167989,
          "time": 218.73567708333334,
          "velocity": 0.13385826771653545
        },
        {
          "duration": 0.125,
          "durationTicks": 96,
          "midi": 77,
          "name": "F5",
          "ticks": 168025,
          "time": 218.78255208333334,
          "velocity": 0.15748031496062992
        },
        {
          "duration": 0.125,
          "durationTicks": 96,
          "midi": 54,
          "name": "F#3",
          "ticks": 168034,
          "time": 218.79427083333334,
          "velocity": 0.23622047244094488
        },
        {
          "duration": 0.125,
          "durationTicks": 96,
          "midi": 61,
          "name": "C#4",
          "ticks": 168034,
          "time": 218.79427083333334,
          "velocity": 0.12598425196850394
        },
        {
          "duration": 0.12630208333331439,
          "durationTicks": 97,
          "midi": 94,
          "name": "A#6",
          "ticks": 168070,
          "time": 218.84114583333334,
          "velocity": 0.07874015748031496
        },
        {
          "duration": 0,
          "durationTicks": 0,
          "midi": 59,
          "name": "B3",
          "ticks": 168123,
          "time": 218.91015625,
          "velocity": 0.25196850393700787
        },
        {
          "duration": 0,
          "durationTicks": 0,
          "midi": 75,
          "name": "D#5",
          "ticks": 168133,
          "time": 218.92317708333334,
          "velocity": 0.11811023622047244
        },
        {
          "duration": 0.1276041666666572,
          "durationTicks": 98,
          "midi": 48,
          "name": "C3",
          "ticks": 168142,
          "time": 218.93489583333334,
          "velocity": 0.05511811023622047
        },
        {
          "duration": 0,
          "durationTicks": 0,
          "midi": 76,
          "name": "E5",
          "ticks": 168160,
          "time": 218.95833333333334,
          "velocity": 0.10236220472440945
        },
        {
          "duration": 0,
          "durationTicks": 0,
          "midi": 75,
          "name": "D#5",
          "ticks": 168178,
          "time": 218.98177083333334,
          "velocity": 0.11811023622047244
        },
        {
          "duration": 0.1276041666666572,
          "durationTicks": 98,
          "midi": 72,
          "name": "C5",
          "ticks": 168178,
          "time": 218.98177083333334,
          "velocity": 0.1732283464566929
        },
        {
          "duration": 0,
          "durationTicks": 0,
          "midi": 61,
          "name": "C#4",
          "ticks": 168188,
          "time": 218.99479166666666,
          "velocity": 0.2283464566929134
        },
        {
          "duration": 0.3776041666666856,
          "durationTicks": 290,
          "midi": 76,
          "name": "E5",
          "ticks": 168197,
          "time": 219.00651041666666,
          "velocity": 0.2125984251968504
        },
        {
          "duration": 0.2526041666666572,
          "durationTicks": 194,
          "midi": 93,
          "name": "A6",
          "ticks": 168214,
          "time": 219.02864583333334,
          "velocity": 0.10236220472440945
        },
        {
          "duration": 0.2526041666666856,
          "durationTicks": 194,
          "midi": 54,
          "name": "F#3",
          "ticks": 168224,
          "time": 219.04166666666666,
          "velocity": 0.14173228346456693
        },
        {
          "duration": 0,
          "durationTicks": 0,
          "midi": 61,
          "name": "C#4",
          "ticks": 168233,
          "time": 219.05338541666666,
          "velocity": 0.11023622047244094
        },
        {
          "duration": 0.1263020833333428,
          "durationTicks": 97,
          "midi": 64,
          "name": "E4",
          "ticks": 168233,
          "time": 219.05338541666666,
          "velocity": 0.25196850393700787
        },
        {
          "duration": 0,
          "durationTicks": 0,
          "midi": 73,
          "name": "C#5",
          "ticks": 168242,
          "time": 219.06510416666666,
          "velocity": 0.14173228346456693
        },
        {
          "duration": 0,
          "durationTicks": 0,
          "midi": 74,
          "name": "D5",
          "ticks": 168269,
          "time": 219.10026041666666,
          "velocity": 0.10236220472440945
        },
        {
          "duration": 0.2213541666666572,
          "durationTicks": 170,
          "midi": 68,
          "name": "G#4",
          "ticks": 168279,
          "time": 219.11328125,
          "velocity": 0.2755905511811024
        },
        {
          "duration": 0,
          "durationTicks": 0,
          "midi": 59,
          "name": "B3",
          "ticks": 168305,
          "time": 219.14713541666666,
          "velocity": 0.14173228346456693
        },
        {
          "duration": 0,
          "durationTicks": 0,
          "midi": 87,
          "name": "D#6",
          "ticks": 168323,
          "time": 219.17057291666666,
          "velocity": 0.06299212598425197
        },
        {
          "duration": 0.75390625,
          "durationTicks": 579,
          "midi": 30,
          "name": "F#1",
          "ticks": 168332,
          "time": 219.18229166666666,
          "velocity": 0.2992125984251969
        },
        {
          "duration": 0.1263020833333428,
          "durationTicks": 97,
          "midi": 71,
          "name": "B4",
          "ticks": 168350,
          "time": 219.20572916666666,
          "velocity": 0.1732283464566929
        },
        {
          "duration": 0,
          "durationTicks": 0,
          "midi": 73,
          "name": "C#5",
          "ticks": 168368,
          "time": 219.22916666666666,
          "velocity": 0.14173228346456693
        },
        {
          "duration": 0,
          "durationTicks": 0,
          "midi": 60,
          "name": "C4",
          "ticks": 168404,
          "time": 219.27604166666666,
          "velocity": 0.2125984251968504
        },
        {
          "duration": 0.125,
          "durationTicks": 96,
          "midi": 64,
          "name": "E4",
          "ticks": 168413,
          "time": 219.28776041666666,
          "velocity": 0.14173228346456693
        },
        {
          "duration": 0.125,
          "durationTicks": 96,
          "midi": 92,
          "name": "G#6",
          "ticks": 168440,
          "time": 219.32291666666666,
          "velocity": 0.08661417322834646
        },
        {
          "duration": 0.029947916666685614,
          "durationTicks": 23,
          "midi": 68,
          "name": "G#4",
          "ticks": 168449,
          "time": 219.33463541666666,
          "velocity": 0.14173228346456693
        },
        {
          "duration": 0.125,
          "durationTicks": 96,
          "midi": 71,
          "name": "B4",
          "ticks": 168485,
          "time": 219.38151041666666,
          "velocity": 0.16535433070866143
        },
        {
          "duration": 0.125,
          "durationTicks": 96,
          "midi": 73,
          "name": "C#5",
          "ticks": 168494,
          "time": 219.39322916666666,
          "velocity": 0.1732283464566929
        },
        {
          "duration": 0.25,
          "durationTicks": 192,
          "midi": 68,
          "name": "G#4",
          "ticks": 168494,
          "time": 219.39322916666666,
          "velocity": 0.2440944881889764
        },
        {
          "duration": 0.6302083333333144,
          "durationTicks": 484,
          "midi": 76,
          "name": "E5",
          "ticks": 168511,
          "time": 219.41536458333334,
          "velocity": 0.15748031496062992
        },
        {
          "duration": 0.12630208333331439,
          "durationTicks": 97,
          "midi": 91,
          "name": "G6",
          "ticks": 168529,
          "time": 219.43880208333334,
          "velocity": 0.06299212598425197
        },
        {
          "duration": 0,
          "durationTicks": 0,
          "midi": 54,
          "name": "F#3",
          "ticks": 168565,
          "time": 219.48567708333334,
          "velocity": 0.07086614173228346
        },
        {
          "duration": 0.125,
          "durationTicks": 96,
          "midi": 59,
          "name": "B3",
          "ticks": 168583,
          "time": 219.50911458333334,
          "velocity": 0.1889763779527559
        },
        {
          "duration": 0,
          "durationTicks": 0,
          "midi": 64,
          "name": "E4",
          "ticks": 168592,
          "time": 219.52083333333334,
          "velocity": 0.10236220472440945
        },
        {
          "duration": 0.125,
          "durationTicks": 96,
          "midi": 71,
          "name": "B4",
          "ticks": 168601,
          "time": 219.53255208333334,
          "velocity": 0.2283464566929134
        },
        {
          "duration": 0,
          "durationTicks": 0,
          "midi": 54,
          "name": "F#3",
          "ticks": 168619,
          "time": 219.55598958333334,
          "velocity": 0.06299212598425197
        },
        {
          "duration": 0,
          "durationTicks": 0,
          "midi": 73,
          "name": "C#5",
          "ticks": 168619,
          "time": 219.55598958333334,
          "velocity": 0.05511811023622047
        },
        {
          "duration": 0.2513020833333144,
          "durationTicks": 193,
          "midi": 90,
          "name": "F#6",
          "ticks": 168664,
          "time": 219.61458333333334,
          "velocity": 0.05511811023622047
        },
        {
          "duration": 0,
          "durationTicks": 0,
          "midi": 59,
          "name": "B3",
          "ticks": 168700,
          "time": 219.66145833333334,
          "velocity": 0.1968503937007874
        },
        {
          "duration": 0.1263020833333428,
          "durationTicks": 97,
          "midi": 69,
          "name": "A4",
          "ticks": 168717,
          "time": 219.68359375,
          "velocity": 0.2440944881889764
        },
        {
          "duration": 0,
          "durationTicks": 0,
          "midi": 59,
          "name": "B3",
          "ticks": 168735,
          "time": 219.70703125,
          "velocity": 0.1968503937007874
        },
        {
          "duration": 0,
          "durationTicks": 0,
          "midi": 87,
          "name": "D#6",
          "ticks": 168762,
          "time": 219.7421875,
          "velocity": 0.05511811023622047
        },
        {
          "duration": 0.6302083333333428,
          "durationTicks": 484,
          "midi": 71,
          "name": "B4",
          "ticks": 168771,
          "time": 219.75390625,
          "velocity": 0.1968503937007874
        },
        {
          "duration": 0.1263020833333428,
          "durationTicks": 97,
          "midi": 68,
          "name": "G#4",
          "ticks": 168798,
          "time": 219.7890625,
          "velocity": 0.2283464566929134
        },
        {
          "duration": 0.1263020833333428,
          "durationTicks": 97,
          "midi": 64,
          "name": "E4",
          "ticks": 168807,
          "time": 219.80078125,
          "velocity": 0.15748031496062992
        },
        {
          "duration": 0,
          "durationTicks": 0,
          "midi": 65,
          "name": "F4",
          "ticks": 168861,
          "time": 219.87109375,
          "velocity": 0.13385826771653545
        },
        {
          "duration": 0.10807291666665719,
          "durationTicks": 83,
          "midi": 87,
          "name": "D#6",
          "ticks": 168879,
          "time": 219.89453125,
          "velocity": 0.05511811023622047
        },
        {
          "duration": 0,
          "durationTicks": 0,
          "midi": 59,
          "name": "B3",
          "ticks": 168888,
          "time": 219.90625,
          "velocity": 0.14173228346456693
        },
        {
          "duration": 0.7552083333333428,
          "durationTicks": 580,
          "midi": 42,
          "name": "F#2",
          "ticks": 168897,
          "time": 219.91796875,
          "velocity": 0.29133858267716534
        },
        {
          "duration": 0,
          "durationTicks": 0,
          "midi": 68,
          "name": "G#4",
          "ticks": 168916,
          "time": 219.94270833333334,
          "velocity": 0.07874015748031496
        },
        {
          "duration": 0,
          "durationTicks": 0,
          "midi": 64,
          "name": "E4",
          "ticks": 168925,
          "time": 219.95442708333334,
          "velocity": 0.1732283464566929
        },
        {
          "duration": 0.12630208333331439,
          "durationTicks": 97,
          "midi": 68,
          "name": "G#4",
          "ticks": 168952,
          "time": 219.98958333333334,
          "velocity": 0.1889763779527559
        },
        {
          "duration": 0.020833333333342807,
          "durationTicks": 16,
          "midi": 87,
          "name": "D#6",
          "ticks": 168962,
          "time": 220.00260416666666,
          "velocity": 0.11023622047244094
        },
        {
          "duration": 0.125,
          "durationTicks": 96,
          "midi": 61,
          "name": "C#4",
          "ticks": 168971,
          "time": 220.01432291666666,
          "velocity": 0.23622047244094488
        },
        {
          "duration": 0,
          "durationTicks": 0,
          "midi": 88,
          "name": "E6",
          "ticks": 169015,
          "time": 220.07161458333334,
          "velocity": 0.08661417322834646
        },
        {
          "duration": 0.2513020833333144,
          "durationTicks": 193,
          "midi": 68,
          "name": "G#4",
          "ticks": 169069,
          "time": 220.14192708333334,
          "velocity": 0.15748031496062992
        },
        {
          "duration": 0.125,
          "durationTicks": 96,
          "midi": 78,
          "name": "F#5",
          "ticks": 169078,
          "time": 220.15364583333334,
          "velocity": 0.06299212598425197
        },
        {
          "duration": 0.6276041666666572,
          "durationTicks": 482,
          "midi": 76,
          "name": "E5",
          "ticks": 169078,
          "time": 220.15364583333334,
          "velocity": 0.16535433070866143
        },
        {
          "duration": 0,
          "durationTicks": 0,
          "midi": 64,
          "name": "E4",
          "ticks": 169150,
          "time": 220.24739583333334,
          "velocity": 0.07086614173228346
        },
        {
          "duration": 0,
          "durationTicks": 0,
          "midi": 57,
          "name": "A3",
          "ticks": 169221,
          "time": 220.33984375,
          "velocity": 0.1732283464566929
        },
        {
          "duration": 0,
          "durationTicks": 0,
          "midi": 58,
          "name": "A#3",
          "ticks": 169239,
          "time": 220.36328125,
          "velocity": 0.1889763779527559
        },
        {
          "duration": 0,
          "durationTicks": 0,
          "midi": 61,
          "name": "C#4",
          "ticks": 169248,
          "time": 220.375,
          "velocity": 0.09448818897637795
        },
        {
          "duration": 0,
          "durationTicks": 0,
          "midi": 69,
          "name": "A4",
          "ticks": 169267,
          "time": 220.39973958333334,
          "velocity": 0.15748031496062992
        },
        {
          "duration": 0.125,
          "durationTicks": 96,
          "midi": 52,
          "name": "E3",
          "ticks": 169267,
          "time": 220.39973958333334,
          "velocity": 0.1732283464566929
        },
        {
          "duration": 2.12890625,
          "durationTicks": 1635,
          "midi": 71,
          "name": "B4",
          "ticks": 169276,
          "time": 220.41145833333334,
          "velocity": 0.14173228346456693
        },
        {
          "duration": 0,
          "durationTicks": 0,
          "midi": 68,
          "name": "G#4",
          "ticks": 169303,
          "time": 220.44661458333334,
          "velocity": 0.18110236220472442
        },
        {
          "duration": 0,
          "durationTicks": 0,
          "midi": 69,
          "name": "A4",
          "ticks": 169321,
          "time": 220.47005208333334,
          "velocity": 0.1968503937007874
        },
        {
          "duration": 0,
          "durationTicks": 0,
          "midi": 69,
          "name": "A4",
          "ticks": 169348,
          "time": 220.50520833333334,
          "velocity": 0.1889763779527559
        },
        {
          "duration": 0.625,
          "durationTicks": 480,
          "midi": 68,
          "name": "G#4",
          "ticks": 169374,
          "time": 220.5390625,
          "velocity": 0.16535433070866143
        },
        {
          "duration": 0.2513020833333428,
          "durationTicks": 193,
          "midi": 64,
          "name": "E4",
          "ticks": 169392,
          "time": 220.5625,
          "velocity": 0.1732283464566929
        },
        {
          "duration": 0,
          "durationTicks": 0,
          "midi": 87,
          "name": "D#6",
          "ticks": 169401,
          "time": 220.57421875,
          "velocity": 0.06299212598425197
        },
        {
          "duration": 0,
          "durationTicks": 0,
          "midi": 29,
          "name": "F1",
          "ticks": 169455,
          "time": 220.64453125,
          "velocity": 0.29133858267716534
        },
        {
          "duration": 0.5,
          "durationTicks": 384,
          "midi": 30,
          "name": "F#1",
          "ticks": 169473,
          "time": 220.66796875,
          "velocity": 0.29133858267716534
        },
        {
          "duration": 0,
          "durationTicks": 0,
          "midi": 87,
          "name": "D#6",
          "ticks": 169517,
          "time": 220.72526041666666,
          "velocity": 0.05511811023622047
        },
        {
          "duration": 0.125,
          "durationTicks": 96,
          "midi": 61,
          "name": "C#4",
          "ticks": 169553,
          "time": 220.77213541666666,
          "velocity": 0.14173228346456693
        },
        {
          "duration": 0.125,
          "durationTicks": 96,
          "midi": 76,
          "name": "E5",
          "ticks": 169598,
          "time": 220.83072916666666,
          "velocity": 0.1968503937007874
        },
        {
          "duration": 0.125,
          "durationTicks": 96,
          "midi": 73,
          "name": "C#5",
          "ticks": 169652,
          "time": 220.90104166666666,
          "velocity": 0.07874015748031496
        },
        {
          "duration": 0.125,
          "durationTicks": 96,
          "midi": 59,
          "name": "B3",
          "ticks": 169652,
          "time": 220.90104166666666,
          "velocity": 0.15748031496062992
        },
        {
          "duration": 0.25,
          "durationTicks": 192,
          "midi": 76,
          "name": "E5",
          "ticks": 169723,
          "time": 220.99348958333334,
          "velocity": 0.1889763779527559
        },
        {
          "duration": 0.12369791666665719,
          "durationTicks": 95,
          "midi": 57,
          "name": "A3",
          "ticks": 169777,
          "time": 221.06380208333334,
          "velocity": 0.14173228346456693
        },
        {
          "duration": 0,
          "durationTicks": 0,
          "midi": 69,
          "name": "A4",
          "ticks": 169839,
          "time": 221.14453125,
          "velocity": 0.14960629921259844
        },
        {
          "duration": 0.125,
          "durationTicks": 96,
          "midi": 52,
          "name": "E3",
          "ticks": 169839,
          "time": 221.14453125,
          "velocity": 0.13385826771653545
        },
        {
          "duration": 0.1263020833333428,
          "durationTicks": 97,
          "midi": 68,
          "name": "G#4",
          "ticks": 169884,
          "time": 221.203125,
          "velocity": 0.1732283464566929
        },
        {
          "duration": 0.1263020833333428,
          "durationTicks": 97,
          "midi": 49,
          "name": "C#3",
          "ticks": 169947,
          "time": 221.28515625,
          "velocity": 0.11811023622047244
        },
        {
          "duration": 0.1263020833333428,
          "durationTicks": 97,
          "midi": 76,
          "name": "E5",
          "ticks": 169974,
          "time": 221.3203125,
          "velocity": 0.1732283464566929
        },
        {
          "duration": 0.1263020833333428,
          "durationTicks": 97,
          "midi": 37,
          "name": "C#2",
          "ticks": 170028,
          "time": 221.390625,
          "velocity": 0.25196850393700787
        },
        {
          "duration": 0.1263020833333428,
          "durationTicks": 97,
          "midi": 64,
          "name": "E4",
          "ticks": 170037,
          "time": 221.40234375,
          "velocity": 0.09448818897637795
        },
        {
          "duration": 1.1263020833333428,
          "durationTicks": 865,
          "midi": 68,
          "name": "G#4",
          "ticks": 170046,
          "time": 221.4140625,
          "velocity": 0.14960629921259844
        },
        {
          "duration": 0,
          "durationTicks": 0,
          "midi": 88,
          "name": "E6",
          "ticks": 170064,
          "time": 221.4375,
          "velocity": 0.11023622047244094
        },
        {
          "duration": 0.125,
          "durationTicks": 96,
          "midi": 76,
          "name": "E5",
          "ticks": 170082,
          "time": 221.4609375,
          "velocity": 0.2283464566929134
        },
        {
          "duration": 0.125,
          "durationTicks": 96,
          "midi": 61,
          "name": "C#4",
          "ticks": 170118,
          "time": 221.5078125,
          "velocity": 0.07874015748031496
        },
        {
          "duration": 0.25,
          "durationTicks": 192,
          "midi": 76,
          "name": "E5",
          "ticks": 170198,
          "time": 221.61197916666666,
          "velocity": 0.18110236220472442
        },
        {
          "duration": 0.125,
          "durationTicks": 96,
          "midi": 59,
          "name": "B3",
          "ticks": 170216,
          "time": 221.63541666666666,
          "velocity": 0.07086614173228346
        },
        {
          "duration": 0.125,
          "durationTicks": 96,
          "midi": 57,
          "name": "A3",
          "ticks": 170314,
          "time": 221.76302083333334,
          "velocity": 0.06299212598425197
        },
        {
          "duration": 0.125,
          "durationTicks": 96,
          "midi": 52,
          "name": "E3",
          "ticks": 170413,
          "time": 221.89192708333334,
          "velocity": 0.06299212598425197
        },
        {
          "duration": 0.125,
          "durationTicks": 96,
          "midi": 76,
          "name": "E5",
          "ticks": 170439,
          "time": 221.92578125,
          "velocity": 0.14173228346456693
        },
        {
          "duration": 0.125,
          "durationTicks": 96,
          "midi": 49,
          "name": "C#3",
          "ticks": 170520,
          "time": 222.03125,
          "velocity": 0.05511811023622047
        },
        {
          "duration": 0,
          "durationTicks": 0,
          "midi": 88,
          "name": "E6",
          "ticks": 170547,
          "time": 222.06640625,
          "velocity": 0.07874015748031496
        },
        {
          "duration": 0.125,
          "durationTicks": 96,
          "midi": 76,
          "name": "E5",
          "ticks": 170556,
          "time": 222.078125,
          "velocity": 0.1968503937007874
        },
        {
          "duration": 0.125,
          "durationTicks": 96,
          "midi": 44,
          "name": "G#2",
          "ticks": 170592,
          "time": 222.125,
          "velocity": 0.25984251968503935
        },
        {
          "duration": 0.25,
          "durationTicks": 192,
          "midi": 76,
          "name": "E5",
          "ticks": 170672,
          "time": 222.22916666666666,
          "velocity": 0.14173228346456693
        },
        {
          "duration": 0,
          "durationTicks": 0,
          "midi": 78,
          "name": "F#5",
          "ticks": 170699,
          "time": 222.26432291666666,
          "velocity": 0.07086614173228346
        },
        {
          "duration": 0.125,
          "durationTicks": 96,
          "midi": 45,
          "name": "A2",
          "ticks": 170699,
          "time": 222.26432291666666,
          "velocity": 0.25984251968503935
        },
        {
          "duration": 1.1354166666666856,
          "durationTicks": 872,
          "midi": 78,
          "name": "F#5",
          "ticks": 170771,
          "time": 222.35807291666666,
          "velocity": 0.33070866141732286
        },
        {
          "duration": 0,
          "durationTicks": 0,
          "midi": 59,
          "name": "B3",
          "ticks": 170780,
          "time": 222.36979166666666,
          "velocity": 0.25984251968503935
        },
        {
          "duration": 0.125,
          "durationTicks": 96,
          "midi": 62,
          "name": "D4",
          "ticks": 170815,
          "time": 222.41536458333334,
          "velocity": 0.25196850393700787
        },
        {
          "duration": 0,
          "durationTicks": 0,
          "midi": 41,
          "name": "F2",
          "ticks": 170824,
          "time": 222.42708333333334,
          "velocity": 0.25984251968503935
        },
        {
          "duration": 0,
          "durationTicks": 0,
          "midi": 38,
          "name": "D2",
          "ticks": 170860,
          "time": 222.47395833333334,
          "velocity": 0.25196850393700787
        },
        {
          "duration": 0,
          "durationTicks": 0,
          "midi": 37,
          "name": "C#2",
          "ticks": 170877,
          "time": 222.49609375,
          "velocity": 0.25984251968503935
        },
        {
          "duration": 0,
          "durationTicks": 0,
          "midi": 58,
          "name": "A#3",
          "ticks": 170877,
          "time": 222.49609375,
          "velocity": 0.12598425196850394
        },
        {
          "duration": 0.125,
          "durationTicks": 96,
          "midi": 66,
          "name": "F#4",
          "ticks": 170887,
          "time": 222.50911458333334,
          "velocity": 0.2283464566929134
        },
        {
          "duration": 0.125,
          "durationTicks": 96,
          "midi": 76,
          "name": "E5",
          "ticks": 170913,
          "time": 222.54296875,
          "velocity": 0.14173228346456693
        },
        {
          "duration": 0,
          "durationTicks": 0,
          "midi": 31,
          "name": "G1",
          "ticks": 170940,
          "time": 222.578125,
          "velocity": 0.25196850393700787
        },
        {
          "duration": 0.125,
          "durationTicks": 96,
          "midi": 69,
          "name": "A4",
          "ticks": 170958,
          "time": 222.6015625,
          "velocity": 0.23622047244094488
        },
        {
          "duration": 0.125,
          "durationTicks": 96,
          "midi": 85,
          "name": "C#6",
          "ticks": 170958,
          "time": 222.6015625,
          "velocity": 0.1732283464566929
        },
        {
          "duration": 0,
          "durationTicks": 0,
          "midi": 35,
          "name": "B1",
          "ticks": 170976,
          "time": 222.625,
          "velocity": 0.28346456692913385
        },
        {
          "duration": 0,
          "durationTicks": 0,
          "midi": 35,
          "name": "B1",
          "ticks": 171002,
          "time": 222.65885416666666,
          "velocity": 0.2755905511811024
        },
        {
          "duration": 0.09505208333334281,
          "durationTicks": 73,
          "midi": 59,
          "name": "B3",
          "ticks": 171002,
          "time": 222.65885416666666,
          "velocity": 0.16535433070866143
        },
        {
          "duration": 0.25390625,
          "durationTicks": 195,
          "midi": 62,
          "name": "D4",
          "ticks": 171012,
          "time": 222.671875,
          "velocity": 0.14173228346456693
        },
        {
          "duration": 0,
          "durationTicks": 0,
          "midi": 35,
          "name": "B1",
          "ticks": 171029,
          "time": 222.69401041666666,
          "velocity": 0.2755905511811024
        },
        {
          "duration": 0,
          "durationTicks": 0,
          "midi": 35,
          "name": "B1",
          "ticks": 171056,
          "time": 222.72916666666666,
          "velocity": 0.28346456692913385
        },
        {
          "duration": 0,
          "durationTicks": 0,
          "midi": 76,
          "name": "E5",
          "ticks": 171066,
          "time": 222.7421875,
          "velocity": 0.11023622047244094
        },
        {
          "duration": 0.1276041666666572,
          "durationTicks": 98,
          "midi": 81,
          "name": "A5",
          "ticks": 171066,
          "time": 222.7421875,
          "velocity": 0.14960629921259844
        },
        {
          "duration": 0.03255208333334281,
          "durationTicks": 25,
          "midi": 59,
          "name": "B3",
          "ticks": 171075,
          "time": 222.75390625,
          "velocity": 0.10236220472440945
        },
        {
          "duration": 0.3802083333333428,
          "durationTicks": 292,
          "midi": 85,
          "name": "C#6",
          "ticks": 171075,
          "time": 222.75390625,
          "velocity": 0.11023622047244094
        },
        {
          "duration": 0,
          "durationTicks": 0,
          "midi": 24,
          "name": "C1",
          "ticks": 171084,
          "time": 222.765625,
          "velocity": 0.28346456692913385
        },
        {
          "duration": 0.10677083333334281,
          "durationTicks": 82,
          "midi": 70,
          "name": "A#4",
          "ticks": 171084,
          "time": 222.765625,
          "velocity": 0.12598425196850394
        },
        {
          "duration": 0,
          "durationTicks": 0,
          "midi": 67,
          "name": "G4",
          "ticks": 171093,
          "time": 222.77734375,
          "velocity": 0.14173228346456693
        },
        {
          "duration": 0.1263020833333428,
          "durationTicks": 97,
          "midi": 75,
          "name": "D#5",
          "ticks": 171093,
          "time": 222.77734375,
          "velocity": 0.10236220472440945
        },
        {
          "duration": 0,
          "durationTicks": 0,
          "midi": 35,
          "name": "B1",
          "ticks": 171103,
          "time": 222.79036458333334,
          "velocity": 0.28346456692913385
        },
        {
          "duration": 0,
          "durationTicks": 0,
          "midi": 35,
          "name": "B1",
          "ticks": 171130,
          "time": 222.82552083333334,
          "velocity": 0.28346456692913385
        },
        {
          "duration": 0,
          "durationTicks": 0,
          "midi": 67,
          "name": "G4",
          "ticks": 171139,
          "time": 222.83723958333334,
          "velocity": 0.18110236220472442
        },
        {
          "duration": 0.01953125,
          "durationTicks": 15,
          "midi": 70,
          "name": "A#4",
          "ticks": 171166,
          "time": 222.87239583333334,
          "velocity": 0.13385826771653545
        },
        {
          "duration": 0.08203125,
          "durationTicks": 63,
          "midi": 35,
          "name": "B1",
          "ticks": 171166,
          "time": 222.87239583333334,
          "velocity": 0.28346456692913385
        },
        {
          "duration": 0,
          "durationTicks": 0,
          "midi": 67,
          "name": "G4",
          "ticks": 171184,
          "time": 222.89583333333334,
          "velocity": 0.1732283464566929
        },
        {
          "duration": 0,
          "durationTicks": 0,
          "midi": 66,
          "name": "F#4",
          "ticks": 171202,
          "time": 222.91927083333334,
          "velocity": 0.18110236220472442
        },
        {
          "duration": 0.6328125,
          "durationTicks": 486,
          "midi": 69,
          "name": "A4",
          "ticks": 171220,
          "time": 222.94270833333334,
          "velocity": 0.2283464566929134
        },
        {
          "duration": 0.044270833333314386,
          "durationTicks": 34,
          "midi": 35,
          "name": "B1",
          "ticks": 171229,
          "time": 222.95442708333334,
          "velocity": 0.28346456692913385
        },
        {
          "duration": 0.12630208333331439,
          "durationTicks": 97,
          "midi": 74,
          "name": "D5",
          "ticks": 171229,
          "time": 222.95442708333334,
          "velocity": 0.16535433070866143
        },
        {
          "duration": 0,
          "durationTicks": 0,
          "midi": 35,
          "name": "B1",
          "ticks": 171265,
          "time": 223.00130208333334,
          "velocity": 0.2755905511811024
        },
        {
          "duration": 0,
          "durationTicks": 0,
          "midi": 61,
          "name": "C#4",
          "ticks": 171265,
          "time": 223.00130208333334,
          "velocity": 0.10236220472440945
        },
        {
          "duration": 0.12630208333331439,
          "durationTicks": 97,
          "midi": 66,
          "name": "F#4",
          "ticks": 171292,
          "time": 223.03645833333334,
          "velocity": 0.11023622047244094
        },
        {
          "duration": 0.12630208333331439,
          "durationTicks": 97,
          "midi": 35,
          "name": "B1",
          "ticks": 171292,
          "time": 223.03645833333334,
          "velocity": 0.29133858267716534
        },
        {
          "duration": 0.1276041666666572,
          "durationTicks": 98,
          "midi": 73,
          "name": "C#5",
          "ticks": 171346,
          "time": 223.10677083333334,
          "velocity": 0.1889763779527559
        },
        {
          "duration": 0.1276041666666572,
          "durationTicks": 98,
          "midi": 62,
          "name": "D4",
          "ticks": 171355,
          "time": 223.11848958333334,
          "velocity": 0.11023622047244094
        },
        {
          "duration": 0,
          "durationTicks": 0,
          "midi": 74,
          "name": "D5",
          "ticks": 171391,
          "time": 223.16536458333334,
          "velocity": 0.14960629921259844
        },
        {
          "duration": 0,
          "durationTicks": 0,
          "midi": 35,
          "name": "B1",
          "ticks": 171401,
          "time": 223.17838541666666,
          "velocity": 0.28346456692913385
        },
        {
          "duration": 0,
          "durationTicks": 0,
          "midi": 35,
          "name": "B1",
          "ticks": 171428,
          "time": 223.21354166666666,
          "velocity": 0.28346456692913385
        },
        {
          "duration": 0.1263020833333428,
          "durationTicks": 97,
          "midi": 66,
          "name": "F#4",
          "ticks": 171437,
          "time": 223.22526041666666,
          "velocity": 0.07086614173228346
        },
        {
          "duration": 0.1263020833333428,
          "durationTicks": 97,
          "midi": 74,
          "name": "D5",
          "ticks": 171456,
          "time": 223.25,
          "velocity": 0.14173228346456693
        },
        {
          "duration": 0,
          "durationTicks": 0,
          "midi": 35,
          "name": "B1",
          "ticks": 171465,
          "time": 223.26171875,
          "velocity": 0.28346456692913385
        },
        {
          "duration": 0.1263020833333428,
          "durationTicks": 97,
          "midi": 85,
          "name": "C#6",
          "ticks": 171465,
          "time": 223.26171875,
          "velocity": 0.11023622047244094
        },
        {
          "duration": 0.1263020833333428,
          "durationTicks": 97,
          "midi": 61,
          "name": "C#4",
          "ticks": 171465,
          "time": 223.26171875,
          "velocity": 0.08661417322834646
        },
        {
          "duration": 0.3528645833333428,
          "durationTicks": 271,
          "midi": 85,
          "name": "C#6",
          "ticks": 171536,
          "time": 223.35416666666666,
          "velocity": 0.16535433070866143
        },
        {
          "duration": 0.1263020833333428,
          "durationTicks": 97,
          "midi": 73,
          "name": "C#5",
          "ticks": 171546,
          "time": 223.3671875,
          "velocity": 0.1968503937007874
        },
        {
          "duration": 0.7591145833333428,
          "durationTicks": 583,
          "midi": 35,
          "name": "B1",
          "ticks": 171555,
          "time": 223.37890625,
          "velocity": 0.2992125984251969
        },
        {
          "duration": 0.1263020833333428,
          "durationTicks": 97,
          "midi": 74,
          "name": "D5",
          "ticks": 171618,
          "time": 223.4609375,
          "velocity": 0.14960629921259844
        },
        {
          "duration": 0.3776041666666572,
          "durationTicks": 290,
          "midi": 66,
          "name": "F#4",
          "ticks": 171618,
          "time": 223.4609375,
          "velocity": 0.23622047244094488
        },
        {
          "duration": 0.1263020833333428,
          "durationTicks": 97,
          "midi": 62,
          "name": "D4",
          "ticks": 171654,
          "time": 223.5078125,
          "velocity": 0.08661417322834646
        },
        {
          "duration": 0,
          "durationTicks": 0,
          "midi": 83,
          "name": "B5",
          "ticks": 171672,
          "time": 223.53125,
          "velocity": 0.07874015748031496
        },
        {
          "duration": 0.2513020833333428,
          "durationTicks": 193,
          "midi": 71,
          "name": "B4",
          "ticks": 171681,
          "time": 223.54296875,
          "velocity": 0.16535433070866143
        },
        {
          "duration": 0.2513020833333144,
          "durationTicks": 193,
          "midi": 69,
          "name": "A4",
          "ticks": 171754,
          "time": 223.63802083333334,
          "velocity": 0.1732283464566929
        },
        {
          "duration": 0.2526041666666572,
          "durationTicks": 194,
          "midi": 74,
          "name": "D5",
          "ticks": 171771,
          "time": 223.66015625,
          "velocity": 0.1732283464566929
        },
        {
          "duration": 0.125,
          "durationTicks": 96,
          "midi": 61,
          "name": "C#4",
          "ticks": 171780,
          "time": 223.671875,
          "velocity": 0.18110236220472442
        },
        {
          "duration": 0.026041666666657193,
          "durationTicks": 20,
          "midi": 85,
          "name": "C#6",
          "ticks": 171807,
          "time": 223.70703125,
          "velocity": 0.09448818897637795
        },
        {
          "duration": 0,
          "durationTicks": 0,
          "midi": 62,
          "name": "D4",
          "ticks": 171834,
          "time": 223.7421875,
          "velocity": 0.1732283464566929
        },
        {
          "duration": 0,
          "durationTicks": 0,
          "midi": 93,
          "name": "A6",
          "ticks": 171834,
          "time": 223.7421875,
          "velocity": 0.07086614173228346
        },
        {
          "duration": 0.08072916666665719,
          "durationTicks": 62,
          "midi": 62,
          "name": "D4",
          "ticks": 171861,
          "time": 223.77734375,
          "velocity": 0.1889763779527559
        },
        {
          "duration": 0.1276041666666572,
          "durationTicks": 98,
          "midi": 71,
          "name": "B4",
          "ticks": 171879,
          "time": 223.80078125,
          "velocity": 0.08661417322834646
        },
        {
          "duration": 0.2552083333333428,
          "durationTicks": 196,
          "midi": 66,
          "name": "F#4",
          "ticks": 171906,
          "time": 223.8359375,
          "velocity": 0.1968503937007874
        },
        {
          "duration": 0.045572916666685614,
          "durationTicks": 35,
          "midi": 62,
          "name": "D4",
          "ticks": 171923,
          "time": 223.85807291666666,
          "velocity": 0.18110236220472442
        },
        {
          "duration": 0.12890625,
          "durationTicks": 99,
          "midi": 80,
          "name": "G#5",
          "ticks": 171933,
          "time": 223.87109375,
          "velocity": 0.11023622047244094
        },
        {
          "duration": 0,
          "durationTicks": 0,
          "midi": 85,
          "name": "C#6",
          "ticks": 171942,
          "time": 223.8828125,
          "velocity": 0.05511811023622047
        },
        {
          "duration": 0.12890625,
          "durationTicks": 99,
          "midi": 61,
          "name": "C#4",
          "ticks": 171942,
          "time": 223.8828125,
          "velocity": 0.1732283464566929
        },
        {
          "duration": 0.2552083333333428,
          "durationTicks": 196,
          "midi": 69,
          "name": "A4",
          "ticks": 171942,
          "time": 223.8828125,
          "velocity": 0.1732283464566929
        },
        {
          "duration": 0,
          "durationTicks": 0,
          "midi": 85,
          "name": "C#6",
          "ticks": 171951,
          "time": 223.89453125,
          "velocity": 0.05511811023622047
        },
        {
          "duration": 0,
          "durationTicks": 0,
          "midi": 73,
          "name": "C#5",
          "ticks": 171979,
          "time": 223.93098958333334,
          "velocity": 0.1968503937007874
        },
        {
          "duration": 0.1276041666666572,
          "durationTicks": 98,
          "midi": 74,
          "name": "D5",
          "ticks": 172015,
          "time": 223.97786458333334,
          "velocity": 0.14960629921259844
        },
        {
          "duration": 0.12760416666668561,
          "durationTicks": 98,
          "midi": 57,
          "name": "A3",
          "ticks": 172025,
          "time": 223.99088541666666,
          "velocity": 0.1732283464566929
        },
        {
          "duration": 0,
          "durationTicks": 0,
          "midi": 85,
          "name": "C#6",
          "ticks": 172053,
          "time": 224.02734375,
          "velocity": 0.10236220472440945
        },
        {
          "duration": 0.1263020833333428,
          "durationTicks": 97,
          "midi": 73,
          "name": "C#5",
          "ticks": 172097,
          "time": 224.08463541666666,
          "velocity": 0.23622047244094488
        },
        {
          "duration": 0,
          "durationTicks": 0,
          "midi": 86,
          "name": "D6",
          "ticks": 172106,
          "time": 224.09635416666666,
          "velocity": 0.2047244094488189
        },
        {
          "duration": 0,
          "durationTicks": 0,
          "midi": 82,
          "name": "A#5",
          "ticks": 172125,
          "time": 224.12109375,
          "velocity": 0.2204724409448819
        },
        {
          "duration": 0,
          "durationTicks": 0,
          "midi": 77,
          "name": "F5",
          "ticks": 172143,
          "time": 224.14453125,
          "velocity": 0.2125984251968504
        },
        {
          "duration": 0,
          "durationTicks": 0,
          "midi": 31,
          "name": "G1",
          "ticks": 172160,
          "time": 224.16666666666666,
          "velocity": 0.29133858267716534
        },
        {
          "duration": 0,
          "durationTicks": 0,
          "midi": 68,
          "name": "G#4",
          "ticks": 172169,
          "time": 224.17838541666666,
          "velocity": 0.1968503937007874
        },
        {
          "duration": 0.1263020833333428,
          "durationTicks": 97,
          "midi": 78,
          "name": "F#5",
          "ticks": 172169,
          "time": 224.17838541666666,
          "velocity": 0.06299212598425197
        },
        {
          "duration": 0,
          "durationTicks": 0,
          "midi": 92,
          "name": "G#6",
          "ticks": 172187,
          "time": 224.20182291666666,
          "velocity": 0.11023622047244094
        },
        {
          "duration": 0.10677083333334281,
          "durationTicks": 82,
          "midi": 69,
          "name": "A4",
          "ticks": 172187,
          "time": 224.20182291666666,
          "velocity": 0.1732283464566929
        },
        {
          "duration": 0,
          "durationTicks": 0,
          "midi": 28,
          "name": "E1",
          "ticks": 172196,
          "time": 224.21354166666666,
          "velocity": 0.29133858267716534
        },
        {
          "duration": 0,
          "durationTicks": 0,
          "midi": 66,
          "name": "F#4",
          "ticks": 172206,
          "time": 224.2265625,
          "velocity": 0.12598425196850394
        },
        {
          "duration": 0.1276041666666572,
          "durationTicks": 98,
          "midi": 81,
          "name": "A5",
          "ticks": 172206,
          "time": 224.2265625,
          "velocity": 0.25984251968503935
        },
        {
          "duration": 0,
          "durationTicks": 0,
          "midi": 27,
          "name": "D#1",
          "ticks": 172215,
          "time": 224.23828125,
          "velocity": 0.29133858267716534
        },
        {
          "duration": 0,
          "durationTicks": 0,
          "midi": 77,
          "name": "F5",
          "ticks": 172224,
          "time": 224.25,
          "velocity": 0.2047244094488189
        },
        {
          "duration": 0,
          "durationTicks": 0,
          "midi": 72,
          "name": "C5",
          "ticks": 172242,
          "time": 224.2734375,
          "velocity": 0.2204724409448819
        },
        {
          "duration": 0,
          "durationTicks": 0,
          "midi": 24,
          "name": "C1",
          "ticks": 172251,
          "time": 224.28515625,
          "velocity": 0.28346456692913385
        },
        {
          "duration": 0,
          "durationTicks": 0,
          "midi": 68,
          "name": "G#4",
          "ticks": 172251,
          "time": 224.28515625,
          "velocity": 0.2204724409448819
        },
        {
          "duration": 0.020833333333342807,
          "durationTicks": 16,
          "midi": 69,
          "name": "A4",
          "ticks": 172269,
          "time": 224.30859375,
          "velocity": 0.1889763779527559
        },
        {
          "duration": 0.1276041666666572,
          "durationTicks": 98,
          "midi": 73,
          "name": "C#5",
          "ticks": 172269,
          "time": 224.30859375,
          "velocity": 0.05511811023622047
        },
        {
          "duration": 0,
          "durationTicks": 0,
          "midi": 33,
          "name": "A1",
          "ticks": 172278,
          "time": 224.3203125,
          "velocity": 0.29133858267716534
        },
        {
          "duration": 0,
          "durationTicks": 0,
          "midi": 63,
          "name": "D#4",
          "ticks": 172278,
          "time": 224.3203125,
          "velocity": 0.2125984251968504
        },
        {
          "duration": 0,
          "durationTicks": 0,
          "midi": 58,
          "name": "A#3",
          "ticks": 172297,
          "time": 224.34505208333334,
          "velocity": 0.2125984251968504
        },
        {
          "duration": 0.12630208333331439,
          "durationTicks": 97,
          "midi": 66,
          "name": "F#4",
          "ticks": 172315,
          "time": 224.36848958333334,
          "velocity": 0.13385826771653545
        },
        {
          "duration": 0,
          "durationTicks": 0,
          "midi": 30,
          "name": "F#1",
          "ticks": 172325,
          "time": 224.38151041666666,
          "velocity": 0.29133858267716534
        },
        {
          "duration": 0,
          "durationTicks": 0,
          "midi": 26,
          "name": "D1",
          "ticks": 172369,
          "time": 224.43880208333334,
          "velocity": 0.30708661417322836
        },
        {
          "duration": 0,
          "durationTicks": 0,
          "midi": 71,
          "name": "B4",
          "ticks": 172369,
          "time": 224.43880208333334,
          "velocity": 0.07874015748031496
        },
        {
          "duration": 0,
          "durationTicks": 0,
          "midi": 36,
          "name": "C2",
          "ticks": 172396,
          "time": 224.47395833333334,
          "velocity": 0.2677165354330709
        },
        {
          "duration": 0.3776041666666572,
          "durationTicks": 290,
          "midi": 62,
          "name": "D4",
          "ticks": 172405,
          "time": 224.48567708333334,
          "velocity": 0.1889763779527559
        },
        {
          "duration": 0,
          "durationTicks": 0,
          "midi": 67,
          "name": "G4",
          "ticks": 172486,
          "time": 224.59114583333334,
          "velocity": 0.1968503937007874
        },
        {
          "duration": 0,
          "durationTicks": 0,
          "midi": 56,
          "name": "G#3",
          "ticks": 172495,
          "time": 224.60286458333334,
          "velocity": 0.3228346456692913
        },
        {
          "duration": 0,
          "durationTicks": 0,
          "midi": 28,
          "name": "E1",
          "ticks": 172495,
          "time": 224.60286458333334,
          "velocity": 0.3464566929133858
        },
        {
          "duration": 0.12630208333331439,
          "durationTicks": 97,
          "midi": 78,
          "name": "F#5",
          "ticks": 172495,
          "time": 224.60286458333334,
          "velocity": 0.2125984251968504
        },
        {
          "duration": 0,
          "durationTicks": 0,
          "midi": 70,
          "name": "A#4",
          "ticks": 172505,
          "time": 224.61588541666666,
          "velocity": 0.14173228346456693
        },
        {
          "duration": 0,
          "durationTicks": 0,
          "midi": 81,
          "name": "A5",
          "ticks": 172505,
          "time": 224.61588541666666,
          "velocity": 0.07874015748031496
        },
        {
          "duration": 0.125,
          "durationTicks": 96,
          "midi": 57,
          "name": "A3",
          "ticks": 172514,
          "time": 224.62760416666666,
          "velocity": 0.33858267716535434
        },
        {
          "duration": 0.2513020833333428,
          "durationTicks": 193,
          "midi": 66,
          "name": "F#4",
          "ticks": 172514,
          "time": 224.62760416666666,
          "velocity": 0.1889763779527559
        },
        {
          "duration": 0,
          "durationTicks": 0,
          "midi": 28,
          "name": "E1",
          "ticks": 172541,
          "time": 224.66276041666666,
          "velocity": 0.33858267716535434
        },
        {
          "duration": 0.125,
          "durationTicks": 96,
          "midi": 74,
          "name": "D5",
          "ticks": 172558,
          "time": 224.68489583333334,
          "velocity": 0.2440944881889764
        },
        {
          "duration": 0.125,
          "durationTicks": 96,
          "midi": 28,
          "name": "E1",
          "ticks": 172568,
          "time": 224.69791666666666,
          "velocity": 0.33070866141732286
        },
        {
          "duration": 0.125,
          "durationTicks": 96,
          "midi": 57,
          "name": "A3",
          "ticks": 172577,
          "time": 224.70963541666666,
          "velocity": 0.2283464566929134
        },
        {
          "duration": 0.1263020833333428,
          "durationTicks": 97,
          "midi": 78,
          "name": "F#5",
          "ticks": 172647,
          "time": 224.80078125,
          "velocity": 0.2125984251968504
        },
        {
          "duration": 0,
          "durationTicks": 0,
          "midi": 74,
          "name": "D5",
          "ticks": 172666,
          "time": 224.82552083333334,
          "velocity": 0.1968503937007874
        },
        {
          "duration": 0,
          "durationTicks": 0,
          "midi": 31,
          "name": "G1",
          "ticks": 172729,
          "time": 224.90755208333334,
          "velocity": 0.25984251968503935
        },
        {
          "duration": 0.125,
          "durationTicks": 96,
          "midi": 66,
          "name": "F#4",
          "ticks": 172756,
          "time": 224.94270833333334,
          "velocity": 0.14960629921259844
        },
        {
          "duration": 0.12630208333331439,
          "durationTicks": 97,
          "midi": 62,
          "name": "D4",
          "ticks": 172810,
          "time": 225.01302083333334,
          "velocity": 0.1732283464566929
        },
        {
          "duration": 0,
          "durationTicks": 0,
          "midi": 69,
          "name": "A4",
          "ticks": 172872,
          "time": 225.09375,
          "velocity": 0.1889763779527559
        },
        {
          "duration": 0,
          "durationTicks": 0,
          "midi": 56,
          "name": "G#3",
          "ticks": 172881,
          "time": 225.10546875,
          "velocity": 0.2992125984251969
        },
        {
          "duration": 0.2526041666666572,
          "durationTicks": 194,
          "midi": 80,
          "name": "G#5",
          "ticks": 172881,
          "time": 225.10546875,
          "velocity": 0.25984251968503935
        },
        {
          "duration": 0,
          "durationTicks": 0,
          "midi": 64,
          "name": "E4",
          "ticks": 172891,
          "time": 225.11848958333334,
          "velocity": 0.1732283464566929
        },
        {
          "duration": 0,
          "durationTicks": 0,
          "midi": 29,
          "name": "F1",
          "ticks": 172900,
          "time": 225.13020833333334,
          "velocity": 0.31496062992125984
        },
        {
          "duration": 0.2513020833333144,
          "durationTicks": 193,
          "midi": 68,
          "name": "G#4",
          "ticks": 172900,
          "time": 225.13020833333334,
          "velocity": 0.1968503937007874
        },
        {
          "duration": 0.125,
          "durationTicks": 96,
          "midi": 59,
          "name": "B3",
          "ticks": 172927,
          "time": 225.16536458333334,
          "velocity": 0.2125984251968504
        },
        {
          "duration": 0.125,
          "durationTicks": 96,
          "midi": 64,
          "name": "E4",
          "ticks": 172927,
          "time": 225.16536458333334,
          "velocity": 0.23622047244094488
        },
        {
          "duration": 0.1263020833333428,
          "durationTicks": 97,
          "midi": 76,
          "name": "E5",
          "ticks": 172944,
          "time": 225.1875,
          "velocity": 0.25196850393700787
        },
        {
          "duration": 0.12630208333331439,
          "durationTicks": 97,
          "midi": 78,
          "name": "F#5",
          "ticks": 172954,
          "time": 225.20052083333334,
          "velocity": 0.07874015748031496
        },
        {
          "duration": 0,
          "durationTicks": 0,
          "midi": 31,
          "name": "G1",
          "ticks": 172971,
          "time": 225.22265625,
          "velocity": 0.3228346456692913
        },
        {
          "duration": 0,
          "durationTicks": 0,
          "midi": 72,
          "name": "C5",
          "ticks": 172971,
          "time": 225.22265625,
          "velocity": 0.23622047244094488
        },
        {
          "duration": 0,
          "durationTicks": 0,
          "midi": 29,
          "name": "F1",
          "ticks": 172989,
          "time": 225.24609375,
          "velocity": 0.33070866141732286
        },
        {
          "duration": 0,
          "durationTicks": 0,
          "midi": 57,
          "name": "A3",
          "ticks": 172989,
          "time": 225.24609375,
          "velocity": 0.2992125984251969
        },
        {
          "duration": 0,
          "durationTicks": 0,
          "midi": 95,
          "name": "B6",
          "ticks": 172989,
          "time": 225.24609375,
          "velocity": 0.05511811023622047
        },
        {
          "duration": 0,
          "durationTicks": 0,
          "midi": 71,
          "name": "B4",
          "ticks": 173007,
          "time": 225.26953125,
          "velocity": 0.1889763779527559
        },
        {
          "duration": 0,
          "durationTicks": 0,
          "midi": 30,
          "name": "F#1",
          "ticks": 173016,
          "time": 225.28125,
          "velocity": 0.3228346456692913
        },
        {
          "duration": 0,
          "durationTicks": 0,
          "midi": 59,
          "name": "B3",
          "ticks": 173025,
          "time": 225.29296875,
          "velocity": 0.15748031496062992
        },
        {
          "duration": 0,
          "durationTicks": 0,
          "midi": 75,
          "name": "D#5",
          "ticks": 173025,
          "time": 225.29296875,
          "velocity": 0.15748031496062992
        },
        {
          "duration": 0,
          "durationTicks": 0,
          "midi": 31,
          "name": "G1",
          "ticks": 173034,
          "time": 225.3046875,
          "velocity": 0.33858267716535434
        },
        {
          "duration": 0,
          "durationTicks": 0,
          "midi": 30,
          "name": "F#1",
          "ticks": 173053,
          "time": 225.32942708333334,
          "velocity": 0.3228346456692913
        },
        {
          "duration": 0.12369791666665719,
          "durationTicks": 95,
          "midi": 71,
          "name": "B4",
          "ticks": 173080,
          "time": 225.36458333333334,
          "velocity": 0.16535433070866143
        },
        {
          "duration": 0,
          "durationTicks": 0,
          "midi": 31,
          "name": "G1",
          "ticks": 173106,
          "time": 225.3984375,
          "velocity": 0.2677165354330709
        },
        {
          "duration": 0,
          "durationTicks": 0,
          "midi": 29,
          "name": "F1",
          "ticks": 173133,
          "time": 225.43359375,
          "velocity": 0.1732283464566929
        },
        {
          "duration": 0.1263020833333428,
          "durationTicks": 97,
          "midi": 68,
          "name": "G#4",
          "ticks": 173133,
          "time": 225.43359375,
          "velocity": 0.14173228346456693
        },
        {
          "duration": 0,
          "durationTicks": 0,
          "midi": 31,
          "name": "G1",
          "ticks": 173187,
          "time": 225.50390625,
          "velocity": 0.29133858267716534
        },
        {
          "duration": 0.1276041666666572,
          "durationTicks": 98,
          "midi": 64,
          "name": "E4",
          "ticks": 173196,
          "time": 225.515625,
          "velocity": 0.14960629921259844
        },
        {
          "duration": 0,
          "durationTicks": 0,
          "midi": 56,
          "name": "G#3",
          "ticks": 173259,
          "time": 225.59765625,
          "velocity": 0.29133858267716534
        },
        {
          "duration": 0.1276041666666572,
          "durationTicks": 98,
          "midi": 82,
          "name": "A#5",
          "ticks": 173259,
          "time": 225.59765625,
          "velocity": 0.2204724409448819
        },
        {
          "duration": 0.1276041666666572,
          "durationTicks": 98,
          "midi": 85,
          "name": "C#6",
          "ticks": 173259,
          "time": 225.59765625,
          "velocity": 0.07086614173228346
        },
        {
          "duration": 0.25,
          "durationTicks": 192,
          "midi": 70,
          "name": "A#4",
          "ticks": 173268,
          "time": 225.609375,
          "velocity": 0.23622047244094488
        },
        {
          "duration": 0.2552083333333144,
          "durationTicks": 196,
          "midi": 66,
          "name": "F#4",
          "ticks": 173278,
          "time": 225.62239583333334,
          "velocity": 0.18110236220472442
        },
        {
          "duration": 0,
          "durationTicks": 0,
          "midi": 56,
          "name": "G#3",
          "ticks": 173287,
          "time": 225.63411458333334,
          "velocity": 0.1968503937007874
        },
        {
          "duration": 0.12630208333331439,
          "durationTicks": 97,
          "midi": 61,
          "name": "C#4",
          "ticks": 173287,
          "time": 225.63411458333334,
          "velocity": 0.1732283464566929
        },
        {
          "duration": 0,
          "durationTicks": 0,
          "midi": 73,
          "name": "C#5",
          "ticks": 173296,
          "time": 225.64583333333334,
          "velocity": 0.1968503937007874
        },
        {
          "duration": 0,
          "durationTicks": 0,
          "midi": 33,
          "name": "A1",
          "ticks": 173306,
          "time": 225.65885416666666,
          "velocity": 0.33858267716535434
        },
        {
          "duration": 0,
          "durationTicks": 0,
          "midi": 32,
          "name": "G#1",
          "ticks": 173323,
          "time": 225.68098958333334,
          "velocity": 0.31496062992125984
        },
        {
          "duration": 0.12630208333331439,
          "durationTicks": 97,
          "midi": 78,
          "name": "F#5",
          "ticks": 173323,
          "time": 225.68098958333334,
          "velocity": 0.25196850393700787
        },
        {
          "duration": 0,
          "durationTicks": 0,
          "midi": 73,
          "name": "C#5",
          "ticks": 173350,
          "time": 225.71614583333334,
          "velocity": 0.2204724409448819
        },
        {
          "duration": 0,
          "durationTicks": 0,
          "midi": 34,
          "name": "A#1",
          "ticks": 173359,
          "time": 225.72786458333334,
          "velocity": 0.3464566929133858
        },
        {
          "duration": 0.12890625,
          "durationTicks": 99,
          "midi": 61,
          "name": "C#4",
          "ticks": 173377,
          "time": 225.75130208333334,
          "velocity": 0.18110236220472442
        },
        {
          "duration": 0,
          "durationTicks": 0,
          "midi": 32,
          "name": "G#1",
          "ticks": 173396,
          "time": 225.77604166666666,
          "velocity": 0.3700787401574803
        },
        {
          "duration": 0,
          "durationTicks": 0,
          "midi": 77,
          "name": "F5",
          "ticks": 173396,
          "time": 225.77604166666666,
          "velocity": 0.2047244094488189
        },
        {
          "duration": 0,
          "durationTicks": 0,
          "midi": 32,
          "name": "G#1",
          "ticks": 173432,
          "time": 225.82291666666666,
          "velocity": 0.33070866141732286
        },
        {
          "duration": 0,
          "durationTicks": 0,
          "midi": 78,
          "name": "F#5",
          "ticks": 173432,
          "time": 225.82291666666666,
          "velocity": 0.2047244094488189
        },
        {
          "duration": 0,
          "durationTicks": 0,
          "midi": 65,
          "name": "F4",
          "ticks": 173441,
          "time": 225.83463541666666,
          "velocity": 0.1732283464566929
        },
        {
          "duration": 0.1263020833333428,
          "durationTicks": 97,
          "midi": 73,
          "name": "C#5",
          "ticks": 173450,
          "time": 225.84635416666666,
          "velocity": 0.1889763779527559
        },
        {
          "duration": 0.005208333333342807,
          "durationTicks": 4,
          "midi": 70,
          "name": "A#4",
          "ticks": 173460,
          "time": 225.859375,
          "velocity": 0.06299212598425197
        },
        {
          "duration": 0,
          "durationTicks": 0,
          "midi": 57,
          "name": "A3",
          "ticks": 173469,
          "time": 225.87109375,
          "velocity": 0.29133858267716534
        },
        {
          "duration": 0,
          "durationTicks": 0,
          "midi": 38,
          "name": "D2",
          "ticks": 173478,
          "time": 225.8828125,
          "velocity": 0.2204724409448819
        },
        {
          "duration": 0.125,
          "durationTicks": 96,
          "midi": 70,
          "name": "A#4",
          "ticks": 173523,
          "time": 225.94140625,
          "velocity": 0.15748031496062992
        },
        {
          "duration": 0,
          "durationTicks": 0,
          "midi": 31,
          "name": "G1",
          "ticks": 173585,
          "time": 226.02213541666666,
          "velocity": 0.2677165354330709
        },
        {
          "duration": 0.12760416666668561,
          "durationTicks": 98,
          "midi": 66,
          "name": "F#4",
          "ticks": 173585,
          "time": 226.02213541666666,
          "velocity": 0.1732283464566929
        },
        {
          "duration": 0,
          "durationTicks": 0,
          "midi": 29,
          "name": "F1",
          "ticks": 173612,
          "time": 226.05729166666666,
          "velocity": 0.1732283464566929
        },
        {
          "duration": 0,
          "durationTicks": 0,
          "midi": 72,
          "name": "C5",
          "ticks": 173630,
          "time": 226.08072916666666,
          "velocity": 0.23622047244094488
        },
        {
          "duration": 0.25390625,
          "durationTicks": 195,
          "midi": 83,
          "name": "B5",
          "ticks": 173640,
          "time": 226.09375,
          "velocity": 0.2047244094488189
        },
        {
          "duration": 0.1263020833333428,
          "durationTicks": 97,
          "midi": 86,
          "name": "D6",
          "ticks": 173649,
          "time": 226.10546875,
          "velocity": 0.08661417322834646
        },
        {
          "duration": 0.1263020833333428,
          "durationTicks": 97,
          "midi": 62,
          "name": "D4",
          "ticks": 173649,
          "time": 226.10546875,
          "velocity": 0.1968503937007874
        },
        {
          "duration": 0.25390625,
          "durationTicks": 195,
          "midi": 67,
          "name": "G4",
          "ticks": 173649,
          "time": 226.10546875,
          "velocity": 0.2283464566929134
        },
        {
          "duration": 0,
          "durationTicks": 0,
          "midi": 35,
          "name": "B1",
          "ticks": 173658,
          "time": 226.1171875,
          "velocity": 0.3858267716535433
        },
        {
          "duration": 0,
          "durationTicks": 0,
          "midi": 57,
          "name": "A3",
          "ticks": 173658,
          "time": 226.1171875,
          "velocity": 0.30708661417322836
        },
        {
          "duration": 0.1263020833333428,
          "durationTicks": 97,
          "midi": 71,
          "name": "B4",
          "ticks": 173658,
          "time": 226.1171875,
          "velocity": 0.1968503937007874
        },
        {
          "duration": 0,
          "durationTicks": 0,
          "midi": 74,
          "name": "D5",
          "ticks": 173685,
          "time": 226.15234375,
          "velocity": 0.2125984251968504
        },
        {
          "duration": 0,
          "durationTicks": 0,
          "midi": 34,
          "name": "A#1",
          "ticks": 173703,
          "time": 226.17578125,
          "velocity": 0.3464566929133858
        },
        {
          "duration": 0,
          "durationTicks": 0,
          "midi": 33,
          "name": "A1",
          "ticks": 173720,
          "time": 226.19791666666666,
          "velocity": 0.36220472440944884
        },
        {
          "duration": 0,
          "durationTicks": 0,
          "midi": 81,
          "name": "A5",
          "ticks": 173730,
          "time": 226.2109375,
          "velocity": 0.10236220472440945
        },
        {
          "duration": 0.1276041666666572,
          "durationTicks": 98,
          "midi": 74,
          "name": "D5",
          "ticks": 173739,
          "time": 226.22265625,
          "velocity": 0.1968503937007874
        },
        {
          "duration": 0.1276041666666572,
          "durationTicks": 98,
          "midi": 71,
          "name": "B4",
          "ticks": 173739,
          "time": 226.22265625,
          "velocity": 0.2440944881889764
        },
        {
          "duration": 0,
          "durationTicks": 0,
          "midi": 35,
          "name": "B1",
          "ticks": 173748,
          "time": 226.234375,
          "velocity": 0.3779527559055118
        },
        {
          "duration": 0.1276041666666572,
          "durationTicks": 98,
          "midi": 62,
          "name": "D4",
          "ticks": 173758,
          "time": 226.24739583333334,
          "velocity": 0.2047244094488189
        },
        {
          "duration": 0,
          "durationTicks": 0,
          "midi": 56,
          "name": "G#3",
          "ticks": 173767,
          "time": 226.25911458333334,
          "velocity": 0.1968503937007874
        },
        {
          "duration": 0,
          "durationTicks": 0,
          "midi": 34,
          "name": "A#1",
          "ticks": 173785,
          "time": 226.28255208333334,
          "velocity": 0.3464566929133858
        },
        {
          "duration": 0,
          "durationTicks": 0,
          "midi": 78,
          "name": "F#5",
          "ticks": 173794,
          "time": 226.29427083333334,
          "velocity": 0.1968503937007874
        },
        {
          "duration": 0,
          "durationTicks": 0,
          "midi": 57,
          "name": "A3",
          "ticks": 173803,
          "time": 226.30598958333334,
          "velocity": 0.09448818897637795
        },
        {
          "duration": 0,
          "durationTicks": 0,
          "midi": 33,
          "name": "A1",
          "ticks": 173812,
          "time": 226.31770833333334,
          "velocity": 0.2992125984251969
        },
        {
          "duration": 0,
          "durationTicks": 0,
          "midi": 31,
          "name": "G1",
          "ticks": 173858,
          "time": 226.37760416666666,
          "velocity": 0.29133858267716534
        },
        {
          "duration": 0,
          "durationTicks": 0,
          "midi": 71,
          "name": "B4",
          "ticks": 173894,
          "time": 226.42447916666666,
          "velocity": 0.15748031496062992
        },
        {
          "duration": 0,
          "durationTicks": 0,
          "midi": 45,
          "name": "A2",
          "ticks": 173930,
          "time": 226.47135416666666,
          "velocity": 0.23622047244094488
        },
        {
          "duration": 0,
          "durationTicks": 0,
          "midi": 64,
          "name": "E4",
          "ticks": 173930,
          "time": 226.47135416666666,
          "velocity": 0.2125984251968504
        },
        {
          "duration": 0.3763020833333428,
          "durationTicks": 289,
          "midi": 72,
          "name": "C5",
          "ticks": 173930,
          "time": 226.47135416666666,
          "velocity": 0.2204724409448819
        },
        {
          "duration": 0,
          "durationTicks": 0,
          "midi": 63,
          "name": "D#4",
          "ticks": 173948,
          "time": 226.49479166666666,
          "velocity": 0.2204724409448819
        },
        {
          "duration": 0.1263020833333428,
          "durationTicks": 97,
          "midi": 80,
          "name": "G#5",
          "ticks": 173948,
          "time": 226.49479166666666,
          "velocity": 0.08661417322834646
        },
        {
          "duration": 0,
          "durationTicks": 0,
          "midi": 77,
          "name": "F5",
          "ticks": 173957,
          "time": 226.50651041666666,
          "velocity": 0.18110236220472442
        },
        {
          "duration": 0.3776041666666572,
          "durationTicks": 290,
          "midi": 68,
          "name": "G#4",
          "ticks": 173967,
          "time": 226.51953125,
          "velocity": 0.2992125984251969
        },
        {
          "duration": 0,
          "durationTicks": 0,
          "midi": 78,
          "name": "F#5",
          "ticks": 173976,
          "time": 226.53125,
          "velocity": 0.09448818897637795
        },
        {
          "duration": 0,
          "durationTicks": 0,
          "midi": 53,
          "name": "F3",
          "ticks": 173976,
          "time": 226.53125,
          "velocity": 0.05511811023622047
        },
        {
          "duration": 0,
          "durationTicks": 0,
          "midi": 33,
          "name": "A1",
          "ticks": 173985,
          "time": 226.54296875,
          "velocity": 0.3464566929133858
        },
        {
          "duration": 0,
          "durationTicks": 0,
          "midi": 64,
          "name": "E4",
          "ticks": 173985,
          "time": 226.54296875,
          "velocity": 0.2125984251968504
        },
        {
          "duration": 0,
          "durationTicks": 0,
          "midi": 34,
          "name": "A#1",
          "ticks": 174003,
          "time": 226.56640625,
          "velocity": 0.33070866141732286
        },
        {
          "duration": 0,
          "durationTicks": 0,
          "midi": 77,
          "name": "F5",
          "ticks": 174003,
          "time": 226.56640625,
          "velocity": 0.18110236220472442
        },
        {
          "duration": 0,
          "durationTicks": 0,
          "midi": 63,
          "name": "D#4",
          "ticks": 174020,
          "time": 226.58854166666666,
          "velocity": 0.2440944881889764
        },
        {
          "duration": 0,
          "durationTicks": 0,
          "midi": 56,
          "name": "G#3",
          "ticks": 174030,
          "time": 226.6015625,
          "velocity": 0.1732283464566929
        },
        {
          "duration": 0.37890625,
          "durationTicks": 291,
          "midi": 34,
          "name": "A#1",
          "ticks": 174030,
          "time": 226.6015625,
          "velocity": 0.33070866141732286
        },
        {
          "duration": 0,
          "durationTicks": 0,
          "midi": 63,
          "name": "D#4",
          "ticks": 174047,
          "time": 226.62369791666666,
          "velocity": 0.25984251968503935
        },
        {
          "duration": 0,
          "durationTicks": 0,
          "midi": 61,
          "name": "C#4",
          "ticks": 174057,
          "time": 226.63671875,
          "velocity": 0.2204724409448819
        },
        {
          "duration": 0.125,
          "durationTicks": 96,
          "midi": 53,
          "name": "F3",
          "ticks": 174074,
          "time": 226.65885416666666,
          "velocity": 0.2047244094488189
        },
        {
          "duration": 0.2526041666666572,
          "durationTicks": 194,
          "midi": 63,
          "name": "D#4",
          "ticks": 174084,
          "time": 226.671875,
          "velocity": 0.2440944881889764
        },
        {
          "duration": 0,
          "durationTicks": 0,
          "midi": 79,
          "name": "G5",
          "ticks": 174101,
          "time": 226.69401041666666,
          "velocity": 0.2204724409448819
        },
        {
          "duration": 0.125,
          "durationTicks": 96,
          "midi": 87,
          "name": "D#6",
          "ticks": 174119,
          "time": 226.71744791666666,
          "velocity": 0.07874015748031496
        },
        {
          "duration": 0.12630208333331439,
          "durationTicks": 97,
          "midi": 77,
          "name": "F5",
          "ticks": 174136,
          "time": 226.73958333333334,
          "velocity": 0.1889763779527559
        },
        {
          "duration": 0.09635416666665719,
          "durationTicks": 74,
          "midi": 73,
          "name": "C#5",
          "ticks": 174190,
          "time": 226.80989583333334,
          "velocity": 0.23622047244094488
        },
        {
          "duration": 0,
          "durationTicks": 0,
          "midi": 82,
          "name": "A#5",
          "ticks": 174226,
          "time": 226.85677083333334,
          "velocity": 0.1732283464566929
        },
        {
          "duration": 0.12890625,
          "durationTicks": 99,
          "midi": 91,
          "name": "G6",
          "ticks": 174236,
          "time": 226.86979166666666,
          "velocity": 0.2283464566929134
        },
        {
          "duration": 0,
          "durationTicks": 0,
          "midi": 72,
          "name": "C5",
          "ticks": 174245,
          "time": 226.88151041666666,
          "velocity": 0.2047244094488189
        },
        {
          "duration": 0,
          "durationTicks": 0,
          "midi": 64,
          "name": "E4",
          "ticks": 174254,
          "time": 226.89322916666666,
          "velocity": 0.2125984251968504
        },
        {
          "duration": 0.12890625,
          "durationTicks": 99,
          "midi": 56,
          "name": "G#3",
          "ticks": 174254,
          "time": 226.89322916666666,
          "velocity": 0.1889763779527559
        },
        {
          "duration": 0.03255208333334281,
          "durationTicks": 25,
          "midi": 73,
          "name": "C#5",
          "ticks": 174264,
          "time": 226.90625,
          "velocity": 0.2125984251968504
        },
        {
          "duration": 0.1276041666666572,
          "durationTicks": 98,
          "midi": 89,
          "name": "F6",
          "ticks": 174273,
          "time": 226.91796875,
          "velocity": 0.2125984251968504
        },
        {
          "duration": 0.2552083333333428,
          "durationTicks": 196,
          "midi": 63,
          "name": "D#4",
          "ticks": 174273,
          "time": 226.91796875,
          "velocity": 0.23622047244094488
        },
        {
          "duration": 0.1276041666666572,
          "durationTicks": 98,
          "midi": 68,
          "name": "G#4",
          "ticks": 174282,
          "time": 226.9296875,
          "velocity": 0.2440944881889764
        },
        {
          "duration": 0.1276041666666572,
          "durationTicks": 98,
          "midi": 72,
          "name": "C5",
          "ticks": 174282,
          "time": 226.9296875,
          "velocity": 0.25196850393700787
        },
        {
          "duration": 0,
          "durationTicks": 0,
          "midi": 79,
          "name": "G5",
          "ticks": 174301,
          "time": 226.95442708333334,
          "velocity": 0.11811023622047244
        },
        {
          "duration": 0,
          "durationTicks": 0,
          "midi": 34,
          "name": "A#1",
          "ticks": 174328,
          "time": 226.98958333333334,
          "velocity": 0.3464566929133858
        },
        {
          "duration": 0.1276041666666572,
          "durationTicks": 98,
          "midi": 85,
          "name": "C#6",
          "ticks": 174328,
          "time": 226.98958333333334,
          "velocity": 0.2204724409448819
        },
        {
          "duration": 0,
          "durationTicks": 0,
          "midi": 78,
          "name": "F#5",
          "ticks": 174337,
          "time": 227.00130208333334,
          "velocity": 0.08661417322834646
        },
        {
          "duration": 0,
          "durationTicks": 0,
          "midi": 35,
          "name": "B1",
          "ticks": 174346,
          "time": 227.01302083333334,
          "velocity": 0.3464566929133858
        },
        {
          "duration": 0,
          "durationTicks": 0,
          "midi": 75,
          "name": "D#5",
          "ticks": 174356,
          "time": 227.02604166666666,
          "velocity": 0.23622047244094488
        },
        {
          "duration": 0,
          "durationTicks": 0,
          "midi": 77,
          "name": "F5",
          "ticks": 174373,
          "time": 227.04817708333334,
          "velocity": 0.13385826771653545
        },
        {
          "duration": 0,
          "durationTicks": 0,
          "midi": 53,
          "name": "F3",
          "ticks": 174383,
          "time": 227.06119791666666,
          "velocity": 0.1732283464566929
        },
        {
          "duration": 0.12760416666668561,
          "durationTicks": 98,
          "midi": 84,
          "name": "C6",
          "ticks": 174383,
          "time": 227.06119791666666,
          "velocity": 0.25984251968503935
        },
        {
          "duration": 0,
          "durationTicks": 0,
          "midi": 34,
          "name": "A#1",
          "ticks": 174392,
          "time": 227.07291666666666,
          "velocity": 0.33070866141732286
        },
        {
          "duration": 0,
          "durationTicks": 0,
          "midi": 66,
          "name": "F#4",
          "ticks": 174428,
          "time": 227.11979166666666,
          "velocity": 0.23622047244094488
        },
        {
          "duration": 0,
          "durationTicks": 0,
          "midi": 61,
          "name": "C#4",
          "ticks": 174437,
          "time": 227.13151041666666,
          "velocity": 0.2283464566929134
        },
        {
          "duration": 0,
          "durationTicks": 0,
          "midi": 53,
          "name": "F3",
          "ticks": 174437,
          "time": 227.13151041666666,
          "velocity": 0.14960629921259844
        },
        {
          "duration": 0.12760416666668561,
          "durationTicks": 98,
          "midi": 35,
          "name": "B1",
          "ticks": 174437,
          "time": 227.13151041666666,
          "velocity": 0.30708661417322836
        },
        {
          "duration": 0,
          "durationTicks": 0,
          "midi": 65,
          "name": "F4",
          "ticks": 174447,
          "time": 227.14453125,
          "velocity": 0.2204724409448819
        },
        {
          "duration": 0,
          "durationTicks": 0,
          "midi": 69,
          "name": "A4",
          "ticks": 174447,
          "time": 227.14453125,
          "velocity": 0.1968503937007874
        },
        {
          "duration": 0,
          "durationTicks": 0,
          "midi": 72,
          "name": "C5",
          "ticks": 174447,
          "time": 227.14453125,
          "velocity": 0.06299212598425197
        },
        {
          "duration": 0,
          "durationTicks": 0,
          "midi": 91,
          "name": "G6",
          "ticks": 174447,
          "time": 227.14453125,
          "velocity": 0.07086614173228346
        },
        {
          "duration": 0.1276041666666572,
          "durationTicks": 98,
          "midi": 77,
          "name": "F5",
          "ticks": 174447,
          "time": 227.14453125,
          "velocity": 0.25984251968503935
        },
        {
          "duration": 0,
          "durationTicks": 0,
          "midi": 60,
          "name": "C4",
          "ticks": 174456,
          "time": 227.15625,
          "velocity": 0.25984251968503935
        },
        {
          "duration": 0,
          "durationTicks": 0,
          "midi": 59,
          "name": "B3",
          "ticks": 174474,
          "time": 227.1796875,
          "velocity": 0.1732283464566929
        },
        {
          "duration": 0,
          "durationTicks": 0,
          "midi": 62,
          "name": "D4",
          "ticks": 174483,
          "time": 227.19140625,
          "velocity": 0.2204724409448819
        },
        {
          "duration": 0,
          "durationTicks": 0,
          "midi": 57,
          "name": "A3",
          "ticks": 174492,
          "time": 227.203125,
          "velocity": 0.2283464566929134
        },
        {
          "duration": 0,
          "durationTicks": 0,
          "midi": 66,
          "name": "F#4",
          "ticks": 174492,
          "time": 227.203125,
          "velocity": 0.2125984251968504
        },
        {
          "duration": 0.1276041666666572,
          "durationTicks": 98,
          "midi": 34,
          "name": "A#1",
          "ticks": 174492,
          "time": 227.203125,
          "velocity": 0.30708661417322836
        },
        {
          "duration": 0,
          "durationTicks": 0,
          "midi": 65,
          "name": "F4",
          "ticks": 174519,
          "time": 227.23828125,
          "velocity": 0.1968503937007874
        },
        {
          "duration": 0,
          "durationTicks": 0,
          "midi": 60,
          "name": "C4",
          "ticks": 174528,
          "time": 227.25,
          "velocity": 0.1968503937007874
        },
        {
          "duration": 0,
          "durationTicks": 0,
          "midi": 64,
          "name": "E4",
          "ticks": 174528,
          "time": 227.25,
          "velocity": 0.1889763779527559
        },
        {
          "duration": 0,
          "durationTicks": 0,
          "midi": 73,
          "name": "C#5",
          "ticks": 174528,
          "time": 227.25,
          "velocity": 0.2047244094488189
        },
        {
          "duration": 0,
          "durationTicks": 0,
          "midi": 54,
          "name": "F#3",
          "ticks": 174538,
          "time": 227.26302083333334,
          "velocity": 0.2283464566929134
        },
        {
          "duration": 0,
          "durationTicks": 0,
          "midi": 59,
          "name": "B3",
          "ticks": 174547,
          "time": 227.27473958333334,
          "velocity": 0.2204724409448819
        },
        {
          "duration": 0,
          "durationTicks": 0,
          "midi": 63,
          "name": "D#4",
          "ticks": 174547,
          "time": 227.27473958333334,
          "velocity": 0.2047244094488189
        },
        {
          "duration": 0,
          "durationTicks": 0,
          "midi": 53,
          "name": "F3",
          "ticks": 174565,
          "time": 227.29817708333334,
          "velocity": 0.2047244094488189
        },
        {
          "duration": 0,
          "durationTicks": 0,
          "midi": 58,
          "name": "A#3",
          "ticks": 174565,
          "time": 227.29817708333334,
          "velocity": 0.2047244094488189
        },
        {
          "duration": 0,
          "durationTicks": 0,
          "midi": 72,
          "name": "C5",
          "ticks": 174565,
          "time": 227.29817708333334,
          "velocity": 0.18110236220472442
        },
        {
          "duration": 0.12630208333331439,
          "durationTicks": 97,
          "midi": 80,
          "name": "G#5",
          "ticks": 174565,
          "time": 227.29817708333334,
          "velocity": 0.2125984251968504
        },
        {
          "duration": 0,
          "durationTicks": 0,
          "midi": 68,
          "name": "G#4",
          "ticks": 174574,
          "time": 227.30989583333334,
          "velocity": 0.13385826771653545
        },
        {
          "duration": 0.12630208333331439,
          "durationTicks": 97,
          "midi": 84,
          "name": "C6",
          "ticks": 174574,
          "time": 227.30989583333334,
          "velocity": 0.2283464566929134
        },
        {
          "duration": 0,
          "durationTicks": 0,
          "midi": 52,
          "name": "E3",
          "ticks": 174583,
          "time": 227.32161458333334,
          "velocity": 0.2204724409448819
        },
        {
          "duration": 0,
          "durationTicks": 0,
          "midi": 60,
          "name": "C4",
          "ticks": 174583,
          "time": 227.32161458333334,
          "velocity": 0.1968503937007874
        },
        {
          "duration": 0,
          "durationTicks": 0,
          "midi": 68,
          "name": "G#4",
          "ticks": 174610,
          "time": 227.35677083333334,
          "velocity": 0.14960629921259844
        },
        {
          "duration": 0,
          "durationTicks": 0,
          "midi": 32,
          "name": "G#1",
          "ticks": 174628,
          "time": 227.38020833333334,
          "velocity": 0.2992125984251969
        },
        {
          "duration": 0,
          "durationTicks": 0,
          "midi": 31,
          "name": "G1",
          "ticks": 174645,
          "time": 227.40234375,
          "velocity": 0.2992125984251969
        },
        {
          "duration": 0.12630208333331439,
          "durationTicks": 97,
          "midi": 85,
          "name": "C#6",
          "ticks": 174655,
          "time": 227.41536458333334,
          "velocity": 0.2204724409448819
        },
        {
          "duration": 0,
          "durationTicks": 0,
          "midi": 30,
          "name": "F#1",
          "ticks": 174664,
          "time": 227.42708333333334,
          "velocity": 0.30708661417322836
        },
        {
          "duration": 0,
          "durationTicks": 0,
          "midi": 65,
          "name": "F4",
          "ticks": 174664,
          "time": 227.42708333333334,
          "velocity": 0.14960629921259844
        },
        {
          "duration": 0.12630208333331439,
          "durationTicks": 97,
          "midi": 77,
          "name": "F5",
          "ticks": 174673,
          "time": 227.43880208333334,
          "velocity": 0.1968503937007874
        },
        {
          "duration": 0,
          "durationTicks": 0,
          "midi": 28,
          "name": "E1",
          "ticks": 174691,
          "time": 227.46223958333334,
          "velocity": 0.30708661417322836
        },
        {
          "duration": 0,
          "durationTicks": 0,
          "midi": 47,
          "name": "B2",
          "ticks": 174691,
          "time": 227.46223958333334,
          "velocity": 0.07874015748031496
        },
        {
          "duration": 0.08203125,
          "durationTicks": 63,
          "midi": 80,
          "name": "G#5",
          "ticks": 174700,
          "time": 227.47395833333334,
          "velocity": 0.18110236220472442
        },
        {
          "duration": 0.12630208333331439,
          "durationTicks": 97,
          "midi": 73,
          "name": "C#5",
          "ticks": 174700,
          "time": 227.47395833333334,
          "velocity": 0.2125984251968504
        },
        {
          "duration": 0,
          "durationTicks": 0,
          "midi": 27,
          "name": "D#1",
          "ticks": 174709,
          "time": 227.48567708333334,
          "velocity": 0.30708661417322836
        },
        {
          "duration": 0.12630208333331439,
          "durationTicks": 97,
          "midi": 89,
          "name": "F6",
          "ticks": 174709,
          "time": 227.48567708333334,
          "velocity": 0.2047244094488189
        },
        {
          "duration": 0,
          "durationTicks": 0,
          "midi": 25,
          "name": "C#1",
          "ticks": 174736,
          "time": 227.52083333333334,
          "velocity": 0.29133858267716534
        },
        {
          "duration": 0,
          "durationTicks": 0,
          "midi": 24,
          "name": "C1",
          "ticks": 174754,
          "time": 227.54427083333334,
          "velocity": 0.29133858267716534
        },
        {
          "duration": 0,
          "durationTicks": 0,
          "midi": 79,
          "name": "G5",
          "ticks": 174754,
          "time": 227.54427083333334,
          "velocity": 0.13385826771653545
        },
        {
          "duration": 0,
          "durationTicks": 0,
          "midi": 92,
          "name": "G#6",
          "ticks": 174754,
          "time": 227.54427083333334,
          "velocity": 0.2283464566929134
        },
        {
          "duration": 0.044270833333314386,
          "durationTicks": 34,
          "midi": 80,
          "name": "G#5",
          "ticks": 174763,
          "time": 227.55598958333334,
          "velocity": 0.08661417322834646
        },
        {
          "duration": 0,
          "durationTicks": 0,
          "midi": 72,
          "name": "C5",
          "ticks": 174763,
          "time": 227.55598958333334,
          "velocity": 0.13385826771653545
        },
        {
          "duration": 0.12630208333331439,
          "durationTicks": 97,
          "midi": 91,
          "name": "G6",
          "ticks": 174790,
          "time": 227.59114583333334,
          "velocity": 0.1732283464566929
        },
        {
          "duration": 0,
          "durationTicks": 0,
          "midi": 73,
          "name": "C#5",
          "ticks": 174799,
          "time": 227.60286458333334,
          "velocity": 0.1732283464566929
        },
        {
          "duration": 0,
          "durationTicks": 0,
          "midi": 66,
          "name": "F#4",
          "ticks": 174799,
          "time": 227.60286458333334,
          "velocity": 0.09448818897637795
        },
        {
          "duration": 0.25,
          "durationTicks": 192,
          "midi": 48,
          "name": "C3",
          "ticks": 174809,
          "time": 227.61588541666666,
          "velocity": 0.08661417322834646
        },
        {
          "duration": 0.25,
          "durationTicks": 192,
          "midi": 29,
          "name": "F1",
          "ticks": 174809,
          "time": 227.61588541666666,
          "velocity": 0.3700787401574803
        },
        {
          "duration": 0.125,
          "durationTicks": 96,
          "midi": 87,
          "name": "D#6",
          "ticks": 174836,
          "time": 227.65104166666666,
          "velocity": 0.14173228346456693
        },
        {
          "duration": 0,
          "durationTicks": 0,
          "midi": 79,
          "name": "G5",
          "ticks": 174853,
          "time": 227.67317708333334,
          "velocity": 0.11023622047244094
        },
        {
          "duration": 0.125,
          "durationTicks": 96,
          "midi": 84,
          "name": "C6",
          "ticks": 174880,
          "time": 227.70833333333334,
          "velocity": 0.1732283464566929
        },
        {
          "duration": 0,
          "durationTicks": 0,
          "midi": 79,
          "name": "G5",
          "ticks": 174899,
          "time": 227.73307291666666,
          "velocity": 0.12598425196850394
        },
        {
          "duration": 0,
          "durationTicks": 0,
          "midi": 75,
          "name": "D#5",
          "ticks": 174916,
          "time": 227.75520833333334,
          "velocity": 0.11023622047244094
        },
        {
          "duration": 0.125,
          "durationTicks": 96,
          "midi": 82,
          "name": "A#5",
          "ticks": 174934,
          "time": 227.77864583333334,
          "velocity": 0.1732283464566929
        },
        {
          "duration": 0,
          "durationTicks": 0,
          "midi": 75,
          "name": "D#5",
          "ticks": 174961,
          "time": 227.81380208333334,
          "velocity": 0.13385826771653545
        },
        {
          "duration": 0,
          "durationTicks": 0,
          "midi": 72,
          "name": "C5",
          "ticks": 174978,
          "time": 227.8359375,
          "velocity": 0.11023622047244094
        },
        {
          "duration": 0.125,
          "durationTicks": 96,
          "midi": 80,
          "name": "G#5",
          "ticks": 174978,
          "time": 227.8359375,
          "velocity": 0.1732283464566929
        },
        {
          "duration": 0.125,
          "durationTicks": 96,
          "midi": 79,
          "name": "G5",
          "ticks": 175032,
          "time": 227.90625,
          "velocity": 0.13385826771653545
        },
        {
          "duration": 0.125,
          "durationTicks": 96,
          "midi": 75,
          "name": "D#5",
          "ticks": 175059,
          "time": 227.94140625,
          "velocity": 0.15748031496062992
        },
        {
          "duration": 0.125,
          "durationTicks": 96,
          "midi": 91,
          "name": "G6",
          "ticks": 175077,
          "time": 227.96484375,
          "velocity": 0.13385826771653545
        },
        {
          "duration": 0,
          "durationTicks": 0,
          "midi": 87,
          "name": "D#6",
          "ticks": 175121,
          "time": 228.02213541666666,
          "velocity": 0.09448818897637795
        },
        {
          "duration": 0,
          "durationTicks": 0,
          "midi": 72,
          "name": "C5",
          "ticks": 175131,
          "time": 228.03515625,
          "velocity": 0.1968503937007874
        },
        {
          "duration": 0,
          "durationTicks": 0,
          "midi": 70,
          "name": "A#4",
          "ticks": 175175,
          "time": 228.09244791666666,
          "velocity": 0.1732283464566929
        },
        {
          "duration": 0.125,
          "durationTicks": 96,
          "midi": 84,
          "name": "C6",
          "ticks": 175175,
          "time": 228.09244791666666,
          "velocity": 0.11811023622047244
        },
        {
          "duration": 0,
          "durationTicks": 0,
          "midi": 82,
          "name": "A#5",
          "ticks": 175220,
          "time": 228.15104166666666,
          "velocity": 0.11023622047244094
        },
        {
          "duration": 0.1263020833333428,
          "durationTicks": 97,
          "midi": 68,
          "name": "G#4",
          "ticks": 175229,
          "time": 228.16276041666666,
          "velocity": 0.15748031496062992
        },
        {
          "duration": 0,
          "durationTicks": 0,
          "midi": 67,
          "name": "G4",
          "ticks": 175283,
          "time": 228.23307291666666,
          "velocity": 0.16535433070866143
        },
        {
          "duration": 0,
          "durationTicks": 0,
          "midi": 63,
          "name": "D#4",
          "ticks": 175319,
          "time": 228.27994791666666,
          "velocity": 0.14960629921259844
        },
        {
          "duration": 0,
          "durationTicks": 0,
          "midi": 79,
          "name": "G5",
          "ticks": 175319,
          "time": 228.27994791666666,
          "velocity": 0.16535433070866143
        },
        {
          "duration": 0,
          "durationTicks": 0,
          "midi": 91,
          "name": "G6",
          "ticks": 175363,
          "time": 228.33723958333334,
          "velocity": 0.07874015748031496
        },
        {
          "duration": 0,
          "durationTicks": 0,
          "midi": 60,
          "name": "C4",
          "ticks": 175363,
          "time": 228.33723958333334,
          "velocity": 0.14960629921259844
        },
        {
          "duration": 0,
          "durationTicks": 0,
          "midi": 75,
          "name": "D#5",
          "ticks": 175373,
          "time": 228.35026041666666,
          "velocity": 0.1732283464566929
        },
        {
          "duration": 0.1263020833333428,
          "durationTicks": 97,
          "midi": 27,
          "name": "D#1",
          "ticks": 175373,
          "time": 228.35026041666666,
          "velocity": 0.36220472440944884
        },
        {
          "duration": 0.1263020833333428,
          "durationTicks": 97,
          "midi": 46,
          "name": "A#2",
          "ticks": 175373,
          "time": 228.35026041666666,
          "velocity": 0.08661417322834646
        },
        {
          "duration": 0,
          "durationTicks": 0,
          "midi": 58,
          "name": "A#3",
          "ticks": 175409,
          "time": 228.39713541666666,
          "velocity": 0.16535433070866143
        },
        {
          "duration": 0,
          "durationTicks": 0,
          "midi": 72,
          "name": "C5",
          "ticks": 175418,
          "time": 228.40885416666666,
          "velocity": 0.14173228346456693
        },
        {
          "duration": 0.1263020833333428,
          "durationTicks": 97,
          "midi": 56,
          "name": "G#3",
          "ticks": 175454,
          "time": 228.45572916666666,
          "velocity": 0.16535433070866143
        },
        {
          "duration": 0,
          "durationTicks": 0,
          "midi": 84,
          "name": "C6",
          "ticks": 175463,
          "time": 228.46744791666666,
          "velocity": 0.07874015748031496
        },
        {
          "duration": 0,
          "durationTicks": 0,
          "midi": 70,
          "name": "A#4",
          "ticks": 175463,
          "time": 228.46744791666666,
          "velocity": 0.11023622047244094
        },
        {
          "duration": 0,
          "durationTicks": 0,
          "midi": 75,
          "name": "D#5",
          "ticks": 175490,
          "time": 228.50260416666666,
          "velocity": 0.09448818897637795
        },
        {
          "duration": 0,
          "durationTicks": 0,
          "midi": 55,
          "name": "G3",
          "ticks": 175517,
          "time": 228.53776041666666,
          "velocity": 0.16535433070866143
        },
        {
          "duration": 0,
          "durationTicks": 0,
          "midi": 68,
          "name": "G#4",
          "ticks": 175517,
          "time": 228.53776041666666,
          "velocity": 0.09448818897637795
        },
        {
          "duration": 0.2526041666666856,
          "durationTicks": 194,
          "midi": 29,
          "name": "F1",
          "ticks": 175553,
          "time": 228.58463541666666,
          "velocity": 0.36220472440944884
        },
        {
          "duration": 0,
          "durationTicks": 0,
          "midi": 51,
          "name": "D#3",
          "ticks": 175562,
          "time": 228.59635416666666,
          "velocity": 0.1889763779527559
        },
        {
          "duration": 0,
          "durationTicks": 0,
          "midi": 67,
          "name": "G4",
          "ticks": 175562,
          "time": 228.59635416666666,
          "velocity": 0.09448818897637795
        },
        {
          "duration": 0,
          "durationTicks": 0,
          "midi": 80,
          "name": "G#5",
          "ticks": 175571,
          "time": 228.60807291666666,
          "velocity": 0.07874015748031496
        },
        {
          "duration": 0.1263020833333428,
          "durationTicks": 97,
          "midi": 63,
          "name": "D#4",
          "ticks": 175598,
          "time": 228.64322916666666,
          "velocity": 0.11023622047244094
        },
        {
          "duration": 0,
          "durationTicks": 0,
          "midi": 48,
          "name": "C3",
          "ticks": 175616,
          "time": 228.66666666666666,
          "velocity": 0.14173228346456693
        },
        {
          "duration": 0,
          "durationTicks": 0,
          "midi": 79,
          "name": "G5",
          "ticks": 175616,
          "time": 228.66666666666666,
          "velocity": 0.07874015748031496
        },
        {
          "duration": 0,
          "durationTicks": 0,
          "midi": 60,
          "name": "C4",
          "ticks": 175652,
          "time": 228.71354166666666,
          "velocity": 0.10236220472440945
        },
        {
          "duration": 0,
          "durationTicks": 0,
          "midi": 47,
          "name": "B2",
          "ticks": 175661,
          "time": 228.72526041666666,
          "velocity": 0.2047244094488189
        },
        {
          "duration": 0,
          "durationTicks": 0,
          "midi": 58,
          "name": "A#3",
          "ticks": 175698,
          "time": 228.7734375,
          "velocity": 0.12598425196850394
        },
        {
          "duration": 0.125,
          "durationTicks": 96,
          "midi": 72,
          "name": "C5",
          "ticks": 175707,
          "time": 228.78515625,
          "velocity": 0.06299212598425197
        },
        {
          "duration": 0,
          "durationTicks": 0,
          "midi": 56,
          "name": "G#3",
          "ticks": 175751,
          "time": 228.84244791666666,
          "velocity": 0.10236220472440945
        },
        {
          "duration": 0,
          "durationTicks": 0,
          "midi": 39,
          "name": "D#2",
          "ticks": 175796,
          "time": 228.90104166666666,
          "velocity": 0.15748031496062992
        },
        {
          "duration": 0,
          "durationTicks": 0,
          "midi": 55,
          "name": "G3",
          "ticks": 175796,
          "time": 228.90104166666666,
          "velocity": 0.10236220472440945
        },
        {
          "duration": 0,
          "durationTicks": 0,
          "midi": 51,
          "name": "D#3",
          "ticks": 175841,
          "time": 228.95963541666666,
          "velocity": 0.10236220472440945
        },
        {
          "duration": 0,
          "durationTicks": 0,
          "midi": 36,
          "name": "C2",
          "ticks": 175858,
          "time": 228.98177083333334,
          "velocity": 0.16535433070866143
        },
        {
          "duration": 0,
          "durationTicks": 0,
          "midi": 34,
          "name": "A#1",
          "ticks": 175885,
          "time": 229.01692708333334,
          "velocity": 0.16535433070866143
        },
        {
          "duration": 0,
          "durationTicks": 0,
          "midi": 48,
          "name": "C3",
          "ticks": 175894,
          "time": 229.02864583333334,
          "velocity": 0.10236220472440945
        },
        {
          "duration": 0,
          "durationTicks": 0,
          "midi": 43,
          "name": "G2",
          "ticks": 175939,
          "time": 229.08723958333334,
          "velocity": 0.36220472440944884
        },
        {
          "duration": 0.12369791666665719,
          "durationTicks": 95,
          "midi": 62,
          "name": "D4",
          "ticks": 175939,
          "time": 229.08723958333334,
          "velocity": 0.11023622047244094
        },
        {
          "duration": 0,
          "durationTicks": 0,
          "midi": 44,
          "name": "G#2",
          "ticks": 175956,
          "time": 229.109375,
          "velocity": 0.3700787401574803
        },
        {
          "duration": 0,
          "durationTicks": 0,
          "midi": 43,
          "name": "G2",
          "ticks": 175974,
          "time": 229.1328125,
          "velocity": 0.3464566929133858
        },
        {
          "duration": 0,
          "durationTicks": 0,
          "midi": 44,
          "name": "G#2",
          "ticks": 176019,
          "time": 229.19140625,
          "velocity": 0.2755905511811024
        },
        {
          "duration": 0.125,
          "durationTicks": 96,
          "midi": 50,
          "name": "D3",
          "ticks": 176045,
          "time": 229.22526041666666,
          "velocity": 0.10236220472440945
        },
        {
          "duration": 0.125,
          "durationTicks": 96,
          "midi": 31,
          "name": "G1",
          "ticks": 176045,
          "time": 229.22526041666666,
          "velocity": 0.3543307086614173
        },
        {
          "duration": 0,
          "durationTicks": 0,
          "midi": 36,
          "name": "C2",
          "ticks": 176144,
          "time": 229.35416666666666,
          "velocity": 0.11023622047244094
        },
        {
          "duration": 0,
          "durationTicks": 0,
          "midi": 34,
          "name": "A#1",
          "ticks": 176171,
          "time": 229.38932291666666,
          "velocity": 0.11023622047244094
        },
        {
          "duration": 0.125,
          "durationTicks": 96,
          "midi": 63,
          "name": "D#4",
          "ticks": 176215,
          "time": 229.44661458333334,
          "velocity": 0.08661417322834646
        },
        {
          "duration": 0.125,
          "durationTicks": 96,
          "midi": 44,
          "name": "G#2",
          "ticks": 176215,
          "time": 229.44661458333334,
          "velocity": 0.3779527559055118
        },
        {
          "duration": 0.125,
          "durationTicks": 96,
          "midi": 44,
          "name": "G#2",
          "ticks": 176403,
          "time": 229.69140625,
          "velocity": 0.36220472440944884
        },
        {
          "duration": 0.125,
          "durationTicks": 96,
          "midi": 63,
          "name": "D#4",
          "ticks": 176412,
          "time": 229.703125,
          "velocity": 0.08661417322834646
        },
        {
          "duration": 0.125,
          "durationTicks": 96,
          "midi": 32,
          "name": "G#1",
          "ticks": 176510,
          "time": 229.83072916666666,
          "velocity": 0.3464566929133858
        },
        {
          "duration": 0.125,
          "durationTicks": 96,
          "midi": 51,
          "name": "D#3",
          "ticks": 176519,
          "time": 229.84244791666666,
          "velocity": 0.08661417322834646
        },
        {
          "duration": 0.1263020833333428,
          "durationTicks": 97,
          "midi": 51,
          "name": "D#3",
          "ticks": 176699,
          "time": 230.07682291666666,
          "velocity": 0.11023622047244094
        },
        {
          "duration": 0.2526041666666856,
          "durationTicks": 194,
          "midi": 32,
          "name": "G#1",
          "ticks": 176708,
          "time": 230.08854166666666,
          "velocity": 0.3464566929133858
        },
        {
          "duration": 0,
          "durationTicks": 0,
          "midi": 67,
          "name": "G4",
          "ticks": 176744,
          "time": 230.13541666666666,
          "velocity": 0.11023622047244094
        },
        {
          "duration": 0.1263020833333428,
          "durationTicks": 97,
          "midi": 68,
          "name": "G#4",
          "ticks": 176798,
          "time": 230.20572916666666,
          "velocity": 0.13385826771653545
        },
        {
          "duration": 0.1263020833333428,
          "durationTicks": 97,
          "midi": 51,
          "name": "D#3",
          "ticks": 176807,
          "time": 230.21744791666666,
          "velocity": 0.08661417322834646
        },
        {
          "duration": 0,
          "durationTicks": 0,
          "midi": 70,
          "name": "A#4",
          "ticks": 176834,
          "time": 230.25260416666666,
          "velocity": 0.09448818897637795
        },
        {
          "duration": 0.1263020833333428,
          "durationTicks": 97,
          "midi": 75,
          "name": "D#5",
          "ticks": 176861,
          "time": 230.28776041666666,
          "velocity": 0.14173228346456693
        },
        {
          "duration": 0,
          "durationTicks": 0,
          "midi": 79,
          "name": "G5",
          "ticks": 176933,
          "time": 230.38151041666666,
          "velocity": 0.08661417322834646
        },
        {
          "duration": 0,
          "durationTicks": 0,
          "midi": 73,
          "name": "C#5",
          "ticks": 176960,
          "time": 230.41666666666666,
          "velocity": 0.11023622047244094
        },
        {
          "duration": 0,
          "durationTicks": 0,
          "midi": 80,
          "name": "G#5",
          "ticks": 176978,
          "time": 230.44010416666666,
          "velocity": 0.09448818897637795
        },
        {
          "duration": 0.125,
          "durationTicks": 96,
          "midi": 82,
          "name": "A#5",
          "ticks": 177022,
          "time": 230.49739583333334,
          "velocity": 0.11023622047244094
        },
        {
          "duration": 0,
          "durationTicks": 0,
          "midi": 71,
          "name": "B4",
          "ticks": 177049,
          "time": 230.53255208333334,
          "velocity": 0.11811023622047244
        },
        {
          "duration": 0.125,
          "durationTicks": 96,
          "midi": 55,
          "name": "G3",
          "ticks": 177067,
          "time": 230.55598958333334,
          "velocity": 0.11023622047244094
        },
        {
          "duration": 0.2513020833333144,
          "durationTicks": 193,
          "midi": 36,
          "name": "C2",
          "ticks": 177067,
          "time": 230.55598958333334,
          "velocity": 0.36220472440944884
        },
        {
          "duration": 0,
          "durationTicks": 0,
          "midi": 87,
          "name": "D#6",
          "ticks": 177076,
          "time": 230.56770833333334,
          "velocity": 0.08661417322834646
        },
        {
          "duration": 0,
          "durationTicks": 0,
          "midi": 70,
          "name": "A#4",
          "ticks": 177094,
          "time": 230.59114583333334,
          "velocity": 0.14173228346456693
        },
        {
          "duration": 0.12630208333331439,
          "durationTicks": 97,
          "midi": 67,
          "name": "G4",
          "ticks": 177121,
          "time": 230.62630208333334,
          "velocity": 0.1889763779527559
        },
        {
          "duration": 0,
          "durationTicks": 0,
          "midi": 72,
          "name": "C5",
          "ticks": 177175,
          "time": 230.69661458333334,
          "velocity": 0.12598425196850394
        },
        {
          "duration": 0,
          "durationTicks": 0,
          "midi": 68,
          "name": "G#4",
          "ticks": 177184,
          "time": 230.70833333333334,
          "velocity": 0.2440944881889764
        },
        {
          "duration": 0,
          "durationTicks": 0,
          "midi": 55,
          "name": "G3",
          "ticks": 177211,
          "time": 230.74348958333334,
          "velocity": 0.10236220472440945
        },
        {
          "duration": 0,
          "durationTicks": 0,
          "midi": 70,
          "name": "A#4",
          "ticks": 177220,
          "time": 230.75520833333334,
          "velocity": 0.2125984251968504
        },
        {
          "duration": 0.125,
          "durationTicks": 96,
          "midi": 67,
          "name": "G4",
          "ticks": 177238,
          "time": 230.77864583333334,
          "velocity": 0.1732283464566929
        },
        {
          "duration": 0.125,
          "durationTicks": 96,
          "midi": 75,
          "name": "D#5",
          "ticks": 177255,
          "time": 230.80078125,
          "velocity": 0.18110236220472442
        },
        {
          "duration": 0.25,
          "durationTicks": 192,
          "midi": 48,
          "name": "C3",
          "ticks": 177255,
          "time": 230.80078125,
          "velocity": 0.36220472440944884
        },
        {
          "duration": 0,
          "durationTicks": 0,
          "midi": 79,
          "name": "G5",
          "ticks": 177309,
          "time": 230.87109375,
          "velocity": 0.1968503937007874
        },
        {
          "duration": 0,
          "durationTicks": 0,
          "midi": 69,
          "name": "A4",
          "ticks": 177318,
          "time": 230.8828125,
          "velocity": 0.12598425196850394
        },
        {
          "duration": 0.125,
          "durationTicks": 96,
          "midi": 80,
          "name": "G#5",
          "ticks": 177354,
          "time": 230.9296875,
          "velocity": 0.1889763779527559
        },
        {
          "duration": 0.125,
          "durationTicks": 96,
          "midi": 67,
          "name": "G4",
          "ticks": 177381,
          "time": 230.96484375,
          "velocity": 0.1732283464566929
        },
        {
          "duration": 0.125,
          "durationTicks": 96,
          "midi": 82,
          "name": "A#5",
          "ticks": 177398,
          "time": 230.98697916666666,
          "velocity": 0.2047244094488189
        },
        {
          "duration": 0.125,
          "durationTicks": 96,
          "midi": 87,
          "name": "D#6",
          "ticks": 177443,
          "time": 231.04557291666666,
          "velocity": 0.18110236220472442
        },
        {
          "duration": 0,
          "durationTicks": 0,
          "midi": 35,
          "name": "B1",
          "ticks": 177452,
          "time": 231.05729166666666,
          "velocity": 0.3543307086614173
        },
        {
          "duration": 0.2513020833333428,
          "durationTicks": 193,
          "midi": 34,
          "name": "A#1",
          "ticks": 177470,
          "time": 231.08072916666666,
          "velocity": 0.3543307086614173
        },
        {
          "duration": 0.2513020833333428,
          "durationTicks": 193,
          "midi": 53,
          "name": "F3",
          "ticks": 177470,
          "time": 231.08072916666666,
          "velocity": 0.08661417322834646
        },
        {
          "duration": 0.12630208333331439,
          "durationTicks": 97,
          "midi": 67,
          "name": "G4",
          "ticks": 177496,
          "time": 231.11458333333334,
          "velocity": 0.11023622047244094
        },
        {
          "duration": 0,
          "durationTicks": 0,
          "midi": 68,
          "name": "G#4",
          "ticks": 177550,
          "time": 231.18489583333334,
          "velocity": 0.12598425196850394
        },
        {
          "duration": 0.125,
          "durationTicks": 96,
          "midi": 70,
          "name": "A#4",
          "ticks": 177586,
          "time": 231.23177083333334,
          "velocity": 0.11811023622047244
        },
        {
          "duration": 0,
          "durationTicks": 0,
          "midi": 75,
          "name": "D#5",
          "ticks": 177640,
          "time": 231.30208333333334,
          "velocity": 0.11023622047244094
        },
        {
          "duration": 0.125,
          "durationTicks": 96,
          "midi": 65,
          "name": "F4",
          "ticks": 177640,
          "time": 231.30208333333334,
          "velocity": 0.08661417322834646
        },
        {
          "duration": 0.24869791666668561,
          "durationTicks": 191,
          "midi": 46,
          "name": "A#2",
          "ticks": 177650,
          "time": 231.31510416666666,
          "velocity": 0.3464566929133858
        },
        {
          "duration": 0,
          "durationTicks": 0,
          "midi": 79,
          "name": "G5",
          "ticks": 177685,
          "time": 231.36067708333334,
          "velocity": 0.12598425196850394
        },
        {
          "duration": 0.125,
          "durationTicks": 96,
          "midi": 80,
          "name": "G#5",
          "ticks": 177729,
          "time": 231.41796875,
          "velocity": 0.13385826771653545
        },
        {
          "duration": 0,
          "durationTicks": 0,
          "midi": 65,
          "name": "F4",
          "ticks": 177783,
          "time": 231.48828125,
          "velocity": 0.07086614173228346
        },
        {
          "duration": 0,
          "durationTicks": 0,
          "midi": 82,
          "name": "A#5",
          "ticks": 177783,
          "time": 231.48828125,
          "velocity": 0.11811023622047244
        },
        {
          "duration": 0.125,
          "durationTicks": 96,
          "midi": 87,
          "name": "D#6",
          "ticks": 177828,
          "time": 231.546875,
          "velocity": 0.11023622047244094
        },
        {
          "duration": 0.125,
          "durationTicks": 96,
          "midi": 29,
          "name": "F1",
          "ticks": 177828,
          "time": 231.546875,
          "velocity": 0.36220472440944884
        },
        {
          "duration": 0.2513020833333428,
          "durationTicks": 193,
          "midi": 91,
          "name": "G6",
          "ticks": 177828,
          "time": 231.546875,
          "velocity": 0.14960629921259844
        },
        {
          "duration": 0.1263020833333428,
          "durationTicks": 97,
          "midi": 48,
          "name": "C3",
          "ticks": 177845,
          "time": 231.56901041666666,
          "velocity": 0.08661417322834646
        },
        {
          "duration": 0,
          "durationTicks": 0,
          "midi": 67,
          "name": "G4",
          "ticks": 177881,
          "time": 231.61588541666666,
          "velocity": 0.10236220472440945
        },
        {
          "duration": 0,
          "durationTicks": 0,
          "midi": 68,
          "name": "G#4",
          "ticks": 177935,
          "time": 231.68619791666666,
          "velocity": 0.05511811023622047
        },
        {
          "duration": 0,
          "durationTicks": 0,
          "midi": 70,
          "name": "A#4",
          "ticks": 177971,
          "time": 231.73307291666666,
          "velocity": 0.06299212598425197
        },
        {
          "duration": 0,
          "durationTicks": 0,
          "midi": 88,
          "name": "E6",
          "ticks": 177998,
          "time": 231.76822916666666,
          "velocity": 0.14173228346456693
        },
        {
          "duration": 0.1263020833333428,
          "durationTicks": 97,
          "midi": 48,
          "name": "C3",
          "ticks": 178025,
          "time": 231.80338541666666,
          "velocity": 0.08661417322834646
        },
        {
          "duration": 0.1263020833333428,
          "durationTicks": 97,
          "midi": 29,
          "name": "F1",
          "ticks": 178025,
          "time": 231.80338541666666,
          "velocity": 0.36220472440944884
        },
        {
          "duration": 0,
          "durationTicks": 0,
          "midi": 75,
          "name": "D#5",
          "ticks": 178035,
          "time": 231.81640625,
          "velocity": 0.05511811023622047
        },
        {
          "duration": 0,
          "durationTicks": 0,
          "midi": 85,
          "name": "C#6",
          "ticks": 178052,
          "time": 231.83854166666666,
          "velocity": 0.13385826771653545
        },
        {
          "duration": 0,
          "durationTicks": 0,
          "midi": 79,
          "name": "G5",
          "ticks": 178079,
          "time": 231.87369791666666,
          "velocity": 0.05511811023622047
        },
        {
          "duration": 0,
          "durationTicks": 0,
          "midi": 80,
          "name": "G#5",
          "ticks": 178115,
          "time": 231.92057291666666,
          "velocity": 0.06299212598425197
        },
        {
          "duration": 0.2513020833333428,
          "durationTicks": 193,
          "midi": 91,
          "name": "G6",
          "ticks": 178115,
          "time": 231.92057291666666,
          "velocity": 0.10236220472440945
        },
        {
          "duration": 0,
          "durationTicks": 0,
          "midi": 82,
          "name": "A#5",
          "ticks": 178169,
          "time": 231.99088541666666,
          "velocity": 0.06299212598425197
        },
        {
          "duration": 0.2513020833333428,
          "durationTicks": 193,
          "midi": 41,
          "name": "F2",
          "ticks": 178205,
          "time": 232.03776041666666,
          "velocity": 0.36220472440944884
        },
        {
          "duration": 0.2513020833333428,
          "durationTicks": 193,
          "midi": 60,
          "name": "C4",
          "ticks": 178215,
          "time": 232.05078125,
          "velocity": 0.07874015748031496
        },
        {
          "duration": 0,
          "durationTicks": 0,
          "midi": 87,
          "name": "D#6",
          "ticks": 178224,
          "time": 232.0625,
          "velocity": 0.05511811023622047
        },
        {
          "duration": 0,
          "durationTicks": 0,
          "midi": 88,
          "name": "E6",
          "ticks": 178286,
          "time": 232.14322916666666,
          "velocity": 0.08661417322834646
        },
        {
          "duration": 0,
          "durationTicks": 0,
          "midi": 85,
          "name": "C#6",
          "ticks": 178340,
          "time": 232.21354166666666,
          "velocity": 0.07874015748031496
        },
        {
          "duration": 0.25,
          "durationTicks": 192,
          "midi": 91,
          "name": "G6",
          "ticks": 178403,
          "time": 232.29557291666666,
          "velocity": 0.06299212598425197
        },
        {
          "duration": 0.125,
          "durationTicks": 96,
          "midi": 27,
          "name": "D#1",
          "ticks": 178421,
          "time": 232.31901041666666,
          "velocity": 0.36220472440944884
        },
        {
          "duration": 0.125,
          "durationTicks": 96,
          "midi": 46,
          "name": "A#2",
          "ticks": 178421,
          "time": 232.31901041666666,
          "velocity": 0.11023622047244094
        },
        {
          "duration": 0.25,
          "durationTicks": 192,
          "midi": 48,
          "name": "C3",
          "ticks": 178600,
          "time": 232.55208333333334,
          "velocity": 0.08661417322834646
        },
        {
          "duration": 0.25,
          "durationTicks": 192,
          "midi": 29,
          "name": "F1",
          "ticks": 178600,
          "time": 232.55208333333334,
          "velocity": 0.36220472440944884
        },
        {
          "duration": 0,
          "durationTicks": 0,
          "midi": 44,
          "name": "G#2",
          "ticks": 178966,
          "time": 233.02864583333334,
          "velocity": 0.3464566929133858
        },
        {
          "duration": 0.125,
          "durationTicks": 96,
          "midi": 62,
          "name": "D4",
          "ticks": 178975,
          "time": 233.04036458333334,
          "velocity": 0.08661417322834646
        },
        {
          "duration": 0.125,
          "durationTicks": 96,
          "midi": 43,
          "name": "G2",
          "ticks": 178985,
          "time": 233.05338541666666,
          "velocity": 0.3464566929133858
        },
        {
          "duration": 0.125,
          "durationTicks": 96,
          "midi": 31,
          "name": "G1",
          "ticks": 179074,
          "time": 233.16927083333334,
          "velocity": 0.3543307086614173
        },
        {
          "duration": 0.125,
          "durationTicks": 96,
          "midi": 50,
          "name": "D3",
          "ticks": 179083,
          "time": 233.18098958333334,
          "velocity": 0.08661417322834646
        },
        {
          "duration": 0.125,
          "durationTicks": 96,
          "midi": 44,
          "name": "G#2",
          "ticks": 179243,
          "time": 233.38932291666666,
          "velocity": 0.36220472440944884
        },
        {
          "duration": 0.125,
          "durationTicks": 96,
          "midi": 63,
          "name": "D#4",
          "ticks": 179253,
          "time": 233.40234375,
          "velocity": 0.07874015748031496
        },
        {
          "duration": 0.125,
          "durationTicks": 96,
          "midi": 44,
          "name": "G#2",
          "ticks": 179432,
          "time": 233.63541666666666,
          "velocity": 0.36220472440944884
        },
        {
          "duration": 0.125,
          "durationTicks": 96,
          "midi": 63,
          "name": "D#4",
          "ticks": 179449,
          "time": 233.65755208333334,
          "velocity": 0.08661417322834646
        },
        {
          "duration": 0.125,
          "durationTicks": 96,
          "midi": 32,
          "name": "G#1",
          "ticks": 179548,
          "time": 233.78645833333334,
          "velocity": 0.3464566929133858
        },
        {
          "duration": 0.125,
          "durationTicks": 96,
          "midi": 51,
          "name": "D#3",
          "ticks": 179557,
          "time": 233.79817708333334,
          "velocity": 0.07874015748031496
        },
        {
          "duration": 0.25,
          "durationTicks": 192,
          "midi": 51,
          "name": "D#3",
          "ticks": 179736,
          "time": 234.03125,
          "velocity": 0.07874015748031496
        },
        {
          "duration": 0.25,
          "durationTicks": 192,
          "midi": 32,
          "name": "G#1",
          "ticks": 179736,
          "time": 234.03125,
          "velocity": 0.3464566929133858
        },
        {
          "duration": 0,
          "durationTicks": 0,
          "midi": 66,
          "name": "F#4",
          "ticks": 179834,
          "time": 234.15885416666666,
          "velocity": 0.05511811023622047
        },
        {
          "duration": 0.2513020833333428,
          "durationTicks": 193,
          "midi": 34,
          "name": "A#1",
          "ticks": 179915,
          "time": 234.26432291666666,
          "velocity": 0.36220472440944884
        },
        {
          "duration": 0.2513020833333428,
          "durationTicks": 193,
          "midi": 53,
          "name": "F3",
          "ticks": 179915,
          "time": 234.26432291666666,
          "velocity": 0.08661417322834646
        },
        {
          "duration": 0.5026041666666856,
          "durationTicks": 386,
          "midi": 75,
          "name": "D#5",
          "ticks": 179933,
          "time": 234.28776041666666,
          "velocity": 0.10236220472440945
        },
        {
          "duration": 0,
          "durationTicks": 0,
          "midi": 60,
          "name": "C4",
          "ticks": 179969,
          "time": 234.33463541666666,
          "velocity": 0.05511811023622047
        },
        {
          "duration": 0.6263020833333428,
          "durationTicks": 481,
          "midi": 70,
          "name": "A#4",
          "ticks": 179978,
          "time": 234.34635416666666,
          "velocity": 0.13385826771653545
        },
        {
          "duration": 0.3763020833333428,
          "durationTicks": 289,
          "midi": 65,
          "name": "F4",
          "ticks": 180005,
          "time": 234.38151041666666,
          "velocity": 0.11023622047244094
        },
        {
          "duration": 0.125,
          "durationTicks": 96,
          "midi": 60,
          "name": "C4",
          "ticks": 180059,
          "time": 234.45182291666666,
          "velocity": 0.07086614173228346
        },
        {
          "duration": 0,
          "durationTicks": 0,
          "midi": 34,
          "name": "A#1",
          "ticks": 180121,
          "time": 234.53255208333334,
          "velocity": 0.3543307086614173
        },
        {
          "duration": 0.125,
          "durationTicks": 96,
          "midi": 54,
          "name": "F#3",
          "ticks": 180130,
          "time": 234.54427083333334,
          "velocity": 0.07874015748031496
        },
        {
          "duration": 0.125,
          "durationTicks": 96,
          "midi": 35,
          "name": "B1",
          "ticks": 180140,
          "time": 234.55729166666666,
          "velocity": 0.36220472440944884
        },
        {
          "duration": 0.1263020833333428,
          "durationTicks": 97,
          "midi": 60,
          "name": "C4",
          "ticks": 180192,
          "time": 234.625,
          "velocity": 0.11811023622047244
        },
        {
          "duration": 0.1263020833333428,
          "durationTicks": 97,
          "midi": 55,
          "name": "G3",
          "ticks": 180219,
          "time": 234.66015625,
          "velocity": 0.12598425196850394
        },
        {
          "duration": 0.1263020833333428,
          "durationTicks": 97,
          "midi": 36,
          "name": "C2",
          "ticks": 180219,
          "time": 234.66015625,
          "velocity": 0.36220472440944884
        },
        {
          "duration": 0.25,
          "durationTicks": 192,
          "midi": 48,
          "name": "C3",
          "ticks": 180282,
          "time": 234.7421875,
          "velocity": 0.36220472440944884
        },
        {
          "duration": 0.125,
          "durationTicks": 96,
          "midi": 65,
          "name": "F4",
          "ticks": 180328,
          "time": 234.80208333333334,
          "velocity": 0.13385826771653545
        },
        {
          "duration": 0.125,
          "durationTicks": 96,
          "midi": 75,
          "name": "D#5",
          "ticks": 180346,
          "time": 234.82552083333334,
          "velocity": 0.11811023622047244
        },
        {
          "duration": 0.5013020833333428,
          "durationTicks": 385,
          "midi": 75,
          "name": "D#5",
          "ticks": 180479,
          "time": 234.99869791666666,
          "velocity": 0.1732283464566929
        },
        {
          "duration": 0,
          "durationTicks": 0,
          "midi": 40,
          "name": "E2",
          "ticks": 180488,
          "time": 235.01041666666666,
          "velocity": 0.3464566929133858
        },
        {
          "duration": 0.125,
          "durationTicks": 96,
          "midi": 65,
          "name": "F4",
          "ticks": 180488,
          "time": 235.01041666666666,
          "velocity": 0.14173228346456693
        },
        {
          "duration": 0.125,
          "durationTicks": 96,
          "midi": 70,
          "name": "A#4",
          "ticks": 180488,
          "time": 235.01041666666666,
          "velocity": 0.14173228346456693
        },
        {
          "duration": 0.2513020833333428,
          "durationTicks": 193,
          "midi": 39,
          "name": "D#2",
          "ticks": 180506,
          "time": 235.03385416666666,
          "velocity": 0.3464566929133858
        },
        {
          "duration": 0.125,
          "durationTicks": 96,
          "midi": 60,
          "name": "C4",
          "ticks": 180533,
          "time": 235.06901041666666,
          "velocity": 0.1732283464566929
        },
        {
          "duration": 0.25,
          "durationTicks": 192,
          "midi": 60,
          "name": "C4",
          "ticks": 180641,
          "time": 235.20963541666666,
          "velocity": 0.1889763779527559
        },
        {
          "duration": 0.25,
          "durationTicks": 192,
          "midi": 70,
          "name": "A#4",
          "ticks": 180641,
          "time": 235.20963541666666,
          "velocity": 0.2283464566929134
        },
        {
          "duration": 0.125,
          "durationTicks": 96,
          "midi": 65,
          "name": "F4",
          "ticks": 180650,
          "time": 235.22135416666666,
          "velocity": 0.15748031496062992
        },
        {
          "duration": 0.24869791666668561,
          "durationTicks": 191,
          "midi": 51,
          "name": "D#3",
          "ticks": 180659,
          "time": 235.23307291666666,
          "velocity": 0.3543307086614173
        },
        {
          "duration": 0.12630208333331439,
          "durationTicks": 97,
          "midi": 65,
          "name": "F4",
          "ticks": 180793,
          "time": 235.40755208333334,
          "velocity": 0.1732283464566929
        },
        {
          "duration": 0,
          "durationTicks": 0,
          "midi": 28,
          "name": "E1",
          "ticks": 180855,
          "time": 235.48828125,
          "velocity": 0.36220472440944884
        },
        {
          "duration": 0,
          "durationTicks": 0,
          "midi": 83,
          "name": "B5",
          "ticks": 180855,
          "time": 235.48828125,
          "velocity": 0.1968503937007874
        },
        {
          "duration": 0.12890625,
          "durationTicks": 99,
          "midi": 68,
          "name": "G#4",
          "ticks": 180864,
          "time": 235.5,
          "velocity": 0.2125984251968504
        },
        {
          "duration": 0,
          "durationTicks": 0,
          "midi": 29,
          "name": "F1",
          "ticks": 180873,
          "time": 235.51171875,
          "velocity": 0.4094488188976378
        },
        {
          "duration": 0,
          "durationTicks": 0,
          "midi": 93,
          "name": "A6",
          "ticks": 180873,
          "time": 235.51171875,
          "velocity": 0.1968503937007874
        },
        {
          "duration": 0,
          "durationTicks": 0,
          "midi": 30,
          "name": "F#1",
          "ticks": 180883,
          "time": 235.52473958333334,
          "velocity": 0.4251968503937008
        },
        {
          "duration": 0,
          "durationTicks": 0,
          "midi": 88,
          "name": "E6",
          "ticks": 180883,
          "time": 235.52473958333334,
          "velocity": 0.1968503937007874
        },
        {
          "duration": 0,
          "durationTicks": 0,
          "midi": 82,
          "name": "A#5",
          "ticks": 180901,
          "time": 235.54817708333334,
          "velocity": 0.1968503937007874
        },
        {
          "duration": 0,
          "durationTicks": 0,
          "midi": 48,
          "name": "C3",
          "ticks": 180911,
          "time": 235.56119791666666,
          "velocity": 0.13385826771653545
        },
        {
          "duration": 0,
          "durationTicks": 0,
          "midi": 92,
          "name": "G#6",
          "ticks": 180920,
          "time": 235.57291666666666,
          "velocity": 0.2047244094488189
        },
        {
          "duration": 0,
          "durationTicks": 0,
          "midi": 67,
          "name": "G4",
          "ticks": 180920,
          "time": 235.57291666666666,
          "velocity": 0.1968503937007874
        },
        {
          "duration": 0.125,
          "durationTicks": 96,
          "midi": 29,
          "name": "F1",
          "ticks": 180920,
          "time": 235.57291666666666,
          "velocity": 0.3779527559055118
        },
        {
          "duration": 0,
          "durationTicks": 0,
          "midi": 87,
          "name": "D#6",
          "ticks": 180938,
          "time": 235.59635416666666,
          "velocity": 0.2047244094488189
        },
        {
          "duration": 0.125,
          "durationTicks": 96,
          "midi": 48,
          "name": "C3",
          "ticks": 180947,
          "time": 235.60807291666666,
          "velocity": 0.08661417322834646
        },
        {
          "duration": 0,
          "durationTicks": 0,
          "midi": 81,
          "name": "A5",
          "ticks": 180956,
          "time": 235.61979166666666,
          "velocity": 0.1732283464566929
        },
        {
          "duration": 0.125,
          "durationTicks": 96,
          "midi": 63,
          "name": "D#4",
          "ticks": 180956,
          "time": 235.61979166666666,
          "velocity": 0.2204724409448819
        },
        {
          "duration": 0,
          "durationTicks": 0,
          "midi": 91,
          "name": "G6",
          "ticks": 180965,
          "time": 235.63151041666666,
          "velocity": 0.1968503937007874
        },
        {
          "duration": 0,
          "durationTicks": 0,
          "midi": 86,
          "name": "D6",
          "ticks": 180983,
          "time": 235.65494791666666,
          "velocity": 0.2047244094488189
        },
        {
          "duration": 0,
          "durationTicks": 0,
          "midi": 80,
          "name": "G#5",
          "ticks": 181001,
          "time": 235.67838541666666,
          "velocity": 0.1968503937007874
        },
        {
          "duration": 0,
          "durationTicks": 0,
          "midi": 60,
          "name": "C4",
          "ticks": 181001,
          "time": 235.67838541666666,
          "velocity": 0.2125984251968504
        },
        {
          "duration": 0,
          "durationTicks": 0,
          "midi": 90,
          "name": "F#6",
          "ticks": 181018,
          "time": 235.70052083333334,
          "velocity": 0.1889763779527559
        },
        {
          "duration": 0,
          "durationTicks": 0,
          "midi": 85,
          "name": "C#6",
          "ticks": 181028,
          "time": 235.71354166666666,
          "velocity": 0.1968503937007874
        },
        {
          "duration": 0,
          "durationTicks": 0,
          "midi": 79,
          "name": "G5",
          "ticks": 181045,
          "time": 235.73567708333334,
          "velocity": 0.1968503937007874
        },
        {
          "duration": 0,
          "durationTicks": 0,
          "midi": 58,
          "name": "A#3",
          "ticks": 181054,
          "time": 235.74739583333334,
          "velocity": 0.2204724409448819
        },
        {
          "duration": 0,
          "durationTicks": 0,
          "midi": 89,
          "name": "F6",
          "ticks": 181064,
          "time": 235.76041666666666,
          "velocity": 0.1968503937007874
        },
        {
          "duration": 0,
          "durationTicks": 0,
          "midi": 84,
          "name": "C6",
          "ticks": 181081,
          "time": 235.78255208333334,
          "velocity": 0.2047244094488189
        },
        {
          "duration": 0,
          "durationTicks": 0,
          "midi": 78,
          "name": "F#5",
          "ticks": 181099,
          "time": 235.80598958333334,
          "velocity": 0.1889763779527559
        },
        {
          "duration": 0,
          "durationTicks": 0,
          "midi": 88,
          "name": "E6",
          "ticks": 181108,
          "time": 235.81770833333334,
          "velocity": 0.2047244094488189
        },
        {
          "duration": 0.12630208333331439,
          "durationTicks": 97,
          "midi": 56,
          "name": "G#3",
          "ticks": 181108,
          "time": 235.81770833333334,
          "velocity": 0.2204724409448819
        },
        {
          "duration": 0,
          "durationTicks": 0,
          "midi": 83,
          "name": "B5",
          "ticks": 181126,
          "time": 235.84114583333334,
          "velocity": 0.2047244094488189
        },
        {
          "duration": 0,
          "durationTicks": 0,
          "midi": 55,
          "name": "G3",
          "ticks": 181162,
          "time": 235.88802083333334,
          "velocity": 0.2204724409448819
        },
        {
          "duration": 0,
          "durationTicks": 0,
          "midi": 93,
          "name": "A6",
          "ticks": 181162,
          "time": 235.88802083333334,
          "velocity": 0.14960629921259844
        },
        {
          "duration": 0,
          "durationTicks": 0,
          "midi": 82,
          "name": "A#5",
          "ticks": 181189,
          "time": 235.92317708333334,
          "velocity": 0.14960629921259844
        },
        {
          "duration": 0,
          "durationTicks": 0,
          "midi": 51,
          "name": "D#3",
          "ticks": 181198,
          "time": 235.93489583333334,
          "velocity": 0.2125984251968504
        },
        {
          "duration": 0,
          "durationTicks": 0,
          "midi": 92,
          "name": "G#6",
          "ticks": 181208,
          "time": 235.94791666666666,
          "velocity": 0.14173228346456693
        },
        {
          "duration": 0.1263020833333428,
          "durationTicks": 97,
          "midi": 67,
          "name": "G4",
          "ticks": 181208,
          "time": 235.94791666666666,
          "velocity": 0.14960629921259844
        },
        {
          "duration": 0,
          "durationTicks": 0,
          "midi": 87,
          "name": "D#6",
          "ticks": 181225,
          "time": 235.97005208333334,
          "velocity": 0.14173228346456693
        },
        {
          "duration": 0,
          "durationTicks": 0,
          "midi": 63,
          "name": "D#4",
          "ticks": 181243,
          "time": 235.99348958333334,
          "velocity": 0.15748031496062992
        },
        {
          "duration": 0,
          "durationTicks": 0,
          "midi": 91,
          "name": "G6",
          "ticks": 181252,
          "time": 236.00520833333334,
          "velocity": 0.15748031496062992
        },
        {
          "duration": 0,
          "durationTicks": 0,
          "midi": 31,
          "name": "G1",
          "ticks": 181261,
          "time": 236.01692708333334,
          "velocity": 0.29133858267716534
        },
        {
          "duration": 0,
          "durationTicks": 0,
          "midi": 48,
          "name": "C3",
          "ticks": 181261,
          "time": 236.01692708333334,
          "velocity": 0.25984251968503935
        },
        {
          "duration": 0,
          "durationTicks": 0,
          "midi": 86,
          "name": "D6",
          "ticks": 181271,
          "time": 236.02994791666666,
          "velocity": 0.15748031496062992
        },
        {
          "duration": 0,
          "durationTicks": 0,
          "midi": 31,
          "name": "G1",
          "ticks": 181288,
          "time": 236.05208333333334,
          "velocity": 0.25196850393700787
        },
        {
          "duration": 0,
          "durationTicks": 0,
          "midi": 80,
          "name": "G#5",
          "ticks": 181288,
          "time": 236.05208333333334,
          "velocity": 0.12598425196850394
        },
        {
          "duration": 0,
          "durationTicks": 0,
          "midi": 60,
          "name": "C4",
          "ticks": 181288,
          "time": 236.05208333333334,
          "velocity": 0.15748031496062992
        },
        {
          "duration": 0,
          "durationTicks": 0,
          "midi": 46,
          "name": "A#2",
          "ticks": 181298,
          "time": 236.06510416666666,
          "velocity": 0.2047244094488189
        },
        {
          "duration": 0,
          "durationTicks": 0,
          "midi": 85,
          "name": "C#6",
          "ticks": 181316,
          "time": 236.08854166666666,
          "velocity": 0.15748031496062992
        },
        {
          "duration": 0,
          "durationTicks": 0,
          "midi": 79,
          "name": "G5",
          "ticks": 181334,
          "time": 236.11197916666666,
          "velocity": 0.14173228346456693
        },
        {
          "duration": 0,
          "durationTicks": 0,
          "midi": 58,
          "name": "A#3",
          "ticks": 181343,
          "time": 236.12369791666666,
          "velocity": 0.16535433070866143
        },
        {
          "duration": 0,
          "durationTicks": 0,
          "midi": 44,
          "name": "G#2",
          "ticks": 181352,
          "time": 236.13541666666666,
          "velocity": 0.2283464566929134
        },
        {
          "duration": 0,
          "durationTicks": 0,
          "midi": 84,
          "name": "C6",
          "ticks": 181370,
          "time": 236.15885416666666,
          "velocity": 0.14173228346456693
        },
        {
          "duration": 0,
          "durationTicks": 0,
          "midi": 36,
          "name": "C2",
          "ticks": 181379,
          "time": 236.17057291666666,
          "velocity": 0.1732283464566929
        },
        {
          "duration": 0,
          "durationTicks": 0,
          "midi": 56,
          "name": "G#3",
          "ticks": 181397,
          "time": 236.19401041666666,
          "velocity": 0.1732283464566929
        },
        {
          "duration": 0,
          "durationTicks": 0,
          "midi": 88,
          "name": "E6",
          "ticks": 181397,
          "time": 236.19401041666666,
          "velocity": 0.14173228346456693
        },
        {
          "duration": 0,
          "durationTicks": 0,
          "midi": 39,
          "name": "D#2",
          "ticks": 181406,
          "time": 236.20572916666666,
          "velocity": 0.2125984251968504
        },
        {
          "duration": 0,
          "durationTicks": 0,
          "midi": 83,
          "name": "B5",
          "ticks": 181416,
          "time": 236.21875,
          "velocity": 0.15748031496062992
        },
        {
          "duration": 0.1263020833333428,
          "durationTicks": 97,
          "midi": 46,
          "name": "A#2",
          "ticks": 181433,
          "time": 236.24088541666666,
          "velocity": 0.12598425196850394
        },
        {
          "duration": 0.1263020833333428,
          "durationTicks": 97,
          "midi": 68,
          "name": "G#4",
          "ticks": 181433,
          "time": 236.24088541666666,
          "velocity": 0.11023622047244094
        },
        {
          "duration": 0,
          "durationTicks": 0,
          "midi": 55,
          "name": "G3",
          "ticks": 181442,
          "time": 236.25260416666666,
          "velocity": 0.14173228346456693
        },
        {
          "duration": 0.1263020833333428,
          "durationTicks": 97,
          "midi": 27,
          "name": "D#1",
          "ticks": 181442,
          "time": 236.25260416666666,
          "velocity": 0.36220472440944884
        },
        {
          "duration": 0,
          "durationTicks": 0,
          "midi": 51,
          "name": "D#3",
          "ticks": 181487,
          "time": 236.31119791666666,
          "velocity": 0.1732283464566929
        },
        {
          "duration": 0,
          "durationTicks": 0,
          "midi": 67,
          "name": "G4",
          "ticks": 181496,
          "time": 236.32291666666666,
          "velocity": 0.11023622047244094
        },
        {
          "duration": 0,
          "durationTicks": 0,
          "midi": 63,
          "name": "D#4",
          "ticks": 181532,
          "time": 236.36979166666666,
          "velocity": 0.11023622047244094
        },
        {
          "duration": 0,
          "durationTicks": 0,
          "midi": 48,
          "name": "C3",
          "ticks": 181551,
          "time": 236.39453125,
          "velocity": 0.16535433070866143
        },
        {
          "duration": 0,
          "durationTicks": 0,
          "midi": 46,
          "name": "A#2",
          "ticks": 181578,
          "time": 236.4296875,
          "velocity": 0.1732283464566929
        },
        {
          "duration": 0,
          "durationTicks": 0,
          "midi": 60,
          "name": "C4",
          "ticks": 181578,
          "time": 236.4296875,
          "velocity": 0.11811023622047244
        },
        {
          "duration": 0,
          "durationTicks": 0,
          "midi": 47,
          "name": "B2",
          "ticks": 181623,
          "time": 236.48828125,
          "velocity": 0.2283464566929134
        },
        {
          "duration": 0,
          "durationTicks": 0,
          "midi": 58,
          "name": "A#3",
          "ticks": 181640,
          "time": 236.51041666666666,
          "velocity": 0.11023622047244094
        },
        {
          "duration": 0,
          "durationTicks": 0,
          "midi": 30,
          "name": "F#1",
          "ticks": 181640,
          "time": 236.51041666666666,
          "velocity": 0.4251968503937008
        },
        {
          "duration": 0,
          "durationTicks": 0,
          "midi": 48,
          "name": "C3",
          "ticks": 181685,
          "time": 236.56901041666666,
          "velocity": 0.11023622047244094
        },
        {
          "duration": 0,
          "durationTicks": 0,
          "midi": 56,
          "name": "G#3",
          "ticks": 181685,
          "time": 236.56901041666666,
          "velocity": 0.13385826771653545
        },
        {
          "duration": 0.125,
          "durationTicks": 96,
          "midi": 29,
          "name": "F1",
          "ticks": 181685,
          "time": 236.56901041666666,
          "velocity": 0.3779527559055118
        },
        {
          "duration": 0,
          "durationTicks": 0,
          "midi": 83,
          "name": "B5",
          "ticks": 181702,
          "time": 236.59114583333334,
          "velocity": 0.08661417322834646
        },
        {
          "duration": 0,
          "durationTicks": 0,
          "midi": 48,
          "name": "C3",
          "ticks": 181729,
          "time": 236.62630208333334,
          "velocity": 0.08661417322834646
        },
        {
          "duration": 0,
          "durationTicks": 0,
          "midi": 55,
          "name": "G3",
          "ticks": 181729,
          "time": 236.62630208333334,
          "velocity": 0.12598425196850394
        },
        {
          "duration": 0,
          "durationTicks": 0,
          "midi": 68,
          "name": "G#4",
          "ticks": 181729,
          "time": 236.62630208333334,
          "velocity": 0.05511811023622047
        },
        {
          "duration": 0,
          "durationTicks": 0,
          "midi": 67,
          "name": "G4",
          "ticks": 181783,
          "time": 236.69661458333334,
          "velocity": 0.05511811023622047
        },
        {
          "duration": 0,
          "durationTicks": 0,
          "midi": 63,
          "name": "D#4",
          "ticks": 181827,
          "time": 236.75390625,
          "velocity": 0.07874015748031496
        },
        {
          "duration": 0,
          "durationTicks": 0,
          "midi": 46,
          "name": "A#2",
          "ticks": 181863,
          "time": 236.80078125,
          "velocity": 0.11023622047244094
        },
        {
          "duration": 0,
          "durationTicks": 0,
          "midi": 60,
          "name": "C4",
          "ticks": 181872,
          "time": 236.8125,
          "velocity": 0.06299212598425197
        },
        {
          "duration": 0,
          "durationTicks": 0,
          "midi": 58,
          "name": "A#3",
          "ticks": 181916,
          "time": 236.86979166666666,
          "velocity": 0.07874015748031496
        },
        {
          "duration": 0,
          "durationTicks": 0,
          "midi": 44,
          "name": "G#2",
          "ticks": 181926,
          "time": 236.8828125,
          "velocity": 0.12598425196850394
        },
        {
          "duration": 0,
          "durationTicks": 0,
          "midi": 55,
          "name": "G3",
          "ticks": 182015,
          "time": 236.99869791666666,
          "velocity": 0.11023622047244094
        },
        {
          "duration": 0.1263020833333428,
          "durationTicks": 97,
          "midi": 43,
          "name": "G2",
          "ticks": 182024,
          "time": 237.01041666666666,
          "velocity": 0.3543307086614173
        },
        {
          "duration": 0.1263020833333428,
          "durationTicks": 97,
          "midi": 62,
          "name": "D4",
          "ticks": 182024,
          "time": 237.01041666666666,
          "velocity": 0.08661417322834646
        },
        {
          "duration": 0,
          "durationTicks": 0,
          "midi": 30,
          "name": "F#1",
          "ticks": 182060,
          "time": 237.05729166666666,
          "velocity": 0.1968503937007874
        },
        {
          "duration": 0,
          "durationTicks": 0,
          "midi": 44,
          "name": "G#2",
          "ticks": 182087,
          "time": 237.09244791666666,
          "velocity": 0.31496062992125984
        },
        {
          "duration": 0,
          "durationTicks": 0,
          "midi": 30,
          "name": "F#1",
          "ticks": 182097,
          "time": 237.10546875,
          "velocity": 0.3543307086614173
        },
        {
          "duration": 0.125,
          "durationTicks": 96,
          "midi": 31,
          "name": "G1",
          "ticks": 182114,
          "time": 237.12760416666666,
          "velocity": 0.3543307086614173
        },
        {
          "duration": 0,
          "durationTicks": 0,
          "midi": 50,
          "name": "D3",
          "ticks": 182123,
          "time": 237.13932291666666,
          "velocity": 0.14173228346456693
        },
        {
          "duration": 0,
          "durationTicks": 0,
          "midi": 39,
          "name": "D#2",
          "ticks": 182248,
          "time": 237.30208333333334,
          "velocity": 0.05511811023622047
        },
        {
          "duration": 0.125,
          "durationTicks": 96,
          "midi": 44,
          "name": "G#2",
          "ticks": 182284,
          "time": 237.34895833333334,
          "velocity": 0.36220472440944884
        },
        {
          "duration": 0.125,
          "durationTicks": 96,
          "midi": 63,
          "name": "D#4",
          "ticks": 182293,
          "time": 237.36067708333334,
          "velocity": 0.08661417322834646
        },
        {
          "duration": 0,
          "durationTicks": 0,
          "midi": 31,
          "name": "G1",
          "ticks": 182401,
          "time": 237.50130208333334,
          "velocity": 0.29133858267716534
        },
        {
          "duration": 0,
          "durationTicks": 0,
          "midi": 48,
          "name": "C3",
          "ticks": 182410,
          "time": 237.51302083333334,
          "velocity": 0.11023622047244094
        },
        {
          "duration": 0.125,
          "durationTicks": 96,
          "midi": 44,
          "name": "G#2",
          "ticks": 182472,
          "time": 237.59375,
          "velocity": 0.36220472440944884
        },
        {
          "duration": 0.125,
          "durationTicks": 96,
          "midi": 63,
          "name": "D#4",
          "ticks": 182482,
          "time": 237.60677083333334,
          "velocity": 0.09448818897637795
        },
        {
          "duration": 0,
          "durationTicks": 0,
          "midi": 51,
          "name": "D#3",
          "ticks": 182589,
          "time": 237.74609375,
          "velocity": 0.08661417322834646
        },
        {
          "duration": 0.125,
          "durationTicks": 96,
          "midi": 32,
          "name": "G#1",
          "ticks": 182589,
          "time": 237.74609375,
          "velocity": 0.3464566929133858
        },
        {
          "duration": 0,
          "durationTicks": 0,
          "midi": 51,
          "name": "D#3",
          "ticks": 182625,
          "time": 237.79296875,
          "velocity": 0.11023622047244094
        },
        {
          "duration": 0,
          "durationTicks": 0,
          "midi": 45,
          "name": "A2",
          "ticks": 182759,
          "time": 237.96744791666666,
          "velocity": 0.2283464566929134
        },
        {
          "duration": 0,
          "durationTicks": 0,
          "midi": 32,
          "name": "G#1",
          "ticks": 182786,
          "time": 238.00260416666666,
          "velocity": 0.3464566929133858
        },
        {
          "duration": 0,
          "durationTicks": 0,
          "midi": 33,
          "name": "A1",
          "ticks": 182803,
          "time": 238.02473958333334,
          "velocity": 0.31496062992125984
        },
        {
          "duration": 0.125,
          "durationTicks": 96,
          "midi": 32,
          "name": "G#1",
          "ticks": 182839,
          "time": 238.07161458333334,
          "velocity": 0.3464566929133858
        },
        {
          "duration": 0.125,
          "durationTicks": 96,
          "midi": 51,
          "name": "D#3",
          "ticks": 182866,
          "time": 238.10677083333334,
          "velocity": 0.07874015748031496
        },
        {
          "duration": 0.125,
          "durationTicks": 96,
          "midi": 65,
          "name": "F4",
          "ticks": 182875,
          "time": 238.11848958333334,
          "velocity": 0.05511811023622047
        },
        {
          "duration": 0,
          "durationTicks": 0,
          "midi": 36,
          "name": "C2",
          "ticks": 183134,
          "time": 238.45572916666666,
          "velocity": 0.2992125984251969
        },
        {
          "duration": 0,
          "durationTicks": 0,
          "midi": 55,
          "name": "G3",
          "ticks": 183143,
          "time": 238.46744791666666,
          "velocity": 0.08661417322834646
        },
        {
          "duration": 0,
          "durationTicks": 0,
          "midi": 35,
          "name": "B1",
          "ticks": 183170,
          "time": 238.50260416666666,
          "velocity": 0.4015748031496063
        },
        {
          "duration": 0.125,
          "durationTicks": 96,
          "midi": 55,
          "name": "G3",
          "ticks": 183179,
          "time": 238.51432291666666,
          "velocity": 0.08661417322834646
        },
        {
          "duration": 0.125,
          "durationTicks": 96,
          "midi": 36,
          "name": "C2",
          "ticks": 183215,
          "time": 238.56119791666666,
          "velocity": 0.3779527559055118
        },
        {
          "duration": 0.25,
          "durationTicks": 192,
          "midi": 67,
          "name": "G4",
          "ticks": 183341,
          "time": 238.72526041666666,
          "velocity": 0.07086614173228346
        },
        {
          "duration": 0.1263020833333428,
          "durationTicks": 97,
          "midi": 75,
          "name": "D#5",
          "ticks": 183474,
          "time": 238.8984375,
          "velocity": 0.07874015748031496
        },
        {
          "duration": 0.125,
          "durationTicks": 96,
          "midi": 53,
          "name": "F3",
          "ticks": 183564,
          "time": 239.015625,
          "velocity": 0.11023622047244094
        },
        {
          "duration": 0,
          "durationTicks": 0,
          "midi": 34,
          "name": "A#1",
          "ticks": 183583,
          "time": 239.04036458333334,
          "velocity": 0.3779527559055118
        },
        {
          "duration": 0,
          "durationTicks": 0,
          "midi": 35,
          "name": "B1",
          "ticks": 183600,
          "time": 239.0625,
          "velocity": 0.3464566929133858
        },
        {
          "duration": 0.125,
          "durationTicks": 96,
          "midi": 34,
          "name": "A#1",
          "ticks": 183618,
          "time": 239.0859375,
          "velocity": 0.3543307086614173
        },
        {
          "duration": 0.125,
          "durationTicks": 96,
          "midi": 70,
          "name": "A#4",
          "ticks": 183680,
          "time": 239.16666666666666,
          "velocity": 0.06299212598425197
        },
        {
          "duration": 0.125,
          "durationTicks": 96,
          "midi": 65,
          "name": "F4",
          "ticks": 183707,
          "time": 239.20182291666666,
          "velocity": 0.11023622047244094
        },
        {
          "duration": 0.25,
          "durationTicks": 192,
          "midi": 46,
          "name": "A#2",
          "ticks": 183716,
          "time": 239.21354166666666,
          "velocity": 0.3464566929133858
        },
        {
          "duration": 0.125,
          "durationTicks": 96,
          "midi": 65,
          "name": "F4",
          "ticks": 183805,
          "time": 239.32942708333334,
          "velocity": 0.14173228346456693
        },
        {
          "duration": 0,
          "durationTicks": 0,
          "midi": 28,
          "name": "E1",
          "ticks": 183894,
          "time": 239.4453125,
          "velocity": 0.3858267716535433
        },
        {
          "duration": 0.2526041666666572,
          "durationTicks": 194,
          "midi": 58,
          "name": "A#3",
          "ticks": 183894,
          "time": 239.4453125,
          "velocity": 0.2204724409448819
        },
        {
          "duration": 0.2526041666666572,
          "durationTicks": 194,
          "midi": 63,
          "name": "D#4",
          "ticks": 183894,
          "time": 239.4453125,
          "velocity": 0.2283464566929134
        },
        {
          "duration": 0,
          "durationTicks": 0,
          "midi": 29,
          "name": "F1",
          "ticks": 183913,
          "time": 239.47005208333334,
          "velocity": 0.41732283464566927
        },
        {
          "duration": 0.12630208333331439,
          "durationTicks": 97,
          "midi": 48,
          "name": "C3",
          "ticks": 183913,
          "time": 239.47005208333334,
          "velocity": 0.18110236220472442
        },
        {
          "duration": 0,
          "durationTicks": 0,
          "midi": 30,
          "name": "F#1",
          "ticks": 183922,
          "time": 239.48177083333334,
          "velocity": 0.4251968503937008
        },
        {
          "duration": 0,
          "durationTicks": 0,
          "midi": 29,
          "name": "F1",
          "ticks": 183958,
          "time": 239.52864583333334,
          "velocity": 0.3779527559055118
        },
        {
          "duration": 0,
          "durationTicks": 0,
          "midi": 79,
          "name": "G5",
          "ticks": 184003,
          "time": 239.58723958333334,
          "velocity": 0.11023622047244094
        },
        {
          "duration": 0,
          "durationTicks": 0,
          "midi": 77,
          "name": "F5",
          "ticks": 184022,
          "time": 239.61197916666666,
          "velocity": 0.05511811023622047
        },
        {
          "duration": 0.125,
          "durationTicks": 96,
          "midi": 82,
          "name": "A#5",
          "ticks": 184048,
          "time": 239.64583333333334,
          "velocity": 0.06299212598425197
        },
        {
          "duration": 0,
          "durationTicks": 0,
          "midi": 77,
          "name": "F5",
          "ticks": 184066,
          "time": 239.66927083333334,
          "velocity": 0.09448818897637795
        },
        {
          "duration": 0.125,
          "durationTicks": 96,
          "midi": 29,
          "name": "F1",
          "ticks": 184093,
          "time": 239.70442708333334,
          "velocity": 0.36220472440944884
        },
        {
          "duration": 0.125,
          "durationTicks": 96,
          "midi": 48,
          "name": "C3",
          "ticks": 184102,
          "time": 239.71614583333334,
          "velocity": 0.08661417322834646
        },
        {
          "duration": 0,
          "durationTicks": 0,
          "midi": 61,
          "name": "C#4",
          "ticks": 184112,
          "time": 239.72916666666666,
          "velocity": 0.2047244094488189
        },
        {
          "duration": 0,
          "durationTicks": 0,
          "midi": 55,
          "name": "G3",
          "ticks": 184129,
          "time": 239.75130208333334,
          "velocity": 0.2047244094488189
        },
        {
          "duration": 0,
          "durationTicks": 0,
          "midi": 60,
          "name": "C4",
          "ticks": 184129,
          "time": 239.75130208333334,
          "velocity": 0.2047244094488189
        },
        {
          "duration": 0,
          "durationTicks": 0,
          "midi": 72,
          "name": "C5",
          "ticks": 184164,
          "time": 239.796875,
          "velocity": 0.11023622047244094
        },
        {
          "duration": 0,
          "durationTicks": 0,
          "midi": 52,
          "name": "E3",
          "ticks": 184174,
          "time": 239.80989583333334,
          "velocity": 0.18110236220472442
        },
        {
          "duration": 0,
          "durationTicks": 0,
          "midi": 57,
          "name": "A3",
          "ticks": 184174,
          "time": 239.80989583333334,
          "velocity": 0.1968503937007874
        },
        {
          "duration": 0,
          "durationTicks": 0,
          "midi": 55,
          "name": "G3",
          "ticks": 184218,
          "time": 239.8671875,
          "velocity": 0.1968503937007874
        },
        {
          "duration": 0,
          "durationTicks": 0,
          "midi": 60,
          "name": "C4",
          "ticks": 184218,
          "time": 239.8671875,
          "velocity": 0.1889763779527559
        },
        {
          "duration": 0,
          "durationTicks": 0,
          "midi": 75,
          "name": "D#5",
          "ticks": 184254,
          "time": 239.9140625,
          "velocity": 0.13385826771653545
        },
        {
          "duration": 0.12630208333331439,
          "durationTicks": 97,
          "midi": 58,
          "name": "A#3",
          "ticks": 184264,
          "time": 239.92708333333334,
          "velocity": 0.1968503937007874
        },
        {
          "duration": 0.12630208333331439,
          "durationTicks": 97,
          "midi": 63,
          "name": "D#4",
          "ticks": 184264,
          "time": 239.92708333333334,
          "velocity": 0.1889763779527559
        },
        {
          "duration": 0.12630208333331439,
          "durationTicks": 97,
          "midi": 41,
          "name": "F2",
          "ticks": 184273,
          "time": 239.93880208333334,
          "velocity": 0.4015748031496063
        },
        {
          "duration": 0,
          "durationTicks": 0,
          "midi": 74,
          "name": "D5",
          "ticks": 184309,
          "time": 239.98567708333334,
          "velocity": 0.11811023622047244
        },
        {
          "duration": 0,
          "durationTicks": 0,
          "midi": 78,
          "name": "F#5",
          "ticks": 184336,
          "time": 240.02083333333334,
          "velocity": 0.11023622047244094
        },
        {
          "duration": 0.12630208333331439,
          "durationTicks": 97,
          "midi": 41,
          "name": "F2",
          "ticks": 184336,
          "time": 240.02083333333334,
          "velocity": 0.36220472440944884
        },
        {
          "duration": 0,
          "durationTicks": 0,
          "midi": 73,
          "name": "C#5",
          "ticks": 184354,
          "time": 240.04427083333334,
          "velocity": 0.11023622047244094
        },
        {
          "duration": 0,
          "durationTicks": 0,
          "midi": 77,
          "name": "F5",
          "ticks": 184363,
          "time": 240.05598958333334,
          "velocity": 0.10236220472440945
        },
        {
          "duration": 0,
          "durationTicks": 0,
          "midi": 56,
          "name": "G#3",
          "ticks": 184399,
          "time": 240.10286458333334,
          "velocity": 0.1732283464566929
        },
        {
          "duration": 0,
          "durationTicks": 0,
          "midi": 60,
          "name": "C4",
          "ticks": 184409,
          "time": 240.11588541666666,
          "velocity": 0.2125984251968504
        },
        {
          "duration": 0,
          "durationTicks": 0,
          "midi": 76,
          "name": "E5",
          "ticks": 184435,
          "time": 240.14973958333334,
          "velocity": 0.11811023622047244
        },
        {
          "duration": 0,
          "durationTicks": 0,
          "midi": 72,
          "name": "C5",
          "ticks": 184453,
          "time": 240.17317708333334,
          "velocity": 0.13385826771653545
        },
        {
          "duration": 0.12630208333331439,
          "durationTicks": 97,
          "midi": 75,
          "name": "D#5",
          "ticks": 184453,
          "time": 240.17317708333334,
          "velocity": 0.13385826771653545
        },
        {
          "duration": 0,
          "durationTicks": 0,
          "midi": 46,
          "name": "A#2",
          "ticks": 184489,
          "time": 240.22005208333334,
          "velocity": 0.07874015748031496
        },
        {
          "duration": 0.12630208333331439,
          "durationTicks": 97,
          "midi": 27,
          "name": "D#1",
          "ticks": 184489,
          "time": 240.22005208333334,
          "velocity": 0.36220472440944884
        },
        {
          "duration": 0,
          "durationTicks": 0,
          "midi": 55,
          "name": "G3",
          "ticks": 184507,
          "time": 240.24348958333334,
          "velocity": 0.15748031496062992
        },
        {
          "duration": 0,
          "durationTicks": 0,
          "midi": 60,
          "name": "C4",
          "ticks": 184507,
          "time": 240.24348958333334,
          "velocity": 0.15748031496062992
        },
        {
          "duration": 0,
          "durationTicks": 0,
          "midi": 70,
          "name": "A#4",
          "ticks": 184516,
          "time": 240.25520833333334,
          "velocity": 0.08661417322834646
        },
        {
          "duration": 0,
          "durationTicks": 0,
          "midi": 46,
          "name": "A#2",
          "ticks": 184525,
          "time": 240.26692708333334,
          "velocity": 0.08661417322834646
        },
        {
          "duration": 0.125,
          "durationTicks": 96,
          "midi": 58,
          "name": "A#3",
          "ticks": 184552,
          "time": 240.30208333333334,
          "velocity": 0.16535433070866143
        },
        {
          "duration": 0.125,
          "durationTicks": 96,
          "midi": 63,
          "name": "D#4",
          "ticks": 184552,
          "time": 240.30208333333334,
          "velocity": 0.1889763779527559
        },
        {
          "duration": 0,
          "durationTicks": 0,
          "midi": 29,
          "name": "F1",
          "ticks": 184668,
          "time": 240.453125,
          "velocity": 0.4015748031496063
        },
        {
          "duration": 0,
          "durationTicks": 0,
          "midi": 30,
          "name": "F#1",
          "ticks": 184678,
          "time": 240.46614583333334,
          "velocity": 0.4251968503937008
        },
        {
          "duration": 0,
          "durationTicks": 0,
          "midi": 55,
          "name": "G3",
          "ticks": 184695,
          "time": 240.48828125,
          "velocity": 0.14960629921259844
        },
        {
          "duration": 0,
          "durationTicks": 0,
          "midi": 48,
          "name": "C3",
          "ticks": 184705,
          "time": 240.50130208333334,
          "velocity": 0.13385826771653545
        },
        {
          "duration": 0.125,
          "durationTicks": 96,
          "midi": 29,
          "name": "F1",
          "ticks": 184714,
          "time": 240.51302083333334,
          "velocity": 0.3858267716535433
        },
        {
          "duration": 0,
          "durationTicks": 0,
          "midi": 72,
          "name": "C5",
          "ticks": 184741,
          "time": 240.54817708333334,
          "velocity": 0.07086614173228346
        },
        {
          "duration": 0,
          "durationTicks": 0,
          "midi": 52,
          "name": "E3",
          "ticks": 184750,
          "time": 240.55989583333334,
          "velocity": 0.14173228346456693
        },
        {
          "duration": 0.125,
          "durationTicks": 96,
          "midi": 48,
          "name": "C3",
          "ticks": 184768,
          "time": 240.58333333333334,
          "velocity": 0.10236220472440945
        },
        {
          "duration": 0,
          "durationTicks": 0,
          "midi": 55,
          "name": "G3",
          "ticks": 184795,
          "time": 240.61848958333334,
          "velocity": 0.13385826771653545
        },
        {
          "duration": 0,
          "durationTicks": 0,
          "midi": 60,
          "name": "C4",
          "ticks": 184795,
          "time": 240.61848958333334,
          "velocity": 0.13385826771653545
        },
        {
          "duration": 0.125,
          "durationTicks": 96,
          "midi": 58,
          "name": "A#3",
          "ticks": 184839,
          "time": 240.67578125,
          "velocity": 0.14173228346456693
        },
        {
          "duration": 0.125,
          "durationTicks": 96,
          "midi": 63,
          "name": "D#4",
          "ticks": 184839,
          "time": 240.67578125,
          "velocity": 0.12598425196850394
        },
        {
          "duration": 0,
          "durationTicks": 0,
          "midi": 55,
          "name": "G3",
          "ticks": 184982,
          "time": 240.86197916666666,
          "velocity": 0.09448818897637795
        },
        {
          "duration": 0,
          "durationTicks": 0,
          "midi": 60,
          "name": "C4",
          "ticks": 184982,
          "time": 240.86197916666666,
          "velocity": 0.08661417322834646
        },
        {
          "duration": 0,
          "durationTicks": 0,
          "midi": 44,
          "name": "G#2",
          "ticks": 185036,
          "time": 240.93229166666666,
          "velocity": 0.3937007874015748
        },
        {
          "duration": 0,
          "durationTicks": 0,
          "midi": 58,
          "name": "A#3",
          "ticks": 185045,
          "time": 240.94401041666666,
          "velocity": 0.12598425196850394
        },
        {
          "duration": 0,
          "durationTicks": 0,
          "midi": 62,
          "name": "D4",
          "ticks": 185045,
          "time": 240.94401041666666,
          "velocity": 0.06299212598425197
        },
        {
          "duration": 0,
          "durationTicks": 0,
          "midi": 31,
          "name": "G1",
          "ticks": 185054,
          "time": 240.95572916666666,
          "velocity": 0.29133858267716534
        },
        {
          "duration": 0.125,
          "durationTicks": 96,
          "midi": 43,
          "name": "G2",
          "ticks": 185064,
          "time": 240.96875,
          "velocity": 0.3543307086614173
        },
        {
          "duration": 0,
          "durationTicks": 0,
          "midi": 44,
          "name": "G#2",
          "ticks": 185126,
          "time": 241.04947916666666,
          "velocity": 0.29133858267716534
        },
        {
          "duration": 0.125,
          "durationTicks": 96,
          "midi": 63,
          "name": "D#4",
          "ticks": 185126,
          "time": 241.04947916666666,
          "velocity": 0.11023622047244094
        },
        {
          "duration": 0,
          "durationTicks": 0,
          "midi": 30,
          "name": "F#1",
          "ticks": 185135,
          "time": 241.06119791666666,
          "velocity": 0.3543307086614173
        },
        {
          "duration": 0.125,
          "durationTicks": 96,
          "midi": 50,
          "name": "D3",
          "ticks": 185153,
          "time": 241.08463541666666,
          "velocity": 0.08661417322834646
        },
        {
          "duration": 0.125,
          "durationTicks": 96,
          "midi": 31,
          "name": "G1",
          "ticks": 185153,
          "time": 241.08463541666666,
          "velocity": 0.3543307086614173
        },
        {
          "duration": 0.125,
          "durationTicks": 96,
          "midi": 58,
          "name": "A#3",
          "ticks": 185153,
          "time": 241.08463541666666,
          "velocity": 0.08661417322834646
        },
        {
          "duration": 0.125,
          "durationTicks": 96,
          "midi": 44,
          "name": "G#2",
          "ticks": 185313,
          "time": 241.29296875,
          "velocity": 0.36220472440944884
        },
        {
          "duration": 0.125,
          "durationTicks": 96,
          "midi": 63,
          "name": "D#4",
          "ticks": 185331,
          "time": 241.31640625,
          "velocity": 0.11811023622047244
        },
        {
          "duration": 0,
          "durationTicks": 0,
          "midi": 31,
          "name": "G1",
          "ticks": 185456,
          "time": 241.47916666666666,
          "velocity": 0.25984251968503935
        },
        {
          "duration": 0.125,
          "durationTicks": 96,
          "midi": 44,
          "name": "G#2",
          "ticks": 185510,
          "time": 241.54947916666666,
          "velocity": 0.36220472440944884
        },
        {
          "duration": 0.1263020833333428,
          "durationTicks": 97,
          "midi": 63,
          "name": "D#4",
          "ticks": 185537,
          "time": 241.58463541666666,
          "velocity": 0.08661417322834646
        },
        {
          "duration": 0.12630208333331439,
          "durationTicks": 97,
          "midi": 32,
          "name": "G#1",
          "ticks": 185617,
          "time": 241.68880208333334,
          "velocity": 0.3464566929133858
        },
        {
          "duration": 0.1263020833333428,
          "durationTicks": 97,
          "midi": 51,
          "name": "D#3",
          "ticks": 185627,
          "time": 241.70182291666666,
          "velocity": 0.07086614173228346
        },
        {
          "duration": 0,
          "durationTicks": 0,
          "midi": 32,
          "name": "G#1",
          "ticks": 185824,
          "time": 241.95833333333334,
          "velocity": 0.33070866141732286
        },
        {
          "duration": 0,
          "durationTicks": 0,
          "midi": 33,
          "name": "A1",
          "ticks": 185842,
          "time": 241.98177083333334,
          "velocity": 0.3228346456692913
        },
        {
          "duration": 0.125,
          "durationTicks": 96,
          "midi": 32,
          "name": "G#1",
          "ticks": 185878,
          "time": 242.02864583333334,
          "velocity": 0.3464566929133858
        },
        {
          "duration": 0.125,
          "durationTicks": 96,
          "midi": 51,
          "name": "D#3",
          "ticks": 185878,
          "time": 242.02864583333334,
          "velocity": 0.07874015748031496
        },
        {
          "duration": 0.25,
          "durationTicks": 192,
          "midi": 34,
          "name": "A#1",
          "ticks": 185986,
          "time": 242.16927083333334,
          "velocity": 0.36220472440944884
        },
        {
          "duration": 0.25,
          "durationTicks": 192,
          "midi": 53,
          "name": "F3",
          "ticks": 185986,
          "time": 242.16927083333334,
          "velocity": 0.08661417322834646
        },
        {
          "duration": 0,
          "durationTicks": 0,
          "midi": 54,
          "name": "F#3",
          "ticks": 186165,
          "time": 242.40234375,
          "velocity": 0.05511811023622047
        },
        {
          "duration": 0,
          "durationTicks": 0,
          "midi": 34,
          "name": "A#1",
          "ticks": 186218,
          "time": 242.47135416666666,
          "velocity": 0.3858267716535433
        },
        {
          "duration": 0,
          "durationTicks": 0,
          "midi": 54,
          "name": "F#3",
          "ticks": 186254,
          "time": 242.51822916666666,
          "velocity": 0.07874015748031496
        },
        {
          "duration": 0,
          "durationTicks": 0,
          "midi": 35,
          "name": "B1",
          "ticks": 186254,
          "time": 242.51822916666666,
          "velocity": 0.36220472440944884
        },
        {
          "duration": 0.125,
          "durationTicks": 96,
          "midi": 55,
          "name": "G3",
          "ticks": 186290,
          "time": 242.56510416666666,
          "velocity": 0.08661417322834646
        },
        {
          "duration": 0.125,
          "durationTicks": 96,
          "midi": 36,
          "name": "C2",
          "ticks": 186299,
          "time": 242.57682291666666,
          "velocity": 0.36220472440944884
        },
        {
          "duration": 0.25,
          "durationTicks": 192,
          "midi": 48,
          "name": "C3",
          "ticks": 186361,
          "time": 242.65755208333334,
          "velocity": 0.36220472440944884
        },
        {
          "duration": 0.25,
          "durationTicks": 192,
          "midi": 67,
          "name": "G4",
          "ticks": 186379,
          "time": 242.68098958333334,
          "velocity": 0.07086614173228346
        },
        {
          "duration": 0.2486979166666572,
          "durationTicks": 191,
          "midi": 58,
          "name": "A#3",
          "ticks": 186558,
          "time": 242.9140625,
          "velocity": 0.11023622047244094
        },
        {
          "duration": 0.25,
          "durationTicks": 192,
          "midi": 39,
          "name": "D#2",
          "ticks": 186584,
          "time": 242.94791666666666,
          "velocity": 0.3700787401574803
        },
        {
          "duration": 0.25,
          "durationTicks": 192,
          "midi": 70,
          "name": "A#4",
          "ticks": 186744,
          "time": 243.15625,
          "velocity": 0.08661417322834646
        },
        {
          "duration": 0.12760416666668561,
          "durationTicks": 98,
          "midi": 72,
          "name": "C5",
          "ticks": 186932,
          "time": 243.40104166666666,
          "velocity": 0.15748031496062992
        },
        {
          "duration": 0,
          "durationTicks": 0,
          "midi": 29,
          "name": "F1",
          "ticks": 186941,
          "time": 243.41276041666666,
          "velocity": 0.4015748031496063
        },
        {
          "duration": 0,
          "durationTicks": 0,
          "midi": 30,
          "name": "F#1",
          "ticks": 186950,
          "time": 243.42447916666666,
          "velocity": 0.4251968503937008
        },
        {
          "duration": 0,
          "durationTicks": 0,
          "midi": 48,
          "name": "C3",
          "ticks": 186977,
          "time": 243.45963541666666,
          "velocity": 0.13385826771653545
        },
        {
          "duration": 0.12760416666668561,
          "durationTicks": 98,
          "midi": 68,
          "name": "G#4",
          "ticks": 186977,
          "time": 243.45963541666666,
          "velocity": 0.15748031496062992
        },
        {
          "duration": 0.1276041666666572,
          "durationTicks": 98,
          "midi": 29,
          "name": "F1",
          "ticks": 186987,
          "time": 243.47265625,
          "velocity": 0.3779527559055118
        },
        {
          "duration": 0.1276041666666572,
          "durationTicks": 98,
          "midi": 48,
          "name": "C3",
          "ticks": 187023,
          "time": 243.51953125,
          "velocity": 0.08661417322834646
        },
        {
          "duration": 0,
          "durationTicks": 0,
          "midi": 67,
          "name": "G4",
          "ticks": 187041,
          "time": 243.54296875,
          "velocity": 0.14960629921259844
        },
        {
          "duration": 0,
          "durationTicks": 0,
          "midi": 63,
          "name": "D#4",
          "ticks": 187078,
          "time": 243.59114583333334,
          "velocity": 0.15748031496062992
        },
        {
          "duration": 0,
          "durationTicks": 0,
          "midi": 60,
          "name": "C4",
          "ticks": 187123,
          "time": 243.64973958333334,
          "velocity": 0.15748031496062992
        },
        {
          "duration": 0.125,
          "durationTicks": 96,
          "midi": 65,
          "name": "F4",
          "ticks": 187132,
          "time": 243.66145833333334,
          "velocity": 0.2440944881889764
        },
        {
          "duration": 0,
          "durationTicks": 0,
          "midi": 58,
          "name": "A#3",
          "ticks": 187177,
          "time": 243.72005208333334,
          "velocity": 0.1732283464566929
        },
        {
          "duration": 0,
          "durationTicks": 0,
          "midi": 66,
          "name": "F#4",
          "ticks": 187186,
          "time": 243.73177083333334,
          "velocity": 0.25196850393700787
        },
        {
          "duration": 0.125,
          "durationTicks": 96,
          "midi": 67,
          "name": "G4",
          "ticks": 187204,
          "time": 243.75520833333334,
          "velocity": 0.25196850393700787
        },
        {
          "duration": 0,
          "durationTicks": 0,
          "midi": 86,
          "name": "D6",
          "ticks": 187213,
          "time": 243.76692708333334,
          "velocity": 0.05511811023622047
        },
        {
          "duration": 0,
          "durationTicks": 0,
          "midi": 56,
          "name": "G#3",
          "ticks": 187231,
          "time": 243.79036458333334,
          "velocity": 0.16535433070866143
        },
        {
          "duration": 0,
          "durationTicks": 0,
          "midi": 55,
          "name": "G3",
          "ticks": 187275,
          "time": 243.84765625,
          "velocity": 0.16535433070866143
        },
        {
          "duration": 0,
          "durationTicks": 0,
          "midi": 68,
          "name": "G#4",
          "ticks": 187302,
          "time": 243.8828125,
          "velocity": 0.1889763779527559
        },
        {
          "duration": 0,
          "durationTicks": 0,
          "midi": 72,
          "name": "C5",
          "ticks": 187320,
          "time": 243.90625,
          "velocity": 0.10236220472440945
        },
        {
          "duration": 0.125,
          "durationTicks": 96,
          "midi": 67,
          "name": "G4",
          "ticks": 187320,
          "time": 243.90625,
          "velocity": 0.25984251968503935
        },
        {
          "duration": 0,
          "durationTicks": 0,
          "midi": 31,
          "name": "G1",
          "ticks": 187337,
          "time": 243.92838541666666,
          "velocity": 0.29133858267716534
        },
        {
          "duration": 0,
          "durationTicks": 0,
          "midi": 68,
          "name": "G#4",
          "ticks": 187409,
          "time": 244.02213541666666,
          "velocity": 0.18110236220472442
        },
        {
          "duration": 0,
          "durationTicks": 0,
          "midi": 67,
          "name": "G4",
          "ticks": 187427,
          "time": 244.04557291666666,
          "velocity": 0.08661417322834646
        },
        {
          "duration": 0,
          "durationTicks": 0,
          "midi": 66,
          "name": "F#4",
          "ticks": 187463,
          "time": 244.09244791666666,
          "velocity": 0.07086614173228346
        },
        {
          "duration": 0,
          "durationTicks": 0,
          "midi": 63,
          "name": "D#4",
          "ticks": 187472,
          "time": 244.10416666666666,
          "velocity": 0.13385826771653545
        },
        {
          "duration": 0,
          "durationTicks": 0,
          "midi": 60,
          "name": "C4",
          "ticks": 187508,
          "time": 244.15104166666666,
          "velocity": 0.08661417322834646
        },
        {
          "duration": 0.125,
          "durationTicks": 96,
          "midi": 65,
          "name": "F4",
          "ticks": 187508,
          "time": 244.15104166666666,
          "velocity": 0.2440944881889764
        },
        {
          "duration": 0.125,
          "durationTicks": 96,
          "midi": 27,
          "name": "D#1",
          "ticks": 187517,
          "time": 244.16276041666666,
          "velocity": 0.36220472440944884
        },
        {
          "duration": 0.125,
          "durationTicks": 96,
          "midi": 46,
          "name": "A#2",
          "ticks": 187517,
          "time": 244.16276041666666,
          "velocity": 0.10236220472440945
        },
        {
          "duration": 0.12630208333331439,
          "durationTicks": 97,
          "midi": 56,
          "name": "G#3",
          "ticks": 187606,
          "time": 244.27864583333334,
          "velocity": 0.08661417322834646
        },
        {
          "duration": 0.2513020833333144,
          "durationTicks": 193,
          "midi": 67,
          "name": "G4",
          "ticks": 187606,
          "time": 244.27864583333334,
          "velocity": 0.2755905511811024
        },
        {
          "duration": 0.2513020833333144,
          "durationTicks": 193,
          "midi": 86,
          "name": "D6",
          "ticks": 187606,
          "time": 244.27864583333334,
          "velocity": 0.07086614173228346
        },
        {
          "duration": 0,
          "durationTicks": 0,
          "midi": 55,
          "name": "G3",
          "ticks": 187660,
          "time": 244.34895833333334,
          "velocity": 0.09448818897637795
        },
        {
          "duration": 0,
          "durationTicks": 0,
          "midi": 28,
          "name": "E1",
          "ticks": 187687,
          "time": 244.38411458333334,
          "velocity": 0.36220472440944884
        },
        {
          "duration": 0,
          "durationTicks": 0,
          "midi": 72,
          "name": "C5",
          "ticks": 187696,
          "time": 244.39583333333334,
          "velocity": 0.05511811023622047
        },
        {
          "duration": 0,
          "durationTicks": 0,
          "midi": 29,
          "name": "F1",
          "ticks": 187706,
          "time": 244.40885416666666,
          "velocity": 0.4094488188976378
        },
        {
          "duration": 0,
          "durationTicks": 0,
          "midi": 30,
          "name": "F#1",
          "ticks": 187715,
          "time": 244.42057291666666,
          "velocity": 0.4251968503937008
        },
        {
          "duration": 0,
          "durationTicks": 0,
          "midi": 48,
          "name": "C3",
          "ticks": 187742,
          "time": 244.45572916666666,
          "velocity": 0.13385826771653545
        },
        {
          "duration": 0.12369791666668561,
          "durationTicks": 95,
          "midi": 29,
          "name": "F1",
          "ticks": 187751,
          "time": 244.46744791666666,
          "velocity": 0.3779527559055118
        },
        {
          "duration": 0.125,
          "durationTicks": 96,
          "midi": 48,
          "name": "C3",
          "ticks": 187787,
          "time": 244.51432291666666,
          "velocity": 0.08661417322834646
        },
        {
          "duration": 0,
          "durationTicks": 0,
          "midi": 68,
          "name": "G#4",
          "ticks": 187822,
          "time": 244.55989583333334,
          "velocity": 0.25984251968503935
        },
        {
          "duration": 0,
          "durationTicks": 0,
          "midi": 63,
          "name": "D#4",
          "ticks": 187858,
          "time": 244.60677083333334,
          "velocity": 0.06299212598425197
        },
        {
          "duration": 0.125,
          "durationTicks": 96,
          "midi": 67,
          "name": "G4",
          "ticks": 187867,
          "time": 244.61848958333334,
          "velocity": 0.25984251968503935
        },
        {
          "duration": 0,
          "durationTicks": 0,
          "midi": 68,
          "name": "G#4",
          "ticks": 188010,
          "time": 244.8046875,
          "velocity": 0.14173228346456693
        },
        {
          "duration": 0,
          "durationTicks": 0,
          "midi": 67,
          "name": "G4",
          "ticks": 188037,
          "time": 244.83984375,
          "velocity": 0.1732283464566929
        },
        {
          "duration": 0,
          "durationTicks": 0,
          "midi": 44,
          "name": "G#2",
          "ticks": 188073,
          "time": 244.88671875,
          "velocity": 0.3937007874015748
        },
        {
          "duration": 0.2513020833333428,
          "durationTicks": 193,
          "midi": 65,
          "name": "F4",
          "ticks": 188073,
          "time": 244.88671875,
          "velocity": 0.25196850393700787
        },
        {
          "duration": 0.1263020833333428,
          "durationTicks": 97,
          "midi": 43,
          "name": "G2",
          "ticks": 188100,
          "time": 244.921875,
          "velocity": 0.3464566929133858
        },
        {
          "duration": 0,
          "durationTicks": 0,
          "midi": 31,
          "name": "G1",
          "ticks": 188109,
          "time": 244.93359375,
          "velocity": 0.25984251968503935
        },
        {
          "duration": 0.1263020833333428,
          "durationTicks": 97,
          "midi": 31,
          "name": "G1",
          "ticks": 188181,
          "time": 245.02734375,
          "velocity": 0.3464566929133858
        },
        {
          "duration": 0.1263020833333428,
          "durationTicks": 97,
          "midi": 50,
          "name": "D3",
          "ticks": 188190,
          "time": 245.0390625,
          "velocity": 0.08661417322834646
        },
        {
          "duration": 0.2513020833333428,
          "durationTicks": 193,
          "midi": 67,
          "name": "G4",
          "ticks": 188280,
          "time": 245.15625,
          "velocity": 0.25196850393700787
        },
        {
          "duration": 0.125,
          "durationTicks": 96,
          "midi": 44,
          "name": "G#2",
          "ticks": 188352,
          "time": 245.25,
          "velocity": 0.36220472440944884
        },
        {
          "duration": 0.125,
          "durationTicks": 96,
          "midi": 63,
          "name": "D#4",
          "ticks": 188361,
          "time": 245.26171875,
          "velocity": 0.10236220472440945
        },
        {
          "duration": 0.1263020833333428,
          "durationTicks": 97,
          "midi": 68,
          "name": "G#4",
          "ticks": 188459,
          "time": 245.38932291666666,
          "velocity": 0.25196850393700787
        },
        {
          "duration": 0,
          "durationTicks": 0,
          "midi": 47,
          "name": "B2",
          "ticks": 188468,
          "time": 245.40104166666666,
          "velocity": 0.11811023622047244
        },
        {
          "duration": 0,
          "durationTicks": 0,
          "midi": 87,
          "name": "D#6",
          "ticks": 188468,
          "time": 245.40104166666666,
          "velocity": 0.11023622047244094
        },
        {
          "duration": 0,
          "durationTicks": 0,
          "midi": 31,
          "name": "G1",
          "ticks": 188478,
          "time": 245.4140625,
          "velocity": 0.29133858267716534
        },
        {
          "duration": 0.125,
          "durationTicks": 96,
          "midi": 65,
          "name": "F4",
          "ticks": 188487,
          "time": 245.42578125,
          "velocity": 0.07874015748031496
        },
        {
          "duration": 0,
          "durationTicks": 0,
          "midi": 69,
          "name": "A4",
          "ticks": 188514,
          "time": 245.4609375,
          "velocity": 0.25196850393700787
        },
        {
          "duration": 0.2513020833333428,
          "durationTicks": 193,
          "midi": 70,
          "name": "A#4",
          "ticks": 188532,
          "time": 245.484375,
          "velocity": 0.2677165354330709
        },
        {
          "duration": 0.125,
          "durationTicks": 96,
          "midi": 44,
          "name": "G#2",
          "ticks": 188549,
          "time": 245.50651041666666,
          "velocity": 0.36220472440944884
        },
        {
          "duration": 0.2513020833333428,
          "durationTicks": 193,
          "midi": 67,
          "name": "G4",
          "ticks": 188559,
          "time": 245.51953125,
          "velocity": 0.08661417322834646
        },
        {
          "duration": 0.125,
          "durationTicks": 96,
          "midi": 63,
          "name": "D#4",
          "ticks": 188568,
          "time": 245.53125,
          "velocity": 0.08661417322834646
        },
        {
          "duration": 0.1263020833333428,
          "durationTicks": 97,
          "midi": 89,
          "name": "F6",
          "ticks": 188603,
          "time": 245.57682291666666,
          "velocity": 0.05511811023622047
        },
        {
          "duration": 0.1263020833333428,
          "durationTicks": 97,
          "midi": 32,
          "name": "G#1",
          "ticks": 188657,
          "time": 245.64713541666666,
          "velocity": 0.3464566929133858
        },
        {
          "duration": 0.1263020833333428,
          "durationTicks": 97,
          "midi": 51,
          "name": "D#3",
          "ticks": 188666,
          "time": 245.65885416666666,
          "velocity": 0.08661417322834646
        },
        {
          "duration": 0.125,
          "durationTicks": 96,
          "midi": 68,
          "name": "G#4",
          "ticks": 188747,
          "time": 245.76432291666666,
          "velocity": 0.06299212598425197
        },
        {
          "duration": 0,
          "durationTicks": 0,
          "midi": 29,
          "name": "F1",
          "ticks": 188828,
          "time": 245.86979166666666,
          "velocity": 0.33858267716535434
        },
        {
          "duration": 0.12369791666668561,
          "durationTicks": 95,
          "midi": 68,
          "name": "G#4",
          "ticks": 188828,
          "time": 245.86979166666666,
          "velocity": 0.25984251968503935
        },
        {
          "duration": 0,
          "durationTicks": 0,
          "midi": 52,
          "name": "E3",
          "ticks": 188845,
          "time": 245.89192708333334,
          "velocity": 0.09448818897637795
        },
        {
          "duration": 0,
          "durationTicks": 0,
          "midi": 32,
          "name": "G#1",
          "ticks": 188863,
          "time": 245.91536458333334,
          "velocity": 0.31496062992125984
        },
        {
          "duration": 0,
          "durationTicks": 0,
          "midi": 33,
          "name": "A1",
          "ticks": 188880,
          "time": 245.9375,
          "velocity": 0.31496062992125984
        },
        {
          "duration": 0.125,
          "durationTicks": 96,
          "midi": 51,
          "name": "D#3",
          "ticks": 188880,
          "time": 245.9375,
          "velocity": 0.11023622047244094
        },
        {
          "duration": 0.125,
          "durationTicks": 96,
          "midi": 32,
          "name": "G#1",
          "ticks": 188907,
          "time": 245.97265625,
          "velocity": 0.3464566929133858
        },
        {
          "duration": 0.125,
          "durationTicks": 96,
          "midi": 70,
          "name": "A#4",
          "ticks": 188952,
          "time": 246.03125,
          "velocity": 0.08661417322834646
        },
        {
          "duration": 0.09244791666665719,
          "durationTicks": 71,
          "midi": 67,
          "name": "G4",
          "ticks": 189015,
          "time": 246.11328125,
          "velocity": 0.2677165354330709
        },
        {
          "duration": 0,
          "durationTicks": 0,
          "midi": 86,
          "name": "D6",
          "ticks": 189033,
          "time": 246.13671875,
          "velocity": 0.05511811023622047
        },
        {
          "duration": 0,
          "durationTicks": 0,
          "midi": 75,
          "name": "D#5",
          "ticks": 189050,
          "time": 246.15885416666666,
          "velocity": 0.11023622047244094
        },
        {
          "duration": 0.03255208333334281,
          "durationTicks": 25,
          "midi": 67,
          "name": "G4",
          "ticks": 189086,
          "time": 246.20572916666666,
          "velocity": 0.08661417322834646
        },
        {
          "duration": 0.375,
          "durationTicks": 288,
          "midi": 65,
          "name": "F4",
          "ticks": 189113,
          "time": 246.24088541666666,
          "velocity": 0.28346456692913385
        },
        {
          "duration": 0.2486979166666572,
          "durationTicks": 191,
          "midi": 84,
          "name": "C6",
          "ticks": 189123,
          "time": 246.25390625,
          "velocity": 0.06299212598425197
        },
        {
          "duration": 0.12369791666665719,
          "durationTicks": 95,
          "midi": 68,
          "name": "G#4",
          "ticks": 189132,
          "time": 246.265625,
          "velocity": 0.07086614173228346
        },
        {
          "duration": 0,
          "durationTicks": 0,
          "midi": 73,
          "name": "C#5",
          "ticks": 189149,
          "time": 246.28776041666666,
          "velocity": 0.11023622047244094
        },
        {
          "duration": 0,
          "durationTicks": 0,
          "midi": 55,
          "name": "G3",
          "ticks": 189212,
          "time": 246.36979166666666,
          "velocity": 0.09448818897637795
        },
        {
          "duration": 0,
          "durationTicks": 0,
          "midi": 35,
          "name": "B1",
          "ticks": 189238,
          "time": 246.40364583333334,
          "velocity": 0.4015748031496063
        },
        {
          "duration": 0.12369791666665719,
          "durationTicks": 95,
          "midi": 55,
          "name": "G3",
          "ticks": 189256,
          "time": 246.42708333333334,
          "velocity": 0.10236220472440945
        },
        {
          "duration": 0,
          "durationTicks": 0,
          "midi": 37,
          "name": "C#2",
          "ticks": 189265,
          "time": 246.43880208333334,
          "velocity": 0.36220472440944884
        },
        {
          "duration": 0.12369791666665719,
          "durationTicks": 95,
          "midi": 36,
          "name": "C2",
          "ticks": 189283,
          "time": 246.46223958333334,
          "velocity": 0.3779527559055118
        },
        {
          "duration": 0,
          "durationTicks": 0,
          "midi": 61,
          "name": "C#4",
          "ticks": 189301,
          "time": 246.48567708333334,
          "velocity": 0.11811023622047244
        },
        {
          "duration": 0,
          "durationTicks": 0,
          "midi": 73,
          "name": "C#5",
          "ticks": 189318,
          "time": 246.5078125,
          "velocity": 0.11811023622047244
        },
        {
          "duration": 0,
          "durationTicks": 0,
          "midi": 69,
          "name": "A4",
          "ticks": 189336,
          "time": 246.53125,
          "velocity": 0.12598425196850394
        },
        {
          "duration": 0,
          "durationTicks": 0,
          "midi": 72,
          "name": "C5",
          "ticks": 189363,
          "time": 246.56640625,
          "velocity": 0.11811023622047244
        },
        {
          "duration": 0,
          "durationTicks": 0,
          "midi": 68,
          "name": "G#4",
          "ticks": 189390,
          "time": 246.6015625,
          "velocity": 0.16535433070866143
        },
        {
          "duration": 0,
          "durationTicks": 0,
          "midi": 84,
          "name": "C6",
          "ticks": 189390,
          "time": 246.6015625,
          "velocity": 0.05511811023622047
        },
        {
          "duration": 0.25,
          "durationTicks": 192,
          "midi": 65,
          "name": "F4",
          "ticks": 189399,
          "time": 246.61328125,
          "velocity": 0.25984251968503935
        },
        {
          "duration": 0,
          "durationTicks": 0,
          "midi": 58,
          "name": "A#3",
          "ticks": 189443,
          "time": 246.67057291666666,
          "velocity": 0.11811023622047244
        },
        {
          "duration": 0,
          "durationTicks": 0,
          "midi": 67,
          "name": "G4",
          "ticks": 189443,
          "time": 246.67057291666666,
          "velocity": 0.14960629921259844
        },
        {
          "duration": 0,
          "durationTicks": 0,
          "midi": 84,
          "name": "C6",
          "ticks": 189461,
          "time": 246.69401041666666,
          "velocity": 0.05511811023622047
        },
        {
          "duration": 0.12630208333331439,
          "durationTicks": 97,
          "midi": 65,
          "name": "F4",
          "ticks": 189586,
          "time": 246.85677083333334,
          "velocity": 0.2283464566929134
        },
        {
          "duration": 0,
          "durationTicks": 0,
          "midi": 46,
          "name": "A#2",
          "ticks": 189596,
          "time": 246.86979166666666,
          "velocity": 0.2677165354330709
        },
        {
          "duration": 0.2513020833333428,
          "durationTicks": 193,
          "midi": 53,
          "name": "F3",
          "ticks": 189605,
          "time": 246.88151041666666,
          "velocity": 0.10236220472440945
        },
        {
          "duration": 0,
          "durationTicks": 0,
          "midi": 34,
          "name": "A#1",
          "ticks": 189632,
          "time": 246.91666666666666,
          "velocity": 0.3779527559055118
        },
        {
          "duration": 0,
          "durationTicks": 0,
          "midi": 34,
          "name": "A#1",
          "ticks": 189659,
          "time": 246.95182291666666,
          "velocity": 0.36220472440944884
        },
        {
          "duration": 0.125,
          "durationTicks": 96,
          "midi": 34,
          "name": "A#1",
          "ticks": 189686,
          "time": 246.98697916666666,
          "velocity": 0.3543307086614173
        },
        {
          "duration": 0.25,
          "durationTicks": 192,
          "midi": 65,
          "name": "F4",
          "ticks": 189739,
          "time": 247.05598958333334,
          "velocity": 0.12598425196850394
        },
        {
          "duration": 0,
          "durationTicks": 0,
          "midi": 47,
          "name": "B2",
          "ticks": 189775,
          "time": 247.10286458333334,
          "velocity": 0.33070866141732286
        },
        {
          "duration": 0.2513020833333144,
          "durationTicks": 193,
          "midi": 46,
          "name": "A#2",
          "ticks": 189793,
          "time": 247.12630208333334,
          "velocity": 0.3464566929133858
        },
        {
          "duration": 0,
          "durationTicks": 0,
          "midi": 28,
          "name": "E1",
          "ticks": 189963,
          "time": 247.34765625,
          "velocity": 0.3700787401574803
        },
        {
          "duration": 0.2513020833333428,
          "durationTicks": 193,
          "midi": 75,
          "name": "D#5",
          "ticks": 189972,
          "time": 247.359375,
          "velocity": 0.14173228346456693
        },
        {
          "duration": 0.2513020833333428,
          "durationTicks": 193,
          "midi": 70,
          "name": "A#4",
          "ticks": 189972,
          "time": 247.359375,
          "velocity": 0.1732283464566929
        },
        {
          "duration": 0,
          "durationTicks": 0,
          "midi": 29,
          "name": "F1",
          "ticks": 189982,
          "time": 247.37239583333334,
          "velocity": 0.4094488188976378
        },
        {
          "duration": 0,
          "durationTicks": 0,
          "midi": 48,
          "name": "C3",
          "ticks": 189982,
          "time": 247.37239583333334,
          "velocity": 0.1968503937007874
        },
        {
          "duration": 0.12630208333331439,
          "durationTicks": 97,
          "midi": 65,
          "name": "F4",
          "ticks": 189982,
          "time": 247.37239583333334,
          "velocity": 0.16535433070866143
        },
        {
          "duration": 0,
          "durationTicks": 0,
          "midi": 30,
          "name": "F#1",
          "ticks": 189991,
          "time": 247.38411458333334,
          "velocity": 0.4251968503937008
        },
        {
          "duration": 0,
          "durationTicks": 0,
          "midi": 48,
          "name": "C3",
          "ticks": 190018,
          "time": 247.41927083333334,
          "velocity": 0.13385826771653545
        },
        {
          "duration": 0,
          "durationTicks": 0,
          "midi": 29,
          "name": "F1",
          "ticks": 190027,
          "time": 247.43098958333334,
          "velocity": 0.3779527559055118
        },
        {
          "duration": 0,
          "durationTicks": 0,
          "midi": 67,
          "name": "G4",
          "ticks": 190152,
          "time": 247.59375,
          "velocity": 0.25984251968503935
        },
        {
          "duration": 0,
          "durationTicks": 0,
          "midi": 62,
          "name": "D4",
          "ticks": 190152,
          "time": 247.59375,
          "velocity": 0.13385826771653545
        },
        {
          "duration": 0,
          "durationTicks": 0,
          "midi": 72,
          "name": "C5",
          "ticks": 190152,
          "time": 247.59375,
          "velocity": 0.14960629921259844
        },
        {
          "duration": 0.125,
          "durationTicks": 96,
          "midi": 68,
          "name": "G#4",
          "ticks": 190170,
          "time": 247.6171875,
          "velocity": 0.28346456692913385
        },
        {
          "duration": 0.125,
          "durationTicks": 96,
          "midi": 48,
          "name": "C3",
          "ticks": 190170,
          "time": 247.6171875,
          "velocity": 0.08661417322834646
        },
        {
          "duration": 0.125,
          "durationTicks": 96,
          "midi": 29,
          "name": "F1",
          "ticks": 190170,
          "time": 247.6171875,
          "velocity": 0.36220472440944884
        },
        {
          "duration": 0,
          "durationTicks": 0,
          "midi": 71,
          "name": "B4",
          "ticks": 190179,
          "time": 247.62890625,
          "velocity": 0.12598425196850394
        },
        {
          "duration": 0,
          "durationTicks": 0,
          "midi": 59,
          "name": "B3",
          "ticks": 190197,
          "time": 247.65234375,
          "velocity": 0.14173228346456693
        },
        {
          "duration": 0,
          "durationTicks": 0,
          "midi": 64,
          "name": "E4",
          "ticks": 190197,
          "time": 247.65234375,
          "velocity": 0.13385826771653545
        },
        {
          "duration": 0,
          "durationTicks": 0,
          "midi": 69,
          "name": "A4",
          "ticks": 190214,
          "time": 247.67447916666666,
          "velocity": 0.25984251968503935
        },
        {
          "duration": 0.2513020833333428,
          "durationTicks": 193,
          "midi": 70,
          "name": "A#4",
          "ticks": 190241,
          "time": 247.70963541666666,
          "velocity": 0.25984251968503935
        },
        {
          "duration": 0.2526041666666856,
          "durationTicks": 194,
          "midi": 75,
          "name": "D#5",
          "ticks": 190259,
          "time": 247.73307291666666,
          "velocity": 0.08661417322834646
        },
        {
          "duration": 0.1263020833333428,
          "durationTicks": 97,
          "midi": 65,
          "name": "F4",
          "ticks": 190268,
          "time": 247.74479166666666,
          "velocity": 0.08661417322834646
        },
        {
          "duration": 0.1263020833333428,
          "durationTicks": 97,
          "midi": 41,
          "name": "F2",
          "ticks": 190340,
          "time": 247.83854166666666,
          "velocity": 0.4094488188976378
        },
        {
          "duration": 0.1263020833333428,
          "durationTicks": 97,
          "midi": 89,
          "name": "F6",
          "ticks": 190349,
          "time": 247.85026041666666,
          "velocity": 0.07086614173228346
        },
        {
          "duration": 0,
          "durationTicks": 0,
          "midi": 61,
          "name": "C#4",
          "ticks": 190358,
          "time": 247.86197916666666,
          "velocity": 0.12598425196850394
        },
        {
          "duration": 0,
          "durationTicks": 0,
          "midi": 60,
          "name": "C4",
          "ticks": 190403,
          "time": 247.92057291666666,
          "velocity": 0.07874015748031496
        },
        {
          "duration": 0.1263020833333428,
          "durationTicks": 97,
          "midi": 41,
          "name": "F2",
          "ticks": 190403,
          "time": 247.92057291666666,
          "velocity": 0.3700787401574803
        },
        {
          "duration": 0,
          "durationTicks": 0,
          "midi": 68,
          "name": "G#4",
          "ticks": 190448,
          "time": 247.97916666666666,
          "velocity": 0.14173228346456693
        },
        {
          "duration": 0,
          "durationTicks": 0,
          "midi": 60,
          "name": "C4",
          "ticks": 190485,
          "time": 248.02734375,
          "velocity": 0.14960629921259844
        },
        {
          "duration": 0,
          "durationTicks": 0,
          "midi": 64,
          "name": "E4",
          "ticks": 190485,
          "time": 248.02734375,
          "velocity": 0.07086614173228346
        },
        {
          "duration": 0,
          "durationTicks": 0,
          "midi": 69,
          "name": "A4",
          "ticks": 190511,
          "time": 248.06119791666666,
          "velocity": 0.12598425196850394
        },
        {
          "duration": 0.125,
          "durationTicks": 96,
          "midi": 68,
          "name": "G#4",
          "ticks": 190538,
          "time": 248.09635416666666,
          "velocity": 0.2440944881889764
        },
        {
          "duration": 0.125,
          "durationTicks": 96,
          "midi": 46,
          "name": "A#2",
          "ticks": 190556,
          "time": 248.11979166666666,
          "velocity": 0.06299212598425197
        },
        {
          "duration": 0.125,
          "durationTicks": 96,
          "midi": 27,
          "name": "D#1",
          "ticks": 190556,
          "time": 248.11979166666666,
          "velocity": 0.36220472440944884
        },
        {
          "duration": 0,
          "durationTicks": 0,
          "midi": 70,
          "name": "A#4",
          "ticks": 190592,
          "time": 248.16666666666666,
          "velocity": 0.06299212598425197
        },
        {
          "duration": 0.125,
          "durationTicks": 96,
          "midi": 70,
          "name": "A#4",
          "ticks": 190637,
          "time": 248.22526041666666,
          "velocity": 0.28346456692913385
        },
        {
          "duration": 0.125,
          "durationTicks": 96,
          "midi": 89,
          "name": "F6",
          "ticks": 190637,
          "time": 248.22526041666666,
          "velocity": 0.07874015748031496
        },
        {
          "duration": 0.12630208333331439,
          "durationTicks": 97,
          "midi": 72,
          "name": "C5",
          "ticks": 190708,
          "time": 248.31770833333334,
          "velocity": 0.23622047244094488
        },
        {
          "duration": 0,
          "durationTicks": 0,
          "midi": 28,
          "name": "E1",
          "ticks": 190726,
          "time": 248.34114583333334,
          "velocity": 0.3779527559055118
        },
        {
          "duration": 0,
          "durationTicks": 0,
          "midi": 48,
          "name": "C3",
          "ticks": 190744,
          "time": 248.36458333333334,
          "velocity": 0.1889763779527559
        },
        {
          "duration": 0,
          "durationTicks": 0,
          "midi": 30,
          "name": "F#1",
          "ticks": 190744,
          "time": 248.36458333333334,
          "velocity": 0.4251968503937008
        },
        {
          "duration": 0,
          "durationTicks": 0,
          "midi": 48,
          "name": "C3",
          "ticks": 190780,
          "time": 248.41145833333334,
          "velocity": 0.13385826771653545
        },
        {
          "duration": 0.125,
          "durationTicks": 96,
          "midi": 29,
          "name": "F1",
          "ticks": 190790,
          "time": 248.42447916666666,
          "velocity": 0.3779527559055118
        },
        {
          "duration": 0.125,
          "durationTicks": 96,
          "midi": 68,
          "name": "G#4",
          "ticks": 190817,
          "time": 248.45963541666666,
          "velocity": 0.2755905511811024
        },
        {
          "duration": 0.125,
          "durationTicks": 96,
          "midi": 48,
          "name": "C3",
          "ticks": 190826,
          "time": 248.47135416666666,
          "velocity": 0.08661417322834646
        },
        {
          "duration": 0,
          "durationTicks": 0,
          "midi": 69,
          "name": "A4",
          "ticks": 190888,
          "time": 248.55208333333334,
          "velocity": 0.25196850393700787
        },
        {
          "duration": 0.12630208333331439,
          "durationTicks": 97,
          "midi": 70,
          "name": "A#4",
          "ticks": 190906,
          "time": 248.57552083333334,
          "velocity": 0.2440944881889764
        },
        {
          "duration": 0.12630208333331439,
          "durationTicks": 97,
          "midi": 89,
          "name": "F6",
          "ticks": 190915,
          "time": 248.58723958333334,
          "velocity": 0.08661417322834646
        },
        {
          "duration": 0.125,
          "durationTicks": 96,
          "midi": 67,
          "name": "G4",
          "ticks": 191005,
          "time": 248.70442708333334,
          "velocity": 0.25196850393700787
        },
        {
          "duration": 0.125,
          "durationTicks": 96,
          "midi": 68,
          "name": "G#4",
          "ticks": 191076,
          "time": 248.796875,
          "velocity": 0.25984251968503935
        },
        {
          "duration": 0,
          "durationTicks": 0,
          "midi": 44,
          "name": "G#2",
          "ticks": 191113,
          "time": 248.84505208333334,
          "velocity": 0.3858267716535433
        },
        {
          "duration": 0.125,
          "durationTicks": 96,
          "midi": 62,
          "name": "D4",
          "ticks": 191113,
          "time": 248.84505208333334,
          "velocity": 0.09448818897637795
        },
        {
          "duration": 0.1263020833333428,
          "durationTicks": 97,
          "midi": 43,
          "name": "G2",
          "ticks": 191130,
          "time": 248.8671875,
          "velocity": 0.3543307086614173
        },
        {
          "duration": 0.1263020833333428,
          "durationTicks": 97,
          "midi": 87,
          "name": "D#6",
          "ticks": 191148,
          "time": 248.890625,
          "velocity": 0.06299212598425197
        },
        {
          "duration": 0,
          "durationTicks": 0,
          "midi": 30,
          "name": "F#1",
          "ticks": 191165,
          "time": 248.91276041666666,
          "velocity": 0.2047244094488189
        },
        {
          "duration": 0,
          "durationTicks": 0,
          "midi": 44,
          "name": "G#2",
          "ticks": 191192,
          "time": 248.94791666666666,
          "velocity": 0.31496062992125984
        },
        {
          "duration": 0,
          "durationTicks": 0,
          "midi": 30,
          "name": "F#1",
          "ticks": 191202,
          "time": 248.9609375,
          "velocity": 0.3543307086614173
        },
        {
          "duration": 0,
          "durationTicks": 0,
          "midi": 70,
          "name": "A#4",
          "ticks": 191220,
          "time": 248.984375,
          "velocity": 0.25984251968503935
        },
        {
          "duration": 0.125,
          "durationTicks": 96,
          "midi": 31,
          "name": "G1",
          "ticks": 191220,
          "time": 248.984375,
          "velocity": 0.3543307086614173
        },
        {
          "duration": 0.125,
          "durationTicks": 96,
          "midi": 50,
          "name": "D3",
          "ticks": 191230,
          "time": 248.99739583333334,
          "velocity": 0.08661417322834646
        },
        {
          "duration": 0,
          "durationTicks": 0,
          "midi": 68,
          "name": "G#4",
          "ticks": 191274,
          "time": 249.0546875,
          "velocity": 0.2440944881889764
        },
        {
          "duration": 0.1263020833333428,
          "durationTicks": 97,
          "midi": 65,
          "name": "F4",
          "ticks": 191301,
          "time": 249.08984375,
          "velocity": 0.25196850393700787
        },
        {
          "duration": 0,
          "durationTicks": 0,
          "midi": 68,
          "name": "G#4",
          "ticks": 191355,
          "time": 249.16015625,
          "velocity": 0.07874015748031496
        },
        {
          "duration": 0.125,
          "durationTicks": 96,
          "midi": 44,
          "name": "G#2",
          "ticks": 191391,
          "time": 249.20703125,
          "velocity": 0.36220472440944884
        },
        {
          "duration": 0.125,
          "durationTicks": 96,
          "midi": 63,
          "name": "D#4",
          "ticks": 191400,
          "time": 249.21875,
          "velocity": 0.07874015748031496
        },
        {
          "duration": 0.125,
          "durationTicks": 96,
          "midi": 68,
          "name": "G#4",
          "ticks": 191400,
          "time": 249.21875,
          "velocity": 0.14173228346456693
        },
        {
          "duration": 0.125,
          "durationTicks": 96,
          "midi": 70,
          "name": "A#4",
          "ticks": 191489,
          "time": 249.33463541666666,
          "velocity": 0.28346456692913385
        },
        {
          "duration": 0,
          "durationTicks": 0,
          "midi": 89,
          "name": "F6",
          "ticks": 191499,
          "time": 249.34765625,
          "velocity": 0.05511811023622047
        },
        {
          "duration": 0,
          "durationTicks": 0,
          "midi": 31,
          "name": "G1",
          "ticks": 191508,
          "time": 249.359375,
          "velocity": 0.29133858267716534
        },
        {
          "duration": 0,
          "durationTicks": 0,
          "midi": 71,
          "name": "B4",
          "ticks": 191552,
          "time": 249.41666666666666,
          "velocity": 0.25984251968503935
        },
        {
          "duration": 0.1263020833333428,
          "durationTicks": 97,
          "midi": 72,
          "name": "C5",
          "ticks": 191570,
          "time": 249.44010416666666,
          "velocity": 0.25196850393700787
        },
        {
          "duration": 0.1263020833333428,
          "durationTicks": 97,
          "midi": 44,
          "name": "G#2",
          "ticks": 191588,
          "time": 249.46354166666666,
          "velocity": 0.36220472440944884
        },
        {
          "duration": 0,
          "durationTicks": 0,
          "midi": 63,
          "name": "D#4",
          "ticks": 191624,
          "time": 249.51041666666666,
          "velocity": 0.10236220472440945
        },
        {
          "duration": 0.1263020833333428,
          "durationTicks": 97,
          "midi": 91,
          "name": "G6",
          "ticks": 191633,
          "time": 249.52213541666666,
          "velocity": 0.05511811023622047
        },
        {
          "duration": 0.1263020833333428,
          "durationTicks": 97,
          "midi": 32,
          "name": "G#1",
          "ticks": 191696,
          "time": 249.60416666666666,
          "velocity": 0.3464566929133858
        },
        {
          "duration": 0.1263020833333428,
          "durationTicks": 97,
          "midi": 51,
          "name": "D#3",
          "ticks": 191696,
          "time": 249.60416666666666,
          "velocity": 0.07874015748031496
        },
        {
          "duration": 0,
          "durationTicks": 0,
          "midi": 70,
          "name": "A#4",
          "ticks": 191706,
          "time": 249.6171875,
          "velocity": 0.23622047244094488
        },
        {
          "duration": 0.125,
          "durationTicks": 96,
          "midi": 70,
          "name": "A#4",
          "ticks": 191786,
          "time": 249.72135416666666,
          "velocity": 0.06299212598425197
        },
        {
          "duration": 0.12369791666668561,
          "durationTicks": 95,
          "midi": 72,
          "name": "C5",
          "ticks": 191849,
          "time": 249.80338541666666,
          "velocity": 0.10236220472440945
        },
        {
          "duration": 0,
          "durationTicks": 0,
          "midi": 29,
          "name": "F1",
          "ticks": 191867,
          "time": 249.82682291666666,
          "velocity": 0.3464566929133858
        },
        {
          "duration": 0,
          "durationTicks": 0,
          "midi": 45,
          "name": "A2",
          "ticks": 191867,
          "time": 249.82682291666666,
          "velocity": 0.2440944881889764
        },
        {
          "duration": 0.12369791666668561,
          "durationTicks": 95,
          "midi": 68,
          "name": "G#4",
          "ticks": 191867,
          "time": 249.82682291666666,
          "velocity": 0.2440944881889764
        },
        {
          "duration": 0,
          "durationTicks": 0,
          "midi": 32,
          "name": "G#1",
          "ticks": 191894,
          "time": 249.86197916666666,
          "velocity": 0.3464566929133858
        },
        {
          "duration": 0,
          "durationTicks": 0,
          "midi": 33,
          "name": "A1",
          "ticks": 191912,
          "time": 249.88541666666666,
          "velocity": 0.31496062992125984
        },
        {
          "duration": 0,
          "durationTicks": 0,
          "midi": 69,
          "name": "A4",
          "ticks": 191929,
          "time": 249.90755208333334,
          "velocity": 0.25196850393700787
        },
        {
          "duration": 0.12369791666665719,
          "durationTicks": 95,
          "midi": 51,
          "name": "D#3",
          "ticks": 191947,
          "time": 249.93098958333334,
          "velocity": 0.08661417322834646
        },
        {
          "duration": 0.12369791666665719,
          "durationTicks": 95,
          "midi": 32,
          "name": "G#1",
          "ticks": 191947,
          "time": 249.93098958333334,
          "velocity": 0.3464566929133858
        },
        {
          "duration": 0.12369791666665719,
          "durationTicks": 95,
          "midi": 70,
          "name": "A#4",
          "ticks": 191947,
          "time": 249.93098958333334,
          "velocity": 0.28346456692913385
        },
        {
          "duration": 0.125,
          "durationTicks": 96,
          "midi": 89,
          "name": "F6",
          "ticks": 191982,
          "time": 249.9765625,
          "velocity": 0.05511811023622047
        },
        {
          "duration": 0.25,
          "durationTicks": 192,
          "midi": 53,
          "name": "F3",
          "ticks": 192053,
          "time": 250.06901041666666,
          "velocity": 0.08661417322834646
        },
        {
          "duration": 0.25,
          "durationTicks": 192,
          "midi": 34,
          "name": "A#1",
          "ticks": 192063,
          "time": 250.08203125,
          "velocity": 0.36220472440944884
        },
        {
          "duration": 0,
          "durationTicks": 0,
          "midi": 67,
          "name": "G4",
          "ticks": 192098,
          "time": 250.12760416666666,
          "velocity": 0.2047244094488189
        },
        {
          "duration": 0.125,
          "durationTicks": 96,
          "midi": 68,
          "name": "G#4",
          "ticks": 192152,
          "time": 250.19791666666666,
          "velocity": 0.07874015748031496
        },
        {
          "duration": 0.11588541666665719,
          "durationTicks": 89,
          "midi": 70,
          "name": "A#4",
          "ticks": 192232,
          "time": 250.30208333333334,
          "velocity": 0.13385826771653545
        },
        {
          "duration": 0.12630208333331439,
          "durationTicks": 97,
          "midi": 67,
          "name": "G4",
          "ticks": 192250,
          "time": 250.32552083333334,
          "velocity": 0.25196850393700787
        },
        {
          "duration": 0,
          "durationTicks": 0,
          "midi": 36,
          "name": "C2",
          "ticks": 192268,
          "time": 250.34895833333334,
          "velocity": 0.33070866141732286
        },
        {
          "duration": 0,
          "durationTicks": 0,
          "midi": 34,
          "name": "A#1",
          "ticks": 192285,
          "time": 250.37109375,
          "velocity": 0.3858267716535433
        },
        {
          "duration": 0.37890625,
          "durationTicks": 291,
          "midi": 68,
          "name": "G#4",
          "ticks": 192312,
          "time": 250.40625,
          "velocity": 0.2755905511811024
        },
        {
          "duration": 0.009114583333342807,
          "durationTicks": 7,
          "midi": 70,
          "name": "A#4",
          "ticks": 192321,
          "time": 250.41796875,
          "velocity": 0.14173228346456693
        },
        {
          "duration": 0,
          "durationTicks": 0,
          "midi": 35,
          "name": "B1",
          "ticks": 192321,
          "time": 250.41796875,
          "velocity": 0.36220472440944884
        },
        {
          "duration": 0,
          "durationTicks": 0,
          "midi": 54,
          "name": "F#3",
          "ticks": 192321,
          "time": 250.41796875,
          "velocity": 0.07874015748031496
        },
        {
          "duration": 0.2513020833333144,
          "durationTicks": 193,
          "midi": 87,
          "name": "D#6",
          "ticks": 192331,
          "time": 250.43098958333334,
          "velocity": 0.09448818897637795
        },
        {
          "duration": 0,
          "durationTicks": 0,
          "midi": 88,
          "name": "E6",
          "ticks": 192340,
          "time": 250.44270833333334,
          "velocity": 0.18110236220472442
        },
        {
          "duration": 0,
          "durationTicks": 0,
          "midi": 84,
          "name": "C6",
          "ticks": 192349,
          "time": 250.45442708333334,
          "velocity": 0.1968503937007874
        },
        {
          "duration": 0,
          "durationTicks": 0,
          "midi": 79,
          "name": "G5",
          "ticks": 192367,
          "time": 250.47786458333334,
          "velocity": 0.23622047244094488
        },
        {
          "duration": 0.125,
          "durationTicks": 96,
          "midi": 55,
          "name": "G3",
          "ticks": 192367,
          "time": 250.47786458333334,
          "velocity": 0.08661417322834646
        },
        {
          "duration": 0.125,
          "durationTicks": 96,
          "midi": 36,
          "name": "C2",
          "ticks": 192367,
          "time": 250.47786458333334,
          "velocity": 0.36220472440944884
        },
        {
          "duration": 0,
          "durationTicks": 0,
          "midi": 71,
          "name": "B4",
          "ticks": 192412,
          "time": 250.53645833333334,
          "velocity": 0.1889763779527559
        },
        {
          "duration": 0,
          "durationTicks": 0,
          "midi": 74,
          "name": "D5",
          "ticks": 192412,
          "time": 250.53645833333334,
          "velocity": 0.1968503937007874
        },
        {
          "duration": 0,
          "durationTicks": 0,
          "midi": 90,
          "name": "F#6",
          "ticks": 192429,
          "time": 250.55859375,
          "velocity": 0.1968503937007874
        },
        {
          "duration": 0.2526041666666572,
          "durationTicks": 194,
          "midi": 48,
          "name": "C3",
          "ticks": 192429,
          "time": 250.55859375,
          "velocity": 0.36220472440944884
        },
        {
          "duration": 0,
          "durationTicks": 0,
          "midi": 86,
          "name": "D6",
          "ticks": 192447,
          "time": 250.58203125,
          "velocity": 0.1968503937007874
        },
        {
          "duration": 0.1263020833333428,
          "durationTicks": 97,
          "midi": 70,
          "name": "A#4",
          "ticks": 192456,
          "time": 250.59375,
          "velocity": 0.10236220472440945
        },
        {
          "duration": 0,
          "durationTicks": 0,
          "midi": 81,
          "name": "A5",
          "ticks": 192465,
          "time": 250.60546875,
          "velocity": 0.23622047244094488
        },
        {
          "duration": 0,
          "durationTicks": 0,
          "midi": 77,
          "name": "F5",
          "ticks": 192492,
          "time": 250.640625,
          "velocity": 0.18110236220472442
        },
        {
          "duration": 0,
          "durationTicks": 0,
          "midi": 72,
          "name": "C5",
          "ticks": 192519,
          "time": 250.67578125,
          "velocity": 0.23622047244094488
        },
        {
          "duration": 0,
          "durationTicks": 0,
          "midi": 63,
          "name": "D#4",
          "ticks": 192565,
          "time": 250.73567708333334,
          "velocity": 0.2283464566929134
        },
        {
          "duration": 0.125,
          "durationTicks": 96,
          "midi": 70,
          "name": "A#4",
          "ticks": 192574,
          "time": 250.74739583333334,
          "velocity": 0.11811023622047244
        },
        {
          "duration": 0.12630208333331439,
          "durationTicks": 97,
          "midi": 68,
          "name": "G#4",
          "ticks": 192592,
          "time": 250.77083333333334,
          "velocity": 0.25196850393700787
        },
        {
          "duration": 0,
          "durationTicks": 0,
          "midi": 65,
          "name": "F4",
          "ticks": 192628,
          "time": 250.81770833333334,
          "velocity": 0.11811023622047244
        },
        {
          "duration": 0,
          "durationTicks": 0,
          "midi": 84,
          "name": "C6",
          "ticks": 192637,
          "time": 250.82942708333334,
          "velocity": 0.12598425196850394
        },
        {
          "duration": 0,
          "durationTicks": 0,
          "midi": 79,
          "name": "G5",
          "ticks": 192655,
          "time": 250.85286458333334,
          "velocity": 0.13385826771653545
        },
        {
          "duration": 0.25390625,
          "durationTicks": 195,
          "midi": 65,
          "name": "F4",
          "ticks": 192682,
          "time": 250.88802083333334,
          "velocity": 0.13385826771653545
        },
        {
          "duration": 0,
          "durationTicks": 0,
          "midi": 69,
          "name": "A4",
          "ticks": 192691,
          "time": 250.89973958333334,
          "velocity": 0.23622047244094488
        },
        {
          "duration": 0.1276041666666572,
          "durationTicks": 98,
          "midi": 39,
          "name": "D#2",
          "ticks": 192700,
          "time": 250.91145833333334,
          "velocity": 0.3543307086614173
        },
        {
          "duration": 1.3854166666666572,
          "durationTicks": 1064,
          "midi": 70,
          "name": "A#4",
          "ticks": 192709,
          "time": 250.92317708333334,
          "velocity": 0.28346456692913385
        },
        {
          "duration": 0,
          "durationTicks": 0,
          "midi": 90,
          "name": "F#6",
          "ticks": 192719,
          "time": 250.93619791666666,
          "velocity": 0.11811023622047244
        },
        {
          "duration": 0,
          "durationTicks": 0,
          "midi": 81,
          "name": "A5",
          "ticks": 192755,
          "time": 250.98307291666666,
          "velocity": 0.1732283464566929
        },
        {
          "duration": 0,
          "durationTicks": 0,
          "midi": 68,
          "name": "G#4",
          "ticks": 192764,
          "time": 250.99479166666666,
          "velocity": 0.09448818897637795
        },
        {
          "duration": 0.2513020833333428,
          "durationTicks": 193,
          "midi": 51,
          "name": "D#3",
          "ticks": 192818,
          "time": 251.06510416666666,
          "velocity": 0.36220472440944884
        },
        {
          "duration": 0.125,
          "durationTicks": 96,
          "midi": 60,
          "name": "C4",
          "ticks": 192881,
          "time": 251.14713541666666,
          "velocity": 0.1732283464566929
        },
        {
          "duration": 0.2526041666666856,
          "durationTicks": 194,
          "midi": 65,
          "name": "F4",
          "ticks": 192881,
          "time": 251.14713541666666,
          "velocity": 0.2283464566929134
        },
        {
          "duration": 0,
          "durationTicks": 0,
          "midi": 79,
          "name": "G5",
          "ticks": 192943,
          "time": 251.22786458333334,
          "velocity": 0.11023622047244094
        },
        {
          "duration": 0,
          "durationTicks": 0,
          "midi": 89,
          "name": "F6",
          "ticks": 192970,
          "time": 251.26302083333334,
          "velocity": 0.07086614173228346
        },
        {
          "duration": 0,
          "durationTicks": 0,
          "midi": 28,
          "name": "E1",
          "ticks": 193006,
          "time": 251.30989583333334,
          "velocity": 0.3858267716535433
        },
        {
          "duration": 0.1263020833333428,
          "durationTicks": 97,
          "midi": 84,
          "name": "C6",
          "ticks": 193016,
          "time": 251.32291666666666,
          "velocity": 0.08661417322834646
        },
        {
          "duration": 0,
          "durationTicks": 0,
          "midi": 30,
          "name": "F#1",
          "ticks": 193025,
          "time": 251.33463541666666,
          "velocity": 0.4251968503937008
        },
        {
          "duration": 0.1263020833333428,
          "durationTicks": 97,
          "midi": 60,
          "name": "C4",
          "ticks": 193025,
          "time": 251.33463541666666,
          "velocity": 0.15748031496062992
        },
        {
          "duration": 0,
          "durationTicks": 0,
          "midi": 48,
          "name": "C3",
          "ticks": 193061,
          "time": 251.38151041666666,
          "velocity": 0.12598425196850394
        },
        {
          "duration": 0,
          "durationTicks": 0,
          "midi": 66,
          "name": "F#4",
          "ticks": 193071,
          "time": 251.39453125,
          "velocity": 0.2677165354330709
        },
        {
          "duration": 0.125,
          "durationTicks": 96,
          "midi": 29,
          "name": "F1",
          "ticks": 193071,
          "time": 251.39453125,
          "velocity": 0.3779527559055118
        },
        {
          "duration": 0.25,
          "durationTicks": 192,
          "midi": 67,
          "name": "G4",
          "ticks": 193088,
          "time": 251.41666666666666,
          "velocity": 0.2677165354330709
        },
        {
          "duration": 0.125,
          "durationTicks": 96,
          "midi": 48,
          "name": "C3",
          "ticks": 193097,
          "time": 251.42838541666666,
          "velocity": 0.08661417322834646
        },
        {
          "duration": 0.25,
          "durationTicks": 192,
          "midi": 86,
          "name": "D6",
          "ticks": 193124,
          "time": 251.46354166666666,
          "velocity": 0.07086614173228346
        },
        {
          "duration": 0.25,
          "durationTicks": 192,
          "midi": 60,
          "name": "C4",
          "ticks": 193178,
          "time": 251.53385416666666,
          "velocity": 0.15748031496062992
        },
        {
          "duration": 0,
          "durationTicks": 0,
          "midi": 67,
          "name": "G4",
          "ticks": 193321,
          "time": 251.72005208333334,
          "velocity": 0.25196850393700787
        },
        {
          "duration": 0.12630208333331439,
          "durationTicks": 97,
          "midi": 66,
          "name": "F#4",
          "ticks": 193339,
          "time": 251.74348958333334,
          "velocity": 0.29133858267716534
        },
        {
          "duration": 0.2526041666666572,
          "durationTicks": 194,
          "midi": 63,
          "name": "D#4",
          "ticks": 193402,
          "time": 251.82552083333334,
          "velocity": 0.2677165354330709
        },
        {
          "duration": 0,
          "durationTicks": 0,
          "midi": 31,
          "name": "G1",
          "ticks": 193429,
          "time": 251.86067708333334,
          "velocity": 0.25984251968503935
        },
        {
          "duration": 0,
          "durationTicks": 0,
          "midi": 60,
          "name": "C4",
          "ticks": 193447,
          "time": 251.88411458333334,
          "velocity": 0.14173228346456693
        },
        {
          "duration": 0.12630208333331439,
          "durationTicks": 97,
          "midi": 67,
          "name": "G4",
          "ticks": 193501,
          "time": 251.95442708333334,
          "velocity": 0.07874015748031496
        },
        {
          "duration": 0.12630208333331439,
          "durationTicks": 97,
          "midi": 27,
          "name": "D#1",
          "ticks": 193582,
          "time": 252.05989583333334,
          "velocity": 0.36220472440944884
        },
        {
          "duration": 0.12630208333331439,
          "durationTicks": 97,
          "midi": 46,
          "name": "A#2",
          "ticks": 193591,
          "time": 252.07161458333334,
          "velocity": 0.07086614173228346
        },
        {
          "duration": 0.12630208333331439,
          "durationTicks": 97,
          "midi": 63,
          "name": "D#4",
          "ticks": 193690,
          "time": 252.20052083333334,
          "velocity": 0.09448818897637795
        },
        {
          "duration": 0.2526041666666572,
          "durationTicks": 194,
          "midi": 60,
          "name": "C4",
          "ticks": 193771,
          "time": 252.30598958333334,
          "velocity": 0.29133858267716534
        },
        {
          "duration": 0,
          "durationTicks": 0,
          "midi": 29,
          "name": "F1",
          "ticks": 193780,
          "time": 252.31770833333334,
          "velocity": 0.4015748031496063
        },
        {
          "duration": 0,
          "durationTicks": 0,
          "midi": 30,
          "name": "F#1",
          "ticks": 193790,
          "time": 252.33072916666666,
          "velocity": 0.4251968503937008
        },
        {
          "duration": 0,
          "durationTicks": 0,
          "midi": 48,
          "name": "C3",
          "ticks": 193807,
          "time": 252.35286458333334,
          "velocity": 0.14173228346456693
        },
        {
          "duration": 0.12630208333331439,
          "durationTicks": 97,
          "midi": 67,
          "name": "G4",
          "ticks": 193825,
          "time": 252.37630208333334,
          "velocity": 0.18110236220472442
        },
        {
          "duration": 0.12630208333331439,
          "durationTicks": 97,
          "midi": 29,
          "name": "F1",
          "ticks": 193825,
          "time": 252.37630208333334,
          "velocity": 0.3779527559055118
        },
        {
          "duration": 0.12630208333331439,
          "durationTicks": 97,
          "midi": 48,
          "name": "C3",
          "ticks": 193861,
          "time": 252.42317708333334,
          "velocity": 0.08661417322834646
        },
        {
          "duration": 0.12630208333331439,
          "durationTicks": 97,
          "midi": 65,
          "name": "F4",
          "ticks": 193870,
          "time": 252.43489583333334,
          "velocity": 0.09448818897637795
        },
        {
          "duration": 0,
          "durationTicks": 0,
          "midi": 68,
          "name": "G#4",
          "ticks": 193880,
          "time": 252.44791666666666,
          "velocity": 0.1732283464566929
        },
        {
          "duration": 0.12630208333331439,
          "durationTicks": 97,
          "midi": 70,
          "name": "A#4",
          "ticks": 193897,
          "time": 252.47005208333334,
          "velocity": 0.11023622047244094
        },
        {
          "duration": 0,
          "durationTicks": 0,
          "midi": 57,
          "name": "A3",
          "ticks": 193951,
          "time": 252.54036458333334,
          "velocity": 0.2204724409448819
        },
        {
          "duration": 0.1263020833333428,
          "durationTicks": 97,
          "midi": 75,
          "name": "D#5",
          "ticks": 193961,
          "time": 252.55338541666666,
          "velocity": 0.1889763779527559
        },
        {
          "duration": 0.125,
          "durationTicks": 96,
          "midi": 80,
          "name": "G#5",
          "ticks": 194006,
          "time": 252.61197916666666,
          "velocity": 0.1968503937007874
        },
        {
          "duration": 0.125,
          "durationTicks": 96,
          "midi": 84,
          "name": "C6",
          "ticks": 194051,
          "time": 252.67057291666666,
          "velocity": 0.1968503937007874
        },
        {
          "duration": 0.12630208333331439,
          "durationTicks": 97,
          "midi": 87,
          "name": "D#6",
          "ticks": 194104,
          "time": 252.73958333333334,
          "velocity": 0.18110236220472442
        },
        {
          "duration": 0,
          "durationTicks": 0,
          "midi": 44,
          "name": "G#2",
          "ticks": 194149,
          "time": 252.79817708333334,
          "velocity": 0.3937007874015748
        },
        {
          "duration": 0.1276041666666572,
          "durationTicks": 98,
          "midi": 63,
          "name": "D#4",
          "ticks": 194149,
          "time": 252.79817708333334,
          "velocity": 0.29133858267716534
        },
        {
          "duration": 0.1276041666666572,
          "durationTicks": 98,
          "midi": 82,
          "name": "A#5",
          "ticks": 194158,
          "time": 252.80989583333334,
          "velocity": 0.08661417322834646
        },
        {
          "duration": 0,
          "durationTicks": 0,
          "midi": 31,
          "name": "G1",
          "ticks": 194167,
          "time": 252.82161458333334,
          "velocity": 0.29133858267716534
        },
        {
          "duration": 0.12760416666668561,
          "durationTicks": 98,
          "midi": 43,
          "name": "G2",
          "ticks": 194177,
          "time": 252.83463541666666,
          "velocity": 0.3543307086614173
        },
        {
          "duration": 0,
          "durationTicks": 0,
          "midi": 67,
          "name": "G4",
          "ticks": 194204,
          "time": 252.86979166666666,
          "velocity": 0.11023622047244094
        },
        {
          "duration": 0,
          "durationTicks": 0,
          "midi": 44,
          "name": "G#2",
          "ticks": 194240,
          "time": 252.91666666666666,
          "velocity": 0.29133858267716534
        },
        {
          "duration": 0,
          "durationTicks": 0,
          "midi": 30,
          "name": "F#1",
          "ticks": 194249,
          "time": 252.92838541666666,
          "velocity": 0.3543307086614173
        },
        {
          "duration": 0.1263020833333428,
          "durationTicks": 97,
          "midi": 65,
          "name": "F4",
          "ticks": 194249,
          "time": 252.92838541666666,
          "velocity": 0.2440944881889764
        },
        {
          "duration": 0.1263020833333428,
          "durationTicks": 97,
          "midi": 84,
          "name": "C6",
          "ticks": 194258,
          "time": 252.94010416666666,
          "velocity": 0.06299212598425197
        },
        {
          "duration": 0,
          "durationTicks": 0,
          "midi": 68,
          "name": "G#4",
          "ticks": 194268,
          "time": 252.953125,
          "velocity": 0.11023622047244094
        },
        {
          "duration": 0.1263020833333428,
          "durationTicks": 97,
          "midi": 50,
          "name": "D3",
          "ticks": 194268,
          "time": 252.953125,
          "velocity": 0.08661417322834646
        },
        {
          "duration": 0.1263020833333428,
          "durationTicks": 97,
          "midi": 31,
          "name": "G1",
          "ticks": 194268,
          "time": 252.953125,
          "velocity": 0.3464566929133858
        },
        {
          "duration": 0.1263020833333428,
          "durationTicks": 97,
          "midi": 72,
          "name": "C5",
          "ticks": 194295,
          "time": 252.98828125,
          "velocity": 0.12598425196850394
        },
        {
          "duration": 0,
          "durationTicks": 0,
          "midi": 75,
          "name": "D#5",
          "ticks": 194349,
          "time": 253.05859375,
          "velocity": 0.11811023622047244
        },
        {
          "duration": 0.1263020833333428,
          "durationTicks": 97,
          "midi": 80,
          "name": "G#5",
          "ticks": 194394,
          "time": 253.1171875,
          "velocity": 0.12598425196850394
        },
        {
          "duration": 0.125,
          "durationTicks": 96,
          "midi": 60,
          "name": "C4",
          "ticks": 194430,
          "time": 253.1640625,
          "velocity": 0.25984251968503935
        },
        {
          "duration": 0.125,
          "durationTicks": 96,
          "midi": 44,
          "name": "G#2",
          "ticks": 194430,
          "time": 253.1640625,
          "velocity": 0.36220472440944884
        },
        {
          "duration": 0.125,
          "durationTicks": 96,
          "midi": 84,
          "name": "C6",
          "ticks": 194440,
          "time": 253.17708333333334,
          "velocity": 0.12598425196850394
        },
        {
          "duration": 0.125,
          "durationTicks": 96,
          "midi": 63,
          "name": "D#4",
          "ticks": 194457,
          "time": 253.19921875,
          "velocity": 0.14173228346456693
        },
        {
          "duration": 0,
          "durationTicks": 0,
          "midi": 87,
          "name": "D#6",
          "ticks": 194493,
          "time": 253.24609375,
          "velocity": 0.10236220472440945
        },
        {
          "duration": 0,
          "durationTicks": 0,
          "midi": 59,
          "name": "B3",
          "ticks": 194511,
          "time": 253.26953125,
          "velocity": 0.25984251968503935
        },
        {
          "duration": 0.25,
          "durationTicks": 192,
          "midi": 58,
          "name": "A#3",
          "ticks": 194529,
          "time": 253.29296875,
          "velocity": 0.2677165354330709
        },
        {
          "duration": 0.125,
          "durationTicks": 96,
          "midi": 77,
          "name": "F5",
          "ticks": 194538,
          "time": 253.3046875,
          "velocity": 0.05511811023622047
        },
        {
          "duration": 0,
          "durationTicks": 0,
          "midi": 31,
          "name": "G1",
          "ticks": 194573,
          "time": 253.35026041666666,
          "velocity": 0.2677165354330709
        },
        {
          "duration": 0,
          "durationTicks": 0,
          "midi": 65,
          "name": "F4",
          "ticks": 194600,
          "time": 253.38541666666666,
          "velocity": 0.09448818897637795
        },
        {
          "duration": 0.125,
          "durationTicks": 96,
          "midi": 44,
          "name": "G#2",
          "ticks": 194627,
          "time": 253.42057291666666,
          "velocity": 0.36220472440944884
        },
        {
          "duration": 0.125,
          "durationTicks": 96,
          "midi": 63,
          "name": "D#4",
          "ticks": 194627,
          "time": 253.42057291666666,
          "velocity": 0.08661417322834646
        },
        {
          "duration": 0,
          "durationTicks": 0,
          "midi": 68,
          "name": "G#4",
          "ticks": 194645,
          "time": 253.44401041666666,
          "velocity": 0.05511811023622047
        },
        {
          "duration": 0.125,
          "durationTicks": 96,
          "midi": 77,
          "name": "F5",
          "ticks": 194663,
          "time": 253.46744791666666,
          "velocity": 0.05511811023622047
        },
        {
          "duration": 0,
          "durationTicks": 0,
          "midi": 72,
          "name": "C5",
          "ticks": 194681,
          "time": 253.49088541666666,
          "velocity": 0.09448818897637795
        },
        {
          "duration": 0.125,
          "durationTicks": 96,
          "midi": 79,
          "name": "G5",
          "ticks": 194725,
          "time": 253.54817708333334,
          "velocity": 0.08661417322834646
        },
        {
          "duration": 0,
          "durationTicks": 0,
          "midi": 75,
          "name": "D#5",
          "ticks": 194735,
          "time": 253.56119791666666,
          "velocity": 0.06299212598425197
        },
        {
          "duration": 0.125,
          "durationTicks": 96,
          "midi": 32,
          "name": "G#1",
          "ticks": 194735,
          "time": 253.56119791666666,
          "velocity": 0.3464566929133858
        },
        {
          "duration": 0.125,
          "durationTicks": 96,
          "midi": 60,
          "name": "C4",
          "ticks": 194735,
          "time": 253.56119791666666,
          "velocity": 0.28346456692913385
        },
        {
          "duration": 0.125,
          "durationTicks": 96,
          "midi": 51,
          "name": "D#3",
          "ticks": 194744,
          "time": 253.57291666666666,
          "velocity": 0.08661417322834646
        },
        {
          "duration": 0,
          "durationTicks": 0,
          "midi": 80,
          "name": "G#5",
          "ticks": 194779,
          "time": 253.61848958333334,
          "velocity": 0.07086614173228346
        },
        {
          "duration": 0,
          "durationTicks": 0,
          "midi": 84,
          "name": "C6",
          "ticks": 194824,
          "time": 253.67708333333334,
          "velocity": 0.07086614173228346
        },
        {
          "duration": 0.25,
          "durationTicks": 192,
          "midi": 58,
          "name": "A#3",
          "ticks": 194833,
          "time": 253.68880208333334,
          "velocity": 0.14173228346456693
        },
        {
          "duration": 0,
          "durationTicks": 0,
          "midi": 87,
          "name": "D#6",
          "ticks": 194877,
          "time": 253.74609375,
          "velocity": 0.05511811023622047
        },
        {
          "duration": 0,
          "durationTicks": 0,
          "midi": 29,
          "name": "F1",
          "ticks": 194904,
          "time": 253.78125,
          "velocity": 0.31496062992125984
        },
        {
          "duration": 0.125,
          "durationTicks": 96,
          "midi": 82,
          "name": "A#5",
          "ticks": 194922,
          "time": 253.8046875,
          "velocity": 0.07086614173228346
        },
        {
          "duration": 0.25,
          "durationTicks": 192,
          "midi": 63,
          "name": "D#4",
          "ticks": 194922,
          "time": 253.8046875,
          "velocity": 0.2755905511811024
        },
        {
          "duration": 0,
          "durationTicks": 0,
          "midi": 32,
          "name": "G#1",
          "ticks": 194939,
          "time": 253.82682291666666,
          "velocity": 0.33070866141732286
        },
        {
          "duration": 0,
          "durationTicks": 0,
          "midi": 33,
          "name": "A1",
          "ticks": 194957,
          "time": 253.85026041666666,
          "velocity": 0.3228346456692913
        },
        {
          "duration": 0.125,
          "durationTicks": 96,
          "midi": 32,
          "name": "G#1",
          "ticks": 194993,
          "time": 253.89713541666666,
          "velocity": 0.3464566929133858
        },
        {
          "duration": 0.125,
          "durationTicks": 96,
          "midi": 51,
          "name": "D#3",
          "ticks": 194993,
          "time": 253.89713541666666,
          "velocity": 0.08661417322834646
        },
        {
          "duration": 0,
          "durationTicks": 0,
          "midi": 61,
          "name": "C#4",
          "ticks": 195074,
          "time": 254.00260416666666,
          "velocity": 0.2755905511811024
        },
        {
          "duration": 0,
          "durationTicks": 0,
          "midi": 60,
          "name": "C4",
          "ticks": 195092,
          "time": 254.02604166666666,
          "velocity": 0.25196850393700787
        },
        {
          "duration": 0,
          "durationTicks": 0,
          "midi": 58,
          "name": "A#3",
          "ticks": 195119,
          "time": 254.06119791666666,
          "velocity": 0.25984251968503935
        },
        {
          "duration": 0.2513020833333144,
          "durationTicks": 193,
          "midi": 60,
          "name": "C4",
          "ticks": 195190,
          "time": 254.15364583333334,
          "velocity": 0.25984251968503935
        },
        {
          "duration": 0,
          "durationTicks": 0,
          "midi": 36,
          "name": "C2",
          "ticks": 195288,
          "time": 254.28125,
          "velocity": 0.29133858267716534
        },
        {
          "duration": 0,
          "durationTicks": 0,
          "midi": 55,
          "name": "G3",
          "ticks": 195298,
          "time": 254.29427083333334,
          "velocity": 0.09448818897637795
        },
        {
          "duration": 0,
          "durationTicks": 0,
          "midi": 35,
          "name": "B1",
          "ticks": 195324,
          "time": 254.328125,
          "velocity": 0.4015748031496063
        },
        {
          "duration": 0.11588541666665719,
          "durationTicks": 89,
          "midi": 55,
          "name": "G3",
          "ticks": 195334,
          "time": 254.34114583333334,
          "velocity": 0.08661417322834646
        },
        {
          "duration": 0,
          "durationTicks": 0,
          "midi": 37,
          "name": "C#2",
          "ticks": 195343,
          "time": 254.35286458333334,
          "velocity": 0.3464566929133858
        },
        {
          "duration": 0.125,
          "durationTicks": 96,
          "midi": 36,
          "name": "C2",
          "ticks": 195361,
          "time": 254.37630208333334,
          "velocity": 0.3779527559055118
        },
        {
          "duration": 0,
          "durationTicks": 0,
          "midi": 61,
          "name": "C#4",
          "ticks": 195423,
          "time": 254.45703125,
          "velocity": 0.2125984251968504
        },
        {
          "duration": 0.009114583333342807,
          "durationTicks": 7,
          "midi": 55,
          "name": "G3",
          "ticks": 195423,
          "time": 254.45703125,
          "velocity": 0.07874015748031496
        },
        {
          "duration": 0.125,
          "durationTicks": 96,
          "midi": 60,
          "name": "C4",
          "ticks": 195441,
          "time": 254.48046875,
          "velocity": 0.2125984251968504
        },
        {
          "duration": 0.25,
          "durationTicks": 192,
          "midi": 48,
          "name": "C3",
          "ticks": 195486,
          "time": 254.5390625,
          "velocity": 0.36220472440944884
        },
        {
          "duration": 0.25,
          "durationTicks": 192,
          "midi": 67,
          "name": "G4",
          "ticks": 195486,
          "time": 254.5390625,
          "velocity": 0.07874015748031496
        },
        {
          "duration": 0,
          "durationTicks": 0,
          "midi": 61,
          "name": "C#4",
          "ticks": 195557,
          "time": 254.63151041666666,
          "velocity": 0.11811023622047244
        },
        {
          "duration": 0.1263020833333428,
          "durationTicks": 97,
          "midi": 79,
          "name": "G5",
          "ticks": 195683,
          "time": 254.79557291666666,
          "velocity": 0.05511811023622047
        },
        {
          "duration": 0,
          "durationTicks": 0,
          "midi": 36,
          "name": "C2",
          "ticks": 195692,
          "time": 254.80729166666666,
          "velocity": 0.3228346456692913
        },
        {
          "duration": 0,
          "durationTicks": 0,
          "midi": 34,
          "name": "A#1",
          "ticks": 195709,
          "time": 254.82942708333334,
          "velocity": 0.3779527559055118
        },
        {
          "duration": 0,
          "durationTicks": 0,
          "midi": 53,
          "name": "F3",
          "ticks": 195719,
          "time": 254.84244791666666,
          "velocity": 0.08661417322834646
        },
        {
          "duration": 0,
          "durationTicks": 0,
          "midi": 34,
          "name": "A#1",
          "ticks": 195736,
          "time": 254.86458333333334,
          "velocity": 0.3700787401574803
        },
        {
          "duration": 0.12630208333331439,
          "durationTicks": 97,
          "midi": 34,
          "name": "A#1",
          "ticks": 195763,
          "time": 254.89973958333334,
          "velocity": 0.3543307086614173
        },
        {
          "duration": 0.1263020833333428,
          "durationTicks": 97,
          "midi": 53,
          "name": "F3",
          "ticks": 195773,
          "time": 254.91276041666666,
          "velocity": 0.08661417322834646
        },
        {
          "duration": 0.1263020833333428,
          "durationTicks": 97,
          "midi": 63,
          "name": "D#4",
          "ticks": 195773,
          "time": 254.91276041666666,
          "velocity": 0.25196850393700787
        },
        {
          "duration": 0.1263020833333428,
          "durationTicks": 97,
          "midi": 82,
          "name": "A#5",
          "ticks": 195782,
          "time": 254.92447916666666,
          "velocity": 0.05511811023622047
        },
        {
          "duration": 0,
          "durationTicks": 0,
          "midi": 65,
          "name": "F4",
          "ticks": 195872,
          "time": 255.04166666666666,
          "velocity": 0.25984251968503935
        },
        {
          "duration": 0.2513020833333428,
          "durationTicks": 193,
          "midi": 46,
          "name": "A#2",
          "ticks": 195872,
          "time": 255.04166666666666,
          "velocity": 0.3464566929133858
        },
        {
          "duration": 0,
          "durationTicks": 0,
          "midi": 66,
          "name": "F#4",
          "ticks": 195908,
          "time": 255.08854166666666,
          "velocity": 0.1732283464566929
        },
        {
          "duration": 0.125,
          "durationTicks": 96,
          "midi": 68,
          "name": "G#4",
          "ticks": 195953,
          "time": 255.14713541666666,
          "velocity": 0.2440944881889764
        },
        {
          "duration": 0,
          "durationTicks": 0,
          "midi": 65,
          "name": "F4",
          "ticks": 195970,
          "time": 255.16927083333334,
          "velocity": 0.07874015748031496
        },
        {
          "duration": 0.12630208333331439,
          "durationTicks": 97,
          "midi": 60,
          "name": "C4",
          "ticks": 195970,
          "time": 255.16927083333334,
          "velocity": 0.07086614173228346
        },
        {
          "duration": 0,
          "durationTicks": 0,
          "midi": 65,
          "name": "F4",
          "ticks": 196006,
          "time": 255.21614583333334,
          "velocity": 0.08661417322834646
        },
        {
          "duration": 0.1276041666666572,
          "durationTicks": 98,
          "midi": 68,
          "name": "G#4",
          "ticks": 196042,
          "time": 255.26302083333334,
          "velocity": 0.2440944881889764
        },
        {
          "duration": 0,
          "durationTicks": 0,
          "midi": 29,
          "name": "F1",
          "ticks": 196060,
          "time": 255.28645833333334,
          "velocity": 0.4015748031496063
        },
        {
          "duration": 0,
          "durationTicks": 0,
          "midi": 30,
          "name": "F#1",
          "ticks": 196070,
          "time": 255.29947916666666,
          "velocity": 0.4251968503937008
        },
        {
          "duration": 0,
          "durationTicks": 0,
          "midi": 87,
          "name": "D#6",
          "ticks": 196070,
          "time": 255.29947916666666,
          "velocity": 0.05511811023622047
        },
        {
          "duration": 0.12760416666668561,
          "durationTicks": 98,
          "midi": 48,
          "name": "C3",
          "ticks": 196070,
          "time": 255.29947916666666,
          "velocity": 0.14173228346456693
        },
        {
          "duration": 0.12760416666668561,
          "durationTicks": 98,
          "midi": 63,
          "name": "D#4",
          "ticks": 196070,
          "time": 255.29947916666666,
          "velocity": 0.09448818897637795
        },
        {
          "duration": 0,
          "durationTicks": 0,
          "midi": 29,
          "name": "F1",
          "ticks": 196106,
          "time": 255.34635416666666,
          "velocity": 0.3858267716535433
        },
        {
          "duration": 0,
          "durationTicks": 0,
          "midi": 69,
          "name": "A4",
          "ticks": 196115,
          "time": 255.35807291666666,
          "velocity": 0.25196850393700787
        },
        {
          "duration": 0.1263020833333428,
          "durationTicks": 97,
          "midi": 70,
          "name": "A#4",
          "ticks": 196133,
          "time": 255.38151041666666,
          "velocity": 0.25984251968503935
        },
        {
          "duration": 0.1263020833333428,
          "durationTicks": 97,
          "midi": 89,
          "name": "F6",
          "ticks": 196151,
          "time": 255.40494791666666,
          "velocity": 0.05511811023622047
        },
        {
          "duration": 0,
          "durationTicks": 0,
          "midi": 65,
          "name": "F4",
          "ticks": 196161,
          "time": 255.41796875,
          "velocity": 0.05511811023622047
        },
        {
          "duration": 0,
          "durationTicks": 0,
          "midi": 68,
          "name": "G#4",
          "ticks": 196241,
          "time": 255.52213541666666,
          "velocity": 0.15748031496062992
        },
        {
          "duration": 0.1263020833333428,
          "durationTicks": 97,
          "midi": 29,
          "name": "F1",
          "ticks": 196251,
          "time": 255.53515625,
          "velocity": 0.36220472440944884
        },
        {
          "duration": 0.1263020833333428,
          "durationTicks": 97,
          "midi": 48,
          "name": "C3",
          "ticks": 196260,
          "time": 255.546875,
          "velocity": 0.08661417322834646
        },
        {
          "duration": 0.1263020833333428,
          "durationTicks": 97,
          "midi": 75,
          "name": "D#5",
          "ticks": 196341,
          "time": 255.65234375,
          "velocity": 0.11023622047244094
        },
        {
          "duration": 0.1263020833333428,
          "durationTicks": 97,
          "midi": 80,
          "name": "G#5",
          "ticks": 196341,
          "time": 255.65234375,
          "velocity": 0.11023622047244094
        },
        {
          "duration": 0.1263020833333428,
          "durationTicks": 97,
          "midi": 84,
          "name": "C6",
          "ticks": 196341,
          "time": 255.65234375,
          "velocity": 0.11023622047244094
        },
        {
          "duration": 0.1263020833333428,
          "durationTicks": 97,
          "midi": 68,
          "name": "G#4",
          "ticks": 196350,
          "time": 255.6640625,
          "velocity": 0.05511811023622047
        },
        {
          "duration": 0,
          "durationTicks": 0,
          "midi": 69,
          "name": "A4",
          "ticks": 196404,
          "time": 255.734375,
          "velocity": 0.1889763779527559
        },
        {
          "duration": 0.2513020833333144,
          "durationTicks": 193,
          "midi": 41,
          "name": "F2",
          "ticks": 196431,
          "time": 255.76953125,
          "velocity": 0.4015748031496063
        },
        {
          "duration": 0.125,
          "durationTicks": 96,
          "midi": 68,
          "name": "G#4",
          "ticks": 196440,
          "time": 255.78125,
          "velocity": 0.25196850393700787
        },
        {
          "duration": 0.125,
          "durationTicks": 96,
          "midi": 79,
          "name": "G5",
          "ticks": 196440,
          "time": 255.78125,
          "velocity": 0.11023622047244094
        },
        {
          "duration": 0.125,
          "durationTicks": 96,
          "midi": 82,
          "name": "A#5",
          "ticks": 196440,
          "time": 255.78125,
          "velocity": 0.11811023622047244
        },
        {
          "duration": 0.25,
          "durationTicks": 192,
          "midi": 60,
          "name": "C4",
          "ticks": 196467,
          "time": 255.81640625,
          "velocity": 0.07874015748031496
        },
        {
          "duration": 0,
          "durationTicks": 0,
          "midi": 79,
          "name": "G5",
          "ticks": 196556,
          "time": 255.93229166666666,
          "velocity": 0.11023622047244094
        },
        {
          "duration": 0,
          "durationTicks": 0,
          "midi": 76,
          "name": "E5",
          "ticks": 196565,
          "time": 255.94401041666666,
          "velocity": 0.11023622047244094
        },
        {
          "duration": 0,
          "durationTicks": 0,
          "midi": 84,
          "name": "C6",
          "ticks": 196565,
          "time": 255.94401041666666,
          "velocity": 0.11023622047244094
        },
        {
          "duration": 0.12369791666662877,
          "durationTicks": 95,
          "midi": 65,
          "name": "F4",
          "ticks": 196628,
          "time": 256.0260416666667,
          "velocity": 0.2440944881889764
        },
        {
          "duration": 0.125,
          "durationTicks": 96,
          "midi": 27,
          "name": "D#1",
          "ticks": 196646,
          "time": 256.0494791666667,
          "velocity": 0.36220472440944884
        },
        {
          "duration": 0,
          "durationTicks": 0,
          "midi": 46,
          "name": "A#2",
          "ticks": 196672,
          "time": 256.0833333333333,
          "velocity": 0.11023622047244094
        },
        {
          "duration": 0.125,
          "durationTicks": 96,
          "midi": 68,
          "name": "G#4",
          "ticks": 196726,
          "time": 256.1536458333333,
          "velocity": 0.2677165354330709
        },
        {
          "duration": 0.125,
          "durationTicks": 96,
          "midi": 87,
          "name": "D#6",
          "ticks": 196735,
          "time": 256.1653645833333,
          "velocity": 0.08661417322834646
        },
        {
          "duration": 0,
          "durationTicks": 0,
          "midi": 28,
          "name": "E1",
          "ticks": 196806,
          "time": 256.2578125,
          "velocity": 0.3543307086614173
        },
        {
          "duration": 0,
          "durationTicks": 0,
          "midi": 29,
          "name": "F1",
          "ticks": 196824,
          "time": 256.28125,
          "velocity": 0.4015748031496063
        },
        {
          "duration": 0,
          "durationTicks": 0,
          "midi": 30,
          "name": "F#1",
          "ticks": 196833,
          "time": 256.29296875,
          "velocity": 0.4251968503937008
        },
        {
          "duration": 0,
          "durationTicks": 0,
          "midi": 48,
          "name": "C3",
          "ticks": 196860,
          "time": 256.328125,
          "velocity": 0.13385826771653545
        },
        {
          "duration": 0.125,
          "durationTicks": 96,
          "midi": 29,
          "name": "F1",
          "ticks": 196869,
          "time": 256.33984375,
          "velocity": 0.3779527559055118
        },
        {
          "duration": 0.125,
          "durationTicks": 96,
          "midi": 48,
          "name": "C3",
          "ticks": 196905,
          "time": 256.38671875,
          "velocity": 0.08661417322834646
        },
        {
          "duration": 0.125,
          "durationTicks": 96,
          "midi": 65,
          "name": "F4",
          "ticks": 196905,
          "time": 256.38671875,
          "velocity": 0.2755905511811024
        },
        {
          "duration": 0.125,
          "durationTicks": 96,
          "midi": 68,
          "name": "G#4",
          "ticks": 197021,
          "time": 256.5377604166667,
          "velocity": 0.07086614173228346
        },
        {
          "duration": 0.125,
          "durationTicks": 96,
          "midi": 63,
          "name": "D#4",
          "ticks": 197030,
          "time": 256.5494791666667,
          "velocity": 0.25196850393700787
        },
        {
          "duration": 0.125,
          "durationTicks": 96,
          "midi": 79,
          "name": "G5",
          "ticks": 197119,
          "time": 256.6653645833333,
          "velocity": 0.11023622047244094
        },
        {
          "duration": 0.125,
          "durationTicks": 96,
          "midi": 60,
          "name": "C4",
          "ticks": 197119,
          "time": 256.6653645833333,
          "velocity": 0.25984251968503935
        },
        {
          "duration": 0,
          "durationTicks": 0,
          "midi": 44,
          "name": "G#2",
          "ticks": 197190,
          "time": 256.7578125,
          "velocity": 0.3937007874015748
        },
        {
          "duration": 0.12630208333331439,
          "durationTicks": 97,
          "midi": 65,
          "name": "F4",
          "ticks": 197190,
          "time": 256.7578125,
          "velocity": 0.08661417322834646
        },
        {
          "duration": 0,
          "durationTicks": 0,
          "midi": 62,
          "name": "D4",
          "ticks": 197208,
          "time": 256.78125,
          "velocity": 0.08661417322834646
        },
        {
          "duration": 0,
          "durationTicks": 0,
          "midi": 58,
          "name": "A#3",
          "ticks": 197217,
          "time": 256.79296875,
          "velocity": 0.25984251968503935
        },
        {
          "duration": 0.12760416666668561,
          "durationTicks": 98,
          "midi": 43,
          "name": "G2",
          "ticks": 197217,
          "time": 256.79296875,
          "velocity": 0.3543307086614173
        },
        {
          "duration": 0,
          "durationTicks": 0,
          "midi": 31,
          "name": "G1",
          "ticks": 197227,
          "time": 256.8059895833333,
          "velocity": 0.2677165354330709
        },
        {
          "duration": 0,
          "durationTicks": 0,
          "midi": 60,
          "name": "C4",
          "ticks": 197263,
          "time": 256.8528645833333,
          "velocity": 0.25196850393700787
        },
        {
          "duration": 0.12630208333337123,
          "durationTicks": 97,
          "midi": 31,
          "name": "G1",
          "ticks": 197299,
          "time": 256.8997395833333,
          "velocity": 0.3543307086614173
        },
        {
          "duration": 0.12630208333337123,
          "durationTicks": 97,
          "midi": 50,
          "name": "D3",
          "ticks": 197308,
          "time": 256.9114583333333,
          "velocity": 0.08661417322834646
        },
        {
          "duration": 0.12630208333337123,
          "durationTicks": 97,
          "midi": 63,
          "name": "D#4",
          "ticks": 197308,
          "time": 256.9114583333333,
          "velocity": 0.2755905511811024
        },
        {
          "duration": 0,
          "durationTicks": 0,
          "midi": 65,
          "name": "F4",
          "ticks": 197398,
          "time": 257.0286458333333,
          "velocity": 0.25196850393700787
        },
        {
          "duration": 0,
          "durationTicks": 0,
          "midi": 60,
          "name": "C4",
          "ticks": 197408,
          "time": 257.0416666666667,
          "velocity": 0.05511811023622047
        },
        {
          "duration": 0,
          "durationTicks": 0,
          "midi": 60,
          "name": "C4",
          "ticks": 197444,
          "time": 257.0885416666667,
          "velocity": 0.08661417322834646
        },
        {
          "duration": 0.125,
          "durationTicks": 96,
          "midi": 67,
          "name": "G4",
          "ticks": 197471,
          "time": 257.1236979166667,
          "velocity": 0.2440944881889764
        },
        {
          "duration": 0.125,
          "durationTicks": 96,
          "midi": 44,
          "name": "G#2",
          "ticks": 197471,
          "time": 257.1236979166667,
          "velocity": 0.36220472440944884
        },
        {
          "duration": 0.125,
          "durationTicks": 96,
          "midi": 63,
          "name": "D#4",
          "ticks": 197480,
          "time": 257.1354166666667,
          "velocity": 0.08661417322834646
        },
        {
          "duration": 0,
          "durationTicks": 0,
          "midi": 58,
          "name": "A#3",
          "ticks": 197498,
          "time": 257.1588541666667,
          "velocity": 0.08661417322834646
        },
        {
          "duration": 0,
          "durationTicks": 0,
          "midi": 60,
          "name": "C4",
          "ticks": 197542,
          "time": 257.2161458333333,
          "velocity": 0.06299212598425197
        },
        {
          "duration": 0,
          "durationTicks": 0,
          "midi": 64,
          "name": "E4",
          "ticks": 197560,
          "time": 257.2395833333333,
          "velocity": 0.07874015748031496
        },
        {
          "duration": 0.12630208333337123,
          "durationTicks": 97,
          "midi": 68,
          "name": "G#4",
          "ticks": 197569,
          "time": 257.2513020833333,
          "velocity": 0.29133858267716534
        },
        {
          "duration": 0,
          "durationTicks": 0,
          "midi": 72,
          "name": "C5",
          "ticks": 197578,
          "time": 257.2630208333333,
          "velocity": 0.15748031496062992
        },
        {
          "duration": 0,
          "durationTicks": 0,
          "midi": 31,
          "name": "G1",
          "ticks": 197588,
          "time": 257.2760416666667,
          "velocity": 0.29133858267716534
        },
        {
          "duration": 0,
          "durationTicks": 0,
          "midi": 63,
          "name": "D#4",
          "ticks": 197632,
          "time": 257.3333333333333,
          "velocity": 0.14173228346456693
        },
        {
          "duration": 0.12630208333337123,
          "durationTicks": 97,
          "midi": 75,
          "name": "D#5",
          "ticks": 197668,
          "time": 257.3802083333333,
          "velocity": 0.16535433070866143
        },
        {
          "duration": 0.12630208333337123,
          "durationTicks": 97,
          "midi": 44,
          "name": "G#2",
          "ticks": 197668,
          "time": 257.3802083333333,
          "velocity": 0.36220472440944884
        },
        {
          "duration": 0.12760416666668561,
          "durationTicks": 98,
          "midi": 72,
          "name": "C5",
          "ticks": 197713,
          "time": 257.4388020833333,
          "velocity": 0.1732283464566929
        },
        {
          "duration": 0,
          "durationTicks": 0,
          "midi": 63,
          "name": "D#4",
          "ticks": 197722,
          "time": 257.4505208333333,
          "velocity": 0.09448818897637795
        },
        {
          "duration": 0.12630208333337123,
          "durationTicks": 97,
          "midi": 80,
          "name": "G#5",
          "ticks": 197758,
          "time": 257.4973958333333,
          "velocity": 0.1732283464566929
        },
        {
          "duration": 0.12630208333337123,
          "durationTicks": 97,
          "midi": 67,
          "name": "G4",
          "ticks": 197758,
          "time": 257.4973958333333,
          "velocity": 0.2755905511811024
        },
        {
          "duration": 0.12630208333331439,
          "durationTicks": 97,
          "midi": 86,
          "name": "D6",
          "ticks": 197768,
          "time": 257.5104166666667,
          "velocity": 0.06299212598425197
        },
        {
          "duration": 0.12630208333331439,
          "durationTicks": 97,
          "midi": 32,
          "name": "G#1",
          "ticks": 197777,
          "time": 257.5221354166667,
          "velocity": 0.3464566929133858
        },
        {
          "duration": 0.12630208333331439,
          "durationTicks": 97,
          "midi": 51,
          "name": "D#3",
          "ticks": 197786,
          "time": 257.5338541666667,
          "velocity": 0.07874015748031496
        },
        {
          "duration": 0.12630208333331439,
          "durationTicks": 97,
          "midi": 75,
          "name": "D#5",
          "ticks": 197813,
          "time": 257.5690104166667,
          "velocity": 0.15748031496062992
        },
        {
          "duration": 0.12630208333331439,
          "durationTicks": 97,
          "midi": 72,
          "name": "C5",
          "ticks": 197858,
          "time": 257.6276041666667,
          "velocity": 0.14960629921259844
        },
        {
          "duration": 0.12630208333331439,
          "durationTicks": 97,
          "midi": 68,
          "name": "G#4",
          "ticks": 197858,
          "time": 257.6276041666667,
          "velocity": 0.1889763779527559
        },
        {
          "duration": 0.25,
          "durationTicks": 192,
          "midi": 65,
          "name": "F4",
          "ticks": 197948,
          "time": 257.7447916666667,
          "velocity": 0.25984251968503935
        },
        {
          "duration": 0,
          "durationTicks": 0,
          "midi": 52,
          "name": "E3",
          "ticks": 197966,
          "time": 257.7682291666667,
          "velocity": 0.09448818897637795
        },
        {
          "duration": 0,
          "durationTicks": 0,
          "midi": 32,
          "name": "G#1",
          "ticks": 197984,
          "time": 257.7916666666667,
          "velocity": 0.31496062992125984
        },
        {
          "duration": 0,
          "durationTicks": 0,
          "midi": 33,
          "name": "A1",
          "ticks": 198002,
          "time": 257.8151041666667,
          "velocity": 0.31496062992125984
        },
        {
          "duration": 0.125,
          "durationTicks": 96,
          "midi": 51,
          "name": "D#3",
          "ticks": 198002,
          "time": 257.8151041666667,
          "velocity": 0.11023622047244094
        },
        {
          "duration": 0,
          "durationTicks": 0,
          "midi": 68,
          "name": "G#4",
          "ticks": 198011,
          "time": 257.8268229166667,
          "velocity": 0.06299212598425197
        },
        {
          "duration": 0.125,
          "durationTicks": 96,
          "midi": 32,
          "name": "G#1",
          "ticks": 198028,
          "time": 257.8489583333333,
          "velocity": 0.3464566929133858
        },
        {
          "duration": 0,
          "durationTicks": 0,
          "midi": 75,
          "name": "D#5",
          "ticks": 198055,
          "time": 257.8841145833333,
          "velocity": 0.05511811023622047
        },
        {
          "duration": 0,
          "durationTicks": 0,
          "midi": 72,
          "name": "C5",
          "ticks": 198100,
          "time": 257.9427083333333,
          "velocity": 0.06299212598425197
        },
        {
          "duration": 0.2526041666666856,
          "durationTicks": 194,
          "midi": 34,
          "name": "A#1",
          "ticks": 198144,
          "time": 258,
          "velocity": 0.36220472440944884
        },
        {
          "duration": 0.2526041666666856,
          "durationTicks": 194,
          "midi": 53,
          "name": "F3",
          "ticks": 198144,
          "time": 258,
          "velocity": 0.10236220472440945
        },
        {
          "duration": 0,
          "durationTicks": 0,
          "midi": 80,
          "name": "G#5",
          "ticks": 198154,
          "time": 258.0130208333333,
          "velocity": 0.07086614173228346
        },
        {
          "duration": 0,
          "durationTicks": 0,
          "midi": 63,
          "name": "D#4",
          "ticks": 198163,
          "time": 258.0247395833333,
          "velocity": 0.25196850393700787
        },
        {
          "duration": 0,
          "durationTicks": 0,
          "midi": 75,
          "name": "D#5",
          "ticks": 198199,
          "time": 258.0716145833333,
          "velocity": 0.07086614173228346
        },
        {
          "duration": 0.125,
          "durationTicks": 96,
          "midi": 65,
          "name": "F4",
          "ticks": 198235,
          "time": 258.1184895833333,
          "velocity": 0.2755905511811024
        },
        {
          "duration": 0,
          "durationTicks": 0,
          "midi": 72,
          "name": "C5",
          "ticks": 198245,
          "time": 258.1315104166667,
          "velocity": 0.05511811023622047
        },
        {
          "duration": 0.125,
          "durationTicks": 96,
          "midi": 84,
          "name": "C6",
          "ticks": 198245,
          "time": 258.1315104166667,
          "velocity": 0.07086614173228346
        },
        {
          "duration": 0.12630208333337123,
          "durationTicks": 97,
          "midi": 65,
          "name": "F4",
          "ticks": 198361,
          "time": 258.2825520833333,
          "velocity": 0.08661417322834646
        },
        {
          "duration": 0,
          "durationTicks": 0,
          "midi": 34,
          "name": "A#1",
          "ticks": 198378,
          "time": 258.3046875,
          "velocity": 0.3858267716535433
        },
        {
          "duration": 0.12630208333337123,
          "durationTicks": 97,
          "midi": 54,
          "name": "F#3",
          "ticks": 198388,
          "time": 258.3177083333333,
          "velocity": 0.08661417322834646
        },
        {
          "duration": 0,
          "durationTicks": 0,
          "midi": 35,
          "name": "B1",
          "ticks": 198405,
          "time": 258.33984375,
          "velocity": 0.36220472440944884
        },
        {
          "duration": 0,
          "durationTicks": 0,
          "midi": 63,
          "name": "D#4",
          "ticks": 198441,
          "time": 258.38671875,
          "velocity": 0.14173228346456693
        },
        {
          "duration": 0.12630208333337123,
          "durationTicks": 97,
          "midi": 55,
          "name": "G3",
          "ticks": 198451,
          "time": 258.3997395833333,
          "velocity": 0.12598425196850394
        },
        {
          "duration": 0.12630208333337123,
          "durationTicks": 97,
          "midi": 36,
          "name": "C2",
          "ticks": 198451,
          "time": 258.3997395833333,
          "velocity": 0.36220472440944884
        },
        {
          "duration": 0.25130208333337123,
          "durationTicks": 193,
          "midi": 48,
          "name": "C3",
          "ticks": 198514,
          "time": 258.4817708333333,
          "velocity": 0.36220472440944884
        },
        {
          "duration": 0.125,
          "durationTicks": 96,
          "midi": 65,
          "name": "F4",
          "ticks": 198523,
          "time": 258.4934895833333,
          "velocity": 0.14960629921259844
        },
        {
          "duration": 0.12630208333337123,
          "durationTicks": 97,
          "midi": 67,
          "name": "G4",
          "ticks": 198631,
          "time": 258.6341145833333,
          "velocity": 0.06299212598425197
        },
        {
          "duration": 0.12760416666668561,
          "durationTicks": 98,
          "midi": 75,
          "name": "D#5",
          "ticks": 198711,
          "time": 258.73828125,
          "velocity": 0.2755905511811024
        },
        {
          "duration": 0.12760416666668561,
          "durationTicks": 98,
          "midi": 79,
          "name": "G5",
          "ticks": 198711,
          "time": 258.73828125,
          "velocity": 0.2755905511811024
        },
        {
          "duration": 0.12760416666668561,
          "durationTicks": 98,
          "midi": 94,
          "name": "A#6",
          "ticks": 198721,
          "time": 258.7513020833333,
          "velocity": 0.07086614173228346
        },
        {
          "duration": 0.25390625,
          "durationTicks": 195,
          "midi": 58,
          "name": "A#3",
          "ticks": 198721,
          "time": 258.7513020833333,
          "velocity": 0.11023622047244094
        },
        {
          "duration": 0,
          "durationTicks": 0,
          "midi": 39,
          "name": "D#2",
          "ticks": 198739,
          "time": 258.7747395833333,
          "velocity": 0.3464566929133858
        },
        {
          "duration": 0.12630208333337123,
          "durationTicks": 97,
          "midi": 86,
          "name": "D6",
          "ticks": 198739,
          "time": 258.7747395833333,
          "velocity": 0.06299212598425197
        },
        {
          "duration": 0.12630208333337123,
          "durationTicks": 97,
          "midi": 39,
          "name": "D#2",
          "ticks": 198766,
          "time": 258.8098958333333,
          "velocity": 0.36220472440944884
        },
        {
          "duration": 0.12630208333337123,
          "durationTicks": 97,
          "midi": 77,
          "name": "F5",
          "ticks": 198802,
          "time": 258.8567708333333,
          "velocity": 0.2755905511811024
        },
        {
          "duration": 0.12630208333331439,
          "durationTicks": 97,
          "midi": 80,
          "name": "G#5",
          "ticks": 198812,
          "time": 258.8697916666667,
          "velocity": 0.28346456692913385
        },
        {
          "duration": 0.12630208333331439,
          "durationTicks": 97,
          "midi": 87,
          "name": "D#6",
          "ticks": 198821,
          "time": 258.8815104166667,
          "velocity": 0.05511811023622047
        },
        {
          "duration": 0.12630208333331439,
          "durationTicks": 97,
          "midi": 84,
          "name": "C6",
          "ticks": 198839,
          "time": 258.9049479166667,
          "velocity": 0.05511811023622047
        },
        {
          "duration": 0,
          "durationTicks": 0,
          "midi": 79,
          "name": "G5",
          "ticks": 198911,
          "time": 258.9986979166667,
          "velocity": 0.2283464566929134
        },
        {
          "duration": 0.12630208333331439,
          "durationTicks": 97,
          "midi": 70,
          "name": "A#4",
          "ticks": 198911,
          "time": 258.9986979166667,
          "velocity": 0.09448818897637795
        },
        {
          "duration": 0,
          "durationTicks": 0,
          "midi": 76,
          "name": "E5",
          "ticks": 198920,
          "time": 259.0104166666667,
          "velocity": 0.2440944881889764
        },
        {
          "duration": 0,
          "durationTicks": 0,
          "midi": 77,
          "name": "F5",
          "ticks": 198938,
          "time": 259.0338541666667,
          "velocity": 0.25984251968503935
        },
        {
          "duration": 0,
          "durationTicks": 0,
          "midi": 74,
          "name": "D5",
          "ticks": 198947,
          "time": 259.0455729166667,
          "velocity": 0.25984251968503935
        },
        {
          "duration": 0,
          "durationTicks": 0,
          "midi": 76,
          "name": "E5",
          "ticks": 198965,
          "time": 259.0690104166667,
          "velocity": 0.2440944881889764
        },
        {
          "duration": 0,
          "durationTicks": 0,
          "midi": 74,
          "name": "D5",
          "ticks": 198992,
          "time": 259.1041666666667,
          "velocity": 0.25984251968503935
        },
        {
          "duration": 0,
          "durationTicks": 0,
          "midi": 71,
          "name": "B4",
          "ticks": 198992,
          "time": 259.1041666666667,
          "velocity": 0.2283464566929134
        },
        {
          "duration": 0.12630208333331439,
          "durationTicks": 97,
          "midi": 79,
          "name": "G5",
          "ticks": 199001,
          "time": 259.1158854166667,
          "velocity": 0.1968503937007874
        },
        {
          "duration": 0.12630208333331439,
          "durationTicks": 97,
          "midi": 75,
          "name": "D#5",
          "ticks": 199010,
          "time": 259.1276041666667,
          "velocity": 0.1889763779527559
        },
        {
          "duration": 0.12630208333331439,
          "durationTicks": 97,
          "midi": 70,
          "name": "A#4",
          "ticks": 199020,
          "time": 259.140625,
          "velocity": 0.12598425196850394
        },
        {
          "duration": 0.12760416666662877,
          "durationTicks": 98,
          "midi": 80,
          "name": "G#5",
          "ticks": 199091,
          "time": 259.2330729166667,
          "velocity": 0.1968503937007874
        },
        {
          "duration": 0.12760416666662877,
          "durationTicks": 98,
          "midi": 77,
          "name": "F5",
          "ticks": 199100,
          "time": 259.2447916666667,
          "velocity": 0.2047244094488189
        },
        {
          "duration": 0,
          "durationTicks": 0,
          "midi": 29,
          "name": "F1",
          "ticks": 199110,
          "time": 259.2578125,
          "velocity": 0.4094488188976378
        },
        {
          "duration": 0,
          "durationTicks": 0,
          "midi": 63,
          "name": "D#4",
          "ticks": 199110,
          "time": 259.2578125,
          "velocity": 0.1732283464566929
        },
        {
          "duration": 0,
          "durationTicks": 0,
          "midi": 66,
          "name": "F#4",
          "ticks": 199110,
          "time": 259.2578125,
          "velocity": 0.10236220472440945
        },
        {
          "duration": 0,
          "durationTicks": 0,
          "midi": 30,
          "name": "F#1",
          "ticks": 199119,
          "time": 259.26953125,
          "velocity": 0.4251968503937008
        },
        {
          "duration": 0,
          "durationTicks": 0,
          "midi": 48,
          "name": "C3",
          "ticks": 199146,
          "time": 259.3046875,
          "velocity": 0.13385826771653545
        },
        {
          "duration": 0.12760416666668561,
          "durationTicks": 98,
          "midi": 87,
          "name": "D#6",
          "ticks": 199146,
          "time": 259.3046875,
          "velocity": 0.14960629921259844
        },
        {
          "duration": 0.12760416666668561,
          "durationTicks": 98,
          "midi": 29,
          "name": "F1",
          "ticks": 199155,
          "time": 259.31640625,
          "velocity": 0.3779527559055118
        },
        {
          "duration": 0,
          "durationTicks": 0,
          "midi": 75,
          "name": "D#5",
          "ticks": 199191,
          "time": 259.36328125,
          "velocity": 0.1732283464566929
        },
        {
          "duration": 0.12760416666668561,
          "durationTicks": 98,
          "midi": 84,
          "name": "C6",
          "ticks": 199191,
          "time": 259.36328125,
          "velocity": 0.15748031496062992
        },
        {
          "duration": 0.12760416666668561,
          "durationTicks": 98,
          "midi": 48,
          "name": "C3",
          "ticks": 199191,
          "time": 259.36328125,
          "velocity": 0.10236220472440945
        },
        {
          "duration": 0,
          "durationTicks": 0,
          "midi": 95,
          "name": "B6",
          "ticks": 199218,
          "time": 259.3984375,
          "velocity": 0.06299212598425197
        },
        {
          "duration": 0,
          "durationTicks": 0,
          "midi": 74,
          "name": "D5",
          "ticks": 199228,
          "time": 259.4114583333333,
          "velocity": 0.1732283464566929
        },
        {
          "duration": 0,
          "durationTicks": 0,
          "midi": 77,
          "name": "F5",
          "ticks": 199228,
          "time": 259.4114583333333,
          "velocity": 0.1732283464566929
        },
        {
          "duration": 0.12760416666668561,
          "durationTicks": 98,
          "midi": 82,
          "name": "A#5",
          "ticks": 199237,
          "time": 259.4231770833333,
          "velocity": 0.16535433070866143
        },
        {
          "duration": 0,
          "durationTicks": 0,
          "midi": 74,
          "name": "D5",
          "ticks": 199282,
          "time": 259.4817708333333,
          "velocity": 0.18110236220472442
        },
        {
          "duration": 0,
          "durationTicks": 0,
          "midi": 87,
          "name": "D#6",
          "ticks": 199292,
          "time": 259.4947916666667,
          "velocity": 0.14173228346456693
        },
        {
          "duration": 0,
          "durationTicks": 0,
          "midi": 80,
          "name": "G#5",
          "ticks": 199292,
          "time": 259.4947916666667,
          "velocity": 0.15748031496062992
        },
        {
          "duration": 0.125,
          "durationTicks": 96,
          "midi": 65,
          "name": "F4",
          "ticks": 199292,
          "time": 259.4947916666667,
          "velocity": 0.29133858267716534
        },
        {
          "duration": 0.125,
          "durationTicks": 96,
          "midi": 84,
          "name": "C6",
          "ticks": 199301,
          "time": 259.5065104166667,
          "velocity": 0.07086614173228346
        },
        {
          "duration": 0.125,
          "durationTicks": 96,
          "midi": 75,
          "name": "D#5",
          "ticks": 199301,
          "time": 259.5065104166667,
          "velocity": 0.2440944881889764
        },
        {
          "duration": 0.125,
          "durationTicks": 96,
          "midi": 79,
          "name": "G5",
          "ticks": 199310,
          "time": 259.5182291666667,
          "velocity": 0.2677165354330709
        },
        {
          "duration": 0,
          "durationTicks": 0,
          "midi": 66,
          "name": "F#4",
          "ticks": 199355,
          "time": 259.5768229166667,
          "velocity": 0.29133858267716534
        },
        {
          "duration": 0.12630208333331439,
          "durationTicks": 97,
          "midi": 86,
          "name": "D6",
          "ticks": 199373,
          "time": 259.6002604166667,
          "velocity": 0.05511811023622047
        },
        {
          "duration": 0.12630208333331439,
          "durationTicks": 97,
          "midi": 67,
          "name": "G4",
          "ticks": 199373,
          "time": 259.6002604166667,
          "velocity": 0.29133858267716534
        },
        {
          "duration": 0.12760416666668561,
          "durationTicks": 98,
          "midi": 77,
          "name": "F5",
          "ticks": 199390,
          "time": 259.6223958333333,
          "velocity": 0.13385826771653545
        },
        {
          "duration": 0.12760416666668561,
          "durationTicks": 98,
          "midi": 80,
          "name": "G#5",
          "ticks": 199399,
          "time": 259.6341145833333,
          "velocity": 0.14173228346456693
        },
        {
          "duration": 0,
          "durationTicks": 0,
          "midi": 72,
          "name": "C5",
          "ticks": 199436,
          "time": 259.6822916666667,
          "velocity": 0.16535433070866143
        },
        {
          "duration": 0,
          "durationTicks": 0,
          "midi": 87,
          "name": "D#6",
          "ticks": 199436,
          "time": 259.6822916666667,
          "velocity": 0.09448818897637795
        },
        {
          "duration": 0,
          "durationTicks": 0,
          "midi": 68,
          "name": "G#4",
          "ticks": 199472,
          "time": 259.7291666666667,
          "velocity": 0.23622047244094488
        },
        {
          "duration": 0,
          "durationTicks": 0,
          "midi": 84,
          "name": "C6",
          "ticks": 199481,
          "time": 259.7408854166667,
          "velocity": 0.11023622047244094
        },
        {
          "duration": 0.12630208333331439,
          "durationTicks": 97,
          "midi": 79,
          "name": "G5",
          "ticks": 199481,
          "time": 259.7408854166667,
          "velocity": 0.1968503937007874
        },
        {
          "duration": 0,
          "durationTicks": 0,
          "midi": 87,
          "name": "D#6",
          "ticks": 199490,
          "time": 259.7526041666667,
          "velocity": 0.14173228346456693
        },
        {
          "duration": 0,
          "durationTicks": 0,
          "midi": 70,
          "name": "A#4",
          "ticks": 199490,
          "time": 259.7526041666667,
          "velocity": 0.1732283464566929
        },
        {
          "duration": 0.08333333333331439,
          "durationTicks": 64,
          "midi": 67,
          "name": "G4",
          "ticks": 199490,
          "time": 259.7526041666667,
          "velocity": 0.31496062992125984
        },
        {
          "duration": 0.12630208333331439,
          "durationTicks": 97,
          "midi": 86,
          "name": "D6",
          "ticks": 199500,
          "time": 259.765625,
          "velocity": 0.08661417322834646
        },
        {
          "duration": 0,
          "durationTicks": 0,
          "midi": 31,
          "name": "G1",
          "ticks": 199509,
          "time": 259.77734375,
          "velocity": 0.29133858267716534
        },
        {
          "duration": 0,
          "durationTicks": 0,
          "midi": 74,
          "name": "D5",
          "ticks": 199518,
          "time": 259.7890625,
          "velocity": 0.11023622047244094
        },
        {
          "duration": 0,
          "durationTicks": 0,
          "midi": 77,
          "name": "F5",
          "ticks": 199518,
          "time": 259.7890625,
          "velocity": 0.11023622047244094
        },
        {
          "duration": 0,
          "durationTicks": 0,
          "midi": 82,
          "name": "A#5",
          "ticks": 199536,
          "time": 259.8125,
          "velocity": 0.11023622047244094
        },
        {
          "duration": 0.04296875,
          "durationTicks": 33,
          "midi": 67,
          "name": "G4",
          "ticks": 199554,
          "time": 259.8359375,
          "velocity": 0.2755905511811024
        },
        {
          "duration": 0,
          "durationTicks": 0,
          "midi": 68,
          "name": "G#4",
          "ticks": 199571,
          "time": 259.8580729166667,
          "velocity": 0.28346456692913385
        },
        {
          "duration": 0.12630208333331439,
          "durationTicks": 97,
          "midi": 75,
          "name": "D#5",
          "ticks": 199580,
          "time": 259.8697916666667,
          "velocity": 0.1968503937007874
        },
        {
          "duration": 0.12630208333331439,
          "durationTicks": 97,
          "midi": 79,
          "name": "G5",
          "ticks": 199590,
          "time": 259.8828125,
          "velocity": 0.16535433070866143
        },
        {
          "duration": 0,
          "durationTicks": 0,
          "midi": 65,
          "name": "F4",
          "ticks": 199599,
          "time": 259.89453125,
          "velocity": 0.1732283464566929
        },
        {
          "duration": 0.12630208333331439,
          "durationTicks": 97,
          "midi": 63,
          "name": "D#4",
          "ticks": 199635,
          "time": 259.94140625,
          "velocity": 0.15748031496062992
        },
        {
          "duration": 0,
          "durationTicks": 0,
          "midi": 67,
          "name": "G4",
          "ticks": 199653,
          "time": 259.96484375,
          "velocity": 0.1968503937007874
        },
        {
          "duration": 0,
          "durationTicks": 0,
          "midi": 28,
          "name": "E1",
          "ticks": 199670,
          "time": 259.9869791666667,
          "velocity": 0.36220472440944884
        },
        {
          "duration": 0,
          "durationTicks": 0,
          "midi": 60,
          "name": "C4",
          "ticks": 199670,
          "time": 259.9869791666667,
          "velocity": 0.14173228346456693
        },
        {
          "duration": 0.12760416666662877,
          "durationTicks": 98,
          "midi": 77,
          "name": "F5",
          "ticks": 199670,
          "time": 259.9869791666667,
          "velocity": 0.2283464566929134
        },
        {
          "duration": 0.12760416666668561,
          "durationTicks": 98,
          "midi": 84,
          "name": "C6",
          "ticks": 199680,
          "time": 260,
          "velocity": 0.07874015748031496
        },
        {
          "duration": 0.12760416666668561,
          "durationTicks": 98,
          "midi": 65,
          "name": "F4",
          "ticks": 199680,
          "time": 260,
          "velocity": 0.29133858267716534
        },
        {
          "duration": 0.12760416666668561,
          "durationTicks": 98,
          "midi": 80,
          "name": "G#5",
          "ticks": 199680,
          "time": 260,
          "velocity": 0.07874015748031496
        },
        {
          "duration": 0,
          "durationTicks": 0,
          "midi": 46,
          "name": "A#2",
          "ticks": 199689,
          "time": 260.01171875,
          "velocity": 0.07874015748031496
        },
        {
          "duration": 0.12760416666668561,
          "durationTicks": 98,
          "midi": 27,
          "name": "D#1",
          "ticks": 199689,
          "time": 260.01171875,
          "velocity": 0.36220472440944884
        },
        {
          "duration": 0,
          "durationTicks": 0,
          "midi": 58,
          "name": "A#3",
          "ticks": 199725,
          "time": 260.05859375,
          "velocity": 0.1732283464566929
        },
        {
          "duration": 0,
          "durationTicks": 0,
          "midi": 72,
          "name": "C5",
          "ticks": 199725,
          "time": 260.05859375,
          "velocity": 0.10236220472440945
        },
        {
          "duration": 0,
          "durationTicks": 0,
          "midi": 46,
          "name": "A#2",
          "ticks": 199735,
          "time": 260.0716145833333,
          "velocity": 0.07086614173228346
        },
        {
          "duration": 0,
          "durationTicks": 0,
          "midi": 68,
          "name": "G#4",
          "ticks": 199762,
          "time": 260.1067708333333,
          "velocity": 0.29133858267716534
        },
        {
          "duration": 0,
          "durationTicks": 0,
          "midi": 75,
          "name": "D#5",
          "ticks": 199771,
          "time": 260.1184895833333,
          "velocity": 0.16535433070866143
        },
        {
          "duration": 0.25130208333337123,
          "durationTicks": 193,
          "midi": 79,
          "name": "G5",
          "ticks": 199771,
          "time": 260.1184895833333,
          "velocity": 0.2047244094488189
        },
        {
          "duration": 0.25130208333337123,
          "durationTicks": 193,
          "midi": 86,
          "name": "D6",
          "ticks": 199771,
          "time": 260.1184895833333,
          "velocity": 0.11811023622047244
        },
        {
          "duration": 0,
          "durationTicks": 0,
          "midi": 70,
          "name": "A#4",
          "ticks": 199780,
          "time": 260.1302083333333,
          "velocity": 0.11023622047244094
        },
        {
          "duration": 0,
          "durationTicks": 0,
          "midi": 56,
          "name": "G#3",
          "ticks": 199780,
          "time": 260.1302083333333,
          "velocity": 0.1732283464566929
        },
        {
          "duration": 0.25130208333337123,
          "durationTicks": 193,
          "midi": 67,
          "name": "G4",
          "ticks": 199780,
          "time": 260.1302083333333,
          "velocity": 0.33070866141732286
        },
        {
          "duration": 0.12369791666662877,
          "durationTicks": 95,
          "midi": 95,
          "name": "B6",
          "ticks": 199799,
          "time": 260.1549479166667,
          "velocity": 0.05511811023622047
        },
        {
          "duration": 0,
          "durationTicks": 0,
          "midi": 55,
          "name": "G3",
          "ticks": 199826,
          "time": 260.1901041666667,
          "velocity": 0.16535433070866143
        },
        {
          "duration": 0,
          "durationTicks": 0,
          "midi": 74,
          "name": "D5",
          "ticks": 199843,
          "time": 260.2122395833333,
          "velocity": 0.07086614173228346
        },
        {
          "duration": 0,
          "durationTicks": 0,
          "midi": 48,
          "name": "C3",
          "ticks": 199861,
          "time": 260.2356770833333,
          "velocity": 0.25984251968503935
        },
        {
          "duration": 0.125,
          "durationTicks": 96,
          "midi": 63,
          "name": "D#4",
          "ticks": 199861,
          "time": 260.2356770833333,
          "velocity": 0.16535433070866143
        },
        {
          "duration": 0,
          "durationTicks": 0,
          "midi": 52,
          "name": "E3",
          "ticks": 199878,
          "time": 260.2578125,
          "velocity": 0.18110236220472442
        },
        {
          "duration": 0,
          "durationTicks": 0,
          "midi": 30,
          "name": "F#1",
          "ticks": 199878,
          "time": 260.2578125,
          "velocity": 0.4251968503937008
        },
        {
          "duration": 0,
          "durationTicks": 0,
          "midi": 48,
          "name": "C3",
          "ticks": 199923,
          "time": 260.31640625,
          "velocity": 0.1732283464566929
        },
        {
          "duration": 0.12630208333331439,
          "durationTicks": 97,
          "midi": 29,
          "name": "F1",
          "ticks": 199923,
          "time": 260.31640625,
          "velocity": 0.3779527559055118
        },
        {
          "duration": 0,
          "durationTicks": 0,
          "midi": 60,
          "name": "C4",
          "ticks": 199959,
          "time": 260.36328125,
          "velocity": 0.09448818897637795
        },
        {
          "duration": 0,
          "durationTicks": 0,
          "midi": 75,
          "name": "D#5",
          "ticks": 199959,
          "time": 260.36328125,
          "velocity": 0.1889763779527559
        },
        {
          "duration": 0,
          "durationTicks": 0,
          "midi": 47,
          "name": "B2",
          "ticks": 199968,
          "time": 260.375,
          "velocity": 0.2125984251968504
        },
        {
          "duration": 0,
          "durationTicks": 0,
          "midi": 65,
          "name": "F4",
          "ticks": 199995,
          "time": 260.41015625,
          "velocity": 0.18110236220472442
        },
        {
          "duration": 0,
          "durationTicks": 0,
          "midi": 68,
          "name": "G#4",
          "ticks": 199995,
          "time": 260.41015625,
          "velocity": 0.29133858267716534
        },
        {
          "duration": 0,
          "durationTicks": 0,
          "midi": 44,
          "name": "G#2",
          "ticks": 200013,
          "time": 260.43359375,
          "velocity": 0.18110236220472442
        },
        {
          "duration": 0,
          "durationTicks": 0,
          "midi": 58,
          "name": "A#3",
          "ticks": 200013,
          "time": 260.43359375,
          "velocity": 0.13385826771653545
        },
        {
          "duration": 0.12630208333331439,
          "durationTicks": 97,
          "midi": 72,
          "name": "C5",
          "ticks": 200013,
          "time": 260.43359375,
          "velocity": 0.18110236220472442
        },
        {
          "duration": 0.23567708333337123,
          "durationTicks": 181,
          "midi": 67,
          "name": "G4",
          "ticks": 200032,
          "time": 260.4583333333333,
          "velocity": 0.31496062992125984
        },
        {
          "duration": 0.125,
          "durationTicks": 96,
          "midi": 86,
          "name": "D6",
          "ticks": 200041,
          "time": 260.4700520833333,
          "velocity": 0.08661417322834646
        },
        {
          "duration": 0,
          "durationTicks": 0,
          "midi": 87,
          "name": "D#6",
          "ticks": 200058,
          "time": 260.4921875,
          "velocity": 0.11023622047244094
        },
        {
          "duration": 0,
          "durationTicks": 0,
          "midi": 56,
          "name": "G#3",
          "ticks": 200068,
          "time": 260.5052083333333,
          "velocity": 0.10236220472440945
        },
        {
          "duration": 0,
          "durationTicks": 0,
          "midi": 39,
          "name": "D#2",
          "ticks": 200112,
          "time": 260.5625,
          "velocity": 0.15748031496062992
        },
        {
          "duration": 0,
          "durationTicks": 0,
          "midi": 55,
          "name": "G3",
          "ticks": 200112,
          "time": 260.5625,
          "velocity": 0.10236220472440945
        },
        {
          "duration": 0.12760416666668561,
          "durationTicks": 98,
          "midi": 80,
          "name": "G#5",
          "ticks": 200139,
          "time": 260.59765625,
          "velocity": 0.1732283464566929
        },
        {
          "duration": 0,
          "durationTicks": 0,
          "midi": 51,
          "name": "D#3",
          "ticks": 200149,
          "time": 260.6106770833333,
          "velocity": 0.09448818897637795
        },
        {
          "duration": 0,
          "durationTicks": 0,
          "midi": 75,
          "name": "D#5",
          "ticks": 200158,
          "time": 260.6223958333333,
          "velocity": 0.15748031496062992
        },
        {
          "duration": 0.25390625,
          "durationTicks": 195,
          "midi": 84,
          "name": "C6",
          "ticks": 200158,
          "time": 260.6223958333333,
          "velocity": 0.1968503937007874
        },
        {
          "duration": 0,
          "durationTicks": 0,
          "midi": 36,
          "name": "C2",
          "ticks": 200167,
          "time": 260.6341145833333,
          "velocity": 0.16535433070866143
        },
        {
          "duration": 0,
          "durationTicks": 0,
          "midi": 68,
          "name": "G#4",
          "ticks": 200194,
          "time": 260.6692708333333,
          "velocity": 0.1732283464566929
        },
        {
          "duration": 0,
          "durationTicks": 0,
          "midi": 34,
          "name": "A#1",
          "ticks": 200203,
          "time": 260.6809895833333,
          "velocity": 0.1732283464566929
        },
        {
          "duration": 0.016927083333314386,
          "durationTicks": 13,
          "midi": 67,
          "name": "G4",
          "ticks": 200213,
          "time": 260.6940104166667,
          "velocity": 0.25984251968503935
        },
        {
          "duration": 0,
          "durationTicks": 0,
          "midi": 75,
          "name": "D#5",
          "ticks": 200230,
          "time": 260.7161458333333,
          "velocity": 0.08661417322834646
        },
        {
          "duration": 0.25260416666662877,
          "durationTicks": 194,
          "midi": 77,
          "name": "F5",
          "ticks": 200240,
          "time": 260.7291666666667,
          "velocity": 0.25984251968503935
        },
        {
          "duration": 0.25260416666662877,
          "durationTicks": 194,
          "midi": 65,
          "name": "F4",
          "ticks": 200249,
          "time": 260.7408854166667,
          "velocity": 0.2992125984251969
        },
        {
          "duration": 0,
          "durationTicks": 0,
          "midi": 44,
          "name": "G#2",
          "ticks": 200258,
          "time": 260.7526041666667,
          "velocity": 0.3858267716535433
        },
        {
          "duration": 0,
          "durationTicks": 0,
          "midi": 83,
          "name": "B5",
          "ticks": 200258,
          "time": 260.7526041666667,
          "velocity": 0.11023622047244094
        },
        {
          "duration": 0,
          "durationTicks": 0,
          "midi": 81,
          "name": "A5",
          "ticks": 200276,
          "time": 260.7760416666667,
          "velocity": 0.16535433070866143
        },
        {
          "duration": 0,
          "durationTicks": 0,
          "midi": 31,
          "name": "G1",
          "ticks": 200285,
          "time": 260.7877604166667,
          "velocity": 0.2677165354330709
        },
        {
          "duration": 0.12630208333331439,
          "durationTicks": 97,
          "midi": 43,
          "name": "G2",
          "ticks": 200285,
          "time": 260.7877604166667,
          "velocity": 0.3464566929133858
        },
        {
          "duration": 0,
          "durationTicks": 0,
          "midi": 30,
          "name": "F#1",
          "ticks": 200303,
          "time": 260.8111979166667,
          "velocity": 0.1968503937007874
        },
        {
          "duration": 0,
          "durationTicks": 0,
          "midi": 93,
          "name": "A6",
          "ticks": 200330,
          "time": 260.8463541666667,
          "velocity": 0.06299212598425197
        },
        {
          "duration": 0,
          "durationTicks": 0,
          "midi": 30,
          "name": "F#1",
          "ticks": 200339,
          "time": 260.8580729166667,
          "velocity": 0.3543307086614173
        },
        {
          "duration": 0,
          "durationTicks": 0,
          "midi": 75,
          "name": "D#5",
          "ticks": 200348,
          "time": 260.8697916666667,
          "velocity": 0.18110236220472442
        },
        {
          "duration": 0.12630208333331439,
          "durationTicks": 97,
          "midi": 72,
          "name": "C5",
          "ticks": 200348,
          "time": 260.8697916666667,
          "velocity": 0.12598425196850394
        },
        {
          "duration": 0.12630208333331439,
          "durationTicks": 97,
          "midi": 31,
          "name": "G1",
          "ticks": 200357,
          "time": 260.8815104166667,
          "velocity": 0.3543307086614173
        },
        {
          "duration": 0.12630208333331439,
          "durationTicks": 97,
          "midi": 50,
          "name": "D3",
          "ticks": 200367,
          "time": 260.89453125,
          "velocity": 0.09448818897637795
        },
        {
          "duration": 0,
          "durationTicks": 0,
          "midi": 68,
          "name": "G#4",
          "ticks": 200394,
          "time": 260.9296875,
          "velocity": 0.12598425196850394
        },
        {
          "duration": 0,
          "durationTicks": 0,
          "midi": 87,
          "name": "D#6",
          "ticks": 200438,
          "time": 260.9869791666667,
          "velocity": 0.14173228346456693
        },
        {
          "duration": 0.25390625,
          "durationTicks": 195,
          "midi": 79,
          "name": "G5",
          "ticks": 200447,
          "time": 260.9986979166667,
          "velocity": 0.1889763779527559
        },
        {
          "duration": 0.25390625,
          "durationTicks": 195,
          "midi": 67,
          "name": "G4",
          "ticks": 200457,
          "time": 261.01171875,
          "velocity": 0.29133858267716534
        },
        {
          "duration": 0.25390625,
          "durationTicks": 195,
          "midi": 86,
          "name": "D6",
          "ticks": 200466,
          "time": 261.0234375,
          "velocity": 0.06299212598425197
        },
        {
          "duration": 0.12630208333331439,
          "durationTicks": 97,
          "midi": 80,
          "name": "G#5",
          "ticks": 200475,
          "time": 261.03515625,
          "velocity": 0.11023622047244094
        },
        {
          "duration": 0,
          "durationTicks": 0,
          "midi": 87,
          "name": "D#6",
          "ticks": 200529,
          "time": 261.10546875,
          "velocity": 0.13385826771653545
        },
        {
          "duration": 0.12630208333337123,
          "durationTicks": 97,
          "midi": 44,
          "name": "G#2",
          "ticks": 200539,
          "time": 261.1184895833333,
          "velocity": 0.3700787401574803
        },
        {
          "duration": 0,
          "durationTicks": 0,
          "midi": 77,
          "name": "F5",
          "ticks": 200565,
          "time": 261.15234375,
          "velocity": 0.11023622047244094
        },
        {
          "duration": 0,
          "durationTicks": 0,
          "midi": 81,
          "name": "A5",
          "ticks": 200565,
          "time": 261.15234375,
          "velocity": 0.11023622047244094
        },
        {
          "duration": 0.12760416666668561,
          "durationTicks": 98,
          "midi": 72,
          "name": "C5",
          "ticks": 200619,
          "time": 261.22265625,
          "velocity": 0.07086614173228346
        },
        {
          "duration": 0,
          "durationTicks": 0,
          "midi": 63,
          "name": "D#4",
          "ticks": 200629,
          "time": 261.2356770833333,
          "velocity": 0.14173228346456693
        },
        {
          "duration": 0.12760416666668561,
          "durationTicks": 98,
          "midi": 80,
          "name": "G#5",
          "ticks": 200629,
          "time": 261.2356770833333,
          "velocity": 0.14960629921259844
        },
        {
          "duration": 0.12760416666668561,
          "durationTicks": 98,
          "midi": 68,
          "name": "G#4",
          "ticks": 200638,
          "time": 261.2473958333333,
          "velocity": 0.25984251968503935
        },
        {
          "duration": 0.12760416666668561,
          "durationTicks": 98,
          "midi": 65,
          "name": "F4",
          "ticks": 200638,
          "time": 261.2473958333333,
          "velocity": 0.16535433070866143
        },
        {
          "duration": 0,
          "durationTicks": 0,
          "midi": 87,
          "name": "D#6",
          "ticks": 200647,
          "time": 261.2591145833333,
          "velocity": 0.05511811023622047
        },
        {
          "duration": 0,
          "durationTicks": 0,
          "midi": 31,
          "name": "G1",
          "ticks": 200647,
          "time": 261.2591145833333,
          "velocity": 0.29133858267716534
        },
        {
          "duration": 0,
          "durationTicks": 0,
          "midi": 69,
          "name": "A4",
          "ticks": 200693,
          "time": 261.3190104166667,
          "velocity": 0.28346456692913385
        },
        {
          "duration": 0.2526041666666856,
          "durationTicks": 194,
          "midi": 70,
          "name": "A#4",
          "ticks": 200710,
          "time": 261.3411458333333,
          "velocity": 0.2992125984251969
        },
        {
          "duration": 0.2526041666666856,
          "durationTicks": 194,
          "midi": 89,
          "name": "F6",
          "ticks": 200710,
          "time": 261.3411458333333,
          "velocity": 0.08661417322834646
        },
        {
          "duration": 0,
          "durationTicks": 0,
          "midi": 75,
          "name": "D#5",
          "ticks": 200729,
          "time": 261.3658854166667,
          "velocity": 0.07874015748031496
        },
        {
          "duration": 0.125,
          "durationTicks": 96,
          "midi": 44,
          "name": "G#2",
          "ticks": 200729,
          "time": 261.3658854166667,
          "velocity": 0.36220472440944884
        },
        {
          "duration": 0.125,
          "durationTicks": 96,
          "midi": 84,
          "name": "C6",
          "ticks": 200738,
          "time": 261.3776041666667,
          "velocity": 0.07874015748031496
        },
        {
          "duration": 0.2513020833333144,
          "durationTicks": 193,
          "midi": 67,
          "name": "G4",
          "ticks": 200738,
          "time": 261.3776041666667,
          "velocity": 0.16535433070866143
        },
        {
          "duration": 0.125,
          "durationTicks": 96,
          "midi": 63,
          "name": "D#4",
          "ticks": 200747,
          "time": 261.3893229166667,
          "velocity": 0.14173228346456693
        },
        {
          "duration": 0.12630208333331439,
          "durationTicks": 97,
          "midi": 80,
          "name": "G#5",
          "ticks": 200765,
          "time": 261.4127604166667,
          "velocity": 0.07874015748031496
        },
        {
          "duration": 0.12630208333337123,
          "durationTicks": 97,
          "midi": 32,
          "name": "G#1",
          "ticks": 200836,
          "time": 261.5052083333333,
          "velocity": 0.3464566929133858
        },
        {
          "duration": 0.12630208333337123,
          "durationTicks": 97,
          "midi": 51,
          "name": "D#3",
          "ticks": 200836,
          "time": 261.5052083333333,
          "velocity": 0.07086614173228346
        },
        {
          "duration": 0,
          "durationTicks": 0,
          "midi": 81,
          "name": "A5",
          "ticks": 200855,
          "time": 261.5299479166667,
          "velocity": 0.07874015748031496
        },
        {
          "duration": 0.125,
          "durationTicks": 96,
          "midi": 75,
          "name": "D#5",
          "ticks": 200891,
          "time": 261.5768229166667,
          "velocity": 0.14173228346456693
        },
        {
          "duration": 0.12630208333331439,
          "durationTicks": 97,
          "midi": 68,
          "name": "G#4",
          "ticks": 200927,
          "time": 261.6236979166667,
          "velocity": 0.11023622047244094
        },
        {
          "duration": 0.12630208333331439,
          "durationTicks": 97,
          "midi": 68,
          "name": "G#4",
          "ticks": 200999,
          "time": 261.7174479166667,
          "velocity": 0.2755905511811024
        },
        {
          "duration": 0,
          "durationTicks": 0,
          "midi": 29,
          "name": "F1",
          "ticks": 201008,
          "time": 261.7291666666667,
          "velocity": 0.3464566929133858
        },
        {
          "duration": 0,
          "durationTicks": 0,
          "midi": 45,
          "name": "A2",
          "ticks": 201008,
          "time": 261.7291666666667,
          "velocity": 0.25196850393700787
        },
        {
          "duration": 0.12630208333331439,
          "durationTicks": 97,
          "midi": 87,
          "name": "D#6",
          "ticks": 201008,
          "time": 261.7291666666667,
          "velocity": 0.1889763779527559
        },
        {
          "duration": 0,
          "durationTicks": 0,
          "midi": 70,
          "name": "A#4",
          "ticks": 201026,
          "time": 261.7526041666667,
          "velocity": 0.16535433070866143
        },
        {
          "duration": 0,
          "durationTicks": 0,
          "midi": 32,
          "name": "G#1",
          "ticks": 201035,
          "time": 261.7643229166667,
          "velocity": 0.3464566929133858
        },
        {
          "duration": 0,
          "durationTicks": 0,
          "midi": 33,
          "name": "A1",
          "ticks": 201053,
          "time": 261.7877604166667,
          "velocity": 0.31496062992125984
        },
        {
          "duration": 0.12630208333331439,
          "durationTicks": 97,
          "midi": 32,
          "name": "G#1",
          "ticks": 201089,
          "time": 261.8346354166667,
          "velocity": 0.3464566929133858
        },
        {
          "duration": 0,
          "durationTicks": 0,
          "midi": 75,
          "name": "D#5",
          "ticks": 201108,
          "time": 261.859375,
          "velocity": 0.14960629921259844
        },
        {
          "duration": 0.12630208333331439,
          "durationTicks": 97,
          "midi": 70,
          "name": "A#4",
          "ticks": 201108,
          "time": 261.859375,
          "velocity": 0.2125984251968504
        },
        {
          "duration": 0,
          "durationTicks": 0,
          "midi": 51,
          "name": "D#3",
          "ticks": 201117,
          "time": 261.87109375,
          "velocity": 0.07874015748031496
        },
        {
          "duration": 0.125,
          "durationTicks": 96,
          "midi": 65,
          "name": "F4",
          "ticks": 201126,
          "time": 261.8828125,
          "velocity": 0.06299212598425197
        },
        {
          "duration": 0,
          "durationTicks": 0,
          "midi": 51,
          "name": "D#3",
          "ticks": 201153,
          "time": 261.91796875,
          "velocity": 0.08661417322834646
        },
        {
          "duration": 0,
          "durationTicks": 0,
          "midi": 75,
          "name": "D#5",
          "ticks": 201171,
          "time": 261.94140625,
          "velocity": 0.07874015748031496
        },
        {
          "duration": 0.125,
          "durationTicks": 96,
          "midi": 67,
          "name": "G4",
          "ticks": 201198,
          "time": 261.9765625,
          "velocity": 0.2755905511811024
        },
        {
          "duration": 0,
          "durationTicks": 0,
          "midi": 63,
          "name": "D#4",
          "ticks": 201207,
          "time": 261.98828125,
          "velocity": 0.15748031496062992
        },
        {
          "duration": 0,
          "durationTicks": 0,
          "midi": 86,
          "name": "D6",
          "ticks": 201207,
          "time": 261.98828125,
          "velocity": 0.07086614173228346
        },
        {
          "duration": 0,
          "durationTicks": 0,
          "midi": 70,
          "name": "A#4",
          "ticks": 201251,
          "time": 262.0455729166667,
          "velocity": 0.05511811023622047
        },
        {
          "duration": 0.3763020833333144,
          "durationTicks": 289,
          "midi": 65,
          "name": "F4",
          "ticks": 201287,
          "time": 262.0924479166667,
          "velocity": 0.29133858267716534
        },
        {
          "duration": 0.12630208333331439,
          "durationTicks": 97,
          "midi": 68,
          "name": "G#4",
          "ticks": 201296,
          "time": 262.1041666666667,
          "velocity": 0.14960629921259844
        },
        {
          "duration": 0,
          "durationTicks": 0,
          "midi": 75,
          "name": "D#5",
          "ticks": 201305,
          "time": 262.1158854166667,
          "velocity": 0.11023622047244094
        },
        {
          "duration": 0,
          "durationTicks": 0,
          "midi": 36,
          "name": "C2",
          "ticks": 201386,
          "time": 262.2213541666667,
          "velocity": 0.29133858267716534
        },
        {
          "duration": 0.125,
          "durationTicks": 96,
          "midi": 55,
          "name": "G3",
          "ticks": 201395,
          "time": 262.2330729166667,
          "velocity": 0.08661417322834646
        },
        {
          "duration": 0.4986979166666856,
          "durationTicks": 383,
          "midi": 84,
          "name": "C6",
          "ticks": 201405,
          "time": 262.24609375,
          "velocity": 0.12598425196850394
        },
        {
          "duration": 0,
          "durationTicks": 0,
          "midi": 35,
          "name": "B1",
          "ticks": 201422,
          "time": 262.2682291666667,
          "velocity": 0.4015748031496063
        },
        {
          "duration": 0.125,
          "durationTicks": 96,
          "midi": 36,
          "name": "C2",
          "ticks": 201467,
          "time": 262.3268229166667,
          "velocity": 0.3779527559055118
        },
        {
          "duration": 0,
          "durationTicks": 0,
          "midi": 75,
          "name": "D#5",
          "ticks": 201484,
          "time": 262.3489583333333,
          "velocity": 0.14960629921259844
        },
        {
          "duration": 0.12369791666662877,
          "durationTicks": 95,
          "midi": 55,
          "name": "G3",
          "ticks": 201503,
          "time": 262.3736979166667,
          "velocity": 0.08661417322834646
        },
        {
          "duration": 0,
          "durationTicks": 0,
          "midi": 87,
          "name": "D#6",
          "ticks": 201583,
          "time": 262.4778645833333,
          "velocity": 0.13385826771653545
        },
        {
          "duration": 0.25,
          "durationTicks": 192,
          "midi": 77,
          "name": "F5",
          "ticks": 201600,
          "time": 262.5,
          "velocity": 0.15748031496062992
        },
        {
          "duration": 0.125,
          "durationTicks": 96,
          "midi": 65,
          "name": "F4",
          "ticks": 201609,
          "time": 262.51171875,
          "velocity": 0.2992125984251969
        },
        {
          "duration": 0,
          "durationTicks": 0,
          "midi": 93,
          "name": "A6",
          "ticks": 201627,
          "time": 262.53515625,
          "velocity": 0.05511811023622047
        },
        {
          "duration": 0,
          "durationTicks": 0,
          "midi": 75,
          "name": "D#5",
          "ticks": 201672,
          "time": 262.59375,
          "velocity": 0.15748031496062992
        },
        {
          "duration": 0.125,
          "durationTicks": 96,
          "midi": 75,
          "name": "D#5",
          "ticks": 201725,
          "time": 262.6627604166667,
          "velocity": 0.07874015748031496
        },
        {
          "duration": 0,
          "durationTicks": 0,
          "midi": 66,
          "name": "F#4",
          "ticks": 201735,
          "time": 262.67578125,
          "velocity": 0.1889763779527559
        },
        {
          "duration": 0.25,
          "durationTicks": 192,
          "midi": 65,
          "name": "F4",
          "ticks": 201752,
          "time": 262.6979166666667,
          "velocity": 0.2283464566929134
        },
        {
          "duration": 0.125,
          "durationTicks": 96,
          "midi": 84,
          "name": "C6",
          "ticks": 201770,
          "time": 262.7213541666667,
          "velocity": 0.11023622047244094
        },
        {
          "duration": 0,
          "durationTicks": 0,
          "midi": 34,
          "name": "A#1",
          "ticks": 201814,
          "time": 262.7786458333333,
          "velocity": 0.3779527559055118
        },
        {
          "duration": 0.125,
          "durationTicks": 96,
          "midi": 53,
          "name": "F3",
          "ticks": 201814,
          "time": 262.7786458333333,
          "velocity": 0.09448818897637795
        },
        {
          "duration": 0,
          "durationTicks": 0,
          "midi": 75,
          "name": "D#5",
          "ticks": 201868,
          "time": 262.8489583333333,
          "velocity": 0.13385826771653545
        },
        {
          "duration": 0.125,
          "durationTicks": 96,
          "midi": 34,
          "name": "A#1",
          "ticks": 201868,
          "time": 262.8489583333333,
          "velocity": 0.3543307086614173
        },
        {
          "duration": 0.125,
          "durationTicks": 96,
          "midi": 65,
          "name": "F4",
          "ticks": 201922,
          "time": 262.9192708333333,
          "velocity": 0.11811023622047244
        },
        {
          "duration": 0,
          "durationTicks": 0,
          "midi": 84,
          "name": "C6",
          "ticks": 201931,
          "time": 262.9309895833333,
          "velocity": 0.05511811023622047
        },
        {
          "duration": 0.125,
          "durationTicks": 96,
          "midi": 70,
          "name": "A#4",
          "ticks": 201931,
          "time": 262.9309895833333,
          "velocity": 0.07086614173228346
        },
        {
          "duration": 0,
          "durationTicks": 0,
          "midi": 47,
          "name": "B2",
          "ticks": 201957,
          "time": 262.96484375,
          "velocity": 0.33070866141732286
        },
        {
          "duration": 0,
          "durationTicks": 0,
          "midi": 87,
          "name": "D#6",
          "ticks": 201957,
          "time": 262.96484375,
          "velocity": 0.1732283464566929
        },
        {
          "duration": 0.25130208333337123,
          "durationTicks": 193,
          "midi": 46,
          "name": "A#2",
          "ticks": 201976,
          "time": 262.9895833333333,
          "velocity": 0.3464566929133858
        },
        {
          "duration": 0,
          "durationTicks": 0,
          "midi": 66,
          "name": "F#4",
          "ticks": 202030,
          "time": 263.0598958333333,
          "velocity": 0.10236220472440945
        },
        {
          "duration": 0,
          "durationTicks": 0,
          "midi": 75,
          "name": "D#5",
          "ticks": 202047,
          "time": 263.08203125,
          "velocity": 0.16535433070866143
        },
        {
          "duration": 0.125,
          "durationTicks": 96,
          "midi": 65,
          "name": "F4",
          "ticks": 202057,
          "time": 263.0950520833333,
          "velocity": 0.1889763779527559
        },
        {
          "duration": 0,
          "durationTicks": 0,
          "midi": 28,
          "name": "E1",
          "ticks": 202146,
          "time": 263.2109375,
          "velocity": 0.3858267716535433
        },
        {
          "duration": 0,
          "durationTicks": 0,
          "midi": 63,
          "name": "D#4",
          "ticks": 202146,
          "time": 263.2109375,
          "velocity": 0.1732283464566929
        },
        {
          "duration": 0,
          "durationTicks": 0,
          "midi": 29,
          "name": "F1",
          "ticks": 202164,
          "time": 263.234375,
          "velocity": 0.41732283464566927
        },
        {
          "duration": 0,
          "durationTicks": 0,
          "midi": 48,
          "name": "C3",
          "ticks": 202164,
          "time": 263.234375,
          "velocity": 0.1889763779527559
        },
        {
          "duration": 0,
          "durationTicks": 0,
          "midi": 30,
          "name": "F#1",
          "ticks": 202174,
          "time": 263.2473958333333,
          "velocity": 0.4251968503937008
        },
        {
          "duration": 0,
          "durationTicks": 0,
          "midi": 48,
          "name": "C3",
          "ticks": 202200,
          "time": 263.28125,
          "velocity": 0.13385826771653545
        },
        {
          "duration": 0,
          "durationTicks": 0,
          "midi": 29,
          "name": "F1",
          "ticks": 202210,
          "time": 263.2942708333333,
          "velocity": 0.3779527559055118
        },
        {
          "duration": 0.125,
          "durationTicks": 96,
          "midi": 75,
          "name": "D#5",
          "ticks": 202210,
          "time": 263.2942708333333,
          "velocity": 0.18110236220472442
        },
        {
          "duration": 0.12630208333331439,
          "durationTicks": 97,
          "midi": 68,
          "name": "G#4",
          "ticks": 202335,
          "time": 263.45703125,
          "velocity": 0.2755905511811024
        },
        {
          "duration": 0,
          "durationTicks": 0,
          "midi": 63,
          "name": "D#4",
          "ticks": 202344,
          "time": 263.46875,
          "velocity": 0.14960629921259844
        },
        {
          "duration": 0.12630208333331439,
          "durationTicks": 97,
          "midi": 29,
          "name": "F1",
          "ticks": 202344,
          "time": 263.46875,
          "velocity": 0.36220472440944884
        },
        {
          "duration": 0.12630208333337123,
          "durationTicks": 97,
          "midi": 48,
          "name": "C3",
          "ticks": 202354,
          "time": 263.4817708333333,
          "velocity": 0.08661417322834646
        },
        {
          "duration": 0,
          "durationTicks": 0,
          "midi": 87,
          "name": "D#6",
          "ticks": 202363,
          "time": 263.4934895833333,
          "velocity": 0.06299212598425197
        },
        {
          "duration": 0,
          "durationTicks": 0,
          "midi": 69,
          "name": "A4",
          "ticks": 202399,
          "time": 263.5403645833333,
          "velocity": 0.28346456692913385
        },
        {
          "duration": 0.25130208333337123,
          "durationTicks": 193,
          "midi": 70,
          "name": "A#4",
          "ticks": 202417,
          "time": 263.5638020833333,
          "velocity": 0.3228346456692913
        },
        {
          "duration": 0,
          "durationTicks": 0,
          "midi": 75,
          "name": "D#5",
          "ticks": 202434,
          "time": 263.5859375,
          "velocity": 0.11023622047244094
        },
        {
          "duration": 0.2526041666666856,
          "durationTicks": 194,
          "midi": 89,
          "name": "F6",
          "ticks": 202434,
          "time": 263.5859375,
          "velocity": 0.10236220472440945
        },
        {
          "duration": 0.12630208333331439,
          "durationTicks": 97,
          "midi": 75,
          "name": "D#5",
          "ticks": 202488,
          "time": 263.65625,
          "velocity": 0.07086614173228346
        },
        {
          "duration": 0.12630208333331439,
          "durationTicks": 97,
          "midi": 41,
          "name": "F2",
          "ticks": 202524,
          "time": 263.703125,
          "velocity": 0.4015748031496063
        },
        {
          "duration": 0,
          "durationTicks": 0,
          "midi": 87,
          "name": "D#6",
          "ticks": 202534,
          "time": 263.7161458333333,
          "velocity": 0.11023622047244094
        },
        {
          "duration": 0.25390625,
          "durationTicks": 195,
          "midi": 60,
          "name": "C4",
          "ticks": 202561,
          "time": 263.7513020833333,
          "velocity": 0.07874015748031496
        },
        {
          "duration": 0.12630208333331439,
          "durationTicks": 97,
          "midi": 41,
          "name": "F2",
          "ticks": 202587,
          "time": 263.78515625,
          "velocity": 0.3700787401574803
        },
        {
          "duration": 0.12630208333337123,
          "durationTicks": 97,
          "midi": 68,
          "name": "G#4",
          "ticks": 202633,
          "time": 263.8450520833333,
          "velocity": 0.1732283464566929
        },
        {
          "duration": 0.12630208333337123,
          "durationTicks": 97,
          "midi": 75,
          "name": "D#5",
          "ticks": 202633,
          "time": 263.8450520833333,
          "velocity": 0.14173228346456693
        },
        {
          "duration": 0.12760416666668561,
          "durationTicks": 98,
          "midi": 65,
          "name": "F4",
          "ticks": 202651,
          "time": 263.8684895833333,
          "velocity": 0.09448818897637795
        },
        {
          "duration": 0,
          "durationTicks": 0,
          "midi": 70,
          "name": "A#4",
          "ticks": 202660,
          "time": 263.8802083333333,
          "velocity": 0.11023622047244094
        },
        {
          "duration": 0,
          "durationTicks": 0,
          "midi": 79,
          "name": "G5",
          "ticks": 202687,
          "time": 263.9153645833333,
          "velocity": 0.09448818897637795
        },
        {
          "duration": 0.09375,
          "durationTicks": 72,
          "midi": 80,
          "name": "G#5",
          "ticks": 202723,
          "time": 263.9622395833333,
          "velocity": 0.1732283464566929
        },
        {
          "duration": 0,
          "durationTicks": 0,
          "midi": 68,
          "name": "G#4",
          "ticks": 202732,
          "time": 263.9739583333333,
          "velocity": 0.2755905511811024
        },
        {
          "duration": 0.24609375,
          "durationTicks": 189,
          "midi": 70,
          "name": "A#4",
          "ticks": 202732,
          "time": 263.9739583333333,
          "velocity": 0.3228346456692913
        },
        {
          "duration": 0.125,
          "durationTicks": 96,
          "midi": 46,
          "name": "A#2",
          "ticks": 202742,
          "time": 263.9869791666667,
          "velocity": 0.06299212598425197
        },
        {
          "duration": 0.125,
          "durationTicks": 96,
          "midi": 27,
          "name": "D#1",
          "ticks": 202742,
          "time": 263.9869791666667,
          "velocity": 0.36220472440944884
        },
        {
          "duration": 0.125,
          "durationTicks": 96,
          "midi": 65,
          "name": "F4",
          "ticks": 202742,
          "time": 263.9869791666667,
          "velocity": 0.13385826771653545
        },
        {
          "duration": 0.125,
          "durationTicks": 96,
          "midi": 72,
          "name": "C5",
          "ticks": 202742,
          "time": 263.9869791666667,
          "velocity": 0.1732283464566929
        },
        {
          "duration": 0.25,
          "durationTicks": 192,
          "midi": 75,
          "name": "D#5",
          "ticks": 202778,
          "time": 264.0338541666667,
          "velocity": 0.1732283464566929
        },
        {
          "duration": 0.25,
          "durationTicks": 192,
          "midi": 79,
          "name": "G5",
          "ticks": 202778,
          "time": 264.0338541666667,
          "velocity": 0.11811023622047244
        },
        {
          "duration": 0.03255208333337123,
          "durationTicks": 25,
          "midi": 80,
          "name": "G#5",
          "ticks": 202795,
          "time": 264.0559895833333,
          "velocity": 0.06299212598425197
        },
        {
          "duration": 0.125,
          "durationTicks": 96,
          "midi": 89,
          "name": "F6",
          "ticks": 202822,
          "time": 264.0911458333333,
          "velocity": 0.12598425196850394
        },
        {
          "duration": 0.125,
          "durationTicks": 96,
          "midi": 65,
          "name": "F4",
          "ticks": 202849,
          "time": 264.1263020833333,
          "velocity": 0.15748031496062992
        },
        {
          "duration": 0.125,
          "durationTicks": 96,
          "midi": 72,
          "name": "C5",
          "ticks": 202894,
          "time": 264.1848958333333,
          "velocity": 0.31496062992125984
        },
        {
          "duration": 0,
          "durationTicks": 0,
          "midi": 29,
          "name": "F1",
          "ticks": 202921,
          "time": 264.2200520833333,
          "velocity": 0.4015748031496063
        },
        {
          "duration": 0.005208333333371229,
          "durationTicks": 4,
          "midi": 70,
          "name": "A#4",
          "ticks": 202921,
          "time": 264.2200520833333,
          "velocity": 0.10236220472440945
        },
        {
          "duration": 0,
          "durationTicks": 0,
          "midi": 30,
          "name": "F#1",
          "ticks": 202930,
          "time": 264.2317708333333,
          "velocity": 0.4251968503937008
        },
        {
          "duration": 0.125,
          "durationTicks": 96,
          "midi": 65,
          "name": "F4",
          "ticks": 202930,
          "time": 264.2317708333333,
          "velocity": 0.1732283464566929
        },
        {
          "duration": 0,
          "durationTicks": 0,
          "midi": 48,
          "name": "C3",
          "ticks": 202957,
          "time": 264.2669270833333,
          "velocity": 0.12598425196850394
        },
        {
          "duration": 0.125,
          "durationTicks": 96,
          "midi": 29,
          "name": "F1",
          "ticks": 202974,
          "time": 264.2890625,
          "velocity": 0.3779527559055118
        },
        {
          "duration": 0.12630208333331439,
          "durationTicks": 97,
          "midi": 68,
          "name": "G#4",
          "ticks": 203001,
          "time": 264.32421875,
          "velocity": 0.31496062992125984
        },
        {
          "duration": 0.12630208333331439,
          "durationTicks": 97,
          "midi": 75,
          "name": "D#5",
          "ticks": 203001,
          "time": 264.32421875,
          "velocity": 0.1968503937007874
        },
        {
          "duration": 0.12630208333331439,
          "durationTicks": 97,
          "midi": 48,
          "name": "C3",
          "ticks": 203001,
          "time": 264.32421875,
          "velocity": 0.08661417322834646
        },
        {
          "duration": 0,
          "durationTicks": 0,
          "midi": 69,
          "name": "A4",
          "ticks": 203073,
          "time": 264.41796875,
          "velocity": 0.2755905511811024
        },
        {
          "duration": 0.12630208333331439,
          "durationTicks": 97,
          "midi": 70,
          "name": "A#4",
          "ticks": 203082,
          "time": 264.4296875,
          "velocity": 0.2677165354330709
        },
        {
          "duration": 0.12630208333331439,
          "durationTicks": 97,
          "midi": 89,
          "name": "F6",
          "ticks": 203091,
          "time": 264.44140625,
          "velocity": 0.11023622047244094
        },
        {
          "duration": 0,
          "durationTicks": 0,
          "midi": 87,
          "name": "D#6",
          "ticks": 203101,
          "time": 264.4544270833333,
          "velocity": 0.14173228346456693
        },
        {
          "duration": 0.125,
          "durationTicks": 96,
          "midi": 75,
          "name": "D#5",
          "ticks": 203181,
          "time": 264.55859375,
          "velocity": 0.1968503937007874
        },
        {
          "duration": 0.125,
          "durationTicks": 96,
          "midi": 72,
          "name": "C5",
          "ticks": 203181,
          "time": 264.55859375,
          "velocity": 0.14960629921259844
        },
        {
          "duration": 0.125,
          "durationTicks": 96,
          "midi": 67,
          "name": "G4",
          "ticks": 203191,
          "time": 264.5716145833333,
          "velocity": 0.28346456692913385
        },
        {
          "duration": 0.12630208333331439,
          "durationTicks": 97,
          "midi": 86,
          "name": "D6",
          "ticks": 203208,
          "time": 264.59375,
          "velocity": 0.06299212598425197
        },
        {
          "duration": 0.12760416666668561,
          "durationTicks": 98,
          "midi": 68,
          "name": "G#4",
          "ticks": 203262,
          "time": 264.6640625,
          "velocity": 0.29133858267716534
        },
        {
          "duration": 0,
          "durationTicks": 0,
          "midi": 44,
          "name": "G#2",
          "ticks": 203289,
          "time": 264.69921875,
          "velocity": 0.3937007874015748
        },
        {
          "duration": 0,
          "durationTicks": 0,
          "midi": 63,
          "name": "D#4",
          "ticks": 203298,
          "time": 264.7109375,
          "velocity": 0.1889763779527559
        },
        {
          "duration": 0,
          "durationTicks": 0,
          "midi": 31,
          "name": "G1",
          "ticks": 203308,
          "time": 264.7239583333333,
          "velocity": 0.29133858267716534
        },
        {
          "duration": 0.12630208333337123,
          "durationTicks": 97,
          "midi": 43,
          "name": "G2",
          "ticks": 203317,
          "time": 264.7356770833333,
          "velocity": 0.3543307086614173
        },
        {
          "duration": 0,
          "durationTicks": 0,
          "midi": 70,
          "name": "A#4",
          "ticks": 203326,
          "time": 264.7473958333333,
          "velocity": 0.11023622047244094
        },
        {
          "duration": 0.12630208333337123,
          "durationTicks": 97,
          "midi": 87,
          "name": "D#6",
          "ticks": 203326,
          "time": 264.7473958333333,
          "velocity": 0.11023622047244094
        },
        {
          "duration": 0.12630208333331439,
          "durationTicks": 97,
          "midi": 62,
          "name": "D4",
          "ticks": 203336,
          "time": 264.7604166666667,
          "velocity": 0.08661417322834646
        },
        {
          "duration": 0,
          "durationTicks": 0,
          "midi": 44,
          "name": "G#2",
          "ticks": 203380,
          "time": 264.8177083333333,
          "velocity": 0.2992125984251969
        },
        {
          "duration": 0,
          "durationTicks": 0,
          "midi": 30,
          "name": "F#1",
          "ticks": 203389,
          "time": 264.8294270833333,
          "velocity": 0.3464566929133858
        },
        {
          "duration": 0,
          "durationTicks": 0,
          "midi": 75,
          "name": "D#5",
          "ticks": 203389,
          "time": 264.8294270833333,
          "velocity": 0.14173228346456693
        },
        {
          "duration": 0.12630208333337123,
          "durationTicks": 97,
          "midi": 70,
          "name": "A#4",
          "ticks": 203389,
          "time": 264.8294270833333,
          "velocity": 0.33070866141732286
        },
        {
          "duration": 0.12760416666668561,
          "durationTicks": 98,
          "midi": 50,
          "name": "D3",
          "ticks": 203407,
          "time": 264.8528645833333,
          "velocity": 0.08661417322834646
        },
        {
          "duration": 0.12760416666668561,
          "durationTicks": 98,
          "midi": 31,
          "name": "G1",
          "ticks": 203407,
          "time": 264.8528645833333,
          "velocity": 0.3543307086614173
        },
        {
          "duration": 0.24609375,
          "durationTicks": 189,
          "midi": 65,
          "name": "F4",
          "ticks": 203426,
          "time": 264.8776041666667,
          "velocity": 0.2755905511811024
        },
        {
          "duration": 0,
          "durationTicks": 0,
          "midi": 79,
          "name": "G5",
          "ticks": 203435,
          "time": 264.8893229166667,
          "velocity": 0.05511811023622047
        },
        {
          "duration": 0,
          "durationTicks": 0,
          "midi": 80,
          "name": "G#5",
          "ticks": 203452,
          "time": 264.9114583333333,
          "velocity": 0.16535433070866143
        },
        {
          "duration": 0.12630208333337123,
          "durationTicks": 97,
          "midi": 87,
          "name": "D#6",
          "ticks": 203452,
          "time": 264.9114583333333,
          "velocity": 0.14173228346456693
        },
        {
          "duration": 0,
          "durationTicks": 0,
          "midi": 68,
          "name": "G#4",
          "ticks": 203462,
          "time": 264.9244791666667,
          "velocity": 0.2755905511811024
        },
        {
          "duration": 0.12630208333337123,
          "durationTicks": 97,
          "midi": 84,
          "name": "C6",
          "ticks": 203479,
          "time": 264.9466145833333,
          "velocity": 0.11811023622047244
        },
        {
          "duration": 0.12630208333331439,
          "durationTicks": 97,
          "midi": 70,
          "name": "A#4",
          "ticks": 203489,
          "time": 264.9596354166667,
          "velocity": 0.09448818897637795
        },
        {
          "duration": 0.25260416666662877,
          "durationTicks": 194,
          "midi": 79,
          "name": "G5",
          "ticks": 203489,
          "time": 264.9596354166667,
          "velocity": 0.07874015748031496
        },
        {
          "duration": 0.25260416666662877,
          "durationTicks": 194,
          "midi": 75,
          "name": "D#5",
          "ticks": 203498,
          "time": 264.9713541666667,
          "velocity": 0.08661417322834646
        },
        {
          "duration": 0.25260416666662877,
          "durationTicks": 194,
          "midi": 72,
          "name": "C5",
          "ticks": 203498,
          "time": 264.9713541666667,
          "velocity": 0.14173228346456693
        },
        {
          "duration": 0.12630208333331439,
          "durationTicks": 97,
          "midi": 68,
          "name": "G#4",
          "ticks": 203552,
          "time": 265.0416666666667,
          "velocity": 0.2047244094488189
        },
        {
          "duration": 0.12630208333337123,
          "durationTicks": 97,
          "midi": 44,
          "name": "G#2",
          "ticks": 203569,
          "time": 265.0638020833333,
          "velocity": 0.36220472440944884
        },
        {
          "duration": 0,
          "durationTicks": 0,
          "midi": 66,
          "name": "F#4",
          "ticks": 203579,
          "time": 265.0768229166667,
          "velocity": 0.16535433070866143
        },
        {
          "duration": 0.12760416666662877,
          "durationTicks": 98,
          "midi": 70,
          "name": "A#4",
          "ticks": 203606,
          "time": 265.1119791666667,
          "velocity": 0.06299212598425197
        },
        {
          "duration": 0.006510416666628771,
          "durationTicks": 5,
          "midi": 65,
          "name": "F4",
          "ticks": 203615,
          "time": 265.1236979166667,
          "velocity": 0.11023622047244094
        },
        {
          "duration": 0.12890625,
          "durationTicks": 99,
          "midi": 82,
          "name": "A#5",
          "ticks": 203669,
          "time": 265.1940104166667,
          "velocity": 0.2047244094488189
        },
        {
          "duration": 0,
          "durationTicks": 0,
          "midi": 63,
          "name": "D#4",
          "ticks": 203678,
          "time": 265.2057291666667,
          "velocity": 0.14173228346456693
        },
        {
          "duration": 0.12890625,
          "durationTicks": 99,
          "midi": 70,
          "name": "A#4",
          "ticks": 203678,
          "time": 265.2057291666667,
          "velocity": 0.33070866141732286
        },
        {
          "duration": 0.12890625,
          "durationTicks": 99,
          "midi": 89,
          "name": "F6",
          "ticks": 203687,
          "time": 265.2174479166667,
          "velocity": 0.09448818897637795
        },
        {
          "duration": 0,
          "durationTicks": 0,
          "midi": 31,
          "name": "G1",
          "ticks": 203715,
          "time": 265.25390625,
          "velocity": 0.2677165354330709
        },
        {
          "duration": 0,
          "durationTicks": 0,
          "midi": 29,
          "name": "F1",
          "ticks": 203742,
          "time": 265.2890625,
          "velocity": 0.1732283464566929
        },
        {
          "duration": 0.12630208333331439,
          "durationTicks": 97,
          "midi": 72,
          "name": "C5",
          "ticks": 203751,
          "time": 265.30078125,
          "velocity": 0.28346456692913385
        },
        {
          "duration": 0.12630208333337123,
          "durationTicks": 97,
          "midi": 91,
          "name": "G6",
          "ticks": 203761,
          "time": 265.3138020833333,
          "velocity": 0.07086614173228346
        },
        {
          "duration": 0,
          "durationTicks": 0,
          "midi": 75,
          "name": "D#5",
          "ticks": 203770,
          "time": 265.3255208333333,
          "velocity": 0.16535433070866143
        },
        {
          "duration": 0.12630208333337123,
          "durationTicks": 97,
          "midi": 44,
          "name": "G#2",
          "ticks": 203770,
          "time": 265.3255208333333,
          "velocity": 0.36220472440944884
        },
        {
          "duration": 0.12630208333337123,
          "durationTicks": 97,
          "midi": 65,
          "name": "F4",
          "ticks": 203770,
          "time": 265.3255208333333,
          "velocity": 0.2047244094488189
        },
        {
          "duration": 0,
          "durationTicks": 0,
          "midi": 63,
          "name": "D#4",
          "ticks": 203869,
          "time": 265.4544270833333,
          "velocity": 0.14173228346456693
        },
        {
          "duration": 0,
          "durationTicks": 0,
          "midi": 83,
          "name": "B5",
          "ticks": 203879,
          "time": 265.4674479166667,
          "velocity": 0.11811023622047244
        },
        {
          "duration": 0.12630208333331439,
          "durationTicks": 97,
          "midi": 32,
          "name": "G#1",
          "ticks": 203879,
          "time": 265.4674479166667,
          "velocity": 0.3464566929133858
        },
        {
          "duration": 0,
          "durationTicks": 0,
          "midi": 70,
          "name": "A#4",
          "ticks": 203888,
          "time": 265.4791666666667,
          "velocity": 0.25984251968503935
        },
        {
          "duration": 0.12630208333331439,
          "durationTicks": 97,
          "midi": 51,
          "name": "D#3",
          "ticks": 203888,
          "time": 265.4791666666667,
          "velocity": 0.08661417322834646
        },
        {
          "duration": 0,
          "durationTicks": 0,
          "midi": 81,
          "name": "A5",
          "ticks": 203897,
          "time": 265.4908854166667,
          "velocity": 0.14173228346456693
        },
        {
          "duration": 0,
          "durationTicks": 0,
          "midi": 69,
          "name": "A4",
          "ticks": 203907,
          "time": 265.50390625,
          "velocity": 0.25984251968503935
        },
        {
          "duration": 0.12630208333331439,
          "durationTicks": 97,
          "midi": 75,
          "name": "D#5",
          "ticks": 203960,
          "time": 265.5729166666667,
          "velocity": 0.14960629921259844
        },
        {
          "duration": 0.12630208333331439,
          "durationTicks": 97,
          "midi": 70,
          "name": "A#4",
          "ticks": 203960,
          "time": 265.5729166666667,
          "velocity": 0.18110236220472442
        },
        {
          "duration": 0.125,
          "durationTicks": 96,
          "midi": 72,
          "name": "C5",
          "ticks": 204041,
          "time": 265.6783854166667,
          "velocity": 0.1968503937007874
        },
        {
          "duration": 0,
          "durationTicks": 0,
          "midi": 29,
          "name": "F1",
          "ticks": 204050,
          "time": 265.6901041666667,
          "velocity": 0.30708661417322836
        },
        {
          "duration": 0.125,
          "durationTicks": 96,
          "midi": 68,
          "name": "G#4",
          "ticks": 204050,
          "time": 265.6901041666667,
          "velocity": 0.28346456692913385
        },
        {
          "duration": 0.125,
          "durationTicks": 96,
          "midi": 87,
          "name": "D#6",
          "ticks": 204050,
          "time": 265.6901041666667,
          "velocity": 0.2047244094488189
        },
        {
          "duration": 0,
          "durationTicks": 0,
          "midi": 32,
          "name": "G#1",
          "ticks": 204087,
          "time": 265.73828125,
          "velocity": 0.33070866141732286
        },
        {
          "duration": 0,
          "durationTicks": 0,
          "midi": 33,
          "name": "A1",
          "ticks": 204104,
          "time": 265.7604166666667,
          "velocity": 0.3228346456692913
        },
        {
          "duration": 0,
          "durationTicks": 0,
          "midi": 69,
          "name": "A4",
          "ticks": 204122,
          "time": 265.7838541666667,
          "velocity": 0.2677165354330709
        },
        {
          "duration": 0.125,
          "durationTicks": 96,
          "midi": 32,
          "name": "G#1",
          "ticks": 204139,
          "time": 265.8059895833333,
          "velocity": 0.3464566929133858
        },
        {
          "duration": 0.125,
          "durationTicks": 96,
          "midi": 51,
          "name": "D#3",
          "ticks": 204139,
          "time": 265.8059895833333,
          "velocity": 0.07874015748031496
        },
        {
          "duration": 0.125,
          "durationTicks": 96,
          "midi": 70,
          "name": "A#4",
          "ticks": 204139,
          "time": 265.8059895833333,
          "velocity": 0.33070866141732286
        },
        {
          "duration": 0.125,
          "durationTicks": 96,
          "midi": 89,
          "name": "F6",
          "ticks": 204139,
          "time": 265.8059895833333,
          "velocity": 0.11811023622047244
        },
        {
          "duration": 0.125,
          "durationTicks": 96,
          "midi": 75,
          "name": "D#5",
          "ticks": 204149,
          "time": 265.8190104166667,
          "velocity": 0.1732283464566929
        },
        {
          "duration": 0.25130208333337123,
          "durationTicks": 193,
          "midi": 34,
          "name": "A#1",
          "ticks": 204247,
          "time": 265.9466145833333,
          "velocity": 0.36220472440944884
        },
        {
          "duration": 0.25130208333337123,
          "durationTicks": 193,
          "midi": 53,
          "name": "F3",
          "ticks": 204247,
          "time": 265.9466145833333,
          "velocity": 0.08661417322834646
        },
        {
          "duration": 0,
          "durationTicks": 0,
          "midi": 79,
          "name": "G5",
          "ticks": 204274,
          "time": 265.9817708333333,
          "velocity": 0.1889763779527559
        },
        {
          "duration": 0,
          "durationTicks": 0,
          "midi": 67,
          "name": "G4",
          "ticks": 204283,
          "time": 265.9934895833333,
          "velocity": 0.25984251968503935
        },
        {
          "duration": 0.125,
          "durationTicks": 96,
          "midi": 75,
          "name": "D#5",
          "ticks": 204337,
          "time": 266.0638020833333,
          "velocity": 0.1889763779527559
        },
        {
          "duration": 0.11588541666668561,
          "durationTicks": 89,
          "midi": 68,
          "name": "G#4",
          "ticks": 204337,
          "time": 266.0638020833333,
          "velocity": 0.15748031496062992
        },
        {
          "duration": 0.009114583333314386,
          "durationTicks": 7,
          "midi": 68,
          "name": "G#4",
          "ticks": 204426,
          "time": 266.1796875,
          "velocity": 0.2125984251968504
        },
        {
          "duration": 0.12630208333331439,
          "durationTicks": 97,
          "midi": 70,
          "name": "A#4",
          "ticks": 204426,
          "time": 266.1796875,
          "velocity": 0.1889763779527559
        },
        {
          "duration": 0.12630208333331439,
          "durationTicks": 97,
          "midi": 79,
          "name": "G5",
          "ticks": 204435,
          "time": 266.19140625,
          "velocity": 0.1732283464566929
        },
        {
          "duration": 0.12630208333331439,
          "durationTicks": 97,
          "midi": 84,
          "name": "C6",
          "ticks": 204435,
          "time": 266.19140625,
          "velocity": 0.2125984251968504
        },
        {
          "duration": 0,
          "durationTicks": 0,
          "midi": 63,
          "name": "D#4",
          "ticks": 204445,
          "time": 266.2044270833333,
          "velocity": 0.14960629921259844
        },
        {
          "duration": 0.12630208333337123,
          "durationTicks": 97,
          "midi": 67,
          "name": "G4",
          "ticks": 204445,
          "time": 266.2044270833333,
          "velocity": 0.2755905511811024
        },
        {
          "duration": 0,
          "durationTicks": 0,
          "midi": 86,
          "name": "D6",
          "ticks": 204462,
          "time": 266.2265625,
          "velocity": 0.07086614173228346
        },
        {
          "duration": 0,
          "durationTicks": 0,
          "midi": 34,
          "name": "A#1",
          "ticks": 204480,
          "time": 266.25,
          "velocity": 0.3858267716535433
        },
        {
          "duration": 0.3763020833333144,
          "durationTicks": 289,
          "midi": 80,
          "name": "G#5",
          "ticks": 204480,
          "time": 266.25,
          "velocity": 0.2755905511811024
        },
        {
          "duration": 0.3776041666666856,
          "durationTicks": 290,
          "midi": 68,
          "name": "G#4",
          "ticks": 204498,
          "time": 266.2734375,
          "velocity": 0.2992125984251969
        },
        {
          "duration": 0.2513020833333144,
          "durationTicks": 193,
          "midi": 87,
          "name": "D#6",
          "ticks": 204507,
          "time": 266.28515625,
          "velocity": 0.09448818897637795
        },
        {
          "duration": 0,
          "durationTicks": 0,
          "midi": 35,
          "name": "B1",
          "ticks": 204516,
          "time": 266.296875,
          "velocity": 0.36220472440944884
        },
        {
          "duration": 0,
          "durationTicks": 0,
          "midi": 54,
          "name": "F#3",
          "ticks": 204516,
          "time": 266.296875,
          "velocity": 0.07874015748031496
        },
        {
          "duration": 0.125,
          "durationTicks": 96,
          "midi": 75,
          "name": "D#5",
          "ticks": 204525,
          "time": 266.30859375,
          "velocity": 0.2755905511811024
        },
        {
          "duration": 0,
          "durationTicks": 0,
          "midi": 94,
          "name": "A#6",
          "ticks": 204535,
          "time": 266.3216145833333,
          "velocity": 0.08661417322834646
        },
        {
          "duration": 0.125,
          "durationTicks": 96,
          "midi": 55,
          "name": "G3",
          "ticks": 204562,
          "time": 266.3567708333333,
          "velocity": 0.08661417322834646
        },
        {
          "duration": 0.125,
          "durationTicks": 96,
          "midi": 36,
          "name": "C2",
          "ticks": 204562,
          "time": 266.3567708333333,
          "velocity": 0.36220472440944884
        },
        {
          "duration": 0.125,
          "durationTicks": 96,
          "midi": 72,
          "name": "C5",
          "ticks": 204579,
          "time": 266.37890625,
          "velocity": 0.2047244094488189
        },
        {
          "duration": 0.2513020833333144,
          "durationTicks": 193,
          "midi": 48,
          "name": "C3",
          "ticks": 204624,
          "time": 266.4375,
          "velocity": 0.36220472440944884
        },
        {
          "duration": 0,
          "durationTicks": 0,
          "midi": 63,
          "name": "D#4",
          "ticks": 204687,
          "time": 266.51953125,
          "velocity": 0.2125984251968504
        },
        {
          "duration": 0,
          "durationTicks": 0,
          "midi": 75,
          "name": "D#5",
          "ticks": 204722,
          "time": 266.5651041666667,
          "velocity": 0.13385826771653545
        },
        {
          "duration": 0,
          "durationTicks": 0,
          "midi": 67,
          "name": "G4",
          "ticks": 204767,
          "time": 266.6236979166667,
          "velocity": 0.2125984251968504
        },
        {
          "duration": 0,
          "durationTicks": 0,
          "midi": 56,
          "name": "G#3",
          "ticks": 204776,
          "time": 266.6354166666667,
          "velocity": 0.2204724409448819
        },
        {
          "duration": 0.125,
          "durationTicks": 96,
          "midi": 68,
          "name": "G#4",
          "ticks": 204785,
          "time": 266.6471354166667,
          "velocity": 0.29133858267716534
        },
        {
          "duration": 0,
          "durationTicks": 0,
          "midi": 58,
          "name": "A#3",
          "ticks": 204812,
          "time": 266.6822916666667,
          "velocity": 0.1732283464566929
        },
        {
          "duration": 0,
          "durationTicks": 0,
          "midi": 63,
          "name": "D#4",
          "ticks": 204812,
          "time": 266.6822916666667,
          "velocity": 0.15748031496062992
        },
        {
          "duration": 0,
          "durationTicks": 0,
          "midi": 84,
          "name": "C6",
          "ticks": 204821,
          "time": 266.6940104166667,
          "velocity": 0.14960629921259844
        },
        {
          "duration": 0.2513020833333144,
          "durationTicks": 193,
          "midi": 58,
          "name": "A#3",
          "ticks": 204839,
          "time": 266.7174479166667,
          "velocity": 0.10236220472440945
        },
        {
          "duration": 0.12630208333331439,
          "durationTicks": 97,
          "midi": 39,
          "name": "D#2",
          "ticks": 204866,
          "time": 266.7526041666667,
          "velocity": 0.36220472440944884
        },
        {
          "duration": 0.3763020833333144,
          "durationTicks": 289,
          "midi": 70,
          "name": "A#4",
          "ticks": 204893,
          "time": 266.7877604166667,
          "velocity": 0.31496062992125984
        },
        {
          "duration": 0.32682291666662877,
          "durationTicks": 251,
          "midi": 89,
          "name": "F6",
          "ticks": 204902,
          "time": 266.7994791666667,
          "velocity": 0.09448818897637795
        },
        {
          "duration": 0.125,
          "durationTicks": 96,
          "midi": 75,
          "name": "D#5",
          "ticks": 204911,
          "time": 266.8111979166667,
          "velocity": 0.2283464566929134
        },
        {
          "duration": 0.125,
          "durationTicks": 96,
          "midi": 68,
          "name": "G#4",
          "ticks": 204929,
          "time": 266.8346354166667,
          "velocity": 0.1732283464566929
        },
        {
          "duration": 0,
          "durationTicks": 0,
          "midi": 72,
          "name": "C5",
          "ticks": 204965,
          "time": 266.8815104166667,
          "velocity": 0.14960629921259844
        },
        {
          "duration": 0,
          "durationTicks": 0,
          "midi": 87,
          "name": "D#6",
          "ticks": 205010,
          "time": 266.9401041666667,
          "velocity": 0.16535433070866143
        },
        {
          "duration": 0,
          "durationTicks": 0,
          "midi": 60,
          "name": "C4",
          "ticks": 205099,
          "time": 267.0559895833333,
          "velocity": 0.15748031496062992
        },
        {
          "duration": 0,
          "durationTicks": 0,
          "midi": 75,
          "name": "D#5",
          "ticks": 205108,
          "time": 267.0677083333333,
          "velocity": 0.14173228346456693
        },
        {
          "duration": 0.049479166666685614,
          "durationTicks": 38,
          "midi": 89,
          "name": "F6",
          "ticks": 205153,
          "time": 267.1263020833333,
          "velocity": 0.06299212598425197
        },
        {
          "duration": 0.3815104166666856,
          "durationTicks": 293,
          "midi": 70,
          "name": "A#4",
          "ticks": 205153,
          "time": 267.1263020833333,
          "velocity": 0.31496062992125984
        },
        {
          "duration": 0,
          "durationTicks": 0,
          "midi": 63,
          "name": "D#4",
          "ticks": 205198,
          "time": 267.1848958333333,
          "velocity": 0.18110236220472442
        },
        {
          "duration": 0.12760416666668561,
          "durationTicks": 98,
          "midi": 77,
          "name": "F5",
          "ticks": 205198,
          "time": 267.1848958333333,
          "velocity": 0.1732283464566929
        },
        {
          "duration": 0.12760416666668561,
          "durationTicks": 98,
          "midi": 84,
          "name": "C6",
          "ticks": 205198,
          "time": 267.1848958333333,
          "velocity": 0.16535433070866143
        },
        {
          "duration": 0,
          "durationTicks": 0,
          "midi": 29,
          "name": "F1",
          "ticks": 205207,
          "time": 267.1966145833333,
          "velocity": 0.4015748031496063
        },
        {
          "duration": 0.12760416666668561,
          "durationTicks": 98,
          "midi": 65,
          "name": "F4",
          "ticks": 205207,
          "time": 267.1966145833333,
          "velocity": 0.2755905511811024
        },
        {
          "duration": 0,
          "durationTicks": 0,
          "midi": 30,
          "name": "F#1",
          "ticks": 205217,
          "time": 267.2096354166667,
          "velocity": 0.4251968503937008
        },
        {
          "duration": 0.12760416666662877,
          "durationTicks": 98,
          "midi": 48,
          "name": "C3",
          "ticks": 205217,
          "time": 267.2096354166667,
          "velocity": 0.14173228346456693
        },
        {
          "duration": 0,
          "durationTicks": 0,
          "midi": 80,
          "name": "G#5",
          "ticks": 205253,
          "time": 267.2565104166667,
          "velocity": 0.10236220472440945
        },
        {
          "duration": 0.12760416666662877,
          "durationTicks": 98,
          "midi": 29,
          "name": "F1",
          "ticks": 205253,
          "time": 267.2565104166667,
          "velocity": 0.3858267716535433
        },
        {
          "duration": 0,
          "durationTicks": 0,
          "midi": 66,
          "name": "F#4",
          "ticks": 205262,
          "time": 267.2682291666667,
          "velocity": 0.25984251968503935
        },
        {
          "duration": 0.3802083333333144,
          "durationTicks": 292,
          "midi": 67,
          "name": "G4",
          "ticks": 205280,
          "time": 267.2916666666667,
          "velocity": 0.28346456692913385
        },
        {
          "duration": 0.12760416666662877,
          "durationTicks": 98,
          "midi": 75,
          "name": "D#5",
          "ticks": 205289,
          "time": 267.3033854166667,
          "velocity": 0.2204724409448819
        },
        {
          "duration": 0.12760416666662877,
          "durationTicks": 98,
          "midi": 48,
          "name": "C3",
          "ticks": 205289,
          "time": 267.3033854166667,
          "velocity": 0.08661417322834646
        },
        {
          "duration": 0.12760416666662877,
          "durationTicks": 98,
          "midi": 92,
          "name": "G#6",
          "ticks": 205289,
          "time": 267.3033854166667,
          "velocity": 0.1732283464566929
        },
        {
          "duration": 0.12760416666662877,
          "durationTicks": 98,
          "midi": 84,
          "name": "C6",
          "ticks": 205289,
          "time": 267.3033854166667,
          "velocity": 0.15748031496062992
        },
        {
          "duration": 0.2526041666666856,
          "durationTicks": 194,
          "midi": 86,
          "name": "D6",
          "ticks": 205308,
          "time": 267.328125,
          "velocity": 0.11023622047244094
        },
        {
          "duration": 0.12630208333331439,
          "durationTicks": 97,
          "midi": 72,
          "name": "C5",
          "ticks": 205344,
          "time": 267.375,
          "velocity": 0.07874015748031496
        },
        {
          "duration": 0.12630208333331439,
          "durationTicks": 97,
          "midi": 84,
          "name": "C6",
          "ticks": 205416,
          "time": 267.46875,
          "velocity": 0.16535433070866143
        },
        {
          "duration": 0.12630208333337123,
          "durationTicks": 97,
          "midi": 75,
          "name": "D#5",
          "ticks": 205426,
          "time": 267.4817708333333,
          "velocity": 0.16535433070866143
        },
        {
          "duration": 0.12630208333337123,
          "durationTicks": 97,
          "midi": 80,
          "name": "G#5",
          "ticks": 205426,
          "time": 267.4817708333333,
          "velocity": 0.1732283464566929
        },
        {
          "duration": 0,
          "durationTicks": 0,
          "midi": 63,
          "name": "D#4",
          "ticks": 205443,
          "time": 267.50390625,
          "velocity": 0.07086614173228346
        },
        {
          "duration": 0,
          "durationTicks": 0,
          "midi": 70,
          "name": "A#4",
          "ticks": 205453,
          "time": 267.5169270833333,
          "velocity": 0.16535433070866143
        },
        {
          "duration": 0,
          "durationTicks": 0,
          "midi": 60,
          "name": "C4",
          "ticks": 205489,
          "time": 267.5638020833333,
          "velocity": 0.08661417322834646
        },
        {
          "duration": 0,
          "durationTicks": 0,
          "midi": 77,
          "name": "F5",
          "ticks": 205516,
          "time": 267.5989583333333,
          "velocity": 0.16535433070866143
        },
        {
          "duration": 0,
          "durationTicks": 0,
          "midi": 81,
          "name": "A5",
          "ticks": 205516,
          "time": 267.5989583333333,
          "velocity": 0.16535433070866143
        },
        {
          "duration": 0,
          "durationTicks": 0,
          "midi": 72,
          "name": "C5",
          "ticks": 205525,
          "time": 267.6106770833333,
          "velocity": 0.15748031496062992
        },
        {
          "duration": 0,
          "durationTicks": 0,
          "midi": 56,
          "name": "G#3",
          "ticks": 205534,
          "time": 267.6223958333333,
          "velocity": 0.09448818897637795
        },
        {
          "duration": 0,
          "durationTicks": 0,
          "midi": 66,
          "name": "F#4",
          "ticks": 205534,
          "time": 267.6223958333333,
          "velocity": 0.29133858267716534
        },
        {
          "duration": 0,
          "durationTicks": 0,
          "midi": 85,
          "name": "C#6",
          "ticks": 205552,
          "time": 267.6458333333333,
          "velocity": 0.07874015748031496
        },
        {
          "duration": 0.125,
          "durationTicks": 96,
          "midi": 75,
          "name": "D#5",
          "ticks": 205579,
          "time": 267.6809895833333,
          "velocity": 0.16535433070866143
        },
        {
          "duration": 0.37630208333337123,
          "durationTicks": 289,
          "midi": 67,
          "name": "G4",
          "ticks": 205579,
          "time": 267.6809895833333,
          "velocity": 0.25984251968503935
        },
        {
          "duration": 0.125,
          "durationTicks": 96,
          "midi": 82,
          "name": "A#5",
          "ticks": 205588,
          "time": 267.6927083333333,
          "velocity": 0.07086614173228346
        },
        {
          "duration": 0.125,
          "durationTicks": 96,
          "midi": 92,
          "name": "G#6",
          "ticks": 205588,
          "time": 267.6927083333333,
          "velocity": 0.11023622047244094
        },
        {
          "duration": 0.125,
          "durationTicks": 96,
          "midi": 84,
          "name": "C6",
          "ticks": 205588,
          "time": 267.6927083333333,
          "velocity": 0.11023622047244094
        },
        {
          "duration": 0.25,
          "durationTicks": 192,
          "midi": 63,
          "name": "D#4",
          "ticks": 205588,
          "time": 267.6927083333333,
          "velocity": 0.2677165354330709
        },
        {
          "duration": 0,
          "durationTicks": 0,
          "midi": 31,
          "name": "G1",
          "ticks": 205606,
          "time": 267.7161458333333,
          "velocity": 0.29133858267716534
        },
        {
          "duration": 0.125,
          "durationTicks": 96,
          "midi": 80,
          "name": "G#5",
          "ticks": 205713,
          "time": 267.85546875,
          "velocity": 0.13385826771653545
        },
        {
          "duration": 0.125,
          "durationTicks": 96,
          "midi": 84,
          "name": "C6",
          "ticks": 205713,
          "time": 267.85546875,
          "velocity": 0.11023622047244094
        },
        {
          "duration": 0,
          "durationTicks": 0,
          "midi": 82,
          "name": "A#5",
          "ticks": 205723,
          "time": 267.8684895833333,
          "velocity": 0.07086614173228346
        },
        {
          "duration": 0,
          "durationTicks": 0,
          "midi": 64,
          "name": "E4",
          "ticks": 205767,
          "time": 267.92578125,
          "velocity": 0.16535433070866143
        },
        {
          "duration": 0.125,
          "durationTicks": 96,
          "midi": 27,
          "name": "D#1",
          "ticks": 205785,
          "time": 267.94921875,
          "velocity": 0.36220472440944884
        },
        {
          "duration": 0.125,
          "durationTicks": 96,
          "midi": 46,
          "name": "A#2",
          "ticks": 205785,
          "time": 267.94921875,
          "velocity": 0.11023622047244094
        },
        {
          "duration": 0,
          "durationTicks": 0,
          "midi": 77,
          "name": "F5",
          "ticks": 205802,
          "time": 267.9713541666667,
          "velocity": 0.10236220472440945
        },
        {
          "duration": 0,
          "durationTicks": 0,
          "midi": 81,
          "name": "A5",
          "ticks": 205802,
          "time": 267.9713541666667,
          "velocity": 0.11023622047244094
        },
        {
          "duration": 0,
          "durationTicks": 0,
          "midi": 72,
          "name": "C5",
          "ticks": 205812,
          "time": 267.984375,
          "velocity": 0.08661417322834646
        },
        {
          "duration": 0,
          "durationTicks": 0,
          "midi": 66,
          "name": "F#4",
          "ticks": 205821,
          "time": 267.99609375,
          "velocity": 0.1732283464566929
        },
        {
          "duration": 0,
          "durationTicks": 0,
          "midi": 75,
          "name": "D#5",
          "ticks": 205865,
          "time": 268.0533854166667,
          "velocity": 0.14960629921259844
        },
        {
          "duration": 0.12630208333331439,
          "durationTicks": 97,
          "midi": 63,
          "name": "D#4",
          "ticks": 205883,
          "time": 268.0768229166667,
          "velocity": 0.18110236220472442
        },
        {
          "duration": 0,
          "durationTicks": 0,
          "midi": 28,
          "name": "E1",
          "ticks": 205955,
          "time": 268.1705729166667,
          "velocity": 0.3543307086614173
        },
        {
          "duration": 0.25390625,
          "durationTicks": 195,
          "midi": 60,
          "name": "C4",
          "ticks": 205955,
          "time": 268.1705729166667,
          "velocity": 0.29133858267716534
        },
        {
          "duration": 0,
          "durationTicks": 0,
          "midi": 79,
          "name": "G5",
          "ticks": 205964,
          "time": 268.1822916666667,
          "velocity": 0.08661417322834646
        },
        {
          "duration": 0,
          "durationTicks": 0,
          "midi": 29,
          "name": "F1",
          "ticks": 205973,
          "time": 268.1940104166667,
          "velocity": 0.4094488188976378
        },
        {
          "duration": 0,
          "durationTicks": 0,
          "midi": 30,
          "name": "F#1",
          "ticks": 205982,
          "time": 268.2057291666667,
          "velocity": 0.4251968503937008
        },
        {
          "duration": 0.12760416666662877,
          "durationTicks": 98,
          "midi": 80,
          "name": "G#5",
          "ticks": 206000,
          "time": 268.2291666666667,
          "velocity": 0.09448818897637795
        },
        {
          "duration": 0,
          "durationTicks": 0,
          "midi": 48,
          "name": "C3",
          "ticks": 206009,
          "time": 268.2408854166667,
          "velocity": 0.12598425196850394
        },
        {
          "duration": 0.12630208333331439,
          "durationTicks": 97,
          "midi": 29,
          "name": "F1",
          "ticks": 206019,
          "time": 268.25390625,
          "velocity": 0.3779527559055118
        },
        {
          "duration": 0.12630208333331439,
          "durationTicks": 97,
          "midi": 79,
          "name": "G5",
          "ticks": 206028,
          "time": 268.265625,
          "velocity": 0.07086614173228346
        },
        {
          "duration": 0.12630208333331439,
          "durationTicks": 97,
          "midi": 48,
          "name": "C3",
          "ticks": 206055,
          "time": 268.30078125,
          "velocity": 0.08661417322834646
        },
        {
          "duration": 0,
          "durationTicks": 0,
          "midi": 75,
          "name": "D#5",
          "ticks": 206064,
          "time": 268.3125,
          "velocity": 0.14960629921259844
        },
        {
          "duration": 0,
          "durationTicks": 0,
          "midi": 57,
          "name": "A3",
          "ticks": 206145,
          "time": 268.41796875,
          "velocity": 0.2125984251968504
        },
        {
          "duration": 0,
          "durationTicks": 0,
          "midi": 87,
          "name": "D#6",
          "ticks": 206154,
          "time": 268.4296875,
          "velocity": 0.11023622047244094
        },
        {
          "duration": 0,
          "durationTicks": 0,
          "midi": 75,
          "name": "D#5",
          "ticks": 206243,
          "time": 268.5455729166667,
          "velocity": 0.14960629921259844
        },
        {
          "duration": 0.125,
          "durationTicks": 96,
          "midi": 60,
          "name": "C4",
          "ticks": 206243,
          "time": 268.5455729166667,
          "velocity": 0.18110236220472442
        },
        {
          "duration": 0,
          "durationTicks": 0,
          "midi": 44,
          "name": "G#2",
          "ticks": 206332,
          "time": 268.6614583333333,
          "velocity": 0.3937007874015748
        },
        {
          "duration": 0.125,
          "durationTicks": 96,
          "midi": 82,
          "name": "A#5",
          "ticks": 206342,
          "time": 268.6744791666667,
          "velocity": 0.11023622047244094
        },
        {
          "duration": 0.125,
          "durationTicks": 96,
          "midi": 63,
          "name": "D#4",
          "ticks": 206342,
          "time": 268.6744791666667,
          "velocity": 0.31496062992125984
        },
        {
          "duration": 0,
          "durationTicks": 0,
          "midi": 60,
          "name": "C4",
          "ticks": 206359,
          "time": 268.6966145833333,
          "velocity": 0.1732283464566929
        },
        {
          "duration": 0.12630208333337123,
          "durationTicks": 97,
          "midi": 43,
          "name": "G2",
          "ticks": 206368,
          "time": 268.7083333333333,
          "velocity": 0.3464566929133858
        },
        {
          "duration": 0,
          "durationTicks": 0,
          "midi": 31,
          "name": "G1",
          "ticks": 206378,
          "time": 268.7213541666667,
          "velocity": 0.2677165354330709
        },
        {
          "duration": 0.12630208333337123,
          "durationTicks": 97,
          "midi": 77,
          "name": "F5",
          "ticks": 206440,
          "time": 268.8020833333333,
          "velocity": 0.1732283464566929
        },
        {
          "duration": 0.12630208333337123,
          "durationTicks": 97,
          "midi": 65,
          "name": "F4",
          "ticks": 206449,
          "time": 268.8138020833333,
          "velocity": 0.2677165354330709
        },
        {
          "duration": 0.12630208333337123,
          "durationTicks": 97,
          "midi": 31,
          "name": "G1",
          "ticks": 206449,
          "time": 268.8138020833333,
          "velocity": 0.3543307086614173
        },
        {
          "duration": 0.12630208333337123,
          "durationTicks": 97,
          "midi": 50,
          "name": "D3",
          "ticks": 206458,
          "time": 268.8255208333333,
          "velocity": 0.07874015748031496
        },
        {
          "duration": 0,
          "durationTicks": 0,
          "midi": 84,
          "name": "C6",
          "ticks": 206485,
          "time": 268.8606770833333,
          "velocity": 0.05511811023622047
        },
        {
          "duration": 0,
          "durationTicks": 0,
          "midi": 87,
          "name": "D#6",
          "ticks": 206530,
          "time": 268.9192708333333,
          "velocity": 0.14960629921259844
        },
        {
          "duration": 0,
          "durationTicks": 0,
          "midi": 45,
          "name": "A2",
          "ticks": 206620,
          "time": 269.0364583333333,
          "velocity": 0.33858267716535434
        },
        {
          "duration": 0.12760416666668561,
          "durationTicks": 98,
          "midi": 60,
          "name": "C4",
          "ticks": 206620,
          "time": 269.0364583333333,
          "velocity": 0.28346456692913385
        },
        {
          "duration": 0,
          "durationTicks": 0,
          "midi": 64,
          "name": "E4",
          "ticks": 206629,
          "time": 269.0481770833333,
          "velocity": 0.1732283464566929
        },
        {
          "duration": 0,
          "durationTicks": 0,
          "midi": 87,
          "name": "D#6",
          "ticks": 206629,
          "time": 269.0481770833333,
          "velocity": 0.14173228346456693
        },
        {
          "duration": 0.12760416666668561,
          "durationTicks": 98,
          "midi": 44,
          "name": "G#2",
          "ticks": 206638,
          "time": 269.0598958333333,
          "velocity": 0.36220472440944884
        },
        {
          "duration": 0.12760416666662877,
          "durationTicks": 98,
          "midi": 63,
          "name": "D#4",
          "ticks": 206648,
          "time": 269.0729166666667,
          "velocity": 0.1732283464566929
        },
        {
          "duration": 0,
          "durationTicks": 0,
          "midi": 79,
          "name": "G5",
          "ticks": 206657,
          "time": 269.0846354166667,
          "velocity": 0.07086614173228346
        },
        {
          "duration": 0.2513020833333144,
          "durationTicks": 193,
          "midi": 58,
          "name": "A#3",
          "ticks": 206711,
          "time": 269.1549479166667,
          "velocity": 0.29133858267716534
        },
        {
          "duration": 0.2513020833333144,
          "durationTicks": 193,
          "midi": 77,
          "name": "F5",
          "ticks": 206730,
          "time": 269.1796875,
          "velocity": 0.07086614173228346
        },
        {
          "duration": 0,
          "durationTicks": 0,
          "midi": 65,
          "name": "F4",
          "ticks": 206739,
          "time": 269.19140625,
          "velocity": 0.18110236220472442
        },
        {
          "duration": 0,
          "durationTicks": 0,
          "midi": 31,
          "name": "G1",
          "ticks": 206748,
          "time": 269.203125,
          "velocity": 0.29133858267716534
        },
        {
          "duration": 0.125,
          "durationTicks": 96,
          "midi": 65,
          "name": "F4",
          "ticks": 206766,
          "time": 269.2265625,
          "velocity": 0.15748031496062992
        },
        {
          "duration": 0,
          "durationTicks": 0,
          "midi": 75,
          "name": "D#5",
          "ticks": 206820,
          "time": 269.296875,
          "velocity": 0.14173228346456693
        },
        {
          "duration": 0.125,
          "durationTicks": 96,
          "midi": 44,
          "name": "G#2",
          "ticks": 206820,
          "time": 269.296875,
          "velocity": 0.36220472440944884
        },
        {
          "duration": 0.125,
          "durationTicks": 96,
          "midi": 63,
          "name": "D#4",
          "ticks": 206820,
          "time": 269.296875,
          "velocity": 0.11811023622047244
        },
        {
          "duration": 0,
          "durationTicks": 0,
          "midi": 61,
          "name": "C#4",
          "ticks": 206909,
          "time": 269.4127604166667,
          "velocity": 0.29133858267716534
        },
        {
          "duration": 0.12630208333331439,
          "durationTicks": 97,
          "midi": 79,
          "name": "G5",
          "ticks": 206918,
          "time": 269.4244791666667,
          "velocity": 0.10236220472440945
        },
        {
          "duration": 0.12630208333331439,
          "durationTicks": 97,
          "midi": 72,
          "name": "C5",
          "ticks": 206918,
          "time": 269.4244791666667,
          "velocity": 0.1732283464566929
        },
        {
          "duration": 0.12630208333331439,
          "durationTicks": 97,
          "midi": 60,
          "name": "C4",
          "ticks": 206927,
          "time": 269.4361979166667,
          "velocity": 0.31496062992125984
        },
        {
          "duration": 0.12630208333331439,
          "durationTicks": 97,
          "midi": 32,
          "name": "G#1",
          "ticks": 206927,
          "time": 269.4361979166667,
          "velocity": 0.3464566929133858
        },
        {
          "duration": 0.12630208333331439,
          "durationTicks": 97,
          "midi": 51,
          "name": "D#3",
          "ticks": 206936,
          "time": 269.4479166666667,
          "velocity": 0.08661417322834646
        },
        {
          "duration": 0,
          "durationTicks": 0,
          "midi": 59,
          "name": "B3",
          "ticks": 207008,
          "time": 269.5416666666667,
          "velocity": 0.2047244094488189
        },
        {
          "duration": 0,
          "durationTicks": 0,
          "midi": 75,
          "name": "D#5",
          "ticks": 207008,
          "time": 269.5416666666667,
          "velocity": 0.14960629921259844
        },
        {
          "duration": 0.2513020833333144,
          "durationTicks": 193,
          "midi": 58,
          "name": "A#3",
          "ticks": 207026,
          "time": 269.5651041666667,
          "velocity": 0.1968503937007874
        },
        {
          "duration": 0,
          "durationTicks": 0,
          "midi": 29,
          "name": "F1",
          "ticks": 207098,
          "time": 269.6588541666667,
          "velocity": 0.33070866141732286
        },
        {
          "duration": 0.2513020833333144,
          "durationTicks": 193,
          "midi": 63,
          "name": "D#4",
          "ticks": 207107,
          "time": 269.6705729166667,
          "velocity": 0.2755905511811024
        },
        {
          "duration": 0,
          "durationTicks": 0,
          "midi": 52,
          "name": "E3",
          "ticks": 207117,
          "time": 269.68359375,
          "velocity": 0.11023622047244094
        },
        {
          "duration": 0.125,
          "durationTicks": 96,
          "midi": 82,
          "name": "A#5",
          "ticks": 207117,
          "time": 269.68359375,
          "velocity": 0.08661417322834646
        },
        {
          "duration": 0,
          "durationTicks": 0,
          "midi": 32,
          "name": "G#1",
          "ticks": 207134,
          "time": 269.7057291666667,
          "velocity": 0.31496062992125984
        },
        {
          "duration": 0,
          "durationTicks": 0,
          "midi": 33,
          "name": "A1",
          "ticks": 207152,
          "time": 269.7291666666667,
          "velocity": 0.31496062992125984
        },
        {
          "duration": 0.12630208333337123,
          "durationTicks": 97,
          "midi": 51,
          "name": "D#3",
          "ticks": 207169,
          "time": 269.7513020833333,
          "velocity": 0.08661417322834646
        },
        {
          "duration": 0.12630208333331439,
          "durationTicks": 97,
          "midi": 32,
          "name": "G#1",
          "ticks": 207179,
          "time": 269.7643229166667,
          "velocity": 0.3464566929133858
        },
        {
          "duration": 0,
          "durationTicks": 0,
          "midi": 60,
          "name": "C4",
          "ticks": 207224,
          "time": 269.8229166666667,
          "velocity": 0.1968503937007874
        },
        {
          "duration": 0,
          "durationTicks": 0,
          "midi": 61,
          "name": "C#4",
          "ticks": 207269,
          "time": 269.8815104166667,
          "velocity": 0.31496062992125984
        },
        {
          "duration": 0,
          "durationTicks": 0,
          "midi": 60,
          "name": "C4",
          "ticks": 207287,
          "time": 269.9049479166667,
          "velocity": 0.2755905511811024
        },
        {
          "duration": 0,
          "durationTicks": 0,
          "midi": 77,
          "name": "F5",
          "ticks": 207305,
          "time": 269.9283854166667,
          "velocity": 0.06299212598425197
        },
        {
          "duration": 0,
          "durationTicks": 0,
          "midi": 70,
          "name": "A#4",
          "ticks": 207305,
          "time": 269.9283854166667,
          "velocity": 0.1732283464566929
        },
        {
          "duration": 0,
          "durationTicks": 0,
          "midi": 58,
          "name": "A#3",
          "ticks": 207314,
          "time": 269.9401041666667,
          "velocity": 0.28346456692913385
        },
        {
          "duration": 0,
          "durationTicks": 0,
          "midi": 75,
          "name": "D#5",
          "ticks": 207386,
          "time": 270.0338541666667,
          "velocity": 0.14173228346456693
        },
        {
          "duration": 0.2513020833333144,
          "durationTicks": 193,
          "midi": 60,
          "name": "C4",
          "ticks": 207386,
          "time": 270.0338541666667,
          "velocity": 0.30708661417322836
        },
        {
          "duration": 0,
          "durationTicks": 0,
          "midi": 63,
          "name": "D#4",
          "ticks": 207403,
          "time": 270.0559895833333,
          "velocity": 0.18110236220472442
        },
        {
          "duration": 0.12630208333337123,
          "durationTicks": 97,
          "midi": 79,
          "name": "G5",
          "ticks": 207403,
          "time": 270.0559895833333,
          "velocity": 0.11023622047244094
        },
        {
          "duration": 0,
          "durationTicks": 0,
          "midi": 63,
          "name": "D#4",
          "ticks": 207457,
          "time": 270.1263020833333,
          "velocity": 0.18110236220472442
        },
        {
          "duration": 0,
          "durationTicks": 0,
          "midi": 55,
          "name": "G3",
          "ticks": 207493,
          "time": 270.1731770833333,
          "velocity": 0.07086614173228346
        },
        {
          "duration": 0,
          "durationTicks": 0,
          "midi": 35,
          "name": "B1",
          "ticks": 207512,
          "time": 270.1979166666667,
          "velocity": 0.4015748031496063
        },
        {
          "duration": 0.12630208333337123,
          "durationTicks": 97,
          "midi": 55,
          "name": "G3",
          "ticks": 207529,
          "time": 270.2200520833333,
          "velocity": 0.08661417322834646
        },
        {
          "duration": 0,
          "durationTicks": 0,
          "midi": 37,
          "name": "C#2",
          "ticks": 207539,
          "time": 270.2330729166667,
          "velocity": 0.36220472440944884
        },
        {
          "duration": 0.12630208333337123,
          "durationTicks": 97,
          "midi": 36,
          "name": "C2",
          "ticks": 207556,
          "time": 270.2552083333333,
          "velocity": 0.3779527559055118
        },
        {
          "duration": 0,
          "durationTicks": 0,
          "midi": 75,
          "name": "D#5",
          "ticks": 207583,
          "time": 270.2903645833333,
          "velocity": 0.12598425196850394
        },
        {
          "duration": 0,
          "durationTicks": 0,
          "midi": 79,
          "name": "G5",
          "ticks": 207593,
          "time": 270.3033854166667,
          "velocity": 0.06299212598425197
        },
        {
          "duration": 0.12630208333331439,
          "durationTicks": 97,
          "midi": 60,
          "name": "C4",
          "ticks": 207629,
          "time": 270.3502604166667,
          "velocity": 0.23622047244094488
        },
        {
          "duration": 0,
          "durationTicks": 0,
          "midi": 55,
          "name": "G3",
          "ticks": 207638,
          "time": 270.3619791666667,
          "velocity": 0.07874015748031496
        },
        {
          "duration": 0,
          "durationTicks": 0,
          "midi": 87,
          "name": "D#6",
          "ticks": 207673,
          "time": 270.4075520833333,
          "velocity": 0.13385826771653545
        },
        {
          "duration": 0,
          "durationTicks": 0,
          "midi": 68,
          "name": "G#4",
          "ticks": 207683,
          "time": 270.4205729166667,
          "velocity": 0.12598425196850394
        },
        {
          "duration": 0,
          "durationTicks": 0,
          "midi": 79,
          "name": "G5",
          "ticks": 207692,
          "time": 270.4322916666667,
          "velocity": 0.05511811023622047
        },
        {
          "duration": 0,
          "durationTicks": 0,
          "midi": 67,
          "name": "G4",
          "ticks": 207746,
          "time": 270.5026041666667,
          "velocity": 0.11023622047244094
        },
        {
          "duration": 0,
          "durationTicks": 0,
          "midi": 75,
          "name": "D#5",
          "ticks": 207773,
          "time": 270.5377604166667,
          "velocity": 0.14173228346456693
        },
        {
          "duration": 0,
          "durationTicks": 0,
          "midi": 67,
          "name": "G4",
          "ticks": 207835,
          "time": 270.6184895833333,
          "velocity": 0.05511811023622047
        },
        {
          "duration": 0,
          "durationTicks": 0,
          "midi": 64,
          "name": "E4",
          "ticks": 207862,
          "time": 270.6536458333333,
          "velocity": 0.2283464566929134
        },
        {
          "duration": 0,
          "durationTicks": 0,
          "midi": 46,
          "name": "A#2",
          "ticks": 207871,
          "time": 270.6653645833333,
          "velocity": 0.2755905511811024
        },
        {
          "duration": 0,
          "durationTicks": 0,
          "midi": 82,
          "name": "A#5",
          "ticks": 207871,
          "time": 270.6653645833333,
          "velocity": 0.08661417322834646
        },
        {
          "duration": 0.12630208333337123,
          "durationTicks": 97,
          "midi": 60,
          "name": "C4",
          "ticks": 207871,
          "time": 270.6653645833333,
          "velocity": 0.33858267716535434
        },
        {
          "duration": 0.12630208333337123,
          "durationTicks": 97,
          "midi": 79,
          "name": "G5",
          "ticks": 207871,
          "time": 270.6653645833333,
          "velocity": 0.11023622047244094
        },
        {
          "duration": 0,
          "durationTicks": 0,
          "midi": 34,
          "name": "A#1",
          "ticks": 207907,
          "time": 270.7122395833333,
          "velocity": 0.3779527559055118
        },
        {
          "duration": 0.12630208333337123,
          "durationTicks": 97,
          "midi": 53,
          "name": "F3",
          "ticks": 207907,
          "time": 270.7122395833333,
          "velocity": 0.10236220472440945
        },
        {
          "duration": 0,
          "durationTicks": 0,
          "midi": 34,
          "name": "A#1",
          "ticks": 207934,
          "time": 270.7473958333333,
          "velocity": 0.36220472440944884
        },
        {
          "duration": 0,
          "durationTicks": 0,
          "midi": 64,
          "name": "E4",
          "ticks": 207952,
          "time": 270.7708333333333,
          "velocity": 0.25984251968503935
        },
        {
          "duration": 0,
          "durationTicks": 0,
          "midi": 75,
          "name": "D#5",
          "ticks": 207961,
          "time": 270.7825520833333,
          "velocity": 0.16535433070866143
        },
        {
          "duration": 0.12630208333337123,
          "durationTicks": 97,
          "midi": 82,
          "name": "A#5",
          "ticks": 207961,
          "time": 270.7825520833333,
          "velocity": 0.07874015748031496
        },
        {
          "duration": 0.12630208333337123,
          "durationTicks": 97,
          "midi": 34,
          "name": "A#1",
          "ticks": 207961,
          "time": 270.7825520833333,
          "velocity": 0.3543307086614173
        },
        {
          "duration": 0.12630208333337123,
          "durationTicks": 97,
          "midi": 67,
          "name": "G4",
          "ticks": 207970,
          "time": 270.7942708333333,
          "velocity": 0.1732283464566929
        },
        {
          "duration": 0.12630208333337123,
          "durationTicks": 97,
          "midi": 63,
          "name": "D#4",
          "ticks": 207970,
          "time": 270.7942708333333,
          "velocity": 0.28346456692913385
        },
        {
          "duration": 0,
          "durationTicks": 0,
          "midi": 87,
          "name": "D#6",
          "ticks": 208051,
          "time": 270.8997395833333,
          "velocity": 0.1732283464566929
        },
        {
          "duration": 0,
          "durationTicks": 0,
          "midi": 68,
          "name": "G#4",
          "ticks": 208060,
          "time": 270.9114583333333,
          "velocity": 0.14173228346456693
        },
        {
          "duration": 0,
          "durationTicks": 0,
          "midi": 84,
          "name": "C6",
          "ticks": 208060,
          "time": 270.9114583333333,
          "velocity": 0.08661417322834646
        },
        {
          "duration": 0,
          "durationTicks": 0,
          "midi": 65,
          "name": "F4",
          "ticks": 208070,
          "time": 270.9244791666667,
          "velocity": 0.2755905511811024
        },
        {
          "duration": 0.25390625,
          "durationTicks": 195,
          "midi": 46,
          "name": "A#2",
          "ticks": 208070,
          "time": 270.9244791666667,
          "velocity": 0.3464566929133858
        },
        {
          "duration": 0,
          "durationTicks": 0,
          "midi": 65,
          "name": "F4",
          "ticks": 208123,
          "time": 270.9934895833333,
          "velocity": 0.06299212598425197
        },
        {
          "duration": 0.12760416666668561,
          "durationTicks": 98,
          "midi": 68,
          "name": "G#4",
          "ticks": 208141,
          "time": 271.0169270833333,
          "velocity": 0.25984251968503935
        },
        {
          "duration": 0.12760416666668561,
          "durationTicks": 98,
          "midi": 72,
          "name": "C5",
          "ticks": 208150,
          "time": 271.0286458333333,
          "velocity": 0.15748031496062992
        },
        {
          "duration": 0,
          "durationTicks": 0,
          "midi": 75,
          "name": "D#5",
          "ticks": 208160,
          "time": 271.0416666666667,
          "velocity": 0.14173228346456693
        },
        {
          "duration": 0.12760416666662877,
          "durationTicks": 98,
          "midi": 60,
          "name": "C4",
          "ticks": 208160,
          "time": 271.0416666666667,
          "velocity": 0.15748031496062992
        },
        {
          "duration": 0,
          "durationTicks": 0,
          "midi": 65,
          "name": "F4",
          "ticks": 208169,
          "time": 271.0533854166667,
          "velocity": 0.09448818897637795
        },
        {
          "duration": 0,
          "durationTicks": 0,
          "midi": 65,
          "name": "F4",
          "ticks": 208205,
          "time": 271.1002604166667,
          "velocity": 0.08661417322834646
        },
        {
          "duration": 0.12630208333331439,
          "durationTicks": 97,
          "midi": 68,
          "name": "G#4",
          "ticks": 208241,
          "time": 271.1471354166667,
          "velocity": 0.28346456692913385
        },
        {
          "duration": 0.12630208333331439,
          "durationTicks": 97,
          "midi": 73,
          "name": "C#5",
          "ticks": 208251,
          "time": 271.16015625,
          "velocity": 0.1732283464566929
        },
        {
          "duration": 0.12630208333331439,
          "durationTicks": 97,
          "midi": 63,
          "name": "D#4",
          "ticks": 208251,
          "time": 271.16015625,
          "velocity": 0.23622047244094488
        },
        {
          "duration": 0,
          "durationTicks": 0,
          "midi": 29,
          "name": "F1",
          "ticks": 208260,
          "time": 271.171875,
          "velocity": 0.4094488188976378
        },
        {
          "duration": 0,
          "durationTicks": 0,
          "midi": 48,
          "name": "C3",
          "ticks": 208260,
          "time": 271.171875,
          "velocity": 0.2125984251968504
        },
        {
          "duration": 0,
          "durationTicks": 0,
          "midi": 30,
          "name": "F#1",
          "ticks": 208269,
          "time": 271.18359375,
          "velocity": 0.4251968503937008
        },
        {
          "duration": 0,
          "durationTicks": 0,
          "midi": 48,
          "name": "C3",
          "ticks": 208296,
          "time": 271.21875,
          "velocity": 0.13385826771653545
        },
        {
          "duration": 0,
          "durationTicks": 0,
          "midi": 29,
          "name": "F1",
          "ticks": 208305,
          "time": 271.23046875,
          "velocity": 0.3779527559055118
        },
        {
          "duration": 0.125,
          "durationTicks": 96,
          "midi": 70,
          "name": "A#4",
          "ticks": 208323,
          "time": 271.25390625,
          "velocity": 0.2755905511811024
        },
        {
          "duration": 0.125,
          "durationTicks": 96,
          "midi": 75,
          "name": "D#5",
          "ticks": 208323,
          "time": 271.25390625,
          "velocity": 0.25984251968503935
        },
        {
          "duration": 0.125,
          "durationTicks": 96,
          "midi": 65,
          "name": "F4",
          "ticks": 208341,
          "time": 271.27734375,
          "velocity": 0.15748031496062992
        },
        {
          "duration": 0.125,
          "durationTicks": 96,
          "midi": 89,
          "name": "F6",
          "ticks": 208341,
          "time": 271.27734375,
          "velocity": 0.07086614173228346
        },
        {
          "duration": 0,
          "durationTicks": 0,
          "midi": 73,
          "name": "C#5",
          "ticks": 208412,
          "time": 271.3697916666667,
          "velocity": 0.13385826771653545
        },
        {
          "duration": 0.125,
          "durationTicks": 96,
          "midi": 68,
          "name": "G#4",
          "ticks": 208421,
          "time": 271.3815104166667,
          "velocity": 0.25984251968503935
        },
        {
          "duration": 0.125,
          "durationTicks": 96,
          "midi": 48,
          "name": "C3",
          "ticks": 208448,
          "time": 271.4166666666667,
          "velocity": 0.08661417322834646
        },
        {
          "duration": 0.125,
          "durationTicks": 96,
          "midi": 29,
          "name": "F1",
          "ticks": 208448,
          "time": 271.4166666666667,
          "velocity": 0.36220472440944884
        },
        {
          "duration": 0.125,
          "durationTicks": 96,
          "midi": 63,
          "name": "D#4",
          "ticks": 208520,
          "time": 271.5104166666667,
          "velocity": 0.05511811023622047
        },
        {
          "duration": 0,
          "durationTicks": 0,
          "midi": 75,
          "name": "D#5",
          "ticks": 208529,
          "time": 271.5221354166667,
          "velocity": 0.15748031496062992
        },
        {
          "duration": 0.125,
          "durationTicks": 96,
          "midi": 68,
          "name": "G#4",
          "ticks": 208529,
          "time": 271.5221354166667,
          "velocity": 0.18110236220472442
        },
        {
          "duration": 0.12630208333337123,
          "durationTicks": 97,
          "midi": 41,
          "name": "F2",
          "ticks": 208618,
          "time": 271.6380208333333,
          "velocity": 0.4015748031496063
        },
        {
          "duration": 0.12630208333337123,
          "durationTicks": 97,
          "midi": 68,
          "name": "G#4",
          "ticks": 208618,
          "time": 271.6380208333333,
          "velocity": 0.25984251968503935
        },
        {
          "duration": 0.12630208333337123,
          "durationTicks": 97,
          "midi": 87,
          "name": "D#6",
          "ticks": 208627,
          "time": 271.6497395833333,
          "velocity": 0.1732283464566929
        },
        {
          "duration": 0,
          "durationTicks": 0,
          "midi": 70,
          "name": "A#4",
          "ticks": 208637,
          "time": 271.6627604166667,
          "velocity": 0.1732283464566929
        },
        {
          "duration": 0.12630208333331439,
          "durationTicks": 97,
          "midi": 72,
          "name": "C5",
          "ticks": 208637,
          "time": 271.6627604166667,
          "velocity": 0.1732283464566929
        },
        {
          "duration": 0.25,
          "durationTicks": 192,
          "midi": 60,
          "name": "C4",
          "ticks": 208637,
          "time": 271.6627604166667,
          "velocity": 0.12598425196850394
        },
        {
          "duration": 0.12630208333337123,
          "durationTicks": 97,
          "midi": 41,
          "name": "F2",
          "ticks": 208681,
          "time": 271.7200520833333,
          "velocity": 0.3700787401574803
        },
        {
          "duration": 0,
          "durationTicks": 0,
          "midi": 69,
          "name": "A4",
          "ticks": 208717,
          "time": 271.7669270833333,
          "velocity": 0.1968503937007874
        },
        {
          "duration": 0,
          "durationTicks": 0,
          "midi": 75,
          "name": "D#5",
          "ticks": 208727,
          "time": 271.7799479166667,
          "velocity": 0.13385826771653545
        },
        {
          "duration": 0,
          "durationTicks": 0,
          "midi": 66,
          "name": "F#4",
          "ticks": 208816,
          "time": 271.8958333333333,
          "velocity": 0.2440944881889764
        },
        {
          "duration": 0.125,
          "durationTicks": 96,
          "midi": 70,
          "name": "A#4",
          "ticks": 208816,
          "time": 271.8958333333333,
          "velocity": 0.1732283464566929
        },
        {
          "duration": 0.125,
          "durationTicks": 96,
          "midi": 46,
          "name": "A#2",
          "ticks": 208833,
          "time": 271.91796875,
          "velocity": 0.07086614173228346
        },
        {
          "duration": 0.125,
          "durationTicks": 96,
          "midi": 65,
          "name": "F4",
          "ticks": 208833,
          "time": 271.91796875,
          "velocity": 0.2755905511811024
        },
        {
          "duration": 0.125,
          "durationTicks": 96,
          "midi": 27,
          "name": "D#1",
          "ticks": 208843,
          "time": 271.9309895833333,
          "velocity": 0.36220472440944884
        },
        {
          "duration": 0.125,
          "durationTicks": 96,
          "midi": 84,
          "name": "C6",
          "ticks": 208860,
          "time": 271.953125,
          "velocity": 0.07086614173228346
        },
        {
          "duration": 0.125,
          "durationTicks": 96,
          "midi": 68,
          "name": "G#4",
          "ticks": 208905,
          "time": 272.01171875,
          "velocity": 0.30708661417322836
        },
        {
          "duration": 0,
          "durationTicks": 0,
          "midi": 75,
          "name": "D#5",
          "ticks": 208914,
          "time": 272.0234375,
          "velocity": 0.08661417322834646
        },
        {
          "duration": 0.125,
          "durationTicks": 96,
          "midi": 60,
          "name": "C4",
          "ticks": 208914,
          "time": 272.0234375,
          "velocity": 0.06299212598425197
        },
        {
          "duration": 0.12630208333331439,
          "durationTicks": 97,
          "midi": 72,
          "name": "C5",
          "ticks": 208932,
          "time": 272.046875,
          "velocity": 0.14173228346456693
        },
        {
          "duration": 0,
          "durationTicks": 0,
          "midi": 28,
          "name": "E1",
          "ticks": 209003,
          "time": 272.1393229166667,
          "velocity": 0.3779527559055118
        },
        {
          "duration": 0,
          "durationTicks": 0,
          "midi": 45,
          "name": "A2",
          "ticks": 209003,
          "time": 272.1393229166667,
          "velocity": 0.25984251968503935
        },
        {
          "duration": 0,
          "durationTicks": 0,
          "midi": 29,
          "name": "F1",
          "ticks": 209022,
          "time": 272.1640625,
          "velocity": 0.41732283464566927
        },
        {
          "duration": 0,
          "durationTicks": 0,
          "midi": 63,
          "name": "D#4",
          "ticks": 209022,
          "time": 272.1640625,
          "velocity": 0.1732283464566929
        },
        {
          "duration": 0,
          "durationTicks": 0,
          "midi": 30,
          "name": "F#1",
          "ticks": 209031,
          "time": 272.17578125,
          "velocity": 0.4251968503937008
        },
        {
          "duration": 0.2526041666666856,
          "durationTicks": 194,
          "midi": 60,
          "name": "C4",
          "ticks": 209031,
          "time": 272.17578125,
          "velocity": 0.10236220472440945
        },
        {
          "duration": 0.125,
          "durationTicks": 96,
          "midi": 68,
          "name": "G#4",
          "ticks": 209040,
          "time": 272.1875,
          "velocity": 0.1732283464566929
        },
        {
          "duration": 0,
          "durationTicks": 0,
          "midi": 48,
          "name": "C3",
          "ticks": 209058,
          "time": 272.2109375,
          "velocity": 0.12598425196850394
        },
        {
          "duration": 0.125,
          "durationTicks": 96,
          "midi": 29,
          "name": "F1",
          "ticks": 209067,
          "time": 272.22265625,
          "velocity": 0.3779527559055118
        },
        {
          "duration": 0.125,
          "durationTicks": 96,
          "midi": 65,
          "name": "F4",
          "ticks": 209094,
          "time": 272.2578125,
          "velocity": 0.33070866141732286
        },
        {
          "duration": 0,
          "durationTicks": 0,
          "midi": 75,
          "name": "D#5",
          "ticks": 209103,
          "time": 272.26953125,
          "velocity": 0.12598425196850394
        },
        {
          "duration": 0.125,
          "durationTicks": 96,
          "midi": 70,
          "name": "A#4",
          "ticks": 209103,
          "time": 272.26953125,
          "velocity": 0.1732283464566929
        },
        {
          "duration": 0.125,
          "durationTicks": 96,
          "midi": 84,
          "name": "C6",
          "ticks": 209103,
          "time": 272.26953125,
          "velocity": 0.10236220472440945
        },
        {
          "duration": 0.12630208333331439,
          "durationTicks": 97,
          "midi": 48,
          "name": "C3",
          "ticks": 209121,
          "time": 272.29296875,
          "velocity": 0.08661417322834646
        },
        {
          "duration": 0.12760416666662877,
          "durationTicks": 98,
          "midi": 87,
          "name": "D#6",
          "ticks": 209192,
          "time": 272.3854166666667,
          "velocity": 0.15748031496062992
        },
        {
          "duration": 0,
          "durationTicks": 0,
          "midi": 80,
          "name": "G#5",
          "ticks": 209211,
          "time": 272.41015625,
          "velocity": 0.07874015748031496
        },
        {
          "duration": 0.2526041666666856,
          "durationTicks": 194,
          "midi": 68,
          "name": "G#4",
          "ticks": 209220,
          "time": 272.421875,
          "velocity": 0.2125984251968504
        },
        {
          "duration": 0.12630208333337123,
          "durationTicks": 97,
          "midi": 63,
          "name": "D#4",
          "ticks": 209230,
          "time": 272.4348958333333,
          "velocity": 0.2283464566929134
        },
        {
          "duration": 0.12630208333337123,
          "durationTicks": 97,
          "midi": 82,
          "name": "A#5",
          "ticks": 209239,
          "time": 272.4466145833333,
          "velocity": 0.05511811023622047
        },
        {
          "duration": 0.125,
          "durationTicks": 96,
          "midi": 60,
          "name": "C4",
          "ticks": 209302,
          "time": 272.5286458333333,
          "velocity": 0.29133858267716534
        },
        {
          "duration": 0.125,
          "durationTicks": 96,
          "midi": 65,
          "name": "F4",
          "ticks": 209311,
          "time": 272.5403645833333,
          "velocity": 0.25984251968503935
        },
        {
          "duration": 0.125,
          "durationTicks": 96,
          "midi": 79,
          "name": "G5",
          "ticks": 209311,
          "time": 272.5403645833333,
          "velocity": 0.11023622047244094
        },
        {
          "duration": 0.125,
          "durationTicks": 96,
          "midi": 84,
          "name": "C6",
          "ticks": 209311,
          "time": 272.5403645833333,
          "velocity": 0.08661417322834646
        },
        {
          "duration": 0,
          "durationTicks": 0,
          "midi": 44,
          "name": "G#2",
          "ticks": 209383,
          "time": 272.6341145833333,
          "velocity": 0.3779527559055118
        },
        {
          "duration": 0,
          "durationTicks": 0,
          "midi": 66,
          "name": "F#4",
          "ticks": 209400,
          "time": 272.65625,
          "velocity": 0.1889763779527559
        },
        {
          "duration": 0,
          "durationTicks": 0,
          "midi": 77,
          "name": "F5",
          "ticks": 209410,
          "time": 272.6692708333333,
          "velocity": 0.08661417322834646
        },
        {
          "duration": 0.12760416666668561,
          "durationTicks": 98,
          "midi": 43,
          "name": "G2",
          "ticks": 209410,
          "time": 272.6692708333333,
          "velocity": 0.3543307086614173
        },
        {
          "duration": 0,
          "durationTicks": 0,
          "midi": 63,
          "name": "D#4",
          "ticks": 209419,
          "time": 272.6809895833333,
          "velocity": 0.2204724409448819
        },
        {
          "duration": 0,
          "durationTicks": 0,
          "midi": 58,
          "name": "A#3",
          "ticks": 209419,
          "time": 272.6809895833333,
          "velocity": 0.28346456692913385
        },
        {
          "duration": 0,
          "durationTicks": 0,
          "midi": 63,
          "name": "D#4",
          "ticks": 209446,
          "time": 272.7161458333333,
          "velocity": 0.18110236220472442
        },
        {
          "duration": 0,
          "durationTicks": 0,
          "midi": 30,
          "name": "F#1",
          "ticks": 209446,
          "time": 272.7161458333333,
          "velocity": 0.2047244094488189
        },
        {
          "duration": 0,
          "durationTicks": 0,
          "midi": 60,
          "name": "C4",
          "ticks": 209455,
          "time": 272.7278645833333,
          "velocity": 0.29133858267716534
        },
        {
          "duration": 0,
          "durationTicks": 0,
          "midi": 84,
          "name": "C6",
          "ticks": 209455,
          "time": 272.7278645833333,
          "velocity": 0.07086614173228346
        },
        {
          "duration": 0,
          "durationTicks": 0,
          "midi": 30,
          "name": "F#1",
          "ticks": 209482,
          "time": 272.7630208333333,
          "velocity": 0.3543307086614173
        },
        {
          "duration": 0.12630208333337123,
          "durationTicks": 97,
          "midi": 75,
          "name": "D#5",
          "ticks": 209482,
          "time": 272.7630208333333,
          "velocity": 0.14173228346456693
        },
        {
          "duration": 0,
          "durationTicks": 0,
          "midi": 64,
          "name": "E4",
          "ticks": 209491,
          "time": 272.7747395833333,
          "velocity": 0.2755905511811024
        },
        {
          "duration": 0.125,
          "durationTicks": 96,
          "midi": 31,
          "name": "G1",
          "ticks": 209501,
          "time": 272.7877604166667,
          "velocity": 0.3543307086614173
        },
        {
          "duration": 0,
          "durationTicks": 0,
          "midi": 82,
          "name": "A#5",
          "ticks": 209510,
          "time": 272.7994791666667,
          "velocity": 0.08661417322834646
        },
        {
          "duration": 0.125,
          "durationTicks": 96,
          "midi": 50,
          "name": "D3",
          "ticks": 209510,
          "time": 272.7994791666667,
          "velocity": 0.08661417322834646
        },
        {
          "duration": 0.125,
          "durationTicks": 96,
          "midi": 63,
          "name": "D#4",
          "ticks": 209510,
          "time": 272.7994791666667,
          "velocity": 0.29133858267716534
        },
        {
          "duration": 0,
          "durationTicks": 0,
          "midi": 67,
          "name": "G4",
          "ticks": 209519,
          "time": 272.8111979166667,
          "velocity": 0.1968503937007874
        },
        {
          "duration": 0.12630208333337123,
          "durationTicks": 97,
          "midi": 87,
          "name": "D#6",
          "ticks": 209581,
          "time": 272.8919270833333,
          "velocity": 0.09448818897637795
        },
        {
          "duration": 0,
          "durationTicks": 0,
          "midi": 68,
          "name": "G#4",
          "ticks": 209599,
          "time": 272.9153645833333,
          "velocity": 0.12598425196850394
        },
        {
          "duration": 0,
          "durationTicks": 0,
          "midi": 84,
          "name": "C6",
          "ticks": 209599,
          "time": 272.9153645833333,
          "velocity": 0.05511811023622047
        },
        {
          "duration": 0,
          "durationTicks": 0,
          "midi": 65,
          "name": "F4",
          "ticks": 209599,
          "time": 272.9153645833333,
          "velocity": 0.25196850393700787
        },
        {
          "duration": 0.12760416666668561,
          "durationTicks": 98,
          "midi": 60,
          "name": "C4",
          "ticks": 209599,
          "time": 272.9153645833333,
          "velocity": 0.14173228346456693
        },
        {
          "duration": 0,
          "durationTicks": 0,
          "midi": 68,
          "name": "G#4",
          "ticks": 209635,
          "time": 272.9622395833333,
          "velocity": 0.08661417322834646
        },
        {
          "duration": 0.12760416666668561,
          "durationTicks": 98,
          "midi": 67,
          "name": "G4",
          "ticks": 209671,
          "time": 273.0091145833333,
          "velocity": 0.2677165354330709
        },
        {
          "duration": 0.12760416666668561,
          "durationTicks": 98,
          "midi": 87,
          "name": "D#6",
          "ticks": 209671,
          "time": 273.0091145833333,
          "velocity": 0.14960629921259844
        },
        {
          "duration": 0.12760416666668561,
          "durationTicks": 98,
          "midi": 44,
          "name": "G#2",
          "ticks": 209671,
          "time": 273.0091145833333,
          "velocity": 0.36220472440944884
        },
        {
          "duration": 0,
          "durationTicks": 0,
          "midi": 70,
          "name": "A#4",
          "ticks": 209681,
          "time": 273.0221354166667,
          "velocity": 0.16535433070866143
        },
        {
          "duration": 0,
          "durationTicks": 0,
          "midi": 59,
          "name": "B3",
          "ticks": 209690,
          "time": 273.0338541666667,
          "velocity": 0.18110236220472442
        },
        {
          "duration": 0,
          "durationTicks": 0,
          "midi": 72,
          "name": "C5",
          "ticks": 209699,
          "time": 273.0455729166667,
          "velocity": 0.05511811023622047
        },
        {
          "duration": 0,
          "durationTicks": 0,
          "midi": 58,
          "name": "A#3",
          "ticks": 209709,
          "time": 273.05859375,
          "velocity": 0.1732283464566929
        },
        {
          "duration": 0,
          "durationTicks": 0,
          "midi": 60,
          "name": "C4",
          "ticks": 209745,
          "time": 273.10546875,
          "velocity": 0.16535433070866143
        },
        {
          "duration": 0.125,
          "durationTicks": 96,
          "midi": 68,
          "name": "G#4",
          "ticks": 209772,
          "time": 273.140625,
          "velocity": 0.25196850393700787
        },
        {
          "duration": 0.125,
          "durationTicks": 96,
          "midi": 87,
          "name": "D#6",
          "ticks": 209772,
          "time": 273.140625,
          "velocity": 0.09448818897637795
        },
        {
          "duration": 0,
          "durationTicks": 0,
          "midi": 64,
          "name": "E4",
          "ticks": 209781,
          "time": 273.15234375,
          "velocity": 0.1732283464566929
        },
        {
          "duration": 0.125,
          "durationTicks": 96,
          "midi": 72,
          "name": "C5",
          "ticks": 209781,
          "time": 273.15234375,
          "velocity": 0.16535433070866143
        },
        {
          "duration": 0,
          "durationTicks": 0,
          "midi": 31,
          "name": "G1",
          "ticks": 209790,
          "time": 273.1640625,
          "velocity": 0.29133858267716534
        },
        {
          "duration": 0.125,
          "durationTicks": 96,
          "midi": 82,
          "name": "A#5",
          "ticks": 209790,
          "time": 273.1640625,
          "velocity": 0.08661417322834646
        },
        {
          "duration": 0.125,
          "durationTicks": 96,
          "midi": 63,
          "name": "D#4",
          "ticks": 209808,
          "time": 273.1875,
          "velocity": 0.2440944881889764
        },
        {
          "duration": 0.12630208333331439,
          "durationTicks": 97,
          "midi": 44,
          "name": "G#2",
          "ticks": 209870,
          "time": 273.2682291666667,
          "velocity": 0.36220472440944884
        },
        {
          "duration": 0.12630208333331439,
          "durationTicks": 97,
          "midi": 68,
          "name": "G#4",
          "ticks": 209879,
          "time": 273.2799479166667,
          "velocity": 0.12598425196850394
        },
        {
          "duration": 0,
          "durationTicks": 0,
          "midi": 65,
          "name": "F4",
          "ticks": 209889,
          "time": 273.29296875,
          "velocity": 0.2204724409448819
        },
        {
          "duration": 0.12630208333331439,
          "durationTicks": 97,
          "midi": 63,
          "name": "D#4",
          "ticks": 209916,
          "time": 273.328125,
          "velocity": 0.15748031496062992
        },
        {
          "duration": 0.12630208333331439,
          "durationTicks": 97,
          "midi": 67,
          "name": "G4",
          "ticks": 209960,
          "time": 273.3854166666667,
          "velocity": 0.31496062992125984
        },
        {
          "duration": 0.12630208333331439,
          "durationTicks": 97,
          "midi": 86,
          "name": "D6",
          "ticks": 209960,
          "time": 273.3854166666667,
          "velocity": 0.10236220472440945
        },
        {
          "duration": 0.12630208333331439,
          "durationTicks": 97,
          "midi": 70,
          "name": "A#4",
          "ticks": 209969,
          "time": 273.3971354166667,
          "velocity": 0.1732283464566929
        },
        {
          "duration": 0.12630208333331439,
          "durationTicks": 97,
          "midi": 32,
          "name": "G#1",
          "ticks": 209979,
          "time": 273.41015625,
          "velocity": 0.3464566929133858
        },
        {
          "duration": 0.12630208333331439,
          "durationTicks": 97,
          "midi": 51,
          "name": "D#3",
          "ticks": 209979,
          "time": 273.41015625,
          "velocity": 0.08661417322834646
        },
        {
          "duration": 0,
          "durationTicks": 0,
          "midi": 75,
          "name": "D#5",
          "ticks": 210050,
          "time": 273.5026041666667,
          "velocity": 0.18110236220472442
        },
        {
          "duration": 0.12630208333331439,
          "durationTicks": 97,
          "midi": 68,
          "name": "G#4",
          "ticks": 210059,
          "time": 273.5143229166667,
          "velocity": 0.15748031496062992
        },
        {
          "duration": 0.3802083333333144,
          "durationTicks": 292,
          "midi": 60,
          "name": "C4",
          "ticks": 210078,
          "time": 273.5390625,
          "velocity": 0.15748031496062992
        },
        {
          "duration": 0,
          "durationTicks": 0,
          "midi": 82,
          "name": "A#5",
          "ticks": 210105,
          "time": 273.57421875,
          "velocity": 0.05511811023622047
        },
        {
          "duration": 0,
          "durationTicks": 0,
          "midi": 45,
          "name": "A2",
          "ticks": 210149,
          "time": 273.6315104166667,
          "velocity": 0.2440944881889764
        },
        {
          "duration": 0.12630208333331439,
          "durationTicks": 97,
          "midi": 87,
          "name": "D#6",
          "ticks": 210149,
          "time": 273.6315104166667,
          "velocity": 0.1732283464566929
        },
        {
          "duration": 0.25390625,
          "durationTicks": 195,
          "midi": 65,
          "name": "F4",
          "ticks": 210149,
          "time": 273.6315104166667,
          "velocity": 0.28346456692913385
        },
        {
          "duration": 0.25390625,
          "durationTicks": 195,
          "midi": 68,
          "name": "G#4",
          "ticks": 210168,
          "time": 273.65625,
          "velocity": 0.2677165354330709
        },
        {
          "duration": 0,
          "durationTicks": 0,
          "midi": 32,
          "name": "G#1",
          "ticks": 210177,
          "time": 273.66796875,
          "velocity": 0.3464566929133858
        },
        {
          "duration": 0.125,
          "durationTicks": 96,
          "midi": 84,
          "name": "C6",
          "ticks": 210187,
          "time": 273.6809895833333,
          "velocity": 0.05511811023622047
        },
        {
          "duration": 0,
          "durationTicks": 0,
          "midi": 33,
          "name": "A1",
          "ticks": 210204,
          "time": 273.703125,
          "velocity": 0.31496062992125984
        },
        {
          "duration": 0.12630208333331439,
          "durationTicks": 97,
          "midi": 51,
          "name": "D#3",
          "ticks": 210231,
          "time": 273.73828125,
          "velocity": 0.07874015748031496
        },
        {
          "duration": 0.12630208333331439,
          "durationTicks": 97,
          "midi": 32,
          "name": "G#1",
          "ticks": 210231,
          "time": 273.73828125,
          "velocity": 0.3464566929133858
        },
        {
          "duration": 0,
          "durationTicks": 0,
          "midi": 75,
          "name": "D#5",
          "ticks": 210258,
          "time": 273.7734375,
          "velocity": 0.07874015748031496
        },
        {
          "duration": 0,
          "durationTicks": 0,
          "midi": 84,
          "name": "C6",
          "ticks": 210294,
          "time": 273.8203125,
          "velocity": 0.11023622047244094
        },
        {
          "duration": 0.12630208333337123,
          "durationTicks": 97,
          "midi": 75,
          "name": "D#5",
          "ticks": 210340,
          "time": 273.8802083333333,
          "velocity": 0.06299212598425197
        },
        {
          "duration": 0.12630208333337123,
          "durationTicks": 97,
          "midi": 53,
          "name": "F3",
          "ticks": 210340,
          "time": 273.8802083333333,
          "velocity": 0.11023622047244094
        },
        {
          "duration": 0,
          "durationTicks": 0,
          "midi": 82,
          "name": "A#5",
          "ticks": 210349,
          "time": 273.8919270833333,
          "velocity": 0.12598425196850394
        },
        {
          "duration": 0,
          "durationTicks": 0,
          "midi": 91,
          "name": "G6",
          "ticks": 210349,
          "time": 273.8919270833333,
          "velocity": 0.05511811023622047
        },
        {
          "duration": 0.12630208333337123,
          "durationTicks": 97,
          "midi": 34,
          "name": "A#1",
          "ticks": 210349,
          "time": 273.8919270833333,
          "velocity": 0.36220472440944884
        },
        {
          "duration": 0,
          "durationTicks": 0,
          "midi": 63,
          "name": "D#4",
          "ticks": 210358,
          "time": 273.9036458333333,
          "velocity": 0.31496062992125984
        },
        {
          "duration": 0,
          "durationTicks": 0,
          "midi": 87,
          "name": "D#6",
          "ticks": 210377,
          "time": 273.9283854166667,
          "velocity": 0.07086614173228346
        },
        {
          "duration": 0,
          "durationTicks": 0,
          "midi": 60,
          "name": "C4",
          "ticks": 210395,
          "time": 273.9518229166667,
          "velocity": 0.07874015748031496
        },
        {
          "duration": 0,
          "durationTicks": 0,
          "midi": 63,
          "name": "D#4",
          "ticks": 210412,
          "time": 273.9739583333333,
          "velocity": 0.16535433070866143
        },
        {
          "duration": 0.08333333333337123,
          "durationTicks": 64,
          "midi": 75,
          "name": "D#5",
          "ticks": 210430,
          "time": 273.9973958333333,
          "velocity": 0.2283464566929134
        },
        {
          "duration": 0,
          "durationTicks": 0,
          "midi": 85,
          "name": "C#6",
          "ticks": 210439,
          "time": 274.0091145833333,
          "velocity": 0.12598425196850394
        },
        {
          "duration": 0,
          "durationTicks": 0,
          "midi": 90,
          "name": "F#6",
          "ticks": 210439,
          "time": 274.0091145833333,
          "velocity": 0.07086614173228346
        },
        {
          "duration": 0,
          "durationTicks": 0,
          "midi": 77,
          "name": "F5",
          "ticks": 210439,
          "time": 274.0091145833333,
          "velocity": 0.07086614173228346
        },
        {
          "duration": 0,
          "durationTicks": 0,
          "midi": 86,
          "name": "D6",
          "ticks": 210439,
          "time": 274.0091145833333,
          "velocity": 0.08661417322834646
        },
        {
          "duration": 0,
          "durationTicks": 0,
          "midi": 80,
          "name": "G#5",
          "ticks": 210439,
          "time": 274.0091145833333,
          "velocity": 0.1732283464566929
        },
        {
          "duration": 0.12760416666668561,
          "durationTicks": 98,
          "midi": 91,
          "name": "G6",
          "ticks": 210439,
          "time": 274.0091145833333,
          "velocity": 0.14960629921259844
        },
        {
          "duration": 0,
          "durationTicks": 0,
          "midi": 68,
          "name": "G#4",
          "ticks": 210448,
          "time": 274.0208333333333,
          "velocity": 0.1889763779527559
        },
        {
          "duration": 0,
          "durationTicks": 0,
          "midi": 72,
          "name": "C5",
          "ticks": 210448,
          "time": 274.0208333333333,
          "velocity": 0.2047244094488189
        },
        {
          "duration": 0.25520833333337123,
          "durationTicks": 196,
          "midi": 39,
          "name": "D#2",
          "ticks": 210448,
          "time": 274.0208333333333,
          "velocity": 0.3779527559055118
        },
        {
          "duration": 0.25520833333337123,
          "durationTicks": 196,
          "midi": 65,
          "name": "F4",
          "ticks": 210448,
          "time": 274.0208333333333,
          "velocity": 0.3228346456692913
        },
        {
          "duration": 0,
          "durationTicks": 0,
          "midi": 57,
          "name": "A3",
          "ticks": 210458,
          "time": 274.0338541666667,
          "velocity": 0.31496062992125984
        },
        {
          "duration": 0,
          "durationTicks": 0,
          "midi": 82,
          "name": "A#5",
          "ticks": 210467,
          "time": 274.0455729166667,
          "velocity": 0.1889763779527559
        },
        {
          "duration": 0.12760416666662877,
          "durationTicks": 98,
          "midi": 84,
          "name": "C6",
          "ticks": 210467,
          "time": 274.0455729166667,
          "velocity": 0.16535433070866143
        },
        {
          "duration": 0,
          "durationTicks": 0,
          "midi": 71,
          "name": "B4",
          "ticks": 210476,
          "time": 274.0572916666667,
          "velocity": 0.07086614173228346
        },
        {
          "duration": 0.12760416666662877,
          "durationTicks": 98,
          "midi": 68,
          "name": "G#4",
          "ticks": 210476,
          "time": 274.0572916666667,
          "velocity": 0.1968503937007874
        },
        {
          "duration": 0.12760416666662877,
          "durationTicks": 98,
          "midi": 93,
          "name": "A6",
          "ticks": 210476,
          "time": 274.0572916666667,
          "velocity": 0.09448818897637795
        },
        {
          "duration": 0.044270833333314386,
          "durationTicks": 34,
          "midi": 75,
          "name": "D#5",
          "ticks": 210494,
          "time": 274.0807291666667,
          "velocity": 0.1968503937007874
        },
        {
          "duration": 0,
          "durationTicks": 0,
          "midi": 82,
          "name": "A#5",
          "ticks": 210511,
          "time": 274.1028645833333,
          "velocity": 0.1968503937007874
        },
        {
          "duration": 0,
          "durationTicks": 0,
          "midi": 58,
          "name": "A#3",
          "ticks": 210521,
          "time": 274.1158854166667,
          "velocity": 0.14173228346456693
        },
        {
          "duration": 0,
          "durationTicks": 0,
          "midi": 75,
          "name": "D#5",
          "ticks": 210539,
          "time": 274.1393229166667,
          "velocity": 0.2204724409448819
        },
        {
          "duration": 0,
          "durationTicks": 0,
          "midi": 79,
          "name": "G5",
          "ticks": 210549,
          "time": 274.15234375,
          "velocity": 0.08661417322834646
        },
        {
          "duration": 0,
          "durationTicks": 0,
          "midi": 73,
          "name": "C#5",
          "ticks": 210558,
          "time": 274.1640625,
          "velocity": 0.2283464566929134
        },
        {
          "duration": 0.12760416666668561,
          "durationTicks": 98,
          "midi": 58,
          "name": "A#3",
          "ticks": 210558,
          "time": 274.1640625,
          "velocity": 0.10236220472440945
        },
        {
          "duration": 0,
          "durationTicks": 0,
          "midi": 72,
          "name": "C5",
          "ticks": 210577,
          "time": 274.1888020833333,
          "velocity": 0.2204724409448819
        },
        {
          "duration": 0.12630208333337123,
          "durationTicks": 97,
          "midi": 82,
          "name": "A#5",
          "ticks": 210586,
          "time": 274.2005208333333,
          "velocity": 0.16535433070866143
        },
        {
          "duration": 0,
          "durationTicks": 0,
          "midi": 74,
          "name": "D5",
          "ticks": 210595,
          "time": 274.2122395833333,
          "velocity": 0.08661417322834646
        },
        {
          "duration": 0,
          "durationTicks": 0,
          "midi": 70,
          "name": "A#4",
          "ticks": 210605,
          "time": 274.2252604166667,
          "velocity": 0.2283464566929134
        },
        {
          "duration": 0,
          "durationTicks": 0,
          "midi": 36,
          "name": "C2",
          "ticks": 210622,
          "time": 274.2473958333333,
          "velocity": 0.36220472440944884
        },
        {
          "duration": 0,
          "durationTicks": 0,
          "midi": 55,
          "name": "G3",
          "ticks": 210622,
          "time": 274.2473958333333,
          "velocity": 0.09448818897637795
        },
        {
          "duration": 0,
          "durationTicks": 0,
          "midi": 69,
          "name": "A4",
          "ticks": 210622,
          "time": 274.2473958333333,
          "velocity": 0.25196850393700787
        },
        {
          "duration": 0.12760416666668561,
          "durationTicks": 98,
          "midi": 80,
          "name": "G#5",
          "ticks": 210631,
          "time": 274.2591145833333,
          "velocity": 0.16535433070866143
        },
        {
          "duration": 0,
          "durationTicks": 0,
          "midi": 63,
          "name": "D#4",
          "ticks": 210649,
          "time": 274.2825520833333,
          "velocity": 0.2125984251968504
        },
        {
          "duration": 0,
          "durationTicks": 0,
          "midi": 34,
          "name": "A#1",
          "ticks": 210658,
          "time": 274.2942708333333,
          "velocity": 0.3543307086614173
        },
        {
          "duration": 0,
          "durationTicks": 0,
          "midi": 67,
          "name": "G4",
          "ticks": 210658,
          "time": 274.2942708333333,
          "velocity": 0.2440944881889764
        },
        {
          "duration": 0,
          "durationTicks": 0,
          "midi": 33,
          "name": "A1",
          "ticks": 210676,
          "time": 274.3177083333333,
          "velocity": 0.3464566929133858
        },
        {
          "duration": 0,
          "durationTicks": 0,
          "midi": 66,
          "name": "F#4",
          "ticks": 210676,
          "time": 274.3177083333333,
          "velocity": 0.25984251968503935
        },
        {
          "duration": 0.12760416666668561,
          "durationTicks": 98,
          "midi": 79,
          "name": "G5",
          "ticks": 210685,
          "time": 274.3294270833333,
          "velocity": 0.1732283464566929
        },
        {
          "duration": 0,
          "durationTicks": 0,
          "midi": 32,
          "name": "G#1",
          "ticks": 210695,
          "time": 274.3424479166667,
          "velocity": 0.3464566929133858
        },
        {
          "duration": 0,
          "durationTicks": 0,
          "midi": 67,
          "name": "G4",
          "ticks": 210704,
          "time": 274.3541666666667,
          "velocity": 0.13385826771653545
        },
        {
          "duration": 0,
          "durationTicks": 0,
          "midi": 63,
          "name": "D#4",
          "ticks": 210713,
          "time": 274.3658854166667,
          "velocity": 0.2204724409448819
        },
        {
          "duration": 0.12630208333331439,
          "durationTicks": 97,
          "midi": 75,
          "name": "D#5",
          "ticks": 210722,
          "time": 274.3776041666667,
          "velocity": 0.2204724409448819
        },
        {
          "duration": 0.12630208333331439,
          "durationTicks": 97,
          "midi": 65,
          "name": "F4",
          "ticks": 210732,
          "time": 274.390625,
          "velocity": 0.1732283464566929
        },
        {
          "duration": 0.25,
          "durationTicks": 192,
          "midi": 39,
          "name": "D#2",
          "ticks": 210732,
          "time": 274.390625,
          "velocity": 0.2755905511811024
        },
        {
          "duration": 0,
          "durationTicks": 0,
          "midi": 57,
          "name": "A3",
          "ticks": 210749,
          "time": 274.4127604166667,
          "velocity": 0.18110236220472442
        },
        {
          "duration": 0,
          "durationTicks": 0,
          "midi": 62,
          "name": "D4",
          "ticks": 210749,
          "time": 274.4127604166667,
          "velocity": 0.1732283464566929
        },
        {
          "duration": 0,
          "durationTicks": 0,
          "midi": 82,
          "name": "A#5",
          "ticks": 210759,
          "time": 274.42578125,
          "velocity": 0.1732283464566929
        },
        {
          "duration": 0,
          "durationTicks": 0,
          "midi": 74,
          "name": "D5",
          "ticks": 210776,
          "time": 274.4479166666667,
          "velocity": 0.11811023622047244
        },
        {
          "duration": 0.1171875,
          "durationTicks": 90,
          "midi": 72,
          "name": "C5",
          "ticks": 210776,
          "time": 274.4479166666667,
          "velocity": 0.16535433070866143
        },
        {
          "duration": 0,
          "durationTicks": 0,
          "midi": 87,
          "name": "D#6",
          "ticks": 210795,
          "time": 274.47265625,
          "velocity": 0.14960629921259844
        },
        {
          "duration": 0,
          "durationTicks": 0,
          "midi": 62,
          "name": "D4",
          "ticks": 210804,
          "time": 274.484375,
          "velocity": 0.12598425196850394
        },
        {
          "duration": 0,
          "durationTicks": 0,
          "midi": 82,
          "name": "A#5",
          "ticks": 210804,
          "time": 274.484375,
          "velocity": 0.1732283464566929
        },
        {
          "duration": 0,
          "durationTicks": 0,
          "midi": 75,
          "name": "D#5",
          "ticks": 210822,
          "time": 274.5078125,
          "velocity": 0.1732283464566929
        },
        {
          "duration": 0,
          "durationTicks": 0,
          "midi": 70,
          "name": "A#4",
          "ticks": 210831,
          "time": 274.51953125,
          "velocity": 0.18110236220472442
        },
        {
          "duration": 0,
          "durationTicks": 0,
          "midi": 73,
          "name": "C#5",
          "ticks": 210849,
          "time": 274.54296875,
          "velocity": 0.18110236220472442
        },
        {
          "duration": 0.009114583333314386,
          "durationTicks": 7,
          "midi": 72,
          "name": "C5",
          "ticks": 210866,
          "time": 274.5651041666667,
          "velocity": 0.1889763779527559
        },
        {
          "duration": 0,
          "durationTicks": 0,
          "midi": 63,
          "name": "D#4",
          "ticks": 210876,
          "time": 274.578125,
          "velocity": 0.09448818897637795
        },
        {
          "duration": 0,
          "durationTicks": 0,
          "midi": 70,
          "name": "A#4",
          "ticks": 210893,
          "time": 274.6002604166667,
          "velocity": 0.1732283464566929
        },
        {
          "duration": 0,
          "durationTicks": 0,
          "midi": 69,
          "name": "A4",
          "ticks": 210911,
          "time": 274.6236979166667,
          "velocity": 0.2283464566929134
        },
        {
          "duration": 0,
          "durationTicks": 0,
          "midi": 36,
          "name": "C2",
          "ticks": 210911,
          "time": 274.6236979166667,
          "velocity": 0.25984251968503935
        },
        {
          "duration": 0,
          "durationTicks": 0,
          "midi": 68,
          "name": "G#4",
          "ticks": 210928,
          "time": 274.6458333333333,
          "velocity": 0.1968503937007874
        },
        {
          "duration": 0,
          "durationTicks": 0,
          "midi": 33,
          "name": "A1",
          "ticks": 210955,
          "time": 274.6809895833333,
          "velocity": 0.2440944881889764
        },
        {
          "duration": 0,
          "durationTicks": 0,
          "midi": 66,
          "name": "F#4",
          "ticks": 210965,
          "time": 274.6940104166667,
          "velocity": 0.2047244094488189
        },
        {
          "duration": 0,
          "durationTicks": 0,
          "midi": 31,
          "name": "G1",
          "ticks": 210992,
          "time": 274.7291666666667,
          "velocity": 0.25196850393700787
        },
        {
          "duration": 0,
          "durationTicks": 0,
          "midi": 63,
          "name": "D#4",
          "ticks": 210992,
          "time": 274.7291666666667,
          "velocity": 0.1968503937007874
        },
        {
          "duration": 0,
          "durationTicks": 0,
          "midi": 40,
          "name": "E2",
          "ticks": 211018,
          "time": 274.7630208333333,
          "velocity": 0.2047244094488189
        },
        {
          "duration": 0,
          "durationTicks": 0,
          "midi": 60,
          "name": "C4",
          "ticks": 211018,
          "time": 274.7630208333333,
          "velocity": 0.1732283464566929
        },
        {
          "duration": 0,
          "durationTicks": 0,
          "midi": 79,
          "name": "G5",
          "ticks": 211028,
          "time": 274.7760416666667,
          "velocity": 0.05511811023622047
        },
        {
          "duration": 0.125,
          "durationTicks": 96,
          "midi": 39,
          "name": "D#2",
          "ticks": 211037,
          "time": 274.7877604166667,
          "velocity": 0.1968503937007874
        },
        {
          "duration": 0,
          "durationTicks": 0,
          "midi": 86,
          "name": "D6",
          "ticks": 211064,
          "time": 274.8229166666667,
          "velocity": 0.07086614173228346
        },
        {
          "duration": 0.125,
          "durationTicks": 96,
          "midi": 58,
          "name": "A#3",
          "ticks": 211064,
          "time": 274.8229166666667,
          "velocity": 0.1732283464566929
        },
        {
          "duration": 0,
          "durationTicks": 0,
          "midi": 82,
          "name": "A#5",
          "ticks": 211091,
          "time": 274.8580729166667,
          "velocity": 0.11023622047244094
        },
        {
          "duration": 0,
          "durationTicks": 0,
          "midi": 87,
          "name": "D#6",
          "ticks": 211135,
          "time": 274.9153645833333,
          "velocity": 0.06299212598425197
        },
        {
          "duration": 0,
          "durationTicks": 0,
          "midi": 86,
          "name": "D6",
          "ticks": 211145,
          "time": 274.9283854166667,
          "velocity": 0.06299212598425197
        },
        {
          "duration": 0,
          "durationTicks": 0,
          "midi": 84,
          "name": "C6",
          "ticks": 211162,
          "time": 274.9505208333333,
          "velocity": 0.06299212598425197
        },
        {
          "duration": 0,
          "durationTicks": 0,
          "midi": 36,
          "name": "C2",
          "ticks": 211198,
          "time": 274.9973958333333,
          "velocity": 0.1968503937007874
        },
        {
          "duration": 0,
          "durationTicks": 0,
          "midi": 69,
          "name": "A4",
          "ticks": 211198,
          "time": 274.9973958333333,
          "velocity": 0.11023622047244094
        },
        {
          "duration": 0.125,
          "durationTicks": 96,
          "midi": 82,
          "name": "A#5",
          "ticks": 211208,
          "time": 275.0104166666667,
          "velocity": 0.09448818897637795
        },
        {
          "duration": 0,
          "durationTicks": 0,
          "midi": 33,
          "name": "A1",
          "ticks": 211244,
          "time": 275.0572916666667,
          "velocity": 0.1889763779527559
        },
        {
          "duration": 0,
          "durationTicks": 0,
          "midi": 66,
          "name": "F#4",
          "ticks": 211244,
          "time": 275.0572916666667,
          "velocity": 0.11023622047244094
        },
        {
          "duration": 0,
          "durationTicks": 0,
          "midi": 80,
          "name": "G#5",
          "ticks": 211262,
          "time": 275.0807291666667,
          "velocity": 0.07874015748031496
        },
        {
          "duration": 0,
          "durationTicks": 0,
          "midi": 31,
          "name": "G1",
          "ticks": 211279,
          "time": 275.1028645833333,
          "velocity": 0.1968503937007874
        },
        {
          "duration": 0.125,
          "durationTicks": 96,
          "midi": 79,
          "name": "G5",
          "ticks": 211306,
          "time": 275.1380208333333,
          "velocity": 0.11023622047244094
        },
        {
          "duration": 0.25130208333337123,
          "durationTicks": 193,
          "midi": 39,
          "name": "D#2",
          "ticks": 211306,
          "time": 275.1380208333333,
          "velocity": 0.13385826771653545
        },
        {
          "duration": 0,
          "durationTicks": 0,
          "midi": 75,
          "name": "D#5",
          "ticks": 211351,
          "time": 275.1966145833333,
          "velocity": 0.07086614173228346
        },
        {
          "duration": 0.12630208333337123,
          "durationTicks": 97,
          "midi": 67,
          "name": "G4",
          "ticks": 211387,
          "time": 275.2434895833333,
          "velocity": 0.08661417322834646
        },
        {
          "duration": 0,
          "durationTicks": 0,
          "midi": 72,
          "name": "C5",
          "ticks": 211414,
          "time": 275.2786458333333,
          "velocity": 0.08661417322834646
        },
        {
          "duration": 0,
          "durationTicks": 0,
          "midi": 70,
          "name": "A#4",
          "ticks": 211450,
          "time": 275.3255208333333,
          "velocity": 0.13385826771653545
        },
        {
          "duration": 0,
          "durationTicks": 0,
          "midi": 36,
          "name": "C2",
          "ticks": 211486,
          "time": 275.3723958333333,
          "velocity": 0.13385826771653545
        },
        {
          "duration": 0,
          "durationTicks": 0,
          "midi": 68,
          "name": "G#4",
          "ticks": 211504,
          "time": 275.3958333333333,
          "velocity": 0.09448818897637795
        },
        {
          "duration": 0,
          "durationTicks": 0,
          "midi": 33,
          "name": "A1",
          "ticks": 211531,
          "time": 275.4309895833333,
          "velocity": 0.11023622047244094
        },
        {
          "duration": 0.12630208333337123,
          "durationTicks": 97,
          "midi": 67,
          "name": "G4",
          "ticks": 211540,
          "time": 275.4427083333333,
          "velocity": 0.13385826771653545
        },
        {
          "duration": 0,
          "durationTicks": 0,
          "midi": 75,
          "name": "D#5",
          "ticks": 211584,
          "time": 275.5,
          "velocity": 0.07874015748031496
        },
        {
          "duration": 0,
          "durationTicks": 0,
          "midi": 63,
          "name": "D#4",
          "ticks": 211594,
          "time": 275.5130208333333,
          "velocity": 0.11023622047244094
        },
        {
          "duration": 0.125,
          "durationTicks": 96,
          "midi": 39,
          "name": "D#2",
          "ticks": 211603,
          "time": 275.5247395833333,
          "velocity": 0.07874015748031496
        },
        {
          "duration": 0,
          "durationTicks": 0,
          "midi": 63,
          "name": "D#4",
          "ticks": 211630,
          "time": 275.5598958333333,
          "velocity": 0.12598425196850394
        },
        {
          "duration": 0,
          "durationTicks": 0,
          "midi": 58,
          "name": "A#3",
          "ticks": 211684,
          "time": 275.6302083333333,
          "velocity": 0.06299212598425197
        },
        {
          "duration": 0,
          "durationTicks": 0,
          "midi": 63,
          "name": "D#4",
          "ticks": 211701,
          "time": 275.65234375,
          "velocity": 0.11811023622047244
        },
        {
          "duration": 0,
          "durationTicks": 0,
          "midi": 62,
          "name": "D4",
          "ticks": 211800,
          "time": 275.78125,
          "velocity": 0.10236220472440945
        },
        {
          "duration": 0,
          "durationTicks": 0,
          "midi": 33,
          "name": "A1",
          "ticks": 211817,
          "time": 275.8033854166667,
          "velocity": 0.05511811023622047
        }
      ],
      "endOfTrackTicks": 211817
    }
  ]
}
