{
  "header": {
    "keySignatures": [],
    "meta": [],
    "name": "Electric Piano",
    "ppq": 384,
    "tempos": [
      {
        "bpm": 120,
        "ticks": 0
      }
    ],
    "timeSignatures": [
      {
        "ticks": 0,
        "timeSignature": [
          4,
          4
        ],
        "measures": 0
      }
    ]
  },
  "tracks": [
    {
      "channel": 0,
      "controlChanges": {},
      "pitchBends": [],
      "instrument": {
        "family": "piano",
        "number": 0,
        "name": "acoustic grand piano"
      },
      "name": "Electric Piano",
      "notes": [
        {
          "duration": 0.125,
          "durationTicks": 96,
          "midi": 50,
          "name": "D3",
          "ticks": 0,
          "time": 0,
          "velocity": 0.3937007874015748
        },
        {
          "duration": 0.125,
          "durationTicks": 96,
          "midi": 50,
          "name": "D3",
          "ticks": 96,
          "time": 0.125,
          "velocity": 0.3937007874015748
        },
        {
          "duration": 0.125,
          "durationTicks": 96,
          "midi": 62,
          "name": "D4",
          "ticks": 192,
          "time": 0.25,
          "velocity": 0.3937007874015748
        },
        {
          "duration": 0.125,
          "durationTicks": 96,
          "midi": 57,
          "name": "A3",
          "ticks": 384,
          "time": 0.5,
          "velocity": 0.3937007874015748
        },
        {
          "duration": 0.125,
          "durationTicks": 96,
          "midi": 56,
          "name": "G#3",
          "ticks": 672,
          "time": 0.875,
          "velocity": 0.3937007874015748
        },
        {
          "duration": 0.125,
          "durationTicks": 96,
          "midi": 55,
          "name": "G3",
          "ticks": 864,
          "time": 1.125,
          "velocity": 0.3937007874015748
        },
        {
          "duration": 0.125,
          "durationTicks": 96,
          "midi": 53,
          "name": "F3",
          "ticks": 1056,
          "time": 1.375,
          "velocity": 0.3937007874015748
        },
        {
          "duration": 0.125,
          "durationTicks": 96,
          "midi": 50,
          "name": "D3",
          "ticks": 1248,
          "time": 1.625,
          "velocity": 0.3937007874015748
        },
        {
          "duration": 0.125,
          "durationTicks": 96,
          "midi": 53,
          "name": "F3",
          "ticks": 1344,
          "time": 1.75,
          "velocity": 0.3937007874015748
        },
        {
          "duration": 0.125,
          "durationTicks": 96,
          "midi": 55,
          "name": "G3",
          "ticks": 1440,
          "time": 1.875,
          "velocity": 0.3937007874015748
        },
        {
          "duration": 0.125,
          "durationTicks": 96,
          "midi": 48,
          "name": "C3",
          "ticks": 1536,
          "time": 2,
          "velocity": 0.3937007874015748
        },
        {
          "duration": 0.125,
          "durationTicks": 96,
          "midi": 48,
          "name": "C3",
          "ticks": 1632,
          "time": 2.125,
          "velocity": 0.3937007874015748
        },
        {
          "duration": 0.125,
          "durationTicks": 96,
          "midi": 62,
          "name": "D4",
          "ticks": 1728,
          "time": 2.25,
          "velocity": 0.3937007874015748
        },
        {
          "duration": 0.125,
          "durationTicks": 96,
          "midi": 57,
          "name": "A3",
          "ticks": 1920,
          "time": 2.5,
          "velocity": 0.3937007874015748
        },
        {
          "duration": 0.125,
          "durationTicks": 96,
          "midi": 56,
          "name": "G#3",
          "ticks": 2208,
          "time": 2.875,
          "velocity": 0.3937007874015748
        },
        {
          "duration": 0.125,
          "durationTicks": 96,
          "midi": 55,
          "name": "G3",
          "ticks": 2400,
          "time": 3.125,
          "velocity": 0.3937007874015748
        },
        {
          "duration": 0.125,
          "durationTicks": 96,
          "midi": 53,
          "name": "F3",
          "ticks": 2592,
          "time": 3.375,
          "velocity": 0.3937007874015748
        },
        {
          "duration": 0.125,
          "durationTicks": 96,
          "midi": 50,
          "name": "D3",
          "ticks": 2784,
          "time": 3.625,
          "velocity": 0.3937007874015748
        },
        {
          "duration": 0.125,
          "durationTicks": 96,
          "midi": 53,
          "name": "F3",
          "ticks": 2880,
          "time": 3.75,
          "velocity": 0.3937007874015748
        },
        {
          "duration": 0.125,
          "durationTicks": 96,
          "midi": 55,
          "name": "G3",
          "ticks": 2976,
          "time": 3.875,
          "velocity": 0.3937007874015748
        },
        {
          "duration": 0.125,
          "durationTicks": 96,
          "midi": 47,
          "name": "B2",
          "ticks": 3072,
          "time": 4,
          "velocity": 0.3937007874015748
        },
        {
          "duration": 0.125,
          "durationTicks": 96,
          "midi": 47,
          "name": "B2",
          "ticks": 3168,
          "time": 4.125,
          "velocity": 0.3937007874015748
        },
        {
          "duration": 0.125,
          "durationTicks": 96,
          "midi": 62,
          "name": "D4",
          "ticks": 3264,
          "time": 4.25,
          "velocity": 0.3937007874015748
        },
        {
          "duration": 0.125,
          "durationTicks": 96,
          "midi": 57,
          "name": "A3",
          "ticks": 3456,
          "time": 4.5,
          "velocity": 0.3937007874015748
        },
        {
          "duration": 0.125,
          "durationTicks": 96,
          "midi": 56,
          "name": "G#3",
          "ticks": 3744,
          "time": 4.875,
          "velocity": 0.3937007874015748
        },
        {
          "duration": 0.125,
          "durationTicks": 96,
          "midi": 55,
          "name": "G3",
          "ticks": 3936,
          "time": 5.125,
          "velocity": 0.3937007874015748
        },
        {
          "duration": 0.125,
          "durationTicks": 96,
          "midi": 53,
          "name": "F3",
          "ticks": 4128,
          "time": 5.375,
          "velocity": 0.3937007874015748
        },
        {
          "duration": 0.125,
          "durationTicks": 96,
          "midi": 50,
          "name": "D3",
          "ticks": 4320,
          "time": 5.625,
          "velocity": 0.3937007874015748
        },
        {
          "duration": 0.125,
          "durationTicks": 96,
          "midi": 53,
          "name": "F3",
          "ticks": 4416,
          "time": 5.75,
          "velocity": 0.3937007874015748
        },
        {
          "duration": 0.125,
          "durationTicks": 96,
          "midi": 55,
          "name": "G3",
          "ticks": 4512,
          "time": 5.875,
          "velocity": 0.3937007874015748
        },
        {
          "duration": 0.125,
          "durationTicks": 96,
          "midi": 46,
          "name": "A#2",
          "ticks": 4608,
          "time": 6,
          "velocity": 0.3937007874015748
        },
        {
          "duration": 0.125,
          "durationTicks": 96,
          "midi": 46,
          "name": "A#2",
          "ticks": 4704,
          "time": 6.125,
          "velocity": 0.3937007874015748
        },
        {
          "duration": 0.125,
          "durationTicks": 96,
          "midi": 62,
          "name": "D4",
          "ticks": 4800,
          "time": 6.25,
          "velocity": 0.3937007874015748
        },
        {
          "duration": 0.125,
          "durationTicks": 96,
          "midi": 57,
          "name": "A3",
          "ticks": 4992,
          "time": 6.5,
          "velocity": 0.3937007874015748
        },
        {
          "duration": 0.125,
          "durationTicks": 96,
          "midi": 56,
          "name": "G#3",
          "ticks": 5280,
          "time": 6.875,
          "velocity": 0.3937007874015748
        },
        {
          "duration": 0.125,
          "durationTicks": 96,
          "midi": 55,
          "name": "G3",
          "ticks": 5472,
          "time": 7.125,
          "velocity": 0.3937007874015748
        },
        {
          "duration": 0.125,
          "durationTicks": 96,
          "midi": 53,
          "name": "F3",
          "ticks": 5664,
          "time": 7.375,
          "velocity": 0.3937007874015748
        },
        {
          "duration": 0.125,
          "durationTicks": 96,
          "midi": 50,
          "name": "D3",
          "ticks": 5856,
          "time": 7.625,
          "velocity": 0.3937007874015748
        },
        {
          "duration": 0.125,
          "durationTicks": 96,
          "midi": 53,
          "name": "F3",
          "ticks": 5952,
          "time": 7.75,
          "velocity": 0.3937007874015748
        },
        {
          "duration": 0.125,
          "durationTicks": 96,
          "midi": 55,
          "name": "G3",
          "ticks": 6048,
          "time": 7.875,
          "velocity": 0.3937007874015748
        },
        {
          "duration": 0.125,
          "durationTicks": 96,
          "midi": 50,
          "name": "D3",
          "ticks": 6144,
          "time": 8,
          "velocity": 0.3937007874015748
        },
        {
          "duration": 0.125,
          "durationTicks": 96,
          "midi": 38,
          "name": "D2",
          "ticks": 6144,
          "time": 8,
          "velocity": 0.3937007874015748
        },
        {
          "duration": 0.125,
          "durationTicks": 96,
          "midi": 50,
          "name": "D3",
          "ticks": 6240,
          "time": 8.125,
          "velocity": 0.3937007874015748
        },
        {
          "duration": 0.125,
          "durationTicks": 96,
          "midi": 38,
          "name": "D2",
          "ticks": 6240,
          "time": 8.125,
          "velocity": 0.3937007874015748
        },
        {
          "duration": 0.125,
          "durationTicks": 96,
          "midi": 62,
          "name": "D4",
          "ticks": 6336,
          "time": 8.25,
          "velocity": 0.3937007874015748
        },
        {
          "duration": 0.125,
          "durationTicks": 96,
          "midi": 38,
          "name": "D2",
          "ticks": 6336,
          "time": 8.25,
          "velocity": 0.3937007874015748
        },
        {
          "duration": 0.125,
          "durationTicks": 96,
          "midi": 57,
          "name": "A3",
          "ticks": 6528,
          "time": 8.5,
          "velocity": 0.3937007874015748
        },
        {
          "duration": 0.125,
          "durationTicks": 96,
          "midi": 38,
          "name": "D2",
          "ticks": 6528,
          "time": 8.5,
          "velocity": 0.3937007874015748
        },
        {
          "duration": 0.125,
          "durationTicks": 96,
          "midi": 38,
          "name": "D2",
          "ticks": 6624,
          "time": 8.625,
          "velocity": 0.3937007874015748
        },
        {
          "duration": 0.125,
          "durationTicks": 96,
          "midi": 56,
          "name": "G#3",
          "ticks": 6816,
          "time": 8.875,
          "velocity": 0.3937007874015748
        },
        {
          "duration": 0.125,
          "durationTicks": 96,
          "midi": 38,
          "name": "D2",
          "ticks": 6816,
          "time": 8.875,
          "velocity": 0.3937007874015748
        },
        {
          "duration": 0.125,
          "durationTicks": 96,
          "midi": 55,
          "name": "G3",
          "ticks": 7008,
          "time": 9.125,
          "velocity": 0.3937007874015748
        },
        {
          "duration": 0.125,
          "durationTicks": 96,
          "midi": 38,
          "name": "D2",
          "ticks": 7008,
          "time": 9.125,
          "velocity": 0.3937007874015748
        },
        {
          "duration": 0.125,
          "durationTicks": 96,
          "midi": 53,
          "name": "F3",
          "ticks": 7200,
          "time": 9.375,
          "velocity": 0.3937007874015748
        },
        {
          "duration": 0.125,
          "durationTicks": 96,
          "midi": 38,
          "name": "D2",
          "ticks": 7200,
          "time": 9.375,
          "velocity": 0.3937007874015748
        },
        {
          "duration": 0.125,
          "durationTicks": 96,
          "midi": 50,
          "name": "D3",
          "ticks": 7392,
          "time": 9.625,
          "velocity": 0.3937007874015748
        },
        {
          "duration": 0.125,
          "durationTicks": 96,
          "midi": 38,
          "name": "D2",
          "ticks": 7392,
          "time": 9.625,
          "velocity": 0.3937007874015748
        },
        {
          "duration": 0.125,
          "durationTicks": 96,
          "midi": 53,
          "name": "F3",
          "ticks": 7488,
          "time": 9.75,
          "velocity": 0.3937007874015748
        },
        {
          "duration": 0.125,
          "durationTicks": 96,
          "midi": 38,
          "name": "D2",
          "ticks": 7488,
          "time": 9.75,
          "velocity": 0.3937007874015748
        },
        {
          "duration": 0.125,
          "durationTicks": 96,
          "midi": 55,
          "name": "G3",
          "ticks": 7584,
          "time": 9.875,
          "velocity": 0.3937007874015748
        },
        {
          "duration": 0.125,
          "durationTicks": 96,
          "midi": 38,
          "name": "D2",
          "ticks": 7584,
          "time": 9.875,
          "velocity": 0.3937007874015748
        },
        {
          "duration": 0.125,
          "durationTicks": 96,
          "midi": 48,
          "name": "C3",
          "ticks": 7680,
          "time": 10,
          "velocity": 0.3937007874015748
        },
        {
          "duration": 0.125,
          "durationTicks": 96,
          "midi": 36,
          "name": "C2",
          "ticks": 7680,
          "time": 10,
          "velocity": 0.3937007874015748
        },
        {
          "duration": 0.125,
          "durationTicks": 96,
          "midi": 48,
          "name": "C3",
          "ticks": 7776,
          "time": 10.125,
          "velocity": 0.3937007874015748
        },
        {
          "duration": 0.125,
          "durationTicks": 96,
          "midi": 36,
          "name": "C2",
          "ticks": 7776,
          "time": 10.125,
          "velocity": 0.3937007874015748
        },
        {
          "duration": 0.125,
          "durationTicks": 96,
          "midi": 62,
          "name": "D4",
          "ticks": 7872,
          "time": 10.25,
          "velocity": 0.3937007874015748
        },
        {
          "duration": 0.125,
          "durationTicks": 96,
          "midi": 36,
          "name": "C2",
          "ticks": 7872,
          "time": 10.25,
          "velocity": 0.3937007874015748
        },
        {
          "duration": 0.125,
          "durationTicks": 96,
          "midi": 57,
          "name": "A3",
          "ticks": 8064,
          "time": 10.5,
          "velocity": 0.3937007874015748
        },
        {
          "duration": 0.125,
          "durationTicks": 96,
          "midi": 36,
          "name": "C2",
          "ticks": 8064,
          "time": 10.5,
          "velocity": 0.3937007874015748
        },
        {
          "duration": 0.125,
          "durationTicks": 96,
          "midi": 36,
          "name": "C2",
          "ticks": 8160,
          "time": 10.625,
          "velocity": 0.3937007874015748
        },
        {
          "duration": 0.125,
          "durationTicks": 96,
          "midi": 56,
          "name": "G#3",
          "ticks": 8352,
          "time": 10.875,
          "velocity": 0.3937007874015748
        },
        {
          "duration": 0.125,
          "durationTicks": 96,
          "midi": 36,
          "name": "C2",
          "ticks": 8352,
          "time": 10.875,
          "velocity": 0.3937007874015748
        },
        {
          "duration": 0.125,
          "durationTicks": 96,
          "midi": 55,
          "name": "G3",
          "ticks": 8544,
          "time": 11.125,
          "velocity": 0.3937007874015748
        },
        {
          "duration": 0.125,
          "durationTicks": 96,
          "midi": 36,
          "name": "C2",
          "ticks": 8544,
          "time": 11.125,
          "velocity": 0.3937007874015748
        },
        {
          "duration": 0.125,
          "durationTicks": 96,
          "midi": 53,
          "name": "F3",
          "ticks": 8736,
          "time": 11.375,
          "velocity": 0.3937007874015748
        },
        {
          "duration": 0.125,
          "durationTicks": 96,
          "midi": 36,
          "name": "C2",
          "ticks": 8736,
          "time": 11.375,
          "velocity": 0.3937007874015748
        },
        {
          "duration": 0.125,
          "durationTicks": 96,
          "midi": 50,
          "name": "D3",
          "ticks": 8928,
          "time": 11.625,
          "velocity": 0.3937007874015748
        },
        {
          "duration": 0.125,
          "durationTicks": 96,
          "midi": 36,
          "name": "C2",
          "ticks": 8928,
          "time": 11.625,
          "velocity": 0.3937007874015748
        },
        {
          "duration": 0.125,
          "durationTicks": 96,
          "midi": 53,
          "name": "F3",
          "ticks": 9024,
          "time": 11.75,
          "velocity": 0.3937007874015748
        },
        {
          "duration": 0.125,
          "durationTicks": 96,
          "midi": 36,
          "name": "C2",
          "ticks": 9024,
          "time": 11.75,
          "velocity": 0.3937007874015748
        },
        {
          "duration": 0.125,
          "durationTicks": 96,
          "midi": 55,
          "name": "G3",
          "ticks": 9120,
          "time": 11.875,
          "velocity": 0.3937007874015748
        },
        {
          "duration": 0.125,
          "durationTicks": 96,
          "midi": 36,
          "name": "C2",
          "ticks": 9120,
          "time": 11.875,
          "velocity": 0.3937007874015748
        },
        {
          "duration": 0.125,
          "durationTicks": 96,
          "midi": 47,
          "name": "B2",
          "ticks": 9216,
          "time": 12,
          "velocity": 0.3937007874015748
        },
        {
          "duration": 0.125,
          "durationTicks": 96,
          "midi": 35,
          "name": "B1",
          "ticks": 9216,
          "time": 12,
          "velocity": 0.3937007874015748
        },
        {
          "duration": 0.125,
          "durationTicks": 96,
          "midi": 35,
          "name": "B1",
          "ticks": 9312,
          "time": 12.125,
          "velocity": 0.3937007874015748
        },
        {
          "duration": 0.125,
          "durationTicks": 96,
          "midi": 47,
          "name": "B2",
          "ticks": 9312,
          "time": 12.125,
          "velocity": 0.3937007874015748
        },
        {
          "duration": 0.125,
          "durationTicks": 96,
          "midi": 62,
          "name": "D4",
          "ticks": 9408,
          "time": 12.25,
          "velocity": 0.3937007874015748
        },
        {
          "duration": 0.125,
          "durationTicks": 96,
          "midi": 35,
          "name": "B1",
          "ticks": 9408,
          "time": 12.25,
          "velocity": 0.3937007874015748
        },
        {
          "duration": 0.125,
          "durationTicks": 96,
          "midi": 57,
          "name": "A3",
          "ticks": 9600,
          "time": 12.5,
          "velocity": 0.3937007874015748
        },
        {
          "duration": 0.125,
          "durationTicks": 96,
          "midi": 35,
          "name": "B1",
          "ticks": 9600,
          "time": 12.5,
          "velocity": 0.3937007874015748
        },
        {
          "duration": 0.125,
          "durationTicks": 96,
          "midi": 35,
          "name": "B1",
          "ticks": 9696,
          "time": 12.625,
          "velocity": 0.3937007874015748
        },
        {
          "duration": 0.125,
          "durationTicks": 96,
          "midi": 56,
          "name": "G#3",
          "ticks": 9888,
          "time": 12.875,
          "velocity": 0.3937007874015748
        },
        {
          "duration": 0.125,
          "durationTicks": 96,
          "midi": 35,
          "name": "B1",
          "ticks": 9888,
          "time": 12.875,
          "velocity": 0.3937007874015748
        },
        {
          "duration": 0.125,
          "durationTicks": 96,
          "midi": 55,
          "name": "G3",
          "ticks": 10080,
          "time": 13.125,
          "velocity": 0.3937007874015748
        },
        {
          "duration": 0.125,
          "durationTicks": 96,
          "midi": 35,
          "name": "B1",
          "ticks": 10080,
          "time": 13.125,
          "velocity": 0.3937007874015748
        },
        {
          "duration": 0.125,
          "durationTicks": 96,
          "midi": 53,
          "name": "F3",
          "ticks": 10272,
          "time": 13.375,
          "velocity": 0.3937007874015748
        },
        {
          "duration": 0.125,
          "durationTicks": 96,
          "midi": 35,
          "name": "B1",
          "ticks": 10272,
          "time": 13.375,
          "velocity": 0.3937007874015748
        },
        {
          "duration": 0.125,
          "durationTicks": 96,
          "midi": 50,
          "name": "D3",
          "ticks": 10464,
          "time": 13.625,
          "velocity": 0.3937007874015748
        },
        {
          "duration": 0.125,
          "durationTicks": 96,
          "midi": 35,
          "name": "B1",
          "ticks": 10464,
          "time": 13.625,
          "velocity": 0.3937007874015748
        },
        {
          "duration": 0.125,
          "durationTicks": 96,
          "midi": 53,
          "name": "F3",
          "ticks": 10560,
          "time": 13.75,
          "velocity": 0.3937007874015748
        },
        {
          "duration": 0.125,
          "durationTicks": 96,
          "midi": 35,
          "name": "B1",
          "ticks": 10560,
          "time": 13.75,
          "velocity": 0.3937007874015748
        },
        {
          "duration": 0.125,
          "durationTicks": 96,
          "midi": 55,
          "name": "G3",
          "ticks": 10656,
          "time": 13.875,
          "velocity": 0.3937007874015748
        },
        {
          "duration": 0.125,
          "durationTicks": 96,
          "midi": 35,
          "name": "B1",
          "ticks": 10656,
          "time": 13.875,
          "velocity": 0.3937007874015748
        },
        {
          "duration": 0.125,
          "durationTicks": 96,
          "midi": 46,
          "name": "A#2",
          "ticks": 10752,
          "time": 14,
          "velocity": 0.3937007874015748
        },
        {
          "duration": 0.125,
          "durationTicks": 96,
          "midi": 34,
          "name": "A#1",
          "ticks": 10752,
          "time": 14,
          "velocity": 0.3937007874015748
        },
        {
          "duration": 0.125,
          "durationTicks": 96,
          "midi": 34,
          "name": "A#1",
          "ticks": 10848,
          "time": 14.125,
          "velocity": 0.3937007874015748
        },
        {
          "duration": 0.125,
          "durationTicks": 96,
          "midi": 46,
          "name": "A#2",
          "ticks": 10848,
          "time": 14.125,
          "velocity": 0.3937007874015748
        },
        {
          "duration": 0.125,
          "durationTicks": 96,
          "midi": 62,
          "name": "D4",
          "ticks": 10944,
          "time": 14.25,
          "velocity": 0.3937007874015748
        },
        {
          "duration": 0.125,
          "durationTicks": 96,
          "midi": 34,
          "name": "A#1",
          "ticks": 10944,
          "time": 14.25,
          "velocity": 0.3937007874015748
        },
        {
          "duration": 0.125,
          "durationTicks": 96,
          "midi": 57,
          "name": "A3",
          "ticks": 11136,
          "time": 14.5,
          "velocity": 0.3937007874015748
        },
        {
          "duration": 0.125,
          "durationTicks": 96,
          "midi": 34,
          "name": "A#1",
          "ticks": 11136,
          "time": 14.5,
          "velocity": 0.3937007874015748
        },
        {
          "duration": 0.125,
          "durationTicks": 96,
          "midi": 34,
          "name": "A#1",
          "ticks": 11232,
          "time": 14.625,
          "velocity": 0.3937007874015748
        },
        {
          "duration": 0.125,
          "durationTicks": 96,
          "midi": 56,
          "name": "G#3",
          "ticks": 11424,
          "time": 14.875,
          "velocity": 0.3937007874015748
        },
        {
          "duration": 0.125,
          "durationTicks": 96,
          "midi": 36,
          "name": "C2",
          "ticks": 11424,
          "time": 14.875,
          "velocity": 0.3937007874015748
        },
        {
          "duration": 0.125,
          "durationTicks": 96,
          "midi": 55,
          "name": "G3",
          "ticks": 11616,
          "time": 15.125,
          "velocity": 0.3937007874015748
        },
        {
          "duration": 0.125,
          "durationTicks": 96,
          "midi": 36,
          "name": "C2",
          "ticks": 11616,
          "time": 15.125,
          "velocity": 0.3937007874015748
        },
        {
          "duration": 0.125,
          "durationTicks": 96,
          "midi": 53,
          "name": "F3",
          "ticks": 11808,
          "time": 15.375,
          "velocity": 0.3937007874015748
        },
        {
          "duration": 0.125,
          "durationTicks": 96,
          "midi": 36,
          "name": "C2",
          "ticks": 11808,
          "time": 15.375,
          "velocity": 0.3937007874015748
        },
        {
          "duration": 0.125,
          "durationTicks": 96,
          "midi": 50,
          "name": "D3",
          "ticks": 12000,
          "time": 15.625,
          "velocity": 0.3937007874015748
        },
        {
          "duration": 0.125,
          "durationTicks": 96,
          "midi": 36,
          "name": "C2",
          "ticks": 12000,
          "time": 15.625,
          "velocity": 0.3937007874015748
        },
        {
          "duration": 0.125,
          "durationTicks": 96,
          "midi": 53,
          "name": "F3",
          "ticks": 12096,
          "time": 15.75,
          "velocity": 0.3937007874015748
        },
        {
          "duration": 0.125,
          "durationTicks": 96,
          "midi": 36,
          "name": "C2",
          "ticks": 12096,
          "time": 15.75,
          "velocity": 0.3937007874015748
        },
        {
          "duration": 0.125,
          "durationTicks": 96,
          "midi": 55,
          "name": "G3",
          "ticks": 12192,
          "time": 15.875,
          "velocity": 0.3937007874015748
        },
        {
          "duration": 0.125,
          "durationTicks": 96,
          "midi": 36,
          "name": "C2",
          "ticks": 12192,
          "time": 15.875,
          "velocity": 0.3937007874015748
        },
        {
          "duration": 0.125,
          "durationTicks": 96,
          "midi": 62,
          "name": "D4",
          "ticks": 12288,
          "time": 16,
          "velocity": 0.3937007874015748
        },
        {
          "duration": 0.125,
          "durationTicks": 96,
          "midi": 38,
          "name": "D2",
          "ticks": 12288,
          "time": 16,
          "velocity": 0.3937007874015748
        },
        {
          "duration": 0.125,
          "durationTicks": 96,
          "midi": 62,
          "name": "D4",
          "ticks": 12384,
          "time": 16.125,
          "velocity": 0.3937007874015748
        },
        {
          "duration": 0.125,
          "durationTicks": 96,
          "midi": 38,
          "name": "D2",
          "ticks": 12384,
          "time": 16.125,
          "velocity": 0.3937007874015748
        },
        {
          "duration": 0.125,
          "durationTicks": 96,
          "midi": 74,
          "name": "D5",
          "ticks": 12480,
          "time": 16.25,
          "velocity": 0.3937007874015748
        },
        {
          "duration": 0.125,
          "durationTicks": 96,
          "midi": 38,
          "name": "D2",
          "ticks": 12480,
          "time": 16.25,
          "velocity": 0.3937007874015748
        },
        {
          "duration": 0.125,
          "durationTicks": 96,
          "midi": 69,
          "name": "A4",
          "ticks": 12672,
          "time": 16.5,
          "velocity": 0.3937007874015748
        },
        {
          "duration": 0.125,
          "durationTicks": 96,
          "midi": 38,
          "name": "D2",
          "ticks": 12672,
          "time": 16.5,
          "velocity": 0.3937007874015748
        },
        {
          "duration": 0.125,
          "durationTicks": 96,
          "midi": 38,
          "name": "D2",
          "ticks": 12768,
          "time": 16.625,
          "velocity": 0.3937007874015748
        },
        {
          "duration": 0.125,
          "durationTicks": 96,
          "midi": 68,
          "name": "G#4",
          "ticks": 12960,
          "time": 16.875,
          "velocity": 0.3937007874015748
        },
        {
          "duration": 0.125,
          "durationTicks": 96,
          "midi": 38,
          "name": "D2",
          "ticks": 12960,
          "time": 16.875,
          "velocity": 0.3937007874015748
        },
        {
          "duration": 0.125,
          "durationTicks": 96,
          "midi": 67,
          "name": "G4",
          "ticks": 13152,
          "time": 17.125,
          "velocity": 0.3937007874015748
        },
        {
          "duration": 0.125,
          "durationTicks": 96,
          "midi": 38,
          "name": "D2",
          "ticks": 13152,
          "time": 17.125,
          "velocity": 0.3937007874015748
        },
        {
          "duration": 0.125,
          "durationTicks": 96,
          "midi": 65,
          "name": "F4",
          "ticks": 13344,
          "time": 17.375,
          "velocity": 0.3937007874015748
        },
        {
          "duration": 0.125,
          "durationTicks": 96,
          "midi": 38,
          "name": "D2",
          "ticks": 13344,
          "time": 17.375,
          "velocity": 0.3937007874015748
        },
        {
          "duration": 0.125,
          "durationTicks": 96,
          "midi": 62,
          "name": "D4",
          "ticks": 13536,
          "time": 17.625,
          "velocity": 0.3937007874015748
        },
        {
          "duration": 0.125,
          "durationTicks": 96,
          "midi": 38,
          "name": "D2",
          "ticks": 13536,
          "time": 17.625,
          "velocity": 0.3937007874015748
        },
        {
          "duration": 0.125,
          "durationTicks": 96,
          "midi": 65,
          "name": "F4",
          "ticks": 13632,
          "time": 17.75,
          "velocity": 0.3937007874015748
        },
        {
          "duration": 0.125,
          "durationTicks": 96,
          "midi": 38,
          "name": "D2",
          "ticks": 13632,
          "time": 17.75,
          "velocity": 0.3937007874015748
        },
        {
          "duration": 0.125,
          "durationTicks": 96,
          "midi": 67,
          "name": "G4",
          "ticks": 13728,
          "time": 17.875,
          "velocity": 0.3937007874015748
        },
        {
          "duration": 0.125,
          "durationTicks": 96,
          "midi": 38,
          "name": "D2",
          "ticks": 13728,
          "time": 17.875,
          "velocity": 0.3937007874015748
        },
        {
          "duration": 0.125,
          "durationTicks": 96,
          "midi": 60,
          "name": "C4",
          "ticks": 13824,
          "time": 18,
          "velocity": 0.3937007874015748
        },
        {
          "duration": 0.125,
          "durationTicks": 96,
          "midi": 36,
          "name": "C2",
          "ticks": 13824,
          "time": 18,
          "velocity": 0.3937007874015748
        },
        {
          "duration": 0.125,
          "durationTicks": 96,
          "midi": 60,
          "name": "C4",
          "ticks": 13920,
          "time": 18.125,
          "velocity": 0.3937007874015748
        },
        {
          "duration": 0.125,
          "durationTicks": 96,
          "midi": 36,
          "name": "C2",
          "ticks": 13920,
          "time": 18.125,
          "velocity": 0.3937007874015748
        },
        {
          "duration": 0.125,
          "durationTicks": 96,
          "midi": 74,
          "name": "D5",
          "ticks": 14016,
          "time": 18.25,
          "velocity": 0.3937007874015748
        },
        {
          "duration": 0.125,
          "durationTicks": 96,
          "midi": 36,
          "name": "C2",
          "ticks": 14016,
          "time": 18.25,
          "velocity": 0.3937007874015748
        },
        {
          "duration": 0.125,
          "durationTicks": 96,
          "midi": 69,
          "name": "A4",
          "ticks": 14208,
          "time": 18.5,
          "velocity": 0.3937007874015748
        },
        {
          "duration": 0.125,
          "durationTicks": 96,
          "midi": 36,
          "name": "C2",
          "ticks": 14208,
          "time": 18.5,
          "velocity": 0.3937007874015748
        },
        {
          "duration": 0.125,
          "durationTicks": 96,
          "midi": 36,
          "name": "C2",
          "ticks": 14304,
          "time": 18.625,
          "velocity": 0.3937007874015748
        },
        {
          "duration": 0.125,
          "durationTicks": 96,
          "midi": 68,
          "name": "G#4",
          "ticks": 14496,
          "time": 18.875,
          "velocity": 0.3937007874015748
        },
        {
          "duration": 0.125,
          "durationTicks": 96,
          "midi": 36,
          "name": "C2",
          "ticks": 14496,
          "time": 18.875,
          "velocity": 0.3937007874015748
        },
        {
          "duration": 0.125,
          "durationTicks": 96,
          "midi": 67,
          "name": "G4",
          "ticks": 14688,
          "time": 19.125,
          "velocity": 0.3937007874015748
        },
        {
          "duration": 0.125,
          "durationTicks": 96,
          "midi": 36,
          "name": "C2",
          "ticks": 14688,
          "time": 19.125,
          "velocity": 0.3937007874015748
        },
        {
          "duration": 0.125,
          "durationTicks": 96,
          "midi": 65,
          "name": "F4",
          "ticks": 14880,
          "time": 19.375,
          "velocity": 0.3937007874015748
        },
        {
          "duration": 0.125,
          "durationTicks": 96,
          "midi": 36,
          "name": "C2",
          "ticks": 14880,
          "time": 19.375,
          "velocity": 0.3937007874015748
        },
        {
          "duration": 0.125,
          "durationTicks": 96,
          "midi": 62,
          "name": "D4",
          "ticks": 15072,
          "time": 19.625,
          "velocity": 0.3937007874015748
        },
        {
          "duration": 0.125,
          "durationTicks": 96,
          "midi": 36,
          "name": "C2",
          "ticks": 15072,
          "time": 19.625,
          "velocity": 0.3937007874015748
        },
        {
          "duration": 0.125,
          "durationTicks": 96,
          "midi": 65,
          "name": "F4",
          "ticks": 15168,
          "time": 19.75,
          "velocity": 0.3937007874015748
        },
        {
          "duration": 0.125,
          "durationTicks": 96,
          "midi": 36,
          "name": "C2",
          "ticks": 15168,
          "time": 19.75,
          "velocity": 0.3937007874015748
        },
        {
          "duration": 0.125,
          "durationTicks": 96,
          "midi": 67,
          "name": "G4",
          "ticks": 15264,
          "time": 19.875,
          "velocity": 0.3937007874015748
        },
        {
          "duration": 0.125,
          "durationTicks": 96,
          "midi": 36,
          "name": "C2",
          "ticks": 15264,
          "time": 19.875,
          "velocity": 0.3937007874015748
        },
        {
          "duration": 0.125,
          "durationTicks": 96,
          "midi": 59,
          "name": "B3",
          "ticks": 15360,
          "time": 20,
          "velocity": 0.3937007874015748
        },
        {
          "duration": 0.125,
          "durationTicks": 96,
          "midi": 35,
          "name": "B1",
          "ticks": 15360,
          "time": 20,
          "velocity": 0.3937007874015748
        },
        {
          "duration": 0.125,
          "durationTicks": 96,
          "midi": 35,
          "name": "B1",
          "ticks": 15456,
          "time": 20.125,
          "velocity": 0.3937007874015748
        },
        {
          "duration": 0.125,
          "durationTicks": 96,
          "midi": 59,
          "name": "B3",
          "ticks": 15456,
          "time": 20.125,
          "velocity": 0.3937007874015748
        },
        {
          "duration": 0.125,
          "durationTicks": 96,
          "midi": 74,
          "name": "D5",
          "ticks": 15552,
          "time": 20.25,
          "velocity": 0.3937007874015748
        },
        {
          "duration": 0.125,
          "durationTicks": 96,
          "midi": 35,
          "name": "B1",
          "ticks": 15552,
          "time": 20.25,
          "velocity": 0.3937007874015748
        },
        {
          "duration": 0.125,
          "durationTicks": 96,
          "midi": 69,
          "name": "A4",
          "ticks": 15744,
          "time": 20.5,
          "velocity": 0.3937007874015748
        },
        {
          "duration": 0.125,
          "durationTicks": 96,
          "midi": 35,
          "name": "B1",
          "ticks": 15744,
          "time": 20.5,
          "velocity": 0.3937007874015748
        },
        {
          "duration": 0.125,
          "durationTicks": 96,
          "midi": 35,
          "name": "B1",
          "ticks": 15840,
          "time": 20.625,
          "velocity": 0.3937007874015748
        },
        {
          "duration": 0.125,
          "durationTicks": 96,
          "midi": 68,
          "name": "G#4",
          "ticks": 16032,
          "time": 20.875,
          "velocity": 0.3937007874015748
        },
        {
          "duration": 0.125,
          "durationTicks": 96,
          "midi": 35,
          "name": "B1",
          "ticks": 16032,
          "time": 20.875,
          "velocity": 0.3937007874015748
        },
        {
          "duration": 0.125,
          "durationTicks": 96,
          "midi": 67,
          "name": "G4",
          "ticks": 16224,
          "time": 21.125,
          "velocity": 0.3937007874015748
        },
        {
          "duration": 0.125,
          "durationTicks": 96,
          "midi": 35,
          "name": "B1",
          "ticks": 16224,
          "time": 21.125,
          "velocity": 0.3937007874015748
        },
        {
          "duration": 0.125,
          "durationTicks": 96,
          "midi": 65,
          "name": "F4",
          "ticks": 16416,
          "time": 21.375,
          "velocity": 0.3937007874015748
        },
        {
          "duration": 0.125,
          "durationTicks": 96,
          "midi": 35,
          "name": "B1",
          "ticks": 16416,
          "time": 21.375,
          "velocity": 0.3937007874015748
        },
        {
          "duration": 0.125,
          "durationTicks": 96,
          "midi": 62,
          "name": "D4",
          "ticks": 16608,
          "time": 21.625,
          "velocity": 0.3937007874015748
        },
        {
          "duration": 0.125,
          "durationTicks": 96,
          "midi": 35,
          "name": "B1",
          "ticks": 16608,
          "time": 21.625,
          "velocity": 0.3937007874015748
        },
        {
          "duration": 0.125,
          "durationTicks": 96,
          "midi": 65,
          "name": "F4",
          "ticks": 16704,
          "time": 21.75,
          "velocity": 0.3937007874015748
        },
        {
          "duration": 0.125,
          "durationTicks": 96,
          "midi": 35,
          "name": "B1",
          "ticks": 16704,
          "time": 21.75,
          "velocity": 0.3937007874015748
        },
        {
          "duration": 0.125,
          "durationTicks": 96,
          "midi": 67,
          "name": "G4",
          "ticks": 16800,
          "time": 21.875,
          "velocity": 0.3937007874015748
        },
        {
          "duration": 0.125,
          "durationTicks": 96,
          "midi": 35,
          "name": "B1",
          "ticks": 16800,
          "time": 21.875,
          "velocity": 0.3937007874015748
        },
        {
          "duration": 0.125,
          "durationTicks": 96,
          "midi": 58,
          "name": "A#3",
          "ticks": 16896,
          "time": 22,
          "velocity": 0.3937007874015748
        },
        {
          "duration": 0.125,
          "durationTicks": 96,
          "midi": 34,
          "name": "A#1",
          "ticks": 16896,
          "time": 22,
          "velocity": 0.3937007874015748
        },
        {
          "duration": 0.125,
          "durationTicks": 96,
          "midi": 34,
          "name": "A#1",
          "ticks": 16992,
          "time": 22.125,
          "velocity": 0.3937007874015748
        },
        {
          "duration": 0.125,
          "durationTicks": 96,
          "midi": 58,
          "name": "A#3",
          "ticks": 16992,
          "time": 22.125,
          "velocity": 0.3937007874015748
        },
        {
          "duration": 0.125,
          "durationTicks": 96,
          "midi": 74,
          "name": "D5",
          "ticks": 17088,
          "time": 22.25,
          "velocity": 0.3937007874015748
        },
        {
          "duration": 0.125,
          "durationTicks": 96,
          "midi": 34,
          "name": "A#1",
          "ticks": 17088,
          "time": 22.25,
          "velocity": 0.3937007874015748
        },
        {
          "duration": 0.125,
          "durationTicks": 96,
          "midi": 69,
          "name": "A4",
          "ticks": 17280,
          "time": 22.5,
          "velocity": 0.3937007874015748
        },
        {
          "duration": 0.125,
          "durationTicks": 96,
          "midi": 34,
          "name": "A#1",
          "ticks": 17280,
          "time": 22.5,
          "velocity": 0.3937007874015748
        },
        {
          "duration": 0.125,
          "durationTicks": 96,
          "midi": 34,
          "name": "A#1",
          "ticks": 17376,
          "time": 22.625,
          "velocity": 0.3937007874015748
        },
        {
          "duration": 0.125,
          "durationTicks": 96,
          "midi": 68,
          "name": "G#4",
          "ticks": 17568,
          "time": 22.875,
          "velocity": 0.3937007874015748
        },
        {
          "duration": 0.125,
          "durationTicks": 96,
          "midi": 36,
          "name": "C2",
          "ticks": 17568,
          "time": 22.875,
          "velocity": 0.3937007874015748
        },
        {
          "duration": 0.125,
          "durationTicks": 96,
          "midi": 67,
          "name": "G4",
          "ticks": 17760,
          "time": 23.125,
          "velocity": 0.3937007874015748
        },
        {
          "duration": 0.125,
          "durationTicks": 96,
          "midi": 36,
          "name": "C2",
          "ticks": 17760,
          "time": 23.125,
          "velocity": 0.3937007874015748
        },
        {
          "duration": 0.125,
          "durationTicks": 96,
          "midi": 65,
          "name": "F4",
          "ticks": 17952,
          "time": 23.375,
          "velocity": 0.3937007874015748
        },
        {
          "duration": 0.125,
          "durationTicks": 96,
          "midi": 36,
          "name": "C2",
          "ticks": 17952,
          "time": 23.375,
          "velocity": 0.3937007874015748
        },
        {
          "duration": 0.125,
          "durationTicks": 96,
          "midi": 62,
          "name": "D4",
          "ticks": 18144,
          "time": 23.625,
          "velocity": 0.3937007874015748
        },
        {
          "duration": 0.125,
          "durationTicks": 96,
          "midi": 36,
          "name": "C2",
          "ticks": 18144,
          "time": 23.625,
          "velocity": 0.3937007874015748
        },
        {
          "duration": 0.125,
          "durationTicks": 96,
          "midi": 65,
          "name": "F4",
          "ticks": 18240,
          "time": 23.75,
          "velocity": 0.3937007874015748
        },
        {
          "duration": 0.125,
          "durationTicks": 96,
          "midi": 36,
          "name": "C2",
          "ticks": 18240,
          "time": 23.75,
          "velocity": 0.3937007874015748
        },
        {
          "duration": 0.125,
          "durationTicks": 96,
          "midi": 67,
          "name": "G4",
          "ticks": 18336,
          "time": 23.875,
          "velocity": 0.3937007874015748
        },
        {
          "duration": 0.125,
          "durationTicks": 96,
          "midi": 36,
          "name": "C2",
          "ticks": 18336,
          "time": 23.875,
          "velocity": 0.3937007874015748
        },
        {
          "duration": 0.125,
          "durationTicks": 96,
          "midi": 62,
          "name": "D4",
          "ticks": 18432,
          "time": 24,
          "velocity": 0.3937007874015748
        },
        {
          "duration": 0.125,
          "durationTicks": 96,
          "midi": 38,
          "name": "D2",
          "ticks": 18432,
          "time": 24,
          "velocity": 0.3937007874015748
        },
        {
          "duration": 0.125,
          "durationTicks": 96,
          "midi": 62,
          "name": "D4",
          "ticks": 18528,
          "time": 24.125,
          "velocity": 0.3937007874015748
        },
        {
          "duration": 0.125,
          "durationTicks": 96,
          "midi": 38,
          "name": "D2",
          "ticks": 18528,
          "time": 24.125,
          "velocity": 0.3937007874015748
        },
        {
          "duration": 0.125,
          "durationTicks": 96,
          "midi": 74,
          "name": "D5",
          "ticks": 18624,
          "time": 24.25,
          "velocity": 0.3937007874015748
        },
        {
          "duration": 0.125,
          "durationTicks": 96,
          "midi": 38,
          "name": "D2",
          "ticks": 18624,
          "time": 24.25,
          "velocity": 0.3937007874015748
        },
        {
          "duration": 0.125,
          "durationTicks": 96,
          "midi": 69,
          "name": "A4",
          "ticks": 18816,
          "time": 24.5,
          "velocity": 0.3937007874015748
        },
        {
          "duration": 0.125,
          "durationTicks": 96,
          "midi": 38,
          "name": "D2",
          "ticks": 18816,
          "time": 24.5,
          "velocity": 0.3937007874015748
        },
        {
          "duration": 0.125,
          "durationTicks": 96,
          "midi": 38,
          "name": "D2",
          "ticks": 18912,
          "time": 24.625,
          "velocity": 0.3937007874015748
        },
        {
          "duration": 0.125,
          "durationTicks": 96,
          "midi": 68,
          "name": "G#4",
          "ticks": 19104,
          "time": 24.875,
          "velocity": 0.3937007874015748
        },
        {
          "duration": 0.125,
          "durationTicks": 96,
          "midi": 38,
          "name": "D2",
          "ticks": 19104,
          "time": 24.875,
          "velocity": 0.3937007874015748
        },
        {
          "duration": 0.125,
          "durationTicks": 96,
          "midi": 67,
          "name": "G4",
          "ticks": 19296,
          "time": 25.125,
          "velocity": 0.3937007874015748
        },
        {
          "duration": 0.125,
          "durationTicks": 96,
          "midi": 38,
          "name": "D2",
          "ticks": 19296,
          "time": 25.125,
          "velocity": 0.3937007874015748
        },
        {
          "duration": 0.125,
          "durationTicks": 96,
          "midi": 65,
          "name": "F4",
          "ticks": 19488,
          "time": 25.375,
          "velocity": 0.3937007874015748
        },
        {
          "duration": 0.125,
          "durationTicks": 96,
          "midi": 38,
          "name": "D2",
          "ticks": 19488,
          "time": 25.375,
          "velocity": 0.3937007874015748
        },
        {
          "duration": 0.125,
          "durationTicks": 96,
          "midi": 62,
          "name": "D4",
          "ticks": 19680,
          "time": 25.625,
          "velocity": 0.3937007874015748
        },
        {
          "duration": 0.125,
          "durationTicks": 96,
          "midi": 38,
          "name": "D2",
          "ticks": 19680,
          "time": 25.625,
          "velocity": 0.3937007874015748
        },
        {
          "duration": 0.125,
          "durationTicks": 96,
          "midi": 65,
          "name": "F4",
          "ticks": 19776,
          "time": 25.75,
          "velocity": 0.3937007874015748
        },
        {
          "duration": 0.125,
          "durationTicks": 96,
          "midi": 38,
          "name": "D2",
          "ticks": 19776,
          "time": 25.75,
          "velocity": 0.3937007874015748
        },
        {
          "duration": 0.125,
          "durationTicks": 96,
          "midi": 67,
          "name": "G4",
          "ticks": 19872,
          "time": 25.875,
          "velocity": 0.3937007874015748
        },
        {
          "duration": 0.125,
          "durationTicks": 96,
          "midi": 38,
          "name": "D2",
          "ticks": 19872,
          "time": 25.875,
          "velocity": 0.3937007874015748
        },
        {
          "duration": 0.125,
          "durationTicks": 96,
          "midi": 60,
          "name": "C4",
          "ticks": 19968,
          "time": 26,
          "velocity": 0.3937007874015748
        },
        {
          "duration": 0.125,
          "durationTicks": 96,
          "midi": 36,
          "name": "C2",
          "ticks": 19968,
          "time": 26,
          "velocity": 0.3937007874015748
        },
        {
          "duration": 0.125,
          "durationTicks": 96,
          "midi": 60,
          "name": "C4",
          "ticks": 20064,
          "time": 26.125,
          "velocity": 0.3937007874015748
        },
        {
          "duration": 0.125,
          "durationTicks": 96,
          "midi": 36,
          "name": "C2",
          "ticks": 20064,
          "time": 26.125,
          "velocity": 0.3937007874015748
        },
        {
          "duration": 0.125,
          "durationTicks": 96,
          "midi": 74,
          "name": "D5",
          "ticks": 20160,
          "time": 26.25,
          "velocity": 0.3937007874015748
        },
        {
          "duration": 0.125,
          "durationTicks": 96,
          "midi": 36,
          "name": "C2",
          "ticks": 20160,
          "time": 26.25,
          "velocity": 0.3937007874015748
        },
        {
          "duration": 0.125,
          "durationTicks": 96,
          "midi": 69,
          "name": "A4",
          "ticks": 20352,
          "time": 26.5,
          "velocity": 0.3937007874015748
        },
        {
          "duration": 0.125,
          "durationTicks": 96,
          "midi": 36,
          "name": "C2",
          "ticks": 20352,
          "time": 26.5,
          "velocity": 0.3937007874015748
        },
        {
          "duration": 0.125,
          "durationTicks": 96,
          "midi": 36,
          "name": "C2",
          "ticks": 20448,
          "time": 26.625,
          "velocity": 0.3937007874015748
        },
        {
          "duration": 0.125,
          "durationTicks": 96,
          "midi": 68,
          "name": "G#4",
          "ticks": 20640,
          "time": 26.875,
          "velocity": 0.3937007874015748
        },
        {
          "duration": 0.125,
          "durationTicks": 96,
          "midi": 36,
          "name": "C2",
          "ticks": 20640,
          "time": 26.875,
          "velocity": 0.3937007874015748
        },
        {
          "duration": 0.125,
          "durationTicks": 96,
          "midi": 67,
          "name": "G4",
          "ticks": 20832,
          "time": 27.125,
          "velocity": 0.3937007874015748
        },
        {
          "duration": 0.125,
          "durationTicks": 96,
          "midi": 36,
          "name": "C2",
          "ticks": 20832,
          "time": 27.125,
          "velocity": 0.3937007874015748
        },
        {
          "duration": 0.125,
          "durationTicks": 96,
          "midi": 65,
          "name": "F4",
          "ticks": 21024,
          "time": 27.375,
          "velocity": 0.3937007874015748
        },
        {
          "duration": 0.125,
          "durationTicks": 96,
          "midi": 36,
          "name": "C2",
          "ticks": 21024,
          "time": 27.375,
          "velocity": 0.3937007874015748
        },
        {
          "duration": 0.125,
          "durationTicks": 96,
          "midi": 62,
          "name": "D4",
          "ticks": 21216,
          "time": 27.625,
          "velocity": 0.3937007874015748
        },
        {
          "duration": 0.125,
          "durationTicks": 96,
          "midi": 36,
          "name": "C2",
          "ticks": 21216,
          "time": 27.625,
          "velocity": 0.3937007874015748
        },
        {
          "duration": 0.125,
          "durationTicks": 96,
          "midi": 65,
          "name": "F4",
          "ticks": 21312,
          "time": 27.75,
          "velocity": 0.3937007874015748
        },
        {
          "duration": 0.125,
          "durationTicks": 96,
          "midi": 36,
          "name": "C2",
          "ticks": 21312,
          "time": 27.75,
          "velocity": 0.3937007874015748
        },
        {
          "duration": 0.125,
          "durationTicks": 96,
          "midi": 67,
          "name": "G4",
          "ticks": 21408,
          "time": 27.875,
          "velocity": 0.3937007874015748
        },
        {
          "duration": 0.125,
          "durationTicks": 96,
          "midi": 36,
          "name": "C2",
          "ticks": 21408,
          "time": 27.875,
          "velocity": 0.3937007874015748
        },
        {
          "duration": 0.125,
          "durationTicks": 96,
          "midi": 59,
          "name": "B3",
          "ticks": 21504,
          "time": 28,
          "velocity": 0.3937007874015748
        },
        {
          "duration": 0.125,
          "durationTicks": 96,
          "midi": 35,
          "name": "B1",
          "ticks": 21504,
          "time": 28,
          "velocity": 0.3937007874015748
        },
        {
          "duration": 0.125,
          "durationTicks": 96,
          "midi": 35,
          "name": "B1",
          "ticks": 21600,
          "time": 28.125,
          "velocity": 0.3937007874015748
        },
        {
          "duration": 0.125,
          "durationTicks": 96,
          "midi": 59,
          "name": "B3",
          "ticks": 21600,
          "time": 28.125,
          "velocity": 0.3937007874015748
        },
        {
          "duration": 0.125,
          "durationTicks": 96,
          "midi": 74,
          "name": "D5",
          "ticks": 21696,
          "time": 28.25,
          "velocity": 0.3937007874015748
        },
        {
          "duration": 0.125,
          "durationTicks": 96,
          "midi": 35,
          "name": "B1",
          "ticks": 21696,
          "time": 28.25,
          "velocity": 0.3937007874015748
        },
        {
          "duration": 0.125,
          "durationTicks": 96,
          "midi": 69,
          "name": "A4",
          "ticks": 21888,
          "time": 28.5,
          "velocity": 0.3937007874015748
        },
        {
          "duration": 0.125,
          "durationTicks": 96,
          "midi": 35,
          "name": "B1",
          "ticks": 21888,
          "time": 28.5,
          "velocity": 0.3937007874015748
        },
        {
          "duration": 0.125,
          "durationTicks": 96,
          "midi": 35,
          "name": "B1",
          "ticks": 21984,
          "time": 28.625,
          "velocity": 0.3937007874015748
        },
        {
          "duration": 0.125,
          "durationTicks": 96,
          "midi": 68,
          "name": "G#4",
          "ticks": 22176,
          "time": 28.875,
          "velocity": 0.3937007874015748
        },
        {
          "duration": 0.125,
          "durationTicks": 96,
          "midi": 35,
          "name": "B1",
          "ticks": 22176,
          "time": 28.875,
          "velocity": 0.3937007874015748
        },
        {
          "duration": 0.125,
          "durationTicks": 96,
          "midi": 67,
          "name": "G4",
          "ticks": 22368,
          "time": 29.125,
          "velocity": 0.3937007874015748
        },
        {
          "duration": 0.125,
          "durationTicks": 96,
          "midi": 35,
          "name": "B1",
          "ticks": 22368,
          "time": 29.125,
          "velocity": 0.3937007874015748
        },
        {
          "duration": 0.125,
          "durationTicks": 96,
          "midi": 65,
          "name": "F4",
          "ticks": 22560,
          "time": 29.375,
          "velocity": 0.3937007874015748
        },
        {
          "duration": 0.125,
          "durationTicks": 96,
          "midi": 35,
          "name": "B1",
          "ticks": 22560,
          "time": 29.375,
          "velocity": 0.3937007874015748
        },
        {
          "duration": 0.125,
          "durationTicks": 96,
          "midi": 62,
          "name": "D4",
          "ticks": 22752,
          "time": 29.625,
          "velocity": 0.3937007874015748
        },
        {
          "duration": 0.125,
          "durationTicks": 96,
          "midi": 35,
          "name": "B1",
          "ticks": 22752,
          "time": 29.625,
          "velocity": 0.3937007874015748
        },
        {
          "duration": 0.125,
          "durationTicks": 96,
          "midi": 65,
          "name": "F4",
          "ticks": 22848,
          "time": 29.75,
          "velocity": 0.3937007874015748
        },
        {
          "duration": 0.125,
          "durationTicks": 96,
          "midi": 35,
          "name": "B1",
          "ticks": 22848,
          "time": 29.75,
          "velocity": 0.3937007874015748
        },
        {
          "duration": 0.125,
          "durationTicks": 96,
          "midi": 67,
          "name": "G4",
          "ticks": 22944,
          "time": 29.875,
          "velocity": 0.3937007874015748
        },
        {
          "duration": 0.125,
          "durationTicks": 96,
          "midi": 35,
          "name": "B1",
          "ticks": 22944,
          "time": 29.875,
          "velocity": 0.3937007874015748
        },
        {
          "duration": 0.125,
          "durationTicks": 96,
          "midi": 58,
          "name": "A#3",
          "ticks": 23040,
          "time": 30,
          "velocity": 0.3937007874015748
        },
        {
          "duration": 0.125,
          "durationTicks": 96,
          "midi": 34,
          "name": "A#1",
          "ticks": 23040,
          "time": 30,
          "velocity": 0.3937007874015748
        },
        {
          "duration": 0.125,
          "durationTicks": 96,
          "midi": 34,
          "name": "A#1",
          "ticks": 23136,
          "time": 30.125,
          "velocity": 0.3937007874015748
        },
        {
          "duration": 0.125,
          "durationTicks": 96,
          "midi": 58,
          "name": "A#3",
          "ticks": 23136,
          "time": 30.125,
          "velocity": 0.3937007874015748
        },
        {
          "duration": 0.125,
          "durationTicks": 96,
          "midi": 74,
          "name": "D5",
          "ticks": 23232,
          "time": 30.25,
          "velocity": 0.3937007874015748
        },
        {
          "duration": 0.125,
          "durationTicks": 96,
          "midi": 34,
          "name": "A#1",
          "ticks": 23232,
          "time": 30.25,
          "velocity": 0.3937007874015748
        },
        {
          "duration": 0.125,
          "durationTicks": 96,
          "midi": 69,
          "name": "A4",
          "ticks": 23424,
          "time": 30.5,
          "velocity": 0.3937007874015748
        },
        {
          "duration": 0.125,
          "durationTicks": 96,
          "midi": 34,
          "name": "A#1",
          "ticks": 23424,
          "time": 30.5,
          "velocity": 0.3937007874015748
        },
        {
          "duration": 0.125,
          "durationTicks": 96,
          "midi": 34,
          "name": "A#1",
          "ticks": 23520,
          "time": 30.625,
          "velocity": 0.3937007874015748
        },
        {
          "duration": 0.125,
          "durationTicks": 96,
          "midi": 68,
          "name": "G#4",
          "ticks": 23712,
          "time": 30.875,
          "velocity": 0.3937007874015748
        },
        {
          "duration": 0.125,
          "durationTicks": 96,
          "midi": 36,
          "name": "C2",
          "ticks": 23712,
          "time": 30.875,
          "velocity": 0.3937007874015748
        },
        {
          "duration": 0.125,
          "durationTicks": 96,
          "midi": 67,
          "name": "G4",
          "ticks": 23904,
          "time": 31.125,
          "velocity": 0.3937007874015748
        },
        {
          "duration": 0.125,
          "durationTicks": 96,
          "midi": 36,
          "name": "C2",
          "ticks": 23904,
          "time": 31.125,
          "velocity": 0.3937007874015748
        },
        {
          "duration": 0.125,
          "durationTicks": 96,
          "midi": 65,
          "name": "F4",
          "ticks": 24096,
          "time": 31.375,
          "velocity": 0.3937007874015748
        },
        {
          "duration": 0.125,
          "durationTicks": 96,
          "midi": 36,
          "name": "C2",
          "ticks": 24096,
          "time": 31.375,
          "velocity": 0.3937007874015748
        },
        {
          "duration": 0.125,
          "durationTicks": 96,
          "midi": 62,
          "name": "D4",
          "ticks": 24288,
          "time": 31.625,
          "velocity": 0.3937007874015748
        },
        {
          "duration": 0.125,
          "durationTicks": 96,
          "midi": 36,
          "name": "C2",
          "ticks": 24288,
          "time": 31.625,
          "velocity": 0.3937007874015748
        },
        {
          "duration": 0.125,
          "durationTicks": 96,
          "midi": 65,
          "name": "F4",
          "ticks": 24384,
          "time": 31.75,
          "velocity": 0.3937007874015748
        },
        {
          "duration": 0.125,
          "durationTicks": 96,
          "midi": 36,
          "name": "C2",
          "ticks": 24384,
          "time": 31.75,
          "velocity": 0.3937007874015748
        },
        {
          "duration": 0.125,
          "durationTicks": 96,
          "midi": 67,
          "name": "G4",
          "ticks": 24480,
          "time": 31.875,
          "velocity": 0.3937007874015748
        },
        {
          "duration": 0.125,
          "durationTicks": 96,
          "midi": 36,
          "name": "C2",
          "ticks": 24480,
          "time": 31.875,
          "velocity": 0.3937007874015748
        },
        {
          "duration": 0.125,
          "durationTicks": 96,
          "midi": 65,
          "name": "F4",
          "ticks": 24576,
          "time": 32,
          "velocity": 0.3937007874015748
        },
        {
          "duration": 0.125,
          "durationTicks": 96,
          "midi": 38,
          "name": "D2",
          "ticks": 24576,
          "time": 32,
          "velocity": 0.3937007874015748
        },
        {
          "duration": 0.125,
          "durationTicks": 96,
          "midi": 38,
          "name": "D2",
          "ticks": 24672,
          "time": 32.125,
          "velocity": 0.3937007874015748
        },
        {
          "duration": 0.125,
          "durationTicks": 96,
          "midi": 65,
          "name": "F4",
          "ticks": 24768,
          "time": 32.25,
          "velocity": 0.3937007874015748
        },
        {
          "duration": 0.125,
          "durationTicks": 96,
          "midi": 38,
          "name": "D2",
          "ticks": 24768,
          "time": 32.25,
          "velocity": 0.3937007874015748
        },
        {
          "duration": 0.125,
          "durationTicks": 96,
          "midi": 65,
          "name": "F4",
          "ticks": 24864,
          "time": 32.375,
          "velocity": 0.3937007874015748
        },
        {
          "duration": 0.125,
          "durationTicks": 96,
          "midi": 38,
          "name": "D2",
          "ticks": 24960,
          "time": 32.5,
          "velocity": 0.3937007874015748
        },
        {
          "duration": 0.125,
          "durationTicks": 96,
          "midi": 65,
          "name": "F4",
          "ticks": 25056,
          "time": 32.625,
          "velocity": 0.3937007874015748
        },
        {
          "duration": 0.125,
          "durationTicks": 96,
          "midi": 38,
          "name": "D2",
          "ticks": 25056,
          "time": 32.625,
          "velocity": 0.3937007874015748
        },
        {
          "duration": 0.125,
          "durationTicks": 96,
          "midi": 65,
          "name": "F4",
          "ticks": 25248,
          "time": 32.875,
          "velocity": 0.3937007874015748
        },
        {
          "duration": 0.125,
          "durationTicks": 96,
          "midi": 38,
          "name": "D2",
          "ticks": 25248,
          "time": 32.875,
          "velocity": 0.3937007874015748
        },
        {
          "duration": 0.125,
          "durationTicks": 96,
          "midi": 62,
          "name": "D4",
          "ticks": 25440,
          "time": 33.125,
          "velocity": 0.3937007874015748
        },
        {
          "duration": 0.125,
          "durationTicks": 96,
          "midi": 38,
          "name": "D2",
          "ticks": 25440,
          "time": 33.125,
          "velocity": 0.3937007874015748
        },
        {
          "duration": 0.125,
          "durationTicks": 96,
          "midi": 62,
          "name": "D4",
          "ticks": 25632,
          "time": 33.375,
          "velocity": 0.3937007874015748
        },
        {
          "duration": 0.125,
          "durationTicks": 96,
          "midi": 38,
          "name": "D2",
          "ticks": 25632,
          "time": 33.375,
          "velocity": 0.3937007874015748
        },
        {
          "duration": 0.125,
          "durationTicks": 96,
          "midi": 38,
          "name": "D2",
          "ticks": 25824,
          "time": 33.625,
          "velocity": 0.3937007874015748
        },
        {
          "duration": 0.125,
          "durationTicks": 96,
          "midi": 38,
          "name": "D2",
          "ticks": 25920,
          "time": 33.75,
          "velocity": 0.3937007874015748
        },
        {
          "duration": 0.125,
          "durationTicks": 96,
          "midi": 38,
          "name": "D2",
          "ticks": 26016,
          "time": 33.875,
          "velocity": 0.3937007874015748
        },
        {
          "duration": 0.125,
          "durationTicks": 96,
          "midi": 65,
          "name": "F4",
          "ticks": 26112,
          "time": 34,
          "velocity": 0.3937007874015748
        },
        {
          "duration": 0.125,
          "durationTicks": 96,
          "midi": 36,
          "name": "C2",
          "ticks": 26112,
          "time": 34,
          "velocity": 0.3937007874015748
        },
        {
          "duration": 0.125,
          "durationTicks": 96,
          "midi": 36,
          "name": "C2",
          "ticks": 26208,
          "time": 34.125,
          "velocity": 0.3937007874015748
        },
        {
          "duration": 0.125,
          "durationTicks": 96,
          "midi": 65,
          "name": "F4",
          "ticks": 26304,
          "time": 34.25,
          "velocity": 0.3937007874015748
        },
        {
          "duration": 0.125,
          "durationTicks": 96,
          "midi": 36,
          "name": "C2",
          "ticks": 26304,
          "time": 34.25,
          "velocity": 0.3937007874015748
        },
        {
          "duration": 0.125,
          "durationTicks": 96,
          "midi": 65,
          "name": "F4",
          "ticks": 26400,
          "time": 34.375,
          "velocity": 0.3937007874015748
        },
        {
          "duration": 0.125,
          "durationTicks": 96,
          "midi": 36,
          "name": "C2",
          "ticks": 26496,
          "time": 34.5,
          "velocity": 0.3937007874015748
        },
        {
          "duration": 0.125,
          "durationTicks": 96,
          "midi": 67,
          "name": "G4",
          "ticks": 26592,
          "time": 34.625,
          "velocity": 0.3937007874015748
        },
        {
          "duration": 0.125,
          "durationTicks": 96,
          "midi": 36,
          "name": "C2",
          "ticks": 26592,
          "time": 34.625,
          "velocity": 0.3937007874015748
        },
        {
          "duration": 0.125,
          "durationTicks": 96,
          "midi": 68,
          "name": "G#4",
          "ticks": 26784,
          "time": 34.875,
          "velocity": 0.3937007874015748
        },
        {
          "duration": 0.125,
          "durationTicks": 96,
          "midi": 36,
          "name": "C2",
          "ticks": 26784,
          "time": 34.875,
          "velocity": 0.3937007874015748
        },
        {
          "duration": 0.125,
          "durationTicks": 96,
          "midi": 67,
          "name": "G4",
          "ticks": 26976,
          "time": 35.125,
          "velocity": 0.3937007874015748
        },
        {
          "duration": 0.125,
          "durationTicks": 96,
          "midi": 36,
          "name": "C2",
          "ticks": 26976,
          "time": 35.125,
          "velocity": 0.3937007874015748
        },
        {
          "duration": 0.125,
          "durationTicks": 96,
          "midi": 65,
          "name": "F4",
          "ticks": 27072,
          "time": 35.25,
          "velocity": 0.3937007874015748
        },
        {
          "duration": 0.125,
          "durationTicks": 96,
          "midi": 62,
          "name": "D4",
          "ticks": 27168,
          "time": 35.375,
          "velocity": 0.3937007874015748
        },
        {
          "duration": 0.125,
          "durationTicks": 96,
          "midi": 36,
          "name": "C2",
          "ticks": 27168,
          "time": 35.375,
          "velocity": 0.3937007874015748
        },
        {
          "duration": 0.125,
          "durationTicks": 96,
          "midi": 65,
          "name": "F4",
          "ticks": 27264,
          "time": 35.5,
          "velocity": 0.3937007874015748
        },
        {
          "duration": 0.125,
          "durationTicks": 96,
          "midi": 67,
          "name": "G4",
          "ticks": 27360,
          "time": 35.625,
          "velocity": 0.3937007874015748
        },
        {
          "duration": 0.125,
          "durationTicks": 96,
          "midi": 36,
          "name": "C2",
          "ticks": 27360,
          "time": 35.625,
          "velocity": 0.3937007874015748
        },
        {
          "duration": 0.125,
          "durationTicks": 96,
          "midi": 36,
          "name": "C2",
          "ticks": 27456,
          "time": 35.75,
          "velocity": 0.3937007874015748
        },
        {
          "duration": 0.125,
          "durationTicks": 96,
          "midi": 36,
          "name": "C2",
          "ticks": 27552,
          "time": 35.875,
          "velocity": 0.3937007874015748
        },
        {
          "duration": 0.125,
          "durationTicks": 96,
          "midi": 65,
          "name": "F4",
          "ticks": 27648,
          "time": 36,
          "velocity": 0.3937007874015748
        },
        {
          "duration": 0.125,
          "durationTicks": 96,
          "midi": 65,
          "name": "F4",
          "ticks": 27648,
          "time": 36,
          "velocity": 0.3937007874015748
        },
        {
          "duration": 0.125,
          "durationTicks": 96,
          "midi": 35,
          "name": "B1",
          "ticks": 27648,
          "time": 36,
          "velocity": 0.3937007874015748
        },
        {
          "duration": 0.125,
          "durationTicks": 96,
          "midi": 35,
          "name": "B1",
          "ticks": 27744,
          "time": 36.125,
          "velocity": 0.3937007874015748
        },
        {
          "duration": 0.125,
          "durationTicks": 96,
          "midi": 65,
          "name": "F4",
          "ticks": 27840,
          "time": 36.25,
          "velocity": 0.3937007874015748
        },
        {
          "duration": 0.125,
          "durationTicks": 96,
          "midi": 65,
          "name": "F4",
          "ticks": 27840,
          "time": 36.25,
          "velocity": 0.3937007874015748
        },
        {
          "duration": 0.125,
          "durationTicks": 96,
          "midi": 35,
          "name": "B1",
          "ticks": 27840,
          "time": 36.25,
          "velocity": 0.3937007874015748
        },
        {
          "duration": 0.125,
          "durationTicks": 96,
          "midi": 65,
          "name": "F4",
          "ticks": 27936,
          "time": 36.375,
          "velocity": 0.3937007874015748
        },
        {
          "duration": 0.125,
          "durationTicks": 96,
          "midi": 35,
          "name": "B1",
          "ticks": 28032,
          "time": 36.5,
          "velocity": 0.3937007874015748
        },
        {
          "duration": 0.125,
          "durationTicks": 96,
          "midi": 67,
          "name": "G4",
          "ticks": 28128,
          "time": 36.625,
          "velocity": 0.3937007874015748
        },
        {
          "duration": 0.125,
          "durationTicks": 96,
          "midi": 35,
          "name": "B1",
          "ticks": 28128,
          "time": 36.625,
          "velocity": 0.3937007874015748
        },
        {
          "duration": 0.125,
          "durationTicks": 96,
          "midi": 68,
          "name": "G#4",
          "ticks": 28320,
          "time": 36.875,
          "velocity": 0.3937007874015748
        },
        {
          "duration": 0.125,
          "durationTicks": 96,
          "midi": 35,
          "name": "B1",
          "ticks": 28320,
          "time": 36.875,
          "velocity": 0.3937007874015748
        },
        {
          "duration": 0.125,
          "durationTicks": 96,
          "midi": 69,
          "name": "A4",
          "ticks": 28512,
          "time": 37.125,
          "velocity": 0.3937007874015748
        },
        {
          "duration": 0.125,
          "durationTicks": 96,
          "midi": 35,
          "name": "B1",
          "ticks": 28512,
          "time": 37.125,
          "velocity": 0.3937007874015748
        },
        {
          "duration": 0.125,
          "durationTicks": 96,
          "midi": 72,
          "name": "C5",
          "ticks": 28704,
          "time": 37.375,
          "velocity": 0.3937007874015748
        },
        {
          "duration": 0.125,
          "durationTicks": 96,
          "midi": 35,
          "name": "B1",
          "ticks": 28704,
          "time": 37.375,
          "velocity": 0.3937007874015748
        },
        {
          "duration": 0.125,
          "durationTicks": 96,
          "midi": 69,
          "name": "A4",
          "ticks": 28896,
          "time": 37.625,
          "velocity": 0.3937007874015748
        },
        {
          "duration": 0.125,
          "durationTicks": 96,
          "midi": 35,
          "name": "B1",
          "ticks": 28896,
          "time": 37.625,
          "velocity": 0.3937007874015748
        },
        {
          "duration": 0.125,
          "durationTicks": 96,
          "midi": 35,
          "name": "B1",
          "ticks": 28992,
          "time": 37.75,
          "velocity": 0.3937007874015748
        },
        {
          "duration": 0.125,
          "durationTicks": 96,
          "midi": 35,
          "name": "B1",
          "ticks": 29088,
          "time": 37.875,
          "velocity": 0.3937007874015748
        },
        {
          "duration": 0.125,
          "durationTicks": 96,
          "midi": 74,
          "name": "D5",
          "ticks": 29184,
          "time": 38,
          "velocity": 0.3937007874015748
        },
        {
          "duration": 0.125,
          "durationTicks": 96,
          "midi": 34,
          "name": "A#1",
          "ticks": 29184,
          "time": 38,
          "velocity": 0.3937007874015748
        },
        {
          "duration": 0.125,
          "durationTicks": 96,
          "midi": 34,
          "name": "A#1",
          "ticks": 29280,
          "time": 38.125,
          "velocity": 0.3937007874015748
        },
        {
          "duration": 0.125,
          "durationTicks": 96,
          "midi": 74,
          "name": "D5",
          "ticks": 29376,
          "time": 38.25,
          "velocity": 0.3937007874015748
        },
        {
          "duration": 0.125,
          "durationTicks": 96,
          "midi": 34,
          "name": "A#1",
          "ticks": 29376,
          "time": 38.25,
          "velocity": 0.3937007874015748
        },
        {
          "duration": 0.125,
          "durationTicks": 96,
          "midi": 74,
          "name": "D5",
          "ticks": 29568,
          "time": 38.5,
          "velocity": 0.3937007874015748
        },
        {
          "duration": 0.125,
          "durationTicks": 96,
          "midi": 34,
          "name": "A#1",
          "ticks": 29568,
          "time": 38.5,
          "velocity": 0.3937007874015748
        },
        {
          "duration": 0.125,
          "durationTicks": 96,
          "midi": 69,
          "name": "A4",
          "ticks": 29664,
          "time": 38.625,
          "velocity": 0.3937007874015748
        },
        {
          "duration": 0.125,
          "durationTicks": 96,
          "midi": 34,
          "name": "A#1",
          "ticks": 29664,
          "time": 38.625,
          "velocity": 0.3937007874015748
        },
        {
          "duration": 0.125,
          "durationTicks": 96,
          "midi": 74,
          "name": "D5",
          "ticks": 29760,
          "time": 38.75,
          "velocity": 0.3937007874015748
        },
        {
          "duration": 0.125,
          "durationTicks": 96,
          "midi": 72,
          "name": "C5",
          "ticks": 29856,
          "time": 38.875,
          "velocity": 0.3937007874015748
        },
        {
          "duration": 0.125,
          "durationTicks": 96,
          "midi": 36,
          "name": "C2",
          "ticks": 29856,
          "time": 38.875,
          "velocity": 0.3937007874015748
        },
        {
          "duration": 0.125,
          "durationTicks": 96,
          "midi": 36,
          "name": "C2",
          "ticks": 30048,
          "time": 39.125,
          "velocity": 0.3937007874015748
        },
        {
          "duration": 0.125,
          "durationTicks": 96,
          "midi": 36,
          "name": "C2",
          "ticks": 30240,
          "time": 39.375,
          "velocity": 0.3937007874015748
        },
        {
          "duration": 0.125,
          "durationTicks": 96,
          "midi": 79,
          "name": "G5",
          "ticks": 30240,
          "time": 39.375,
          "velocity": 0.3937007874015748
        },
        {
          "duration": 0.125,
          "durationTicks": 96,
          "midi": 36,
          "name": "C2",
          "ticks": 30432,
          "time": 39.625,
          "velocity": 0.3937007874015748
        },
        {
          "duration": 0.125,
          "durationTicks": 96,
          "midi": 36,
          "name": "C2",
          "ticks": 30528,
          "time": 39.75,
          "velocity": 0.3937007874015748
        },
        {
          "duration": 0.125,
          "durationTicks": 96,
          "midi": 36,
          "name": "C2",
          "ticks": 30624,
          "time": 39.875,
          "velocity": 0.3937007874015748
        },
        {
          "duration": 0.125,
          "durationTicks": 96,
          "midi": 69,
          "name": "A4",
          "ticks": 30720,
          "time": 40,
          "velocity": 0.3937007874015748
        },
        {
          "duration": 0.125,
          "durationTicks": 96,
          "midi": 38,
          "name": "D2",
          "ticks": 30720,
          "time": 40,
          "velocity": 0.3937007874015748
        },
        {
          "duration": 0.125,
          "durationTicks": 96,
          "midi": 50,
          "name": "D3",
          "ticks": 30720,
          "time": 40,
          "velocity": 0.3937007874015748
        },
        {
          "duration": 0.125,
          "durationTicks": 96,
          "midi": 38,
          "name": "D2",
          "ticks": 30816,
          "time": 40.125,
          "velocity": 0.3937007874015748
        },
        {
          "duration": 0.125,
          "durationTicks": 96,
          "midi": 50,
          "name": "D3",
          "ticks": 30816,
          "time": 40.125,
          "velocity": 0.3937007874015748
        },
        {
          "duration": 0.125,
          "durationTicks": 96,
          "midi": 69,
          "name": "A4",
          "ticks": 30912,
          "time": 40.25,
          "velocity": 0.3937007874015748
        },
        {
          "duration": 0.125,
          "durationTicks": 96,
          "midi": 38,
          "name": "D2",
          "ticks": 30912,
          "time": 40.25,
          "velocity": 0.3937007874015748
        },
        {
          "duration": 0.125,
          "durationTicks": 96,
          "midi": 62,
          "name": "D4",
          "ticks": 30912,
          "time": 40.25,
          "velocity": 0.3937007874015748
        },
        {
          "duration": 0.125,
          "durationTicks": 96,
          "midi": 69,
          "name": "A4",
          "ticks": 31008,
          "time": 40.375,
          "velocity": 0.3937007874015748
        },
        {
          "duration": 0.125,
          "durationTicks": 96,
          "midi": 38,
          "name": "D2",
          "ticks": 31104,
          "time": 40.5,
          "velocity": 0.3937007874015748
        },
        {
          "duration": 0.125,
          "durationTicks": 96,
          "midi": 57,
          "name": "A3",
          "ticks": 31104,
          "time": 40.5,
          "velocity": 0.3937007874015748
        },
        {
          "duration": 0.125,
          "durationTicks": 96,
          "midi": 69,
          "name": "A4",
          "ticks": 31200,
          "time": 40.625,
          "velocity": 0.3937007874015748
        },
        {
          "duration": 0.125,
          "durationTicks": 96,
          "midi": 38,
          "name": "D2",
          "ticks": 31200,
          "time": 40.625,
          "velocity": 0.3937007874015748
        },
        {
          "duration": 0.125,
          "durationTicks": 96,
          "midi": 69,
          "name": "A4",
          "ticks": 31392,
          "time": 40.875,
          "velocity": 0.3937007874015748
        },
        {
          "duration": 0.125,
          "durationTicks": 96,
          "midi": 38,
          "name": "D2",
          "ticks": 31392,
          "time": 40.875,
          "velocity": 0.3937007874015748
        },
        {
          "duration": 0.125,
          "durationTicks": 96,
          "midi": 56,
          "name": "G#3",
          "ticks": 31392,
          "time": 40.875,
          "velocity": 0.3937007874015748
        },
        {
          "duration": 0.125,
          "durationTicks": 96,
          "midi": 67,
          "name": "G4",
          "ticks": 31584,
          "time": 41.125,
          "velocity": 0.3937007874015748
        },
        {
          "duration": 0.125,
          "durationTicks": 96,
          "midi": 38,
          "name": "D2",
          "ticks": 31584,
          "time": 41.125,
          "velocity": 0.3937007874015748
        },
        {
          "duration": 0.125,
          "durationTicks": 96,
          "midi": 55,
          "name": "G3",
          "ticks": 31584,
          "time": 41.125,
          "velocity": 0.3937007874015748
        },
        {
          "duration": 0.125,
          "durationTicks": 96,
          "midi": 67,
          "name": "G4",
          "ticks": 31776,
          "time": 41.375,
          "velocity": 0.3937007874015748
        },
        {
          "duration": 0.125,
          "durationTicks": 96,
          "midi": 38,
          "name": "D2",
          "ticks": 31776,
          "time": 41.375,
          "velocity": 0.3937007874015748
        },
        {
          "duration": 0.125,
          "durationTicks": 96,
          "midi": 53,
          "name": "F3",
          "ticks": 31776,
          "time": 41.375,
          "velocity": 0.3937007874015748
        },
        {
          "duration": 0.125,
          "durationTicks": 96,
          "midi": 38,
          "name": "D2",
          "ticks": 31968,
          "time": 41.625,
          "velocity": 0.3937007874015748
        },
        {
          "duration": 0.125,
          "durationTicks": 96,
          "midi": 50,
          "name": "D3",
          "ticks": 31968,
          "time": 41.625,
          "velocity": 0.3937007874015748
        },
        {
          "duration": 0.125,
          "durationTicks": 96,
          "midi": 38,
          "name": "D2",
          "ticks": 32064,
          "time": 41.75,
          "velocity": 0.3937007874015748
        },
        {
          "duration": 0.125,
          "durationTicks": 96,
          "midi": 53,
          "name": "F3",
          "ticks": 32064,
          "time": 41.75,
          "velocity": 0.3937007874015748
        },
        {
          "duration": 0.125,
          "durationTicks": 96,
          "midi": 38,
          "name": "D2",
          "ticks": 32160,
          "time": 41.875,
          "velocity": 0.3937007874015748
        },
        {
          "duration": 0.125,
          "durationTicks": 96,
          "midi": 55,
          "name": "G3",
          "ticks": 32160,
          "time": 41.875,
          "velocity": 0.3937007874015748
        },
        {
          "duration": 0.125,
          "durationTicks": 96,
          "midi": 69,
          "name": "A4",
          "ticks": 32256,
          "time": 42,
          "velocity": 0.3937007874015748
        },
        {
          "duration": 0.125,
          "durationTicks": 96,
          "midi": 36,
          "name": "C2",
          "ticks": 32256,
          "time": 42,
          "velocity": 0.3937007874015748
        },
        {
          "duration": 0.125,
          "durationTicks": 96,
          "midi": 48,
          "name": "C3",
          "ticks": 32256,
          "time": 42,
          "velocity": 0.3937007874015748
        },
        {
          "duration": 0.125,
          "durationTicks": 96,
          "midi": 36,
          "name": "C2",
          "ticks": 32352,
          "time": 42.125,
          "velocity": 0.3937007874015748
        },
        {
          "duration": 0.125,
          "durationTicks": 96,
          "midi": 48,
          "name": "C3",
          "ticks": 32352,
          "time": 42.125,
          "velocity": 0.3937007874015748
        },
        {
          "duration": 0.125,
          "durationTicks": 96,
          "midi": 69,
          "name": "A4",
          "ticks": 32448,
          "time": 42.25,
          "velocity": 0.3937007874015748
        },
        {
          "duration": 0.125,
          "durationTicks": 96,
          "midi": 36,
          "name": "C2",
          "ticks": 32448,
          "time": 42.25,
          "velocity": 0.3937007874015748
        },
        {
          "duration": 0.125,
          "durationTicks": 96,
          "midi": 62,
          "name": "D4",
          "ticks": 32448,
          "time": 42.25,
          "velocity": 0.3937007874015748
        },
        {
          "duration": 0.125,
          "durationTicks": 96,
          "midi": 69,
          "name": "A4",
          "ticks": 32544,
          "time": 42.375,
          "velocity": 0.3937007874015748
        },
        {
          "duration": 0.125,
          "durationTicks": 96,
          "midi": 36,
          "name": "C2",
          "ticks": 32640,
          "time": 42.5,
          "velocity": 0.3937007874015748
        },
        {
          "duration": 0.125,
          "durationTicks": 96,
          "midi": 57,
          "name": "A3",
          "ticks": 32640,
          "time": 42.5,
          "velocity": 0.3937007874015748
        },
        {
          "duration": 0.125,
          "durationTicks": 96,
          "midi": 69,
          "name": "A4",
          "ticks": 32736,
          "time": 42.625,
          "velocity": 0.3937007874015748
        },
        {
          "duration": 0.125,
          "durationTicks": 96,
          "midi": 36,
          "name": "C2",
          "ticks": 32736,
          "time": 42.625,
          "velocity": 0.3937007874015748
        },
        {
          "duration": 0.125,
          "durationTicks": 96,
          "midi": 69,
          "name": "A4",
          "ticks": 32928,
          "time": 42.875,
          "velocity": 0.3937007874015748
        },
        {
          "duration": 0.125,
          "durationTicks": 96,
          "midi": 36,
          "name": "C2",
          "ticks": 32928,
          "time": 42.875,
          "velocity": 0.3937007874015748
        },
        {
          "duration": 0.125,
          "durationTicks": 96,
          "midi": 56,
          "name": "G#3",
          "ticks": 32928,
          "time": 42.875,
          "velocity": 0.3937007874015748
        },
        {
          "duration": 0.125,
          "durationTicks": 96,
          "midi": 65,
          "name": "F4",
          "ticks": 33120,
          "time": 43.125,
          "velocity": 0.3937007874015748
        },
        {
          "duration": 0.125,
          "durationTicks": 96,
          "midi": 36,
          "name": "C2",
          "ticks": 33120,
          "time": 43.125,
          "velocity": 0.3937007874015748
        },
        {
          "duration": 0.125,
          "durationTicks": 96,
          "midi": 55,
          "name": "G3",
          "ticks": 33120,
          "time": 43.125,
          "velocity": 0.3937007874015748
        },
        {
          "duration": 0.125,
          "durationTicks": 96,
          "midi": 74,
          "name": "D5",
          "ticks": 33312,
          "time": 43.375,
          "velocity": 0.3937007874015748
        },
        {
          "duration": 0.125,
          "durationTicks": 96,
          "midi": 36,
          "name": "C2",
          "ticks": 33312,
          "time": 43.375,
          "velocity": 0.3937007874015748
        },
        {
          "duration": 0.125,
          "durationTicks": 96,
          "midi": 53,
          "name": "F3",
          "ticks": 33312,
          "time": 43.375,
          "velocity": 0.3937007874015748
        },
        {
          "duration": 0.125,
          "durationTicks": 96,
          "midi": 69,
          "name": "A4",
          "ticks": 33504,
          "time": 43.625,
          "velocity": 0.3937007874015748
        },
        {
          "duration": 0.125,
          "durationTicks": 96,
          "midi": 36,
          "name": "C2",
          "ticks": 33504,
          "time": 43.625,
          "velocity": 0.3937007874015748
        },
        {
          "duration": 0.125,
          "durationTicks": 96,
          "midi": 50,
          "name": "D3",
          "ticks": 33504,
          "time": 43.625,
          "velocity": 0.3937007874015748
        },
        {
          "duration": 0.125,
          "durationTicks": 96,
          "midi": 65,
          "name": "F4",
          "ticks": 33600,
          "time": 43.75,
          "velocity": 0.3937007874015748
        },
        {
          "duration": 0.125,
          "durationTicks": 96,
          "midi": 36,
          "name": "C2",
          "ticks": 33600,
          "time": 43.75,
          "velocity": 0.3937007874015748
        },
        {
          "duration": 0.125,
          "durationTicks": 96,
          "midi": 53,
          "name": "F3",
          "ticks": 33600,
          "time": 43.75,
          "velocity": 0.3937007874015748
        },
        {
          "duration": 0.125,
          "durationTicks": 96,
          "midi": 36,
          "name": "C2",
          "ticks": 33696,
          "time": 43.875,
          "velocity": 0.3937007874015748
        },
        {
          "duration": 0.125,
          "durationTicks": 96,
          "midi": 55,
          "name": "G3",
          "ticks": 33696,
          "time": 43.875,
          "velocity": 0.3937007874015748
        },
        {
          "duration": 0.125,
          "durationTicks": 96,
          "midi": 74,
          "name": "D5",
          "ticks": 33792,
          "time": 44,
          "velocity": 0.3937007874015748
        },
        {
          "duration": 0.125,
          "durationTicks": 96,
          "midi": 35,
          "name": "B1",
          "ticks": 33792,
          "time": 44,
          "velocity": 0.3937007874015748
        },
        {
          "duration": 0.125,
          "durationTicks": 96,
          "midi": 47,
          "name": "B2",
          "ticks": 33792,
          "time": 44,
          "velocity": 0.3937007874015748
        },
        {
          "duration": 0.125,
          "durationTicks": 96,
          "midi": 35,
          "name": "B1",
          "ticks": 33888,
          "time": 44.125,
          "velocity": 0.3937007874015748
        },
        {
          "duration": 0.125,
          "durationTicks": 96,
          "midi": 47,
          "name": "B2",
          "ticks": 33888,
          "time": 44.125,
          "velocity": 0.3937007874015748
        },
        {
          "duration": 0.125,
          "durationTicks": 96,
          "midi": 69,
          "name": "A4",
          "ticks": 33984,
          "time": 44.25,
          "velocity": 0.3937007874015748
        },
        {
          "duration": 0.125,
          "durationTicks": 96,
          "midi": 35,
          "name": "B1",
          "ticks": 33984,
          "time": 44.25,
          "velocity": 0.3937007874015748
        },
        {
          "duration": 0.125,
          "durationTicks": 96,
          "midi": 62,
          "name": "D4",
          "ticks": 33984,
          "time": 44.25,
          "velocity": 0.3937007874015748
        },
        {
          "duration": 0.125,
          "durationTicks": 96,
          "midi": 67,
          "name": "G4",
          "ticks": 34176,
          "time": 44.5,
          "velocity": 0.3937007874015748
        },
        {
          "duration": 0.125,
          "durationTicks": 96,
          "midi": 35,
          "name": "B1",
          "ticks": 34176,
          "time": 44.5,
          "velocity": 0.3937007874015748
        },
        {
          "duration": 0.125,
          "durationTicks": 96,
          "midi": 57,
          "name": "A3",
          "ticks": 34176,
          "time": 44.5,
          "velocity": 0.3937007874015748
        },
        {
          "duration": 0.125,
          "durationTicks": 96,
          "midi": 35,
          "name": "B1",
          "ticks": 34272,
          "time": 44.625,
          "velocity": 0.3937007874015748
        },
        {
          "duration": 0.125,
          "durationTicks": 96,
          "midi": 65,
          "name": "F4",
          "ticks": 34368,
          "time": 44.75,
          "velocity": 0.3937007874015748
        },
        {
          "duration": 0.125,
          "durationTicks": 96,
          "midi": 35,
          "name": "B1",
          "ticks": 34464,
          "time": 44.875,
          "velocity": 0.3937007874015748
        },
        {
          "duration": 0.125,
          "durationTicks": 96,
          "midi": 56,
          "name": "G#3",
          "ticks": 34464,
          "time": 44.875,
          "velocity": 0.3937007874015748
        },
        {
          "duration": 0.125,
          "durationTicks": 96,
          "midi": 72,
          "name": "C5",
          "ticks": 34560,
          "time": 45,
          "velocity": 0.3937007874015748
        },
        {
          "duration": 0.125,
          "durationTicks": 96,
          "midi": 35,
          "name": "B1",
          "ticks": 34656,
          "time": 45.125,
          "velocity": 0.3937007874015748
        },
        {
          "duration": 0.125,
          "durationTicks": 96,
          "midi": 55,
          "name": "G3",
          "ticks": 34656,
          "time": 45.125,
          "velocity": 0.3937007874015748
        },
        {
          "duration": 0.125,
          "durationTicks": 96,
          "midi": 67,
          "name": "G4",
          "ticks": 34752,
          "time": 45.25,
          "velocity": 0.3937007874015748
        },
        {
          "duration": 0.125,
          "durationTicks": 96,
          "midi": 35,
          "name": "B1",
          "ticks": 34848,
          "time": 45.375,
          "velocity": 0.3937007874015748
        },
        {
          "duration": 0.125,
          "durationTicks": 96,
          "midi": 53,
          "name": "F3",
          "ticks": 34848,
          "time": 45.375,
          "velocity": 0.3937007874015748
        },
        {
          "duration": 0.125,
          "durationTicks": 96,
          "midi": 65,
          "name": "F4",
          "ticks": 34944,
          "time": 45.5,
          "velocity": 0.3937007874015748
        },
        {
          "duration": 0.125,
          "durationTicks": 96,
          "midi": 35,
          "name": "B1",
          "ticks": 35040,
          "time": 45.625,
          "velocity": 0.3937007874015748
        },
        {
          "duration": 0.125,
          "durationTicks": 96,
          "midi": 50,
          "name": "D3",
          "ticks": 35040,
          "time": 45.625,
          "velocity": 0.3937007874015748
        },
        {
          "duration": 0.125,
          "durationTicks": 96,
          "midi": 64,
          "name": "E4",
          "ticks": 35136,
          "time": 45.75,
          "velocity": 0.3937007874015748
        },
        {
          "duration": 0.125,
          "durationTicks": 96,
          "midi": 35,
          "name": "B1",
          "ticks": 35136,
          "time": 45.75,
          "velocity": 0.3937007874015748
        },
        {
          "duration": 0.125,
          "durationTicks": 96,
          "midi": 53,
          "name": "F3",
          "ticks": 35136,
          "time": 45.75,
          "velocity": 0.3937007874015748
        },
        {
          "duration": 0.125,
          "durationTicks": 96,
          "midi": 35,
          "name": "B1",
          "ticks": 35232,
          "time": 45.875,
          "velocity": 0.3937007874015748
        },
        {
          "duration": 0.125,
          "durationTicks": 96,
          "midi": 55,
          "name": "G3",
          "ticks": 35232,
          "time": 45.875,
          "velocity": 0.3937007874015748
        },
        {
          "duration": 0.125,
          "durationTicks": 96,
          "midi": 58,
          "name": "A#3",
          "ticks": 35328,
          "time": 46,
          "velocity": 0.3937007874015748
        },
        {
          "duration": 0.125,
          "durationTicks": 96,
          "midi": 34,
          "name": "A#1",
          "ticks": 35328,
          "time": 46,
          "velocity": 0.3937007874015748
        },
        {
          "duration": 0.125,
          "durationTicks": 96,
          "midi": 46,
          "name": "A#2",
          "ticks": 35328,
          "time": 46,
          "velocity": 0.3937007874015748
        },
        {
          "duration": 0.125,
          "durationTicks": 96,
          "midi": 34,
          "name": "A#1",
          "ticks": 35424,
          "time": 46.125,
          "velocity": 0.3937007874015748
        },
        {
          "duration": 0.125,
          "durationTicks": 96,
          "midi": 46,
          "name": "A#2",
          "ticks": 35424,
          "time": 46.125,
          "velocity": 0.3937007874015748
        },
        {
          "duration": 0.125,
          "durationTicks": 96,
          "midi": 62,
          "name": "D4",
          "ticks": 35520,
          "time": 46.25,
          "velocity": 0.3937007874015748
        },
        {
          "duration": 0.125,
          "durationTicks": 96,
          "midi": 34,
          "name": "A#1",
          "ticks": 35520,
          "time": 46.25,
          "velocity": 0.3937007874015748
        },
        {
          "duration": 0.125,
          "durationTicks": 96,
          "midi": 62,
          "name": "D4",
          "ticks": 35520,
          "time": 46.25,
          "velocity": 0.3937007874015748
        },
        {
          "duration": 0.125,
          "durationTicks": 96,
          "midi": 67,
          "name": "G4",
          "ticks": 35712,
          "time": 46.5,
          "velocity": 0.3937007874015748
        },
        {
          "duration": 0.125,
          "durationTicks": 96,
          "midi": 34,
          "name": "A#1",
          "ticks": 35712,
          "time": 46.5,
          "velocity": 0.3937007874015748
        },
        {
          "duration": 0.125,
          "durationTicks": 96,
          "midi": 57,
          "name": "A3",
          "ticks": 35712,
          "time": 46.5,
          "velocity": 0.3937007874015748
        },
        {
          "duration": 0.125,
          "durationTicks": 96,
          "midi": 69,
          "name": "A4",
          "ticks": 35808,
          "time": 46.625,
          "velocity": 0.3937007874015748
        },
        {
          "duration": 0.125,
          "durationTicks": 96,
          "midi": 34,
          "name": "A#1",
          "ticks": 35808,
          "time": 46.625,
          "velocity": 0.3937007874015748
        },
        {
          "duration": 0.125,
          "durationTicks": 96,
          "midi": 72,
          "name": "C5",
          "ticks": 36000,
          "time": 46.875,
          "velocity": 0.3937007874015748
        },
        {
          "duration": 0.125,
          "durationTicks": 96,
          "midi": 36,
          "name": "C2",
          "ticks": 36000,
          "time": 46.875,
          "velocity": 0.3937007874015748
        },
        {
          "duration": 0.125,
          "durationTicks": 96,
          "midi": 56,
          "name": "G#3",
          "ticks": 36000,
          "time": 46.875,
          "velocity": 0.3937007874015748
        },
        {
          "duration": 0.125,
          "durationTicks": 96,
          "midi": 36,
          "name": "C2",
          "ticks": 36192,
          "time": 47.125,
          "velocity": 0.3937007874015748
        },
        {
          "duration": 0.125,
          "durationTicks": 96,
          "midi": 55,
          "name": "G3",
          "ticks": 36192,
          "time": 47.125,
          "velocity": 0.3937007874015748
        },
        {
          "duration": 0.125,
          "durationTicks": 96,
          "midi": 36,
          "name": "C2",
          "ticks": 36384,
          "time": 47.375,
          "velocity": 0.3937007874015748
        },
        {
          "duration": 0.125,
          "durationTicks": 96,
          "midi": 53,
          "name": "F3",
          "ticks": 36384,
          "time": 47.375,
          "velocity": 0.3937007874015748
        },
        {
          "duration": 0.125,
          "durationTicks": 96,
          "midi": 36,
          "name": "C2",
          "ticks": 36576,
          "time": 47.625,
          "velocity": 0.3937007874015748
        },
        {
          "duration": 0.125,
          "durationTicks": 96,
          "midi": 50,
          "name": "D3",
          "ticks": 36576,
          "time": 47.625,
          "velocity": 0.3937007874015748
        },
        {
          "duration": 0.125,
          "durationTicks": 96,
          "midi": 36,
          "name": "C2",
          "ticks": 36672,
          "time": 47.75,
          "velocity": 0.3937007874015748
        },
        {
          "duration": 0.125,
          "durationTicks": 96,
          "midi": 53,
          "name": "F3",
          "ticks": 36672,
          "time": 47.75,
          "velocity": 0.3937007874015748
        },
        {
          "duration": 0.125,
          "durationTicks": 96,
          "midi": 36,
          "name": "C2",
          "ticks": 36768,
          "time": 47.875,
          "velocity": 0.3937007874015748
        },
        {
          "duration": 0.125,
          "durationTicks": 96,
          "midi": 55,
          "name": "G3",
          "ticks": 36768,
          "time": 47.875,
          "velocity": 0.3937007874015748
        },
        {
          "duration": 0.125,
          "durationTicks": 96,
          "midi": 34,
          "name": "A#1",
          "ticks": 36864,
          "time": 48,
          "velocity": 0.3937007874015748
        },
        {
          "duration": 0.125,
          "durationTicks": 96,
          "midi": 34,
          "name": "A#1",
          "ticks": 36960,
          "time": 48.125,
          "velocity": 0.3937007874015748
        },
        {
          "duration": 0.125,
          "durationTicks": 96,
          "midi": 34,
          "name": "A#1",
          "ticks": 37056,
          "time": 48.25,
          "velocity": 0.3937007874015748
        },
        {
          "duration": 0.125,
          "durationTicks": 96,
          "midi": 34,
          "name": "A#1",
          "ticks": 37248,
          "time": 48.5,
          "velocity": 0.3937007874015748
        },
        {
          "duration": 0.125,
          "durationTicks": 96,
          "midi": 34,
          "name": "A#1",
          "ticks": 37344,
          "time": 48.625,
          "velocity": 0.3937007874015748
        },
        {
          "duration": 0.125,
          "durationTicks": 96,
          "midi": 34,
          "name": "A#1",
          "ticks": 37536,
          "time": 48.875,
          "velocity": 0.3937007874015748
        },
        {
          "duration": 0.125,
          "durationTicks": 96,
          "midi": 65,
          "name": "F4",
          "ticks": 37632,
          "time": 49,
          "velocity": 0.3937007874015748
        },
        {
          "duration": 0.125,
          "durationTicks": 96,
          "midi": 34,
          "name": "A#1",
          "ticks": 37728,
          "time": 49.125,
          "velocity": 0.3937007874015748
        },
        {
          "duration": 0.125,
          "durationTicks": 96,
          "midi": 62,
          "name": "D4",
          "ticks": 37728,
          "time": 49.125,
          "velocity": 0.3937007874015748
        },
        {
          "duration": 0.125,
          "durationTicks": 96,
          "midi": 65,
          "name": "F4",
          "ticks": 37824,
          "time": 49.25,
          "velocity": 0.3937007874015748
        },
        {
          "duration": 0.125,
          "durationTicks": 96,
          "midi": 34,
          "name": "A#1",
          "ticks": 37920,
          "time": 49.375,
          "velocity": 0.3937007874015748
        },
        {
          "duration": 0.125,
          "durationTicks": 96,
          "midi": 67,
          "name": "G4",
          "ticks": 37920,
          "time": 49.375,
          "velocity": 0.3937007874015748
        },
        {
          "duration": 0.125,
          "durationTicks": 96,
          "midi": 68,
          "name": "G#4",
          "ticks": 38016,
          "time": 49.5,
          "velocity": 0.3937007874015748
        },
        {
          "duration": 0.125,
          "durationTicks": 96,
          "midi": 34,
          "name": "A#1",
          "ticks": 38112,
          "time": 49.625,
          "velocity": 0.3937007874015748
        },
        {
          "duration": 0.125,
          "durationTicks": 96,
          "midi": 67,
          "name": "G4",
          "ticks": 38112,
          "time": 49.625,
          "velocity": 0.3937007874015748
        },
        {
          "duration": 0.125,
          "durationTicks": 96,
          "midi": 34,
          "name": "A#1",
          "ticks": 38208,
          "time": 49.75,
          "velocity": 0.3937007874015748
        },
        {
          "duration": 0.125,
          "durationTicks": 96,
          "midi": 65,
          "name": "F4",
          "ticks": 38208,
          "time": 49.75,
          "velocity": 0.3937007874015748
        },
        {
          "duration": 0.125,
          "durationTicks": 96,
          "midi": 34,
          "name": "A#1",
          "ticks": 38304,
          "time": 49.875,
          "velocity": 0.3937007874015748
        },
        {
          "duration": 0.125,
          "durationTicks": 96,
          "midi": 62,
          "name": "D4",
          "ticks": 38304,
          "time": 49.875,
          "velocity": 0.3937007874015748
        },
        {
          "duration": 0.125,
          "durationTicks": 96,
          "midi": 36,
          "name": "C2",
          "ticks": 38400,
          "time": 50,
          "velocity": 0.3937007874015748
        },
        {
          "duration": 0.125,
          "durationTicks": 96,
          "midi": 68,
          "name": "G#4",
          "ticks": 38400,
          "time": 50,
          "velocity": 0.3937007874015748
        },
        {
          "duration": 0.125,
          "durationTicks": 96,
          "midi": 36,
          "name": "C2",
          "ticks": 38496,
          "time": 50.125,
          "velocity": 0.3937007874015748
        },
        {
          "duration": 0.125,
          "durationTicks": 96,
          "midi": 67,
          "name": "G4",
          "ticks": 38496,
          "time": 50.125,
          "velocity": 0.3937007874015748
        },
        {
          "duration": 0.125,
          "durationTicks": 96,
          "midi": 36,
          "name": "C2",
          "ticks": 38592,
          "time": 50.25,
          "velocity": 0.3937007874015748
        },
        {
          "duration": 0.125,
          "durationTicks": 96,
          "midi": 65,
          "name": "F4",
          "ticks": 38592,
          "time": 50.25,
          "velocity": 0.3937007874015748
        },
        {
          "duration": 0.125,
          "durationTicks": 96,
          "midi": 36,
          "name": "C2",
          "ticks": 38784,
          "time": 50.5,
          "velocity": 0.3937007874015748
        },
        {
          "duration": 0.125,
          "durationTicks": 96,
          "midi": 67,
          "name": "G4",
          "ticks": 38784,
          "time": 50.5,
          "velocity": 0.3937007874015748
        },
        {
          "duration": 0.125,
          "durationTicks": 96,
          "midi": 36,
          "name": "C2",
          "ticks": 38880,
          "time": 50.625,
          "velocity": 0.3937007874015748
        },
        {
          "duration": 0.125,
          "durationTicks": 96,
          "midi": 36,
          "name": "C2",
          "ticks": 39072,
          "time": 50.875,
          "velocity": 0.3937007874015748
        },
        {
          "duration": 0.125,
          "durationTicks": 96,
          "midi": 36,
          "name": "C2",
          "ticks": 39264,
          "time": 51.125,
          "velocity": 0.3937007874015748
        },
        {
          "duration": 0.125,
          "durationTicks": 96,
          "midi": 36,
          "name": "C2",
          "ticks": 39456,
          "time": 51.375,
          "velocity": 0.3937007874015748
        },
        {
          "duration": 0.125,
          "durationTicks": 96,
          "midi": 36,
          "name": "C2",
          "ticks": 39648,
          "time": 51.625,
          "velocity": 0.3937007874015748
        },
        {
          "duration": 0.125,
          "durationTicks": 96,
          "midi": 68,
          "name": "G#4",
          "ticks": 39648,
          "time": 51.625,
          "velocity": 0.3937007874015748
        },
        {
          "duration": 0.125,
          "durationTicks": 96,
          "midi": 36,
          "name": "C2",
          "ticks": 39744,
          "time": 51.75,
          "velocity": 0.3937007874015748
        },
        {
          "duration": 0.125,
          "durationTicks": 96,
          "midi": 36,
          "name": "C2",
          "ticks": 39840,
          "time": 51.875,
          "velocity": 0.3937007874015748
        },
        {
          "duration": 0.125,
          "durationTicks": 96,
          "midi": 69,
          "name": "A4",
          "ticks": 39840,
          "time": 51.875,
          "velocity": 0.3937007874015748
        },
        {
          "duration": 0.125,
          "durationTicks": 96,
          "midi": 38,
          "name": "D2",
          "ticks": 39936,
          "time": 52,
          "velocity": 0.3937007874015748
        },
        {
          "duration": 0.125,
          "durationTicks": 96,
          "midi": 72,
          "name": "C5",
          "ticks": 39936,
          "time": 52,
          "velocity": 0.3937007874015748
        },
        {
          "duration": 0.125,
          "durationTicks": 96,
          "midi": 38,
          "name": "D2",
          "ticks": 40032,
          "time": 52.125,
          "velocity": 0.3937007874015748
        },
        {
          "duration": 0.125,
          "durationTicks": 96,
          "midi": 38,
          "name": "D2",
          "ticks": 40128,
          "time": 52.25,
          "velocity": 0.3937007874015748
        },
        {
          "duration": 0.125,
          "durationTicks": 96,
          "midi": 69,
          "name": "A4",
          "ticks": 40128,
          "time": 52.25,
          "velocity": 0.3937007874015748
        },
        {
          "duration": 0.125,
          "durationTicks": 96,
          "midi": 68,
          "name": "G#4",
          "ticks": 40224,
          "time": 52.375,
          "velocity": 0.3937007874015748
        },
        {
          "duration": 0.125,
          "durationTicks": 96,
          "midi": 38,
          "name": "D2",
          "ticks": 40320,
          "time": 52.5,
          "velocity": 0.3937007874015748
        },
        {
          "duration": 0.125,
          "durationTicks": 96,
          "midi": 67,
          "name": "G4",
          "ticks": 40320,
          "time": 52.5,
          "velocity": 0.3937007874015748
        },
        {
          "duration": 0.125,
          "durationTicks": 96,
          "midi": 38,
          "name": "D2",
          "ticks": 40416,
          "time": 52.625,
          "velocity": 0.3937007874015748
        },
        {
          "duration": 0.125,
          "durationTicks": 96,
          "midi": 65,
          "name": "F4",
          "ticks": 40416,
          "time": 52.625,
          "velocity": 0.3937007874015748
        },
        {
          "duration": 0.125,
          "durationTicks": 96,
          "midi": 62,
          "name": "D4",
          "ticks": 40512,
          "time": 52.75,
          "velocity": 0.3937007874015748
        },
        {
          "duration": 0.125,
          "durationTicks": 96,
          "midi": 37,
          "name": "C#2",
          "ticks": 40608,
          "time": 52.875,
          "velocity": 0.3937007874015748
        },
        {
          "duration": 0.125,
          "durationTicks": 96,
          "midi": 64,
          "name": "E4",
          "ticks": 40608,
          "time": 52.875,
          "velocity": 0.3937007874015748
        },
        {
          "duration": 0.125,
          "durationTicks": 96,
          "midi": 65,
          "name": "F4",
          "ticks": 40704,
          "time": 53,
          "velocity": 0.3937007874015748
        },
        {
          "duration": 0.125,
          "durationTicks": 96,
          "midi": 37,
          "name": "C#2",
          "ticks": 40800,
          "time": 53.125,
          "velocity": 0.3937007874015748
        },
        {
          "duration": 0.125,
          "durationTicks": 96,
          "midi": 67,
          "name": "G4",
          "ticks": 40896,
          "time": 53.25,
          "velocity": 0.3937007874015748
        },
        {
          "duration": 0.125,
          "durationTicks": 96,
          "midi": 37,
          "name": "C#2",
          "ticks": 40992,
          "time": 53.375,
          "velocity": 0.3937007874015748
        },
        {
          "duration": 0.125,
          "durationTicks": 96,
          "midi": 69,
          "name": "A4",
          "ticks": 41088,
          "time": 53.5,
          "velocity": 0.3937007874015748
        },
        {
          "duration": 0.125,
          "durationTicks": 96,
          "midi": 37,
          "name": "C#2",
          "ticks": 41184,
          "time": 53.625,
          "velocity": 0.3937007874015748
        },
        {
          "duration": 0.125,
          "durationTicks": 96,
          "midi": 37,
          "name": "C#2",
          "ticks": 41280,
          "time": 53.75,
          "velocity": 0.3937007874015748
        },
        {
          "duration": 0.125,
          "durationTicks": 96,
          "midi": 72,
          "name": "C5",
          "ticks": 41280,
          "time": 53.75,
          "velocity": 0.3937007874015748
        },
        {
          "duration": 0.125,
          "durationTicks": 96,
          "midi": 37,
          "name": "C#2",
          "ticks": 41376,
          "time": 53.875,
          "velocity": 0.3937007874015748
        },
        {
          "duration": 0.125,
          "durationTicks": 96,
          "midi": 36,
          "name": "C2",
          "ticks": 41472,
          "time": 54,
          "velocity": 0.3937007874015748
        },
        {
          "duration": 0.125,
          "durationTicks": 96,
          "midi": 73,
          "name": "C#5",
          "ticks": 41472,
          "time": 54,
          "velocity": 0.3937007874015748
        },
        {
          "duration": 0.125,
          "durationTicks": 96,
          "midi": 36,
          "name": "C2",
          "ticks": 41568,
          "time": 54.125,
          "velocity": 0.3937007874015748
        },
        {
          "duration": 0.125,
          "durationTicks": 96,
          "midi": 36,
          "name": "C2",
          "ticks": 41664,
          "time": 54.25,
          "velocity": 0.3937007874015748
        },
        {
          "duration": 0.125,
          "durationTicks": 96,
          "midi": 68,
          "name": "G#4",
          "ticks": 41664,
          "time": 54.25,
          "velocity": 0.3937007874015748
        },
        {
          "duration": 0.125,
          "durationTicks": 96,
          "midi": 36,
          "name": "C2",
          "ticks": 41856,
          "time": 54.5,
          "velocity": 0.3937007874015748
        },
        {
          "duration": 0.125,
          "durationTicks": 96,
          "midi": 68,
          "name": "G#4",
          "ticks": 41856,
          "time": 54.5,
          "velocity": 0.3937007874015748
        },
        {
          "duration": 0.125,
          "durationTicks": 96,
          "midi": 36,
          "name": "C2",
          "ticks": 41952,
          "time": 54.625,
          "velocity": 0.3937007874015748
        },
        {
          "duration": 0.125,
          "durationTicks": 96,
          "midi": 67,
          "name": "G4",
          "ticks": 41952,
          "time": 54.625,
          "velocity": 0.3937007874015748
        },
        {
          "duration": 0.125,
          "durationTicks": 96,
          "midi": 65,
          "name": "F4",
          "ticks": 42048,
          "time": 54.75,
          "velocity": 0.3937007874015748
        },
        {
          "duration": 0.125,
          "durationTicks": 96,
          "midi": 35,
          "name": "B1",
          "ticks": 42144,
          "time": 54.875,
          "velocity": 0.3937007874015748
        },
        {
          "duration": 1.125,
          "durationTicks": 864,
          "midi": 67,
          "name": "G4",
          "ticks": 42144,
          "time": 54.875,
          "velocity": 0.3937007874015748
        },
        {
          "duration": 0.125,
          "durationTicks": 96,
          "midi": 35,
          "name": "B1",
          "ticks": 42336,
          "time": 55.125,
          "velocity": 0.3937007874015748
        },
        {
          "duration": 0.125,
          "durationTicks": 96,
          "midi": 35,
          "name": "B1",
          "ticks": 42528,
          "time": 55.375,
          "velocity": 0.3937007874015748
        },
        {
          "duration": 0.125,
          "durationTicks": 96,
          "midi": 35,
          "name": "B1",
          "ticks": 42720,
          "time": 55.625,
          "velocity": 0.3937007874015748
        },
        {
          "duration": 0.125,
          "durationTicks": 96,
          "midi": 35,
          "name": "B1",
          "ticks": 42816,
          "time": 55.75,
          "velocity": 0.3937007874015748
        },
        {
          "duration": 0.125,
          "durationTicks": 96,
          "midi": 35,
          "name": "B1",
          "ticks": 42912,
          "time": 55.875,
          "velocity": 0.3937007874015748
        },
        {
          "duration": 0.25,
          "durationTicks": 192,
          "midi": 65,
          "name": "F4",
          "ticks": 43008,
          "time": 56,
          "velocity": 0.3937007874015748
        },
        {
          "duration": 0.125,
          "durationTicks": 96,
          "midi": 34,
          "name": "A#1",
          "ticks": 43008,
          "time": 56,
          "velocity": 0.3937007874015748
        },
        {
          "duration": 0.125,
          "durationTicks": 96,
          "midi": 34,
          "name": "A#1",
          "ticks": 43104,
          "time": 56.125,
          "velocity": 0.3937007874015748
        },
        {
          "duration": 0.25,
          "durationTicks": 192,
          "midi": 67,
          "name": "G4",
          "ticks": 43200,
          "time": 56.25,
          "velocity": 0.3937007874015748
        },
        {
          "duration": 0.125,
          "durationTicks": 96,
          "midi": 34,
          "name": "A#1",
          "ticks": 43200,
          "time": 56.25,
          "velocity": 0.3937007874015748
        },
        {
          "duration": 0.25,
          "durationTicks": 192,
          "midi": 69,
          "name": "A4",
          "ticks": 43392,
          "time": 56.5,
          "velocity": 0.3937007874015748
        },
        {
          "duration": 0.125,
          "durationTicks": 96,
          "midi": 34,
          "name": "A#1",
          "ticks": 43392,
          "time": 56.5,
          "velocity": 0.3937007874015748
        },
        {
          "duration": 0.125,
          "durationTicks": 96,
          "midi": 34,
          "name": "A#1",
          "ticks": 43488,
          "time": 56.625,
          "velocity": 0.3937007874015748
        },
        {
          "duration": 0.25,
          "durationTicks": 192,
          "midi": 77,
          "name": "F5",
          "ticks": 43584,
          "time": 56.75,
          "velocity": 0.3937007874015748
        },
        {
          "duration": 0.125,
          "durationTicks": 96,
          "midi": 34,
          "name": "A#1",
          "ticks": 43680,
          "time": 56.875,
          "velocity": 0.3937007874015748
        },
        {
          "duration": 0.5,
          "durationTicks": 384,
          "midi": 76,
          "name": "E5",
          "ticks": 43776,
          "time": 57,
          "velocity": 0.3937007874015748
        },
        {
          "duration": 0.125,
          "durationTicks": 96,
          "midi": 34,
          "name": "A#1",
          "ticks": 43872,
          "time": 57.125,
          "velocity": 0.3937007874015748
        },
        {
          "duration": 0.125,
          "durationTicks": 96,
          "midi": 34,
          "name": "A#1",
          "ticks": 44064,
          "time": 57.375,
          "velocity": 0.3937007874015748
        },
        {
          "duration": 0.5,
          "durationTicks": 384,
          "midi": 74,
          "name": "D5",
          "ticks": 44160,
          "time": 57.5,
          "velocity": 0.3937007874015748
        },
        {
          "duration": 0.125,
          "durationTicks": 96,
          "midi": 34,
          "name": "A#1",
          "ticks": 44256,
          "time": 57.625,
          "velocity": 0.3937007874015748
        },
        {
          "duration": 0.125,
          "durationTicks": 96,
          "midi": 34,
          "name": "A#1",
          "ticks": 44352,
          "time": 57.75,
          "velocity": 0.3937007874015748
        },
        {
          "duration": 0.125,
          "durationTicks": 96,
          "midi": 34,
          "name": "A#1",
          "ticks": 44448,
          "time": 57.875,
          "velocity": 0.3937007874015748
        },
        {
          "duration": 0.125,
          "durationTicks": 96,
          "midi": 36,
          "name": "C2",
          "ticks": 44544,
          "time": 58,
          "velocity": 0.3937007874015748
        },
        {
          "duration": 0.5,
          "durationTicks": 384,
          "midi": 76,
          "name": "E5",
          "ticks": 44544,
          "time": 58,
          "velocity": 0.3937007874015748
        },
        {
          "duration": 0.125,
          "durationTicks": 96,
          "midi": 36,
          "name": "C2",
          "ticks": 44640,
          "time": 58.125,
          "velocity": 0.3937007874015748
        },
        {
          "duration": 0.125,
          "durationTicks": 96,
          "midi": 36,
          "name": "C2",
          "ticks": 44736,
          "time": 58.25,
          "velocity": 0.3937007874015748
        },
        {
          "duration": 0.125,
          "durationTicks": 96,
          "midi": 36,
          "name": "C2",
          "ticks": 44928,
          "time": 58.5,
          "velocity": 0.3937007874015748
        },
        {
          "duration": 0.5,
          "durationTicks": 384,
          "midi": 77,
          "name": "F5",
          "ticks": 44928,
          "time": 58.5,
          "velocity": 0.3937007874015748
        },
        {
          "duration": 0.125,
          "durationTicks": 96,
          "midi": 36,
          "name": "C2",
          "ticks": 45024,
          "time": 58.625,
          "velocity": 0.3937007874015748
        },
        {
          "duration": 0.125,
          "durationTicks": 96,
          "midi": 36,
          "name": "C2",
          "ticks": 45216,
          "time": 58.875,
          "velocity": 0.3937007874015748
        },
        {
          "duration": 0.5,
          "durationTicks": 384,
          "midi": 79,
          "name": "G5",
          "ticks": 45312,
          "time": 59,
          "velocity": 0.3937007874015748
        },
        {
          "duration": 0.125,
          "durationTicks": 96,
          "midi": 36,
          "name": "C2",
          "ticks": 45408,
          "time": 59.125,
          "velocity": 0.3937007874015748
        },
        {
          "duration": 0.125,
          "durationTicks": 96,
          "midi": 36,
          "name": "C2",
          "ticks": 45600,
          "time": 59.375,
          "velocity": 0.3937007874015748
        },
        {
          "duration": 0.5,
          "durationTicks": 384,
          "midi": 76,
          "name": "E5",
          "ticks": 45696,
          "time": 59.5,
          "velocity": 0.3937007874015748
        },
        {
          "duration": 0.125,
          "durationTicks": 96,
          "midi": 36,
          "name": "C2",
          "ticks": 45792,
          "time": 59.625,
          "velocity": 0.3937007874015748
        },
        {
          "duration": 0.125,
          "durationTicks": 96,
          "midi": 36,
          "name": "C2",
          "ticks": 45888,
          "time": 59.75,
          "velocity": 0.3937007874015748
        },
        {
          "duration": 0.125,
          "durationTicks": 96,
          "midi": 36,
          "name": "C2",
          "ticks": 45984,
          "time": 59.875,
          "velocity": 0.3937007874015748
        },
        {
          "duration": 0.125,
          "durationTicks": 96,
          "midi": 38,
          "name": "D2",
          "ticks": 46080,
          "time": 60,
          "velocity": 0.3937007874015748
        },
        {
          "duration": 1,
          "durationTicks": 768,
          "midi": 81,
          "name": "A5",
          "ticks": 46080,
          "time": 60,
          "velocity": 0.3937007874015748
        },
        {
          "duration": 0.125,
          "durationTicks": 96,
          "midi": 38,
          "name": "D2",
          "ticks": 46176,
          "time": 60.125,
          "velocity": 0.3937007874015748
        },
        {
          "duration": 0.125,
          "durationTicks": 96,
          "midi": 38,
          "name": "D2",
          "ticks": 46272,
          "time": 60.25,
          "velocity": 0.3937007874015748
        },
        {
          "duration": 0.125,
          "durationTicks": 96,
          "midi": 38,
          "name": "D2",
          "ticks": 46464,
          "time": 60.5,
          "velocity": 0.3937007874015748
        },
        {
          "duration": 0.125,
          "durationTicks": 96,
          "midi": 38,
          "name": "D2",
          "ticks": 46560,
          "time": 60.625,
          "velocity": 0.3937007874015748
        },
        {
          "duration": 0.125,
          "durationTicks": 96,
          "midi": 38,
          "name": "D2",
          "ticks": 46752,
          "time": 60.875,
          "velocity": 0.3937007874015748
        },
        {
          "duration": 0.125,
          "durationTicks": 96,
          "midi": 81,
          "name": "A5",
          "ticks": 46848,
          "time": 61,
          "velocity": 0.3937007874015748
        },
        {
          "duration": 0.125,
          "durationTicks": 96,
          "midi": 38,
          "name": "D2",
          "ticks": 46944,
          "time": 61.125,
          "velocity": 0.3937007874015748
        },
        {
          "duration": 0.125,
          "durationTicks": 96,
          "midi": 80,
          "name": "G#5",
          "ticks": 46944,
          "time": 61.125,
          "velocity": 0.3937007874015748
        },
        {
          "duration": 0.125,
          "durationTicks": 96,
          "midi": 79,
          "name": "G5",
          "ticks": 47040,
          "time": 61.25,
          "velocity": 0.3937007874015748
        },
        {
          "duration": 0.125,
          "durationTicks": 96,
          "midi": 38,
          "name": "D2",
          "ticks": 47136,
          "time": 61.375,
          "velocity": 0.3937007874015748
        },
        {
          "duration": 0.125,
          "durationTicks": 96,
          "midi": 78,
          "name": "F#5",
          "ticks": 47136,
          "time": 61.375,
          "velocity": 0.3937007874015748
        },
        {
          "duration": 0.125,
          "durationTicks": 96,
          "midi": 77,
          "name": "F5",
          "ticks": 47232,
          "time": 61.5,
          "velocity": 0.3937007874015748
        },
        {
          "duration": 0.125,
          "durationTicks": 96,
          "midi": 38,
          "name": "D2",
          "ticks": 47328,
          "time": 61.625,
          "velocity": 0.3937007874015748
        },
        {
          "duration": 0.125,
          "durationTicks": 96,
          "midi": 76,
          "name": "E5",
          "ticks": 47328,
          "time": 61.625,
          "velocity": 0.3937007874015748
        },
        {
          "duration": 0.125,
          "durationTicks": 96,
          "midi": 38,
          "name": "D2",
          "ticks": 47424,
          "time": 61.75,
          "velocity": 0.3937007874015748
        },
        {
          "duration": 0.125,
          "durationTicks": 96,
          "midi": 75,
          "name": "D#5",
          "ticks": 47424,
          "time": 61.75,
          "velocity": 0.3937007874015748
        },
        {
          "duration": 0.125,
          "durationTicks": 96,
          "midi": 38,
          "name": "D2",
          "ticks": 47520,
          "time": 61.875,
          "velocity": 0.3937007874015748
        },
        {
          "duration": 0.125,
          "durationTicks": 96,
          "midi": 74,
          "name": "D5",
          "ticks": 47520,
          "time": 61.875,
          "velocity": 0.3937007874015748
        },
        {
          "duration": 1,
          "durationTicks": 768,
          "midi": 73,
          "name": "C#5",
          "ticks": 47616,
          "time": 62,
          "velocity": 0.3937007874015748
        },
        {
          "duration": 0.125,
          "durationTicks": 96,
          "midi": 38,
          "name": "D2",
          "ticks": 47616,
          "time": 62,
          "velocity": 0.3937007874015748
        },
        {
          "duration": 0.125,
          "durationTicks": 96,
          "midi": 38,
          "name": "D2",
          "ticks": 47712,
          "time": 62.125,
          "velocity": 0.3937007874015748
        },
        {
          "duration": 0.125,
          "durationTicks": 96,
          "midi": 38,
          "name": "D2",
          "ticks": 47808,
          "time": 62.25,
          "velocity": 0.3937007874015748
        },
        {
          "duration": 0.125,
          "durationTicks": 96,
          "midi": 38,
          "name": "D2",
          "ticks": 48000,
          "time": 62.5,
          "velocity": 0.3937007874015748
        },
        {
          "duration": 0.125,
          "durationTicks": 96,
          "midi": 38,
          "name": "D2",
          "ticks": 48096,
          "time": 62.625,
          "velocity": 0.3937007874015748
        },
        {
          "duration": 0.125,
          "durationTicks": 96,
          "midi": 38,
          "name": "D2",
          "ticks": 48288,
          "time": 62.875,
          "velocity": 0.3937007874015748
        },
        {
          "duration": 1,
          "durationTicks": 768,
          "midi": 75,
          "name": "D#5",
          "ticks": 48384,
          "time": 63,
          "velocity": 0.3937007874015748
        },
        {
          "duration": 0.125,
          "durationTicks": 96,
          "midi": 38,
          "name": "D2",
          "ticks": 48480,
          "time": 63.125,
          "velocity": 0.3937007874015748
        },
        {
          "duration": 0.125,
          "durationTicks": 96,
          "midi": 38,
          "name": "D2",
          "ticks": 48672,
          "time": 63.375,
          "velocity": 0.3937007874015748
        },
        {
          "duration": 0.125,
          "durationTicks": 96,
          "midi": 38,
          "name": "D2",
          "ticks": 48864,
          "time": 63.625,
          "velocity": 0.3937007874015748
        },
        {
          "duration": 0.125,
          "durationTicks": 96,
          "midi": 38,
          "name": "D2",
          "ticks": 48960,
          "time": 63.75,
          "velocity": 0.3937007874015748
        },
        {
          "duration": 0.125,
          "durationTicks": 96,
          "midi": 38,
          "name": "D2",
          "ticks": 49056,
          "time": 63.875,
          "velocity": 0.3937007874015748
        },
        {
          "duration": 0.125,
          "durationTicks": 96,
          "midi": 34,
          "name": "A#1",
          "ticks": 49152,
          "time": 64,
          "velocity": 0.3937007874015748
        },
        {
          "duration": 0.125,
          "durationTicks": 96,
          "midi": 34,
          "name": "A#1",
          "ticks": 49248,
          "time": 64.125,
          "velocity": 0.3937007874015748
        },
        {
          "duration": 0.125,
          "durationTicks": 96,
          "midi": 34,
          "name": "A#1",
          "ticks": 49344,
          "time": 64.25,
          "velocity": 0.3937007874015748
        },
        {
          "duration": 0.125,
          "durationTicks": 96,
          "midi": 34,
          "name": "A#1",
          "ticks": 49536,
          "time": 64.5,
          "velocity": 0.3937007874015748
        },
        {
          "duration": 0.125,
          "durationTicks": 96,
          "midi": 34,
          "name": "A#1",
          "ticks": 49632,
          "time": 64.625,
          "velocity": 0.3937007874015748
        },
        {
          "duration": 0.125,
          "durationTicks": 96,
          "midi": 34,
          "name": "A#1",
          "ticks": 49824,
          "time": 64.875,
          "velocity": 0.3937007874015748
        },
        {
          "duration": 0.125,
          "durationTicks": 96,
          "midi": 65,
          "name": "F4",
          "ticks": 49920,
          "time": 65,
          "velocity": 0.3937007874015748
        },
        {
          "duration": 0.125,
          "durationTicks": 96,
          "midi": 34,
          "name": "A#1",
          "ticks": 50016,
          "time": 65.125,
          "velocity": 0.3937007874015748
        },
        {
          "duration": 0.125,
          "durationTicks": 96,
          "midi": 62,
          "name": "D4",
          "ticks": 50016,
          "time": 65.125,
          "velocity": 0.3937007874015748
        },
        {
          "duration": 0.125,
          "durationTicks": 96,
          "midi": 65,
          "name": "F4",
          "ticks": 50112,
          "time": 65.25,
          "velocity": 0.3937007874015748
        },
        {
          "duration": 0.125,
          "durationTicks": 96,
          "midi": 34,
          "name": "A#1",
          "ticks": 50208,
          "time": 65.375,
          "velocity": 0.3937007874015748
        },
        {
          "duration": 0.125,
          "durationTicks": 96,
          "midi": 67,
          "name": "G4",
          "ticks": 50208,
          "time": 65.375,
          "velocity": 0.3937007874015748
        },
        {
          "duration": 0.125,
          "durationTicks": 96,
          "midi": 68,
          "name": "G#4",
          "ticks": 50304,
          "time": 65.5,
          "velocity": 0.3937007874015748
        },
        {
          "duration": 0.125,
          "durationTicks": 96,
          "midi": 34,
          "name": "A#1",
          "ticks": 50400,
          "time": 65.625,
          "velocity": 0.3937007874015748
        },
        {
          "duration": 0.125,
          "durationTicks": 96,
          "midi": 67,
          "name": "G4",
          "ticks": 50400,
          "time": 65.625,
          "velocity": 0.3937007874015748
        },
        {
          "duration": 0.125,
          "durationTicks": 96,
          "midi": 34,
          "name": "A#1",
          "ticks": 50496,
          "time": 65.75,
          "velocity": 0.3937007874015748
        },
        {
          "duration": 0.125,
          "durationTicks": 96,
          "midi": 65,
          "name": "F4",
          "ticks": 50496,
          "time": 65.75,
          "velocity": 0.3937007874015748
        },
        {
          "duration": 0.125,
          "durationTicks": 96,
          "midi": 34,
          "name": "A#1",
          "ticks": 50592,
          "time": 65.875,
          "velocity": 0.3937007874015748
        },
        {
          "duration": 0.125,
          "durationTicks": 96,
          "midi": 62,
          "name": "D4",
          "ticks": 50592,
          "time": 65.875,
          "velocity": 0.3937007874015748
        },
        {
          "duration": 0.125,
          "durationTicks": 96,
          "midi": 36,
          "name": "C2",
          "ticks": 50688,
          "time": 66,
          "velocity": 0.3937007874015748
        },
        {
          "duration": 0.125,
          "durationTicks": 96,
          "midi": 68,
          "name": "G#4",
          "ticks": 50688,
          "time": 66,
          "velocity": 0.3937007874015748
        },
        {
          "duration": 0.125,
          "durationTicks": 96,
          "midi": 36,
          "name": "C2",
          "ticks": 50784,
          "time": 66.125,
          "velocity": 0.3937007874015748
        },
        {
          "duration": 0.125,
          "durationTicks": 96,
          "midi": 67,
          "name": "G4",
          "ticks": 50784,
          "time": 66.125,
          "velocity": 0.3937007874015748
        },
        {
          "duration": 0.125,
          "durationTicks": 96,
          "midi": 36,
          "name": "C2",
          "ticks": 50880,
          "time": 66.25,
          "velocity": 0.3937007874015748
        },
        {
          "duration": 0.125,
          "durationTicks": 96,
          "midi": 65,
          "name": "F4",
          "ticks": 50880,
          "time": 66.25,
          "velocity": 0.3937007874015748
        },
        {
          "duration": 0.125,
          "durationTicks": 96,
          "midi": 36,
          "name": "C2",
          "ticks": 51072,
          "time": 66.5,
          "velocity": 0.3937007874015748
        },
        {
          "duration": 0.125,
          "durationTicks": 96,
          "midi": 67,
          "name": "G4",
          "ticks": 51072,
          "time": 66.5,
          "velocity": 0.3937007874015748
        },
        {
          "duration": 0.125,
          "durationTicks": 96,
          "midi": 36,
          "name": "C2",
          "ticks": 51168,
          "time": 66.625,
          "velocity": 0.3937007874015748
        },
        {
          "duration": 0.125,
          "durationTicks": 96,
          "midi": 36,
          "name": "C2",
          "ticks": 51360,
          "time": 66.875,
          "velocity": 0.3937007874015748
        },
        {
          "duration": 0.125,
          "durationTicks": 96,
          "midi": 36,
          "name": "C2",
          "ticks": 51552,
          "time": 67.125,
          "velocity": 0.3937007874015748
        },
        {
          "duration": 0.125,
          "durationTicks": 96,
          "midi": 36,
          "name": "C2",
          "ticks": 51744,
          "time": 67.375,
          "velocity": 0.3937007874015748
        },
        {
          "duration": 0.125,
          "durationTicks": 96,
          "midi": 36,
          "name": "C2",
          "ticks": 51936,
          "time": 67.625,
          "velocity": 0.3937007874015748
        },
        {
          "duration": 0.125,
          "durationTicks": 96,
          "midi": 68,
          "name": "G#4",
          "ticks": 51936,
          "time": 67.625,
          "velocity": 0.3937007874015748
        },
        {
          "duration": 0.125,
          "durationTicks": 96,
          "midi": 36,
          "name": "C2",
          "ticks": 52032,
          "time": 67.75,
          "velocity": 0.3937007874015748
        },
        {
          "duration": 0.125,
          "durationTicks": 96,
          "midi": 36,
          "name": "C2",
          "ticks": 52128,
          "time": 67.875,
          "velocity": 0.3937007874015748
        },
        {
          "duration": 0.125,
          "durationTicks": 96,
          "midi": 69,
          "name": "A4",
          "ticks": 52128,
          "time": 67.875,
          "velocity": 0.3937007874015748
        },
        {
          "duration": 0.125,
          "durationTicks": 96,
          "midi": 38,
          "name": "D2",
          "ticks": 52224,
          "time": 68,
          "velocity": 0.3937007874015748
        },
        {
          "duration": 0.125,
          "durationTicks": 96,
          "midi": 72,
          "name": "C5",
          "ticks": 52224,
          "time": 68,
          "velocity": 0.3937007874015748
        },
        {
          "duration": 0.125,
          "durationTicks": 96,
          "midi": 38,
          "name": "D2",
          "ticks": 52320,
          "time": 68.125,
          "velocity": 0.3937007874015748
        },
        {
          "duration": 0.125,
          "durationTicks": 96,
          "midi": 38,
          "name": "D2",
          "ticks": 52416,
          "time": 68.25,
          "velocity": 0.3937007874015748
        },
        {
          "duration": 0.125,
          "durationTicks": 96,
          "midi": 69,
          "name": "A4",
          "ticks": 52416,
          "time": 68.25,
          "velocity": 0.3937007874015748
        },
        {
          "duration": 0.125,
          "durationTicks": 96,
          "midi": 68,
          "name": "G#4",
          "ticks": 52512,
          "time": 68.375,
          "velocity": 0.3937007874015748
        },
        {
          "duration": 0.125,
          "durationTicks": 96,
          "midi": 38,
          "name": "D2",
          "ticks": 52608,
          "time": 68.5,
          "velocity": 0.3937007874015748
        },
        {
          "duration": 0.125,
          "durationTicks": 96,
          "midi": 67,
          "name": "G4",
          "ticks": 52608,
          "time": 68.5,
          "velocity": 0.3937007874015748
        },
        {
          "duration": 0.125,
          "durationTicks": 96,
          "midi": 38,
          "name": "D2",
          "ticks": 52704,
          "time": 68.625,
          "velocity": 0.3937007874015748
        },
        {
          "duration": 0.125,
          "durationTicks": 96,
          "midi": 65,
          "name": "F4",
          "ticks": 52704,
          "time": 68.625,
          "velocity": 0.3937007874015748
        },
        {
          "duration": 0.125,
          "durationTicks": 96,
          "midi": 62,
          "name": "D4",
          "ticks": 52800,
          "time": 68.75,
          "velocity": 0.3937007874015748
        },
        {
          "duration": 0.125,
          "durationTicks": 96,
          "midi": 37,
          "name": "C#2",
          "ticks": 52896,
          "time": 68.875,
          "velocity": 0.3937007874015748
        },
        {
          "duration": 0.125,
          "durationTicks": 96,
          "midi": 64,
          "name": "E4",
          "ticks": 52896,
          "time": 68.875,
          "velocity": 0.3937007874015748
        },
        {
          "duration": 0.125,
          "durationTicks": 96,
          "midi": 65,
          "name": "F4",
          "ticks": 52992,
          "time": 69,
          "velocity": 0.3937007874015748
        },
        {
          "duration": 0.125,
          "durationTicks": 96,
          "midi": 37,
          "name": "C#2",
          "ticks": 53088,
          "time": 69.125,
          "velocity": 0.3937007874015748
        },
        {
          "duration": 0.125,
          "durationTicks": 96,
          "midi": 67,
          "name": "G4",
          "ticks": 53184,
          "time": 69.25,
          "velocity": 0.3937007874015748
        },
        {
          "duration": 0.125,
          "durationTicks": 96,
          "midi": 37,
          "name": "C#2",
          "ticks": 53280,
          "time": 69.375,
          "velocity": 0.3937007874015748
        },
        {
          "duration": 0.125,
          "durationTicks": 96,
          "midi": 69,
          "name": "A4",
          "ticks": 53376,
          "time": 69.5,
          "velocity": 0.3937007874015748
        },
        {
          "duration": 0.125,
          "durationTicks": 96,
          "midi": 37,
          "name": "C#2",
          "ticks": 53472,
          "time": 69.625,
          "velocity": 0.3937007874015748
        },
        {
          "duration": 0.125,
          "durationTicks": 96,
          "midi": 37,
          "name": "C#2",
          "ticks": 53568,
          "time": 69.75,
          "velocity": 0.3937007874015748
        },
        {
          "duration": 0.125,
          "durationTicks": 96,
          "midi": 72,
          "name": "C5",
          "ticks": 53568,
          "time": 69.75,
          "velocity": 0.3937007874015748
        },
        {
          "duration": 0.125,
          "durationTicks": 96,
          "midi": 37,
          "name": "C#2",
          "ticks": 53664,
          "time": 69.875,
          "velocity": 0.3937007874015748
        },
        {
          "duration": 0.125,
          "durationTicks": 96,
          "midi": 36,
          "name": "C2",
          "ticks": 53760,
          "time": 70,
          "velocity": 0.3937007874015748
        },
        {
          "duration": 0.125,
          "durationTicks": 96,
          "midi": 73,
          "name": "C#5",
          "ticks": 53760,
          "time": 70,
          "velocity": 0.3937007874015748
        },
        {
          "duration": 0.125,
          "durationTicks": 96,
          "midi": 36,
          "name": "C2",
          "ticks": 53856,
          "time": 70.125,
          "velocity": 0.3937007874015748
        },
        {
          "duration": 0.125,
          "durationTicks": 96,
          "midi": 36,
          "name": "C2",
          "ticks": 53952,
          "time": 70.25,
          "velocity": 0.3937007874015748
        },
        {
          "duration": 0.125,
          "durationTicks": 96,
          "midi": 68,
          "name": "G#4",
          "ticks": 53952,
          "time": 70.25,
          "velocity": 0.3937007874015748
        },
        {
          "duration": 0.125,
          "durationTicks": 96,
          "midi": 36,
          "name": "C2",
          "ticks": 54144,
          "time": 70.5,
          "velocity": 0.3937007874015748
        },
        {
          "duration": 0.125,
          "durationTicks": 96,
          "midi": 68,
          "name": "G#4",
          "ticks": 54144,
          "time": 70.5,
          "velocity": 0.3937007874015748
        },
        {
          "duration": 0.125,
          "durationTicks": 96,
          "midi": 36,
          "name": "C2",
          "ticks": 54240,
          "time": 70.625,
          "velocity": 0.3937007874015748
        },
        {
          "duration": 0.125,
          "durationTicks": 96,
          "midi": 67,
          "name": "G4",
          "ticks": 54240,
          "time": 70.625,
          "velocity": 0.3937007874015748
        },
        {
          "duration": 0.125,
          "durationTicks": 96,
          "midi": 65,
          "name": "F4",
          "ticks": 54336,
          "time": 70.75,
          "velocity": 0.3937007874015748
        },
        {
          "duration": 0.125,
          "durationTicks": 96,
          "midi": 35,
          "name": "B1",
          "ticks": 54432,
          "time": 70.875,
          "velocity": 0.3937007874015748
        },
        {
          "duration": 1.125,
          "durationTicks": 864,
          "midi": 67,
          "name": "G4",
          "ticks": 54432,
          "time": 70.875,
          "velocity": 0.3937007874015748
        },
        {
          "duration": 0.125,
          "durationTicks": 96,
          "midi": 35,
          "name": "B1",
          "ticks": 54624,
          "time": 71.125,
          "velocity": 0.3937007874015748
        },
        {
          "duration": 0.125,
          "durationTicks": 96,
          "midi": 35,
          "name": "B1",
          "ticks": 54816,
          "time": 71.375,
          "velocity": 0.3937007874015748
        },
        {
          "duration": 0.125,
          "durationTicks": 96,
          "midi": 35,
          "name": "B1",
          "ticks": 55008,
          "time": 71.625,
          "velocity": 0.3937007874015748
        },
        {
          "duration": 0.125,
          "durationTicks": 96,
          "midi": 35,
          "name": "B1",
          "ticks": 55104,
          "time": 71.75,
          "velocity": 0.3937007874015748
        },
        {
          "duration": 0.125,
          "durationTicks": 96,
          "midi": 35,
          "name": "B1",
          "ticks": 55200,
          "time": 71.875,
          "velocity": 0.3937007874015748
        },
        {
          "duration": 0.25,
          "durationTicks": 192,
          "midi": 65,
          "name": "F4",
          "ticks": 55296,
          "time": 72,
          "velocity": 0.3937007874015748
        },
        {
          "duration": 0.125,
          "durationTicks": 96,
          "midi": 34,
          "name": "A#1",
          "ticks": 55296,
          "time": 72,
          "velocity": 0.3937007874015748
        },
        {
          "duration": 0.125,
          "durationTicks": 96,
          "midi": 34,
          "name": "A#1",
          "ticks": 55392,
          "time": 72.125,
          "velocity": 0.3937007874015748
        },
        {
          "duration": 0.25,
          "durationTicks": 192,
          "midi": 67,
          "name": "G4",
          "ticks": 55488,
          "time": 72.25,
          "velocity": 0.3937007874015748
        },
        {
          "duration": 0.125,
          "durationTicks": 96,
          "midi": 34,
          "name": "A#1",
          "ticks": 55488,
          "time": 72.25,
          "velocity": 0.3937007874015748
        },
        {
          "duration": 0.25,
          "durationTicks": 192,
          "midi": 69,
          "name": "A4",
          "ticks": 55680,
          "time": 72.5,
          "velocity": 0.3937007874015748
        },
        {
          "duration": 0.125,
          "durationTicks": 96,
          "midi": 34,
          "name": "A#1",
          "ticks": 55680,
          "time": 72.5,
          "velocity": 0.3937007874015748
        },
        {
          "duration": 0.125,
          "durationTicks": 96,
          "midi": 34,
          "name": "A#1",
          "ticks": 55776,
          "time": 72.625,
          "velocity": 0.3937007874015748
        },
        {
          "duration": 0.25,
          "durationTicks": 192,
          "midi": 77,
          "name": "F5",
          "ticks": 55872,
          "time": 72.75,
          "velocity": 0.3937007874015748
        },
        {
          "duration": 0.125,
          "durationTicks": 96,
          "midi": 34,
          "name": "A#1",
          "ticks": 55968,
          "time": 72.875,
          "velocity": 0.3937007874015748
        },
        {
          "duration": 0.5,
          "durationTicks": 384,
          "midi": 76,
          "name": "E5",
          "ticks": 56064,
          "time": 73,
          "velocity": 0.3937007874015748
        },
        {
          "duration": 0.125,
          "durationTicks": 96,
          "midi": 34,
          "name": "A#1",
          "ticks": 56160,
          "time": 73.125,
          "velocity": 0.3937007874015748
        },
        {
          "duration": 0.125,
          "durationTicks": 96,
          "midi": 34,
          "name": "A#1",
          "ticks": 56352,
          "time": 73.375,
          "velocity": 0.3937007874015748
        },
        {
          "duration": 0.5,
          "durationTicks": 384,
          "midi": 74,
          "name": "D5",
          "ticks": 56448,
          "time": 73.5,
          "velocity": 0.3937007874015748
        },
        {
          "duration": 0.125,
          "durationTicks": 96,
          "midi": 34,
          "name": "A#1",
          "ticks": 56544,
          "time": 73.625,
          "velocity": 0.3937007874015748
        },
        {
          "duration": 0.125,
          "durationTicks": 96,
          "midi": 34,
          "name": "A#1",
          "ticks": 56640,
          "time": 73.75,
          "velocity": 0.3937007874015748
        },
        {
          "duration": 0.125,
          "durationTicks": 96,
          "midi": 34,
          "name": "A#1",
          "ticks": 56736,
          "time": 73.875,
          "velocity": 0.3937007874015748
        },
        {
          "duration": 0.125,
          "durationTicks": 96,
          "midi": 36,
          "name": "C2",
          "ticks": 56832,
          "time": 74,
          "velocity": 0.3937007874015748
        },
        {
          "duration": 0.5,
          "durationTicks": 384,
          "midi": 76,
          "name": "E5",
          "ticks": 56832,
          "time": 74,
          "velocity": 0.3937007874015748
        },
        {
          "duration": 0.125,
          "durationTicks": 96,
          "midi": 36,
          "name": "C2",
          "ticks": 56928,
          "time": 74.125,
          "velocity": 0.3937007874015748
        },
        {
          "duration": 0.125,
          "durationTicks": 96,
          "midi": 36,
          "name": "C2",
          "ticks": 57024,
          "time": 74.25,
          "velocity": 0.3937007874015748
        },
        {
          "duration": 0.125,
          "durationTicks": 96,
          "midi": 36,
          "name": "C2",
          "ticks": 57216,
          "time": 74.5,
          "velocity": 0.3937007874015748
        },
        {
          "duration": 0.5,
          "durationTicks": 384,
          "midi": 77,
          "name": "F5",
          "ticks": 57216,
          "time": 74.5,
          "velocity": 0.3937007874015748
        },
        {
          "duration": 0.125,
          "durationTicks": 96,
          "midi": 36,
          "name": "C2",
          "ticks": 57312,
          "time": 74.625,
          "velocity": 0.3937007874015748
        },
        {
          "duration": 0.125,
          "durationTicks": 96,
          "midi": 36,
          "name": "C2",
          "ticks": 57504,
          "time": 74.875,
          "velocity": 0.3937007874015748
        },
        {
          "duration": 0.5,
          "durationTicks": 384,
          "midi": 79,
          "name": "G5",
          "ticks": 57600,
          "time": 75,
          "velocity": 0.3937007874015748
        },
        {
          "duration": 0.125,
          "durationTicks": 96,
          "midi": 36,
          "name": "C2",
          "ticks": 57696,
          "time": 75.125,
          "velocity": 0.3937007874015748
        },
        {
          "duration": 0.125,
          "durationTicks": 96,
          "midi": 36,
          "name": "C2",
          "ticks": 57888,
          "time": 75.375,
          "velocity": 0.3937007874015748
        },
        {
          "duration": 0.5,
          "durationTicks": 384,
          "midi": 76,
          "name": "E5",
          "ticks": 57984,
          "time": 75.5,
          "velocity": 0.3937007874015748
        },
        {
          "duration": 0.125,
          "durationTicks": 96,
          "midi": 36,
          "name": "C2",
          "ticks": 58080,
          "time": 75.625,
          "velocity": 0.3937007874015748
        },
        {
          "duration": 0.125,
          "durationTicks": 96,
          "midi": 36,
          "name": "C2",
          "ticks": 58176,
          "time": 75.75,
          "velocity": 0.3937007874015748
        },
        {
          "duration": 0.125,
          "durationTicks": 96,
          "midi": 36,
          "name": "C2",
          "ticks": 58272,
          "time": 75.875,
          "velocity": 0.3937007874015748
        },
        {
          "duration": 0.125,
          "durationTicks": 96,
          "midi": 38,
          "name": "D2",
          "ticks": 58368,
          "time": 76,
          "velocity": 0.3937007874015748
        },
        {
          "duration": 1,
          "durationTicks": 768,
          "midi": 81,
          "name": "A5",
          "ticks": 58368,
          "time": 76,
          "velocity": 0.3937007874015748
        },
        {
          "duration": 0.125,
          "durationTicks": 96,
          "midi": 38,
          "name": "D2",
          "ticks": 58464,
          "time": 76.125,
          "velocity": 0.3937007874015748
        },
        {
          "duration": 0.125,
          "durationTicks": 96,
          "midi": 38,
          "name": "D2",
          "ticks": 58560,
          "time": 76.25,
          "velocity": 0.3937007874015748
        },
        {
          "duration": 0.125,
          "durationTicks": 96,
          "midi": 38,
          "name": "D2",
          "ticks": 58752,
          "time": 76.5,
          "velocity": 0.3937007874015748
        },
        {
          "duration": 0.125,
          "durationTicks": 96,
          "midi": 38,
          "name": "D2",
          "ticks": 58848,
          "time": 76.625,
          "velocity": 0.3937007874015748
        },
        {
          "duration": 0.125,
          "durationTicks": 96,
          "midi": 38,
          "name": "D2",
          "ticks": 59040,
          "time": 76.875,
          "velocity": 0.3937007874015748
        },
        {
          "duration": 0.125,
          "durationTicks": 96,
          "midi": 81,
          "name": "A5",
          "ticks": 59136,
          "time": 77,
          "velocity": 0.3937007874015748
        },
        {
          "duration": 0.125,
          "durationTicks": 96,
          "midi": 38,
          "name": "D2",
          "ticks": 59232,
          "time": 77.125,
          "velocity": 0.3937007874015748
        },
        {
          "duration": 0.125,
          "durationTicks": 96,
          "midi": 80,
          "name": "G#5",
          "ticks": 59232,
          "time": 77.125,
          "velocity": 0.3937007874015748
        },
        {
          "duration": 0.125,
          "durationTicks": 96,
          "midi": 79,
          "name": "G5",
          "ticks": 59328,
          "time": 77.25,
          "velocity": 0.3937007874015748
        },
        {
          "duration": 0.125,
          "durationTicks": 96,
          "midi": 38,
          "name": "D2",
          "ticks": 59424,
          "time": 77.375,
          "velocity": 0.3937007874015748
        },
        {
          "duration": 0.125,
          "durationTicks": 96,
          "midi": 78,
          "name": "F#5",
          "ticks": 59424,
          "time": 77.375,
          "velocity": 0.3937007874015748
        },
        {
          "duration": 0.125,
          "durationTicks": 96,
          "midi": 77,
          "name": "F5",
          "ticks": 59520,
          "time": 77.5,
          "velocity": 0.3937007874015748
        },
        {
          "duration": 0.125,
          "durationTicks": 96,
          "midi": 38,
          "name": "D2",
          "ticks": 59616,
          "time": 77.625,
          "velocity": 0.3937007874015748
        },
        {
          "duration": 0.125,
          "durationTicks": 96,
          "midi": 76,
          "name": "E5",
          "ticks": 59616,
          "time": 77.625,
          "velocity": 0.3937007874015748
        },
        {
          "duration": 0.125,
          "durationTicks": 96,
          "midi": 38,
          "name": "D2",
          "ticks": 59712,
          "time": 77.75,
          "velocity": 0.3937007874015748
        },
        {
          "duration": 0.125,
          "durationTicks": 96,
          "midi": 75,
          "name": "D#5",
          "ticks": 59712,
          "time": 77.75,
          "velocity": 0.3937007874015748
        },
        {
          "duration": 0.125,
          "durationTicks": 96,
          "midi": 38,
          "name": "D2",
          "ticks": 59808,
          "time": 77.875,
          "velocity": 0.3937007874015748
        },
        {
          "duration": 0.125,
          "durationTicks": 96,
          "midi": 74,
          "name": "D5",
          "ticks": 59808,
          "time": 77.875,
          "velocity": 0.3937007874015748
        },
        {
          "duration": 1,
          "durationTicks": 768,
          "midi": 73,
          "name": "C#5",
          "ticks": 59904,
          "time": 78,
          "velocity": 0.3937007874015748
        },
        {
          "duration": 0.125,
          "durationTicks": 96,
          "midi": 38,
          "name": "D2",
          "ticks": 59904,
          "time": 78,
          "velocity": 0.3937007874015748
        },
        {
          "duration": 0.125,
          "durationTicks": 96,
          "midi": 38,
          "name": "D2",
          "ticks": 60000,
          "time": 78.125,
          "velocity": 0.3937007874015748
        },
        {
          "duration": 0.125,
          "durationTicks": 96,
          "midi": 38,
          "name": "D2",
          "ticks": 60096,
          "time": 78.25,
          "velocity": 0.3937007874015748
        },
        {
          "duration": 0.125,
          "durationTicks": 96,
          "midi": 38,
          "name": "D2",
          "ticks": 60288,
          "time": 78.5,
          "velocity": 0.3937007874015748
        },
        {
          "duration": 0.125,
          "durationTicks": 96,
          "midi": 38,
          "name": "D2",
          "ticks": 60384,
          "time": 78.625,
          "velocity": 0.3937007874015748
        },
        {
          "duration": 0.125,
          "durationTicks": 96,
          "midi": 38,
          "name": "D2",
          "ticks": 60576,
          "time": 78.875,
          "velocity": 0.3937007874015748
        },
        {
          "duration": 1,
          "durationTicks": 768,
          "midi": 75,
          "name": "D#5",
          "ticks": 60672,
          "time": 79,
          "velocity": 0.3937007874015748
        },
        {
          "duration": 0.125,
          "durationTicks": 96,
          "midi": 38,
          "name": "D2",
          "ticks": 60768,
          "time": 79.125,
          "velocity": 0.3937007874015748
        },
        {
          "duration": 0.125,
          "durationTicks": 96,
          "midi": 38,
          "name": "D2",
          "ticks": 60960,
          "time": 79.375,
          "velocity": 0.3937007874015748
        },
        {
          "duration": 0.125,
          "durationTicks": 96,
          "midi": 38,
          "name": "D2",
          "ticks": 61152,
          "time": 79.625,
          "velocity": 0.3937007874015748
        },
        {
          "duration": 0.125,
          "durationTicks": 96,
          "midi": 38,
          "name": "D2",
          "ticks": 61248,
          "time": 79.75,
          "velocity": 0.3937007874015748
        },
        {
          "duration": 0.125,
          "durationTicks": 96,
          "midi": 38,
          "name": "D2",
          "ticks": 61344,
          "time": 79.875,
          "velocity": 0.3937007874015748
        },
        {
          "duration": 0.125,
          "durationTicks": 96,
          "midi": 34,
          "name": "A#1",
          "ticks": 61440,
          "time": 80,
          "velocity": 0.3937007874015748
        },
        {
          "duration": 1.5,
          "durationTicks": 1152,
          "midi": 58,
          "name": "A#3",
          "ticks": 61440,
          "time": 80,
          "velocity": 0.3937007874015748
        },
        {
          "duration": 0.125,
          "durationTicks": 96,
          "midi": 34,
          "name": "A#1",
          "ticks": 61536,
          "time": 80.125,
          "velocity": 0.3937007874015748
        },
        {
          "duration": 0.125,
          "durationTicks": 96,
          "midi": 34,
          "name": "A#1",
          "ticks": 61632,
          "time": 80.25,
          "velocity": 0.3937007874015748
        },
        {
          "duration": 0.125,
          "durationTicks": 96,
          "midi": 34,
          "name": "A#1",
          "ticks": 61824,
          "time": 80.5,
          "velocity": 0.3937007874015748
        },
        {
          "duration": 0.125,
          "durationTicks": 96,
          "midi": 34,
          "name": "A#1",
          "ticks": 61920,
          "time": 80.625,
          "velocity": 0.3937007874015748
        },
        {
          "duration": 0.125,
          "durationTicks": 96,
          "midi": 34,
          "name": "A#1",
          "ticks": 62112,
          "time": 80.875,
          "velocity": 0.3937007874015748
        },
        {
          "duration": 0.125,
          "durationTicks": 96,
          "midi": 34,
          "name": "A#1",
          "ticks": 62304,
          "time": 81.125,
          "velocity": 0.3937007874015748
        },
        {
          "duration": 0.125,
          "durationTicks": 96,
          "midi": 34,
          "name": "A#1",
          "ticks": 62496,
          "time": 81.375,
          "velocity": 0.3937007874015748
        },
        {
          "duration": 0.5,
          "durationTicks": 384,
          "midi": 65,
          "name": "F4",
          "ticks": 62592,
          "time": 81.5,
          "velocity": 0.3937007874015748
        },
        {
          "duration": 0.125,
          "durationTicks": 96,
          "midi": 34,
          "name": "A#1",
          "ticks": 62688,
          "time": 81.625,
          "velocity": 0.3937007874015748
        },
        {
          "duration": 0.125,
          "durationTicks": 96,
          "midi": 34,
          "name": "A#1",
          "ticks": 62784,
          "time": 81.75,
          "velocity": 0.3937007874015748
        },
        {
          "duration": 0.125,
          "durationTicks": 96,
          "midi": 34,
          "name": "A#1",
          "ticks": 62880,
          "time": 81.875,
          "velocity": 0.3937007874015748
        },
        {
          "duration": 0.125,
          "durationTicks": 96,
          "midi": 36,
          "name": "C2",
          "ticks": 62976,
          "time": 82,
          "velocity": 0.3937007874015748
        },
        {
          "duration": 1,
          "durationTicks": 768,
          "midi": 64,
          "name": "E4",
          "ticks": 62976,
          "time": 82,
          "velocity": 0.3937007874015748
        },
        {
          "duration": 0.125,
          "durationTicks": 96,
          "midi": 36,
          "name": "C2",
          "ticks": 63072,
          "time": 82.125,
          "velocity": 0.3937007874015748
        },
        {
          "duration": 0.125,
          "durationTicks": 96,
          "midi": 36,
          "name": "C2",
          "ticks": 63168,
          "time": 82.25,
          "velocity": 0.3937007874015748
        },
        {
          "duration": 0.125,
          "durationTicks": 96,
          "midi": 36,
          "name": "C2",
          "ticks": 63360,
          "time": 82.5,
          "velocity": 0.3937007874015748
        },
        {
          "duration": 0.125,
          "durationTicks": 96,
          "midi": 36,
          "name": "C2",
          "ticks": 63456,
          "time": 82.625,
          "velocity": 0.3937007874015748
        },
        {
          "duration": 0.125,
          "durationTicks": 96,
          "midi": 36,
          "name": "C2",
          "ticks": 63648,
          "time": 82.875,
          "velocity": 0.3937007874015748
        },
        {
          "duration": 1,
          "durationTicks": 768,
          "midi": 62,
          "name": "D4",
          "ticks": 63744,
          "time": 83,
          "velocity": 0.3937007874015748
        },
        {
          "duration": 0.125,
          "durationTicks": 96,
          "midi": 36,
          "name": "C2",
          "ticks": 63840,
          "time": 83.125,
          "velocity": 0.3937007874015748
        },
        {
          "duration": 0.125,
          "durationTicks": 96,
          "midi": 36,
          "name": "C2",
          "ticks": 64032,
          "time": 83.375,
          "velocity": 0.3937007874015748
        },
        {
          "duration": 0.125,
          "durationTicks": 96,
          "midi": 36,
          "name": "C2",
          "ticks": 64224,
          "time": 83.625,
          "velocity": 0.3937007874015748
        },
        {
          "duration": 0.125,
          "durationTicks": 96,
          "midi": 36,
          "name": "C2",
          "ticks": 64320,
          "time": 83.75,
          "velocity": 0.3937007874015748
        },
        {
          "duration": 0.125,
          "durationTicks": 96,
          "midi": 36,
          "name": "C2",
          "ticks": 64416,
          "time": 83.875,
          "velocity": 0.3937007874015748
        },
        {
          "duration": 4,
          "durationTicks": 3072,
          "midi": 65,
          "name": "F4",
          "ticks": 64512,
          "time": 84,
          "velocity": 0.3937007874015748
        },
        {
          "duration": 0.125,
          "durationTicks": 96,
          "midi": 35,
          "name": "B1",
          "ticks": 64512,
          "time": 84,
          "velocity": 0.3937007874015748
        },
        {
          "duration": 0.125,
          "durationTicks": 96,
          "midi": 35,
          "name": "B1",
          "ticks": 64608,
          "time": 84.125,
          "velocity": 0.3937007874015748
        },
        {
          "duration": 0.125,
          "durationTicks": 96,
          "midi": 35,
          "name": "B1",
          "ticks": 64704,
          "time": 84.25,
          "velocity": 0.3937007874015748
        },
        {
          "duration": 0.125,
          "durationTicks": 96,
          "midi": 35,
          "name": "B1",
          "ticks": 64896,
          "time": 84.5,
          "velocity": 0.3937007874015748
        },
        {
          "duration": 0.125,
          "durationTicks": 96,
          "midi": 35,
          "name": "B1",
          "ticks": 64992,
          "time": 84.625,
          "velocity": 0.3937007874015748
        },
        {
          "duration": 0.125,
          "durationTicks": 96,
          "midi": 35,
          "name": "B1",
          "ticks": 65184,
          "time": 84.875,
          "velocity": 0.3937007874015748
        },
        {
          "duration": 0.125,
          "durationTicks": 96,
          "midi": 35,
          "name": "B1",
          "ticks": 65376,
          "time": 85.125,
          "velocity": 0.3937007874015748
        },
        {
          "duration": 0.125,
          "durationTicks": 96,
          "midi": 35,
          "name": "B1",
          "ticks": 65568,
          "time": 85.375,
          "velocity": 0.3937007874015748
        },
        {
          "duration": 0.125,
          "durationTicks": 96,
          "midi": 35,
          "name": "B1",
          "ticks": 65760,
          "time": 85.625,
          "velocity": 0.3937007874015748
        },
        {
          "duration": 0.125,
          "durationTicks": 96,
          "midi": 35,
          "name": "B1",
          "ticks": 65856,
          "time": 85.75,
          "velocity": 0.3937007874015748
        },
        {
          "duration": 0.125,
          "durationTicks": 96,
          "midi": 35,
          "name": "B1",
          "ticks": 65952,
          "time": 85.875,
          "velocity": 0.3937007874015748
        },
        {
          "duration": 0.125,
          "durationTicks": 96,
          "midi": 35,
          "name": "B1",
          "ticks": 66048,
          "time": 86,
          "velocity": 0.3937007874015748
        },
        {
          "duration": 0.125,
          "durationTicks": 96,
          "midi": 35,
          "name": "B1",
          "ticks": 66144,
          "time": 86.125,
          "velocity": 0.3937007874015748
        },
        {
          "duration": 0.125,
          "durationTicks": 96,
          "midi": 35,
          "name": "B1",
          "ticks": 66240,
          "time": 86.25,
          "velocity": 0.3937007874015748
        },
        {
          "duration": 0.125,
          "durationTicks": 96,
          "midi": 35,
          "name": "B1",
          "ticks": 66432,
          "time": 86.5,
          "velocity": 0.3937007874015748
        },
        {
          "duration": 0.125,
          "durationTicks": 96,
          "midi": 35,
          "name": "B1",
          "ticks": 66528,
          "time": 86.625,
          "velocity": 0.3937007874015748
        },
        {
          "duration": 0.125,
          "durationTicks": 96,
          "midi": 35,
          "name": "B1",
          "ticks": 66720,
          "time": 86.875,
          "velocity": 0.3937007874015748
        },
        {
          "duration": 0.125,
          "durationTicks": 96,
          "midi": 35,
          "name": "B1",
          "ticks": 66912,
          "time": 87.125,
          "velocity": 0.3937007874015748
        },
        {
          "duration": 0.125,
          "durationTicks": 96,
          "midi": 35,
          "name": "B1",
          "ticks": 67104,
          "time": 87.375,
          "velocity": 0.3937007874015748
        },
        {
          "duration": 0.125,
          "durationTicks": 96,
          "midi": 35,
          "name": "B1",
          "ticks": 67296,
          "time": 87.625,
          "velocity": 0.3937007874015748
        },
        {
          "duration": 0.125,
          "durationTicks": 96,
          "midi": 35,
          "name": "B1",
          "ticks": 67392,
          "time": 87.75,
          "velocity": 0.3937007874015748
        },
        {
          "duration": 0.125,
          "durationTicks": 96,
          "midi": 35,
          "name": "B1",
          "ticks": 67488,
          "time": 87.875,
          "velocity": 0.3937007874015748
        },
        {
          "duration": 0.125,
          "durationTicks": 96,
          "midi": 34,
          "name": "A#1",
          "ticks": 67584,
          "time": 88,
          "velocity": 0.3937007874015748
        },
        {
          "duration": 1.5,
          "durationTicks": 1152,
          "midi": 58,
          "name": "A#3",
          "ticks": 67584,
          "time": 88,
          "velocity": 0.3937007874015748
        },
        {
          "duration": 0.125,
          "durationTicks": 96,
          "midi": 34,
          "name": "A#1",
          "ticks": 67680,
          "time": 88.125,
          "velocity": 0.3937007874015748
        },
        {
          "duration": 0.125,
          "durationTicks": 96,
          "midi": 34,
          "name": "A#1",
          "ticks": 67776,
          "time": 88.25,
          "velocity": 0.3937007874015748
        },
        {
          "duration": 0.125,
          "durationTicks": 96,
          "midi": 34,
          "name": "A#1",
          "ticks": 67968,
          "time": 88.5,
          "velocity": 0.3937007874015748
        },
        {
          "duration": 0.125,
          "durationTicks": 96,
          "midi": 34,
          "name": "A#1",
          "ticks": 68064,
          "time": 88.625,
          "velocity": 0.3937007874015748
        },
        {
          "duration": 0.125,
          "durationTicks": 96,
          "midi": 34,
          "name": "A#1",
          "ticks": 68256,
          "time": 88.875,
          "velocity": 0.3937007874015748
        },
        {
          "duration": 0.125,
          "durationTicks": 96,
          "midi": 34,
          "name": "A#1",
          "ticks": 68448,
          "time": 89.125,
          "velocity": 0.3937007874015748
        },
        {
          "duration": 0.125,
          "durationTicks": 96,
          "midi": 34,
          "name": "A#1",
          "ticks": 68640,
          "time": 89.375,
          "velocity": 0.3937007874015748
        },
        {
          "duration": 0.5,
          "durationTicks": 384,
          "midi": 65,
          "name": "F4",
          "ticks": 68736,
          "time": 89.5,
          "velocity": 0.3937007874015748
        },
        {
          "duration": 0.125,
          "durationTicks": 96,
          "midi": 34,
          "name": "A#1",
          "ticks": 68832,
          "time": 89.625,
          "velocity": 0.3937007874015748
        },
        {
          "duration": 0.125,
          "durationTicks": 96,
          "midi": 34,
          "name": "A#1",
          "ticks": 68928,
          "time": 89.75,
          "velocity": 0.3937007874015748
        },
        {
          "duration": 0.125,
          "durationTicks": 96,
          "midi": 34,
          "name": "A#1",
          "ticks": 69024,
          "time": 89.875,
          "velocity": 0.3937007874015748
        },
        {
          "duration": 0.125,
          "durationTicks": 96,
          "midi": 36,
          "name": "C2",
          "ticks": 69120,
          "time": 90,
          "velocity": 0.3937007874015748
        },
        {
          "duration": 1,
          "durationTicks": 768,
          "midi": 64,
          "name": "E4",
          "ticks": 69120,
          "time": 90,
          "velocity": 0.3937007874015748
        },
        {
          "duration": 0.125,
          "durationTicks": 96,
          "midi": 36,
          "name": "C2",
          "ticks": 69216,
          "time": 90.125,
          "velocity": 0.3937007874015748
        },
        {
          "duration": 0.125,
          "durationTicks": 96,
          "midi": 36,
          "name": "C2",
          "ticks": 69312,
          "time": 90.25,
          "velocity": 0.3937007874015748
        },
        {
          "duration": 0.125,
          "durationTicks": 96,
          "midi": 36,
          "name": "C2",
          "ticks": 69504,
          "time": 90.5,
          "velocity": 0.3937007874015748
        },
        {
          "duration": 0.125,
          "durationTicks": 96,
          "midi": 36,
          "name": "C2",
          "ticks": 69600,
          "time": 90.625,
          "velocity": 0.3937007874015748
        },
        {
          "duration": 0.125,
          "durationTicks": 96,
          "midi": 36,
          "name": "C2",
          "ticks": 69792,
          "time": 90.875,
          "velocity": 0.3937007874015748
        },
        {
          "duration": 1,
          "durationTicks": 768,
          "midi": 62,
          "name": "D4",
          "ticks": 69888,
          "time": 91,
          "velocity": 0.3937007874015748
        },
        {
          "duration": 0.125,
          "durationTicks": 96,
          "midi": 36,
          "name": "C2",
          "ticks": 69984,
          "time": 91.125,
          "velocity": 0.3937007874015748
        },
        {
          "duration": 0.125,
          "durationTicks": 96,
          "midi": 36,
          "name": "C2",
          "ticks": 70176,
          "time": 91.375,
          "velocity": 0.3937007874015748
        },
        {
          "duration": 0.125,
          "durationTicks": 96,
          "midi": 36,
          "name": "C2",
          "ticks": 70368,
          "time": 91.625,
          "velocity": 0.3937007874015748
        },
        {
          "duration": 0.125,
          "durationTicks": 96,
          "midi": 36,
          "name": "C2",
          "ticks": 70464,
          "time": 91.75,
          "velocity": 0.3937007874015748
        },
        {
          "duration": 0.125,
          "durationTicks": 96,
          "midi": 36,
          "name": "C2",
          "ticks": 70560,
          "time": 91.875,
          "velocity": 0.3937007874015748
        },
        {
          "duration": 0.125,
          "durationTicks": 96,
          "midi": 38,
          "name": "D2",
          "ticks": 70656,
          "time": 92,
          "velocity": 0.3937007874015748
        },
        {
          "duration": 4,
          "durationTicks": 3072,
          "midi": 62,
          "name": "D4",
          "ticks": 70656,
          "time": 92,
          "velocity": 0.3937007874015748
        },
        {
          "duration": 0.125,
          "durationTicks": 96,
          "midi": 38,
          "name": "D2",
          "ticks": 70752,
          "time": 92.125,
          "velocity": 0.3937007874015748
        },
        {
          "duration": 0.125,
          "durationTicks": 96,
          "midi": 38,
          "name": "D2",
          "ticks": 70848,
          "time": 92.25,
          "velocity": 0.3937007874015748
        },
        {
          "duration": 0.125,
          "durationTicks": 96,
          "midi": 38,
          "name": "D2",
          "ticks": 71040,
          "time": 92.5,
          "velocity": 0.3937007874015748
        },
        {
          "duration": 0.125,
          "durationTicks": 96,
          "midi": 38,
          "name": "D2",
          "ticks": 71136,
          "time": 92.625,
          "velocity": 0.3937007874015748
        },
        {
          "duration": 0.125,
          "durationTicks": 96,
          "midi": 38,
          "name": "D2",
          "ticks": 71328,
          "time": 92.875,
          "velocity": 0.3937007874015748
        },
        {
          "duration": 0.125,
          "durationTicks": 96,
          "midi": 38,
          "name": "D2",
          "ticks": 71520,
          "time": 93.125,
          "velocity": 0.3937007874015748
        },
        {
          "duration": 0.125,
          "durationTicks": 96,
          "midi": 38,
          "name": "D2",
          "ticks": 71712,
          "time": 93.375,
          "velocity": 0.3937007874015748
        },
        {
          "duration": 0.125,
          "durationTicks": 96,
          "midi": 38,
          "name": "D2",
          "ticks": 71904,
          "time": 93.625,
          "velocity": 0.3937007874015748
        },
        {
          "duration": 0.125,
          "durationTicks": 96,
          "midi": 38,
          "name": "D2",
          "ticks": 72000,
          "time": 93.75,
          "velocity": 0.3937007874015748
        },
        {
          "duration": 0.125,
          "durationTicks": 96,
          "midi": 38,
          "name": "D2",
          "ticks": 72096,
          "time": 93.875,
          "velocity": 0.3937007874015748
        },
        {
          "duration": 0.125,
          "durationTicks": 96,
          "midi": 38,
          "name": "D2",
          "ticks": 72192,
          "time": 94,
          "velocity": 0.3937007874015748
        },
        {
          "duration": 0.125,
          "durationTicks": 96,
          "midi": 38,
          "name": "D2",
          "ticks": 72288,
          "time": 94.125,
          "velocity": 0.3937007874015748
        },
        {
          "duration": 0.125,
          "durationTicks": 96,
          "midi": 38,
          "name": "D2",
          "ticks": 72384,
          "time": 94.25,
          "velocity": 0.3937007874015748
        },
        {
          "duration": 0.125,
          "durationTicks": 96,
          "midi": 38,
          "name": "D2",
          "ticks": 72576,
          "time": 94.5,
          "velocity": 0.3937007874015748
        },
        {
          "duration": 0.125,
          "durationTicks": 96,
          "midi": 38,
          "name": "D2",
          "ticks": 72672,
          "time": 94.625,
          "velocity": 0.3937007874015748
        },
        {
          "duration": 0.125,
          "durationTicks": 96,
          "midi": 38,
          "name": "D2",
          "ticks": 72864,
          "time": 94.875,
          "velocity": 0.3937007874015748
        },
        {
          "duration": 0.125,
          "durationTicks": 96,
          "midi": 38,
          "name": "D2",
          "ticks": 73056,
          "time": 95.125,
          "velocity": 0.3937007874015748
        },
        {
          "duration": 0.125,
          "durationTicks": 96,
          "midi": 38,
          "name": "D2",
          "ticks": 73248,
          "time": 95.375,
          "velocity": 0.3937007874015748
        },
        {
          "duration": 0.125,
          "durationTicks": 96,
          "midi": 38,
          "name": "D2",
          "ticks": 73440,
          "time": 95.625,
          "velocity": 0.3937007874015748
        },
        {
          "duration": 0.125,
          "durationTicks": 96,
          "midi": 38,
          "name": "D2",
          "ticks": 73536,
          "time": 95.75,
          "velocity": 0.3937007874015748
        },
        {
          "duration": 0.125,
          "durationTicks": 96,
          "midi": 38,
          "name": "D2",
          "ticks": 73632,
          "time": 95.875,
          "velocity": 0.3937007874015748
        },
        {
          "duration": 0.125,
          "durationTicks": 96,
          "midi": 34,
          "name": "A#1",
          "ticks": 73728,
          "time": 96,
          "velocity": 0.3937007874015748
        },
        {
          "duration": 1.5,
          "durationTicks": 1152,
          "midi": 58,
          "name": "A#3",
          "ticks": 73728,
          "time": 96,
          "velocity": 0.3937007874015748
        },
        {
          "duration": 0.125,
          "durationTicks": 96,
          "midi": 50,
          "name": "D3",
          "ticks": 73728,
          "time": 96,
          "velocity": 0.3937007874015748
        },
        {
          "duration": 0.125,
          "durationTicks": 96,
          "midi": 34,
          "name": "A#1",
          "ticks": 73824,
          "time": 96.125,
          "velocity": 0.3937007874015748
        },
        {
          "duration": 0.125,
          "durationTicks": 96,
          "midi": 50,
          "name": "D3",
          "ticks": 73824,
          "time": 96.125,
          "velocity": 0.3937007874015748
        },
        {
          "duration": 0.125,
          "durationTicks": 96,
          "midi": 34,
          "name": "A#1",
          "ticks": 73920,
          "time": 96.25,
          "velocity": 0.3937007874015748
        },
        {
          "duration": 0.125,
          "durationTicks": 96,
          "midi": 62,
          "name": "D4",
          "ticks": 73920,
          "time": 96.25,
          "velocity": 0.3937007874015748
        },
        {
          "duration": 0.125,
          "durationTicks": 96,
          "midi": 34,
          "name": "A#1",
          "ticks": 74112,
          "time": 96.5,
          "velocity": 0.3937007874015748
        },
        {
          "duration": 0.125,
          "durationTicks": 96,
          "midi": 57,
          "name": "A3",
          "ticks": 74112,
          "time": 96.5,
          "velocity": 0.3937007874015748
        },
        {
          "duration": 0.125,
          "durationTicks": 96,
          "midi": 34,
          "name": "A#1",
          "ticks": 74208,
          "time": 96.625,
          "velocity": 0.3937007874015748
        },
        {
          "duration": 0.125,
          "durationTicks": 96,
          "midi": 34,
          "name": "A#1",
          "ticks": 74400,
          "time": 96.875,
          "velocity": 0.3937007874015748
        },
        {
          "duration": 0.125,
          "durationTicks": 96,
          "midi": 56,
          "name": "G#3",
          "ticks": 74400,
          "time": 96.875,
          "velocity": 0.3937007874015748
        },
        {
          "duration": 0.125,
          "durationTicks": 96,
          "midi": 34,
          "name": "A#1",
          "ticks": 74592,
          "time": 97.125,
          "velocity": 0.3937007874015748
        },
        {
          "duration": 0.125,
          "durationTicks": 96,
          "midi": 55,
          "name": "G3",
          "ticks": 74592,
          "time": 97.125,
          "velocity": 0.3937007874015748
        },
        {
          "duration": 0.125,
          "durationTicks": 96,
          "midi": 34,
          "name": "A#1",
          "ticks": 74784,
          "time": 97.375,
          "velocity": 0.3937007874015748
        },
        {
          "duration": 0.125,
          "durationTicks": 96,
          "midi": 53,
          "name": "F3",
          "ticks": 74784,
          "time": 97.375,
          "velocity": 0.3937007874015748
        },
        {
          "duration": 0.5,
          "durationTicks": 384,
          "midi": 65,
          "name": "F4",
          "ticks": 74880,
          "time": 97.5,
          "velocity": 0.3937007874015748
        },
        {
          "duration": 0.125,
          "durationTicks": 96,
          "midi": 34,
          "name": "A#1",
          "ticks": 74976,
          "time": 97.625,
          "velocity": 0.3937007874015748
        },
        {
          "duration": 0.125,
          "durationTicks": 96,
          "midi": 50,
          "name": "D3",
          "ticks": 74976,
          "time": 97.625,
          "velocity": 0.3937007874015748
        },
        {
          "duration": 0.125,
          "durationTicks": 96,
          "midi": 34,
          "name": "A#1",
          "ticks": 75072,
          "time": 97.75,
          "velocity": 0.3937007874015748
        },
        {
          "duration": 0.125,
          "durationTicks": 96,
          "midi": 53,
          "name": "F3",
          "ticks": 75072,
          "time": 97.75,
          "velocity": 0.3937007874015748
        },
        {
          "duration": 0.125,
          "durationTicks": 96,
          "midi": 34,
          "name": "A#1",
          "ticks": 75168,
          "time": 97.875,
          "velocity": 0.3937007874015748
        },
        {
          "duration": 0.125,
          "durationTicks": 96,
          "midi": 55,
          "name": "G3",
          "ticks": 75168,
          "time": 97.875,
          "velocity": 0.3937007874015748
        },
        {
          "duration": 0.125,
          "durationTicks": 96,
          "midi": 36,
          "name": "C2",
          "ticks": 75264,
          "time": 98,
          "velocity": 0.3937007874015748
        },
        {
          "duration": 1,
          "durationTicks": 768,
          "midi": 64,
          "name": "E4",
          "ticks": 75264,
          "time": 98,
          "velocity": 0.3937007874015748
        },
        {
          "duration": 0.125,
          "durationTicks": 96,
          "midi": 48,
          "name": "C3",
          "ticks": 75264,
          "time": 98,
          "velocity": 0.3937007874015748
        },
        {
          "duration": 0.125,
          "durationTicks": 96,
          "midi": 36,
          "name": "C2",
          "ticks": 75360,
          "time": 98.125,
          "velocity": 0.3937007874015748
        },
        {
          "duration": 0.125,
          "durationTicks": 96,
          "midi": 48,
          "name": "C3",
          "ticks": 75360,
          "time": 98.125,
          "velocity": 0.3937007874015748
        },
        {
          "duration": 0.125,
          "durationTicks": 96,
          "midi": 36,
          "name": "C2",
          "ticks": 75456,
          "time": 98.25,
          "velocity": 0.3937007874015748
        },
        {
          "duration": 0.125,
          "durationTicks": 96,
          "midi": 62,
          "name": "D4",
          "ticks": 75456,
          "time": 98.25,
          "velocity": 0.3937007874015748
        },
        {
          "duration": 0.125,
          "durationTicks": 96,
          "midi": 36,
          "name": "C2",
          "ticks": 75648,
          "time": 98.5,
          "velocity": 0.3937007874015748
        },
        {
          "duration": 0.125,
          "durationTicks": 96,
          "midi": 57,
          "name": "A3",
          "ticks": 75648,
          "time": 98.5,
          "velocity": 0.3937007874015748
        },
        {
          "duration": 0.125,
          "durationTicks": 96,
          "midi": 36,
          "name": "C2",
          "ticks": 75744,
          "time": 98.625,
          "velocity": 0.3937007874015748
        },
        {
          "duration": 0.125,
          "durationTicks": 96,
          "midi": 36,
          "name": "C2",
          "ticks": 75936,
          "time": 98.875,
          "velocity": 0.3937007874015748
        },
        {
          "duration": 0.125,
          "durationTicks": 96,
          "midi": 56,
          "name": "G#3",
          "ticks": 75936,
          "time": 98.875,
          "velocity": 0.3937007874015748
        },
        {
          "duration": 1,
          "durationTicks": 768,
          "midi": 62,
          "name": "D4",
          "ticks": 76032,
          "time": 99,
          "velocity": 0.3937007874015748
        },
        {
          "duration": 0.125,
          "durationTicks": 96,
          "midi": 36,
          "name": "C2",
          "ticks": 76128,
          "time": 99.125,
          "velocity": 0.3937007874015748
        },
        {
          "duration": 0.125,
          "durationTicks": 96,
          "midi": 55,
          "name": "G3",
          "ticks": 76128,
          "time": 99.125,
          "velocity": 0.3937007874015748
        },
        {
          "duration": 0.125,
          "durationTicks": 96,
          "midi": 36,
          "name": "C2",
          "ticks": 76320,
          "time": 99.375,
          "velocity": 0.3937007874015748
        },
        {
          "duration": 0.125,
          "durationTicks": 96,
          "midi": 53,
          "name": "F3",
          "ticks": 76320,
          "time": 99.375,
          "velocity": 0.3937007874015748
        },
        {
          "duration": 0.125,
          "durationTicks": 96,
          "midi": 36,
          "name": "C2",
          "ticks": 76512,
          "time": 99.625,
          "velocity": 0.3937007874015748
        },
        {
          "duration": 0.125,
          "durationTicks": 96,
          "midi": 50,
          "name": "D3",
          "ticks": 76512,
          "time": 99.625,
          "velocity": 0.3937007874015748
        },
        {
          "duration": 0.125,
          "durationTicks": 96,
          "midi": 36,
          "name": "C2",
          "ticks": 76608,
          "time": 99.75,
          "velocity": 0.3937007874015748
        },
        {
          "duration": 0.125,
          "durationTicks": 96,
          "midi": 53,
          "name": "F3",
          "ticks": 76608,
          "time": 99.75,
          "velocity": 0.3937007874015748
        },
        {
          "duration": 0.125,
          "durationTicks": 96,
          "midi": 36,
          "name": "C2",
          "ticks": 76704,
          "time": 99.875,
          "velocity": 0.3937007874015748
        },
        {
          "duration": 0.125,
          "durationTicks": 96,
          "midi": 55,
          "name": "G3",
          "ticks": 76704,
          "time": 99.875,
          "velocity": 0.3937007874015748
        },
        {
          "duration": 3.75,
          "durationTicks": 2880,
          "midi": 65,
          "name": "F4",
          "ticks": 76800,
          "time": 100,
          "velocity": 0.3937007874015748
        },
        {
          "duration": 0.125,
          "durationTicks": 96,
          "midi": 35,
          "name": "B1",
          "ticks": 76800,
          "time": 100,
          "velocity": 0.3937007874015748
        },
        {
          "duration": 0.125,
          "durationTicks": 96,
          "midi": 47,
          "name": "B2",
          "ticks": 76800,
          "time": 100,
          "velocity": 0.3937007874015748
        },
        {
          "duration": 0.125,
          "durationTicks": 96,
          "midi": 35,
          "name": "B1",
          "ticks": 76896,
          "time": 100.125,
          "velocity": 0.3937007874015748
        },
        {
          "duration": 0.125,
          "durationTicks": 96,
          "midi": 47,
          "name": "B2",
          "ticks": 76896,
          "time": 100.125,
          "velocity": 0.3937007874015748
        },
        {
          "duration": 0.125,
          "durationTicks": 96,
          "midi": 35,
          "name": "B1",
          "ticks": 76992,
          "time": 100.25,
          "velocity": 0.3937007874015748
        },
        {
          "duration": 0.125,
          "durationTicks": 96,
          "midi": 62,
          "name": "D4",
          "ticks": 76992,
          "time": 100.25,
          "velocity": 0.3937007874015748
        },
        {
          "duration": 0.125,
          "durationTicks": 96,
          "midi": 35,
          "name": "B1",
          "ticks": 77184,
          "time": 100.5,
          "velocity": 0.3937007874015748
        },
        {
          "duration": 0.125,
          "durationTicks": 96,
          "midi": 57,
          "name": "A3",
          "ticks": 77184,
          "time": 100.5,
          "velocity": 0.3937007874015748
        },
        {
          "duration": 0.125,
          "durationTicks": 96,
          "midi": 35,
          "name": "B1",
          "ticks": 77280,
          "time": 100.625,
          "velocity": 0.3937007874015748
        },
        {
          "duration": 0.125,
          "durationTicks": 96,
          "midi": 35,
          "name": "B1",
          "ticks": 77472,
          "time": 100.875,
          "velocity": 0.3937007874015748
        },
        {
          "duration": 0.125,
          "durationTicks": 96,
          "midi": 56,
          "name": "G#3",
          "ticks": 77472,
          "time": 100.875,
          "velocity": 0.3937007874015748
        },
        {
          "duration": 0.125,
          "durationTicks": 96,
          "midi": 35,
          "name": "B1",
          "ticks": 77664,
          "time": 101.125,
          "velocity": 0.3937007874015748
        },
        {
          "duration": 0.125,
          "durationTicks": 96,
          "midi": 55,
          "name": "G3",
          "ticks": 77664,
          "time": 101.125,
          "velocity": 0.3937007874015748
        },
        {
          "duration": 0.125,
          "durationTicks": 96,
          "midi": 35,
          "name": "B1",
          "ticks": 77856,
          "time": 101.375,
          "velocity": 0.3937007874015748
        },
        {
          "duration": 0.125,
          "durationTicks": 96,
          "midi": 53,
          "name": "F3",
          "ticks": 77856,
          "time": 101.375,
          "velocity": 0.3937007874015748
        },
        {
          "duration": 0.125,
          "durationTicks": 96,
          "midi": 35,
          "name": "B1",
          "ticks": 78048,
          "time": 101.625,
          "velocity": 0.3937007874015748
        },
        {
          "duration": 0.125,
          "durationTicks": 96,
          "midi": 50,
          "name": "D3",
          "ticks": 78048,
          "time": 101.625,
          "velocity": 0.3937007874015748
        },
        {
          "duration": 0.125,
          "durationTicks": 96,
          "midi": 35,
          "name": "B1",
          "ticks": 78144,
          "time": 101.75,
          "velocity": 0.3937007874015748
        },
        {
          "duration": 0.125,
          "durationTicks": 96,
          "midi": 53,
          "name": "F3",
          "ticks": 78144,
          "time": 101.75,
          "velocity": 0.3937007874015748
        },
        {
          "duration": 0.125,
          "durationTicks": 96,
          "midi": 35,
          "name": "B1",
          "ticks": 78240,
          "time": 101.875,
          "velocity": 0.3937007874015748
        },
        {
          "duration": 0.125,
          "durationTicks": 96,
          "midi": 55,
          "name": "G3",
          "ticks": 78240,
          "time": 101.875,
          "velocity": 0.3937007874015748
        },
        {
          "duration": 0.125,
          "durationTicks": 96,
          "midi": 35,
          "name": "B1",
          "ticks": 78336,
          "time": 102,
          "velocity": 0.3937007874015748
        },
        {
          "duration": 0.125,
          "durationTicks": 96,
          "midi": 47,
          "name": "B2",
          "ticks": 78336,
          "time": 102,
          "velocity": 0.3937007874015748
        },
        {
          "duration": 0.125,
          "durationTicks": 96,
          "midi": 67,
          "name": "G4",
          "ticks": 78336,
          "time": 102,
          "velocity": 0.3937007874015748
        },
        {
          "duration": 0.125,
          "durationTicks": 96,
          "midi": 35,
          "name": "B1",
          "ticks": 78432,
          "time": 102.125,
          "velocity": 0.3937007874015748
        },
        {
          "duration": 0.125,
          "durationTicks": 96,
          "midi": 47,
          "name": "B2",
          "ticks": 78432,
          "time": 102.125,
          "velocity": 0.3937007874015748
        },
        {
          "duration": 0.125,
          "durationTicks": 96,
          "midi": 74,
          "name": "D5",
          "ticks": 78432,
          "time": 102.125,
          "velocity": 0.3937007874015748
        },
        {
          "duration": 0.125,
          "durationTicks": 96,
          "midi": 35,
          "name": "B1",
          "ticks": 78528,
          "time": 102.25,
          "velocity": 0.3937007874015748
        },
        {
          "duration": 0.125,
          "durationTicks": 96,
          "midi": 62,
          "name": "D4",
          "ticks": 78528,
          "time": 102.25,
          "velocity": 0.3937007874015748
        },
        {
          "duration": 0.125,
          "durationTicks": 96,
          "midi": 77,
          "name": "F5",
          "ticks": 78528,
          "time": 102.25,
          "velocity": 0.3937007874015748
        },
        {
          "duration": 0.125,
          "durationTicks": 96,
          "midi": 74,
          "name": "D5",
          "ticks": 78624,
          "time": 102.375,
          "velocity": 0.3937007874015748
        },
        {
          "duration": 0.125,
          "durationTicks": 96,
          "midi": 35,
          "name": "B1",
          "ticks": 78720,
          "time": 102.5,
          "velocity": 0.3937007874015748
        },
        {
          "duration": 0.125,
          "durationTicks": 96,
          "midi": 57,
          "name": "A3",
          "ticks": 78720,
          "time": 102.5,
          "velocity": 0.3937007874015748
        },
        {
          "duration": 0.125,
          "durationTicks": 96,
          "midi": 79,
          "name": "G5",
          "ticks": 78720,
          "time": 102.5,
          "velocity": 0.3937007874015748
        },
        {
          "duration": 0.125,
          "durationTicks": 96,
          "midi": 35,
          "name": "B1",
          "ticks": 78816,
          "time": 102.625,
          "velocity": 0.3937007874015748
        },
        {
          "duration": 0.125,
          "durationTicks": 96,
          "midi": 77,
          "name": "F5",
          "ticks": 78912,
          "time": 102.75,
          "velocity": 0.3937007874015748
        },
        {
          "duration": 0.125,
          "durationTicks": 96,
          "midi": 35,
          "name": "B1",
          "ticks": 79008,
          "time": 102.875,
          "velocity": 0.3937007874015748
        },
        {
          "duration": 0.125,
          "durationTicks": 96,
          "midi": 56,
          "name": "G#3",
          "ticks": 79008,
          "time": 102.875,
          "velocity": 0.3937007874015748
        },
        {
          "duration": 0.125,
          "durationTicks": 96,
          "midi": 74,
          "name": "D5",
          "ticks": 79104,
          "time": 103,
          "velocity": 0.3937007874015748
        },
        {
          "duration": 0.125,
          "durationTicks": 96,
          "midi": 35,
          "name": "B1",
          "ticks": 79200,
          "time": 103.125,
          "velocity": 0.3937007874015748
        },
        {
          "duration": 0.125,
          "durationTicks": 96,
          "midi": 55,
          "name": "G3",
          "ticks": 79200,
          "time": 103.125,
          "velocity": 0.3937007874015748
        },
        {
          "duration": 0.125,
          "durationTicks": 96,
          "midi": 72,
          "name": "C5",
          "ticks": 79200,
          "time": 103.125,
          "velocity": 0.3937007874015748
        },
        {
          "duration": 0.125,
          "durationTicks": 96,
          "midi": 35,
          "name": "B1",
          "ticks": 79392,
          "time": 103.375,
          "velocity": 0.3937007874015748
        },
        {
          "duration": 0.125,
          "durationTicks": 96,
          "midi": 53,
          "name": "F3",
          "ticks": 79392,
          "time": 103.375,
          "velocity": 0.3937007874015748
        },
        {
          "duration": 0.125,
          "durationTicks": 96,
          "midi": 69,
          "name": "A4",
          "ticks": 79392,
          "time": 103.375,
          "velocity": 0.3937007874015748
        },
        {
          "duration": 0.125,
          "durationTicks": 96,
          "midi": 35,
          "name": "B1",
          "ticks": 79584,
          "time": 103.625,
          "velocity": 0.3937007874015748
        },
        {
          "duration": 0.125,
          "durationTicks": 96,
          "midi": 50,
          "name": "D3",
          "ticks": 79584,
          "time": 103.625,
          "velocity": 0.3937007874015748
        },
        {
          "duration": 0.375,
          "durationTicks": 288,
          "midi": 65,
          "name": "F4",
          "ticks": 79584,
          "time": 103.625,
          "velocity": 0.3937007874015748
        },
        {
          "duration": 0.125,
          "durationTicks": 96,
          "midi": 35,
          "name": "B1",
          "ticks": 79680,
          "time": 103.75,
          "velocity": 0.3937007874015748
        },
        {
          "duration": 0.125,
          "durationTicks": 96,
          "midi": 53,
          "name": "F3",
          "ticks": 79680,
          "time": 103.75,
          "velocity": 0.3937007874015748
        },
        {
          "duration": 0.125,
          "durationTicks": 96,
          "midi": 67,
          "name": "G4",
          "ticks": 79680,
          "time": 103.75,
          "velocity": 0.3937007874015748
        },
        {
          "duration": 0.125,
          "durationTicks": 96,
          "midi": 35,
          "name": "B1",
          "ticks": 79776,
          "time": 103.875,
          "velocity": 0.3937007874015748
        },
        {
          "duration": 0.125,
          "durationTicks": 96,
          "midi": 55,
          "name": "G3",
          "ticks": 79776,
          "time": 103.875,
          "velocity": 0.3937007874015748
        },
        {
          "duration": 0.125,
          "durationTicks": 96,
          "midi": 69,
          "name": "A4",
          "ticks": 79776,
          "time": 103.875,
          "velocity": 0.3937007874015748
        },
        {
          "duration": 0.125,
          "durationTicks": 96,
          "midi": 34,
          "name": "A#1",
          "ticks": 79872,
          "time": 104,
          "velocity": 0.3937007874015748
        },
        {
          "duration": 1.5,
          "durationTicks": 1152,
          "midi": 58,
          "name": "A#3",
          "ticks": 79872,
          "time": 104,
          "velocity": 0.3937007874015748
        },
        {
          "duration": 0.125,
          "durationTicks": 96,
          "midi": 50,
          "name": "D3",
          "ticks": 79872,
          "time": 104,
          "velocity": 0.3937007874015748
        },
        {
          "duration": 0.125,
          "durationTicks": 96,
          "midi": 34,
          "name": "A#1",
          "ticks": 79968,
          "time": 104.125,
          "velocity": 0.3937007874015748
        },
        {
          "duration": 0.125,
          "durationTicks": 96,
          "midi": 50,
          "name": "D3",
          "ticks": 79968,
          "time": 104.125,
          "velocity": 0.3937007874015748
        },
        {
          "duration": 0.125,
          "durationTicks": 96,
          "midi": 34,
          "name": "A#1",
          "ticks": 80064,
          "time": 104.25,
          "velocity": 0.3937007874015748
        },
        {
          "duration": 0.125,
          "durationTicks": 96,
          "midi": 62,
          "name": "D4",
          "ticks": 80064,
          "time": 104.25,
          "velocity": 0.3937007874015748
        },
        {
          "duration": 0.125,
          "durationTicks": 96,
          "midi": 34,
          "name": "A#1",
          "ticks": 80256,
          "time": 104.5,
          "velocity": 0.3937007874015748
        },
        {
          "duration": 0.125,
          "durationTicks": 96,
          "midi": 57,
          "name": "A3",
          "ticks": 80256,
          "time": 104.5,
          "velocity": 0.3937007874015748
        },
        {
          "duration": 0.125,
          "durationTicks": 96,
          "midi": 34,
          "name": "A#1",
          "ticks": 80352,
          "time": 104.625,
          "velocity": 0.3937007874015748
        },
        {
          "duration": 0.125,
          "durationTicks": 96,
          "midi": 34,
          "name": "A#1",
          "ticks": 80544,
          "time": 104.875,
          "velocity": 0.3937007874015748
        },
        {
          "duration": 0.125,
          "durationTicks": 96,
          "midi": 56,
          "name": "G#3",
          "ticks": 80544,
          "time": 104.875,
          "velocity": 0.3937007874015748
        },
        {
          "duration": 0.125,
          "durationTicks": 96,
          "midi": 34,
          "name": "A#1",
          "ticks": 80736,
          "time": 105.125,
          "velocity": 0.3937007874015748
        },
        {
          "duration": 0.125,
          "durationTicks": 96,
          "midi": 55,
          "name": "G3",
          "ticks": 80736,
          "time": 105.125,
          "velocity": 0.3937007874015748
        },
        {
          "duration": 0.125,
          "durationTicks": 96,
          "midi": 34,
          "name": "A#1",
          "ticks": 80928,
          "time": 105.375,
          "velocity": 0.3937007874015748
        },
        {
          "duration": 0.125,
          "durationTicks": 96,
          "midi": 53,
          "name": "F3",
          "ticks": 80928,
          "time": 105.375,
          "velocity": 0.3937007874015748
        },
        {
          "duration": 0.5,
          "durationTicks": 384,
          "midi": 65,
          "name": "F4",
          "ticks": 81024,
          "time": 105.5,
          "velocity": 0.3937007874015748
        },
        {
          "duration": 0.125,
          "durationTicks": 96,
          "midi": 34,
          "name": "A#1",
          "ticks": 81120,
          "time": 105.625,
          "velocity": 0.3937007874015748
        },
        {
          "duration": 0.125,
          "durationTicks": 96,
          "midi": 50,
          "name": "D3",
          "ticks": 81120,
          "time": 105.625,
          "velocity": 0.3937007874015748
        },
        {
          "duration": 0.125,
          "durationTicks": 96,
          "midi": 34,
          "name": "A#1",
          "ticks": 81216,
          "time": 105.75,
          "velocity": 0.3937007874015748
        },
        {
          "duration": 0.125,
          "durationTicks": 96,
          "midi": 53,
          "name": "F3",
          "ticks": 81216,
          "time": 105.75,
          "velocity": 0.3937007874015748
        },
        {
          "duration": 0.125,
          "durationTicks": 96,
          "midi": 34,
          "name": "A#1",
          "ticks": 81312,
          "time": 105.875,
          "velocity": 0.3937007874015748
        },
        {
          "duration": 0.125,
          "durationTicks": 96,
          "midi": 55,
          "name": "G3",
          "ticks": 81312,
          "time": 105.875,
          "velocity": 0.3937007874015748
        },
        {
          "duration": 0.125,
          "durationTicks": 96,
          "midi": 36,
          "name": "C2",
          "ticks": 81408,
          "time": 106,
          "velocity": 0.3937007874015748
        },
        {
          "duration": 1,
          "durationTicks": 768,
          "midi": 64,
          "name": "E4",
          "ticks": 81408,
          "time": 106,
          "velocity": 0.3937007874015748
        },
        {
          "duration": 0.125,
          "durationTicks": 96,
          "midi": 48,
          "name": "C3",
          "ticks": 81408,
          "time": 106,
          "velocity": 0.3937007874015748
        },
        {
          "duration": 0.125,
          "durationTicks": 96,
          "midi": 36,
          "name": "C2",
          "ticks": 81504,
          "time": 106.125,
          "velocity": 0.3937007874015748
        },
        {
          "duration": 0.125,
          "durationTicks": 96,
          "midi": 48,
          "name": "C3",
          "ticks": 81504,
          "time": 106.125,
          "velocity": 0.3937007874015748
        },
        {
          "duration": 0.125,
          "durationTicks": 96,
          "midi": 36,
          "name": "C2",
          "ticks": 81600,
          "time": 106.25,
          "velocity": 0.3937007874015748
        },
        {
          "duration": 0.125,
          "durationTicks": 96,
          "midi": 62,
          "name": "D4",
          "ticks": 81600,
          "time": 106.25,
          "velocity": 0.3937007874015748
        },
        {
          "duration": 0.125,
          "durationTicks": 96,
          "midi": 36,
          "name": "C2",
          "ticks": 81792,
          "time": 106.5,
          "velocity": 0.3937007874015748
        },
        {
          "duration": 0.125,
          "durationTicks": 96,
          "midi": 57,
          "name": "A3",
          "ticks": 81792,
          "time": 106.5,
          "velocity": 0.3937007874015748
        },
        {
          "duration": 0.125,
          "durationTicks": 96,
          "midi": 36,
          "name": "C2",
          "ticks": 81888,
          "time": 106.625,
          "velocity": 0.3937007874015748
        },
        {
          "duration": 0.125,
          "durationTicks": 96,
          "midi": 36,
          "name": "C2",
          "ticks": 82080,
          "time": 106.875,
          "velocity": 0.3937007874015748
        },
        {
          "duration": 0.125,
          "durationTicks": 96,
          "midi": 56,
          "name": "G#3",
          "ticks": 82080,
          "time": 106.875,
          "velocity": 0.3937007874015748
        },
        {
          "duration": 1,
          "durationTicks": 768,
          "midi": 62,
          "name": "D4",
          "ticks": 82176,
          "time": 107,
          "velocity": 0.3937007874015748
        },
        {
          "duration": 0.125,
          "durationTicks": 96,
          "midi": 36,
          "name": "C2",
          "ticks": 82272,
          "time": 107.125,
          "velocity": 0.3937007874015748
        },
        {
          "duration": 0.125,
          "durationTicks": 96,
          "midi": 55,
          "name": "G3",
          "ticks": 82272,
          "time": 107.125,
          "velocity": 0.3937007874015748
        },
        {
          "duration": 0.125,
          "durationTicks": 96,
          "midi": 36,
          "name": "C2",
          "ticks": 82464,
          "time": 107.375,
          "velocity": 0.3937007874015748
        },
        {
          "duration": 0.125,
          "durationTicks": 96,
          "midi": 53,
          "name": "F3",
          "ticks": 82464,
          "time": 107.375,
          "velocity": 0.3937007874015748
        },
        {
          "duration": 0.125,
          "durationTicks": 96,
          "midi": 36,
          "name": "C2",
          "ticks": 82656,
          "time": 107.625,
          "velocity": 0.3937007874015748
        },
        {
          "duration": 0.125,
          "durationTicks": 96,
          "midi": 50,
          "name": "D3",
          "ticks": 82656,
          "time": 107.625,
          "velocity": 0.3937007874015748
        },
        {
          "duration": 0.125,
          "durationTicks": 96,
          "midi": 36,
          "name": "C2",
          "ticks": 82752,
          "time": 107.75,
          "velocity": 0.3937007874015748
        },
        {
          "duration": 0.125,
          "durationTicks": 96,
          "midi": 53,
          "name": "F3",
          "ticks": 82752,
          "time": 107.75,
          "velocity": 0.3937007874015748
        },
        {
          "duration": 0.125,
          "durationTicks": 96,
          "midi": 36,
          "name": "C2",
          "ticks": 82848,
          "time": 107.875,
          "velocity": 0.3937007874015748
        },
        {
          "duration": 0.125,
          "durationTicks": 96,
          "midi": 55,
          "name": "G3",
          "ticks": 82848,
          "time": 107.875,
          "velocity": 0.3937007874015748
        },
        {
          "duration": 0.125,
          "durationTicks": 96,
          "midi": 38,
          "name": "D2",
          "ticks": 82944,
          "time": 108,
          "velocity": 0.3937007874015748
        },
        {
          "duration": 0.375,
          "durationTicks": 288,
          "midi": 62,
          "name": "D4",
          "ticks": 82944,
          "time": 108,
          "velocity": 0.3937007874015748
        },
        {
          "duration": 0.125,
          "durationTicks": 96,
          "midi": 47,
          "name": "B2",
          "ticks": 82944,
          "time": 108,
          "velocity": 0.3937007874015748
        },
        {
          "duration": 0.125,
          "durationTicks": 96,
          "midi": 74,
          "name": "D5",
          "ticks": 82944,
          "time": 108,
          "velocity": 0.3937007874015748
        },
        {
          "duration": 0.125,
          "durationTicks": 96,
          "midi": 38,
          "name": "D2",
          "ticks": 83040,
          "time": 108.125,
          "velocity": 0.3937007874015748
        },
        {
          "duration": 0.125,
          "durationTicks": 96,
          "midi": 47,
          "name": "B2",
          "ticks": 83040,
          "time": 108.125,
          "velocity": 0.3937007874015748
        },
        {
          "duration": 0.125,
          "durationTicks": 96,
          "midi": 74,
          "name": "D5",
          "ticks": 83040,
          "time": 108.125,
          "velocity": 0.3937007874015748
        },
        {
          "duration": 0.125,
          "durationTicks": 96,
          "midi": 38,
          "name": "D2",
          "ticks": 83136,
          "time": 108.25,
          "velocity": 0.3937007874015748
        },
        {
          "duration": 2.125,
          "durationTicks": 1632,
          "midi": 62,
          "name": "D4",
          "ticks": 83136,
          "time": 108.25,
          "velocity": 0.3937007874015748
        },
        {
          "duration": 0.125,
          "durationTicks": 96,
          "midi": 77,
          "name": "F5",
          "ticks": 83136,
          "time": 108.25,
          "velocity": 0.3937007874015748
        },
        {
          "duration": 0.125,
          "durationTicks": 96,
          "midi": 38,
          "name": "D2",
          "ticks": 83328,
          "time": 108.5,
          "velocity": 0.3937007874015748
        },
        {
          "duration": 0.125,
          "durationTicks": 96,
          "midi": 57,
          "name": "A3",
          "ticks": 83328,
          "time": 108.5,
          "velocity": 0.3937007874015748
        },
        {
          "duration": 0.125,
          "durationTicks": 96,
          "midi": 76,
          "name": "E5",
          "ticks": 83328,
          "time": 108.5,
          "velocity": 0.3937007874015748
        },
        {
          "duration": 0.125,
          "durationTicks": 96,
          "midi": 38,
          "name": "D2",
          "ticks": 83424,
          "time": 108.625,
          "velocity": 0.3937007874015748
        },
        {
          "duration": 0.125,
          "durationTicks": 96,
          "midi": 38,
          "name": "D2",
          "ticks": 83616,
          "time": 108.875,
          "velocity": 0.3937007874015748
        },
        {
          "duration": 0.125,
          "durationTicks": 96,
          "midi": 56,
          "name": "G#3",
          "ticks": 83616,
          "time": 108.875,
          "velocity": 0.3937007874015748
        },
        {
          "duration": 0.125,
          "durationTicks": 96,
          "midi": 72,
          "name": "C5",
          "ticks": 83616,
          "time": 108.875,
          "velocity": 0.3937007874015748
        },
        {
          "duration": 0.125,
          "durationTicks": 96,
          "midi": 38,
          "name": "D2",
          "ticks": 83808,
          "time": 109.125,
          "velocity": 0.3937007874015748
        },
        {
          "duration": 0.125,
          "durationTicks": 96,
          "midi": 55,
          "name": "G3",
          "ticks": 83808,
          "time": 109.125,
          "velocity": 0.3937007874015748
        },
        {
          "duration": 0.125,
          "durationTicks": 96,
          "midi": 76,
          "name": "E5",
          "ticks": 83808,
          "time": 109.125,
          "velocity": 0.3937007874015748
        },
        {
          "duration": 0.125,
          "durationTicks": 96,
          "midi": 38,
          "name": "D2",
          "ticks": 84000,
          "time": 109.375,
          "velocity": 0.3937007874015748
        },
        {
          "duration": 0.125,
          "durationTicks": 96,
          "midi": 53,
          "name": "F3",
          "ticks": 84000,
          "time": 109.375,
          "velocity": 0.3937007874015748
        },
        {
          "duration": 0.125,
          "durationTicks": 96,
          "midi": 74,
          "name": "D5",
          "ticks": 84000,
          "time": 109.375,
          "velocity": 0.3937007874015748
        },
        {
          "duration": 0.125,
          "durationTicks": 96,
          "midi": 38,
          "name": "D2",
          "ticks": 84192,
          "time": 109.625,
          "velocity": 0.3937007874015748
        },
        {
          "duration": 0.125,
          "durationTicks": 96,
          "midi": 50,
          "name": "D3",
          "ticks": 84192,
          "time": 109.625,
          "velocity": 0.3937007874015748
        },
        {
          "duration": 0.125,
          "durationTicks": 96,
          "midi": 74,
          "name": "D5",
          "ticks": 84192,
          "time": 109.625,
          "velocity": 0.3937007874015748
        },
        {
          "duration": 0.125,
          "durationTicks": 96,
          "midi": 38,
          "name": "D2",
          "ticks": 84288,
          "time": 109.75,
          "velocity": 0.3937007874015748
        },
        {
          "duration": 0.125,
          "durationTicks": 96,
          "midi": 53,
          "name": "F3",
          "ticks": 84288,
          "time": 109.75,
          "velocity": 0.3937007874015748
        },
        {
          "duration": 0.125,
          "durationTicks": 96,
          "midi": 72,
          "name": "C5",
          "ticks": 84288,
          "time": 109.75,
          "velocity": 0.3937007874015748
        },
        {
          "duration": 0.125,
          "durationTicks": 96,
          "midi": 38,
          "name": "D2",
          "ticks": 84384,
          "time": 109.875,
          "velocity": 0.3937007874015748
        },
        {
          "duration": 0.125,
          "durationTicks": 96,
          "midi": 55,
          "name": "G3",
          "ticks": 84384,
          "time": 109.875,
          "velocity": 0.3937007874015748
        },
        {
          "duration": 0.125,
          "durationTicks": 96,
          "midi": 74,
          "name": "D5",
          "ticks": 84384,
          "time": 109.875,
          "velocity": 0.3937007874015748
        },
        {
          "duration": 0.125,
          "durationTicks": 96,
          "midi": 38,
          "name": "D2",
          "ticks": 84480,
          "time": 110,
          "velocity": 0.3937007874015748
        },
        {
          "duration": 0.125,
          "durationTicks": 96,
          "midi": 47,
          "name": "B2",
          "ticks": 84480,
          "time": 110,
          "velocity": 0.3937007874015748
        },
        {
          "duration": 0.125,
          "durationTicks": 96,
          "midi": 74,
          "name": "D5",
          "ticks": 84480,
          "time": 110,
          "velocity": 0.3937007874015748
        },
        {
          "duration": 0.125,
          "durationTicks": 96,
          "midi": 38,
          "name": "D2",
          "ticks": 84576,
          "time": 110.125,
          "velocity": 0.3937007874015748
        },
        {
          "duration": 0.125,
          "durationTicks": 96,
          "midi": 47,
          "name": "B2",
          "ticks": 84576,
          "time": 110.125,
          "velocity": 0.3937007874015748
        },
        {
          "duration": 0.125,
          "durationTicks": 96,
          "midi": 74,
          "name": "D5",
          "ticks": 84576,
          "time": 110.125,
          "velocity": 0.3937007874015748
        },
        {
          "duration": 0.125,
          "durationTicks": 96,
          "midi": 38,
          "name": "D2",
          "ticks": 84672,
          "time": 110.25,
          "velocity": 0.3937007874015748
        },
        {
          "duration": 1.75,
          "durationTicks": 1344,
          "midi": 62,
          "name": "D4",
          "ticks": 84672,
          "time": 110.25,
          "velocity": 0.3937007874015748
        },
        {
          "duration": 0.125,
          "durationTicks": 96,
          "midi": 77,
          "name": "F5",
          "ticks": 84672,
          "time": 110.25,
          "velocity": 0.3937007874015748
        },
        {
          "duration": 0.125,
          "durationTicks": 96,
          "midi": 38,
          "name": "D2",
          "ticks": 84864,
          "time": 110.5,
          "velocity": 0.3937007874015748
        },
        {
          "duration": 0.125,
          "durationTicks": 96,
          "midi": 57,
          "name": "A3",
          "ticks": 84864,
          "time": 110.5,
          "velocity": 0.3937007874015748
        },
        {
          "duration": 0.125,
          "durationTicks": 96,
          "midi": 76,
          "name": "E5",
          "ticks": 84864,
          "time": 110.5,
          "velocity": 0.3937007874015748
        },
        {
          "duration": 0.125,
          "durationTicks": 96,
          "midi": 38,
          "name": "D2",
          "ticks": 84960,
          "time": 110.625,
          "velocity": 0.3937007874015748
        },
        {
          "duration": 0.125,
          "durationTicks": 96,
          "midi": 38,
          "name": "D2",
          "ticks": 85152,
          "time": 110.875,
          "velocity": 0.3937007874015748
        },
        {
          "duration": 0.125,
          "durationTicks": 96,
          "midi": 56,
          "name": "G#3",
          "ticks": 85152,
          "time": 110.875,
          "velocity": 0.3937007874015748
        },
        {
          "duration": 0.125,
          "durationTicks": 96,
          "midi": 72,
          "name": "C5",
          "ticks": 85152,
          "time": 110.875,
          "velocity": 0.3937007874015748
        },
        {
          "duration": 0.125,
          "durationTicks": 96,
          "midi": 38,
          "name": "D2",
          "ticks": 85344,
          "time": 111.125,
          "velocity": 0.3937007874015748
        },
        {
          "duration": 0.125,
          "durationTicks": 96,
          "midi": 55,
          "name": "G3",
          "ticks": 85344,
          "time": 111.125,
          "velocity": 0.3937007874015748
        },
        {
          "duration": 0.125,
          "durationTicks": 96,
          "midi": 76,
          "name": "E5",
          "ticks": 85344,
          "time": 111.125,
          "velocity": 0.3937007874015748
        },
        {
          "duration": 0.125,
          "durationTicks": 96,
          "midi": 38,
          "name": "D2",
          "ticks": 85536,
          "time": 111.375,
          "velocity": 0.3937007874015748
        },
        {
          "duration": 0.125,
          "durationTicks": 96,
          "midi": 53,
          "name": "F3",
          "ticks": 85536,
          "time": 111.375,
          "velocity": 0.3937007874015748
        },
        {
          "duration": 0.125,
          "durationTicks": 96,
          "midi": 74,
          "name": "D5",
          "ticks": 85536,
          "time": 111.375,
          "velocity": 0.3937007874015748
        },
        {
          "duration": 0.125,
          "durationTicks": 96,
          "midi": 38,
          "name": "D2",
          "ticks": 85728,
          "time": 111.625,
          "velocity": 0.3937007874015748
        },
        {
          "duration": 0.125,
          "durationTicks": 96,
          "midi": 50,
          "name": "D3",
          "ticks": 85728,
          "time": 111.625,
          "velocity": 0.3937007874015748
        },
        {
          "duration": 0.125,
          "durationTicks": 96,
          "midi": 74,
          "name": "D5",
          "ticks": 85728,
          "time": 111.625,
          "velocity": 0.3937007874015748
        },
        {
          "duration": 0.125,
          "durationTicks": 96,
          "midi": 38,
          "name": "D2",
          "ticks": 85824,
          "time": 111.75,
          "velocity": 0.3937007874015748
        },
        {
          "duration": 0.125,
          "durationTicks": 96,
          "midi": 53,
          "name": "F3",
          "ticks": 85824,
          "time": 111.75,
          "velocity": 0.3937007874015748
        },
        {
          "duration": 0.125,
          "durationTicks": 96,
          "midi": 72,
          "name": "C5",
          "ticks": 85824,
          "time": 111.75,
          "velocity": 0.3937007874015748
        },
        {
          "duration": 0.125,
          "durationTicks": 96,
          "midi": 38,
          "name": "D2",
          "ticks": 85920,
          "time": 111.875,
          "velocity": 0.3937007874015748
        },
        {
          "duration": 0.125,
          "durationTicks": 96,
          "midi": 55,
          "name": "G3",
          "ticks": 85920,
          "time": 111.875,
          "velocity": 0.3937007874015748
        },
        {
          "duration": 0.125,
          "durationTicks": 96,
          "midi": 74,
          "name": "D5",
          "ticks": 85920,
          "time": 111.875,
          "velocity": 0.3937007874015748
        },
        {
          "duration": 0.125,
          "durationTicks": 96,
          "midi": 34,
          "name": "A#1",
          "ticks": 86016,
          "time": 112,
          "velocity": 0.3937007874015748
        },
        {
          "duration": 0.125,
          "durationTicks": 96,
          "midi": 34,
          "name": "A#1",
          "ticks": 86112,
          "time": 112.125,
          "velocity": 0.3937007874015748
        },
        {
          "duration": 0.125,
          "durationTicks": 96,
          "midi": 34,
          "name": "A#1",
          "ticks": 86208,
          "time": 112.25,
          "velocity": 0.3937007874015748
        },
        {
          "duration": 0.125,
          "durationTicks": 96,
          "midi": 34,
          "name": "A#1",
          "ticks": 86400,
          "time": 112.5,
          "velocity": 0.3937007874015748
        },
        {
          "duration": 0.125,
          "durationTicks": 96,
          "midi": 34,
          "name": "A#1",
          "ticks": 86496,
          "time": 112.625,
          "velocity": 0.3937007874015748
        },
        {
          "duration": 0.125,
          "durationTicks": 96,
          "midi": 34,
          "name": "A#1",
          "ticks": 86688,
          "time": 112.875,
          "velocity": 0.3937007874015748
        },
        {
          "duration": 0.125,
          "durationTicks": 96,
          "midi": 34,
          "name": "A#1",
          "ticks": 86880,
          "time": 113.125,
          "velocity": 0.3937007874015748
        },
        {
          "duration": 0.125,
          "durationTicks": 96,
          "midi": 34,
          "name": "A#1",
          "ticks": 87072,
          "time": 113.375,
          "velocity": 0.3937007874015748
        },
        {
          "duration": 0.125,
          "durationTicks": 96,
          "midi": 34,
          "name": "A#1",
          "ticks": 87264,
          "time": 113.625,
          "velocity": 0.3937007874015748
        },
        {
          "duration": 0.125,
          "durationTicks": 96,
          "midi": 34,
          "name": "A#1",
          "ticks": 87360,
          "time": 113.75,
          "velocity": 0.3937007874015748
        },
        {
          "duration": 0.125,
          "durationTicks": 96,
          "midi": 34,
          "name": "A#1",
          "ticks": 87456,
          "time": 113.875,
          "velocity": 0.3937007874015748
        },
        {
          "duration": 0.125,
          "durationTicks": 96,
          "midi": 36,
          "name": "C2",
          "ticks": 87552,
          "time": 114,
          "velocity": 0.3937007874015748
        },
        {
          "duration": 0.125,
          "durationTicks": 96,
          "midi": 36,
          "name": "C2",
          "ticks": 87648,
          "time": 114.125,
          "velocity": 0.3937007874015748
        },
        {
          "duration": 0.125,
          "durationTicks": 96,
          "midi": 36,
          "name": "C2",
          "ticks": 87744,
          "time": 114.25,
          "velocity": 0.3937007874015748
        },
        {
          "duration": 0.125,
          "durationTicks": 96,
          "midi": 36,
          "name": "C2",
          "ticks": 87936,
          "time": 114.5,
          "velocity": 0.3937007874015748
        },
        {
          "duration": 0.125,
          "durationTicks": 96,
          "midi": 36,
          "name": "C2",
          "ticks": 88032,
          "time": 114.625,
          "velocity": 0.3937007874015748
        },
        {
          "duration": 0.125,
          "durationTicks": 96,
          "midi": 36,
          "name": "C2",
          "ticks": 88224,
          "time": 114.875,
          "velocity": 0.3937007874015748
        },
        {
          "duration": 0.125,
          "durationTicks": 96,
          "midi": 36,
          "name": "C2",
          "ticks": 88416,
          "time": 115.125,
          "velocity": 0.3937007874015748
        },
        {
          "duration": 0.125,
          "durationTicks": 96,
          "midi": 36,
          "name": "C2",
          "ticks": 88608,
          "time": 115.375,
          "velocity": 0.3937007874015748
        },
        {
          "duration": 0.125,
          "durationTicks": 96,
          "midi": 36,
          "name": "C2",
          "ticks": 88800,
          "time": 115.625,
          "velocity": 0.3937007874015748
        },
        {
          "duration": 0.125,
          "durationTicks": 96,
          "midi": 36,
          "name": "C2",
          "ticks": 88896,
          "time": 115.75,
          "velocity": 0.3937007874015748
        },
        {
          "duration": 0.125,
          "durationTicks": 96,
          "midi": 36,
          "name": "C2",
          "ticks": 88992,
          "time": 115.875,
          "velocity": 0.3937007874015748
        },
        {
          "duration": 0.125,
          "durationTicks": 96,
          "midi": 38,
          "name": "D2",
          "ticks": 89088,
          "time": 116,
          "velocity": 0.3937007874015748
        },
        {
          "duration": 0.125,
          "durationTicks": 96,
          "midi": 38,
          "name": "D2",
          "ticks": 89184,
          "time": 116.125,
          "velocity": 0.3937007874015748
        },
        {
          "duration": 0.125,
          "durationTicks": 96,
          "midi": 38,
          "name": "D2",
          "ticks": 89280,
          "time": 116.25,
          "velocity": 0.3937007874015748
        },
        {
          "duration": 0.125,
          "durationTicks": 96,
          "midi": 38,
          "name": "D2",
          "ticks": 89472,
          "time": 116.5,
          "velocity": 0.3937007874015748
        },
        {
          "duration": 0.125,
          "durationTicks": 96,
          "midi": 38,
          "name": "D2",
          "ticks": 89568,
          "time": 116.625,
          "velocity": 0.3937007874015748
        },
        {
          "duration": 0.125,
          "durationTicks": 96,
          "midi": 37,
          "name": "C#2",
          "ticks": 89760,
          "time": 116.875,
          "velocity": 0.3937007874015748
        },
        {
          "duration": 0.125,
          "durationTicks": 96,
          "midi": 37,
          "name": "C#2",
          "ticks": 89952,
          "time": 117.125,
          "velocity": 0.3937007874015748
        },
        {
          "duration": 0.125,
          "durationTicks": 96,
          "midi": 37,
          "name": "C#2",
          "ticks": 90144,
          "time": 117.375,
          "velocity": 0.3937007874015748
        },
        {
          "duration": 0.125,
          "durationTicks": 96,
          "midi": 37,
          "name": "C#2",
          "ticks": 90336,
          "time": 117.625,
          "velocity": 0.3937007874015748
        },
        {
          "duration": 0.125,
          "durationTicks": 96,
          "midi": 37,
          "name": "C#2",
          "ticks": 90432,
          "time": 117.75,
          "velocity": 0.3937007874015748
        },
        {
          "duration": 0.125,
          "durationTicks": 96,
          "midi": 37,
          "name": "C#2",
          "ticks": 90528,
          "time": 117.875,
          "velocity": 0.3937007874015748
        },
        {
          "duration": 0.125,
          "durationTicks": 96,
          "midi": 36,
          "name": "C2",
          "ticks": 90624,
          "time": 118,
          "velocity": 0.3937007874015748
        },
        {
          "duration": 0.125,
          "durationTicks": 96,
          "midi": 36,
          "name": "C2",
          "ticks": 90720,
          "time": 118.125,
          "velocity": 0.3937007874015748
        },
        {
          "duration": 0.125,
          "durationTicks": 96,
          "midi": 36,
          "name": "C2",
          "ticks": 90816,
          "time": 118.25,
          "velocity": 0.3937007874015748
        },
        {
          "duration": 0.125,
          "durationTicks": 96,
          "midi": 36,
          "name": "C2",
          "ticks": 91008,
          "time": 118.5,
          "velocity": 0.3937007874015748
        },
        {
          "duration": 0.125,
          "durationTicks": 96,
          "midi": 36,
          "name": "C2",
          "ticks": 91104,
          "time": 118.625,
          "velocity": 0.3937007874015748
        },
        {
          "duration": 0.125,
          "durationTicks": 96,
          "midi": 35,
          "name": "B1",
          "ticks": 91296,
          "time": 118.875,
          "velocity": 0.3937007874015748
        },
        {
          "duration": 0.125,
          "durationTicks": 96,
          "midi": 35,
          "name": "B1",
          "ticks": 91488,
          "time": 119.125,
          "velocity": 0.3937007874015748
        },
        {
          "duration": 0.125,
          "durationTicks": 96,
          "midi": 35,
          "name": "B1",
          "ticks": 91680,
          "time": 119.375,
          "velocity": 0.3937007874015748
        },
        {
          "duration": 0.125,
          "durationTicks": 96,
          "midi": 35,
          "name": "B1",
          "ticks": 91872,
          "time": 119.625,
          "velocity": 0.3937007874015748
        },
        {
          "duration": 0.125,
          "durationTicks": 96,
          "midi": 35,
          "name": "B1",
          "ticks": 91968,
          "time": 119.75,
          "velocity": 0.3937007874015748
        },
        {
          "duration": 0.125,
          "durationTicks": 96,
          "midi": 35,
          "name": "B1",
          "ticks": 92064,
          "time": 119.875,
          "velocity": 0.3937007874015748
        },
        {
          "duration": 0.125,
          "durationTicks": 96,
          "midi": 34,
          "name": "A#1",
          "ticks": 92160,
          "time": 120,
          "velocity": 0.3937007874015748
        },
        {
          "duration": 0.125,
          "durationTicks": 96,
          "midi": 34,
          "name": "A#1",
          "ticks": 92256,
          "time": 120.125,
          "velocity": 0.3937007874015748
        },
        {
          "duration": 0.125,
          "durationTicks": 96,
          "midi": 34,
          "name": "A#1",
          "ticks": 92352,
          "time": 120.25,
          "velocity": 0.3937007874015748
        },
        {
          "duration": 0.125,
          "durationTicks": 96,
          "midi": 34,
          "name": "A#1",
          "ticks": 92544,
          "time": 120.5,
          "velocity": 0.3937007874015748
        },
        {
          "duration": 0.125,
          "durationTicks": 96,
          "midi": 34,
          "name": "A#1",
          "ticks": 92640,
          "time": 120.625,
          "velocity": 0.3937007874015748
        },
        {
          "duration": 0.125,
          "durationTicks": 96,
          "midi": 34,
          "name": "A#1",
          "ticks": 92832,
          "time": 120.875,
          "velocity": 0.3937007874015748
        },
        {
          "duration": 0.125,
          "durationTicks": 96,
          "midi": 34,
          "name": "A#1",
          "ticks": 93024,
          "time": 121.125,
          "velocity": 0.3937007874015748
        },
        {
          "duration": 0.125,
          "durationTicks": 96,
          "midi": 34,
          "name": "A#1",
          "ticks": 93216,
          "time": 121.375,
          "velocity": 0.3937007874015748
        },
        {
          "duration": 0.125,
          "durationTicks": 96,
          "midi": 34,
          "name": "A#1",
          "ticks": 93408,
          "time": 121.625,
          "velocity": 0.3937007874015748
        },
        {
          "duration": 0.125,
          "durationTicks": 96,
          "midi": 34,
          "name": "A#1",
          "ticks": 93504,
          "time": 121.75,
          "velocity": 0.3937007874015748
        },
        {
          "duration": 0.125,
          "durationTicks": 96,
          "midi": 34,
          "name": "A#1",
          "ticks": 93600,
          "time": 121.875,
          "velocity": 0.3937007874015748
        },
        {
          "duration": 0.125,
          "durationTicks": 96,
          "midi": 36,
          "name": "C2",
          "ticks": 93696,
          "time": 122,
          "velocity": 0.3937007874015748
        },
        {
          "duration": 0.125,
          "durationTicks": 96,
          "midi": 36,
          "name": "C2",
          "ticks": 93792,
          "time": 122.125,
          "velocity": 0.3937007874015748
        },
        {
          "duration": 0.125,
          "durationTicks": 96,
          "midi": 36,
          "name": "C2",
          "ticks": 93888,
          "time": 122.25,
          "velocity": 0.3937007874015748
        },
        {
          "duration": 0.125,
          "durationTicks": 96,
          "midi": 36,
          "name": "C2",
          "ticks": 94080,
          "time": 122.5,
          "velocity": 0.3937007874015748
        },
        {
          "duration": 0.125,
          "durationTicks": 96,
          "midi": 36,
          "name": "C2",
          "ticks": 94176,
          "time": 122.625,
          "velocity": 0.3937007874015748
        },
        {
          "duration": 0.125,
          "durationTicks": 96,
          "midi": 36,
          "name": "C2",
          "ticks": 94368,
          "time": 122.875,
          "velocity": 0.3937007874015748
        },
        {
          "duration": 0.125,
          "durationTicks": 96,
          "midi": 36,
          "name": "C2",
          "ticks": 94560,
          "time": 123.125,
          "velocity": 0.3937007874015748
        },
        {
          "duration": 0.125,
          "durationTicks": 96,
          "midi": 36,
          "name": "C2",
          "ticks": 94752,
          "time": 123.375,
          "velocity": 0.3937007874015748
        },
        {
          "duration": 0.125,
          "durationTicks": 96,
          "midi": 36,
          "name": "C2",
          "ticks": 94944,
          "time": 123.625,
          "velocity": 0.3937007874015748
        },
        {
          "duration": 0.125,
          "durationTicks": 96,
          "midi": 36,
          "name": "C2",
          "ticks": 95040,
          "time": 123.75,
          "velocity": 0.3937007874015748
        },
        {
          "duration": 0.125,
          "durationTicks": 96,
          "midi": 36,
          "name": "C2",
          "ticks": 95136,
          "time": 123.875,
          "velocity": 0.3937007874015748
        },
        {
          "duration": 0.125,
          "durationTicks": 96,
          "midi": 38,
          "name": "D2",
          "ticks": 95232,
          "time": 124,
          "velocity": 0.3937007874015748
        },
        {
          "duration": 0.125,
          "durationTicks": 96,
          "midi": 38,
          "name": "D2",
          "ticks": 95328,
          "time": 124.125,
          "velocity": 0.3937007874015748
        },
        {
          "duration": 0.125,
          "durationTicks": 96,
          "midi": 38,
          "name": "D2",
          "ticks": 95424,
          "time": 124.25,
          "velocity": 0.3937007874015748
        },
        {
          "duration": 0.125,
          "durationTicks": 96,
          "midi": 38,
          "name": "D2",
          "ticks": 95616,
          "time": 124.5,
          "velocity": 0.3937007874015748
        },
        {
          "duration": 0.125,
          "durationTicks": 96,
          "midi": 38,
          "name": "D2",
          "ticks": 95712,
          "time": 124.625,
          "velocity": 0.3937007874015748
        },
        {
          "duration": 0.125,
          "durationTicks": 96,
          "midi": 38,
          "name": "D2",
          "ticks": 95904,
          "time": 124.875,
          "velocity": 0.3937007874015748
        },
        {
          "duration": 0.125,
          "durationTicks": 96,
          "midi": 38,
          "name": "D2",
          "ticks": 96096,
          "time": 125.125,
          "velocity": 0.3937007874015748
        },
        {
          "duration": 0.125,
          "durationTicks": 96,
          "midi": 38,
          "name": "D2",
          "ticks": 96288,
          "time": 125.375,
          "velocity": 0.3937007874015748
        },
        {
          "duration": 0.125,
          "durationTicks": 96,
          "midi": 38,
          "name": "D2",
          "ticks": 96480,
          "time": 125.625,
          "velocity": 0.3937007874015748
        },
        {
          "duration": 0.125,
          "durationTicks": 96,
          "midi": 38,
          "name": "D2",
          "ticks": 96576,
          "time": 125.75,
          "velocity": 0.3937007874015748
        },
        {
          "duration": 0.125,
          "durationTicks": 96,
          "midi": 38,
          "name": "D2",
          "ticks": 96672,
          "time": 125.875,
          "velocity": 0.3937007874015748
        },
        {
          "duration": 0.125,
          "durationTicks": 96,
          "midi": 38,
          "name": "D2",
          "ticks": 96768,
          "time": 126,
          "velocity": 0.3937007874015748
        },
        {
          "duration": 0.125,
          "durationTicks": 96,
          "midi": 38,
          "name": "D2",
          "ticks": 96864,
          "time": 126.125,
          "velocity": 0.3937007874015748
        },
        {
          "duration": 0.125,
          "durationTicks": 96,
          "midi": 38,
          "name": "D2",
          "ticks": 96960,
          "time": 126.25,
          "velocity": 0.3937007874015748
        },
        {
          "duration": 0.125,
          "durationTicks": 96,
          "midi": 38,
          "name": "D2",
          "ticks": 97152,
          "time": 126.5,
          "velocity": 0.3937007874015748
        },
        {
          "duration": 0.125,
          "durationTicks": 96,
          "midi": 38,
          "name": "D2",
          "ticks": 97248,
          "time": 126.625,
          "velocity": 0.3937007874015748
        },
        {
          "duration": 0.125,
          "durationTicks": 96,
          "midi": 38,
          "name": "D2",
          "ticks": 97440,
          "time": 126.875,
          "velocity": 0.3937007874015748
        },
        {
          "duration": 0.125,
          "durationTicks": 96,
          "midi": 38,
          "name": "D2",
          "ticks": 97632,
          "time": 127.125,
          "velocity": 0.3937007874015748
        },
        {
          "duration": 0.125,
          "durationTicks": 96,
          "midi": 38,
          "name": "D2",
          "ticks": 97824,
          "time": 127.375,
          "velocity": 0.3937007874015748
        },
        {
          "duration": 0.125,
          "durationTicks": 96,
          "midi": 38,
          "name": "D2",
          "ticks": 98016,
          "time": 127.625,
          "velocity": 0.3937007874015748
        },
        {
          "duration": 0.125,
          "durationTicks": 96,
          "midi": 38,
          "name": "D2",
          "ticks": 98112,
          "time": 127.75,
          "velocity": 0.3937007874015748
        },
        {
          "duration": 0.125,
          "durationTicks": 96,
          "midi": 38,
          "name": "D2",
          "ticks": 98208,
          "time": 127.875,
          "velocity": 0.3937007874015748
        },
        {
          "duration": 0.125,
          "durationTicks": 96,
          "midi": 34,
          "name": "A#1",
          "ticks": 98304,
          "time": 128,
          "velocity": 0.3937007874015748
        },
        {
          "duration": 0.125,
          "durationTicks": 96,
          "midi": 34,
          "name": "A#1",
          "ticks": 98400,
          "time": 128.125,
          "velocity": 0.3937007874015748
        },
        {
          "duration": 0.125,
          "durationTicks": 96,
          "midi": 34,
          "name": "A#1",
          "ticks": 98496,
          "time": 128.25,
          "velocity": 0.3937007874015748
        },
        {
          "duration": 0.125,
          "durationTicks": 96,
          "midi": 34,
          "name": "A#1",
          "ticks": 98688,
          "time": 128.5,
          "velocity": 0.3937007874015748
        },
        {
          "duration": 0.125,
          "durationTicks": 96,
          "midi": 34,
          "name": "A#1",
          "ticks": 98784,
          "time": 128.625,
          "velocity": 0.3937007874015748
        },
        {
          "duration": 0.125,
          "durationTicks": 96,
          "midi": 34,
          "name": "A#1",
          "ticks": 98976,
          "time": 128.875,
          "velocity": 0.3937007874015748
        },
        {
          "duration": 0.125,
          "durationTicks": 96,
          "midi": 34,
          "name": "A#1",
          "ticks": 99168,
          "time": 129.125,
          "velocity": 0.3937007874015748
        },
        {
          "duration": 0.125,
          "durationTicks": 96,
          "midi": 34,
          "name": "A#1",
          "ticks": 99360,
          "time": 129.375,
          "velocity": 0.3937007874015748
        },
        {
          "duration": 0.125,
          "durationTicks": 96,
          "midi": 34,
          "name": "A#1",
          "ticks": 99552,
          "time": 129.625,
          "velocity": 0.3937007874015748
        },
        {
          "duration": 0.125,
          "durationTicks": 96,
          "midi": 34,
          "name": "A#1",
          "ticks": 99648,
          "time": 129.75,
          "velocity": 0.3937007874015748
        },
        {
          "duration": 0.125,
          "durationTicks": 96,
          "midi": 34,
          "name": "A#1",
          "ticks": 99744,
          "time": 129.875,
          "velocity": 0.3937007874015748
        },
        {
          "duration": 0.125,
          "durationTicks": 96,
          "midi": 36,
          "name": "C2",
          "ticks": 99840,
          "time": 130,
          "velocity": 0.3937007874015748
        },
        {
          "duration": 0.125,
          "durationTicks": 96,
          "midi": 36,
          "name": "C2",
          "ticks": 99936,
          "time": 130.125,
          "velocity": 0.3937007874015748
        },
        {
          "duration": 0.125,
          "durationTicks": 96,
          "midi": 36,
          "name": "C2",
          "ticks": 100032,
          "time": 130.25,
          "velocity": 0.3937007874015748
        },
        {
          "duration": 0.125,
          "durationTicks": 96,
          "midi": 36,
          "name": "C2",
          "ticks": 100224,
          "time": 130.5,
          "velocity": 0.3937007874015748
        },
        {
          "duration": 0.125,
          "durationTicks": 96,
          "midi": 36,
          "name": "C2",
          "ticks": 100320,
          "time": 130.625,
          "velocity": 0.3937007874015748
        },
        {
          "duration": 0.125,
          "durationTicks": 96,
          "midi": 36,
          "name": "C2",
          "ticks": 100512,
          "time": 130.875,
          "velocity": 0.3937007874015748
        },
        {
          "duration": 0.125,
          "durationTicks": 96,
          "midi": 36,
          "name": "C2",
          "ticks": 100704,
          "time": 131.125,
          "velocity": 0.3937007874015748
        },
        {
          "duration": 0.125,
          "durationTicks": 96,
          "midi": 36,
          "name": "C2",
          "ticks": 100896,
          "time": 131.375,
          "velocity": 0.3937007874015748
        },
        {
          "duration": 0.125,
          "durationTicks": 96,
          "midi": 36,
          "name": "C2",
          "ticks": 101088,
          "time": 131.625,
          "velocity": 0.3937007874015748
        },
        {
          "duration": 0.125,
          "durationTicks": 96,
          "midi": 36,
          "name": "C2",
          "ticks": 101184,
          "time": 131.75,
          "velocity": 0.3937007874015748
        },
        {
          "duration": 0.125,
          "durationTicks": 96,
          "midi": 36,
          "name": "C2",
          "ticks": 101280,
          "time": 131.875,
          "velocity": 0.3937007874015748
        },
        {
          "duration": 0.125,
          "durationTicks": 96,
          "midi": 38,
          "name": "D2",
          "ticks": 101376,
          "time": 132,
          "velocity": 0.3937007874015748
        },
        {
          "duration": 0.125,
          "durationTicks": 96,
          "midi": 38,
          "name": "D2",
          "ticks": 101472,
          "time": 132.125,
          "velocity": 0.3937007874015748
        },
        {
          "duration": 0.125,
          "durationTicks": 96,
          "midi": 38,
          "name": "D2",
          "ticks": 101568,
          "time": 132.25,
          "velocity": 0.3937007874015748
        },
        {
          "duration": 0.125,
          "durationTicks": 96,
          "midi": 38,
          "name": "D2",
          "ticks": 101760,
          "time": 132.5,
          "velocity": 0.3937007874015748
        },
        {
          "duration": 0.125,
          "durationTicks": 96,
          "midi": 38,
          "name": "D2",
          "ticks": 101856,
          "time": 132.625,
          "velocity": 0.3937007874015748
        },
        {
          "duration": 0.125,
          "durationTicks": 96,
          "midi": 37,
          "name": "C#2",
          "ticks": 102048,
          "time": 132.875,
          "velocity": 0.3937007874015748
        },
        {
          "duration": 0.125,
          "durationTicks": 96,
          "midi": 37,
          "name": "C#2",
          "ticks": 102240,
          "time": 133.125,
          "velocity": 0.3937007874015748
        },
        {
          "duration": 0.125,
          "durationTicks": 96,
          "midi": 37,
          "name": "C#2",
          "ticks": 102432,
          "time": 133.375,
          "velocity": 0.3937007874015748
        },
        {
          "duration": 0.125,
          "durationTicks": 96,
          "midi": 37,
          "name": "C#2",
          "ticks": 102624,
          "time": 133.625,
          "velocity": 0.3937007874015748
        },
        {
          "duration": 0.125,
          "durationTicks": 96,
          "midi": 37,
          "name": "C#2",
          "ticks": 102720,
          "time": 133.75,
          "velocity": 0.3937007874015748
        },
        {
          "duration": 0.125,
          "durationTicks": 96,
          "midi": 37,
          "name": "C#2",
          "ticks": 102816,
          "time": 133.875,
          "velocity": 0.3937007874015748
        },
        {
          "duration": 0.125,
          "durationTicks": 96,
          "midi": 36,
          "name": "C2",
          "ticks": 102912,
          "time": 134,
          "velocity": 0.3937007874015748
        },
        {
          "duration": 0.125,
          "durationTicks": 96,
          "midi": 36,
          "name": "C2",
          "ticks": 103008,
          "time": 134.125,
          "velocity": 0.3937007874015748
        },
        {
          "duration": 0.125,
          "durationTicks": 96,
          "midi": 36,
          "name": "C2",
          "ticks": 103104,
          "time": 134.25,
          "velocity": 0.3937007874015748
        },
        {
          "duration": 0.125,
          "durationTicks": 96,
          "midi": 36,
          "name": "C2",
          "ticks": 103296,
          "time": 134.5,
          "velocity": 0.3937007874015748
        },
        {
          "duration": 0.125,
          "durationTicks": 96,
          "midi": 36,
          "name": "C2",
          "ticks": 103392,
          "time": 134.625,
          "velocity": 0.3937007874015748
        },
        {
          "duration": 0.125,
          "durationTicks": 96,
          "midi": 35,
          "name": "B1",
          "ticks": 103584,
          "time": 134.875,
          "velocity": 0.3937007874015748
        },
        {
          "duration": 0.125,
          "durationTicks": 96,
          "midi": 35,
          "name": "B1",
          "ticks": 103776,
          "time": 135.125,
          "velocity": 0.3937007874015748
        },
        {
          "duration": 0.125,
          "durationTicks": 96,
          "midi": 35,
          "name": "B1",
          "ticks": 103968,
          "time": 135.375,
          "velocity": 0.3937007874015748
        },
        {
          "duration": 0.125,
          "durationTicks": 96,
          "midi": 35,
          "name": "B1",
          "ticks": 104160,
          "time": 135.625,
          "velocity": 0.3937007874015748
        },
        {
          "duration": 0.125,
          "durationTicks": 96,
          "midi": 35,
          "name": "B1",
          "ticks": 104256,
          "time": 135.75,
          "velocity": 0.3937007874015748
        },
        {
          "duration": 0.125,
          "durationTicks": 96,
          "midi": 35,
          "name": "B1",
          "ticks": 104352,
          "time": 135.875,
          "velocity": 0.3937007874015748
        },
        {
          "duration": 0.125,
          "durationTicks": 96,
          "midi": 34,
          "name": "A#1",
          "ticks": 104448,
          "time": 136,
          "velocity": 0.3937007874015748
        },
        {
          "duration": 0.125,
          "durationTicks": 96,
          "midi": 34,
          "name": "A#1",
          "ticks": 104544,
          "time": 136.125,
          "velocity": 0.3937007874015748
        },
        {
          "duration": 0.125,
          "durationTicks": 96,
          "midi": 34,
          "name": "A#1",
          "ticks": 104640,
          "time": 136.25,
          "velocity": 0.3937007874015748
        },
        {
          "duration": 0.125,
          "durationTicks": 96,
          "midi": 34,
          "name": "A#1",
          "ticks": 104832,
          "time": 136.5,
          "velocity": 0.3937007874015748
        },
        {
          "duration": 0.125,
          "durationTicks": 96,
          "midi": 34,
          "name": "A#1",
          "ticks": 104928,
          "time": 136.625,
          "velocity": 0.3937007874015748
        },
        {
          "duration": 0.125,
          "durationTicks": 96,
          "midi": 34,
          "name": "A#1",
          "ticks": 105120,
          "time": 136.875,
          "velocity": 0.3937007874015748
        },
        {
          "duration": 0.125,
          "durationTicks": 96,
          "midi": 34,
          "name": "A#1",
          "ticks": 105312,
          "time": 137.125,
          "velocity": 0.3937007874015748
        },
        {
          "duration": 0.125,
          "durationTicks": 96,
          "midi": 34,
          "name": "A#1",
          "ticks": 105504,
          "time": 137.375,
          "velocity": 0.3937007874015748
        },
        {
          "duration": 0.125,
          "durationTicks": 96,
          "midi": 34,
          "name": "A#1",
          "ticks": 105696,
          "time": 137.625,
          "velocity": 0.3937007874015748
        },
        {
          "duration": 0.125,
          "durationTicks": 96,
          "midi": 34,
          "name": "A#1",
          "ticks": 105792,
          "time": 137.75,
          "velocity": 0.3937007874015748
        },
        {
          "duration": 0.125,
          "durationTicks": 96,
          "midi": 34,
          "name": "A#1",
          "ticks": 105888,
          "time": 137.875,
          "velocity": 0.3937007874015748
        },
        {
          "duration": 0.125,
          "durationTicks": 96,
          "midi": 36,
          "name": "C2",
          "ticks": 105984,
          "time": 138,
          "velocity": 0.3937007874015748
        },
        {
          "duration": 0.125,
          "durationTicks": 96,
          "midi": 36,
          "name": "C2",
          "ticks": 106080,
          "time": 138.125,
          "velocity": 0.3937007874015748
        },
        {
          "duration": 0.125,
          "durationTicks": 96,
          "midi": 36,
          "name": "C2",
          "ticks": 106176,
          "time": 138.25,
          "velocity": 0.3937007874015748
        },
        {
          "duration": 0.125,
          "durationTicks": 96,
          "midi": 36,
          "name": "C2",
          "ticks": 106368,
          "time": 138.5,
          "velocity": 0.3937007874015748
        },
        {
          "duration": 0.125,
          "durationTicks": 96,
          "midi": 36,
          "name": "C2",
          "ticks": 106464,
          "time": 138.625,
          "velocity": 0.3937007874015748
        },
        {
          "duration": 0.125,
          "durationTicks": 96,
          "midi": 36,
          "name": "C2",
          "ticks": 106656,
          "time": 138.875,
          "velocity": 0.3937007874015748
        },
        {
          "duration": 0.125,
          "durationTicks": 96,
          "midi": 36,
          "name": "C2",
          "ticks": 106848,
          "time": 139.125,
          "velocity": 0.3937007874015748
        },
        {
          "duration": 0.125,
          "durationTicks": 96,
          "midi": 36,
          "name": "C2",
          "ticks": 107040,
          "time": 139.375,
          "velocity": 0.3937007874015748
        },
        {
          "duration": 0.125,
          "durationTicks": 96,
          "midi": 36,
          "name": "C2",
          "ticks": 107232,
          "time": 139.625,
          "velocity": 0.3937007874015748
        },
        {
          "duration": 0.125,
          "durationTicks": 96,
          "midi": 36,
          "name": "C2",
          "ticks": 107328,
          "time": 139.75,
          "velocity": 0.3937007874015748
        },
        {
          "duration": 0.125,
          "durationTicks": 96,
          "midi": 36,
          "name": "C2",
          "ticks": 107424,
          "time": 139.875,
          "velocity": 0.3937007874015748
        },
        {
          "duration": 0.125,
          "durationTicks": 96,
          "midi": 38,
          "name": "D2",
          "ticks": 107520,
          "time": 140,
          "velocity": 0.3937007874015748
        },
        {
          "duration": 0.125,
          "durationTicks": 96,
          "midi": 50,
          "name": "D3",
          "ticks": 107520,
          "time": 140,
          "velocity": 0.3937007874015748
        },
        {
          "duration": 0.125,
          "durationTicks": 96,
          "midi": 38,
          "name": "D2",
          "ticks": 107616,
          "time": 140.125,
          "velocity": 0.3937007874015748
        },
        {
          "duration": 0.125,
          "durationTicks": 96,
          "midi": 50,
          "name": "D3",
          "ticks": 107616,
          "time": 140.125,
          "velocity": 0.3937007874015748
        },
        {
          "duration": 0.125,
          "durationTicks": 96,
          "midi": 38,
          "name": "D2",
          "ticks": 107712,
          "time": 140.25,
          "velocity": 0.3937007874015748
        },
        {
          "duration": 0.125,
          "durationTicks": 96,
          "midi": 62,
          "name": "D4",
          "ticks": 107712,
          "time": 140.25,
          "velocity": 0.3937007874015748
        },
        {
          "duration": 0.125,
          "durationTicks": 96,
          "midi": 38,
          "name": "D2",
          "ticks": 107904,
          "time": 140.5,
          "velocity": 0.3937007874015748
        },
        {
          "duration": 0.125,
          "durationTicks": 96,
          "midi": 57,
          "name": "A3",
          "ticks": 107904,
          "time": 140.5,
          "velocity": 0.3937007874015748
        },
        {
          "duration": 0.125,
          "durationTicks": 96,
          "midi": 38,
          "name": "D2",
          "ticks": 108000,
          "time": 140.625,
          "velocity": 0.3937007874015748
        },
        {
          "duration": 0.125,
          "durationTicks": 96,
          "midi": 38,
          "name": "D2",
          "ticks": 108192,
          "time": 140.875,
          "velocity": 0.3937007874015748
        },
        {
          "duration": 0.125,
          "durationTicks": 96,
          "midi": 56,
          "name": "G#3",
          "ticks": 108192,
          "time": 140.875,
          "velocity": 0.3937007874015748
        },
        {
          "duration": 0.125,
          "durationTicks": 96,
          "midi": 38,
          "name": "D2",
          "ticks": 108384,
          "time": 141.125,
          "velocity": 0.3937007874015748
        },
        {
          "duration": 0.125,
          "durationTicks": 96,
          "midi": 55,
          "name": "G3",
          "ticks": 108384,
          "time": 141.125,
          "velocity": 0.3937007874015748
        },
        {
          "duration": 0.125,
          "durationTicks": 96,
          "midi": 38,
          "name": "D2",
          "ticks": 108576,
          "time": 141.375,
          "velocity": 0.3937007874015748
        },
        {
          "duration": 0.125,
          "durationTicks": 96,
          "midi": 53,
          "name": "F3",
          "ticks": 108576,
          "time": 141.375,
          "velocity": 0.3937007874015748
        },
        {
          "duration": 0.125,
          "durationTicks": 96,
          "midi": 38,
          "name": "D2",
          "ticks": 108768,
          "time": 141.625,
          "velocity": 0.3937007874015748
        },
        {
          "duration": 0.125,
          "durationTicks": 96,
          "midi": 50,
          "name": "D3",
          "ticks": 108768,
          "time": 141.625,
          "velocity": 0.3937007874015748
        },
        {
          "duration": 0.125,
          "durationTicks": 96,
          "midi": 38,
          "name": "D2",
          "ticks": 108864,
          "time": 141.75,
          "velocity": 0.3937007874015748
        },
        {
          "duration": 0.125,
          "durationTicks": 96,
          "midi": 53,
          "name": "F3",
          "ticks": 108864,
          "time": 141.75,
          "velocity": 0.3937007874015748
        },
        {
          "duration": 0.125,
          "durationTicks": 96,
          "midi": 38,
          "name": "D2",
          "ticks": 108960,
          "time": 141.875,
          "velocity": 0.3937007874015748
        },
        {
          "duration": 0.125,
          "durationTicks": 96,
          "midi": 55,
          "name": "G3",
          "ticks": 108960,
          "time": 141.875,
          "velocity": 0.3937007874015748
        },
        {
          "duration": 0.125,
          "durationTicks": 96,
          "midi": 38,
          "name": "D2",
          "ticks": 109056,
          "time": 142,
          "velocity": 0.3937007874015748
        },
        {
          "duration": 0.125,
          "durationTicks": 96,
          "midi": 50,
          "name": "D3",
          "ticks": 109056,
          "time": 142,
          "velocity": 0.3937007874015748
        },
        {
          "duration": 0.125,
          "durationTicks": 96,
          "midi": 38,
          "name": "D2",
          "ticks": 109152,
          "time": 142.125,
          "velocity": 0.3937007874015748
        },
        {
          "duration": 0.125,
          "durationTicks": 96,
          "midi": 50,
          "name": "D3",
          "ticks": 109152,
          "time": 142.125,
          "velocity": 0.3937007874015748
        },
        {
          "duration": 0.125,
          "durationTicks": 96,
          "midi": 38,
          "name": "D2",
          "ticks": 109248,
          "time": 142.25,
          "velocity": 0.3937007874015748
        },
        {
          "duration": 0.125,
          "durationTicks": 96,
          "midi": 62,
          "name": "D4",
          "ticks": 109248,
          "time": 142.25,
          "velocity": 0.3937007874015748
        },
        {
          "duration": 0.125,
          "durationTicks": 96,
          "midi": 38,
          "name": "D2",
          "ticks": 109440,
          "time": 142.5,
          "velocity": 0.3937007874015748
        },
        {
          "duration": 0.125,
          "durationTicks": 96,
          "midi": 57,
          "name": "A3",
          "ticks": 109440,
          "time": 142.5,
          "velocity": 0.3937007874015748
        },
        {
          "duration": 0.125,
          "durationTicks": 96,
          "midi": 38,
          "name": "D2",
          "ticks": 109536,
          "time": 142.625,
          "velocity": 0.3937007874015748
        },
        {
          "duration": 0.125,
          "durationTicks": 96,
          "midi": 38,
          "name": "D2",
          "ticks": 109728,
          "time": 142.875,
          "velocity": 0.3937007874015748
        },
        {
          "duration": 0.125,
          "durationTicks": 96,
          "midi": 56,
          "name": "G#3",
          "ticks": 109728,
          "time": 142.875,
          "velocity": 0.3937007874015748
        },
        {
          "duration": 0.125,
          "durationTicks": 96,
          "midi": 38,
          "name": "D2",
          "ticks": 109920,
          "time": 143.125,
          "velocity": 0.3937007874015748
        },
        {
          "duration": 0.125,
          "durationTicks": 96,
          "midi": 55,
          "name": "G3",
          "ticks": 109920,
          "time": 143.125,
          "velocity": 0.3937007874015748
        },
        {
          "duration": 0.125,
          "durationTicks": 96,
          "midi": 38,
          "name": "D2",
          "ticks": 110112,
          "time": 143.375,
          "velocity": 0.3937007874015748
        },
        {
          "duration": 0.125,
          "durationTicks": 96,
          "midi": 53,
          "name": "F3",
          "ticks": 110112,
          "time": 143.375,
          "velocity": 0.3937007874015748
        },
        {
          "duration": 0.125,
          "durationTicks": 96,
          "midi": 38,
          "name": "D2",
          "ticks": 110304,
          "time": 143.625,
          "velocity": 0.3937007874015748
        },
        {
          "duration": 0.125,
          "durationTicks": 96,
          "midi": 50,
          "name": "D3",
          "ticks": 110304,
          "time": 143.625,
          "velocity": 0.3937007874015748
        },
        {
          "duration": 0.125,
          "durationTicks": 96,
          "midi": 38,
          "name": "D2",
          "ticks": 110400,
          "time": 143.75,
          "velocity": 0.3937007874015748
        },
        {
          "duration": 0.125,
          "durationTicks": 96,
          "midi": 53,
          "name": "F3",
          "ticks": 110400,
          "time": 143.75,
          "velocity": 0.3937007874015748
        },
        {
          "duration": 0.125,
          "durationTicks": 96,
          "midi": 38,
          "name": "D2",
          "ticks": 110496,
          "time": 143.875,
          "velocity": 0.3937007874015748
        },
        {
          "duration": 0.125,
          "durationTicks": 96,
          "midi": 55,
          "name": "G3",
          "ticks": 110496,
          "time": 143.875,
          "velocity": 0.3937007874015748
        },
        {
          "duration": 0.125,
          "durationTicks": 96,
          "midi": 46,
          "name": "A#2",
          "ticks": 110592,
          "time": 144,
          "velocity": 0.3937007874015748
        },
        {
          "duration": 0.125,
          "durationTicks": 96,
          "midi": 46,
          "name": "A#2",
          "ticks": 110688,
          "time": 144.125,
          "velocity": 0.3937007874015748
        },
        {
          "duration": 0.125,
          "durationTicks": 96,
          "midi": 62,
          "name": "D4",
          "ticks": 110784,
          "time": 144.25,
          "velocity": 0.3937007874015748
        },
        {
          "duration": 0.125,
          "durationTicks": 96,
          "midi": 57,
          "name": "A3",
          "ticks": 110976,
          "time": 144.5,
          "velocity": 0.3937007874015748
        },
        {
          "duration": 0.125,
          "durationTicks": 96,
          "midi": 56,
          "name": "G#3",
          "ticks": 111264,
          "time": 144.875,
          "velocity": 0.3937007874015748
        },
        {
          "duration": 0.125,
          "durationTicks": 96,
          "midi": 55,
          "name": "G3",
          "ticks": 111456,
          "time": 145.125,
          "velocity": 0.3937007874015748
        },
        {
          "duration": 0.125,
          "durationTicks": 96,
          "midi": 53,
          "name": "F3",
          "ticks": 111648,
          "time": 145.375,
          "velocity": 0.3937007874015748
        },
        {
          "duration": 0.125,
          "durationTicks": 96,
          "midi": 50,
          "name": "D3",
          "ticks": 111840,
          "time": 145.625,
          "velocity": 0.3937007874015748
        },
        {
          "duration": 0.125,
          "durationTicks": 96,
          "midi": 53,
          "name": "F3",
          "ticks": 111936,
          "time": 145.75,
          "velocity": 0.3937007874015748
        },
        {
          "duration": 0.125,
          "durationTicks": 96,
          "midi": 55,
          "name": "G3",
          "ticks": 112032,
          "time": 145.875,
          "velocity": 0.3937007874015748
        },
        {
          "duration": 0.125,
          "durationTicks": 96,
          "midi": 48,
          "name": "C3",
          "ticks": 112128,
          "time": 146,
          "velocity": 0.3937007874015748
        },
        {
          "duration": 0.125,
          "durationTicks": 96,
          "midi": 48,
          "name": "C3",
          "ticks": 112224,
          "time": 146.125,
          "velocity": 0.3937007874015748
        },
        {
          "duration": 0.125,
          "durationTicks": 96,
          "midi": 62,
          "name": "D4",
          "ticks": 112320,
          "time": 146.25,
          "velocity": 0.3937007874015748
        },
        {
          "duration": 0.125,
          "durationTicks": 96,
          "midi": 57,
          "name": "A3",
          "ticks": 112512,
          "time": 146.5,
          "velocity": 0.3937007874015748
        },
        {
          "duration": 0.125,
          "durationTicks": 96,
          "midi": 56,
          "name": "G#3",
          "ticks": 112800,
          "time": 146.875,
          "velocity": 0.3937007874015748
        },
        {
          "duration": 0.125,
          "durationTicks": 96,
          "midi": 55,
          "name": "G3",
          "ticks": 112992,
          "time": 147.125,
          "velocity": 0.3937007874015748
        },
        {
          "duration": 0.125,
          "durationTicks": 96,
          "midi": 53,
          "name": "F3",
          "ticks": 113184,
          "time": 147.375,
          "velocity": 0.3937007874015748
        },
        {
          "duration": 0.125,
          "durationTicks": 96,
          "midi": 50,
          "name": "D3",
          "ticks": 113376,
          "time": 147.625,
          "velocity": 0.3937007874015748
        },
        {
          "duration": 0.125,
          "durationTicks": 96,
          "midi": 53,
          "name": "F3",
          "ticks": 113472,
          "time": 147.75,
          "velocity": 0.3937007874015748
        },
        {
          "duration": 0.125,
          "durationTicks": 96,
          "midi": 55,
          "name": "G3",
          "ticks": 113568,
          "time": 147.875,
          "velocity": 0.3937007874015748
        },
        {
          "duration": 0.125,
          "durationTicks": 96,
          "midi": 50,
          "name": "D3",
          "ticks": 113664,
          "time": 148,
          "velocity": 0.3937007874015748
        },
        {
          "duration": 0.125,
          "durationTicks": 96,
          "midi": 50,
          "name": "D3",
          "ticks": 113760,
          "time": 148.125,
          "velocity": 0.3937007874015748
        },
        {
          "duration": 0.125,
          "durationTicks": 96,
          "midi": 62,
          "name": "D4",
          "ticks": 113856,
          "time": 148.25,
          "velocity": 0.3937007874015748
        },
        {
          "duration": 0.125,
          "durationTicks": 96,
          "midi": 57,
          "name": "A3",
          "ticks": 114048,
          "time": 148.5,
          "velocity": 0.3937007874015748
        },
        {
          "duration": 0.125,
          "durationTicks": 96,
          "midi": 56,
          "name": "G#3",
          "ticks": 114336,
          "time": 148.875,
          "velocity": 0.3937007874015748
        },
        {
          "duration": 0.125,
          "durationTicks": 96,
          "midi": 55,
          "name": "G3",
          "ticks": 114528,
          "time": 149.125,
          "velocity": 0.3937007874015748
        },
        {
          "duration": 0.125,
          "durationTicks": 96,
          "midi": 53,
          "name": "F3",
          "ticks": 114720,
          "time": 149.375,
          "velocity": 0.3937007874015748
        },
        {
          "duration": 0.125,
          "durationTicks": 96,
          "midi": 50,
          "name": "D3",
          "ticks": 114912,
          "time": 149.625,
          "velocity": 0.3937007874015748
        },
        {
          "duration": 0.125,
          "durationTicks": 96,
          "midi": 53,
          "name": "F3",
          "ticks": 115008,
          "time": 149.75,
          "velocity": 0.3937007874015748
        },
        {
          "duration": 0.125,
          "durationTicks": 96,
          "midi": 55,
          "name": "G3",
          "ticks": 115104,
          "time": 149.875,
          "velocity": 0.3937007874015748
        },
        {
          "duration": 0.125,
          "durationTicks": 96,
          "midi": 50,
          "name": "D3",
          "ticks": 115200,
          "time": 150,
          "velocity": 0.3937007874015748
        },
        {
          "duration": 0.125,
          "durationTicks": 96,
          "midi": 50,
          "name": "D3",
          "ticks": 115296,
          "time": 150.125,
          "velocity": 0.3937007874015748
        },
        {
          "duration": 0.125,
          "durationTicks": 96,
          "midi": 62,
          "name": "D4",
          "ticks": 115392,
          "time": 150.25,
          "velocity": 0.3937007874015748
        },
        {
          "duration": 0.125,
          "durationTicks": 96,
          "midi": 57,
          "name": "A3",
          "ticks": 115584,
          "time": 150.5,
          "velocity": 0.3937007874015748
        },
        {
          "duration": 0.125,
          "durationTicks": 96,
          "midi": 56,
          "name": "G#3",
          "ticks": 115872,
          "time": 150.875,
          "velocity": 0.3937007874015748
        },
        {
          "duration": 0.125,
          "durationTicks": 96,
          "midi": 55,
          "name": "G3",
          "ticks": 116064,
          "time": 151.125,
          "velocity": 0.3937007874015748
        },
        {
          "duration": 0.125,
          "durationTicks": 96,
          "midi": 53,
          "name": "F3",
          "ticks": 116256,
          "time": 151.375,
          "velocity": 0.3937007874015748
        },
        {
          "duration": 0.125,
          "durationTicks": 96,
          "midi": 50,
          "name": "D3",
          "ticks": 116448,
          "time": 151.625,
          "velocity": 0.3937007874015748
        },
        {
          "duration": 0.125,
          "durationTicks": 96,
          "midi": 53,
          "name": "F3",
          "ticks": 116544,
          "time": 151.75,
          "velocity": 0.3937007874015748
        },
        {
          "duration": 0.125,
          "durationTicks": 96,
          "midi": 55,
          "name": "G3",
          "ticks": 116640,
          "time": 151.875,
          "velocity": 0.3937007874015748
        },
        {
          "duration": 0.125,
          "durationTicks": 96,
          "midi": 46,
          "name": "A#2",
          "ticks": 116736,
          "time": 152,
          "velocity": 0.3937007874015748
        },
        {
          "duration": 0.125,
          "durationTicks": 96,
          "midi": 46,
          "name": "A#2",
          "ticks": 116832,
          "time": 152.125,
          "velocity": 0.3937007874015748
        },
        {
          "duration": 0.125,
          "durationTicks": 96,
          "midi": 62,
          "name": "D4",
          "ticks": 116928,
          "time": 152.25,
          "velocity": 0.3937007874015748
        },
        {
          "duration": 0.125,
          "durationTicks": 96,
          "midi": 57,
          "name": "A3",
          "ticks": 117120,
          "time": 152.5,
          "velocity": 0.3937007874015748
        },
        {
          "duration": 0.125,
          "durationTicks": 96,
          "midi": 56,
          "name": "G#3",
          "ticks": 117408,
          "time": 152.875,
          "velocity": 0.3937007874015748
        },
        {
          "duration": 0.125,
          "durationTicks": 96,
          "midi": 55,
          "name": "G3",
          "ticks": 117600,
          "time": 153.125,
          "velocity": 0.3937007874015748
        },
        {
          "duration": 0.125,
          "durationTicks": 96,
          "midi": 53,
          "name": "F3",
          "ticks": 117792,
          "time": 153.375,
          "velocity": 0.3937007874015748
        },
        {
          "duration": 0.125,
          "durationTicks": 96,
          "midi": 50,
          "name": "D3",
          "ticks": 117984,
          "time": 153.625,
          "velocity": 0.3937007874015748
        },
        {
          "duration": 0.125,
          "durationTicks": 96,
          "midi": 53,
          "name": "F3",
          "ticks": 118080,
          "time": 153.75,
          "velocity": 0.3937007874015748
        },
        {
          "duration": 0.125,
          "durationTicks": 96,
          "midi": 55,
          "name": "G3",
          "ticks": 118176,
          "time": 153.875,
          "velocity": 0.3937007874015748
        },
        {
          "duration": 0.125,
          "durationTicks": 96,
          "midi": 48,
          "name": "C3",
          "ticks": 118272,
          "time": 154,
          "velocity": 0.3937007874015748
        },
        {
          "duration": 0.125,
          "durationTicks": 96,
          "midi": 48,
          "name": "C3",
          "ticks": 118368,
          "time": 154.125,
          "velocity": 0.3937007874015748
        },
        {
          "duration": 0.125,
          "durationTicks": 96,
          "midi": 62,
          "name": "D4",
          "ticks": 118464,
          "time": 154.25,
          "velocity": 0.3937007874015748
        },
        {
          "duration": 0.125,
          "durationTicks": 96,
          "midi": 57,
          "name": "A3",
          "ticks": 118656,
          "time": 154.5,
          "velocity": 0.3937007874015748
        },
        {
          "duration": 0.125,
          "durationTicks": 96,
          "midi": 56,
          "name": "G#3",
          "ticks": 118944,
          "time": 154.875,
          "velocity": 0.3937007874015748
        },
        {
          "duration": 0.125,
          "durationTicks": 96,
          "midi": 55,
          "name": "G3",
          "ticks": 119136,
          "time": 155.125,
          "velocity": 0.3937007874015748
        },
        {
          "duration": 0.125,
          "durationTicks": 96,
          "midi": 53,
          "name": "F3",
          "ticks": 119328,
          "time": 155.375,
          "velocity": 0.3937007874015748
        },
        {
          "duration": 0.125,
          "durationTicks": 96,
          "midi": 50,
          "name": "D3",
          "ticks": 119520,
          "time": 155.625,
          "velocity": 0.3937007874015748
        },
        {
          "duration": 0.125,
          "durationTicks": 96,
          "midi": 53,
          "name": "F3",
          "ticks": 119616,
          "time": 155.75,
          "velocity": 0.3937007874015748
        },
        {
          "duration": 0.125,
          "durationTicks": 96,
          "midi": 55,
          "name": "G3",
          "ticks": 119712,
          "time": 155.875,
          "velocity": 0.3937007874015748
        }
      ],
      "endOfTrackTicks": 119808
    }
  ]
}
